<?xml version='1.0' encoding='utf-8'?>
<svg xmlns="http://www.w3.org/2000/svg" version="1.1" width="99" height="95">
<path d="M0 0 C1.79677527 0.56740272 3.58745629 1.1541521 5.375 1.75 C7.6868198 2.16620998 9.99905158 2.57270806 12.31640625 2.95703125 C15.01387601 3.99609455 15.17254356 5.21148085 16.375 7.75 C20 9 20 9 23.375 9.75 C23.375 12.06 23.375 14.37 23.375 16.75 C24.035 16.75 24.695 16.75 25.375 16.75 C25.43558594 17.64203125 25.49617188 18.5340625 25.55859375 19.453125 C25.64238281 20.62359375 25.72617188 21.7940625 25.8125 23 C25.89371094 24.16015625 25.97492188 25.3203125 26.05859375 26.515625 C26.30908008 29.07615188 26.71843552 31.28387977 27.375 33.75 C27.625 37.375 27.625 37.375 27.375 40.75 C24.375 42.75 24.375 42.75 21.375 42.75 C21.375 43.41 21.375 44.07 21.375 44.75 C20.76914063 44.89695313 20.16328125 45.04390625 19.5390625 45.1953125 C14.83390444 46.45484712 10.89634404 47.88445426 6.8125 50.5625 C2.31595593 53.4200502 -2.24590532 55.25428474 -7.25 57 C-7.95455322 57.24596924 -8.65910645 57.49193848 -9.38500977 57.74536133 C-15.72214601 59.88979438 -22.12141238 62.04357153 -28.875 62 C-29.68453125 62.00515625 -30.4940625 62.0103125 -31.328125 62.015625 C-33.864756 61.72227312 -35.4700332 61.10630586 -37.625 59.75 C-41.27630892 53.36020938 -39.54836675 46.38992361 -37.75 39.6875 C-37.57597656 39.00623047 -37.40195312 38.32496094 -37.22265625 37.62304688 C-36.71330149 35.65920131 -36.16974557 33.70432442 -35.625 31.75 C-35.47675781 31.20988281 -35.47675781 31.20988281 -34.7265625 28.4765625 C-33.51144086 25.468921 -32.38034484 24.20245757 -29.875 22.1875 C-29.16601562 21.60097656 -28.45703125 21.01445313 -27.7265625 20.41015625 C-26.43524363 19.39006235 -25.13935006 18.37568902 -23.8359375 17.37109375 C-19.77700047 14.18192894 -19.77700047 14.18192894 -18.76171875 11.296875 C-17.32453359 8.07679003 -15.87221345 7.30394321 -12.8125 5.625 C-11.96042969 5.14804687 -11.10835937 4.67109375 -10.23046875 4.1796875 C-9.37066406 3.70789063 -8.51085937 3.23609375 -7.625 2.75 C-6.74714844 2.19054687 -5.86929688 1.63109375 -4.96484375 1.0546875 C-2.625 -0.25 -2.625 -0.25 0 0 Z " fill="#BE3406" transform="translate(55.625,17.25)" />
<path d="M0 0 C3.2998065 2.93645702 5.57025152 5.73761385 7 9.9375 C7 14.11395019 6.44935307 17.04721891 5 21 C2.75 22.25 2.75 22.25 0 23 C-1.051875 23.70125 -2.10375 24.4025 -3.1875 25.125 C-6 27 -6 27 -8 27 C-8.66 26.34 -9.32 25.68 -10 25 C-12.95716929 26.1216849 -13.90714965 26.84401141 -15.5625 29.625 C-16.036875 30.40875 -16.51125 31.1925 -17 32 C-17.99 32 -18.98 32 -20 32 C-20 32.66 -20 33.32 -20 34 C-20.99 33.67 -21.98 33.34 -23 33 C-24.91871288 33.69470639 -26.83531977 34.39772251 -28.7265625 35.1640625 C-32.39140988 36.51161807 -36.1757187 37.24753724 -40 38 C-40.33 39.32 -40.66 40.64 -41 42 C-41.66 42 -42.32 42 -43 42 C-43.33 42.99 -43.66 43.98 -44 45 C-46.8125 45.25 -46.8125 45.25 -50 45 C-52.05199463 42.90982873 -52.91687356 41.54166264 -53.36328125 38.6328125 C-53.26368563 33.71432103 -52.94034528 29.60832004 -51 25 C-50.67 25 -50.34 25 -50 25 C-50 30.61 -50 36.22 -50 42 C-48.35 42.33 -46.7 42.66 -45 43 C-45.04189453 42.52369141 -45.04189453 42.52369141 -45.25390625 40.11328125 C-45.30482422 39.48615234 -45.30482422 39.48615234 -45.5625 36.3125 C-45.61470703 35.69181641 -45.61470703 35.69181641 -45.87890625 32.55078125 C-46.01314984 28.61441273 -45.76509956 25.53019912 -44 22 C-41.4375 21.375 -41.4375 21.375 -39 21 C-39 20.34 -39 19.68 -39 19 C-38.731875 18.7421875 -38.731875 18.7421875 -37.375 17.4375 C-35.22300741 15.22887603 -33.90422384 13.29455742 -32.3125 10.6875 C-28.40504906 4.6927778 -23.36676965 0.54871404 -16.875 -2.4375 C-10.4376442 -3.69698266 -5.76349084 -3.24851302 0 0 Z " fill="#EDB11E" transform="translate(71,32)" />
<path d="M0 0 C1.79677527 0.56740272 3.58745629 1.1541521 5.375 1.75 C7.6868198 2.16620998 9.99905158 2.57270806 12.31640625 2.95703125 C15.01387601 3.99609455 15.17254356 5.21148085 16.375 7.75 C20 9 20 9 23.375 9.75 C23.375 12.06 23.375 14.37 23.375 16.75 C24.035 16.75 24.695 16.75 25.375 16.75 C25.57055932 19.47880461 25.75670447 22.20771069 25.9375 24.9375 C25.96553711 25.32196289 25.96553711 25.32196289 26.10742188 27.26757812 C26.36641557 31.29061353 26.44073607 34.81072372 25.375 38.75 C24.55257812 38.98074219 23.73015625 39.21148437 22.8828125 39.44921875 C16.34084095 41.36044139 10.37243098 43.50224737 4.3984375 46.796875 C2.375 47.75 2.375 47.75 -0.625 47.75 C-0.625 48.41 -0.625 49.07 -0.625 49.75 C-17.77393617 56.51595745 -17.77393617 56.51595745 -26.625 57.75 C-26.625 58.41 -26.625 59.07 -26.625 59.75 C-27.285 59.42 -27.945 59.09 -28.625 58.75 C-28.295 58.09 -27.965 57.43 -27.625 56.75 C-26.965 56.75 -26.305 56.75 -25.625 56.75 C-25.295 55.1 -24.965 53.45 -24.625 51.75 C-24.068125 51.64042969 -23.51125 51.53085938 -22.9375 51.41796875 C-18.87170287 50.57321698 -15.04844492 49.60687797 -11.1875 48.0625 C-10.011875 47.629375 -8.83625 47.19625 -7.625 46.75 C-6.965 47.08 -6.305 47.41 -5.625 47.75 C-5.295 47.42 -4.965 47.09 -4.625 46.75 C-3.635 46.09 -2.645 45.43 -1.625 44.75 C-1.2228125 44.234375 -1.2228125 44.234375 0.8125 41.625 C1.2353125 41.150625 1.2353125 41.150625 3.375 38.75 C4.695 38.75 6.015 38.75 7.375 38.75 C7.375 39.74 7.375 40.73 7.375 41.75 C7.97828125 41.316875 8.5815625 40.88375 9.203125 40.4375 C10.00234375 39.880625 10.8015625 39.32375 11.625 38.75 C12.01945312 38.4715625 12.01945312 38.4715625 14.015625 37.0625 C16.375 35.75 16.375 35.75 20.375 35.75 C20.354375 34.88375 20.33375 34.0175 20.3125 33.125 C20.375 29.75 20.375 29.75 21.25 26.875 C21.42078255 22.60543631 19.84772141 20.73423797 17.17578125 17.515625 C12.22789345 12.66433371 5.95238642 12.18252654 -0.625 11.75 C-0.625 11.09 -0.625 10.43 -0.625 9.75 C-5.245 10.08 -9.865 10.41 -14.625 10.75 C-15.285 12.73 -15.945 14.71 -16.625 16.75 C-17.50509271 19.20596551 -18.46883978 21.39143315 -19.625 23.75 C-22.625 24.75 -22.625 24.75 -25.625 24.75 C-27.32219127 25.69726954 -28.99435236 26.69228261 -30.625 27.75 C-29.32477902 21.82677108 -26.09528205 18.57715185 -21.625 14.75 C-20.965 14.42 -20.305 14.09 -19.625 13.75 C-19.35300781 12.96882813 -19.08101562 12.18765625 -18.80078125 11.3828125 C-17.33571343 8.10222873 -15.92820915 7.33466949 -12.8125 5.625 C-11.96042969 5.14804687 -11.10835937 4.67109375 -10.23046875 4.1796875 C-9.37066406 3.70789063 -8.51085937 3.23609375 -7.625 2.75 C-6.74714844 2.19054687 -5.86929688 1.63109375 -4.96484375 1.0546875 C-2.625 -0.25 -2.625 -0.25 0 0 Z " fill="#72AA06" transform="translate(55.625,17.25)" />
<path d="M0 0 C0.33 0.66 0.66 1.32 1 2 C0.109375 3.9609375 0.109375 3.9609375 -1.25 6.375 C-5.59456752 14.77369041 -8.39228045 24.47101564 -7 34 C-5 37 -5 37 -3.0546875 37.51171875 C-2.69503906 37.54072266 -2.69503906 37.54072266 -0.875 37.6875 C0.40375 37.790625 1.6825 37.89375 3 38 C3 37.34 3 36.68 3 36 C6.19411335 34.22379854 9.25667297 33.37043503 12.8125 32.5625 C16.37913639 31.70998691 19.72023868 30.82651581 23.0625 29.3125 C26 28 26 28 29 28 C29 27.34 29 26.68 29 26 C31.99175908 24.64766446 34.99440545 23.32127963 38 22 C39.0209375 21.54496094 40.041875 21.08992188 41.09375 20.62109375 C42.1353125 20.16863281 43.176875 19.71617188 44.25 19.25 C45.22453125 18.82203125 46.1990625 18.3940625 47.203125 17.953125 C50.00488945 16.99833376 52.06673202 16.80730356 55 17 C55 15.35 55 13.7 55 12 C55.66 12 56.32 12 57 12 C57.1875 15.375 57.1875 15.375 57 19 C54 21 54 21 51 21 C51 21.66 51 22.32 51 23 C50.69707031 23.07347656 50.69707031 23.07347656 49.1640625 23.4453125 C44.45890444 24.70484712 40.52134404 26.13445426 36.4375 28.8125 C31.94095593 31.6700502 27.37909468 33.50428474 22.375 35.25 C21.67044678 35.49596924 20.96589355 35.74193848 20.23999023 35.99536133 C13.90285399 38.13979438 7.50358762 40.29357153 0.75 40.25 C-0.05953125 40.25515625 -0.8690625 40.2603125 -1.703125 40.265625 C-4.239756 39.97227312 -5.8450332 39.35630586 -8 38 C-11.65130892 31.61020938 -9.92336675 24.63992361 -8.125 17.9375 C-8.03798828 17.59686523 -8.03798828 17.59686523 -7.59765625 15.87304688 C-4.49000929 3.89134139 -4.49000929 3.89134139 0 0 Z " fill="#A76110" transform="translate(26,39)" />
<path d="M0 0 C-0.39251953 0.01289063 -0.39251953 0.01289063 -2.37890625 0.078125 C-9.03166724 0.43729246 -13.58384998 1.02815665 -19 5 C-19.33 5.66 -19.66 6.32 -20 7 C-20.99 7.33 -21.98 7.66 -23 8 C-25.55445399 10.55445399 -25.99724406 11.98001941 -26.5 15.625 C-26.665 16.73875 -26.83 17.8525 -27 19 C-27.99 19.66 -28.98 20.32 -30 21 C-30.9831543 23.24658203 -30.9831543 23.24658203 -31.82421875 26.0078125 C-32.13037109 26.99394531 -32.43652344 27.98007812 -32.75195312 28.99609375 C-33.06068359 30.02863281 -33.36941406 31.06117187 -33.6875 32.125 C-34.00783203 33.16527344 -34.32816406 34.20554688 -34.65820312 35.27734375 C-35.44850346 37.84876871 -36.22862647 40.42284641 -37 43 C-37.66 43 -38.32 43 -39 43 C-39.33 43.99 -39.66 44.98 -40 46 C-42.8125 46.25 -42.8125 46.25 -46 46 C-48.05199463 43.90982873 -48.91687356 42.54166264 -49.36328125 39.6328125 C-49.26368563 34.71432103 -48.94034528 30.60832004 -47 26 C-46.67 26 -46.34 26 -46 26 C-46 31.61 -46 37.22 -46 43 C-44.35 43.33 -42.7 43.66 -41 44 C-41.04189453 43.52369141 -41.04189453 43.52369141 -41.25390625 41.11328125 C-41.30482422 40.48615234 -41.30482422 40.48615234 -41.5625 37.3125 C-41.61470703 36.69181641 -41.61470703 36.69181641 -41.87890625 33.55078125 C-42.01314984 29.61441273 -41.76509956 26.53019912 -40 23 C-37.4375 22.375 -37.4375 22.375 -35 22 C-35 21.34 -35 20.68 -35 20 C-34.731875 19.7421875 -34.731875 19.7421875 -33.375 18.4375 C-31.22300741 16.22887603 -29.90422384 14.29455742 -28.3125 11.6875 C-24.40504906 5.6927778 -19.36676965 1.54871404 -12.875 -1.4375 C-7.88082286 -2.41462161 -4.31910211 -2.87940141 0 0 Z " fill="#E9C450" transform="translate(67,31)" />
<path d="M0 0 C0.165 0.33 0.165 0.33 1 2 C2.32 2 3.64 2 5 2 C4.67 4.97 4.34 7.94 4 11 C3.58878906 11.11537109 3.58878906 11.11537109 1.5078125 11.69921875 C-5.03415905 13.61044139 -11.00256902 15.75224737 -16.9765625 19.046875 C-19 20 -19 20 -22 20 C-22 20.66 -22 21.32 -22 22 C-39.14893617 28.76595745 -39.14893617 28.76595745 -48 30 C-48 30.66 -48 31.32 -48 32 C-48.66 31.67 -49.32 31.34 -50 31 C-49.67 30.34 -49.34 29.68 -49 29 C-48.34 29 -47.68 29 -47 29 C-46.67 27.35 -46.34 25.7 -46 24 C-45.443125 23.89042969 -44.88625 23.78085938 -44.3125 23.66796875 C-40.24670287 22.82321698 -36.42344492 21.85687797 -32.5625 20.3125 C-31.386875 19.879375 -30.21125 19.44625 -29 19 C-28.34 19.33 -27.68 19.66 -27 20 C-26.67 19.67 -26.34 19.34 -26 19 C-25.01 18.34 -24.02 17.68 -23 17 C-22.5978125 16.484375 -22.5978125 16.484375 -20.5625 13.875 C-19.716875 12.92625 -18.87125 11.9775 -18 11 C-16.68 11 -15.36 11 -14 11 C-14 11.99 -14 12.98 -14 14 C-13.39671875 13.566875 -12.7934375 13.13375 -12.171875 12.6875 C-11.77226563 12.4090625 -11.77226563 12.4090625 -9.75 11 C-8.96109375 10.443125 -8.1721875 9.88625 -7.359375 9.3125 C-5 8 -5 8 -1 8 C-1.020625 7.05125 -1.04125 6.1025 -1.0625 5.125 C-1 2 -1 2 0 0 Z " fill="#C47F10" transform="translate(77,45)" />
<path d="M0 0 C1.46184058 0.22860058 2.91955419 0.48370392 4.375 0.75 C4.78105469 0.81960937 4.78105469 0.81960937 6.8359375 1.171875 C9.62425131 2.23888317 9.77086438 3.37784401 11 6 C14.625 7.25 14.625 7.25 18 8 C18 10.31 18 12.62 18 15 C18.66 15 19.32 15 20 15 C20 19.29 20 23.58 20 28 C19.01 28 18.02 28 17 28 C16.79375 26.824375 16.5875 25.64875 16.375 24.4375 C15.10405246 19.56121148 13.09168987 16.02672949 9 13 C5.39555161 11.60185083 1.7960409 10.70922472 -2 10 C-2 8.68 -2 7.36 -2 6 C-1.5359375 6.0309375 -1.5359375 6.0309375 0.8125 6.1875 C4 6 4 6 5.875 4.5 C6.24625 4.005 6.6175 3.51 7 3 C4.36 2.67 1.72 2.34 -1 2 C-0.67 1.34 -0.34 0.68 0 0 Z " fill="#81BF0C" transform="translate(61,19)" />
<path d="M0 0 C0.88945313 -0.00257812 1.77890625 -0.00515625 2.6953125 -0.0078125 C4.875 0.125 4.875 0.125 5.875 1.125 C8.64592376 1.62141957 11.4251664 2.02541993 14.2109375 2.4296875 C17.04581254 3.16958157 18.15136003 3.79163705 19.875 6.125 C19.875 6.785 19.875 7.445 19.875 8.125 C20.638125 8.24875 21.40125 8.3725 22.1875 8.5 C24.875 9.125 24.875 9.125 27.875 11.125 C29.85206486 16.40389768 30.26976144 21.4648251 30.5 27.0625 C30.51933594 27.45211914 30.51933594 27.45211914 30.6171875 29.42382812 C30.71044127 31.32387379 30.79375962 33.22440278 30.875 35.125 C30.215 35.125 29.555 35.125 28.875 35.125 C27.74019473 31.51506828 27.77484233 28.1407673 27.8125 24.375 C27.82152344 23.20453125 27.83054688 22.0340625 27.83984375 20.828125 C27.85144531 19.93609375 27.86304688 19.0440625 27.875 18.125 C27.215 18.125 26.555 18.125 25.875 18.125 C25.875 15.815 25.875 13.505 25.875 11.125 C23.565 10.795 21.255 10.465 18.875 10.125 C18.215 8.475 17.555 6.825 16.875 5.125 C16.10414062 5.07601563 15.33328125 5.02703125 14.5390625 4.9765625 C13.53617188 4.90179687 12.53328125 4.82703125 11.5 4.75 C11.00113281 4.71519531 11.00113281 4.71519531 8.4765625 4.5390625 C5.875 4.125 5.875 4.125 3.875 2.125 C-1.55154729 2.32977537 -4.1087987 3.61082386 -8.125 7.125 C-9.34436993 7.78914484 -10.5741768 8.43440205 -11.8125 9.0625 C-15.61099564 11.42760106 -15.56516656 12.17953894 -17.125 16.125 C-19.64958382 18.63390317 -22.35648645 20.89087395 -25.125 23.125 C-25.125 22.135 -25.125 21.145 -25.125 20.125 C-24.50625 19.5475 -23.8875 18.97 -23.25 18.375 C-20.59433221 15.56311646 -19.125 12.09184044 -19.125 8.125 C-15.825 7.465 -12.525 6.805 -9.125 6.125 C-8.795 4.475 -8.465 2.825 -8.125 1.125 C-5.14619115 0.13206372 -3.10898802 -0.00906411 0 0 Z " fill="#546911" transform="translate(53.125,15.875)" />
<path d="M0 0 C1.09570312 0.00902344 2.19140625 0.01804687 3.3203125 0.02734375 C4.16335937 0.03894531 5.00640625 0.05054687 5.875 0.0625 C5.875 0.7225 5.875 1.3825 5.875 2.0625 C6.535 2.3925 7.195 2.7225 7.875 3.0625 C7.30652344 3.28164063 6.73804687 3.50078125 6.15234375 3.7265625 C-1.00005087 6.66393992 -6.82575441 10.48718322 -11.125 17.0625 C-11.785 16.7325 -12.445 16.4025 -13.125 16.0625 C-12.69452295 9.92820207 -11.5709553 6.17922151 -8.125 1.0625 C-5.36047967 -0.31976016 -3.0788637 -0.03275387 0 0 Z " fill="#D45F13" transform="translate(49.125,26.9375)" />
<path d="M0 0 C0.33 0.66 0.66 1.32 1 2 C0.109375 3.9609375 0.109375 3.9609375 -1.25 6.375 C-5.59456752 14.77369041 -8.39228045 24.47101564 -7 34 C-6.34 34.99 -5.68 35.98 -5 37 C-2.24195062 37.1679875 0.2025991 37.14595729 2.9375 36.9375 C3.31950562 36.91276611 3.31950562 36.91276611 5.25268555 36.78759766 C10.85517376 36.32844504 15.65892711 35.08306301 20.80078125 32.7421875 C23.32095098 31.89168617 24.53400257 32.10840368 27 33 C17.4990223 37.72649648 6.75652288 41.500457 -4 40 C-6.77689935 38.88727083 -7.74583588 38.44478722 -9.25 35.8125 C-10.90658547 29.60030449 -9.74695935 23.98246199 -8.125 17.9375 C-8.03798828 17.59686523 -8.03798828 17.59686523 -7.59765625 15.87304688 C-4.49000929 3.89134139 -4.49000929 3.89134139 0 0 Z " fill="#6D430F" transform="translate(26,39)" />
<path d="M0 0 C0 0.99 0 1.98 0 3 C-5.25714286 7 -5.25714286 7 -8 7 C-8 6.34 -8 5.68 -8 5 C-8.66 5 -9.32 5 -10 5 C-10 5.66 -10 6.32 -10 7 C-12.66666667 8.33333333 -15.33333333 9.66666667 -18 11 C-18.3566465 13.81254136 -18.44413056 16.60155293 -18.55859375 19.43359375 C-18.70425781 20.28050781 -18.84992187 21.12742187 -19 22 C-22 24 -22 24 -25 24 C-25 24.66 -25 25.32 -25 26 C-25.66 26 -26.32 26 -27 26 C-26.39816251 23.97954558 -25.72693904 21.97888961 -25 20 C-24.34 19.67 -23.68 19.34 -23 19 C-22.87625 17.9275 -22.7525 16.855 -22.625 15.75 C-21.93577523 11.61465138 -20.9800295 9.89238157 -18 7 C-17.01 7 -16.02 7 -15 7 C-14.79375 6.401875 -14.5875 5.80375 -14.375 5.1875 C-11.04518517 -0.10993269 -5.77462233 -0.34647734 0 0 Z " fill="#F9CD26" transform="translate(62,31)" />
<path d="M0 0 C0.99 0.33 1.98 0.66 3 1 C2.34 1 1.68 1 1 1 C1 1.66 1 2.32 1 3 C-0.65 3.33 -2.3 3.66 -4 4 C-5.5056121 11.02618978 -4.64057643 17.89452919 -4 25 C-6.375 25.625 -6.375 25.625 -9 26 C-11 24 -11 24 -11.23046875 21.390625 C-11.08681246 10.89065606 -11.08681246 10.89065606 -10 6 C-9.01 6 -8.02 6 -7 6 C-6.34 5.01 -5.68 4.02 -5 3 C-2.375 2.3125 -2.375 2.3125 0 2 C0 1.34 0 0.68 0 0 Z " fill="#A2520A" transform="translate(31,50)" />
<path d="M0 0 C-7.65940351 5.10626901 -16.96670043 7.63378991 -26 9 C-26 9.66 -26 10.32 -26 11 C-26.66 10.67 -27.32 10.34 -28 10 C-27.67 9.34 -27.34 8.68 -27 8 C-26.34 8 -25.68 8 -25 8 C-24.67 6.35 -24.34 4.7 -24 3 C-23.7215625 2.94521484 -23.7215625 2.94521484 -22.3125 2.66796875 C-18.29796512 1.83386775 -14.63248037 0.90771193 -10.875 -0.75 C-6.64255742 -2.45827502 -4.16975054 -1.65052626 0 0 Z " fill="#B8710A" transform="translate(55,66)" />
<path d="M0 0 C0.66 0 1.32 0 2 0 C2.1875 3.375 2.1875 3.375 2 7 C-1 9 -1 9 -4 9 C-4 9.66 -4 10.32 -4 11 C-4.60585937 11.14695312 -5.21171875 11.29390625 -5.8359375 11.4453125 C-11.88566835 13.06477891 -16.60343463 15.35414095 -21.7734375 18.890625 C-24 20 -24 20 -26.2890625 19.671875 C-26.57136719 19.56101562 -26.57136719 19.56101562 -28 19 C-26.37750059 18.16180842 -24.75191503 17.3295884 -23.125 16.5 C-22.22007813 16.0359375 -21.31515625 15.571875 -20.3828125 15.09375 C-18 14 -18 14 -16 14 C-16 13.01 -16 12.02 -16 11 C-15.360625 10.71125 -14.72125 10.4225 -14.0625 10.125 C-12 9 -12 9 -11 7 C-7.21531279 5.45171887 -4.08218297 4.75987159 0 5 C0 3.35 0 1.7 0 0 Z " fill="#9C6212" transform="translate(81,51)" />
<path d="M0 0 C1.67241875 3.3448375 -0.2642374 6.6204457 -1.375 10 C-1.60960937 10.73734375 -1.84421875 11.4746875 -2.0859375 12.234375 C-3.82573342 17.65146684 -3.82573342 17.65146684 -5 20 C-5.66 20 -6.32 20 -7 20 C-7.19644384 18.10507254 -7.38177288 16.20899097 -7.5625 14.3125 C-7.66691406 13.25675781 -7.77132813 12.20101562 -7.87890625 11.11328125 C-8.02459511 7.36766761 -7.68092186 4.36184373 -6 1 C-2.9375 0.375 -2.9375 0.375 0 0 Z " fill="#B3BF24" transform="translate(33,53)" />
<path d="M0 0 C0.99 0 1.98 0 3 0 C2 2 1 4 0 6 C1.65 6 3.3 6 5 6 C2.18016039 10.22975941 -1.1874853 10.83919243 -6 12 C-9.5625 12.1875 -9.5625 12.1875 -12 12 C-9.70062022 6.87061434 -6.77819056 4.81790725 -2 2 C-1.34 1.34 -0.68 0.68 0 0 Z " fill="#D0901C" transform="translate(43,57)" />
<path d="M0 0 C-3.95976326 3.43179482 -8.2012446 5.868436 -12.79296875 8.33984375 C-15.45926386 10.34546397 -15.84449422 11.92493972 -17 15 C-18.9453125 17.01953125 -18.9453125 17.01953125 -21.125 18.8125 C-21.84945313 19.41707031 -22.57390625 20.02164063 -23.3203125 20.64453125 C-23.87460937 21.09183594 -24.42890625 21.53914063 -25 22 C-25 21.01 -25 20.02 -25 19 C-24.38125 18.4225 -23.7625 17.845 -23.125 17.25 C-20.46933221 14.43811646 -19 10.96684044 -19 7 C-15.7 6.34 -12.4 5.68 -9 5 C-8.67 3.35 -8.34 1.7 -8 0 C-4.71023192 -1.09658936 -3.28696233 -0.79953138 0 0 Z " fill="#5A6A1E" transform="translate(53,17)" />
<path d="M0 0 C0.66 0.33 1.32 0.66 2 1 C1.401875 1.33 0.80375 1.66 0.1875 2 C-2.50199856 4.45897011 -3.13000261 6.61682576 -4.29296875 10 C-5.22636448 12.64032382 -6.29633994 14.77213684 -8 17 C-10.5 18.1875 -10.5 18.1875 -13 19 C-13.495 19.33 -13.495 19.33 -16 21 C-14.69977902 15.07677108 -11.47028205 11.82715185 -7 8 C-6.34 7.67 -5.68 7.34 -5 7 C-4.690625 6.195625 -4.38125 5.39125 -4.0625 4.5625 C-3 2 -3 2 0 0 Z " fill="#E2BD54" transform="translate(41,24)" />
<path d="M0 0 C1.216875 0.12375 2.43375 0.2475 3.6875 0.375 C3.6875 1.035 3.6875 1.695 3.6875 2.375 C1.640625 3.99609375 1.640625 3.99609375 -1.0625 5.8125 C-4.20132848 7.93717483 -7.30017948 10.07353082 -10.3125 12.375 C-9.84344232 5.80819255 -7.22519446 0 0 0 Z " fill="#BF3304" transform="translate(49.3125,28.625)" />
<path d="M0 0 C0.99 0.66 1.98 1.32 3 2 C2.67 2.99 2.34 3.98 2 5 C1.6184375 5.1753125 1.6184375 5.1753125 -0.3125 6.0625 C-4.43965289 9.03788929 -5.41906392 13.29251995 -7 18 C-7.99 17.67 -8.98 17.34 -10 17 C-9.36442791 14.32151764 -8.70110047 11.66121939 -8 9 C-7.87625 8.525625 -7.87625 8.525625 -7.25 6.125 C-6 4 -6 4 -2.875 2.6875 C-2.400625 2.5740625 -2.400625 2.5740625 0 2 C0 1.34 0 0.68 0 0 Z " fill="#DB6115" transform="translate(30,40)" />
<path d="M0 0 C0.99 0 1.98 0 3 0 C3.66 3.96 4.32 7.92 5 12 C3.35 12.33 1.7 12.66 0 13 C-1 12 -1 12 -1.125 8.1875 C-1.09401243 5.31082025 -0.91742334 2.75227001 0 0 Z " fill="#6B4005" transform="translate(22,63)" />
<path d="M0 0 C0.33 0 0.66 0 1 0 C1.1875 2.375 1.1875 2.375 1 5 C0.01 5.66 -0.98 6.32 -2 7 C-3.01703173 9.54974153 -3.88887259 12.00955554 -4.6875 14.625 C-4.91244141 15.33140625 -5.13738281 16.0378125 -5.36914062 16.765625 C-5.92227901 18.50742245 -6.46240363 20.25334303 -7 22 C-8.07310858 18.72814447 -7.89263102 16.57052408 -7.0625 13.25 C-6.86785156 12.45078125 -6.67320313 11.6515625 -6.47265625 10.828125 C-6.31667969 10.22484375 -6.16070312 9.6215625 -6 9 C-7.32 9.33 -8.64 9.66 -10 10 C-9.67 9.34 -9.34 8.68 -9 8 C-8.34 8 -7.68 8 -7 8 C-7 7.34 -7 6.68 -7 6 C-5.36739286 4.62517293 -3.69774938 3.29352333 -2 2 C-1.34 1.34 -0.68 0.68 0 0 Z " fill="#EAD140" transform="translate(39,45)" />
<path d="M0 0 C0.80824219 0.11085938 1.61648437 0.22171875 2.44921875 0.3359375 C2.75666016 0.38363281 2.75666016 0.38363281 4.3125 0.625 C4.3125 0.955 4.3125 1.285 4.3125 1.625 C1.0125 1.955 -2.2875 2.285 -5.6875 2.625 C-5.8215625 3.0478125 -5.8215625 3.0478125 -6.5 5.1875 C-7.7491952 8.80359137 -9.00280078 12.1882136 -10.6875 15.625 C-11.6775 15.955 -12.6675 16.285 -13.6875 16.625 C-13.11623204 12.62612425 -11.81466428 10.02846284 -9.6875 6.625 C-9.3575 5.738125 -9.0275 4.85125 -8.6875 3.9375 C-6.80038479 -0.42645392 -4.25273275 -0.61633808 0 0 Z " fill="#939006" transform="translate(46.6875,25.375)" />
<path d="M0 0 C1.57156655 3.1431331 0.11705576 5.365464 -0.9375 8.625 C-1.31777344 9.81351563 -1.69804687 11.00203125 -2.08984375 12.2265625 C-2.39019531 13.14179687 -2.69054687 14.05703125 -3 15 C-3.66 15 -4.32 15 -5 15 C-4.979375 13.80375 -4.95875 12.6075 -4.9375 11.375 C-4.93117429 7.81995131 -5.30111125 4.49444376 -6 1 C-4.02 0.67 -2.04 0.34 0 0 Z " fill="#9AB809" transform="translate(33,53)" />
<path d="M0 0 C3.125 -0.4375 3.125 -0.4375 7 0 C9.38682039 2.06581634 11.20049043 4.41608882 13 7 C9.52452927 8.94566951 7.87493656 9.07637127 4 8 C4.33 6.02 4.66 4.04 5 2 C3.35 1.67 1.7 1.34 0 1 C0 0.67 0 0.34 0 0 Z " fill="#F2C426" transform="translate(63,31)" />
<path d="M0 0 C-0.99 0.33 -1.98 0.66 -3 1 C-3 1.66 -3 2.32 -3 3 C-2.34 3.33 -1.68 3.66 -1 4 C-4 6 -4 6 -6.0625 5.625 C-6.701875 5.41875 -7.34125 5.2125 -8 5 C-10.15634036 5 -11.92446352 5.4465236 -14 6 C-6.58333333 -1.8287037 -6.58333333 -1.8287037 0 0 Z " fill="#8BBD1D" transform="translate(58,18)" />
<path d="M0 0 C0 0.66 0 1.32 0 2 C0.350625 2.66 0.70125 3.32 1.0625 4 C1.371875 4.66 1.68125 5.32 2 6 C1.67 6.66 1.34 7.32 1 8 C0.62230469 7.53980469 0.24460937 7.07960938 -0.14453125 6.60546875 C-2.53399233 4.53795611 -4.63383827 4.06693407 -7.6875 3.3125 C-8.68136719 3.06113281 -9.67523438 2.80976563 -10.69921875 2.55078125 C-11.07884766 2.45990234 -11.07884766 2.45990234 -13 2 C-12.67 1.34 -12.34 0.68 -12 0 C-7.70057734 -0.90949326 -4.25063401 -1.15926382 0 0 Z " fill="#92B508" transform="translate(72,27)" />
<path d="M0 0 C1.46275935 0.17456799 2.92056353 0.39100549 4.375 0.625 C5.18710938 0.74101562 5.99921875 0.85703125 6.8359375 0.9765625 C7.19300781 1.14542969 7.19300781 1.14542969 9 2 C9.66 3.98 10.32 5.96 11 8 C8.855 8.165 8.855 8.165 -2 9 C-2 8.01 -2 7.02 -2 6 C-1.5359375 6.0309375 -1.5359375 6.0309375 0.8125 6.1875 C4 6 4 6 5.875 4.5 C6.24625 4.005 6.6175 3.51 7 3 C4.36 2.67 1.72 2.34 -1 2 C-0.67 1.34 -0.34 0.68 0 0 Z " fill="#90C525" transform="translate(61,19)" />
<path d="M0 0 C0.66 0.33 1.32 0.66 2 1 C0 3 0 3 -3 3.4375 C-3.99 3.623125 -4.98 3.80875 -6 4 C-6.33 4.495 -6.33 4.495 -8 7 C-10.3828125 7.51171875 -10.3828125 7.51171875 -13.125 7.6875 C-14.03507812 7.75324219 -14.94515625 7.81898437 -15.8828125 7.88671875 C-16.23214844 7.90541016 -16.23214844 7.90541016 -18 8 C-17.67 7.01 -17.34 6.02 -17 5 C-15.21484375 4.375 -15.21484375 4.375 -12.9375 4 C-9.63433048 3.38263445 -6.67811147 2.57358083 -3.5625 1.3125 C-2.386875 0.879375 -1.21125 0.44625 0 0 Z " fill="#C28212" transform="translate(48,64)" />
<path d="M0 0 C0.99 0 1.98 0 3 0 C3.33 1.32 3.66 2.64 4 4 C6.31 4 8.62 4 11 4 C7.01724138 6.65517241 7.01724138 6.65517241 4 7 C0.75 6.0625 0.75 6.0625 -2 5 C-1.125 1.125 -1.125 1.125 0 0 Z " fill="#6A6A47" transform="translate(33,17)" />
<path d="M0 0 C0.33 0 0.66 0 1 0 C1.1875 3.375 1.1875 3.375 1 7 C-2 9 -2 9 -5 9 C-5 9.66 -5 10.32 -5 11 C-8.83887763 12.48320272 -11.06204091 13.22419163 -15 12 C-13.44148245 11.17988688 -11.87798284 10.36923787 -10.3125 9.5625 C-9.44238281 9.11003906 -8.57226562 8.65757813 -7.67578125 8.19140625 C-5.09001736 7.04008072 -2.78643472 6.43679247 0 6 C0 4.02 0 2.04 0 0 Z " fill="#6B430D" transform="translate(82,51)" />
<path d="M0 0 C0.33 0.66 0.66 1.32 1 2 C2.32 2 3.64 2 5 2 C4.67 4.64 4.34 7.28 4 10 C3.34 9.34 2.68 8.68 2 8 C1.01 8 0.02 8 -1 8 C-1.125 2.25 -1.125 2.25 0 0 Z " fill="#C08D1A" transform="translate(77,45)" />
<path d="M0 0 C1.08667969 0.02707031 2.17335938 0.05414062 3.29296875 0.08203125 C3.70869141 0.09943359 3.70869141 0.09943359 5.8125 0.1875 C5.8125 0.8475 5.8125 1.5075 5.8125 2.1875 C6.4725 2.5175 7.1325 2.8475 7.8125 3.1875 C6.4925 3.5175 5.1725 3.8475 3.8125 4.1875 C3.8125 3.5275 3.8125 2.8675 3.8125 2.1875 C-4.22251094 1.39975383 -4.22251094 1.39975383 -8.25 4.6875 C-8.889375 5.5125 -9.52875 6.3375 -10.1875 7.1875 C-9.08803535 0.81060501 -6.18282143 -0.19944585 0 0 Z " fill="#BC5F07" transform="translate(49.1875,26.8125)" />
<path d="M0 0 C-0.33 1.32 -0.66 2.64 -1 4 C-3.91482778 4.80967438 -5.46113217 5.21845993 -8.3125 4.0625 C-8.869375 3.711875 -9.42625 3.36125 -10 3 C-7.29536552 -0.8183075 -4.37912428 -0.24787496 0 0 Z " fill="#DB9D16" transform="translate(77,43)" />
<path d="M0 0 C0.66 0.33 1.32 0.66 2 1 C2.1875 3.375 2.1875 3.375 2 6 C-1 8 -1 8 -4 8 C-4 8.66 -4 9.32 -4 10 C-4.66 10 -5.32 10 -6 10 C-4.79157144 5.56909529 -3.48331435 3.01887244 0 0 Z " fill="#F4C51F" transform="translate(41,47)" />
<path d="M0 0 C0.99 0.33 1.98 0.66 3 1 C2.45276317 4.37462715 1.9451 6.08235 0 9 C-1.65 8.67 -3.3 8.34 -5 8 C-4 5 -4 5 -1 3 C-1.33 2.34 -1.66 1.68 -2 1 C-1.34 0.67 -0.68 0.34 0 0 Z " fill="#962600" transform="translate(35,41)" />
<path d="M0 0 C0 0.66 0 1.32 0 2 C-0.66 2 -1.32 2 -2 2 C-2.33 2.99 -2.66 3.98 -3 5 C-5.88211302 5.96070434 -7.69850044 6.10581883 -10.6875 6.0625 C-11.09162109 6.05798828 -11.09162109 6.05798828 -13.13671875 6.03515625 C-13.44416016 6.02935547 -13.44416016 6.02935547 -15 6 C-12.15344131 4.55722368 -9.28360325 3.18824896 -6.375 1.875 C-5.59898438 1.52179688 -4.82296875 1.16859375 -4.0234375 0.8046875 C-2 0 -2 0 0 0 Z " fill="#76603D" transform="translate(55,71)" />
<path d="M0 0 C0.66 0.33 1.32 0.66 2 1 C1.401875 1.33 0.80375 1.66 0.1875 2 C-2.12491719 4.11421 -2.54033443 5.11570127 -3.5 8 C-4.64956456 11.45504488 -5.70383077 13.18142387 -9 15 C-9 11.87099787 -8.57548683 10.62581138 -7 8 C-6.34 7.67 -5.68 7.34 -5 7 C-4.690625 6.195625 -4.38125 5.39125 -4.0625 4.5625 C-3 2 -3 2 0 0 Z " fill="#B6C236" transform="translate(41,24)" />
<path d="M0 0 C0.99 0 1.98 0 3 0 C1.79618552 2.49361571 0.54571278 4.68143083 -1 7 C-2.65 6.67 -4.3 6.34 -6 6 C-6 6.66 -6 7.32 -6 8 C-6.66 7.67 -7.32 7.34 -8 7 C-6.62141149 4.24282298 -4.62533685 3.53678254 -2 2 C-1.34 1.34 -0.68 0.68 0 0 Z " fill="#D89E15" transform="translate(43,57)" />
<path d="M0 0 C1.98 0 3.96 0 6 0 C2.40945767 3.88975419 -1.73898882 6.89732195 -6 10 C-5.67 8.35 -5.34 6.7 -5 5 C-4.01 4.67 -3.02 4.34 -2 4 C-0.8125 1.9375 -0.8125 1.9375 0 0 Z " fill="#A54003" transform="translate(45,31)" />
<path d="M0 0 C1.65 0 3.3 0 5 0 C5 2.31 5 4.62 5 7 C5.66 7 6.32 7 7 7 C7 9.97 7 12.94 7 16 C3.62454491 12.13977211 3.58289271 9.20290361 3.40625 4.2421875 C3.2721875 3.50226562 3.138125 2.76234375 3 2 C2.01 1.34 1.02 0.68 0 0 Z " fill="#91C025" transform="translate(74,27)" />
<path d="M0 0 C0.61875 0.5775 1.2375 1.155 1.875 1.75 C2.865 2.41 3.855 3.07 4.875 3.75 C0.03007803 5.26403812 -3.3841011 4.11602172 -8.125 2.75 C-7.125 0.75 -7.125 0.75 -4.8125 -0.5625 C-2.125 -1.25 -2.125 -1.25 0 0 Z " fill="#7FA011" transform="translate(51.125,22.25)" />
<path d="M0 0 C0.99 0 1.98 0 3 0 C3.33 1.98 3.66 3.96 4 6 C3.67 5.34 3.34 4.68 3 4 C-3.625 4.75 -3.625 4.75 -7 7 C-7 6.01 -7 5.02 -7 4 C-6.030625 3.525625 -5.06125 3.05125 -4.0625 2.5625 C-1 1 -1 1 0 0 Z " fill="#E0AE1C" transform="translate(74,39)" />
<path d="M0 0 C1.32 0.33 2.64 0.66 4 1 C1.07519591 6.94019945 -1.59989278 11.10689944 -7 15 C-6.0360896 12.84973834 -5.28912076 11.25298067 -3.5 9.6875 C-1.24865445 7.15473625 0 3.42646184 0 0 Z " fill="#65582A" transform="translate(34,24)" />
<path d="M0 0 C2.64 0 5.28 0 8 0 C7.67 1.32 7.34 2.64 7 4 C4.69 4 2.38 4 0 4 C0 2.68 0 1.36 0 0 Z " fill="#756159" transform="translate(37,17)" />
<path d="M0 0 C1.32 0 2.64 0 4 0 C3.34 1.32 2.68 2.64 2 4 C1.34 4 0.68 4 0 4 C-0.33 5.65 -0.66 7.3 -1 9 C-1.66 9 -2.32 9 -3 9 C-3 7.35 -3 5.7 -3 4 C-2.01 3.67 -1.02 3.34 0 3 C0 2.01 0 1.02 0 0 Z " fill="#766055" transform="translate(30,15)" />
<path d="M0 0 C0.66 0.33 1.32 0.66 2 1 C0.42652824 2.035969 -1.15921546 3.05331732 -2.75 4.0625 C-3.63171875 4.63097656 -4.5134375 5.19945313 -5.421875 5.78515625 C-8 7 -8 7 -10.328125 6.68359375 C-10.87984375 6.45800781 -11.4315625 6.23242188 -12 6 C-10.04669132 4.96958487 -8.08718472 3.9509107 -6.125 2.9375 C-5.03445312 2.36902344 -3.94390625 1.80054687 -2.8203125 1.21484375 C-2.35496094 1.01439453 -2.35496094 1.01439453 0 0 Z " fill="#6E400A" transform="translate(65,64)" />
<path d="M0 0 C1 3 1 3 -0.25 6.625 C-2 10 -2 10 -5 11 C-4.46884894 6.48521602 -2.63379708 3.65333143 0 0 Z " fill="#A48A06" transform="translate(38,31)" />
<path d="M0 0 C0.34675781 0.49113281 0.69351562 0.98226562 1.05078125 1.48828125 C4.00245834 3.77745767 6.52009699 3.2884377 10.1875 3.1875 C11.45980469 3.16042969 12.73210938 3.13335937 14.04296875 3.10546875 C15.01878906 3.07066406 15.99460937 3.03585938 17 3 C13.5233662 5.14336161 10.78770805 5.21277626 6.75 5.125 C5.67234375 5.10695313 4.5946875 5.08890625 3.484375 5.0703125 C2.66453125 5.04710938 1.8446875 5.02390625 1 5 C0.67 3.35 0.34 1.7 0 0 Z " fill="#7F5117" transform="translate(18,73)" />
<path d="M0 0 C0.66 0.33 1.32 0.66 2 1 C1.505 1.33 1.505 1.33 -1 3 C-0.67 2.01 -0.34 1.02 0 0 Z M-7 3 C-5.02 3 -3.04 3 -1 3 C-1.33 3.66 -1.66 4.32 -2 5 C-2.99 5 -3.98 5 -5 5 C-5.33 5.99 -5.66 6.98 -6 8 C-6.99 8.33 -7.98 8.66 -9 9 C-8.34 7.02 -7.68 5.04 -7 3 Z " fill="#DFA91E" transform="translate(41,57)" />
<path d="M0 0 C2.45103548 0.98041419 3.76758786 1.6513818 5.25 3.875 C6 6 6 6 6 10 C5.01 10 4.02 10 3 10 C2.51171875 7.98177083 2.0234375 5.96354167 1.53515625 3.9453125 C1 2 1 2 0 0 Z " fill="#AAA90B" transform="translate(75,37)" />
<path d="M0 0 C0 0.66 0 1.32 0 2 C-0.78375 2.2475 -1.5675 2.495 -2.375 2.75 C-5.32317108 4.15389099 -5.9024777 5.00675737 -7 8 C-7.66 7.67 -8.32 7.34 -9 7 C-6.79922603 2.09058114 -5.62803596 0 0 0 Z " fill="#D18F17" transform="translate(63,56)" />
<path d="M0 0 C0.99 0 1.98 0 3 0 C2.67 2.31 2.34 4.62 2 7 C0.4375 5.75 0.4375 5.75 -1 4 C-0.6875 1.8125 -0.6875 1.8125 0 0 Z " fill="#676858" transform="translate(14,51)" />
<path d="M0 0 C2.31 0 4.62 0 7 0 C6.67 0.99 6.34 1.98 6 3 C4.02 3 2.04 3 0 3 C0 2.01 0 1.02 0 0 Z " fill="#EFB816" transform="translate(50,44)" />
<path d="M0 0 C1.875 0.25 1.875 0.25 4 1 C4.66666667 2.33333333 5.33333333 3.66666667 6 5 C8.125 5.75 8.125 5.75 10 6 C8.35 6.33 6.7 6.66 5 7 C4.731875 6.195625 4.46375 5.39125 4.1875 4.5625 C3.795625 3.716875 3.40375 2.87125 3 2 C2.01 1.67 1.02 1.34 0 1 C0 0.67 0 0.34 0 0 Z " fill="#5E7117" transform="translate(67,19)" />
<path d="M0 0 C2 1 2 1 2.75 2.625 C3.10912151 6.03665437 2.05444067 8.77465208 1 12 C0.67 12 0.34 12 0 12 C0 8.04 0 4.08 0 0 Z " fill="#6B6F3F" transform="translate(83,35)" />
<path d="M0 0 C0.66 0.99 1.32 1.98 2 3 C1.67 3.99 1.34 4.98 1 6 C-0.32 5.34 -1.64 4.68 -3 4 C-3 3.01 -3 2.02 -3 1 C-2.01 0.67 -1.02 0.34 0 0 Z " fill="#81AB01" transform="translate(77,32)" />
<path d="M0 0 C1.88343932 3.76687864 2.22057835 5.02958963 2 9 C1.01 9 0.02 9 -1 9 C-0.67 6.03 -0.34 3.06 0 0 Z " fill="#86450F" transform="translate(22,63)" />
<path d="M0 0 C0 1.65 0 3.3 0 5 C-1.32 5 -2.64 5 -4 5 C-3.625 3.0625 -3.625 3.0625 -3 1 C-1 0 -1 0 0 0 Z " fill="#716940" transform="translate(17,60)" />
<path d="M0 0 C0.66 1.32 1.32 2.64 2 4 C0.02 4.33 -1.96 4.66 -4 5 C-3.6875 3.0625 -3.6875 3.0625 -3 1 C-2.01 0.67 -1.02 0.34 0 0 Z " fill="#B76D09" transform="translate(79,52)" />
<path d="M0 0 C0.99 0.33 1.98 0.66 3 1 C2.34 1 1.68 1 1 1 C1 2.32 1 3.64 1 5 C-0.32 5 -1.64 5 -3 5 C-3 4.01 -3 3.02 -3 2 C-2.01 1.34 -1.02 0.68 0 0 Z " fill="#658500" transform="translate(58,24)" />
</svg>