<?xml version='1.0' encoding='utf-8'?>
<svg xmlns="http://www.w3.org/2000/svg" version="1.1" width="86" height="108">
<path d="M0 0 C2.375 0.6875 2.375 0.6875 5 2 C5.268125 2.763125 5.53625 3.52625 5.8125 4.3125 C7.43741809 7.9899462 9.85069126 8.94929892 13.3203125 10.7890625 C13.87460937 11.18867187 14.42890625 11.58828125 15 12 C15 12.99 15 13.98 15 15 C13.35 15 11.7 15 10 15 C10.165 15.495 10.165 15.495 11 18 C11.99 18.45375 12.98 18.9075 14 19.375 C17 21 17 21 18.0625 23.5 C18 26 18 26 16.75 27.8125 C15 29 15 29 12 29 C14.21934164 32.32901247 15.34683329 32.75023244 19 34 C19.125 41.75 19.125 41.75 18 44 C16.15234375 44.6328125 16.15234375 44.6328125 13.9375 45.125 C13.57076172 45.20878906 13.57076172 45.20878906 11.71484375 45.6328125 C11.43189453 45.69339844 11.43189453 45.69339844 10 46 C9.67 47.32 9.34 48.64 9 50 C8.01 50.165 8.01 50.165 3 51 C3.268125 52.2375 3.53625 53.475 3.8125 54.75 C4.20192632 58.07782495 4.24278889 58.66511877 2.1875 61.5 C-2.2511956 63.58879793 -6.17619193 63.33719823 -11 63 C-9.171875 61.48046875 -9.171875 61.48046875 -7 60 C-4.25 60.3125 -4.25 60.3125 -2 61 C-2.8125 59.0625 -2.8125 59.0625 -4 57 C-4.495 56.835 -4.495 56.835 -7 56 C-8 54.33333333 -9 52.66666667 -10 51 C-10.99 50.67 -11.98 50.34 -13 50 C-13 49.34 -13 48.68 -13 48 C-11.68 47.34 -10.36 46.68 -9 46 C-9 47.32 -9 48.64 -9 50 C-7.68 50 -6.36 50 -5 50 C-4.67 49.01 -4.34 48.02 -4 47 C-3.34 47 -2.68 47 -2 47 C-2 47.66 -2 48.32 -2 49 C-0.906875 48.649375 0.18625 48.29875 1.3125 47.9375 C5 47 5 47 8 48 C5.78065836 44.67098753 4.65316671 44.24976756 1 43 C1 42.01 1 41.02 1 40 C0.505 39.835 0.505 39.835 -2 39 C-2.165 38.175 -2.165 38.175 -3 34 C-3.495 33.835 -3.495 33.835 -6 33 C-5.67 32.01 -5.34 31.02 -5 30 C-3.68 30.66 -2.36 31.32 -1 32 C-1 32.66 -1 33.32 -1 34 C-0.01 33.01 0.98 32.02 2 31 C1.34 31 0.68 31 0 31 C-0.66 29.35 -1.32 27.7 -2 26 C-5.96 25.67 -9.92 25.34 -14 25 C-14.33 24.01 -14.66 23.02 -15 22 C-16.32 22 -17.64 22 -19 22 C-19 20.68 -19 19.36 -19 18 C-19.99 17.67 -20.98 17.34 -22 17 C-17.70336653 15.98902742 -13.08261196 14.95869402 -9 17 C-8.95745644 15.00045254 -8.95919217 12.99958364 -9 11 C-10.81298005 9.18701995 -13.61181698 9.32444995 -16.0625 8.9375 C-16.61486328 8.84919922 -16.61486328 8.84919922 -19.41015625 8.40234375 C-20.26480469 8.26957031 -21.11945312 8.13679688 -22 8 C-21.67 7.01 -21.34 6.02 -21 5 C-20.0925 5.20625 -19.185 5.4125 -18.25 5.625 C-14.88972103 6.0127245 -13.75924185 5.80411967 -11 4 C-11 4.99 -11 5.98 -11 7 C-9.68 7 -8.36 7 -7 7 C-6.67 6.34 -6.34 5.68 -6 5 C-4.35 5.66 -2.7 6.32 -1 7 C-1 6.01 -1 5.02 -1 4 C-0.01 4 0.98 4 2 4 C1.34 2.68 0.68 1.36 0 0 Z " fill="#294224" transform="translate(49,27)" />
<path d="M0 0 C2.0625 0.4375 2.0625 0.4375 4 1 C4.165 1.825 4.165 1.825 5 6 C5.66 6 6.32 6 7 6 C6.67 6.99 6.34 7.98 6 9 C4 9 4 9 1.875 7 C1.25625 6.34 0.6375 5.68 0 5 C0 5.99 0 6.98 0 8 C0.66 8.33 1.32 8.66 2 9 C2.66666667 10.66666667 3.33333333 12.33333333 4 14 C4.66 14.33 5.32 14.66 6 15 C6.165 15.495 6.165 15.495 7 18 C7.825 18.33 8.65 18.66 9.5 19 C10.325 19.33 11.15 19.66 12 20 C12.165 20.495 12.165 20.495 13 23 C12.278125 22.979375 11.55625 22.95875 10.8125 22.9375 C8.08074862 22.99820559 5.65743909 23.39258535 3 24 C3 23.34 3 22.68 3 22 C2.34 22 1.68 22 1 22 C0.67 23.32 0.34 24.64 0 26 C-1.9375 25.6875 -1.9375 25.6875 -4 25 C-4.33 24.01 -4.66 23.02 -5 22 C-5.99 22.33 -6.98 22.66 -8 23 C-8 23.66 -8 24.32 -8 25 C-12.95 25 -17.9 25 -23 25 C-23.33 24.01 -23.66 23.02 -24 22 C-24.825 21.67 -24.825 21.67 -29 20 C-28.67 16.37 -28.34 12.74 -28 9 C-26.35 8.67 -24.7 8.34 -23 8 C-23.99 7.34 -24.98 6.68 -26 6 C-26 5.34 -26 4.68 -26 4 C-24.35 3.67 -22.7 3.34 -21 3 C-21 3.66 -21 4.32 -21 5 C-20.34 5.33 -19.68 5.66 -19 6 C-19.33 6.495 -19.33 6.495 -21 9 C-19.02 9 -17.04 9 -15 9 C-14.67 7.68 -14.34 6.36 -14 5 C-13.34 5 -12.68 5 -12 5 C-11.67 5.66 -11.34 6.32 -11 7 C-8.9375 7.625 -8.9375 7.625 -7 8 C-6.67 6.68 -6.34 5.36 -6 4 C-5.67 5.32 -5.34 6.64 -5 8 C-4.01 8 -3.02 8 -2 8 C-1.855625 6.865625 -1.71125 5.73125 -1.5625 4.5625 C-1 1 -1 1 0 0 Z " fill="#55833C" transform="translate(44,52)" />
<path d="M0 0 C2.375 0.6875 2.375 0.6875 5 2 C5.68132451 3.66072849 6.34742127 5.327767 7 7 C8.64142963 8.0409066 10.30712215 9.04504326 12 10 C12.165 10.495 12.165 10.495 13 13 C11.35 13 9.7 13 8 13 C8 13.66 8 14.32 8 15 C7.175 14.835 7.175 14.835 3 14 C3 14.99 3 15.98 3 17 C2.34 17 1.68 17 1 17 C1 16.34 1 15.68 1 15 C0.01 15 -0.98 15 -2 15 C-1.125 18.875 -1.125 18.875 0 20 C0.66 20 1.32 20 2 20 C2 19.34 2 18.68 2 18 C4.3125 17.3125 4.3125 17.3125 7 17 C8.5625 18.375 8.5625 18.375 10 20 C12.1875 20.6875 12.1875 20.6875 14 21 C14.165 21.825 14.165 21.825 15 26 C12.1875 26.625 12.1875 26.625 9 27 C8.01 26.34 7.02 25.68 6 25 C6 25.66 6 26.32 6 27 C7.32 27.66 8.64 28.32 10 29 C10 29.66 10 30.32 10 31 C6.35770162 31.93659101 3.56999674 32.35080958 0 31 C-0.66 29.35 -1.32 27.7 -2 26 C-5.96 25.67 -9.92 25.34 -14 25 C-14.33 24.01 -14.66 23.02 -15 22 C-16.32 22 -17.64 22 -19 22 C-19 20.68 -19 19.36 -19 18 C-19.99 17.67 -20.98 17.34 -22 17 C-17.70336653 15.98902742 -13.08261196 14.95869402 -9 17 C-8.95745644 15.00045254 -8.95919217 12.99958364 -9 11 C-10.81298005 9.18701995 -13.61181698 9.32444995 -16.0625 8.9375 C-16.61486328 8.84919922 -16.61486328 8.84919922 -19.41015625 8.40234375 C-20.26480469 8.26957031 -21.11945312 8.13679688 -22 8 C-21.67 7.01 -21.34 6.02 -21 5 C-20.0925 5.20625 -19.185 5.4125 -18.25 5.625 C-14.88972103 6.0127245 -13.75924185 5.80411967 -11 4 C-11 4.99 -11 5.98 -11 7 C-9.68 7 -8.36 7 -7 7 C-6.67 6.34 -6.34 5.68 -6 5 C-4.35 5.66 -2.7 6.32 -1 7 C-1 6.01 -1 5.02 -1 4 C-0.01 4 0.98 4 2 4 C1.34 2.68 0.68 1.36 0 0 Z " fill="#43763F" transform="translate(49,27)" />
<path d="M0 0 C1.14726563 0.14824219 2.29453125 0.29648437 3.4765625 0.44921875 C6.375 1.3125 6.375 1.3125 7.8359375 3.14453125 C8.375 5.3125 8.375 5.3125 7.375 9.3125 C3.415 9.3125 -0.545 9.3125 -4.625 9.3125 C-3.965 9.6425 -3.305 9.9725 -2.625 10.3125 C-2.625 11.6325 -2.625 12.9525 -2.625 14.3125 C-1.305 14.3125 0.015 14.3125 1.375 14.3125 C1.705 14.9725 2.035 15.6325 2.375 16.3125 C4.22265625 16.9453125 4.22265625 16.9453125 6.4375 17.4375 C7.17097656 17.60507812 7.90445313 17.77265625 8.66015625 17.9453125 C9.22605469 18.06648438 9.79195312 18.18765625 10.375 18.3125 C10.045 20.6225 9.715 22.9325 9.375 25.3125 C8.385 25.3125 7.395 25.3125 6.375 25.3125 C6.045 24.3225 5.715 23.3325 5.375 22.3125 C5.045 23.3025 4.715 24.2925 4.375 25.3125 C2.725 24.9825 1.075 24.6525 -0.625 24.3125 C-0.625 23.6525 -0.625 22.9925 -0.625 22.3125 C-1.285 22.3125 -1.945 22.3125 -2.625 22.3125 C-2.955 23.9625 -3.285 25.6125 -3.625 27.3125 C-5.605 26.9825 -7.585 26.6525 -9.625 26.3125 C-9.625 24.3125 -9.625 22.3125 -9.625 20.3125 C-12.0625 20.6875 -12.0625 20.6875 -14.625 21.3125 C-14.955 21.9725 -15.285 22.6325 -15.625 23.3125 C-16.285 22.6525 -16.945 21.9925 -17.625 21.3125 C-17.25 18.6875 -17.25 18.6875 -16.625 16.3125 C-15.965 16.3125 -15.305 16.3125 -14.625 16.3125 C-14.5425 15.69375 -14.46 15.075 -14.375 14.4375 C-13.625 12.3125 -13.625 12.3125 -11.625 11.1875 C-10.965 10.89875 -10.305 10.61 -9.625 10.3125 C-9.295 9.6525 -8.965 8.9925 -8.625 8.3125 C-9.285 8.3125 -9.945 8.3125 -10.625 8.3125 C-10.625 7.6525 -10.625 6.9925 -10.625 6.3125 C-11.615 5.9825 -12.605 5.6525 -13.625 5.3125 C-13.295 4.3225 -12.965 3.3325 -12.625 2.3125 C-11.965 2.3125 -11.305 2.3125 -10.625 2.3125 C-10.625 1.6525 -10.625 0.9925 -10.625 0.3125 C-6.92630053 -0.95380351 -3.83308697 -0.54078541 0 0 Z " fill="#4E7233" transform="translate(32.625,34.6875)" />
<path d="M0 0 C1.32676508 0.35858516 2.65835921 0.7018576 4 1 C4 0.34 4 -0.32 4 -1 C6.3125 -1.6875 6.3125 -1.6875 9 -2 C10.5625 -0.625 10.5625 -0.625 12 1 C14.1875 1.6875 14.1875 1.6875 16 2 C16.33 3.65 16.66 5.3 17 7 C14.1875 7.625 14.1875 7.625 11 8 C10.01 7.34 9.02 6.68 8 6 C8 6.66 8 7.32 8 8 C9.32 8.66 10.64 9.32 12 10 C12 10.66 12 11.32 12 12 C8.35770162 12.93659101 5.56999674 13.35080958 2 12 C0.6875 9.4375 0.6875 9.4375 0 7 C-1.98 7 -3.96 7 -6 7 C-6.12375 6.05125 -6.2475 5.1025 -6.375 4.125 C-7 1 -7 1 -9 -1 C-5.33610983 -2.35699636 -3.48395887 -1.56778149 0 0 Z " fill="#2C532B" transform="translate(47,46)" />
<path d="M0 0 C5.875 0.875 5.875 0.875 7 2 C9.34987262 2.23527773 11.70556039 2.41386417 14.0625 2.5625 C15.35285156 2.64628906 16.64320312 2.73007813 17.97265625 2.81640625 C18.47216797 2.84669922 18.47216797 2.84669922 21 3 C20.67 5.31 20.34 7.62 20 10 C19.175 9.835 19.175 9.835 15 9 C15 9.99 15 10.98 15 12 C14.113125 11.979375 13.22625 11.95875 12.3125 11.9375 C9.37830369 11.99286219 6.84506304 12.3305734 4 13 C4 9 4 9 6 6 C5.401875 6.33 4.80375 6.66 4.1875 7 C2 8 2 8 -1 8 C-0.67 5.36 -0.34 2.72 0 0 Z " fill="#65A74A" transform="translate(19,62)" />
<path d="M0 0 C2.0625 0.4375 2.0625 0.4375 4 1 C4.33 2.65 4.66 4.3 5 6 C5.66 6 6.32 6 7 6 C6.67 6.99 6.34 7.98 6 9 C4 9 4 9 1.875 7 C1.25625 6.34 0.6375 5.68 0 5 C0 5.99 0 6.98 0 8 C0.66 8.33 1.32 8.66 2 9 C2.66666667 10.66666667 3.33333333 12.33333333 4 14 C4.66 14.33 5.32 14.66 6 15 C6.33 15.99 6.66 16.98 7 18 C7.825 18.33 8.65 18.66 9.5 19 C10.325 19.33 11.15 19.66 12 20 C12.33 20.99 12.66 21.98 13 23 C12.278125 22.979375 11.55625 22.95875 10.8125 22.9375 C8.08074862 22.99820559 5.65743909 23.39258535 3 24 C3 23.34 3 22.68 3 22 C2.34 22 1.68 22 1 22 C1 20.35 1 18.7 1 17 C-0.32 16.67 -1.64 16.34 -3 16 C-3.33 14.35 -3.66 12.7 -4 11 C-4.99 10.835 -4.99 10.835 -10 10 C-9.34 9.34 -8.68 8.68 -8 8 C-7.30251417 6.68252676 -6.63040043 5.35085807 -6 4 C-5.67 5.32 -5.34 6.64 -5 8 C-4.01 8 -3.02 8 -2 8 C-1.855625 6.865625 -1.71125 5.73125 -1.5625 4.5625 C-1 1 -1 1 0 0 Z " fill="#376233" transform="translate(44,52)" />
<path d="M0 0 C0.66 0 1.32 0 2 0 C2.32613281 0.69867187 2.65226562 1.39734375 2.98828125 2.1171875 C3.20677734 2.57222656 3.20677734 2.57222656 4.3125 4.875 C4.74175781 5.77992187 5.17101563 6.68484375 5.61328125 7.6171875 C7 10 7 10 10 12 C10 12.66 10 13.32 10 14 C9.01 14 8.02 14 7 14 C7 14.99 7 15.98 7 17 C6.278125 16.814375 5.55625 16.62875 4.8125 16.4375 C1.87173027 15.98004693 -0.14103058 16.26483643 -3 17 C-3.33 16.34 -3.66 15.68 -4 15 C-5.65 15.66 -7.3 16.32 -9 17 C-9 12.05600694 -8.31566593 12.31566593 -5 9 C-3.2053742 6.06657483 -1.58948415 3.04868271 0 0 Z " fill="#4B8746" transform="translate(41,17)" />
<path d="M0 0 C0 1.32 0 2.64 0 4 C1.32 4 2.64 4 4 4 C4.33 5.65 4.66 7.3 5 9 C5.66 9 6.32 9 7 9 C7 10.32 7 11.64 7 13 C5.68 13 4.36 13 3 13 C3 12.34 3 11.68 3 11 C2.34 11 1.68 11 1 11 C0.67 12.65 0.34 14.3 0 16 C-0.99 15.835 -0.99 15.835 -6 15 C-6 13 -6 11 -6 9 C-7.65 9.33 -9.3 9.66 -11 10 C-10.67 8.68 -10.34 7.36 -10 6 C-9.34 6 -8.68 6 -8 6 C-8 5.01 -8 4.02 -8 3 C-5.0936485 0.19744677 -4.21174952 0 0 0 Z " fill="#72B055" transform="translate(29,46)" />
<path d="M0 0 C3 0.5 3 0.5 4.875 1.8125 C6 3.5 6 3.5 6 6.5 C7.32 6.83 8.64 7.16 10 7.5 C10.33 8.82 10.66 10.14 11 11.5 C10.2575 11.45875 9.515 11.4175 8.75 11.375 C6 11.5 6 11.5 4 12.5625 C1.28801269 13.83374405 -0.18126494 13.3673031 -3 12.5 C-3.99 11.84 -4.98 11.18 -6 10.5 C-6.50395602 7.39227122 -6.04571586 5.61428965 -4.875 2.6875 C-3 0.5 -3 0.5 0 0 Z " fill="#643B16" transform="translate(36,76.5)" />
<path d="M0 0 C1.63179803 2.37748615 2.10278646 3.38328122 1.625 6.25 C1.521875 6.53875 1.521875 6.53875 1 8 C-7.57142857 8.14285714 -7.57142857 8.14285714 -11 7 C-11 6.01 -11 5.02 -11 4 C-12.98 4 -14.96 4 -17 4 C-17 3.34 -17 2.68 -17 2 C-11.42974298 -1.0273136 -6.1866291 -2.06974977 0 0 Z " fill="#84BE62" transform="translate(39,36)" />
<path d="M0 0 C0 0.66 0 1.32 0 2 C0.66 2.33 1.32 2.66 2 3 C1.67 3.495 1.67 3.495 0 6 C1.98 6 3.96 6 6 6 C6.33 4.68 6.66 3.36 7 2 C7.66 2 8.32 2 9 2 C9.33 2.66 9.66 3.32 10 4 C10.99 4.66 11.98 5.32 13 6 C7.31502035 9.46645101 3.83125807 8.88413648 -2.4375 7.4375 C-2.953125 7.293125 -3.46875 7.14875 -4 7 C-3.67 8.65 -3.34 10.3 -3 12 C-3.99 12 -4.98 12 -6 12 C-6 13.98 -6 15.96 -6 18 C-6.66 17.67 -7.32 17.34 -8 17 C-7.67 13.37 -7.34 9.74 -7 6 C-5.35 5.67 -3.7 5.34 -2 5 C-2.99 4.34 -3.98 3.68 -5 3 C-5 2.34 -5 1.68 -5 1 C-2 0 -2 0 0 0 Z " fill="#506D38" transform="translate(23,55)" />
<path d="M0 0 C0.8125 3.125 0.8125 3.125 1 6 C-1.34877419 8.50535913 -3.0911787 9.90564909 -6.55859375 10.265625 C-9.04963675 10.25149142 -11.51524028 10.17369194 -14 10 C-12.171875 8.48046875 -12.171875 8.48046875 -10 7 C-7.25 7.3125 -7.25 7.3125 -5 8 C-5.8125 6.0625 -5.8125 6.0625 -7 4 C-7.99 3.67 -8.98 3.34 -10 3 C-10 1.68 -10 0.36 -10 -1 C-6.03045975 -2.13415436 -3.54866318 -2.26720148 0 0 Z " fill="#2C1A05" transform="translate(52,80)" />
<path d="M0 0 C0.763125 0.495 1.52625 0.99 2.3125 1.5 C5 3 5 3 8 3 C8 3.66 8 4.32 8 5 C5.36 5.66 2.72 6.32 0 7 C-0.33 8.32 -0.66 9.64 -1 11 C-3.99100519 11.71313318 -6.98962702 12.37361804 -10 13 C-10.72703125 13.15210937 -11.4540625 13.30421875 -12.203125 13.4609375 C-15.69190369 14.06015521 -17.72655183 14.11963357 -21 12.6875 C-21.66 12.130625 -22.32 11.57375 -23 11 C-23 10.34 -23 9.68 -23 9 C-21.68 8.34 -20.36 7.68 -19 7 C-19 8.32 -19 9.64 -19 11 C-17.68 11 -16.36 11 -15 11 C-14.67 10.01 -14.34 9.02 -14 8 C-13.34 8 -12.68 8 -12 8 C-12 8.66 -12 9.32 -12 10 C-10.9275 9.649375 -9.855 9.29875 -8.75 8.9375 C-4.07692308 7.76923077 -4.07692308 7.76923077 -1 9 C-0.29925156 5.846632 0 3.27275026 0 0 Z " fill="#233B1C" transform="translate(59,66)" />
<path d="M0 0 C0.66 0.33 1.32 0.66 2 1 C1.67 1.99 1.34 2.98 1 4 C0.67 4.165 0.67 4.165 -1 5 C-0.67 5.33 -0.34 5.66 0 6 C0.04063832 7.66617115 0.042721 9.33388095 0 11 C-1.98 11 -3.96 11 -6 11 C-6.33 10.01 -6.66 9.02 -7 8 C-8.32 8 -9.64 8 -11 8 C-11 6.68 -11 5.36 -11 4 C-11.99 3.67 -12.98 3.34 -14 3 C-9.20699867 1.60848348 -4.84864218 2.31337311 0 3 C0 2.01 0 1.02 0 0 Z " fill="#4A8337" transform="translate(41,41)" />
<path d="M0 0 C0.8146875 0.00257812 1.629375 0.00515625 2.46875 0.0078125 C3.2834375 0.00523438 4.098125 0.00265625 4.9375 0 C6.96875 0.1328125 6.96875 0.1328125 7.96875 1.1328125 C8.00938832 2.79898365 8.011471 4.46669345 7.96875 6.1328125 C9.61875 6.1328125 11.26875 6.1328125 12.96875 6.1328125 C12.63875 8.4428125 12.30875 10.7528125 11.96875 13.1328125 C10.64875 13.4628125 9.32875 13.7928125 7.96875 14.1328125 C7.96875 12.8128125 7.96875 11.4928125 7.96875 10.1328125 C7.30875 10.1328125 6.64875 10.1328125 5.96875 10.1328125 C6.29875 7.8228125 6.62875 5.5128125 6.96875 3.1328125 C6.329375 3.3184375 5.69 3.5040625 5.03125 3.6953125 C0.89540389 4.28614766 -2.9163673 3.71553009 -7.03125 3.1328125 C-6.391875 2.8234375 -5.7525 2.5140625 -5.09375 2.1953125 C-0.95325052 0.06232792 -0.95325052 0.06232792 0 0 Z " fill="#4E8343" transform="translate(33.03125,61.8671875)" />
<path d="M0 0 C1.10228531 3.30685593 0.77170787 5.56308372 0.25390625 8.96484375 C0 11 0 11 0 15 C-0.99 15 -1.98 15 -3 15 C-3.33 14.34 -3.66 13.68 -4 13 C-5.65 13.66 -7.3 14.32 -9 15 C-9 11 -9 11 -7.3125 9.1875 C-6.549375 8.465625 -5.78625 7.74375 -5 7 C-3.25717997 4.71409158 -1.63694929 2.36448231 0 0 Z " fill="#7FB960" transform="translate(41,19)" />
<path d="M0 0 C1.32 0 2.64 0 4 0 C4 1.32 4 2.64 4 4 C5.32 4 6.64 4 8 4 C8.33 4.66 8.66 5.32 9 6 C10.84765625 6.6328125 10.84765625 6.6328125 13.0625 7.125 C13.79597656 7.29257812 14.52945313 7.46015625 15.28515625 7.6328125 C15.85105469 7.75398438 16.41695312 7.87515625 17 8 C16.67 10.31 16.34 12.62 16 15 C15.01 15 14.02 15 13 15 C12.67 14.01 12.34 13.02 12 12 C11.67 12.99 11.34 13.98 11 15 C9.68 14.67 8.36 14.34 7 14 C7.99 14 8.98 14 10 14 C10 12.68 10 11.36 10 10 C9.34 10 8.68 10 8 10 C7.67 8.35 7.34 6.7 7 5 C5.68 5 4.36 5 3 5 C3 3.68 3 2.36 3 1 C2.01 0.67 1.02 0.34 0 0 Z " fill="#538B44" transform="translate(26,45)" />
<path d="M0 0 C1.1774734 0.73291712 2.34176854 1.48703801 3.5 2.25 C4.1496875 2.66765625 4.799375 3.0853125 5.46875 3.515625 C5.72140625 3.76054688 5.72140625 3.76054688 7 5 C7 6.32 7 7.64 7 9 C5.35 9.33 3.7 9.66 2 10 C2 9.34 2 8.68 2 8 C1.34 8 0.68 8 0 8 C0.66 9.32 1.32 10.64 2 12 C1.175 11.67 1.175 11.67 -3 10 C-3.36629408 5.72656908 -2.40814077 3.51187196 0 0 Z " fill="#A05B25" transform="translate(33,77)" />
<path d="M0 0 C2.375 0.6875 2.375 0.6875 5 2 C5.69658363 3.65438613 6.36096883 5.32254318 7 7 C9.625 9.3125 9.625 9.3125 12 11 C9.2935683 10.53604028 7.09385987 10.04692993 4.625 8.8125 C0.98229647 7.68499653 -1.40036508 8.95283348 -5 10 C-7.4375 9.125 -7.4375 9.125 -9 8 C-8.01 7.01 -7.02 6.02 -6 5 C-5.175 5.33 -5.175 5.33 -1 7 C-1 6.01 -1 5.02 -1 4 C-0.01 4 0.98 4 2 4 C1.34 2.68 0.68 1.36 0 0 Z " fill="#2C5225" transform="translate(49,27)" />
<path d="M0 0 C1.093125 0.53625 2.18625 1.0725 3.3125 1.625 C4.199375 2.07875 5.08625 2.5325 6 3 C6 3.33 6 3.66 6 4 C4.35 4 2.7 4 1 4 C1 4.66 1 5.32 1 6 C-0.65 5.67 -2.3 5.34 -4 5 C-4 5.99 -4 6.98 -4 8 C-4.66 7.67 -5.32 7.34 -6 7 C-5.67 6.01 -5.34 5.02 -5 4 C-5.66 4 -6.32 4 -7 4 C-8.625 2 -8.625 2 -10 0 C-5.85149006 -2.1335194 -4.12711866 -2.11389004 0 0 Z " fill="#3C6639" transform="translate(56,36)" />
<path d="M0 0 C2.25 -0.0625 2.25 -0.0625 5 1 C6.28367013 3.22792917 7.19849012 5.46663552 8.10546875 7.87109375 C9 10 9 10 11 12 C10.01 12.33 9.02 12.66 8 13 C5.69880494 9.44360764 4.22527029 6.05281712 3 2 C-0.33313152 3.66656576 -1.05202993 7.33608239 -2.48828125 10.65234375 C-4.32411288 13.50333809 -5.80113168 14.06230828 -9 15 C-8 12 -8 12 -5.625 9.75 C-2.58232205 6.56243263 -1.52191679 4.08514506 0 0 Z " fill="#506D33" transform="translate(40,15)" />
<path d="M0 0 C2.64 0.66 5.28 1.32 8 2 C7.67 4.31 7.34 6.62 7 9 C5.35 9.33 3.7 9.66 2 10 C2 6 2 6 4 3 C3.401875 3.33 2.80375 3.66 2.1875 4 C0 5 0 5 -3 5 C-2.67 4.01 -2.34 3.02 -2 2 C-1.34 2 -0.68 2 0 2 C0 1.34 0 0.68 0 0 Z " fill="#79B65B" transform="translate(21,65)" />
<path d="M0 0 C-0.165 0.598125 -0.33 1.19625 -0.5 1.8125 C-1 4 -1 4 -1 7 C-1.33 7.66 -1.66 8.32 -2 9 C-2.66 9 -3.32 9 -4 9 C-4 8.34 -4 7.68 -4 7 C-4.99 7.66 -5.98 8.32 -7 9 C-7.99 9 -8.98 9 -10 9 C-9.67 7.68 -9.34 6.36 -9 5 C-8.34 5 -7.68 5 -7 5 C-7 4.01 -7 3.02 -7 2 C-4 0 -4 0 0 0 Z " fill="#7DB760" transform="translate(28,47)" />
<path d="M0 0 C1.98 0 3.96 0 6 0 C7.42944945 2.35438733 8.08661261 3.48032433 7.625 6.25 C7.521875 6.53875 7.521875 6.53875 7 8 C5.35 7.67 3.7 7.34 2 7 C2 5.68 2 4.36 2 3 C1.34 3 0.68 3 0 3 C0 2.01 0 1.02 0 0 Z " fill="#71AE5A" transform="translate(33,36)" />
<path d="M0 0 C0.66 0.33 1.32 0.66 2 1 C1.67 1.99 1.34 2.98 1 4 C0.67 4.165 0.67 4.165 -1 5 C-0.67 5.33 -0.34 5.66 0 6 C0.04063832 7.66617115 0.042721 9.33388095 0 11 C-1.65 10.67 -3.3 10.34 -5 10 C-5 8.35 -5 6.7 -5 5 C-6.65 5 -8.3 5 -10 5 C-10 4.67 -10 4.34 -10 4 C-6.7 3.67 -3.4 3.34 0 3 C0 2.01 0 1.02 0 0 Z " fill="#3D6F31" transform="translate(41,41)" />
<path d="M0 0 C1.9375 0.75 1.9375 0.75 4 2 C4.144375 2.66 4.28875 3.32 4.4375 4 C4.623125 4.66 4.80875 5.32 5 6 C7.5625 7.25 7.5625 7.25 10 8 C7 9 7 9 4 8 C3.175 8.33 2.35 8.66 1.5 9 C-1 10 -1 10 -4 9 C-3.67 7.68 -3.34 6.36 -3 5 C-0.69 5.33 1.62 5.66 4 6 C3.34 5.38125 2.68 4.7625 2 4.125 C0 2 0 2 0 0 Z " fill="#1A3B1A" transform="translate(55,52)" />
<path d="M0 0 C0.33 0.99 0.66 1.98 1 3 C1.99 3.33 2.98 3.66 4 4 C4.99 4.66 5.98 5.32 7 6 C5.10388566 5.85786703 3.20811606 5.71113093 1.3125 5.5625 C0.25675781 5.48128906 -0.79898438 5.40007813 -1.88671875 5.31640625 C-4.65086297 5.03548319 -7.28945741 4.59843148 -10 4 C-9.67 3.01 -9.34 2.02 -9 1 C-8.071875 1.20625 -7.14375 1.4125 -6.1875 1.625 C-3 2 -3 2 0 0 Z " fill="#44782E" transform="translate(37,31)" />
<path d="M0 0 C0.66 0 1.32 0 2 0 C2.33 0.66 2.66 1.32 3 2 C3.99 2.66 4.98 3.32 6 4 C1.21707285 6.91641899 -1.55694966 7.31036397 -7 6 C-9.4375 4.9375 -9.4375 4.9375 -11 4 C-7.42355152 2.7619986 -4.66305234 3.25073929 -1 4 C-0.67 2.68 -0.34 1.36 0 0 Z " fill="#477B34" transform="translate(30,57)" />
<path d="M0 0 C0.66 0 1.32 0 2 0 C2.70173653 4.38585329 3.10834375 8.55790643 3 13 C2.34 13 1.68 13 1 13 C0.67 14.32 0.34 15.64 0 17 C-0.78383559 11.94861511 -1.05754263 8.05270368 0 3 C0 2.01 0 1.02 0 0 Z " fill="#61A14E" transform="translate(41,17)" />
<path d="M0 0 C1.32 0.66 2.64 1.32 4 2 C3.01 2.33 2.02 2.66 1 3 C1 3.99 1 4.98 1 6 C0.67 6.165 0.67 6.165 -1 7 C-1.625 9.5625 -1.625 9.5625 -2 12 C-2.99 11.34 -3.98 10.68 -5 10 C-4.67 8.35 -4.34 6.7 -4 5 C-3.34 5 -2.68 5 -2 5 C-1.9278125 4.6803125 -1.9278125 4.6803125 -1.5625 3.0625 C-1 1 -1 1 0 0 Z " fill="#58753F" transform="translate(20,46)" />
<path d="M0 0 C2.31 0.33 4.62 0.66 7 1 C7 2.32 7 3.64 7 5 C8.32 4.67 9.64 4.34 11 4 C10.67 4.99 10.34 5.98 10 7 C8.0625 6.6875 8.0625 6.6875 6 6 C5.67 5.01 5.34 4.02 5 3 C4.01 3.33 3.02 3.66 2 4 C2 4.66 2 5.32 2 6 C0.68 5.67 -0.64 5.34 -2 5 C-1.34 5 -0.68 5 0 5 C0 3.35 0 1.7 0 0 Z " fill="#4B6A31" transform="translate(34,71)" />
<path d="M0 0 C0.33 1.32 0.66 2.64 1 4 C2.32 4 3.64 4 5 4 C5.33 3.01 5.66 2.02 6 1 C6.66 1 7.32 1 8 1 C8 1.99 8 2.98 8 4 C8.99 4 9.98 4 11 4 C10.67 4.66 10.34 5.32 10 6 C3.12101911 7.49044586 3.12101911 7.49044586 -1 5.6875 C-1.66 5.130625 -2.32 4.57375 -3 4 C-3 3.34 -3 2.68 -3 2 C-2.01 1.34 -1.02 0.68 0 0 Z " fill="#2F3B17" transform="translate(39,73)" />
<path d="M0 0 C0.66 0.165 0.66 0.165 4 1 C4 1.66 4 2.32 4 3 C4.66 3 5.32 3 6 3 C6 2.01 6 1.02 6 0 C6.825 0.33 6.825 0.33 11 2 C10.67 2.66 10.34 3.32 10 4 C8.35 4 6.7 4 5 4 C5 4.66 5 5.32 5 6 C3.02 6.33 1.04 6.66 -1 7 C-0.34 6.34 0.32 5.68 1 5 C0.625 2.375 0.625 2.375 0 0 Z " fill="#20451E" transform="translate(46,41)" />
<path d="M0 0 C0 0.66 0 1.32 0 2 C-2.64458379 3.32229189 -4.67761301 3.09677194 -7.625 3.0625 C-8.62789062 3.05347656 -9.63078125 3.04445313 -10.6640625 3.03515625 C-11.43492188 3.02355469 -12.20578125 3.01195313 -13 3 C-13 2.34 -13 1.68 -13 1 C-8.20862412 -0.6290678 -4.94367454 -1.20577428 0 0 Z " fill="#4F793A" transform="translate(34,74)" />
<path d="M0 0 C-0.33 2.31 -0.66 4.62 -1 7 C-2.65 6.67 -4.3 6.34 -6 6 C-5.67 4.35 -5.34 2.7 -5 1 C-2 0 -2 0 0 0 Z " fill="#63A04E" transform="translate(40,65)" />
<path d="M0 0 C0.99 0 1.98 0 3 0 C3 1.98 3 3.96 3 6 C-1.75 7.125 -1.75 7.125 -4 6 C-4 5.34 -4 4.68 -4 4 C-3.01 4 -2.02 4 -1 4 C-0.67 2.68 -0.34 1.36 0 0 Z " fill="#7FB862" transform="translate(27,55)" />
<path d="M0 0 C2.31 0.33 4.62 0.66 7 1 C7 2.65 7 4.3 7 6 C7.66 6 8.32 6 9 6 C9 6.99 9 7.98 9 9 C7.35 8.67 5.7 8.34 4 8 C4 6.35 4 4.7 4 3 C2.68 2.67 1.36 2.34 0 2 C0 1.34 0 0.68 0 0 Z " fill="#406E3D" transform="translate(41,66)" />
<path d="M0 0 C1.99954746 -0.04254356 4.00041636 -0.04080783 6 0 C7 1 7 1 7.0625 3.5625 C7.041875 4.366875 7.02125 5.17125 7 6 C6.01 5.34 5.02 4.68 4 4 C3.67 4.99 3.34 5.98 3 7 C1.68 6.67 0.36 6.34 -1 6 C-0.01 6 0.98 6 2 6 C2 4.68 2 3.36 2 2 C1.34 2 0.68 2 0 2 C0 1.34 0 0.68 0 0 Z " fill="#629C52" transform="translate(34,53)" />
<path d="M0 0 C0.99 0.99 1.98 1.98 3 3 C2.01 3.99 1.02 4.98 0 6 C0.66 7.98 1.32 9.96 2 12 C1.175 11.67 1.175 11.67 -3 10 C-3.36629408 5.72656908 -2.40814077 3.51187196 0 0 Z " fill="#72512B" transform="translate(33,77)" />
<path d="M0 0 C1.32 0.66 2.64 1.32 4 2 C4 2.66 4 3.32 4 4 C5.32 3.34 6.64 2.68 8 2 C7.67 3.65 7.34 5.3 7 7 C5.35 6.67 3.7 6.34 2 6 C2 5.34 2 4.68 2 4 C1.01 3.67 0.02 3.34 -1 3 C-0.67 2.01 -0.34 1.02 0 0 Z " fill="#214720" transform="translate(44,57)" />
<path d="M0 0 C0.125 6.625 0.125 6.625 -1 10 C-1.66 9.67 -2.32 9.34 -3 9 C-2.67 8.01 -2.34 7.02 -2 6 C-2.66 6 -3.32 6 -4 6 C-5.625 4 -5.625 4 -7 2 C-2.25 0 -2.25 0 0 0 Z " fill="#2F5B2E" transform="translate(53,34)" />
<path d="M0 0 C1.65 0.99 3.3 1.98 5 3 C4.34 4.65 3.68 6.3 3 8 C2.8040625 7.773125 2.8040625 7.773125 1.8125 6.625 C-0.30832487 4.72357081 -2.33042235 3.93795972 -5 3 C-4.34 2.67 -3.68 2.34 -3 2 C-2.34 2.33 -1.68 2.66 -1 3 C-0.67 2.01 -0.34 1.02 0 0 Z " fill="#30552E" transform="translate(55,67)" />
<path d="M0 0 C1.98 0.66 3.96 1.32 6 2 C6 2.66 6 3.32 6 4 C4.35 4.33 2.7 4.66 1 5 C0.67 7.97 0.34 10.94 0 14 C-0.66 13.34 -1.32 12.68 -2 12 C-1.7578125 9.1796875 -1.7578125 9.1796875 -1.125 5.875 C-0.92132813 4.77929688 -0.71765625 3.68359375 -0.5078125 2.5546875 C-0.34023437 1.71164063 -0.17265625 0.86859375 0 0 Z " fill="#646B4B" transform="translate(15,56)" />
<path d="M0 0 C0.20625 0.5775 0.4125 1.155 0.625 1.75 C2.49750888 4.81410544 4.96958519 6.15539968 8 8 C7.01 8.33 6.02 8.66 5 9 C3.30712215 8.04504326 1.64142963 7.0409066 0 6 C-2.3125 5.3125 -2.3125 5.3125 -4 5 C-4 4.34 -4 3.68 -4 3 C-3.01 2.67 -2.02 2.34 -1 2 C-0.67 1.34 -0.34 0.68 0 0 Z " fill="#243D1B" transform="translate(53,29)" />
<path d="M0 0 C1.32 0 2.64 0 4 0 C4 1.32 4 2.64 4 4 C4.99 4.33 5.98 4.66 7 5 C6.34 6.32 5.68 7.64 5 9 C4.731875 8.360625 4.46375 7.72125 4.1875 7.0625 C3 5 3 5 0 4 C0 2.68 0 1.36 0 0 Z " fill="#361F07" transform="translate(42,79)" />
<path d="M0 0 C-1.97420135 2.52259061 -2.96745642 2.9929808 -6.1875 3.6875 C-6.6515625 3.7390625 -6.6515625 3.7390625 -9 4 C-9 3.34 -9 2.68 -9 2 C-9.99 1.67 -10.98 1.34 -12 1 C-7.67265609 -1.22923777 -4.71599818 -0.92470553 0 0 Z " fill="#2A4224" transform="translate(59,75)" />
<path d="M0 0 C2.4375 0.8125 2.4375 0.8125 5 2 C5.33 2.99 5.66 3.98 6 5 C4.34385343 5.38218767 2.67542976 5.71395102 1 6 C0 5 0 5 -0.0625 2.4375 C-0.041875 1.633125 -0.02125 0.82875 0 0 Z " fill="#39603A" transform="translate(53,53)" />
<path d="M0 0 C-0.33 2.31 -0.66 4.62 -1 7 C-1.66 7 -2.32 7 -3 7 C-3 6.01 -3 5.02 -3 4 C-3.99 4 -4.98 4 -6 4 C-5.67 3.01 -5.34 2.02 -5 1 C-3 0 -3 0 0 0 Z " fill="#89BE64" transform="translate(32,35)" />
<path d="M0 0 C4.55384615 -0.36923077 4.55384615 -0.36923077 6.8125 1.5 C7.204375 1.995 7.59625 2.49 8 3 C7.67 3.99 7.34 4.98 7 6 C1.125 2.25 1.125 2.25 0 0 Z " fill="#58380E" transform="translate(34,77)" />
<path d="M0 0 C1.875 0.625 1.875 0.625 4 2 C5.25 5.125 5.25 5.125 6 8 C5.01 8 4.02 8 3 8 C2.67 7.01 2.34 6.02 2 5 C1.34 5.66 0.68 6.32 0 7 C0 4.69 0 2.38 0 0 Z " fill="#518E4B" transform="translate(40,37)" />
<path d="M0 0 C1.32 0.33 2.64 0.66 4 1 C3.01 1.33 2.02 1.66 1 2 C0.67 3.98 0.34 5.96 0 8 C-0.99 7.67 -1.98 7.34 -3 7 C-3.33 7.66 -3.66 8.32 -4 9 C-4 8.01 -4 7.02 -4 6 C-3.34 6 -2.68 6 -2 6 C-1.34 4.02 -0.68 2.04 0 0 Z " fill="#636D4B" transform="translate(31,25)" />
<path d="M0 0 C1.9375 0.3125 1.9375 0.3125 4 1 C4.33 1.99 4.66 2.98 5 4 C5.66 4 6.32 4 7 4 C6.67 4.99 6.34 5.98 6 7 C5.34 7 4.68 7 4 7 C3.34 5.35 2.68 3.7 2 2 C1.34 2 0.68 2 0 2 C0 1.34 0 0.68 0 0 Z " fill="#497447" transform="translate(44,54)" />
<path d="M0 0 C-0.5671875 0.144375 -0.5671875 0.144375 -3.4375 0.875 C-4.613125 1.24625 -5.78875 1.6175 -7 2 C-7.33 2.66 -7.66 3.32 -8 4 C-8.66 4 -9.32 4 -10 4 C-9.67 3.01 -9.34 2.02 -9 1 C-8.34 1 -7.68 1 -7 1 C-7 0.34 -7 -0.32 -7 -1 C-3.51418144 -2.2020064 -3.32007656 -2.21338437 0 0 Z " fill="#576D3D" transform="translate(29,36)" />
<path d="M0 0 C2.52588702 2.36292656 3.88820837 3.66462511 5 7 C5.66 7.66 6.32 8.32 7 9 C6.01 9.33 5.02 9.66 4 10 C1.80902348 6.6659053 0.56545837 3.95820859 0 0 Z " fill="#476738" transform="translate(44,18)" />
<path d="M0 0 C1.65 0 3.3 0 5 0 C5 1.65 5 3.3 5 5 C6.32 5.33 7.64 5.66 9 6 C7.35 6 5.7 6 4 6 C3.67 4.68 3.34 3.36 3 2 C2.01 2 1.02 2 0 2 C0 1.34 0 0.68 0 0 Z " fill="#447A33" transform="translate(31,46)" />
<path d="M0 0 C0.66 0.33 1.32 0.66 2 1 C1.67 2.98 1.34 4.96 1 7 C-0.32 6.67 -1.64 6.34 -3 6 C-2 4 -1 2 0 0 Z " fill="#64A354" transform="translate(39,37)" />
<path d="M0 0 C0 0.66 0 1.32 0 2 C0.99 2 1.98 2 3 2 C3 2.99 3 3.98 3 5 C3.99 5.33 4.98 5.66 6 6 C4.68 6 3.36 6 2 6 C2 5.01 2 4.02 2 3 C0.02 3 -1.96 3 -4 3 C-4 2.34 -4 1.68 -4 1 C-2 0 -2 0 0 0 Z " fill="#77AB59" transform="translate(26,37)" />
<path d="M0 0 C0.66 0.33 0.66 0.33 4 2 C4 3.32 4 4.64 4 6 C3.01 6.33 2.02 6.66 1 7 C0.67 4.69 0.34 2.38 0 0 Z " fill="#914A16" transform="translate(36,80)" />
<path d="M0 0 C0.99 0 1.98 0 3 0 C3 1.65 3 3.3 3 5 C1.68 5 0.36 5 -1 5 C-0.67 3.35 -0.34 1.7 0 0 Z " fill="#76B95F" transform="translate(31,69)" />
<path d="M0 0 C0.99 0.165 0.99 0.165 6 1 C6 1.66 6 2.32 6 3 C4.68 3 3.36 3 2 3 C1.67 3.66 1.34 4.32 1 5 C0.67 3.35 0.34 1.7 0 0 Z " fill="#6AA256" transform="translate(19,62)" />
<path d="M0 0 C0 0.66 0 1.32 0 2 C0.66 2.33 1.32 2.66 2 3 C-2.75 4.125 -2.75 4.125 -5 3 C-5 2.34 -5 1.68 -5 1 C-2 0 -2 0 0 0 Z " fill="#47742F" transform="translate(23,55)" />
<path d="M0 0 C2.97 0.99 5.94 1.98 9 3 C9 3.33 9 3.66 9 4 C5.7 3.67 2.4 3.34 -1 3 C-0.67 2.01 -0.34 1.02 0 0 Z " fill="#4A7B36" transform="translate(28,32)" />
<path d="M0 0 C-0.33 0.99 -0.66 1.98 -1 3 C-1.66 3 -2.32 3 -3 3 C-3 3.66 -3 4.32 -3 5 C-4.32 5.33 -5.64 5.66 -7 6 C-5.52522876 2.59668175 -4.14385429 0 0 0 Z " fill="#9ACA75" transform="translate(38,27)" />
<path d="M0 0 C1.65 0.33 3.3 0.66 5 1 C5 1.99 5 2.98 5 4 C4.34 4 3.68 4 3 4 C3 3.34 3 2.68 3 2 C1.35 2.66 -0.3 3.32 -2 4 C-1.34 2.68 -0.68 1.36 0 0 Z " fill="#556A3F" transform="translate(40,15)" />
</svg>