<?xml version='1.0' encoding='utf-8'?>
<svg xmlns="http://www.w3.org/2000/svg" version="1.1" width="97" height="101">
<path d="M0 0 C3.54790256 0.6001326 7.01357296 1.42693738 10.5 2.3125 C11.38558594 2.52583984 12.27117188 2.73917969 13.18359375 2.95898438 C18.89233483 4.36311672 24.45391347 6.05226723 30 8 C30.3359375 10.13671875 30.3359375 10.13671875 30 13 C28.2568022 15.16004945 26.62940099 16.93587957 24.625 18.8125 C24.37105469 19.06354492 24.37105469 19.06354492 23.0859375 20.33398438 C19.29522747 24 19.29522747 24 17 24 C16.773125 24.598125 16.54625 25.19625 16.3125 25.8125 C14.50853638 28.81910603 13.28715357 29.69883504 10 31 C1.04095935 31.41924875 -7.3023496 27.63647525 -15.5 24.5 C-16.88241139 23.98200118 -18.26522184 23.46506606 -19.6484375 22.94921875 C-29.42586738 19.28706631 -29.42586738 19.28706631 -32 18 C-31.8046875 15.70703125 -31.8046875 15.70703125 -31 13 C-28.8203125 11.19921875 -28.8203125 11.19921875 -26.125 9.6875 C-25.24070312 9.17574219 -24.35640625 8.66398437 -23.4453125 8.13671875 C-21 7 -21 7 -18 7 C-18.33 9.64 -18.66 12.28 -19 15 C-18.34 15.33 -17.68 15.66 -17 16 C-17 15.01 -17 14.02 -17 13 C-15.02 12.34 -13.04 11.68 -11 11 C-11.226875 9.741875 -11.45375 8.48375 -11.6875 7.1875 C-12.07421875 5.04296875 -12.07421875 5.04296875 -12 3 C-8.69491635 -1.23973116 -4.96628462 -0.48314963 0 0 Z " fill="#DDCBB7" transform="translate(49,32)" />
<path d="M0 0 C0 3 0 3 -2.3125 5.5 C-3.72881366 6.81750108 -5.16060765 8.12491706 -6.6875 9.3125 C-8.38893031 11.50005325 -8.74711831 13.72490569 -9.328125 16.39453125 C-10.78675882 22.05097754 -12.98441823 27.52254114 -15 33 C-15.66 33 -16.32 33 -17 33 C-17.33 33.99 -17.66 34.98 -18 36 C-18.66 36 -19.32 36 -20 36 C-20 36.66 -20 37.32 -20 38 C-25.37095818 40.42810044 -30.18041458 40.68465711 -36 40 C-42.83003824 36.77125465 -45.56141028 31.43024326 -48.1875 24.625 C-49.78624316 20.04193628 -50.63538712 15.83112066 -51 11 C-51.78375 10.87625 -52.5675 10.7525 -53.375 10.625 C-56 10 -56 10 -58 8 C-51.08985527 8.74202896 -44.82262097 11.59647033 -38.40625 14.1171875 C-23.96053274 19.58421309 -23.96053274 19.58421309 -17.1875 16.875 C-14.65458201 14.70392744 -12.35065092 12.36768462 -10 10 C-8.33333333 8.33333333 -8.33333333 8.33333333 0 0 Z " fill="#9C1E10" transform="translate(79,44)" />
<path d="M0 0 C3.3398874 0.28078699 6.66927329 0.62605418 10 1 C11.00804688 1.11085937 12.01609375 1.22171875 13.0546875 1.3359375 C19.37855738 2.18877491 25.31247962 3.35100718 30 8 C30.70703125 10.1640625 30.70703125 10.1640625 31 12 C20.09218147 17.2115133 9.70891233 18.73688691 -2 15 C-5.0625 13.375 -5.0625 13.375 -7 12 C-6.34 11.67 -5.68 11.34 -5 11 C-5 10.01 -5 9.02 -5 8 C-3.02 7.34 -1.04 6.68 1 6 C0.67 4.02 0.34 2.04 0 0 Z " fill="#DEAB9F" transform="translate(37,37)" />
<path d="M0 0 C0.59425781 0.21205078 1.18851563 0.42410156 1.80078125 0.64257812 C4.52946354 1.60801393 7.26449502 2.55407772 10 3.5 C10.93457031 3.83386719 11.86914062 4.16773438 12.83203125 4.51171875 C18.47513903 6.44537107 23.03557533 7.3938771 29 7 C29 7.66 29 8.32 29 9 C27.515 9.165 27.515 9.165 20 10 C20.66 10.33 21.32 10.66 22 11 C22 15 22 15 20.171875 16.95703125 C19.37265625 17.56933594 18.5734375 18.18164062 17.75 18.8125 C16.96109375 19.43769531 16.1721875 20.06289062 15.359375 20.70703125 C13 22 13 22 10.703125 21.69921875 C10.14109375 21.46847656 9.5790625 21.23773438 9 21 C9 20.01 9 19.02 9 18 C8.54625 17.9896875 8.54625 17.9896875 6.25 17.9375 C3 17 3 17 0.625 13.875 C-1.69959758 9.18722232 -1.64527847 4.93583541 0 0 Z " fill="#B13626" transform="translate(32,55)" />
<path d="M0 0 C-0.226875 1.258125 -0.45375 2.51625 -0.6875 3.8125 C-1.1638563 7.72690616 -1.1638563 7.72690616 0.125 9.875 C7.5827908 14.34967448 15.44651951 14.13673458 23.875 14.0625 C24.84953125 14.05798828 25.8240625 14.05347656 26.828125 14.04882812 C29.21881434 14.03710906 31.6093744 14.02070219 34 14 C33.1875 18.7734375 33.1875 18.7734375 31.5 20.8125 C26.46836635 23.20252598 21.94466471 22.67065693 16.83984375 20.91015625 C14.597965 20.00553851 12.36098902 19.08868199 10.12890625 18.16015625 C7.37993883 17.1408762 5.3285622 16.66265504 2.4375 16.5 C-3.48798161 16.15729491 -8.67351366 13.44243282 -14 11 C-13.8046875 8.70703125 -13.8046875 8.70703125 -13 6 C-10.8203125 4.19921875 -10.8203125 4.19921875 -8.125 2.6875 C-7.24070312 2.17574219 -6.35640625 1.66398437 -5.4453125 1.13671875 C-3 0 -3 0 0 0 Z " fill="#F9F0DC" transform="translate(31,39)" />
<path d="M0 0 C0 3 0 3 -2.3125 5.5 C-3.72881366 6.81750108 -5.16060765 8.12491706 -6.6875 9.3125 C-8.38893031 11.50005325 -8.74711831 13.72490569 -9.328125 16.39453125 C-10.78675882 22.05097754 -12.98441823 27.52254114 -15 33 C-15.66 33 -16.32 33 -17 33 C-17.33 33.99 -17.66 34.98 -18 36 C-18.66 36 -19.32 36 -20 36 C-20 36.66 -20 37.32 -20 38 C-25.37095818 40.42810044 -30.18041458 40.68465711 -36 40 C-40.86134773 37.70190835 -43.48074996 34.73619008 -46 30 C-45.67 29.01 -45.34 28.02 -45 27 C-45 27.66 -45 28.32 -45 29 C-44.34 29 -43.68 29 -43 29 C-42.34 30.98 -41.68 32.96 -41 35 C-34.37820516 36.24939525 -28.48215021 35.99370482 -22 34 C-19.4375 31.875 -19.4375 31.875 -18 30 C-17.34 30 -16.68 30 -16 30 C-15.67 26.37 -15.34 22.74 -15 19 C-15.99 19.33 -16.98 19.66 -18 20 C-16.42943666 16.1449809 -13.95243433 13.88608749 -11 11 C-10.03384555 10.03646874 -9.06901893 9.07160434 -8.10546875 8.10546875 C-5.40364583 5.40364583 -2.70182292 2.70182292 0 0 Z " fill="#6B2214" transform="translate(79,44)" />
<path d="M0 0 C4.35019062 0.50583612 7.49968887 1.29975999 11 4 C11.63671875 6.10546875 11.63671875 6.10546875 12 8 C3.76061087 11.93659703 -2.90212159 13.18195757 -12 13 C-11.02720973 9.40067601 -10.37298133 8.22703211 -7.125 6.25 C-4.72464793 5.28985917 -2.52913384 4.48637189 0 4 C0 2.68 0 1.36 0 0 Z " fill="#E79A86" transform="translate(56,41)" />
<path d="M0 0 C1.80078125 1.79296875 1.80078125 1.79296875 3.3125 4.1875 C3.82425781 4.96480469 4.33601563 5.74210937 4.86328125 6.54296875 C6.68620759 10.48324597 6.26192233 13.93380581 5 18 C4.67 18.66 4.34 19.32 4 20 C-7.71028335 8.59344158 -7.71028335 8.59344158 -8.5 4.25 C-7.5085506 -0.2115223 -3.9573415 -0.6074059 0 0 Z " fill="#E8E6E2" transform="translate(27,17)" />
<path d="M0 0 C-0.85714286 8.57142857 -0.85714286 8.57142857 -3 12 C-2.175 12.33 -2.175 12.33 2 14 C2 14.66 2 15.32 2 16 C-3.76044212 15.39363767 -8.72014369 13.24341721 -14 11 C-13.8046875 8.70703125 -13.8046875 8.70703125 -13 6 C-10.8203125 4.19921875 -10.8203125 4.19921875 -8.125 2.6875 C-7.24070312 2.17574219 -6.35640625 1.66398437 -5.4453125 1.13671875 C-3 0 -3 0 0 0 Z " fill="#F1EAD5" transform="translate(31,39)" />
<path d="M0 0 C7.4071181 0.62272232 14.68194135 1.70487966 22 3 C21.34 3.66 20.68 4.32 20 5 C19.93683594 5.33386719 19.93683594 5.33386719 19.6171875 7.0234375 C19 9 19 9 17.2578125 9.9765625 C16.55398437 10.19054688 15.85015625 10.40453125 15.125 10.625 C12.25963653 11.52373024 10.57394921 12.28403386 8 14 C4.8125 14.125 4.8125 14.125 2 14 C2 13.01 2 12.02 2 11 C5 10 5 10 7.125 9.625 C7.74375 9.41875 8.3625 9.2125 9 9 C9.33 8.01 9.66 7.02 10 6 C10.66 5.67 11.32 5.34 12 5 C8.7 5 5.4 5 2 5 C1.34 3.35 0.68 1.7 0 0 Z " fill="#F4AE9D" transform="translate(37,37)" />
<path d="M0 0 C2.72265625 1.046875 2.72265625 1.046875 4.1015625 3.15625 C4.30652344 3.78015625 4.51148437 4.4040625 4.72265625 5.046875 C3.16055464 5.10147273 1.59788536 5.13993601 0.03515625 5.171875 C-0.39990234 5.18347656 -0.39990234 5.18347656 -2.6015625 5.2421875 C-5.27734375 5.046875 -5.27734375 5.046875 -7.71484375 4.046875 C-10.82195116 2.83434528 -13.26725152 2.84885099 -16.58984375 2.921875 C-17.65847656 2.93992187 -18.72710937 2.95796875 -19.828125 2.9765625 C-20.23224609 2.98816406 -20.23224609 2.98816406 -22.27734375 3.046875 C-21.90234375 1.109375 -21.90234375 1.109375 -21.27734375 -0.953125 C-15.02869993 -4.07744691 -6.44261854 -1.35634075 0 0 Z " fill="#F3E1CE" transform="translate(59.27734375,33.953125)" />
<path d="M0 0 C0.33 0 0.66 0 1 0 C1.28875 1.134375 1.5775 2.26875 1.875 3.4375 C2.24625 4.613125 2.6175 5.78875 3 7 C3.66 7.33 4.32 7.66 5 8 C5.59355614 10.64860427 5.74209269 13.29197322 6 16 C3 18 3 18 -1 18 C-1 18.99 -1 19.98 -1 21 C-1.99 20.67 -2.98 20.34 -4 20 C-4.20086443 16.28400809 -4.1519437 15.22791555 -2 12 C-2.66 11.67 -3.32 11.34 -4 11 C-3.34 10.01 -2.68 9.02 -2 8 C-2 6.68 -2 5.36 -2 4 C-1.34 4 -0.68 4 0 4 C0 2.68 0 1.36 0 0 Z " fill="#B3AAA1" transform="translate(33,27)" />
<path d="M0 0 C0.125 7.625 0.125 7.625 -1 11 C-4.56694486 14.404811 -6.93982644 16.5535141 -12 17 C-12 16.01 -12 15.02 -12 14 C-11.195625 13.38125 -10.39125 12.7625 -9.5625 12.125 C-7 10 -7 10 -6.1875 7.25 C-6.125625 6.5075 -6.06375 5.765 -6 5 C-5.01 5 -4.02 5 -3 5 C-3.66 3.68 -4.32 2.36 -5 1 C-2 0 -2 0 0 0 Z " fill="#830B02" transform="translate(64,63)" />
<path d="M0 0 C4.46673445 0.69792726 9.05183365 1.7360165 13 4 C14.0625 6.625 14.0625 6.625 14 9 C13.67 9.33 13.34 9.66 13 10 C10.66055264 9.71269945 8.3260857 9.38063221 6 9 C6 8.34 6 7.68 6 7 C5.34 7 4.68 7 4 7 C3.67 6.34 3.34 5.68 3 5 C2.01 4.34 1.02 3.68 0 3 C0 2.01 0 1.02 0 0 Z " fill="#DB4E33" transform="translate(33,58)" />
<path d="M0 0 C1.0725 0.165 2.145 0.33 3.25 0.5 C7 1 7 1 11 1 C13.23551759 4.35327639 13.17283528 4.90743657 12.625 8.6875 C12.56957031 9.09162109 12.56957031 9.09162109 12.2890625 11.13671875 C12.19367187 11.75160156 12.09828125 12.36648437 12 13 C7.82556637 9.49925018 3.6854506 6.02049157 0 2 C0 1.34 0 0.68 0 0 Z " fill="#D0D0C8" transform="translate(20,24)" />
<path d="M0 0 C0.99 0.33 1.98 0.66 3 1 C3 1.66 3 2.32 3 3 C3.66 3 4.32 3 5 3 C5 3.66 5 4.32 5 5 C7.31 5 9.62 5 12 5 C12.66 3.68 13.32 2.36 14 1 C14 1.66 14 2.32 14 3 C14.66 3 15.32 3 16 3 C14.61725283 6.34163899 13.20955991 8.25766748 10 10 C7.25 9.6875 7.25 9.6875 5 9 C5 8.34 5 7.68 5 7 C4.01 7 3.02 7 2 7 C0.5393715 4.35261084 0 3.10551666 0 0 Z " fill="#CC3D28" transform="translate(34,62)" />
<path d="M0 0 C9.41002278 -0.18451025 9.41002278 -0.18451025 14 1 C14 1.33 14 1.66 14 2 C11.69 2 9.38 2 7 2 C6.67 3.32 6.34 4.64 6 6 C4.1875 6.6875 4.1875 6.6875 2 7 C0.1875 5.8125 0.1875 5.8125 -1 4 C-0.57421875 1.88671875 -0.57421875 1.88671875 0 0 Z " fill="#F8C1B2" transform="translate(40,41)" />
<path d="M0 0 C0 3 0 3 -2.3125 5.5 C-3.72881366 6.81750108 -5.16060765 8.12491706 -6.6875 9.3125 C-8.54882599 11.70563341 -8.94736657 14.22575307 -9.5703125 17.16015625 C-10 19 -10 19 -11 21 C-11.66 21 -12.32 21 -13 21 C-13.51132508 17.86813389 -13.65164402 15.11893741 -13 12 C-10.70133586 9.16442161 -7.9139347 7.17063897 -5 5 C-3.27505743 3.38158595 -1.6470257 1.69849526 0 0 Z " fill="#603426" transform="translate(79,44)" />
<path d="M0 0 C0.66 0.33 0.66 0.33 4 2 C3.67 2.66 3.34 3.32 3 4 C3.6492959 5.34187818 4.31731862 6.67479497 5 8 C5 8.99 5 9.98 5 11 C5.99 11 6.98 11 8 11 C8.33 12.32 8.66 13.64 9 15 C6.75 14.9375 6.75 14.9375 4 14 C0.44052967 9.18990496 -0.49729503 6.09186416 0 0 Z " fill="#B63322" transform="translate(31,58)" />
<path d="M0 0 C1.32 0.825 1.32 0.825 8 5 C7 9 7 9 4.53125 10.78125 C2.51041667 11.92708333 0.48958333 13.07291667 -1.53125 14.21875 C-4 16 -4 16 -4.84375 18.21875 C-4.8953125 18.8065625 -4.946875 19.394375 -5 20 C-5.66 20 -6.32 20 -7 20 C-7.375 17.73046875 -7.375 17.73046875 -7 15 C-4.375 13.05078125 -4.375 13.05078125 -1 11.3125 C1.02524137 10.25534276 3.03305088 9.16202202 5 8 C5 7.34 5 6.68 5 6 C4.175 5.34 3.35 4.68 2.5 4 C1.675 3.34 0.85 2.68 0 2 C0 1.34 0 0.68 0 0 Z " fill="#514131" transform="translate(22,30)" />
<path d="M0 0 C0.99 0.165 0.99 0.165 6 1 C6.33 2.32 6.66 3.64 7 5 C1.63560356 7.68219822 -2.01006953 8.3152595 -8 8 C-8 7.67 -8 7.34 -8 7 C-6.845 6.835 -6.845 6.835 -1 6 C-1.33 5.34 -1.66 4.68 -2 4 C-1.34 4 -0.68 4 0 4 C0 2.68 0 1.36 0 0 Z " fill="#D78374" transform="translate(61,44)" />
<path d="M0 0 C3.9492568 0.55105909 7.34920174 1.38935371 11 3 C10.98839844 3.65226562 10.97679687 4.30453125 10.96484375 4.9765625 C10.91529006 9.7761914 11.00586249 14.27784685 12 19 C7.83609524 14.45755844 7 8.97762888 7 3 C6.608125 2.938125 6.608125 2.938125 4.625 2.625 C2 2 2 2 0 0 Z " fill="#632D1A" transform="translate(21,52)" />
<path d="M0 0 C0.99 0.33 1.98 0.66 3 1 C3 5 3 5 1.171875 6.95703125 C0.37265625 7.56933594 -0.4265625 8.18164062 -1.25 8.8125 C-2.03890625 9.43769531 -2.8278125 10.06289062 -3.640625 10.70703125 C-6 12 -6 12 -8.296875 11.69921875 C-8.85890625 11.46847656 -9.4209375 11.23773438 -10 11 C-10 10.01 -10 9.02 -10 8 C-7.36 7.67 -4.72 7.34 -2 7 C-1.34 4.69 -0.68 2.38 0 0 Z " fill="#B52B1A" transform="translate(51,65)" />
<path d="M0 0 C5.36891879 0.49869404 10.69235173 1.02227532 16 2 C16 2.66 16 3.32 16 4 C11.38 4.33 6.76 4.66 2 5 C1.34 3.35 0.68 1.7 0 0 Z " fill="#D3AE98" transform="translate(37,37)" />
<path d="M0 0 C3.375 0.25 3.375 0.25 7 1 C8.4375 3.0625 8.4375 3.0625 9 5 C6.69 5.33 4.38 5.66 2 6 C0 3 0 3 0 0 Z " fill="#DC593A" transform="translate(38,60)" />
<path d="M0 0 C3.465 1.155 3.465 1.155 21 7 C21 7.33 21 7.66 21 8 C15.35338286 8.49101019 11.50195162 7.24416457 6.33203125 4.97265625 C4.22409374 4.09346623 2.22653037 3.48625376 0 3 C0 2.01 0 1.02 0 0 Z " fill="#9C4534" transform="translate(32,55)" />
<path d="M0 0 C2.29296875 -0.28125 2.29296875 -0.28125 5 0 C6.80078125 1.96875 6.80078125 1.96875 8.3125 4.5 C8.82425781 5.3353125 9.33601563 6.170625 9.86328125 7.03125 C10.23839844 7.6809375 10.61351562 8.330625 11 9 C10.67 9.66 10.34 10.32 10 11 C8.68 9.68 7.36 8.36 6 7 C5.67 7.66 5.34 8.32 5 9 C4.34 8.67 3.68 8.34 3 8 C3 7.34 3 6.68 3 6 C3.66 6 4.32 6 5 6 C5 4.68 5 3.36 5 2 C3.35 1.67 1.7 1.34 0 1 C0 0.67 0 0.34 0 0 Z " fill="#E4DED7" transform="translate(22,17)" />
<path d="M0 0 C0.33 1.32 0.66 2.64 1 4 C-0.65 5.32 -2.3 6.64 -4 8 C-4.66 7.67 -5.32 7.34 -6 7 C-5.67 5.02 -5.34 3.04 -5 1 C-3.35 0.67 -1.7 0.34 0 0 Z " fill="#ECF0DA" transform="translate(64,53)" />
<path d="M0 0 C0.99 0.165 0.99 0.165 6 1 C6 1.99 6 2.98 6 4 C5.67 3.34 5.34 2.68 5 2 C4.01 2 3.02 2 2 2 C2 3.98 2 5.96 2 8 C0.125 8.625 0.125 8.625 -2 9 C-2.66 8.34 -3.32 7.68 -4 7 C-3.7628125 6.79375 -3.7628125 6.79375 -2.5625 5.75 C-0.83733482 3.817815 -0.43415125 2.51807725 0 0 Z " fill="#E58E7A" transform="translate(59,42)" />
<path d="M0 0 C1.9375 0.5 1.9375 0.5 4 2 C4.68790422 4.69658452 4.81946464 7.2017019 5 10 C3.68 9.67 2.36 9.34 1 9 C-1.125 2.25 -1.125 2.25 0 0 Z " fill="#87786F" transform="translate(34,33)" />
<path d="M0 0 C0.66 0.33 1.32 0.66 2 1 C1.58417566 5.85128391 -0.5047434 7.77360929 -4 11 C-4 11.33 -4 11.66 -4 12 C-5.65 12 -7.3 12 -9 12 C-6.19195732 9.03595495 -3.81684226 6.55500981 0 5 C0 3.35 0 1.7 0 0 Z " fill="#911707" transform="translate(56,68)" />
<path d="M0 0 C1.98 0.66 3.96 1.32 6 2 C5.67 2.165 5.67 2.165 4 3 C3.9175 3.7425 3.835 4.485 3.75 5.25 C2.62158868 9.38750817 0.5185259 10.60740239 -3 13 C-3.99 12.67 -4.98 12.34 -6 12 C-4.8803014 10.99406757 -3.7540588 9.9954151 -2.625 9 C-1.99851562 8.443125 -1.37203125 7.88625 -0.7265625 7.3125 C1 6 1 6 3 6 C3 4.68 3 3.36 3 2 C2.01 1.67 1.02 1.34 0 1 C0 0.67 0 0.34 0 0 Z " fill="#A82312" transform="translate(51,64)" />
<path d="M0 0 C0.66 0.33 1.32 0.66 2 1 C0.32642487 5.22797927 0.32642487 5.22797927 -2 7 C-6.37151981 7.55116813 -10.61557936 7.34213687 -15 7 C-15 6.67 -15 6.34 -15 6 C-14.25234375 5.90203125 -13.5046875 5.8040625 -12.734375 5.703125 C-4.59005146 4.46655232 -4.59005146 4.46655232 -1.3125 1.875 C-0.879375 1.25625 -0.44625 0.6375 0 0 Z " fill="#6E1006" transform="translate(61,74)" />
<path d="M0 0 C4.95 0 9.9 0 15 0 C13.68 0.33 12.36 0.66 11 1 C11 1.66 11 2.32 11 3 C11.99 3.33 12.98 3.66 14 4 C9.03083364 3.48594831 4.70973649 2.76615118 0 1 C0 0.67 0 0.34 0 0 Z " fill="#5B4935" transform="translate(61,34)" />
<path d="M0 0 C0.66 0 1.32 0 2 0 C2.33 1.65 2.66 3.3 3 5 C2.34 5 1.68 5 1 5 C1 5.99 1 6.98 1 8 C0.01 7.67 -0.98 7.34 -2 7 C-2.125 4.625 -2.125 4.625 -2 2 C-1.34 1.34 -0.68 0.68 0 0 Z " fill="#786050" transform="translate(31,40)" />
<path d="M0 0 C0.99 0 1.98 0 3 0 C3.33 0.99 3.66 1.98 4 3 C7.0625 4.1875 7.0625 4.1875 10 5 C10 5.66 10 6.32 10 7 C6.4257023 6.67506385 4.44287547 6.36129314 1.625 4.0625 C0 2 0 2 0 0 Z " fill="#8B1E11" transform="translate(36,74)" />
<path d="M0 0 C0.99 0.165 0.99 0.165 6 1 C6 1.99 6 2.98 6 4 C4.375 5.125 4.375 5.125 2 6 C-1.25 5.125 -1.25 5.125 -4 4 C-3.34 3.525625 -2.68 3.05125 -2 2.5625 C-1.34 2.046875 -0.68 1.53125 0 1 C0 0.67 0 0.34 0 0 Z " fill="#F0E9D6" transform="translate(49,55)" />
<path d="M0 0 C0.33 0.66 0.66 1.32 1 2 C1.66 2 2.32 2 3 2 C2.375 3.9375 2.375 3.9375 1 6 C-1.9375 6.9375 -1.9375 6.9375 -5 7 C-6.875 5.5625 -6.875 5.5625 -8 4 C-5.69 4 -3.38 4 -1 4 C-0.67 2.68 -0.34 1.36 0 0 Z " fill="#D5432E" transform="translate(47,63)" />
<path d="M0 0 C1.258125 -0.04125 2.51625 -0.0825 3.8125 -0.125 C4.52019531 -0.14820313 5.22789063 -0.17140625 5.95703125 -0.1953125 C8 0 8 0 11 2 C8.20129973 3.39935013 6.09501208 3.25265405 3 3 C1.125 1.5 1.125 1.5 0 0 Z " fill="#F6F5E0" transform="translate(40,55)" />
<path d="M0 0 C-0.33 1.32 -0.66 2.64 -1 4 C-4.75 5.125 -4.75 5.125 -7 4 C-7 3.34 -7 2.68 -7 2 C-4.35261084 0.5393715 -3.10551666 0 0 0 Z " fill="#F0B9AB" transform="translate(47,43)" />
<path d="M0 0 C1.32 0 2.64 0 4 0 C4.33 1.32 4.66 2.64 5 4 C3.1875 4.6875 3.1875 4.6875 1 5 C-0.75 3.5625 -0.75 3.5625 -2 2 C-1.34 2 -0.68 2 0 2 C0 1.34 0 0.68 0 0 Z " fill="#E8BEB4" transform="translate(32,46)" />
<path d="M0 0 C2.97 0.33 5.94 0.66 9 1 C9 2.98 9 4.96 9 7 C8.443125 6.38125 7.88625 5.7625 7.3125 5.125 C4.93354822 2.93893621 3.03642904 2.01214301 0 1 C0 0.67 0 0.34 0 0 Z " fill="#E5BBA6" transform="translate(60,41)" />
<path d="M0 0 C1.43791516 0.14168137 2.8753237 0.28851043 4.3125 0.4375 C5.11300781 0.51871094 5.91351563 0.59992187 6.73828125 0.68359375 C9 1 9 1 12 2 C12 2.66 12 3.32 12 4 C7.80530429 3.40075776 3.99000166 2.42500059 0 1 C0 0.67 0 0.34 0 0 Z " fill="#BEAE9C" transform="translate(21,51)" />
<path d="M0 0 C1.32 0.33 2.64 0.66 4 1 C3.34 1 2.68 1 2 1 C2.375 2.9375 2.375 2.9375 3 5 C3.66 5.33 4.32 5.66 5 6 C2.0625 5.625 2.0625 5.625 -1 5 C-1.33 4.34 -1.66 3.68 -2 3 C-1.34 2.67 -0.68 2.34 0 2 C0 1.34 0 0.68 0 0 Z " fill="#E6D5BE" transform="translate(63,36)" />
<path d="M0 0 C1.155 0.495 1.155 0.495 7 3 C7 4.32 7 5.64 7 7 C3.63983107 5.87994369 2.30935087 4.62788203 0 2 C0 1.34 0 0.68 0 0 Z " fill="#DCD9D4" transform="translate(20,24)" />
<path d="M0 0 C0.99 0.165 0.99 0.165 6 1 C6 1.99 6 2.98 6 4 C5.01 3.835 5.01 3.835 0 3 C0 2.01 0 1.02 0 0 Z " fill="#E75F46" transform="translate(38,60)" />
<path d="M0 0 C0.99 0 1.98 0 3 0 C2.505 1.815 2.505 1.815 0 11 C-0.33 11 -0.66 11 -1 11 C-0.67 7.37 -0.34 3.74 0 0 Z " fill="#7E614A" transform="translate(70,55)" />
<path d="M0 0 C0.66 0.66 1.32 1.32 2 2 C1.01 2.99 0.02 3.98 -1 5 C-0.34 5 0.32 5 1 5 C1 5.66 1 6.32 1 7 C-0.32 6.67 -1.64 6.34 -3 6 C-2.625 3.5625 -2.625 3.5625 -2 1 C-1.34 0.67 -0.68 0.34 0 0 Z " fill="#DDCDBB" transform="translate(20,44)" />
<path d="M0 0 C0.66 0 1.32 0 2 0 C2.33 2.31 2.66 4.62 3 7 C1.35 5.35 -0.3 3.7 -2 2 C-1.34 1.34 -0.68 0.68 0 0 Z " fill="#C1BFB6" transform="translate(29,30)" />
<path d="M0 0 C1.67542976 0.28604898 3.34385343 0.61781233 5 1 C5 2.32 5 3.64 5 5 C2.53199953 3.84826645 0.95216435 2.95216435 -1 1 C-0.67 0.67 -0.34 0.34 0 0 Z " fill="#F5F2F2" transform="translate(22,18)" />
</svg>