<?xml version='1.0' encoding='utf-8'?>
<svg xmlns="http://www.w3.org/2000/svg" version="1.1" width="98" height="99">
<path d="M0 0 C2.01920337 1.30406884 4.01924973 2.63823419 6 4 C7.0725 4.33 8.145 4.66 9.25 5 C12 6 12 6 13.375 8.125 C13.58125 8.74375 13.7875 9.3625 14 10 C13.34 10.99 12.68 11.98 12 13 C11.71125 14.010625 11.4225 15.02125 11.125 16.0625 C10 19 10 19 7.875 20.375 C7.25625 20.58125 6.6375 20.7875 6 21 C6 22.32 6 23.64 6 25 C4.35 25.66 2.7 26.32 1 27 C1 28.98 1 30.96 1 33 C-0.32 33 -1.64 33 -3 33 C-3.165 34.65 -3.165 34.65 -4 43 C-4.66 43 -5.32 43 -6 43 C-5.67 41.68 -5.34 40.36 -5 39 C-9.91257775 41.50263395 -12.38255982 43.02686366 -15 48 C-15.99 48.66 -16.98 49.32 -18 50 C-19.09100611 52.02852466 -19.95240846 54.09818996 -20.83984375 56.22265625 C-22 58 -22 58 -24.12890625 58.74609375 C-24.74636719 58.82988281 -25.36382812 58.91367188 -26 59 C-26 57.68 -26 56.36 -26 55 C-27.258125 54.896875 -28.51625 54.79375 -29.8125 54.6875 C-33.74107143 54.19642857 -33.74107143 54.19642857 -35.8125 52.625 C-36.204375 52.08875 -36.59625 51.5525 -37 51 C-39.13498836 48.43801397 -40.35568877 47.86508357 -43.625 46.625 C-44.73875 46.08875 -45.8525 45.5525 -47 45 C-47.9375 42.3125 -47.9375 42.3125 -48 40 C-47.175 39.835 -47.175 39.835 -43 39 C-42.67 37.35 -42.34 35.7 -42 34 C-40.68 34 -39.36 34 -38 34 C-37.67 32.35 -37.34 30.7 -37 29 C-35.68 28.67 -34.36 28.34 -33 28 C-32.979375 27.2575 -32.95875 26.515 -32.9375 25.75 C-31.68914536 22.08815972 -29.97044496 21.64147248 -26.640625 19.9765625 C-24.50670663 18.706373 -23.99519636 17.22005342 -23 15 C-20.875 14.25 -20.875 14.25 -19 14 C-18.9175 13.236875 -18.835 12.47375 -18.75 11.6875 C-18 9 -18 9 -16.125 7.1875 C-14 6 -14 6 -11 6 C-10.9175 5.401875 -10.835 4.80375 -10.75 4.1875 C-8.8630671 -1.31605429 -5.06195801 -1.5185874 0 0 Z " fill="#D6A862" transform="translate(65,18)" />
<path d="M0 0 C3.1875 0 3.1875 0 7 1 C10.13435902 4.25073374 11.76738367 7.70768707 12.5625 12.125 C11.84074439 15.81397313 10.14359866 17.91321793 8 21 C7.2678125 22.08539063 6.535625 23.17078125 5.78125 24.2890625 C5.02139593 25.40142619 4.26097606 26.51340357 3.5 27.625 C3.12230469 28.18445313 2.74460938 28.74390625 2.35546875 29.3203125 C0.14338521 32.54341703 -2.20586306 35.27812522 -5 38 C-5.495 38.86625 -5.99 39.7325 -6.5 40.625 C-8 43 -8 43 -10.125 44 C-10.434375 44.165 -10.434375 44.165 -12 45 C-12.165 45.825 -12.33 46.65 -12.5 47.5 C-12.665 48.325 -12.83 49.15 -13 50 C-14.32467746 50.6837045 -15.65863633 51.34964186 -17 52 C-17.72159424 53.64363134 -18.39351421 55.31050386 -19 57 C-19.33 57.165 -19.33 57.165 -21 58 C-21.37125 58.825 -21.7425 59.65 -22.125 60.5 C-24 63 -24 63 -27.8125 63.9375 C-31.60694842 64.17508977 -34.5535403 63.72322985 -38 62 C-38.33 61.319375 -38.66 60.63875 -39 59.9375 C-39.165 59.6178125 -39.165 59.6178125 -40 58 C-41.99883869 57.65977214 -43.99890722 57.32670903 -46 57 C-47.625 55 -47.625 55 -49 53 C-51.1875 52.25 -51.1875 52.25 -53 52 C-53.9765625 45.9453125 -53.9765625 45.9453125 -54 44 C-53.34 43.34 -52.68 42.68 -52 42 C-49.69 42.99 -47.38 43.98 -45 45 C-45 45.66 -45 46.32 -45 47 C-43.35 47.66 -41.7 48.32 -40 49 C-40 49.66 -40 50.32 -40 51 C-39.525625 50.9896875 -39.525625 50.9896875 -37.125 50.9375 C-34 51 -34 51 -32 52 C-32 53.32 -32 54.64 -32 56 C-31.34 55.835 -31.34 55.835 -28 55 C-27.9175 54.46375 -27.835 53.9275 -27.75 53.375 C-26.31336853 48.82566703 -23.94205113 45.62803409 -20 43 C-19.566875 42.175 -19.13375 41.35 -18.6875 40.5 C-16.52930013 37.30266685 -14.66838645 36.89671669 -11 36 C-11.33 37.32 -11.66 38.64 -12 40 C-11.34 40 -10.68 40 -10 40 C-9.835 38.35 -9.835 38.35 -9 30 C-7.68 30 -6.36 30 -5 30 C-5 28.02 -5 26.04 -5 24 C-3.35 23.34 -1.7 22.68 0 22 C0 20.68 0 19.36 0 18 C0.61875 17.54625 1.2375 17.0925 1.875 16.625 C4.73040099 14.44145807 5.09198671 12.42251162 6 9 C6.2475 8.2575 6.495 7.515 6.75 6.75 C6.8325 6.1725 6.915 5.595 7 5 C4.64046906 2.64046906 3.22104383 2.50858587 0 2 C0 1.34 0 0.68 0 0 Z " fill="#664413" transform="translate(71,21)" />
<path d="M0 0 C2.01920337 1.30406884 4.01924973 2.63823419 6 4 C7.0725 4.33 8.145 4.66 9.25 5 C12 6 12 6 13.375 8.125 C13.58125 8.74375 13.7875 9.3625 14 10 C13.67 10.495 13.67 10.495 12 13 C11.29835358 14.98799818 10.62627128 16.98698517 10 19 C9.67 19 9.34 19 9 19 C8.835 18.175 8.835 18.175 8 14 C7.175 13.835 7.175 13.835 3 13 C3 14.98 3 16.96 3 19 C-3.12703593 20.18241044 -6.56183185 20.21850768 -12 17 C-13.1875 15.125 -13.1875 15.125 -13 13 C-11.0625 10.25 -11.0625 10.25 -9 8 C-10.65 7.67 -12.3 7.34 -14 7 C-13.01 6.67 -12.02 6.34 -11 6 C-10.9278125 5.690625 -10.9278125 5.690625 -10.5625 4.125 C-10 2 -10 2 -8.3125 0.1875 C-5.06796585 -1.47861213 -3.46580021 -1.03974006 0 0 Z " fill="#DBB45F" transform="translate(65,18)" />
<path d="M0 0 C0.928125 0.20625 1.85625 0.4125 2.8125 0.625 C2.503125 1.2025 2.19375 1.78 1.875 2.375 C0.88666636 4.46794184 0.2956387 6.37035275 -0.1875 8.625 C5.17689644 11.30719822 8.82256953 11.9402595 14.8125 11.625 C14.8125 9.645 14.8125 7.665 14.8125 5.625 C16.47861905 5.582279 18.14632885 5.58436168 19.8125 5.625 C20.8125 6.625 20.8125 6.625 20.875 9.6875 C20.854375 10.656875 20.83375 11.62625 20.8125 12.625 C18.8325 12.955 16.8525 13.285 14.8125 13.625 C14.4825 15.275 14.1525 16.925 13.8125 18.625 C13.049375 18.46 12.28625 18.295 11.5 18.125 C8.8125 17.625 8.8125 17.625 5.8125 17.625 C3.47685067 17.30830179 1.1431218 16.97679197 -1.1875 16.625 C-1.8475 17.615 -2.5075 18.605 -3.1875 19.625 C-6.1875 20 -6.1875 20 -9.1875 19.625 C-9.8475 18.635 -10.5075 17.645 -11.1875 16.625 C-12.8375 17.285 -14.4875 17.945 -16.1875 18.625 C-16.1875 19.285 -16.1875 19.945 -16.1875 20.625 C-17.5075 20.625 -18.8275 20.625 -20.1875 20.625 C-20.1875 18.975 -20.1875 17.325 -20.1875 15.625 C-19.07375 15.0475 -17.96 14.47 -16.8125 13.875 C-13.71972497 12.13337719 -12.64591173 10.87838001 -11.1875 7.625 C-9.0625 6.875 -9.0625 6.875 -7.1875 6.625 C-7.084375 5.84125 -6.98125 5.0575 -6.875 4.25 C-5.79554967 0.12846237 -4.09660421 -0.48195344 0 0 Z " fill="#E4AF5C" transform="translate(53.1875,25.375)" />
<path d="M0 0 C1.65 0 3.3 0 5 0 C4.67 0.165 4.67 0.165 3 1 C3 1.66 3 2.32 3 3 C3.66 3.33 4.32 3.66 5 4 C3.35 4.66 1.7 5.32 0 6 C0.9570344 10.88087546 1.98555898 13.97927997 6.140625 17.13671875 C9.12462531 18.52214746 11.91487778 18.31615641 15.14453125 18.078125 C15.75683594 18.05234375 16.36914062 18.0265625 17 18 C18 19 18 19 18.25 21.25 C17.94455527 24.60989203 17.06401783 26.34626278 15 29 C12.8125 29.8125 12.8125 29.8125 11 30 C11 28.68 11 27.36 11 26 C9.741875 25.896875 8.48375 25.79375 7.1875 25.6875 C3.25892857 25.19642857 3.25892857 25.19642857 1.1875 23.625 C0.795625 23.08875 0.40375 22.5525 0 22 C-2.13498836 19.43801397 -3.35568877 18.86508357 -6.625 17.625 C-7.73875 17.08875 -8.8525 16.5525 -10 16 C-10.9375 13.3125 -10.9375 13.3125 -11 11 C-9.35 10.67 -7.7 10.34 -6 10 C-5.67 8.35 -5.34 6.7 -5 5 C-3.68 5 -2.36 5 -1 5 C-0.67 3.35 -0.34 1.7 0 0 Z " fill="#DEB460" transform="translate(28,47)" />
<path d="M0 0 C3.1875 0 3.1875 0 7 1 C10.13435902 4.25073374 11.76738367 7.70768707 12.5625 12.125 C11.84074439 15.81397313 10.14359866 17.91321793 8 21 C7.2678125 22.08539063 6.535625 23.17078125 5.78125 24.2890625 C5.02139593 25.40142619 4.26097606 26.51340357 3.5 27.625 C3.12230469 28.18445313 2.74460937 28.74390625 2.35546875 29.3203125 C0.14338521 32.54341703 -2.20586306 35.27812522 -5 38 C-5.495 38.86625 -5.99 39.7325 -6.5 40.625 C-8.12091405 43.19144725 -9.2078263 43.94089963 -12 45 C-12 45.99 -12 46.98 -12 48 C-12.66 48 -13.32 48 -14 48 C-14 46.35 -14 44.7 -14 43 C-13.505 42.835 -13.505 42.835 -11 42 C-10.34 38.04 -9.68 34.08 -9 30 C-7.68 30 -6.36 30 -5 30 C-5 28.02 -5 26.04 -5 24 C-3.35 23.34 -1.7 22.68 0 22 C0 20.68 0 19.36 0 18 C0.309375 17.773125 0.309375 17.773125 1.875 16.625 C4.73040099 14.44145807 5.09198671 12.42251162 6 9 C6.2475 8.2575 6.495 7.515 6.75 6.75 C6.8325 6.1725 6.915 5.595 7 5 C4.64046906 2.64046906 3.22104383 2.50858587 0 2 C0 1.34 0 0.68 0 0 Z " fill="#65400E" transform="translate(71,21)" />
<path d="M0 0 C2.64 0.99 5.28 1.98 8 3 C8 3.66 8 4.32 8 5 C8.825 5.33 8.825 5.33 13 7 C13 7.66 13 8.32 13 9 C13.474375 8.9896875 13.474375 8.9896875 15.875 8.9375 C19 9 19 9 21 10 C21 11.32 21 12.64 21 14 C22.32 13.67 23.64 13.34 25 13 C25.33 11.68 25.66 10.36 26 9 C26.33 9 26.66 9 27 9 C27.33 11.97 27.66 14.94 28 18 C26.68 18 25.36 18 24 18 C24 17.34 24 16.68 24 16 C23.34 15.67 22.68 15.34 22 15 C22 16.32 22 17.64 22 19 C19.6875 19.1875 19.6875 19.1875 17 19 C15.5 17.625 15.5 17.625 14 16 C13.13375 15.67 12.2675 15.34 11.375 15 C10.983125 14.835 10.983125 14.835 9 14 C8.67 13.01 8.34 12.02 8 11 C7.34 11 6.68 11 6 11 C5.67 10.34 5.34 9.68 5 9 C2.4375 8.375 2.4375 8.375 0 8 C-1.125 2.25 -1.125 2.25 0 0 Z " fill="#A98233" transform="translate(18,63)" />
<path d="M0 0 C0.66 0.33 1.32 0.66 2 1 C2 1.99 2 2.98 2 4 C1.34 4 0.68 4 0 4 C0 4.66 0 5.32 0 6 C-0.99 6 -1.98 6 -3 6 C-2.835 6.680625 -2.67 7.36125 -2.5 8.0625 C-1.04845815 16.59030837 -1.04845815 16.59030837 -3.6875 20.5 C-6 22 -6 22 -8.5625 22 C-11.52626684 20.78409566 -12.50905836 19.82494206 -14 17 C-14.375 14.4375 -14.375 14.4375 -14 12 C-12.5 10.3125 -12.5 10.3125 -11 9 C-11 8.34 -11 7.68 -11 7 C-11.66 6.34 -12.32 5.68 -13 5 C-12.01 5 -11.02 5 -10 5 C-9.67 4.01 -9.34 3.02 -9 2 C-9 2.99 -9 3.98 -9 5 C-7.68 5 -6.36 5 -5 5 C-5 4.34 -5 3.68 -5 3 C-2.625 1.3125 -2.625 1.3125 0 0 Z " fill="#AA4216" transform="translate(42,41)" />
<path d="M0 0 C4.41355564 0.28474553 6.94532123 1.32525938 10.875 3.25 C10.875 3.91 10.875 4.57 10.875 5.25 C10.17375 5.105625 9.4725 4.96125 8.75 4.8125 C8.275625 4.7196875 8.275625 4.7196875 5.875 4.25 C5.3696875 4.12625 5.3696875 4.12625 2.8125 3.5 C-0.125 3.25 -0.125 3.25 -2.4375 4.5 C-4.125 6.25 -4.125 6.25 -5.125 9.25 C-6.094375 9.70375 -7.06375 10.1575 -8.0625 10.625 C-11.67443993 12.54153956 -11.77285823 13.57990091 -13.125 17.25 C-14.45833333 17.58333333 -15.79166667 17.91666667 -17.125 18.25 C-17.434375 19.03375 -17.74375 19.8175 -18.0625 20.625 C-19.41585532 23.96858372 -20.92360715 24.7293384 -24.125 26.25 C-24.785 26.25 -25.445 26.25 -26.125 26.25 C-26.2075 27.03375 -26.29 27.8175 -26.375 28.625 C-26.49875 29.058125 -26.49875 29.058125 -27.125 31.25 C-28.44147119 31.94937532 -29.77522151 32.61729133 -31.125 33.25 C-31.875 35.375 -31.875 35.375 -32.125 37.25 C-32.785 37.415 -32.785 37.415 -36.125 38.25 C-36.455 39.57 -36.785 40.89 -37.125 42.25 C-37.95 42.415 -37.95 42.415 -42.125 43.25 C-41.795 42.26 -41.465 41.27 -41.125 40.25 C-40.135 40.25 -39.145 40.25 -38.125 40.25 C-38.0734375 39.9303125 -38.0734375 39.9303125 -37.8125 38.3125 C-37.585625 37.631875 -37.35875 36.95125 -37.125 36.25 C-36.63 36.085 -36.63 36.085 -34.125 35.25 C-33.815625 34.59 -33.50625 33.93 -33.1875 33.25 C-32.125 31.25 -32.125 31.25 -30 30.5 C-29.690625 30.45875 -29.690625 30.45875 -28.125 30.25 C-28.00125 29.486875 -27.8775 28.72375 -27.75 27.9375 C-27.125 25.25 -27.125 25.25 -25.125 22.25 C-24.135 22.12625 -23.145 22.0025 -22.125 21.875 C-21.135 21.66875 -20.145 21.4625 -19.125 21.25 C-17.875 18.75 -17.875 18.75 -17.125 16.25 C-16.465 15.92 -15.805 15.59 -15.125 15.25 C-14.83625 14.3425 -14.5475 13.435 -14.25 12.5 C-12.30553088 6.88264475 -9.27927975 4.03609716 -4.125 1.25 C-3.125 0.25 -3.125 0.25 0 0 Z " fill="#654916" transform="translate(59.125,14.75)" />
<path d="M0 0 C1.58746472 0.24546059 3.17270283 0.50847898 4.75 0.8125 C4.75 1.4725 4.75 2.1325 4.75 2.8125 C5.41 2.8125 6.07 2.8125 6.75 2.8125 C6.75 5.4525 6.75 8.0925 6.75 10.8125 C0.62296407 11.99491044 -2.81183185 12.03100768 -8.25 8.8125 C-9.4375 6.9375 -9.4375 6.9375 -9.25 4.8125 C-7.00428203 0.00024722 -4.98355864 -0.50895918 0 0 Z " fill="#B25824" transform="translate(61.25,26.1875)" />
<path d="M0 0 C1.65 0 3.3 0 5 0 C4.67 0.165 4.67 0.165 3 1 C3 1.66 3 2.32 3 3 C3.66 3.33 4.32 3.66 5 4 C3.35 4.66 1.7 5.32 0 6 C1.875 12.75 1.875 12.75 3 15 C-0.33793869 16.98686827 -2.32045959 18.03920425 -6.25 17.8125 C-9 17 -9 17 -11 15 C-10.625 12.375 -10.625 12.375 -10 10 C-8.68 10 -7.36 10 -6 10 C-5.67 8.35 -5.34 6.7 -5 5 C-3.68 5 -2.36 5 -1 5 C-0.67 3.35 -0.34 1.7 0 0 Z " fill="#E7BE76" transform="translate(28,47)" />
<path d="M0 0 C0.4021875 0.0103125 0.4021875 0.0103125 2.4375 0.0625 C2.1075 1.3825 1.7775 2.7025 1.4375 4.0625 C0.7775 4.0625 0.1175 4.0625 -0.5625 4.0625 C-0.500625 4.825625 -0.43875 5.58875 -0.375 6.375 C-0.5625 9.0625 -0.5625 9.0625 -1.75 10.875 C-4.21157776 12.48775784 -5.67315736 12.4959014 -8.5625 12.0625 C-10.4375 10.8125 -10.4375 10.8125 -11.5625 9.0625 C-11.25 6.875 -11.25 6.875 -10.5625 5.0625 C-11.5525 4.7325 -12.5425 4.4025 -13.5625 4.0625 C-13.2325 3.0725 -12.9025 2.0825 -12.5625 1.0625 C-12.5625 1.7225 -12.5625 2.3825 -12.5625 3.0625 C-11.9025 3.0625 -11.2425 3.0625 -10.5625 3.0625 C-10.2325 2.4025 -9.9025 1.7425 -9.5625 1.0625 C-9.0778125 1.0728125 -9.0778125 1.0728125 -6.625 1.125 C-3.22707532 1.0556546 -3.2165483 0.0784524 0 0 Z " fill="#DFB569" transform="translate(61.5625,45.9375)" />
<path d="M0 0 C0.99 0 1.98 0 3 0 C3.061875 0.78375 3.12375 1.5675 3.1875 2.375 C3.455625 3.24125 3.72375 4.1075 4 5 C6.5625 6.3125 6.5625 6.3125 9 7 C8.401875 7.391875 7.80375 7.78375 7.1875 8.1875 C5 10 5 10 3.5 12.5625 C1.88258038 15.19080689 0.83407359 15.92500657 -2 17 C-2.33 16.34 -2.66 15.68 -3 15 C-6.3 15 -9.6 15 -13 15 C-13.33 14.01 -13.66 13.02 -14 12 C-13.05125 12.020625 -12.1025 12.04125 -11.125 12.0625 C-8 12 -8 12 -6 11 C-5.67 10.01 -5.34 9.02 -5 8 C-1.9375 6.8125 -1.9375 6.8125 1 6 C0.67 4.02 0.34 2.04 0 0 Z " fill="#D1A246" transform="translate(48,51)" />
<path d="M0 0 C0.33 1.32 0.66 2.64 1 4 C1.9075 3.649375 2.815 3.29875 3.75 2.9375 C6.87758436 2.03531221 8.05208081 1.86618493 11 3 C10.125 7.75 10.125 7.75 9 10 C6.125 10.1875 6.125 10.1875 3 10 C2.34 9.01 1.68 8.02 1 7 C-0.65 7.66 -2.3 8.32 -4 9 C-4 9.66 -4 10.32 -4 11 C-5.32 11 -6.64 11 -8 11 C-8 9.35 -8 7.7 -8 6 C-6.20963542 5.0234375 -4.41927083 4.046875 -2.62890625 3.0703125 C-1 2 -1 2 0 0 Z " fill="#D3AA57" transform="translate(41,35)" />
<path d="M0 0 C0.99 0.33 1.98 0.66 3 1 C2.34 1 1.68 1 1 1 C1 2.32 1 3.64 1 5 C-0.65 5.66 -2.3 6.32 -4 7 C-4 8.98 -4 10.96 -4 13 C-5.32 13 -6.64 13 -8 13 C-8.33 14.32 -8.66 15.64 -9 17 C-9 15.35 -9 13.7 -9 12 C-8.34 12 -7.68 12 -7 12 C-7.33 11.01 -7.66 10.02 -8 9 C-9.65 9 -11.3 9 -13 9 C-13 8.34 -13 7.68 -13 7 C-13.99 6.835 -13.99 6.835 -19 6 C-19.33 6.66 -19.66 7.32 -20 8 C-19.67 6.68 -19.34 5.36 -19 4 C-16.08517222 3.19032562 -14.53886783 2.78154007 -11.6875 3.9375 C-11.130625 4.288125 -10.57375 4.63875 -10 5 C-9.34 4.34 -8.68 3.68 -8 3 C-7.67 3.66 -7.34 4.32 -7 5 C-5.68 5 -4.36 5 -3 5 C-2.87625 4.360625 -2.7525 3.72125 -2.625 3.0625 C-2.521875 2.7221875 -2.521875 2.7221875 -2 1 C-1.34 0.67 -0.68 0.34 0 0 Z M-11 17 C-10.34 17 -9.68 17 -9 17 C-9 18.98 -9 20.96 -9 23 C-9.66 23 -10.32 23 -11 23 C-10.67 21.68 -10.34 20.36 -10 19 C-10.66 18.67 -11.32 18.34 -12 18 C-11.67 17.67 -11.34 17.34 -11 17 Z " fill="#C09546" transform="translate(70,38)" />
<path d="M0 0 C0.33 0 0.66 0 1 0 C1.33 2.97 1.66 5.94 2 9 C0.68 9 -0.64 9 -2 9 C-2 8.34 -2 7.68 -2 7 C-2.66 6.67 -3.32 6.34 -4 6 C-4 7.32 -4 8.64 -4 10 C-6.3125 10.1875 -6.3125 10.1875 -9 10 C-10.5625 8.625 -10.5625 8.625 -12 7 C-14.1875 5.8125 -14.1875 5.8125 -16 5 C-15.01 5 -14.02 5 -13 5 C-12.67 4.01 -12.34 3.02 -12 2 C-9.69 2 -7.38 2 -5 2 C-5 2.99 -5 3.98 -5 5 C-3.68 4.67 -2.36 4.34 -1 4 C-0.67 2.68 -0.34 1.36 0 0 Z " fill="#9B6E20" transform="translate(44,72)" />
<path d="M0 0 C2.02416481 3.03624721 2.91619066 4.39619823 3 8 C0.625 11.125 0.625 11.125 -2 14 C-2.33 14.99 -2.66 15.98 -3 17 C-4.32 16.67 -5.64 16.34 -7 16 C-7.33 14.68 -7.66 13.36 -8 12 C-7.38125 11.62875 -6.7625 11.2575 -6.125 10.875 C-3.42984142 8.4969189 -2.99393953 6.40779266 -2 3 C-1.34 2.01 -0.68 1.02 0 0 Z " fill="#936319" transform="translate(79,27)" />
<path d="M0 0 C0.66 0.33 1.32 0.66 2 1 C2 1.99 2 2.98 2 4 C1.34 4 0.68 4 0 4 C0 4.66 0 5.32 0 6 C-0.99 6 -1.98 6 -3 6 C-3 7.65 -3 9.3 -3 11 C-5.64 11 -8.28 11 -11 11 C-11 9.68 -11 8.36 -11 7 C-11.66 6.34 -12.32 5.68 -13 5 C-12.01 5 -11.02 5 -10 5 C-9.67 4.01 -9.34 3.02 -9 2 C-9 2.99 -9 3.98 -9 5 C-7.68 5 -6.36 5 -5 5 C-5 4.34 -5 3.68 -5 3 C-2.625 1.3125 -2.625 1.3125 0 0 Z " fill="#BA873B" transform="translate(42,41)" />
<path d="M0 0 C-0.33 1.32 -0.66 2.64 -1 4 C-0.34 4 0.32 4 1 4 C0.67 4.99 0.34 5.98 0 7 C-0.99 7 -1.98 7 -3 7 C-3 8.65 -3 10.3 -3 12 C-6.26954202 11.43628586 -7.82575883 10.50037734 -10 8 C-5.13043478 0 -5.13043478 0 0 0 Z " fill="#A0701B" transform="translate(60,57)" />
<path d="M0 0 C2.3125 -0.1875 2.3125 -0.1875 5 0 C6.66796875 1.51171875 6.66796875 1.51171875 8 3 C7.55123384 4.64846769 7.09069512 6.29373455 6.625 7.9375 C6.36976562 8.85402344 6.11453125 9.77054688 5.8515625 10.71484375 C5 13 5 13 3 14 C2.67 12.35 2.34 10.7 2 9 C0.35 8.67 -1.3 8.34 -3 8 C-3 7.34 -3 6.68 -3 6 C-3.66 5.67 -4.32 5.34 -5 5 C-3.54176788 4.9729957 -2.08339325 4.95360213 -0.625 4.9375 C0.18710938 4.92589844 0.99921875 4.91429687 1.8359375 4.90234375 C4 5 4 5 6 6 C6 5.34 6 4.68 6 4 C4.35 3.67 2.7 3.34 1 3 C0.67 2.01 0.34 1.02 0 0 Z " fill="#C7A04A" transform="translate(71,23)" />
<path d="M0 0 C4.41355564 0.28474553 6.94532123 1.32525938 10.875 3.25 C10.875 3.91 10.875 4.57 10.875 5.25 C10.17375 5.105625 9.4725 4.96125 8.75 4.8125 C7.80125 4.626875 6.8525 4.44125 5.875 4.25 C5.38 4.1365625 5.38 4.1365625 2.875 3.5625 C-0.50164349 3.2107663 -2.19242776 3.57424444 -5.125 5.25 C-5.455 6.24 -5.785 7.23 -6.125 8.25 C-9.1875 9.4375 -9.1875 9.4375 -12.125 10.25 C-12.455 9.59 -12.785 8.93 -13.125 8.25 C-10.36400384 5.28448561 -7.64306824 3.24674143 -4.125 1.25 C-3.125 0.25 -3.125 0.25 0 0 Z " fill="#77623C" transform="translate(59.125,14.75)" />
<path d="M0 0 C0.33 0.99 0.66 1.98 1 3 C-0.61594832 5.04119788 -2.2856382 7.04072937 -4 9 C-4.33 9.99 -4.66 10.98 -5 12 C-5.66 12 -6.32 12 -7 12 C-7 12.66 -7 13.32 -7 14 C-7.66 14 -8.32 14 -9 14 C-9.061875 14.7425 -9.12375 15.485 -9.1875 16.25 C-10.25841636 19.87464 -11.8291869 21.0371157 -15 23 C-15.99 22.67 -16.98 22.34 -18 22 C-17.360625 21.401875 -16.72125 20.80375 -16.0625 20.1875 C-14 18 -14 18 -13 15 C-12.195625 14.360625 -11.39125 13.72125 -10.5625 13.0625 C-8.02772755 11.02231729 -7.29583222 9.86934277 -6 7 C-5.02149805 5.97895449 -4.02019573 4.9793879 -3 4 C-1.98199424 2.68036291 -0.97751635 1.34990354 0 0 Z " fill="#775F3F" transform="translate(72,51)" />
<path d="M0 0 C2.31 0.66 4.62 1.32 7 2 C6.67 3.32 6.34 4.64 6 6 C6.66 6.33 7.32 6.66 8 7 C8 8.32 8 9.64 8 11 C7.34 11 6.68 11 6 11 C5.67 10.34 5.34 9.68 5 9 C2.4375 8.375 2.4375 8.375 0 8 C-1.125 2.25 -1.125 2.25 0 0 Z " fill="#9D782C" transform="translate(18,63)" />
<path d="M0 0 C2 3 2 3 2 5 C2.66 5.33 3.32 5.66 4 6 C4 5.34 4 4.68 4 4 C4.66 4 5.32 4 6 4 C6 3.34 6 2.68 6 2 C6.66 2 7.32 2 8 2 C8 1.34 8 0.68 8 0 C11 1 11 1 12.1875 3.0625 C12.455625 3.701875 12.72375 4.34125 13 5 C9.66206131 6.98686827 7.67954041 8.03920425 3.75 7.8125 C1 7 1 7 -1 5 C-0.625 2.375 -0.625 2.375 0 0 Z " fill="#D8B168" transform="translate(18,57)" />
<path d="M0 0 C0.99 0.165 0.99 0.165 6 1 C6 2.32 6 3.64 6 5 C4.68 5.33 3.36 5.66 2 6 C1.67 7.32 1.34 8.64 1 10 C-0.98 10.33 -2.96 10.66 -5 11 C-4.34 9.68 -3.68 8.36 -3 7 C-2.01 7 -1.02 7 0 7 C0 4.69 0 2.38 0 0 Z " fill="#DFB76C" transform="translate(41,53)" />
<path d="M0 0 C1.65 0 3.3 0 5 0 C5.33 0.99 5.66 1.98 6 3 C6.66 3 7.32 3 8 3 C8.33 3.495 8.33 3.495 10 6 C11.66072849 6.68132451 13.327767 7.34742127 15 8 C15.433125 8.495 15.86625 8.99 16.3125 9.5 C19.08986918 11.9687726 22.40783383 12.23445639 26 13 C26 13.33 26 13.66 26 14 C24.39482903 13.91266424 22.79078338 13.80447776 21.1875 13.6875 C20.74083984 13.65849609 20.74083984 13.65849609 18.48046875 13.51171875 C15.67328075 12.93259808 14.69302154 12.2779858 13 10 C13 9.34 13 8.68 13 8 C12.071875 7.9175 11.14375 7.835 10.1875 7.75 C6.45130904 6.87089624 6.08519578 6.03301205 4 3 C1.8125 2.25 1.8125 2.25 0 2 C0 1.34 0 0.68 0 0 Z " fill="#624512" transform="translate(18,71)" />
<path d="M0 0 C0.99 0 1.98 0 3 0 C3.061875 0.78375 3.12375 1.5675 3.1875 2.375 C3.455625 3.24125 3.72375 4.1075 4 5 C6.5625 6.3125 6.5625 6.3125 9 7 C5.86501708 8.85776765 3.62528568 9.20140476 0 9 C-0.33 9.66 -0.66 10.32 -1 11 C-1.66 10.67 -2.32 10.34 -3 10 C-3 10.99 -3 11.98 -3 13 C-3.66 12.67 -4.32 12.34 -5 12 C-4.25 9.5625 -4.25 9.5625 -3 7 C-0.875 6.1875 -0.875 6.1875 1 6 C0.67 4.02 0.34 2.04 0 0 Z " fill="#B58A32" transform="translate(48,51)" />
<path d="M0 0 C0.928125 0.20625 1.85625 0.4125 2.8125 0.625 C1.66076645 3.09300047 0.76466435 4.67283565 -1.1875 6.625 C-3.8125 6.75 -3.8125 6.75 -6.1875 6.625 C-6.375 4.25 -6.375 4.25 -6.1875 1.625 C-3.1875 -0.375 -3.1875 -0.375 0 0 Z " fill="#E4C27D" transform="translate(53.1875,25.375)" />
<path d="M0 0 C0.33 1.98 0.66 3.96 1 6 C-1.3125 6.6875 -1.3125 6.6875 -4 7 C-5.8125 5.5625 -5.8125 5.5625 -7 4 C-6.67 3.01 -6.34 2.02 -6 1 C-4 0 -4 0 0 0 Z " fill="#F1C771" transform="translate(32,62)" />
<path d="M0 0 C2.14568283 1.68589365 2.21857648 2.77102475 2.75 5.375 C1.29176788 5.4020043 -0.16660675 5.42139787 -1.625 5.4375 C-2.43710937 5.44910156 -3.24921875 5.46070313 -4.0859375 5.47265625 C-6.25 5.375 -6.25 5.375 -8.25 4.375 C-7.25 1.375 -7.25 1.375 -4.9375 0.0625 C-2.25 -0.625 -2.25 -0.625 0 0 Z " fill="#D96447" transform="translate(62.25,29.625)" />
<path d="M0 0 C0.66 0 1.32 0 2 0 C2.33 1.32 2.66 2.64 3 4 C4.65 4.33 6.3 4.66 8 5 C8 5.66 8 6.32 8 7 C4.37 6.67 0.74 6.34 -3 6 C-3.33 4.68 -3.66 3.36 -4 2 C-2.68 2 -1.36 2 0 2 C0 1.34 0 0.68 0 0 Z " fill="#F0C180" transform="translate(69,22)" />
<path d="M0 0 C4.87362847 0.45336079 7.39042389 1.7089159 11 5 C10.67 5.66 10.34 6.32 10 7 C8.35 7 6.7 7 5 7 C5 6.01 5 5.02 5 4 C3.35 4 1.7 4 0 4 C0 2.68 0 1.36 0 0 Z " fill="#D1AF60" transform="translate(59,17)" />
<path d="M0 0 C2.31 0 4.62 0 7 0 C7 0.99 7 1.98 7 3 C7.66 3.33 8.32 3.66 9 4 C6 6 6 6 3.3125 5.625 C2.549375 5.41875 1.78625 5.2125 1 5 C0.67 3.35 0.34 1.7 0 0 Z " fill="#F2CE8A" transform="translate(35,67)" />
<path d="M0 0 C0.66 0 1.32 0 2 0 C2.70173653 4.38585329 3.10834375 8.55790643 3 13 C1.68 12.67 0.36 12.34 -1 12 C-1.02687279 10.18757948 -1.04633715 8.37504767 -1.0625 6.5625 C-1.07410156 5.55316406 -1.08570313 4.54382812 -1.09765625 3.50390625 C-1 1 -1 1 0 0 Z " fill="#6B5529" transform="translate(15,58)" />
<path d="M0 0 C1.32 0 2.64 0 4 0 C4 0.66 4 1.32 4 2 C4.66 2.33 5.32 2.66 6 3 C5.773125 3.20625 5.773125 3.20625 4.625 4.25 C2.94049626 6.06408095 2.00734029 7.75285627 1 10 C0.34 10 -0.32 10 -1 10 C-0.67 6.7 -0.34 3.4 0 0 Z " fill="#8C5D16" transform="translate(62,51)" />
<path d="M0 0 C0.825 0.33 0.825 0.33 5 2 C5 3.65 5 5.3 5 7 C3.35 7.33 1.7 7.66 0 8 C0 7.01 0 6.02 0 5 C-0.66 4.67 -1.32 4.34 -2 4 C-1.34 2.68 -0.68 1.36 0 0 Z " fill="#98651C" transform="translate(47,67)" />
<path d="M0 0 C1.65 0 3.3 0 5 0 C4.67 0.165 4.67 0.165 3 1 C3 1.66 3 2.32 3 3 C3.66 3.33 4.32 3.66 5 4 C4.195625 4.268125 3.39125 4.53625 2.5625 4.8125 C1.716875 5.204375 0.87125 5.59625 0 6 C-0.33 6.99 -0.66 7.98 -1 9 C-1.99 9 -2.98 9 -4 9 C-4.33 7.68 -4.66 6.36 -5 5 C-3.68 5 -2.36 5 -1 5 C-0.67 3.35 -0.34 1.7 0 0 Z " fill="#E0B067" transform="translate(28,47)" />
<path d="M0 0 C1.4783226 2.95664519 1.06032783 5.74229737 1 9 C0.34 9 -0.32 9 -1 9 C-1.33 7.35 -1.66 5.7 -2 4 C-2.99 3.67 -3.98 3.34 -5 3 C-6.34090759 2.34870203 -7.67592331 1.68486725 -9 1 C-6.04335481 -0.4783226 -3.25770263 -0.06032783 0 0 Z " fill="#A73D10" transform="translate(66,27)" />
<path d="M0 0 C2.125 0.375 2.125 0.375 4 1 C3.47731534 3.76276177 2.89130413 6.3260876 2 9 C1.01 9 0.02 9 -1 9 C-1.625 5.625 -1.625 5.625 -2 2 C-1.34 1.34 -0.68 0.68 0 0 Z " fill="#EDC47E" transform="translate(54,49)" />
<path d="M0 0 C3 1 3 1 5 3 C4.34 3.33 4.34 3.33 1 5 C1 5.66 1 6.32 1 7 C-0.32 7 -1.64 7 -3 7 C-3.1875 4.625 -3.1875 4.625 -3 2 C-2.01 1.34 -1.02 0.68 0 0 Z " fill="#D9B673" transform="translate(36,39)" />
<path d="M0 0 C2.33944736 0.28730055 4.6739143 0.61936779 7 1 C7.33 2.32 7.66 3.64 8 5 C7.01 5.33 6.02 5.66 5 6 C5 5.34 5 4.68 5 4 C4.01 3.835 4.01 3.835 -1 3 C-1.33 3.66 -1.66 4.32 -2 5 C-1.125 1.125 -1.125 1.125 0 0 Z " fill="#A54813" transform="translate(52,41)" />
<path d="M0 0 C-0.33 1.32 -0.66 2.64 -1 4 C-0.34 4 0.32 4 1 4 C0.67 4.99 0.34 5.98 0 7 C-0.99 7 -1.98 7 -3 7 C-3 8.65 -3 10.3 -3 12 C-3.33 12 -3.66 12 -4 12 C-3.93489583 9.98177083 -3.86979167 7.96354167 -3.8046875 5.9453125 C-4 4 -4 4 -6 2 C-2.25 0 -2.25 0 0 0 Z " fill="#8E5F15" transform="translate(60,57)" />
<path d="M0 0 C0.33 0.99 0.66 1.98 1 3 C2.65 3 4.3 3 6 3 C6.66 4.32 7.32 5.64 8 7 C6.68 7 5.36 7 4 7 C4 6.34 4 5.68 4 5 C3.05125 5.20625 2.1025 5.4125 1.125 5.625 C0.09375 5.74875 -0.9375 5.8725 -2 6 C-2.66 5.34 -3.32 4.68 -4 4 C-2.68 3.67 -1.36 3.34 0 3 C0 2.01 0 1.02 0 0 Z " fill="#CD984F" transform="translate(46,29)" />
<path d="M0 0 C0.33 0 0.66 0 1 0 C1.36372697 4.24348127 0.62334906 6.62712264 -2 10 C-4.1875 10.8125 -4.1875 10.8125 -6 11 C-6 9.68 -6 8.36 -6 7 C-4.69855198 5.95884159 -3.36161311 4.96113866 -2 4 C-0.75 1.8125 -0.75 1.8125 0 0 Z " fill="#D4AC5F" transform="translate(45,66)" />
<path d="M0 0 C1.65 0 3.3 0 5 0 C6 3 6 3 5 6 C3.35 5.67 1.7 5.34 0 5 C0 3.35 0 1.7 0 0 Z " fill="#EFC97A" transform="translate(68,31)" />
<path d="M0 0 C0.33 0.66 0.66 1.32 1 2 C3.0625 3.125 3.0625 3.125 5 4 C4.34 4 3.68 4 3 4 C3.33 4.495 3.33 4.495 5 7 C4.67 7.99 4.34 8.98 4 10 C3.01 9.67 2.02 9.34 1 9 C1 7.35 1 5.7 1 4 C0.01 3.67 -0.98 3.34 -2 3 C-1.34 2.01 -0.68 1.02 0 0 Z " fill="#C19643" transform="translate(25,66)" />
<path d="M0 0 C0.825 0.33 0.825 0.33 5 2 C5 3.32 5 4.64 5 6 C3.35 5.67 1.7 5.34 0 5 C-0.5625 3.0625 -0.5625 3.0625 -1 1 C-0.67 0.67 -0.34 0.34 0 0 Z " fill="#E58263" transform="translate(31,55)" />
<path d="M0 0 C0.99 0.33 1.98 0.66 3 1 C3 2.65 3 4.3 3 6 C2.01 6.33 1.02 6.66 0 7 C0 5.68 0 4.36 0 3 C-0.66 3 -1.32 3 -2 3 C-2 4.65 -2 6.3 -2 8 C-2.33 8 -2.66 8 -3 8 C-3.1875 5.125 -3.1875 5.125 -3 2 C-2.01 1.34 -1.02 0.68 0 0 Z " fill="#865612" transform="translate(69,43)" />
<path d="M0 0 C2.31 0 4.62 0 7 0 C7 1.32 7 2.64 7 4 C4.69 4 2.38 4 0 4 C0 2.68 0 1.36 0 0 Z " fill="#F2BE76" transform="translate(52,37)" />
<path d="M0 0 C0.33 0 0.66 0 1 0 C1 2.64 1 5.28 1 8 C-6.625 9.25 -6.625 9.25 -10 7 C-7.26094655 5.63047327 -5.02912668 5.87378639 -2 6 C-1.34 6.33 -0.68 6.66 0 7 C0 4.69 0 2.38 0 0 Z " fill="#BE6627" transform="translate(67,29)" />
<path d="M0 0 C2.97 0 5.94 0 9 0 C9.33 0.66 9.66 1.32 10 2 C9.0625 4.125 9.0625 4.125 8 6 C7.67 5.34 7.34 4.68 7 4 C4.4375 3.375 4.4375 3.375 2 3 C2 2.34 2 1.68 2 1 C1.34 0.67 0.68 0.34 0 0 Z " fill="#D3A553" transform="translate(66,28)" />
<path d="M0 0 C0.99 0.165 0.99 0.165 6 1 C6.33 2.32 6.66 3.64 7 5 C4.625 5.125 4.625 5.125 2 5 C1.34 4.34 0.68 3.68 0 3 C0 2.01 0 1.02 0 0 Z " fill="#B68E38" transform="translate(32,76)" />
<path d="M0 0 C-0.66 1.65 -1.32 3.3 -2 5 C-3.32 4.67 -4.64 4.34 -6 4 C-6.33 2.68 -6.66 1.36 -7 0 C-4.3333581 -1.33332095 -2.83319697 -0.67102033 0 0 Z " fill="#875212" transform="translate(78,39)" />
<path d="M0 0 C2.58276199 0.81892453 5.07232176 1.74528075 7.5625 2.8125 C7.5625 3.4725 7.5625 4.1325 7.5625 4.8125 C6.86125 4.668125 6.16 4.52375 5.4375 4.375 C-2.54861111 2.8125 -2.54861111 2.8125 -6.4375 2.8125 C-3.13920455 -0.24147727 -3.13920455 -0.24147727 0 0 Z " fill="#634918" transform="translate(62.4375,15.1875)" />
<path d="M0 0 C0.33 0.99 0.66 1.98 1 3 C1.99 3 2.98 3 4 3 C4.33 4.65 4.66 6.3 5 8 C4.01 7.835 4.01 7.835 -1 7 C-1 6.34 -1 5.68 -1 5 C-1.66 4.34 -2.32 3.68 -3 3 C-2.01 3 -1.02 3 0 3 C0 2.01 0 1.02 0 0 Z " fill="#C7934B" transform="translate(32,43)" />
<path d="M0 0 C0.4021875 0.0103125 0.4021875 0.0103125 2.4375 0.0625 C2.7675 1.3825 3.0975 2.7025 3.4375 4.0625 C1.4575 4.0625 -0.5225 4.0625 -2.5625 4.0625 C-2.8925 3.0725 -3.2225 2.0825 -3.5625 1.0625 C-2.5625 0.0625 -2.5625 0.0625 0 0 Z " fill="#EAB369" transform="translate(46.5625,40.9375)" />
<path d="M0 0 C0.33 0 0.66 0 1 0 C1.22893297 3.03336186 1.36475845 5.97465051 1 9 C-1 11.0625 -1 11.0625 -3 12 C-3.66 11.67 -4.32 11.34 -5 11 C-4.360625 10.113125 -3.72125 9.22625 -3.0625 8.3125 C-1.19170243 5.30788572 -0.40576034 3.4489629 0 0 Z " fill="#765F3A" transform="translate(83,31)" />
<path d="M0 0 C0.99 0 1.98 0 3 0 C3.33 1.98 3.66 3.96 4 6 C2.35 6 0.7 6 -1 6 C-1.33 4.68 -1.66 3.36 -2 2 C-1.34 2 -0.68 2 0 2 C0 1.34 0 0.68 0 0 Z " fill="#BE8E3A" transform="translate(61,21)" />
<path d="M0 0 C0.66 0 1.32 0 2 0 C2 0.99 2 1.98 2 3 C3.32 3.33 4.64 3.66 6 4 C5.34 4 4.68 4 4 4 C4 4.66 4 5.32 4 6 C3.34 6 2.68 6 2 6 C1.67 6.66 1.34 7.32 1 8 C-0.35439668 5.29120665 -0.06501451 2.99066732 0 0 Z " fill="#85560D" transform="translate(45,72)" />
<path d="M0 0 C2.97 0 5.94 0 9 0 C8.34 1.65 7.68 3.3 7 5 C6.67 4.01 6.34 3.02 6 2 C4.02 2 2.04 2 0 2 C0 1.34 0 0.68 0 0 Z " fill="#E5BE71" transform="translate(36,65)" />
<path d="M0 0 C0.66 0.33 1.32 0.66 2 1 C1.67 2.65 1.34 4.3 1 6 C-0.485 6.165 -0.485 6.165 -8 7 C-8.33 6.01 -8.66 5.02 -9 4 C-8.05125 4.020625 -7.1025 4.04125 -6.125 4.0625 C-3 4 -3 4 -1 3 C-0.67 2.01 -0.34 1.02 0 0 Z " fill="#C69C47" transform="translate(43,59)" />
<path d="M0 0 C0.99 0.165 0.99 0.165 6 1 C6.33 1.99 6.66 2.98 7 4 C5.02 4 3.04 4 1 4 C0.67 2.68 0.34 1.36 0 0 Z " fill="#CD7949" transform="translate(51,44)" />
<path d="M0 0 C2.31 0.66 4.62 1.32 7 2 C5.68 2.33 4.36 2.66 3 3 C3 4.32 3 5.64 3 7 C2.34 7 1.68 7 1 7 C0.67 4.69 0.34 2.38 0 0 Z " fill="#B58D3F" transform="translate(18,63)" />
<path d="M0 0 C0.66 0 1.32 0 2 0 C3.15837626 4.05431692 2.83691257 6.21812119 1 10 C-1.56687367 6.1496895 -0.83288724 4.41430237 0 0 Z " fill="#784809" transform="translate(67,46)" />
<path d="M0 0 C5.53846154 -0.36923077 5.53846154 -0.36923077 7.875 1.5 C8.24625 1.995 8.6175 2.49 9 3 C2.25 3.125 2.25 3.125 0 2 C0 1.34 0 0.68 0 0 Z " fill="#ED8D69" transform="translate(54,32)" />
<path d="M0 0 C0.66 0 1.32 0 2 0 C0.84826645 2.46800047 -0.04783565 4.04783565 -2 6 C-4.125 5.625 -4.125 5.625 -6 5 C-5.195625 4.360625 -4.39125 3.72125 -3.5625 3.0625 C-1 1 -1 1 0 0 Z " fill="#F8C87C" transform="translate(54,26)" />
<path d="M0 0 C0.99 0.33 1.98 0.66 3 1 C2.67 1.66 2.34 2.32 2 3 C2.99 3.33 3.98 3.66 5 4 C4 5 4 5 2.15234375 5.09765625 C0.1015625 5.06510417 -1.94921875 5.03255208 -4 5 C-2.68 4.67 -1.36 4.34 0 4 C0 2.68 0 1.36 0 0 Z " fill="#845614" transform="translate(40,78)" />
<path d="M0 0 C3.68754757 0.49831724 5.60490662 1.10067643 8 4 C7.34 4.33 7.34 4.33 4 6 C3.67 5.01 3.34 4.02 3 3 C2.01 2.67 1.02 2.34 0 2 C0 1.34 0 0.68 0 0 Z " fill="#89560B" transform="translate(48,66)" />
<path d="M0 0 C0.825 0.33 0.825 0.33 5 2 C5 2.66 5 3.32 5 4 C4.34 4 3.68 4 3 4 C3 4.66 3 5.32 3 6 C1.68 5.34 0.36 4.68 -1 4 C-0.67 2.68 -0.34 1.36 0 0 Z " fill="#EDC782" transform="translate(19,57)" />
<path d="M0 0 C0.226875 0.639375 0.45375 1.27875 0.6875 1.9375 C2 4 2 4 4.625 4.75 C5.40875 4.8325 6.1925 4.915 7 5 C7 5.66 7 6.32 7 7 C4.69 6.67 2.38 6.34 0 6 C0 4.02 0 2.04 0 0 Z " fill="#E7BE63" transform="translate(70,22)" />
<path d="M0 0 C0.66 0.165 0.66 0.165 4 1 C3.625 3.4375 3.625 3.4375 3 6 C2.67 6.165 2.67 6.165 1 7 C1 6.01 1 5.02 1 4 C0.34 3.67 -0.32 3.34 -1 3 C-0.67 2.01 -0.34 1.02 0 0 Z " fill="#B07E31" transform="translate(46,68)" />
<path d="M0 0 C2 2 2 2 2.125 5.125 C2.08375 6.07375 2.0425 7.0225 2 8 C0.68 7.34 -0.64 6.68 -2 6 C-1.125 1.125 -1.125 1.125 0 0 Z " fill="#C49D4E" transform="translate(47,49)" />
<path d="M0 0 C0.99 0.33 1.98 0.66 3 1 C2.34 1 1.68 1 1 1 C1 2.32 1 3.64 1 5 C-0.65 5.66 -2.3 6.32 -4 7 C-3.39816251 4.97954558 -2.72693904 2.97888961 -2 1 C-1.34 0.67 -0.68 0.34 0 0 Z " fill="#C1913F" transform="translate(70,38)" />
<path d="M0 0 C0.99 0.165 0.99 0.165 6 1 C6 1.66 6 2.32 6 3 C4.02 3.33 2.04 3.66 0 4 C0 2.68 0 1.36 0 0 Z " fill="#D7B170" transform="translate(59,17)" />
<path d="M0 0 C0.99 0.66 1.98 1.32 3 2 C3 2.99 3 3.98 3 5 C1.35 4.67 -0.3 4.34 -2 4 C-2 3.01 -2 2.02 -2 1 C-1.34 0.67 -0.68 0.34 0 0 Z " fill="#C9A452" transform="translate(58,18)" />
<path d="M0 0 C0.99 0.33 1.98 0.66 3 1 C3.33 1.99 3.66 2.98 4 4 C2.35 4.33 0.7 4.66 -1 5 C-1.33 4.01 -1.66 3.02 -2 2 C-1.34 2 -0.68 2 0 2 C0 1.34 0 0.68 0 0 Z " fill="#CF9847" transform="translate(26,57)" />
<path d="M0 0 C2.31 0 4.62 0 7 0 C7 1.32 7 2.64 7 4 C4.08482708 2.92598892 2.22189824 2.22189824 0 0 Z " fill="#CB4E32" transform="translate(31,54)" />
<path d="M0 0 C1.98 0 3.96 0 6 0 C6.33 1.32 6.66 2.64 7 4 C4.97954558 3.39816251 2.97888961 2.72693904 1 2 C0.67 1.34 0.34 0.68 0 0 Z " fill="#CFA156" transform="translate(44,45)" />
<path d="M0 0 C0.66 0.33 1.32 0.66 2 1 C1.34 1.33 1.34 1.33 -2 3 C-2 3.66 -2 4.32 -2 5 C-3.32 5 -4.64 5 -6 5 C-6 4.34 -6 3.68 -6 3 C-4.03533587 1.93224776 -2.03144641 0.93446535 0 0 Z " fill="#E4BB6E" transform="translate(39,41)" />
<path d="M0 0 C2.21736634 1.10868317 4.03617993 2.49440461 6 4 C4.1875 5.0625 4.1875 5.0625 2 6 C1.01 5.67 0.02 5.34 -1 5 C-0.67 3.35 -0.34 1.7 0 0 Z " fill="#EBBD6F" transform="translate(42,34)" />
<path d="M0 0 C0.68707555 2.49064888 1 4.37886292 1 7 C-2.875 5.25 -2.875 5.25 -4 3 C-3.01 2.67 -2.02 2.34 -1 2 C-0.67 1.34 -0.34 0.68 0 0 Z " fill="#CCA45B" transform="translate(41,35)" />
</svg>