<?xml version='1.0' encoding='utf-8'?>
<svg xmlns="http://www.w3.org/2000/svg" version="1.1" width="98" height="99">
<path d="M0 0 C0.09507063 6.43311296 0.15316726 12.65758005 -1 19 C1.64 19 4.28 19 7 19 C7.165 19.495 7.165 19.495 8 22 C8.7425 22.103125 9.485 22.20625 10.25 22.3125 C13.38741156 23.09685289 14.7649885 23.65630929 17 26 C17.32908195 28.71417135 17.42583525 30.98962834 17.3125 33.6875 C17.29703125 34.40486328 17.2815625 35.12222656 17.265625 35.86132812 C17.13563526 40.63195156 16.78408739 45.29547565 16 50 C8.68131376 52.98168699 1.00417711 55.50026107 -7 55 C-8.8125 53.5 -8.8125 53.5 -10 52 C-10.99 52.66 -11.98 53.32 -13 54 C-15.33333333 54.33333333 -17.66666667 54.66666667 -20 55 C-20.99 55.66 -21.98 56.32 -23 57 C-25.32914823 57.36141955 -27.66253478 57.69699525 -30 58 C-30.165 58.165 -30.165 58.165 -31 59 C-33.875 59.375 -33.875 59.375 -37 59 C-39.31141604 56.14925356 -40 54.6860549 -40 51 C-40.66 51 -41.32 51 -42 51 C-46.59980796 44.10028806 -45.16494266 33.11884417 -45 25 C-43.02 24.34 -41.04 23.68 -39 23 C-39 15.08 -39 7.16 -39 -1 C-23.80773292 -4.56553207 -14.63293646 -5.88052587 0 0 Z " fill="#E1E4DB" transform="translate(63,22)" />
<path d="M0 0 C0.66 0.99 1.32 1.98 2 3 C2.66 3.165 3.32 3.33 4 3.5 C6 4 6 4 8 7 C13.77010564 8.27137921 17.33482774 7.85405638 23 6 C25.32787927 5.63049535 27.66045145 5.28647533 30 5 C29.34 5.33 28.68 5.66 28 6 C28 11.61 28 17.22 28 23 C28.99 22.01 29.98 21.02 31 20 C33.6875 19.8125 33.6875 19.8125 36 20 C36 19.01 36 18.02 36 17 C35.01 17 34.02 17 33 17 C33 17.66 33 18.32 33 19 C32.34 19 31.68 19 31 19 C31.24162257 11.87213404 31.24162257 11.87213404 34.5 8.125 C38.30231939 5.39465981 42.4591128 4.72754546 47 4 C47.99 3.773125 48.98 3.54625 50 3.3125 C50.66 3.209375 51.32 3.10625 52 3 C53 4 53 4 53.1328125 6.87890625 C53.1191006 13.34406849 53.02218842 19.6113224 52 26 C44.68131376 28.98168699 37.00417711 31.50026107 29 31 C27.1875 29.5 27.1875 29.5 26 28 C25.01 28.66 24.02 29.32 23 30 C20.66666667 30.33333333 18.33333333 30.66666667 16 31 C15.01 31.66 14.02 32.32 13 33 C10.67085177 33.36141955 8.33746522 33.69699525 6 34 C5.835 34.165 5.835 34.165 5 35 C2.125 35.375 2.125 35.375 -1 35 C-3.31141604 32.14925356 -4 30.6860549 -4 27 C-4.66 27 -5.32 27 -6 27 C-10.59980796 20.10028806 -9.16494266 9.11884417 -9 1 C-3.375 -1.125 -3.375 -1.125 0 0 Z " fill="#D6D9CF" transform="translate(27,46)" />
<path d="M0 0 C-0.33 0.66 -0.66 1.32 -1 2 C-3.25 2.59765625 -3.25 2.59765625 -6 3.0625 C-10.90566038 3.90566038 -10.90566038 3.90566038 -12 5 C-14.32817964 5.36760731 -16.6618385 5.70241581 -19 6 C-20.33503423 10.83235311 -20.34224031 15.73073075 -20.51757812 20.71289062 C-20.71182982 24.88013927 -21.1269238 28.18559787 -23 32 C-22.34 32.33 -21.68 32.66 -21 33 C-23.875 32.75 -23.875 32.75 -27 32 C-27.69937532 30.68352881 -28.36729133 29.34977849 -29 28 C-31.625 27.25 -31.625 27.25 -34 27 C-34.33 26.01 -34.66 25.02 -35 24 C-35.66 24 -36.32 24 -37 24 C-37.33 15.75 -37.66 7.5 -38 -1 C-23.32158209 -4.44493482 -13.98982835 -6.27935928 0 0 Z " fill="#F4F7EF" transform="translate(62,22)" />
<path d="M0 0 C0.66 0.99 1.32 1.98 2 3 C2.66 3.165 3.32 3.33 4 3.5 C6 4 6 4 8 7 C13.77010564 8.27137921 17.33482774 7.85405638 23 6 C25.32787927 5.63049535 27.66045145 5.28647533 30 5 C29.34 5.33 28.68 5.66 28 6 C28 11.61 28 17.22 28 23 C28.99 22.01 29.98 21.02 31 20 C33.6875 19.8125 33.6875 19.8125 36 20 C36 19.01 36 18.02 36 17 C35.01 17 34.02 17 33 17 C33 17.66 33 18.32 33 19 C32.34 19 31.68 19 31 19 C31.24162257 11.87213404 31.24162257 11.87213404 34.5 8.125 C38.30231939 5.39465981 42.4591128 4.72754546 47 4 C47.99 3.773125 48.98 3.54625 50 3.3125 C50.66 3.209375 51.32 3.10625 52 3 C53 4 53 4 53.1328125 6.87890625 C53.1191006 13.34406849 53.02218842 19.6113224 52 26 C44.68131376 28.98168699 37.00417711 31.50026107 29 31 C27.1875 29.5 27.1875 29.5 26 28 C25.34 28.33 24.68 28.66 24 29 C23.88730557 22.8894576 24.10395632 17.04829486 25 11 C24.34 11 23.68 11 23 11 C22.67 11.66 22.34 12.32 22 13 C21.34 13.66 20.68 14.32 20 15 C19.34 14.34 18.68 13.68 18 13 C16.70233939 12.55793979 15.38618394 12.16915264 14.0625 11.8125 C6.56654892 9.44727272 0.19402061 4.73575469 -6 0 C-3 -1 -3 -1 0 0 Z " fill="#D4D7CC" transform="translate(27,46)" />
<path d="M0 0 C4.83227176 -0.36417121 7.07084626 0.28151282 10.875 3.25 C15.10350669 6.40856636 19.21626405 8.78530743 24 11 C23.34 12.32 22.68 13.64 22 15 C21.67 13.68 21.34 12.36 21 11 C17.37 11 13.74 11 10 11 C10.020625 12.464375 10.04125 13.92875 10.0625 15.4375 C10.06953385 20.36823058 9.63066267 25.11236433 9 30 C7.68 29.34 6.36 28.68 5 28 C5 27.34 5 26.68 5 26 C4.34 26 3.68 26 3 26 C-1.59980796 19.10028806 -0.16494266 8.11884417 0 0 Z " fill="#E8EAE1" transform="translate(18,47)" />
<path d="M0 0 C-0.33 0.66 -0.66 1.32 -1 2 C-4.47342361 2.82743861 -7.9668617 3.4126559 -11.484375 4.0234375 C-15.28578878 5.07938577 -17.24637015 6.20089737 -20 9 C-20.92578125 11.140625 -20.92578125 11.140625 -21.3125 13.25 C-21.539375 14.4875 -21.76625 15.725 -22 17 C-21.34 17 -20.68 17 -20 17 C-20 16.34 -20 15.68 -20 15 C-19.01 15 -18.02 15 -17 15 C-17 15.99 -17 16.98 -17 18 C-18.65 18 -20.3 18 -22 18 C-22.33 18.99 -22.66 19.98 -23 21 C-23.66 21 -24.32 21 -25 21 C-27.44433951 16.11132099 -26.05609621 9.14846902 -25 4 C-21 2.66666667 -17 1.33333333 -13 0 C-12.67 -0.66 -12.34 -1.32 -12 -2 C-7.42626111 -3.79682599 -3.95375016 -2.63583344 0 0 Z " fill="#F0F3EA" transform="translate(80,48)" />
<path d="M0 0 C4.41034092 -0.40734943 6.34190225 0.58117201 9.8125 3.25 C14.06222312 6.3910997 18.21037982 8.78258325 23 11 C22.34 12.32 21.68 13.64 21 15 C20.67 13.68 20.34 12.36 20 11 C16.04 11 12.08 11 8 11 C8 12.98 8 14.96 8 17 C6 16 6 16 4 13 C3.67 13 3.34 13 3 13 C2.49689942 11.2092015 1.99761372 9.41733089 1.5 7.625 C1.36078125 7.12613281 1.36078125 7.12613281 0.65625 4.6015625 C0 2 0 2 0 0 Z " fill="#F8FAF4" transform="translate(19,47)" />
<path d="M0 0 C0.66 0.99 1.32 1.98 2 3 C2.66 3.165 3.32 3.33 4 3.5 C6 4 6 4 8 7 C13.760465 8.269255 17.33746259 7.85121415 23 6 C24.32 6 25.64 6 27 6 C26.8904307 9.45900478 26.75973152 12.91689109 26.625 16.375 C26.60953125 16.86742187 26.60953125 16.86742187 26.53125 19.359375 C26.49257813 20.30039063 26.45390625 21.24140625 26.4140625 22.2109375 C26.3826416 23.08024902 26.3512207 23.94956055 26.31884766 24.84521484 C26 27 26 27 24 29 C23.88730557 22.8894576 24.10395632 17.04829486 25 11 C24.34 11 23.68 11 23 11 C22.67 11.66 22.34 12.32 22 13 C21.34 13.66 20.68 14.32 20 15 C19.34 14.34 18.68 13.68 18 13 C16.70233939 12.55793979 15.38618394 12.16915264 14.0625 11.8125 C6.56654892 9.44727272 0.19402061 4.73575469 -6 0 C-3 -1 -3 -1 0 0 Z " fill="#A0A59A" transform="translate(27,46)" />
<path d="M0 0 C0 0.66 0 1.32 0 2 C0.66 2.33 1.32 2.66 2 3 C1.30078125 4.921875 1.30078125 4.921875 0 7 C-2.20703125 7.828125 -2.20703125 7.828125 -4.8125 8.25 C-5.66457031 8.39953125 -6.51664063 8.5490625 -7.39453125 8.703125 C-10.01025149 9.00116809 -12.37650174 9.2672494 -15 9 C-15.66 8.01 -16.32 7.02 -17 6 C-16.34 6 -15.68 6 -15 6 C-15 5.34 -15 4.68 -15 4 C-13.35 4.33 -11.7 4.66 -10 5 C-9.731875 4.360625 -9.46375 3.72125 -9.1875 3.0625 C-7.07129989 -0.61300545 -3.8426845 -0.10385634 0 0 Z " fill="#BEC1B1" transform="translate(71,68)" />
<path d="M0 0 C0.66 0.33 1.32 0.66 2 1 C1.67 2.65 1.34 4.3 1 6 C1.99 6 2.98 6 4 6 C3.67 8.31 3.34 10.62 3 13 C3.66 13 4.32 13 5 13 C5 12.34 5 11.68 5 11 C5.99 11 6.98 11 8 11 C8 11.99 8 12.98 8 14 C6.35 14 4.7 14 3 14 C2.67 14.99 2.34 15.98 2 17 C1.34 17 0.68 17 0 17 C-2.44433951 12.11132099 -1.05609621 5.14846902 0 0 Z " fill="#EBEEE6" transform="translate(55,52)" />
<path d="M0 0 C0.33 0 0.66 0 1 0 C1.12086218 6.43255401 0.82351864 12.61773055 0 19 C-1.32 18.34 -2.64 17.68 -4 17 C-4 16.34 -4 15.68 -4 15 C-4.66 14.67 -5.32 14.34 -6 14 C-6 13.01 -6 12.02 -6 11 C-5.34 11 -4.68 11 -4 11 C-3.34 9.02 -2.68 7.04 -2 5 C-1.67 5 -1.34 5 -1 5 C-0.67 3.35 -0.34 1.7 0 0 Z " fill="#DFE2D8" transform="translate(27,58)" />
<path d="M0 0 C2.31 0 4.62 0 7 0 C7.33 0.99 7.66 1.98 8 3 C8.99 3.33 9.98 3.66 11 4 C9.73160474 4.50615298 8.46016898 5.00469099 7.1875 5.5 C6.83365234 5.63921875 6.83365234 5.63921875 5.04296875 6.34375 C3 7 3 7 0 7 C0 4.69 0 2.38 0 0 Z " fill="#B3B8AC" transform="translate(63,41)" />
<path d="M0 0 C0.33 0.66 0.66 1.32 1 2 C1.66 2 2.32 2 3 2 C3 3.98 3 5.96 3 8 C4 5 4 5 4 2 C5.32 2.33 6.64 2.66 8 3 C7.40975852 4.65087847 6.80233994 6.29562407 6.1875 7.9375 C5.85105469 8.85402344 5.51460937 9.77054688 5.16796875 10.71484375 C4 13 4 13 1 14 C0.67 9.38 0.34 4.76 0 0 Z " fill="#EEF1E7" transform="translate(24,24)" />
<path d="M0 0 C0.33 0 0.66 0 1 0 C2.31994126 6.92969161 2.32058604 13.96596509 2 21 C1 22 1 22 -2.0625 22.0625 C-3.031875 22.041875 -4.00125 22.02125 -5 22 C-5 21.34 -5 20.68 -5 20 C-3.35 20 -1.7 20 0 20 C0 13.4 0 6.8 0 0 Z " fill="#595A4C" transform="translate(23,24)" />
<path d="M0 0 C0 3.96 0 7.92 0 12 C-0.66 10.68 -1.32 9.36 -2 8 C-2.99 8.33 -3.98 8.66 -5 9 C-5.99 7.35 -6.98 5.7 -8 4 C-7.34 4 -6.68 4 -6 4 C-6 3.34 -6 2.68 -6 2 C-1.125 0 -1.125 0 0 0 Z " fill="#D1D4C7" transform="translate(63,22)" />
<path d="M0 0 C1.32 0.99 2.64 1.98 4 3 C3.01 4.98 2.02 6.96 1 9 C-0.98 9 -2.96 9 -5 9 C-4.34 8.67 -3.68 8.34 -3 8 C-3.061875 7.05125 -3.12375 6.1025 -3.1875 5.125 C-3.125625 4.09375 -3.06375 3.0625 -3 2 C-2.01 1.34 -1.02 0.68 0 0 Z " fill="#C0C4B6" transform="translate(31,72)" />
<path d="M0 0 C-0.33 0.66 -0.66 1.32 -1 2 C-3.06640625 2.6328125 -3.06640625 2.6328125 -5.5625 3.125 C-6.38878906 3.29257812 -7.21507813 3.46015625 -8.06640625 3.6328125 C-8.70449219 3.75398438 -9.34257813 3.87515625 -10 4 C-10 3.01 -10 2.02 -10 1 C-10.66 0.01 -11.32 -0.98 -12 -2 C-7.26382227 -3.57872591 -4.10216206 -2.73477471 0 0 Z " fill="#E6EAE0" transform="translate(80,48)" />
<path d="M0 0 C0.66 0.99 1.32 1.98 2 3 C2.66 3.165 3.32 3.33 4 3.5 C6 4 6 4 8 7 C11.125 8.1875 11.125 8.1875 14 9 C13.67 9.66 13.34 10.32 13 11 C9.272035 10.3493646 6.64943324 8.67559252 3.5 6.625 C2.5615625 6.01914062 1.623125 5.41328125 0.65625 4.7890625 C-1.62039693 3.25567383 -3.82458568 1.67260629 -6 0 C-3 -1 -3 -1 0 0 Z " fill="#C3C7BD" transform="translate(27,46)" />
<path d="M0 0 C0.33 0 0.66 0 1 0 C3.01880878 18.96238245 3.01880878 18.96238245 1 23 C0.34 23 -0.32 23 -1 23 C-0.67 15.41 -0.34 7.82 0 0 Z " fill="#6D6B59" transform="translate(80,49)" />
<path d="M0 0 C2.31 0.33 4.62 0.66 7 1 C6.67 2.98 6.34 4.96 6 7 C3.69 6.67 1.38 6.34 -1 6 C-0.67 4.02 -0.34 2.04 0 0 Z " fill="#65604B" transform="translate(55,13)" />
<path d="M0 0 C0.33 0.99 0.66 1.98 1 3 C1.66 3 2.32 3 3 3 C3 2.34 3 1.68 3 1 C6.63 1 10.26 1 14 1 C11.22957891 3.77042109 9.23466195 3.39796106 5.375 3.625 C4.18648437 3.69976563 2.99796875 3.77453125 1.7734375 3.8515625 C1.31582031 3.87605469 1.31582031 3.87605469 -1 4 C-1 1 -1 1 0 0 Z " fill="#605C4E" transform="translate(25,16)" />
<path d="M0 0 C0 2.64 0 5.28 0 8 C-2.31 7.34 -4.62 6.68 -7 6 C-6 5 -5 4 -4 3 C-3.46375 2.443125 -2.9275 1.88625 -2.375 1.3125 C-1 0 -1 0 0 0 Z " fill="#DEE1D9" transform="translate(51,61)" />
<path d="M0 0 C0.99 0.165 0.99 0.165 6 1 C6.33 1.99 6.66 2.98 7 4 C4.69 4.33 2.38 4.66 0 5 C-0.66 4.01 -1.32 3.02 -2 2 C-1.34 2 -0.68 2 0 2 C0 1.34 0 0.68 0 0 Z " fill="#C9CCBB" transform="translate(56,72)" />
<path d="M0 0 C0.33 0.66 0.66 1.32 1 2 C0.01 2.99 -0.98 3.98 -2 5 C-2 3.68 -2 2.36 -2 1 C-5.63 1 -9.26 1 -13 1 C-13 0.67 -13 0.34 -13 0 C-7.98294805 -2.20260817 -5.08846181 -1.99547522 0 0 Z " fill="#E7EBE3" transform="translate(41,57)" />
<path d="M0 0 C0.33 0 0.66 0 1 0 C1 2.31 1 4.62 1 7 C2.65 6.67 4.3 6.34 6 6 C5 8 5 8 2.6875 9.1875 C-0.11989571 10.03624754 -1.301935 9.99928333 -4 9 C-3.01 8.34 -2.02 7.68 -1 7 C-0.3125 3.375 -0.3125 3.375 0 0 Z " fill="#CFD5C8" transform="translate(62,41)" />
<path d="M0 0 C0 1.32 0 2.64 0 4 C-1.65 4 -3.3 4 -5 4 C-5.33 4.66 -5.66 5.32 -6 6 C-6.33 4.68 -6.66 3.36 -7 2 C-4.35261084 0.5393715 -3.10551666 0 0 0 Z " fill="#C7CBBD" transform="translate(69,68)" />
<path d="M0 0 C0 2.64 0 5.28 0 8 C-0.66 7.01 -1.32 6.02 -2 5 C-3.32 5 -4.64 5 -6 5 C-5.6875 3.0625 -5.6875 3.0625 -5 1 C-2 0 -2 0 0 0 Z " fill="#C7CCC2" transform="translate(52,57)" />
<path d="M0 0 C0.66 0.33 1.32 0.66 2 1 C2 1.66 2 2.32 2 3 C2.99 3.33 3.98 3.66 5 4 C2.29120665 5.35439668 -0.00933268 5.06501451 -3 5 C-3 3.68 -3 2.36 -3 1 C-2.01 0.67 -1.02 0.34 0 0 Z " fill="#ACAFA4" transform="translate(69,41)" />
<path d="M0 0 C1.45922693 0.11409593 2.91740598 0.24165544 4.375 0.375 C4.78105469 0.40980469 4.78105469 0.40980469 6.8359375 0.5859375 C9 1 9 1 11 3 C8.6875 4.125 8.6875 4.125 6 5 C3.63158688 3.42105792 1.93254772 2.0245738 0 0 Z " fill="#6C6959" transform="translate(46,14)" />
<path d="M0 0 C0.33 0.66 0.66 1.32 1 2 C1.66 2 2.32 2 3 2 C3.125 4.875 3.125 4.875 3 8 C2.34 8.66 1.68 9.32 1 10 C-0.1577506 6.52674819 -0.06866652 3.63932552 0 0 Z " fill="#E3E5DB" transform="translate(24,24)" />
<path d="M0 0 C0.66 0 1.32 0 2 0 C2.66 0.99 3.32 1.98 4 3 C7.125 4.1875 7.125 4.1875 10 5 C9.67 5.66 9.34 6.32 9 7 C6.07459296 6.37312706 3.5164751 5.64872507 1 4 C0.25 1.875 0.25 1.875 0 0 Z " fill="#D3D6CF" transform="translate(31,50)" />
<path d="M0 0 C0.99 0 1.98 0 3 0 C3 0.99 3 1.98 3 3 C1.35 3 -0.3 3 -2 3 C-2.33 3.99 -2.66 4.98 -3 6 C-3.66 5.67 -4.32 5.34 -5 5 C-4.01 3.68 -3.02 2.36 -2 1 C-1.34 1.33 -0.68 1.66 0 2 C0 1.34 0 0.68 0 0 Z " fill="#E2E5DC" transform="translate(60,63)" />
<path d="M0 0 C0.99 0 1.98 0 3 0 C2.49396008 2.16874252 2.00016187 3.99967627 1 6 C0.34 6 -0.32 6 -1 6 C-1.042721 4.33388095 -1.04063832 2.66617115 -1 1 C-0.67 0.67 -0.34 0.34 0 0 Z " fill="#FAFBF5" transform="translate(57,52)" />
<path d="M0 0 C0.825 0.165 0.825 0.165 5 1 C4.67 2.32 4.34 3.64 4 5 C2.68 4.67 1.36 4.34 0 4 C0 2.68 0 1.36 0 0 Z " fill="#E9ECE1" transform="translate(25,40)" />
<path d="M0 0 C0.99 0.165 0.99 0.165 6 1 C6.33 2.65 6.66 4.3 7 6 C4.36 4.68 1.72 3.36 -1 2 C-0.67 1.34 -0.34 0.68 0 0 Z " fill="#ACB4A7" transform="translate(41,55)" />
</svg>