<?xml version='1.0' encoding='utf-8'?>
<svg xmlns="http://www.w3.org/2000/svg" version="1.1" width="100" height="68">
<path d="M0 0 C1.375 2.625 1.375 2.625 1.375 5.75 C0.19303706 9.14814345 -0.62652539 9.74528398 -3.625 11.625 C-16.11685842 16.73452896 -30.69072062 17.72085514 -43.625 13.625 C-46.6875 12.125 -46.6875 12.125 -48.625 10.625 C-48.625 9.965 -48.625 9.305 -48.625 8.625 C-49.945 7.965 -51.265 7.305 -52.625 6.625 C-52.3042957 3.73866127 -51.84559638 1.92832003 -50.125 -0.4375 C-37.27132728 -10.39909636 -12.37779395 -11.19895643 0 0 Z " fill="#E4DCBC" transform="translate(75.625,30.375)" />
<path d="M0 0 C6.83884468 1.32098408 11.44900301 3.22890011 15.78125 8.828125 C18.18803876 13.117146 17.51654086 16.66723483 16.515625 21.1875 C13.49332452 31.80240901 7.25688601 38.94170661 -2.2421875 44.25390625 C-10.24698806 48.0200993 -18.70831385 48.3245135 -27.24609375 46.1875 C-36.9895471 42.61283177 -44.42034271 35.73495028 -49.125 26.47265625 C-50.76756156 21.83095326 -51.47150108 16.9065581 -51 12 C-49.5 10.1484375 -49.5 10.1484375 -48 9 C-48.03480469 9.59167969 -48.06960937 10.18335938 -48.10546875 10.79296875 C-48.22719676 14.34626741 -48.20867429 17.34416652 -47.125 20.75 C-43.74358246 24.33032446 -39.50354227 26.12077665 -35 28 C-34.13117187 28.36867188 -33.26234375 28.73734375 -32.3671875 29.1171875 C-27.55076538 30.37996174 -22.89940096 30.42504301 -17.9375 30.4375 C-17.42654785 30.43907104 -17.42654785 30.43907104 -14.84082031 30.44702148 C-6.56583055 30.31645354 -0.40553183 28.78974364 7 25 C7.99 24.67 8.98 24.34 10 24 C10 23.34 10 22.68 10 22 C10.66 22 11.32 22 12 22 C14.34396354 18.33755697 14.52512999 15.27605847 14 11 C10.42251171 6.15308038 5.26118419 3.69363461 0 1 C0 0.67 0 0.34 0 0 Z " fill="#7E5623" transform="translate(67,19)" />
<path d="M0 0 C0.91612061 0.00757324 1.83224121 0.01514648 2.77612305 0.02294922 C13.5151785 0.28332451 22.71036579 2.84812473 30.625 10.4375 C32.15346661 13.49443322 31.85742445 16.06734547 31.625 19.4375 C30.25 21.875 30.25 21.875 28.625 23.4375 C27.965 23.4375 27.305 23.4375 26.625 23.4375 C26.625 24.0975 26.625 24.7575 26.625 25.4375 C24.71088443 26.42164433 22.7936033 27.39963349 20.875 28.375 C19.80765625 28.92027344 18.7403125 29.46554688 17.640625 30.02734375 C8.09981174 34.48878622 -6.52916383 34.2169374 -16.5703125 31.49609375 C-22.28307768 29.38197299 -27.16856064 26.87763044 -31.375 22.4375 C-32.58760877 18.79967368 -32.77044552 16.26014001 -32.375 12.4375 C-24.75189854 2.50436779 -11.85905018 -0.13831716 0 0 Z M-26.0625 13.4375 C-27.375 15.4375 -27.375 15.4375 -27.125 18.1875 C-26.8775 18.93 -26.63 19.6725 -26.375 20.4375 C-25.385 20.7675 -24.395 21.0975 -23.375 21.4375 C-23.375 22.0975 -23.375 22.7575 -23.375 23.4375 C-22.17231319 24.09378849 -20.96247446 24.73697505 -19.75 25.375 C-19.07710937 25.73464844 -18.40421875 26.09429687 -17.7109375 26.46484375 C-6.70114164 31.04919019 7.57417853 28.99597111 18.671875 25.80078125 C22.15083035 24.19475557 24.18554056 22.377477 26.625 19.4375 C26.69744204 15.88784024 26.1185377 14.12845278 24.0625 11.25 C10.24714027 0.9770402 -12.92946171 3.66407615 -26.0625 13.4375 Z " fill="#C69A61" transform="translate(50.375,17.5625)" />
<path d="M0 0 C6.83884468 1.32098408 11.44900301 3.22890011 15.78125 8.828125 C18.18803876 13.117146 17.51654086 16.66723483 16.515625 21.1875 C13.49332452 31.80240901 7.25688601 38.94170661 -2.2421875 44.25390625 C-10.24698806 48.0200993 -18.70831385 48.3245135 -27.24609375 46.1875 C-36.9895471 42.61283177 -44.42034271 35.73495028 -49.125 26.47265625 C-50.76756156 21.83095326 -51.47150108 16.9065581 -51 12 C-49.5 10.1484375 -49.5 10.1484375 -48 9 C-48.02320313 9.56847656 -48.04640625 10.13695312 -48.0703125 10.72265625 C-48.3051157 20.76887889 -45.1272127 29.14589132 -38.45703125 36.76171875 C-36.439505 38.47634562 -34.58876223 38.56853963 -32 39 C-31.6390625 39.1753125 -31.6390625 39.1753125 -29.8125 40.0625 C-25.6400097 41.4533301 -21.36145579 41.52491857 -17 41 C-16.34 40.34 -15.68 39.68 -15 39 C-12.85559462 38.22688543 -10.68417405 37.52735287 -8.5 36.875 C-7.3346875 36.52179687 -6.169375 36.16859375 -4.96875 35.8046875 C-2 35 -2 35 0 35 C0.33 33.02 0.66 31.04 1 29 C2.32 28.67 3.64 28.34 5 28 C5.6875 30.75 5.6875 30.75 6 34 C4.5625 36.375 4.5625 36.375 3 38 C3.66 38 4.32 38 5 38 C5.33 37.01 5.66 36.02 6 35 C6.66 35 7.32 35 8 35 C11.74534893 27.76236626 15.88453642 19.31215172 14 11 C10.55309207 6.10761455 5.22918502 3.67725159 0 1 C0 0.67 0 0.34 0 0 Z " fill="#563D19" transform="translate(67,19)" />
<path d="M0 0 C0.33 -0.99 0.66 -1.98 1 -3 C3.45622327 -0.44143409 3.99007552 0.90737156 4.375 4.5 C3.99013376 8.0920849 3.57311998 9.52584617 1 12 C0.34 12 -0.32 12 -1 12 C-1 12.66 -1 13.32 -1 14 C-2.91411557 14.98414433 -4.8313967 15.96213349 -6.75 16.9375 C-7.81734375 17.48277344 -8.8846875 18.02804688 -9.984375 18.58984375 C-14.30568955 20.61056208 -17.65908489 21.1241162 -22.421875 21.09765625 C-23.44667969 21.09443359 -24.47148438 21.09121094 -25.52734375 21.08789062 C-26.59082031 21.07951172 -27.65429688 21.07113281 -28.75 21.0625 C-29.82894531 21.05798828 -30.90789063 21.05347656 -32.01953125 21.04882812 C-34.67974383 21.03705727 -37.33984365 21.02061399 -40 21 C-40 20.67 -40 20.34 -40 20 C-38.35 19.67 -36.7 19.34 -35 19 C-35 18.67 -35 18.34 -35 18 C-34.2471875 17.98582031 -33.494375 17.97164062 -32.71875 17.95703125 C-25.99119224 17.65494431 -19.85298859 16.65098805 -13.4375 14.6875 C-13.09847656 14.58715454 -13.09847656 14.58715454 -11.3828125 14.0793457 C-7.35234881 12.77641149 -4.5786186 11.40746029 -2 8 C-2.0646093 4.83414429 -2.26471594 2.86315955 -4.34765625 0.41796875 C-12.09500751 -6.23046744 -24.68011305 -5.22674228 -34.1875 -4.875 C-41.10793571 -4.28799876 -47.64411444 -2.39574168 -52.64453125 2.6640625 C-54 4 -54 4 -56 4 C-55.44823576 0.13765035 -54.06857668 -1.62185307 -51 -4 C-34.59650119 -11.17058169 -14.82963591 -9.88642394 0 0 Z " fill="#BD985D" transform="translate(78,29)" />
<path d="M0 0 C1.125 3.75 1.125 3.75 0 6 C-0.66 6 -1.32 6 -2 6 C-2.66 7.32 -3.32 8.64 -4 10 C-10.27 10 -16.54 10 -23 10 C-23 10.99 -23 11.98 -23 13 C-20.36 13.33 -17.72 13.66 -15 14 C-15 14.66 -15 15.32 -15 16 C-20.05767642 17.22610338 -24.7855674 17.52953823 -29.875 16.3125 C-32 15 -32 15 -33.125 12.6875 C-33 10 -33 10 -31.125 7.4375 C-21.69111039 0.0790661 -11.6338952 -0.0874729 0 0 Z " fill="#EFEAD1" transform="translate(56,23)" />
<path d="M0 0 C4.859375 3.6328125 4.859375 3.6328125 6.125 6.9375 C6 10 6 10 3.8828125 12.546875 C-5.19982532 20.27573211 -18.72817591 19.76053597 -30 19 C-35.12103709 18.38762894 -38.22861644 17.77138356 -42 14 C-36.39 14 -30.78 14 -25 14 C-25.99 13.67 -26.98 13.34 -28 13 C-28 12.34 -28 11.68 -28 11 C-26.68 11 -25.36 11 -24 11 C-24 11.66 -24 12.32 -24 13 C-18.60550707 13.27429625 -15.48074195 13.36055646 -11 10 C-11.33 11.32 -11.66 12.64 -12 14 C-7.50777202 13.64766839 -7.50777202 13.64766839 -5 12 C-2.84234299 8.16535215 -1.38335655 4.1691944 0 0 Z " fill="#D5C99E" transform="translate(71,27)" />
<path d="M0 0 C0.39509766 0.17466797 0.39509766 0.17466797 2.39453125 1.05859375 C10.65138414 4.38964412 17.8565074 5.60090625 26.77661133 5.63452148 C28.85448613 5.66048687 30.9297909 5.81979961 33 6 C33.66 6.99 34.32 7.98 35 9 C30.95596887 13.68256236 25.71228847 14.5889467 19.77734375 15.09765625 C14.90271108 14.92625566 10.17903801 13.52562552 6 11 C5.37890625 8.91796875 5.37890625 8.91796875 5 7 C4.01 6.67 3.02 6.34 2 6 C0.3125 3.4375 0.3125 3.4375 -1 1 C-0.67 0.67 -0.34 0.34 0 0 Z " fill="#9C6C30" transform="translate(24,44)" />
<path d="M0 0 C0.99 0 1.98 0 3 0 C3.433125 1.11375 3.86625 2.2275 4.3125 3.375 C6 7 6 7 9 9 C9 9.66 9 10.32 9 11 C18.24379973 15.17461923 28.01913535 15.50029927 38 16 C38 16.33 38 16.66 38 17 C34.04 17.33 30.08 17.66 26 18 C26 18.33 26 18.66 26 19 C17.42598957 19.55316196 10.28817597 17.8459284 3.4375 12.4375 C0.28044517 9.28044517 0.01287025 7.75934461 -0.0625 3.3125 C-0.041875 2.219375 -0.02125 1.12625 0 0 Z " fill="#CEA264" transform="translate(18,30)" />
<path d="M0 0 C1.0275701 0.97164792 2.036002 1.96524986 3 3 C2.67 3.66 2.34 4.32 2 5 C1.34 4.401875 0.68 3.80375 0 3.1875 C-9.98829084 -4.09562874 -22.84093039 -3.58296796 -34.6875 -2.578125 C-40.2859847 -1.60103097 -45.60247746 0.57400332 -49.64453125 4.6640625 C-51 6 -51 6 -53 6 C-52.44823576 2.13765035 -51.06857668 0.37814693 -48 -2 C-33.61420571 -8.28856772 -13.50457367 -8.76393811 0 0 Z " fill="#98723F" transform="translate(75,27)" />
<path d="M0 0 C0.8125 1.6875 0.8125 1.6875 1 4 C-4.48535543 10.53748133 -11.8949427 12.43673169 -20.16455078 13.19970703 C-28.20925919 13.62367292 -36.2935981 13.52451097 -44 11 C-45.7265625 9.42578125 -45.7265625 9.42578125 -47 8 C-46.34257813 8.0721875 -45.68515625 8.144375 -45.0078125 8.21875 C-31.20059119 9.56579598 -17.64211389 9.69949957 -4 7 C-3.67 5.68 -3.34 4.36 -3 3 C-2.01 3 -1.02 3 0 3 C0 2.01 0 1.02 0 0 Z " fill="#D1BB82" transform="translate(76,33)" />
<path d="M0 0 C1 2 1 2 0.9375 5.1875 C1.06909576 13.21484144 4.25083852 19.66081089 9 26 C11.47926609 28.36073544 14.05467449 30.26204138 17 32 C17.89332031 32.54398438 18.78664063 33.08796875 19.70703125 33.6484375 C23.87274658 35.35820915 27.24408197 35.33701967 31.6875 35.1875 C32.44611328 35.17396484 33.20472656 35.16042969 33.98632812 35.14648438 C35.99113568 35.10932554 37.99561966 35.05562001 40 35 C40.99 35 41.98 35 43 35 C42.835 35.33 42.835 35.33 42 37 C33.32959641 39.89013453 23.87927594 38.51994061 15.7578125 34.67578125 C8.34508735 30.17144826 1.91297701 23.26867464 -1 15 C-2.98394161 4.47591241 -2.98394161 4.47591241 0 0 Z " fill="#4C3611" transform="translate(18,28)" />
<path d="M0 0 C2.97 0.99 5.94 1.98 9 3 C8.54803755 4.60597325 8.08817673 6.20972508 7.625 7.8125 C7.36976562 8.70582031 7.11453125 9.59914063 6.8515625 10.51953125 C6 13 6 13 4 16 C0.375 16.6875 0.375 16.6875 -3 17 C-2.67 15.35 -2.34 13.7 -2 12 C-2.66 11.67 -3.32 11.34 -4 11 C-3.525625 10.67 -3.05125 10.34 -2.5625 10 C-0.14208385 6.90186733 -0.31801083 3.87973208 0 0 Z " fill="#D5CAA5" transform="translate(62,24)" />
<path d="M0 0 C1.125 3.75 1.125 3.75 0 6 C-0.66 6 -1.32 6 -2 6 C-2.33 6.66 -2.66 7.32 -3 8 C-3 7.01 -3 6.02 -3 5 C-2.34 5 -1.68 5 -1 5 C-1.33 4.34 -1.66 3.68 -2 3 C-4.3431213 3.25561323 -6.67843403 3.59270772 -9 4 C-9.33 4.66 -9.66 5.32 -10 6 C-13.22477753 7.17600832 -16.34803656 7.10299956 -19.75 7.0625 C-20.73484375 7.05347656 -21.7196875 7.04445313 -22.734375 7.03515625 C-23.48203125 7.02355469 -24.2296875 7.01195312 -25 7 C-25 6.01 -25 5.02 -25 4 C-20.5264587 1.4524719 -17.06509741 0.56357931 -11.9375 0.3125 C-10.75027344 0.24675781 -9.56304687 0.18101563 -8.33984375 0.11328125 C-5.55566718 0.01884719 -2.78526684 -0.02632577 0 0 Z " fill="#E8DFC2" transform="translate(56,23)" />
<path d="M0 0 C0.165 0.33 0.165 0.33 1 2 C-1.39016363 7.75812147 -4.13647902 10.14702591 -9.5859375 13.0546875 C-14.90693679 15.13831505 -20.41115564 15.20778641 -26.0625 15.25 C-26.40958008 15.2603125 -26.40958008 15.2603125 -28.16601562 15.3125 C-32.61348891 15.34628897 -35.50056428 14.81046299 -39 12 C-39 11.34 -39 10.68 -39 10 C-38.236875 10.309375 -37.47375 10.61875 -36.6875 10.9375 C-32.90891755 12.43135818 -29.98676817 13.15768212 -25.9375 13.1875 C-25.05964844 13.20167969 -24.18179688 13.21585938 -23.27734375 13.23046875 C-21 13 -21 13 -19 11 C-16.85559462 10.22688543 -14.68417405 9.52735287 -12.5 8.875 C-11.3346875 8.52179687 -10.169375 8.16859375 -8.96875 7.8046875 C-6 7 -6 7 -4 7 C-3.67 5.02 -3.34 3.04 -3 1 C-2.01 0.67 -1.02 0.34 0 0 Z " fill="#6B4718" transform="translate(71,47)" />
<path d="M0 0 C1 2 1 2 0.43359375 4.35546875 C-1.70335519 10.43110789 -3.95568847 15.77719064 -9 20 C-9.66 20 -10.32 20 -11 20 C-10.649375 19.236875 -10.29875 18.47375 -9.9375 17.6875 C-9 15 -9 15 -10 12 C-8.75 9.375 -8.75 9.375 -7 7 C-6.01 6.67 -5.02 6.34 -4 6 C-4 5.34 -4 4.68 -4 4 C-3.34 4 -2.68 4 -2 4 C-1.34 2.68 -0.68 1.36 0 0 Z " fill="#654821" transform="translate(81,37)" />
<path d="M0 0 C1.32 0 2.64 0 4 0 C4 0.66 4 1.32 4 2 C4.99 2 5.98 2 7 2 C7 2.66 7 3.32 7 4 C9.64 4.33 12.28 4.66 15 5 C15 5.66 15 6.32 15 7 C9.67099269 8.29188056 4.28305817 8.69057861 -1 7 C-1.04254356 5.00045254 -1.04080783 2.99958364 -1 1 C-0.67 0.67 -0.34 0.34 0 0 Z " fill="#F3F1DE" transform="translate(26,32)" />
<path d="M0 0 C-1.26691507 0.67408308 -2.53870749 1.33900497 -3.8125 2 C-4.52019531 2.37125 -5.22789063 2.7425 -5.95703125 3.125 C-8 4 -8 4 -11 4 C-11 4.66 -11 5.32 -11 6 C-13.34852528 7.17426264 -14.73774065 7.11508173 -17.3515625 7.09765625 C-18.20234375 7.09443359 -19.053125 7.09121094 -19.9296875 7.08789062 C-20.81914063 7.07951172 -21.70859375 7.07113281 -22.625 7.0625 C-23.07359375 7.06024414 -23.07359375 7.06024414 -25.34375 7.04882812 C-27.56256648 7.03702591 -29.78125018 7.02056155 -32 7 C-32 6.67 -32 6.34 -32 6 C-30.35 5.67 -28.7 5.34 -27 5 C-27 4.67 -27 4.34 -27 4 C-26.20078125 3.97421875 -25.4015625 3.9484375 -24.578125 3.921875 C-17.29830044 3.54592162 -11.17265681 2.35770924 -4.36328125 -0.2578125 C-2 -1 -2 -1 0 0 Z " fill="#C49959" transform="translate(70,43)" />
<path d="M0 0 C0.99 0 1.98 0 3 0 C3.36658354 6.47630923 3.36658354 6.47630923 1.6875 8.875 C-1.71846017 11.14564011 -4.72400509 11.10912935 -8.6875 11.0625 C-9.68136719 11.05347656 -10.67523438 11.04445313 -11.69921875 11.03515625 C-12.07884766 11.02935547 -12.07884766 11.02935547 -14 11 C-14 10.67 -14 10.34 -14 10 C-13.37351563 9.89042969 -12.74703125 9.78085937 -12.1015625 9.66796875 C-11.28429688 9.50941406 -10.46703125 9.35085937 -9.625 9.1875 C-8.81289063 9.03667969 -8.00078125 8.88585938 -7.1640625 8.73046875 C-5 8 -5 8 -3 5 C-2.34 5 -1.68 5 -1 5 C-0.67 3.35 -0.34 1.7 0 0 Z " fill="#CBC7A6" transform="translate(57,24)" />
<path d="M0 0 C0.99 0 1.98 0 3 0 C3.474375 1.11375 3.94875 2.2275 4.4375 3.375 C5.25306463 5.26710994 6.07856355 7.15712709 7 9 C6.34 9.66 5.68 10.32 5 11 C6.98 11.99 8.96 12.98 11 14 C9.375 14.8125 9.375 14.8125 7 15 C1.33333333 11 1.33333333 11 0 7 C-0.03954234 4.66700175 -0.04401732 2.33291811 0 0 Z " fill="#D4AA73" transform="translate(18,30)" />
<path d="M0 0 C1.32 0.66 2.64 1.32 4 2 C3.46149601 3.7990245 2.89324145 5.58916264 2.3125 7.375 C1.99925781 8.37273438 1.68601562 9.37046875 1.36328125 10.3984375 C0 13 0 13 -2.45703125 14.3515625 C-5 15 -5 15 -8 15 C-7.875 13.1875 -7.875 13.1875 -7 11 C-5 10 -3 9 -1 8 C0.26842481 5.19134507 0 3.17236841 0 0 Z " fill="#E2D4B2" transform="translate(67,26)" />
<path d="M0 0 C1 2 1 2 0.9375 5.1875 C1.06346891 12.87160363 4.16987899 18.55311693 8 25 C7.01 25 6.02 25 5 25 C-0.11373 19.25023393 -1.71739349 13.07831658 -2.1875 5.56640625 C-2 3 -2 3 0 0 Z " fill="#58411C" transform="translate(18,28)" />
<path d="M0 0 C6.84427372 1.32203275 11.42572973 3.24054453 15.7890625 8.8125 C18.48884624 13.68952869 17.308076 18.76769599 16 24 C14.20600219 20.94535507 13.86583346 19.06441687 14.1875 15.5625 C14.24496657 12.05129243 14.17252865 11.24487938 12.0625 8.25 C8.229609 5.43399845 4.22868437 3.1650127 0 1 C0 0.67 0 0.34 0 0 Z " fill="#62431B" transform="translate(67,19)" />
<path d="M0 0 C0.36351563 0.03029297 0.36351563 0.03029297 2.203125 0.18359375 C2.70585937 0.22548828 2.70585937 0.22548828 5.25 0.4375 C8.65625 0.72135417 12.0625 1.00520833 15.46875 1.2890625 C16.01015625 1.33417969 16.01015625 1.33417969 18.75 1.5625 C19.625 1.63541667 19.625 1.63541667 24 2 C20.39674126 4.24979588 17.31989966 4.29896807 13.125 4.3125 C11.93132813 4.32925781 10.73765625 4.34601562 9.5078125 4.36328125 C5.71420285 3.97040185 3.2774598 2.89932304 0 1 C0 0.67 0 0.34 0 0 Z " fill="#D3C693" transform="translate(29,41)" />
<path d="M0 0 C8.73954048 0.02585663 8.73954048 0.02585663 12.890625 1.1328125 C12.890625 1.4628125 12.890625 1.7928125 12.890625 2.1328125 C10.55899122 2.80539917 8.2254211 3.47128694 5.890625 4.1328125 C5.16875 4.3596875 4.446875 4.5865625 3.703125 4.8203125 C1.43545115 5.21129075 0.01544284 5.01204747 -2.109375 4.1328125 C-2.439375 3.1428125 -2.769375 2.1528125 -3.109375 1.1328125 C-2.109375 0.1328125 -2.109375 0.1328125 0 0 Z " fill="#E1DBC2" transform="translate(35.109375,31.8671875)" />
<path d="M0 0 C-6.65738822 3.62827658 -12.34167083 6.70544888 -20 7 C-19.34 6.67 -18.68 6.34 -18 6 C-18 5.34 -18 4.68 -18 4 C-15.47426249 2.91754107 -13.14040604 2.0273963 -10.4375 1.5 C-8 1 -8 1 -5.9375 -0.125 C-3.51199432 -1.22038966 -2.48774391 -0.73442752 0 0 Z " fill="#BB9053" transform="translate(77,43)" />
<path d="M0 0 C6.37596465 -0.55443171 11.32894525 1.08063964 17 4 C19.625 6.25 19.625 6.25 21 8 C20.67 8.66 20.34 9.32 20 10 C19.38125 9.4225 18.7625 8.845 18.125 8.25 C12.69025919 4.33698662 6.57439235 2.16225865 0 1 C0 0.67 0 0.34 0 0 Z " fill="#946F3A" transform="translate(57,22)" />
<path d="M0 0 C1 2 1 2 0.36328125 4.49609375 C0.01652344 5.46675781 -0.33023438 6.43742187 -0.6875 7.4375 C-0.85443359 7.92154297 -0.85443359 7.92154297 -1.69921875 10.37109375 C-3.10053695 13.2031873 -4.34664228 14.35212521 -7 16 C-6.67 15.05125 -6.34 14.1025 -6 13.125 C-5 10 -5 10 -5 8 C-5.66 7.67 -6.32 7.34 -7 7 C-6.01 6.67 -5.02 6.34 -4 6 C-4 5.34 -4 4.68 -4 4 C-3.34 4 -2.68 4 -2 4 C-1.34 2.68 -0.68 1.36 0 0 Z " fill="#796140" transform="translate(81,37)" />
<path d="M0 0 C6.33393082 -0.34548714 11.10261508 0.70657253 17 3 C17 3.33 17 3.66 17 4 C10.66606918 4.34548714 5.89738492 3.29342747 0 1 C0 0.67 0 0.34 0 0 Z " fill="#CFA36A" transform="translate(48,18)" />
<path d="M0 0 C0.66 0.33 1.32 0.66 2 1 C1.67 1.66 1.34 2.32 1 3 C2.32 3.33 3.64 3.66 5 4 C4.67 4.66 4.34 5.32 4 6 C3.34 6 2.68 6 2 6 C2 5.34 2 4.68 2 4 C0.68 4.33 -0.64 4.66 -2 5 C-2.33 6.65 -2.66 8.3 -3 10 C-3.66 9.67 -4.32 9.34 -5 9 C-4.5206753 4.68607774 -3.2542015 2.83430453 0 0 Z " fill="#F1E6CE" transform="translate(28,28)" />
<path d="M0 0 C1.32 0 2.64 0 4 0 C4 0.66 4 1.32 4 2 C4.825 2.33 4.825 2.33 9 4 C5.79937313 5.60031344 3.27728194 4.03173691 0 3 C0 2.01 0 1.02 0 0 Z " fill="#C9A56F" transform="translate(23,39)" />
<path d="M0 0 C0.66 0 1.32 0 2 0 C3.06351675 3.38391693 3.21442982 4.5804634 1.5625 7.8125 C1.046875 8.534375 0.53125 9.25625 0 10 C-1.231394 6.30581799 -0.64432764 3.7943739 0 0 Z " fill="#EEE1BD" transform="translate(60,24)" />
<path d="M0 0 C0 0.66 0 1.32 0 2 C-3.63 2.33 -7.26 2.66 -11 3 C-8.89427904 -1.21144191 -4.11694326 -0.07767817 0 0 Z " fill="#C8A16B" transform="translate(42,19)" />
<path d="M0 0 C1.98 0.99 3.96 1.98 6 3 C5.01 4.32 4.02 5.64 3 7 C1.68 5.02 0.36 3.04 -1 1 C-0.67 0.67 -0.34 0.34 0 0 Z " fill="#996629" transform="translate(24,44)" />
<path d="M0 0 C0.66 0 1.32 0 2 0 C2.36923077 6.52307692 2.36923077 6.52307692 0.5 8.9375 C0.005 9.288125 -0.49 9.63875 -1 10 C-1.99 9.67 -2.98 9.34 -4 9 C-3.34 9 -2.68 9 -2 9 C-0.14223235 5.86501708 0.20140476 3.62528568 0 0 Z " fill="#CEC29C" transform="translate(58,24)" />
<path d="M0 0 C2.31 0 4.62 0 7 0 C7 0.66 7 1.32 7 2 C3.52674819 3.1577506 0.63932552 3.06866652 -3 3 C-2.01 2.67 -1.02 2.34 0 2 C0 1.34 0 0.68 0 0 Z " fill="#FBF3D9" transform="translate(37,25)" />
<path d="M0 0 C2.75 -0.25 2.75 -0.25 6 0 C8.375 2 8.375 2 10 4 C3.47692308 3.38461538 3.47692308 3.38461538 1.0625 1.4375 C0.711875 0.963125 0.36125 0.48875 0 0 Z " fill="#D3BD89" transform="translate(29,41)" />
<path d="M0 0 C1.69141656 0.08963062 3.37959602 0.24577676 5.0625 0.4375 C5.52205078 0.48841797 5.52205078 0.48841797 7.84765625 0.74609375 C8.55792969 0.82988281 9.26820312 0.91367187 10 1 C10 1.33 10 1.66 10 2 C8.54364629 2.22174933 7.08477044 2.42698698 5.625 2.625 C4.81289063 2.74101563 4.00078125 2.85703125 3.1640625 2.9765625 C2.44992188 2.98429687 1.73578125 2.99203125 1 3 C0.34 2.34 -0.32 1.68 -1 1 C-0.67 0.67 -0.34 0.34 0 0 Z " fill="#D9D5B3" transform="translate(38,32)" />
<path d="M0 0 C0 0.66 0 1.32 0 2 C-2.64 2.33 -5.28 2.66 -8 3 C-8 2.01 -8 1.02 -8 0 C-4.71303767 -0.79953138 -3.28976808 -1.09658936 0 0 Z " fill="#F1EED5" transform="translate(55,26)" />
<path d="M0 0 C-3.00617269 3.00617269 -5.82381598 2.59585316 -10 3 C-9.34 2.67 -8.68 2.34 -8 2 C-8 1.34 -8 0.68 -8 0 C-4.71023192 -1.09658936 -3.28696233 -0.79953138 0 0 Z " fill="#B6864C" transform="translate(67,47)" />
<path d="M0 0 C0.66 0.66 1.32 1.32 2 2 C1.9375 4 1.9375 4 1 6 C-1.5625 7.25 -1.5625 7.25 -4 8 C-3.67 7.01 -3.34 6.02 -3 5 C-2.34 5 -1.68 5 -1 5 C-0.67 3.35 -0.34 1.7 0 0 Z " fill="#D9CCA8" transform="translate(57,24)" />
<path d="M0 0 C0.625 1.8125 0.625 1.8125 1 4 C0.67 4.495 0.67 4.495 -1 7 C-1.99 7 -2.98 7 -4 7 C-3.67 5.68 -3.34 4.36 -3 3 C-2.01 3 -1.02 3 0 3 C0 2.01 0 1.02 0 0 Z " fill="#CEC088" transform="translate(76,33)" />
<path d="M0 0 C0.33 0 0.66 0 1 0 C1.1875 3.375 1.1875 3.375 1 7 C0.505 7.33 0.505 7.33 -2 9 C-1.125 1.125 -1.125 1.125 0 0 Z " fill="#BD8E57" transform="translate(81,30)" />
<path d="M0 0 C3.37503669 1.1858237 5.64722731 2.27573689 8 5 C7.67 5.66 7.34 6.32 7 7 C5.83040013 6.02433888 4.66438823 5.044375 3.5 4.0625 C2.8503125 3.51722656 2.200625 2.97195312 1.53125 2.41015625 C1.0259375 1.94480469 0.520625 1.47945312 0 1 C0 0.67 0 0.34 0 0 Z " fill="#7F622E" transform="translate(70,25)" />
<path d="M0 0 C-3.18762365 2.12508244 -5.26512223 2.5020163 -9 3 C-9 2.01 -9 1.02 -9 0 C-5.52176885 -1.15941038 -3.54104422 -0.70820884 0 0 Z " fill="#C39155" transform="translate(36,22)" />
<path d="M0 0 C1 2 1 2 0.0625 5.125 C-0.288125 6.07375 -0.63875 7.0225 -1 8 C-1.33 7.34 -1.66 6.68 -2 6 C-2.66 6 -3.32 6 -4 6 C-4 5.34 -4 4.68 -4 4 C-3.34 4 -2.68 4 -2 4 C-1.34 2.68 -0.68 1.36 0 0 Z " fill="#916C42" transform="translate(81,37)" />
</svg>