<?xml version='1.0' encoding='utf-8'?>
<svg xmlns="http://www.w3.org/2000/svg" version="1.1" width="88" height="90">
<path d="M0 0 C6.80105627 0.2671446 13.73521854 1.05629517 18.625 6.0625 C20.22181748 9.90937847 21.49965782 13.1762625 21 17.375 C19.70953246 20.06262727 18.17225459 22.32449419 16 24.375 C15.34 24.375 14.68 24.375 14 24.375 C13.87238281 24.73916016 13.87238281 24.73916016 13.2265625 26.58203125 C11.92968387 29.53511477 10.43030953 31.58548353 8.375 34.0625 C7.66601562 34.92617188 6.95703125 35.78984375 6.2265625 36.6796875 C5.49179687 37.56914063 4.75703125 38.45859375 4 39.375 C2.58021018 41.14333029 1.1634364 42.91408728 -0.25 44.6875 C-1.5 46.25 -2.75 47.8125 -4 49.375 C-4.69609375 50.29667969 -5.3921875 51.21835938 -6.109375 52.16796875 C-6.73328125 52.89628906 -7.3571875 53.62460938 -8 54.375 C-8.66 54.375 -9.32 54.375 -10 54.375 C-10 53.715 -10 53.055 -10 52.375 C-10.66 52.375 -11.32 52.375 -12 52.375 C-12.06638672 51.92318359 -12.06638672 51.92318359 -12.40234375 49.63671875 C-12.57894531 48.45722656 -12.75554688 47.27773437 -12.9375 46.0625 C-13.11152344 44.89074219 -13.28554688 43.71898437 -13.46484375 42.51171875 C-14 39.375 -14 39.375 -15 36.375 C-17.4706347 35.38143927 -19.83152521 34.56183226 -22.375 33.8125 C-29.66188525 31.60040984 -29.66188525 31.60040984 -33 29.375 C-31.73351874 25.56269854 -30.61310748 23.70706057 -27.3125 21.4375 C-22.60373398 17.9731387 -18.37636811 14.12457166 -14.125 10.125 C-13.47055908 9.51019775 -12.81611816 8.89539551 -12.1418457 8.26196289 C-7.32736333 3.71949222 -7.32736333 3.71949222 -5.41357422 1.70556641 C-3.55233449 -0.04637772 -2.52789065 -0.02788115 0 0 Z " fill="#F3DE5F" transform="translate(50,17.625)" />
<path d="M0 0 C0.66 0.33 1.32 0.66 2 1 C0.75323147 2.27400377 -0.4975648 3.54406654 -1.75 4.8125 C-2.44609375 5.52019531 -3.1421875 6.22789063 -3.859375 6.95703125 C-9.14340344 12 -9.14340344 12 -12 12 C-12.33 13.65 -12.66 15.3 -13 17 C-12.11957031 17.33773437 -11.23914062 17.67546875 -10.33203125 18.0234375 C-9.17058594 18.46945313 -8.00914063 18.91546875 -6.8125 19.375 C-5.66394531 19.81585938 -4.51539062 20.25671875 -3.33203125 20.7109375 C-2.23246094 21.13632812 -1.13289063 21.56171875 0 22 C0.9384375 22.33257812 1.876875 22.66515625 2.84375 23.0078125 C5 24 5 24 6.3125 26.5 C7.20449646 31.04107288 7.16402391 35.38910559 7 40 C7.66 40 8.32 40 9 40 C9 40.66 9 41.32 9 42 C12.85955925 38.25333462 16.36619254 34.31478678 19.8125 30.1875 C20.31458984 29.59001953 20.81667969 28.99253906 21.33398438 28.37695312 C22.55806732 26.91971152 23.77932962 25.46010135 25 24 C25 28.16555636 22.74522819 30.26297383 20.25 33.375 C19.8065625 33.93960938 19.363125 34.50421875 18.90625 35.0859375 C18.02629854 36.20399347 17.13506894 37.31327141 16.23242188 38.41308594 C15 40 15 40 13.234375 42.9765625 C11 45 11 45 9.05859375 45.20214844 C3.40580366 44.75549015 -1.59601716 42.88044999 -6.75 40.625 C-7.47832031 40.32078125 -8.20664062 40.0165625 -8.95703125 39.703125 C-12.80045152 38.07089207 -16.59949447 36.45122483 -20 34 C-21.53651474 28.77584987 -21.08781436 23.99550103 -19 19 C-16.47115327 14.77220671 -13.52382275 11.2750465 -9.6875 8.1875 C-7 6 -7 6 -6 3 C-3.5 1.875 -3.5 1.875 -1 1 C-0.67 0.67 -0.34 0.34 0 0 Z " fill="#8A5A04" transform="translate(31,30)" />
<path d="M0 0 C3.82137085 3.43923376 5.508075 6.32955001 6.4375 11.375 C5.79159525 15.25042851 3.69259642 18.16869407 1 21 C0.34 21 -0.32 21 -1 21 C-1.12761719 21.36416016 -1.12761719 21.36416016 -1.7734375 23.20703125 C-3.07031613 26.16011477 -4.56969047 28.21048353 -6.625 30.6875 C-7.33398438 31.55117188 -8.04296875 32.41484375 -8.7734375 33.3046875 C-9.50820313 34.19414063 -10.24296875 35.08359375 -11 36 C-12.41978982 37.76833029 -13.8365636 39.53908728 -15.25 41.3125 C-16.5 42.875 -17.75 44.4375 -19 46 C-19.69609375 46.92167969 -20.3921875 47.84335938 -21.109375 48.79296875 C-21.73328125 49.52128906 -22.3571875 50.24960938 -23 51 C-23.66 51 -24.32 51 -25 51 C-25 50.34 -25 49.68 -25 49 C-25.66 49 -26.32 49 -27 49 C-27 46.36 -27 43.72 -27 41 C-26.67 41 -26.34 41 -26 41 C-25.87625 41.969375 -25.7525 42.93875 -25.625 43.9375 C-25.41875 44.948125 -25.2125 45.95875 -25 47 C-24.34 47.33 -23.68 47.66 -23 48 C-22.855625 46.88625 -22.71125 45.7725 -22.5625 44.625 C-22 41 -22 41 -21 39 C-20.34 39 -19.68 39 -19 39 C-19.33 38.34 -19.66 37.68 -20 37 C-20.13415472 34.3276379 -20.04318541 31.67749512 -20 29 C-19.01 28.67 -18.02 28.34 -17 28 C-17.28101563 27.30648437 -17.56203125 26.61296875 -17.8515625 25.8984375 C-18 23 -18 23 -15.6484375 19.9140625 C-14.57209545 18.8031712 -13.48017848 17.7072071 -12.375 16.625 C-2.08781741 6.26345224 -2.08781741 6.26345224 0 0 Z " fill="#CE9F0D" transform="translate(65,21)" />
<path d="M0 0 C0.165 0.33 0.165 0.33 1 2 C0.34 2.99 -0.32 3.98 -1 5 C-1.66 5 -2.32 5 -3 5 C-3.26167969 5.58910156 -3.52335937 6.17820312 -3.79296875 6.78515625 C-5.0642275 9.11785434 -6.40230531 10.60354368 -8.3125 12.4375 C-8.93382813 13.04078125 -9.55515625 13.6440625 -10.1953125 14.265625 C-10.49308594 14.55179688 -10.49308594 14.55179688 -12 16 C-12.886875 16.886875 -13.77375 17.77375 -14.6875 18.6875 C-15.450625 19.450625 -16.21375 20.21375 -17 21 C-17.598125 21.78375 -18.19625 22.5675 -18.8125 23.375 C-21 25 -21 25 -24.75 24.9375 C-29.05376139 24.1608814 -32.96380524 22.65772285 -37 21 C-37 20.34 -37 19.68 -37 19 C-36.01 19 -35.02 19 -34 19 C-34 18.34 -34 17.68 -34 17 C-33.32453125 16.81824219 -32.6490625 16.63648437 -31.953125 16.44921875 C-31.06109375 16.19785156 -30.1690625 15.94648437 -29.25 15.6875 C-28.80914063 15.56568359 -28.80914063 15.56568359 -26.578125 14.94921875 C-23.94227495 13.97874669 -22.14592674 12.78994356 -20 11 C-20.33 10.34 -20.66 9.68 -21 9 C-19.68 9 -18.36 9 -17 9 C-16.67 7.35 -16.34 5.7 -16 4 C-13.69 4.33 -11.38 4.66 -9 5 C-8.67 4.01 -8.34 3.02 -8 2 C-6.68 2 -5.36 2 -4 2 C-1.75 1 -1.75 1 0 0 Z " fill="#E2B70E" transform="translate(59,26)" />
<path d="M0 0 C0.66 0.33 1.32 0.66 2 1 C0.75323147 2.27400377 -0.4975648 3.54406654 -1.75 4.8125 C-2.44609375 5.52019531 -3.1421875 6.22789063 -3.859375 6.95703125 C-9.14340344 12 -9.14340344 12 -12 12 C-12.33 12.99 -12.66 13.98 -13 15 C-13.66 15 -14.32 15 -15 15 C-14.690625 15.61875 -14.38125 16.2375 -14.0625 16.875 C-13.375 18.25 -12.6875 19.625 -12 21 C-9.93359375 21.8515625 -9.93359375 21.8515625 -7.4375 22.625 C-6.61121094 22.88539062 -5.78492188 23.14578125 -4.93359375 23.4140625 C-4.29550781 23.60742188 -3.65742188 23.80078125 -3 24 C-3.66 24.66 -4.32 25.32 -5 26 C-7.25 25.6875 -7.25 25.6875 -10 25 C-11.03125 24.835 -12.0625 24.67 -13.125 24.5 C-16 24 -16 24 -19 23 C-19 25.97 -19 28.94 -19 32 C-18.154375 32.2475 -17.30875 32.495 -16.4375 32.75 C-13.41131366 33.8504314 -10.94717519 35.21258088 -8.1953125 36.84765625 C-2.25056702 39.96811874 4.24826264 43 11 43 C11.185625 42.34 11.37125 41.68 11.5625 41 C13.63616219 36.67235716 16.79336403 33.53005205 20 30 C21.68652388 28.01560747 23.34264192 26.00891889 25 24 C25 28.16555636 22.74522819 30.26297383 20.25 33.375 C19.8065625 33.93960938 19.363125 34.50421875 18.90625 35.0859375 C18.02629854 36.20399347 17.13506894 37.31327141 16.23242188 38.41308594 C15 40 15 40 13.234375 42.9765625 C11 45 11 45 9.05859375 45.20214844 C3.40580366 44.75549015 -1.59601716 42.88044999 -6.75 40.625 C-7.47832031 40.32078125 -8.20664062 40.0165625 -8.95703125 39.703125 C-12.80045152 38.07089207 -16.59949447 36.45122483 -20 34 C-21.53651474 28.77584987 -21.08781436 23.99550103 -19 19 C-16.47115327 14.77220671 -13.52382275 11.2750465 -9.6875 8.1875 C-7 6 -7 6 -6 3 C-3.5 1.875 -3.5 1.875 -1 1 C-0.67 0.67 -0.34 0.34 0 0 Z " fill="#664E15" transform="translate(31,30)" />
<path d="M0 0 C1.32 0.66 2.64 1.32 4 2 C2.46738139 7.02890482 -0.58431423 10.33276972 -4 14.1875 C-4.27328125 14.50170898 -4.27328125 14.50170898 -5.65625 16.09179688 C-7.72048458 18.45706567 -9.77951445 20.77951445 -12 23 C-12.125 25.625 -12.125 25.625 -12 28 C-12.66 28.33 -13.32 28.66 -14 29 C-14 32.3 -14 35.6 -14 39 C-14.66 39 -15.32 39 -16 39 C-16.66 41.97 -17.32 44.94 -18 48 C-18.99 47.67 -19.98 47.34 -21 47 C-20.93950287 44.62246262 -20.85232887 42.25080939 -20.75 39.875 C-20.73582031 39.20984375 -20.72164062 38.5446875 -20.70703125 37.859375 C-20.45836592 32.78660221 -18.93363557 30.04841709 -16 26 C-16 25.01 -16 24.02 -16 23 C-15.34 23 -14.68 23 -14 23 C-13.73960938 22.41089844 -13.47921875 21.82179688 -13.2109375 21.21484375 C-11.92577526 18.86424056 -10.56513183 17.39672944 -8.625 15.5625 C-5.83854727 12.86330571 -3.34766619 10.09891937 -1 7 C-1.33 7 -1.66 7 -2 7 C-2.99 7 -3.98 7 -5 7 C-5.33 7.99 -5.66 8.98 -6 10 C-6.33 9.34 -6.66 8.68 -7 8 C-9 8 -9 8 -10.625 9.5 C-11.07875 9.995 -11.5325 10.49 -12 11 C-12.99 10.67 -13.98 10.34 -15 10 C-15 8.35 -15 6.7 -15 5 C-12.36 5.33 -9.72 5.66 -7 6 C-7 5.34 -7 4.68 -7 4 C-6.21625 3.71125 -5.4325 3.4225 -4.625 3.125 C-2 2 -2 2 0 0 Z " fill="#F7DC4B" transform="translate(60,21)" />
<path d="M0 0 C3.82137085 3.43923376 5.508075 6.32955001 6.4375 11.375 C5.79159525 15.25042851 3.69259642 18.16869407 1 21 C0.34 21 -0.32 21 -1 21 C-1.25007813 21.72058594 -1.50015625 22.44117187 -1.7578125 23.18359375 C-3.11359912 26.25756279 -4.74910787 28.46730715 -6.875 31.0625 C-7.55304687 31.89910156 -8.23109375 32.73570313 -8.9296875 33.59765625 C-10.8640174 35.84220887 -12.87489846 37.93684088 -15 40 C-15 38.68 -15 37.36 -15 36 C-14.505 35.835 -14.505 35.835 -12 35 C-12 34.34 -12 33.68 -12 33 C-11.34 33 -10.68 33 -10 33 C-8.98486076 30.98776845 -7.98724924 28.97264007 -7.03515625 26.9296875 C-6.87466797 26.59066406 -6.87466797 26.59066406 -6.0625 24.875 C-5.74410156 24.19179688 -5.42570312 23.50859375 -5.09765625 22.8046875 C-4 21 -4 21 -1 19 C0.1875 15.375 0.1875 15.375 1 12 C-2.11592499 10.96135834 -3.0262656 10.90963072 -6 12 C-6.33 12.66 -6.66 13.32 -7 14 C-7 10.41628085 -6.25521663 9.72412796 -4.0625 7 C-2.09824167 4.54815981 -1.00664658 3.01993973 0 0 Z " fill="#AD8112" transform="translate(65,21)" />
<path d="M0 0 C4.3112379 0.64871291 8.38624688 1.93492062 12.4921875 3.375 C12.1621875 4.695 11.8321875 6.015 11.4921875 7.375 C10.8321875 6.715 10.1721875 6.055 9.4921875 5.375 C6.4921875 5.375 6.4921875 5.375 3.4921875 7.375 C0.96875 7.46484375 0.96875 7.46484375 -1.8828125 7.3125 C-6.3626473 7.21189605 -8.86894489 7.55781217 -12.5078125 10.375 C-13.1678125 10.375 -13.8278125 10.375 -14.5078125 10.375 C-14.5078125 11.035 -14.5078125 11.695 -14.5078125 12.375 C-15.1678125 12.375 -15.8278125 12.375 -16.5078125 12.375 C-16.5696875 12.973125 -16.6315625 13.57125 -16.6953125 14.1875 C-17.85642278 17.31356613 -19.57404269 17.9081151 -22.5078125 19.375 C-24.16150607 20.07322617 -25.82508264 20.74998605 -27.5078125 21.375 C-23.33430403 16.21302899 -18.8269001 11.82325706 -13.8203125 7.46484375 C-11.5078125 5.375 -11.5078125 5.375 -8.9453125 2.3125 C-5.82252101 -0.16971887 -3.90328858 -0.21027817 0 0 Z " fill="#F4EA6F" transform="translate(52.5078125,17.625)" />
<path d="M0 0 C-0.66 2.31 -1.32 4.62 -2 7 C-1.01 7.99 -0.02 8.98 1 10 C0.67 10.495 0.67 10.495 -1 13 C-2.59495412 15.62698326 -3.00655755 17.1136642 -3.1875 20.25 C-4.29871407 25.37868034 -7.11287462 28.54377997 -11 32 C-11.66 32 -12.32 32 -13 32 C-13 31.34 -13 30.68 -13 30 C-13.66 30 -14.32 30 -15 30 C-15 27.36 -15 24.72 -15 22 C-14.67 22 -14.34 22 -14 22 C-13.87625 22.969375 -13.7525 23.93875 -13.625 24.9375 C-13.41875 25.948125 -13.2125 26.95875 -13 28 C-12.34 28.33 -11.68 28.66 -11 29 C-10.855625 27.88625 -10.71125 26.7725 -10.5625 25.625 C-10 22 -10 22 -9 20 C-8.34 20 -7.68 20 -7 20 C-7.33 19.34 -7.66 18.68 -8 18 C-8.13415472 15.3276379 -8.04318541 12.67749512 -8 10 C-7.01 9.67 -6.02 9.34 -5 9 C-5.2475 8.2575 -5.495 7.515 -5.75 6.75 C-6 4 -6 4 -4.1875 1.6875 C-2 0 -2 0 0 0 Z " fill="#D6AA15" transform="translate(53,40)" />
<path d="M0 0 C3.95674215 1.49084392 6.02138346 2.9127009 8.0625 6.75 C9.51315242 10.77573398 10.62726306 14.63213854 9.5 18.859375 C8.49679568 20.949384 7.34144033 22.81663114 6.0625 24.75 C5.60101563 25.55050781 5.13953125 26.35101563 4.6640625 27.17578125 C2.29258477 31.10942288 0.93466945 33.34621785 -3.3125 35.3125 C-4.17875 35.456875 -5.045 35.60125 -5.9375 35.75 C-3.78912939 29.30488817 0.23188304 24.41404396 5.0625 19.75 C7.35763937 16.30729095 7.19244447 14.73529288 6.51171875 10.74609375 C5.8085581 7.62161469 5.34138759 6.0959137 3.0625 3.75 C-0.52931535 2.25541911 -4.11750203 1.44314479 -7.9375 0.75 C-8.7315625 0.58628906 -9.525625 0.42257813 -10.34375 0.25390625 C-14.39432704 -0.20962809 -16.23448479 0.19617428 -19.49609375 2.765625 C-21.76166132 5.01352043 -23.88640091 7.30613726 -25.9375 9.75 C-26.5975 9.42 -27.2575 9.09 -27.9375 8.75 C-26.31557179 7.10113941 -24.68986228 5.4559976 -23.0625 3.8125 C-22.15757813 2.89597656 -21.25265625 1.97945312 -20.3203125 1.03515625 C-14.78096801 -4.27716592 -6.87664434 -2.01044751 0 0 Z " fill="#63500E" transform="translate(62.9375,18.25)" />
<path d="M0 0 C0.66 1.32 1.32 2.64 2 4 C1.67 4.165 1.67 4.165 0 5 C0 8.3 0 11.6 0 15 C-0.66 15 -1.32 15 -2 15 C-2.66 17.97 -3.32 20.94 -4 24 C-4.99 23.67 -5.98 23.34 -7 23 C-6.93950287 20.62246262 -6.85232887 18.25080939 -6.75 15.875 C-6.73582031 15.20984375 -6.72164062 14.5446875 -6.70703125 13.859375 C-6.41100167 7.82037165 -4.20327127 4.20327127 0 0 Z " fill="#E8CC35" transform="translate(46,45)" />
<path d="M0 0 C0.33 0.66 0.66 1.32 1 2 C0.67 2.495 0.67 2.495 -1 5 C-1.66 5 -2.32 5 -3 5 C-3.33 5.99 -3.66 6.98 -4 8 C-8.81087497 9.54926482 -12.91996441 10.25400178 -18 10 C-17.34 8.02 -16.68 6.04 -16 4 C-13.69 4.33 -11.38 4.66 -9 5 C-8.67 4.01 -8.34 3.02 -8 2 C-6.68 2 -5.36 2 -4 2 C-1.75 1 -1.75 1 0 0 Z " fill="#F1CF2D" transform="translate(59,26)" />
<path d="M0 0 C0 4.90920054 -3.70636572 7.60386673 -7 11 C-11.5 15 -11.5 15 -14 15 C-14 14.34 -14 13.68 -14 13 C-15.32 12.67 -16.64 12.34 -18 12 C-16.625 10.5 -16.625 10.5 -15 9 C-14.34 9 -13.68 9 -13 9 C-13 8.34 -13 7.68 -13 7 C-11.35 6.67 -9.7 6.34 -8 6 C-8 5.34 -8 4.68 -8 4 C-6.68 4.33 -5.36 4.66 -4 5 C-3.67 4.01 -3.34 3.02 -3 2 C-2.01 1.34 -1.02 0.68 0 0 Z " fill="#D9AB09" transform="translate(53,33)" />
<path d="M0 0 C2.32198659 1.74148994 3.85164767 3.02511328 4.30078125 5.9765625 C4.31669544 8.89416368 4.32126009 11.35747982 3 14 C2.34 14 1.68 14 1 14 C0.67 13.01 0.34 12.02 0 11 C-2.9375 11.375 -2.9375 11.375 -6 12 C-6.33 12.66 -6.66 13.32 -7 14 C-7 10.41628085 -6.25521663 9.72412796 -4.0625 7 C-2.09824167 4.54815981 -1.00664658 3.01993973 0 0 Z " fill="#BD900B" transform="translate(65,21)" />
<path d="M0 0 C0.40412109 0.00451172 0.40412109 0.00451172 2.44921875 0.02734375 C2.75666016 0.03314453 2.75666016 0.03314453 4.3125 0.0625 C3.9825 1.0525 3.6525 2.0425 3.3125 3.0625 C-2.4375 3.1875 -2.4375 3.1875 -4.6875 2.0625 C-4.6875 2.7225 -4.6875 3.3825 -4.6875 4.0625 C-4.0275 4.3925 -3.3675 4.7225 -2.6875 5.0625 C-6.66938718 6.78017682 -10.65229403 8.47287341 -14.6875 10.0625 C-14.3575 8.7425 -14.0275 7.4225 -13.6875 6.0625 C-13.0275 6.0625 -12.3675 6.0625 -11.6875 6.0625 C-11.6875 5.4025 -11.6875 4.7425 -11.6875 4.0625 C-7.93595871 0.82841268 -4.88943307 -0.07086135 0 0 Z " fill="#EDDE58" transform="translate(49.6875,23.9375)" />
<path d="M0 0 C0.33 0 0.66 0 1 0 C1 3.3 1 6.6 1 10 C1.66 10 2.32 10 3 10 C3 10.66 3 11.32 3 12 C3.66 12.33 4.32 12.66 5 13 C2.19966161 14.11346788 1.09856297 14.03510273 -1.796875 13.00390625 C-2.77140625 12.52824219 -3.7459375 12.05257812 -4.75 11.5625 C-5.73484375 11.08941406 -6.7196875 10.61632812 -7.734375 10.12890625 C-8.48203125 9.75636719 -9.2296875 9.38382813 -10 9 C-9.34 8.67 -8.68 8.34 -8 8 C-8 7.01 -8 6.02 -8 5 C-7.34 5 -6.68 5 -6 5 C-6 6.32 -6 7.64 -6 9 C-4.68 8.67 -3.36 8.34 -2 8 C-1.34 5.36 -0.68 2.72 0 0 Z " fill="#95660B" transform="translate(37,60)" />
<path d="M0 0 C0.33 0.99 0.66 1.98 1 3 C-0.109375 4.9375 -0.109375 4.9375 -1.75 7 C-2.28109375 7.680625 -2.8121875 8.36125 -3.359375 9.0625 C-7.7694562 14.2705959 -7.7694562 14.2705959 -12 15 C-10.10280671 9.30842012 -7.1475846 4.47944717 -2.1875 1.0625 C-1.8265625 0.8871875 -1.8265625 0.8871875 0 0 Z " fill="#786241" transform="translate(69,39)" />
<path d="M0 0 C-1.875 5.875 -1.875 5.875 -3 7 C-3.3931648 8.67884238 -3.74085452 10.36850045 -4.0625 12.0625 C-4.15080078 12.52205078 -4.15080078 12.52205078 -4.59765625 14.84765625 C-4.66404297 15.20279297 -4.66404297 15.20279297 -5 17 C-5.99 17.33 -6.98 17.66 -8 18 C-8 15.36 -8 12.72 -8 10 C-7.01 9.67 -6.02 9.34 -5 9 C-5.2475 8.2575 -5.495 7.515 -5.75 6.75 C-6 4 -6 4 -4.1875 1.6875 C-2 0 -2 0 0 0 Z " fill="#DFB523" transform="translate(53,40)" />
<path d="M0 0 C1.65 0.33 3.3 0.66 5 1 C5 1.66 5 2.32 5 3 C7.97 3.99 10.94 4.98 14 6 C13.34 6.66 12.68 7.32 12 8 C9.75 7.6875 9.75 7.6875 7 7 C5.948125 6.835 4.89625 6.67 3.8125 6.5 C1 6 1 6 -1 5 C-0.67 3.35 -0.34 1.7 0 0 Z " fill="#744802" transform="translate(14,48)" />
<path d="M0 0 C0.99 0.33 1.98 0.66 3 1 C2.6803125 1.37125 2.6803125 1.37125 1.0625 3.25 C-2.12829467 7.91780563 -1.82287654 13.52688507 -2 19 C-4.60925548 15.08611678 -5.08208061 11.67038675 -5 7 C-3.64913319 3.97663142 -2.32414606 2.32414606 0 0 Z " fill="#FBEB6A" transform="translate(42,46)" />
<path d="M0 0 C0.33 0.99 0.66 1.98 1 3 C0.01 3.33 -0.98 3.66 -2 4 C-2 4.66 -2 5.32 -2 6 C-2.66 6 -3.32 6 -4 6 C-4.061875 6.598125 -4.12375 7.19625 -4.1875 7.8125 C-5.34861028 10.93856613 -7.06623019 11.5331151 -10 13 C-11.65369357 13.69822617 -13.31727014 14.37498605 -15 15 C-10.45200375 9.40246616 -5.47668152 4.6856053 0 0 Z " fill="#F2E676" transform="translate(40,24)" />
<path d="M0 0 C1.32 0.66 2.64 1.32 4 2 C-0.44404597 5.62107449 -4.21434368 7.33060893 -10 7 C-10 7.66 -10 8.32 -10 9 C-11.65 9.33 -13.3 9.66 -15 10 C-14.67 9.34 -14.34 8.68 -14 8 C-13.34 8 -12.68 8 -12 8 C-11.67 7.01 -11.34 6.02 -11 5 C-9.2578125 4.375 -9.2578125 4.375 -7.125 4 C-3.90956149 3.32003272 -2.01180194 2.76622767 0 0 Z " fill="#F7D22B" transform="translate(35,36)" />
<path d="M0 0 C0.33 0.66 0.66 1.32 1 2 C-0.28419041 3.67243402 -1.57757185 5.33781447 -2.875 7 C-3.59429687 7.928125 -4.31359375 8.85625 -5.0546875 9.8125 C-5.69664063 10.534375 -6.33859375 11.25625 -7 12 C-7.66 12 -8.32 12 -9 12 C-9 11.34 -9 10.68 -9 10 C-9.66 10 -10.32 10 -11 10 C-11 7.36 -11 4.72 -11 2 C-10.67 2 -10.34 2 -10 2 C-9.87625 2.969375 -9.7525 3.93875 -9.625 4.9375 C-9.41875 5.948125 -9.2125 6.95875 -9 8 C-8.34 8.33 -7.68 8.66 -7 9 C-7 8.01 -7 7.02 -7 6 C-5.46875 4.39453125 -5.46875 4.39453125 -3.5 2.8125 C-2.8503125 2.28269531 -2.200625 1.75289062 -1.53125 1.20703125 C-1.27859375 1.00787109 -1.27859375 1.00787109 0 0 Z " fill="#C9A221" transform="translate(49,60)" />
<path d="M0 0 C0.66 0.33 1.32 0.66 2 1 C2 2.32 2 3.64 2 5 C1.34 5.66 0.68 6.32 0 7 C-0.3815625 6.979375 -0.3815625 6.979375 -2.3125 6.875 C-5.91502838 7.04255946 -7.26654728 8.77007805 -10 11 C-10.99 10.67 -11.98 10.34 -13 10 C-9.17369159 6.49346952 -5.9585253 3.75006775 -1 2 C-0.67 1.34 -0.34 0.68 0 0 Z " fill="#F3DE41" transform="translate(40,30)" />
<path d="M0 0 C0.99 0.165 0.99 0.165 6 1 C5.67 1.66 5.34 2.32 5 3 C4.01 3 3.02 3 2 3 C1.67 3.99 1.34 4.98 1 6 C0.67 5.34 0.34 4.68 0 4 C-2 4 -2 4 -3.625 5.5 C-4.07875 5.995 -4.5325 6.49 -5 7 C-5.99 6.67 -6.98 6.34 -8 6 C-8 4.35 -8 2.7 -8 1 C-5.36 1.33 -2.72 1.66 0 2 C0 1.34 0 0.68 0 0 Z " fill="#ECD241" transform="translate(53,25)" />
<path d="M0 0 C0.33 0.66 0.66 1.32 1 2 C0.67 2.495 0.67 2.495 -1 5 C-1.66 5 -2.32 5 -3 5 C-3.33 5.99 -3.66 6.98 -4 8 C-6.375 8.625 -6.375 8.625 -9 9 C-9.66 8.34 -10.32 7.68 -11 7 C-9.68 6.67 -8.36 6.34 -7 6 C-7.33 4.68 -7.66 3.36 -8 2 C-6.68 2 -5.36 2 -4 2 C-1.75 1 -1.75 1 0 0 Z " fill="#E0BE1E" transform="translate(59,26)" />
<path d="M0 0 C0 4.18462698 -2.2651378 6.35204256 -4.75 9.5 C-4.97171875 9.79068359 -4.97171875 9.79068359 -6.09375 11.26171875 C-8.4691263 14.31477594 -10.75338995 16.8760495 -14 19 C-12.47143585 13.56510523 -8.69780318 10.07075757 -5 6 C-3.31347612 4.01560747 -1.65735808 2.00891889 0 0 Z " fill="#674908" transform="translate(56,54)" />
<path d="M0 0 C-1 2 -1 2 -3.0625 3.0625 C-6.71902886 4.22947729 -10.18629226 4.56236141 -14 5 C-14.33 5.165 -14.33 5.165 -16 6 C-16 5.01 -16 4.02 -16 3 C-13.71068726 2.30364247 -11.4191243 1.61765623 -9.125 0.9375 C-8.47402344 0.73833984 -7.82304688 0.53917969 -7.15234375 0.33398438 C-2.2265625 -1.11328125 -2.2265625 -1.11328125 0 0 Z " fill="#EFBE0F" transform="translate(41,40)" />
<path d="M0 0 C0 3 0 3 -1.53125 4.82421875 C-1.85609375 5.13166016 -1.85609375 5.13166016 -3.5 6.6875 C-4.1496875 7.31011719 -4.799375 7.93273438 -5.46875 8.57421875 C-5.9740625 9.04472656 -6.479375 9.51523437 -7 10 C-7.99 9.67 -8.98 9.34 -10 9 C-10.33 8.01 -10.66 7.02 -11 6 C-10.01 5.67 -9.02 5.34 -8 5 C-7.34 4.67 -6.68 4.34 -6 4 C-5.34 4.33 -4.68 4.66 -4 5 C-3.67 4.01 -3.34 3.02 -3 2 C-2.01 1.34 -1.02 0.68 0 0 Z " fill="#CBA006" transform="translate(53,33)" />
<path d="M0 0 C0 0.66 0 1.32 0 2 C0.66 2.33 1.32 2.66 2 3 C-1.33333333 4.33333333 -4.66666667 5.66666667 -8 7 C-7.67 5.68 -7.34 4.36 -7 3 C-6.34 3 -5.68 3 -5 3 C-5 2.34 -5 1.68 -5 1 C-3 0 -3 0 0 0 Z " fill="#F7EB61" transform="translate(43,27)" />
<path d="M0 0 C0.99 0.33 1.98 0.66 3 1 C3 1.66 3 2.32 3 3 C2.34 3 1.68 3 1 3 C0.34 5.97 -0.32 8.94 -1 12 C-1.99 11.67 -2.98 11.34 -4 11 C-3.34 10.67 -2.68 10.34 -2 10 C-2.04125 8.72125 -2.0825 7.4425 -2.125 6.125 C-2.1953125 3.9453125 -2.1953125 3.9453125 -2 2 C-1.34 1.34 -0.68 0.68 0 0 Z " fill="#E5BC31" transform="translate(43,57)" />
<path d="M0 0 C0.66 0.33 1.32 0.66 2 1 C-4.15034169 9.44646925 -4.15034169 9.44646925 -8 13 C-8 11.68 -8 10.36 -8 9 C-7.01 8.67 -6.02 8.34 -5 8 C-5 7.34 -5 6.68 -5 6 C-4.34 6 -3.68 6 -3 6 C-2.690625 5.38125 -2.38125 4.7625 -2.0625 4.125 C-1.375 2.75 -0.6875 1.375 0 0 Z " fill="#B68E1A" transform="translate(58,48)" />
<path d="M0 0 C0 4.0333534 -1.60879918 5.83517538 -4 9 C-4.66 9 -5.32 9 -6 9 C-6.66 10.32 -7.32 11.64 -8 13 C-8 9.41215039 -7.11614178 8.29978721 -5.125 5.375 C-4.59132813 4.57835937 -4.05765625 3.78171875 -3.5078125 2.9609375 C-2 1 -2 1 0 0 Z " fill="#6C4B06" transform="translate(66,41)" />
<path d="M0 0 C1.98 0 3.96 0 6 0 C5.67 0.99 5.34 1.98 5 3 C0.74433453 4.16063604 -2.6835078 3.76173392 -7 3 C-7 2.67 -7 2.34 -7 2 C-4.69 2 -2.38 2 0 2 C0 1.34 0 0.68 0 0 Z " fill="#FAEC61" transform="translate(54,21)" />
<path d="M0 0 C1.32 0.66 2.64 1.32 4 2 C1.37801226 4.15377564 -0.64404172 5.40072174 -4 6 C-2.84826645 3.53199953 -1.95216435 1.95216435 0 0 Z " fill="#F0D120" transform="translate(35,36)" />
<path d="M0 0 C0.99 0 1.98 0 3 0 C2.67 2.97 2.34 5.94 2 9 C1.34 9 0.68 9 0 9 C0 6.03 0 3.06 0 0 Z " fill="#815811" transform="translate(12,53)" />
<path d="M0 0 C0.99 0.33 1.98 0.66 3 1 C1.02 2.98 -0.96 4.96 -3 7 C-3.99 6.67 -4.98 6.34 -6 6 C-5.01 5.67 -4.02 5.34 -3 5 C-1.875 3 -1.875 3 -1 1 C-0.67 0.67 -0.34 0.34 0 0 Z " fill="#FAE151" transform="translate(49,39)" />
<path d="M0 0 C0.33 0.99 0.66 1.98 1 3 C0.01 3.33 -0.98 3.66 -2 4 C-2 4.66 -2 5.32 -2 6 C-2.66 6 -3.32 6 -4 6 C-4 6.66 -4 7.32 -4 8 C-4.99 8.33 -5.98 8.66 -7 9 C-5.44499019 5.18315774 -2.96404505 2.80804268 0 0 Z " fill="#F7EF88" transform="translate(40,24)" />
<path d="M0 0 C0.825 0.33 0.825 0.33 5 2 C4.34 3.32 3.68 4.64 3 6 C3 5.34 3 4.68 3 4 C2.01 4.33 1.02 4.66 0 5 C0 3.35 0 1.7 0 0 Z " fill="#DCAB15" transform="translate(49,47)" />
</svg>