<?xml version='1.0' encoding='utf-8'?>
<svg xmlns="http://www.w3.org/2000/svg" version="1.1" width="90" height="96">
<path d="M0 0 C2.375 1.75 2.375 1.75 3.8125 3.8125 C6.13660277 6.69438743 8.86292774 6.95481383 12.375 7.75 C13.035 10.72 13.695 13.69 14.375 16.75 C13.055 17.08 11.735 17.41 10.375 17.75 C8.6875 18.875 8.6875 18.875 7.375 20.75 C7.02958149 23.08157492 6.69705743 25.41508361 6.375 27.75 C4.9375 30.6875 4.9375 30.6875 3.375 32.75 C2.715 32.75 2.055 32.75 1.375 32.75 C1.375 34.07 1.375 35.39 1.375 36.75 C-12.40523675 41.52354606 -12.40523675 41.52354606 -19.625 40.75 C-22.5625 38.625 -22.5625 38.625 -24.625 35.75 C-24.9375 32.4375 -24.9375 32.4375 -24.625 29.75 C-25.615 29.75 -26.605 29.75 -27.625 29.75 C-30.90314787 22.93145243 -31.08854919 17.17778725 -29.625 9.75 C-28.965 8.76 -28.305 7.77 -27.625 6.75 C-26.965 6.75 -26.305 6.75 -25.625 6.75 C-25.52703125 6.13640625 -25.4290625 5.5228125 -25.328125 4.890625 C-24.625 2.75 -24.625 2.75 -21.375 0.5 C-14.67456013 -2.55994817 -6.87216794 -2.36971308 0 0 Z " fill="#E8D9AC" transform="translate(47.625,19.25)" />
<path d="M0 0 C14.15880993 -0.56719268 14.15880993 -0.56719268 19 3 C19.474375 3.680625 19.94875 4.36125 20.4375 5.0625 C22.76160277 7.94438743 25.48792774 8.20481383 29 9 C29.66 11.97 30.32 14.94 31 18 C29.68 18.33 28.36 18.66 27 19 C25.3125 20.125 25.3125 20.125 24 22 C23.65458149 24.33157492 23.32205743 26.66508361 23 29 C21.5625 31.9375 21.5625 31.9375 20 34 C19.34 34 18.68 34 18 34 C18 35.32 18 36.64 18 38 C4.21976325 42.77354606 4.21976325 42.77354606 -3 42 C-5.9375 39.875 -5.9375 39.875 -8 37 C-8.3125 33.6875 -8.3125 33.6875 -8 31 C-8.99 31 -9.98 31 -11 31 C-14.35421336 24.02323621 -14.04977105 18.58870639 -13 11 C-12.67 11 -12.34 11 -12 11 C-12.020625 11.88042969 -12.04125 12.76085938 -12.0625 13.66796875 C-11.8957529 23.05791506 -11.8957529 23.05791506 -9.1875 25.90625 C-7 27.1875 -7 27.1875 -4.8125 28.16796875 C-3 29 -3 29 -2 31 C0.5625 31.625 0.5625 31.625 3 32 C2.67 33.65 2.34 35.3 2 37 C5.3 37.33 8.6 37.66 12 38 C12.45375 37.030625 12.9075 36.06125 13.375 35.0625 C15 32 15 32 17 31 C17.72693904 29.02111039 18.39816251 27.02045442 19 25 C18.01 24.67 17.02 24.34 16 24 C16.33 22.02 16.66 20.04 17 18 C16.34 18 15.68 18 15 18 C14.99871094 17.69835938 14.99871094 17.69835938 14.9921875 16.171875 C14.87068125 13.6607458 14.65589007 11.43015679 14 9 C11.125 6.625 11.125 6.625 8 5 C7.484375 4.443125 6.96875 3.88625 6.4375 3.3125 C4.46068272 1.50757987 2.60338842 1.35180925 0 1 C0 0.67 0 0.34 0 0 Z " fill="#D9C79A" transform="translate(31,18)" />
<path d="M0 0 C0.99 0.33 1.98 0.66 3 1 C2 4 2 4 0.0625 5.25 C-2.85361179 7.72427667 -3.17430462 10.35317873 -4 14 C-3.01 14 -2.02 14 -1 14 C0.05404945 17.98196457 -0.15901344 20.98195309 -1 25 C-0.2575 25.2475 0.485 25.495 1.25 25.75 C4.23023087 27.10465039 5.89919252 28.5101541 8 31 C8 31.66 8 32.32 8 33 C8.66 33 9.32 33 10 33 C9.69964844 32.44570312 9.39929688 31.89140625 9.08984375 31.3203125 C8.70957031 30.59585938 8.32929687 29.87140625 7.9375 29.125 C7.74607422 28.76535156 7.74607422 28.76535156 6.77734375 26.9453125 C6.52082031 26.30335937 6.26429687 25.66140625 6 25 C6.33 24.34 6.66 23.68 7 23 C11.03848732 29.0268557 13.72875522 33.67639103 14 41 C9.7525269 44.03390936 9.7525269 44.03390936 6.74609375 43.8984375 C3.01886926 42.67900417 0.26914616 40.48120923 -2.75 38.0625 C-3.33910156 37.60681641 -3.92820312 37.15113281 -4.53515625 36.68164062 C-8.85474072 33.29051857 -8.85474072 33.29051857 -10 31 C-11.890625 30.7265625 -11.890625 30.7265625 -14.25 30.625 C-18.58728978 30.24453598 -20.93912378 29.25835211 -24 26 C-24 25.34 -24 24.68 -24 24 C-21.69 23.505 -21.69 23.505 -10 21 C-10 19.68 -10 18.36 -10 17 C-9.34 17 -8.68 17 -8 17 C-7.855625 16.360625 -7.71125 15.72125 -7.5625 15.0625 C-7 13 -7 13 -6 12 C-5.9175 10.9275 -5.835 9.855 -5.75 8.75 C-4.86489151 4.32445757 -3.38598483 2.86506409 0 0 Z " fill="#A67B36" transform="translate(59,35)" />
<path d="M0 0 C6.625 0.75 6.625 0.75 10 3 C10.99 3.33 11.98 3.66 13 4 C12.88490339 5.41750563 12.75746342 6.83401169 12.625 8.25 C12.55539063 9.03890625 12.48578125 9.8278125 12.4140625 10.640625 C11.98492887 13.085877 11.21399362 14.84836903 10 17 C11.65 16.01 13.3 15.02 15 14 C14.49111733 18.41031645 11.96550928 20.89327599 9 24 C8.01 24 7.02 24 6 24 C6 23.34 6 22.68 6 22 C3.69 22.33 1.38 22.66 -1 23 C-1.33 21.68 -1.66 20.36 -2 19 C-2.66 19 -3.32 19 -4 19 C-5.45504477 10.95342713 -5.45504477 10.95342713 -3.6875 7.25 C-3.130625 6.5075 -2.57375 5.765 -2 5 C-1.30177383 3.34630643 -0.62501395 1.68272986 0 0 Z " fill="#FCFAE8" transform="translate(27,24)" />
<path d="M0 0 C1.67782517 2.68452027 2.2135158 5.02917241 2.5625 8.125 C3 12 3 12 4 14 C4.02655389 15.37490142 4.04618572 16.74993896 4.0625 18.125 C4.55674009 24.28053562 7.30353843 29.09287158 10.29321289 34.37744141 C11.98393515 37.45885187 13.05003188 39.42160114 12.7421875 42.98046875 C12.49726562 43.64691406 12.25234375 44.31335938 12 45 C11.67 45 11.34 45 11 45 C10.82984375 44.34773438 10.6596875 43.69546875 10.484375 43.0234375 C8.98961902 37.63277496 7.39793098 33.45246128 4 29 C4.495 29.94875 4.99 30.8975 5.5 31.875 C7 35 7 35 7 37 C5.1875 36.8125 5.1875 36.8125 3 36 C2.525625 35.175 2.05125 34.35 1.5625 33.5 C1.046875 32.675 0.53125 31.85 0 31 C-1.65 30.67 -3.3 30.34 -5 30 C-4.67 26.04 -4.34 22.08 -4 18 C-5.65 18.33 -7.3 18.66 -9 19 C-8.34 18.67 -7.68 18.34 -7 18 C-6.896875 16.906875 -6.79375 15.81375 -6.6875 14.6875 C-5.83935507 10.138359 -4.47954474 9.7836358 -1 7 C-0.1875 3.25 -0.1875 3.25 0 0 Z " fill="#55421F" transform="translate(62,31)" />
<path d="M0 0 C1.41702513 0.14230808 2.8336096 0.28900746 4.25 0.4375 C4.64445312 0.47810547 4.64445312 0.47810547 6.640625 0.68359375 C8.82364639 0.97634993 10.8773182 1.42064419 13 2 C13 2.66 13 3.32 13 4 C13.66 4 14.32 4 15 4 C15.33 6.31 15.66 8.62 16 11 C16.66 11 17.32 11 18 11 C19.55577239 16.65735415 18.24281523 19.79666866 16 25 C16.66 25 17.32 25 18 25 C18.125 28.375 18.125 28.375 18 32 C16 34 16 34 13.125 34.25 C10.14403168 34.01152253 8.5107442 33.54507335 6 32 C6 30.68 6 29.36 6 28 C5.175 27.67 5.175 27.67 1 26 C1.33 25.01 1.66 24.02 2 23 C3.32 23 4.64 23 6 23 C6 23.66 6 24.32 6 25 C9.53600465 23.08864614 11.78972846 21.37357234 14 18 C13.67 17.67 13.34 17.34 13 17 C12.01 17.33 11.02 17.66 10 18 C10.99 13.71 11.98 9.42 13 5 C11.9275 4.855625 10.855 4.71125 9.75 4.5625 C3.81512605 3.67226891 3.81512605 3.67226891 2 3 C1.34 2.01 0.68 1.02 0 0 Z " fill="#F1E8C2" transform="translate(27,23)" />
<path d="M0 0 C2.61278838 2.34461362 4.10657974 4.75113955 5.6875 7.875 C6.12449219 8.71804687 6.56148437 9.56109375 7.01171875 10.4296875 C8.07630992 13.19846611 8.35972589 15.06223856 8 18 C5.54179417 20.10703357 3.9403704 20.97458458 0.6875 21.0625 C-5.15744279 18.75170866 -10.40534419 14.83797557 -13 9 C-13 8.34 -13 7.68 -13 7 C-10.14906104 4.73601906 -8.61105511 3.97505897 -4.9375 4.125 C-1.97680905 5.00690794 -0.21806628 5.86724396 2 8 C2 8.66 2 9.32 2 10 C2.66 10 3.32 10 4 10 C3.71125 9.44570312 3.4225 8.89140625 3.125 8.3203125 C2.939375 7.95808594 2.939375 7.95808594 2 6.125 C1.62875 5.40570313 1.2575 4.68640625 0.875 3.9453125 C0 2 0 2 0 0 Z " fill="#C29147" transform="translate(65,58)" />
<path d="M0 0 C0.33 0 0.66 0 1 0 C0.979375 0.88042969 0.95875 1.76085937 0.9375 2.66796875 C1.1042471 12.05791506 1.1042471 12.05791506 3.8125 14.90625 C6 16.1875 6 16.1875 8.1875 17.16796875 C10 18 10 18 11 20 C13.5625 20.625 13.5625 20.625 16 21 C15.67 22.65 15.34 24.3 15 26 C16.32 26.66 17.64 27.32 19 28 C17.35 28 15.7 28 14 28 C14 28.66 14 29.32 14 30 C10.77060081 30.35882213 9.38790237 30.27258004 6.6875 28.375 C4.57043413 25.39542581 4.67476074 23.57763189 5 20 C4.01 20 3.02 20 2 20 C-1.35421336 13.02323621 -1.04977105 7.58870639 0 0 Z " fill="#E9DAB1" transform="translate(18,29)" />
<path d="M0 0 C1.75 2.0625 1.75 2.0625 3 4 C-1.875 3.125 -1.875 3.125 -3 2 C-9.89472831 1.48708745 -16.01861207 1.1201808 -22 5 C-22.66 5 -23.32 5 -24 5 C-24.0515625 5.2990625 -24.0515625 5.2990625 -24.3125 6.8125 C-25 9 -25 9 -26.484375 10.28515625 C-29.67753736 13.89803841 -29.22250385 19.40158705 -29 24 C-28.15777653 26.56066149 -27.15517254 28.73048979 -25.8125 31.0625 C-24.81028526 33.4523967 -25.14419702 34.60375166 -26 37 C-26.99 35.02 -27.98 33.04 -29 31 C-29.99 31 -30.98 31 -32 31 C-32.33 30.34 -32.66 29.68 -33 29 C-32.34 29 -31.68 29 -31 29 C-31 28.34 -31 27.68 -31 27 C-31.66 27 -32.32 27 -33 27 C-32.34 21.72 -31.68 16.44 -31 11 C-30.34 11 -29.68 11 -29 11 C-28.855625 10.525625 -28.855625 10.525625 -28.125 8.125 C-27 5 -27 5 -25 3 C-24.01 2.67 -23.02 2.34 -22 2 C-21.67 1.34 -21.34 0.68 -21 0 C-14.32904791 -1.19124144 -6.5472259 -2.20552737 0 0 Z " fill="#635534" transform="translate(47,17)" />
<path d="M0 0 C1.5 1.0625 1.5 1.0625 3 3 C3.64244174 8.56782839 2.39307678 12.1141349 0 17 C0.66 17 1.32 17 2 17 C2.66 16.01 3.32 15.02 4 14 C4.48108275 15.41601714 4.95978141 16.83284437 5.4375 18.25 C5.57091797 18.64445312 5.57091797 18.64445312 6.24609375 20.640625 C6.91954708 22.74821988 7.49150595 24.84753973 8 27 C6.1875 26.8125 6.1875 26.8125 4 26 C3.525625 25.175 3.05125 24.35 2.5625 23.5 C1 21 1 21 -1.6875 20.1875 C-2.0690625 20.1565625 -2.0690625 20.1565625 -4 20 C-3.91621094 19.32453125 -3.83242188 18.6490625 -3.74609375 17.953125 C-3.64425781 17.06109375 -3.54242188 16.1690625 -3.4375 15.25 C-3.33308594 14.36828125 -3.22867188 13.4865625 -3.12109375 12.578125 C-3.00543324 10.11567549 -3.26361305 8.33461936 -4 6 C-3.01 5.34 -2.02 4.68 -1 4 C-0.3125 1.875 -0.3125 1.875 0 0 Z " fill="#98611F" transform="translate(61,41)" />
<path d="M0 0 C-0.185625 0.639375 -0.37125 1.27875 -0.5625 1.9375 C-0.706875 2.618125 -0.85125 3.29875 -1 4 C-0.67 4.33 -0.34 4.66 0 5 C0 5.66 0 6.32 0 7 C-5.1581464 10.62167726 -8.05114653 11.39880692 -14.27734375 10.359375 C-14.84582031 10.24078125 -15.41429687 10.1221875 -16 10 C-16.33 9.01 -16.66 8.02 -17 7 C-16.67 6.34 -16.34 5.68 -16 5 C-13.49609375 4.3671875 -13.49609375 4.3671875 -10.4375 3.875 C-9.93154297 3.79121094 -9.93154297 3.79121094 -7.37109375 3.3671875 C-6.58863281 3.24601562 -5.80617188 3.12484375 -5 3 C-5 2.34 -5 1.68 -5 1 C-3 0 -3 0 0 0 Z " fill="#AA7935" transform="translate(56,55)" />
<path d="M0 0 C-1.33333333 4 -2.66666667 8 -4 12 C-4.03954234 14.33299825 -4.04401732 16.66708189 -4 19 C-3.34 19 -2.68 19 -2 19 C-2 19.66 -2 20.32 -2 21 C-4.86724686 20.42655063 -5.8614515 20.1385485 -8 18 C-8.69069368 13.13193779 -9.49477712 7.31094377 -6.7265625 3.03125 C-4.59169004 1.24003994 -2.84724845 0 0 0 Z " fill="#F5EAC8" transform="translate(27,24)" />
<path d="M0 0 C0.9765625 6.0546875 0.9765625 6.0546875 1 8 C0.34 8.66 -0.32 9.32 -1 10 C-7.48489426 8.53172205 -7.48489426 8.53172205 -9.9375 6 C-11 4 -11 4 -11 2 C-7.09100481 -1.10420207 -4.76837457 -1.21981675 0 0 Z " fill="#CA9546" transform="translate(63,63)" />
<path d="M0 0 C3.00375385 0.48060062 4.61233657 1.38859821 7.25 3.0625 C11.26963845 5.47777082 14.38565431 5.32381373 19 5 C19.04769531 5.56074219 19.09539063 6.12148437 19.14453125 6.69921875 C20.43454033 10.16869523 22.773744 11.59403141 25.6875 13.8125 C26.72261719 14.62332031 27.75773437 15.43414062 28.82421875 16.26953125 C32 18 32 18 35.20703125 17.82421875 C37.14871695 17.2512178 39.07942037 16.64019321 41 16 C40 19 40 19 38.3125 20.25 C35.10838551 21.28917227 33.26081814 20.86038454 30 20 C27.77027208 18.40974122 25.82661925 16.8826103 23.8125 15.0625 C15.72565833 7.97774528 15.72565833 7.97774528 10.6875 7.125 C6.27595443 6.21674062 3.4801868 4.85553789 0 2 C0 1.34 0 0.68 0 0 Z " fill="#5C3D0F" transform="translate(32,60)" />
<path d="M0 0 C1 2 1 2 0.9375 4.875 C0.99919206 7.95960319 1.41229856 9.41998516 3 12 C3.99 11.67 4.98 11.34 6 11 C6 11.66 6 12.32 6 13 C7.65 12.67 9.3 12.34 11 12 C11 11.01 11 10.02 11 9 C11.78375 8.690625 12.5675 8.38125 13.375 8.0625 C16 7 16 7 18 6 C17.49111733 10.41031645 14.96550928 12.89327599 12 16 C11.01 16 10.02 16 9 16 C9 15.34 9 14.68 9 14 C6.69 14.33 4.38 14.66 2 15 C1.67 13.68 1.34 12.36 1 11 C0.34 11 -0.32 11 -1 11 C-1.22174933 9.54364629 -1.42698698 8.08477044 -1.625 6.625 C-1.74101562 5.81289063 -1.85703125 5.00078125 -1.9765625 4.1640625 C-1.98429687 3.44992188 -1.99203125 2.73578125 -2 2 C-1.34 1.34 -0.68 0.68 0 0 Z M6 9 C6.33 9.165 6.33 9.165 8 10 C7.67 10.165 7.67 10.165 6 11 C6 10.34 6 9.68 6 9 Z " fill="#FAF3D2" transform="translate(24,32)" />
<path d="M0 0 C2 1.125 2 1.125 4 3 C4.25 6.1875 4.25 6.1875 4 9 C4.66 9 5.32 9 6 9 C6 10.98 6 12.96 6 15 C7.32 15.33 8.64 15.66 10 16 C9.34 16.33 8.68 16.66 8 17 C7.27306096 18.97888961 6.60183749 20.97954558 6 23 C5.34 23 4.68 23 4 23 C3.67 23.99 3.34 24.98 3 26 C3 24.35 3 22.7 3 21 C2.34 21 1.68 21 1 21 C1.45822468 17.53058454 1.89131683 14.32604951 3 11 C3 9.68 3 8.36 3 7 C2.34 7 1.68 7 1 7 C0.67 4.69 0.34 2.38 0 0 Z " fill="#EADBAF" transform="translate(42,27)" />
<path d="M0 0 C2.61278838 2.34461362 4.10657974 4.75113955 5.6875 7.875 C6.12449219 8.71804687 6.56148437 9.56109375 7.01171875 10.4296875 C8.05814351 13.1512191 8.19149958 15.11197924 8 18 C7.34 18.33 6.68 18.66 6 19 C5.34 18.67 4.68 18.34 4 18 C3.26924352 15.6859378 2.59861742 13.35171131 2 11 C1.34 11 0.68 11 0 11 C-0.33 11.66 -0.66 12.32 -1 13 C-1.33 10.69 -1.66 8.38 -2 6 C-1.34 6.33 -1.34 6.33 2 8 C2 8.66 2 9.32 2 10 C2.66 10 3.32 10 4 10 C3.71125 9.44570312 3.4225 8.89140625 3.125 8.3203125 C2.939375 7.95808594 2.939375 7.95808594 2 6.125 C1.62875 5.40570313 1.2575 4.68640625 0.875 3.9453125 C0 2 0 2 0 0 Z " fill="#AE7C34" transform="translate(65,58)" />
<path d="M0 0 C0.66 0 1.32 0 2 0 C3.05404945 3.98196457 2.84098656 6.98195309 2 11 C2.825 11.33 2.825 11.33 7 13 C6.34 13.66 5.68 14.32 5 15 C5 14.34 5 13.68 5 13 C3.515 13.495 3.515 13.495 -4 16 C-3.01 17.32 -2.02 18.64 -1 20 C-1.33 20.66 -1.66 21.32 -2 22 C-4 20.75 -4 20.75 -6 19 C-6 17.68 -6 16.36 -6 15 C-4.02 14.34 -2.04 13.68 0 13 C0 12.34 0 11.68 0 11 C-0.99 11.33 -1.98 11.66 -3 12 C-3 11.34 -3 10.68 -3 10 C-2.34 9.67 -1.68 9.34 -1 9 C-0.67 8.01 -0.34 7.02 0 6 C-0.99 5.67 -1.98 5.34 -3 5 C-2.67 4.34 -2.34 3.68 -2 3 C-1.34 3 -0.68 3 0 3 C0 2.01 0 1.02 0 0 Z " fill="#AD7A31" transform="translate(56,49)" />
<path d="M0 0 C0.33 0 0.66 0 1 0 C1.04898437 0.89203125 1.09796875 1.7840625 1.1484375 2.703125 C1.22320313 3.87359375 1.29796875 5.0440625 1.375 6.25 C1.44460937 7.41015625 1.51421875 8.5703125 1.5859375 9.765625 C1.96248308 12.70694334 2.4774123 14.49949011 4 17 C4.66 17 5.32 17 6 17 C6.04898437 17.63808594 6.09796875 18.27617188 6.1484375 18.93359375 C6.22320313 19.75988281 6.29796875 20.58617188 6.375 21.4375 C6.44460937 22.26121094 6.51421875 23.08492187 6.5859375 23.93359375 C6.72257812 24.61550781 6.85921875 25.29742187 7 26 C7.66 26.33 8.32 26.66 9 27 C8.01 27 7.02 27 6 27 C5 26 5 26 4.9375 22.9375 C4.958125 21.968125 4.97875 20.99875 5 20 C4.01 20 3.02 20 2 20 C-1.35421336 13.02323621 -1.04977105 7.58870639 0 0 Z " fill="#CCBB8F" transform="translate(18,29)" />
<path d="M0 0 C0.33 0.66 0.66 1.32 1 2 C0.34 2 -0.32 2 -1 2 C-1 3.32 -1 4.64 -1 6 C-8.23236667 8.50532963 -14.26515569 10.15166361 -22 10 C-20.68 9.67 -19.36 9.34 -18 9 C-18 8.34 -18 7.68 -18 7 C-17.25234375 6.98582031 -16.5046875 6.97164062 -15.734375 6.95703125 C-7.56121045 6.56121045 -7.56121045 6.56121045 -4.5 3.5 C-4.005 2.675 -3.51 1.85 -3 1 C-2.01 0.67 -1.02 0.34 0 0 Z " fill="#C6AB79" transform="translate(50,50)" />
<path d="M0 0 C0.99 0.165 0.99 0.165 6 1 C6.66 3.97 7.32 6.94 8 10 C6.35 10.33 4.7 10.66 3 11 C3 8.69 3 6.38 3 4 C2.34 4 1.68 4 1 4 C0.67 2.68 0.34 1.36 0 0 Z " fill="#CEBA90" transform="translate(54,26)" />
<path d="M0 0 C-0.36363205 2.57798841 -0.59533633 3.69164073 -2.70703125 5.30078125 C-3.40183594 5.63464844 -4.09664062 5.96851563 -4.8125 6.3125 C-5.49957031 6.65925781 -6.18664063 7.00601563 -6.89453125 7.36328125 C-9.34106905 8.10314333 -10.61786119 7.82973374 -13 7 C-8.375 3 -8.375 3 -5 3 C-5 2.34 -5 1.68 -5 1 C-3 0 -3 0 0 0 Z " fill="#D29B4B" transform="translate(56,55)" />
<path d="M0 0 C-0.375 2.9375 -0.375 2.9375 -1 6 C-1.33 6.165 -1.33 6.165 -3 7 C-3 7.99 -3 8.98 -3 10 C-4.70884005 8.37660195 -6.37446717 6.70680947 -8 5 C-8 4.34 -8 3.68 -8 3 C-5.09451118 0.95830515 -3.59857954 0 0 0 Z " fill="#CA9241" transform="translate(60,62)" />
<path d="M0 0 C1.5 1.0625 1.5 1.0625 3 3 C3.65882353 9.14901961 3.65882353 9.14901961 1.5 11.9375 C1.005 12.288125 0.51 12.63875 0 13 C-1 11 -1 11 -1.4375 8.9375 C-1.623125 8.298125 -1.80875 7.65875 -2 7 C-2.66 6.67 -3.32 6.34 -4 6 C-3.01 5.34 -2.02 4.68 -1 4 C-0.3125 1.875 -0.3125 1.875 0 0 Z " fill="#7F4D19" transform="translate(61,41)" />
<path d="M0 0 C2.42289685 0.41774084 3.70879065 0.69612938 5.4375 2.5 C7.48513623 4.46573078 9.23747349 4.62668561 12 5 C11.67 5.66 11.34 6.32 11 7 C8.35139573 7.59355614 5.70802678 7.74209269 3 8 C2.87625 6.865625 2.7525 5.73125 2.625 4.5625 C2.41875 3.386875 2.2125 2.21125 2 1 C1.34 0.67 0.68 0.34 0 0 Z " fill="#E0D1A3" transform="translate(22,45)" />
<path d="M0 0 C3 1 3 1 4.203125 2.92578125 C4.54859375 3.71339844 4.8940625 4.50101563 5.25 5.3125 C5.60578125 6.09238281 5.9615625 6.87226562 6.328125 7.67578125 C7.0711335 10.24607227 6.88750996 11.51383429 6 14 C5.01 12.02 4.02 10.04 3 8 C2.01 8 1.02 8 0 8 C-0.33 7.34 -0.66 6.68 -1 6 C-0.34 6 0.32 6 1 6 C1 5.34 1 4.68 1 4 C0.34 4 -0.32 4 -1 4 C-0.67 2.68 -0.34 1.36 0 0 Z " fill="#685B39" transform="translate(15,40)" />
<path d="M0 0 C0.99 0.33 1.98 0.66 3 1 C2 4 2 4 0.0625 5.375 C-2.42275091 7.33307647 -3.03757448 9.03252131 -4 12 C-4.33 12 -4.66 12 -5 12 C-5.3125 8.8125 -5.3125 8.8125 -5 5 C-2.5 2.0625 -2.5 2.0625 0 0 Z " fill="#B69961" transform="translate(59,35)" />
<path d="M0 0 C2.61278838 2.34461362 4.10657974 4.75113955 5.6875 7.875 C6.12449219 8.71804687 6.56148438 9.56109375 7.01171875 10.4296875 C8.05814351 13.1512191 8.19149958 15.11197924 8 18 C4.40448043 15.60298696 4.41028816 14.16236006 3.5390625 10.1015625 C2.78916263 7.17803982 1.39505027 4.66327779 0 2 C0 1.34 0 0.68 0 0 Z " fill="#94713F" transform="translate(65,58)" />
<path d="M0 0 C1.32 0.33 2.64 0.66 4 1 C3.4409112 4.24271506 2.5867822 5.93057424 0 8 C-0.66 8 -1.32 8 -2 8 C-2.33 8.66 -2.66 9.32 -3 10 C-3.33 9.01 -3.66 8.02 -4 7 C-3.34 6.67 -2.68 6.34 -2 6 C-1.27306096 4.02111039 -0.60183749 2.02045442 0 0 Z " fill="#DBC394" transform="translate(50,43)" />
<path d="M0 0 C0 1.32 0 2.64 0 4 C-1.98 4 -3.96 4 -6 4 C-6 3.34 -6 2.68 -6 2 C-6.99 1.67 -7.98 1.34 -9 1 C-5.57367167 -0.61798838 -3.61944899 -1.34053666 0 0 Z " fill="#F7F3D3" transform="translate(43,51)" />
<path d="M0 0 C2.0625 0.4375 2.0625 0.4375 4 1 C3.45773019 4.79588866 1.79872437 6.47211993 -1 9 C-1.99 8.67 -2.98 8.34 -4 8 C-3.34 8 -2.68 8 -2 8 C-1.855625 6.865625 -1.71125 5.73125 -1.5625 4.5625 C-1 1 -1 1 0 0 Z " fill="#6C3E08" transform="translate(57,41)" />
<path d="M0 0 C0.2578125 0.144375 0.2578125 0.144375 1.5625 0.875 C4.62356725 2.28780027 7.74944918 3.1248517 11 4 C11 4.66 11 5.32 11 6 C7.7 5.67 4.4 5.34 1 5 C0.67 3.35 0.34 1.7 0 0 Z " fill="#6A613F" transform="translate(21,56)" />
<path d="M0 0 C2.97 0 5.94 0 9 0 C8.67 1.65 8.34 3.3 8 5 C5 5 5 5 2.3125 2.5 C1.549375 1.675 0.78625 0.85 0 0 Z " fill="#B5823B" transform="translate(55,71)" />
<path d="M0 0 C1.65 0.33 3.3 0.66 5 1 C3 3 3 3 0 3.875 C-3 5 -3 5 -4.375 7.125 C-4.58125 7.74375 -4.7875 8.3625 -5 9 C-5.33 7.35 -5.66 5.7 -6 4 C-5.5978125 3.855625 -5.5978125 3.855625 -3.5625 3.125 C-1 2 -1 2 0 0 Z " fill="#6A5D3C" transform="translate(26,17)" />
<path d="M0 0 C-0.38520564 2.53910197 -0.70097943 3.72751123 -2.62890625 5.484375 C-3.26699219 5.90203125 -3.90507812 6.3196875 -4.5625 6.75 C-5.20316406 7.17796875 -5.84382813 7.6059375 -6.50390625 8.046875 C-6.75076172 8.20414063 -6.75076172 8.20414063 -8 9 C-8 8.01 -8 7.02 -8 6 C-7.34 6 -6.68 6 -6 6 C-5.896875 5.38125 -5.79375 4.7625 -5.6875 4.125 C-4.72223986 1.14146864 -3.16449578 0 0 0 Z " fill="#C9BC96" transform="translate(28,20)" />
<path d="M0 0 C0.66 0 1.32 0 2 0 C2.33 1.65 2.66 3.3 3 5 C2.34 5 1.68 5 1 5 C0.67 5.99 0.34 6.98 0 8 C-0.66 8 -1.32 8 -2 8 C-2.125 5.125 -2.125 5.125 -2 2 C-1.34 1.34 -0.68 0.68 0 0 Z " fill="#90651F" transform="translate(53,47)" />
<path d="M0 0 C0 0.66 0 1.32 0 2 C-2.8125 3.5625 -2.8125 3.5625 -6 5 C-6.99 4.67 -7.98 4.34 -9 4 C-9 3.34 -9 2.68 -9 2 C-5.86501708 0.14223235 -3.62528568 -0.20140476 0 0 Z " fill="#BF883C" transform="translate(56,60)" />
<path d="M0 0 C0 0.99 0 1.98 0 3 C-2.75924185 4.80411967 -3.88972103 5.0127245 -7.25 4.625 C-8.1575 4.41875 -9.065 4.2125 -10 4 C-10 3.01 -10 2.02 -10 1 C-9.0925 1.20625 -8.185 1.4125 -7.25 1.625 C-3.88972103 2.0127245 -2.75924185 1.80411967 0 0 Z " fill="#5E4316" transform="translate(72,76)" />
<path d="M0 0 C0.33 0.99 0.66 1.98 1 3 C0.34 3.66 -0.32 4.32 -1 5 C-1.4140625 7.3828125 -1.4140625 7.3828125 -1.625 10.125 C-1.69976563 11.03507812 -1.77453125 11.94515625 -1.8515625 12.8828125 C-1.90054687 13.58148438 -1.94953125 14.28015625 -2 15 C-2.33 15 -2.66 15 -3 15 C-3.08078641 12.87561661 -3.13909141 10.7503677 -3.1875 8.625 C-3.22230469 7.44164062 -3.25710937 6.25828125 -3.29296875 5.0390625 C-3.19628906 4.03617188 -3.09960938 3.03328125 -3 2 C-2.01 1.34 -1.02 0.68 0 0 Z " fill="#E9DBB0" transform="translate(22,27)" />
<path d="M0 0 C2.31 0.33 4.62 0.66 7 1 C5.50011061 3.99977878 2.94840874 4.55588143 0 6 C-0.66 6.66 -1.32 7.32 -2 8 C-1.125 2.25 -1.125 2.25 0 0 Z " fill="#FCF5DB" transform="translate(27,24)" />
<path d="M0 0 C2.29013653 3.4352048 2.17842973 4.985331 2 9 C1.34 8.01 0.68 7.02 0 6 C-2.625 5.3125 -2.625 5.3125 -5 5 C-4.67 4.01 -4.34 3.02 -4 2 C-3.01 2.33 -2.02 2.66 -1 3 C-0.67 2.01 -0.34 1.02 0 0 Z " fill="#82521B" transform="translate(64,55)" />
<path d="M0 0 C0.33 0 0.66 0 1 0 C0.67 2.97 0.34 5.94 0 9 C-0.99 8.67 -1.98 8.34 -3 8 C-2.45276317 4.62537285 -1.9451 2.91765 0 0 Z " fill="#68390D" transform="translate(64,50)" />
<path d="M0 0 C3.52269485 -0.4025937 4.79940808 -0.13372795 7.8125 1.875 C8.534375 2.57625 9.25625 3.2775 10 4 C10 4.66 10 5.32 10 6 C8.68 5.67 7.36 5.34 6 5 C6 4.34 6 3.68 6 3 C5.34 3 4.68 3 4 3 C4 2.34 4 1.68 4 1 C2.68 0.67 1.36 0.34 0 0 Z " fill="#6F5D3F" transform="translate(42,67)" />
<path d="M0 0 C0.99 0 1.98 0 3 0 C7 4.34285714 7 4.34285714 7 7 C5.1875 6.875 5.1875 6.875 3 6 C1.25 2.9375 1.25 2.9375 0 0 Z " fill="#9B6A29" transform="translate(62,61)" />
<path d="M0 0 C2.31 0.33 4.62 0.66 7 1 C6.34 2.32 5.68 3.64 5 5 C3.02 4.01 1.04 3.02 -1 2 C-0.67 1.34 -0.34 0.68 0 0 Z " fill="#D49F4F" transform="translate(57,68)" />
<path d="M0 0 C0.99 0.33 1.98 0.66 3 1 C3 2.65 3 4.3 3 6 C2.01 6.33 1.02 6.66 0 7 C-0.38133299 5.0085944 -0.71325582 3.00720923 -1 1 C-0.67 0.67 -0.34 0.34 0 0 Z " fill="#CDB787" transform="translate(46,23)" />
<path d="M0 0 C2.31 0 4.62 0 7 0 C6.67 0.165 6.67 0.165 5 1 C4.67 1.99 4.34 2.98 4 4 C2.68 3.34 1.36 2.68 0 2 C0 1.34 0 0.68 0 0 Z " fill="#976C32" transform="translate(35,59)" />
<path d="M0 0 C0.99 0.33 1.98 0.66 3 1 C2 4 2 4 -0.0625 5.1875 C-0.701875 5.455625 -1.34125 5.72375 -2 6 C-1.125 1.125 -1.125 1.125 0 0 Z " fill="#AD915E" transform="translate(59,35)" />
<path d="M0 0 C0.825 0.165 0.825 0.165 5 1 C4.67 2.65 4.34 4.3 4 6 C3.34 4.68 2.68 3.36 2 2 C1.34 2 0.68 2 0 2 C0 1.34 0 0.68 0 0 Z " fill="#F9F4DD" transform="translate(33,27)" />
<path d="M0 0 C0.66 0 1.32 0 2 0 C2.625 2.375 2.625 2.375 3 5 C2.34 5.66 1.68 6.32 1 7 C1 6.01 1 5.02 1 4 C0.01 4.33 -0.98 4.66 -2 5 C-2 4.34 -2 3.68 -2 3 C-1.34 3 -0.68 3 0 3 C0 2.01 0 1.02 0 0 Z " fill="#AD7328" transform="translate(56,49)" />
<path d="M0 0 C1.5 1.125 1.5 1.125 3 3 C3.1875 6.1875 3.1875 6.1875 3 9 C2.67 8.01 2.34 7.02 2 6 C1.34 6 0.68 6 0 6 C0 4.02 0 2.04 0 0 Z " fill="#7D5F36" transform="translate(61,41)" />
</svg>