<?xml version='1.0' encoding='utf-8'?>
<svg xmlns="http://www.w3.org/2000/svg" version="1.1" width="96" height="102">
<path d="M0 0 C3.0625 0.125 3.0625 0.125 5.0625 1.125 C6.60273996 1.19450541 8.14584988 1.20952357 9.6875 1.1875 C10.50476563 1.17847656 11.32203125 1.16945313 12.1640625 1.16015625 C12.79054688 1.14855469 13.41703125 1.13695313 14.0625 1.125 C13.7325 1.785 13.4025 2.445 13.0625 3.125 C11.50009968 3.15230408 9.9375573 3.17153226 8.375 3.1875 C7.50488281 3.19910156 6.63476562 3.21070313 5.73828125 3.22265625 C3.0625 3.125 3.0625 3.125 -1.9375 2.125 C-3.2575 9.715 -4.5775 17.305 -5.9375 25.125 C-0.9875 25.455 3.9625 25.785 9.0625 26.125 C8.73697917 28.11067708 8.41145833 30.09635417 8.0859375 32.08203125 C8.0625 34.125 8.0625 34.125 10.0625 37.125 C10.8875 35.64 10.8875 35.64 15.0625 28.125 C19.68096496 30.43423248 19.68096496 30.43423248 21.0625 34.125 C21.42575246 35.63451579 21.73535726 37.15761291 22 38.6875 C24.4878266 51.97565321 24.4878266 51.97565321 27.0625 57.125 C25.4125 57.125 23.7625 57.125 22.0625 57.125 C21.86914062 56.25617188 21.67578125 55.38734375 21.4765625 54.4921875 C21.34636719 53.91597656 21.34636719 53.91597656 20.6875 51 C20.43226562 49.86304688 20.17703125 48.72609375 19.9140625 47.5546875 C19.11613523 44.34101712 18.15459441 41.24933966 17.0625 38.125 C17.083125 39.40375 17.10375 40.6825 17.125 42 C17.1875 45.875 17.1875 45.875 16.0625 48.125 C15.96750497 49.62256871 15.93262802 51.12442932 15.9375 52.625 C15.93492188 53.4190625 15.93234375 54.213125 15.9296875 55.03125 C16.0625 57.125 16.0625 57.125 17.0625 59.125 C4.84206181 60.78200857 -5.99999414 60.40732567 -17.9375 57.125 C-17.9375 58.115 -17.9375 59.105 -17.9375 60.125 C-17.58236328 60.15529297 -17.58236328 60.15529297 -15.78515625 60.30859375 C-14.86605469 60.39238281 -13.94695313 60.47617188 -13 60.5625 C-12.08347656 60.64371094 -11.16695312 60.72492188 -10.22265625 60.80859375 C-7.9375 61.125 -7.9375 61.125 -6.9375 62.125 C6.52101184 63.59855969 19.02031045 63.1379814 32.0625 59.125 C32.3925 58.795 32.7225 58.465 33.0625 58.125 C34.72867115 58.08436168 36.39638095 58.082279 38.0625 58.125 C37.04433121 54.80482514 35.99366027 51.49576674 34.9375 48.1875 C34.65390625 47.26130859 34.3703125 46.33511719 34.078125 45.38085938 C31.92579496 38.71331523 29.10653532 32.16903532 24.0625 27.125 C23.52428999 24.09474198 23.09693179 21.05423012 22.66015625 18.0078125 C22.0625 15.125 22.0625 15.125 20.0625 12.125 C19.6484375 9.20703125 19.6484375 9.20703125 19.4375 5.9375 C19.36273438 4.85082031 19.28796875 3.76414062 19.2109375 2.64453125 C19.16195312 1.81308594 19.11296875 0.98164063 19.0625 0.125 C20.0525 0.455 21.0425 0.785 22.0625 1.125 C22.02769531 1.82367187 21.99289063 2.52234375 21.95703125 3.2421875 C21.94349609 3.69722656 21.94349609 3.69722656 21.875 6 C21.84019531 6.90492187 21.80539063 7.80984375 21.76953125 8.7421875 C21.86621094 9.52851563 21.96289062 10.31484375 22.0625 11.125 C23.0525 11.785 24.0425 12.445 25.0625 13.125 C25.29296875 15.234375 25.29296875 15.234375 25.25 17.875 C25.56450516 23.01414809 27.13749577 26.5684372 29.8125 30.875 C35.74645296 40.48507673 39.4635653 50.74524077 40.0625 62.125 C26.95747215 69.51757981 5.08299927 70.79957711 -9.5625 67.25 C-10.119375 67.064375 -10.119375 67.064375 -12.9375 66.125 C-13.515 65.939375 -13.515 65.939375 -16.4375 65 C-17.2625 64.71125 -18.0875 64.4225 -18.9375 64.125 C-19.73667792 51.27895486 -16.53763183 40.82808207 -10.515625 29.59375 C-8.46572835 25.08803658 -7.79974793 20.86217675 -7.32421875 15.96484375 C-6.92816255 13.05643107 -6.06834858 10.81855667 -4.9375 8.125 C-4.5878582 5.79405466 -4.25195513 3.46095238 -3.9375 1.125 C-2.9375 0.125 -2.9375 0.125 0 0 Z " fill="#17863C" transform="translate(37.9375,15.875)" />
<path d="M0 0 C0.66 0 1.32 0 2 0 C3.17796194 2.35592388 3.20624468 4.06375663 3.375 6.6875 C3.78603694 11.30835072 5.11128077 14.75038172 7 19 C7.18705778 20.37000064 7.33204093 21.74631557 7.4375 23.125 C8.08087274 27.55712331 9.14338306 28.66728024 12 32 C16.52462142 39.71762958 21 48.95323601 21 58 C7.03806493 63.04180988 -9.19180918 66.08503975 -24 63 C-24.33 62.67 -24.66 62.34 -25 62 C-26.67884238 61.6068352 -28.36850045 61.25914548 -30.0625 60.9375 C-30.98160156 60.76089844 -31.90070312 60.58429688 -32.84765625 60.40234375 C-33.55792969 60.26957031 -34.26820312 60.13679688 -35 60 C-35 59.01 -35 58.02 -35 57 C-34.21238281 57.144375 -33.42476562 57.28875 -32.61328125 57.4375 C-21.96211357 59.25261023 -11.6906656 59.67696715 -1 58 C-1.33 57.67 -1.66 57.34 -2 57 C-2.36606679 51.88583167 -1.89524133 47.0357325 -1 42 C-0.96296931 40.00034285 -0.95239444 37.99943335 -1 36 C2.58112602 39.7315935 2.94216761 43.83813734 3.6875 48.75 C3.81705078 49.54277344 3.94660156 50.33554688 4.08007812 51.15234375 C4.39685595 53.09994074 4.69980217 55.04977861 5 57 C5.66 56.835 5.66 56.835 9 56 C8.71253906 55.15695313 8.42507812 54.31390625 8.12890625 53.4453125 C6.98084885 49.94155255 5.94480835 46.42164461 4.9375 42.875 C4.59589844 41.67617188 4.25429688 40.47734375 3.90234375 39.2421875 C3.39252305 37.41036419 2.90752034 35.56989619 2.5078125 33.7109375 C1.73900672 31.12065341 -0.03571972 29.77418864 -2 28 C-2.268125 28.9075 -2.53625 29.815 -2.8125 30.75 C-3.89576294 33.71471963 -4.98359457 35.6169754 -7 38 C-8.5625 36.375 -8.5625 36.375 -10 34 C-9.7586135 30.98266875 -9.35358479 28.70716958 -8 26 C-8.58007812 26.01160156 -9.16015625 26.02320312 -9.7578125 26.03515625 C-10.53898437 26.04417969 -11.32015625 26.05320312 -12.125 26.0625 C-12.50785156 26.06830078 -12.50785156 26.06830078 -14.4453125 26.09765625 C-17.36019734 25.98623099 -20.13379165 25.52754849 -23 25 C-22.53430878 17.1812896 -21.77541538 9.63600985 -20 2 C-16.125 3.875 -16.125 3.875 -15 5 C-11.61873733 5.43831183 -8.37552357 5.49270064 -5 5 C-2 2.5 -2 2.5 0 0 Z " fill="#3ED077" transform="translate(55,16)" />
<path d="M0 0 C6.71713419 6.09409566 9.75979719 16.46470213 12 25 C12 26.32 12 27.64 12 29 C-1.96193507 34.04180988 -18.19180918 37.08503975 -33 34 C-33.33 33.67 -33.66 33.34 -34 33 C-35.67884238 32.6068352 -37.36850045 32.25914548 -39.0625 31.9375 C-39.98160156 31.76089844 -40.90070312 31.58429688 -41.84765625 31.40234375 C-42.55792969 31.26957031 -43.26820312 31.13679688 -44 31 C-44 30.01 -44 29.02 -44 28 C-43.60619141 28.0721875 -43.60619141 28.0721875 -41.61328125 28.4375 C-30.96211357 30.25261023 -20.6906656 30.67696715 -10 29 C-10.33 28.67 -10.66 28.34 -11 28 C-11.36606679 22.88583167 -10.89524133 18.0357325 -10 13 C-9.96296931 11.00034285 -9.95239444 8.99943335 -10 7 C-6.41887398 10.7315935 -6.05783239 14.83813734 -5.3125 19.75 C-5.18294922 20.54277344 -5.05339844 21.33554688 -4.91992188 22.15234375 C-4.60314405 24.09994074 -4.30019783 26.04977861 -4 28 C-2.68 27.67 -1.36 27.34 0 27 C-0.28617188 26.15953125 -0.57234375 25.3190625 -0.8671875 24.453125 C-2.03138473 20.90433067 -3.09393262 17.339642 -4.125 13.75 C-4.47820313 12.52796875 -4.83140625 11.3059375 -5.1953125 10.046875 C-6 7 -6 7 -6 5 C-3.83125748 5.50603992 -2.00032373 5.99983813 0 7 C0 4.69 0 2.38 0 0 Z " fill="#066F27" transform="translate(64,45)" />
<path d="M0 0 C3.0625 0.125 3.0625 0.125 5.0625 1.125 C6.60273996 1.19450541 8.14584988 1.20952357 9.6875 1.1875 C10.50476563 1.17847656 11.32203125 1.16945313 12.1640625 1.16015625 C12.79054688 1.14855469 13.41703125 1.13695313 14.0625 1.125 C13.7325 1.785 13.4025 2.445 13.0625 3.125 C11.50009968 3.15230408 9.9375573 3.17153226 8.375 3.1875 C7.50488281 3.19910156 6.63476562 3.21070313 5.73828125 3.22265625 C3.07441443 3.12543483 0.65676811 2.71864333 -1.9375 2.125 C-2.44753125 4.76926917 -2.94811667 7.4143802 -3.4375 10.0625 C-3.58203613 10.84214111 -3.72657227 11.62178223 -3.87548828 12.42504883 C-4.59020775 16.46992225 -5.08253587 20.19089985 -4.8125 24.3125 C-4.93836321 28.15132778 -5.07659266 28.86661691 -7.3125 31.6875 C-9.9375 34.125 -9.9375 34.125 -11.9375 34.125 C-12.06125 34.95902344 -12.185 35.79304688 -12.3125 36.65234375 C-12.98607167 40.39487634 -13.9241003 44.02677716 -14.9375 47.6875 C-16.07226918 51.811317 -17.1618192 55.91531567 -17.9375 60.125 C-17.58236328 60.15529297 -17.58236328 60.15529297 -15.78515625 60.30859375 C-14.86605469 60.39238281 -13.94695313 60.47617188 -13 60.5625 C-12.08347656 60.64371094 -11.16695312 60.72492188 -10.22265625 60.80859375 C-7.9375 61.125 -7.9375 61.125 -6.9375 62.125 C6.52101184 63.59855969 19.02031045 63.1379814 32.0625 59.125 C32.3925 58.795 32.7225 58.465 33.0625 58.125 C34.72867115 58.08436168 36.39638095 58.082279 38.0625 58.125 C37.04433121 54.80482514 35.99366027 51.49576674 34.9375 48.1875 C34.65390625 47.26130859 34.3703125 46.33511719 34.078125 45.38085938 C31.92579496 38.71331523 29.10653532 32.16903532 24.0625 27.125 C23.52428999 24.09474198 23.09693179 21.05423012 22.66015625 18.0078125 C22.0625 15.125 22.0625 15.125 20.0625 12.125 C19.6484375 9.20703125 19.6484375 9.20703125 19.4375 5.9375 C19.36273438 4.85082031 19.28796875 3.76414062 19.2109375 2.64453125 C19.16195312 1.81308594 19.11296875 0.98164063 19.0625 0.125 C20.0525 0.455 21.0425 0.785 22.0625 1.125 C22.02769531 1.82367187 21.99289063 2.52234375 21.95703125 3.2421875 C21.94349609 3.69722656 21.94349609 3.69722656 21.875 6 C21.84019531 6.90492187 21.80539063 7.80984375 21.76953125 8.7421875 C21.86621094 9.52851563 21.96289062 10.31484375 22.0625 11.125 C23.0525 11.785 24.0425 12.445 25.0625 13.125 C25.29296875 15.234375 25.29296875 15.234375 25.25 17.875 C25.56450516 23.01414809 27.13749577 26.5684372 29.8125 30.875 C35.74645296 40.48507673 39.4635653 50.74524077 40.0625 62.125 C26.95747215 69.51757981 5.08299927 70.79957711 -9.5625 67.25 C-10.119375 67.064375 -10.119375 67.064375 -12.9375 66.125 C-13.515 65.939375 -13.515 65.939375 -16.4375 65 C-17.2625 64.71125 -18.0875 64.4225 -18.9375 64.125 C-19.73667792 51.27895486 -16.53763183 40.82808207 -10.515625 29.59375 C-8.46572835 25.08803658 -7.79974793 20.86217675 -7.32421875 15.96484375 C-6.92816255 13.05643107 -6.06834858 10.81855667 -4.9375 8.125 C-4.5878582 5.79405466 -4.25195513 3.46095238 -3.9375 1.125 C-2.9375 0.125 -2.9375 0.125 0 0 Z " fill="#133F17" transform="translate(37.9375,15.875)" />
<path d="M0 0 C3.63 0 7.26 0 11 0 C10.67447917 1.98567708 10.34895833 3.97135417 10.0234375 5.95703125 C10 8 10 8 12 11 C13.65 8.03 15.3 5.06 17 2 C21.61846496 4.30923248 21.61846496 4.30923248 23 8 C23.36325246 9.50951579 23.67285726 11.03261291 23.9375 12.5625 C26.4253266 25.85065321 26.4253266 25.85065321 29 31 C27.35 31 25.7 31 24 31 C23.80664062 30.13117188 23.61328125 29.26234375 23.4140625 28.3671875 C23.15367188 27.21476562 22.89328125 26.06234375 22.625 24.875 C22.49738281 24.30652344 22.49738281 24.30652344 21.8515625 21.4296875 C21.05363523 18.21601712 20.09209441 15.12433966 19 12 C19.020625 13.27875 19.04125 14.5575 19.0625 15.875 C19.125 19.75 19.125 19.75 18 22 C17.90500497 23.49756871 17.87012802 24.99942932 17.875 26.5 C17.87242188 27.2940625 17.86984375 28.088125 17.8671875 28.90625 C18 31 18 31 19 33 C13.25 33.125 13.25 33.125 11 32 C10.98541748 31.40985107 10.97083496 30.81970215 10.95581055 30.21166992 C10.88131156 27.53628771 10.78466005 24.86215108 10.6875 22.1875 C10.66494141 21.25873047 10.64238281 20.32996094 10.61914062 19.37304688 C10.58369141 18.48037109 10.54824219 17.58769531 10.51171875 16.66796875 C10.48553467 15.84578857 10.45935059 15.0236084 10.43237305 14.17651367 C9.90834541 11.53862189 8.99261023 10.73773781 7 9 C5.8125 6.8125 5.8125 6.8125 5 5 C3.06757715 8.34520258 2.4536147 11.44767482 1.875 15.25 C1.70742188 16.32765625 1.53984375 17.4053125 1.3671875 18.515625 C1.24601562 19.33546875 1.12484375 20.1553125 1 21 C-1 19 -1 19 -1.046875 16.390625 C-0.05920206 5.94208494 -0.05920206 5.94208494 2 1 C1.34 0.67 0.68 0.34 0 0 Z " fill="#13612D" transform="translate(36,42)" />
<path d="M0 0 C1.60407328 -0.02708567 3.2082785 -0.04643483 4.8125 -0.0625 C5.70582031 -0.07410156 6.59914063 -0.08570313 7.51953125 -0.09765625 C10 0 10 0 13 1 C13 1.66 13 2.32 13 3 C13.66 3 14.32 3 15 3 C15 2.34 15 1.68 15 1 C15.33193359 1.00580078 15.33193359 1.00580078 17.01171875 1.03515625 C25.78207381 1.12478032 25.78207381 1.12478032 30 0 C30.22786458 2.05078125 30.45572917 4.1015625 30.68359375 6.15234375 C31 8 31 8 32 9 C32.14115161 11.67058851 32.04247107 14.32432238 32 17 C27.54450493 15.63859873 25.74565595 13.69243386 23 10 C22.34 9.67 21.68 9.34 21 9 C20.731875 9.9075 20.46375 10.815 20.1875 11.75 C19.10423706 14.71471963 18.01640543 16.6169754 16 19 C14.4375 17.375 14.4375 17.375 13 15 C13.2413865 11.98266875 13.64641521 9.70716958 15 7 C14.70996094 7.00580078 14.70996094 7.00580078 13.2421875 7.03515625 C8.7001754 7.08762174 4.47286431 6.91751063 0 6 C0 4.02 0 2.04 0 0 Z " fill="#B1CBB8" transform="translate(32,35)" />
<path d="M0 0 C0 1.32 0 2.64 0 4 C-13.96193507 9.04180988 -30.19180918 12.08503975 -45 9 C-45.33 8.67 -45.66 8.34 -46 8 C-47.67884238 7.6068352 -49.36850045 7.25914548 -51.0625 6.9375 C-51.98160156 6.76089844 -52.90070312 6.58429688 -53.84765625 6.40234375 C-54.55792969 6.26957031 -55.26820312 6.13679688 -56 6 C-56 5.01 -56 4.02 -56 3 C-55.60619141 3.0721875 -55.60619141 3.0721875 -53.61328125 3.4375 C-41.90087948 5.43345959 -30.85257276 5.18287141 -19.0625 4.1875 C-18.61229492 4.15253418 -18.61229492 4.15253418 -16.33398438 3.97558594 C-10.55591398 3.43321658 -5.4384038 0 0 0 Z " fill="#C8E8CC" transform="translate(76,70)" />
<path d="M0 0 C1.98 0 3.96 0 6 0 C5.85304688 1.14082031 5.70609375 2.28164063 5.5546875 3.45703125 C5.18404795 6.40979297 4.85676894 9.36215157 4.5703125 12.32421875 C4.49683594 13.04287109 4.42335938 13.76152344 4.34765625 14.50195312 C4.19811464 15.96982208 4.05761559 17.438638 3.92578125 18.90820312 C3.4570703 23.31329159 2.60174505 26.39594334 0 30 C-1.0249735 26.92507951 -0.99539324 25.91046582 -0.44140625 22.83984375 C-0.30283203 22.04642578 -0.16425781 21.25300781 -0.02148438 20.43554688 C0.12998047 19.61119141 0.28144531 18.78683594 0.4375 17.9375 C0.72913944 16.30100793 1.01956268 14.66429851 1.30859375 13.02734375 C1.44064209 12.30281006 1.57269043 11.57827637 1.70874023 10.83178711 C2 9 2 9 2 7 C0.87081967 9.37309022 -0.25342065 11.74831994 -1.375 14.125 C-1.69210938 14.79015625 -2.00921875 15.4553125 -2.3359375 16.140625 C-4.16675254 20.03110695 -5.72966893 23.88104776 -7 28 C-7.66 28 -8.32 28 -9 28 C-9.33 29.32 -9.66 30.64 -10 32 C-10.66 32 -11.32 32 -12 32 C-8.09308113 10.71976108 -8.09308113 10.71976108 -1 4 C-0.1875 1.6875 -0.1875 1.6875 0 0 Z " fill="#249C4E" transform="translate(32,41)" />
<path d="M0 0 C3.58112602 3.7315935 3.94216761 7.83813734 4.6875 12.75 C4.81705078 13.54277344 4.94660156 14.33554688 5.08007812 15.15234375 C5.39685595 17.09994074 5.69980217 19.04977861 6 21 C7.32 20.67 8.64 20.34 10 20 C9.67 19.01 9.34 18.02 9 17 C9.66 16.67 10.32 16.34 11 16 C10.68872484 14.41642541 10.37592711 12.83315007 10.0625 11.25 C9.88847656 10.36828125 9.71445312 9.4865625 9.53515625 8.578125 C9.07631512 6.36764947 8.56663926 4.18487932 8 2 C11 3 11 3 12.09765625 4.63671875 C12.41605469 5.31347656 12.73445313 5.99023438 13.0625 6.6875 C13.40152344 7.40550781 13.74054688 8.12351562 14.08984375 8.86328125 C15.22326988 11.52415718 16.0858596 14.25757881 17 17 C17.66 17.66 18.32 18.32 19 19 C13.48795938 22.52158151 7.49256186 23.20410748 1 23 C-1 21 -1 21 -1.23046875 19.046875 C-1.14698624 14.58435527 -0.78290644 10.40384875 0 6 C0.03703069 4.00034285 0.04760556 1.99943335 0 0 Z " fill="#189341" transform="translate(54,52)" />
<path d="M0 0 C3.1806031 3.1806031 3.93017523 6.95152112 4.07958984 11.33496094 C4.0103127 13.8558517 3.86634861 16.35958081 3.6875 18.875 C3.63916016 19.74125 3.59082031 20.6075 3.54101562 21.5 C3.14773261 27.85226739 3.14773261 27.85226739 2 29 C-0.33297433 29.04092937 -2.66705225 29.04241723 -5 29 C-4.33267025 22.63470087 -3.49610108 16.32179001 -2.5 10 C-2.36980469 9.14277344 -2.23960938 8.28554688 -2.10546875 7.40234375 C-1.97785156 6.58894531 -1.85023437 5.77554688 -1.71875 4.9375 C-1.66170898 4.57076172 -1.66170898 4.57076172 -1.37304688 2.71484375 C-1 1 -1 1 0 0 Z " fill="#046625" transform="translate(41,46)" />
<path d="M0 0 C3.0625 0.125 3.0625 0.125 5.0625 1.125 C6.60273996 1.19450541 8.14584988 1.20952357 9.6875 1.1875 C10.50476563 1.17847656 11.32203125 1.16945313 12.1640625 1.16015625 C12.79054688 1.14855469 13.41703125 1.13695313 14.0625 1.125 C13.7325 1.785 13.4025 2.445 13.0625 3.125 C11.50009968 3.15230408 9.9375573 3.17153226 8.375 3.1875 C7.50488281 3.19910156 6.63476562 3.21070313 5.73828125 3.22265625 C3.07441443 3.12543483 0.65676811 2.71864333 -1.9375 2.125 C-2.44753125 4.76926917 -2.94811667 7.4143802 -3.4375 10.0625 C-3.58203613 10.84214111 -3.72657227 11.62178223 -3.87548828 12.42504883 C-4.59020775 16.46992225 -5.08253587 20.19089985 -4.8125 24.3125 C-4.93836321 28.15132778 -5.07659266 28.86661691 -7.3125 31.6875 C-9.9375 34.125 -9.9375 34.125 -11.9375 34.125 C-12.06125 34.96289062 -12.185 35.80078125 -12.3125 36.6640625 C-12.97922416 40.35604752 -13.92469405 43.88815525 -14.9375 47.5 C-16.36953886 52.70294689 -17.49792329 57.7401853 -17.9375 63.125 C-17.1125 62.96 -17.1125 62.96 -12.9375 62.125 C-12.9375 63.115 -12.9375 64.105 -12.9375 65.125 C-14.9175 64.795 -16.8975 64.465 -18.9375 64.125 C-19.73667792 51.27895486 -16.53763183 40.82808207 -10.515625 29.59375 C-8.46572835 25.08803658 -7.79974793 20.86217675 -7.32421875 15.96484375 C-6.92816255 13.05643107 -6.06834858 10.81855667 -4.9375 8.125 C-4.5878582 5.79405466 -4.25195513 3.46095238 -3.9375 1.125 C-2.9375 0.125 -2.9375 0.125 0 0 Z " fill="#183E1B" transform="translate(37.9375,15.875)" />
<path d="M0 0 C0.99 0.33 1.98 0.66 3 1 C3 1.66 3 2.32 3 3 C5.31 3 7.62 3 10 3 C10 2.34 10 1.68 10 1 C10.99 1.33 11.98 1.66 13 2 C13.33 1.67 13.66 1.34 14 1 C15.66617115 0.95936168 17.33388095 0.957279 19 1 C19.33 2.32 19.66 3.64 20 5 C17.18566777 8.13117758 14.642773 10.63018739 10.44921875 11.57421875 C7.79580735 11.68821717 5.58275003 11.62435175 3 11 C0.375 8.5 0.375 8.5 -1 6 C-0.21625 6.165 0.5675 6.33 1.375 6.5 C4 7 4 7 6 7 C3.69 6.34 1.38 5.68 -1 5 C-0.67 3.35 -0.34 1.7 0 0 Z " fill="#656249" transform="translate(37,11)" />
<path d="M0 0 C1.13582978 3.37304085 0.84728724 5.45446341 -0.14453125 8.84375 C-0.40943359 9.76027344 -0.67433594 10.67679688 -0.94726562 11.62109375 C-1.23279297 12.57113281 -1.51832031 13.52117188 -1.8125 14.5 C-2.08642578 15.45003906 -2.36035156 16.40007813 -2.64257812 17.37890625 C-3.83527157 21.44607669 -5.00232039 25.24753617 -7 29 C-8.98 29 -10.96 29 -13 29 C-12.67 27.68 -12.34 26.36 -12 25 C-11.34 25 -10.68 25 -10 25 C-9.79375 23.7625 -9.5875 22.525 -9.375 21.25 C-8.00609207 14.99071809 -4.99088304 9.6160331 -2 4 C-1.328922 2.66888147 -0.66030997 1.33649278 0 0 Z " fill="#057024" transform="translate(35,44)" />
<path d="M0 0 C0.66 0 1.32 0 2 0 C1.6875 3.375 1.6875 3.375 1 7 C-2.79163027 9.52775351 -5.80874031 9.22443035 -10.1875 9.125 C-10.93708984 9.11597656 -11.68667969 9.10695313 -12.45898438 9.09765625 C-14.30612654 9.07412578 -16.15310412 9.03825561 -18 9 C-18 9.99 -18 10.98 -18 12 C-18.99 12.33 -19.98 12.66 -21 13 C-20.34 9.04 -19.68 5.08 -19 1 C-15 3 -15 3 -14 4 C-10.63666771 4.37370359 -7.35970067 4.41259482 -4 4 C-1.5 2 -1.5 2 0 0 Z " fill="#5CC887" transform="translate(54,17)" />
<path d="M0 0 C2.39019895 0.95607958 3.73057758 1.55030948 5.07421875 3.79296875 C6.03158469 6.07529684 6.5161461 8.12667316 6.9375 10.5625 C9.4253266 23.85065321 9.4253266 23.85065321 12 29 C10.35 29 8.7 29 7 29 C6.81824219 28.18917969 6.63648438 27.37835938 6.44921875 26.54296875 C4.80684418 19.3080982 3.01734237 12.13938896 1 5 C0.01 5.99 -0.98 6.98 -2 8 C-1.125 2.25 -1.125 2.25 0 0 Z " fill="#04571E" transform="translate(53,44)" />
<path d="M0 0 C0.99 0.33 1.98 0.66 3 1 C2.96519531 1.69867187 2.93039063 2.39734375 2.89453125 3.1171875 C2.86746094 4.02726562 2.84039062 4.93734375 2.8125 5.875 C2.77769531 6.77992187 2.74289063 7.68484375 2.70703125 8.6171875 C2.80371094 9.40351563 2.90039062 10.18984375 3 11 C3.99 11.66 4.98 12.32 6 13 C6.23046875 15.109375 6.23046875 15.109375 6.1875 17.75 C6.50200516 22.88914809 8.07499577 26.4434372 10.75 30.75 C16.68395296 40.36007673 20.4010653 50.62024077 21 62 C20.67 62.165 20.67 62.165 19 63 C18.90074219 61.71222656 18.80148438 60.42445312 18.69921875 59.09765625 C18.11682209 53.90284063 16.64351003 49.3136023 14.8125 44.4375 C14.53341797 43.63892578 14.25433594 42.84035156 13.96679688 42.01757812 C12.07632953 36.89704075 9.6684027 33.10320988 6.28198242 28.84643555 C4.4580984 26.21950071 4.06057186 23.83816984 3.75 20.6875 C3.1648855 15.24732824 3.1648855 15.24732824 1 12 C0.5859375 9.08203125 0.5859375 9.08203125 0.375 5.8125 C0.30023438 4.72582031 0.22546875 3.63914062 0.1484375 2.51953125 C0.09945312 1.68808594 0.05046875 0.85664063 0 0 Z " fill="#124216" transform="translate(57,16)" />
<path d="M0 0 C1.64630328 0.14042877 3.29204179 0.28749329 4.9375 0.4375 C5.39576172 0.47810547 5.39576172 0.47810547 7.71484375 0.68359375 C10 1 10 1 11 2 C12.34015221 2.15582303 13.68758903 2.25044142 15.03515625 2.31640625 C15.43959961 2.33735352 15.43959961 2.33735352 17.48632812 2.44335938 C18.33646484 2.48267578 19.18660156 2.52199219 20.0625 2.5625 C20.91650391 2.60568359 21.77050781 2.64886719 22.65039062 2.69335938 C24.76672037 2.79976702 26.88333813 2.90041731 29 3 C29 3.99 29 4.98 29 6 C25.79174438 6.05849554 22.58362767 6.09376162 19.375 6.125 C18.47136719 6.14175781 17.56773438 6.15851563 16.63671875 6.17578125 C11.65793632 6.21212273 7.67046421 5.94003898 3 4 C2.01 3.67 1.02 3.34 0 3 C0 2.01 0 1.02 0 0 Z " fill="#2A7C46" transform="translate(20,76)" />
<path d="M0 0 C0.66 0.99 1.32 1.98 2 3 C2.99 2.01 3.98 1.02 5 0 C6.125 4.75 6.125 4.75 5 7 C4.90500497 8.49756871 4.87012802 9.99942932 4.875 11.5 C4.87242188 12.2940625 4.86984375 13.088125 4.8671875 13.90625 C5 16 5 16 6 18 C0.25 18.125 0.25 18.125 -2 17 C-2 13.37 -2 9.74 -2 6 C-1.67 6 -1.34 6 -1 6 C-0.67 8.31 -0.34 10.62 0 13 C0 8.71 0 4.42 0 0 Z " fill="#1A7F3D" transform="translate(49,57)" />
<path d="M0 0 C0 2.83967231 -0.40267181 5.23735711 -1 8 C-0.34 8.33 0.32 8.66 1 9 C0.72285156 9.61488281 0.44570313 10.22976562 0.16015625 10.86328125 C-0.20207031 11.67152344 -0.56429688 12.47976562 -0.9375 13.3125 C-1.29714844 14.11300781 -1.65679688 14.91351563 -2.02734375 15.73828125 C-3 18 -3 18 -4 21 C-4.66 21 -5.32 21 -6 21 C-6.33 22.32 -6.66 23.64 -7 25 C-7.66 25 -8.32 25 -9 25 C-5.91433147 8.19295436 -5.91433147 8.19295436 -3 2 C-2.01 1.34 -1.02 0.68 0 0 Z " fill="#16923F" transform="translate(29,48)" />
<path d="M0 0 C4.62 0 9.24 0 14 0 C13.67 0.165 13.67 0.165 12 1 C11.67 1.99 11.34 2.98 11 4 C6.44293494 6.41256386 3.23220388 7.38284419 -2 7 C-2.33 6.01 -2.66 5.02 -3 4 C-2.01 3.67 -1.02 3.34 0 3 C0 2.01 0 1.02 0 0 Z " fill="#4BE384" transform="translate(36,26)" />
<path d="M0 0 C0 1.32 0 2.64 0 4 C-7.89955168 6.91036115 -15.60156203 8.31105326 -24 8 C-24 7.34 -24 6.68 -24 6 C-22.35 6 -20.7 6 -19 6 C-19 5.34 -19 4.68 -19 4 C-18.34773438 3.96261719 -17.69546875 3.92523438 -17.0234375 3.88671875 C-10.9904471 3.43290974 -5.62387198 0 0 0 Z " fill="#C9E8D2" transform="translate(76,70)" />
<path d="M0 0 C0.66 0.33 1.32 0.66 2 1 C2 7.6 2 14.2 2 21 C2.66 21.33 3.32 21.66 4 22 C0.57767028 23.14077657 -2.08673217 23.09815117 -5.6875 23.0625 C-6.27724609 23.05798828 -6.27724609 23.05798828 -9.26171875 23.03515625 C-10.16535156 23.02355469 -11.06898437 23.01195313 -12 23 C-12 22.67 -12 22.34 -12 22 C-8.7 21.67 -5.4 21.34 -2 21 C-1.93941406 19.65164062 -1.87882812 18.30328125 -1.81640625 16.9140625 C-1.73200578 15.1510304 -1.64735753 13.38801016 -1.5625 11.625 C-1.52318359 10.73554687 -1.48386719 9.84609375 -1.44335938 8.9296875 C-1.40146484 8.07890625 -1.35957031 7.228125 -1.31640625 6.3515625 C-1.27974854 5.56604004 -1.24309082 4.78051758 -1.20532227 3.97119141 C-1 2 -1 2 0 0 Z " fill="#25A051" transform="translate(45,53)" />
<path d="M0 0 C1.62490954 -0.02698189 3.24994633 -0.04638757 4.875 -0.0625 C5.77992187 -0.07410156 6.68484375 -0.08570313 7.6171875 -0.09765625 C10 0 10 0 12 1 C11.67 2.65 11.34 4.3 11 6 C7.37 6 3.74 6 0 6 C0 4.02 0 2.04 0 0 Z " fill="#D6E5DA" transform="translate(32,35)" />
<path d="M0 0 C2.86724686 0.57344937 3.8614515 0.8614515 6 3 C5.835 3.639375 5.67 4.27875 5.5 4.9375 C5.335 5.618125 5.17 6.29875 5 7 C5.33 7.495 5.33 7.495 7 10 C7.4140625 12.69921875 7.4140625 12.69921875 7.625 15.6875 C7.69976562 16.68136719 7.77453125 17.67523438 7.8515625 18.69921875 C7.90054688 19.45847656 7.94953125 20.21773437 8 21 C7.67 20.34 7.34 19.68 7 19 C6.34 19 5.68 19 5 19 C4.16338138 16.2092793 3.33057263 13.41751988 2.5 10.625 C2.26152344 9.8309375 2.02304687 9.036875 1.77734375 8.21875 C1.55175781 7.45820312 1.32617188 6.69765625 1.09375 5.9140625 C0.88427734 5.2123291 0.67480469 4.5105957 0.45898438 3.78759766 C0 2 0 2 0 0 Z " fill="#17843F" transform="translate(58,50)" />
<path d="M0 0 C0.33 0.66 0.66 1.32 1 2 C1.99 1.96519531 2.98 1.93039063 4 1.89453125 C11.23932767 1.71865489 17.35935862 1.74744095 24 5 C24 5.33 24 5.66 24 6 C20.7 5.67 17.4 5.34 14 5 C14 5.66 14 6.32 14 7 C13.34 7 12.68 7 12 7 C12 6.34 12 5.68 12 5 C8.04 4.67 4.08 4.34 0 4 C0 2.68 0 1.36 0 0 Z " fill="#4CC17C" transform="translate(33,31)" />
<path d="M0 0 C2.38419873 0.95367949 3.73467287 1.57989872 5.125 3.78125 C6.11000156 6.27893252 6.20359799 8.0776682 6.125 10.75 C6.10695313 11.54921875 6.08890625 12.3484375 6.0703125 13.171875 C6.05871094 13.47351563 6.05871094 13.47351563 6 15 C2.71669856 12.07651242 2.04133067 9.24542505 1 5 C0.01 5.99 -0.98 6.98 -2 8 C-1.125 2.25 -1.125 2.25 0 0 Z " fill="#054111" transform="translate(53,44)" />
<path d="M0 0 C0.99 0.33 1.98 0.66 3 1 C2.96519531 1.69867187 2.93039063 2.39734375 2.89453125 3.1171875 C2.86746094 4.02726562 2.84039062 4.93734375 2.8125 5.875 C2.77769531 6.77992187 2.74289063 7.68484375 2.70703125 8.6171875 C2.80371094 9.40351563 2.90039062 10.18984375 3 11 C3.99 11.66 4.98 12.32 6 13 C6.44140625 15.4609375 6.44140625 15.4609375 6.5625 18.375 C6.72978502 22.13637838 7.07344958 24.73492257 9 28 C8.01 28 7.02 28 6 28 C3.7480388 25.7480388 4.03485481 20.93218063 3.59765625 17.8828125 C3 15 3 15 1 12 C0.5859375 9.08203125 0.5859375 9.08203125 0.375 5.8125 C0.30023438 4.72582031 0.22546875 3.63914062 0.1484375 2.51953125 C0.09945312 1.68808594 0.05046875 0.85664063 0 0 Z " fill="#1A441E" transform="translate(57,16)" />
<path d="M0 0 C0.66 0 1.32 0 2 0 C0.95125002 2.62187494 0.35068687 3.79371361 -2.125 5.25 C-2.74375 5.4975 -3.3625 5.745 -4 6 C-4 6.66 -4 7.32 -4 8 C-12.03501094 8.78774617 -12.03501094 8.78774617 -16.0625 5.5 C-16.701875 4.675 -17.34125 3.85 -18 3 C-17.67 2.34 -17.34 1.68 -17 1 C-16.60683594 1.48597656 -16.21367188 1.97195312 -15.80859375 2.47265625 C-12.88447145 4.94205543 -10.06524112 4.4623131 -6.37890625 4.37109375 C-3.18784955 3.87330986 -1.90520832 2.54027777 0 0 Z " fill="#AAE9C4" transform="translate(54,17)" />
<path d="M0 0 C0.66 0.33 0.66 0.33 4 2 C3.67 7.28 3.34 12.56 3 18 C2.01 18 1.02 18 0 18 C0 12.06 0 6.12 0 0 Z " fill="#0D973D" transform="translate(41,56)" />
<path d="M0 0 C6.99971924 6.36893059 9.1162395 16.08659664 11 25 C10.34 25 9.68 25 9 25 C8.76925781 24.24976562 8.53851563 23.49953125 8.30078125 22.7265625 C6.32112594 16.51373122 4.07598514 10.78697274 0.953125 5.05859375 C0 3 0 3 0 0 Z " fill="#268342" transform="translate(64,45)" />
<path d="M0 0 C0.61875 0.165 1.2375 0.33 1.875 0.5 C6.25763846 1.20122215 10.57189875 1.06754731 15 1 C15.99 1 16.98 1 18 1 C16.20847786 3.60585039 14.7873232 4.85221342 11.6484375 5.44140625 C8.96651939 5.56403082 6.63407466 5.52944026 4 5 C1.375 2.5 1.375 2.5 0 0 Z " fill="#7DAC91" transform="translate(36,17)" />
<path d="M0 0 C2.10464793 0.30924214 4.2087053 0.6225056 6.3125 0.9375 C7.48425781 1.11152344 8.65601563 1.28554687 9.86328125 1.46484375 C13 2 13 2 16 3 C16 3.66 16 4.32 16 5 C13.70800823 4.85936865 11.41640814 4.71234057 9.125 4.5625 C7.84882813 4.48128906 6.57265625 4.40007812 5.2578125 4.31640625 C2 4 2 4 0 3 C0 2.01 0 1.02 0 0 Z " fill="#D8F7E2" transform="translate(20,73)" />
<path d="M0 0 C0.19658808 1.41543415 0.38187546 2.83244031 0.5625 4.25 C0.66691406 5.03890625 0.77132812 5.8278125 0.87890625 6.640625 C1.00027349 9.00532874 0.69633257 10.7511037 0 13 C-3.36720387 11.60667426 -4.9859524 10.0210714 -7 7 C-5.02 7 -3.04 7 -1 7 C-1 6.34 -1 5.68 -1 5 C-1.66 5 -2.32 5 -3 5 C-3.66 3.68 -4.32 2.36 -5 1 C-3 0 -3 0 0 0 Z " fill="#B5B8B2" transform="translate(62,35)" />
<path d="M0 0 C0 0.66 0 1.32 0 2 C0.66 2 1.32 2 2 2 C2 2.66 2 3.32 2 4 C-1.12180401 4.96661363 -3.52083795 4.98988909 -6.75 4.5625 C-7.14960937 4.51158203 -7.14960937 4.51158203 -9.171875 4.25390625 C-9.77515625 4.17011719 -10.3784375 4.08632813 -11 4 C-11 3.34 -11 2.68 -11 2 C-9.54494642 1.47007308 -8.08581873 0.9513211 -6.625 0.4375 C-5.81289063 0.14746094 -5.00078125 -0.14257812 -4.1640625 -0.44140625 C-2 -1 -2 -1 0 0 Z " fill="#DAEADF" transform="translate(59,38)" />
<path d="M0 0 C1.32 0 2.64 0 4 0 C3.29411026 7.05889737 2.21786614 14.01204964 1 21 C-1 19 -1 19 -1.046875 16.390625 C-0.05920206 5.94208494 -0.05920206 5.94208494 2 1 C1.34 0.67 0.68 0.34 0 0 Z " fill="#046E22" transform="translate(36,42)" />
<path d="M0 0 C0.825 0.33 0.825 0.33 5 2 C4.25 7.75 4.25 7.75 2 10 C0.4375 8.375 0.4375 8.375 -1 6 C-0.6875 2.75 -0.6875 2.75 0 0 Z " fill="#CCE0CE" transform="translate(46,44)" />
<path d="M0 0 C0.33 0 0.66 0 1 0 C1.08150744 2.06183633 1.1394194 4.12461349 1.1875 6.1875 C1.22230469 7.33605469 1.25710937 8.48460937 1.29296875 9.66796875 C0.97622579 13.27039199 0.08533398 15.09366839 -2 18 C-3.17463364 14.47609908 -2.77415531 12.6281557 -2.125 9 C-1.94195312 7.948125 -1.75890625 6.89625 -1.5703125 5.8125 C-1 3 -1 3 0 0 Z " fill="#25AA53" transform="translate(34,53)" />
<path d="M0 0 C7.34164374 0.59288188 14.67386859 1.238212 22 2 C22 2.33 22 2.66 22 3 C6.07061503 4.70159453 6.07061503 4.70159453 0 1 C0 0.67 0 0.34 0 0 Z " fill="#666B53" transform="translate(21,82)" />
<path d="M0 0 C0.33 0 0.66 0 1 0 C1 5.28 1 10.56 1 16 C1.66 16.33 2.32 16.66 3 17 C1.35 16.67 -0.3 16.34 -2 16 C-1.85764543 14.27054347 -1.71095618 12.54144346 -1.5625 10.8125 C-1.48128906 9.84957031 -1.40007813 8.88664062 -1.31640625 7.89453125 C-1.02333849 5.21350398 -0.57296246 2.6337014 0 0 Z " fill="#0A722F" transform="translate(40,58)" />
<path d="M0 0 C0.99 0 1.98 0 3 0 C3 5.61 3 11.22 3 17 C2.34 16.67 1.68 16.34 1 16 C-0.11115605 10.66645094 -0.11083416 5.43087408 0 0 Z " fill="#02601C" transform="translate(47,54)" />
<path d="M0 0 C0 1.32 0 2.64 0 4 C-2.70879335 5.35439668 -5.00933268 5.06501451 -8 5 C-8 4.01 -8 3.02 -8 2 C-4.77208445 -0.1519437 -3.71599191 -0.20086443 0 0 Z " fill="#1B783E" transform="translate(76,74)" />
<path d="M0 0 C0.66 0 1.32 0 2 0 C2.09667969 0.33773437 2.09667969 0.33773437 2.5859375 2.046875 C2.84632812 2.93890625 3.10671875 3.8309375 3.375 4.75 C3.63023438 5.63171875 3.88546875 6.5134375 4.1484375 7.421875 C5 10 5 10 6.1640625 12.140625 C7 14 7 14 6 17 C6 16.34 6 15.68 6 15 C5.34 15 4.68 15 4 15 C3.32779649 13.06441401 2.66241923 11.12645628 2 9.1875 C1.62875 8.10855469 1.2575 7.02960937 0.875 5.91796875 C0 3 0 3 0 0 Z " fill="#0D7C32" transform="translate(59,54)" />
<path d="M0 0 C0.66 0 1.32 0 2 0 C3.20272819 2.40545638 3.10071472 3.94996953 3.0625 6.625 C3.05347656 7.44226563 3.04445313 8.25953125 3.03515625 9.1015625 C3.02355469 9.72804688 3.01195312 10.35453125 3 11 C2.67 11.165 2.67 11.165 1 12 C0.01 10.68 -0.98 9.36 -2 8 C-1.34 8 -0.68 8 0 8 C0 5.36 0 2.72 0 0 Z " fill="#46A86A" transform="translate(55,16)" />
<path d="M0 0 C0.99 0.33 1.98 0.66 3 1 C3.94921875 2.9609375 3.94921875 2.9609375 4.6875 5.375 C4.93886719 6.16648437 5.19023438 6.95796875 5.44921875 7.7734375 C6 10 6 10 6 13 C5.34 13 4.68 13 4 13 C3.51891725 11.58398286 3.04021859 10.16715563 2.5625 8.75 C2.29566406 7.96109375 2.02882813 7.1721875 1.75390625 6.359375 C1.08045292 4.25178012 0.50849405 2.15246027 0 0 Z " fill="#1CA84E" transform="translate(62,54)" />
<path d="M0 0 C3.63 0 7.26 0 11 0 C11 0.33 11 0.66 11 1 C9.35 1 7.7 1 6 1 C6 1.66 6 2.32 6 3 C7.98 3 9.96 3 12 3 C12 3.33 12 3.66 12 4 C10.56416999 4.10836453 9.1259798 4.18576167 7.6875 4.25 C7.28724609 4.27320312 7.28724609 4.27320312 5.26171875 4.390625 C3 4 3 4 0 0 Z " fill="#A4D0B1" transform="translate(46,75)" />
<path d="M0 0 C0.33 0 0.66 0 1 0 C1.33 2.31 1.66 4.62 2 7 C2.99 7 3.98 7 5 7 C5 8.32 5 9.64 5 11 C3.35 11 1.7 11 0 11 C0 7.37 0 3.74 0 0 Z " fill="#0C752D" transform="translate(47,63)" />
<path d="M0 0 C0.33 0 0.66 0 1 0 C1 2.31 1 4.62 1 7 C1.66 6.67 2.32 6.34 3 6 C3 7.32 3 8.64 3 10 C1.02 10 -0.96 10 -3 10 C-2.01 6.7 -1.02 3.4 0 0 Z " fill="#149D3C" transform="translate(31,63)" />
<path d="M0 0 C0.99 0.33 1.98 0.66 3 1 C1.73058503 4.91402949 0.48832306 6.79072873 -3 9 C-2.5020163 5.26512223 -2.12508244 3.18762365 0 0 Z " fill="#0B4D16" transform="translate(30,41)" />
<path d="M0 0 C2.64465038 3.1254959 3.84414715 6.08788267 5 10 C3.68 9.67 2.36 9.34 1 9 C1 8.34 1 7.68 1 7 C0.34 7 -0.32 7 -1 7 C-0.67 4.69 -0.34 2.38 0 0 Z " fill="#055F1E" transform="translate(64,48)" />
<path d="M0 0 C4.95 0 9.9 0 15 0 C15.33 0.66 15.66 1.32 16 2 C15.34 2 14.68 2 14 2 C14 2.66 14 3.32 14 4 C13.34 4 12.68 4 12 4 C12 3.34 12 2.68 12 2 C8.04 1.67 4.08 1.34 0 1 C0 0.67 0 0.34 0 0 Z " fill="#70C491" transform="translate(33,34)" />
<path d="M0 0 C0 0.99 0 1.98 0 3 C-2.31 3 -4.62 3 -7 3 C-7.33 2.01 -7.66 1.02 -8 0 C-4.71303767 -0.79953138 -3.28976808 -1.09658936 0 0 Z " fill="#127032" transform="translate(61,79)" />
<path d="M0 0 C1.98 0 3.96 0 6 0 C5.67 0.165 5.67 0.165 4 1 C3.375 3.5625 3.375 3.5625 3 6 C2.01 6 1.02 6 0 6 C0 4.02 0 2.04 0 0 Z " fill="#D5EFE1" transform="translate(32,35)" />
<path d="M0 0 C1.32 0 2.64 0 4 0 C4.33 1.32 4.66 2.64 5 4 C1.37 4 -2.26 4 -6 4 C-6 3.67 -6 3.34 -6 3 C-4.02 3 -2.04 3 0 3 C0 2.01 0 1.02 0 0 Z " fill="#125121" transform="translate(49,79)" />
<path d="M0 0 C1.485 0.33 1.485 0.33 9 2 C9 2.99 9 3.98 9 5 C5.87709365 4.51421457 3.00419641 4.0013988 0 3 C0 2.01 0 1.02 0 0 Z " fill="#206234" transform="translate(20,76)" />
<path d="M0 0 C2.64 0 5.28 0 8 0 C8 0.99 8 1.98 8 3 C5.69 3.33 3.38 3.66 1 4 C0.67 2.68 0.34 1.36 0 0 Z " fill="#0D5226" transform="translate(60,77)" />
<path d="M0 0 C0.825 0.165 0.825 0.165 5 1 C5 1.66 5 2.32 5 3 C7.64 3.33 10.28 3.66 13 4 C13 4.33 13 4.66 13 5 C9.9465865 5.29359745 7.04256578 5.4451258 4 5 C1.4375 2.5 1.4375 2.5 0 0 Z " fill="#6C987B" transform="translate(36,17)" />
<path d="M0 0 C1.65 0 3.3 0 5 0 C5.33 1.32 5.66 2.64 6 4 C4.02 4.33 2.04 4.66 0 5 C0 3.33333333 0 1.66666667 0 0 Z " fill="#52563D" transform="translate(51,12)" />
<path d="M0 0 C2.97 0 5.94 0 9 0 C9 0.99 9 1.98 9 3 C5.7 3 2.4 3 -1 3 C-0.67 2.01 -0.34 1.02 0 0 Z " fill="#1C793C" transform="translate(40,79)" />
<path d="M0 0 C2.96865509 2.54456151 4.3619751 5.48994665 6 9 C5.67 9.495 5.67 9.495 4 12 C3.32645501 10.56570999 2.66140299 9.12742943 2 7.6875 C1.62875 6.88699219 1.2575 6.08648437 0.875 5.26171875 C0 3 0 3 0 0 Z " fill="#1F733B" transform="translate(64,45)" />
<path d="M0 0 C0.33 0.66 0.66 1.32 1 2 C1.99 1.67 2.98 1.34 4 1 C3.67 2.65 3.34 4.3 3 6 C0.03 6 -2.94 6 -6 6 C-6 5.67 -6 5.34 -6 5 C-4.35 4.67 -2.7 4.34 -1 4 C-0.67 2.68 -0.34 1.36 0 0 Z " fill="#A0ADA1" transform="translate(44,36)" />
<path d="M0 0 C3 4 3 4 2.85546875 6.140625 C2.23697917 8.09375 1.61848958 10.046875 1 12 C0.67 12 0.34 12 0 12 C0 8.04 0 4.08 0 0 Z " fill="#108534" transform="translate(41,56)" />
<path d="M0 0 C0.66 0.33 1.32 0.66 2 1 C1.49287967 4.71888239 0.88391785 7.73454239 -1 11 C-2.23076923 4.6 -2.23076923 4.6 -1.0625 1.5625 C-0.711875 1.046875 -0.36125 0.53125 0 0 Z " fill="#03802F" transform="translate(53,57)" />
<path d="M0 0 C0.66 0.33 1.32 0.66 2 1 C2 2.32 2 3.64 2 5 C0.35 5.33 -1.3 5.66 -3 6 C-2.42655063 3.13275314 -2.1385485 2.1385485 0 0 Z " fill="#389F60" transform="translate(59,30)" />
<path d="M0 0 C1.051875 0.639375 2.10375 1.27875 3.1875 1.9375 C6.10828412 3.61754452 8.6171743 4.58996052 12 5 C12 5.33 12 5.66 12 6 C4.65306122 6.48979592 4.65306122 6.48979592 1.5 4.125 C0 2 0 2 0 0 Z " fill="#C8FCE0" transform="translate(36,18)" />
<path d="M0 0 C3.3 0.33 6.6 0.66 10 1 C10 1.33 10 1.66 10 2 C8.71073008 2.36279456 7.41846728 2.71496698 6.125 3.0625 C5.76535156 3.16111328 5.76535156 3.16111328 3.9453125 3.66015625 C2 4 2 4 0 3 C0 2.01 0 1.02 0 0 Z " fill="#B1D9BE" transform="translate(20,73)" />
<path d="M0 0 C0.33 0.99 0.66 1.98 1 3 C1.66 3 2.32 3 3 3 C3 3.99 3 4.98 3 6 C2.34 6 1.68 6 1 6 C0.67 7.32 0.34 8.64 0 10 C-0.66 10 -1.32 10 -2 10 C-1.34 6.7 -0.68 3.4 0 0 Z " fill="#238445" transform="translate(22,63)" />
<path d="M0 0 C0.99 0 1.98 0 3 0 C3.33 3.3 3.66 6.6 4 10 C3.34 9.67 2.68 9.34 2 9 C1.3671875 6.93359375 1.3671875 6.93359375 0.875 4.4375 C0.70742187 3.61121094 0.53984375 2.78492188 0.3671875 1.93359375 C0.24601562 1.29550781 0.12484375 0.65742187 0 0 Z " fill="#5B6C4A" transform="translate(74,60)" />
<path d="M0 0 C1.32 0.66 2.64 1.32 4 2 C3.67 2.165 3.67 2.165 2 3 C1.67 3.66 1.34 4.32 1 5 C0.01979625 6.0194119 -0.97803008 7.02246356 -2 8 C-1.125 2.25 -1.125 2.25 0 0 Z " fill="#173923" transform="translate(53,44)" />
<path d="M0 0 C3.98175544 2.10148204 6.35039045 4.36905358 9 8 C6 8 6 8 3.375 5.6875 C1 3 1 3 0 0 Z " fill="#C5D0C7" transform="translate(52,41)" />
<path d="M0 0 C0.825 0.33 0.825 0.33 5 2 C4.67 3.65 4.34 5.3 4 7 C2 6 2 6 0.875 2.9375 C0.58625 1.968125 0.2975 0.99875 0 0 Z " fill="#D6DFD8" transform="translate(46,44)" />
<path d="M0 0 C0 0.66 0 1.32 0 2 C-3.05263664 2.98120464 -4.94736336 2.98120464 -8 2 C-8 1.34 -8 0.68 -8 0 C-4.94736336 -0.98120464 -3.05263664 -0.98120464 0 0 Z " fill="#DADCDC" transform="translate(61,40)" />
<path d="M0 0 C0 2.31 0 4.62 0 7 C-0.33 6.34 -0.66 5.68 -1 5 C-1.66 5 -2.32 5 -3 5 C-3.66 3.68 -4.32 2.36 -5 1 C-3 0 -3 0 0 0 Z " fill="#96B19C" transform="translate(62,35)" />
<path d="M0 0 C0 0.99 0 1.98 0 3 C-2.64 3 -5.28 3 -8 3 C-8 2.34 -8 1.68 -8 1 C-5.23735711 0.40267181 -2.83967231 0 0 0 Z " fill="#E3FCED" transform="translate(60,75)" />
<path d="M0 0 C2 4 2 4 2 7 C2.66 7.33 3.32 7.66 4 8 C2.35 8.33 0.7 8.66 -1 9 C-0.67 6.03 -0.34 3.06 0 0 Z " fill="#25B052" transform="translate(56,66)" />
<path d="M0 0 C0.6875 1.6875 0.6875 1.6875 1 4 C-0.4375 6.75 -0.4375 6.75 -2 9 C-3.21185923 5.36442231 -2.59260392 4.36216382 -1 1 C-0.67 0.67 -0.34 0.34 0 0 Z " fill="#17B44F" transform="translate(34,62)" />
<path d="M0 0 C2.31 0 4.62 0 7 0 C6.34 1.65 5.68 3.3 5 5 C3.0625 4.1875 3.0625 4.1875 1 3 C0.67 2.01 0.34 1.02 0 0 Z " fill="#10461F" transform="translate(40,42)" />
<path d="M0 0 C1.65 0 3.3 0 5 0 C4.34 1.32 3.68 2.64 3 4 C1.68 4 0.36 4 -1 4 C-0.67 2.68 -0.34 1.36 0 0 Z " fill="#38E37E" transform="translate(36,28)" />
<path d="M0 0 C1.32 0 2.64 0 4 0 C4 1.32 4 2.64 4 4 C2.35 4 0.7 4 -1 4 C-0.67 2.68 -0.34 1.36 0 0 Z " fill="#096028" transform="translate(23,69)" />
<path d="M0 0 C0 1.32 0 2.64 0 4 C-1.32 4 -2.64 4 -4 4 C-4 3.34 -4 2.68 -4 2 C-4.66 1.67 -5.32 1.34 -6 1 C-3 0 -3 0 0 0 Z " fill="#AACDB4" transform="translate(76,70)" />
<path d="M0 0 C0.33 1.32 0.66 2.64 1 4 C1.66 4 2.32 4 3 4 C3.625 5.875 3.625 5.875 4 8 C3.34 8.66 2.68 9.32 2 10 C-0.09350689 6.5980513 -0.17942163 3.94727588 0 0 Z " fill="#067D29" transform="translate(41,50)" />
</svg>