<?xml version='1.0' encoding='utf-8'?>
<svg xmlns="http://www.w3.org/2000/svg" version="1.1" width="105" height="102">
<path d="M0 0 C0.66 0.680625 1.32 1.36125 2 2.0625 C2.66 2.701875 3.32 3.34125 4 4 C5.67293936 3.69972883 7.33985384 3.36442233 9 3 C11.87065861 4.02523522 13.44304477 5.03253991 14.98046875 7.703125 C16.91043664 12.30605312 18.01849662 17.03714375 17 22 C16.25349165 23.48195732 15.45620515 24.93883489 14.625 26.375 C11.12652264 32.67028272 10.92953518 39.27545178 10.359375 46.31640625 C10 50 10 50 9 51 C7.35 51 5.7 51 4 51 C3.67 46.71 3.34 42.42 3 38 C-0.11269024 42.62456835 -2.45139359 46.97074647 -4.4375 52.1875 C-6.55922742 57.42902599 -8.13978351 60.08387011 -13 63 C-21.59291282 66.34168832 -28.15268993 65.25232207 -36.58203125 62.36328125 C-39.58514934 60.67008543 -40.56313344 59.10381961 -42 56 C-42.3804212 51.58711402 -42.48386059 49.72579089 -40 46 C-40.721875 45.9175 -41.44375 45.835 -42.1875 45.75 C-45.58712309 44.84343384 -47.42430315 43.36105545 -50 41 C-51.35439668 38.29120665 -51.06501451 35.99066732 -51 33 C-50.34 32.835 -50.34 32.835 -47 32 C-47 30.68 -47 29.36 -47 28 C-39.01436154 24.1067749 -39.01436154 24.1067749 -34.4375 23.625 C-26.28230755 22.14223774 -20.18136995 14.41587765 -14.625 8.6875 C-13.22357318 7.25173695 -11.82003231 5.81803337 -10.4140625 4.38671875 C-9.8051416 3.75983154 -9.1962207 3.13294434 -8.56884766 2.48706055 C-5.81510342 -0.12312559 -3.72321727 -0.44324015 0 0 Z " fill="#0C9096" transform="translate(70,19)" />
<path d="M0 0 C2.47304495 4.94608989 0.76160186 10.97995644 -0.26953125 16.1796875 C-0.51058594 16.78039062 -0.75164062 17.38109375 -1 18 C-1.99 18.33 -2.98 18.66 -4 19 C-5.1875 21.5625 -5.1875 21.5625 -6 24 C-6.66 24 -7.32 24 -8 24 C-8 24.66 -8 25.32 -8 26 C-8.66 26 -9.32 26 -10 26 C-10.28875 26.763125 -10.5775 27.52625 -10.875 28.3125 C-12 31 -12 31 -14 34 C-14.66 34 -15.32 34 -16 34 C-16 34.66 -16 35.32 -16 36 C-16.61875 36.2475 -17.2375 36.495 -17.875 36.75 C-20.41292362 38.24289625 -20.7414688 39.40427941 -22 42 C-22.680625 42.433125 -23.36125 42.86625 -24.0625 43.3125 C-26.93053683 45.81046756 -26.72351483 48.33657155 -27 52 C-28.65 52.66 -30.3 53.32 -32 54 C-32 54.99 -32 55.98 -32 57 C-32 57.33 -32 57.66 -32 58 C-38.31322005 58.45094429 -42.76096882 57.71298311 -48 54 C-50.11212398 51.43984972 -51 50.12323593 -51 46.8125 C-50 45 -50 45 -47.625 43.75 C-45 43 -45 43 -42 43 C-43 40 -43 40 -45 38 C-40.25 34 -40.25 34 -38 34 C-38 33.34 -38 32.68 -38 32 C-36 33 -36 33 -33 35 C-28.84362872 34.92303016 -26.70906624 34.65336218 -23.61328125 31.80078125 C-22.75089844 30.87652344 -21.88851562 29.95226562 -21 29 C-20.11441406 28.07703125 -19.22882812 27.1540625 -18.31640625 26.203125 C-4.29348258 11.26391649 -4.29348258 11.26391649 -3 3 C-8.32697239 4.45281065 -11.36402802 8.08111378 -15 12 C-15 9 -15 9 -13.57421875 7.24609375 C-12.95160156 6.64925781 -12.32898438 6.05242188 -11.6875 5.4375 C-11.07261719 4.83808594 -10.45773438 4.23867188 -9.82421875 3.62109375 C-6.4202271 0.59613329 -4.4877071 -0.24257876 0 0 Z " fill="#2BB3AE" transform="translate(80,24)" />
<path d="M0 0 C-0.59316029 3.9057324 -2.48621905 6.21803586 -4.9375 9.25 C-5.64777344 10.14203125 -6.35804687 11.0340625 -7.08984375 11.953125 C-7.72019531 12.62859375 -8.35054687 13.3040625 -9 14 C-9.66 14 -10.32 14 -11 14 C-11 14.99 -11 15.98 -11 17 C-12.46645923 18.27093133 -13.93990126 19.53642333 -15.47265625 20.7265625 C-17.31734992 22.26459354 -18.57654409 24.07833452 -20 26 C-20.66 26 -21.32 26 -22 26 C-22.33 26.99 -22.66 27.98 -23 29 C-27.31818182 33.77272727 -27.31818182 33.77272727 -31 35 C-31.33 35.99 -31.66 36.98 -32 38 C-34.96595849 39.15622111 -36.90154999 39.86995557 -40 40 C-43.45163283 38.36831903 -45.4666158 37.37155936 -46.875 33.75 C-46.91625 33.1725 -46.9575 32.595 -47 32 C-46.690625 31.95875 -46.690625 31.95875 -45.125 31.75 C-44.42375 31.5025 -43.7225 31.255 -43 31 C-42.731875 30.401875 -42.46375 29.80375 -42.1875 29.1875 C-40.36373206 25.82792749 -37.42015051 24.42397902 -34 23 C-32.5271961 22.69646515 -31.04716169 22.42638155 -29.5625 22.1875 C-23.1788042 20.89148122 -19.77538355 16.82828676 -15.33496094 12.30322266 C-14.09053734 11.03538781 -12.8443157 9.76931566 -11.59643555 8.50488281 C-10.33370828 7.22003077 -9.079761 5.92648475 -7.83520508 4.62402344 C-7.25407959 4.02750977 -6.6729541 3.43099609 -6.07421875 2.81640625 C-5.55432373 2.27443604 -5.03442871 1.73246582 -4.4987793 1.17407227 C-3 0 -3 0 0 0 Z " fill="#86A99A" transform="translate(67,21)" />
<path d="M0 0 C1.32 0 2.64 0 4 0 C4 7.51810339 -0.18254496 11.58036308 -5 17 C-5.46921875 17.5347998 -5.9384375 18.06959961 -6.421875 18.62060547 C-7.89660943 20.29763077 -9.38257362 21.96370807 -10.875 23.625 C-11.35114746 24.15826904 -11.82729492 24.69153809 -12.31787109 25.2409668 C-13.50309658 26.53392073 -14.74714959 27.7724597 -16 29 C-16.66 29 -17.32 29 -18 29 C-18.33 29.99 -18.66 30.98 -19 32 C-25.4 33.23076923 -25.4 33.23076923 -28.4375 32.0625 C-28.6953125 31.8871875 -28.6953125 31.8871875 -30 31 C-28.83499791 27.50499372 -27.6860745 27.11769424 -24.69824219 25.24072266 C-21.48950907 22.89644697 -19.13570688 19.73892824 -16.625 16.6875 C-12.08377516 11.29702397 -7.50134741 6.43284423 -2 2 C-1.34 1.34 -0.68 0.68 0 0 Z " fill="#89785B" transform="translate(73,27)" />
<path d="M0 0 C1.32 0 2.64 0 4 0 C3.67 2.97 3.34 5.94 3 9 C2.01 9.33 1.02 9.66 0 10 C0 10.66 0 11.32 0 12 C-0.66 12 -1.32 12 -2 12 C-2.2475 12.53625 -2.495 13.0725 -2.75 13.625 C-5.56762071 18.97847935 -8.66835756 22.82087982 -13.32421875 26.609375 C-15 28 -15 28 -17.3125 30.375 C-19 32 -19 32 -21 32 C-21 33.32 -21 34.64 -21 36 C-21.66 36 -22.32 36 -23 36 C-23 36.66 -23 37.32 -23 38 C-24.96147874 39.38938077 -26.96166576 40.7260411 -29 42 C-28.34 42.66 -27.68 43.32 -27 44 C-27 44.99 -27 45.98 -27 47 C-28.155 47.165 -28.155 47.165 -34 48 C-33.67 46.68 -33.34 45.36 -33 44 C-33.886875 43.95875 -34.77375 43.9175 -35.6875 43.875 C-40.21629527 42.67871446 -41.29643492 40.73728113 -44 37 C-43.236875 37.309375 -42.47375 37.61875 -41.6875 37.9375 C-37.17288573 39.7223475 -34.76641214 39.95328243 -30 39 C-29.67 37.68 -29.34 36.36 -29 35 C-28.01 35 -27.02 35 -26 35 C-25.73703125 34.39800781 -25.4740625 33.79601563 -25.203125 33.17578125 C-23.93420534 30.8810142 -22.79869084 29.78861649 -20.75 28.1875 C-17.48176717 25.51969407 -14.87286042 22.62537401 -12.26171875 19.3203125 C-12.05353516 19.10246094 -12.05353516 19.10246094 -11 18 C-10.34 18 -9.68 18 -9 18 C-9 17.01 -9 16.02 -9 15 C-7.38025441 13.28769752 -5.7041054 11.62836738 -4 10 C-1.41239431 7.15435053 0.76356831 4.70929506 2 1 C1.34 0.67 0.68 0.34 0 0 Z " fill="#138D99" transform="translate(65,20)" />
<path d="M0 0 C0.99 0.33 1.98 0.66 3 1 C5.45125847 6.17487899 7.18479061 11.22683848 6 17 C5.25349165 18.48195732 4.45620515 19.93883489 3.625 21.375 C0.12652264 27.67028272 -0.07046482 34.27545178 -0.640625 41.31640625 C-1 45 -1 45 -2 46 C-3.65 46 -5.3 46 -7 46 C-7.33 41.71 -7.66 37.42 -8 33 C-8.99 33.66 -9.98 34.32 -11 35 C-10.62145648 29.57420948 -9.01613356 27.55975475 -5 24 C-0.62853806 19.92659228 0.86266829 18.00918006 1.1328125 12.08984375 C1.13023438 11.04957031 1.12765625 10.00929688 1.125 8.9375 C1.12757812 7.89464844 1.13015625 6.85179687 1.1328125 5.77734375 C1 3 1 3 0 0 Z " fill="#0B6665" transform="translate(81,24)" />
<path d="M0 0 C0.66 0.33 1.32 0.66 2 1 C-0.91100579 3.96056456 -3.82861694 6.91441186 -6.75244141 9.86230469 C-7.74548045 10.86538097 -8.73671447 11.87024767 -9.72607422 12.87695312 C-11.15117426 14.32640161 -12.58271168 15.76921773 -14.015625 17.2109375 C-14.44504395 17.64559326 -14.44504395 17.64559326 -16.61816406 19.84521484 C-19.87276331 22.78956631 -21.88542337 23.89282917 -26.25 24.3125 C-31.53318069 25.28108313 -35.86195959 27.78930773 -39.609375 31.6640625 C-41 33 -41 33 -43 33 C-39.17879747 41.18829114 -39.17879747 41.18829114 -33.8125 43.1875 C-32.884375 43.455625 -31.95625 43.72375 -31 44 C-31.17917969 44.59167969 -31.35835937 45.18335938 -31.54296875 45.79296875 C-33.26452189 52.18879952 -33.26452189 52.18879952 -32.0625 55.875 C-27.49498999 60.58091941 -22.90403605 61.23917719 -16.5625 61.5625 C-11.28843894 61.38710118 -7.72510997 60.76386187 -3.7109375 57.2578125 C-0.68280565 53.26178462 0.9578685 48.71329702 2.67578125 44.046875 C4 41 4 41 7 39 C0.79591837 57.92244898 0.79591837 57.92244898 -6 62 C-14.59291282 65.34168832 -21.15268993 64.25232207 -29.58203125 61.36328125 C-32.58514934 59.67008543 -33.56313344 58.10381961 -35 55 C-35.3804212 50.58711402 -35.48386059 48.72579089 -33 45 C-33.721875 44.9175 -34.44375 44.835 -35.1875 44.75 C-38.58712309 43.84343384 -40.42430315 42.36105545 -43 40 C-44.35439668 37.29120665 -44.06501451 34.99066732 -44 32 C-42.68 31.67 -41.36 31.34 -40 31 C-40 29.68 -40 28.36 -40 27 C-32.01436154 23.1067749 -32.01436154 23.1067749 -27.4375 22.625 C-19.26139287 21.13843507 -13.09180559 13.35142313 -7.5 7.625 C-6.77296875 6.88894531 -6.0459375 6.15289062 -5.296875 5.39453125 C-3.52653144 3.6008937 -1.76107497 1.80273067 0 0 Z " fill="#1A4135" transform="translate(63,20)" />
<path d="M0 0 C2 1 2 1 5 3 C8.1875 3.125 8.1875 3.125 11 3 C12.16276842 7.06968947 12.0479718 9.27641491 10 13 C8.35305515 14.68615782 6.68873879 16.35570171 5 18 C5 18.66 5 19.32 5 20 C3.20866022 20.05391993 1.41686101 20.09275571 -0.375 20.125 C-1.37273438 20.14820312 -2.37046875 20.17140625 -3.3984375 20.1953125 C-6 20 -6 20 -8 18 C-6.68 17.34 -5.36 16.68 -4 16 C-3.63076923 9.47692308 -3.63076923 9.47692308 -5.5 7.0625 C-5.995 6.711875 -6.49 6.36125 -7 6 C-2.25 2 -2.25 2 0 2 C0 1.34 0 0.68 0 0 Z " fill="#56E5E1" transform="translate(42,56)" />
<path d="M0 0 C0.33 1.32 0.66 2.64 1 4 C4.63 4 8.26 4 12 4 C6.375 10.875 6.375 10.875 3 12 C2.67 12.99 2.34 13.98 2 15 C-0.96595849 16.15622111 -2.90154999 16.86995557 -6 17 C-9.45163283 15.36831903 -11.4666158 14.37155936 -12.875 10.75 C-12.91625 10.1725 -12.9575 9.595 -13 9 C-12.690625 8.95875 -12.690625 8.95875 -11.125 8.75 C-10.42375 8.5025 -9.7225 8.255 -9 8 C-8.731875 7.401875 -8.46375 6.80375 -8.1875 6.1875 C-6.32830113 2.76265997 -3.41854735 1.77258011 0 0 Z " fill="#3DD0D7" transform="translate(33,44)" />
<path d="M0 0 C-0.35579006 8.00527631 -4.27252505 15.4553168 -10 21 C-10.91243553 22.30800007 -11.78716024 23.64300799 -12.625 25 C-12.83769531 25.3403125 -12.83769531 25.3403125 -13.9140625 27.0625 C-15 29 -15 29 -16 32 C-18.1875 34.6875 -18.1875 34.6875 -21 37 C-24.3125 37.3125 -24.3125 37.3125 -27 37 C-25.82179746 32.87629112 -24.0336136 31.03355252 -20.69921875 28.42578125 C-13.5828611 22.4545846 -4.18081813 12.36220085 -3 3 C-8.32697239 4.45281065 -11.36402802 8.08111378 -15 12 C-15 9 -15 9 -13.57421875 7.24609375 C-12.95160156 6.64925781 -12.32898438 6.05242188 -11.6875 5.4375 C-11.07261719 4.83808594 -10.45773438 4.23867188 -9.82421875 3.62109375 C-6.4202271 0.59613329 -4.4877071 -0.24257876 0 0 Z " fill="#9AD8C8" transform="translate(80,24)" />
<path d="M0 0 C0 7.37391189 -4.09845116 11.78376028 -9 17 C-9.99 17.66 -10.98 18.32 -12 19 C-12.33 17.02 -12.66 15.04 -13 13 C-14.65 13.66 -16.3 14.32 -18 15 C-16.39402621 10.83636424 -13.34449496 8.19155295 -10.125 5.25 C-9.86009766 4.99669922 -9.86009766 4.99669922 -8.51953125 3.71484375 C-5.36237115 0.80837626 -4.45224286 0 0 0 Z " fill="#A6A487" transform="translate(77,27)" />
<path d="M0 0 C2.25 -0.25 2.25 -0.25 5 0 C5.33 0.3403125 5.33 0.3403125 7 2.0625 C7.33 2.3821875 7.33 2.3821875 9 4 C11.625 3.625 11.625 3.625 14 3 C14.66 3.66 15.32 4.32 16 5 C15.01 5.185625 14.02 5.37125 13 5.5625 C2.2236693 8.75229389 -5.28175562 21.24583112 -12.1171875 29.58203125 C-12.71789063 30.29746094 -13.31859375 31.01289062 -13.9375 31.75 C-14.18951172 32.05679688 -14.18951172 32.05679688 -15.46484375 33.609375 C-17.26339024 35.23859269 -18.63122309 35.61117269 -21 36 C-21 35.01 -21 34.02 -21 33 C-20.21625 32.7525 -19.4325 32.505 -18.625 32.25 C-15.54544915 30.78354721 -15.32980765 30.01423068 -14 27 C-12 24.75 -12 24.75 -10 23 C-9.34 23 -8.68 23 -8 23 C-7.87625 22.6390625 -7.87625 22.6390625 -7.25 20.8125 C-5.87730408 17.72393418 -4.27646704 15.48988582 -2 13 C-1.34 13 -0.68 13 0 13 C0 12.34 0 11.68 0 11 C0.66 10.67 1.32 10.34 2 10 C2.6328125 7.93359375 2.6328125 7.93359375 3.125 5.4375 C3.29257813 4.61121094 3.46015625 3.78492188 3.6328125 2.93359375 C3.75398438 2.29550781 3.87515625 1.65742188 4 1 C2.68 0.67 1.36 0.34 0 0 Z " fill="#147F7F" transform="translate(65,19)" />
<path d="M0 0 C0.99 0.33 1.98 0.66 3 1 C5.45125847 6.17487899 7.18479061 11.22683848 6 17 C5.25349165 18.48195732 4.45620515 19.93883489 3.625 21.375 C0.12652264 27.67028272 -0.07046482 34.27545178 -0.640625 41.31640625 C-1 45 -1 45 -2 46 C-3.65 46 -5.3 46 -7 46 C-7.33 41.71 -7.66 37.42 -8 33 C-8.99 33.66 -9.98 34.32 -11 35 C-10.1875 32.5625 -10.1875 32.5625 -9 30 C-8.01 29.67 -7.02 29.34 -6 29 C-6 33.95 -6 38.9 -6 44 C-5.01 44 -4.02 44 -3 44 C-3.03480469 43.34515625 -3.06960937 42.6903125 -3.10546875 42.015625 C-3.33011095 34.44197356 -3.18564245 25.19246278 1.58203125 18.91796875 C4.05472589 15.57335975 3.50716905 11.98582856 3 8 C2.19289365 5.19368196 1.17236181 2.68666248 0 0 Z " fill="#0F3B35" transform="translate(81,24)" />
<path d="M0 0 C0.33 0 0.66 0 1 0 C1.1875 3.3125 1.1875 3.3125 1 7 C0.01 7.99 -0.98 8.98 -2 10 C1.63 10.33 5.26 10.66 9 11 C8.67 11.165 8.67 11.165 7 12 C7 12.99 7 13.98 7 15 C-2.78585462 15.57563851 -2.78585462 15.57563851 -7 12 C-8.58416448 9.76776823 -9.01779543 8.60504473 -8.9375 5.875 C-8 4 -8 4 -5.625 2.75 C-3 2 -3 2 0 2 C0 1.34 0 0.68 0 0 Z " fill="#29C4CA" transform="translate(38,65)" />
<path d="M0 0 C0.33 0 0.66 0 1 0 C1.2295747 5.39500547 1.03581546 10.92679142 -1 16 C-1.99 16.33 -2.98 16.66 -4 17 C-5.1875 19.5625 -5.1875 19.5625 -6 22 C-6.66 22 -7.32 22 -8 22 C-8 22.66 -8 23.32 -8 24 C-8.66 24 -9.32 24 -10 24 C-10.66 25.32 -11.32 26.64 -12 28 C-13.32 27.67 -14.64 27.34 -16 27 C-14.88368586 25.16136495 -13.75670373 23.32920277 -12.625 21.5 C-12.31175781 20.98953125 -12.31175781 20.98953125 -10.7265625 18.40625 C-10.15679687 17.6121875 -9.58703125 16.818125 -9 16 C-8.34 16 -7.68 16 -7 16 C-6.731875 15.113125 -6.46375 14.22625 -6.1875 13.3125 C-5.07525635 10.20992561 -3.7184577 7.79249376 -2 5 C-1.30177383 3.34630643 -0.62501395 1.68272986 0 0 Z " fill="#2EC1C4" transform="translate(80,26)" />
<path d="M0 0 C0 0.99 0 1.98 0 3 C-0.66 3 -1.32 3 -2 3 C-2 3.66 -2 4.32 -2 5 C-3.96147874 6.38938077 -5.96166576 7.7260411 -8 9 C-7.34 9.66 -6.68 10.32 -6 11 C-6 11.99 -6 12.98 -6 14 C-8.31 14.33 -10.62 14.66 -13 15 C-12.67 13.68 -12.34 12.36 -12 11 C-12.886875 10.95875 -13.77375 10.9175 -14.6875 10.875 C-19.21629527 9.67871446 -20.29643492 7.73728113 -23 4 C-22.236875 4.309375 -21.47375 4.61875 -20.6875 4.9375 C-16.17288573 6.7223475 -13.76641214 6.95328243 -9 6 C-8.938125 5.38125 -8.87625 4.7625 -8.8125 4.125 C-8 2 -8 2 -5.625 0.75 C-3 0 -3 0 0 0 Z " fill="#119092" transform="translate(44,53)" />
<path d="M0 0 C0.33 0.66 0.66 1.32 1 2 C0.566875 2.48210937 0.13375 2.96421875 -0.3125 3.4609375 C-0.869375 4.09257813 -1.42625 4.72421875 -2 5.375 C-2.556875 6.00148438 -3.11375 6.62796875 -3.6875 7.2734375 C-5 9 -5 9 -5 11 C-6.79133978 11.05391993 -8.58313899 11.09275571 -10.375 11.125 C-11.37273438 11.14820312 -12.37046875 11.17140625 -13.3984375 11.1953125 C-16 11 -16 11 -18 9 C-16.20963542 7.99088542 -14.41927083 6.98177083 -12.62890625 5.97265625 C-11 5 -11 5 -10 4 C-8.00041636 3.95919217 -5.99954746 3.95745644 -4 4 C-3.67 3.01 -3.34 2.02 -3 1 C-2.01 0.67 -1.02 0.34 0 0 Z " fill="#31D3D9" transform="translate(52,65)" />
<path d="M0 0 C0.33 0 0.66 0 1 0 C1 4.62 1 9.24 1 14 C2.65 13.67 4.3 13.34 6 13 C6.33 11.35 6.66 9.7 7 8 C7.33 8 7.66 8 8 8 C8.125 10.875 8.125 10.875 8 14 C6 16 6 16 3.5 16.25 C1 16 1 16 -1 14 C-1 13.01 -1 12.02 -1 11 C-2.32 10.67 -3.64 10.34 -5 10 C-4.49809325 5.60831597 -2.96518146 3.24316722 0 0 Z " fill="#636B57" transform="translate(73,56)" />
<path d="M0 0 C1.10762276 3.32286828 1.19118265 5.68170547 0 9 C-4.03448276 12 -4.03448276 12 -7 12 C-7 12.66 -7 13.32 -7 14 C-7.66 14 -8.32 14 -9 14 C-9.33 13.01 -9.66 12.02 -10 11 C-9.38125 10.443125 -8.7625 9.88625 -8.125 9.3125 C-6 7 -6 7 -5 4.375 C-4 2 -4 2 -1.875 0.6875 C-1.25625 0.460625 -0.6375 0.23375 0 0 Z " fill="#8C7052" transform="translate(64,39)" />
<path d="M0 0 C0.33 0.66 0.66 1.32 1 2 C0.06876126 4.68065847 -0.93242136 7.21724782 -2.0625 9.8125 C-2.35060547 10.52470703 -2.63871094 11.23691406 -2.93554688 11.97070312 C-5.13243776 17.05601157 -7.44746712 19.82102447 -12 23 C-17.15552488 25.00492634 -21.55989619 25.19088084 -27 25 C-27 24.67 -27 24.34 -27 24 C-26.29875 23.92523438 -25.5975 23.85046875 -24.875 23.7734375 C-18.01641793 22.82292749 -12.50982089 21.52625755 -8 16 C-6.15571436 12.38536445 -4.66008664 8.84291098 -3.2265625 5.046875 C-2 2 -2 2 0 0 Z " fill="#0E3B32" transform="translate(69,59)" />
<path d="M0 0 C0.66 0 1.32 0 2 0 C0.2942574 4.08374845 -2.53097232 7.23573604 -5.375 10.5625 C-5.85710938 11.13935547 -6.33921875 11.71621094 -6.8359375 12.31054688 C-9.32847866 15.24673327 -11.69082358 17.95180931 -15 20 C-15.66 20 -16.32 20 -17 20 C-17 19.01 -17 18.02 -17 17 C-16.21625 16.7525 -15.4325 16.505 -14.625 16.25 C-11.54544915 14.78354721 -11.32980765 14.01423068 -10 11 C-8 8.75 -8 8.75 -6 7 C-5.34 7 -4.68 7 -4 7 C-3.71125 6.21625 -3.4225 5.4325 -3.125 4.625 C-2 2 -2 2 0 0 Z " fill="#0E7577" transform="translate(61,35)" />
<path d="M0 0 C0.66 0.33 1.32 0.66 2 1 C1.195625 1.61875 0.39125 2.2375 -0.4375 2.875 C-3 5 -3 5 -4 7 C-4.99 7.33 -5.98 7.66 -7 8 C-7.33 8.99 -7.66 9.98 -8 11 C-9.84765625 11.73046875 -9.84765625 11.73046875 -12.0625 12.1875 C-12.79597656 12.34605469 -13.52945312 12.50460938 -14.28515625 12.66796875 C-14.85105469 12.77753906 -15.41695312 12.88710938 -16 13 C-16.66 12.01 -17.32 11.02 -18 10 C-16.96875 9.566875 -15.9375 9.13375 -14.875 8.6875 C-5.39423077 4.59134615 -5.39423077 4.59134615 -3 1 C-2.01 0.67 -1.02 0.34 0 0 Z " fill="#2FC1CA" transform="translate(43,48)" />
<path d="M0 0 C0.33 0 0.66 0 1 0 C1.125 3.375 1.125 3.375 1 7 C-1 9 -1 9 -3.5 9.25 C-6 9 -6 9 -8 7 C-7.625 4.875 -7.625 4.875 -7 3 C-5.845 2.835 -5.845 2.835 0 2 C0 1.34 0 0.68 0 0 Z " fill="#A6CFC7" transform="translate(38,65)" />
<path d="M0 0 C2.97 0 5.94 0 9 0 C9 1.65 9 3.3 9 5 C3.25 8 3.25 8 1 8 C0.67 5.36 0.34 2.72 0 0 Z " fill="#5BECF2" transform="translate(38,63)" />
<path d="M0 0 C0 4.95 0 9.9 0 15 C0.99 15 1.98 15 3 15 C3 11.37 3 7.74 3 4 C3.33 4 3.66 4 4 4 C4.19397476 5.97854258 4.38001321 7.9578648 4.5625 9.9375 C4.66691406 11.03964844 4.77132812 12.14179687 4.87890625 13.27734375 C4.91886719 14.17582031 4.95882812 15.07429688 5 16 C4.67 16.33 4.34 16.66 4 17 C2.35 17 0.7 17 -1 17 C-1.33 12.71 -1.66 8.42 -2 4 C-2.495 4.33 -2.495 4.33 -5 6 C-2.84615385 0 -2.84615385 0 0 0 Z " fill="#134C48" transform="translate(75,53)" />
<path d="M0 0 C0 3.64161995 -0.98581977 5.01602929 -3 8 C-4 9 -5 10 -6 11 C-6.28875 11.70125 -6.5775 12.4025 -6.875 13.125 C-8 15 -8 15 -10.625 15.75 C-11.40875 15.8325 -12.1925 15.915 -13 16 C-11.8122315 11.84281024 -9.98814669 9.95169671 -6.59765625 7.3359375 C-4.02214996 5.18233567 -2.07811635 2.62820597 0 0 Z " fill="#CAC8B7" transform="translate(66,45)" />
<path d="M0 0 C0.99 0.33 1.98 0.66 3 1 C2.63076923 7.4 2.63076923 7.4 -0.5625 10.4375 C-0.9646875 10.6953125 -0.9646875 10.6953125 -3 12 C-4.32554118 8.02337646 -3.34765994 5.90112089 -2 2 C-1.34 1.34 -0.68 0.68 0 0 Z " fill="#9C8767" transform="translate(68,34)" />
<path d="M0 0 C-0.33 2.31 -0.66 4.62 -1 7 C-1.66 7 -2.32 7 -3 7 C-3 5.68 -3 4.36 -3 3 C-8.32697239 4.45281065 -11.36402802 8.08111378 -15 12 C-15 9 -15 9 -13.57421875 7.24609375 C-12.95160156 6.64925781 -12.32898438 6.05242188 -11.6875 5.4375 C-11.07261719 4.83808594 -10.45773438 4.23867188 -9.82421875 3.62109375 C-6.4202271 0.59613329 -4.4877071 -0.24257876 0 0 Z " fill="#88B5A9" transform="translate(80,24)" />
<path d="M0 0 C1.32 0 2.64 0 4 0 C3.67 2.97 3.34 5.94 3 9 C2.01 9.33 1.02 9.66 0 10 C0 10.66 0 11.32 0 12 C-1.65 12.33 -3.3 12.66 -5 13 C-2.70965533 8.97215247 -0.40174242 4.96287499 2 1 C1.34 0.67 0.68 0.34 0 0 Z " fill="#259EA2" transform="translate(65,20)" />
<path d="M0 0 C0.66 0.33 1.32 0.66 2 1 C1.67 1.99 1.34 2.98 1 4 C0.67 4.165 0.67 4.165 -1 5 C-0.34 5.66 0.32 6.32 1 7 C-0.32 8.32 -1.64 9.64 -3 11 C-2.67 11.66 -2.34 12.32 -2 13 C-3.258125 13.04125 -4.51625 13.0825 -5.8125 13.125 C-6.52019531 13.14820312 -7.22789063 13.17140625 -7.95703125 13.1953125 C-10 13 -10 13 -13 11 C-10.36 11 -7.72 11 -5 11 C-5 10.01 -5 9.02 -5 8 C-4.34 8 -3.68 8 -3 8 C-3 7.34 -3 6.68 -3 6 C-3.66 5.67 -4.32 5.34 -5 5 C-3.35 3.35 -1.7 1.7 0 0 Z " fill="#22B3B7" transform="translate(50,69)" />
<path d="M0 0 C0.66 0 1.32 0 2 0 C1.45346693 5.73859726 -0.35682266 9.65184701 -4.71484375 13.5234375 C-8.09909617 16.11349961 -8.09909617 16.11349961 -10 17 C-10.99 16.67 -11.98 16.34 -13 16 C-12.34 16 -11.68 16 -11 16 C-11 15.34 -11 14.68 -11 14 C-8.36107824 12.21694476 -6.02821137 11.00940379 -3 10 C-2.3046875 7.96875 -2.3046875 7.96875 -1.875 5.5 C-1.07722008 1.07722008 -1.07722008 1.07722008 0 0 Z " fill="#0C6567" transform="translate(63,65)" />
<path d="M0 0 C0.33 0 0.66 0 1 0 C0.67 5.94 0.34 11.88 0 18 C-0.66 18 -1.32 18 -2 18 C-2.05382106 15.37472811 -2.09358313 12.75055287 -2.125 10.125 C-2.14175781 9.37863281 -2.15851563 8.63226563 -2.17578125 7.86328125 C-2.1933959 5.90805539 -2.10320189 3.95257979 -2 2 C-1.34 1.34 -0.68 0.68 0 0 Z " fill="#26A0A1" transform="translate(78,50)" />
<path d="M0 0 C0.7734375 0.27714844 1.546875 0.55429688 2.34375 0.83984375 C8.27881997 2.90389655 13.72966132 4.51766626 20 5 C20 5.66 20 6.32 20 7 C8.49799835 7.54387749 8.49799835 7.54387749 4 4 C2.67391178 3.31903578 1.34313399 2.64669414 0 2 C0 1.34 0 0.68 0 0 Z " fill="#676956" transform="translate(30,79)" />
<path d="M0 0 C0.33 0 0.66 0 1 0 C1.10824843 1.6026782 1.18570645 3.20745748 1.25 4.8125 C1.29640625 5.70582031 1.3428125 6.59914063 1.390625 7.51953125 C1 10 1 10 -0.96875 11.625 C-1.30390625 11.851875 -1.30390625 11.851875 -3 13 C-3.75 16.1875 -3.75 16.1875 -4 19 C-4.66 19 -5.32 19 -6 19 C-5.56328407 12.77679794 -4.2546793 9.28885386 -1 4 C-0.25 1.5625 -0.25 1.5625 0 0 Z " fill="#616757" transform="translate(87,37)" />
<path d="M0 0 C0.99 0 1.98 0 3 0 C2.41827275 3.9520518 0.44842259 6.22095053 -2.0625 9.25 C-2.79597656 10.14203125 -3.52945313 11.0340625 -4.28515625 11.953125 C-4.85105469 12.62859375 -5.41695312 13.3040625 -6 14 C-6 10.00095031 -4.27413033 8.19799578 -2 5 C-2.33 5.165 -2.33 5.165 -4 6 C-2.84826645 3.53199953 -1.95216435 1.95216435 0 0 Z " fill="#7EBDB4" transform="translate(64,21)" />
<path d="M0 0 C2.33944736 0.28730055 4.6739143 0.61936779 7 1 C7.33 2.32 7.66 3.64 8 5 C5.69 5.33 3.38 5.66 1 6 C1.33 4.68 1.66 3.36 2 2 C1.01 1.67 0.02 1.34 -1 1 C-0.67 0.67 -0.34 0.34 0 0 Z " fill="#4D7B70" transform="translate(30,62)" />
<path d="M0 0 C0 3.74016583 -0.9341591 4.45276193 -3.375 7.1875 C-3.68824219 7.54521484 -3.68824219 7.54521484 -5.2734375 9.35546875 C-7 11 -7 11 -9 11 C-9.33 11.99 -9.66 12.98 -10 14 C-12.5625 15.6875 -12.5625 15.6875 -15 17 C-13.67879172 14.06769807 -12.25361803 12.01335101 -9.9609375 9.765625 C-9.38085938 9.19199219 -8.80078125 8.61835937 -8.203125 8.02734375 C-7.59984375 7.44082031 -6.9965625 6.85429688 -6.375 6.25 C-5.76398437 5.64800781 -5.15296875 5.04601563 -4.5234375 4.42578125 C-3.02011376 2.94594695 -1.51065144 1.47235324 0 0 Z " fill="#A8BCAE" transform="translate(58,27)" />
<path d="M0 0 C2.0625 0.4375 2.0625 0.4375 4 1 C3.360625 1.103125 2.72125 1.20625 2.0625 1.3125 C1.381875 1.539375 0.70125 1.76625 0 2 C-0.33 2.99 -0.66 3.98 -1 5 C-0.01 5.165 -0.01 5.165 5 6 C5 6.33 5 6.66 5 7 C3.20866022 7.05391993 1.41686101 7.09275571 -0.375 7.125 C-1.37273438 7.14820312 -2.37046875 7.17140625 -3.3984375 7.1953125 C-6 7 -6 7 -8 5 C-6.20963542 3.99088542 -4.41927083 2.98177083 -2.62890625 1.97265625 C-1 1 -1 1 0 0 Z " fill="#52DCDE" transform="translate(42,69)" />
<path d="M0 0 C0 0.99 0 1.98 0 3 C-3 5 -3 5 -7 5 C-7 3.35 -7 1.7 -7 0 C-4.3333581 -1.33332095 -2.83319697 -0.67102033 0 0 Z " fill="#47E5E7" transform="translate(34,50)" />
<path d="M0 0 C0.33 0.99 0.66 1.98 1 3 C0.43410156 3.33773437 -0.13179687 3.67546875 -0.71484375 4.0234375 C-1.44832031 4.46945313 -2.18179687 4.91546875 -2.9375 5.375 C-3.66839844 5.81585938 -4.39929688 6.25671875 -5.15234375 6.7109375 C-7 8 -7 8 -8 10 C-10.5625 10.625 -10.5625 10.625 -13 11 C-13 10.34 -13 9.68 -13 9 C-12.690625 8.95875 -12.690625 8.95875 -11.125 8.75 C-10.42375 8.5025 -9.7225 8.255 -9 8 C-8.731875 7.401875 -8.46375 6.80375 -8.1875 6.1875 C-6.32830113 2.76265997 -3.41854735 1.77258011 0 0 Z " fill="#53B4AD" transform="translate(33,44)" />
<path d="M0 0 C0.33 0 0.66 0 1 0 C1.23360546 5.48972839 0.81834969 10.76943854 -1 16 C-1.66 16.33 -2.32 16.66 -3 17 C-3.40368295 10.54107286 -2.5915262 5.93891422 0 0 Z " fill="#2AB3BA" transform="translate(80,26)" />
<path d="M0 0 C0.99 0 1.98 0 3 0 C2 3 2 3 0 4.25 C-2.90989004 6.79615378 -2.71839491 9.26873252 -3 13 C-4.65 12.67 -6.3 12.34 -8 12 C-7.67 11.34 -7.34 10.68 -7 10 C-6.34 10 -5.68 10 -5 10 C-4.67 8.02 -4.34 6.04 -4 4 C-3.34 4 -2.68 4 -2 4 C-2 3.34 -2 2.68 -2 2 C-1.34 2 -0.68 2 0 2 C0 1.34 0 0.68 0 0 Z " fill="#13A6A9" transform="translate(56,63)" />
<path d="M0 0 C0.33 0.99 0.66 1.98 1 3 C-0.65 3.33 -2.3 3.66 -4 4 C-4 4.66 -4 5.32 -4 6 C-2.35 6 -0.7 6 1 6 C1 6.33 1 6.66 1 7 C-1.97 6.67 -4.94 6.34 -8 6 C-8 4.68 -8 3.36 -8 2 C-5.36 1.34 -2.72 0.68 0 0 Z " fill="#8CB5A2" transform="translate(42,42)" />
<path d="M0 0 C2.97 0 5.94 0 9 0 C8.34 1.32 7.68 2.64 7 4 C6.01 4.33 5.02 4.66 4 5 C3.67 5.66 3.34 6.32 3 7 C2.34 6.67 1.68 6.34 1 6 C1.33 4.35 1.66 2.7 2 1 C1.34 0.67 0.68 0.34 0 0 Z " fill="#4DE2E4" transform="translate(45,62)" />
<path d="M0 0 C0.763125 0.309375 1.52625 0.61875 2.3125 0.9375 C6.82711427 2.7223475 9.23358786 2.95328243 14 2 C12 5 12 5 8.6875 6.0625 C5 6 5 6 3.4296875 4.71875 C2.0625 3.0625 2.0625 3.0625 0 0 Z " fill="#2A9FA2" transform="translate(21,57)" />
<path d="M0 0 C0.33 1.32 0.66 2.64 1 4 C-1.97 6.64 -4.94 9.28 -8 12 C-8.66 11.67 -9.32 11.34 -10 11 C-6.7 7.37 -3.4 3.74 0 0 Z " fill="#6A9888" transform="translate(58,42)" />
<path d="M0 0 C1.10844919 3.32534757 0.84454356 5.62182575 0 9 C-0.99 9.33 -1.98 9.66 -3 10 C-3 8.02 -3 6.04 -3 4 C-3.33 4.165 -3.33 4.165 -5 5 C-4.1875 3.0625 -4.1875 3.0625 -3 1 C-2.01 0.67 -1.02 0.34 0 0 Z " fill="#8B7B5E" transform="translate(64,39)" />
<path d="M0 0 C2.25 -0.25 2.25 -0.25 5 0 C5.33 0.3403125 5.33 0.3403125 7 2.0625 C7.33 2.3821875 7.33 2.3821875 9 4 C11.625 3.625 11.625 3.625 14 3 C14.66 3.66 15.32 4.32 16 5 C12.7 5.66 9.4 6.32 6 7 C5.87625 6.608125 5.87625 6.608125 5.25 4.625 C3.84610901 1.67682892 2.99324263 1.0975223 0 0 Z " fill="#194139" transform="translate(65,19)" />
<path d="M0 0 C1.65 0.33 3.3 0.66 5 1 C5 1.66 5 2.32 5 3 C4.34 3 3.68 3 3 3 C3 3.66 3 4.32 3 5 C1.125 5.625 1.125 5.625 -1 6 C-1.66 5.34 -2.32 4.68 -3 4 C-2.01 2.68 -1.02 1.36 0 0 Z " fill="#06929B" transform="translate(49,76)" />
<path d="M0 0 C3.3 0 6.6 0 10 0 C9.67 0.66 9.34 1.32 9 2 C6.66842508 2.34541851 4.33491639 2.67794257 2 3 C1.01 3.66 0.02 4.32 -1 5 C-3.1875 4.625 -3.1875 4.625 -5 4 C-4.34 4 -3.68 4 -3 4 C-2.67 3.34 -2.34 2.68 -2 2 C-1.34 2.33 -0.68 2.66 0 3 C0 2.01 0 1.02 0 0 Z " fill="#5E6759" transform="translate(30,41)" />
<path d="M0 0 C0.54527344 0.27714844 1.09054688 0.55429688 1.65234375 0.83984375 C7.21722476 3.51288916 11.84095196 4.60894933 18 5 C18 5.33 18 5.66 18 6 C10.42228293 6.50146657 5.54216759 5.94998798 -1 2 C-0.67 1.34 -0.34 0.68 0 0 Z " fill="#0D504A" transform="translate(31,77)" />
<path d="M0 0 C0.66 0.33 1.32 0.66 2 1 C1.195625 1.61875 0.39125 2.2375 -0.4375 2.875 C-3 5 -3 5 -4 7 C-4.99 7.33 -5.98 7.66 -7 8 C-7.33 8.99 -7.66 9.98 -8 11 C-8.66 11 -9.32 11 -10 11 C-9.52591957 6.73327616 -7.11692878 4.7544952 -4 2 C-1.8125 0.625 -1.8125 0.625 0 0 Z " fill="#2AB3B9" transform="translate(43,48)" />
<path d="M0 0 C0.66 0.33 1.32 0.66 2 1 C1.67 1.99 1.34 2.98 1 4 C2.98 4 4.96 4 7 4 C6.67 4.66 6.34 5.32 6 6 C-0.15234375 5.4140625 -0.15234375 5.4140625 -2 5 C-2.33 4.34 -2.66 3.68 -3 3 C-2.01 2.01 -1.02 1.02 0 0 Z " fill="#698674" transform="translate(46,54)" />
<path d="M0 0 C0.33 0.99 0.66 1.98 1 3 C-0.14453125 5.04296875 -0.14453125 5.04296875 -1.8125 7.1875 C-2.08384766 7.54521484 -2.08384766 7.54521484 -3.45703125 9.35546875 C-3.96621094 9.89816406 -4.47539063 10.44085938 -5 11 C-5.66 11 -6.32 11 -7 11 C-5.125 6.25 -5.125 6.25 -4 4 C-3.34 4 -2.68 4 -2 4 C-2 3.34 -2 2.68 -2 2 C-1.34 2 -0.68 2 0 2 C0 1.34 0 0.68 0 0 Z " fill="#109DA2" transform="translate(74,46)" />
<path d="M0 0 C0 4.95 0 9.9 0 15 C-0.33 15 -0.66 15 -1 15 C-1.33 11.37 -1.66 7.74 -2 4 C-2.495 4.33 -2.495 4.33 -5 6 C-2.84615385 0 -2.84615385 0 0 0 Z " fill="#043632" transform="translate(75,53)" />
<path d="M0 0 C0.99 0 1.98 0 3 0 C2.84402344 0.59167969 2.68804688 1.18335937 2.52734375 1.79296875 C0.5940246 9.64147627 0.5940246 9.64147627 2 14 C0.5 12.9375 0.5 12.9375 -1 11 C-1.2804701 7.14353614 -1.18234854 3.69483919 0 0 Z " fill="#103F30" transform="translate(29,64)" />
<path d="M0 0 C0.66 0 1.32 0 2 0 C2.33 1.32 2.66 2.64 3 4 C4.32 4.33 5.64 4.66 7 5 C3.25 8 3.25 8 1 8 C0.67 5.36 0.34 2.72 0 0 Z " fill="#83EDE7" transform="translate(38,63)" />
<path d="M0 0 C0.33 0.66 0.66 1.32 1 2 C-4 8.57142857 -4 8.57142857 -9 10 C-7.61811547 6.78956118 -6.07578097 4.95063635 -3.375 2.75 C-2.74335937 2.22921875 -2.11171875 1.7084375 -1.4609375 1.171875 C-1.21988281 0.97851562 -1.21988281 0.97851562 0 0 Z " fill="#169EA4" transform="translate(48,45)" />
<path d="M0 0 C0.66 0 1.32 0 2 0 C2.25 2.25 2.25 2.25 2 5 C0 7.3125 0 7.3125 -2 9 C-2.66 8.67 -3.32 8.34 -4 8 C-2.68 5.36 -1.36 2.72 0 0 Z " fill="#656955" transform="translate(66,69)" />
<path d="M0 0 C2 1 2 1 5 3 C8.1875 3.125 8.1875 3.125 11 3 C11 3.66 11 4.32 11 5 C8.69 4.835 8.69 4.835 -3 4 C-2.67 3.34 -2.34 2.68 -2 2 C-1.34 2 -0.68 2 0 2 C0 1.34 0 0.68 0 0 Z " fill="#68CCC5" transform="translate(42,56)" />
<path d="M0 0 C0 3 0 3 -2.3125 5.625 C-5 8 -5 8 -8 9 C-6.4169423 4.7257442 -3.49431596 2.73468206 0 0 Z " fill="#7C9785" transform="translate(67,33)" />
<path d="M0 0 C2.13586678 3.20380017 2.23132175 4.01939967 2.125 7.6875 C2.10695313 8.49574219 2.08890625 9.30398437 2.0703125 10.13671875 C2.04710938 10.75160156 2.02390625 11.36648437 2 12 C1.01 12 0.02 12 -1 12 C-0.67 8.04 -0.34 4.08 0 0 Z " fill="#097271" transform="translate(83,29)" />
<path d="M0 0 C-1.3125 1.5 -1.3125 1.5 -3 3 C-3.99 3 -4.98 3 -6 3 C-7.6875 1 -7.6875 1 -9 -1 C-5.79937313 -2.60031344 -3.27728194 -1.03173691 0 0 Z " fill="#5ED8DF" transform="translate(40,49)" />
<path d="M0 0 C0.66 0 1.32 0 2 0 C1.09539273 3.70066609 0.56131642 5.56497978 -2.5 7.9375 C-3.325 8.288125 -4.15 8.63875 -5 9 C-5.66 8.67 -6.32 8.34 -7 8 C-5.37660195 6.29115995 -3.70680947 4.62553283 -2 3 C-1.34 3 -0.68 3 0 3 C0 2.01 0 1.02 0 0 Z " fill="#2EA49F" transform="translate(56,35)" />
<path d="M0 0 C1 3 1 3 0.00390625 5.04296875 C-0.47175781 5.75066406 -0.94742188 6.45835938 -1.4375 7.1875 C-1.91058594 7.90292969 -2.38367188 8.61835937 -2.87109375 9.35546875 C-3.24363281 9.89816406 -3.61617188 10.44085938 -4 11 C-4.99 10.67 -5.98 10.34 -7 10 C-4.69 6.7 -2.38 3.4 0 0 Z " fill="#79CAC0" transform="translate(77,31)" />
<path d="M0 0 C0.99 0.33 1.98 0.66 3 1 C2.74438677 3.3431213 2.40729228 5.67843403 2 8 C1.67 8.165 1.67 8.165 0 9 C-1.10844919 5.67465243 -0.84454356 3.37817425 0 0 Z " fill="#AA8B71" transform="translate(68,34)" />
<path d="M0 0 C0.33 0.66 0.66 1.32 1 2 C0.67 2.99 0.34 3.98 0 5 C-0.66 5 -1.32 5 -2 5 C-2.33 6.32 -2.66 7.64 -3 9 C-3.99 8.67 -4.98 8.34 -6 8 C-4.02 5.36 -2.04 2.72 0 0 Z " fill="#2EA7AE" transform="translate(66,24)" />
<path d="M0 0 C0.66 0 1.32 0 2 0 C0.55527654 3.80881639 -1.32603071 5.29742886 -5 7 C-5.99 6.67 -6.98 6.34 -8 6 C-7.34 6 -6.68 6 -6 6 C-6 5.34 -6 4.68 -6 4 C-4.36368108 2.95107762 -2.69514137 1.95093297 -1 1 C-0.67 0.67 -0.34 0.34 0 0 Z " fill="#0C6E6F" transform="translate(58,75)" />
<path d="M0 0 C0 1.32 0 2.64 0 4 C-1.32 4 -2.64 4 -4 4 C-4 3.34 -4 2.68 -4 2 C-5.32 2.33 -6.64 2.66 -8 3 C-7 1 -7 1 -5.125 0.375 C-3 0 -3 0 0 0 Z " fill="#ACB8A2" transform="translate(38,67)" />
<path d="M0 0 C1.32 0.33 2.64 0.66 4 1 C3.67 1.495 3.67 1.495 2 4 C1.34 4 0.68 4 0 4 C0 4.66 0 5.32 0 6 C-0.66 6 -1.32 6 -2 6 C-2 4.68 -2 3.36 -2 2 C-1.34 2 -0.68 2 0 2 C0 1.34 0 0.68 0 0 Z " fill="#20ADB4" transform="translate(64,54)" />
<path d="M0 0 C0.99 0.33 1.98 0.66 3 1 C1.845 1.99 1.845 1.99 -4 7 C-4 5.35 -4 3.7 -4 2 C-2.68 2 -1.36 2 0 2 C0 1.34 0 0.68 0 0 Z " fill="#61684E" transform="translate(60,20)" />
<path d="M0 0 C0.33 0.66 0.66 1.32 1 2 C-0.65 3.98 -2.3 5.96 -4 8 C-5 5 -5 5 -4.25 2.875 C-3 1 -3 1 0 0 Z " fill="#2BCCD0" transform="translate(52,65)" />
<path d="M0 0 C0.33 0.66 0.66 1.32 1 2 C0.00390625 3.9453125 0.00390625 3.9453125 -1.4375 6.125 C-1.91058594 6.84945312 -2.38367188 7.57390625 -2.87109375 8.3203125 C-3.24363281 8.87460937 -3.61617188 9.42890625 -4 10 C-5 7 -5 7 -4.25 4.4375 C-3 2 -3 2 0 0 Z " fill="#096C6E" transform="translate(70,55)" />
<path d="M0 0 C0.33 0.99 0.66 1.98 1 3 C-1 5 -1 5 -3.625 5.125 C-4.40875 5.08375 -5.1925 5.0425 -6 5 C-6 4.34 -6 3.68 -6 3 C-4.02 2.01 -2.04 1.02 0 0 Z " fill="#A19A91" transform="translate(44,43)" />
<path d="M0 0 C0.33 0 0.66 0 1 0 C1 2.31 1 4.62 1 7 C-0.32 7 -1.64 7 -3 7 C-1.125 1.125 -1.125 1.125 0 0 Z " fill="#34C6C7" transform="translate(76,35)" />
<path d="M0 0 C2.12038635 2.61514317 4.13091744 5.19637616 6 8 C5.01 8 4.02 8 3 8 C0.89229241 5.11165997 0 3.61537605 0 0 Z " fill="#3A9C93" transform="translate(29,70)" />
<path d="M0 0 C0.33 0.66 0.66 1.32 1 2 C-3.75 6.875 -3.75 6.875 -6 8 C-5.65120368 4.74456771 -4.97866739 3.98126893 -2.4375 1.75 C-1.633125 1.1725 -0.82875 0.595 0 0 Z " fill="#017780" transform="translate(60,71)" />
<path d="M0 0 C0.825 0.165 0.825 0.165 5 1 C4.34 3.64 3.68 6.28 3 9 C2.67 9 2.34 9 2 9 C1.34 6.03 0.68 3.06 0 0 Z " fill="#526959" transform="translate(25,64)" />
<path d="M0 0 C0.33 1.32 0.66 2.64 1 4 C0.01 4 -0.98 4 -2 4 C-2.33 4.99 -2.66 5.98 -3 7 C-3.66 6.67 -4.32 6.34 -5 6 C-5 5.01 -5 4.02 -5 3 C-3.68 3 -2.36 3 -1 3 C-0.67 2.01 -0.34 1.02 0 0 Z " fill="#69CECB" transform="translate(26,51)" />
<path d="M0 0 C1.98362069 2.91708924 1.9876191 4.12380904 1.625 7.75 C1.41875 8.8225 1.2125 9.895 1 11 C0 8 0 8 1 5 C0.01 4.67 -0.98 4.34 -2 4 C-1.34 2.68 -0.68 1.36 0 0 Z " fill="#A2957F" transform="translate(70,30)" />
<path d="M0 0 C0.66 0 1.32 0 2 0 C4.09230769 4.43076923 4.09230769 4.43076923 3.625 7.3125 C3.41875 7.869375 3.2125 8.42625 3 9 C3 8.34 3 7.68 3 7 C2.34 7 1.68 7 1 7 C0.67 4.69 0.34 2.38 0 0 Z " fill="#686A58" transform="translate(25,70)" />
<path d="M0 0 C0.99 0 1.98 0 3 0 C3 2 3 2 0.5 4.625 C-0.325 5.40875 -1.15 6.1925 -2 7 C-2.99 6.67 -3.98 6.34 -5 6 C-4.34 5.67 -3.68 5.34 -3 5 C-2.7628125 4.5771875 -2.7628125 4.5771875 -1.5625 2.4375 C-1.046875 1.633125 -0.53125 0.82875 0 0 Z " fill="#7DC2B8" transform="translate(61,54)" />
</svg>