<?xml version='1.0' encoding='utf-8'?>
<svg xmlns="http://www.w3.org/2000/svg" version="1.1" width="104" height="86">
<path d="M0 0 C3.82669043 3.42388092 5.72278474 6.00724943 7 11 C8.4790916 11.16733157 9.95827556 11.33384686 11.4375 11.5 C12.26121094 11.5928125 13.08492187 11.685625 13.93359375 11.78125 C16 12 16 12 17 12 C14.03 11.34 11.06 10.68 8 10 C7.67 8.68 7.34 7.36 7 6 C8 5 8 5 11.375 4.75 C15 5 15 5 16.41796875 6.5078125 C18 8 18 8 20.33984375 8.2578125 C20.76845703 8.23589844 20.76845703 8.23589844 22.9375 8.125 C26.20212153 7.97727957 28.86051145 8.0530545 32 9 C31.75 10.875 31.75 10.875 31 13 C28.06004981 15.02755186 26.72295997 15 23 15 C23.33 16.98 23.66 18.96 24 21 C24.66 20.67 25.32 20.34 26 20 C26.11214844 19.5978125 26.11214844 19.5978125 26.6796875 17.5625 C28 15 28 15 31.1953125 13.8125 C32.50155504 13.52456212 33.81184051 13.25453871 35.125 13 C41.31136262 11.60576557 45.82011048 9.65639261 51 6 C51.66 6 52.32 6 53 6 C53.875 8.5625 53.875 8.5625 54 12 C50.99132655 17.44317259 46.80811237 19.99356118 41 22 C40.26007813 22.34546875 39.52015625 22.6909375 38.7578125 23.046875 C29.45906062 26.26060794 19.15678672 24.42290349 10.453125 20.484375 C7.88273157 18.9290414 6.02151742 17.21044428 4 15 C7.2234689 20.77538179 11.48608795 24.47295316 17.8359375 26.62109375 C28.71025129 28.5250801 39.26781513 27.16273313 48.625 21.3125 C52.66676223 18.45737615 56.07806858 15.13157019 59.46875 11.5390625 C59.72140625 11.28511719 59.72140625 11.28511719 61 10 C61.33 10 61.66 10 62 10 C62.38350736 14.69796515 62.09987239 18.25445408 59.51171875 22.3046875 C56.32737908 25.87575576 52.24284882 27.90870946 48 30 C47.175 30.41636719 46.35 30.83273438 45.5 31.26171875 C35.37408077 35.66093671 22.48980187 35.71160933 12.1328125 31.90234375 C11.42898437 31.60457031 10.72515625 31.30679688 10 31 C9.29617187 30.73316406 8.59234375 30.46632813 7.8671875 30.19140625 C1.80879182 27.59988719 -3.03901065 22.92197871 -6 17 C-6.58526655 12.20273323 -6.46753949 8.85715572 -4.125 4.5625 C-2 2 -2 2 0 0 Z " fill="#F5BC72" transform="translate(24,35)" />
<path d="M0 0 C0.89009766 -0.01998047 1.78019531 -0.03996094 2.69726562 -0.06054688 C9.21026644 -0.05578939 13.81212264 1.49912834 19.5625 4.4375 C20.696875 4.870625 21.83125 5.30375 23 5.75 C25.5625 7.4375 25.5625 7.4375 26.9375 11.125 C27.14375 12.218125 27.35 13.31125 27.5625 14.4375 C26.9025 14.4375 26.2425 14.4375 25.5625 14.4375 C25.7275 16.5825 25.7275 16.5825 26.5625 27.4375 C25.9025 27.4375 25.2425 27.4375 24.5625 27.4375 C24.5625 26.1175 24.5625 24.7975 24.5625 23.4375 C23.99144531 23.83582031 23.42039063 24.23414062 22.83203125 24.64453125 C15.85674111 29.20231225 8.05017189 32.4375 -0.4375 32.4375 C-1.0975 34.4175 -1.7575 36.3975 -2.4375 38.4375 C-3.0975 38.4375 -3.7575 38.4375 -4.4375 38.4375 C-4.7675 36.4575 -5.0975 34.4775 -5.4375 32.4375 C-0.99469258 30.89485854 3.42643409 29.42022606 8 28.3125 C11.5625 27.4375 11.5625 27.4375 13.5625 26.4375 C12.5625 23.4375 12.5625 23.4375 9.5625 21.4375 C6.25512094 21.29951287 2.99868089 21.44209865 -0.30859375 21.5625 C-3.34868431 21.44104819 -4.89950274 21.03388157 -7.4375 19.4375 C-4.4375 17.4375 -4.4375 17.4375 -2.3125 16.5 C-0.4375 15.4375 -0.4375 15.4375 0.5625 12.4375 C1.5525 12.4375 2.5425 12.4375 3.5625 12.4375 C3.5625 11.7775 3.5625 11.1175 3.5625 10.4375 C2.9025 10.4375 2.2425 10.4375 1.5625 10.4375 C1.5625 9.4475 1.5625 8.4575 1.5625 7.4375 C0.5725 7.7675 -0.4175 8.0975 -1.4375 8.4375 C-3.625 7.5 -3.625 7.5 -5.4375 6.4375 C-5.4375 7.0975 -5.4375 7.7575 -5.4375 8.4375 C-9.91004497 9.92834832 -13.96495503 9.92834832 -18.4375 8.4375 C-18.4375 7.7775 -18.4375 7.1175 -18.4375 6.4375 C-22.50576056 7.79358685 -24.61195909 9.95152637 -26.6875 13.6875 C-26.935 14.265 -27.1825 14.8425 -27.4375 15.4375 C-27.7675 15.4375 -28.0975 15.4375 -28.4375 15.4375 C-28.4375 13.7875 -28.4375 12.1375 -28.4375 10.4375 C-27.7775 10.4375 -27.1175 10.4375 -26.4375 10.4375 C-26.1075 9.4475 -25.7775 8.4575 -25.4375 7.4375 C-17.18295935 2.04677958 -9.78776702 -0.07762468 0 0 Z " fill="#C40B09" transform="translate(52.4375,17.5625)" />
<path d="M0 0 C0.99 0 1.98 0 3 0 C3 0.66 3 1.32 3 2 C7.29 2 11.58 2 16 2 C16 1.34 16 0.68 16 0 C18.31 0.33 20.62 0.66 23 1 C23 1.99 23 2.98 23 4 C23.66 4 24.32 4 25 4 C25 4.66 25 5.32 25 6 C24.01 6 23.02 6 22 6 C22.33 7.32 22.66 8.64 23 10 C21.35 10.33 19.7 10.66 18 11 C19.32 11.66 20.64 12.32 22 13 C20.68 13.33 19.36 13.66 18 14 C18.44021484 13.97679687 18.44021484 13.97679687 20.66796875 13.859375 C21.82941406 13.82328125 22.99085937 13.7871875 24.1875 13.75 C25.33605469 13.70359375 26.48460937 13.6571875 27.66796875 13.609375 C31.60353399 14.07075428 33.17745787 15.29971488 36 18 C35 21 35 21 33.375 22.125 C30.28966239 23.26170333 27.25691115 23.62420256 24 24 C24.33 22.68 24.66 21.36 25 20 C24.02417969 20.02320312 23.04835938 20.04640625 22.04296875 20.0703125 C20.77066406 20.08835937 19.49835937 20.10640625 18.1875 20.125 C17.55521484 20.13660156 17.55521484 20.13660156 14.35546875 20.1953125 C11 20 11 20 8 18 C8 17.67 8 17.34 8 17 C5.69 17 3.38 17 1 17 C1 17.99 1 18.98 1 20 C1.92683594 20.19335938 2.85367188 20.38671875 3.80859375 20.5859375 C5.00613281 20.84632812 6.20367187 21.10671875 7.4375 21.375 C8.03498047 21.50261719 8.03498047 21.50261719 11.05859375 22.1484375 C12.02925781 22.42945312 12.99992187 22.71046875 14 23 C14.33 23.66 14.66 24.32 15 25 C14.70996094 24.9278125 14.70996094 24.9278125 13.2421875 24.5625 C9.58283181 23.69295013 6.34271497 23 2.5625 23 C1.716875 23 0.87125 23 0 23 C-2 21 -2 21 -2.9375 18.125 C-4 15 -4 15 -5.75 13 C-7 11 -7 11 -6.4375 7.875 C-4.85281388 4.70562777 -4.13075105 4.3128956 -1 3 C-0.67 2.01 -0.34 1.02 0 0 Z " fill="#C61D12" transform="translate(31,24)" />
<path d="M0 0 C1.32 1.32 2.64 2.64 4 4 C3.67 4.99 3.34 5.98 3 7 C2.67 6.34 2.34 5.68 2 5 C1.22350316 19.34362216 1.22350316 19.34362216 6 25 C11.42231414 27.5315536 16.88879471 27.33230137 22.75 27.3125 C23.21921875 27.32055664 23.21921875 27.32055664 25.59375 27.36132812 C37.37906009 27.36946715 46.69617224 23.92987188 55.3046875 15.83203125 C56.71059901 14.41861487 58.10039432 12.98886792 59.46875 11.5390625 C59.72140625 11.28511719 59.72140625 11.28511719 61 10 C61.33 10 61.66 10 62 10 C62.38350736 14.69796515 62.09987239 18.25445408 59.51171875 22.3046875 C56.32737908 25.87575576 52.24284882 27.90870946 48 30 C47.175 30.41636719 46.35 30.83273438 45.5 31.26171875 C35.37408077 35.66093671 22.48980187 35.71160933 12.1328125 31.90234375 C11.42898437 31.60457031 10.72515625 31.30679688 10 31 C9.29617187 30.73316406 8.59234375 30.46632813 7.8671875 30.19140625 C1.80879182 27.59988719 -3.03901065 22.92197871 -6 17 C-6.58526655 12.20273323 -6.46753949 8.85715572 -4.125 4.5625 C-2 2 -2 2 0 0 Z " fill="#CFC3AB" transform="translate(24,35)" />
<path d="M0 0 C2.31 0.33 4.62 0.66 7 1 C7 1.99 7 2.98 7 4 C7.66 4 8.32 4 9 4 C9.33 3.01 9.66 2.02 10 1 C14.27155748 4.13247548 14.81691472 7.52192953 15.703125 12.46484375 C16.00026151 15.00223318 16.05478742 17.44781941 16 20 C15.34 20 14.68 20 14 20 C14 18.68 14 17.36 14 16 C13.42894531 16.39832031 12.85789062 16.79664062 12.26953125 17.20703125 C5.29424111 21.76481225 -2.51232811 25 -11 25 C-11.66 26.98 -12.32 28.96 -13 31 C-13.66 31 -14.32 31 -15 31 C-15.33 29.02 -15.66 27.04 -16 25 C-11.55719258 23.45735854 -7.13606591 21.98272606 -2.5625 20.875 C1 20 1 20 3 19 C2 16 2 16 -1 14 C-4.30737906 13.86201287 -7.56381911 14.00459865 -10.87109375 14.125 C-13.91118431 14.00354819 -15.46200274 13.59638157 -18 12 C-17.02417969 11.86722656 -16.04835937 11.73445313 -15.04296875 11.59765625 C-14.40681641 11.50935547 -14.40681641 11.50935547 -11.1875 11.0625 C-9.92292969 10.88847656 -8.65835938 10.71445312 -7.35546875 10.53515625 C-4 10 -4 10 -1 9 C-0.67 8.34 -0.34 7.68 0 7 C0.66 7 1.32 7 2 7 C2 5.68 2 4.36 2 3 C1.34 2.67 0.68 2.34 0 2 C0 1.34 0 0.68 0 0 Z " fill="#CC0F0D" transform="translate(63,25)" />
<path d="M0 0 C0.33 0.66 0.66 1.32 1 2 C1.61875 1.814375 2.2375 1.62875 2.875 1.4375 C5 1 5 1 7 2 C7 2.99 7 3.98 7 5 C7.82201904 4.97905273 8.64403809 4.95810547 9.4909668 4.93652344 C13.22301964 4.85326691 16.95487694 4.80130753 20.6875 4.75 C21.98107422 4.71648438 23.27464844 4.68296875 24.60742188 4.6484375 C25.85458984 4.63554688 27.10175781 4.62265625 28.38671875 4.609375 C29.53358154 4.58842773 30.68044434 4.56748047 31.86206055 4.54589844 C35.62711331 5.09075163 37.27304023 6.41821008 40 9 C39 12 39 12 37.375 13.125 C34.28966239 14.26170333 31.25691115 14.62420256 28 15 C28.33 13.68 28.66 12.36 29 11 C28.02417969 11.02320313 27.04835938 11.04640625 26.04296875 11.0703125 C24.77066406 11.08835937 23.49835937 11.10640625 22.1875 11.125 C21.55521484 11.13660156 21.55521484 11.13660156 18.35546875 11.1953125 C15 11 15 11 12 9 C12 8.67 12 8.34 12 8 C8.625 7.875 8.625 7.875 5 8 C4.34 8.66 3.68 9.32 3 10 C0 3.375 0 3.375 0 0 Z " fill="#F35A4D" transform="translate(27,33)" />
<path d="M0 0 C0.33 0 0.66 0 1 0 C1.38317472 4.69389033 1.08781468 8.23457987 -1.46484375 12.296875 C-6.06481376 17.40014962 -14.02600174 21.64228616 -20.875 22.25878906 C-21.90625 22.26104492 -22.9375 22.26330078 -24 22.265625 C-25.134375 22.26820312 -26.26875 22.27078125 -27.4375 22.2734375 C-28.613125 22.26570313 -29.78875 22.25796875 -31 22.25 C-32.175625 22.25773437 -33.35125 22.26546875 -34.5625 22.2734375 C-35.696875 22.27085938 -36.83125 22.26828125 -38 22.265625 C-39.03125 22.26336914 -40.0625 22.26111328 -41.125 22.25878906 C-44.10356867 21.99067741 -46.29864765 21.25012032 -49 20 C-45.65417142 18.88472381 -45.23686684 19.18244085 -42 20 C-39.54376334 20.11920787 -37.08409708 20.17522906 -34.625 20.1875 C-33.98175781 20.19458984 -33.98175781 20.19458984 -30.7265625 20.23046875 C-24.47151601 19.84362625 -21.27420441 18.39632454 -17 14 C-15.59688103 13.06272769 -14.17827591 12.148471 -12.75 11.25 C-8.45087846 8.47407715 -5.03553117 5.25193183 -1.53125 1.5390625 C-1.0259375 1.03117187 -0.520625 0.52328125 0 0 Z " fill="#E1DCC2" transform="translate(85,45)" />
<path d="M0 0 C0.5775 0.721875 1.155 1.44375 1.75 2.1875 C8.08614874 8.36480379 16.51225667 10.48852303 25.125 10.5625 C34.44384669 10.40526164 41.58678809 7.46236667 49 2 C47.67988529 5.96034413 46.25522242 8.36063047 43 11 C33.89133001 15.4715289 22.39236265 17.15162088 12.5625 13.875 C7.17342484 11.40645589 2.90289405 8.11983821 0.5625 2.625 C0.376875 1.75875 0.19125 0.8925 0 0 Z " fill="#5E400F" transform="translate(27,48)" />
<path d="M0 0 C1.93359375 0.3203125 1.93359375 0.3203125 4 1 C4.73080266 2.97746603 5.39421747 4.98072489 6 7 C7.96981607 9.50703864 10.10895008 10.70401211 13 12 C13 12.66 13 13.32 13 14 C13.61875 14.0825 14.2375 14.165 14.875 14.25 C17 15 17 15 18.1328125 17.046875 C18.41898438 17.69140625 18.70515625 18.3359375 19 19 C7.29384966 16.47835991 7.29384966 16.47835991 3 11 C6.79167978 17.79342627 12.16480451 20.64343079 19 24 C13.20102029 24.30520946 9.14192137 24.0653762 4 21 C-1.37470299 14.79841962 -0.39235728 7.85804439 0 0 Z " fill="#DAB764" transform="translate(25,39)" />
<path d="M0 0 C0.89009766 -0.01998047 1.78019531 -0.03996094 2.69726562 -0.06054688 C9.21026644 -0.05578939 13.81212264 1.49912834 19.5625 4.4375 C20.696875 4.870625 21.83125 5.30375 23 5.75 C25.5625 7.4375 25.5625 7.4375 26.9375 11.125 C27.14375 12.218125 27.35 13.31125 27.5625 14.4375 C26.9025 14.4375 26.2425 14.4375 25.5625 14.4375 C25.5625 16.0875 25.5625 17.7375 25.5625 19.4375 C25.2325 19.4375 24.9025 19.4375 24.5625 19.4375 C24.5625 17.1275 24.5625 14.8175 24.5625 12.4375 C23.964375 12.169375 23.36625 11.90125 22.75 11.625 C20.56436425 10.43851202 19.3041583 9.1791583 17.5625 7.4375 C15.375 6.25 15.375 6.25 13.5625 5.4375 C13.5625 4.7775 13.5625 4.1175 13.5625 3.4375 C9.79193831 3.31951396 6.02186235 3.24966136 2.25 3.1875 C1.19748047 3.15398438 0.14496094 3.12046875 -0.93945312 3.0859375 C-9.07513101 2.98580608 -17.36989284 3.79396347 -23.66918945 9.43652344 C-25.37224541 11.36365952 -26.42890083 13.08410193 -27.4375 15.4375 C-27.7675 15.4375 -28.0975 15.4375 -28.4375 15.4375 C-28.4375 13.7875 -28.4375 12.1375 -28.4375 10.4375 C-27.7775 10.4375 -27.1175 10.4375 -26.4375 10.4375 C-26.1075 9.4475 -25.7775 8.4575 -25.4375 7.4375 C-17.18295935 2.04677958 -9.78776702 -0.07762468 0 0 Z " fill="#8E1509" transform="translate(52.4375,17.5625)" />
<path d="M0 0 C0.65625 1.77734375 0.65625 1.77734375 1 4 C-1.8806523 9.40122306 -6.33169652 12.0418588 -12 14 C-12.825 14.391875 -13.65 14.78375 -14.5 15.1875 C-17.73096689 16.23756424 -20.62662385 16.13228926 -24 16 C-23.01 15.34 -22.02 14.68 -21 14 C-21.33 13.01 -21.66 12.02 -22 11 C-21.5359375 11.0103125 -21.5359375 11.0103125 -19.1875 11.0625 C-16 11 -16 11 -13 10 C-12.87496094 9.38640625 -12.74992187 8.7728125 -12.62109375 8.140625 C-11.7047443 4.98238916 -9.86294115 4.34106843 -7.0625 2.75 C-6.16660156 2.22921875 -5.27070312 1.7084375 -4.34765625 1.171875 C-2 0 -2 0 0 0 Z " fill="#D4A24D" transform="translate(77,43)" />
<path d="M0 0 C0.33 0.66 0.66 1.32 1 2 C1.74765625 1.97679688 2.4953125 1.95359375 3.265625 1.9296875 C4.25046875 1.91164063 5.2353125 1.89359375 6.25 1.875 C7.22453125 1.85179688 8.1990625 1.82859375 9.203125 1.8046875 C12.06627213 2.00462794 13.65155238 2.37332298 16 4 C16.33 4.99 16.66 5.98 17 7 C17.66 7.66 18.32 8.32 19 9 C17.20866022 9.05391993 15.41686101 9.09275571 13.625 9.125 C12.62726562 9.14820313 11.62953125 9.17140625 10.6015625 9.1953125 C8 9 8 9 6 7 C3.875 6.375 3.875 6.375 2 6 C2.77829433 9.46959246 3.77042429 12.20307689 6 15 C9.40630597 16.30291204 12.59682377 16.92388344 16.19921875 17.46484375 C17.12347656 17.64144531 18.04773438 17.81804688 19 18 C19.33 18.66 19.66 19.32 20 20 C19.70996094 19.9278125 19.70996094 19.9278125 18.2421875 19.5625 C14.58283181 18.69295013 11.34271497 18 7.5625 18 C6.716875 18 5.87125 18 5 18 C3 16 3 16 2.0625 13.125 C1 10 1 10 -0.75 8 C-1.1625 7.34 -1.575 6.68 -2 6 C-1.1875 2.75 -1.1875 2.75 0 0 Z " fill="#ED5C4E" transform="translate(26,29)" />
<path d="M0 0 C8.57142857 0.71428571 8.57142857 0.71428571 12 4 C11.8125 6.375 11.8125 6.375 11 9 C8.6875 10.25 8.6875 10.25 6 11 C5.401875 11.20625 4.80375 11.4125 4.1875 11.625 C0.78596467 12.20812034 -2.55199964 12.05746667 -6 12 C-5.34 11.01 -4.68 10.02 -4 9 C-3.01 9 -2.02 9 -1 9 C-1 8.01 -1 7.02 -1 6 C-0.01 6 0.98 6 2 6 C2 5.34 2 4.68 2 4 C1.34 4 0.68 4 0 4 C0 2.68 0 1.36 0 0 Z " fill="#AE120B" transform="translate(54,24)" />
<path d="M0 0 C3.3125 -0.1875 3.3125 -0.1875 7 0 C7.23460937 0.24814453 7.23460937 0.24814453 8.421875 1.50390625 C10 3 10 3 12.33984375 3.2578125 C13.19707031 3.21398438 14.05429687 3.17015625 14.9375 3.125 C18.20212153 2.97727957 20.86051145 3.0530545 24 4 C23.67 5.32 23.34 6.64 23 8 C17.30850812 9.09350423 13.26868458 9.17308883 7.9296875 6.8359375 C5.03082753 5.58015605 2.04590321 4.82493212 -1 4 C-0.67 2.68 -0.34 1.36 0 0 Z " fill="#F5897B" transform="translate(32,40)" />
<path d="M0 0 C0.66 2.31 1.32 4.62 2 7 C0.68 7.66 0.68 7.66 -6 11 C-6.886875 10.195625 -7.77375 9.39125 -8.6875 8.5625 C-11.38287032 6.2960841 -13.42063478 5.31582634 -17 5 C-15.68 4.67 -14.36 4.34 -13 4 C-13 3.34 -13 2.68 -13 2 C-8.46298506 0.54815522 -4.81938524 -0.23509196 0 0 Z " fill="#E42628" transform="translate(74,33)" />
<path d="M0 0 C4.45107288 3.96987581 5.4740165 6.1060385 8 12 C4.37 15.63 0.74 19.26 -3 23 C-3.66 22.67 -4.32 22.34 -5 22 C-4.81953125 21.70867188 -4.81953125 21.70867188 -3.90625 20.234375 C0.00378455 13.3266473 0.60742973 7.85609113 0 0 Z " fill="#887460" transform="translate(78,33)" />
<path d="M0 0 C0.99 0 1.98 0 3 0 C3 0.66 3 1.32 3 2 C6.96 2.33 10.92 2.66 15 3 C14.01 5.97 13.02 8.94 12 12 C11.34 11.01 10.68 10.02 10 9 C6.99221479 7.99740493 4.46179353 7.69685358 1.3125 7.4375 C0.31863281 7.35371094 -0.67523437 7.26992188 -1.69921875 7.18359375 C-2.07884766 7.15330078 -2.07884766 7.15330078 -4 7 C-3.67 5.68 -3.34 4.36 -3 3 C-2.34 3 -1.68 3 -1 3 C-0.67 2.01 -0.34 1.02 0 0 Z " fill="#E12D26" transform="translate(31,24)" />
<path d="M0 0 C0.33 0 0.66 0 1 0 C1.49940808 6.11774896 0.24900602 9.02495953 -3 14 C-3.33 13.01 -3.66 12.02 -4 11 C-4.94875 11.495 -5.8975 11.99 -6.875 12.5 C-10 14 -10 14 -12 14 C-12 14.66 -12 15.32 -12 16 C-13.32 15.67 -14.64 15.34 -16 15 C-16.33 15.66 -16.66 16.32 -17 17 C-17.66 16.34 -18.32 15.68 -19 15 C-18.38253906 14.67128906 -17.76507813 14.34257813 -17.12890625 14.00390625 C-11.08666486 10.61031862 -6.45672581 6.8080419 -1.71484375 1.7578125 C-1.14894531 1.17773438 -0.58304688 0.59765625 0 0 Z " fill="#BFB9A0" transform="translate(85,45)" />
<path d="M0 0 C0.66 0.66 1.32 1.32 2 2 C1.9175 3.19625 1.835 4.3925 1.75 5.625 C1.64071156 10.24874156 3.31781077 12.74931086 6.21484375 16.2421875 C8.91579418 18.9017667 11.5818648 20.3542312 15 22 C15.804375 22.4125 16.60875 22.825 17.4375 23.25 C17.953125 23.4975 18.46875 23.745 19 24 C13.20102029 24.30520946 9.14192137 24.0653762 4 21 C-1.37470299 14.79841962 -0.39235728 7.85804439 0 0 Z " fill="#B6A989" transform="translate(25,39)" />
<path d="M0 0 C0.33 0 0.66 0 1 0 C0.95810547 0.50080078 0.95810547 0.50080078 0.74609375 3.03515625 C0.64283088 4.37757359 0.53998879 5.72002334 0.4375 7.0625 C0.33308594 8.37347656 0.22867187 9.68445313 0.12109375 11.03515625 C0.00234381 14.92325897 0.33133784 18.19110223 1 22 C-1.39949307 21.04020277 -2.73612938 20.42925433 -4.109375 18.1953125 C-5.6123196 14.4906859 -5.57740847 10.92637758 -5 7 C-3.75774755 4.29065304 -2.11927836 2.11927836 0 0 Z " fill="#EEE5D3" transform="translate(23,36)" />
<path d="M0 0 C2 2 2 2 2.125 4.625 C2.08375 5.40875 2.0425 6.1925 2 7 C1.34 7 0.68 7 0 7 C0 5.68 0 4.36 0 3 C-0.57105469 3.39832031 -1.14210938 3.79664063 -1.73046875 4.20703125 C-8.70575889 8.76481225 -16.51232811 12 -25 12 C-25.66 13.98 -26.32 15.96 -27 18 C-27.66 18 -28.32 18 -29 18 C-29.33 16.02 -29.66 14.04 -30 12 C-25.72038273 10.51402178 -21.49786762 9.06830927 -17.0625 8.125 C-12.75136801 7.12080058 -9.0711183 5.12654149 -5.19921875 3.0234375 C-3 2 -3 2 0 2 C0 1.34 0 0.68 0 0 Z " fill="#B9321C" transform="translate(77,38)" />
<path d="M0 0 C4.571279 0.54855348 8.67435795 1.41744803 13 3 C13.33 5.31 13.66 7.62 14 10 C13.34 10 12.68 10 12 10 C11.67 10.66 11.34 11.32 11 12 C10.566875 11.360625 10.13375 10.72125 9.6875 10.0625 C8 8 8 8 5 7 C4.67 6.34 4.34 5.68 4 5 C2.02111039 4.27306096 0.02045442 3.60183749 -2 3 C-1.34 2.01 -0.68 1.02 0 0 Z " fill="#F7C47E" transform="translate(33,46)" />
<path d="M0 0 C0.33 0.66 0.66 1.32 1 2 C1.61875 1.814375 2.2375 1.62875 2.875 1.4375 C5 1 5 1 7 2 C7 2.99 7 3.98 7 5 C8.216875 4.9175 9.43375 4.835 10.6875 4.75 C14.08536589 4.73792943 14.96759056 4.9797441 18 6.875 C20 9 20 9 20 11 C17.36 10.67 14.72 10.34 12 10 C12 9.34 12 8.68 12 8 C8.625 7.875 8.625 7.875 5 8 C4.34 8.66 3.68 9.32 3 10 C0 3.375 0 3.375 0 0 Z " fill="#F57D6C" transform="translate(27,33)" />
<path d="M0 0 C-1 2 -1 2 -3.484375 2.8515625 C-15.22333011 5.63184134 -25.58673679 6.3282804 -37 2 C-33.59641589 0.86547196 -31.47014491 1.28254388 -28 2 C-25.17541815 2.11872631 -22.38639316 2.18504657 -19.5625 2.1875 C-18.82451172 2.19974609 -18.08652344 2.21199219 -17.32617188 2.22460938 C-11.25571117 2.24079727 -5.97886158 -0.35169774 0 0 Z " fill="#5B412C" transform="translate(72,66)" />
<path d="M0 0 C0.96550781 0.01353516 1.93101563 0.02707031 2.92578125 0.04101562 C5.28445425 0.07604542 7.64191771 0.12515916 10 0.1875 C10 0.5175 10 0.8475 10 1.1875 C9.43152344 1.19458984 9.43152344 1.19458984 6.5546875 1.23046875 C-3.98965489 1.50215924 -15.96344125 1.87737459 -24.3046875 9.21484375 C-25.95013589 11.1294784 -27.00891112 12.87495927 -28 15.1875 C-28.33 15.1875 -28.66 15.1875 -29 15.1875 C-29 13.5375 -29 11.8875 -29 10.1875 C-28.34 10.1875 -27.68 10.1875 -27 10.1875 C-26.67 9.1975 -26.34 8.2075 -26 7.1875 C-17.44032477 1.59750801 -10.12979163 -0.27245646 0 0 Z " fill="#7A1F0D" transform="translate(53,17.8125)" />
<path d="M0 0 C0.33 0.66 0.66 1.32 1 2 C-0.82265834 7.18756605 -4.79774298 8.78022396 -9.4296875 11.08203125 C-12.13290535 12.04746619 -14.15353086 12.17854197 -17 12 C-15.99150609 9.2956588 -15.40926175 8.20861484 -12.79296875 6.875 C-11.93316406 6.58625 -11.07335938 6.2975 -10.1875 6 C-6.15747564 4.53029502 -3.17757812 2.96573958 0 0 Z " fill="#55340D" transform="translate(75,50)" />
<path d="M0 0 C4.97728439 4.43919959 7.73899864 8.2656729 8.203125 14.90625 C8.0101984 22.70048464 8.0101984 22.70048464 5.36328125 26.10546875 C3.6399467 27.57711955 1.94542885 28.8418857 0 30 C-0.66 29.67 -1.32 29.34 -2 29 C-1.67 28.505 -1.67 28.505 0 26 C0.66 26 1.32 26 2 26 C2.309375 25.21625 2.61875 24.4325 2.9375 23.625 C4 21 4 21 5 19 C5.55558474 12.44410012 4.49413027 9.50590224 1 4 C0.25 1.5625 0.25 1.5625 0 0 Z " fill="#58442E" transform="translate(80,33)" />
<path d="M0 0 C8.57142857 0.71428571 8.57142857 0.71428571 12 4 C11.67 5.32 11.34 6.64 11 8 C10.01 6.68 9.02 5.36 8 4 C7.67 5.65 7.34 7.3 7 9 C5.68 8.67 4.36 8.34 3 8 C2.67 6.68 2.34 5.36 2 4 C1.34 4 0.68 4 0 4 C0 2.68 0 1.36 0 0 Z " fill="#B00F0A" transform="translate(54,24)" />
<path d="M0 0 C1.65 0 3.3 0 5 0 C3.68 0.33 2.36 0.66 1 1 C1.33 2.98 1.66 4.96 2 7 C4 6 4 6 6 3 C6 3.66 6 4.32 6 5 C6.639375 5.103125 7.27875 5.20625 7.9375 5.3125 C8.618125 5.539375 9.29875 5.76625 10 6 C10.33 6.99 10.66 7.98 11 9 C8.00519083 9.8723412 5.36424089 10.10829766 2.25 10.0625 C1.45078125 10.05347656 0.6515625 10.04445313 -0.171875 10.03515625 C-0.77515625 10.02355469 -1.3784375 10.01195312 -2 10 C-1.67257813 9.40703125 -1.34515625 8.8140625 -1.0078125 8.203125 C0.28545792 5.3759757 0.13965059 3.07231289 0 0 Z " fill="#E2AD67" transform="translate(46,49)" />
<path d="M0 0 C0.33 0.66 0.66 1.32 1 2 C-2.80262554 7.08409642 -5.86161013 10.11126465 -12 12 C-12.66 11.67 -13.32 11.34 -14 11 C-12.68 10.34 -11.36 9.68 -10 9 C-10 8.01 -10 7.02 -10 6 C-9.34 6 -8.68 6 -8 6 C-7.67 5.01 -7.34 4.02 -7 3 C-3.4375 1.3125 -3.4375 1.3125 0 0 Z " fill="#B48C39" transform="translate(77,45)" />
<path d="M0 0 C0.66 0 1.32 0 2 0 C2.02578125 0.58007812 2.0515625 1.16015625 2.078125 1.7578125 C2.62365062 9.27118808 5.04770838 13.42300991 10.75 18.375 C11.82718031 19.2575637 12.9084143 20.13531695 14 21 C13.67 21.66 13.34 22.32 13 23 C6.8706962 18.80469982 2.41504255 15.24512766 0 8 C-0.12781786 5.32605036 -0.04391871 2.67904143 0 0 Z " fill="#5B4831" transform="translate(16,43)" />
<path d="M0 0 C1.32 1.32 2.64 2.64 4 4 C3.67 4.99 3.34 5.98 3 7 C2.67 6.34 2.34 5.68 2 5 C2 10.28 2 15.56 2 21 C1.01 20.67 0.02 20.34 -1 20 C-2.1710655 12.85650045 -1.59295252 7.04321983 0 0 Z " fill="#D5CAAB" transform="translate(24,35)" />
<path d="M0 0 C3.6875 0.3125 3.6875 0.3125 6.125 2.1875 C7.6875 4.3125 7.6875 4.3125 7.6875 6.3125 C4.0575 5.9825 0.4275 5.6525 -3.3125 5.3125 C-3.6425 3.9925 -3.9725 2.6725 -4.3125 1.3125 C-3.3125 0.3125 -3.3125 0.3125 0 0 Z " fill="#FC9991" transform="translate(35.3125,39.6875)" />
<path d="M0 0 C-0.66 1.32 -1.32 2.64 -2 4 C-8.27 4 -14.54 4 -21 4 C-21 3.34 -21 2.68 -21 2 C-20.04738281 1.93941406 -19.09476563 1.87882812 -18.11328125 1.81640625 C-17.48615234 1.77451172 -17.48615234 1.77451172 -14.3125 1.5625 C-13.07113281 1.48128906 -11.82976563 1.40007813 -10.55078125 1.31640625 C-7.01542349 1.00137437 -3.53116526 0 0 0 Z " fill="#B9B396" transform="translate(65,61)" />
<path d="M0 0 C1.41805831 0.28482368 2.83440379 0.57818144 4.25 0.875 C5.03890625 1.03742187 5.8278125 1.19984375 6.640625 1.3671875 C8.98724948 1.99658016 10.86899147 2.84715932 13 4 C14.0725 4.53625 15.145 5.0725 16.25 5.625 C17.1575 6.07875 18.065 6.5325 19 7 C18.67 7.66 18.34 8.32 18 9 C15.4375 9.625 15.4375 9.625 13 10 C13.33 8.68 13.66 7.36 14 6 C13.38511719 5.95101562 12.77023438 5.90203125 12.13671875 5.8515625 C11.73259766 5.81417969 11.73259766 5.81417969 9.6875 5.625 C8.88699219 5.55539063 8.08648437 5.48578125 7.26171875 5.4140625 C5 5 5 5 2 3 C2 2.34 2 1.68 2 1 C1.34 0.67 0.68 0.34 0 0 Z " fill="#F6634D" transform="translate(42,38)" />
<path d="M0 0 C4.19813062 3.74427866 6.07776117 6.8403063 8 12 C6.68 12.99 5.36 13.98 4 15 C3.51787786 13.43840941 3.03944127 11.87568072 2.5625 10.3125 C2.29566406 9.44238281 2.02882813 8.57226562 1.75390625 7.67578125 C1.03655471 5.12974079 0.482459 2.5996577 0 0 Z " fill="#A29283" transform="translate(78,33)" />
<path d="M0 0 C0.99 0.165 0.99 0.165 6 1 C5.67 1.66 5.34 2.32 5 3 C3.02 3 1.04 3 -1 3 C-1 3.66 -1 4.32 -1 5 C-6.71271093 7.0662997 -11.03654233 7.0006709 -17 6 C-17 5.67 -17 5.34 -17 5 C-16.51208984 4.93361328 -16.51208984 4.93361328 -14.04296875 4.59765625 C-13.40681641 4.50935547 -13.40681641 4.50935547 -10.1875 4.0625 C-9.55521484 3.97548828 -9.55521484 3.97548828 -6.35546875 3.53515625 C-3 3 -3 3 0 2 C0 1.34 0 0.68 0 0 Z " fill="#D7281C" transform="translate(62,32)" />
<path d="M0 0 C4.62 0 9.24 0 14 0 C14 0.99 14 1.98 14 3 C9.38 3 4.76 3 0 3 C0 2.01 0 1.02 0 0 Z " fill="#5F3A14" transform="translate(44,60)" />
<path d="M0 0 C0.602537 6.98942918 0.602537 6.98942918 -1.11328125 9.8671875 C-2.33745588 11.30861002 -3.66278229 12.66278229 -5 14 C-6.231394 11.53721199 -6.07159196 9.7204945 -6 7 C-5.34 6.67 -4.68 6.34 -4 6 C-3.835 5.175 -3.67 4.35 -3.5 3.5 C-3.335 2.675 -3.17 1.85 -3 1 C-1 0 -1 0 0 0 Z " fill="#675238" transform="translate(24,28)" />
<path d="M0 0 C0.99 0 1.98 0 3 0 C3 0.66 3 1.32 3 2 C5.64 2.33 8.28 2.66 11 3 C10.01 3.33 9.02 3.66 8 4 C8 4.66 8 5.32 8 6 C5.36 5.67 2.72 5.34 0 5 C-0.5625 3.0625 -0.5625 3.0625 -1 1 C-0.67 0.67 -0.34 0.34 0 0 Z " fill="#D1221E" transform="translate(31,24)" />
<path d="M0 0 C1.65 1.65 3.3 3.3 5 5 C4.175 5.495 4.175 5.495 0 8 C-1.98 6.35 -3.96 4.7 -6 3 C-5.38125 2.87625 -4.7625 2.7525 -4.125 2.625 C-2 2 -2 2 0 0 Z " fill="#ED4240" transform="translate(68,36)" />
<path d="M0 0 C2.9375 0.8125 2.9375 0.8125 6 2 C6.33 2.99 6.66 3.98 7 5 C7.66 5.66 8.32 6.32 9 7 C2.25 7.125 2.25 7.125 0 6 C0 4.02 0 2.04 0 0 Z " fill="#EE503E" transform="translate(36,31)" />
<path d="M0 0 C-1.46488294 5.61538462 -1.46488294 5.61538462 -4 7.4375 C-6 8 -6 8 -8 7 C-7.8125 5.1875 -7.8125 5.1875 -7 3 C-2.82142857 0 -2.82142857 0 0 0 Z " fill="#F06E64" transform="translate(53,26)" />
<path d="M0 0 C0.28571429 7.42857143 0.28571429 7.42857143 -2 11 C-2.99 10.67 -3.98 10.34 -5 10 C-4.38675022 3.49955237 -4.38675022 3.49955237 -2.5 1.0625 C-1 0 -1 0 0 0 Z " fill="#ECE3D2" transform="translate(86,45)" />
<path d="M0 0 C0.309375 0.94875 0.61875 1.8975 0.9375 2.875 C2 6 2 6 3 8 C2.01 8.99 1.02 9.98 0 11 C-0.66 10.34 -1.32 9.68 -2 9 C-2.33 9 -2.66 9 -3 9 C-3 6.36 -3 3.72 -3 1 C-1 0 -1 0 0 0 Z " fill="#DDA869" transform="translate(29,40)" />
<path d="M0 0 C0 0.66 0 1.32 0 2 C0.66 2.33 1.32 2.66 2 3 C2 3.66 2 4.32 2 5 C-4.625 5.125 -4.625 5.125 -8 4 C-8 3.01 -8 2.02 -8 1 C-2.25 -1.125 -2.25 -1.125 0 0 Z " fill="#CF100D" transform="translate(42,22)" />
<path d="M0 0 C0.66 0 1.32 0 2 0 C2 0.99 2 1.98 2 3 C2.66 3 3.32 3 4 3 C4 3.66 4 4.32 4 5 C3.01 5 2.02 5 1 5 C1.33 6.32 1.66 7.64 2 9 C-1.3 9.33 -4.6 9.66 -8 10 C-7.67 9.01 -7.34 8.02 -7 7 C-6.01 7.33 -5.02 7.66 -4 8 C-1 6 -1 6 -0.3125 2.875 C-0.209375 1.92625 -0.10625 0.9775 0 0 Z " fill="#CC3329" transform="translate(52,25)" />
<path d="M0 0 C0.99 0.33 1.98 0.66 3 1 C5.56634861 1.22718496 8.11678107 1.41608184 10.6875 1.5625 C11.03844727 1.5840918 11.03844727 1.5840918 12.81445312 1.69335938 C14.54275206 1.7991736 16.2713511 1.90006581 18 2 C18 2.33 18 2.66 18 3 C13.05 3 8.1 3 3 3 C3 3.66 3 4.32 3 5 C1.35 4.67 -0.3 4.34 -2 4 C-1.34 3.67 -0.68 3.34 0 3 C0 2.01 0 1.02 0 0 Z " fill="#7A521C" transform="translate(41,57)" />
<path d="M0 0 C0.33 1.32 0.66 2.64 1 4 C-2.6441774 6.4294516 -4.71241272 6.16179575 -9 6 C-8.01 5.34 -7.02 4.68 -6 4 C-6.33 3.01 -6.66 2.02 -7 1 C-6.5153125 1.0103125 -6.5153125 1.0103125 -4.0625 1.0625 C-1 1 -1 1 0 0 Z " fill="#CEAA58" transform="translate(62,53)" />
<path d="M0 0 C0.625 3.375 0.625 3.375 1 7 C0.34 7.66 -0.32 8.32 -1 9 C-2.4606285 6.35261084 -3 5.10551666 -3 2 C-5.97 2 -8.94 2 -12 2 C-12 1.67 -12 1.34 -12 1 C-10.37512529 0.83211627 -8.75009558 0.66573213 -7.125 0.5 C-6.22007813 0.4071875 -5.31515625 0.314375 -4.3828125 0.21875 C-2 0 -2 0 0 0 Z " fill="#CE1A16" transform="translate(77,31)" />
<path d="M0 0 C3.71888239 0.50712033 6.73454239 1.11608215 10 3 C10 4.32 10 5.64 10 7 C9.34 7 8.68 7 8 7 C8 6.01 8 5.02 8 4 C5.36 4 2.72 4 0 4 C0 2.68 0 1.36 0 0 Z " fill="#C60707" transform="translate(62,22)" />
<path d="M0 0 C0.33 0 0.66 0 1 0 C0.88660796 2.64680904 0.75987127 5.29177518 0.625 7.9375 C0.5940625 8.69224609 0.563125 9.44699219 0.53125 10.22460938 C0.4273685 12.15507395 0.22104386 14.07942081 0 16 C-0.66 16.33 -1.32 16.66 -2 17 C-2 2 -2 2 0 0 Z " fill="#E2DDC5" transform="translate(23,36)" />
<path d="M0 0 C0.33 0.66 0.66 1.32 1 2 C-0.68474722 5.36949443 -1.8191658 6.87944386 -5 9 C-7.1875 8.625 -7.1875 8.625 -9 8 C-6.17493137 5.0702992 -3.21203935 2.49825283 0 0 Z " fill="#48270B" transform="translate(75,50)" />
<path d="M0 0 C0.99 0 1.98 0 3 0 C3 0.66 3 1.32 3 2 C4.32 2.66 5.64 3.32 7 4 C2.375 6.125 2.375 6.125 -1 5 C-1 2 -1 2 0 0 Z " fill="#D2CDB6" transform="translate(65,61)" />
<path d="M0 0 C10.55808656 0.77904328 10.55808656 0.77904328 15 3 C15 3.33 15 3.66 15 4 C9.01006953 4.3152595 5.36439644 3.68219822 0 1 C0 0.67 0 0.34 0 0 Z " fill="#C8B89D" transform="translate(29,59)" />
<path d="M0 0 C2 2 2 2 2 5 C0.46875 6.60546875 0.46875 6.60546875 -1.5 8.1875 C-2.1496875 8.71730469 -2.799375 9.24710938 -3.46875 9.79296875 C-3.9740625 10.19128906 -4.479375 10.58960938 -5 11 C-5.66 10.67 -6.32 10.34 -7 10 C-6.34 9.01 -5.68 8.02 -5 7 C-4.34 7 -3.68 7 -3 7 C-2.690625 6.21625 -2.38125 5.4325 -2.0625 4.625 C-1 2 -1 2 0 0 Z " fill="#5D4C36" transform="translate(85,52)" />
<path d="M0 0 C3.96 0 7.92 0 12 0 C11.67 0.165 11.67 0.165 10 1 C10.99 2.32 11.98 3.64 13 5 C5.25 4.25 5.25 4.25 3 2 C2.01 1.34 1.02 0.68 0 0 Z " fill="#F44E3B" transform="translate(45,38)" />
<path d="M0 0 C0 0.99 0 1.98 0 3 C-2.875 3.1875 -2.875 3.1875 -6 3 C-6.66 2.01 -7.32 1.02 -8 0 C-4.71023192 -1.09658936 -3.28696233 -0.79953138 0 0 Z " fill="#F69F9A" transform="translate(52,46)" />
<path d="M0 0 C2.64850284 0.61509762 5.29339905 1.24149408 7.9375 1.875 C8.69224609 2.04902344 9.44699219 2.22304688 10.22460938 2.40234375 C12.16593545 2.87244065 14.08549544 3.4304297 16 4 C16.33 4.66 16.66 5.32 17 6 C16.70996094 5.9278125 16.70996094 5.9278125 15.2421875 5.5625 C10.73340325 4.49110572 6.66945753 3.76054064 2 4 C1.34 2.68 0.68 1.36 0 0 Z " fill="#A04E28" transform="translate(29,43)" />
<path d="M0 0 C0.99 0 1.98 0 3 0 C3 0.66 3 1.32 3 2 C3.99 1.67 4.98 1.34 6 1 C6.33 1.99 6.66 2.98 7 4 C7.66 4.66 8.32 5.32 9 6 C8.34 6 7.68 6 7 6 C6.67 6.66 6.34 7.32 6 8 C5.566875 7.360625 5.13375 6.72125 4.6875 6.0625 C3 4 3 4 0 3 C0 2.01 0 1.02 0 0 Z " fill="#E8D271" transform="translate(38,50)" />
<path d="M0 0 C0.99 0 1.98 0 3 0 C3 0.66 3 1.32 3 2 C5.31 2.33 7.62 2.66 10 3 C10 3.33 10 3.66 10 4 C6.37 4 2.74 4 -1 4 C-0.67 2.68 -0.34 1.36 0 0 Z " fill="#D63E36" transform="translate(28,27)" />
<path d="M0 0 C4.41878758 1.67197368 7.72607883 3.57017783 11 7 C9.02 7 7.04 7 5 7 C5 6.01 5 5.02 5 4 C4.360625 3.896875 3.72125 3.79375 3.0625 3.6875 C2.381875 3.460625 1.70125 3.23375 1 3 C0.67 2.01 0.34 1.02 0 0 Z " fill="#755D49" transform="translate(29,63)" />
<path d="M0 0 C2 2 2 2 2.0625 5.9375 C2.04767578 6.28232422 2.04767578 6.28232422 1.97265625 8.02734375 C2 10 2 10 3 13 C2.0625 15.1875 2.0625 15.1875 1 17 C-0.18681726 13.43954823 -0.09689832 10.56191663 -0.0625 6.8125 C-0.05347656 5.54019531 -0.04445313 4.26789062 -0.03515625 2.95703125 C-0.02355469 1.98121094 -0.01195313 1.00539062 0 0 Z " fill="#C2B78C" transform="translate(25,39)" />
<path d="M0 0 C2 2 2 2 2.125 4.625 C2.08375 5.40875 2.0425 6.1925 2 7 C1.34 7 0.68 7 0 7 C0 5.68 0 4.36 0 3 C-0.598125 3.515625 -1.19625 4.03125 -1.8125 4.5625 C-2.534375 5.036875 -3.25625 5.51125 -4 6 C-4.99 5.67 -5.98 5.34 -7 5 C-3.375 2 -3.375 2 0 2 C0 1.34 0 0.68 0 0 Z " fill="#A12811" transform="translate(77,38)" />
<path d="M0 0 C0.33 0 0.66 0 1 0 C3.11161731 9.41002278 3.11161731 9.41002278 4 14 C1.2924329 10.84117171 -0.95539675 8.07395267 -2 4 C-1.125 1.6875 -1.125 1.6875 0 0 Z " fill="#C05744" transform="translate(26,29)" />
<path d="M0 0 C-0.3125 1.875 -0.3125 1.875 -1 4 C-4 6 -4 6 -7 6 C-7 5.34 -7 4.68 -7 4 C-6.34 4 -5.68 4 -5 4 C-4.67 3.01 -4.34 2.02 -4 1 C-2 0 -2 0 0 0 Z " fill="#E8E0C9" transform="translate(81,56)" />
<path d="M0 0 C-0.99 1.98 -1.98 3.96 -3 6 C-3.66 6 -4.32 6 -5 6 C-5.33 4.02 -5.66 2.04 -6 0 C-2.25 -1.125 -2.25 -1.125 0 0 Z " fill="#9D280E" transform="translate(53,50)" />
<path d="M0 0 C1.65 0 3.3 0 5 0 C5 1.32 5 2.64 5 4 C2.03 3.67 -0.94 3.34 -4 3 C-2.68 2.67 -1.36 2.34 0 2 C0 1.34 0 0.68 0 0 Z " fill="#E9302A" transform="translate(61,35)" />
<path d="M0 0 C0.33 1.32 0.66 2.64 1 4 C-0.8125 5.5625 -0.8125 5.5625 -3 7 C-3.99 6.67 -4.98 6.34 -6 6 C-4.02 4.02 -2.04 2.04 0 0 Z " fill="#C6B8AA" transform="translate(81,49)" />
<path d="M0 0 C0.66 0 1.32 0 2 0 C0.92289822 4.30840713 -0.03947516 7.63576723 -3 11 C-3.66 10.67 -4.32 10.34 -5 10 C-3.35 6.7 -1.7 3.4 0 0 Z " fill="#726542" transform="translate(78,45)" />
<path d="M0 0 C2 1 4 2 6 3 C6 5.97 6 8.94 6 12 C5.67 12 5.34 12 5 12 C5 9.69 5 7.38 5 5 C4.360625 4.731875 3.72125 4.46375 3.0625 4.1875 C1 3 1 3 0 0 Z " fill="#A71509" transform="translate(72,25)" />
<path d="M0 0 C2.875 0.5625 2.875 0.5625 6 2 C7.375 5.625 7.375 5.625 8 9 C7.34 9 6.68 9 6 9 C6 7.68 6 6.36 6 5 C5.38125 4.690625 4.7625 4.38125 4.125 4.0625 C2.75 3.375 1.375 2.6875 0 2 C0 1.34 0 0.68 0 0 Z " fill="#73210D" transform="translate(72,23)" />
<path d="M0 0 C0.66 0.33 1.32 0.66 2 1 C1.01 3.97 0.02 6.94 -1 10 C-1.33 10 -1.66 10 -2 10 C-2.25 3.375 -2.25 3.375 0 0 Z " fill="#F6EBDF" transform="translate(20,40)" />
<path d="M0 0 C5.53846154 -0.36923077 5.53846154 -0.36923077 7.875 1.5 C8.24625 1.995 8.6175 2.49 9 3 C7.02 3.66 5.04 4.32 3 5 C3.33 3.68 3.66 2.36 4 1 C2.68 0.67 1.36 0.34 0 0 Z " fill="#F77163" transform="translate(52,43)" />
<path d="M0 0 C0.66 0 1.32 0 2 0 C2 1.98 2 3.96 2 6 C0.68 5.67 -0.64 5.34 -2 5 C-2 2 -2 2 0 0 Z " fill="#900502" transform="translate(59,27)" />
<path d="M0 0 C1.32 1.32 2.64 2.64 4 4 C1.03 4 -1.94 4 -5 4 C-5.33 3.34 -5.66 2.68 -6 2 C-5.5978125 1.9278125 -5.5978125 1.9278125 -3.5625 1.5625 C-1 1 -1 1 0 0 Z " fill="#E63C35" transform="translate(68,36)" />
<path d="M0 0 C0.66 0.33 1.32 0.66 2 1 C1.34 1.99 1.34 1.99 -2 7 C-2.66 6.34 -3.32 5.68 -4 5 C-3 2 -3 2 0 0 Z " fill="#6F5541" transform="translate(77,61)" />
<path d="M0 0 C1.32 0.33 2.64 0.66 4 1 C3.67 1.165 3.67 1.165 2 2 C2 2.66 2 3.32 2 4 C0.35 4.66 -1.3 5.32 -3 6 C-3 5.34 -3 4.68 -3 4 C-2.34 3.67 -1.68 3.34 -1 3 C-0.67 2.01 -0.34 1.02 0 0 Z " fill="#EDB860" transform="translate(62,49)" />
<path d="M0 0 C0 1.98 0 3.96 0 6 C-0.45375 5.505 -0.9075 5.01 -1.375 4.5 C-3 3 -3 3 -5 3 C-5 2.34 -5 1.68 -5 1 C-3 0 -3 0 0 0 Z " fill="#FAD585" transform="translate(46,49)" />
<path d="M0 0 C0.33 0.66 0.66 1.32 1 2 C1.61875 1.814375 2.2375 1.62875 2.875 1.4375 C5 1 5 1 7 2 C6.67 2.99 6.34 3.98 6 5 C4.35 5 2.7 5 1 5 C0.67 3.35 0.34 1.7 0 0 Z " fill="#F17063" transform="translate(27,33)" />
</svg>