<?xml version='1.0' encoding='utf-8'?>
<svg xmlns="http://www.w3.org/2000/svg" version="1.1" width="113" height="91">
<path d="M0 0 C2.625 0.375 2.625 0.375 5 1 C5.5625 2.9375 5.5625 2.9375 6 5 C3.64720195 7.35279805 -1.50773439 7.09613438 -4.6875 7.5625 C-5.58662109 7.70107422 -6.48574219 7.83964844 -7.41210938 7.98242188 C-11.98277924 8.66315994 -16.36373443 9.17683932 -21 9 C-20.835 10.485 -20.835 10.485 -20 18 C-12.39009411 18.11046638 -5.01282256 17.92797511 2.5390625 16.92578125 C5 17 5 17 6.79296875 18.28125 C8.50649996 20.72122972 8.67538383 23.0784545 9 26 C9.495 26.165 9.495 26.165 12 27 C14.04108797 30.00791911 14.19878036 32.42195344 14 36 C14.66 36 15.32 36 16 36 C16 38.31 16 40.62 16 43 C6.65172427 47.52270791 -1.87863851 47.4271618 -12 47 C-12.18175781 46.40832031 -12.36351562 45.81664062 -12.55078125 45.20703125 C-15.91207084 34.64051577 -15.91207084 34.64051577 -19.75 31.625 C-23.00137649 30.72183986 -25.72834637 31.37083584 -29 32 C-30.23921302 34.97411124 -31.30058404 37.85262818 -32 41 C-33.32 40.67 -34.64 40.34 -36 40 C-36 38.35 -36 36.7 -36 35 C-36.66 35 -37.32 35 -38 35 C-41 30.61538462 -41 30.61538462 -41 28 C-49.57142857 26.71428571 -49.57142857 26.71428571 -53 28 C-53.66 27.01 -54.32 26.02 -55 25 C-57.625 23.8125 -57.625 23.8125 -60 23 C-60.02685938 20.85423363 -60.04633088 18.70837355 -60.0625 16.5625 C-60.07410156 15.36753906 -60.08570312 14.17257813 -60.09765625 12.94140625 C-60 10 -60 10 -59 9 C-57.51702498 9.06591 -56.03714485 9.20476019 -54.5625 9.375 C-53.66273437 9.46652344 -52.76296875 9.55804688 -51.8359375 9.65234375 C-49.97921681 9.87995827 -48.12818086 10.16205284 -46.2890625 10.50390625 C-43.75084013 10.92694331 -41.56433413 11.24140268 -39 11 C-36.63659792 9.24543687 -35.62238742 7.53498035 -34 5 C-31.08603568 3.54301784 -28.56097896 3.98442788 -25.3125 4.0625 C-17.46847523 4.16041831 -9.68764215 3.64953381 -2 2 C-1.34 1.34 -0.68 0.68 0 0 Z " fill="#B4393B" transform="translate(77,17)" />
<path d="M0 0 C4.3172224 0.02810692 7.80092503 0.45276488 11.8125 2.1875 C11.8125 2.5175 11.8125 2.8475 11.8125 3.1875 C6.5325 2.8575 1.2525 2.5275 -4.1875 2.1875 C-4.1875 6.4775 -4.1875 10.7675 -4.1875 15.1875 C-3.3625 15.5175 -3.3625 15.5175 0.8125 17.1875 C1.1425 18.1775 1.4725 19.1675 1.8125 20.1875 C2.369375 19.8575 2.92625 19.5275 3.5 19.1875 C6.29389392 17.97932966 7.79873657 17.67295502 10.8125 18.1875 C14.04218679 20.82997101 16.33863972 22.92275752 16.8125 27.1875 C17.4725 27.1875 18.1325 27.1875 18.8125 27.1875 C19.1425 28.8375 19.4725 30.4875 19.8125 32.1875 C20.3075 32.3525 20.3075 32.3525 22.8125 33.1875 C22.750625 32.28 22.68875 31.3725 22.625 30.4375 C22.8125 27.1875 22.8125 27.1875 23.875 24.875 C26.76333094 22.35935692 29.03595138 22.25261291 32.8125 22.1875 C36.71279905 23.54806943 38.19962105 25.53037468 40.0625 29.0625 C41.49806286 32.06306172 42.24195635 34.91257942 42.8125 38.1875 C53.28088811 38.63401892 61.9946415 38.42488016 71.8125 34.1875 C71.4825 35.1775 71.1525 36.1675 70.8125 37.1875 C69.8225 37.1875 68.8325 37.1875 67.8125 37.1875 C67.60625 37.950625 67.4 38.71375 67.1875 39.5 C65.30105703 43.18713853 63.70736126 43.84200248 59.8125 45.1875 C55.49893501 45.73323699 52.05985241 45.91765751 48.25 43.6875 C47.775625 43.1925 47.30125 42.6975 46.8125 42.1875 C46.7196875 42.4865625 46.7196875 42.4865625 46.25 44 C44.14657223 47.20086834 41.37869944 48.21236734 37.8125 49.1875 C34.82058767 49.70881806 32.93294459 49.59013801 29.8125 49.1875 C26.56441432 46.58903146 24.19903852 43.57889685 21.8125 40.1875 C21.02875 40.8475 20.245 41.5075 19.4375 42.1875 C15.18006381 45.00893634 10.74563034 45.13617891 5.8125 44.1875 C1.77037536 41.26340983 -0.42328484 37.83017146 -2.1875 33.1875 C-2.57471409 28.69581657 -2.21988091 26.11676976 -0.1875 22.1875 C-0.25 20.0625 -0.25 20.0625 -1.1875 18.1875 C-2.8325711 17.46919415 -4.49941788 16.7979105 -6.1875 16.1875 C-6.21435095 13.70826199 -6.23426547 11.2293116 -6.25 8.75 C-6.25418945 8.39647461 -6.25418945 8.39647461 -6.27539062 6.60742188 C-6.28403588 4.80056441 -6.23970011 2.99362397 -6.1875 1.1875 C-4.48413999 -0.51586001 -2.32303774 0.01567502 0 0 Z " fill="#3A322B" transform="translate(22.1875,24.8125)" />
<path d="M0 0 C2.31 0 4.62 0 7 0 C7.54644656 15.72551763 7.54644656 15.72551763 4 22 C2.75130035 24.98300471 1.7018524 27.84166419 1 31 C-0.32 30.67 -1.64 30.34 -3 30 C-3 28.35 -3 26.7 -3 25 C-3.66 25 -4.32 25 -5 25 C-8 20.61538462 -8 20.61538462 -8 18 C-16.57142857 16.71428571 -16.57142857 16.71428571 -20 18 C-20.66 17.01 -21.32 16.02 -22 15 C-24.125 14.3125 -24.125 14.3125 -26 14 C-26 11.69 -26 9.38 -26 7 C-24.54263913 6.80508548 -23.08405407 6.61930642 -21.625 6.4375 C-20.81289063 6.33308594 -20.00078125 6.22867188 -19.1640625 6.12109375 C-17 6 -17 6 -15 7 C-10.22058828 7.4037617 -5.12909722 7.70972005 -1 5 C-0.1875 2.375 -0.1875 2.375 0 0 Z " fill="#E8BD5F" transform="translate(44,27)" />
<path d="M0 0 C1 1 1 1 1.0625 3.5625 C1.041875 4.366875 1.02125 5.17125 1 6 C1.66 6 2.32 6 3 6 C3 8.31 3 10.62 3 13 C-6.34827573 17.52270791 -14.87863851 17.4271618 -25 17 C-25.33 15.35 -25.66 13.7 -26 12 C-24.68 12 -23.36 12 -22 12 C-22.020625 11.360625 -22.020625 11.360625 -22.125 8.125 C-22.1953125 5.9453125 -22.1953125 5.9453125 -22 4 C-16.12921561 -1.87078439 -7.63944988 -1.47332248 0 0 Z " fill="#BAA5A2" transform="translate(90,47)" />
<path d="M0 0 C1 1 1 1 1.09765625 2.84765625 C1.06510417 4.8984375 1.03255208 6.94921875 1 9 C0.01 9.33 -0.98 9.66 -2 10 C-1.05104135 11.89791731 -0.10144936 13.79552096 0.8515625 15.69140625 C1.60892645 17.21386235 2.35404677 18.74247937 3.0859375 20.27734375 C3.42882812 20.99019531 3.77171875 21.70304687 4.125 22.4375 C4.43695313 23.09621094 4.74890625 23.75492188 5.0703125 24.43359375 C6 26 6 26 8 27 C9.72664863 30.45329726 10.21952523 33.15830842 10 37 C9.34 37 8.68 37 8 37 C7.81824219 36.38511719 7.63648438 35.77023438 7.44921875 35.13671875 C7.19785156 34.32847656 6.94648437 33.52023438 6.6875 32.6875 C6.44386719 31.88699219 6.20023438 31.08648437 5.94921875 30.26171875 C4.94652622 27.87258716 3.86443837 26.74978039 2 25 C1.32650839 23.33607955 0.6590841 21.66967972 0 20 C-2.5978777 18.70106115 -4.06180911 19.10330924 -6.9375 19.4375 C-22.05386513 20.97306743 -22.05386513 20.97306743 -26 19 C-26 17.68 -26 16.36 -26 15 C-26.66 14.67 -27.32 14.34 -28 14 C-27.67 12.68 -27.34 11.36 -27 10 C-9.14350797 6.74031891 -9.14350797 6.74031891 -1 6 C-1.33 4.68 -1.66 3.36 -2 2 C-5.3 2.33 -8.6 2.66 -12 3 C-10.68 2.34 -9.36 1.68 -8 1 C-7.34 0.608125 -6.68 0.21625 -6 -0.1875 C-3.55152794 -1.18219177 -2.43575058 -0.92390539 0 0 Z " fill="#AD4E4B" transform="translate(83,16)" />
<path d="M0 0 C2.625 0.375 2.625 0.375 5 1 C5.5625 2.9375 5.5625 2.9375 6 5 C4.10084845 6.89915155 0.92211404 6.66799328 -1.625 7 C-2.31706543 7.09192627 -3.00913086 7.18385254 -3.72216797 7.27856445 C-8.15008508 7.81509212 -12.50798786 8.06197347 -16.96875 8.10546875 C-17.98759277 8.12158203 -19.00643555 8.13769531 -20.05615234 8.15429688 C-22.07200002 8.17610716 -24.08840254 8.16918256 -26.10400391 8.13085938 C-33.13924617 8.22274431 -33.13924617 8.22274431 -35.80200195 10.62719727 C-36.78337543 11.89800515 -37.7427644 13.18619649 -38.67578125 14.49291992 C-40 16 -40 16 -42.96484375 16.31640625 C-43.94582031 16.06761719 -44.92679688 15.81882812 -45.9375 15.5625 C-46.97261719 15.31886719 -48.00773437 15.07523438 -49.07421875 14.82421875 C-49.55697266 14.68822266 -49.55697266 14.68822266 -52 14 C-52.38478516 13.90009766 -52.38478516 13.90009766 -54.33203125 13.39453125 C-55.89948483 12.96994607 -57.45250507 12.49238475 -59 12 C-59 11.01 -59 10.02 -59 9 C-57.54166667 9.14583333 -56.08333333 9.29166667 -54.625 9.4375 C-54.17060547 9.47875 -54.17060547 9.47875 -51.87109375 9.6875 C-49 10 -49 10 -46.28515625 10.5 C-43.74736781 10.927417 -41.56463484 11.24143099 -39 11 C-36.63659792 9.24543687 -35.62238742 7.53498035 -34 5 C-31.08603568 3.54301784 -28.56097896 3.98442788 -25.3125 4.0625 C-17.46847523 4.16041831 -9.68764215 3.64953381 -2 2 C-1.34 1.34 -0.68 0.68 0 0 Z " fill="#FDE090" transform="translate(77,17)" />
<path d="M0 0 C0.75 3.1875 0.75 3.1875 1 6 C1.99 6.33 2.98 6.66 4 7 C4.165 7.495 4.165 7.495 5 10 C4.11957031 9.9278125 3.23914063 9.855625 2.33203125 9.78125 C1.17058594 9.6884375 0.00914063 9.595625 -1.1875 9.5 C-2.33605469 9.4071875 -3.48460938 9.314375 -4.66796875 9.21875 C-8 9 -8 9 -10.80078125 9.15625 C-11.52652344 9.1046875 -12.25226563 9.053125 -13 9 C-13.66 8.01 -14.32 7.02 -15 6 C-17.1640625 5.48828125 -17.1640625 5.48828125 -19.625 5.3125 C-20.44226563 5.24675781 -21.25953125 5.18101563 -22.1015625 5.11328125 C-22.72804688 5.07589844 -23.35453125 5.03851563 -24 5 C-24.33 3.35 -24.66 1.7 -25 0 C-25.99 -0.33 -26.98 -0.66 -28 -1 C-24.08576505 -1.42295533 -20.16872808 -1.80862984 -16.25 -2.1875 C-15.13882813 -2.30802734 -14.02765625 -2.42855469 -12.8828125 -2.55273438 C-12.34785156 -2.60268555 -12.34785156 -2.60268555 -9.640625 -2.85546875 C-8.65610352 -2.95496826 -7.67158203 -3.05446777 -6.65722656 -3.15698242 C-3.45520264 -2.96781471 -2.24128355 -2.25969179 0 0 Z " fill="#C24A4B" transform="translate(85,37)" />
<path d="M0 0 C5.35514197 3.95260479 6.52036985 8.80480057 8 15 C18.46838811 15.44651892 27.1821415 15.23738016 37 11 C36.67 11.99 36.34 12.98 36 14 C35.01 14 34.02 14 33 14 C32.79375 14.763125 32.5875 15.52625 32.375 16.3125 C30.48855703 19.99963853 28.89486126 20.65450248 25 22 C20.68643501 22.54573699 17.24735241 22.73015751 13.4375 20.5 C12.963125 20.005 12.48875 19.51 12 19 C11.773125 19.61875 11.54625 20.2375 11.3125 20.875 C9.53022462 23.76058871 8.27088842 24.14672476 5 25 C2.30794876 25.14983588 -0.29925116 25.09155081 -3 25 C-3 24.67 -3 24.34 -3 24 C-0.69 23.34 1.62 22.68 4 22 C4.68903554 9.09972357 4.68903554 9.09972357 2.0625 5.25 C0 3 0 3 -1 2 C-5.09789669 2.37943488 -7.53958935 2.69305957 -11 5 C-10.8125 3.125 -10.8125 3.125 -10 1 C-6.4177692 -1.08963463 -3.88397356 -1.45649008 0 0 Z " fill="#312C24" transform="translate(57,48)" />
<path d="M0 0 C4.3172224 0.02810692 7.80092503 0.45276488 11.8125 2.1875 C11.8125 2.5175 11.8125 2.8475 11.8125 3.1875 C6.5325 2.8575 1.2525 2.5275 -4.1875 2.1875 C-4.1875 6.4775 -4.1875 10.7675 -4.1875 15.1875 C-3.3625 15.5175 -3.3625 15.5175 0.8125 17.1875 C1.1425 18.1775 1.4725 19.1675 1.8125 20.1875 C2.369375 19.8575 2.92625 19.5275 3.5 19.1875 C6.29389392 17.97932966 7.79873657 17.67295502 10.8125 18.1875 C14.04218679 20.82997101 16.33863972 22.92275752 16.8125 27.1875 C17.4725 27.1875 18.1325 27.1875 18.8125 27.1875 C18.85375 27.55875 18.85375 27.55875 19.0625 29.4375 C19.8125 32.1875 19.8125 32.1875 21.9375 34.25 C22.55625 34.889375 23.175 35.52875 23.8125 36.1875 C23.65234375 38.19921875 23.65234375 38.19921875 22.8125 40.1875 C17.23516865 42.92724171 12.97012212 43.51737261 6.8125 43.1875 C6.8125 42.8575 6.8125 42.5275 6.8125 42.1875 C7.946875 41.89875 9.08125 41.61 10.25 41.3125 C11.425625 40.94125 12.60125 40.57 13.8125 40.1875 C15.77474402 36.26301197 15.23788262 31.78763112 14.140625 27.66015625 C13.41094559 25.48144368 12.64521312 23.32876232 11.8125 21.1875 C10.37413249 21.30208693 8.93679034 21.42959116 7.5 21.5625 C6.69949219 21.63210937 5.89898437 21.70171875 5.07421875 21.7734375 C2.8125 22.1875 2.8125 22.1875 -0.1875 24.1875 C-0.1875 22.5375 -0.1875 20.8875 -0.1875 19.1875 C-2.1675 18.1975 -4.1475 17.2075 -6.1875 16.1875 C-6.21435095 13.70826199 -6.23426547 11.2293116 -6.25 8.75 C-6.25418945 8.39647461 -6.25418945 8.39647461 -6.27539062 6.60742188 C-6.28403588 4.80056441 -6.23970011 2.99362397 -6.1875 1.1875 C-4.48413999 -0.51586001 -2.32303774 0.01567502 0 0 Z " fill="#432D0E" transform="translate(22.1875,24.8125)" />
<path d="M0 0 C1 1 1 1 1.09765625 2.84765625 C1.06510417 4.8984375 1.03255208 6.94921875 1 9 C0.01 9.33 -0.98 9.66 -2 10 C-1.05104135 11.89791731 -0.10144936 13.79552096 0.8515625 15.69140625 C1.60892645 17.21386235 2.35404677 18.74247937 3.0859375 20.27734375 C3.42882812 20.99019531 3.77171875 21.70304687 4.125 22.4375 C4.43695313 23.09621094 4.74890625 23.75492188 5.0703125 24.43359375 C6 26 6 26 8 27 C9.72664863 30.45329726 10.21952523 33.15830842 10 37 C9.34 37 8.68 37 8 37 C7.81824219 36.38511719 7.63648438 35.77023438 7.44921875 35.13671875 C7.19785156 34.32847656 6.94648437 33.52023438 6.6875 32.6875 C6.44386719 31.88699219 6.20023438 31.08648437 5.94921875 30.26171875 C4.94833884 27.87690612 3.87780327 26.73141538 2 25 C1.27544365 23.35767228 0.62225605 21.68375165 0 20 C-0.69989476 18.39213367 -1.40883722 16.78818663 -2.125 15.1875 C-2.47820312 14.39730469 -2.83140625 13.60710938 -3.1953125 12.79296875 C-3.46085937 12.20128906 -3.72640625 11.60960937 -4 11 C-11.09434233 10.90266908 -17.98194143 10.89912807 -25 12 C-24.34 12.33 -23.68 12.66 -23 13 C-23 13.99 -23 14.98 -23 16 C-21.68 16 -20.36 16 -19 16 C-19 17.32 -19 18.64 -19 20 C-21.31 19.67 -23.62 19.34 -26 19 C-26 17.68 -26 16.36 -26 15 C-26.66 14.67 -27.32 14.34 -28 14 C-27.67 12.68 -27.34 11.36 -27 10 C-9.14350797 6.74031891 -9.14350797 6.74031891 -1 6 C-1.33 4.68 -1.66 3.36 -2 2 C-5.3 2.33 -8.6 2.66 -12 3 C-10.68 2.34 -9.36 1.68 -8 1 C-7.34 0.608125 -6.68 0.21625 -6 -0.1875 C-3.55152794 -1.18219177 -2.43575058 -0.92390539 0 0 Z " fill="#65331F" transform="translate(83,16)" />
<path d="M0 0 C0 1.65 0 3.3 0 5 C0.66 5.33 1.32 5.66 2 6 C-5.4877688 10.10044482 -12.58675973 10.48730864 -21 10 C-22 9 -22 9 -22.0625 6.4375 C-22.041875 5.633125 -22.02125 4.82875 -22 4 C-21.67 4.66 -21.34 5.32 -21 6 C-20.34 6 -19.68 6 -19 6 C-19 5.01 -19 4.02 -19 3 C-17.68 3.33 -16.36 3.66 -15 4 C-14.67 3.01 -14.34 2.02 -14 1 C-11.76266993 -0.11866503 -10.04151924 -0.34005526 -7.5625 -0.625 C-6.78003906 -0.72039063 -5.99757813 -0.81578125 -5.19140625 -0.9140625 C-3 -1 -3 -1 0 0 Z " fill="#8F918C" transform="translate(91,48)" />
<path d="M0 0 C0.88365234 0.02707031 1.76730469 0.05414062 2.67773438 0.08203125 C4.84871114 0.15244131 7.01842529 0.26005394 9.1875 0.375 C9.1875 0.705 9.1875 1.035 9.1875 1.375 C7.7025 1.54 7.7025 1.54 0.1875 2.375 C0.22875 3.48875 0.27 4.6025 0.3125 5.75 C0.1875 9.375 0.1875 9.375 -1.8125 11.375 C-1.8125 8.405 -1.8125 5.435 -1.8125 2.375 C-4.1225 2.375 -6.4325 2.375 -8.8125 2.375 C-9.1425 4.685 -9.4725 6.995 -9.8125 9.375 C-16.81132849 11.18114929 -23.75426273 10.48217447 -30.8125 9.375 C-32.1325 9.375 -33.4525 9.375 -34.8125 9.375 C-34.8125 11.355 -34.8125 13.335 -34.8125 15.375 C-35.1425 15.375 -35.4725 15.375 -35.8125 15.375 C-35.8125 11.085 -35.8125 6.795 -35.8125 2.375 C-35.4825 3.035 -35.1525 3.695 -34.8125 4.375 C-32.19498433 5.04638538 -29.65386577 5.59116601 -27 6.0625 C-26.27490234 6.20494141 -25.54980469 6.34738281 -24.80273438 6.49414062 C-18.27762917 7.69409135 -18.27762917 7.69409135 -14.8125 6.375 C-14.10738281 5.37210938 -13.40226562 4.36921875 -12.67578125 3.3359375 C-9.27566997 -1.02130967 -5.13226727 -0.29852114 0 0 Z " fill="#C48C23" transform="translate(52.8125,24.625)" />
<path d="M0 0 C2.31 0 4.62 0 7 0 C7 4.95 7 9.9 7 15 C6.67 15 6.34 15 6 15 C5.938125 14.05125 5.87625 13.1025 5.8125 12.125 C5.544375 11.09375 5.27625 10.0625 5 9 C2.4375 7.625 2.4375 7.625 0 7 C-0.33 9.31 -0.66 11.62 -1 14 C-1.39832031 13.51917969 -1.79664062 13.03835937 -2.20703125 12.54296875 C-4.43450247 10.62608175 -5.78834669 10.52258357 -8.6875 10.3125 C-9.49574219 10.24675781 -10.30398437 10.18101563 -11.13671875 10.11328125 C-11.75160156 10.07589844 -12.36648437 10.03851563 -13 10 C-13.33 11.32 -13.66 12.64 -14 14 C-14.04125 13.401875 -14.0825 12.80375 -14.125 12.1875 C-15 10 -15 10 -18.0625 8.25 C-19.031875 7.8375 -20.00125 7.425 -21 7 C-17.25 5.875 -17.25 5.875 -15 7 C-10.22058828 7.4037617 -5.12909722 7.70972005 -1 5 C-0.1875 2.375 -0.1875 2.375 0 0 Z " fill="#F1B145" transform="translate(44,27)" />
<path d="M0 0 C0.36222656 0.09732422 0.36222656 0.09732422 2.1953125 0.58984375 C2.47246094 0.66783203 2.47246094 0.66783203 3.875 1.0625 C0.875 3.0625 0.875 3.0625 -2.4375 3.25 C-6.60065551 4.16730545 -6.63465749 4.45101962 -8.8125 7.75 C-10.265625 9.6640625 -10.265625 9.6640625 -12.125 11.0625 C-16.32826345 11.19165055 -20.09875271 10.19672988 -24.125 9.0625 C-24.50978516 8.96259766 -24.50978516 8.96259766 -26.45703125 8.45703125 C-28.02448483 8.03244607 -29.57750507 7.55488475 -31.125 7.0625 C-31.125 6.0725 -31.125 5.0825 -31.125 4.0625 C-30.39583333 4.13541667 -30.39583333 4.13541667 -26.75 4.5 C-25.84121094 4.5825 -24.93242187 4.665 -23.99609375 4.75 C-21.125 5.0625 -21.125 5.0625 -18.41015625 5.5625 C-15.87236781 5.989917 -13.68963484 6.30393099 -11.125 6.0625 C-8.76159792 4.30793687 -7.74738742 2.59748035 -6.125 0.0625 C-3.57797384 -1.21101308 -2.6967055 -0.73941925 0 0 Z " fill="#F5CE70" transform="translate(49.125,21.9375)" />
<path d="M0 0 C0 0.99 0 1.98 0 3 C-0.99 3 -1.98 3 -3 3 C-3.103125 3.3815625 -3.103125 3.3815625 -3.625 5.3125 C-5.51144297 8.99963853 -7.10513874 9.65450248 -11 11 C-14.08821613 11.4795694 -16.97773485 11.87501772 -20 11 C-21.76953125 8.46875 -21.76953125 8.46875 -23 6 C-22.46310547 5.90912109 -22.46310547 5.90912109 -19.74609375 5.44921875 C-18.30981711 5.19575817 -16.87362352 4.94182672 -15.4375 4.6875 C-14.73302734 4.56955078 -14.02855469 4.45160156 -13.30273438 4.33007812 C-8.49578378 3.46615613 -4.42372484 2.07525594 0 0 Z " fill="#18170E" transform="translate(93,59)" />
<path d="M0 0 C2.25 -0.3125 2.25 -0.3125 5 0 C8.85548593 4.0696796 10.1331674 6.61294306 10.0625 12.125 C10.05347656 13.03507812 10.04445313 13.94515625 10.03515625 14.8828125 C10.02355469 15.58148438 10.01195312 16.28015625 10 17 C9.67 17 9.34 17 9 17 C8.67 13.37 8.34 9.74 8 6 C7.67 6.165 7.67 6.165 6 7 C6.33 7.33 6.66 7.66 7 8 C7.26247139 12.54950416 6.99544337 15.88439805 5 20 C3.68 20 2.36 20 1 20 C0.67 19.34 0.34 18.68 0 18 C-0.495 17.62875 -0.99 17.2575 -1.5 16.875 C-3.89379993 13.88275009 -3.69087028 10.7713826 -4 7 C-3.01 6.67 -2.02 6.34 -1 6 C-0.67 8.97 -0.34 11.94 0 15 C1.32 15.33 2.64 15.66 4 16 C4.17673419 11.4932782 4.13551182 8.03374456 2 4 C1.34 3.67 0.68 3.34 0 3 C0 2.01 0 1.02 0 0 Z " fill="#553434" transform="translate(52,50)" />
<path d="M0 0 C1.32 0 2.64 0 4 0 C4.33 2.97 4.66 5.94 5 9 C4.01 9.66 3.02 10.32 2 11 C0.8125 14.125 0.8125 14.125 0 17 C0.4228125 17.0309375 0.4228125 17.0309375 2.5625 17.1875 C6.76787691 18.18149818 9.86388926 20.02162264 13 23 C13 23.66 13 24.32 13 25 C10.62249856 24.45134582 8.42008499 23.78568358 6.125 22.9375 C2.9103626 21.97310878 0.33442614 21.8412178 -3 22 C-2.49548984 18.63659891 -1.84921399 15.39682468 -0.9375 12.125 C0.13839029 7.99676909 0.15189972 4.25319223 0 0 Z " fill="#B63535" transform="translate(52,26)" />
<path d="M0 0 C1.625 1 1.625 1 3 3 C3.41019741 6.45838847 3.58791315 9.82417369 2 13 C0.02 13 -1.96 13 -4 13 C-4 12.34 -4 11.68 -4 11 C-4.66 11 -5.32 11 -6 11 C-6.33 8.03 -6.66 5.06 -7 2 C-2.25 0 -2.25 0 0 0 Z " fill="#62302E" transform="translate(31,50)" />
<path d="M0 0 C2.8125 -0.3125 2.8125 -0.3125 6 0 C9.68496412 4.57443822 10.33275694 9.38075959 10.30078125 15.09375 C9.84242478 17.99865855 8.28320035 19.28759973 6 21 C5.01 20.34 4.02 19.68 3 19 C3 18.34 3 17.68 3 17 C3.66 17 4.32 17 5 17 C5.33 13.7 5.66 10.4 6 7 C5.01 6.67 4.02 6.34 3 6 C3 5.01 3 4.02 3 3 C1.35 3 -0.3 3 -2 3 C-1.34 2.67 -0.68 2.34 0 2 C0 1.34 0 0.68 0 0 Z " fill="#403F3C" transform="translate(28,46)" />
<path d="M0 0 C2.97 0.33 5.94 0.66 9 1 C9.33 1.99 9.66 2.98 10 4 C11.65 4 13.3 4 15 4 C14.360625 4.309375 13.72125 4.61875 13.0625 4.9375 C11 6 11 6 10 7 C9.76924918 8.34747084 9.58846937 9.70377565 9.4375 11.0625 C9.293125 12.361875 9.14875 13.66125 9 15 C6.75 15 6.75 15 4 14 C2.31607596 11.47965317 1.16429736 8.79088925 0 6 C-0.33 5.34 -0.66 4.68 -1 4 C-0.7009375 4.1546875 -0.7009375 4.1546875 0.8125 4.9375 C3 6 3 6 6 7 C5.195625 6.21625 4.39125 5.4325 3.5625 4.625 C1 2 1 2 0 0 Z " fill="#A73E3F" transform="translate(59,44)" />
<path d="M0 0 C0.33 0 0.66 0 1 0 C1.05391993 1.79133978 1.09275571 3.58313899 1.125 5.375 C1.14820313 6.37273438 1.17140625 7.37046875 1.1953125 8.3984375 C1 11 1 11 -1 13 C-2.34294481 14.65893182 -3.67744688 16.32476605 -5 18 C-5.66 17.67 -6.32 17.34 -7 17 C-6.85936865 14.70800823 -6.71234057 12.41640814 -6.5625 10.125 C-6.48128906 8.84882812 -6.40007813 7.57265625 -6.31640625 6.2578125 C-6 3 -6 3 -5 1 C-3.68 1.33 -2.36 1.66 -1 2 C-0.67 1.34 -0.34 0.68 0 0 Z " fill="#FBC65A" transform="translate(49,33)" />
<path d="M0 0 C0.66 0 1.32 0 2 0 C2.04125 0.28875 2.04125 0.28875 2.25 1.75 C3 4 3 4 5.125 6 C5.74375 6.66 6.3625 7.32 7 8 C6.83984375 10.015625 6.83984375 10.015625 6 12 C0.42266865 14.73974171 -3.84237788 15.32987261 -10 15 C-10 14.67 -10 14.34 -10 14 C-8.865625 13.71125 -7.73125 13.4225 -6.5625 13.125 C-5.386875 12.75375 -4.21125 12.3825 -3 12 C-1.55318676 9.10637351 -1.56757624 6.1916991 -1.28125 2.99609375 C-1 1 -1 1 0 0 Z " fill="#22201B" transform="translate(39,53)" />
<path d="M0 0 C0 0.66 0 1.32 0 2 C-9.34827573 6.52270791 -17.87863851 6.4271618 -28 6 C-28.33 4.35 -28.66 2.7 -29 1 C-27.37419034 1.11398665 -25.74932843 1.24155659 -24.125 1.375 C-23.22007813 1.44460937 -22.31515625 1.51421875 -21.3828125 1.5859375 C-19 2 -19 2 -17 4 C-14.375 4.625 -14.375 4.625 -12 5 C-11.67 4.01 -11.34 3.02 -11 2 C-9.2578125 1.015625 -9.2578125 1.015625 -7.125 0.25 C-6.42632812 -0.01296875 -5.72765625 -0.2759375 -5.0078125 -0.546875 C-3 -1 -3 -1 0 0 Z " fill="#7F827E" transform="translate(93,58)" />
<path d="M0 0 C2.97 0 5.94 0 9 0 C9.85221996 3.40887983 10.10783755 5.80434631 10.0625 9.25 C10.05347656 10.14203125 10.04445313 11.0340625 10.03515625 11.953125 C10.02355469 12.62859375 10.01195312 13.3040625 10 14 C8 12 8 12 6.5 9.4375 C5 7 5 7 3 6 C3 5.01 3 4.02 3 3 C2.34 3 1.68 3 1 3 C1 3.66 1 4.32 1 5 C0.34 4.67 -0.32 4.34 -1 4 C-0.67 2.68 -0.34 1.36 0 0 Z " fill="#F8C558" transform="translate(31,37)" />
<path d="M0 0 C1.78409802 3.06246747 2.22880021 5.22079273 2.125 8.75 C2.10695312 9.54921875 2.08890625 10.3484375 2.0703125 11.171875 C2.04710937 11.77515625 2.02390625 12.3784375 2 13 C4.51083114 11.74458443 4.87125446 10.49936512 6 8 C6.66 8.33 7.32 8.66 8 9 C7.71125 9.495 7.4225 9.99 7.125 10.5 C5.58711584 13.91752035 4.85152195 17.3506202 4 21 C2.68 20.67 1.36 20.34 0 20 C-0.19594676 16.85463232 -0.3803401 13.70869386 -0.5625 10.5625 C-0.61857422 9.66466797 -0.67464844 8.76683594 -0.73242188 7.84179688 C-0.78076172 6.98779297 -0.82910156 6.13378906 -0.87890625 5.25390625 C-0.9260376 4.46314697 -0.97316895 3.6723877 -1.02172852 2.85766602 C-1 1 -1 1 0 0 Z " fill="#EEB84D" transform="translate(41,37)" />
<path d="M0 0 C1.98 0 3.96 0 6 0 C6.19491452 1.45736087 6.38069358 2.91594593 6.5625 4.375 C6.66691406 5.18710937 6.77132812 5.99921875 6.87890625 6.8359375 C7 9 7 9 6 11 C4.35 10.67 2.7 10.34 1 10 C0.67 6.7 0.34 3.4 0 0 Z " fill="#6A2326" transform="translate(50,55)" />
<path d="M0 0 C-0.1875 1.8984375 -0.1875 1.8984375 -1 4 C-3.25 4.9765625 -3.25 4.9765625 -6 5.625 C-7.6802445 6.03074086 -9.35178165 6.47920878 -11 7 C-11.33 7.66 -11.66 8.32 -12 9 C-14.97 9 -17.94 9 -21 9 C-18.42595029 5.13892543 -16.38979741 5.05680308 -12 4 C-12 3.67 -12 3.34 -12 3 C-10.88625 2.690625 -9.7725 2.38125 -8.625 2.0625 C-1.58823529 0 -1.58823529 0 0 0 Z " fill="#9B9D98" transform="translate(93,54)" />
<path d="M0 0 C0 0.66 0 1.32 0 2 C0.99 2.66 1.98 3.32 3 4 C1.515 4.495 1.515 4.495 -6 7 C-5.34 10.63 -4.68 14.26 -4 18 C-7.37907696 14.62092304 -7.85837062 13.27466445 -8.375 8.625 C-8 5 -8 5 -5.6875 2.0625 C-3 0 -3 0 0 0 Z " fill="#312C23" transform="translate(28,46)" />
<path d="M0 0 C0.4021875 0.0825 0.4021875 0.0825 2.4375 0.5 C7.30553643 1.18323318 12.40478013 1.66943834 17.2109375 0.4296875 C17.50613281 0.35878906 17.50613281 0.35878906 19 0 C20 1 20 1 20.0625 4.5625 C20.041875 5.696875 20.02125 6.83125 20 8 C19.60167969 7.51917969 19.20335938 7.03835937 18.79296875 6.54296875 C16.56549753 4.62608175 15.21165331 4.52258357 12.3125 4.3125 C11.50425781 4.24675781 10.69601563 4.18101563 9.86328125 4.11328125 C9.24839844 4.07589844 8.63351563 4.03851563 8 4 C7.67 5.32 7.34 6.64 7 8 C6.95875 7.401875 6.9175 6.80375 6.875 6.1875 C6 4 6 4 2.9375 2.25 C1.968125 1.8375 0.99875 1.425 0 1 C0 0.67 0 0.34 0 0 Z " fill="#E8AA3A" transform="translate(23,33)" />
<path d="M0 0 C-2.90092502 1.93395001 -3.89674737 2.30131941 -7.1875 2.625 C-8.445625 2.74875 -9.70375 2.8725 -11 3 C-10.34 3.33 -9.68 3.66 -9 4 C-9 4.99 -9 5.98 -9 7 C-7.68 7 -6.36 7 -5 7 C-5 8.32 -5 9.64 -5 11 C-7.31 10.67 -9.62 10.34 -12 10 C-12 8.68 -12 7.36 -12 6 C-12.66 5.67 -13.32 5.34 -14 5 C-13.67 3.68 -13.34 2.36 -13 1 C-8.60563789 0.14256349 -4.47427924 -0.08948558 0 0 Z " fill="#4E1707" transform="translate(69,25)" />
<path d="M0 0 C-6.05393082 4.03595388 -12.37833366 2.94673165 -19.40625 2.64453125 C-23.6004923 3.05939652 -25.07062763 4.04409346 -28 7 C-28.33 7.495 -28.33 7.495 -30 10 C-30.99 9.67 -31.98 9.34 -33 9 C-32.34 8.67 -31.68 8.34 -31 8 C-30.896875 7.38125 -30.79375 6.7625 -30.6875 6.125 C-30 4 -30 4 -28.08203125 2.41015625 C-23.74112896 0.42401464 -19.72401484 0.43231197 -15 0.3125 C-14.11054687 0.27833984 -13.22109375 0.24417969 -12.3046875 0.20898438 C-8.20100987 0.05892452 -4.10652216 -0.01317358 0 0 Z " fill="#5F4315" transform="translate(68,19)" />
<path d="M0 0 C0.33 0 0.66 0 1 0 C1 1.65 1 3.3 1 5 C1.66 5.33 2.32 5.66 3 6 C-2.24882694 9.17692157 -7.01488629 9.65697965 -13 10 C-13 9.34 -13 8.68 -13 8 C-10.69 8 -8.38 8 -6 8 C-6.33 5.69 -6.66 3.38 -7 1 C-6.01 1 -5.02 1 -4 1 C-3.67 1.66 -3.34 2.32 -3 3 C-2.34 3 -1.68 3 -1 3 C-0.67 2.01 -0.34 1.02 0 0 Z " fill="#80837B" transform="translate(90,48)" />
<path d="M0 0 C2.25 -0.3125 2.25 -0.3125 5 0 C8.85548593 4.0696796 10.1331674 6.61294306 10.0625 12.125 C10.05347656 13.03507812 10.04445313 13.94515625 10.03515625 14.8828125 C10.02355469 15.58148438 10.01195312 16.28015625 10 17 C9.67 17 9.34 17 9 17 C8.67 13.37 8.34 9.74 8 6 C6.68 6.33 5.36 6.66 4 7 C1.75 5.25 1.75 5.25 0 3 C0 2.01 0 1.02 0 0 Z " fill="#42473E" transform="translate(52,50)" />
<path d="M0 0 C1.65 0 3.3 0 5 0 C5 1.32 5 2.64 5 4 C5.66 4.33 6.32 4.66 7 5 C6.34 5 5.68 5 5 5 C5 5.66 5 6.32 5 7 C2.66705225 7.04241723 0.33297433 7.04092937 -2 7 C-3 6 -3 6 -3.0625 3.4375 C-3.041875 2.633125 -3.02125 1.82875 -3 1 C-2.67 1.66 -2.34 2.32 -2 3 C-1.34 3 -0.68 3 0 3 C0 2.01 0 1.02 0 0 Z " fill="#8C8F8A" transform="translate(72,51)" />
<path d="M0 0 C0.8125 2.625 0.8125 2.625 1 5 C-0.65 5.33 -2.3 5.66 -4 6 C-4 5.34 -4 4.68 -4 4 C-4.99 4 -5.98 4 -7 4 C-7 3.01 -7 2.02 -7 1 C-7.66 1 -8.32 1 -9 1 C-9 0.34 -9 -0.32 -9 -1 C-5.4161797 -2.32734085 -3.28196243 -1.95143712 0 0 Z " fill="#F8C054" transform="translate(27,35)" />
<path d="M0 0 C1.32 0 2.64 0 4 0 C4.33 2.97 4.66 5.94 5 9 C4.01 9.66 3.02 10.32 2 11 C1.3125 13.125 1.3125 13.125 1 15 C0.34 15 -0.32 15 -1 15 C-0.9278125 14.00097656 -0.855625 13.00195312 -0.78125 11.97265625 C-0.6884375 10.68230469 -0.595625 9.39195313 -0.5 8.0625 C-0.4071875 6.77472656 -0.314375 5.48695312 -0.21875 4.16015625 C0 1 0 1 0 0 Z " fill="#8A3E0D" transform="translate(52,26)" />
<path d="M0 0 C0.40412109 0.00451172 0.40412109 0.00451172 2.44921875 0.02734375 C2.75666016 0.03314453 2.75666016 0.03314453 4.3125 0.0625 C3.9825 1.7125 3.6525 3.3625 3.3125 5.0625 C-2.4375 5.1875 -2.4375 5.1875 -4.6875 4.0625 C-4.6875 3.4025 -4.6875 2.7425 -4.6875 2.0625 C-5.6775 1.7325 -6.6675 1.4025 -7.6875 1.0625 C-4.80538698 0.10179566 -2.98899956 -0.04331883 0 0 Z " fill="#DF7676" transform="translate(68.6875,35.9375)" />
<path d="M0 0 C0.33 2.97 0.66 5.94 1 9 C-0.65 9.33 -2.3 9.66 -4 10 C-4 7.03 -4 4.06 -4 1 C-2 0 -2 0 0 0 Z " fill="#792524" transform="translate(31,50)" />
<path d="M0 0 C1.98 0 3.96 0 6 0 C6.144375 0.886875 6.28875 1.77375 6.4375 2.6875 C6.77816423 4.69363381 7.14563368 6.69580538 7.5625 8.6875 C8 11 8 11 8 14 C7.34 14 6.68 14 6 14 C6 11.69 6 9.38 6 7 C5.01 6.67 4.02 6.34 3 6 C3 5.01 3 4.02 3 3 C1.35 3 -0.3 3 -2 3 C-1.34 2.67 -0.68 2.34 0 2 C0 1.34 0 0.68 0 0 Z " fill="#363539" transform="translate(28,46)" />
<path d="M0 0 C0 1.65 0 3.3 0 5 C-2.64 5.33 -5.28 5.66 -8 6 C-8 4.35 -8 2.7 -8 1 C-5.07175348 0.02391783 -3.04386724 -0.08226668 0 0 Z " fill="#60302E" transform="translate(74,30)" />
<path d="M0 0 C2.46008778 0.08679142 4.91643517 0.19360955 7.375 0.3125 C8.07367188 0.33505859 8.77234375 0.35761719 9.4921875 0.38085938 C11.5234375 0.48828125 11.5234375 0.48828125 15 1 C15.66 1.99 16.32 2.98 17 4 C14.73020335 4.10794277 12.45894804 4.18556176 10.1875 4.25 C8.92292969 4.29640625 7.65835938 4.3428125 6.35546875 4.390625 C3 4 3 4 1.05078125 1.984375 C0.87740234 1.65695313 0.87740234 1.65695313 0 0 Z " fill="#FCDB89" transform="translate(47,21)" />
<path d="M0 0 C6.2054142 0.48320848 11.99945246 1.33318124 18 3 C18 3.66 18 4.32 18 5 C16.3954444 4.85851011 14.79136233 4.71164314 13.1875 4.5625 C12.29417969 4.48128906 11.40085937 4.40007813 10.48046875 4.31640625 C8 4 8 4 5 3 C3.33378384 2.96125079 1.66605828 2.9549714 0 3 C0 2.01 0 1.02 0 0 Z " fill="#F4D58B" transform="translate(18,26)" />
<path d="M0 0 C0 0.99 0 1.98 0 3 C-0.99 3 -1.98 3 -3 3 C-3.66 4.65 -4.32 6.3 -5 8 C-7.64 7.67 -10.28 7.34 -13 7 C-13 6.34 -13 5.68 -13 5 C-8.71 3.35 -4.42 1.7 0 0 Z " fill="#2A271E" transform="translate(93,59)" />
<path d="M0 0 C0.66 0 1.32 0 2 0 C2.33 1.32 2.66 2.64 3 4 C-2.00932754 7.00559652 -5.32723489 7.29341888 -11 7 C-11 6.67 -11 6.34 -11 6 C-9.9275 5.7525 -8.855 5.505 -7.75 5.25 C-3.95411278 3.98470426 -2.60376183 2.8930687 0 0 Z " fill="#11130C" transform="translate(40,61)" />
<path d="M0 0 C0.99 0.33 1.98 0.66 3 1 C2.8125 2.875 2.8125 2.875 2 5 C-2.17655714 7.53124675 -6.27433194 7.16019214 -11 7 C-11 6.67 -11 6.34 -11 6 C-9.9275 5.7525 -8.855 5.505 -7.75 5.25 C-4.00350563 4.00116854 -2.47926118 2.97511342 0 0 Z " fill="#140F07" transform="translate(65,66)" />
<path d="M0 0 C2.97 0.33 5.94 0.66 9 1 C9.33 1.99 9.66 2.98 10 4 C9.34 4 8.68 4 8 4 C7.67 5.32 7.34 6.64 7 8 C4.35247996 5.42215154 2.05567935 3.08351902 0 0 Z " fill="#D95E5C" transform="translate(59,44)" />
<path d="M0 0 C0 0.66 0 1.32 0 2 C1.32 2.33 2.64 2.66 4 3 C4 3.33 4 3.66 4 4 C0.98735648 4.59222907 -1.92416977 5.05823431 -5 5 C-7.5625 3.0625 -7.5625 3.0625 -9 1 C-5.846632 0.29925156 -3.27275026 0 0 0 Z " fill="#E9C77D" transform="translate(69,20)" />
<path d="M0 0 C1.98 0.66 3.96 1.32 6 2 C6 3.98 6 5.96 6 8 C5.01 7.835 5.01 7.835 0 7 C0 4.69 0 2.38 0 0 Z " fill="#BF4344" transform="translate(78,36)" />
<path d="M0 0 C2.3125 2.0625 2.3125 2.0625 4 4 C3.67 4.66 3.34 5.32 3 6 C2.484375 5.319375 1.96875 4.63875 1.4375 3.9375 C-1 2 -1 2 -4.5625 2.125 C-8 3 -8 3 -11 5 C-10.8125 3.125 -10.8125 3.125 -10 1 C-6.41745066 -1.08982045 -3.89882655 -1.39957876 0 0 Z " fill="#42120B" transform="translate(57,48)" />
<path d="M0 0 C1 1 1 1 1.09765625 2.84765625 C1.08138021 3.87304688 1.08138021 3.87304688 1 9 C0.34 8.67 -0.32 8.34 -1 8 C-1 6.35 -1 4.7 -1 3 C-2.65614657 2.61781233 -4.32457024 2.28604898 -6 2 C-6.33 2.33 -6.66 2.66 -7 3 C-8.66617115 3.04063832 -10.33388095 3.042721 -12 3 C-10.66666667 2.33333333 -9.33333333 1.66666667 -8 1 C-7.34 0.608125 -6.68 0.21625 -6 -0.1875 C-3.55152794 -1.18219177 -2.43575058 -0.92390539 0 0 Z " fill="#57411A" transform="translate(83,16)" />
<path d="M0 0 C0.515625 0.515625 1.03125 1.03125 1.5625 1.5625 C1.2325 2.8825 0.9025 4.2025 0.5625 5.5625 C0.2325 4.5725 -0.0975 3.5825 -0.4375 2.5625 C-2.5 1.875 -2.5 1.875 -4.4375 1.5625 C-4.7675 2.5525 -5.0975 3.5425 -5.4375 4.5625 C-6.79182675 3.25049596 -8.12483482 1.91618596 -9.4375 0.5625 C-9.4375 0.2325 -9.4375 -0.0975 -9.4375 -0.4375 C-3.0375 -1.79134615 -3.0375 -1.79134615 0 0 Z " fill="#DA716D" transform="translate(83.4375,35.4375)" />
<path d="M0 0 C0.66 0 1.32 0 2 0 C2.66 3.96 3.32 7.92 4 12 C3.01 12 2.02 12 1 12 C-0.231394 8.30581799 0.35567236 5.7943739 1 2 C0.34 1.67 -0.32 1.34 -1 1 C-0.67 0.67 -0.34 0.34 0 0 Z " fill="#38332E" transform="translate(58,56)" />
<path d="M0 0 C0.99 0 1.98 0 3 0 C3.6875 2.8125 3.6875 2.8125 4 6 C2.625 7.875 2.625 7.875 1 9 C0.67 9 0.34 9 0 9 C0 6.03 0 3.06 0 0 Z " fill="#872925" transform="translate(51,56)" />
<path d="M0 0 C0 0.66 0 1.32 0 2 C-3.50776784 3.60355101 -6.14354879 4.22036864 -10 4 C-10.33 3.34 -10.66 2.68 -11 2 C-9.73392393 1.46770674 -8.46189588 0.94955456 -7.1875 0.4375 C-6.47980469 0.14746094 -5.77210937 -0.14257812 -5.04296875 -0.44140625 C-3 -1 -3 -1 0 0 Z " fill="#919188" transform="translate(93,58)" />
<path d="M0 0 C-1.32 0.33 -2.64 0.66 -4 1 C-4 1.99 -4 2.98 -4 4 C-5.32 4.33 -6.64 4.66 -8 5 C-8 5.66 -8 6.32 -8 7 C-8.66 7 -9.32 7 -10 7 C-10.33 5.68 -10.66 4.36 -11 3 C-6.98213116 0.99106558 -4.56087444 -0.12002301 0 0 Z " fill="#372F24" transform="translate(56,49)" />
<path d="M0 0 C0.556875 0.020625 0.556875 0.020625 3.375 0.125 C3.375 0.455 3.375 0.785 3.375 1.125 C1.725 1.455 0.075 1.785 -1.625 2.125 C-1.955 3.445 -2.285 4.765 -2.625 6.125 C-4.275 6.455 -5.925 6.785 -7.625 7.125 C-5.06433824 0.17463235 -5.06433824 0.17463235 0 0 Z " fill="#BD8314" transform="translate(46.625,24.875)" />
<path d="M0 0 C0.66 0 1.32 0 2 0 C2 0.99 2 1.98 2 3 C2.598125 3.185625 3.19625 3.37125 3.8125 3.5625 C7.09981799 5.72273753 7.64854687 8.35107655 9 12 C8.34 12 7.68 12 7 12 C4 7.61538462 4 7.61538462 4 5 C3.175 4.67 3.175 4.67 -1 3 C-0.67 2.01 -0.34 1.02 0 0 Z " fill="#E7C373" transform="translate(32,40)" />
<path d="M0 0 C0.66 0 1.32 0 2 0 C2.33 3.3 2.66 6.6 3 10 C2.01 9.67 1.02 9.34 0 9 C-0.87890625 2.84765625 -0.87890625 2.84765625 -1 1 C-0.67 0.67 -0.34 0.34 0 0 Z " fill="#6F4242" transform="translate(49,56)" />
<path d="M0 0 C0.66 0 1.32 0 2 0 C2.103125 0.61875 2.20625 1.2375 2.3125 1.875 C3 4 3 4 6 6 C5.67 6.99 5.34 7.98 5 9 C4.67 8.34 4.34 7.68 4 7 C2.68 7 1.36 7 0 7 C-0.38133299 5.0085944 -0.71325582 3.00720923 -1 1 C-0.67 0.67 -0.34 0.34 0 0 Z " fill="#121110" transform="translate(39,53)" />
<path d="M0 0 C0.99 0.33 1.98 0.66 3 1 C3 2.65 3 4.3 3 6 C3.66 6 4.32 6 5 6 C5.33 7.98 5.66 9.96 6 12 C5.01 11.67 4.02 11.34 3 11 C2.05078125 8.49609375 2.05078125 8.49609375 1.3125 5.4375 C1.06113281 4.42558594 0.80976562 3.41367187 0.55078125 2.37109375 C0.36902344 1.58863281 0.18726563 0.80617187 0 0 Z " fill="#2B2C20" transform="translate(44,58)" />
<path d="M0 0 C0.66 0 1.32 0 2 0 C2 2.97 2 5.94 2 9 C1.34 9 0.68 9 0 9 C-1.36623674 6.26752652 -1.128426 4.01801098 -1 1 C-0.67 0.67 -0.34 0.34 0 0 Z " fill="#6E4342" transform="translate(25,51)" />
<path d="M0 0 C-0.33 1.65 -0.66 3.3 -1 5 C-1.99 4.67 -2.98 4.34 -4 4 C-4 3.34 -4 2.68 -4 2 C-6.31 2.33 -8.62 2.66 -11 3 C-11 2.34 -11 1.68 -11 1 C-9.54182203 0.83197949 -8.0834516 0.66562857 -6.625 0.5 C-5.81289062 0.4071875 -5.00078125 0.314375 -4.1640625 0.21875 C-2 0 -2 0 0 0 Z " fill="#9F9C91" transform="translate(90,47)" />
<path d="M0 0 C0.66 0 1.32 0 2 0 C2 0.99 2 1.98 2 3 C3.32 3 4.64 3 6 3 C6 4.32 6 5.64 6 7 C3.69 6.67 1.38 6.34 -1 6 C-0.34 5.34 0.32 4.68 1 4 C0.625 1.875 0.625 1.875 0 0 Z " fill="#431717" transform="translate(58,29)" />
<path d="M0 0 C0.66 0.33 1.32 0.66 2 1 C2 1.66 2 2.32 2 3 C4.31 3.33 6.62 3.66 9 4 C8.34 4.66 7.68 5.32 7 6 C4.5625 5.625 4.5625 5.625 2 5 C1.01 5 0.02 5 -1 5 C-0.67 3.35 -0.34 1.7 0 0 Z " fill="#A64635" transform="translate(50,43)" />
<path d="M0 0 C0.66 0 1.32 0 2 0 C2 0.66 2 1.32 2 2 C2.99 2.33 3.98 2.66 5 3 C5.33 3.99 5.66 4.98 6 6 C4.33388095 6.042721 2.66617115 6.04063832 1 6 C0 5 0 5 -0.0625 2.4375 C-0.041875 1.633125 -0.02125 0.82875 0 0 Z " fill="#B7595A" transform="translate(84,41)" />
<path d="M0 0 C1.65 0.33 3.3 0.66 5 1 C5.33 2.32 5.66 3.64 6 5 C5.01 5.33 4.02 5.66 3 6 C3 4.68 3 3.36 3 2 C1.35 2.33 -0.3 2.66 -2 3 C-1.34 2.01 -0.68 1.02 0 0 Z " fill="#E7CF8D" transform="translate(77,17)" />
<path d="M0 0 C2.31 0 4.62 0 7 0 C6.360625 0.309375 5.72125 0.61875 5.0625 0.9375 C3 2 3 2 2 3 C1.76924918 4.34747084 1.58846937 5.70377565 1.4375 7.0625 C1.3653125 7.7121875 1.3653125 7.7121875 1 11 C0.01 10.67 -0.98 10.34 -2 10 C-1.34 10 -0.68 10 0 10 C0 6.7 0 3.4 0 0 Z " fill="#AA5E60" transform="translate(67,48)" />
<path d="M0 0 C0.99 0.33 1.98 0.66 3 1 C3.33 2.98 3.66 4.96 4 7 C2.35 7.33 0.7 7.66 -1 8 C-0.67 5.36 -0.34 2.72 0 0 Z " fill="#EBB44E" transform="translate(27,36)" />
<path d="M0 0 C1.98 0 3.96 0 6 0 C5.67 0.165 5.67 0.165 4 1 C4.66 2.32 5.32 3.64 6 5 C5.67 5.165 5.67 5.165 4 6 C3.34 5.67 2.68 5.34 2 5 C2 4.01 2 3.02 2 2 C1.01 2.33 0.02 2.66 -1 3 C-0.67 2.01 -0.34 1.02 0 0 Z " fill="#763934" transform="translate(58,27)" />
<path d="M0 0 C0.825 0.33 0.825 0.33 5 2 C4.67 3.65 4.34 5.3 4 7 C2.35 6.67 0.7 6.34 -1 6 C-0.67 4.02 -0.34 2.04 0 0 Z " fill="#3F322A" transform="translate(49,65)" />
<path d="M0 0 C-0.33 1.32 -0.66 2.64 -1 4 C-3.64 4 -6.28 4 -9 4 C-3.7826087 0 -3.7826087 0 0 0 Z " fill="#B2B3A9" transform="translate(93,54)" />
<path d="M0 0 C0.825 0.165 0.825 0.165 5 1 C4.67 2.32 4.34 3.64 4 5 C2.68 4.67 1.36 4.34 0 4 C0 2.68 0 1.36 0 0 Z " fill="#877970" transform="translate(41,53)" />
<path d="M0 0 C0.66 0.165 0.66 0.165 4 1 C4.33 2.32 4.66 3.64 5 5 C3.35 4.67 1.7 4.34 0 4 C0 2.68 0 1.36 0 0 Z " fill="#B84245" transform="translate(55,35)" />
<path d="M0 0 C1.65 0 3.3 0 5 0 C5.33 1.32 5.66 2.64 6 4 C4.35 4 2.7 4 1 4 C0.67 2.68 0.34 1.36 0 0 Z " fill="#491813" transform="translate(75,30)" />
<path d="M0 0 C1.9375 0.6875 1.9375 0.6875 4 2 C4.86029934 4.79597286 5 7.07171074 5 10 C4.34 10 3.68 10 3 10 C3 7.69 3 5.38 3 3 C2.01 2.67 1.02 2.34 0 2 C0 1.34 0 0.68 0 0 Z " fill="#422F2B" transform="translate(31,50)" />
<path d="M0 0 C0.66 0.33 1.32 0.66 2 1 C0.79618552 3.49361571 -0.45428722 5.68143083 -2 8 C-2.99 8 -3.98 8 -5 8 C-5 7.34 -5 6.68 -5 6 C-4.01 5.34 -3.02 4.68 -2 4 C-0.8125 1.875 -0.8125 1.875 0 0 Z " fill="#F1BB75" transform="translate(47,45)" />
<path d="M0 0 C2.64 0.33 5.28 0.66 8 1 C7.67 1.165 7.67 1.165 6 2 C6 2.66 6 3.32 6 4 C4.35 3.67 2.7 3.34 1 3 C0.67 2.01 0.34 1.02 0 0 Z " fill="#0E0C04" transform="translate(70,65)" />
<path d="M0 0 C0.66 0.33 1.32 0.66 2 1 C1.25 2.9375 1.25 2.9375 0 5 C-2.125 5.75 -2.125 5.75 -4 6 C-4 5.01 -4 4.02 -4 3 C-2 1.3125 -2 1.3125 0 0 Z " fill="#645F50" transform="translate(44,64)" />
<path d="M0 0 C1.155 0.495 1.155 0.495 7 3 C7 3.66 7 4.32 7 5 C4.69 4.67 2.38 4.34 0 4 C0 2.68 0 1.36 0 0 Z " fill="#AC312C" transform="translate(53,37)" />
<path d="M0 0 C2.31 0.33 4.62 0.66 7 1 C7 1.66 7 2.32 7 3 C4.69 3.33 2.38 3.66 0 4 C0 2.68 0 1.36 0 0 Z " fill="#410D0F" transform="translate(67,32)" />
<path d="M0 0 C0.99 0 1.98 0 3 0 C4.35439668 2.70879335 4.06501451 5.00933268 4 8 C3.34 8 2.68 8 2 8 C1.34 5.36 0.68 2.72 0 0 Z " fill="#B96361" transform="translate(62,28)" />
<path d="M0 0 C3.96 0 7.92 0 12 0 C12 0.99 12 1.98 12 3 C11.01 3 10.02 3 9 3 C9 2.34 9 1.68 9 1 C6.03 1 3.06 1 0 1 C0 0.67 0 0.34 0 0 Z " fill="#BC5854" transform="translate(66,26)" />
<path d="M0 0 C2.45234885 0.98093954 3.7809268 1.68703828 5.3125 3.875 C6.12082372 6.37345514 5.71847013 7.52928976 5 10 C3.33333333 6.66666667 1.66666667 3.33333333 0 0 Z " fill="#BB5B5C" transform="translate(58,48)" />
</svg>