<?xml version='1.0' encoding='utf-8'?>
<svg xmlns="http://www.w3.org/2000/svg" version="1.1" width="98" height="85">
<path d="M0 0 C3.67646227 2.67152097 5.19571221 5.89351986 7 10 C7.28198242 10.62664551 7.56396484 11.25329102 7.85449219 11.89892578 C11.21022282 19.50192604 13.9044792 26.55819414 13 35 C12.34 35 11.68 35 11 35 C10.67 36.32 10.34 37.64 10 39 C9.34 39 8.68 39 8 39 C7.67 41.97 7.34 44.94 7 48 C-0.00959334 46.13256863 -6.31055945 43.63628754 -12.75 40.3125 C-13.61471924 39.87115723 -14.47943848 39.42981445 -15.37036133 38.97509766 C-17.92098385 37.66372726 -20.46223966 36.3360667 -23 35 C-23.70366699 34.63148926 -24.40733398 34.26297852 -25.13232422 33.88330078 C-40.55278368 25.72495842 -40.55278368 25.72495842 -46 19 C-47.21420369 14.88519862 -47.34407426 13.03222279 -46 9 C-45.96079185 7.00038436 -45.95556653 4.99950636 -46 3 C-44.68386719 2.95101563 -43.36773437 2.90203125 -42.01171875 2.8515625 C-26.02590323 2.19240069 -26.02590323 2.19240069 -20.1875 0.9375 C-13.4209577 -0.39870504 -6.8248895 -1.35084119 0 0 Z " fill="#F2C893" transform="translate(64,20)" />
<path d="M0 0 C2.84530772 2.24074916 4.34886663 4.81360227 6 8 C6.309375 8.495 6.309375 8.495 7.875 11 C9.10979477 14.29278605 9.12435539 16.59077284 8.97265625 20.046875 C9.01273711 22.90979365 10.02917053 25.33021897 11 28 C11 29.32 11 30.64 11 32 C8.69 31.34 6.38 30.68 4 30 C4 29.34 4 28.68 4 28 C3.195625 27.9175 2.39125 27.835 1.5625 27.75 C-1.32910692 27.14124065 -3.36631438 26.48917142 -6.00390625 25.2890625 C-6.79547119 24.92941406 -7.58703613 24.56976563 -8.40258789 24.19921875 C-9.25973389 23.80347656 -10.11687988 23.40773438 -11 23 C-11.45209839 22.79181641 -11.45209839 22.79181641 -13.73999023 21.73828125 C-16.66636152 20.38036887 -19.58377496 19.00455455 -22.5 17.625 C-23.48097656 17.16867188 -24.46195313 16.71234375 -25.47265625 16.2421875 C-31.57280842 13.35050418 -37.79163903 10.36143336 -43 6 C-43 5.34 -43 4.68 -43 4 C-42.27409668 3.9498877 -41.54819336 3.89977539 -40.80029297 3.84814453 C-37.49123877 3.61514231 -34.18317287 3.37018538 -30.875 3.125 C-30.30394531 3.08568359 -30.30394531 3.08568359 -27.4140625 2.88671875 C-26.30546875 2.80292969 -25.196875 2.71914063 -24.0546875 2.6328125 C-23.03874512 2.55949707 -22.02280273 2.48618164 -20.97607422 2.41064453 C-1.41840307 -0.28796112 -1.41840307 -0.28796112 0 0 Z " fill="#FBF2B9" transform="translate(62,21)" />
<path d="M0 0 C7.5273523 4.11378556 7.5273523 4.11378556 9.5 7.8125 C9.665 8.534375 9.83 9.25625 10 10 C11.216875 10.103125 12.43375 10.20625 13.6875 10.3125 C16.60285697 10.65968787 17.95428797 10.97142998 20.5 12.5625 C23.49030771 14.28192693 25.63555167 14.0513927 29.015625 13.91796875 C32.15961233 14.04793673 34.3418223 15.40509338 37 17 C37.886875 17.495 38.77375 17.99 39.6875 18.5 C43.6754717 21.08679245 43.6754717 21.08679245 45 23 C44.6875 25.6875 44.6875 25.6875 44 28 C47.3 28 50.6 28 54 28 C53.67 29.98 53.34 31.96 53 34 C45.99034115 32.13255118 39.68959887 29.63606126 33.25 26.3125 C32.38600586 25.87188232 31.52201172 25.43126465 30.63183594 24.97729492 C28.07996051 23.66608546 25.53778483 22.33825309 23 21 C22.29101562 20.62617187 21.58203125 20.25234375 20.8515625 19.8671875 C5.65972594 11.76087155 5.65972594 11.76087155 1 6 C0 2.5625 0 2.5625 0 0 Z " fill="#DEBC7F" transform="translate(18,34)" />
<path d="M0 0 C0.78375 0.70125 1.5675 1.4025 2.375 2.125 C2.375 2.785 2.375 3.445 2.375 4.125 C3.035 4.125 3.695 4.125 4.375 4.125 C6.41853799 8.77421427 8.4142708 13.44020428 10.375 18.125 C10.72691406 18.95386719 11.07882813 19.78273438 11.44140625 20.63671875 C13.70317224 26.54790426 14.3732348 32.85177937 13.375 39.125 C12.385 39.785 11.395 40.445 10.375 41.125 C9.96618778 43.19057754 9.93687718 45.14758775 9.87890625 47.25 C9.375 49.125 9.375 49.125 7.63671875 50.4921875 C4.58188291 51.34690841 3.44378524 50.65939262 0.625 49.25 C-0.33792969 48.77820313 -1.30085938 48.30640625 -2.29296875 47.8203125 C-3.39253906 47.26085937 -4.49210937 46.70140625 -5.625 46.125 C-6.93292369 45.47521202 -8.24155158 44.82684008 -9.55078125 44.1796875 C-12.31574357 42.80952499 -15.07420477 41.427374 -17.828125 40.03515625 C-20.03858783 38.91846883 -22.25343594 37.82194278 -24.484375 36.74609375 C-30.85399732 33.67285241 -36.81621797 30.1628119 -42.625 26.125 C-42.99625 25.89296875 -42.99625 25.89296875 -44.875 24.71875 C-47.73925416 22.54746055 -49.38106763 20.82117112 -49.90820312 17.15576172 C-50.21779597 12.124878 -49.9809254 7.14750282 -49.625 2.125 C-47.31627522 0.97063761 -45.86420688 0.95712583 -43.29296875 0.87890625 C-42.41809814 0.84724365 -41.54322754 0.81558105 -40.6418457 0.78295898 C-39.70816162 0.75145752 -38.77447754 0.71995605 -37.8125 0.6875 C-31.61522205 0.44443861 -25.56262746 0.10538741 -19.4375 -0.9375 C-5.33213027 -3.33102777 -5.33213027 -3.33102777 0 0 Z M-24.375 1.61328125 C-32.03548994 2.81944012 -39.88471734 2.83691896 -47.625 3.125 C-47.604375 4.424375 -47.58375 5.72375 -47.5625 7.0625 C-47.54100546 8.41665633 -47.55351801 9.77256083 -47.625 11.125 C-47.955 11.455 -48.285 11.785 -48.625 12.125 C-48.87337311 16.09896977 -48.49250505 18.09441531 -45.90161133 21.17236328 C-39.02647153 27.53879628 -31.66192335 31.73831208 -23.32080078 35.90234375 C-21.11951833 37.00274023 -18.93249357 38.12818075 -16.74609375 39.2578125 C-9.50008452 42.96016645 -2.56124026 46.14093993 5.375 48.125 C5.705 45.155 6.035 42.185 6.375 39.125 C7.035 39.125 7.695 39.125 8.375 39.125 C8.705 37.805 9.035 36.485 9.375 35.125 C10.035 35.125 10.695 35.125 11.375 35.125 C12.35445881 25.98338446 9.05404131 18.30088096 5.375 10.125 C4.90320313 9.05121094 4.43140625 7.97742188 3.9453125 6.87109375 C2.322583 3.91570816 1.10761183 2.110667 -1.625 0.125 C-9.2955104 -1.3932138 -16.81977751 -0.0106309 -24.375 1.61328125 Z " fill="#613916" transform="translate(65.625,19.875)" />
<path d="M0 0 C0.67804687 0.45890625 1.35609375 0.9178125 2.0546875 1.390625 C6.40781084 4.26055119 10.58691917 7.01566655 15.5 8.8125 C22.38613945 11.35642413 28.72860053 15.00055452 35.19140625 18.44921875 C41.39857467 21.75946034 47.6899037 24.89127393 54 28 C53.67 29.32 53.34 30.64 53 32 C49.7 32 46.4 32 43 32 C43 29.69 43 27.38 43 25 C42.0925 24.731875 41.185 24.46375 40.25 24.1875 C37 23 37 23 35 21.4375 C32.35600552 19.53712897 30.21913714 19.37872202 27 19 C20.30927835 18.20618557 20.30927835 18.20618557 17 16 C15.0625 15.796875 15.0625 15.796875 13 15.75 C10.8515625 15.53515625 10.8515625 15.53515625 9 15 C7.375 12.1875 7.375 12.1875 6 9 C2.8125 6.625 2.8125 6.625 0 5 C-0.33 6.32 -0.66 7.64 -1 9 C-1.625 5.625 -1.625 5.625 -2 2 C-1.34 1.34 -0.68 0.68 0 0 Z " fill="#AE2D1D" transform="translate(19,30)" />
<path d="M0 0 C2.84271742 2.23870923 4.36364083 4.80766422 6 8 C6.309375 8.556875 6.309375 8.556875 7.875 11.375 C9 14 9 14 9 16 C8.175 15.835 8.175 15.835 4 15 C4.33 13.68 4.66 12.36 5 11 C3.35 11.33 1.7 11.66 0 12 C0.020625 11.195625 0.04125 10.39125 0.0625 9.5625 C0 7 0 7 -1 6 C-2.63256758 5.84285346 -4.27135338 5.74914586 -5.91015625 5.68359375 C-6.89951172 5.64169922 -7.88886719 5.59980469 -8.90820312 5.55664062 C-9.94912109 5.51732422 -10.99003906 5.47800781 -12.0625 5.4375 C-13.10728516 5.39431641 -14.15207031 5.35113281 -15.22851562 5.30664062 C-17.81886884 5.20018775 -20.40932186 5.0981724 -23 5 C-23 5.99 -23 6.98 -23 8 C-24.65 8 -26.3 8 -28 8 C-28 7.34 -28 6.68 -28 6 C-32.29 5.67 -36.58 5.34 -41 5 C-41.33 5.66 -41.66 6.32 -42 7 C-42.33 6.01 -42.66 5.02 -43 4 C-42.27409668 3.9498877 -41.54819336 3.89977539 -40.80029297 3.84814453 C-37.49123877 3.61514231 -34.18317287 3.37018538 -30.875 3.125 C-30.30394531 3.08568359 -30.30394531 3.08568359 -27.4140625 2.88671875 C-26.30546875 2.80292969 -25.196875 2.71914063 -24.0546875 2.6328125 C-23.03874512 2.55949707 -22.02280273 2.48618164 -20.97607422 2.41064453 C-1.41840307 -0.28796112 -1.41840307 -0.28796112 0 0 Z " fill="#FBE8A4" transform="translate(62,21)" />
<path d="M0 0 C3.67646227 2.67152097 5.19571221 5.89351986 7 10 C7.28198242 10.62664551 7.56396484 11.25329102 7.85449219 11.89892578 C11.21022282 19.50192604 13.9044792 26.55819414 13 35 C12.34 35 11.68 35 11 35 C10.835 35.33 10.835 35.33 10 37 C10.0515625 36.4121875 10.0515625 36.4121875 10.3125 33.4375 C10.3125 23.35953452 5.74536515 13.07456724 0 5 C-0.66 4.01 -1.32 3.02 -2 2 C-8.27715005 1.1260854 -14.09784919 1.77029858 -20 4 C-28.29590603 5.33804936 -36.62158511 5.09252237 -45 5 C-45.33 6.32 -45.66 7.64 -46 9 C-46 7.02 -46 5.04 -46 3 C-44.68386719 2.95101563 -43.36773437 2.90203125 -42.01171875 2.8515625 C-26.02590323 2.19240069 -26.02590323 2.19240069 -20.1875 0.9375 C-13.4209577 -0.39870504 -6.8248895 -1.35084119 0 0 Z " fill="#C2904A" transform="translate(64,20)" />
<path d="M0 0 C7.5273523 4.11378556 7.5273523 4.11378556 9.5 7.8125 C9.665 8.534375 9.83 9.25625 10 10 C10.57685547 10.04382813 10.57685547 10.04382813 13.49609375 10.265625 C18.20969786 10.85910542 21.89392045 12.55047791 26.0625 14.75 C26.73087891 15.08515625 27.39925781 15.4203125 28.08789062 15.765625 C32.70965535 18.13714276 36.83299365 20.90048423 41 24 C37.37149374 24 35.13832722 22.93046332 31.8125 21.5 C30.72582031 21.0359375 29.63914062 20.571875 28.51953125 20.09375 C27.68808594 19.7328125 26.85664062 19.371875 26 19 C26 18.34 26 17.68 26 17 C22.25297715 15.96633852 19.77200794 15.74266402 16 17 C10.39803191 14.47436693 4.77686987 10.87338047 1 6 C0.1875 2.6875 0.1875 2.6875 0 0 Z " fill="#DDB37D" transform="translate(18,34)" />
<path d="M0 0 C1.63484051 0.87774647 3.25760768 1.77800319 4.875 2.6875 C5.77992187 3.18636719 6.68484375 3.68523438 7.6171875 4.19921875 C10 6 10 6 11.0390625 8.62890625 C12 11 12 11 14.09375 11.890625 C14.8878125 12.00921875 15.681875 12.1278125 16.5 12.25 C20.94230769 12.97115385 20.94230769 12.97115385 23 14 C23 14.99 23 15.98 23 17 C21.33388095 17.042721 19.66617115 17.04063832 18 17 C17.67 16.67 17.34 16.34 17 16 C15.72125 15.938125 14.4425 15.87625 13.125 15.8125 C10.921875 15.5703125 10.921875 15.5703125 9 15 C7.375 12.1875 7.375 12.1875 6 9 C2.8125 6.625 2.8125 6.625 0 5 C-0.33 6.32 -0.66 7.64 -1 9 C-1.625 5.625 -1.625 5.625 -2 2 C-1.34 1.34 -0.68 0.68 0 0 Z " fill="#CF7256" transform="translate(19,30)" />
<path d="M0 0 C8.57142857 -0.28571429 8.57142857 -0.28571429 12 2 C11.01 2.33 10.02 2.66 9 3 C9 3.66 9 4.32 9 5 C11.97 5 14.94 5 18 5 C18.33 5.66 18.66 6.32 19 7 C18.67 7.66 18.34 8.32 18 9 C20.31 9 22.62 9 25 9 C24.67 9.66 24.34 10.32 24 11 C18.25 11.125 18.25 11.125 16 10 C16 9.34 16 8.68 16 8 C15.5153125 8.0515625 15.5153125 8.0515625 13.0625 8.3125 C7.97974348 8.36457742 4.16908676 5.64703921 0 3 C0 2.01 0 1.02 0 0 Z " fill="#FBF6C2" transform="translate(21,26)" />
<path d="M0 0 C0.66 0.33 0.66 0.33 4 2 C4 2.66 4 3.32 4 4 C4.66 4 5.32 4 6 4 C8.04353799 8.64921427 10.0392708 13.31520428 12 18 C12.35191406 18.82886719 12.70382813 19.65773438 13.06640625 20.51171875 C15.4082574 26.63220895 15.29656042 32.50862184 15 39 C14.67 39.165 14.67 39.165 13 40 C13.0825 38.783125 13.165 37.56625 13.25 36.3125 C13.25 24.53424718 7.5886972 12.54225112 1 3 C0.67 2.01 0.34 1.02 0 0 Z " fill="#592F0A" transform="translate(64,20)" />
<path d="M0 0 C3.55668358 0.9958714 5.329183 2.50930869 8.125 4.875 C9.0325 5.205 9.94 5.535 10.875 5.875 C13.125 6.875 13.125 6.875 14.0625 8.8125 C14.125 10.875 14.125 10.875 12.125 13.875 C11.61453125 13.12863281 11.1040625 12.38226563 10.578125 11.61328125 C7.64065268 8.33435116 4.81682979 6.87718384 0.875 5.0625 C0.2253125 4.75119141 -0.424375 4.43988281 -1.09375 4.11914062 C-2.68221971 3.35994554 -4.27791263 2.61589481 -5.875 1.875 C-2.875 -0.125 -2.875 -0.125 0 0 Z " fill="#D3705F" transform="translate(48.875,48.125)" />
<path d="M0 0 C0.66 0.33 1.32 0.66 2 1 C2 1.66 2 2.32 2 3 C5.63 3 9.26 3 13 3 C12.67 4.98 12.34 6.96 12 9 C5.5811453 7.26375242 -0.13784836 5.14819255 -6 2 C-2.25 0.875 -2.25 0.875 0 2 C0 1.34 0 0.68 0 0 Z " fill="#DFAB77" transform="translate(59,59)" />
<path d="M0 0 C4.91575917 0.66323735 9.05703124 2.66280224 13.5 4.75 C14.24636719 5.08515625 14.99273437 5.4203125 15.76171875 5.765625 C20.39994314 7.93286613 23.61076458 10.15348679 27 14 C24.5 13 24.5 13 12 8 C12 7.34 12 6.68 12 6 C11.42765625 5.87753906 10.8553125 5.75507812 10.265625 5.62890625 C7.90046809 4.97237132 5.92793203 4.06276488 3.75 2.9375 C3.04359375 2.57527344 2.3371875 2.21304688 1.609375 1.83984375 C1.07828125 1.56269531 0.5471875 1.28554688 0 1 C0 0.67 0 0.34 0 0 Z " fill="#FBD8A5" transform="translate(32,45)" />
<path d="M0 0 C5.6143991 1.56448671 10.86810338 3.16395187 16 6 C16 7.32 16 8.64 16 10 C16.66 10 17.32 10 18 10 C18 10.66 18 11.32 18 12 C15.6568787 11.74438677 13.32156597 11.40729228 11 11 C10.67 10.34 10.34 9.68 10 9 C11.32 9.33 12.64 9.66 14 10 C14 9.01 14 8.02 14 7 C13.24074219 6.91363281 12.48148438 6.82726563 11.69921875 6.73828125 C3.48027444 5.57632933 3.48027444 5.57632933 0.8125 2.375 C0.544375 1.59125 0.27625 0.8075 0 0 Z " fill="#BC503B" transform="translate(28,37)" />
<path d="M0 0 C1.815 0.495 1.815 0.495 11 3 C10.67 4.32 10.34 5.64 10 7 C6.7 7 3.4 7 0 7 C0 4.69 0 2.38 0 0 Z " fill="#B04A2D" transform="translate(62,55)" />
<path d="M0 0 C0.33 0 0.66 0 1 0 C0.61167075 5.90528268 -0.16052473 10.75789181 -3 16 C-3.99 16.33 -4.98 16.66 -6 17 C-5.67 14.03 -5.34 11.06 -5 8 C-4.34 8 -3.68 8 -3 8 C-2.67 6.68 -2.34 5.36 -2 4 C-1.34 4 -0.68 4 0 4 C0 2.68 0 1.36 0 0 Z " fill="#824616" transform="translate(77,51)" />
<path d="M0 0 C1.09570312 0.00902344 2.19140625 0.01804687 3.3203125 0.02734375 C4.16335937 0.03894531 5.00640625 0.05054687 5.875 0.0625 C6.04 0.3925 6.04 0.3925 6.875 2.0625 C5.06 1.8975 5.06 1.8975 -4.125 1.0625 C-4.125 1.7225 -4.125 2.3825 -4.125 3.0625 C-6.66612232 3.40051152 -9.20776746 3.73303379 -11.75 4.0625 C-12.46285156 4.15789063 -13.17570312 4.25328125 -13.91015625 4.3515625 C-18.01321609 4.87856101 -21.97745742 5.16716984 -26.125 5.0625 C-26.125 4.7325 -26.125 4.4025 -26.125 4.0625 C-24.84882813 3.85753906 -23.57265625 3.65257812 -22.2578125 3.44140625 C-20.58851379 3.16944185 -18.91924447 2.89729709 -17.25 2.625 C-16.40824219 2.49029297 -15.56648438 2.35558594 -14.69921875 2.21679688 C-13.89355469 2.08466797 -13.08789062 1.95253906 -12.2578125 1.81640625 C-11.51418457 1.69595947 -10.77055664 1.5755127 -10.00439453 1.45141602 C-2.84435976 -0.03025915 -2.84435976 -0.03025915 0 0 Z " fill="#F5D589" transform="translate(56.125,20.9375)" />
<path d="M0 0 C3.33511388 2.9901021 5.21521119 5.89498574 7 10 C7 10.66 7 11.32 7 12 C5.35 11.67 3.7 11.34 2 11 C2.33 9.68 2.66 8.36 3 7 C1.35 7.33 -0.3 7.66 -2 8 C-1.47731534 5.23723823 -0.89130413 2.6739124 0 0 Z " fill="#F5DB93" transform="translate(64,25)" />
<path d="M0 0 C0.6290625 -0.01998047 0.6290625 -0.01998047 3.8125 -0.12109375 C7 0.4375 7 0.4375 8.9375 2.96484375 C9.288125 3.78082031 9.63875 4.59679687 10 5.4375 C9.01 5.4375 8.02 5.4375 7 5.4375 C6.34 4.4475 5.68 3.4575 5 2.4375 C2.25 2.109375 2.25 2.109375 -1 2.1875 C-1.53625 2.19523437 -1.53625 2.19523437 -4.25 2.234375 C-7 2.4375 -7 2.4375 -9 3.4375 C-10.70702735 3.50746014 -12.41668003 3.52190154 -14.125 3.5 C-15.03507812 3.49097656 -15.94515625 3.48195313 -16.8828125 3.47265625 C-17.58148438 3.46105469 -18.28015625 3.44945312 -19 3.4375 C-19 3.1075 -19 2.7775 -19 2.4375 C-12.70516108 0.97175788 -6.46150859 0.16968825 0 0 Z " fill="#B98949" transform="translate(57,19.5625)" />
<path d="M0 0 C1.32 0.825 1.32 0.825 8 5 C7.67 6.65 7.34 8.3 7 10 C4.53199953 8.84826645 2.95216435 7.95216435 1 6 C0.60235737 4.01178687 0.26224651 2.01055661 0 0 Z " fill="#E2C691" transform="translate(18,34)" />
<path d="M0 0 C3.42025316 3.42025316 3.95344801 7.71982025 4.125 12.4375 C4.08375 13.283125 4.0425 14.12875 4 15 C0.98968256 15.93423645 0.13349732 16.04449911 -3 15 C-3 14.34 -3 13.68 -3 13 C-2.175 13.165 -2.175 13.165 2 14 C1.690625 12.741875 1.38125 11.48375 1.0625 10.1875 C0.88847656 9.47980469 0.71445313 8.77210937 0.53515625 8.04296875 C0.08989295 6.34316798 -0.44433985 4.66698046 -1 3 C-0.67 2.01 -0.34 1.02 0 0 Z " fill="#F5D894" transform="translate(71,39)" />
<path d="M0 0 C0.33 0.66 0.66 1.32 1 2 C1.66 2 2.32 2 3 2 C3 3.65 3 5.3 3 7 C2.34 6.67 1.68 6.34 1 6 C1 5.34 1 4.68 1 4 C0.0925 4.33 -0.815 4.66 -1.75 5 C-5 6 -5 6 -9 6 C-9 5.01 -9 4.02 -9 3 C-7.88625 2.87625 -6.7725 2.7525 -5.625 2.625 C-2 2 -2 2 0 0 Z " fill="#F6EBAF" transform="translate(68,35)" />
<path d="M0 0 C1.95903745 0.47627975 3.91721097 0.95611423 5.875 1.4375 C6.96554688 1.70433594 8.05609375 1.97117188 9.1796875 2.24609375 C12 3 12 3 14 4 C14 4.99 14 5.98 14 7 C12.35 7 10.7 7 9 7 C8.67 6.01 8.34 5.02 8 4 C5.36 3.67 2.72 3.34 0 3 C0 2.01 0 1.02 0 0 Z " fill="#F3887A" transform="translate(28,40)" />
<path d="M0 0 C0.33 0.66 0.66 1.32 1 2 C1.66 2 2.32 2 3 2 C4.14819277 7.8685408 3.77313045 13.0885256 3 19 C1.25434889 15.78360346 0.795563 13.67986596 1 10 C0.34 9.67 -0.32 9.34 -1 9 C-0.67 8.34 -0.34 7.68 0 7 C0.66 7 1.32 7 2 7 C1.67 6.401875 1.34 5.80375 1 5.1875 C0 3 0 3 0 0 Z " fill="#735B42" transform="translate(13,22)" />
<path d="M0 0 C0.33 0.66 0.66 1.32 1 2 C2.98 2 4.96 2 7 2 C7 3.65 7 5.3 7 7 C5.515 6.34 5.515 6.34 -2 3 C-1.34 2.01 -0.68 1.02 0 0 Z " fill="#F1B883" transform="translate(67,52)" />
<path d="M0 0 C1.485 0.66 1.485 0.66 9 4 C9 4.33 9 4.66 9 5 C6.03 5 3.06 5 0 5 C0 3.35 0 1.7 0 0 Z " fill="#E04D45" transform="translate(62,55)" />
<path d="M0 0 C2.9719385 1.12451727 5.33440687 2.22293791 8 4 C7.67 4.66 7.34 5.32 7 6 C3.31245243 5.50168276 1.39509338 4.89932357 -1 2 C-0.67 1.34 -0.34 0.68 0 0 Z " fill="#DDC184" transform="translate(36,48)" />
<path d="M0 0 C1.32 0 2.64 0 4 0 C3.67 1.98 3.34 3.96 3 6 C1.35 5.67 -0.3 5.34 -2 5 C-2 4.34 -2 3.68 -2 3 C-1.34 3 -0.68 3 0 3 C0 2.01 0 1.02 0 0 Z " fill="#E2B578" transform="translate(68,62)" />
<path d="M0 0 C4.23429756 1.31061591 8.07407404 2.94356259 12 5 C11.67 5.66 11.34 6.32 11 7 C9.34912153 6.40975852 7.70437593 5.80233994 6.0625 5.1875 C5.14597656 4.85105469 4.22945312 4.51460937 3.28515625 4.16796875 C1 3 1 3 0 0 Z " fill="#AE3724" transform="translate(43,44)" />
<path d="M0 0 C1.32 1.32 2.64 2.64 4 4 C3.67 4.165 3.67 4.165 2 5 C1.01 4.67 0.02 4.34 -1 4 C-0.67 5.65 -0.34 7.3 0 9 C-2 7 -2 7 -2.25 4.5 C-2 2 -2 2 0 0 Z " fill="#CC8062" transform="translate(19,30)" />
<path d="M0 0 C1.32 0.66 1.32 0.66 8 4 C7.67 4.66 7.34 5.32 7 6 C2.25 5.25 2.25 5.25 0 3 C0 2.01 0 1.02 0 0 Z " fill="#F7D2A1" transform="translate(19,27)" />
<path d="M0 0 C0.66 0.33 0.66 0.33 4 2 C4 2.66 4 3.32 4 4 C4.66 4 5.32 4 6 4 C6.33 5.32 6.66 6.64 7 8 C6.67 8.165 6.67 8.165 5 9 C1.125 3.375 1.125 3.375 0 0 Z " fill="#683712" transform="translate(64,20)" />
<path d="M0 0 C1.65 0 3.3 0 5 0 C5 0.99 5 1.98 5 3 C3.1875 3.625 3.1875 3.625 1 4 C0.01 3.34 -0.98 2.68 -2 2 C-1.34 2 -0.68 2 0 2 C0 1.34 0 0.68 0 0 Z " fill="#CB9565" transform="translate(63,62)" />
<path d="M0 0 C4.75 0.75 4.75 0.75 7 3 C6.01 3.66 5.02 4.32 4 5 C2 3.625 2 3.625 0 2 C0 1.34 0 0.68 0 0 Z " fill="#D2AF7A" transform="translate(41,52)" />
<path d="M0 0 C0.66 0 1.32 0 2 0 C2 0.66 2 1.32 2 2 C2.66 2 3.32 2 4 2 C4 2.66 4 3.32 4 4 C1.6568787 3.74438677 -0.67843403 3.40729228 -3 3 C-3.33 2.34 -3.66 1.68 -4 1 C-2.68 1.33 -1.36 1.66 0 2 C0 1.34 0 0.68 0 0 Z " fill="#CF5646" transform="translate(42,45)" />
<path d="M0 0 C0.66 0.66 1.32 1.32 2 2 C-1.37097383 3.49821059 -3.20442119 4 -7 4 C-6.67 3.01 -6.34 2.02 -6 1 C-3.125 0.375 -3.125 0.375 0 0 Z " fill="#F4ECB5" transform="translate(68,42)" />
<path d="M0 0 C1.32 0.825 1.32 0.825 8 5 C7.67 5.99 7.34 6.98 7 8 C7 7.34 7 6.68 7 6 C6.21625 5.7525 5.4325 5.505 4.625 5.25 C2 4 2 4 0 0 Z " fill="#FCD4AE" transform="translate(18,34)" />
<path d="M0 0 C-0.33 0.99 -0.66 1.98 -1 3 C-3.02045442 2.39816251 -5.02111039 1.72693904 -7 1 C-7.33 0.34 -7.66 -0.32 -8 -1 C-4.37673261 -2.2077558 -3.35853631 -1.54311128 0 0 Z " fill="#B55A40" transform="translate(27,35)" />
<path d="M0 0 C5.53846154 0.49230769 5.53846154 0.49230769 7.875 3.0625 C8.060625 3.3821875 8.060625 3.3821875 9 5 C5.22454612 3.90931332 2.52956528 3.0916909 0 0 Z " fill="#F37E76" transform="translate(48,49)" />
<path d="M0 0 C3.4375 0.8125 3.4375 0.8125 7 2 C7.33 2.99 7.66 3.98 8 5 C4.5625 4.1875 4.5625 4.1875 1 3 C0.67 2.01 0.34 1.02 0 0 Z " fill="#EFD8A2" transform="translate(52,44)" />
</svg>