<?xml version='1.0' encoding='utf-8'?>
<svg xmlns="http://www.w3.org/2000/svg" version="1.1" width="102" height="112">
<path d="M0 0 C2.32748694 0.68679942 4.65986656 1.35761043 7 2 C7.165 2.66 7.165 2.66 8 6 C7.01 6 6.02 6 5 6 C5.04125 6.763125 5.0825 7.52625 5.125 8.3125 C5 11 5 11 3 14 C0.9375 14.75 0.9375 14.75 -1 15 C-1.33 14.67 -1.66 14.34 -2 14 C-5.56394504 14.00911495 -9.11800644 14.13348277 -12.6796875 14.2578125 C-16 14 -16 14 -17.93359375 12.72265625 C-19.66163366 9.93120716 -19.18041143 7.18726852 -19 4 C-22.16115776 5.36983503 -22.9927092 5.9890638 -25 9 C-25.564137 15.31833445 -25.564137 15.31833445 -23.5 17.8125 C-23.005 18.204375 -22.51 18.59625 -22 19 C-22 19.66 -22 20.32 -22 21 C-20.35 20.67 -18.7 20.34 -17 20 C-17.78375 19.21625 -18.5675 18.4325 -19.375 17.625 C-24 13 -24 13 -24.375 10.5625 C-24 8 -24 8 -22 6.1875 C-21.67 5.9915625 -21.67 5.9915625 -20 5 C-20.0825 5.9075 -20.165 6.815 -20.25 7.75 C-20 11 -20 11 -18.375 13.3125 C-15.56041967 15.31233339 -13.40680413 15.69029053 -10 16 C-10 15.34 -10 14.68 -10 14 C-9.34 14 -8.68 14 -8 14 C-8 14.66 -8 15.32 -8 16 C-4.37 16 -0.74 16 3 16 C2.67 16.66 2.34 17.32 2 18 C1.01 18 0.02 18 -1 18 C0.35304209 20.70608417 1.80966544 20.96183047 4.5625 22.125 C5.38878906 22.47820313 6.21507812 22.83140625 7.06640625 23.1953125 C7.70449219 23.46085937 8.34257813 23.72640625 9 24 C5.98968256 24.93423645 5.13349732 25.04449911 2 24 C2 23.34 2 22.68 2 22 C1.34 22 0.68 22 0 22 C0.25 24.3125 0.25 24.3125 1 27 C1.680625 27.474375 2.36125 27.94875 3.0625 28.4375 C5 30 5 30 5.4375 33 C5 36 5 36 3.625 37.875 C2 39 2 39 0 39 C0 39.66 0 40.32 0 41 C-3.10408807 41.05807043 -6.2080364 41.09361914 -9.3125 41.125 C-9.75303711 41.13337891 -9.75303711 41.13337891 -11.98242188 41.17578125 C-12.82998047 41.18222656 -13.67753906 41.18867187 -14.55078125 41.1953125 C-14.94092407 41.20054932 -14.94092407 41.20054932 -16.9152832 41.22705078 C-19 41 -19 41 -22 39 C-21 41 -21 41 -18 43 C-17.67 43.66 -17.34 44.32 -17 45 C-18.69422223 47.05410604 -19.68867703 47.92137776 -22.3046875 48.58203125 C-30.85520222 49.34871874 -30.85520222 49.34871874 -35 47 C-35 47.66 -35 48.32 -35 49 C-34.34 49.33 -33.68 49.66 -33 50 C-35.31 50 -37.62 50 -40 50 C-39.855625 49.443125 -39.71125 48.88625 -39.5625 48.3125 C-39.376875 47.549375 -39.19125 46.78625 -39 46 C-38.814375 45.278125 -38.62875 44.55625 -38.4375 43.8125 C-38.05174695 41.33265894 -38.03300166 39.30083607 -38.125 36.8125 C-38.18339642 32.38897148 -37.18125073 28.843376 -35.78125 24.67578125 C-34.92532718 21.74424559 -34.52089857 18.90134006 -34.125 15.875 C-33.29019391 10.4765873 -31.76573694 6.05700941 -28 2 C-25.8359375 0.7890625 -25.8359375 0.7890625 -24 0 C-24 0.66 -24 1.32 -24 2 C-23.4534375 1.8246875 -23.4534375 1.8246875 -20.6875 0.9375 C-17 0 -17 0 -14 1 C-14 0.34 -14 -0.32 -14 -1 C-8.72782244 -1.8499807 -4.91280293 -2.45640146 0 0 Z " fill="#BA8B39" transform="translate(60,38)" />
<path d="M0 0 C1.59138085 4.17737474 2.21278058 7.53160785 2 12 C2.66 12.33 3.32 12.66 4 13 C2.02 13 0.04 13 -2 13 C-2 12.34 -2 11.68 -2 11 C-2.66 11 -3.32 11 -4 11 C-4.98120464 7.94736336 -4.98120464 6.05263664 -4 3 C-7.86115959 3.39399588 -11.22138578 3.96747609 -14.75 5.5625 C-18 7 -18 7 -21 7 C-21 7.66 -21 8.32 -21 9 C-20.21625 9.0825 -19.4325 9.165 -18.625 9.25 C-16 10 -16 10 -14.5625 11.8125 C-14 14 -14 14 -14.72265625 15.9921875 C-16.21199996 18.33323541 -17.43303329 19.0454418 -19.875 20.3125 C-24.02971609 22.82937141 -26.42204365 25.36619647 -28 30 C-28.88243931 33.75347426 -29.62207927 37.48336904 -30.2890625 41.28125 C-31 45 -31 45 -32.08984375 48.5546875 C-33.29691938 53.1239609 -33.00539981 57.23056971 -32.77734375 61.9140625 C-33.0289521 65.40126589 -33.99379457 67.18188375 -36 70 C-35.22914062 69.97679688 -34.45828125 69.95359375 -33.6640625 69.9296875 C-33.16261719 69.92066406 -33.16261719 69.92066406 -30.625 69.875 C-29.62726562 69.85179688 -28.62953125 69.82859375 -27.6015625 69.8046875 C-25 70 -25 70 -23 72 C-18.87832692 73.34975945 -14.66865658 73.19102589 -10.375 73.1875 C-9.57336426 73.18814453 -8.77172852 73.18878906 -7.94580078 73.18945312 C-2.11874147 73.13760467 3.36863836 72.58470478 9 71 C9.165 70.34 9.165 70.34 10 67 C10.99 67 11.98 67 13 67 C13.165 66.505 13.165 66.505 14 64 C14.99 63.67 15.98 63.34 17 63 C18.25 60.5625 18.25 60.5625 19 58 C18.67 57.34 18.34 56.68 18 56 C17.97185079 54.1236904 18.01176211 52.24614791 18.0859375 50.37109375 C18.12976563 49.25412109 18.17359375 48.13714844 18.21875 46.98632812 C18.2703125 45.81521484 18.321875 44.64410156 18.375 43.4375 C18.41882813 42.26251953 18.46265625 41.08753906 18.5078125 39.87695312 C18.8717083 31.1282917 18.8717083 31.1282917 20 30 C18.20165795 24.26778471 16.24238449 21.9359961 11.0078125 19 C8.71496567 17.85803738 6.42349585 16.8330767 4 16 C4.33 15.34 4.66 14.68 5 14 C12.07864689 16.81572843 18.07485967 19.22102084 21.6875 26.3125 C25.56671263 38.55049222 27.8670571 52.35257876 25 65 C25.66 65.165 25.66 65.165 29 66 C28.125 69.875 28.125 69.875 27 71 C25.54947613 71.32830787 24.08873952 71.61180393 22.625 71.875 C19.0073937 72.54473917 15.66650266 73.4449223 12.1875 74.625 C0.21606699 77.98929715 -14.03336568 76.83369901 -26 74 C-28.06073134 73.61539945 -30.12326887 73.24035064 -32.1875 72.875 C-33.79166667 72.58333333 -35.39583333 72.29166667 -37 72 C-37.625 69.625 -37.625 69.625 -38 67 C-37.67 66.67 -37.67 66.67 -36 65 C-35.9453125 62.99609375 -35.9453125 62.99609375 -36.125 60.4375 C-36.28156003 53.02046867 -34.3956988 46.18576973 -32.53491211 39.06420898 C-31.98469239 36.9409284 -31.4666578 34.81116556 -30.94921875 32.6796875 C-29.32964554 26.40134195 -26.94476858 22.23837307 -22 18 C-21.0925 17.649375 -20.185 17.29875 -19.25 16.9375 C-18.87875 16.7828125 -18.87875 16.7828125 -17 16 C-16.1875 13.875 -16.1875 13.875 -16 12 C-16.969375 11.731875 -17.93875 11.46375 -18.9375 11.1875 C-19.948125 10.795625 -20.95875 10.40375 -22 10 C-22.33 9.01 -22.66 8.02 -23 7 C-21.10807525 6.01330241 -19.21128022 5.0359398 -17.3125 4.0625 C-16.25675781 3.51722656 -15.20101562 2.97195312 -14.11328125 2.41015625 C-9.2981333 0.22914193 -5.25059696 -0.12210691 0 0 Z " fill="#552C04" transform="translate(56,18)" />
<path d="M0 0 C0.66 0.33 1.32 0.66 2 1 C2.40729228 3.32156597 2.74438677 5.6568787 3 8 C2.67 8 2.34 8 2 8 C1.83071761 10.68735788 1.6645047 13.37484884 1.5 16.0625 C1.45230469 16.81466797 1.40460938 17.56683594 1.35546875 18.34179688 C1.07904807 22.90273817 0.95433939 27.42823154 1 32 C1 35.59857954 0.04169485 37.09451118 -2 40 C-2.66 40 -3.32 40 -4 40 C-4.495 40.66 -4.99 41.32 -5.5 42 C-5.995 42.66 -6.49 43.32 -7 44 C-7.66 44 -8.32 44 -9 44 C-9 44.66 -9 45.32 -9 46 C-15.39069008 48.69757772 -21.45901845 49.30141695 -28.3125 49.3125 C-29.08899902 49.31765625 -29.86549805 49.3228125 -30.66552734 49.328125 C-34.90176984 49.27687644 -38.13558782 48.90470138 -42 47 C-42.66644531 46.71898437 -43.33289063 46.43796875 -44.01953125 46.1484375 C-45.6796875 45.43229167 -47.33984375 44.71614583 -49 44 C-49 43.34 -49 42.68 -49 42 C-48.41992188 42.08378906 -47.83984375 42.16757813 -47.2421875 42.25390625 C-42.57684697 42.86209421 -38.64557883 43.07205665 -34 42 C-34.33 41.34 -34.66 40.68 -35 40 C-34.34 39.34 -33.68 38.68 -33 38 C-34.32 36.68 -35.64 35.36 -37 34 C-36.01 34 -35.02 34 -34 34 C-33.67 34.33 -33.34 34.66 -33 35 C-31.58672053 35.15620555 -30.1664541 35.25056173 -28.74609375 35.31640625 C-27.89208984 35.35830078 -27.03808594 35.40019531 -26.15820312 35.44335938 C-25.26037109 35.48267578 -24.36253906 35.52199219 -23.4375 35.5625 C-22.53580078 35.60568359 -21.63410156 35.64886719 -20.70507812 35.69335938 C-18.47021515 35.79978142 -16.23523692 35.90179988 -14 36 C-14 35.34 -14 34.68 -14 34 C-13.360625 33.5875 -12.72125 33.175 -12.0625 32.75 C-9.29641768 30.40302106 -9.31288108 28.51991219 -9 25 C-8.01 25 -7.02 25 -6 25 C-6 24.34 -6 23.68 -6 23 C-4.68 22.67 -3.36 22.34 -2 22 C-1.0998164 17.20406383 -0.70560238 12.48600386 -0.4375 7.625 C-0.4159082 7.25697266 -0.4159082 7.25697266 -0.30664062 5.39453125 C-0.20156201 3.59651932 -0.10037907 1.79828042 0 0 Z " fill="#7C4903" transform="translate(74,43)" />
<path d="M0 0 C1 2 1 2 1.375 5 C2 8 2 8 5 10 C6.9896995 10.39013716 8.99019869 10.73202649 11 11 C11 10.34 11 9.68 11 9 C11.66 9 12.32 9 13 9 C13 9.66 13 10.32 13 11 C16.63 11 20.26 11 24 11 C23.67 11.66 23.34 12.32 23 13 C22.01 13 21.02 13 20 13 C21.35304209 15.70608417 22.80966544 15.96183047 25.5625 17.125 C26.38878906 17.47820313 27.21507812 17.83140625 28.06640625 18.1953125 C28.70449219 18.46085937 29.34257813 18.72640625 30 19 C26.98968256 19.93423645 26.13349732 20.04449911 23 19 C23 18.34 23 17.68 23 17 C22.34 17 21.68 17 21 17 C21.3125 19.375 21.3125 19.375 22 22 C22.99 22.66 23.98 23.32 25 24 C25.1875 26.625 25.1875 26.625 25 29 C24.34 29 23.68 29 23 29 C23 29.66 23 30.32 23 31 C19.36576791 33.32590854 16.22911669 33.16265833 12 33 C12 32.67 12 32.34 12 32 C11.37351562 31.87882812 10.74703125 31.75765625 10.1015625 31.6328125 C9.28429687 31.46523437 8.46703125 31.29765625 7.625 31.125 C7.21894531 31.04378906 7.21894531 31.04378906 5.1640625 30.6328125 C3 30 3 30 1 28 C2.98 27.67 4.96 27.34 7 27 C7.33 25.68 7.66 24.36 8 23 C5.36 23.99 2.72 24.98 0 26 C0.33 23.69 0.66 21.38 1 19 C0.67 19.474375 0.34 19.94875 0 20.4375 C-3.09813267 22.85791615 -6.12026792 22.68198917 -10 23 C-10.33 22.01 -10.66 21.02 -11 20 C-9.06532058 19.16013916 -7.12714871 18.32831973 -5.1875 17.5 C-4.10855469 17.0359375 -3.02960937 16.571875 -1.91796875 16.09375 C1 15 1 15 4 15 C3.21625 14.21625 2.4325 13.4325 1.625 12.625 C-3 8 -3 8 -3.3125 5.5625 C-2.95209822 2.60720543 -2.28773145 1.81112073 0 0 Z " fill="#D1A06F" transform="translate(39,43)" />
<path d="M0 0 C1.53125 1.15625 1.53125 1.15625 2.53125 2.15625 C2.65893611 5.06333611 2.7164731 7.93614865 2.71875 10.84375 C2.73099609 11.64748047 2.74324219 12.45121094 2.75585938 13.27929688 C2.76728194 17.9358947 2.49069262 21.83455252 0.53125 26.15625 C-1.59375 27.03125 -1.59375 27.03125 -3.46875 27.15625 C-3.46875 27.81625 -3.46875 28.47625 -3.46875 29.15625 C-6.1706933 28.79112253 -8.05265852 28.45755763 -10.28125 26.84375 C-11.46875 25.15625 -11.46875 25.15625 -11.46875 21.15625 C-10.80875 21.15625 -10.14875 21.15625 -9.46875 21.15625 C-8.80875 21.81625 -8.14875 22.47625 -7.46875 23.15625 C-6.14875 23.15625 -4.82875 23.15625 -3.46875 23.15625 C-4.95375 22.49625 -4.95375 22.49625 -12.46875 19.15625 C-12.46875 18.49625 -12.46875 17.83625 -12.46875 17.15625 C-11.47875 16.82625 -10.48875 16.49625 -9.46875 16.15625 C-12.76875 15.82625 -16.06875 15.49625 -19.46875 15.15625 C-19.46875 14.49625 -19.46875 13.83625 -19.46875 13.15625 C-20.12875 13.15625 -20.78875 13.15625 -21.46875 13.15625 C-21.46875 13.81625 -21.46875 14.47625 -21.46875 15.15625 C-25.52655213 15.62808746 -27.03070324 15.48954645 -30.34375 12.96875 C-32.46875 10.15625 -32.46875 10.15625 -32.78125 7.34375 C-32.7296875 6.9828125 -32.7296875 6.9828125 -32.46875 5.15625 C-34.46875 7.15625 -34.46875 7.15625 -34.96875 9.46875 C-34.2086053 13.55452775 -31.7104912 14.65740782 -28.46875 17.15625 C-28.46875 17.81625 -28.46875 18.47625 -28.46875 19.15625 C-30.11875 19.48625 -31.76875 19.81625 -33.46875 20.15625 C-36.20414592 17.33537296 -37.38947551 15.64070522 -38.03125 11.71875 C-37.29690674 7.06790937 -35.71466892 5.48331689 -32.46875 2.15625 C-31.47875 2.48625 -30.48875 2.81625 -29.46875 3.15625 C-29.530625 4.27 -29.5925 5.38375 -29.65625 6.53125 C-29.594375 7.7275 -29.5325 8.92375 -29.46875 10.15625 C-25.87865977 12.54964348 -24.33620502 12.34010169 -20.09375 12.21875 C-16.02742484 12.11124945 -12.43064788 12.19916231 -8.46875 13.15625 C-7.80875 10.51625 -7.14875 7.87625 -6.46875 5.15625 C-5.47875 5.15625 -4.48875 5.15625 -3.46875 5.15625 C-3.63375 4.49625 -3.63375 4.49625 -4.46875 1.15625 C-5.520625 1.0325 -6.5725 0.90875 -7.65625 0.78125 C-11.46875 0.15625 -11.46875 0.15625 -13.84375 -0.90625 C-17.69384874 -2.28128526 -21.42113 -2.0024802 -25.46875 -1.84375 C-25.46875 -1.18375 -25.46875 -0.52375 -25.46875 0.15625 C-26.45875 0.48625 -27.44875 0.81625 -28.46875 1.15625 C-28.46875 0.49625 -28.46875 -0.16375 -28.46875 -0.84375 C-29.066875 -0.51375 -29.665 -0.18375 -30.28125 0.15625 C-32.46875 1.15625 -32.46875 1.15625 -35.46875 1.15625 C-35.46875 0.16625 -35.46875 -0.82375 -35.46875 -1.84375 C-31.23391221 -3.53768512 -27.87419427 -3.97900446 -23.40234375 -3.84375 C-21.46875 -3.84375 -21.46875 -3.84375 -18.53125 -4.40625 C-11.26852883 -5.4437816 -6.03727141 -4.12067731 0 0 Z " fill="#815C1E" transform="translate(71.46875,38.84375)" />
<path d="M0 0 C2.32748694 0.68679942 4.65986656 1.35761043 7 2 C7.165 2.66 7.165 2.66 8 6 C7.01 6 6.02 6 5 6 C5.04125 6.763125 5.0825 7.52625 5.125 8.3125 C5 11 5 11 3 14 C0.9375 14.75 0.9375 14.75 -1 15 C-1.33 14.67 -1.66 14.34 -2 14 C-5.56394504 14.00911495 -9.11800644 14.13348277 -12.6796875 14.2578125 C-16 14 -16 14 -17.93359375 12.72265625 C-19.66163366 9.93120716 -19.18041143 7.18726852 -19 4 C-22.40362379 5.40839605 -24.06736372 6.86483448 -26 10 C-26.51171875 12.796875 -26.51171875 12.796875 -26.6875 15.75 C-26.75324219 16.73484375 -26.81898437 17.7196875 -26.88671875 18.734375 C-26.92410156 19.48203125 -26.96148437 20.2296875 -27 21 C-28.32 20.67 -29.64 20.34 -31 20 C-32.3475106 14.44151878 -32.98788637 9.86992777 -30.25 4.6875 C-28.18801409 2.22457238 -26.97465309 1.0623761 -24 0 C-24 0.66 -24 1.32 -24 2 C-23.4534375 1.8246875 -23.4534375 1.8246875 -20.6875 0.9375 C-17 0 -17 0 -14 1 C-14 0.34 -14 -0.32 -14 -1 C-8.72782244 -1.8499807 -4.91280293 -2.45640146 0 0 Z " fill="#D6AF6C" transform="translate(60,38)" />
<path d="M0 0 C0.66 0.66 1.32 1.32 2 2 C0.96463216 3.23447704 -0.07869393 4.46228012 -1.125 5.6875 C-1.70507812 6.37199219 -2.28515625 7.05648437 -2.8828125 7.76171875 C-9.96175229 15.24554255 -9.96175229 15.24554255 -15.71484375 15.59375 C-17.45600164 15.58847776 -19.1972541 15.55659336 -20.9375 15.5 C-21.80568359 15.50257812 -22.67386719 15.50515625 -23.56835938 15.5078125 C-29.10345031 15.42413766 -33.07035976 14.52182957 -38 12 C-38 11.34 -38 10.68 -38 10 C-37.41992188 10.08378906 -36.83984375 10.16757813 -36.2421875 10.25390625 C-31.57684697 10.86209421 -27.64557883 11.07205665 -23 10 C-23.33 9.34 -23.66 8.68 -24 8 C-23.34 7.34 -22.68 6.68 -22 6 C-23.32 4.68 -24.64 3.36 -26 2 C-25.01 2 -24.02 2 -23 2 C-22.67 2.33 -22.34 2.66 -22 3 C-20.58672053 3.15620555 -19.1664541 3.25056173 -17.74609375 3.31640625 C-16.89208984 3.35830078 -16.03808594 3.40019531 -15.15820312 3.44335938 C-14.26037109 3.48267578 -13.36253906 3.52199219 -12.4375 3.5625 C-11.53580078 3.60568359 -10.63410156 3.64886719 -9.70507812 3.69335938 C-7.47021515 3.79978142 -5.23523692 3.90179988 -3 4 C-3 3.34 -3 2.68 -3 2 C-2.01 1.34 -1.02 0.68 0 0 Z " fill="#A87120" transform="translate(63,75)" />
<path d="M0 0 C1.59138085 4.17737474 2.21278058 7.53160785 2 12 C2.66 12.33 3.32 12.66 4 13 C2.02 13 0.04 13 -2 13 C-2 12.34 -2 11.68 -2 11 C-2.66 11 -3.32 11 -4 11 C-4.98120464 7.94736336 -4.98120464 6.05263664 -4 3 C-7.86115959 3.39399588 -11.22138578 3.96747609 -14.75 5.5625 C-18 7 -18 7 -21 7 C-21 7.66 -21 8.32 -21 9 C-20.21625 9.0825 -19.4325 9.165 -18.625 9.25 C-16 10 -16 10 -14.5625 11.8125 C-14 14 -14 14 -14.72265625 15.9921875 C-16.21199996 18.33323541 -17.43303329 19.0454418 -19.875 20.3125 C-24.02971609 22.82937141 -26.42204365 25.36619647 -28 30 C-28.88243931 33.75347426 -29.62207927 37.48336904 -30.2890625 41.28125 C-31 45 -31 45 -32.08984375 48.5546875 C-33.29691938 53.1239609 -33.00539981 57.23056971 -32.77734375 61.9140625 C-33.0289521 65.40126589 -33.99379457 67.18188375 -36 70 C-32.37 70 -28.74 70 -25 70 C-24.67 70.66 -24.34 71.32 -24 72 C-28.29 72 -32.58 72 -37 72 C-37.165 71.175 -37.165 71.175 -38 67 C-37.67 66.67 -37.67 66.67 -36 65 C-35.9453125 62.99609375 -35.9453125 62.99609375 -36.125 60.4375 C-36.28156003 53.02046867 -34.3956988 46.18576973 -32.53491211 39.06420898 C-31.98469239 36.9409284 -31.4666578 34.81116556 -30.94921875 32.6796875 C-29.32964554 26.40134195 -26.94476858 22.23837307 -22 18 C-21.0925 17.649375 -20.185 17.29875 -19.25 16.9375 C-18.87875 16.7828125 -18.87875 16.7828125 -17 16 C-16.1875 13.875 -16.1875 13.875 -16 12 C-16.969375 11.731875 -17.93875 11.46375 -18.9375 11.1875 C-19.948125 10.795625 -20.95875 10.40375 -22 10 C-22.33 9.01 -22.66 8.02 -23 7 C-21.10807525 6.01330241 -19.21128022 5.0359398 -17.3125 4.0625 C-16.25675781 3.51722656 -15.20101562 2.97195312 -14.11328125 2.41015625 C-9.2981333 0.22914193 -5.25059696 -0.12210691 0 0 Z " fill="#52360E" transform="translate(56,18)" />
<path d="M0 0 C1 2 1 2 1.375 5 C2 8 2 8 5 10 C6.9896995 10.39013716 8.99019869 10.73202649 11 11 C11 10.34 11 9.68 11 9 C11.66 9 12.32 9 13 9 C13 9.66 13 10.32 13 11 C16.63 11 20.26 11 24 11 C23.67 11.66 23.34 12.32 23 13 C22.01 13 21.02 13 20 13 C20 14.32 20 15.64 20 17 C18.02 17 16.04 17 14 17 C13.67 17.66 13.34 18.32 13 19 C10.69 18.67 8.38 18.34 6 18 C6 18.66 6 19.32 6 20 C4.34385343 20.38218767 2.67542976 20.71395102 1 21 C0.67 20.67 0.34 20.34 0 20 C-0.721875 20.495 -1.44375 20.99 -2.1875 21.5 C-5.14848659 23.07919285 -6.71253029 23.28178312 -10 23 C-10.33 22.01 -10.66 21.02 -11 20 C-9.06532058 19.16013916 -7.12714871 18.32831973 -5.1875 17.5 C-4.10855469 17.0359375 -3.02960937 16.571875 -1.91796875 16.09375 C1 15 1 15 4 15 C3.21625 14.21625 2.4325 13.4325 1.625 12.625 C-3 8 -3 8 -3.3125 5.5625 C-2.95209822 2.60720543 -2.28773145 1.81112073 0 0 Z " fill="#C0BEA8" transform="translate(39,43)" />
<path d="M0 0 C-0.33 2.97 -0.66 5.94 -1 9 C-0.34 9 0.32 9 1 9 C1 9.66 1 10.32 1 11 C2.65 11 4.3 11 6 11 C6 11.99 6 12.98 6 14 C0.19233704 15.5056904 -4.9981863 16.21824777 -11 16 C-11.144375 15.401875 -11.28875 14.80375 -11.4375 14.1875 C-11.8872439 12.43849596 -12.42892341 10.71322977 -13 9 C-15.5625 7.8125 -15.5625 7.8125 -18 7 C-18 6.34 -18 5.68 -18 5 C-15.94175571 4.15621025 -13.87820214 3.32536378 -11.8125 2.5 C-10.66394531 2.0359375 -9.51539063 1.571875 -8.33203125 1.09375 C-5.28009923 0.09194348 -3.16884928 -0.23870804 0 0 Z " fill="#946A28" transform="translate(53,20)" />
<path d="M0 0 C0.99 0.33 1.98 0.66 3 1 C2.938125 2.11375 2.87625 3.2275 2.8125 4.375 C2.874375 5.57125 2.93625 6.7675 3 8 C6.59009023 10.39339348 8.13254498 10.18385169 12.375 10.0625 C16.44132516 9.95499945 20.03810212 10.04291231 24 11 C24.33 10.01 24.66 9.02 25 8 C25.66 7.01 26.32 6.02 27 5 C27.66 5 28.32 5 29 5 C30.60725635 8.21451269 30.05748185 11.43612536 30 15 C27.03312999 16.64826111 24.34373475 17.44271087 21 18 C20.67 17.01 20.34 16.02 20 15 C20.99 14.67 21.98 14.34 23 14 C19.7 13.67 16.4 13.34 13 13 C13 12.34 13 11.68 13 11 C12.34 11 11.68 11 11 11 C11 11.66 11 12.32 11 13 C6.94219787 13.47183746 5.43804676 13.33329645 2.125 10.8125 C0 8 0 8 -0.3125 5.1875 C-0.209375 4.465625 -0.10625 3.74375 0 3 C-2 5 -2 5 -2.5 7.3125 C-1.7398553 11.39827775 0.7582588 12.50115782 4 15 C4 15.66 4 16.32 4 17 C2.35 17.33 0.7 17.66 -1 18 C-3.73539592 15.17912296 -4.92072551 13.48445522 -5.5625 9.5625 C-4.82815674 4.91165937 -3.24591892 3.32706689 0 0 Z " fill="#826D45" transform="translate(39,41)" />
<path d="M0 0 C-0.25 1.875 -0.25 1.875 -1 4 C-3.0625 5.25 -3.0625 5.25 -5 6 C-2.61966018 7.19016991 -0.77381329 7.27992056 1.875 7.5 C4.38940092 7.71015888 6.73419753 7.93188216 9.1796875 8.55859375 C11.41259295 9.10004936 12.83903424 8.69459614 15 8 C15 7.34 15 6.68 15 6 C15.66 6 16.32 6 17 6 C17.33 4.68 17.66 3.36 18 2 C18.36666667 7.5 18.36666667 7.5 16.625 9.875 C15 11 15 11 13 11 C13 11.66 13 12.32 13 13 C9.87507749 13.05791844 6.75029234 13.09356746 3.625 13.125 C2.73554687 13.14175781 1.84609375 13.15851563 0.9296875 13.17578125 C0.07890625 13.18222656 -0.771875 13.18867187 -1.6484375 13.1953125 C-2.04119873 13.20054932 -2.04119873 13.20054932 -4.02880859 13.22705078 C-6 13 -6 13 -8 11 C-9.60725635 7.78548731 -9.05748185 4.56387464 -9 1 C-8.01 1 -7.02 1 -6 1 C-4 0 -4 0 0 0 Z " fill="#DB8A50" transform="translate(47,66)" />
<path d="M0 0 C0.3403125 0.144375 0.3403125 0.144375 2.0625 0.875 C5.32893093 2.12597355 8.62846123 3.07447955 12 4 C12.33 5.32 12.66 6.64 13 8 C12.01 8 11.02 8 10 8 C10.020625 8.3815625 10.020625 8.3815625 10.125 10.3125 C10 13 10 13 8 16 C4.16749064 17.84528229 0.84389569 16.25665821 -3 15 C-3 14.67 -3 14.34 -3 14 C-1.02 14 0.96 14 3 14 C2.34 10.7 1.68 7.4 1 4 C0.34 4 -0.32 4 -1 4 C-0.67 2.68 -0.34 1.36 0 0 Z " fill="#CB9B4D" transform="translate(55,36)" />
<path d="M0 0 C0.6290625 -0.00708984 0.6290625 -0.00708984 3.8125 -0.04296875 C7 0.1875 7 0.1875 9 2.1875 C7.68 2.1875 6.36 2.1875 5 2.1875 C5.99 4.1675 6.98 6.1475 8 8.1875 C3.04636392 10.16895443 -0.73952447 10.6117319 -6 10.1875 C-8.5 8.6875 -8.5 8.6875 -10 7.1875 C-8.02 6.8575 -6.04 6.5275 -4 6.1875 C-3.67 4.8675 -3.34 3.5475 -3 2.1875 C-5.64 3.1775 -8.28 4.1675 -11 5.1875 C-8.46749719 -0.42018479 -5.95199137 0.03049176 0 0 Z " fill="#F7CEA9" transform="translate(50,63.8125)" />
<path d="M0 0 C3.12407376 2.6554627 2.99625101 3.82539913 3.375 7.8125 C3.44387098 9.58248407 3.49398535 11.35368675 3.5 13.125 C2.84 13.125 2.18 13.125 1.5 13.125 C0.51 10.155 -0.48 7.185 -1.5 4.125 C-2.551875 4.00125 -3.60375 3.8775 -4.6875 3.75 C-8.5 3.125 -8.5 3.125 -10.875 2.0625 C-14.72509874 0.68746474 -18.45238 0.9662698 -22.5 1.125 C-22.5 1.785 -22.5 2.445 -22.5 3.125 C-23.49 3.455 -24.48 3.785 -25.5 4.125 C-25.5 3.465 -25.5 2.805 -25.5 2.125 C-26.098125 2.455 -26.69625 2.785 -27.3125 3.125 C-29.5 4.125 -29.5 4.125 -32.5 4.125 C-32.5 3.135 -32.5 2.145 -32.5 1.125 C-28.26516221 -0.56893512 -24.90544427 -1.01025446 -20.43359375 -0.875 C-18.5 -0.875 -18.5 -0.875 -15.5625 -1.4375 C-10.14766398 -2.211048 -5.26872718 -1.3171818 0 0 Z " fill="#9C7A3B" transform="translate(68.5,35.875)" />
<path d="M0 0 C0.66 0.66 1.32 1.32 2 2 C0.96463216 3.23447704 -0.07869393 4.46228012 -1.125 5.6875 C-1.70507812 6.37199219 -2.28515625 7.05648437 -2.8828125 7.76171875 C-9.96175229 15.24554255 -9.96175229 15.24554255 -15.71484375 15.59375 C-17.45600164 15.58847776 -19.1972541 15.55659336 -20.9375 15.5 C-21.80568359 15.50257812 -22.67386719 15.50515625 -23.56835938 15.5078125 C-29.10345031 15.42413766 -33.07035976 14.52182957 -38 12 C-38 11.34 -38 10.68 -38 10 C-37.42894531 10.16048828 -37.42894531 10.16048828 -34.5390625 10.97265625 C-30.11728047 12.0717738 -25.91895465 12.40072339 -21.375 12.4375 C-20.65054688 12.47037109 -19.92609375 12.50324219 -19.1796875 12.53710938 C-15.05964631 12.57816051 -12.6959776 12.14731988 -9.4765625 9.47265625 C-8.65929687 8.65667969 -7.84203125 7.84070313 -7 7 C-8.65 6.34 -10.3 5.68 -12 5 C-12 4.67 -12 4.34 -12 4 C-9.03 4 -6.06 4 -3 4 C-3 3.34 -3 2.68 -3 2 C-2.01 1.34 -1.02 0.68 0 0 Z " fill="#9E6714" transform="translate(63,75)" />
<path d="M0 0 C1.98 0 3.96 0 6 0 C6 0.99 6 1.98 6 3 C6.66 3 7.32 3 8 3 C8.66 6.3 9.32 9.6 10 13 C8.02 13.165 8.02 13.165 -2 14 C-2 9 -2 9 -0.5 7.1875 C-0.2525 6.9915625 -0.2525 6.9915625 1 6 C0.67 5.34 0.34 4.68 0 4 C0.66 4 1.32 4 2 4 C1.34 2.68 0.68 1.36 0 0 Z " fill="#D3A65A" transform="translate(48,37)" />
<path d="M0 0 C0.66 0 1.32 0 2 0 C2.6875 1.75 2.6875 1.75 3 4 C1.875 6.1875 1.875 6.1875 0 8 C-2.6875 8.75 -2.6875 8.75 -5 9 C-5 9.66 -5 10.32 -5 11 C-8.3755268 12.6877634 -12.16623711 12.18459799 -15.875 12.1875 C-16.69097656 12.19974609 -17.50695313 12.21199219 -18.34765625 12.22460938 C-18.74275391 12.22557617 -18.74275391 12.22557617 -20.7421875 12.23046875 C-21.4626123 12.23457764 -22.18303711 12.23868652 -22.92529297 12.24291992 C-25.30438021 11.96436122 -26.93021855 11.17652882 -29 10 C-28.37222656 10.01611328 -28.37222656 10.01611328 -25.1953125 10.09765625 C-9.96784957 10.12045868 -9.96784957 10.12045868 -3.9375 4.4375 C-2.62470913 2.95859148 -1.31212311 1.479501 0 0 Z " fill="#88550B" transform="translate(62,80)" />
<path d="M0 0 C6.46598407 1.67147887 11.62354477 3.79847534 16 9 C21.66450661 19.9244056 22.55785008 33.93390934 22 46 C20.25423046 42.92601502 19.63156532 40.36308883 19.25390625 36.859375 C19.13853516 35.87066406 19.02316406 34.88195312 18.90429688 33.86328125 C18.67817368 31.80362194 18.45418149 29.74372745 18.23242188 27.68359375 C17.39082073 20.51370995 16.39994566 14.10581203 11.875 8.25 C8.19508362 5.37006544 4.33233438 3.68951602 0 2 C0 1.34 0 0.68 0 0 Z " fill="#4D300B" transform="translate(60,32)" />
<path d="M0 0 C2.51083114 1.25541557 2.87125446 2.50063488 4 5 C3.51917969 5.54140625 3.03835937 6.0828125 2.54296875 6.640625 C0.68676442 9.47897288 0.51262344 11.38792626 0.3125 14.75 C0.24675781 15.73484375 0.18101563 16.7196875 0.11328125 17.734375 C0.07589844 18.48203125 0.03851563 19.2296875 0 20 C-1.32 19.67 -2.64 19.34 -4 19 C-5.37062159 13.34618594 -6.03767928 8.80757036 -3.0625 3.625 C-1 1 -1 1 0 0 Z " fill="#DBB471" transform="translate(33,39)" />
<path d="M0 0 C0.33 0.66 0.66 1.32 1 2 C1.66 2 2.32 2 3 2 C6.05414365 18.4160221 6.05414365 18.4160221 2.8828125 23.94921875 C1.5 25.3125 1.5 25.3125 -1 27 C-1.15178302 17.94361322 -0.69037426 9.02417777 0 0 Z " fill="#603304" transform="translate(75,49)" />
<path d="M0 0 C0.33 0 0.66 0 1 0 C1.33 3.3 1.66 6.6 2 10 C3.32 10.33 4.64 10.66 6 11 C5.814375 10.113125 5.62875 9.22625 5.4375 8.3125 C5.01957516 5.14821189 5.19222258 3.05160358 6 0 C6.33 0 6.66 0 7 0 C7.28875 1.11375 7.5775 2.2275 7.875 3.375 C9 7 9 7 11 9 C11 9.99 11 10.98 11 12 C9.54494642 12.52992692 8.08581873 13.0486789 6.625 13.5625 C6.21894531 13.70751953 6.21894531 13.70751953 4.1640625 14.44140625 C2 15 2 15 0 14 C-0.33 14.99 -0.66 15.98 -1 17 C-1.33 17 -1.66 17 -2 17 C-1.85848172 14.9163691 -1.71162064 12.83310062 -1.5625 10.75 C-1.48128906 9.58984375 -1.40007813 8.4296875 -1.31640625 7.234375 C-1.06752213 4.69022624 -0.71885058 2.44046752 0 0 Z " fill="#B49450" transform="translate(27,48)" />
<path d="M0 0 C0.66 0 1.32 0 2 0 C3.60725635 3.21451269 3.05748185 6.43612536 3 10 C0.03312999 11.64826111 -2.65626525 12.44271087 -6 13 C-6.33 12.01 -6.66 11.02 -7 10 C-6.01 9.67 -5.02 9.34 -4 9 C-5.65 9 -7.3 9 -9 9 C-8.67 8.01 -8.34 7.02 -8 6 C-6.35 6 -4.7 6 -3 6 C-2.67 5.01 -2.34 4.02 -2 3 C-1.34 2.01 -0.68 1.02 0 0 Z " fill="#84764A" transform="translate(66,46)" />
<path d="M0 0 C-0.25 1.875 -0.25 1.875 -1 4 C-3.0625 5.25 -3.0625 5.25 -5 6 C-2.56612247 7.21693876 -0.58161154 7.31959896 2.125 7.5625 C3.03507812 7.64628906 3.94515625 7.73007813 4.8828125 7.81640625 C5.58148438 7.87699219 6.28015625 7.93757813 7 8 C3.49947109 10.33368594 2.00385663 10.24221979 -2.125 10.1875 C-3.20007812 10.18105469 -4.27515625 10.17460938 -5.3828125 10.16796875 C-8 10 -8 10 -9 9 C-9.14115161 6.32941149 -9.04247107 3.67567762 -9 1 C-8.01 1 -7.02 1 -6 1 C-4 0 -4 0 0 0 Z " fill="#F79F65" transform="translate(47,66)" />
<path d="M0 0 C0 0.66 0 1.32 0 2 C0.66 2 1.32 2 2 2 C2 2.99 2 3.98 2 5 C0.34385343 5.38218767 -1.32457024 5.71395102 -3 6 C-3.33 5.67 -3.66 5.34 -4 5 C-4.721875 5.495 -5.44375 5.99 -6.1875 6.5 C-9.14848659 8.07919285 -10.71253029 8.28178312 -14 8 C-14.33 7.01 -14.66 6.02 -15 5 C-13.06532058 4.16013916 -11.12714871 3.32831973 -9.1875 2.5 C-8.10855469 2.0359375 -7.02960937 1.571875 -5.91796875 1.09375 C-3 0 -3 0 0 0 Z " fill="#E4DEA9" transform="translate(43,58)" />
<path d="M0 0 C0 0.99 0 1.98 0 3 C-5.80766296 4.5056904 -10.9981863 5.21824777 -17 5 C-17.33 3.68 -17.66 2.36 -18 1 C-11.97968656 0.39034801 -6.05329744 -0.13451772 0 0 Z " fill="#D3C49E" transform="translate(59,31)" />
<path d="M0 0 C3.32719482 0.55453247 6.21422422 1.04995695 9 3 C9.609375 5.6015625 9.609375 5.6015625 9.75 8.625 C9.80671875 9.62789062 9.8634375 10.63078125 9.921875 11.6640625 C9.93476562 12.04949219 9.93476562 12.04949219 10 14 C9.34 14 8.68 14 8 14 C7.01 11.03 6.02 8.06 5 5 C3.35 4.67 1.7 4.34 0 4 C0 2.68 0 1.36 0 0 Z " fill="#A27630" transform="translate(62,35)" />
<path d="M0 0 C0 0.33 0 0.66 0 1 C-12.62250702 4.91829486 -23.78601478 6.71042931 -37 6 C-37 5.67 -37 5.34 -37 5 C-35.74445312 4.89042969 -34.48890625 4.78085938 -33.1953125 4.66796875 C-17.58040492 3.21737799 -17.58040492 3.21737799 -10.08984375 0.59765625 C-6.67765207 -0.37816679 -3.52405901 -0.19578106 0 0 Z " fill="#452504" transform="translate(81,88)" />
<path d="M0 0 C0.33 0 0.66 0 1 0 C1.09796875 0.67546875 1.1959375 1.3509375 1.296875 2.046875 C2.72763685 10.58210948 2.72763685 10.58210948 7 14 C7 14.66 7 15.32 7 16 C5.68 15.67 4.36 15.34 3 15 C3 15.66 3 16.32 3 17 C3.66 17.33 4.32 17.66 5 18 C2.69 18 0.38 18 -2 18 C-1.855625 17.443125 -1.71125 16.88625 -1.5625 16.3125 C-1.376875 15.549375 -1.19125 14.78625 -1 14 C-0.814375 13.278125 -0.62875 12.55625 -0.4375 11.8125 C0.17576924 7.87005491 0.07806673 3.98140326 0 0 Z " fill="#A87D32" transform="translate(22,70)" />
<path d="M0 0 C1.32 1.65 2.64 3.3 4 5 C0.97825685 8.02174315 -1.86097055 8.08074601 -6 8.25 C-9.54409271 8.22355155 -11.4238435 7.5761565 -14 5 C-12.34385343 4.61781233 -10.67542976 4.28604898 -9 4 C-8.67 4.33 -8.34 4.66 -8 5 C-6.00041636 5.04080783 -3.99954746 5.04254356 -2 5 C-2 4.34 -2 3.68 -2 3 C-1.34 3 -0.68 3 0 3 C0 2.01 0 1.02 0 0 Z " fill="#EBB98C" transform="translate(54,66)" />
<path d="M0 0 C0.66 0.33 1.32 0.66 2 1 C2.40729228 3.32156597 2.74438677 5.6568787 3 8 C2.67 8 2.34 8 2 8 C1.95101562 8.89203125 1.90203125 9.7840625 1.8515625 10.703125 C1.81417969 11.28835937 1.81417969 11.28835937 1.625 14.25 C1.55539063 15.41015625 1.48578125 16.5703125 1.4140625 17.765625 C1.03751692 20.70694334 0.5225877 22.49949011 -1 25 C-2.65 24.67 -4.3 24.34 -6 24 C-5.360625 23.79375 -4.72125 23.5875 -4.0625 23.375 C-2 22 -2 22 -1.40625 19.4375 C-0.94106556 15.50132401 -0.65571066 11.58140969 -0.4375 7.625 C-0.4159082 7.25697266 -0.4159082 7.25697266 -0.30664062 5.39453125 C-0.20156201 3.59651932 -0.10037907 1.79828042 0 0 Z " fill="#72480A" transform="translate(74,43)" />
<path d="M0 0 C0.99 0 1.98 0 3 0 C3.33 1.32 3.66 2.64 4 4 C3.01 4 2.02 4 1 4 C1.020625 4.3815625 1.020625 4.3815625 1.125 6.3125 C1 9 1 9 -1 12 C-4.83250936 13.84528229 -8.15610431 12.25665821 -12 11 C-12 10.67 -12 10.34 -12 10 C-10.02 10 -8.04 10 -6 10 C-5.67 9.34 -5.34 8.68 -5 8 C-4.01 7.67 -3.02 7.34 -2 7 C-0.8125 3.4375 -0.8125 3.4375 0 0 Z " fill="#BC9650" transform="translate(64,40)" />
<path d="M0 0 C0.66 0 1.32 0 2 0 C2.66 0.66 3.32 1.32 4 2 C5.99956611 2.04165763 8.00043389 2.04165763 10 2 C10.66 2.33 11.32 2.66 12 3 C12 3.66 12 4.32 12 5 C10.68 5.33 9.36 5.66 8 6 C8 6.66 8 7.32 8 8 C5.2980567 7.63487253 3.41609148 7.30130763 1.1875 5.6875 C0 4 0 4 0 0 Z " fill="#8B6630" transform="translate(60,60)" />
<path d="M0 0 C1 2 1 2 1.375 5 C2 8 2 8 5 10 C6.9896995 10.39013716 8.99019869 10.73202649 11 11 C11 11.33 11 11.66 11 12 C7.9375 13.375 7.9375 13.375 4 14 C1.0674997 12.51110506 -1.00407753 10.6023532 -3 8 C-3.625 5.3125 -3.625 5.3125 -3 3 C-1.5 1.1875 -1.5 1.1875 0 0 Z " fill="#B9B79F" transform="translate(39,43)" />
<path d="M0 0 C0.99 0.99 1.98 1.98 3 3 C2.34 3 1.68 3 1 3 C0.79375 3.598125 0.5875 4.19625 0.375 4.8125 C-1.60468364 7.9619967 -3.53107742 8.71521386 -7 10 C-9.72423367 10.23028594 -12.25726355 10.14186568 -15 10 C-11.73454239 8.11608215 -8.71888239 7.50712033 -5 7 C-4.67 5.68 -4.34 4.36 -4 3 C-3.01 3 -2.02 3 -1 3 C-0.67 2.01 -0.34 1.02 0 0 Z " fill="#693A03" transform="translate(70,82)" />
<path d="M0 0 C0.66 0 1.32 0 2 0 C2.226875 0.7425 2.45375 1.485 2.6875 2.25 C4.24373966 5.51069263 6.163304 6.83515305 9 9 C9 9.66 9 10.32 9 11 C7.35 11.33 5.7 11.66 4 12 C1.02449969 8.9315153 0.03525487 7.53763669 -0.25 3.1875 C-0.1675 2.135625 -0.085 1.08375 0 0 Z " fill="#7B7254" transform="translate(34,47)" />
<path d="M0 0 C-2.34358056 2.66524848 -4.60081193 3.91644012 -7.875 5.25 C-8.71804687 5.60578125 -9.56109375 5.9615625 -10.4296875 6.328125 C-13.34177787 7.08934011 -15.12980426 6.80242031 -18 6 C-15.3612314 4.24082094 -13.03921171 3.07080116 -10.125 1.875 C-9.70347656 1.69839844 -9.70347656 1.69839844 -7.5703125 0.8046875 C-4.89833906 -0.03182698 -2.78118973 -0.14952633 0 0 Z " fill="#BC9356" transform="translate(53,20)" />
<path d="M0 0 C1.48199902 0.44909061 2.96055236 0.90956564 4.4375 1.375 C5.26121094 1.63023438 6.08492187 1.88546875 6.93359375 2.1484375 C9 3 9 3 10 5 C8.02 5 6.04 5 4 5 C3.67 4.01 3.34 3.02 3 2 C2.34 2 1.68 2 1 2 C1.33 3.32 1.66 4.64 2 6 C0.515 5.67 0.515 5.67 -7 4 C-6.67 3.01 -6.34 2.02 -6 1 C-5.01 1.165 -5.01 1.165 0 2 C0 1.34 0 0.68 0 0 Z " fill="#C2B789" transform="translate(59,58)" />
<path d="M0 0 C0.33 0 0.66 0 1 0 C1 1.65 1 3.3 1 5 C0.01 5 -0.98 5 -2 5 C-2.33 5.66 -2.66 6.32 -3 7 C-3.61875 6.649375 -4.2375 6.29875 -4.875 5.9375 C-5.225625 5.7828125 -5.225625 5.7828125 -7 5 C-7.33 5.165 -7.33 5.165 -9 6 C-10.5 4.625 -10.5 4.625 -12 3 C-12 2.34 -12 1.68 -12 1 C-11.34 1 -10.68 1 -10 1 C-10 1.66 -10 2.32 -10 3 C-9.4534375 2.8246875 -9.4534375 2.8246875 -6.6875 1.9375 C-3 1 -3 1 0 2 C0 1.34 0 0.68 0 0 Z " fill="#CEA863" transform="translate(46,37)" />
<path d="M0 0 C0.33 0 0.66 0 1 0 C1.05447047 1.41623216 1.09300508 2.83308191 1.125 4.25 C1.14820312 5.03890625 1.17140625 5.8278125 1.1953125 6.640625 C0.9828378 9.20731941 0.28654105 10.7916067 -1 13 C-3.13093906 11.93453047 -4.36587557 10.70840281 -6 9 C-5.01 8.67 -4.02 8.34 -3 8 C-2.25740651 5.68970915 -1.588562 3.354248 -1 1 C-0.67 0.67 -0.34 0.34 0 0 Z " fill="#805007" transform="translate(73,50)" />
<path d="M0 0 C2.36568222 2.36568222 2.25571704 2.85232226 2.265625 6.0625 C2.26691406 6.46082031 2.26691406 6.46082031 2.2734375 8.4765625 C2.26570313 9.30929688 2.25796875 10.14203125 2.25 11 C2.25773437 11.83273438 2.26546875 12.66546875 2.2734375 13.5234375 C2.27085938 14.32007813 2.26828125 15.11671875 2.265625 15.9375 C2.26336914 16.66839844 2.26111328 17.39929688 2.25878906 18.15234375 C2 20 2 20 0 22 C-0.90249856 16.85910079 -0.97986395 12.30273626 -0.5625 7.0625 C-0.51029297 6.37865234 -0.45808594 5.69480469 -0.40429688 4.99023438 C-0.27630102 3.32628831 -0.13912281 1.6630527 0 0 Z " fill="#6A3C02" transform="translate(75,49)" />
<path d="M0 0 C0.66 0.33 1.32 0.66 2 1 C2.76402678 4.43812051 3 7.46528079 3 11 C1.68 10.67 0.36 10.34 -1 10 C-1.33 7.03 -1.66 4.06 -2 1 C-1.34 0.67 -0.68 0.34 0 0 Z " fill="#DDAE60" transform="translate(30,48)" />
<path d="M0 0 C0.66 0 1.32 0 2 0 C3.50662097 3.01324195 3.17770373 5.68286377 3 9 C2.34 9.66 1.68 10.32 1 11 C1 10.34 1 9.68 1 9 C0.34 9 -0.32 9 -1 9 C-2.0326802 6.21176345 -2.04509293 5.1322726 -1.0625 2.25 C-0.711875 1.5075 -0.36125 0.765 0 0 Z " fill="#6E4610" transform="translate(53,20)" />
<path d="M0 0 C0.4640625 0.1134375 0.4640625 0.1134375 2.8125 0.6875 C2.125 3.125 2.125 3.125 0.8125 5.6875 C-1.8125 6.5 -1.8125 6.5 -4.1875 6.6875 C-4.8475 5.3675 -5.5075 4.0475 -6.1875 2.6875 C-4.14987265 -0.14253799 -3.59070275 -0.35202968 0 0 Z " fill="#B17D2A" transform="translate(45.1875,80.3125)" />
<path d="M0 0 C-0.33 2.31 -0.66 4.62 -1 7 C-2.32 7.33 -3.64 7.66 -5 8 C-5.33 7.01 -5.66 6.02 -6 5 C-7.32 5 -8.64 5 -10 5 C-10 4.34 -10 3.68 -10 3 C-8.70990357 2.49596232 -7.41786211 1.99690074 -6.125 1.5 C-5.76535156 1.36078125 -5.76535156 1.36078125 -3.9453125 0.65625 C-2 0 -2 0 0 0 Z " fill="#A3742B" transform="translate(52,22)" />
<path d="M0 0 C0.33 0 0.66 0 1 0 C1.33 1.98 1.66 3.96 2 6 C-0.96687001 7.64826111 -3.65626525 8.44271087 -7 9 C-7.33 8.01 -7.66 7.02 -8 6 C-7.05125 5.566875 -6.1025 5.13375 -5.125 4.6875 C-2 3 -2 3 0 0 Z " fill="#6F6A4A" transform="translate(67,50)" />
<path d="M0 0 C1.98 0 3.96 0 6 0 C7.59138085 4.17737474 8.21278058 7.53160785 8 12 C8.66 12.33 9.32 12.66 10 13 C8.35 13 6.7 13 5 13 C5 9.37 5 5.74 5 2 C3.35 1.67 1.7 1.34 0 1 C0 0.67 0 0.34 0 0 Z " fill="#513716" transform="translate(50,18)" />
<path d="M0 0 C4.29 0 8.58 0 13 0 C12.67 0.99 12.34 1.98 12 3 C10.35 3 8.7 3 7 3 C7 2.34 7 1.68 7 1 C6.34 1 5.68 1 5 1 C5 1.66 5 2.32 5 3 C3.35 3 1.7 3 0 3 C0 2.01 0 1.02 0 0 Z " fill="#3D2E13" transform="translate(45,51)" />
<path d="M0 0 C-0.66 1.98 -1.32 3.96 -2 6 C-2.66 6 -3.32 6 -4 6 C-4.33 6.66 -4.66 7.32 -5 8 C-5.66 8 -6.32 8 -7 8 C-6.67 5.36 -6.34 2.72 -6 0 C-3 -1 -3 -1 0 0 Z " fill="#87530B" transform="translate(71,68)" />
<path d="M0 0 C1.24546405 2.49092811 0.7767578 3.41080733 0 6 C-0.99 6 -1.98 6 -3 6 C-3.66 8.31 -4.32 10.62 -5 13 C-7 10 -7 10 -6.4375 7.0625 C-4.81351568 3.60270732 -3.12182884 2.13598815 0 0 Z " fill="#AF8943" transform="translate(40,61)" />
<path d="M0 0 C0.33 0 0.66 0 1 0 C1.28875 1.11375 1.5775 2.2275 1.875 3.375 C3 7 3 7 5 9 C4.67 9.99 4.34 10.98 4 12 C2.02 12 0.04 12 -2 12 C-1.34 11.67 -0.68 11.34 0 11 C-0.185625 10.113125 -0.37125 9.22625 -0.5625 8.3125 C-0.98042484 5.14821189 -0.80777742 3.05160358 0 0 Z " fill="#C0A067" transform="translate(33,48)" />
<path d="M0 0 C0.99 0.33 1.98 0.66 3 1 C2.75 4.375 2.75 4.375 2 8 C-0.0625 9.4375 -0.0625 9.4375 -2 10 C-2.33 8.35 -2.66 6.7 -3 5 C-2.01 5 -1.02 5 0 5 C0 3.35 0 1.7 0 0 Z " fill="#D9AD60" transform="translate(47,37)" />
<path d="M0 0 C0.33 0 0.66 0 1 0 C0.74438677 2.3431213 0.40729228 4.67843403 0 7 C-0.33 7.165 -0.33 7.165 -2 8 C-1.01 8.99 -0.02 9.98 1 11 C-1.76276177 10.47731534 -4.3260876 9.89130413 -7 9 C-6.67 7.68 -6.34 6.36 -6 5 C-4.35 4.67 -2.7 4.34 -1 4 C-0.67 2.68 -0.34 1.36 0 0 Z " fill="#614C1E" transform="translate(70,51)" />
<path d="M0 0 C0.40863281 0.00451172 0.40863281 0.00451172 2.4765625 0.02734375 C2.78980469 0.03314453 2.78980469 0.03314453 4.375 0.0625 C3.92125 0.495625 3.4675 0.92875 3 1.375 C1.375 3.0625 1.375 3.0625 -0.625 6.0625 C-0.625 4.7425 -0.625 3.4225 -0.625 2.0625 C-3.265 3.0525 -5.905 4.0425 -8.625 5.0625 C-6.51899199 0.39919656 -5.01778996 -0.07168271 0 0 Z " fill="#FBD6B0" transform="translate(47.625,63.9375)" />
<path d="M0 0 C1.32 0 2.64 0 4 0 C4 1.65 4 3.3 4 5 C0.25 6.125 0.25 6.125 -2 5 C-1.125 1.125 -1.125 1.125 0 0 Z " fill="#D7DAD0" transform="translate(45,55)" />
<path d="M0 0 C3.82097239 0.53069061 6.06171403 1.49701566 9 4 C5.06329512 5.31223496 2.87511856 4.24296256 -1 3 C-0.67 2.01 -0.34 1.02 0 0 Z " fill="#976A2B" transform="translate(62,35)" />
<path d="M0 0 C0.33 0 0.66 0 1 0 C1.33 3.63 1.66 7.26 2 11 C1.01 11.33 0.02 11.66 -1 12 C-1.14285714 3.42857143 -1.14285714 3.42857143 0 0 Z " fill="#C29453" transform="translate(27,48)" />
<path d="M0 0 C0.66 0.66 1.32 1.32 2 2 C0.0625 4.0625 0.0625 4.0625 -3 6 C-6.08062179 6.05666696 -8.98465651 5.60438257 -12 5 C-12 4.67 -12 4.34 -12 4 C-9.03 4 -6.06 4 -3 4 C-3 3.34 -3 2.68 -3 2 C-2.01 1.34 -1.02 0.68 0 0 Z " fill="#965713" transform="translate(63,75)" />
<path d="M0 0 C-0.33 1.32 -0.66 2.64 -1 4 C-2.65 4.33 -4.3 4.66 -6 5 C-6 3.68 -6 2.36 -6 1 C-4 0 -4 0 0 0 Z " fill="#B97C54" transform="translate(47,66)" />
<path d="M0 0 C1.32 0 2.64 0 4 0 C4 0.66 4 1.32 4 2 C5.32 1.34 6.64 0.68 8 0 C8.33 0.99 8.66 1.98 9 3 C7.02 3 5.04 3 3 3 C2.67 3.66 2.34 4.32 2 5 C1.01 4.67 0.02 4.34 -1 4 C-0.67 2.68 -0.34 1.36 0 0 Z " fill="#EFEDD6" transform="translate(50,57)" />
<path d="M0 0 C0.33 0.66 0.66 1.32 1 2 C1.66 2 2.32 2 3 2 C3 2.66 3 3.32 3 4 C-0.21451269 5.60725635 -3.43612536 5.05748185 -7 5 C-7 4.34 -7 3.68 -7 3 C-5.845 2.835 -5.845 2.835 0 2 C0 1.34 0 0.68 0 0 Z " fill="#947535" transform="translate(51,27)" />
<path d="M0 0 C0.33 0.66 0.66 1.32 1 2 C3.31 2 5.62 2 8 2 C8 2.66 8 3.32 8 4 C0.61538462 4.36923077 0.61538462 4.36923077 -2.5 2.5 C-2.995 2.005 -3.49 1.51 -4 1 C-2.68 0.67 -1.36 0.34 0 0 Z " fill="#FAC48B" transform="translate(44,70)" />
<path d="M0 0 C0.825 0.165 0.825 0.165 5 1 C5.33 2.32 5.66 3.64 6 5 C4.35 4.67 2.7 4.34 1 4 C0.67 2.68 0.34 1.36 0 0 Z " fill="#A56B43" transform="translate(55,66)" />
<path d="M0 0 C0 0.66 0 1.32 0 2 C-0.99 2.33 -1.98 2.66 -3 3 C-3 2.34 -3 1.68 -3 1 C-3.598125 1.33 -4.19625 1.66 -4.8125 2 C-7 3 -7 3 -10 3 C-10 2.01 -10 1.02 -10 0 C-6.7169902 -1.6415049 -3.57454967 -0.51888624 0 0 Z " fill="#B48A43" transform="translate(46,37)" />
<path d="M0 0 C-2 3 -2 3 -3.9453125 3.51171875 C-4.66460937 3.56972656 -5.38390625 3.62773438 -6.125 3.6875 C-6.764375 3.7390625 -6.764375 3.7390625 -10 4 C-6.66064924 0.50886057 -4.84725717 -0.1275594 0 0 Z " fill="#D3C98A" transform="translate(39,62)" />
<path d="M0 0 C0.99 0 1.98 0 3 0 C3.33 1.32 3.66 2.64 4 4 C3.01 4.33 2.02 4.66 1 5 C-0.6875 7.5625 -0.6875 7.5625 -2 10 C-2 6.38970831 -1.03907418 3.44193324 0 0 Z " fill="#BA8C41" transform="translate(64,40)" />
<path d="M0 0 C0.61875 0.78375 1.2375 1.5675 1.875 2.375 C4 5 4 5 6 7 C4.02 7.33 2.04 7.66 0 8 C0 5.36 0 2.72 0 0 Z " fill="#F4A76C" transform="translate(38,67)" />
<path d="M0 0 C3.3 0.66 6.6 1.32 10 2 C10 2.33 10 2.66 10 3 C9.58427734 3.03029297 9.58427734 3.03029297 7.48046875 3.18359375 C6.93712891 3.22548828 6.93712891 3.22548828 4.1875 3.4375 C3.64802734 3.47810547 3.64802734 3.47810547 0.91796875 3.68359375 C-2 4 -2 4 -5 5 C-5 4.34 -5 3.68 -5 3 C-3.35 2.67 -1.7 2.34 0 2 C0 1.34 0 0.68 0 0 Z " fill="#CFB080" transform="translate(45,61)" />
<path d="M0 0 C1.46067199 0.45082469 2.91848032 0.91093537 4.375 1.375 C5.18710937 1.63023438 5.99921875 1.88546875 6.8359375 2.1484375 C9 3 9 3 11 5 C7.1936543 4.32829194 3.64793184 3.27253436 0 2 C0 1.34 0 0.68 0 0 Z " fill="#966319" transform="translate(25,85)" />
<path d="M0 0 C5.75 -0.125 5.75 -0.125 8 1 C8 1.66 8 2.32 8 3 C5.39417629 3.93065133 4.35801776 4.14917407 1.75 3.0625 C1.1725 2.711875 0.595 2.36125 0 2 C0 1.34 0 0.68 0 0 Z " fill="#A18A4F" transform="translate(64,62)" />
<path d="M0 0 C0.66 0 1.32 0 2 0 C1.67 1.32 1.34 2.64 1 4 C1.66 4.33 2.32 4.66 3 5 C2.67 5.66 2.34 6.32 2 7 C-0.13093906 5.93453047 -1.36587557 4.70840281 -3 3 C-2.01 2.67 -1.02 2.34 0 2 C0 1.34 0 0.68 0 0 Z " fill="#865F21" transform="translate(70,56)" />
<path d="M0 0 C0.66 0 1.32 0 2 0 C1.67 2.97 1.34 5.94 1 9 C0.34 9 -0.32 9 -1 9 C-2.0326802 6.21176345 -2.04509293 5.1322726 -1.0625 2.25 C-0.711875 1.5075 -0.36125 0.765 0 0 Z " fill="#845A20" transform="translate(53,20)" />
<path d="M0 0 C0 0.66 0 1.32 0 2 C-3.63423209 4.32590854 -6.77088331 4.16265833 -11 4 C-7.61125486 1.74083657 -4.15175481 0 0 0 Z " fill="#DB8E5A" transform="translate(62,72)" />
<path d="M0 0 C0.66 0 1.32 0 2 0 C2 0.66 2 1.32 2 2 C3.65 2 5.3 2 7 2 C7 2.66 7 3.32 7 4 C5.02 4 3.04 4 1 4 C0.67 2.68 0.34 1.36 0 0 Z " fill="#D2D4C1" transform="translate(50,52)" />
</svg>