<?xml version='1.0' encoding='utf-8'?>
<svg xmlns="http://www.w3.org/2000/svg" version="1.1" width="93" height="103">
<path d="M0 0 C1.94978691 0.89892773 3.79195013 1.93309652 5.66796875 2.9765625 C10.18745041 4.95998661 15.13583008 5.38387181 20 6 C20.6796875 7.78515625 20.6796875 7.78515625 21 10 C19.8203125 11.74609375 19.8203125 11.74609375 18.125 13.4375 C14.59594656 17.25247212 14 19.8415358 14 25 C13.01 25 12.02 25 11 25 C11 25.66 11 26.32 11 27 C1.28064407 30.38118801 -7.60112262 32.80413073 -18 33 C-18.14308594 33.59296875 -18.28617188 34.1859375 -18.43359375 34.796875 C-19.14947394 37.5814021 -20.0725933 40.27960702 -21 43 C-21.99 43 -22.98 43 -24 43 C-24.125 48.75 -24.125 48.75 -23 51 C-22.236875 51.103125 -21.47375 51.20625 -20.6875 51.3125 C-18 52 -18 52 -15.5625 54.125 C-14 57 -14 57 -14.75 60.8125 C-15.1625 61.864375 -15.575 62.91625 -16 64 C-17.79206547 63.85915204 -19.58364917 63.71216299 -21.375 63.5625 C-22.37273438 63.48128906 -23.37046875 63.40007812 -24.3984375 63.31640625 C-27 63 -27 63 -29 62 C-29.165 62.165 -29.165 62.165 -30 63 C-31.99958364 63.04080783 -34.00045254 63.04254356 -36 63 C-35.8453125 62.484375 -35.690625 61.96875 -35.53125 61.4375 C-34.84589491 58.29292958 -34.69053553 55.21188467 -34.5 52 C-34.27340953 48.18033203 -33.94906134 44.69511589 -33 41 C-32.91082801 39.43949024 -32.8698329 37.87554692 -32.875 36.3125 C-32.87242188 35.52488281 -32.86984375 34.73726562 -32.8671875 33.92578125 C-33 32 -33 32 -34 31 C-34.07258946 28.81360547 -34.08373783 26.62499611 -34.0625 24.4375 C-34.05347656 23.23996094 -34.04445313 22.04242188 -34.03515625 20.80859375 C-34.02355469 19.88175781 -34.01195313 18.95492187 -34 18 C-27.49939686 14.1761158 -27.49939686 14.1761158 -24.57421875 13.14453125 C-21.44396716 11.75278054 -19.47707788 9.91959442 -17 7.5625 C-11.56882677 2.41137164 -7.7706509 -0.92194163 0 0 Z " fill="#E1C7A2" transform="translate(54,18)" />
<path d="M0 0 C-0.66 1.32 -1.32 2.64 -2 4 C-1.34 4.99 -0.68 5.98 0 7 C-0.375 9.6875 -0.375 9.6875 -1 12 C-1.66 12 -2.32 12 -3 12 C-2.75 14.375 -2.75 14.375 -2 17 C0.0625 18.3125 0.0625 18.3125 2 19 C1.875 21.3125 1.875 21.3125 1 24 C0.05125 24.4125 -0.8975 24.825 -1.875 25.25 C-5.44912674 27.25151098 -5.59597925 27.83275251 -6.75 31.5625 C-6.95109375 32.34753906 -7.1521875 33.13257813 -7.359375 33.94140625 C-8 36 -8 36 -10 38 C-13.39597063 38.21676408 -15.75778445 38.08073852 -19 37 C-21.33491639 37.32205743 -23.66842508 37.65458149 -26 38 C-27 37 -27 37 -27.375 33.625 C-28.00490055 29.9715768 -28.2953038 29.23431425 -31 27 C-31 26.34 -31 25.68 -31 25 C-31.391875 25.0309375 -31.391875 25.0309375 -33.375 25.1875 C-34.24125 25.125625 -35.1075 25.06375 -36 25 C-38 22 -38 22 -37.625 18.8125 C-37.41875 17.884375 -37.2125 16.95625 -37 16 C-36.01 16 -35.02 16 -34 16 C-34.061875 15.278125 -34.12375 14.55625 -34.1875 13.8125 C-33.95132444 10.26986666 -33.22935696 8.76994251 -31 6 C-28.41765985 5.2228789 -26.26375237 4.76571844 -23.625 4.4375 C-16.95003064 3.42277058 -10.87672198 1.86349289 -4.4765625 -0.328125 C-2 -1 -2 -1 0 0 Z " fill="#AA7E2F" transform="translate(67,45)" />
<path d="M0 0 C2.01991245 0.91701547 3.92791671 1.96686359 5.8671875 3.04296875 C9.43648125 4.64457492 13.12967641 4.82081835 17 5 C17.165 5.99 17.165 5.99 18 11 C4.12082458 17.21313841 -7.27289259 21.07576463 -22.5625 21.3125 C-23.45702881 21.33054687 -24.35155762 21.34859375 -25.27319336 21.3671875 C-26.11245361 21.36589844 -26.95171387 21.36460938 -27.81640625 21.36328125 C-28.57381104 21.36626221 -29.33121582 21.36924316 -30.11157227 21.37231445 C-30.42316284 21.31088257 -30.42316284 21.31088257 -32 21 C-32.66 20.01 -33.32 19.02 -34 18 C-27.49939686 14.1761158 -27.49939686 14.1761158 -24.57421875 13.14453125 C-21.44396716 11.75278054 -19.47707788 9.91959442 -17 7.5625 C-11.56882677 2.41137164 -7.7706509 -0.92194163 0 0 Z " fill="#EED03B" transform="translate(54,18)" />
<path d="M0 0 C1.72188694 1.00182513 3.44504604 2.00492516 5.11328125 3.09375 C8.15091834 4.55282206 11.24181865 4.48871334 14.5703125 4.53125 C18.01858295 5.19651118 19.60435458 6.45020001 22 9 C22.70703125 12.234375 22.70703125 12.234375 22.8125 15.75 C22.86019531 16.92046875 22.90789062 18.0909375 22.95703125 19.296875 C22.97121094 20.18890625 22.98539063 21.0809375 23 22 C22.67 22.165 22.67 22.165 21 23 C21.06058594 23.78761719 21.12117188 24.57523438 21.18359375 25.38671875 C21.35996483 27.67954275 21.53429767 29.97252409 21.70703125 32.265625 C21.89753796 34.69395059 22.10248865 37.12120112 22.32421875 39.546875 C22.37384766 40.10632813 22.37384766 40.10632813 22.625 42.9375 C22.67269531 43.44732422 22.67269531 43.44732422 22.9140625 46.02734375 C23 49 23 49 22.3984375 52.25390625 C22.26695313 53.16011719 22.13546875 54.06632812 22 55 C22.66 55.66 23.32 56.32 24 57 C24.125 59.625 24.125 59.625 24 62 C23.62617187 62.13277344 23.62617187 62.13277344 21.734375 62.8046875 C20.74953125 63.15789062 19.7646875 63.51109375 18.75 63.875 C17.77546875 64.22304687 16.8009375 64.57109375 15.796875 64.9296875 C13 66 13 66 10.78125 67.15625 C8.48739774 68.2428116 7.33759423 67.83485508 5 67 C5.86625 66.690625 6.7325 66.38125 7.625 66.0625 C12.27027091 63.22372333 14.73979634 59.94502745 17 55 C17.68251794 50.77316017 17.57561728 46.70447521 17.375 42.4375 C17.34792969 41.33341797 17.32085937 40.22933594 17.29296875 39.09179688 C17.22285556 36.39243915 17.12465284 33.69729577 17 31 C14.36 31 11.72 31 9 31 C9 29.68 9 28.36 9 27 C9.99 26.34 10.98 25.68 12 25 C11.7525 24.29875 11.505 23.5975 11.25 22.875 C10.89559718 18.79936759 12.53082463 17.15505742 15 14 C15.28875 13.7215625 15.28875 13.7215625 16.75 12.3125 C18 11 18 11 18 8 C17.2265625 7.90203125 16.453125 7.8040625 15.65625 7.703125 C6.10459999 6.33184851 6.10459999 6.33184851 1.6875 3.875 C-2.17721649 1.80009073 -4.54076242 1.09303642 -9 2 C-14.03288072 5.01391847 -18.5617291 8.45648977 -22.5625 12.75 C-26.16711144 16.07733364 -30.41431058 17.40613902 -35 19 C-35.02685938 21.14576637 -35.04633088 23.29162645 -35.0625 25.4375 C-35.07410156 26.63246094 -35.08570313 27.82742187 -35.09765625 29.05859375 C-35 32 -35 32 -34 33 C-33.92820036 34.51928038 -33.91607993 36.04167482 -33.9375 37.5625 C-33.94652344 38.38878906 -33.95554687 39.21507812 -33.96484375 40.06640625 C-33.97644531 40.70449219 -33.98804688 41.34257813 -34 42 C-34.33 42.165 -34.33 42.165 -36 43 C-35.97679687 42.37351563 -35.95359375 41.74703125 -35.9296875 41.1015625 C-35.92066406 40.69292969 -35.92066406 40.69292969 -35.875 38.625 C-35.85179687 37.81289063 -35.82859375 37.00078125 -35.8046875 36.1640625 C-36 34 -36 34 -38 32 C-38.37109375 29.1015625 -38.37109375 29.1015625 -38.4375 25.625 C-38.45748047 25.05394531 -38.45748047 25.05394531 -38.55859375 22.1640625 C-38 19 -38 19 -35.76953125 16.7265625 C-33.29673315 15.18498738 -30.91481849 13.91694666 -28.25 12.75 C-23.46064471 10.45168047 -19.91484947 7.54077416 -16.10546875 3.8671875 C-10.66880753 -0.95419295 -6.93128274 -1.81390588 0 0 Z " fill="#665123" transform="translate(56,17)" />
<path d="M0 0 C3.96 0 7.92 0 12 0 C11.34 2.64 10.68 5.28 10 8 C9.01 8 8.02 8 7 8 C6.875 13.75 6.875 13.75 8 16 C8.763125 16.103125 9.52625 16.20625 10.3125 16.3125 C13 17 13 17 15.4375 19.125 C17 22 17 22 16.25 25.8125 C15.8375 26.864375 15.425 27.91625 15 29 C13.20793453 28.85915204 11.41635083 28.71216299 9.625 28.5625 C8.62726562 28.48128906 7.62953125 28.40007812 6.6015625 28.31640625 C4 28 4 28 2 27 C1.67 27.33 1.34 27.66 1 28 C-0.99958364 28.04080783 -3.00045254 28.04254356 -5 28 C-4.84273437 27.47664063 -4.68546875 26.95328125 -4.5234375 26.4140625 C-3.86810659 23.39171548 -3.76883251 20.4639744 -3.625 17.375 C-3.22696782 11.13698751 -2.05236893 5.8894065 0 0 Z " fill="#E9D5AD" transform="translate(23,53)" />
<path d="M0 0 C3.79152334 -0.0867982 7.58279296 -0.14032207 11.375 -0.1875 C11.91511719 -0.20006836 11.91511719 -0.20006836 14.6484375 -0.26367188 C15.6796875 -0.27333984 16.7109375 -0.28300781 17.7734375 -0.29296875 C18.72653809 -0.3086792 19.67963867 -0.32438965 20.66162109 -0.34057617 C21.04745361 -0.2843811 21.04745361 -0.2843811 23 0 C25 3 25 3 24.625 5.6875 C24.521875 6.0690625 24.521875 6.0690625 24 8 C21.69 8.33 19.38 8.66 17 9 C17 8.34 17 7.68 17 7 C17.99 7 18.98 7 20 7 C20 6.01 20 5.02 20 4 C18.68 4 17.36 4 16 4 C16 4.66 16 5.32 16 6 C15.34 6 14.68 6 14 6 C14.02320312 6.77085938 14.04640625 7.54171875 14.0703125 8.3359375 C14.07933594 8.83738281 14.07933594 8.83738281 14.125 11.375 C14.14820312 12.37273437 14.17140625 13.37046875 14.1953125 14.3984375 C14 17 14 17 12 19 C11.030625 18.195625 10.06125 17.39125 9.0625 16.5625 C4.89965554 13.54273168 1.04470785 13.12583172 -4 13 C-4.33 11.35 -4.66 9.7 -5 8 C-3.68 7.67 -2.36 7.34 -1 7 C-0.67 4.69 -0.34 2.38 0 0 Z " fill="#91805B" transform="translate(36,55)" />
<path d="M0 0 C0.825 0.165 0.825 0.165 5 1 C4.42261444 4.34883624 3.65005317 5.86925018 1 8 C-1.53853129 9.12094696 -4.02115697 10.12461439 -6.625 11.0625 C-7.33978516 11.32562988 -8.05457031 11.58875977 -8.79101562 11.85986328 C-13.80562962 13.66817037 -18.74446956 15.06151242 -24 16 C-24 16.66 -24 17.32 -24 18 C-25.65 18.66 -27.3 19.32 -29 20 C-29 20.66 -29 21.32 -29 22 C-29.99 22.66 -30.98 23.32 -32 24 C-32.33 24.66 -32.66 25.32 -33 26 C-35.64590014 26.02684679 -38.29153096 26.04676357 -40.9375 26.0625 C-41.69224609 26.07087891 -42.44699219 26.07925781 -43.22460938 26.08789062 C-45.14994313 26.09652441 -47.07535581 26.05224333 -49 26 C-50 25 -50 25 -50.09765625 22.27734375 C-50.08605469 21.17519531 -50.07445313 20.07304688 -50.0625 18.9375 C-50.05347656 17.83277344 -50.04445313 16.72804688 -50.03515625 15.58984375 C-50.02355469 14.73519531 -50.01195313 13.88054688 -50 13 C-49.67 13.165 -49.67 13.165 -48 14 C-31.74847991 15.25011693 -18.36039169 12.91355964 -3.52734375 6.4609375 C0 5 0 5 2 5 C1.34 3.35 0.68 1.7 0 0 Z " fill="#ECDFC2" transform="translate(70,24)" />
<path d="M0 0 C2.375 0.4375 2.375 0.4375 5 2 C6.20345365 4.9269928 6.61733554 7.87145946 7 11 C7.144375 12.155 7.28875 13.31 7.4375 14.5 C6.47728247 22.18174024 1.77400404 28.10464875 -4 33 C-4.99 33 -5.98 33 -7 33 C-7.33 33.99 -7.66 34.98 -8 36 C-12.04160556 36.05831395 -16.08310205 36.09370212 -20.125 36.125 C-21.26710938 36.14175781 -22.40921875 36.15851563 -23.5859375 36.17578125 C-24.14023437 36.17900391 -24.14023437 36.17900391 -26.9453125 36.1953125 C-27.45328369 36.20054932 -27.45328369 36.20054932 -30.02392578 36.22705078 C-33.29106896 35.97779375 -35.93148122 35.11837166 -39 34 C-40.61719629 33.73788562 -42.24342789 33.52332474 -43.875 33.375 C-44.65617187 33.30023438 -45.43734375 33.22546875 -46.2421875 33.1484375 C-46.82226562 33.09945312 -47.40234375 33.05046875 -48 33 C-48 32.67 -48 32.34 -48 32 C-46.02 32 -44.04 32 -42 32 C-42.33 31.01 -42.66 30.02 -43 29 C-42.34 29 -41.68 29 -41 29 C-41 29.66 -41 30.32 -41 31 C-36.71 31.66 -32.42 32.32 -28 33 C-27.67 31.35 -27.34 29.7 -27 28 C-26.67 28 -26.34 28 -26 28 C-25.67 29.65 -25.34 31.3 -25 33 C-24.36191406 32.91621094 -23.72382812 32.83242187 -23.06640625 32.74609375 C-22.24011719 32.64425781 -21.41382812 32.54242188 -20.5625 32.4375 C-20.15064453 32.38529297 -20.15064453 32.38529297 -18.06640625 32.12109375 C-17.72544922 32.10111328 -17.72544922 32.10111328 -16 32 C-15.67 32.33 -15.34 32.66 -15 33 C-12.0625 33.25 -12.0625 33.25 -9 33 C-7 30 -7 30 -6 26.4375 C-5 23 -5 23 -3 21 C-1.35008418 20.29289322 0.31562256 19.62056011 2 19 C1.625 16.5625 1.625 16.5625 1 14 C0.34 13.67 -0.32 13.34 -1 13 C-1.625 10.4375 -1.625 10.4375 -2 8 C-1.34 7.67 -0.68 7.34 0 7 C0 4.69 0 2.38 0 0 Z " fill="#A28354" transform="translate(66,49)" />
<path d="M0 0 C1.72188694 1.00182513 3.44504604 2.00492516 5.11328125 3.09375 C8.15091834 4.55282206 11.24181865 4.48871334 14.5703125 4.53125 C18.01858295 5.19651118 19.60435458 6.45020001 22 9 C22.70703125 12.234375 22.70703125 12.234375 22.8125 15.75 C22.86019531 16.92046875 22.90789062 18.0909375 22.95703125 19.296875 C22.97121094 20.18890625 22.98539063 21.0809375 23 22 C22.67 22.165 22.67 22.165 21 23 C21.06058594 23.78761719 21.12117188 24.57523438 21.18359375 25.38671875 C21.35965853 27.67556095 21.53262128 29.96464307 21.703125 32.25390625 C21.89871923 34.72199655 22.11693486 37.18841404 22.359375 39.65234375 C22.46765625 40.79832031 22.5759375 41.94429687 22.6875 43.125 C22.79449219 44.17945313 22.90148437 45.23390625 23.01171875 46.3203125 C23 49 23 49 21 52 C20.95101562 51.07058594 20.90203125 50.14117187 20.8515625 49.18359375 C20.05574439 36.02515296 20.05574439 36.02515296 18 31 C17.01 30.34 16.02 29.68 15 29 C15 28.34 15 27.68 15 27 C14.34 26.67 13.68 26.34 13 26 C13.969375 25.443125 14.93875 24.88625 15.9375 24.3125 C19 22 19 22 19.9375 19.75 C20.02407617 15.94064856 19.79972123 12.75253807 19 9 C16.28513914 7.15246887 13.98043108 6.77606332 10.75 6.625 C7.29194557 6.32454609 4.9083122 5.6193949 1.875 3.9375 C-2.06483775 1.85534606 -4.47235667 1.07912339 -9 2 C-14.03288072 5.01391847 -18.5617291 8.45648977 -22.5625 12.75 C-26.16711144 16.07733364 -30.41431058 17.40613902 -35 19 C-35.02685938 21.14576637 -35.04633088 23.29162645 -35.0625 25.4375 C-35.07410156 26.63246094 -35.08570313 27.82742187 -35.09765625 29.05859375 C-35 32 -35 32 -34 33 C-33.92820036 34.51928038 -33.91607993 36.04167482 -33.9375 37.5625 C-33.94652344 38.38878906 -33.95554687 39.21507812 -33.96484375 40.06640625 C-33.97644531 40.70449219 -33.98804688 41.34257813 -34 42 C-34.33 42.165 -34.33 42.165 -36 43 C-35.97679687 42.37351563 -35.95359375 41.74703125 -35.9296875 41.1015625 C-35.92066406 40.69292969 -35.92066406 40.69292969 -35.875 38.625 C-35.85179687 37.81289063 -35.82859375 37.00078125 -35.8046875 36.1640625 C-36 34 -36 34 -38 32 C-38.37109375 29.1015625 -38.37109375 29.1015625 -38.4375 25.625 C-38.45748047 25.05394531 -38.45748047 25.05394531 -38.55859375 22.1640625 C-38 19 -38 19 -35.76953125 16.7265625 C-33.29673315 15.18498738 -30.91481849 13.91694666 -28.25 12.75 C-23.46064471 10.45168047 -19.91484947 7.54077416 -16.10546875 3.8671875 C-10.66880753 -0.95419295 -6.93128274 -1.81390588 0 0 Z " fill="#52431D" transform="translate(56,17)" />
<path d="M0 0 C-0.66 1.32 -1.32 2.64 -2 4 C-1.67 4.495 -1.67 4.495 0 7 C-0.375 9.6875 -0.375 9.6875 -1 12 C-1.66 12 -2.32 12 -3 12 C-2.625 14.4375 -2.625 14.4375 -2 17 C-1.34 17.33 -0.68 17.66 0 18 C-1.32 17.67 -2.64 17.34 -4 17 C-4 15.35 -4 13.7 -4 12 C-6.9260522 11.17389925 -9.62491769 10.83399283 -12.66015625 10.71875 C-13.53607422 10.68136719 -14.41199219 10.64398438 -15.31445312 10.60546875 C-17.15038489 10.53500655 -18.98632242 10.46469468 -20.82226562 10.39453125 C-21.69689453 10.35714844 -22.57152344 10.31976563 -23.47265625 10.28125 C-23.87101685 10.26610352 -23.87101685 10.26610352 -25.88696289 10.18945312 C-28 10 -28 10 -31 9 C-31 8.01 -31 7.02 -31 6 C-29.99582031 5.82984375 -28.99164063 5.6596875 -27.95703125 5.484375 C-19.88666556 4.06893872 -12.24199521 2.3310058 -4.4765625 -0.328125 C-2 -1 -2 -1 0 0 Z " fill="#7A3614" transform="translate(67,45)" />
<path d="M0 0 C3.96 0 7.92 0 12 0 C11.34 2.64 10.68 5.28 10 8 C9.01 8 8.02 8 7 8 C6.9484375 8.639375 6.9484375 8.639375 6.6875 11.875 C6.51171875 14.0546875 6.51171875 14.0546875 6 16 C5.01 16.66 4.02 17.32 3 18 C1.66666667 16.66666667 0.33333333 15.33333333 -1 14 C-1.33 14.165 -1.33 14.165 -3 15 C-2.5547115 9.72684667 -1.91626837 4.98229776 0 0 Z " fill="#F2E4C0" transform="translate(23,53)" />
<path d="M0 0 C0.94875 0.04125 1.8975 0.0825 2.875 0.125 C2.875 0.455 2.875 0.785 2.875 1.125 C1.225 1.455 -0.425 1.785 -2.125 2.125 C-0.805 2.785 0.515 3.445 1.875 4.125 C1.875 5.445 1.875 6.765 1.875 8.125 C1.215 8.125 0.555 8.125 -0.125 8.125 C-0.125 9.115 -0.125 10.105 -0.125 11.125 C-1.445 11.125 -2.765 11.125 -4.125 11.125 C-4.125 12.445 -4.125 13.765 -4.125 15.125 C-2.475 14.795 -0.825 14.465 0.875 14.125 C0.875 15.115 0.875 16.105 0.875 17.125 C-3.745 17.125 -8.365 17.125 -13.125 17.125 C-13.125 16.465 -13.125 15.805 -13.125 15.125 C-14.115 14.795 -15.105 14.465 -16.125 14.125 C-12.61713943 9.94208722 -9.04364369 5.93479248 -5.125 2.125 C-3.125 0.125 -3.125 0.125 0 0 Z " fill="#FCEC4A" transform="translate(48.125,18.875)" />
<path d="M0 0 C0.125 3.375 0.125 3.375 0 7 C-2 9 -2 9 -4.9375 9.1875 C-8 9 -8 9 -11 8 C-13.33491639 8.32205743 -15.66842508 8.65458149 -18 9 C-18.33 8.67 -18.66 8.34 -19 8 C-18.82364548 5.30917128 -18.38164079 2.67148554 -18 0 C-17.57847656 0.00580078 -17.57847656 0.00580078 -15.4453125 0.03515625 C-14.34960938 0.04417969 -13.25390625 0.05320312 -12.125 0.0625 C-11.57972656 0.06830078 -11.57972656 0.06830078 -8.8203125 0.09765625 C-0.62086093 -0.18625828 -0.62086093 -0.18625828 0 0 Z " fill="#9B3119" transform="translate(59,74)" />
<path d="M0 0 C0.99 0.33 1.98 0.66 3 1 C3.05395478 2.62463842 3.09277195 4.24978541 3.125 5.875 C3.14820312 6.77992187 3.17140625 7.68484375 3.1953125 8.6171875 C3 11 3 11 1 13 C0.030625 12.195625 -0.93875 11.39125 -1.9375 10.5625 C-6.10034446 7.54273168 -9.95529215 7.12583172 -15 7 C-15.33 5.35 -15.66 3.7 -16 2 C-14.35 1.67 -12.7 1.34 -11 1 C-10.34 1.99 -9.68 2.98 -9 4 C-6.0625 4.4375 -6.0625 4.4375 -3 4 C-1.125 2 -1.125 2 0 0 Z " fill="#EED369" transform="translate(47,61)" />
<path d="M0 0 C0.804375 0.309375 1.60875 0.61875 2.4375 0.9375 C6.62249087 2.18565517 10.66306101 2.6337696 15 3 C15.33 4.98 15.66 6.96 16 9 C14.58774074 9.67595315 13.16997095 10.34040059 11.75 11 C11.35554688 11.185625 11.35554688 11.185625 9.359375 12.125 C7 13 7 13 3 13 C2.97550781 12.64486328 2.97550781 12.64486328 2.8515625 10.84765625 C2.81417969 10.38810547 2.81417969 10.38810547 2.625 8.0625 C2.55539063 7.14597656 2.48578125 6.22945312 2.4140625 5.28515625 C2.27742188 4.53105469 2.14078125 3.77695312 2 3 C1.34 2.67 0.68 2.34 0 2 C0 1.34 0 0.68 0 0 Z " fill="#C59726" transform="translate(56,20)" />
<path d="M0 0 C6.40659341 0.6043956 6.40659341 0.6043956 8.6875 2.125 C10.62626335 4.89466193 10.52209533 7.34632559 10.6875 10.6875 C10.72037109 11.27724609 10.72037109 11.27724609 10.88671875 14.26171875 C10.92410156 15.16535156 10.96148437 16.06898437 11 17 C10.34 17.33 9.68 17.66 9 18 C9.06058594 18.78761719 9.12117188 19.57523438 9.18359375 20.38671875 C9.35965853 22.67556095 9.53262128 24.96464307 9.703125 27.25390625 C9.89871923 29.72199655 10.11693486 32.18841404 10.359375 34.65234375 C10.46765625 35.79832031 10.5759375 36.94429687 10.6875 38.125 C10.79449219 39.17945313 10.90148437 40.23390625 11.01171875 41.3203125 C11 44 11 44 9 47 C8.97550781 46.53529297 8.97550781 46.53529297 8.8515625 44.18359375 C8.05574439 31.02515296 8.05574439 31.02515296 6 26 C5.01 25.34 4.02 24.68 3 24 C3 23.34 3 22.68 3 22 C2.34 21.67 1.68 21.34 1 21 C1.969375 20.443125 2.93875 19.88625 3.9375 19.3125 C7 17 7 17 7.9375 14.75 C7.958125 13.8425 7.97875 12.935 8 12 C8.02191406 11.34257813 8.04382813 10.68515625 8.06640625 10.0078125 C7.99674275 7.77038477 7.83381686 6.08228858 7 4 C4.6992364 2.33373955 2.78132214 1.8091119 0 1 C0 0.67 0 0.34 0 0 Z " fill="#4A3513" transform="translate(68,22)" />
<path d="M0 0 C0.99 0.33 1.98 0.66 3 1 C3 1.66 3 2.32 3 3 C5.20857055 2.85780436 7.41684987 2.71108153 9.625 2.5625 C10.23988281 2.52189453 10.23988281 2.52189453 13.3515625 2.31640625 C16.61532388 2.03336056 19.77943859 1.58961047 23 1 C22.67 1.165 22.67 1.165 21 2 C21 2.66 21 3.32 21 4 C20.01 4.66 19.02 5.32 18 6 C17.67 6.66 17.34 7.32 17 8 C14.35409986 8.02684679 11.70846904 8.04676357 9.0625 8.0625 C8.68512695 8.06668945 8.68512695 8.06668945 6.77539062 8.08789062 C4.85005687 8.09652441 2.92464419 8.05224333 1 8 C0 7 0 7 -0.0625 3.4375 C-0.041875 2.303125 -0.02125 1.16875 0 0 Z " fill="#E3CFA7" transform="translate(20,42)" />
<path d="M0 0 C0.99 0.33 1.98 0.66 3 1 C3 1.99 3 2.98 3 4 C3.99 4.33 4.98 4.66 6 5 C6 8.3 6 11.6 6 15 C6.66 15.33 7.32 15.66 8 16 C5.03 16.66 2.06 17.32 -1 18 C-0.01 17.01 0.98 16.02 2 15 C0.68 14.34 -0.64 13.68 -2 13 C-1.85915204 11.20793453 -1.71216299 9.41635083 -1.5625 7.625 C-1.48128906 6.62726562 -1.40007813 5.62953125 -1.31640625 4.6015625 C-1 2 -1 2 0 0 Z " fill="#E6BF2C" transform="translate(53,18)" />
<path d="M0 0 C0.33 0 0.66 0 1 0 C1.05420701 2.56278699 1.09377007 5.12441483 1.125 7.6875 C1.14175781 8.40873047 1.15851562 9.12996094 1.17578125 9.87304688 C1.21391569 14.04876781 0.8789919 17.2494138 -1 21 C0.258125 20.938125 1.51625 20.87625 2.8125 20.8125 C6.5036372 20.80105461 9.48659338 21.32913589 13 22.4375 C20.50509445 24.70722899 28.21654485 24.73538077 36 25 C36 25.33 36 25.66 36 26 C32.81257885 26.05865035 29.62529882 26.09381259 26.4375 26.125 C25.98987305 26.13337891 25.98987305 26.13337891 23.72460938 26.17578125 C18.41090574 26.21470948 14.10300945 25.64876104 9 24 C7.23534326 23.7612668 5.46349401 23.56731605 3.6875 23.4375 C-0.7981982 23.1009009 -0.7981982 23.1009009 -3 22 C-2.76274968 19.62749678 -2.52508311 17.25504712 -2.28515625 14.8828125 C-2.09719202 12.98257134 -1.91731053 11.08151079 -1.74609375 9.1796875 C-1.66488281 8.29539062 -1.58367188 7.41109375 -1.5 6.5 C-1.4278125 5.6853125 -1.355625 4.870625 -1.28125 4.03125 C-1 2 -1 2 0 0 Z " fill="#463915" transform="translate(19,61)" />
<path d="M0 0 C0.825 0.165 0.825 0.165 5 1 C4.42267948 4.34845901 3.64726621 5.86718229 1 8 C-1.51832348 9.1233838 -3.97631065 10.12796958 -6.5625 11.0625 C-6.92585449 11.19406494 -6.92585449 11.19406494 -8.76464844 11.85986328 C-15.93466559 14.40050856 -22.39022371 16.0594245 -30.0546875 16.109375 C-30.51117676 16.11235596 -30.51117676 16.11235596 -32.82128906 16.12744141 C-36.88163148 16.12390575 -40.94041896 16.07681886 -45 16 C-45 15.67 -45 15.34 -45 15 C-44.45021484 14.97550781 -44.45021484 14.97550781 -41.66796875 14.8515625 C-27.6917799 14.17621581 -16.40051983 12.05758617 -3.52734375 6.4609375 C0 5 0 5 2 5 C1.34 3.35 0.68 1.7 0 0 Z " fill="#F3DB9C" transform="translate(70,24)" />
<path d="M0 0 C0.99 0.33 1.98 0.66 3 1 C3.33 2.65 3.66 4.3 4 6 C4.99 6.33 5.98 6.66 7 7 C6.67 8.65 6.34 10.3 6 12 C4.35 12.33 2.7 12.66 1 13 C0.67 12.01 0.34 11.02 0 10 C-0.33 10.33 -0.66 10.66 -1 11 C-3.33297433 11.04092937 -5.66705225 11.04241723 -8 11 C-9.125 5.25 -9.125 5.25 -8 3 C-6.68 3 -5.36 3 -4 3 C-4 3.99 -4 4.98 -4 6 C-4.99 6 -5.98 6 -7 6 C-7 6.66 -7 7.32 -7 8 C-4.69 7.34 -2.38 6.68 0 6 C0 4.02 0 2.04 0 0 Z " fill="#A1803C" transform="translate(60,56)" />
<path d="M0 0 C0.33 0 0.66 0 1 0 C1.27672202 1.91299138 1.52042815 3.83077936 1.75 5.75 C1.88921875 6.81734375 2.0284375 7.8846875 2.171875 8.984375 C2 12 2 12 0.1875 14.34375 C-2.2519868 16.19079001 -3.98585825 16.66509536 -7 17 C-8.1130612 13.1042858 -8.30545456 11.55434346 -6.3125 7.9375 C-5.549375 6.968125 -4.78625 5.99875 -4 5 C-3.278125 4.05125 -2.55625 3.1025 -1.8125 2.125 C-1.214375 1.42375 -0.61625 0.7225 0 0 Z " fill="#B69C69" transform="translate(75,26)" />
<path d="M0 0 C0.33 0 0.66 0 1 0 C1.33 1.65 1.66 3.3 2 5 C2.30744141 4.94070312 2.30744141 4.94070312 3.86328125 4.640625 C4.26740234 4.57617188 4.26740234 4.57617188 6.3125 4.25 C7.11300781 4.11078125 7.91351563 3.9715625 8.73828125 3.828125 C11 4 11 4 12.79296875 5.984375 C13.19128906 6.64953125 13.58960938 7.3146875 14 8 C10.79174438 8.05849554 7.58362767 8.09376162 4.375 8.125 C3.47136719 8.14175781 2.56773438 8.15851563 1.63671875 8.17578125 C-3.37820396 8.21238653 -7.26860658 7.83689391 -12 6 C-13.61719629 5.73788562 -15.24342789 5.52332474 -16.875 5.375 C-17.26558594 5.33761719 -17.26558594 5.33761719 -19.2421875 5.1484375 C-19.82226562 5.09945312 -20.40234375 5.05046875 -21 5 C-21 4.67 -21 4.34 -21 4 C-19.02 4 -17.04 4 -15 4 C-15.33 3.01 -15.66 2.02 -16 1 C-15.34 1 -14.68 1 -14 1 C-14 1.66 -14 2.32 -14 3 C-9.71 3.66 -5.42 4.32 -1 5 C-0.67 3.35 -0.34 1.7 0 0 Z " fill="#B49571" transform="translate(39,77)" />
<path d="M0 0 C0.66 0.33 1.32 0.66 2 1 C1.8246875 1.4640625 1.8246875 1.4640625 0.9375 3.8125 C0 7 0 7 1 10 C-0.32 10.33 -1.64 10.66 -3 11 C-3 11.66 -3 12.32 -3 13 C-4.815 13.495 -4.815 13.495 -14 16 C-14.33 15.34 -14.66 14.68 -15 14 C-11.25 11 -11.25 11 -9 11 C-9 10.01 -9 9.02 -9 8 C-8.34 8 -7.68 8 -7 8 C-7 7.01 -7 6.02 -7 5 C-6.01 4.67 -5.02 4.34 -4 4 C-2.62804426 2.70644173 -1.28817344 1.37701298 0 0 Z " fill="#CEB384" transform="translate(68,32)" />
<path d="M0 0 C0 0.99 0 1.98 0 3 C-0.639375 3.268125 -1.27875 3.53625 -1.9375 3.8125 C-4 5 -4 5 -5 8 C-6.875 10.1875 -6.875 10.1875 -9 12 C-9.99 12 -10.98 12 -12 12 C-12 13.65 -12 15.3 -12 17 C-9.69 17 -7.38 17 -5 17 C-5 17.33 -5 17.66 -5 18 C-7.45898655 18.08076963 -9.91533742 18.14037143 -12.375 18.1875 C-13.07367188 18.21263672 -13.77234375 18.23777344 -14.4921875 18.26367188 C-16.5234375 18.29296875 -16.5234375 18.29296875 -20 18 C-20.66 17.01 -21.32 16.02 -22 15 C-15.49517685 11.17363344 -15.49517685 11.17363344 -12.59375 10.15625 C-9.3703842 8.71932789 -7.26210251 6.77796234 -4.6875 4.375 C-3.80449219 3.55773437 -2.92148437 2.74046875 -2.01171875 1.8984375 C-1.34785156 1.27195312 -0.68398438 0.64546875 0 0 Z " fill="#DBCA4C" transform="translate(42,21)" />
<path d="M0 0 C3.96 0 7.92 0 12 0 C11.34 2.64 10.68 5.28 10 8 C9.01 8 8.02 8 7 8 C6.67 8.66 6.34 9.32 6 10 C5.67 7.69 5.34 5.38 5 3 C3.68 3.33 2.36 3.66 1 4 C0.87625 4.5775 0.7525 5.155 0.625 5.75 C-0.00648824 8.02335767 -0.88858191 9.9253529 -2 12 C-3.86147549 8.27704902 -1.20204575 3.75038273 0 0 Z " fill="#F3DEB8" transform="translate(23,53)" />
<path d="M0 0 C1.61137264 8.66945117 3.29601207 18.5492974 -1.8125 26.25 C-3.71567967 28.67479188 -5.79193381 30.85161127 -8 33 C-8.66 32.67 -9.32 32.34 -10 32 C-9.60167969 31.56429687 -9.20335937 31.12859375 -8.79296875 30.6796875 C-3.29110358 24.49510913 -0.51961605 19.84943028 -0.76171875 11.4140625 C-1.0586594 8.40571293 -1.82884022 5.78150447 -3 3 C-4.32 3 -5.64 3 -7 3 C-7.66 2.01 -8.32 1.02 -9 0 C-3.375 -1.125 -3.375 -1.125 0 0 Z " fill="#95794B" transform="translate(73,48)" />
<path d="M0 0 C0.639375 0.45375 1.27875 0.9075 1.9375 1.375 C5.25583906 3.13575134 8.151479 3.80572841 11.81640625 4.47265625 C14.10237834 5.02472464 15.94234251 5.87552051 18 7 C18 7.66 18 8.32 18 9 C16.20793453 8.85915204 14.41635083 8.71216299 12.625 8.5625 C11.62726562 8.48128906 10.62953125 8.40007812 9.6015625 8.31640625 C7 8 7 8 5 7 C4.67 7.33 4.34 7.66 4 8 C2.00041636 8.04080783 -0.00045254 8.04254356 -2 8 C-1.33333333 5.33333333 -0.66666667 2.66666667 0 0 Z " fill="#CCB88C" transform="translate(20,73)" />
<path d="M0 0 C0 0.66 0 1.32 0 2 C0.763125 2.12375 1.52625 2.2475 2.3125 2.375 C5 3 5 3 8 5 C8 5.99 8 6.98 8 8 C1.91766294 7.32418477 -4.01314152 6.26361972 -10 5 C-10 4.34 -10 3.68 -10 3 C-8.70990357 2.49596232 -7.41786211 1.99690074 -6.125 1.5 C-5.76535156 1.36078125 -5.76535156 1.36078125 -3.9453125 0.65625 C-2 0 -2 0 0 0 Z " fill="#9A1616" transform="translate(57,47)" />
<path d="M0 0 C1.815 0.33 1.815 0.33 11 2 C11 2.33 11 2.66 11 3 C8.855 3.165 8.855 3.165 -2 4 C-2.33 4.99 -2.66 5.98 -3 7 C-6.96 6.67 -10.92 6.34 -15 6 C-15.33 6.66 -15.66 7.32 -16 8 C-16 6.35 -16 4.7 -16 3 C-11.05 3 -6.1 3 -1 3 C-0.67 2.01 -0.34 1.02 0 0 Z " fill="#D2B28B" transform="translate(38,47)" />
<path d="M0 0 C0.31517578 0.05414063 0.31517578 0.05414063 1.91015625 0.328125 C3.91015625 3.328125 3.91015625 3.328125 3.53515625 6.015625 C3.32890625 6.77875 3.12265625 7.541875 2.91015625 8.328125 C0.60015625 8.658125 -1.70984375 8.988125 -4.08984375 9.328125 C-4.08984375 8.668125 -4.08984375 8.008125 -4.08984375 7.328125 C-3.09984375 7.328125 -2.10984375 7.328125 -1.08984375 7.328125 C-1.08984375 6.338125 -1.08984375 5.348125 -1.08984375 4.328125 C-2.40984375 4.328125 -3.72984375 4.328125 -5.08984375 4.328125 C-5.08984375 4.988125 -5.08984375 5.648125 -5.08984375 6.328125 C-5.74984375 6.328125 -6.40984375 6.328125 -7.08984375 6.328125 C-7.13256475 4.66200595 -7.13048207 2.99429615 -7.08984375 1.328125 C-5.19856033 -0.56315842 -2.51916649 0.0914398 0 0 Z " fill="#E8E3D9" transform="translate(57.08984375,54.671875)" />
<path d="M0 0 C4.23654267 0.1970485 5.72278949 0.72894972 8.8125 3.75 C10.92819804 6.89332281 11.73651986 8.31127801 12 12 C12.02513672 12.33322266 12.02513672 12.33322266 12.15234375 14.01953125 C12.25 16.1875 12.25 16.1875 12 20 C11.01 20.66 10.02 21.32 9 22 C8.67 16.39 8.34 10.78 8 5 C5.36 5 2.72 5 0 5 C0 3.33333333 0 1.66666667 0 0 Z " fill="#755730" transform="translate(65,43)" />
<path d="M0 0 C1.8046875 0.7421875 1.8046875 0.7421875 3.875 1.875 C6.58956152 3.35097832 8.99255265 4.30741358 12 5 C13.3479743 5.63654342 14.68596724 6.29605388 16 7 C16 7.99 16 8.98 16 10 C15.4328125 9.85433594 14.865625 9.70867187 14.28125 9.55859375 C11.27701711 8.82296823 8.24922152 8.21516671 5.21875 7.59765625 C2.91795738 6.97790049 1.03956082 6.23185864 -1 5 C-1.75 2.875 -1.75 2.875 -2 1 C-1.34 0.67 -0.68 0.34 0 0 Z " fill="#DCCDA4" transform="translate(22,70)" />
<path d="M0 0 C2.64 0 5.28 0 8 0 C8.33 1.65 8.66 3.3 9 5 C8.67 5.165 8.67 5.165 7 6 C7 5.34 7 4.68 7 4 C6.01 4.66 5.02 5.32 4 6 C4.66 6.66 5.32 7.32 6 8 C3.625 8.625 3.625 8.625 1 9 C0.34 8.34 -0.32 7.68 -1 7 C-0.625 3.375 -0.625 3.375 0 0 Z " fill="#EEE6DE" transform="translate(38,55)" />
<path d="M0 0 C0.66 0 1.32 0 2 0 C2.125 3.375 2.125 3.375 2 7 C0 9 0 9 -2.9375 9.1875 C-6 9 -6 9 -9 8 C-11.33491639 8.32205743 -13.66842508 8.65458149 -16 9 C-17 8 -17 8 -17.0625 5.4375 C-17.041875 4.633125 -17.02125 3.82875 -17 3 C-16.67 4.32 -16.34 5.64 -16 7 C-14.02 7 -12.04 7 -10 7 C-10.33 5.35 -10.66 3.7 -11 2 C-9.68 2 -8.36 2 -7 2 C-6.67 3.32 -6.34 4.64 -6 6 C-4.02 5.34 -2.04 4.68 0 4 C0 2.68 0 1.36 0 0 Z " fill="#780F10" transform="translate(57,74)" />
<path d="M0 0 C2.125 0.375 2.125 0.375 4 1 C3.01 1 2.02 1 1 1 C0.67 3.31 0.34 5.62 0 8 C-0.99 8.33 -1.98 8.66 -3 9 C-2.67 10.65 -2.34 12.3 -2 14 C-0.35 14.33 1.3 14.66 3 15 C3 15.66 3 16.32 3 17 C3.99 17.33 4.98 17.66 6 18 C6 19.65 6 21.3 6 23 C4.29115995 21.37660195 2.62553283 19.70680947 1 18 C1 17.34 1 16.68 1 16 C0.608125 16.0309375 0.608125 16.0309375 -1.375 16.1875 C-2.24125 16.125625 -3.1075 16.06375 -4 16 C-6 13 -6 13 -5.625 9.8125 C-5.41875 8.884375 -5.2125 7.95625 -5 7 C-4.01 7 -3.02 7 -2 7 C-2.020625 6.608125 -2.020625 6.608125 -2.125 4.625 C-2 2 -2 2 0 0 Z " fill="#885B27" transform="translate(35,54)" />
<path d="M0 0 C2.4375 0.625 2.4375 0.625 5 2 C6.02030106 5.12892324 6.23484136 7.13108697 5.375 10.3125 C3.49642216 12.61802735 1.88544805 12.69626863 -1 13 C-1.33 11.35 -1.66 9.7 -2 8 C-1.34 7.67 -0.68 7.34 0 7 C0 4.69 0 2.38 0 0 Z " fill="#B89B6B" transform="translate(66,49)" />
<path d="M0 0 C0.99 0 1.98 0 3 0 C3 0.66 3 1.32 3 2 C2.34 2 1.68 2 1 2 C1 2.99 1 3.98 1 5 C-0.42578125 6.640625 -0.42578125 6.640625 -2.3125 8.25 C-2.92738281 8.79140625 -3.54226562 9.3328125 -4.17578125 9.890625 C-4.77777344 10.25671875 -5.37976562 10.6228125 -6 11 C-6.99 10.67 -7.98 10.34 -9 10 C-9.33 9.01 -9.66 8.02 -10 7 C-7.21098485 3.90109428 -4.92211279 2.37803963 -1 1 C-0.67 0.67 -0.34 0.34 0 0 Z " fill="#D4BD92" transform="translate(58,38)" />
<path d="M0 0 C2.64 0 5.28 0 8 0 C8.33 1.98 8.66 3.96 9 6 C5.30458414 6.95024979 2.69541586 6.95024979 -1 6 C-0.67 4.02 -0.34 2.04 0 0 Z " fill="#8F6A23" transform="translate(63,23)" />
<path d="M0 0 C2.45302687 1.18472841 4.67262533 2.56776943 7 4 C9.9375 4.75 9.9375 4.75 12 5 C12 5.33 12 5.66 12 6 C7.98996915 6.40100309 5.52014014 5.91417115 2.0625 4 C-1.85099058 1.92815205 -4.51140015 1.27861788 -9 2 C-11.83740772 3.44622722 -14.42646199 5.12833599 -17 7 C-17 6.01 -17 5.02 -17 4 C-11.96798721 -0.99087917 -6.64654853 -2.02390397 0 0 Z " fill="#513B06" transform="translate(56,17)" />
<path d="M0 0 C-0.33 0.99 -0.66 1.98 -1 3 C-3.30252483 4.06902939 -5.6372026 5.07175817 -8 6 C-8.33 6.33 -8.66 6.66 -9 7 C-11.33297433 7.04092937 -13.66705225 7.04241723 -16 7 C-16 7.66 -16 8.32 -16 9 C-17.65 9 -19.3 9 -21 9 C-20.34 8.67 -19.68 8.34 -19 8 C-19 7.34 -19 6.68 -19 6 C-18.47019531 5.82533203 -18.47019531 5.82533203 -15.7890625 4.94140625 C-14.40101541 4.48185012 -13.01299601 4.02221036 -11.625 3.5625 C-11.27566406 3.44745117 -11.27566406 3.44745117 -9.5078125 2.86523438 C-0.87058424 0 -0.87058424 0 0 0 Z " fill="#D7C9A2" transform="translate(65,34)" />
<path d="M0 0 C0.99 0.66 1.98 1.32 3 2 C5.91796875 2.4140625 5.91796875 2.4140625 9.1875 2.625 C10.27417969 2.69976562 11.36085938 2.77453125 12.48046875 2.8515625 C12.89619141 2.87605469 12.89619141 2.87605469 15 3 C15 3.99 15 4.98 15 6 C10.38 6 5.76 6 1 6 C1 5.34 1 4.68 1 4 C0.01 3.67 -0.98 3.34 -2 3 C-1.34 2.01 -0.68 1.02 0 0 Z " fill="#FBDC38" transform="translate(34,30)" />
<path d="M0 0 C2 1.6875 2 1.6875 4 4 C4.125 6.64453125 4.125 6.64453125 4 9 C3.25234375 9.26554687 2.5046875 9.53109375 1.734375 9.8046875 C0.74953125 10.15789062 -0.2353125 10.51109375 -1.25 10.875 C-2.22453125 11.22304687 -3.1990625 11.57109375 -4.203125 11.9296875 C-7 13 -7 13 -9.109375 14.1953125 C-11.46870512 15.1994902 -12.63014831 14.8463756 -15 14 C-9.46418129 10.75795802 -4.06713063 8.09591786 2 6 C1.34 5.01 0.68 4.02 0 3 C0 2.01 0 1.02 0 0 Z " fill="#4A3915" transform="translate(76,70)" />
<path d="M0 0 C0.99 0.33 1.98 0.66 3 1 C3 1.99 3 2.98 3 4 C3.99 4.33 4.98 4.66 6 5 C6 8.3 6 11.6 6 15 C6.66 15.33 7.32 15.66 8 16 C5.03 16.66 2.06 17.32 -1 18 C-0.01 17.01 0.98 16.02 2 15 C2.99 15 3.98 15 5 15 C3.52307692 7.49230769 3.52307692 7.49230769 0.875 5 C0.25625 4.67 -0.3625 4.34 -1 4 C-0.67 2.68 -0.34 1.36 0 0 Z " fill="#D0A42C" transform="translate(53,18)" />
<path d="M0 0 C-0.66 1.32 -1.32 2.64 -2 4 C-1.67 4.495 -1.67 4.495 0 7 C-0.375 9.6875 -0.375 9.6875 -1 12 C-1.33 12 -1.66 12 -2 12 C-2.020625 11.236875 -2.04125 10.47375 -2.0625 9.6875 C-3 7 -3 7 -6.5625 5.1875 C-7.696875 4.795625 -8.83125 4.40375 -10 4 C-9.67 3.01 -9.34 2.02 -9 1 C-2.63157895 -1.31578947 -2.63157895 -1.31578947 0 0 Z " fill="#6E1911" transform="translate(67,45)" />
<path d="M0 0 C0.65355469 0.31710938 1.30710937 0.63421875 1.98046875 0.9609375 C5.79295445 2.2728666 9.30889571 2.45326362 13.3125 2.625 C13.6827832 2.64433594 13.6827832 2.64433594 15.55664062 2.7421875 C17.37071309 2.83581705 19.18532116 2.91896851 21 3 C19 5 19 5 15.15625 5.23046875 C13.60410572 5.22647524 12.0519606 5.21170957 10.5 5.1875 C9.71496094 5.18685547 8.92992187 5.18621094 8.12109375 5.18554688 C2.28093696 5.14046848 2.28093696 5.14046848 0 4 C0 2.68 0 1.36 0 0 Z " fill="#FCF1C9" transform="translate(20,37)" />
<path d="M0 0 C0.33 0 0.66 0 1 0 C1.08152344 2.54232342 1.14073716 5.08199202 1.1875 7.625 C1.20006836 7.98142578 1.20006836 7.98142578 1.26367188 9.78515625 C1.33024446 14.62276416 0.55559453 17.74738338 -2 22 C-2.33 22 -2.66 22 -3 22 C-2.76274968 19.62749678 -2.52508311 17.25504712 -2.28515625 14.8828125 C-2.09719202 12.98257134 -1.91731053 11.08151079 -1.74609375 9.1796875 C-1.66488281 8.29539062 -1.58367188 7.41109375 -1.5 6.5 C-1.4278125 5.6853125 -1.355625 4.870625 -1.28125 4.03125 C-1 2 -1 2 0 0 Z " fill="#524326" transform="translate(19,61)" />
<path d="M0 0 C6.40659341 0.6043956 6.40659341 0.6043956 8.6875 2.125 C10.62626335 4.89466193 10.52209533 7.34632559 10.6875 10.6875 C10.72037109 11.27724609 10.72037109 11.27724609 10.88671875 14.26171875 C10.92410156 15.16535156 10.96148437 16.06898437 11 17 C10.01 17.33 9.02 17.66 8 18 C7.67 13.38 7.34 8.76 7 4 C4.69 3.01 2.38 2.02 0 1 C0 0.67 0 0.34 0 0 Z " fill="#4D3E1D" transform="translate(68,22)" />
<path d="M0 0 C0 0.99 0 1.98 0 3 C-0.66 3 -1.32 3 -2 3 C-2.66 4.98 -3.32 6.96 -4 9 C-4.99 9 -5.98 9 -7 9 C-7.33 9.99 -7.66 10.98 -8 12 C-9.65 12 -11.3 12 -13 12 C-13.33 11.34 -13.66 10.68 -14 10 C-13.525625 9.8659375 -13.525625 9.8659375 -11.125 9.1875 C-8 8 -8 8 -6 5 C-5.34 5 -4.68 5 -4 5 C-3.71125 4.360625 -3.4225 3.72125 -3.125 3.0625 C-2 1 -2 1 0 0 Z " fill="#A58159" transform="translate(66,73)" />
<path d="M0 0 C0.33 0 0.66 0 1 0 C1.27672202 1.91299138 1.52042815 3.83077936 1.75 5.75 C1.88921875 6.81734375 2.0284375 7.8846875 2.171875 8.984375 C2 12 2 12 0.015625 14.390625 C-0.64953125 14.92171875 -1.3146875 15.4528125 -2 16 C-2.66 15.67 -3.32 15.34 -4 15 C-3.67 14.67 -3.34 14.34 -3 14 C-2.62819644 12.02769832 -2.30199332 10.04669048 -2 8.0625 C-1.10806175 2.2161235 -1.10806175 2.2161235 0 0 Z " fill="#81693E" transform="translate(75,26)" />
<path d="M0 0 C3.96 0 7.92 0 12 0 C11.67 0.66 11.34 1.32 11 2 C9.9275 1.87625 8.855 1.7525 7.75 1.625 C4 2 4 2 1.6875 4.75 C1.130625 5.8225 0.57375 6.895 0 8 C-0.4125 8.78375 -0.825 9.5675 -1.25 10.375 C-1.4975 10.91125 -1.745 11.4475 -2 12 C-3.86147549 8.27704902 -1.20204575 3.75038273 0 0 Z " fill="#E3D0AB" transform="translate(23,53)" />
<path d="M0 0 C0.33 0.66 0.66 1.32 1 2 C0.21625 2.763125 -0.5675 3.52625 -1.375 4.3125 C-4 7 -4 7 -6 10 C-6.66 10 -7.32 10 -8 10 C-8.36352041 5.51658163 -8.36352041 5.51658163 -6.8125 3.3125 C-4.65717969 1.75175081 -2.50311926 0.87947433 0 0 Z " fill="#BE9F6E" transform="translate(68,68)" />
<path d="M0 0 C0.66 0.33 1.32 0.66 2 1 C1.875 3.3125 1.875 3.3125 1 6 C0.030625 6.45375 -0.93875 6.9075 -1.9375 7.375 C-5 9 -5 9 -6.375 12.6875 C-6.58125 13.780625 -6.7875 14.87375 -7 16 C-7.33 16 -7.66 16 -8 16 C-8.103125 15.21625 -8.20625 14.4325 -8.3125 13.625 C-9 11 -9 11 -12 9 C-10.02 8.67 -8.04 8.34 -6 8 C-6 7.34 -6 6.68 -6 6 C-5.195625 5.7525 -4.39125 5.505 -3.5625 5.25 C-1 4 -1 4 -0.1875 1.875 C-0.125625 1.25625 -0.06375 0.6375 0 0 Z " fill="#865D29" transform="translate(67,63)" />
<path d="M0 0 C0.33 0.99 0.66 1.98 1 3 C-1.41526107 7.27315421 -4.22744071 10.85620059 -8 14 C-11.3125 14.8125 -11.3125 14.8125 -14 15 C-14 14.34 -14 13.68 -14 13 C-12.96875 12.67 -11.9375 12.34 -10.875 12 C-5.57611505 9.77059109 -2.50969125 5.01938251 0 0 Z " fill="#81673A" transform="translate(73,69)" />
<path d="M0 0 C2 4 2 4 2 6 C8.75 5.125 8.75 5.125 11 4 C11 4.99 11 5.98 11 7 C7.78548731 8.60725635 4.56387464 8.05748185 1 8 C1.33 8.99 1.66 9.98 2 11 C1.67 11.165 1.67 11.165 0 12 C0 8.04 0 4.08 0 0 Z " fill="#9F8025" transform="translate(50,61)" />
<path d="M0 0 C0.99 0.33 1.98 0.66 3 1 C3 2.65 3 4.3 3 6 C2.67 6.165 2.67 6.165 1 7 C0.375 9.5625 0.375 9.5625 0 12 C-0.66 11.34 -1.32 10.68 -2 10 C-2.33 10.165 -2.33 10.165 -4 11 C-3.21681311 7.08406554 -1.60820142 3.63593365 0 0 Z " fill="#EEDFB6" transform="translate(24,57)" />
<path d="M0 0 C2.0836309 0.14151828 4.16689938 0.28837936 6.25 0.4375 C6.83007812 0.47810547 6.83007812 0.47810547 9.765625 0.68359375 C12.30977376 0.93247787 14.55953248 1.28114942 17 2 C17 4.31 17 6.62 17 9 C17.66 9.33 18.32 9.66 19 10 C17.68 9.67 16.36 9.34 15 9 C15 7.35 15 5.7 15 4 C12.525 3.67 12.525 3.67 0 2 C0 1.34 0 0.68 0 0 Z " fill="#893E24" transform="translate(48,53)" />
<path d="M0 0 C0.66 0 1.32 0 2 0 C2 2.31 2 4.62 2 7 C5.28696233 7.79953138 6.71023192 8.09658936 10 7 C9.34 8.32 8.68 9.64 8 11 C2.59567654 11.48038431 2.59567654 11.48038431 0.0625 9.4375 C-1.42134164 6.03339271 -0.75421541 3.56538192 0 0 Z " fill="#B09765" transform="translate(36,55)" />
<path d="M0 0 C0.99 0.33 1.98 0.66 3 1 C4.31886422 4.95659266 4.26518132 7.82339427 4 12 C3.505 12.33 3.505 12.33 1 14 C0.67 9.38 0.34 4.76 0 0 Z " fill="#7C6339" transform="translate(73,51)" />
<path d="M0 0 C2.31 0.165 2.31 0.165 14 1 C13.67 1.99 13.34 2.98 13 4 C9.04 3.67 5.08 3.34 1 3 C0.67 3.66 0.34 4.32 0 5 C0 3.35 0 1.7 0 0 Z " fill="#A28E68" transform="translate(22,50)" />
<path d="M0 0 C0.825 0.165 0.825 0.165 5 1 C5 1.66 5 2.32 5 3 C6.98 3 8.96 3 11 3 C11 3.66 11 4.32 11 5 C7.37 5 3.74 5 0 5 C0 3.35 0 1.7 0 0 Z " fill="#EEC522" transform="translate(30,33)" />
<path d="M0 0 C1.98 0 3.96 0 6 0 C6 0.33 6 0.66 6 1 C4.35 1.33 2.7 1.66 1 2 C2.32 2.66 3.64 3.32 5 4 C5 5.32 5 6.64 5 8 C4.34 8 3.68 8 3 8 C3 8.99 3 9.98 3 11 C1.68 10.67 0.36 10.34 -1 10 C0.32 8.35 1.64 6.7 3 5 C1.35 4.67 -0.3 4.34 -2 4 C-1.34 2.68 -0.68 1.36 0 0 Z " fill="#F6E14A" transform="translate(45,19)" />
<path d="M0 0 C0.33 1.65 0.66 3.3 1 5 C-2.375 5.1875 -2.375 5.1875 -6 5 C-6.66 4.01 -7.32 3.02 -8 2 C-2.25 0 -2.25 0 0 0 Z " fill="#90753A" transform="translate(28,34)" />
<path d="M0 0 C6.92088947 -0.60709557 9.67113839 0.55928199 15 5 C13 6 13 6 11.0546875 5.44140625 C10.69503906 5.29638672 10.69503906 5.29638672 8.875 4.5625 C8.15054688 4.27503906 7.42609375 3.98757812 6.6796875 3.69140625 C6.12539063 3.46324219 5.57109375 3.23507813 5 3 C5 2.34 5 1.68 5 1 C3.35 1 1.7 1 0 1 C0 0.67 0 0.34 0 0 Z " fill="#BA9C3B" transform="translate(33,68)" />
<path d="M0 0 C1.32 0 2.64 0 4 0 C4 0.99 4 1.98 4 3 C3.01 3 2.02 3 1 3 C1 3.66 1 4.32 1 5 C3.64 4.34 6.28 3.68 9 3 C9 3.66 9 4.32 9 5 C5.78548731 6.60725635 2.56387464 6.05748185 -1 6 C-0.67 4.02 -0.34 2.04 0 0 Z " fill="#928D6B" transform="translate(52,59)" />
<path d="M0 0 C2.97 0 5.94 0 9 0 C9.66 1.32 10.32 2.64 11 4 C8.69 4 6.38 4 4 4 C4 3.34 4 2.68 4 2 C2.68 2 1.36 2 0 2 C0 1.34 0 0.68 0 0 Z " fill="#ECD7AC" transform="translate(24,45)" />
<path d="M0 0 C0.66 0 1.32 0 2 0 C2.66 1.65 3.32 3.3 4 5 C2.68 5.33 1.36 5.66 0 6 C0 6.66 0 7.32 0 8 C-0.99 8 -1.98 8 -3 8 C-2.25 3.25 -2.25 3.25 0 1 C0 0.67 0 0.34 0 0 Z " fill="#BFA274" transform="translate(65,37)" />
<path d="M0 0 C0.66 0.33 1.32 0.66 2 1 C1.34 4.3 0.68 7.6 0 11 C-0.66 11 -1.32 11 -2 11 C-2.66 9.02 -3.32 7.04 -4 5 C-3.01 4.34 -2.02 3.68 -1 3 C-0.67 2.01 -0.34 1.02 0 0 Z " fill="#AD915C" transform="translate(71,57)" />
<path d="M0 0 C3.3 0 6.6 0 10 0 C10.33 0.99 10.66 1.98 11 3 C9.741875 3.020625 8.48375 3.04125 7.1875 3.0625 C6.47980469 3.07410156 5.77210937 3.08570313 5.04296875 3.09765625 C3 3 3 3 0 2 C0 1.34 0 0.68 0 0 Z " fill="#4E2107" transform="translate(36,52)" />
<path d="M0 0 C2.00720923 0.28674418 4.0085944 0.61866701 6 1 C6.33 2.32 6.66 3.64 7 5 C4.125 4.6875 4.125 4.6875 1 4 C0.34 3.01 -0.32 2.02 -1 1 C-0.67 0.67 -0.34 0.34 0 0 Z " fill="#CD142C" transform="translate(58,50)" />
<path d="M0 0 C0.99 0.33 1.98 0.66 3 1 C-0.07999946 4.67230705 -2.2482602 5.56802365 -7 6 C-6.34 4.68 -5.68 3.36 -5 2 C-3.35 2 -1.7 2 0 2 C0 1.34 0 0.68 0 0 Z " fill="#D9C797" transform="translate(49,41)" />
<path d="M0 0 C2 1 2 1 2.8125 2.75 C3.07907874 5.94894494 1.88645127 7.48473164 0 10 C-0.66 10 -1.32 10 -2 10 C-2.33 8.68 -2.66 7.36 -3 6 C-2.34 5.67 -1.68 5.34 -1 5 C-0.375 2.4375 -0.375 2.4375 0 0 Z " fill="#CD9F77" transform="translate(67,51)" />
<path d="M0 0 C0.99 0.33 1.98 0.66 3 1 C3 2.65 3 4.3 3 6 C5.31 6 7.62 6 10 6 C10 6.33 10 6.66 10 7 C7.36 7 4.72 7 2 7 C1.67 5.35 1.34 3.7 1 2 C-0.65 2.33 -2.3 2.66 -4 3 C-2.1875 1.4375 -2.1875 1.4375 0 0 Z " fill="#CCAA47" transform="translate(27,32)" />
<path d="M0 0 C0.33 0.66 0.66 1.32 1 2 C-1.31 2.66 -3.62 3.32 -6 4 C-6 4.66 -6 5.32 -6 6 C-7.65 6 -9.3 6 -11 6 C-10.34 5.67 -9.68 5.34 -9 5 C-9 4.34 -9 3.68 -9 3 C-6.03 2.01 -3.06 1.02 0 0 Z " fill="#DFD4AD" transform="translate(55,37)" />
<path d="M0 0 C0.66 0.268125 1.32 0.53625 2 0.8125 C2 1.1425 2 1.4725 2 1.8125 C1.484375 1.93625 1.484375 1.93625 -1.125 2.5625 C-5.00600143 3.65329063 -7.76009641 5.44183884 -11 7.8125 C-11 6.8225 -11 5.8325 -11 4.8125 C-7.73337082 1.86199623 -4.4415159 -0.27759474 0 0 Z " fill="#62510D" transform="translate(50,16.1875)" />
<path d="M0 0 C1.32 0 2.64 0 4 0 C4 1.32 4 2.64 4 4 C0.25 5.125 0.25 5.125 -2 4 C-1.34 2.68 -0.68 1.36 0 0 Z " fill="#A61024" transform="translate(43,77)" />
<path d="M0 0 C0.33 0.495 0.33 0.495 2 3 C2.99 3 3.98 3 5 3 C5.33 3.495 5.33 3.495 7 6 C4.625 6.625 4.625 6.625 2 7 C0 5 0 5 -0.125 2.375 C-0.08375 1.59125 -0.0425 0.8075 0 0 Z " fill="#DCD9CE" transform="translate(37,57)" />
<path d="M0 0 C1.65 0 3.3 0 5 0 C5 1.32 5 2.64 5 4 C3.68 4.33 2.36 4.66 1 5 C0.67 3.35 0.34 1.7 0 0 Z " fill="#B1192A" transform="translate(50,76)" />
<path d="M0 0 C0.66 0 1.32 0 2 0 C2.125 3.375 2.125 3.375 2 7 C0 9 0 9 -2.625 9.125 C-3.40875 9.08375 -4.1925 9.0425 -5 9 C-4.01 8.34 -3.02 7.68 -2 7 C-0.84607545 4.6921509 -0.46562834 2.52769669 0 0 Z " fill="#661508" transform="translate(57,74)" />
<path d="M0 0 C2.0625 0.4375 2.0625 0.4375 4 1 C3.01 1 2.02 1 1 1 C0.67 3.31 0.34 5.62 0 8 C-0.99 7.67 -1.98 7.34 -3 7 C-1.125 1.125 -1.125 1.125 0 0 Z " fill="#875226" transform="translate(35,54)" />
<path d="M0 0 C2.05078125 0.03255208 4.1015625 0.06510417 6.15234375 0.09765625 C5.15234375 0.59765625 5.15234375 0.59765625 0.15234375 3.09765625 C-0.17765625 4.08765625 -0.50765625 5.07765625 -0.84765625 6.09765625 C-1.50765625 6.09765625 -2.16765625 6.09765625 -2.84765625 6.09765625 C-2.89037725 4.4315372 -2.88829457 2.7638274 -2.84765625 1.09765625 C-1.84765625 0.09765625 -1.84765625 0.09765625 0 0 Z " fill="#E8DECC" transform="translate(52.84765625,54.90234375)" />
<path d="M0 0 C0 0.99 0 1.98 0 3 C-2.64 3 -5.28 3 -8 3 C-8 2.34 -8 1.68 -8 1 C-5.29120665 -0.35439668 -2.99066732 -0.06501451 0 0 Z " fill="#7B1203" transform="translate(55,49)" />
<path d="M0 0 C1.57499749 3.14999498 0.70833498 5.63540882 0 9 C-1.5625 10.9375 -1.5625 10.9375 -3 12 C-3.66 11.67 -4.32 11.34 -5 11 C-4.54625 10.113125 -4.0925 9.22625 -3.625 8.3125 C-2.27995701 5.57068159 -1.08961285 2.84975669 0 0 Z " fill="#A28554" transform="translate(73,31)" />
<path d="M0 0 C0.825 0.165 0.825 0.165 5 1 C4.6875 2.875 4.6875 2.875 4 5 C3.505 5.33 3.505 5.33 1 7 C0.67 6.34 0.34 5.68 0 5 C0.66 5 1.32 5 2 5 C1.34 3.35 0.68 1.7 0 0 Z " fill="#D2BF9C" transform="translate(70,24)" />
<path d="M0 0 C1.9375 0.3125 1.9375 0.3125 4 1 C4.33 1.99 4.66 2.98 5 4 C3.02 4 1.04 4 -1 4 C-0.67 2.68 -0.34 1.36 0 0 Z " fill="#E0CDA6" transform="translate(19,77)" />
<path d="M0 0 C0.99 0.33 1.98 0.66 3 1 C2.67 2.98 2.34 4.96 2 7 C1.34 6.67 0.68 6.34 0 6 C0 5.01 0 4.02 0 3 C-0.66 3 -1.32 3 -2 3 C-2 2.34 -2 1.68 -2 1 C-1.34 0.67 -0.68 0.34 0 0 Z " fill="#892317" transform="translate(55,73)" />
<path d="M0 0 C2 1.625 2 1.625 4 4 C4.25 7.25 4.25 7.25 4 10 C3.34 10 2.68 10 2 10 C1.34 6.7 0.68 3.4 0 0 Z " fill="#DEB229" transform="translate(54,23)" />
<path d="M0 0 C1.1875 1.5625 1.1875 1.5625 2 4 C0.625 7.75 0.625 7.75 -1 11 C-1.33 11 -1.66 11 -2 11 C-1.85957123 9.35369672 -1.71250671 7.70795821 -1.5625 6.0625 C-1.48128906 5.14597656 -1.40007813 4.22945313 -1.31640625 3.28515625 C-1 1 -1 1 0 0 Z " fill="#5F5232" transform="translate(18,72)" />
<path d="M0 0 C0.66 0 1.32 0 2 0 C1.979375 0.928125 1.95875 1.85625 1.9375 2.8125 C2 6 2 6 3 9 C2.01 8.67 1.02 8.34 0 8 C-1.125 2.25 -1.125 2.25 0 0 Z " fill="#90723B" transform="translate(30,61)" />
<path d="M0 0 C1.32 0.66 2.64 1.32 4 2 C0.375 5 0.375 5 -3 5 C-3 4.01 -3 3.02 -3 2 C-2.01 1.34 -1.02 0.68 0 0 Z " fill="#F0C532" transform="translate(52,31)" />
<path d="M0 0 C1.67542976 0.28604898 3.34385343 0.61781233 5 1 C4.67 1.66 4.34 2.32 4 3 C3.01 2.67 2.02 2.34 1 2 C0.67 3.32 0.34 4.64 0 6 C-0.38218767 4.34385343 -0.71395102 2.67542976 -1 1 C-0.67 0.67 -0.34 0.34 0 0 Z " fill="#E5C36F" transform="translate(32,62)" />
<path d="M0 0 C2 2 2 2 2.125 4.625 C2.08375 5.40875 2.0425 6.1925 2 7 C1.34 7 0.68 7 0 7 C-0.33 7.99 -0.66 8.98 -1 10 C-0.67 6.7 -0.34 3.4 0 0 Z " fill="#705A2E" transform="translate(75,61)" />
<path d="M0 0 C0.99 0.165 0.99 0.165 6 1 C6 1.66 6 2.32 6 3 C4.02 3.33 2.04 3.66 0 4 C0 2.66666667 0 1.33333333 0 0 Z " fill="#684727" transform="translate(65,43)" />
<path d="M0 0 C2.9375 0.8125 2.9375 0.8125 6 2 C6.33 2.99 6.66 3.98 7 5 C4.03824877 4.38722388 2.61941217 3.74627478 0 2 C0 1.34 0 0.68 0 0 Z " fill="#AE8623" transform="translate(56,20)" />
</svg>