<?xml version='1.0' encoding='utf-8'?>
<svg xmlns="http://www.w3.org/2000/svg" version="1.1" width="110" height="99">
<path d="M0 0 C0.43344727 -0.00161133 0.43344727 -0.00161133 2.62695312 -0.00976562 C9.04517636 0.04517636 9.04517636 0.04517636 11.3125 2.3125 C11.58241906 5.00089385 11.39987357 7.60391936 11.3125 10.3125 C12.1375 10.35375 12.9625 10.395 13.8125 10.4375 C20.96647735 12.22599434 25.14247092 16.63808875 29.125 22.6875 C30.21725197 24.54532585 31.28280846 26.41928407 32.3125 28.3125 C32.67601563 28.97121094 33.03953125 29.62992188 33.4140625 30.30859375 C37.76752044 39.76821029 35.73829054 50.71277442 32.28515625 60.08203125 C31.3125 62.3125 31.3125 62.3125 30.3125 63.3125 C24.57638889 63.58564815 24.57638889 63.58564815 22.3125 63.3125 C21.6525 62.6525 20.9925 61.9925 20.3125 61.3125 C19.838125 61.76625 19.36375 62.22 18.875 62.6875 C9.2847893 68.76909703 -6.12805319 67.25310292 -16.76953125 64.9453125 C-18.6875 64.3125 -18.6875 64.3125 -21.6875 62.3125 C-22.375 59.1875 -22.375 59.1875 -22.6875 56.3125 C-22.935 57.09625 -23.1825 57.88 -23.4375 58.6875 C-24.6875 61.3125 -24.6875 61.3125 -26.5 62.6875 C-29.3586796 63.5042656 -30.87168112 63.26840779 -33.6875 62.3125 C-38.69230952 55.40973131 -39.23838403 47.85714316 -38.26953125 39.64453125 C-36.95886025 32.14115969 -34.92871844 25.67432765 -30.6875 19.3125 C-29.6975 18.6525 -28.7075 17.9925 -27.6875 17.3125 C-27.6875 15.9925 -27.6875 14.6725 -27.6875 13.3125 C-26.6975 13.3125 -25.7075 13.3125 -24.6875 13.3125 C-24.6875 12.6525 -24.6875 11.9925 -24.6875 11.3125 C-21.78149739 10.05585022 -19.89145416 9.3125 -16.6875 9.3125 C-16.460625 8.384375 -16.23375 7.45625 -16 6.5 C-13.0314662 -0.70929637 -6.80498987 -0.12820252 0 0 Z " fill="#1F76D5" transform="translate(56.6875,14.6875)" />
<path d="M0 0 C0.68707555 2.49064888 1 4.37886292 1 7 C1.73605469 7.21914063 2.47210938 7.43828125 3.23046875 7.6640625 C9.58380746 9.72868776 13.41660253 11.26656405 17 17 C17.8125 19.375 17.8125 19.375 18 21 C17.01 21 16.02 21 15 21 C14.835 21.495 14.835 21.495 14 24 C13.835 23.67 13.835 23.67 13 22 C12.34 22 11.68 22 11 22 C11.33 20.68 11.66 19.36 12 18 C11.34 18 10.68 18 10 18 C9.67 18.66 9.34 19.32 9 20 C9 19.01 9 18.02 9 17 C8.34 17 7.68 17 7 17 C7.04125 18.093125 7.0825 19.18625 7.125 20.3125 C7 24 7 24 5 27 C4.01 27.33 3.02 27.66 2 28 C1.360625 28.70125 0.72125 29.4025 0.0625 30.125 C-2 32 -2 32 -4.0625 31.9375 C-6.18234182 30.91177008 -7.46186836 29.76885138 -9 28 C-11.88437779 29.29299694 -13.87219421 30.65941363 -16 33 C-18.88437779 31.70700306 -20.87219421 30.34058637 -23 28 C-23.99 28.66 -24.98 29.32 -26 30 C-29.02329256 30.2610788 -31.95876242 30.08815181 -35 30 C-35 32.97 -35 35.94 -35 39 C-36.32 38.67 -37.64 38.34 -39 38 C-38.649375 39.03125 -38.29875 40.0625 -37.9375 41.125 C-37.00486377 44.9798964 -37.07359079 47.20172226 -38 51 C-38.99 51.165 -38.99 51.165 -44 52 C-47.96668889 45.44153033 -46.58053295 36.40516485 -44.875 29.25 C-42.31685735 21.03764485 -37.37392593 13.61980901 -30 9 C-27.05260244 7.75700806 -24.0952907 6.80014318 -21 6 C-21 4.02 -21 2.04 -21 0 C-14.44428789 -3.79779184 -6.85623583 -2.38477768 0 0 Z " fill="#2681E4" transform="translate(66,19)" />
<path d="M0 0 C0.43344727 -0.00161133 0.43344727 -0.00161133 2.62695312 -0.00976562 C9.04517636 0.04517636 9.04517636 0.04517636 11.3125 2.3125 C11.58241906 5.00089385 11.39987357 7.60391936 11.3125 10.3125 C12.1375 10.35375 12.9625 10.395 13.8125 10.4375 C20.96647735 12.22599434 25.14247092 16.63808875 29.125 22.6875 C30.21725197 24.54532585 31.28280846 26.41928407 32.3125 28.3125 C32.67601563 28.97121094 33.03953125 29.62992188 33.4140625 30.30859375 C37.76752044 39.76821029 35.73829054 50.71277442 32.28515625 60.08203125 C31.3125 62.3125 31.3125 62.3125 30.3125 63.3125 C24.57638889 63.58564815 24.57638889 63.58564815 22.3125 63.3125 C21.6525 62.6525 20.9925 61.9925 20.3125 61.3125 C19.838125 61.76625 19.36375 62.22 18.875 62.6875 C9.2847893 68.76909703 -6.12805319 67.25310292 -16.76953125 64.9453125 C-18.6875 64.3125 -18.6875 64.3125 -21.6875 62.3125 C-22.375 59.1875 -22.375 59.1875 -22.6875 56.3125 C-22.935 57.09625 -23.1825 57.88 -23.4375 58.6875 C-24.6875 61.3125 -24.6875 61.3125 -26.5 62.6875 C-29.3586796 63.5042656 -30.87168112 63.26840779 -33.6875 62.3125 C-38.69230952 55.40973131 -39.23838403 47.85714316 -38.26953125 39.64453125 C-36.95886025 32.14115969 -34.92871844 25.67432765 -30.6875 19.3125 C-29.6975 18.6525 -28.7075 17.9925 -27.6875 17.3125 C-27.6875 15.9925 -27.6875 14.6725 -27.6875 13.3125 C-26.6975 13.3125 -25.7075 13.3125 -24.6875 13.3125 C-24.6875 12.6525 -24.6875 11.9925 -24.6875 11.3125 C-21.78149739 10.05585022 -19.89145416 9.3125 -16.6875 9.3125 C-16.460625 8.384375 -16.23375 7.45625 -16 6.5 C-13.0314662 -0.70929637 -6.80498987 -0.12820252 0 0 Z M-11.6875 4.3125 C-11.6875 6.2925 -11.6875 8.2725 -11.6875 10.3125 C-12.244375 10.44785156 -12.80125 10.58320313 -13.375 10.72265625 C-21.94575333 13.14041944 -27.27310483 17.73088718 -32.0625 25.1875 C-36.77924454 33.710965 -37.70927722 42.65314098 -36.6875 52.3125 C-35.66923347 55.52225319 -34.37277808 58.40088117 -32.6875 61.3125 C-30.3125 61.4375 -30.3125 61.4375 -27.6875 61.3125 C-25.15676525 58.78176525 -25.32524765 57.60321942 -25.0546875 54.0859375 C-24.97089844 53.0546875 -24.88710938 52.0234375 -24.80078125 50.9609375 C-24.72214844 49.88070312 -24.64351562 48.80046875 -24.5625 47.6875 C-24.51931641 47.14351562 -24.51931641 47.14351562 -24.30078125 44.390625 C-24.08824043 41.69844123 -23.88417568 39.00588172 -23.6875 36.3125 C-23.0275 36.1475 -23.0275 36.1475 -19.6875 35.3125 C-20.13639883 38.9785071 -20.70955758 42.38775528 -21.75 45.9375 C-22.58677404 48.94988655 -22.87492394 51.22000499 -22.6875 54.3125 C-13.90456732 59.37957655 -2.45563398 57.6466057 7.09765625 56.04296875 C9.3125 55.3125 9.3125 55.3125 11.3125 52.3125 C10.9825 51.9825 10.6525 51.6525 10.3125 51.3125 C11.3025 50.6525 12.2925 49.9925 13.3125 49.3125 C13.60546875 46.9296875 13.60546875 46.9296875 13.5 44.1875 C13.47292969 43.27742188 13.44585937 42.36734375 13.41796875 41.4296875 C13.38316406 40.73101562 13.34835938 40.03234375 13.3125 39.3125 C12.6525 39.3125 11.9925 39.3125 11.3125 39.3125 C11.9725 37.6625 12.6325 36.0125 13.3125 34.3125 C17.01560719 34.81291989 19.00889881 35.31291191 21.3125 38.3125 C21.74487305 40.67260742 21.74487305 40.67260742 21.82421875 43.41796875 C21.85966797 44.40087891 21.89511719 45.38378906 21.93164062 46.39648438 C21.94291992 46.90856445 21.94291992 46.90856445 22 49.5 C22.03416016 50.53576172 22.06832031 51.57152344 22.10351562 52.63867188 C22.18602642 55.1965066 22.25516572 57.75399723 22.3125 60.3125 C23.9625 60.6425 25.6125 60.9725 27.3125 61.3125 C27.3125 60.6525 27.3125 59.9925 27.3125 59.3125 C27.9725 59.3125 28.6325 59.3125 29.3125 59.3125 C34.4382333 51.78407921 34.5359588 43.11575327 33.3125 34.3125 C32.16936718 30.52313632 30.54826632 27.55968442 28.3125 24.3125 C27.86648437 23.57386719 27.42046875 22.83523437 26.9609375 22.07421875 C22.7190733 15.59293462 17.42355113 13.68285038 10.3125 11.3125 C10.374375 10.36375 10.43625 9.415 10.5 8.4375 C10.438125 7.40625 10.37625 6.375 10.3125 5.3125 C4.20675141 1.24200094 -5.25441684 0.55367774 -11.6875 4.3125 Z " fill="#0855A9" transform="translate(56.6875,14.6875)" />
<path d="M0 0 C5.61 0.33 11.22 0.66 17 1 C17 1.99 17 2.98 17 4 C16.01 4.33 15.02 4.66 14 5 C13.34 5.99 12.68 6.98 12 8 C10.68 8 9.36 8 8 8 C8 8.66 8 9.32 8 10 C8.64066406 9.855625 9.28132813 9.71125 9.94140625 9.5625 C15.08040377 8.45964509 19.74695843 7.77160689 25 8 C25 9.32 25 10.64 25 12 C24.67 12.33 24.34 12.66 24 13 C23.95919217 14.99958364 23.95745644 17.00045254 24 19 C22.35 19.66 20.7 20.32 19 21 C19 21.66 19 22.32 19 23 C18.34 23 17.68 23 17 23 C17 23.99 17 24.98 17 26 C14.72707059 24.98110061 13.16975439 24.19097369 11.5 22.3125 C11.005 21.879375 10.51 21.44625 10 21 C7.875 21.1875 7.875 21.1875 6 22 C5.67 22.66 5.34 23.32 5 24 C4.34 24 3.68 24 3 24 C2.67 24.66 2.34 25.32 2 26 C-0.04119788 24.38405168 -2.04072937 22.7143618 -4 21 C-4 20.34 -4 19.68 -4 19 C-4.66 19.33 -4.66 19.33 -8 21 C-8.99 19.02 -9.98 17.04 -11 15 C-11.33 15.165 -11.33 15.165 -13 16 C-13.625 18.5625 -13.625 18.5625 -14 21 C-15.65614657 21.38218767 -17.32457024 21.71395102 -19 22 C-19.33 21.67 -19.66 21.34 -20 21 C-22 24 -22 24 -22 26.5625 C-22 27.366875 -22 28.17125 -22 29 C-22.66 29.66 -23.32 30.32 -24 31 C-25.82585009 37.20789029 -25.25161708 43.74191461 -24 50 C-27.88151935 45.73854357 -27.4298634 41.97887581 -27.28125 36.44921875 C-26.39366692 25.56399843 -22.52231443 16.75550912 -14.25 9.5 C-10.82681549 6.724445 -8.81453197 5.87407811 -4.375 5.9375 C-3.96636719 5.94201172 -3.96636719 5.94201172 -1.8984375 5.96484375 C-1.58519531 5.97064453 -1.58519531 5.97064453 0 6 C0 4.02 0 2.04 0 0 Z " fill="#3EA1F9" transform="translate(47,21)" />
<path d="M0 0 C0.43344727 -0.00161133 0.43344727 -0.00161133 2.62695312 -0.00976562 C9.04517636 0.04517636 9.04517636 0.04517636 11.3125 2.3125 C11.58241906 5.00089385 11.39987357 7.60391936 11.3125 10.3125 C12.1375 10.35375 12.9625 10.395 13.8125 10.4375 C22.29644028 12.55848507 26.6174175 18.62915447 31.16015625 25.7265625 C32.3125 28.3125 32.3125 28.3125 31.99609375 30.6484375 C31.77050781 31.19757812 31.54492188 31.74671875 31.3125 32.3125 C30.77625 31.1575 30.24 30.0025 29.6875 28.8125 C24.59572439 18.89231649 20.07996444 14.93650098 9.3125 11.3125 C9.3125 9.3325 9.3125 7.3525 9.3125 5.3125 C2.4191254 2.91480449 -4.5941169 2.27417152 -11.6875 4.3125 C-11.6875 6.2925 -11.6875 8.2725 -11.6875 10.3125 C-12.47253906 10.6528125 -13.25757812 10.993125 -14.06640625 11.34375 C-24.41817591 16.11953576 -29.9740188 21.18795711 -33.9609375 31.91796875 C-36.27883793 39.55707071 -37.28069071 48.46228913 -34.1875 55.9375 C-33.6925 56.72125 -33.1975 57.505 -32.6875 58.3125 C-32.6875 59.3025 -32.6875 60.2925 -32.6875 61.3125 C-30.7075 60.6525 -28.7275 59.9925 -26.6875 59.3125 C-26.64262451 58.69205811 -26.59774902 58.07161621 -26.55151367 57.43237305 C-26.34014183 54.62031152 -26.10782202 51.81036341 -25.875 49 C-25.83987305 48.51176758 -25.83987305 48.51176758 -25.66210938 46.04101562 C-25.58154297 45.10322266 -25.50097656 44.16542969 -25.41796875 43.19921875 C-25.34989014 42.33514404 -25.28181152 41.47106934 -25.21166992 40.58081055 C-24.59974877 37.93276236 -23.83757458 36.93876603 -21.6875 35.3125 C-21.0275 35.3125 -20.3675 35.3125 -19.6875 35.3125 C-19.4783445 40.43680976 -20.23779232 44.41973658 -21.6875 49.3125 C-22.11909408 53.62844081 -21.35001291 57.30735526 -19.6875 61.3125 C-15.58267326 63.11231437 -11.8634584 63.59440223 -7.4140625 63.7265625 C-6.83720703 63.74589844 -6.83720703 63.74589844 -3.91796875 63.84375 C-2.72816406 63.8746875 -1.53835937 63.905625 -0.3125 63.9375 C0.90050781 63.97617188 2.11351562 64.01484375 3.36328125 64.0546875 C6.34620521 64.14863786 9.32912825 64.23430807 12.3125 64.3125 C12.3125 64.6425 12.3125 64.9725 12.3125 65.3125 C8.08055976 66.33569638 3.95742595 66.50512168 -0.375 66.5 C-1.08035889 66.49919434 -1.78571777 66.49838867 -2.51245117 66.49755859 C-9.29332286 66.41850397 -15.9274723 66.15251846 -21.6875 62.3125 C-22.375 59.1875 -22.375 59.1875 -22.6875 56.3125 C-22.935 57.09625 -23.1825 57.88 -23.4375 58.6875 C-24.6875 61.3125 -24.6875 61.3125 -26.5 62.6875 C-29.3586796 63.5042656 -30.87168112 63.26840779 -33.6875 62.3125 C-38.69230952 55.40973131 -39.23838403 47.85714316 -38.26953125 39.64453125 C-36.95886025 32.14115969 -34.92871844 25.67432765 -30.6875 19.3125 C-29.6975 18.6525 -28.7075 17.9925 -27.6875 17.3125 C-27.6875 15.9925 -27.6875 14.6725 -27.6875 13.3125 C-26.6975 13.3125 -25.7075 13.3125 -24.6875 13.3125 C-24.6875 12.6525 -24.6875 11.9925 -24.6875 11.3125 C-21.78149739 10.05585022 -19.89145416 9.3125 -16.6875 9.3125 C-16.460625 8.384375 -16.23375 7.45625 -16 6.5 C-13.0314662 -0.70929637 -6.80498987 -0.12820252 0 0 Z " fill="#1E415E" transform="translate(56.6875,14.6875)" />
<path d="M0 0 C2.52259061 1.97420135 2.9929808 2.96745642 3.6875 6.1875 C3.790625 7.115625 3.89375 8.04375 4 9 C3.34 9 2.68 9 2 9 C1.01 10.98 0.02 12.96 -1 15 C-1.99 15 -2.98 15 -4 15 C-4 17.97 -4 20.94 -4 24 C-5.32 23.67 -6.64 23.34 -8 23 C-7.649375 24.03125 -7.29875 25.0625 -6.9375 26.125 C-6.00486377 29.9798964 -6.07359079 32.20172226 -7 36 C-7.825 36.165 -7.825 36.165 -12 37 C-14.79967976 30.0008006 -14.89808304 23.98949439 -12 17 C-11.67 16.67 -11.34 16.34 -11 16 C-10.95919217 14.00041636 -10.95745644 11.99954746 -11 10 C-10.34 10 -9.68 10 -9 10 C-8.67 9.01 -8.34 8.02 -8 7 C-6.33333333 7 -4.66666667 7 -3 7 C-2.01 4.69 -1.02 2.38 0 0 Z " fill="#3695F7" transform="translate(35,34)" />
<path d="M0 0 C2.6327755 1.49190612 3.00773119 3.24387637 3.875 6.0625 C11.25961538 7.41634615 11.25961538 7.41634615 14.375 5.625 C14.87 5.109375 15.365 4.59375 15.875 4.0625 C16.16375 4.701875 16.4525 5.34125 16.75 6 C17.875 8.0625 17.875 8.0625 19.875 9.0625 C19.875 12.0625 19.875 12.0625 18.5 13.75 C16.875 15.0625 16.875 15.0625 14.875 15.0625 C14.545 15.7225 14.215 16.3825 13.875 17.0625 C11.83380212 15.44655168 9.83427063 13.7768618 7.875 12.0625 C7.875 11.4025 7.875 10.7425 7.875 10.0625 C7.215 10.3925 7.215 10.3925 3.875 12.0625 C2.885 10.0825 1.895 8.1025 0.875 6.0625 C0.545 6.2275 0.545 6.2275 -1.125 7.0625 C-1.75 9.625 -1.75 9.625 -2.125 12.0625 C-3.78114657 12.44468767 -5.44957024 12.77645102 -7.125 13.0625 C-7.455 12.7325 -7.785 12.4025 -8.125 12.0625 C-10.125 15.0625 -10.125 15.0625 -10.125 17.625 C-10.125 18.429375 -10.125 19.23375 -10.125 20.0625 C-10.785 20.7225 -11.445 21.3825 -12.125 22.0625 C-13.95085009 28.27039029 -13.37661708 34.80441461 -12.125 41.0625 C-16.00651935 36.80104357 -15.5548634 33.04137581 -15.40625 27.51171875 C-14.54071479 16.89689106 -10.59915041 9.58939169 -4 1.4375 C-2.125 0.0625 -2.125 0.0625 0 0 Z " fill="#3C9FFB" transform="translate(35.125,29.9375)" />
<path d="M0 0 C0.66 0.33 1.32 0.66 2 1 C5.19901865 10.59705596 2.9333808 20.98007856 -1 30 C-2.89488952 31.89488952 -5.57139146 31.18019112 -8.08984375 31.23046875 C-10 31 -10 31 -12 29 C-12.5775 29.515625 -13.155 30.03125 -13.75 30.5625 C-16 32 -16 32 -18.25 31.6875 C-18.8275 31.460625 -19.405 31.23375 -20 31 C-18.35 30.67 -16.7 30.34 -15 30 C-15.33 21.09 -15.66 12.18 -16 3 C-12 4 -12 4 -10 6 C-9.68115234 8.24658203 -9.68115234 8.24658203 -9.5859375 11.0078125 C-9.54726562 11.99394531 -9.50859375 12.98007812 -9.46875 13.99609375 C-9.4378125 15.02863281 -9.406875 16.06117187 -9.375 17.125 C-9.33632812 18.16527344 -9.29765625 19.20554687 -9.2578125 20.27734375 C-9.16335234 22.85138311 -9.07778786 25.42541155 -9 28 C-7.68 28.33 -6.36 28.66 -5 29 C-5 28.34 -5 27.68 -5 27 C-4.34 27 -3.68 27 -3 27 C-2.87625 26.4225 -2.7525 25.845 -2.625 25.25 C-2 23 -2 23 -0.97314453 21.14355469 C0.12881459 18.71625889 0.23115121 17.10518954 0.1953125 14.453125 C0.18886719 13.60878906 0.18242188 12.76445313 0.17578125 11.89453125 C0.15902344 11.02183594 0.14226562 10.14914063 0.125 9.25 C0.11597656 8.36183594 0.10695313 7.47367188 0.09765625 6.55859375 C0.07414577 4.37211942 0.04128499 2.18619906 0 0 Z " fill="#1D3E5C" transform="translate(89,47)" />
<path d="M0 0 C0.43344727 -0.00161133 0.43344727 -0.00161133 2.62695312 -0.00976562 C9.04517636 0.04517636 9.04517636 0.04517636 11.3125 2.3125 C11.58241906 5.00089385 11.39987357 7.60391936 11.3125 10.3125 C12.1375 10.35375 12.9625 10.395 13.8125 10.4375 C22.29644028 12.55848507 26.6174175 18.62915447 31.16015625 25.7265625 C32.3125 28.3125 32.3125 28.3125 31.99609375 30.6484375 C31.77050781 31.19757812 31.54492188 31.74671875 31.3125 32.3125 C30.77625 31.1575 30.24 30.0025 29.6875 28.8125 C24.59572439 18.89231649 20.07996444 14.93650098 9.3125 11.3125 C9.3125 9.3325 9.3125 7.3525 9.3125 5.3125 C2.4191254 2.91480449 -4.5941169 2.27417152 -11.6875 4.3125 C-11.6875 6.2925 -11.6875 8.2725 -11.6875 10.3125 C-12.45835938 10.51746094 -13.22921875 10.72242188 -14.0234375 10.93359375 C-15.02632812 11.20300781 -16.02921875 11.47242188 -17.0625 11.75 C-18.06023438 12.01683594 -19.05796875 12.28367187 -20.0859375 12.55859375 C-22.6875 13.3125 -22.6875 13.3125 -24.6875 14.3125 C-24.6875 13.3225 -24.6875 12.3325 -24.6875 11.3125 C-21.78149739 10.05585022 -19.89145416 9.3125 -16.6875 9.3125 C-16.460625 8.384375 -16.23375 7.45625 -16 6.5 C-13.0314662 -0.70929637 -6.80498987 -0.12820252 0 0 Z " fill="#495B60" transform="translate(56.6875,14.6875)" />
<path d="M0 0 C0.68707555 2.49064888 1 4.37886292 1 7 C1.99 7.66 2.98 8.32 4 9 C-1.36000789 11.25684543 -5.1977825 12.36263859 -11 12 C-11 11.34 -11 10.68 -11 10 C-10.01 10 -9.02 10 -8 10 C-7.67 9.01 -7.34 8.02 -7 7 C-5.35 6.67 -3.7 6.34 -2 6 C-2 5.01 -2 4.02 -2 3 C-7.28 3 -12.56 3 -18 3 C-18 4.98 -18 6.96 -18 9 C-20.64 8.67 -23.28 8.34 -26 8 C-23 6 -23 6 -21 6 C-21 4.02 -21 2.04 -21 0 C-14.44428789 -3.79779184 -6.85623583 -2.38477768 0 0 Z " fill="#559ED4" transform="translate(66,19)" />
<path d="M0 0 C2 0.8125 2 0.8125 3.5 2.4375 C3.7475 2.664375 3.7475 2.664375 5 3.8125 C7.70130864 3.63822202 8.89585467 2.89711808 11 1.1875 C13 -0.1875 13 -0.1875 15.125 -0.0625 C17 0.8125 17 0.8125 19 3.8125 C18.34 3.544375 17.68 3.27625 17 3 C12.42599171 2.71412448 9.61832206 5.21772314 6 7.8125 C6.33 8.4725 6.66 9.1325 7 9.8125 C0.78675502 10.54280908 -4.84098757 11.04430249 -11 9.8125 C-11.625 7.4375 -11.625 7.4375 -12 4.8125 C-9.60351761 2.41601761 -8.25271597 2.44717629 -5 1.8125 C-2 -0.1875 -2 -0.1875 0 0 Z " fill="#1C79DF" transform="translate(49,60.1875)" />
<path d="M0 0 C3.71855262 3.01025688 5.60686852 7.38069475 6.30541992 12.03491211 C6.43709684 14.17811066 6.46633441 16.29053778 6.4375 18.4375 C6.43427734 19.18378662 6.43105469 19.93007324 6.42773438 20.69897461 C6.28377134 26.36876031 5.23534377 30.24808883 2 35 C1.34 35 0.68 35 0 35 C0 35.66 0 36.32 0 37 C-1.65 36.67 -3.3 36.34 -5 36 C-5 29.07 -5 22.14 -5 15 C-4.67 15 -4.34 15 -4 15 C-3.67 20.61 -3.34 26.22 -3 32 C-2.34 31.67 -1.68 31.34 -1 31 C-0.59270772 28.67843403 -0.25561323 26.3431213 0 24 C0.66 24 1.32 24 2 24 C2.33 18.72 2.66 13.44 3 8 C2.01 7.67 1.02 7.34 0 7 C0 4.69 0 2.38 0 0 Z " fill="#1367C0" transform="translate(84,39)" />
<path d="M0 0 C0.33 0.66 0.66 1.32 1 2 C1.66 2 2.32 2 3 2 C3 5.63 3 9.26 3 13 C2.01 13.33 1.02 13.66 0 14 C0 14.99 0 15.98 0 17 C-7.68662574 21.80414109 -20.49415581 20.83910145 -29 19 C-29 18.67 -29 18.34 -29 18 C-28.27554688 18.01160156 -27.55109375 18.02320312 -26.8046875 18.03515625 C-21.75216677 18.08231311 -16.96621233 18.07377564 -12 17 C-12.33 16.34 -12.66 15.68 -13 15 C-11 14 -9 13 -7 12 C-6.2575 11.608125 -5.515 11.21625 -4.75 10.8125 C-3 10 -3 10 -1 10 C-1.66 8.68 -2.32 7.36 -3 6 C-2.34 5.34 -1.68 4.68 -1 4 C-0.375 1.875 -0.375 1.875 0 0 Z " fill="#1469C7" transform="translate(67,52)" />
<path d="M0 0 C1.65 0.33 3.3 0.66 5 1 C4.5317879 5.77576339 3.75668002 9.04476345 1 13 C1.66 13.33 2.32 13.66 3 14 C1.4375 15.625 1.4375 15.625 -1 17 C-4.625 16.5 -4.625 16.5 -8 15 C-9.4375 12.375 -9.4375 12.375 -10 10 C-10.99 10 -11.98 10 -13 10 C-13 9.34 -13 8.68 -13 8 C-9.93753253 6.21590198 -7.77920727 5.77119979 -4.25 5.875 C-3.45078125 5.89304687 -2.6515625 5.91109375 -1.828125 5.9296875 C-1.22484375 5.95289063 -0.6215625 5.97609375 0 6 C0 4.02 0 2.04 0 0 Z " fill="#4EB0F5" transform="translate(47,21)" />
<path d="M0 0 C4.62 0.33 4.62 0.33 28 2 C28 3.32 28 4.64 28 6 C23.70834738 6.02891949 19.41671964 6.04677118 15.125 6.0625 C13.90167969 6.07087891 12.67835937 6.07925781 11.41796875 6.08789062 C10.83466797 6.08950195 10.83466797 6.08950195 7.8828125 6.09765625 C7.34342041 6.10027466 7.34342041 6.10027466 4.61376953 6.11352539 C2 6 2 6 0 5 C0 3.35 0 1.7 0 0 Z " fill="#136DC6" transform="translate(37,72)" />
<path d="M0 0 C6.46736758 0.33451901 9.5353326 1.21642778 14 6 C15.375 9.3125 15.375 9.3125 16 12 C15.01 12 14.02 12 13 12 C12.67 12.99 12.34 13.98 12 15 C11.67 14.34 11.34 13.68 11 13 C10.34 13 9.68 13 9 13 C9.33 11.68 9.66 10.36 10 9 C9.34 9 8.68 9 8 9 C7.67 9.66 7.34 10.32 7 11 C7 10.01 7 9.02 7 8 C6.34 8 5.68 8 5 8 C5 9.98 5 11.96 5 14 C3.68 13.34 2.36 12.68 1 12 C1.33 11.67 1.66 11.34 2 11 C1.9896875 10.6184375 1.9896875 10.6184375 1.9375 8.6875 C2.0033697 5.85510307 2.57470921 4.40517821 4 2 C2.68 1.34 1.36 0.68 0 0 Z " fill="#3F91E7" transform="translate(68,28)" />
<path d="M0 0 C1.98 0 3.96 0 6 0 C5.35562988 0.22365234 4.71125977 0.44730469 4.04736328 0.67773438 C2 2 2 2 1.39404297 4.30664062 C1.34393066 5.24701172 1.29381836 6.18738281 1.2421875 7.15625 C1.17386719 8.17847656 1.10554688 9.20070313 1.03515625 10.25390625 C0.98230469 11.32511719 0.92945313 12.39632812 0.875 13.5 C0.75537624 15.6150498 0.62814864 17.72968754 0.4921875 19.84375 C0.44433105 20.78412109 0.39647461 21.72449219 0.34716797 22.69335938 C0 25 0 25 -2 27 C-4.625 27.125 -4.625 27.125 -7 27 C-7.33 25.35 -7.66 23.7 -8 22 C-6.35 21.67 -4.7 21.34 -3 21 C-3.33 16.71 -3.66 12.42 -4 8 C-3.01 8 -2.02 8 -1 8 C-0.67 5.36 -0.34 2.72 0 0 Z " fill="#1C75C9" transform="translate(31,49)" />
<path d="M0 0 C2.8125 -0.3125 2.8125 -0.3125 6 0 C7.4375 1.9375 7.4375 1.9375 9 5 C10.15217581 6.42847697 11.32052119 7.84398247 12.5 9.25 C19.68975335 18.55259841 20.09633497 28.58775724 19 40 C18.29224688 43.28569026 17.33842768 45.89484779 16 49 C15.67 49.99 15.34 50.98 15 52 C14.34 51.67 13.68 51.34 13 51 C13.28875 50.29617187 13.5775 49.59234375 13.875 48.8671875 C17.70790312 38.6727299 18.9116162 29.04388892 14.9375 18.6875 C11.55103593 11.51164979 7.34368541 4.56057475 0 1 C0 0.67 0 0.34 0 0 Z " fill="#5F6560" transform="translate(74,26)" />
<path d="M0 0 C1.32 0.66 2.64 1.32 4 2 C3.34 2 2.68 2 2 2 C2 4.97 2 7.94 2 11 C0.68 10.67 -0.64 10.34 -2 10 C-1.649375 11.03125 -1.29875 12.0625 -0.9375 13.125 C-0.00486377 16.9798964 -0.07359079 19.20172226 -1 23 C-2.65 23.33 -4.3 23.66 -6 24 C-6.33 22.02 -6.66 20.04 -7 18 C-6.67 18 -6.34 18 -6 18 C-5.34 14.7 -4.68 11.4 -4 8 C-3.34 8 -2.68 8 -2 8 C-2 7.34 -2 6.68 -2 6 C-1.01 6 -0.02 6 1 6 C0.67 4.02 0.34 2.04 0 0 Z " fill="#2181E6" transform="translate(29,47)" />
<path d="M0 0 C2.88575819 0.39803561 3.82189513 0.79009069 5.75 3.0625 C5.95625 3.3821875 5.95625 3.3821875 7 5 C8.65 4.67 10.3 4.34 12 4 C12 3.34 12 2.68 12 2 C13.6875 1.25 13.6875 1.25 16 1 C18.625 2.9375 18.625 2.9375 21 5 C21.66 5 22.32 5 23 5 C23.33 4.34 23.66 3.68 24 3 C24.66 3 25.32 3 26 3 C26.33 2.01 26.66 1.02 27 0 C28.32 0.33 29.64 0.66 31 1 C30.67 1.66 30.34 2.32 30 3 C29.01 3.33 28.02 3.66 27 4 C26.360625 4.70125 25.72125 5.4025 25.0625 6.125 C23 8 23 8 20.9375 7.9375 C18.81765818 6.91177008 17.53813164 5.76885138 16 4 C13.11562221 5.29299694 11.12780579 6.65941363 9 9 C6.13302508 7.71480435 4.02392288 6.42870746 2 4 C2 3.34 2 2.68 2 2 C0.35 2.66 -1.3 3.32 -3 4 C-2.01 2.68 -1.02 1.36 0 0 Z " fill="#348CEE" transform="translate(41,43)" />
<path d="M0 0 C0.66 0 1.32 0 2 0 C2.16276042 2.01822917 2.32552083 4.03645833 2.48828125 6.0546875 C3 8 3 8 6 10 C6.30471206 12.57810299 6.41857771 14.86399418 6.375 17.4375 C6.38660156 18.11876953 6.39820312 18.80003906 6.41015625 19.50195312 C6.39244952 22.51504775 6.36382822 24.50873463 4.5390625 26.97265625 C3 28 3 28 2 28 C1.93941406 26.73285156 1.87882812 25.46570313 1.81640625 24.16015625 C1.73191435 22.46093036 1.64727081 20.761712 1.5625 19.0625 C1.5428418 18.64709961 1.5428418 18.64709961 1.44335938 16.54492188 C1.16269231 10.99634986 0.66239935 5.51628363 0 0 Z " fill="#2580D0" transform="translate(78,45)" />
<path d="M0 0 C-0.24814453 0.12826172 -0.24814453 0.12826172 -1.50390625 0.77734375 C-10.12667788 5.63685641 -15.17844457 12.59481522 -18 22 C-18.96152717 26.0917543 -19.2883347 30.1216875 -19.5625 34.3125 C-19.64628906 35.56675781 -19.73007812 36.82101563 -19.81640625 38.11328125 C-19.87699219 39.06589844 -19.93757813 40.01851562 -20 41 C-23.41857304 35.87214044 -21.77245232 29.91369236 -21 24 C-19.52207659 16.87909628 -17.27711428 9.18474286 -11 5 C-11 3.68 -11 2.36 -11 1 C-10.6184375 0.9278125 -10.6184375 0.9278125 -8.6875 0.5625 C-2.31428571 -0.77142857 -2.31428571 -0.77142857 0 0 Z " fill="#244961" transform="translate(40,27)" />
<path d="M0 0 C0 3.59857954 -0.95830515 5.09451118 -3 8 C-3.66 8 -4.32 8 -5 8 C-5.309375 8.969375 -5.61875 9.93875 -5.9375 10.9375 C-7 14 -7 14 -8 15 C-7.979375 15.804375 -7.95875 16.60875 -7.9375 17.4375 C-8 20 -8 20 -10 22 C-11.82585009 28.20789029 -11.25161708 34.74191461 -10 41 C-13.88151935 36.73854357 -13.4298634 32.97887581 -13.28125 27.44921875 C-12.39097273 16.53095726 -8.29504822 7.33792727 0 0 Z " fill="#4999D6" transform="translate(33,30)" />
<path d="M0 0 C4 1 4 1 6 3 C6.22705078 4.87939453 6.22705078 4.87939453 6.1953125 7.1328125 C6.18886719 7.93847656 6.18242188 8.74414062 6.17578125 9.57421875 C6.15902344 10.41597656 6.14226562 11.25773437 6.125 12.125 C6.11597656 12.97449219 6.10695313 13.82398438 6.09765625 14.69921875 C6.07405647 16.79959884 6.03818483 18.89983444 6 21 C5.67 21 5.34 21 5 21 C4.34 17.37 3.68 13.74 3 10 C2.67 15.28 2.34 20.56 2 26 C1.67 26 1.34 26 1 26 C0.67 17.42 0.34 8.84 0 0 Z " fill="#1E4A77" transform="translate(73,50)" />
<path d="M0 0 C1.98 0.66 3.96 1.32 6 2 C5.67 2.66 5.34 3.32 5 4 C3.68 3.34 2.36 2.68 1 2 C1.33 3.98 1.66 5.96 2 8 C1.01 8 0.02 8 -1 8 C-1 8.66 -1 9.32 -1 10 C-1.66 10 -2.32 10 -3 10 C-3.33 13.63 -3.66 17.26 -4 21 C-4.99 20.67 -5.98 20.34 -7 20 C-7.17523261 14.91825435 -7.28258584 10.67930096 -5 6 C-2.875 5.125 -2.875 5.125 -1 5 C-0.67 3.35 -0.34 1.7 0 0 Z " fill="#2C88F0" transform="translate(28,45)" />
<path d="M0 0 C0.55107422 0.00580078 0.55107422 0.00580078 3.33984375 0.03515625 C3.89220703 0.03966797 3.89220703 0.03966797 6.6875 0.0625 C7.54214844 0.07410156 8.39679687 0.08570312 9.27734375 0.09765625 C9.27734375 1.08765625 9.27734375 2.07765625 9.27734375 3.09765625 C8.28734375 3.42765625 7.29734375 3.75765625 6.27734375 4.09765625 C5.94734375 4.59265625 5.94734375 4.59265625 4.27734375 7.09765625 C2.33203125 7.390625 2.33203125 7.390625 0.15234375 7.28515625 C-1.12640625 7.22328125 -2.40515625 7.16140625 -3.72265625 7.09765625 C-3.76519981 5.09810879 -3.76346408 3.09723989 -3.72265625 1.09765625 C-2.72265625 0.09765625 -2.72265625 0.09765625 0 0 Z " fill="#4EA6F1" transform="translate(54.72265625,21.90234375)" />
<path d="M0 0 C0 1.65 0 3.3 0 5 C-3.88134031 6.81359313 -6.90693517 7.2373701 -11.17578125 7.1953125 C-12.33271484 7.18886719 -13.48964844 7.18242188 -14.68164062 7.17578125 C-15.28073242 7.16740234 -15.28073242 7.16740234 -18.3125 7.125 C-19.53001953 7.11597656 -20.74753906 7.10695313 -22.00195312 7.09765625 C-25.00150274 7.07413037 -28.00065044 7.04125653 -31 7 C-31 6.67 -31 6.34 -31 6 C-23.74 5.67 -16.48 5.34 -9 5 C-8.67 3.68 -8.34 2.36 -8 1 C-5.10765685 0.17361624 -3.11257569 0 0 0 Z " fill="#1C5DA4" transform="translate(74,72)" />
<path d="M0 0 C1.32 0.33 2.64 0.66 4 1 C4 2.98 4 4.96 4 7 C4.825 7.04125 5.65 7.0825 6.5 7.125 C14.98394028 9.24598507 19.3049175 15.31665447 23.84765625 22.4140625 C25 25 25 25 24.68359375 27.3359375 C24.45800781 27.88507812 24.23242188 28.43421875 24 29 C23.46375 27.845 22.9275 26.69 22.375 25.5 C17.28322439 15.57981649 12.76746444 11.62400098 2 8 C2.04125 7.05125 2.0825 6.1025 2.125 5.125 C2 2 2 2 0 0 Z " fill="#1E425E" transform="translate(64,18)" />
<path d="M0 0 C1.8125 0.9375 1.8125 0.9375 3.3125 2.5625 C3.8075 3.01625 4.3025 3.47 4.8125 3.9375 C7.51380864 3.76322202 8.70835467 3.02211808 10.8125 1.3125 C12.8125 -0.0625 12.8125 -0.0625 14.9375 0.0625 C16.8125 0.9375 16.8125 0.9375 18.8125 3.9375 C18.11125 3.69 17.41 3.4425 16.6875 3.1875 C12.68850015 2.83976088 11.05416848 4.73040656 7.8125 6.9375 C4.67589261 6.75826529 3.50536291 5.73274194 0.8125 3.9375 C-2.375 3.8125 -2.375 3.8125 -5.1875 3.9375 C-5.1875 4.5975 -5.1875 5.2575 -5.1875 5.9375 C-6.1775 5.9375 -7.1675 5.9375 -8.1875 5.9375 C-8.1875 5.2775 -8.1875 4.6175 -8.1875 3.9375 C-3.12524626 -0.08929275 -3.12524626 -0.08929275 0 0 Z " fill="#247EE0" transform="translate(49.1875,60.0625)" />
<path d="M0 0 C0.66 0.33 1.32 0.66 2 1 C3.14693757 4.44081271 3.16819738 7.18746712 3.1875 10.8125 C3.20167969 12.01519531 3.21585938 13.21789062 3.23046875 14.45703125 C2.99923825 18.01171032 2.39313396 20.72980134 1 24 C0.34 24.33 -0.32 24.66 -1 25 C-1.72159424 26.64363134 -2.39351421 28.31050386 -3 30 C-4.32 29.67 -5.64 29.34 -7 29 C-6.34 29 -5.68 29 -5 29 C-5 28.34 -5 27.68 -5 27 C-4.34 27 -3.68 27 -3 27 C-2.87625 26.4225 -2.7525 25.845 -2.625 25.25 C-2 23 -2 23 -0.97314453 21.14355469 C0.12881459 18.71625889 0.23115121 17.10518954 0.1953125 14.453125 C0.18886719 13.60878906 0.18242188 12.76445313 0.17578125 11.89453125 C0.15902344 11.02183594 0.14226562 10.14914063 0.125 9.25 C0.11597656 8.36183594 0.10695313 7.47367188 0.09765625 6.55859375 C0.07414577 4.37211942 0.04128499 2.18619906 0 0 Z " fill="#17426D" transform="translate(89,47)" />
<path d="M0 0 C1.11375 0.16371094 2.2275 0.32742187 3.375 0.49609375 C8.25979515 1.10669314 13.08395145 1.11158497 18 1.0625 C18.87011719 1.05798828 19.74023438 1.05347656 20.63671875 1.04882812 C22.75784293 1.0371736 24.8789311 1.01924357 27 1 C26.67 1.495 26.67 1.495 25 4 C21.8046875 4.328125 21.8046875 4.328125 17.875 4.25 C17.20009521 4.23904297 16.52519043 4.22808594 15.82983398 4.21679688 C11.15457668 4.11328979 6.61134001 3.75287184 2 3 C1.34 3.99 0.68 4.98 0 6 C0 4.02 0 2.04 0 0 Z " fill="#0858AC" transform="translate(36,70)" />
<path d="M0 0 C0 0.66 0 1.32 0 2 C-2.64 2.33 -5.28 2.66 -8 3 C-8.33 3.99 -8.66 4.98 -9 6 C-11.64 5.67 -14.28 5.34 -17 5 C-17 4.67 -17 4.34 -17 4 C-19.64 3.67 -22.28 3.34 -25 3 C-25 2.67 -25 2.34 -25 2 C-24.45150391 1.96970703 -24.45150391 1.96970703 -21.67578125 1.81640625 C-20.22134346 1.73195502 -18.76691695 1.64730934 -17.3125 1.5625 C-16.59126953 1.52318359 -15.87003906 1.48386719 -15.12695312 1.44335938 C-10.02585497 1.14055446 -5.09113242 0 0 0 Z " fill="#66675A" transform="translate(73,79)" />
<path d="M0 0 C0.33 0.66 0.66 1.32 1 2 C1.99 2.66 2.98 3.32 4 4 C-1.36000789 6.25684543 -5.1977825 7.36263859 -11 7 C-11 6.34 -11 5.68 -11 5 C-10.01 5 -9.02 5 -8 5 C-7.67 4.01 -7.34 3.02 -7 2 C-4.56723614 0.81480735 -2.71982714 0 0 0 Z " fill="#2E86D6" transform="translate(66,24)" />
<path d="M0 0 C0.66 0.33 1.32 0.66 2 1 C2.12375 1.94875 2.2475 2.8975 2.375 3.875 C3 7 3 7 5.0625 8.875 C5.701875 9.24625 6.34125 9.6175 7 10 C6.2575 9.835 5.515 9.67 4.75 9.5 C1.77411538 8.95893007 -1.01917906 8.93222734 -4.03515625 9.140625 C-9.48757764 9.43478261 -9.48757764 9.43478261 -12.0625 7.25 C-13.14715729 4.6468225 -13.01560704 3.58518155 -12 1 C-11.01 2.98 -10.02 4.96 -9 7 C-7.845 6.835 -7.845 6.835 -2 6 C-1.34 4.02 -0.68 2.04 0 0 Z " fill="#576564" transform="translate(33,70)" />
<path d="M0 0 C0.33 0 0.66 0 1 0 C1 4.95 1 9.9 1 15 C-3 17 -3 17 -5.5625 17 C-8 16 -8 16 -9.875 13.1875 C-10.9757649 10.06866612 -11.25677888 8.97056826 -10 6 C-7 11.625 -7 11.625 -7 15 C-5.02 14.34 -3.04 13.68 -1 13 C-0.67 8.71 -0.34 4.42 0 0 Z " fill="#184873" transform="translate(31,61)" />
<path d="M0 0 C0.21192221 5.19209404 -0.4087311 9.126739 -2 14 C-2.66 13.67 -3.32 13.34 -4 13 C-4.51953125 10.8203125 -4.51953125 10.8203125 -4.8125 8.125 C-4.92207031 7.24070312 -5.03164063 6.35640625 -5.14453125 5.4453125 C-5 3 -5 3 -3.63671875 1.1796875 C-2 0 -2 0 0 0 Z " fill="#214C76" transform="translate(37,50)" />
<path d="M0 0 C0 0.66 0 1.32 0 2 C-5.28 2 -10.56 2 -16 2 C-16.33 1.34 -16.66 0.68 -17 0 C-11.49017726 -1.37745568 -5.45954909 -1.8198497 0 0 Z " fill="#267DC6" transform="translate(64,20)" />
<path d="M0 0 C0.33 0 0.66 0 1 0 C1 1.65 1 3.3 1 5 C0.34 5 -0.32 5 -1 5 C-0.835 6.27875 -0.67 7.5575 -0.5 8.875 C-0.23273927 10.94627065 0 12.91103575 0 15 C-1.32 14.67 -2.64 14.34 -4 14 C-3.67 10.37 -3.34 6.74 -3 3 C-2.01 2.67 -1.02 2.34 0 2 C0 1.34 0 0.68 0 0 Z " fill="#1A6BBD" transform="translate(38,55)" />
<path d="M0 0 C2.79872437 2.52788007 4.45773019 4.20411134 5 8 C4.01 8 3.02 8 2 8 C1.67 8.99 1.34 9.98 1 11 C0.67 10.34 0.34 9.68 0 9 C-0.66 9 -1.32 9 -2 9 C-1.835 8.62875 -1.835 8.62875 -1 6.75 C0 4 0 4 0 0 Z " fill="#3784DD" transform="translate(79,32)" />
<path d="M0 0 C0.33 0 0.66 0 1 0 C1 4.95 1 9.9 1 15 C0.01 14.67 -0.98 14.34 -2 14 C-2.1799928 8.78020872 -1.97094808 4.92737019 0 0 Z " fill="#2C95F7" transform="translate(23,51)" />
<path d="M0 0 C1.09658936 3.28976808 0.79953138 4.71303767 0 8 C-0.33 7.01 -0.66 6.02 -1 5 C-1.66 5 -2.32 5 -3 5 C-3 6.98 -3 8.96 -3 11 C-4.32 10.34 -5.64 9.68 -7 9 C-6.67 8.67 -6.34 8.34 -6 8 C-5.95936168 6.33382885 -5.957279 4.66611905 -6 3 C-4.35 3.33 -2.7 3.66 -1 4 C-0.67 2.68 -0.34 1.36 0 0 Z " fill="#3089ED" transform="translate(76,31)" />
<path d="M0 0 C1.65 0.33 3.3 0.66 5 1 C4.67 3.31 4.34 5.62 4 8 C2.02 8.66 0.04 9.32 -2 10 C-2 8.68 -2 7.36 -2 6 C-1.34 6 -0.68 6 0 6 C0 4.02 0 2.04 0 0 Z " fill="#51B7FC" transform="translate(47,21)" />
<path d="M0 0 C3.16115776 1.36983503 3.9927092 1.9890638 6 5 C0.58461538 6.23076923 0.58461538 6.23076923 -2.375 5.0625 C-2.91125 4.711875 -3.4475 4.36125 -4 4 C-2.68 2.68 -1.36 1.36 0 0 Z " fill="#2377DA" transform="translate(55,46)" />
<path d="M0 0 C0.33 0 0.66 0 1 0 C1.06058594 1.19238281 1.12117188 2.38476562 1.18359375 3.61328125 C1.26801149 5.17969925 1.35265887 6.74610488 1.4375 8.3125 C1.47681641 9.09818359 1.51613281 9.88386719 1.55664062 10.69335938 C1.59853516 11.45068359 1.64042969 12.20800781 1.68359375 12.98828125 C1.70192261 13.33652954 1.70192261 13.33652954 1.79467773 15.09887695 C2 17 2 17 3 20 C3.66 20 4.32 20 5 20 C5 20.66 5 21.32 5 22 C3.35 21.67 1.7 21.34 0 21 C0 14.07 0 7.14 0 0 Z " fill="#2A70AC" transform="translate(79,54)" />
<path d="M0 0 C2.97 0.33 5.94 0.66 9 1 C8.01 1.33 7.02 1.66 6 2 C6 3.32 6 4.64 6 6 C5.01 5.835 5.01 5.835 0 5 C0 3.35 0 1.7 0 0 Z " fill="#1765B6" transform="translate(37,72)" />
<path d="M0 0 C0.66 0.99 1.32 1.98 2 3 C0.906875 2.79375 -0.18625 2.5875 -1.3125 2.375 C-5 2 -5 2 -8 4 C-10.6875 3.625 -10.6875 3.625 -13 3 C-12.67 2.34 -12.34 1.68 -12 1 C-11.34 1.165 -11.34 1.165 -8 2 C-8 1.34 -8 0.68 -8 0 C-5.06791253 -1.46604374 -3.11702298 -0.77925574 0 0 Z " fill="#106BD0" transform="translate(52,64)" />
<path d="M0 0 C1.32 0.33 2.64 0.66 4 1 C4 2.98 4 4.96 4 7 C4.99 7.165 4.99 7.165 10 8 C10.33 8.99 10.66 9.98 11 11 C8.03 10.01 5.06 9.02 2 8 C2.04125 7.05125 2.0825 6.1025 2.125 5.125 C2 2 2 2 0 0 Z " fill="#244869" transform="translate(64,18)" />
<path d="M0 0 C1.32 0.33 2.64 0.66 4 1 C3.67 1.165 3.67 1.165 2 2 C2.33 2.66 2.66 3.32 3 4 C3.06996014 5.70702735 3.08440154 7.41668003 3.0625 9.125 C3.05347656 10.03507812 3.04445313 10.94515625 3.03515625 11.8828125 C3.02355469 12.58148438 3.01195312 13.28015625 3 14 C1.35 14.33 -0.3 14.66 -2 15 C-1.67 14.34 -1.34 13.68 -1 13 C-0.34 13 0.32 13 1 13 C0.67 8.71 0.34 4.42 0 0 Z " fill="#106BC8" transform="translate(27,57)" />
<path d="M0 0 C0.99 0 1.98 0 3 0 C2.67 4.29 2.34 8.58 2 13 C1.34 13 0.68 13 0 13 C0 8.71 0 4.42 0 0 Z " fill="#2178DA" transform="translate(84,50)" />
<path d="M0 0 C0.66 0 1.32 0 2 0 C2.08096803 1.45742463 2.13917774 2.91612807 2.1875 4.375 C2.20490234 4.78105469 2.20490234 4.78105469 2.29296875 6.8359375 C2.19628906 7.55007812 2.09960938 8.26421875 2 9 C1.505 9.33 1.505 9.33 -1 11 C-1.0270043 9.54176788 -1.04639787 8.08339325 -1.0625 6.625 C-1.07410156 5.81289063 -1.08570312 5.00078125 -1.09765625 4.1640625 C-1 2 -1 2 0 0 Z " fill="#09519C" transform="translate(72,51)" />
<path d="M0 0 C1.98 0 3.96 0 6 0 C5.67644531 0.1134375 5.67644531 0.1134375 4.0390625 0.6875 C2 2 2 2 1.4609375 4.3125 C1.43257812 5.199375 1.40421875 6.08625 1.375 7 C1.19335347 11.80664653 1.19335347 11.80664653 -1 14 C-1.33 12.68 -1.66 11.36 -2 10 C-1.34 10 -0.68 10 0 10 C0 6.7 0 3.4 0 0 Z " fill="#2063AD" transform="translate(31,49)" />
<path d="M0 0 C0.33 0 0.66 0 1 0 C1.0825 0.763125 1.165 1.52625 1.25 2.3125 C2.14615794 5.52373261 3.21611025 6.29374499 6 8 C5.67 8.99 5.34 9.98 5 11 C4.21625 10.34 3.4325 9.68 2.625 9 C0 7 0 7 -2 7 C-1.125 1.125 -1.125 1.125 0 0 Z " fill="#256CB5" transform="translate(73,42)" />
<path d="M0 0 C2.97 0 5.94 0 9 0 C9 0.99 9 1.98 9 3 C8.01 3.33 7.02 3.66 6 4 C5.67 4.495 5.67 4.495 4 7 C3.67 5.02 3.34 3.04 3 1 C2.01 0.67 1.02 0.34 0 0 Z " fill="#429DEC" transform="translate(55,22)" />
<path d="M0 0 C3.44216672 2.6598561 3.99504674 5.90288286 5 10 C2.5 8.9375 2.5 8.9375 0 7 C-0.3125 3.3125 -0.3125 3.3125 0 0 Z " fill="#2B72BD" transform="translate(84,39)" />
<path d="M0 0 C-1.29096781 0.81360995 -2.58279875 1.62585046 -3.875 2.4375 C-4.23464844 2.66373047 -4.23464844 2.66373047 -6.0546875 3.80859375 C-8 5 -8 5 -10 6 C-10.33 4.35 -10.66 2.7 -11 1 C-10.236875 0.855625 -9.47375 0.71125 -8.6875 0.5625 C-2.31428571 -0.77142857 -2.31428571 -0.77142857 0 0 Z " fill="#325062" transform="translate(40,27)" />
<path d="M0 0 C2.8125 -0.3125 2.8125 -0.3125 6 0 C8.29600526 2.85021343 9.18295153 5.49193868 10 9 C8.8944811 8.06409496 7.79064547 7.12620142 6.6875 6.1875 C6.07261719 5.66542969 5.45773438 5.14335937 4.82421875 4.60546875 C3.14575321 3.12827531 1.56117966 1.59960869 0 0 Z " fill="#5A6959" transform="translate(74,26)" />
<path d="M0 0 C0.66 0.66 1.32 1.32 2 2 C-1.51187196 4.40814077 -3.72656908 5.36629408 -8 5 C-5.31158141 2.74754119 -3.35358125 1.11786042 0 0 Z " fill="#0F65C1" transform="translate(66,66)" />
<path d="M0 0 C0.33 0.99 0.66 1.98 1 3 C2.65 2.34 4.3 1.68 6 1 C5.34 2.32 4.68 3.64 4 5 C1.69 5 -0.62 5 -3 5 C-2.67 4.01 -2.34 3.02 -2 2 C-1.34 2 -0.68 2 0 2 C0 1.34 0 0.68 0 0 Z " fill="#267CDC" transform="translate(37,44)" />
<path d="M0 0 C0.66 0 1.32 0 2 0 C2.33 0.66 2.66 1.32 3 2 C3.99 2.66 4.98 3.32 6 4 C1.56923077 6.09230769 1.56923077 6.09230769 -1.3125 5.625 C-1.869375 5.41875 -2.42625 5.2125 -3 5 C-2.34 4.67 -1.68 4.34 -1 4 C-0.375 1.9375 -0.375 1.9375 0 0 Z " fill="#2674BC" transform="translate(64,24)" />
<path d="M0 0 C1.65 0 3.3 0 5 0 C5 1.32 5 2.64 5 4 C3.35 4 1.7 4 0 4 C0 2.68 0 1.36 0 0 Z " fill="#0E5EB1" transform="translate(66,73)" />
<path d="M0 0 C-1 3 -1 3 -2.875 4.25 C-5 5 -5 5 -8 4 C-4.5 0 -4.5 0 0 0 Z " fill="#1C75D4" transform="translate(65,65)" />
<path d="M0 0 C0.66 0.33 1.32 0.66 2 1 C2.1875 3.375 2.1875 3.375 2 6 C1.505 6.33 1.505 6.33 -1 8 C-1.04241723 5.66705225 -1.04092937 3.33297433 -1 1 C-0.67 0.67 -0.34 0.34 0 0 Z " fill="#46AAF1" transform="translate(23,44)" />
<path d="M0 0 C0.66 0.66 1.32 1.32 2 2 C1.625 5.125 1.625 5.125 1 8 C0.34 8 -0.32 8 -1 8 C-1.125 2.25 -1.125 2.25 0 0 Z " fill="#1A7AE2" transform="translate(27,62)" />
<path d="M0 0 C2.52259061 1.97420135 2.9929808 2.96745642 3.6875 6.1875 C3.790625 7.115625 3.89375 8.04375 4 9 C3.01 8.67 2.02 8.34 1 8 C0.40267181 5.23735711 0 2.83967231 0 0 Z " fill="#348CF0" transform="translate(35,34)" />
<path d="M0 0 C0.33 0 0.66 0 1 0 C1 3.63 1 7.26 1 11 C0.67 11.165 0.67 11.165 -1 12 C-1.33 10.68 -1.66 9.36 -2 8 C-1.34 8 -0.68 8 0 8 C0 5.36 0 2.72 0 0 Z " fill="#1C64C2" transform="translate(30,63)" />
<path d="M0 0 C0.825 0.33 0.825 0.33 5 2 C4.67 3.32 4.34 4.64 4 6 C3.34 6 2.68 6 2 6 C2 4.68 2 3.36 2 2 C1.34 2 0.68 2 0 2 C0 1.34 0 0.68 0 0 Z " fill="#5192C9" transform="translate(62,18)" />
</svg>