<?xml version='1.0' encoding='utf-8'?>
<svg xmlns="http://www.w3.org/2000/svg" version="1.1" width="101" height="96">
<path d="M0 0 C1.85351822 1.22528247 3.55121703 2.56293578 5.125 4.13671875 C5.08732046 5.8062123 4.97071204 7.47431163 4.8125 9.13671875 C4.73386719 10.04421875 4.65523437 10.95171875 4.57421875 11.88671875 C4.42597656 12.62921875 4.27773437 13.37171875 4.125 14.13671875 C3.465 14.46671875 2.805 14.79671875 2.125 15.13671875 C1.52982993 16.59518006 0.99882942 18.08006146 0.5 19.57421875 C-1.83235971 25.69996349 -5.53953025 30.28490968 -9.875 35.13671875 C-10.38933594 35.72582031 -10.90367188 36.31492188 -11.43359375 36.921875 C-12.875 38.13671875 -12.875 38.13671875 -15.875 38.13671875 C-16.16375 38.71421875 -16.4525 39.29171875 -16.75 39.88671875 C-17.12125 40.62921875 -17.4925 41.37171875 -17.875 42.13671875 C-18.1328125 42.77738281 -18.390625 43.41804688 -18.65625 44.078125 C-21.28599689 48.52003722 -26.19753323 50.39937395 -30.875 52.13671875 C-38.19323015 53.59964501 -45.92395419 54.16933394 -52.875 51.13671875 C-55.28876864 47.29663228 -55.25130817 43.57715518 -54.875 39.13671875 C-53.78386726 35.25087828 -52.75624988 32.01796863 -49.875 29.13671875 C-49.483125 28.10546875 -49.09125 27.07421875 -48.6875 26.01171875 C-44.49640798 16.06814748 -33.61713469 7.37959348 -23.875 3.13671875 C-21.54828146 2.44732066 -19.21432406 1.78204953 -16.875 1.13671875 C-15.92625 0.76546875 -14.9775 0.39421875 -14 0.01171875 C-9.38851363 -1.27949743 -4.48743382 -2.06608932 0 0 Z " fill="#C4730E" transform="translate(74.875,20.86328125)" />
<path d="M0 0 C0.66 0.33 1.32 0.66 2 1 C1.8864371 2.64666203 1.75882619 4.29236082 1.625 5.9375 C1.55539063 6.85402344 1.48578125 7.77054688 1.4140625 8.71484375 C1.27742188 9.46894531 1.14078125 10.22304688 1 11 C0.34 11.33 -0.32 11.66 -1 12 C-1.59517007 13.45846131 -2.12617058 14.94334271 -2.625 16.4375 C-4.95735971 22.56324474 -8.66453025 27.14819093 -13 32 C-13.51433594 32.58910156 -14.02867188 33.17820313 -14.55859375 33.78515625 C-16 35 -16 35 -19 35 C-19.28875 35.5775 -19.5775 36.155 -19.875 36.75 C-20.24625 37.4925 -20.6175 38.235 -21 39 C-21.2578125 39.64066406 -21.515625 40.28132813 -21.78125 40.94140625 C-24.41099689 45.38331847 -29.32253323 47.2626552 -34 49 C-41.31823015 50.46292626 -49.04895419 51.03261519 -56 48 C-58.41376864 44.15991353 -58.37630817 40.44043643 -58 36 C-56.90886726 32.11415953 -55.88124988 28.88124988 -53 26 C-51.96157435 23.68351201 -50.9578025 21.35096976 -50 19 C-49.34 19.33 -48.68 19.66 -48 20 C-47.87625 21.134375 -47.7525 22.26875 -47.625 23.4375 C-47 27 -47 27 -45.375 28.25 C-44.59125 28.4975 -43.8075 28.745 -43 29 C-36.09574468 31.80851064 -36.09574468 31.80851064 -35 34 C-30.67534981 35.17945005 -27.96130474 35.15042257 -24 33 C-23.835 32.67 -23.835 32.67 -23 31 C-23.99 31 -24.98 31 -26 31 C-26 30.01 -26 29.02 -26 28 C-26.99 28 -27.98 28 -29 28 C-29.33 27.01 -29.66 26.02 -30 25 C-28.02 25.33 -26.04 25.66 -24 26 C-24 26.66 -24 27.32 -24 28 C-20.7 27.34 -17.4 26.68 -14 26 C-13.67 24.68 -13.34 23.36 -13 22 C-12.34 21.01 -11.68 20.02 -11 19 C-11.2421875 16.73828125 -11.2421875 16.73828125 -11.875 14.3125 C-12.07867187 13.50425781 -12.28234375 12.69601563 -12.4921875 11.86328125 C-12.57597656 11.55583984 -12.57597656 11.55583984 -13 10 C-11.68 10.66 -10.36 11.32 -9 12 C-8.67 11.67 -8.34 11.34 -8 11 C-8.28674418 8.99279077 -8.61866701 6.9914056 -9 5 C-7.68 5 -6.36 5 -5 5 C-2.25 2.5 -2.25 2.5 0 0 Z " fill="#B05F0A" transform="translate(78,24)" />
<path d="M0 0 C1.21171875 -0.02578125 2.4234375 -0.0515625 3.671875 -0.078125 C7.58896027 0.28108369 9.93827465 1.15710612 13.25 3.25 C16.10196199 8.09833539 17.12483899 12.69929747 16.25 18.25 C12.35040464 32.9654542 0.76116456 44.97755205 -11.93359375 52.7109375 C-20.61264193 57.45371834 -28.82615147 60.11226172 -38.75 59.25 C-43.60582063 57.57253469 -45.51502227 55.81601467 -47.75 51.25 C-48.67755789 44.06597319 -48.2966334 37.60438484 -44.75 31.25 C-44.09 31.25 -43.43 31.25 -42.75 31.25 C-42.70875 30.59 -42.6675 29.93 -42.625 29.25 C-40.74817136 22.81515894 -36.02315081 18.17106086 -30.75 14.25 C-30.028125 13.46625 -29.30625 12.6825 -28.5625 11.875 C-22.83800684 6.53213972 -16.3614738 2.99429608 -8.75 1.25 C-5.83999203 -0.20500399 -3.2410667 0.04102616 0 0 Z M-9.75 4.25 C-11.02875 4.518125 -12.3075 4.78625 -13.625 5.0625 C-23.38833815 7.39068064 -33.63773102 16.40498006 -39.25 24.5 C-40.63862165 27.04580636 -41.71063971 29.54766326 -42.75 32.25 C-43.0078125 32.6728125 -43.0078125 32.6728125 -44.3125 34.8125 C-47.3451375 39.95479838 -47.41467696 45.25895366 -46.125 51.0625 C-44.15479026 54.19692459 -42.30215706 54.34663209 -38.75 55.25 C-28.64601598 55.76213435 -19.91178928 54.66389248 -11.75 48.25 C-9.49911359 45.85243929 -7.75 43.67398015 -7.75 40.25 C-7.00878906 40.19070312 -6.26757812 40.13140625 -5.50390625 40.0703125 C-1.80102277 38.96732593 -0.85052628 37.28138427 1.3125 34.125 C1.99570313 33.13113281 2.67890625 32.13726562 3.3828125 31.11328125 C9.05971357 22.40790785 9.05971357 22.40790785 10.25 17.25 C10.91 16.92 11.57 16.59 12.25 16.25 C13.16434187 12.92567095 13.49089968 9.68829538 13.25 6.25 C10.74810472 3.47762956 8.12038805 1.4480859 4.33203125 1.046875 C-1.14664398 0.9337182 -4.72663356 1.87531768 -9.75 4.25 Z " fill="#562D07" transform="translate(66.75,18.75)" />
<path d="M0 0 C0.94875 0.350625 1.8975 0.70125 2.875 1.0625 C3.844375 1.30355469 4.81375 1.54460938 5.8125 1.79296875 C9.60393431 3.36467303 10.65047868 4.95696022 12.75 8.4375 C13.04777344 8.91574219 13.04777344 8.91574219 14.5546875 11.3359375 C15.875 14.0625 15.875 14.0625 15.875 18.0625 C13.235 17.7325 10.595 17.4025 7.875 17.0625 C7.875 17.7225 7.875 18.3825 7.875 19.0625 C8.865 19.0625 9.855 19.0625 10.875 19.0625 C10.875 20.0525 10.875 21.0425 10.875 22.0625 C11.865 22.0625 12.855 22.0625 13.875 22.0625 C13.3125 24 13.3125 24 11.875 26.0625 C8.30025344 26.98928615 5.9257008 27.46661569 2.4375 26.125 C2.1796875 25.9496875 2.1796875 25.9496875 0.875 25.0625 C0.875 24.4025 0.875 23.7425 0.875 23.0625 C-0.011875 22.98 -0.89875 22.8975 -1.8125 22.8125 C-5.64104913 21.94565869 -7.3638027 20.8236973 -10.125 18.0625 C-11.74203801 15.26943435 -12.11004206 13.4065326 -12.25 10.1875 C-10.30882413 4.79534482 -5.9355593 0.11871119 0 0 Z " fill="#D18E24" transform="translate(41.125,32.9375)" />
<path d="M0 0 C0 0.66 0 1.32 0 2 C0.27779297 2.11859375 0.27779297 2.11859375 1.68359375 2.71875 C4.54371121 4.3007374 6.66948669 6.27662715 9.0625 8.5 C11.65920335 10.90536731 14.05106306 13.03404204 17 15 C17 15.66 17 16.32 17 17 C15.35 17 13.7 17 12 17 C12 17.66 12 18.32 12 19 C12.66 19.33 13.32 19.66 14 20 C8.09546542 24.2175247 1.90467695 23.02997943 -5 22 C-5.66 21.67 -6.32 21.34 -7 21 C-8.94301126 15.17096621 -8.059115 10.37861112 -5.94921875 4.796875 C-4.51117016 2.0746431 -3.22263201 0 0 0 Z " fill="#AA5C08" transform="translate(28,49)" />
<path d="M0 0 C0.33 0 0.66 0 1 0 C2.39844893 11.70553546 -3.38475547 20.36042085 -10.2890625 29.35546875 C-12.19107427 31.18365814 -13.42130016 31.62276662 -16 32 C-16 32.99 -16 33.98 -16 35 C-16.99 35 -17.98 35 -19 35 C-19.33 35.99 -19.66 36.98 -20 38 C-29.20986127 45.23631957 -37.71514177 48.30756974 -49.30078125 48.3984375 C-52.34814077 47.94861019 -53.73397262 47.0345804 -56 45 C-55.34515625 45.02320313 -54.6903125 45.04640625 -54.015625 45.0703125 C-43.96263262 45.26910048 -32.76834904 45.27692063 -25 38 C-23.80078125 36.15234375 -23.80078125 36.15234375 -22.8125 34.25 C-22.214375 33.1775 -21.61625 32.105 -21 31 C-18.375 30.375 -18.375 30.375 -16 30 C-15.27544365 28.35767228 -14.62225605 26.68375165 -14 25 C-13.09301933 23.93165467 -12.15118284 22.89249254 -11.1875 21.875 C-7.25049908 17.51237735 -5.20266357 12.38970333 -3 7 C-2.34 7 -1.68 7 -1 7 C-0.67 4.69 -0.34 2.38 0 0 Z " fill="#9C4B06" transform="translate(80,28)" />
<path d="M0 0 C0.639375 0.495 1.27875 0.99 1.9375 1.5 C0.44652342 5.2952131 -1.81950849 7.11042731 -5.0625 9.5 C-5.0625 8.84 -5.0625 8.18 -5.0625 7.5 C-5.7225 7.5 -6.3825 7.5 -7.0625 7.5 C-6.4025 10.47 -5.7425 13.44 -5.0625 16.5 C-6.2175 15.63375 -7.3725 14.7675 -8.5625 13.875 C-9.28824219 13.33101562 -10.01398438 12.78703125 -10.76171875 12.2265625 C-12.26558041 11.09802794 -13.76823774 9.96788624 -15.26953125 8.8359375 C-15.96433594 8.31257813 -16.65914062 7.78921875 -17.375 7.25 C-18.01050781 6.77046875 -18.64601563 6.2909375 -19.30078125 5.796875 C-20.85550477 4.65237786 -22.45618194 3.57087871 -24.0625 2.5 C-22.0625 1.83333333 -20.0625 1.16666667 -18.0625 0.5 C-17.134375 0.12875 -16.20625 -0.2425 -15.25 -0.625 C-9.89229645 -2.09574215 -5.05636557 -2.47658722 0 0 Z " fill="#C27419" transform="translate(76.0625,21.5)" />
<path d="M0 0 C0.66 0 1.32 0 2 0 C2.77610294 4.65661762 2.83115985 6.81454777 0.06640625 10.7578125 C-2.20265696 13.30642429 -4.438918 15.74402885 -7 18 C-7.66 18 -8.32 18 -9 18 C-9 18.66 -9 19.32 -9 20 C-9.66 20 -10.32 20 -11 20 C-11 20.66 -11 21.32 -11 22 C-14.41831915 24.5393228 -16.75776898 25.3636198 -21 25 C-21 24.34 -21 23.68 -21 23 C-21.66 23 -22.32 23 -23 23 C-23 22.34 -23 21.68 -23 21 C-23.66 21 -24.32 21 -25 21 C-25.33 21.66 -25.66 22.32 -26 23 C-26.77085938 22.28972656 -27.54171875 21.57945313 -28.3359375 20.84765625 C-29.34885024 19.9191529 -30.36187701 18.99077394 -31.375 18.0625 C-31.88289063 17.59392578 -32.39078125 17.12535156 -32.9140625 16.64257812 C-36.7734375 13.11328125 -36.7734375 13.11328125 -39 12 C-39 11.34 -39 10.68 -39 10 C-39.66 10 -40.32 10 -41 10 C-40.42655063 7.13275314 -40.1385485 6.1385485 -38 4 C-36.74335022 6.90600261 -36 8.79604584 -36 12 C-33.47176247 13.31468352 -30.95922857 14.42336465 -28.3125 15.5 C-25 17 -25 17 -24 19 C-19.67534981 20.17945005 -16.96130474 20.15042257 -13 18 C-12.67 17.34 -12.34 16.68 -12 16 C-12.99 16 -13.98 16 -15 16 C-15 15.01 -15 14.02 -15 13 C-15.99 13 -16.98 13 -18 13 C-18.33 12.01 -18.66 11.02 -19 10 C-18.01 10.165 -18.01 10.165 -13 11 C-13 11.66 -13 12.32 -13 13 C-9.7 12.34 -6.4 11.68 -3 11 C-2.67 9.68 -2.34 8.36 -2 7 C-1.34 6.01 -0.68 5.02 0 4 C0 2.68 0 1.36 0 0 Z " fill="#B96B0C" transform="translate(67,39)" />
<path d="M0 0 C5.34892358 0.48626578 10.52162788 1.28159698 14.1171875 5.4609375 C14.69726562 6.42257813 15.27734375 7.38421875 15.875 8.375 C16.17277344 8.85324219 16.17277344 8.85324219 17.6796875 11.2734375 C19 14 19 14 19 18 C13.2625115 17.56968836 9.57269649 15.23634185 5 12 C4.70158203 11.79117188 4.70158203 11.79117188 3.19140625 10.734375 C0.62325838 8.78824856 -0.86675661 7.35809162 -2 4.3125 C-2 2 -2 2 0 0 Z " fill="#F7CE62" transform="translate(38,33)" />
<path d="M0 0 C0.66 0 1.32 0 2 0 C2 0.66 2 1.32 2 2 C2.27779297 2.11859375 2.27779297 2.11859375 3.68359375 2.71875 C6.54371121 4.3007374 8.66948669 6.27662715 11.0625 8.5 C13.65920335 10.90536731 16.05106306 13.03404204 19 15 C19 15.66 19 16.32 19 17 C11.50022884 16.76191203 6.72627946 14.90988218 1 10 C-0.7734375 7.96875 -0.7734375 7.96875 -2 6 C-1.58974359 1.58974359 -1.58974359 1.58974359 0 0 Z " fill="#F8CF6F" transform="translate(26,49)" />
<path d="M0 0 C4.03321763 1.21934486 7.54269479 2.55954927 11 5 C11 5.66 11 6.32 11 7 C11.66 7 12.32 7 13 7 C13.66 8.98 14.32 10.96 15 13 C14.67 13.33 14.34 13.66 14 14 C9.95788029 13.9672039 6.17642534 13.60329505 2.5625 11.75 C0.60645307 9.55922743 -0.25466337 7.84583078 -1 5 C-0.625 2.1875 -0.625 2.1875 0 0 Z " fill="#DEA03E" transform="translate(30,41)" />
<path d="M0 0 C-8.32286061 6.68350928 -17.34553029 8.85235758 -28 8 C-31.375 7.125 -31.375 7.125 -34 6 C-34.33 5.34 -34.66 4.68 -35 4 C-33.96359375 4.10699219 -32.9271875 4.21398437 -31.859375 4.32421875 C-30.48966027 4.44617965 -29.11986384 4.56722545 -27.75 4.6875 C-27.40904297 4.72391602 -27.40904297 4.72391602 -25.68359375 4.90820312 C-22.44938134 5.17510415 -20.39845329 5.21739511 -17.515625 3.64453125 C-16 2 -16 2 -16 0 C-15.31292969 0.01160156 -14.62585938 0.02320312 -13.91796875 0.03515625 C-13.01691406 0.04417969 -12.11585937 0.05320312 -11.1875 0.0625 C-10.74083984 0.06830078 -10.74083984 0.06830078 -8.48046875 0.09765625 C-0.63380282 -0.21126761 -0.63380282 -0.21126761 0 0 Z " fill="#A05206" transform="translate(56,66)" />
<path d="M0 0 C0.33 1.32 0.66 2.64 1 4 C0.505 4.33 0.505 4.33 -2 6 C-2 4.68 -2 3.36 -2 2 C-1.34 2 -0.68 2 0 2 C0 1.34 0 0.68 0 0 Z M-3 6 C-3 10.31354619 -5.06309933 12.92742729 -8 16 C-10.6875 16.6875 -10.6875 16.6875 -13 17 C-14.25 18.9375 -14.25 18.9375 -15 21 C-16 23 -16 23 -17.7421875 23.66796875 C-18.44601563 23.83941406 -19.14984375 24.01085937 -19.875 24.1875 C-20.22433594 24.27708984 -20.22433594 24.27708984 -21.9921875 24.73046875 C-24 25 -24 25 -27 24 C-27 23.34 -27 22.68 -27 22 C-27.99 21.67 -28.98 21.34 -30 21 C-30 20.01 -30 19.02 -30 18 C-29.34 18 -28.68 18 -28 18 C-28 18.66 -28 19.32 -28 20 C-26.68 20 -25.36 20 -24 20 C-24 20.66 -24 21.32 -24 22 C-23.525625 21.7525 -23.525625 21.7525 -21.125 20.5 C-18 19 -18 19 -16 19 C-16 18.34 -16 17.68 -16 17 C-15.34 17 -14.68 17 -14 17 C-14 16.34 -14 15.68 -14 15 C-9.52941176 11 -9.52941176 11 -7 11 C-7 10.34 -7 9.68 -7 9 C-5 7.375 -5 7.375 -3 6 Z " fill="#A75907" transform="translate(72,42)" />
<path d="M0 0 C5.43629023 0.43490322 8.7128221 1.6101384 13 5 C15 8 15 8 14.625 10.1875 C14.521875 10.4865625 14.521875 10.4865625 14 12 C11.3925972 12.38344159 9.61936847 12.374232 7.33203125 10.9921875 C5.6875 9.6875 5.6875 9.6875 3 7 C3 6.01 3 5.02 3 4 C1.35 3.67 -0.3 3.34 -2 3 C-1.34 2.01 -0.68 1.02 0 0 Z " fill="#D9973C" transform="translate(45,27)" />
<path d="M0 0 C3.91736351 3.16165165 7.2201291 6.90562695 7.9375 12 C7.958125 12.99 7.97875 13.98 8 15 C6.83333333 14.125 5.66666667 13.25 4.5 12.375 C3.77425781 11.83101562 3.04851562 11.28703125 2.30078125 10.7265625 C0.79691959 9.59802794 -0.70573774 8.46788624 -2.20703125 7.3359375 C-2.90183594 6.81257813 -3.59664062 6.28921875 -4.3125 5.75 C-4.94800781 5.27046875 -5.58351563 4.7909375 -6.23828125 4.296875 C-7.79300477 3.15237786 -9.39368194 2.07087871 -11 1 C-6.84243595 -0.64368811 -4.29717297 -1.33497955 0 0 Z " fill="#F5C55D" transform="translate(63,23)" />
<path d="M0 0 C5.40301401 0.43224112 8.80684463 1.50570386 13 5 C13.6875 7.1875 13.6875 7.1875 14 9 C14.99 9.33 15.98 9.66 17 10 C18.4477922 12.89558441 19 14.74188938 19 18 C17.35 18.66 15.7 19.32 14 20 C14 19.34 14 18.68 14 18 C13.01 18.33 12.02 18.66 11 19 C11 17.68 11 16.36 11 15 C10.01 15 9.02 15 8 15 C8 14.34 8 13.68 8 13 C9.32 12.67 10.64 12.34 12 12 C11.38722388 9.03824877 10.74627478 7.61941217 9 5 C6.8359375 3.83203125 6.8359375 3.83203125 4.375 2.8125 C3.55773438 2.46832031 2.74046875 2.12414062 1.8984375 1.76953125 C1.27195313 1.51558594 0.64546875 1.26164062 0 1 C0 0.67 0 0.34 0 0 Z " fill="#D98E22" transform="translate(47,26)" />
<path d="M0 0 C0.2784375 0.350625 0.2784375 0.350625 1.6875 2.125 C4.09124732 5.11344261 6.53810432 8.05940238 9 11 C7.875 13 7.875 13 6 15 C2.9375 15.375 2.9375 15.375 0 15 C-2 13 -2 13 -2.265625 10.9765625 C-2.26046875 10.20054688 -2.2553125 9.42453125 -2.25 8.625 C-2.25515625 7.85414062 -2.2603125 7.08328125 -2.265625 6.2890625 C-1.97688045 3.8007639 -1.24139229 2.15765802 0 0 Z " fill="#CE8123" transform="translate(23,52)" />
<path d="M0 0 C2.125 0.9375 2.125 0.9375 4 2 C0.2916541 3.69965854 -2.86007565 4.97066102 -6.875 5.8125 C-16.19980986 8.02242604 -26.04962433 16.42496801 -31.4375 24.1875 C-32.86070086 26.74926155 -34.0253565 29.23851009 -35 32 C-35.99 32 -36.98 32 -38 32 C-37.34 31.67 -36.68 31.34 -36 31 C-35.9175 30.319375 -35.835 29.63875 -35.75 28.9375 C-34.10985745 22.51360834 -29.18745464 17.85733807 -24 14 C-23.278125 13.21625 -22.55625 12.4325 -21.8125 11.625 C-16.08800684 6.28213972 -9.6114738 2.74429608 -2 1 C-1.34 0.67 -0.68 0.34 0 0 Z " fill="#5B380A" transform="translate(60,19)" />
<path d="M0 0 C2.91517292 1.07401108 4.77810176 1.77810176 7 4 C7 4.99 7 5.98 7 7 C7.99 7 8.98 7 10 7 C10 7.99 10 8.98 10 10 C10.99 10 11.98 10 13 10 C12.4375 11.9375 12.4375 11.9375 11 14 C7.42525344 14.92678615 5.0507008 15.40411569 1.5625 14.0625 C1.046875 13.711875 0.53125 13.36125 0 13 C0 12.34 0 11.68 0 11 C-0.99 10.835 -0.99 10.835 -6 10 C-2.23375329 8.74458443 -0.62811066 9.62938042 3 11 C3 11.66 3 12.32 3 13 C4.32 12.67 5.64 12.34 7 12 C5.59794063 7.538902 3.31175802 5.22460649 0 2 C0 1.34 0 0.68 0 0 Z " fill="#C97914" transform="translate(42,45)" />
<path d="M0 0 C2.65069433 2.47398137 4.71615844 4.57642251 6 8 C6 9.32 6 10.64 6 12 C0.58961609 11.59422121 -3.92857155 9.57541686 -8 6 C-8 5.01 -8 4.02 -8 3 C-7.34 3.165 -7.34 3.165 -4 4 C-4 4.66 -4 5.32 -4 6 C-3.01 6 -2.02 6 -1 6 C-0.67 4.02 -0.34 2.04 0 0 Z " fill="#F1C157" transform="translate(51,39)" />
<path d="M0 0 C0.5775 0.22300781 1.155 0.44601563 1.75 0.67578125 C-8.49303725 7.66402162 -17.47110155 12.56210201 -30.25 10.67578125 C-32.60546875 9.15234375 -32.60546875 9.15234375 -34.25 7.67578125 C-33.59515625 7.69898437 -32.9403125 7.7221875 -32.265625 7.74609375 C-21.74581371 7.95411262 -12.62060827 7.64026938 -4.1875 0.8203125 C-2.25 -0.32421875 -2.25 -0.32421875 0 0 Z " fill="#86430B" transform="translate(58.25,65.32421875)" />
<path d="M0 0 C0.66 0.33 1.32 0.66 2 1 C2.12375 2.134375 2.2475 3.26875 2.375 4.4375 C3 8 3 8 4.625 9.25 C5.016875 9.37375 5.016875 9.37375 7 10 C13.90425532 12.80851064 13.90425532 12.80851064 15 15 C15.99 15.33 16.98 15.66 18 16 C18 16.66 18 17.32 18 18 C18.66 18.33 19.32 18.66 20 19 C19.34 19.66 18.68 20.32 18 21 C18 20.34 18 19.68 18 19 C17.34 19 16.68 19 16 19 C16 18.34 16 17.68 16 17 C15.34 17 14.68 17 14 17 C13.67 17.66 13.34 18.32 13 19 C12.22914062 18.28972656 11.45828125 17.57945313 10.6640625 16.84765625 C9.65114976 15.9191529 8.63812299 14.99077394 7.625 14.0625 C7.11710937 13.59392578 6.60921875 13.12535156 6.0859375 12.64257812 C2.2265625 9.11328125 2.2265625 9.11328125 0 8 C0 7.34 0 6.68 0 6 C-0.66 6 -1.32 6 -2 6 C-1.49396008 3.83125748 -1.00016187 2.00032373 0 0 Z " fill="#B2690B" transform="translate(28,43)" />
<path d="M0 0 C3.625 0.375 3.625 0.375 7 1 C7 1.99 7 2.98 7 4 C7.598125 4.268125 8.19625 4.53625 8.8125 4.8125 C10.99847854 5.99917406 12.41332594 7.09599113 14 9 C14 9.66 14 10.32 14 11 C14.99 11 15.98 11 17 11 C17 11.66 17 12.32 17 13 C16.34 13 15.68 13 15 13 C14.67 13.66 14.34 14.32 14 15 C13.16094435 13.87926138 12.32892169 12.75325453 11.5 11.625 C11.0359375 10.99851562 10.571875 10.37203125 10.09375 9.7265625 C9 8 9 8 9 6 C7.741875 5.71125 6.48375 5.4225 5.1875 5.125 C2.1460601 4.42696461 0.69330122 3.79553415 -2 2 C-1.34 1.34 -0.68 0.68 0 0 Z " fill="#C07E19" transform="translate(41,30)" />
<path d="M0 0 C1.6875 0.125 1.6875 0.125 4 1 C5.17327821 2.49918883 6.34594861 3.99887174 7.51171875 5.50390625 C11.01224755 9.02281053 16.31663517 9.86305843 21 11 C21 11.66 21 12.32 21 13 C13.50022884 12.76191203 8.72627946 10.90988218 3 6 C0 2.46 0 2.46 0 0 Z " fill="#EDBB52" transform="translate(24,53)" />
<path d="M0 0 C0.33 0 0.66 0 1 0 C1.66 1.98 2.32 3.96 3 6 C5.875 6.1875 5.875 6.1875 9 6 C9.66 5.01 10.32 4.02 11 3 C11.99 3.33 12.98 3.66 14 4 C11.18134715 8.22797927 11.18134715 8.22797927 9 10 C6.14353521 10.53855713 3.93498095 10.29847264 1 10 C-0.1577506 6.52674819 -0.06866652 3.63932552 0 0 Z " fill="#B86D1A" transform="translate(20,60)" />
<path d="M0 0 C6.62611276 1.59940653 6.62611276 1.59940653 8.75 3.875 C8.95625 4.225625 8.95625 4.225625 10 6 C9.67 6.99 9.34 7.98 9 9 C7.35 8.67 5.7 8.34 4 8 C4 7.34 4 6.68 4 6 C3.01 5.67 2.02 5.34 1 5 C0.67 3.35 0.34 1.7 0 0 Z " fill="#E8AE49" transform="translate(33,45)" />
<path d="M0 0 C5.77357759 2.1650916 10.20135523 5.14862017 15 9 C14.67 10.65 14.34 12.3 14 14 C12.29115995 12.37660195 10.62553283 10.70680947 9 9 C9 8.34 9 7.68 9 7 C5.41247258 5.13448574 1.72187807 3.57464072 -2 2 C-1.34 1.34 -0.68 0.68 0 0 Z " fill="#B46F0E" transform="translate(51,24)" />
<path d="M0 0 C0.8125 1.8125 0.8125 1.8125 1 4 C0.0625 6.25 0.0625 6.25 -1 8 C-1.99 7.67 -2.98 7.34 -4 7 C-4 6.34 -4 5.68 -4 5 C-4.99 4.67 -5.98 4.34 -7 4 C-6.6875 2.0625 -6.6875 2.0625 -6 0 C-3 -1 -3 -1 0 0 Z " fill="#FDD56E" transform="translate(51,38)" />
<path d="M0 0 C1.12894876 0.93274109 2.25300876 1.87140122 3.375 2.8125 C4.00148438 3.33457031 4.62796875 3.85664062 5.2734375 4.39453125 C7 6 7 6 9 9 C0.42857143 7.28571429 0.42857143 7.28571429 -3 3 C-2.01 2.01 -1.02 1.02 0 0 Z " fill="#F2C25E" transform="translate(34,55)" />
<path d="M0 0 C0.66 0.33 1.32 0.66 2 1 C0.76350005 2.82173657 -0.48970167 4.63214564 -1.75 6.4375 C-2.44609375 7.44683594 -3.1421875 8.45617187 -3.859375 9.49609375 C-5.99753608 11.99711793 -6.79580145 12.71855013 -10 13 C-10 13.99 -10 14.98 -10 16 C-10.99 16 -11.98 16 -13 16 C-13.33 16.66 -13.66 17.32 -14 18 C-14 17.01 -14 16.02 -14 15 C-13.01 15 -12.02 15 -11 15 C-11 14.01 -11 13.02 -11 12 C-9.52208843 10.78482827 -8.0403216 9.5735666 -6.52734375 8.40234375 C-4.26170894 6.32213174 -3.25789641 3.76737211 -2 1 C-1.34 0.67 -0.68 0.34 0 0 Z " fill="#793806" transform="translate(74,47)" />
<path d="M0 0 C0.33 0 0.66 0 1 0 C1.50676915 6.86953742 1.10406947 12.26328975 -3 18 C-3.66 18.33 -4.32 18.66 -5 19 C-4.67 17.02 -4.34 15.04 -4 13 C-3.34 13 -2.68 13 -2 13 C-1.93941406 12.31292969 -1.87882812 11.62585937 -1.81640625 10.91796875 C-1.73261719 10.01691406 -1.64882812 9.11585937 -1.5625 8.1875 C-1.48128906 7.29417969 -1.40007812 6.40085937 -1.31640625 5.48046875 C-1 3 -1 3 0 0 Z " fill="#87440C" transform="translate(80,28)" />
<path d="M0 0 C0 0.99 0 1.98 0 3 C-0.66 3 -1.32 3 -2 3 C-2.66 4.32 -3.32 5.64 -4 7 C-4.66 7 -5.32 7 -6 7 C-6 7.99 -6 8.98 -6 10 C-6.99 10 -7.98 10 -9 10 C-9 10.99 -9 11.98 -9 13 C-10.32 13 -11.64 13 -13 13 C-12.5 12 -12.5 12 -10 7 C-9.195625 6.87625 -8.39125 6.7525 -7.5625 6.625 C-6.716875 6.41875 -5.87125 6.2125 -5 6 C-3.875 4.0625 -3.875 4.0625 -3 2 C-2.01 1.34 -1.02 0.68 0 0 Z " fill="#8F4504" transform="translate(69,52)" />
<path d="M0 0 C2 2 2 2 2 5 C2.66 5 3.32 5 4 5 C4 5.99 4 6.98 4 8 C-1.53846154 8.36923077 -1.53846154 8.36923077 -3.875 6.5 C-4.24625 6.005 -4.6175 5.51 -5 5 C-3.35 3.35 -1.7 1.7 0 0 Z " fill="#BB7E25" transform="translate(35,35)" />
<path d="M0 0 C0.79921875 0.00902344 1.5984375 0.01804687 2.421875 0.02734375 C3.02515625 0.03894531 3.6284375 0.05054687 4.25 0.0625 C4.25 1.0525 4.25 2.0425 4.25 3.0625 C2.64884424 3.3118357 1.04379841 3.53628648 -0.5625 3.75 C-1.00916016 3.81380859 -1.00916016 3.81380859 -3.26953125 4.13671875 C-5.75 4.0625 -5.75 4.0625 -7.57421875 2.58203125 C-7.96222656 2.08058594 -8.35023437 1.57914063 -8.75 1.0625 C-5.75519083 0.1901588 -3.11424089 -0.04579766 0 0 Z " fill="#B77828" transform="translate(68.75,19.9375)" />
<path d="M0 0 C-5.28922815 3.92194468 -9.32646591 6.71601983 -16 7 C-15.01 6.67 -14.02 6.34 -13 6 C-12.67 5.01 -12.34 4.02 -12 3 C-10.0390625 1.796875 -10.0390625 1.796875 -7.625 0.75 C-6.83351563 0.39421875 -6.04203125 0.0384375 -5.2265625 -0.328125 C-3 -1 -3 -1 0 0 Z " fill="#934606" transform="translate(56,66)" />
<path d="M0 0 C3.12270126 2.51830747 3.94523098 3.7261549 4.75 7.75 C4.8325 8.8225 4.915 9.895 5 11 C2.36 9.02 -0.28 7.04 -3 5 C-2.01 3.35 -1.02 1.7 0 0 Z " fill="#EAAE45" transform="translate(66,27)" />
<path d="M0 0 C1.32 0 2.64 0 4 0 C3.814375 0.721875 3.62875 1.44375 3.4375 2.1875 C2.98004693 5.12826973 3.26483643 7.14103058 4 10 C-0.74885845 7.68645358 -0.74885845 7.68645358 -1.9375 4.4375 C-1.958125 3.633125 -1.97875 2.82875 -2 2 C-1.34 1.34 -0.68 0.68 0 0 Z " fill="#F3C667" transform="translate(38,33)" />
<path d="M0 0 C2 1 2 1 3.125 3.375 C4 6 4 6 4 9 C2.35 9.66 0.7 10.32 -1 11 C-1 10.34 -1 9.68 -1 9 C-1.99 9.33 -2.98 9.66 -4 10 C-4 9.34 -4 8.68 -4 8 C-2.68 8 -1.36 8 0 8 C0 5.36 0 2.72 0 0 Z " fill="#D08115" transform="translate(62,35)" />
<path d="M0 0 C0.66 0 1.32 0 2 0 C2 0.66 2 1.32 2 2 C2.66 2 3.32 2 4 2 C4 2.66 4 3.32 4 4 C0.78817851 5.90608098 -1.53882603 6.22266247 -5.25 6.125 C-6.14203125 6.10695313 -7.0340625 6.08890625 -7.953125 6.0703125 C-8.29085938 6.05871094 -8.29085938 6.05871094 -10 6 C-10 5.67 -10 5.34 -10 5 C-8.906875 4.731875 -7.81375 4.46375 -6.6875 4.1875 C-3.26833673 3.08641352 -2.22408019 2.57525074 0 0 Z " fill="#B6610E" transform="translate(33,65)" />
<path d="M0 0 C0.66 0.33 1.32 0.66 2 1 C2.40729228 3.32156597 2.74438677 5.6568787 3 8 C3.99 8.33 4.98 8.66 6 9 C5.67 9.99 5.34 10.98 5 12 C3.2925002 10.71937515 1.62626404 9.38232443 0 8 C0 7.34 0 6.68 0 6 C-0.66 6 -1.32 6 -2 6 C-1.49396008 3.83125748 -1.00016187 2.00032373 0 0 Z " fill="#B77A22" transform="translate(28,43)" />
<path d="M0 0 C-1.78809697 1.17213045 -3.58059125 2.33755526 -5.375 3.5 C-6.37273438 4.1496875 -7.37046875 4.799375 -8.3984375 5.46875 C-11 7 -11 7 -13 7 C-11.85343125 3.56029374 -11.15481722 3.1217771 -8.1875 1.25 C-7.50042969 0.80140625 -6.81335937 0.3528125 -6.10546875 -0.109375 C-3.60065169 -1.16892656 -2.50718765 -0.92399724 0 0 Z " fill="#753908" transform="translate(60,66)" />
<path d="M0 0 C2.31 1.98 4.62 3.96 7 6 C6.01 6.99 5.02 7.98 4 9 C1.8125 8.6875 1.8125 8.6875 0 8 C0 5.36 0 2.72 0 0 Z " fill="#CA8A27" transform="translate(25,56)" />
<path d="M0 0 C0 0.99 0 1.98 0 3 C-0.99 3.66 -1.98 4.32 -3 5 C-3.66 4.34 -4.32 3.68 -5 3 C-5.99 3 -6.98 3 -8 3 C-8.33 2.34 -8.66 1.68 -9 1 C-6.04335481 -0.4783226 -3.25770263 -0.06032783 0 0 Z " fill="#D4891E" transform="translate(73,23)" />
<path d="M0 0 C1.41702513 0.14230808 2.8336096 0.28900746 4.25 0.4375 C4.64445312 0.47810547 4.64445312 0.47810547 6.640625 0.68359375 C8.82364639 0.97634993 10.8773182 1.42064419 13 2 C13 2.66 13 3.32 13 4 C3.40546697 3.40546697 3.40546697 3.40546697 0 0 Z " fill="#DCA040" transform="translate(32,62)" />
<path d="M0 0 C1.9451 2.91765 2.45276317 4.62537285 3 8 C2.34 8 1.68 8 1 8 C0.34 8.99 -0.32 9.98 -1 11 C-2.23076923 4.6 -2.23076923 4.6 -1.0625 1.5625 C-0.711875 1.046875 -0.36125 0.53125 0 0 Z " fill="#B6741D" transform="translate(23,52)" />
<path d="M0 0 C1.32 0.33 2.64 0.66 4 1 C3.65066406 1.45890625 3.30132812 1.9178125 2.94140625 2.390625 C2.48636719 3.00421875 2.03132813 3.6178125 1.5625 4.25 C1.11003906 4.85328125 0.65757813 5.4565625 0.19140625 6.078125 C-1.03900997 8.06292756 -1.56112668 9.71987655 -2 12 C-2.66 12 -3.32 12 -4 12 C-3.33501617 7.61110675 -1.81242323 4.0188515 0 0 Z " fill="#796444" transform="translate(26,38)" />
<path d="M0 0 C0.66 0.33 1.32 0.66 2 1 C2.33 1.99 2.66 2.98 3 4 C5.0625 5.1875 5.0625 5.1875 7 6 C7 6.66 7 7.32 7 8 C7.66 8.33 8.32 8.66 9 9 C5.62537285 8.45276317 3.91765 7.9451 1 6 C-0.1875 3.375 -0.1875 3.375 -1 1 C-0.67 0.67 -0.34 0.34 0 0 Z " fill="#D28F2A" transform="translate(30,45)" />
<path d="M0 0 C0.99 0.33 1.98 0.66 3 1 C3 1.66 3 2.32 3 3 C3.66 3 4.32 3 5 3 C5.66 4.98 6.32 6.96 7 9 C6 10 6 10 3.4375 10.0625 C2.633125 10.041875 1.82875 10.02125 1 10 C1.99 9.34 2.98 8.68 4 8 C3.34 6.02 2.68 4.04 2 2 C1.34 2 0.68 2 0 2 C0 1.34 0 0.68 0 0 Z " fill="#D9962D" transform="translate(38,45)" />
<path d="M0 0 C3.4375 0.8125 3.4375 0.8125 7 2 C7.33 2.99 7.66 3.98 8 5 C7.01 5.33 6.02 5.66 5 6 C3.31237149 4.3545622 1.6459651 2.68711423 0 1 C0 0.67 0 0.34 0 0 Z " fill="#E3AB40" transform="translate(50,31)" />
<path d="M0 0 C5.62541841 0.45003347 8.61487125 1.68441485 13 5 C12.67 5.66 12.34 6.32 12 7 C8.04 5.02 4.08 3.04 0 1 C0 0.67 0 0.34 0 0 Z " fill="#C28121" transform="translate(47,26)" />
<path d="M0 0 C0.66 0 1.32 0 2 0 C3.6875 1.8125 3.6875 1.8125 5 4 C4.67 4.99 4.34 5.98 4 7 C2.35 6.67 0.7 6.34 -1 6 C-0.67 4.02 -0.34 2.04 0 0 Z " fill="#E1A33C" transform="translate(38,47)" />
<path d="M0 0 C1.9375 0.3125 1.9375 0.3125 4 1 C4.33 1.99 4.66 2.98 5 4 C7.5625 5.1875 7.5625 5.1875 10 6 C8.375 6.8125 8.375 6.8125 6 7 C2.75 4.6875 2.75 4.6875 0 2 C0 1.34 0 0.68 0 0 Z " fill="#D5982D" transform="translate(48,32)" />
<path d="M0 0 C3.16115776 1.36983503 3.9927092 1.9890638 6 5 C5.625 7.1875 5.625 7.1875 5 9 C4.01 8.34 3.02 7.68 2 7 C2.33 6.34 2.66 5.68 3 5 C2.7525 4.773125 2.7525 4.773125 1.5 3.625 C0 2 0 2 0 0 Z " fill="#DE9F34" transform="translate(54,30)" />
<path d="M0 0 C0.99 0.66 1.98 1.32 3 2 C3 3.32 3 4.64 3 6 C1.68 6.33 0.36 6.66 -1 7 C-1.33 6.01 -1.66 5.02 -2 4 C-1.34 3.34 -0.68 2.68 0 2 C0 1.34 0 0.68 0 0 Z " fill="#D58617" transform="translate(46,51)" />
<path d="M0 0 C0.66 0.33 1.32 0.66 2 1 C1.01 2.65 0.02 4.3 -1 6 C-2.32 5.67 -3.64 5.34 -5 5 C-3.35 3.35 -1.7 1.7 0 0 Z " fill="#796142" transform="translate(70,58)" />
<path d="M0 0 C1.43088528 2.86177057 0.59991697 4.93375773 0 8 C-0.66 8 -1.32 8 -2 8 C-2 7.34 -2 6.68 -2 6 C-2.66 5.67 -3.32 5.34 -4 5 C-2.68 3.35 -1.36 1.7 0 0 Z " fill="#6E6140" transform="translate(77,49)" />
<path d="M0 0 C0.33 1.32 0.66 2.64 1 4 C-4.75 3.25 -4.75 3.25 -7 1 C-6.5153125 1.0103125 -6.5153125 1.0103125 -4.0625 1.0625 C-1 1 -1 1 0 0 Z " fill="#E2AC40" transform="translate(56,47)" />
</svg>