<?xml version='1.0' encoding='utf-8'?>
<svg xmlns="http://www.w3.org/2000/svg" version="1.1" width="101" height="86">
<path d="M0 0 C2.40040186 1.4256722 4.45648071 2.71812456 6.390625 4.73046875 C6.390625 5.39046875 6.390625 6.05046875 6.390625 6.73046875 C5.070625 6.73046875 3.750625 6.73046875 2.390625 6.73046875 C2.555625 7.22546875 2.555625 7.22546875 3.390625 9.73046875 C5.370625 9.73046875 7.350625 9.73046875 9.390625 9.73046875 C9.390625 10.39046875 9.390625 11.05046875 9.390625 11.73046875 C10.050625 12.06046875 10.710625 12.39046875 11.390625 12.73046875 C11.77195799 14.72187435 12.10388082 16.72325952 12.390625 18.73046875 C12.555625 19.06046875 12.555625 19.06046875 13.390625 20.73046875 C12.400625 20.73046875 11.410625 20.73046875 10.390625 20.73046875 C10.390625 21.39046875 10.390625 22.05046875 10.390625 22.73046875 C9.070625 22.73046875 7.750625 22.73046875 6.390625 22.73046875 C6.703125 24.66796875 6.703125 24.66796875 7.390625 26.73046875 C8.380625 27.06046875 9.370625 27.39046875 10.390625 27.73046875 C10.078125 29.66796875 10.078125 29.66796875 9.390625 31.73046875 C8.400625 32.06046875 7.410625 32.39046875 6.390625 32.73046875 C6.390625 33.39046875 6.390625 34.05046875 6.390625 34.73046875 C5.730625 34.73046875 5.070625 34.73046875 4.390625 34.73046875 C4.390625 35.39046875 4.390625 36.05046875 4.390625 36.73046875 C3.606875 36.87484375 2.823125 37.01921875 2.015625 37.16796875 C-0.609375 37.73046875 -0.609375 37.73046875 -2.609375 38.73046875 C-2.609375 39.39046875 -2.609375 40.05046875 -2.609375 40.73046875 C-11.00801012 44.3693358 -19.56655588 46.97424637 -28.484375 43.48046875 C-35.35681942 39.63189988 -41.03082869 34.10278641 -45.046875 27.29296875 C-46.23311038 21.88900756 -46.74780404 17.98876549 -44.171875 12.87890625 C-34.72375149 -1.25518175 -15.91212737 -5.59679805 0 0 Z " fill="#DC9B3F" transform="translate(65.609375,21.26953125)" />
<path d="M0 0 C2.40040186 1.4256722 4.45648071 2.71812456 6.390625 4.73046875 C6.390625 5.39046875 6.390625 6.05046875 6.390625 6.73046875 C5.070625 6.73046875 3.750625 6.73046875 2.390625 6.73046875 C2.555625 7.22546875 2.555625 7.22546875 3.390625 9.73046875 C5.370625 9.73046875 7.350625 9.73046875 9.390625 9.73046875 C9.390625 10.39046875 9.390625 11.05046875 9.390625 11.73046875 C10.050625 12.06046875 10.710625 12.39046875 11.390625 12.73046875 C11.77195799 14.72187435 12.10388082 16.72325952 12.390625 18.73046875 C12.555625 19.06046875 12.555625 19.06046875 13.390625 20.73046875 C12.400625 20.73046875 11.410625 20.73046875 10.390625 20.73046875 C10.390625 21.39046875 10.390625 22.05046875 10.390625 22.73046875 C9.070625 22.73046875 7.750625 22.73046875 6.390625 22.73046875 C6.390625 24.05046875 6.390625 25.37046875 6.390625 26.73046875 C5.400625 26.73046875 4.410625 26.73046875 3.390625 26.73046875 C3.225625 25.24546875 3.225625 25.24546875 2.390625 17.73046875 C0.905625 17.40046875 0.905625 17.40046875 -6.609375 15.73046875 C-5.609375 18.73046875 -5.609375 18.73046875 -2.609375 20.73046875 C-2.609375 22.05046875 -2.609375 23.37046875 -2.609375 24.73046875 C-3.599375 24.89546875 -3.599375 24.89546875 -8.609375 25.73046875 C-8.97528246 24.00374841 -9.32659695 22.2739322 -9.671875 20.54296875 C-9.77048828 20.06150391 -9.77048828 20.06150391 -10.26953125 17.625 C-10.61361447 14.69436013 -10.35102197 12.56739807 -9.609375 9.73046875 C-6.969375 9.73046875 -4.329375 9.73046875 -1.609375 9.73046875 C-3.96890594 7.37093781 -5.38833117 7.23905462 -8.609375 6.73046875 C-8.279375 5.74046875 -7.949375 4.75046875 -7.609375 3.73046875 C-8.351875 3.58609375 -9.094375 3.44171875 -9.859375 3.29296875 C-12.12965239 2.82859383 -14.36696979 2.31183306 -16.609375 1.73046875 C-16.939375 2.39046875 -17.269375 3.05046875 -17.609375 3.73046875 C-19.589375 3.73046875 -21.569375 3.73046875 -23.609375 3.73046875 C-23.609375 4.39046875 -23.609375 5.05046875 -23.609375 5.73046875 C-23.135 5.70984375 -23.135 5.70984375 -20.734375 5.60546875 C-17.609375 5.73046875 -17.609375 5.73046875 -15.609375 7.73046875 C-15.609375 9.39713542 -15.609375 11.06380208 -15.609375 12.73046875 C-18.859375 13.48046875 -18.859375 13.48046875 -22.609375 13.73046875 C-25.046875 11.79296875 -25.046875 11.79296875 -26.609375 9.73046875 C-26.939375 10.39046875 -27.269375 11.05046875 -27.609375 11.73046875 C-30.44904731 11.73046875 -32.84673211 11.32779694 -35.609375 10.73046875 C-36.269375 8.75046875 -36.929375 6.77046875 -37.609375 4.73046875 C-36.0064697 3.91548313 -34.40200222 3.10356948 -32.796875 2.29296875 C-31.90355469 1.84050781 -31.01023437 1.38804688 -30.08984375 0.921875 C-21.66397317 -3.1251967 -8.73873794 -3.07369029 0 0 Z " fill="#CA863A" transform="translate(65.609375,21.26953125)" />
<path d="M0 0 C4.14326302 0.55589397 6.68758372 1.87650943 10.0625 4.3125 C10.89910156 4.90675781 11.73570313 5.50101563 12.59765625 6.11328125 C16.7023104 9.33693646 19.49948585 11.89672851 21 17 C21.73297311 23.98704236 21.37782201 29.80732631 18 36 C17.34 36 16.68 36 16 36 C15.67 36.99 15.34 37.98 15 39 C11.86949269 41.34330372 8.44029509 43.15103083 5 45 C4.37996094 45.34804687 3.75992188 45.69609375 3.12109375 46.0546875 C-4.48348941 49.62731046 -15.55549475 48.9791797 -23.625 47.25 C-27.25589612 45.90522366 -30.01673749 44.473925 -33 42 C-33.625 39.875 -33.625 39.875 -34 38 C-34.2990625 37.855625 -34.2990625 37.855625 -35.8125 37.125 C-39.16165395 35.40257797 -40.229587 33.30477093 -42 30 C-43.43345751 25.4290258 -44.43320075 21.54714554 -43.125 16.875 C-42.75375 16.25625 -42.3825 15.6375 -42 15 C-40.81757765 17.36484471 -41.01919665 18.51402377 -41.1875 21.125 C-41.21699745 27.26046913 -39.38927573 31.55686764 -35.09375 35.94921875 C-33.11185495 37.71295744 -31.10028173 39.37966546 -29 41 C-28.67 41.27005859 -28.67 41.27005859 -27 42.63671875 C-22.05414896 46.00801175 -15.75378503 45.47683301 -10 45 C-7.19042688 44.21038141 -4.69312684 43.15419722 -2 42 C-1.01 42 -0.02 42 1 42 C1.33 40.68 1.66 39.36 2 38 C3.98 38 5.96 38 8 38 C8 37.34 8 36.68 8 36 C8.66 36 9.32 36 10 36 C10 35.34 10 34.68 10 34 C10.99 33.34 11.98 32.68 13 32 C13.165 31.505 13.165 31.505 14 29 C13.38125 28.87625 12.7625 28.7525 12.125 28.625 C10 28 10 28 8 26 C8.66 26 9.32 26 10 26 C10 25.34 10 24.68 10 24 C11.32 24 12.64 24 14 24 C14 23.34 14 22.68 14 22 C14.66 21.67 15.32 21.34 16 21 C15.690625 20.46375 15.38125 19.9275 15.0625 19.375 C13.82172561 16.6015043 13.4090325 13.99957163 13 11 C10.69 11.33 8.38 11.66 6 12 C6 10.68 6 9.36 6 8 C7.32 8 8.64 8 10 8 C7.0094833 4.66442368 4.06815373 2.84916079 0 1 C0 0.67 0 0.34 0 0 Z " fill="#502909" transform="translate(62,20)" />
<path d="M0 0 C1.32 0.33 2.64 0.66 4 1 C3.6875 2.9375 3.6875 2.9375 3 5 C2.01 5.33 1.02 5.66 0 6 C0 6.66 0 7.32 0 8 C-0.66 8 -1.32 8 -2 8 C-2 8.66 -2 9.32 -2 10 C-2.78375 10.144375 -3.5675 10.28875 -4.375 10.4375 C-7 11 -7 11 -9 12 C-9 12.66 -9 13.32 -9 14 C-17.39863512 17.63886705 -25.95718088 20.24377762 -34.875 16.75 C-40.00421545 13.87763935 -43.47603076 10.69862565 -47 6 C-46.67 5.34 -46.34 4.68 -46 4 C-45.34 4 -44.68 4 -44 4 C-44 4.99 -44 5.98 -44 7 C-43.01 7 -42.02 7 -41 7 C-41 7.66 -41 8.32 -41 9 C-35.38145918 10.95088223 -29.78886224 12.63172347 -24 14 C-24.33 12.35 -24.66 10.7 -25 9 C-27.97 9 -30.94 9 -34 9 C-33.34 8.67 -32.68 8.34 -32 8 C-32.33 7.01 -32.66 6.02 -33 5 C-32.34 4.67 -31.68 4.34 -31 4 C-30.34 4.33 -29.68 4.66 -29 5 C-29 5.66 -29 6.32 -29 7 C-28.175 7.165 -28.175 7.165 -24 8 C-24 6.35 -24 4.7 -24 3 C-21.6875 2.375 -21.6875 2.375 -19 2 C-18.01 2.66 -17.02 3.32 -16 4 C-16 4.66 -16 5.32 -16 6 C-15.34 6 -14.68 6 -14 6 C-14 6.66 -14 7.32 -14 8 C-13.01 8.33 -12.02 8.66 -11 9 C-11 7.68 -11 6.36 -11 5 C-10.34 5 -9.68 5 -9 5 C-9 4.34 -9 3.68 -9 3 C-8.01 3 -7.02 3 -6 3 C-5.34 3.99 -4.68 4.98 -4 6 C-3.67 5.34 -3.34 4.68 -3 4 C-2.01 4 -1.02 4 0 4 C0 2.68 0 1.36 0 0 Z " fill="#C48642" transform="translate(72,48)" />
<path d="M0 0 C2.02350324 3.03525486 2.32124018 4.19426202 2.625 7.6875 C2.69976562 8.49574219 2.77453125 9.30398437 2.8515625 10.13671875 C2.87605469 10.44416016 2.87605469 10.44416016 3 12 C4.9375 12.5625 4.9375 12.5625 7 13 C7.33 12.67 7.66 12.34 8 12 C9.99958364 11.95919217 12.00045254 11.95745644 14 12 C13.38722388 14.96175123 12.74627478 16.38058783 11 19 C8.875 20.1875 8.875 20.1875 7 21 C8.32 21.66 9.64 22.32 11 23 C9.35 23.33 7.7 23.66 6 24 C6.33 25.65 6.66 27.3 7 29 C7.99 29.33 8.98 29.66 10 30 C10.33 28.68 10.66 27.36 11 26 C11.66 26.33 12.32 26.66 13 27 C13 27.66 13 28.32 13 29 C15.31 29.33 17.62 29.66 20 30 C20.33 31.65 20.66 33.3 21 35 C19.10227809 34.74273307 17.20684323 34.46856661 15.3125 34.1875 C14.25675781 34.03667969 13.20101562 33.88585938 12.11328125 33.73046875 C8.86941068 32.96935985 6.67610405 31.97108221 4 30 C4 29.34 4 28.68 4 28 C3.01 28 2.02 28 1 28 C1 27.01 1 26.02 1 25 C0.34 25 -0.32 25 -1 25 C-1 25.66 -1 26.32 -1 27 C-1.66 27 -2.32 27 -3 27 C-6.25709665 21.40186513 -8.65652482 16.52991395 -7 10 C-4.97254822 6.40290814 -2.6123723 3.192159 0 0 Z " fill="#CA8C43" transform="translate(27,27)" />
<path d="M0 0 C4.95293409 3.96234727 6.65549843 8.32583521 7.5625 14.4375 C7.90446628 20.22706868 6.30232886 23.71226746 2.5 28 C-0.23519829 30.53982698 -1.96953778 31.82317926 -5.5 33 C-6.098125 33.474375 -6.69625 33.94875 -7.3125 34.4375 C-11.41566938 37.36833527 -15.51014068 38.29352114 -20.5 38 C-18.52579865 35.47740939 -17.53254358 35.0070192 -14.3125 34.3125 C-13.8484375 34.2609375 -13.8484375 34.2609375 -11.5 34 C-11.17 32.68 -10.84 31.36 -10.5 30 C-8.52 30 -6.54 30 -4.5 30 C-4.5 29.34 -4.5 28.68 -4.5 28 C-3.84 28 -3.18 28 -2.5 28 C-2.5 27.34 -2.5 26.68 -2.5 26 C-1.51 25.34 -0.52 24.68 0.5 24 C0.83 23.01 1.16 22.02 1.5 21 C0.88125 20.87625 0.2625 20.7525 -0.375 20.625 C-2.5 20 -2.5 20 -4.5 18 C-3.84 18 -3.18 18 -2.5 18 C-2.5 17.34 -2.5 16.68 -2.5 16 C-1.18 16 0.14 16 1.5 16 C1.5 15.34 1.5 14.68 1.5 14 C2.16 13.67 2.82 13.34 3.5 13 C3.190625 12.46375 2.88125 11.9275 2.5625 11.375 C1.32172561 8.6015043 0.9090325 5.99957163 0.5 3 C-1.81 3.33 -4.12 3.66 -6.5 4 C-6.5 2.68 -6.5 1.36 -6.5 0 C-3.80836841 -1.09659065 -2.73946523 -1.09578609 0 0 Z " fill="#7E3D0D" transform="translate(74.5,28)" />
<path d="M0 0 C2.02350324 3.03525486 2.32124018 4.19426202 2.625 7.6875 C2.69976562 8.49574219 2.77453125 9.30398437 2.8515625 10.13671875 C2.87605469 10.44416016 2.87605469 10.44416016 3 12 C4.9375 12.5625 4.9375 12.5625 7 13 C7.33 12.67 7.66 12.34 8 12 C9.99958364 11.95919217 12.00045254 11.95745644 14 12 C13.38722388 14.96175123 12.74627478 16.38058783 11 19 C8.875 20.1875 8.875 20.1875 7 21 C8.32 21.66 9.64 22.32 11 23 C9.35 23 7.7 23 6 23 C5.31292445 20.50935112 5 18.62113708 5 16 C2 16 2 16 -1 18 C-1 18.99 -1 19.98 -1 21 C-1.99 20.67 -2.98 20.34 -4 20 C-3.67 17.36 -3.34 14.72 -3 12 C-3.66 12 -4.32 12 -5 12 C-5.33 14.31 -5.66 16.62 -6 19 C-6.33 19 -6.66 19 -7 19 C-7.85883663 11.39316125 -6.16185881 7.90742309 -1.53125 1.87109375 C-1.0259375 1.25363281 -0.520625 0.63617187 0 0 Z " fill="#CE8E3E" transform="translate(27,27)" />
<path d="M0 0 C1.32 0.33 2.64 0.66 4 1 C3.6875 2.9375 3.6875 2.9375 3 5 C2.01 5.33 1.02 5.66 0 6 C0 6.66 0 7.32 0 8 C-0.66 8 -1.32 8 -2 8 C-2 8.66 -2 9.32 -2 10 C-2.78375 10.144375 -3.5675 10.28875 -4.375 10.4375 C-7 11 -7 11 -9 12 C-9 12.66 -9 13.32 -9 14 C-17.39863512 17.63886705 -25.95718088 20.24377762 -34.875 16.75 C-40.00421545 13.87763935 -43.47603076 10.69862565 -47 6 C-46.67 5.34 -46.34 4.68 -46 4 C-45.34 4 -44.68 4 -44 4 C-44 4.99 -44 5.98 -44 7 C-43.01 7 -42.02 7 -41 7 C-41 7.66 -41 8.32 -41 9 C-40.34 9 -39.68 9 -39 9 C-39 9.99 -39 10.98 -39 12 C-33.72 12.99 -28.44 13.98 -23 15 C-22.67 14.34 -22.34 13.68 -22 13 C-21.46375 13.185625 -20.9275 13.37125 -20.375 13.5625 C-17.38009386 14.11419324 -14.96254171 13.60597444 -12 13 C-12 12.34 -12 11.68 -12 11 C-11.175 10.566875 -10.35 10.13375 -9.5 9.6875 C-8.675 9.130625 -7.85 8.57375 -7 8 C-6.6875 5.3125 -6.6875 5.3125 -7 3 C-6.01 3.99 -5.02 4.98 -4 6 C-3.67 5.34 -3.34 4.68 -3 4 C-2.01 4 -1.02 4 0 4 C0 2.68 0 1.36 0 0 Z " fill="#9D5E1B" transform="translate(72,48)" />
<path d="M0 0 C3.92682439 1.38543804 7.09705694 2.97968728 10 6 C10 6.66 10 7.32 10 8 C8.68 8 7.36 8 6 8 C6.33 8.99 6.66 9.98 7 11 C6.01 11.33 5.02 11.66 4 12 C4 10.02 4 8.04 4 6 C2.68 6 1.36 6 0 6 C0 6.66 0 7.32 0 8 C-1.65 8 -3.3 8 -5 8 C-4.67 7.01 -4.34 6.02 -4 5 C-4.7425 4.855625 -5.485 4.71125 -6.25 4.5625 C-8.52027739 4.09812508 -10.75759479 3.58136431 -13 3 C-13.33 3.66 -13.66 4.32 -14 5 C-15.32 5 -16.64 5 -18 5 C-18.33 4.34 -18.66 3.68 -19 3 C-21.5625 2.375 -21.5625 2.375 -24 2 C-17.67276944 -2.21815371 -7.35523236 -0.910015 0 0 Z " fill="#B16F2C" transform="translate(62,20)" />
<path d="M0 0 C1.47968324 0.14049518 2.95874516 0.28754826 4.4375 0.4375 C4.84935547 0.47810547 4.84935547 0.47810547 6.93359375 0.68359375 C9 1 9 1 10 2 C10.07179964 3.51928038 10.08392007 5.04167482 10.0625 6.5625 C10.05347656 7.38878906 10.04445313 8.21507812 10.03515625 9.06640625 C10.02355469 9.70449219 10.01195313 10.34257813 10 11 C10.99 11 11.98 11 13 11 C13 12.32 13 13.64 13 15 C12.01 15 11.02 15 10 15 C9.67 15.99 9.34 16.98 9 18 C8.34 16.68 7.68 15.36 7 14 C6.01 14 5.02 14 4 14 C4 14.66 4 15.32 4 16 C2.35 16 0.7 16 -1 16 C-1 15.34 -1 14.68 -1 14 C-0.01 14 0.98 14 2 14 C1.34 13.67 0.68 13.34 0 13 C0 12.01 0 11.02 0 10 C1.65 9.67 3.3 9.34 5 9 C3.63016497 5.83884224 3.0109362 5.0072908 0 3 C0 2.01 0 1.02 0 0 Z " fill="#DA983C" transform="translate(59,37)" />
<path d="M0 0 C0.66 0.33 1.32 0.66 2 1 C2.33 1.99 2.66 2.98 3 4 C5.06640625 4.73046875 5.06640625 4.73046875 7.5625 5.1875 C8.38878906 5.34605469 9.21507813 5.50460938 10.06640625 5.66796875 C10.70449219 5.77753906 11.34257813 5.88710938 12 6 C11.34 6.66 10.68 7.32 10 8 C9.375 10.625 9.375 10.625 9 13 C7.35 12.67 5.7 12.34 4 12 C4 11.34 4 10.68 4 10 C2.35 10.33 0.7 10.66 -1 11 C-1.33 11.99 -1.66 12.98 -2 14 C-3.32 13.67 -4.64 13.34 -6 13 C-6.33 11.02 -6.66 9.04 -7 7 C-6.34 6.67 -5.68 6.34 -5 6 C-5 5.01 -5 4.02 -5 3 C-4.360625 2.87625 -3.72125 2.7525 -3.0625 2.625 C-2.7221875 2.521875 -2.7221875 2.521875 -1 2 C-0.67 1.34 -0.34 0.68 0 0 Z " fill="#DDA453" transform="translate(39,43)" />
<path d="M0 0 C2.64 0 5.28 0 8 0 C7.01 0.66 6.02 1.32 5 2 C6.32 2.33 7.64 2.66 9 3 C9 3.66 9 4.32 9 5 C10.155 5.495 10.155 5.495 16 8 C15.67 8.66 15.34 9.32 15 10 C12.98177083 9.90234375 10.96354167 9.8046875 8.9453125 9.70703125 C8.62433594 9.75537109 8.62433594 9.75537109 7 10 C6.67 10.495 6.67 10.495 5 13 C4.67 12.34 4.34 11.68 4 11 C3.01 11 2.02 11 1 11 C0.67 10.34 0.34 9.68 0 9 C-0.99 8.34 -1.98 7.68 -3 7 C-2.34 6.67 -1.68 6.34 -1 6 C-1.99 5.835 -1.99 5.835 -7 5 C-7 4.34 -7 3.68 -7 3 C-5.02 3 -3.04 3 -1 3 C-0.67 2.01 -0.34 1.02 0 0 Z " fill="#D28632" transform="translate(49,22)" />
<path d="M0 0 C0.40729228 2.32156597 0.74438677 4.6568787 1 7 C2.155 6.835 2.155 6.835 8 6 C7.67 6.66 7.34 7.32 7 8 C5.35 8 3.7 8 2 8 C2.66 9.32 3.32 10.64 4 12 C3.01 12 2.02 12 1 12 C1 12.66 1 13.32 1 14 C1.99 14 2.98 14 4 14 C4 15.32 4 16.64 4 18 C2.68 17.67 1.36 17.34 0 17 C0.33 16.34 0.66 15.68 1 15 C0.34 15 -0.32 15 -1 15 C-2 14 -3 13 -4 12 C-6.1875 10.8125 -6.1875 10.8125 -8 10 C-8 8.68 -8 7.36 -8 6 C-6.845 5.835 -6.845 5.835 -1 5 C-1 3.68 -1 2.36 -1 1 C-2.98 1.66 -4.96 2.32 -7 3 C-7 2.01 -7 1.02 -7 0 C-2.25 -1.125 -2.25 -1.125 0 0 Z " fill="#D8953A" transform="translate(57,39)" />
<path d="M0 0 C2.56616632 3.84924948 2.55097676 6.4349304 3 11 C-1.625 13.125 -1.625 13.125 -5 12 C-5.33 14.31 -5.66 16.62 -6 19 C-6.33 19 -6.66 19 -7 19 C-7.85883663 11.39316125 -6.16185881 7.90742309 -1.53125 1.87109375 C-1.0259375 1.25363281 -0.520625 0.63617187 0 0 Z " fill="#A86428" transform="translate(27,27)" />
<path d="M0 0 C-0.58378418 0.0093457 -1.16756836 0.01869141 -1.76904297 0.02832031 C-25.8223587 0.51271088 -25.8223587 0.51271088 -33.8125 7.4375 C-34.534375 8.283125 -35.25625 9.12875 -36 10 C-37.66666667 11.66666667 -39.33333333 13.33333333 -41 15 C-38.74064923 8.41022692 -35.10691258 4.33104322 -29 1 C-20.93381202 -2.19913218 -7.62039819 -5.08026546 0 0 Z " fill="#5B330D" transform="translate(62,20)" />
<path d="M0 0 C2.00720923 0.28674418 4.0085944 0.61866701 6 1 C6.38218767 2.65614657 6.71395102 4.32457024 7 6 C6 7 6 7 2.4375 7.0625 C1.303125 7.041875 0.16875 7.02125 -1 7 C-1.33 7.66 -1.66 8.32 -2 9 C-2 8.34 -2 7.68 -2 7 C-4.97 7 -7.94 7 -11 7 C-10.34 6.67 -9.68 6.34 -9 6 C-9.33 5.01 -9.66 4.02 -10 3 C-9.34 2.67 -8.68 2.34 -8 2 C-7.34 2.33 -6.68 2.66 -6 3 C-6 3.66 -6 4.32 -6 5 C-4.35 5.33 -2.7 5.66 -1 6 C-1.020625 5.195625 -1.04125 4.39125 -1.0625 3.5625 C-1 1 -1 1 0 0 Z " fill="#652D11" transform="translate(49,50)" />
<path d="M0 0 C0 0.66 0 1.32 0 2 C0.66 2.33 1.32 2.66 2 3 C2.38133299 4.9914056 2.71325582 6.99279077 3 9 C3.33 9.66 3.66 10.32 4 11 C3.01 11 2.02 11 1 11 C1 11.66 1 12.32 1 13 C-0.32 13 -1.64 13 -3 13 C-3 14.32 -3 15.64 -3 17 C-3.99 17 -4.98 17 -6 17 C-6 15.35 -6 13.7 -6 12 C-4.35 12 -2.7 12 -1 12 C-1 10.68 -1 9.36 -1 8 C-2.32 7.67 -3.64 7.34 -5 7 C-4.01 6.67 -3.02 6.34 -2 6 C-3 3 -3 3 -5.0625 1.8125 C-5.701875 1.544375 -6.34125 1.27625 -7 1 C-2.25 0 -2.25 0 0 0 Z " fill="#AD6520" transform="translate(75,31)" />
<path d="M0 0 C5.50102837 0.41257713 9.76201664 2.54722675 14 6 C14 6.66 14 7.32 14 8 C12.68 8 11.36 8 10 8 C10.33 8.99 10.66 9.98 11 11 C10.01 11.33 9.02 11.66 8 12 C8 10.02 8 8.04 8 6 C5.69 6 3.38 6 1 6 C1.20625 5.38125 1.4125 4.7625 1.625 4.125 C1.74875 3.42375 1.8725 2.7225 2 2 C1.34 1.34 0.68 0.68 0 0 Z " fill="#9C5E2C" transform="translate(58,20)" />
<path d="M0 0 C0.66 0 1.32 0 2 0 C2 0.99 2 1.98 2 3 C2.99 3 3.98 3 5 3 C5 3.66 5 4.32 5 5 C5.66 5 6.32 5 7 5 C7 5.99 7 6.98 7 8 C12.28 8.99 17.56 9.98 23 11 C23.33 10.34 23.66 9.68 24 9 C24.66 9.66 25.32 10.32 26 11 C25.67 11.66 25.34 12.32 25 13 C6.73462721 11.21342557 6.73462721 11.21342557 0.5625 4.25 C0.3046875 3.87875 0.3046875 3.87875 -1 2 C-0.67 1.34 -0.34 0.68 0 0 Z " fill="#A46320" transform="translate(26,52)" />
<path d="M0 0 C0.66 0 1.32 0 2 0 C0.69785067 3.906448 -1.6915129 5.75330643 -5 8 C-8.80292723 9.62982595 -11.87411645 10.24269903 -16 10 C-14.02579865 7.47740939 -13.03254358 7.0070192 -9.8125 6.3125 C-8.884375 6.209375 -7.95625 6.10625 -7 6 C-6.67 4.68 -6.34 3.36 -6 2 C-4.02 2 -2.04 2 0 2 C0 1.34 0 0.68 0 0 Z " fill="#844912" transform="translate(70,56)" />
<path d="M0 0 C2.01822917 0.06510417 4.03645833 0.13020833 6.0546875 0.1953125 C6.0546875 2.1953125 6.0546875 4.1953125 6.0546875 6.1953125 C3.7446875 6.5253125 1.4346875 6.8553125 -0.9453125 7.1953125 C-1.9353125 5.5453125 -2.9253125 3.8953125 -3.9453125 2.1953125 C-1.9453125 0.1953125 -1.9453125 0.1953125 0 0 Z " fill="#BD7D37" transform="translate(43.9453125,27.8046875)" />
<path d="M0 0 C1.47968324 0.14049518 2.95874516 0.28754826 4.4375 0.4375 C4.84935547 0.47810547 4.84935547 0.47810547 6.93359375 0.68359375 C9 1 9 1 10 2 C10.25 4.4375 10.25 4.4375 10 7 C9.01 7.66 8.02 8.32 7 9 C7 8.34 7 7.68 7 7 C6.34 7 5.68 7 5 7 C5 6.34 5 5.68 5 5 C4.175 4.67 4.175 4.67 0 3 C0 2.01 0 1.02 0 0 Z " fill="#D89434" transform="translate(59,37)" />
<path d="M0 0 C2.64 0.33 5.28 0.66 8 1 C7.67 1.99 7.34 2.98 7 4 C7.66 4.33 8.32 4.66 9 5 C9 7 9 9 9 11 C7.35 11 5.7 11 4 11 C3.95875 10.690625 3.95875 10.690625 3.75 9.125 C3 7 3 7 0.9375 5.75 C0.298125 5.5025 -0.34125 5.255 -1 5 C1.31 5 3.62 5 6 5 C5.67 4.34 5.34 3.68 5 3 C1.9375 2.375 1.9375 2.375 -1 2 C-0.67 1.34 -0.34 0.68 0 0 Z " fill="#C57C2E" transform="translate(65,32)" />
<path d="M0 0 C0.33 0.99 0.66 1.98 1 3 C-1.91708924 4.98362069 -3.12380904 4.9876191 -6.75 4.625 C-7.8225 4.41875 -8.895 4.2125 -10 4 C-10.33 4.66 -10.66 5.32 -11 6 C-11.33 5.01 -11.66 4.02 -12 3 C-4.71428571 -1.71428571 -4.71428571 -1.71428571 0 0 Z " fill="#B27637" transform="translate(40,23)" />
<path d="M0 0 C0.825 0.33 0.825 0.33 5 2 C4.67 3.98 4.34 5.96 4 8 C2.02 8.33 0.04 8.66 -2 9 C-2.33 7.02 -2.66 5.04 -3 3 C-2.01 2.34 -1.02 1.68 0 1 C0 0.67 0 0.34 0 0 Z " fill="#DEA24F" transform="translate(28,41)" />
<path d="M0 0 C-1 1 -1 1 -3.5625 1.0625 C-3.9646875 1.0521875 -3.9646875 1.0521875 -6 1 C-5.34 2.32 -4.68 3.64 -4 5 C-4.99 5 -5.98 5 -7 5 C-7 5.66 -7 6.32 -7 7 C-6.01 7 -5.02 7 -4 7 C-4 8.32 -4 9.64 -4 11 C-5.32 10.67 -6.64 10.34 -8 10 C-7.67 9.34 -7.34 8.68 -7 8 C-7.66 8 -8.32 8 -9 8 C-9.66 6.35 -10.32 4.7 -11 3 C-9.68 2.67 -8.36 2.34 -7 2 C-7 1.34 -7 0.68 -7 0 C-2.25 -1.125 -2.25 -1.125 0 0 Z " fill="#DE9E4A" transform="translate(65,46)" />
<path d="M0 0 C1.77174819 0.08723378 3.54247377 0.19541655 5.3125 0.3125 C6.29863281 0.37050781 7.28476562 0.42851562 8.30078125 0.48828125 C11.24384457 1.04622813 12.18182999 1.68540132 14 4 C10.846632 4.70074844 8.27275026 5 5 5 C4.67 5.495 4.67 5.495 3 8 C3 6.35 3 4.7 3 3 C2.01 2.67 1.02 2.34 0 2 C0 1.34 0 0.68 0 0 Z " fill="#D78E3A" transform="translate(51,27)" />
<path d="M0 0 C1.134375 0.020625 2.26875 0.04125 3.4375 0.0625 C3.1075 1.7125 2.7775 3.3625 2.4375 5.0625 C0.7875 5.0625 -0.8625 5.0625 -2.5625 5.0625 C-2.8925 6.7125 -3.2225 8.3625 -3.5625 10.0625 C-4.2225 10.0625 -4.8825 10.0625 -5.5625 10.0625 C-5.42200482 8.58281676 -5.27495174 7.10375484 -5.125 5.625 C-5.04378906 4.80128906 -4.96257813 3.97757813 -4.87890625 3.12890625 C-4.33318036 -0.43515544 -3.8167938 0.06696129 0 0 Z " fill="#D1913B" transform="translate(45.5625,33.9375)" />
<path d="M0 0 C2.64 0 5.28 0 8 0 C8 2.31 8 4.62 8 7 C6.68 6.67 5.36 6.34 4 6 C4 5.34 4 4.68 4 4 C3.01 3.67 2.02 3.34 1 3 C0.67 2.01 0.34 1.02 0 0 Z " fill="#E6B267" transform="translate(39,49)" />
<path d="M0 0 C0.33 1.32 0.66 2.64 1 4 C1.99 4 2.98 4 4 4 C4 5.32 4 6.64 4 8 C3.01 8 2.02 8 1 8 C0.67 8.99 0.34 9.98 0 11 C-1.625 8.8125 -1.625 8.8125 -3 6 C-2.33719617 3.56971928 -1.7989028 1.7989028 0 0 Z " fill="#C27B32" transform="translate(68,44)" />
<path d="M0 0 C0.33 0.66 0.66 1.32 1 2 C1.66 2 2.32 2 3 2 C2.67 3.32 2.34 4.64 2 6 C1.34 6 0.68 6 0 6 C-0.33 6.66 -0.66 7.32 -1 8 C-1 7.34 -1 6.68 -1 6 C-3.97 6 -6.94 6 -10 6 C-9.34 5.67 -8.68 5.34 -8 5 C-8.33 4.01 -8.66 3.02 -9 2 C-8.34 1.67 -7.68 1.34 -7 1 C-6.34 1.33 -5.68 1.66 -5 2 C-5 2.66 -5 3.32 -5 4 C-3.35 4.33 -1.7 4.66 0 5 C0 3.35 0 1.7 0 0 Z " fill="#8B592B" transform="translate(48,51)" />
<path d="M0 0 C0.350625 0.165 0.350625 0.165 2.125 1 C5.26003116 2.09044562 7.70563182 2.15322643 11 2 C9.6875 4 9.6875 4 8 6 C5.16032769 6 2.76264289 5.59732819 0 5 C0 3.35 0 1.7 0 0 Z " fill="#CB8529" transform="translate(30,27)" />
<path d="M0 0 C1.98 0 3.96 0 6 0 C6 4 6 4 5 7 C3.68 6.67 2.36 6.34 1 6 C0.67 4.02 0.34 2.04 0 0 Z " fill="#E5B26C" transform="translate(32,50)" />
<path d="M0 0 C1.5 1.3125 1.5 1.3125 3 3 C3 3.99 3 4.98 3 6 C4.98 6.99 6.96 7.98 9 9 C7.3125 9.6875 7.3125 9.6875 5 10 C1.55439366 8.35923508 0.14325038 7.21487558 -2 4 C-2 3.01 -2 2.02 -2 1 C-1.34 0.67 -0.68 0.34 0 0 Z " fill="#D29549" transform="translate(31,50)" />
<path d="M0 0 C2.64 0 5.28 0 8 0 C7.01 0.66 6.02 1.32 5 2 C6.32 2.33 7.64 2.66 9 3 C8.67 3.99 8.34 4.98 8 6 C6.68 5.67 5.36 5.34 4 5 C4 4.34 4 3.68 4 3 C2.35 3 0.7 3 -1 3 C-0.67 2.01 -0.34 1.02 0 0 Z " fill="#C87E35" transform="translate(49,22)" />
<path d="M0 0 C1.65 0 3.3 0 5 0 C5.33 1.65 5.66 3.3 6 5 C4.02 5.33 2.04 5.66 0 6 C0 4.02 0 2.04 0 0 Z " fill="#8A4D1D" transform="translate(57,41)" />
<path d="M0 0 C0 0.66 0 1.32 0 2 C-2.64 2.33 -5.28 2.66 -8 3 C-8 1.68 -8 0.36 -8 -1 C-4.59745511 -2.2151946 -3.06748874 -1.86240388 0 0 Z " fill="#6F3A12" transform="translate(76,29)" />
<path d="M0 0 C1.32 0.66 2.64 1.32 4 2 C3.01 2.33 2.02 2.66 1 3 C1 3.66 1 4.32 1 5 C-0.32 5 -1.64 5 -3 5 C-3 6.32 -3 7.64 -3 9 C-3.99 9 -4.98 9 -6 9 C-6 7.35 -6 5.7 -6 4 C-4.02 4 -2.04 4 0 4 C0 2.68 0 1.36 0 0 Z " fill="#975118" transform="translate(75,39)" />
<path d="M0 0 C0.4846875 0.0103125 0.4846875 0.0103125 2.9375 0.0625 C2.6075 1.3825 2.2775 2.7025 1.9375 4.0625 C0.2875 4.3925 -1.3625 4.7225 -3.0625 5.0625 C-3.625 3.125 -3.625 3.125 -4.0625 1.0625 C-3.0625 0.0625 -3.0625 0.0625 0 0 Z " fill="#692E0A" transform="translate(38.0625,38.9375)" />
<path d="M0 0 C0.99 0.165 0.99 0.165 6 1 C6 1.99 6 2.98 6 4 C1.25 5.125 1.25 5.125 -1 4 C-0.67 2.68 -0.34 1.36 0 0 Z " fill="#793E10" transform="translate(56,31)" />
<path d="M0 0 C2.31 0 4.62 0 7 0 C6.67 0.165 6.67 0.165 5 1 C5 1.66 5 2.32 5 3 C3.71254964 3.38922918 2.41980403 3.76098036 1.125 4.125 C0.76535156 4.22941406 0.76535156 4.22941406 -1.0546875 4.7578125 C-1.69664063 4.83773437 -2.33859375 4.91765625 -3 5 C-3.66 4.34 -4.32 3.68 -5 3 C-3.35 2.67 -1.7 2.34 0 2 C0 1.34 0 0.68 0 0 Z " fill="#BC7B32" transform="translate(55,58)" />
<path d="M0 0 C0.66 0.33 1.32 0.66 2 1 C1.29875 1.495 0.5975 1.99 -0.125 2.5 C-3.70236753 5.61075437 -6.27632648 9.14380244 -9 13 C-9.33 12.34 -9.66 11.68 -10 11 C-9.09066991 9.72390677 -8.17217147 8.45434447 -7.25 7.1875 C-6.73953125 6.47980469 -6.2290625 5.77210937 -5.703125 5.04296875 C-3.97517642 2.97022309 -2.21473524 1.52624146 0 0 Z " fill="#552C09" transform="translate(31,22)" />
<path d="M0 0 C0.66 0.33 1.32 0.66 2 1 C3.1577506 4.47325181 3.06866652 7.36067448 3 11 C2.34 10.67 1.68 10.34 1 10 C0.33203125 7.96875 0.33203125 7.96875 -0.1875 5.5 C-0.36667969 4.6853125 -0.54585938 3.870625 -0.73046875 3.03125 C-0.81941406 2.3609375 -0.90835938 1.690625 -1 1 C-0.67 0.67 -0.34 0.34 0 0 Z " fill="#89440B" transform="translate(76,30)" />
<path d="M0 0 C0.99 0.33 1.98 0.66 3 1 C2.67 1.66 2.34 2.32 2 3 C2.66 3 3.32 3 4 3 C4 3.99 4 4.98 4 6 C4.66 6.33 5.32 6.66 6 7 C5.34 7 4.68 7 4 7 C4 7.66 4 8.32 4 9 C3.01 9 2.02 9 1 9 C0.67 8.01 0.34 7.02 0 6 C0.66 5.67 1.32 5.34 2 5 C1.34 3.35 0.68 1.7 0 0 Z " fill="#D08D3D" transform="translate(62,41)" />
<path d="M0 0 C2.18187972 4.36375943 2.25414712 5.4657758 1 10 C-0.5625 11.875 -0.5625 11.875 -2 13 C-2.33 12.01 -2.66 11.02 -3 10 C-2.34 10 -1.68 10 -1 10 C-0.67 6.7 -0.34 3.4 0 0 Z " fill="#693009" transform="translate(80,40)" />
<path d="M0 0 C0.33 0 0.66 0 1 0 C0.88541307 1.43836751 0.75790884 2.87570966 0.625 4.3125 C0.55539063 5.11300781 0.48578125 5.91351563 0.4140625 6.73828125 C0 9 0 9 -2 12 C-2.05422947 10.5629191 -2.09289723 9.12524538 -2.125 7.6875 C-2.14820312 6.88699219 -2.17140625 6.08648437 -2.1953125 5.26171875 C-2 3 -2 3 0 0 Z " fill="#A46C34" transform="translate(22,34)" />
<path d="M0 0 C0.99 0.33 1.98 0.66 3 1 C3 2.32 3 3.64 3 5 C-0.3 4.67 -3.6 4.34 -7 4 C-5.68 3.67 -4.36 3.34 -3 3 C-2.67 2.34 -2.34 1.68 -2 1 C-1.34 1.33 -0.68 1.66 0 2 C0 1.34 0 0.68 0 0 Z " fill="#E19D46" transform="translate(39,34)" />
<path d="M0 0 C2.66666667 1.33333333 5.33333333 2.66666667 8 4 C7.67 4.66 7.34 5.32 7 6 C3.7 5.01 0.4 4.02 -3 3 C-2.01 2.01 -1.02 1.02 0 0 Z " fill="#C38133" transform="translate(28,38)" />
<path d="M0 0 C1.65 0 3.3 0 5 0 C5 0.99 5 1.98 5 3 C2.69 3.33 0.38 3.66 -2 4 C-1.34 2.68 -0.68 1.36 0 0 Z " fill="#7A300E" transform="translate(35,24)" />
<path d="M0 0 C0.66 0.33 1.32 0.66 2 1 C2.625 3.0625 2.625 3.0625 3 5 C3.66 5 4.32 5 5 5 C5 5.66 5 6.32 5 7 C2.0625 6.625 2.0625 6.625 -1 6 C-1.33 5.34 -1.66 4.68 -2 4 C-1.0625 1.875 -1.0625 1.875 0 0 Z " fill="#BA884F" transform="translate(38,53)" />
<path d="M0 0 C0.99 0 1.98 0 3 0 C3 0.66 3 1.32 3 2 C3.99 2 4.98 2 6 2 C6 3.32 6 4.64 6 6 C4.68 5.67 3.36 5.34 2 5 C2.33 4.34 2.66 3.68 3 3 C2.34 3 1.68 3 1 3 C0.67 2.01 0.34 1.02 0 0 Z " fill="#D49852" transform="translate(55,51)" />
<path d="M0 0 C0.99 0 1.98 0 3 0 C3 0.66 3 1.32 3 2 C4.32 2 5.64 2 7 2 C7.33 3.32 7.66 4.64 8 6 C7.34 6 6.68 6 6 6 C6 5.01 6 4.02 6 3 C5.34 3 4.68 3 4 3 C4 3.66 4 4.32 4 5 C3.34 5 2.68 5 2 5 C1.34 3.35 0.68 1.7 0 0 Z " fill="#B27538" transform="translate(22,49)" />
<path d="M0 0 C1.65 0 3.3 0 5 0 C5 1.32 5 2.64 5 4 C3.35 4 1.7 4 0 4 C0 2.68 0 1.36 0 0 Z " fill="#C2793A" transform="translate(69,39)" />
<path d="M0 0 C0 0.99 0 1.98 0 3 C-1.98 3.33 -3.96 3.66 -6 4 C-5.34 3.67 -4.68 3.34 -4 3 C-4 2.34 -4 1.68 -4 1 C-4.66 0.67 -5.32 0.34 -6 0 C-3.50907189 -1.24546405 -2.58919267 -0.7767578 0 0 Z " fill="#612609" transform="translate(50,31)" />
<path d="M0 0 C0.66 0 1.32 0 2 0 C2.33 1.65 2.66 3.3 3 5 C2.34 5.33 2.34 5.33 -1 7 C-0.67 4.69 -0.34 2.38 0 0 Z " fill="#C37F31" transform="translate(63,51)" />
<path d="M0 0 C2 2 2 2 3 5 C3.66 5.33 4.32 5.66 5 6 C4.67 6.99 4.34 7.98 4 9 C3.01 8.67 2.02 8.34 1 8 C1 7.34 1 6.68 1 6 C0.34 5.67 -0.32 5.34 -1 5 C-0.34 5 0.32 5 1 5 C0.67 3.35 0.34 1.7 0 0 Z " fill="#D1873C" transform="translate(28,27)" />
<path d="M0 0 C2.97 0 5.94 0 9 0 C8.34 1.32 7.68 2.64 7 4 C6.01 4 5.02 4 4 4 C3.67 3.34 3.34 2.68 3 2 C2.01 1.34 1.02 0.68 0 0 Z " fill="#CE883D" transform="translate(46,29)" />
<path d="M0 0 C0.99 0.33 1.98 0.66 3 1 C2.67 2.65 2.34 4.3 2 6 C0.68 5.34 -0.64 4.68 -2 4 C-2 3.01 -2 2.02 -2 1 C-1.34 0.67 -0.68 0.34 0 0 Z " fill="#C27C34" transform="translate(64,25)" />
<path d="M0 0 C0.66 0 1.32 0 2 0 C2 0.99 2 1.98 2 3 C2.99 3 3.98 3 5 3 C5 3.66 5 4.32 5 5 C5.66 5.33 6.32 5.66 7 6 C3.31245243 5.50168276 1.39509338 4.89932357 -1 2 C-0.67 1.34 -0.34 0.68 0 0 Z " fill="#AA6A2C" transform="translate(26,52)" />
<path d="M0 0 C1.32 0.33 2.64 0.66 4 1 C3.6875 2.9375 3.6875 2.9375 3 5 C2.01 5.33 1.02 5.66 0 6 C0 4.02 0 2.04 0 0 Z " fill="#9C581B" transform="translate(72,48)" />
<path d="M0 0 C0.33 0.66 0.66 1.32 1 2 C1.99 2.33 2.98 2.66 4 3 C4 4.32 4 5.64 4 7 C3.01 7 2.02 7 1 7 C0.34 5.02 -0.32 3.04 -1 1 C-0.67 0.67 -0.34 0.34 0 0 Z " fill="#C48A33" transform="translate(56,34)" />
<path d="M0 0 C1.32 0.33 2.64 0.66 4 1 C4 1.99 4 2.98 4 4 C3.01 3.835 3.01 3.835 -2 3 C-1.34 2.67 -0.68 2.34 0 2 C0 1.34 0 0.68 0 0 Z " fill="#612300" transform="translate(72,44)" />
<path d="M0 0 C1.65 0 3.3 0 5 0 C5.33 1.32 5.66 2.64 6 4 C4.35 4 2.7 4 1 4 C0.67 2.68 0.34 1.36 0 0 Z " fill="#DD9E3E" transform="translate(59,37)" />
<path d="M0 0 C0.66 0.165 0.66 0.165 4 1 C4 1.99 4 2.98 4 4 C2.35 4 0.7 4 -1 4 C-0.67 2.68 -0.34 1.36 0 0 Z " fill="#813A07" transform="translate(60,22)" />
</svg>