<?xml version='1.0' encoding='utf-8'?>
<svg xmlns="http://www.w3.org/2000/svg" version="1.1" width="103" height="98">
<path d="M0 0 C0.825 0.165 0.825 0.165 5 1 C4.34 1.33 3.68 1.66 3 2 C2.375 4.0625 2.375 4.0625 2 6 C1.34 6 0.68 6 0 6 C0 6.99 0 7.98 0 9 C0.66 9 1.32 9 2 9 C2.90172433 18.1975882 -0.38209759 27.2701667 -6.1875 34.4375 C-14.81452721 43.21199776 -27.49712037 48.28992866 -39.6953125 49.30859375 C-42.48492099 49.31189116 -45.22140553 49.23681203 -48 49 C-48.93091779 38.67715606 -45.95976533 30.70811885 -41.25 21.625 C-35.53224753 14.95428879 -28.77566442 11.16712801 -20.875 7.5625 C-20.11106934 7.20816895 -19.34713867 6.85383789 -18.56005859 6.48876953 C-13.89161051 4.45017681 -10.18781881 3.42429442 -5 4 C-4.01 4.66 -3.02 5.32 -2 6 C-1.34 4.02 -0.68 2.04 0 0 Z " fill="#D2AA76" transform="translate(78,26)" />
<path d="M0 0 C0.83442627 0.00128906 1.66885254 0.00257812 2.52856445 0.00390625 C9.27678495 0.1080957 15.45818977 1.16075525 21.875 3.3125 C22.04 4.1375 22.04 4.1375 22.875 8.3125 C23.41125 7.961875 23.9475 7.61125 24.5 7.25 C27.60774763 6.02325751 29.66931703 6.58393569 32.875 7.3125 C33.5625 9.0625 33.5625 9.0625 33.875 11.3125 C32.875 12.64583333 31.875 13.97916667 30.875 15.3125 C31.1875 17.0625 31.1875 17.0625 31.875 19.3125 C32.43419829 29.63025665 28.73125786 39.52630012 22 47.375 C20.65969254 48.72290844 19.28563567 50.03837746 17.875 51.3125 C17.24722656 51.88484375 16.61945313 52.4571875 15.97265625 53.046875 C6.14616398 61.16528579 -4.91172107 62.00601872 -17.125 62.3125 C-17.125 61.6525 -17.125 60.9925 -17.125 60.3125 C-16.26519531 60.23773438 -15.40539062 60.16296875 -14.51953125 60.0859375 C-6.16642575 59.15680254 -0.16033977 57.37197808 7.328125 53.5546875 C9.875 52.3125 9.875 52.3125 11.875 52.3125 C11.875 51.6525 11.875 50.9925 11.875 50.3125 C13.01498902 49.17251098 14.15784535 48.03528848 15.3125 46.91015625 C23.64184317 38.39340285 27.97728881 29.20717333 28.875 17.3125 C28.215 17.3125 27.555 17.3125 26.875 17.3125 C26.875 16.3225 26.875 15.3325 26.875 14.3125 C27.535 14.3125 28.195 14.3125 28.875 14.3125 C29.205 12.6625 29.535 11.0125 29.875 9.3125 C28.885 8.9825 27.895 8.6525 26.875 8.3125 C26.730625 8.93125 26.58625 9.55 26.4375 10.1875 C25.875 12.3125 25.875 12.3125 24.875 14.3125 C23.885 13.9825 22.895 13.6525 21.875 13.3125 C16.61800871 12.7971087 13.53558651 13.69820471 9.05859375 16.16796875 C5.87528584 17.83650045 2.5377184 19.03636403 -0.828125 20.28515625 C-3.22421429 21.35687646 -5.03827976 22.73854221 -7.125 24.3125 C-7.785 24.3125 -8.445 24.3125 -9.125 24.3125 C-9.455 25.3025 -9.785 26.2925 -10.125 27.3125 C-10.785 27.3125 -11.445 27.3125 -12.125 27.3125 C-12.3725 27.9725 -12.62 28.6325 -12.875 29.3125 C-14.125 32.3125 -14.125 32.3125 -16 35.625 C-19.29882711 42.03663013 -20.53180437 49.32955744 -22.125 56.3125 C-22.455 56.3125 -22.785 56.3125 -23.125 56.3125 C-23.84837065 47.08952419 -21.14116887 38.05953444 -16.125 30.3125 C-16.70507812 30.27511719 -17.28515625 30.23773438 -17.8828125 30.19921875 C-23.88074744 29.69444205 -28.57824457 28.77710203 -33.0625 24.4375 C-34.125 22.3125 -34.125 22.3125 -34.1875 20.0625 C-30.64279108 10.88795927 -23.75772975 6.47149741 -15.125 2.3125 C-10.02398581 0.17405255 -5.44693603 -0.03475959 0 0 Z " fill="#552208" transform="translate(51.125,17.6875)" />
<path d="M0 0 C0.825 0.165 0.825 0.165 5 1 C4.34 1.33 3.68 1.66 3 2 C2.375 4.0625 2.375 4.0625 2 6 C1.34 6 0.68 6 0 6 C0 6.99 0 7.98 0 9 C0.66 9 1.32 9 2 9 C2.90172433 18.1975882 -0.38209759 27.2701667 -6.1875 34.4375 C-14.81452721 43.21199776 -27.49712037 48.28992866 -39.6953125 49.30859375 C-42.48492099 49.31189116 -45.22140553 49.23681203 -48 49 C-48.05429959 47.25034642 -48.09292823 45.50020213 -48.125 43.75 C-48.13660156 43.26273438 -48.13660156 43.26273438 -48.1953125 40.796875 C-47.99862781 37.9803502 -47.44568916 36.39050964 -46 34 C-45.67 34 -45.34 34 -45 34 C-45 35.65 -45 37.3 -45 39 C-44.34 39 -43.68 39 -43 39 C-43 40.65 -43 42.3 -43 44 C-34.76383764 42.97927902 -34.76383764 42.97927902 -31.5625 38.875 C-31.046875 37.92625 -30.53125 36.9775 -30 36 C-29.34 36 -28.68 36 -28 36 C-27.67 36.66 -27.34 37.32 -27 38 C-25.68 38 -24.36 38 -23 38 C-22.75 35.6875 -22.75 35.6875 -23 33 C-25 31.1875 -25 31.1875 -27 30 C-26.67 29.01 -26.34 28.02 -26 27 C-28.31 26.34 -30.62 25.68 -33 25 C-32.67 24.01 -32.34 23.02 -32 22 C-31.34 22 -30.68 22 -30 22 C-29.566875 22.474375 -29.13375 22.94875 -28.6875 23.4375 C-26.55306267 25.41383086 -24.83692053 25.61663236 -22 26 C-22.33 27.65 -22.66 29.3 -23 31 C-22.34 31 -21.68 31 -21 31 C-21 31.66 -21 32.32 -21 33 C-19.845 32.835 -19.845 32.835 -14 32 C-14.33 30.35 -14.66 28.7 -15 27 C-13.35 26.34 -11.7 25.68 -10 25 C-10.165 24.34 -10.165 24.34 -11 21 C-10.030625 20.608125 -9.06125 20.21625 -8.0625 19.8125 C-5 18 -5 18 -4.125 15.3125 C-4.08375 14.549375 -4.0425 13.78625 -4 13 C-8.15455974 9.97850201 -10.90765194 9.54042087 -16 10 C-18.57633468 11.22536395 -20.80780971 12.41937697 -23.1875 13.9375 C-31.3626943 19 -31.3626943 19 -36 19 C-36 18.01 -36 17.02 -36 16 C-29.6252759 10.83816588 -21.54059362 7.99476107 -14 5 C-13.34 4.67 -12.68 4.34 -12 4 C-5.52941176 3.64705882 -5.52941176 3.64705882 -2 6 C-1.34 4.02 -0.68 2.04 0 0 Z " fill="#ECCD82" transform="translate(78,26)" />
<path d="M0 0 C1.216875 -0.01417969 2.43375 -0.02835938 3.6875 -0.04296875 C6.7719563 0.17163375 8.42673876 0.55991226 11 2.1875 C9.68 2.5175 8.36 2.8475 7 3.1875 C9.29629994 4.33564997 11.07698086 4.49519809 13.625 4.75 C14.44226562 4.83378906 15.25953125 4.91757812 16.1015625 5.00390625 C16.72804687 5.06449219 17.35453125 5.12507813 18 5.1875 C18 6.1775 18 7.1675 18 8.1875 C13.72148117 9.5488469 9.56702569 10.44903957 5.125 11.125 C-0.18606463 11.96112478 -4.95703478 13.33841275 -10 15.1875 C-8.02 15.1875 -6.04 15.1875 -4 15.1875 C-4 16.5075 -4 17.8275 -4 19.1875 C-6.86193737 20.81020241 -8.90346616 21.43703589 -12.1875 21.41796875 C-12.96867187 21.41603516 -13.74984375 21.41410156 -14.5546875 21.41210938 C-14.95816406 21.40598633 -14.95816406 21.40598633 -17 21.375 C-17.80695312 21.37435547 -18.61390625 21.37371094 -19.4453125 21.37304688 C-23.15229441 21.34551978 -26.41328312 21.1975235 -30 20.1875 C-30.4375 18.125 -30.4375 18.125 -30 15.1875 C-25.30099537 8.38928368 -16.74721441 3.22758625 -9.07421875 0.50390625 C-6.04037949 0.04111721 -3.06743549 0.01624701 0 0 Z " fill="#A34A20" transform="translate(49,19.8125)" />
<path d="M0 0 C0.825 0.165 0.825 0.165 5 1 C4.34 1.33 3.68 1.66 3 2 C2.375 4.0625 2.375 4.0625 2 6 C1.34 6 0.68 6 0 6 C0 6.99 0 7.98 0 9 C0.66 9 1.32 9 2 9 C2.83645266 17.53181716 0.12970395 25.67402492 -4.890625 32.61328125 C-6.53169397 34.49117115 -8.19605378 36.27923285 -10 38 C-10.495 37.835 -10.495 37.835 -13 37 C-11.53585994 32.39841697 -9.96698055 28.46837788 -7.3125 24.4375 C-7.0959375 24.0353125 -7.0959375 24.0353125 -6 22 C-6.33 21.01 -6.66 20.02 -7 19 C-6.484375 18.5875 -5.96875 18.175 -5.4375 17.75 C-4 16 -4 16 -4.0625 13.9375 C-5 12 -5 12 -6.625 10.75 C-11.4436158 9.22833185 -15.0523477 9.5492748 -19.60546875 11.71484375 C-20.80878922 12.44051029 -22.00284325 13.18174842 -23.1875 13.9375 C-31.3626943 19 -31.3626943 19 -36 19 C-36 18.01 -36 17.02 -36 16 C-29.6252759 10.83816588 -21.54059362 7.99476107 -14 5 C-13.34 4.67 -12.68 4.34 -12 4 C-5.52941176 3.64705882 -5.52941176 3.64705882 -2 6 C-1.34 4.02 -0.68 2.04 0 0 Z " fill="#F6C574" transform="translate(78,26)" />
<path d="M0 0 C-1.11208516 2.26177707 -2.26527056 4.48621209 -3.47265625 6.69921875 C-6.81124878 12.97446024 -8.76260045 17.87801363 -9 25 C-8.34 24.67 -7.68 24.34 -7 24 C-7.0309375 23.5771875 -7.0309375 23.5771875 -7.1875 21.4375 C-6.95984372 17.26380157 -5.79792186 14.74567053 -4 11 C-1.87363187 11.28151916 0.25108528 11.57553263 2.375 11.875 C3.55835937 12.03742187 4.74171875 12.19984375 5.9609375 12.3671875 C9 13 9 13 11 15 C11.125 17.625 11.125 17.625 11 20 C9.35 20.33 7.7 20.66 6 21 C5.67 20.01 5.34 19.02 5 18 C4.34 18 3.68 18 3 18 C2.7525 18.763125 2.505 19.52625 2.25 20.3125 C0.82439982 23.37754038 -0.00320024 24.46110282 -3 26 C-6.75 26.1875 -6.75 26.1875 -10 26 C-10 24.35 -10 22.7 -10 21 C-10.66 21 -11.32 21 -12 21 C-13.69868688 14.9892618 -12.37891593 11.6554151 -9.3984375 6.24609375 C-6.57963551 1.71868831 -5.48212202 0 0 0 Z " fill="#FBCA79" transform="translate(45,44)" />
<path d="M0 0 C0.66 0 1.32 0 2 0 C1.33308589 13.3382821 -4.20016466 22.85547869 -13.90625 31.74609375 C-23.75543957 39.83938272 -34.77829634 40.69330731 -47 41 C-47 40.34 -47 39.68 -47 39 C-46.14019531 38.92523438 -45.28039063 38.85046875 -44.39453125 38.7734375 C-36.04142575 37.84430254 -30.03533977 36.05947808 -22.546875 32.2421875 C-20 31 -20 31 -18 31 C-18 30.34 -18 29.68 -18 29 C-16.85611071 27.85611071 -15.70994176 26.7144415 -14.5546875 25.58203125 C-7.10612979 18.00246875 -3.53779656 9.83585197 0 0 Z " fill="#521B05" transform="translate(81,39)" />
<path d="M0 0 C0.66 0.33 1.32 0.66 2 1 C0.68 1.99 -0.64 2.98 -2 4 C-1.175 4.5775 -0.35 5.155 0.5 5.75 C0.9125 6.12125 0.9125 6.12125 3 8 C3 9.32 3 10.64 3 12 C0.69 11.67 -1.62 11.34 -4 11 C-4.33 10.01 -4.66 9.02 -5 8 C-5.66 8 -6.32 8 -7 8 C-6.67 8.99 -6.34 9.98 -6 11 C-3.4375 12.1875 -3.4375 12.1875 -1 13 C-1.33 14.32 -1.66 15.64 -2 17 C-5.94727588 17.17942163 -8.5980513 17.09350689 -12 15 C-13.5912689 19.873261 -14.21192221 23.80790596 -14 29 C-14.99 29 -15.98 29 -17 29 C-17.82387325 20.76126753 -15.670721 14.83081103 -11 8 C-7.68338055 4.75004627 -4.15695141 2.0784757 0 0 Z " fill="#966016" transform="translate(53,40)" />
<path d="M0 0 C1.32 0.33 2.64 0.66 4 1 C4 2.32 4 3.64 4 5 C5.65 4.67 7.3 4.34 9 4 C9.33 5.32 9.66 6.64 10 8 C8.35 8.99 6.7 9.98 5 11 C5.33 11.99 5.66 12.98 6 14 C5.175 14.495 5.175 14.495 1 17 C1.185625 17.639375 1.37125 18.27875 1.5625 18.9375 C1.706875 19.618125 1.85125 20.29875 2 21 C1 22 1 22 -2.5625 22.0625 C-3.696875 22.041875 -4.83125 22.02125 -6 22 C-6 21.34 -6 20.68 -6 20 C-6.66 20 -7.32 20 -8 20 C-7.67 18.35 -7.34 16.7 -7 15 C-5.68 15 -4.36 15 -3 15 C-2.67 14.01 -2.34 13.02 -2 12 C-1.67 12 -1.34 12 -1 12 C-1 11.34 -1 10.68 -1 10 C0.32 10 1.64 10 3 10 C3 9.01 3 8.02 3 7 C1.68 6.67 0.36 6.34 -1 6 C-0.67 4.02 -0.34 2.04 0 0 Z " fill="#7F5228" transform="translate(63,37)" />
<path d="M0 0 C0.33 0 0.66 0 1 0 C1 1.65 1 3.3 1 5 C5.61172908 5.79735503 10.2350704 6.45553247 14.875 7.0625 C15.56335938 7.15337891 16.25171875 7.24425781 16.9609375 7.33789062 C18.64050563 7.55950031 20.32023621 7.77987828 22 8 C20.75280791 11.26672789 19.3260772 14.26247941 17.625 17.3125 C14.12633591 24.1541013 12.65519641 31.5469927 11 39 C10.67 39 10.34 39 10 39 C9.27662935 29.77702419 11.98383113 20.74703444 17 13 C16.70996094 12.98130859 16.70996094 12.98130859 15.2421875 12.88671875 C9.24425256 12.38194205 4.54675543 11.46460203 0.0625 7.125 C-1.31623864 4.36752271 -0.88308373 2.89009221 0 0 Z " fill="#4A2307" transform="translate(18,35)" />
<path d="M0 0 C0.66 0.99 1.32 1.98 2 3 C1.18015625 3.32613281 0.3603125 3.65226562 -0.484375 3.98828125 C-1.56203125 4.42527344 -2.6396875 4.86226562 -3.75 5.3125 C-4.81734375 5.74175781 -5.8846875 6.17101563 -6.984375 6.61328125 C-9.67236635 7.84933945 -11.6734785 9.21318957 -14 11 C-14.66 11 -15.32 11 -16 11 C-16.33 11.99 -16.66 12.98 -17 14 C-17.33 13.34 -17.66 12.68 -18 12 C-18.66386719 12.01160156 -19.32773437 12.02320313 -20.01171875 12.03515625 C-28.78207381 12.12478032 -28.78207381 12.12478032 -33 11 C-33 10.67 -33 10.34 -33 10 C-31.86820313 9.95101562 -30.73640625 9.90203125 -29.5703125 9.8515625 C-28.08851661 9.77653486 -26.606747 9.70098703 -25.125 9.625 C-24.37863281 9.5940625 -23.63226563 9.563125 -22.86328125 9.53125 C-17.2265625 9.2265625 -17.2265625 9.2265625 -15 7 C-14.34 6.67 -13.68 6.34 -13 6 C-13 5.34 -13 4.68 -13 4 C-15.31 4.33 -17.62 4.66 -20 5 C-20.33 4.34 -20.66 3.68 -21 3 C-18.62863429 2.2970379 -16.25432265 1.61253255 -13.875 0.9375 C-13.20984375 0.73833984 -12.5446875 0.53917969 -11.859375 0.33398438 C-7.56963383 -0.86461978 -4.2901589 -1.31760073 0 0 Z " fill="#9F4919" transform="translate(58,31)" />
<path d="M0 0 C0.33 0 0.66 0 1 0 C1 1.65 1 3.3 1 5 C1.66 5 2.32 5 3 5 C3.33 6.65 3.66 8.3 4 10 C10.6 10 17.2 10 24 10 C16.18893817 15.20737456 7.11141465 15.42933367 -2 15 C-2.05429959 13.25034642 -2.09292823 11.50020213 -2.125 9.75 C-2.13660156 9.26273438 -2.13660156 9.26273438 -2.1953125 6.796875 C-1.99862781 3.9803502 -1.44568916 2.39050964 0 0 Z " fill="#F3C674" transform="translate(32,60)" />
<path d="M0 0 C0.66 0 1.32 0 2 0 C2.33 0.66 2.66 1.32 3 2 C5.28515625 2.4140625 5.28515625 2.4140625 8.0625 2.625 C8.52205078 2.66238281 8.52205078 2.66238281 10.84765625 2.8515625 C11.55792969 2.90054688 12.26820312 2.94953125 13 3 C13 2.34 13 1.68 13 1 C14.32 1.33 15.64 1.66 17 2 C16 5 16 5 13.3125 6.625 C7.46692639 9.05146452 1.84889554 9.1356561 -4.375 9.0625 C-5.11105469 9.05798828 -5.84710938 9.05347656 -6.60546875 9.04882812 C-8.40368158 9.03715142 -10.20185197 9.01922011 -12 9 C-12 8.67 -12 8.34 -12 8 C-10.7625 7.79375 -9.525 7.5875 -8.25 7.375 C-4.54312417 6.48430192 -4.09598807 6.12630009 -1.625 2.875 C-1.08875 1.92625 -0.5525 0.9775 0 0 Z " fill="#F5D17C" transform="translate(48,62)" />
<path d="M0 0 C0 0.99 0 1.98 0 3 C-0.99 3.33 -1.98 3.66 -3 4 C-3 4.66 -3 5.32 -3 6 C-12.61972606 11.16922061 -22.78375306 15.99005199 -34 15 C-36.47265625 12.69140625 -36.47265625 12.69140625 -38 10 C-37.75 7.1875 -37.75 7.1875 -37 5 C-36.67 5 -36.34 5 -36 5 C-36 6.98 -36 8.96 -36 11 C-22.78685913 9.72563616 -11.15272617 7.72111812 0 0 Z " fill="#904412" transform="translate(66,64)" />
<path d="M0 0 C-2.96099034 1.49601399 -5.89391571 2.82659038 -9 4 C-9.6496875 4.25007813 -10.299375 4.50015625 -10.96875 4.7578125 C-16.62719075 6.80999348 -22.00270212 7.63690681 -28 8 C-28 7.34 -28 6.68 -28 6 C-18.91130701 0.1987066 -10.65138165 -0.32440756 0 0 Z " fill="#CF8040" transform="translate(54,27)" />
<path d="M0 0 C0 1.32 0 2.64 0 4 C-2.86574471 5.62329063 -4.93505803 6.25523882 -8.22265625 6.265625 C-9.00833984 6.26820312 -9.79402344 6.27078125 -10.60351562 6.2734375 C-11.00924805 6.26957031 -11.00924805 6.26957031 -13.0625 6.25 C-13.87783203 6.25773437 -14.69316406 6.26546875 -15.53320312 6.2734375 C-16.31759766 6.27085938 -17.10199219 6.26828125 -17.91015625 6.265625 C-18.62308838 6.26336914 -19.33602051 6.26111328 -20.07055664 6.25878906 C-22 6 -22 6 -25 4 C-22.94287374 1.94287374 -18.90494735 2.31446263 -16.0625 2 C-10.50831447 1.3823321 -5.55768834 -0.12081931 0 0 Z " fill="#AF5B2D" transform="translate(45,35)" />
<path d="M0 0 C0.66 0.33 1.32 0.66 2 1 C0.68 1.99 -0.64 2.98 -2 4 C-1.175 4.5775 -0.35 5.155 0.5 5.75 C0.9125 6.12125 0.9125 6.12125 3 8 C3 9.32 3 10.64 3 12 C0.69 11.67 -1.62 11.34 -4 11 C-4.33 10.01 -4.66 9.02 -5 8 C-5.66 8 -6.32 8 -7 8 C-7.66 9.32 -8.32 10.64 -9 12 C-9.99 11.34 -10.98 10.68 -12 10 C-8.87562143 5.44361459 -5.02279976 2.2830908 0 0 Z " fill="#A46D32" transform="translate(53,40)" />
<path d="M0 0 C0.66 0.66 1.32 1.32 2 2 C0.35 2.66 -1.3 3.32 -3 4 C-3 4.66 -3 5.32 -3 6 C-2.32453125 5.84402344 -1.6490625 5.68804687 -0.953125 5.52734375 C-0.06109375 5.33269531 0.8309375 5.13804688 1.75 4.9375 C2.63171875 4.74027344 3.5134375 4.54304688 4.421875 4.33984375 C6.98679028 4.00174128 8.57091639 4.18841365 11 5 C9.01611586 7.84745724 7.77314992 8.04237074 4.27734375 8.6953125 C2.8320847 8.85162833 1.38531191 8.9944281 -0.0625 9.125 C-7.8019802 9.9009901 -7.8019802 9.9009901 -10 11 C-10 9.35 -10 7.7 -10 6 C-8.27473958 5.0234375 -6.54947917 4.046875 -4.82421875 3.0703125 C-3.18017711 2.10571419 -1.58599412 1.05732941 0 0 Z " fill="#A14F30" transform="translate(29,29)" />
<path d="M0 0 C1.77119803 0.14133499 3.54195287 0.28823208 5.3125 0.4375 C6.29863281 0.51871094 7.28476562 0.59992187 8.30078125 0.68359375 C11 1 11 1 14 2 C14.33 3.65 14.66 5.3 15 7 C14.34 7 13.68 7 13 7 C13 7.66 13 8.32 13 9 C11.35 9 9.7 9 8 9 C8.99 8.67 9.98 8.34 11 8 C11 7.01 11 6.02 11 5 C10.7215625 5.00580078 10.7215625 5.00580078 9.3125 5.03515625 C4.10221657 5.09676433 -0.8437951 4.74999344 -6 4 C-6 3.67 -6 3.34 -6 3 C-4.02 2.67 -2.04 2.34 0 2 C0 1.34 0 0.68 0 0 Z " fill="#8A3514" transform="translate(56,20)" />
<path d="M0 0 C0.79921875 0.01804687 1.5984375 0.03609375 2.421875 0.0546875 C3.02515625 0.07789062 3.6284375 0.10109375 4.25 0.125 C4.25 0.785 4.25 1.445 4.25 2.125 C3.0125 2.49625 1.775 2.8675 0.5 3.25 C-6.62320414 5.61309471 -13.50605336 8.96236891 -19.75 13.125 C-18.29014515 9.56169838 -16.42896037 7.80315284 -13.375 5.5 C-12.60414062 4.90960937 -11.83328125 4.31921875 -11.0390625 3.7109375 C-7.20261025 1.05291768 -4.71549792 -0.13869112 0 0 Z " fill="#B35A33" transform="translate(40.75,21.875)" />
<path d="M0 0 C3.4375 2 3.4375 2 6 4 C5.67 5.65 5.34 7.3 5 9 C4.34 8.34 3.68 7.68 3 7 C0.375 6.875 0.375 6.875 -2 7 C-2.103125 6.360625 -2.20625 5.72125 -2.3125 5.0625 C-2.539375 4.381875 -2.76625 3.70125 -3 3 C-3.99 2.67 -4.98 2.34 -6 2 C-6 2.66 -6 3.32 -6 4 C-8.375 4.625 -8.375 4.625 -11 5 C-11.66 4.34 -12.32 3.68 -13 3 C-8.46139393 0.34325498 -5.2582423 -0.65728029 0 0 Z " fill="#CC9851" transform="translate(69,35)" />
<path d="M0 0 C1.65 0.33 3.3 0.66 5 1 C4.67 1.165 4.67 1.165 3 2 C2.375 4.0625 2.375 4.0625 2 6 C1.34 6 0.68 6 0 6 C0 6.99 0 7.98 0 9 C0.66 9 1.32 9 2 9 C2 11.64 2 14.28 2 17 C1.67 17 1.34 17 1 17 C0.67 15.35 0.34 13.7 0 12 C-0.33 12.165 -0.33 12.165 -2 13 C-1.67 11.68 -1.34 10.36 -1 9 C-1.66 9 -2.32 9 -3 9 C-3 8.34 -3 7.68 -3 7 C-6.63 6.67 -10.26 6.34 -14 6 C-12 4 -12 4 -8.5625 3.75 C-5 4 -5 4 -2 6 C-1.34 4.02 -0.68 2.04 0 0 Z " fill="#D19853" transform="translate(78,26)" />
<path d="M0 0 C0.98291016 0.00322266 1.96582031 0.00644531 2.97851562 0.00976562 C3.4905957 0.01395508 3.4905957 0.01395508 6.08203125 0.03515625 C6.59991211 0.03741211 6.59991211 0.03741211 9.22070312 0.04882812 C11.77870391 0.06061615 14.33658858 0.0770711 16.89453125 0.09765625 C16.56453125 0.75765625 16.23453125 1.41765625 15.89453125 2.09765625 C14.109375 2.625 14.109375 2.625 11.83203125 3.03515625 C8.57226316 3.67880473 5.65182696 4.51569186 2.58203125 5.78515625 C-1.06204672 7.08220095 -1.70372426 7.21655234 -5.10546875 6.09765625 C-2.13365932 4.19900022 0.40913208 2.74310054 3.89453125 2.09765625 C-0.93881595 2.01432268 -5.34239438 2.14504138 -10.10546875 3.09765625 C-6.96835861 -0.03945389 -4.23241608 -0.02446483 0 0 Z " fill="#BB652C" transform="translate(46.10546875,25.90234375)" />
<path d="M0 0 C0.66 0.99 1.32 1.98 2 3 C-1.61973402 4.31626692 -4.09567131 5 -8 5 C-8 4.34 -8 3.68 -8 3 C-11.96 3.66 -15.92 4.32 -20 5 C-20.33 4.34 -20.66 3.68 -21 3 C-18.62863429 2.2970379 -16.25432265 1.61253255 -13.875 0.9375 C-13.20984375 0.73833984 -12.5446875 0.53917969 -11.859375 0.33398438 C-7.56963383 -0.86461978 -4.2901589 -1.31760073 0 0 Z " fill="#8F3917" transform="translate(58,31)" />
<path d="M0 0 C0.30292969 0.06638672 0.30292969 0.06638672 1.8359375 0.40234375 C7.87728368 1.67567364 13.84737892 2.50255404 20 3 C19.34 4.32 18.68 5.64 18 7 C15.55764329 6.603455 13.12324683 6.18391633 10.6875 5.75 C10.34235352 5.69521484 10.34235352 5.69521484 8.59570312 5.41796875 C5.28480425 4.81017089 3.35936984 4.38276078 1.01953125 1.890625 C0.68308594 1.26671875 0.34664062 0.6428125 0 0 Z " fill="#6E1E11" transform="translate(20,40)" />
<path d="M0 0 C0.66 0.165 0.66 0.165 4 1 C4 2.32 4 3.64 4 5 C5.65 4.67 7.3 4.34 9 4 C9.33 5.32 9.66 6.64 10 8 C8.35 8.33 6.7 8.66 5 9 C5 8.67 5 8.34 5 8 C3.02 7.34 1.04 6.68 -1 6 C-0.67 4.02 -0.34 2.04 0 0 Z " fill="#84522A" transform="translate(63,37)" />
<path d="M0 0 C0.33 1.32 0.66 2.64 1 4 C-7.261959 9.74031891 -7.261959 9.74031891 -12 9 C-12 8.01 -12 7.02 -12 6 C-9.8828125 4.39453125 -9.8828125 4.39453125 -7.125 2.8125 C-6.22007813 2.28269531 -5.31515625 1.75289062 -4.3828125 1.20703125 C-2 0 -2 0 0 0 Z " fill="#F6BC6D" transform="translate(54,36)" />
<path d="M0 0 C0.66 0 1.32 0 2 0 C2.433125 0.474375 2.86625 0.94875 3.3125 1.4375 C5.44693733 3.41383086 7.16307947 3.61663236 10 4 C9.67 5.65 9.34 7.3 9 9 C9.66 9 10.32 9 11 9 C11 9.66 11 10.32 11 11 C12.65 11.33 14.3 11.66 16 12 C14.625 13.5 14.625 13.5 13 15 C12.34 15 11.68 15 11 15 C9.9935725 13.33720673 8.99414593 11.67016516 8 10 C7.01 9.34 6.02 8.68 5 8 C5.33 7.01 5.66 6.02 6 5 C3.69 4.34 1.38 3.68 -1 3 C-0.67 2.01 -0.34 1.02 0 0 Z " fill="#EED5A2" transform="translate(46,48)" />
<path d="M0 0 C0.99 0.165 0.99 0.165 6 1 C6.6875 2.75 6.6875 2.75 7 5 C6.505 5.61875 6.01 6.2375 5.5 6.875 C4 9 4 9 4.3125 12.25 C4.539375 13.1575 4.76625 14.065 5 15 C4.34 15 3.68 15 3 15 C2.67 15.66 2.34 16.32 2 17 C2 15.02 2 13.04 2 11 C1.34 11 0.68 11 0 11 C0 10.01 0 9.02 0 8 C0.66 8 1.32 8 2 8 C2.6875 5.6875 2.6875 5.6875 3 3 C1.5625 1.1875 1.5625 1.1875 0 0 Z " fill="#5E360E" transform="translate(78,24)" />
<path d="M0 0 C0.4021875 0.0103125 0.4021875 0.0103125 2.4375 0.0625 C2.63836443 3.77849191 2.5894437 4.83458445 0.4375 8.0625 C-2.1875 8.75 -2.1875 8.75 -4.5625 9.0625 C-4.5625 8.0725 -4.5625 7.0825 -4.5625 6.0625 C-3.9025 6.3925 -3.2425 6.7225 -2.5625 7.0625 C-2.8925 6.4025 -3.2225 5.7425 -3.5625 5.0625 C-4.2225 5.0625 -4.8825 5.0625 -5.5625 5.0625 C-3.15007962 0.07683121 -3.15007962 0.07683121 0 0 Z " fill="#653A16" transform="translate(45.5625,58.9375)" />
<path d="M0 0 C3 1 3 1 4 3 C3.67 3.165 3.67 3.165 2 4 C2.33 4.99 2.66 5.98 3 7 C0.62216162 9.37783838 -0.72073665 9.59009208 -4 10 C-4.66 9.67 -5.32 9.34 -6 9 C-5.67 7.68 -5.34 6.36 -5 5 C-4.67 5 -4.34 5 -4 5 C-4 4.34 -4 3.68 -4 3 C-2.68 3 -1.36 3 0 3 C0 2.01 0 1.02 0 0 Z " fill="#956B41" transform="translate(66,44)" />
<path d="M0 0 C-2.22667765 0.67493341 -4.45645977 1.33963044 -6.6875 2 C-7.30818359 2.185625 -7.30818359 2.185625 -10.44921875 3.125 C-13.5010019 3.87703457 -15.88898362 4.19034899 -19 4 C-19 3.01 -19 2.02 -19 1 C-15.92230272 -0.02589909 -13.28831247 -0.34588149 -10.0625 -0.625 C-9.54236328 -0.67269531 -9.54236328 -0.67269531 -6.91015625 -0.9140625 C-4.31785591 -0.99061365 -2.44619061 -0.78985432 0 0 Z " fill="#F4B864" transform="translate(56,71)" />
<path d="M0 0 C3.69230769 0.69230769 3.69230769 0.69230769 5 2 C5.04063832 3.66617115 5.042721 5.33388095 5 7 C3.34385343 7.38218767 1.67542976 7.71395102 0 8 C-1 7 -1 7 -1.125 4 C-1 1 -1 1 0 0 Z " fill="#704019" transform="translate(51,57)" />
<path d="M0 0 C3.3 0.66 6.6 1.32 10 2 C9.67 3.65 9.34 5.3 9 7 C8.34 7 7.68 7 7 7 C7 6.01 7 5.02 7 4 C3.59687262 5.05875074 0.98646769 6.00902154 -2 8 C-1.125 2.25 -1.125 2.25 0 0 Z " fill="#E2BF90" transform="translate(41,55)" />
<path d="M0 0 C0.33 0.99 0.66 1.98 1 3 C0.34 3 -0.32 3 -1 3 C-1.66 5.97 -2.32 8.94 -3 12 C-7 11 -7 11 -8.25 8.9375 C-8.4975 8.298125 -8.745 7.65875 -9 7 C-7.35 6.34 -5.7 5.68 -4 5 C-4.33 3.68 -4.66 2.36 -5 1 C-2 0 -2 0 0 0 Z " fill="#F2D598" transform="translate(72,46)" />
<path d="M0 0 C-1.31533969 2.63067938 -2.25444971 2.97269145 -5 4 C-8.234375 4.1953125 -8.234375 4.1953125 -11.75 4.125 C-12.92046875 4.10695313 -14.0909375 4.08890625 -15.296875 4.0703125 C-15.74289063 4.05871094 -15.74289063 4.05871094 -18 4 C-17.67 3.34 -17.34 2.68 -17 2 C-14.453125 1.3671875 -14.453125 1.3671875 -11.25 0.875 C-10.20328125 0.70742188 -9.1565625 0.53984375 -8.078125 0.3671875 C-5.3438423 0.04101672 -2.74892942 -0.07126854 0 0 Z " fill="#D38963" transform="translate(42,36)" />
<path d="M0 0 C0.66 0 1.32 0 2 0 C2.66 1.32 3.32 2.64 4 4 C-1.57011122 8.79648466 -4.71472527 9.14010144 -12 9 C-12 8.67 -12 8.34 -12 8 C-10.7625 7.79375 -9.525 7.5875 -8.25 7.375 C-4.54312417 6.48430192 -4.09598807 6.12630009 -1.625 2.875 C-1.08875 1.92625 -0.5525 0.9775 0 0 Z " fill="#F4DE9E" transform="translate(48,62)" />
<path d="M0 0 C0.33 0 0.66 0 1 0 C1.3690205 10.55808656 1.3690205 10.55808656 -1 15 C-3.18719033 11.71921451 -3.21791927 11.19409949 -2.75 7.5 C-2.66234375 6.7265625 -2.5746875 5.953125 -2.484375 5.15625 C-2 3 -2 3 0 0 Z " fill="#F4C272" transform="translate(78,36)" />
<path d="M0 0 C0.66 0 1.32 0 2 0 C2 0.99 2 1.98 2 3 C-4.16645379 5.52653315 -8.43592388 6.31281522 -15 5 C-12.33684806 2.33684806 -10.34655932 2.05573507 -6.640625 1.90234375 C-5.85171875 1.91394531 -5.0628125 1.92554687 -4.25 1.9375 C-3.45078125 1.94652344 -2.6515625 1.95554687 -1.828125 1.96484375 C-1.22484375 1.97644531 -0.6215625 1.98804687 0 2 C0 1.34 0 0.68 0 0 Z " fill="#681C01" transform="translate(69,27)" />
<path d="M0 0 C1.65 0.33 3.3 0.66 5 1 C5 1.99 5 2.98 5 4 C4.67 4.165 4.67 4.165 3 5 C4.32 5.33 5.64 5.66 7 6 C3.3558226 8.4294516 1.28758728 8.16179575 -3 8 C-2.67 6.68 -2.34 5.36 -2 4 C-2 4.99 -2 5.98 -2 7 C-1.34 6.67 -0.68 6.34 0 6 C0 4.02 0 2.04 0 0 Z " fill="#C5955A" transform="translate(38,62)" />
<path d="M0 0 C0.33 0 0.66 0 1 0 C1 4.62 1 9.24 1 14 C-0.65 14.33 -2.3 14.66 -4 15 C-3.9071875 14.7009375 -3.9071875 14.7009375 -3.4375 13.1875 C-3 11 -3 11 -4 8 C-3.525625 7.608125 -3.05125 7.21625 -2.5625 6.8125 C-0.64820367 4.59191626 -0.38733012 2.86624291 0 0 Z " fill="#F6D27F" transform="translate(75,37)" />
<path d="M0 0 C1.32 0.33 2.64 0.66 4 1 C3 4 3 4 0.0625 5.6875 C-3 7 -3 7 -5 7 C-5.33 6.01 -5.66 5.02 -6 4 C-3 2 -3 2 0 2 C0 1.34 0 0.68 0 0 Z " fill="#F3C06F" transform="translate(61,63)" />
<path d="M0 0 C1.98 0 3.96 0 6 0 C5.58578031 4.83256305 3.53586014 6.82679218 0 10 C0.185625 8.906875 0.37125 7.81375 0.5625 6.6875 C1 3 1 3 0 0 Z " fill="#E9B66B" transform="translate(70,51)" />
<path d="M0 0 C5.94 0 11.88 0 18 0 C17.34 1.32 16.68 2.64 16 4 C15.67 3.34 15.34 2.68 15 2 C14.66806641 2.00580078 14.66806641 2.00580078 12.98828125 2.03515625 C4.21792619 2.12478032 4.21792619 2.12478032 0 1 C0 0.67 0 0.34 0 0 Z " fill="#943B0E" transform="translate(25,41)" />
<path d="M0 0 C0.66 0.33 1.32 0.66 2 1 C1.67 1.33 1.34 1.66 1 2 C3.31 2.33 5.62 2.66 8 3 C4.53991858 5.30672095 2.07518521 5.48134006 -2 6 C-2.33 6.165 -2.33 6.165 -4 7 C-4 5.35 -4 3.7 -4 2 C-2.125 0.9375 -2.125 0.9375 0 0 Z " fill="#8D381D" transform="translate(23,33)" />
<path d="M0 0 C-0.33 0.99 -0.66 1.98 -1 3 C-4.63 3.33 -8.26 3.66 -12 4 C-8.41084094 -0.78554541 -5.58334594 -0.37222306 0 0 Z " fill="#DF9A68" transform="translate(42,30)" />
<path d="M0 0 C0.4021875 0.0103125 0.4021875 0.0103125 2.4375 0.0625 C3.0975 1.3825 3.7575 2.7025 4.4375 4.0625 C3.4375 5.0625 3.4375 5.0625 0.875 5.125 C0.4728125 5.1146875 0.4728125 5.1146875 -1.5625 5.0625 C-2.2225 3.7425 -2.8825 2.4225 -3.5625 1.0625 C-2.5625 0.0625 -2.5625 0.0625 0 0 Z " fill="#86572E" transform="translate(57.5625,41.9375)" />
<path d="M0 0 C3.63 0 7.26 0 11 0 C11.33 1.32 11.66 2.64 12 4 C11.34 4 10.68 4 10 4 C10 4.66 10 5.32 10 6 C8.35 6 6.7 6 5 6 C5.99 5.67 6.98 5.34 8 5 C8 4.01 8 3.02 8 2 C5.36 1.67 2.72 1.34 0 1 C0 0.67 0 0.34 0 0 Z " fill="#812908" transform="translate(59,23)" />
<path d="M0 0 C0 0.33 0 0.66 0 1 C-2.64 1.165 -2.64 1.165 -16 2 C-16 1.34 -16 0.68 -16 0 C-10.49983036 -1.30267176 -5.52967941 -0.71033431 0 0 Z " fill="#52260E" transform="translate(50,78)" />
<path d="M0 0 C0.66 0.33 0.66 0.33 4 2 C3.67 1.67 3.34 1.34 3 1 C3.99 0.67 4.98 0.34 6 0 C6.66 0.66 7.32 1.32 8 2 C7.625 4.625 7.625 4.625 7 7 C6.34 6.34 5.68 5.68 5 5 C2.375 4.875 2.375 4.875 0 5 C0 3.35 0 1.7 0 0 Z " fill="#DAAC6F" transform="translate(67,37)" />
<path d="M0 0 C0.33 0 0.66 0 1 0 C1.33 1.98 1.66 3.96 2 6 C3.299375 6.12375 4.59875 6.2475 5.9375 6.375 C8.15234375 6.5859375 8.15234375 6.5859375 10 7 C10.33 7.66 10.66 8.32 11 9 C5.81535649 10.12333943 5.81535649 10.12333943 3 10 C0.4375 7.875 0.4375 7.875 -1 5 C-0.75 2.1875 -0.75 2.1875 0 0 Z " fill="#75481C" transform="translate(29,69)" />
<path d="M0 0 C0.99 0.33 1.98 0.66 3 1 C-1.08733141 4.44868587 -5.43805907 7.23793154 -10 10 C-8.58768539 6.64117925 -6.96631022 4.86670953 -4.0625 2.6875 C-3.37285156 2.15511719 -2.68320312 1.62273438 -1.97265625 1.07421875 C-1.32167969 0.71972656 -0.67070312 0.36523438 0 0 Z " fill="#AC6240" transform="translate(31,25)" />
<path d="M0 0 C1.32 0 2.64 0 4 0 C4 0.99 4 1.98 4 3 C-0.873261 4.5912689 -4.80790596 5.21192221 -10 5 C-7 3 -7 3 -3.875 2.5 C-2.92625 2.335 -1.9775 2.17 -1 2 C-0.67 1.34 -0.34 0.68 0 0 Z " fill="#A04416" transform="translate(63,25)" />
<path d="M0 0 C0.79560764 2.91499943 1.25322499 5.74561419 1.5625 8.75 C1.64628906 9.54921875 1.73007812 10.3484375 1.81640625 11.171875 C1.87699219 11.77515625 1.93757813 12.3784375 2 13 C1.01 12.67 0.02 12.34 -1 12 C-1.92470553 7.28400182 -2.22923777 4.32734391 0 0 Z " fill="#E9BC6C" transform="translate(34,53)" />
<path d="M0 0 C0.33 0 0.66 0 1 0 C1.226875 0.928125 1.45375 1.85625 1.6875 2.8125 C3.22428705 6.54469713 4.52758945 7.1724155 8 9 C8 9.66 8 10.32 8 11 C4.79711425 10.14589713 2.50661195 9.47392731 0.0625 7.1875 C-1.29660553 4.38934155 -0.89216109 2.91979993 0 0 Z " fill="#4E220D" transform="translate(18,35)" />
<path d="M0 0 C2.31 0.66 4.62 1.32 7 2 C6.34 3.32 5.68 4.64 5 6 C4.01 6 3.02 6 2 6 C2 5.34 2 4.68 2 4 C1.34 4 0.68 4 0 4 C0 2.68 0 1.36 0 0 Z " fill="#A27046" transform="translate(55,53)" />
<path d="M0 0 C2.31 0.66 4.62 1.32 7 2 C6.67 3.32 6.34 4.64 6 6 C4.35 6 2.7 6 1 6 C1.66 5.34 2.32 4.68 3 4 C1.68 3.01 0.36 2.02 -1 1 C-0.67 0.67 -0.34 0.34 0 0 Z " fill="#78461E" transform="translate(45,51)" />
<path d="M0 0 C0.103125 0.639375 0.20625 1.27875 0.3125 1.9375 C0.539375 2.618125 0.76625 3.29875 1 4 C1.99 4.33 2.98 4.66 4 5 C4 5.99 4 6.98 4 8 C2.68 8 1.36 8 0 8 C-1.60337726 5.74339496 -2.76582217 3.46835565 -4 1 C-2 0 -2 0 0 0 Z " fill="#EDC998" transform="translate(62,39)" />
<path d="M0 0 C-3.73965964 2.49310643 -5.29070641 2.0603261 -9.6875 1.625 C-10.86699219 1.51414062 -12.04648437 1.40328125 -13.26171875 1.2890625 C-14.16535156 1.19367188 -15.06898437 1.09828125 -16 1 C-16 0.67 -16 0.34 -16 0 C-14.27185839 -0.19672365 -12.54240803 -0.38196799 -10.8125 -0.5625 C-9.84957031 -0.66691406 -8.88664062 -0.77132812 -7.89453125 -0.87890625 C-5.05766623 -0.99758751 -2.74576329 -0.67765639 0 0 Z " fill="#AE692A" transform="translate(47,75)" />
<path d="M0 0 C0.33 1.32 0.66 2.64 1 4 C-2.77200794 5.25733598 -5.25297715 5.03366148 -9 4 C-2.25 0 -2.25 0 0 0 Z " fill="#EAAE5D" transform="translate(54,36)" />
<path d="M0 0 C1.32 0 2.64 0 4 0 C4 0.66 4 1.32 4 2 C4.66 2 5.32 2 6 2 C6 2.66 6 3.32 6 4 C5.34 4 4.68 4 4 4 C3.67 4.66 3.34 5.32 3 6 C1.68 5.34 0.36 4.68 -1 4 C-0.67 2.68 -0.34 1.36 0 0 Z " fill="#FBD172" transform="translate(71,33)" />
<path d="M0 0 C0.66666667 2.66666667 1.33333333 5.33333333 2 8 C1.34 8 0.68 8 0 8 C-0.33 8.66 -0.66 9.32 -1 10 C-1 8.02 -1 6.04 -1 4 C-1.66 4 -2.32 4 -3 4 C-3 3.01 -3 2.02 -3 1 C-2.01 0.67 -1.02 0.34 0 0 Z " fill="#572808" transform="translate(81,31)" />
<path d="M0 0 C0.99 0.33 1.98 0.66 3 1 C2.34 2.98 1.68 4.96 1 7 C-0.32 6.34 -1.64 5.68 -3 5 C-1.125 1.125 -1.125 1.125 0 0 Z " fill="#8B5534" transform="translate(43,59)" />
<path d="M0 0 C4.55384615 -0.36923077 4.55384615 -0.36923077 6.8125 1.5 C7.204375 1.995 7.59625 2.49 8 3 C7.67 3.99 7.34 4.98 7 6 C7 5.34 7 4.68 7 4 C6.7009375 3.9278125 6.7009375 3.9278125 5.1875 3.5625 C3.43849596 3.1127561 1.71322977 2.57107659 0 2 C0 1.34 0 0.68 0 0 Z " fill="#794819" transform="translate(48,45)" />
<path d="M0 0 C0.66 0.33 1.32 0.66 2 1 C0.68 1.99 -0.64 2.98 -2 4 C-1.67 4.66 -1.34 5.32 -1 6 C-2.98 6 -4.96 6 -7 6 C-7 5.34 -7 4.68 -7 4 C-1.7265625 0.77734375 -1.7265625 0.77734375 0 0 Z " fill="#C06F45" transform="translate(33,29)" />
<path d="M0 0 C0.66 0.99 1.32 1.98 2 3 C-0.75 3.6875 -0.75 3.6875 -4 4 C-6.375 2.5625 -6.375 2.5625 -8 1 C-5.01726077 0.00575359 -3.10494126 -0.31845551 0 0 Z " fill="#80300D" transform="translate(58,31)" />
<path d="M0 0 C0.66 0.33 1.32 0.66 2 1 C3.2077558 4.62326739 2.54311128 5.64146369 1 9 C-1 6 -1 6 -0.625 2.8125 C-0.41875 1.884375 -0.2125 0.95625 0 0 Z " fill="#FDD27A" transform="translate(35,53)" />
<path d="M0 0 C1.98 0.66 3.96 1.32 6 2 C5.01 2.99 4.02 3.98 3 5 C1.68 4.34 0.36 3.68 -1 3 C-0.67 2.01 -0.34 1.02 0 0 Z " fill="#A16B3F" transform="translate(43,52)" />
<path d="M0 0 C0.33 0.99 0.66 1.98 1 3 C0.34 3 -0.32 3 -1 3 C-1.66 4.32 -2.32 5.64 -3 7 C-3.66 5.02 -4.32 3.04 -5 1 C-2 0 -2 0 0 0 Z " fill="#F6E0A2" transform="translate(72,46)" />
<path d="M0 0 C0.66 0.66 1.32 1.32 2 2 C1.5978125 2.1340625 1.5978125 2.1340625 -0.4375 2.8125 C-1.283125 3.204375 -2.12875 3.59625 -3 4 C-3.33 4.99 -3.66 5.98 -4 7 C-4.66 6.67 -5.32 6.34 -6 6 C-4.75453595 2.26360784 -3.36595047 1.81243487 0 0 Z " fill="#B1522E" transform="translate(29,29)" />
<path d="M0 0 C1.32 0.66 2.64 1.32 4 2 C3.67 2.495 3.67 2.495 2 5 C1.01 4.67 0.02 4.34 -1 4 C-0.67 2.68 -0.34 1.36 0 0 Z " fill="#A26744" transform="translate(51,60)" />
<path d="M0 0 C0.66 0.33 1.32 0.66 2 1 C2 4 2 4 0.125 6.1875 C-2 8 -2 8 -4 8 C-2.87548273 5.0280615 -1.77706209 2.66559313 0 0 Z " fill="#D9AA69" transform="translate(39,45)" />
</svg>