<?xml version='1.0' encoding='utf-8'?>
<svg xmlns="http://www.w3.org/2000/svg" version="1.1" width="93" height="99">
<path d="M0 0 C4.58678925 3.24789596 7.46203574 6.71380011 9.57421875 11.90625 C9.86516996 14.94184094 9.82211498 17.86952122 9.57421875 20.90625 C6.71588607 20.28514888 4.34771341 19.39008222 1.76171875 18.03125 C-1.90687242 16.14533259 -5.61862789 14.4925639 -9.42578125 12.90625 C-8.42578125 9.90625 -8.42578125 9.90625 -6.23828125 8.71875 C-3.17187814 7.83290021 -0.6013997 7.75854682 2.57421875 7.90625 C2.57421875 6.58625 2.57421875 5.26625 2.57421875 3.90625 C-4.02955483 1.07606132 -4.02955483 1.07606132 -7.42578125 0.90625 C-11.59250394 3.44693457 -14.12605466 6.63532918 -16.42578125 10.90625 C-17.01087176 13.60741784 -17.23469083 16.13543887 -17.42578125 18.90625 C-20.39578125 19.89625 -23.36578125 20.88625 -26.42578125 21.90625 C-26.07515625 23.411875 -25.72453125 24.9175 -25.36328125 26.46875 C-24.32291369 31.63395513 -24.00114289 36.05697329 -26.42578125 40.90625 C-27.08578125 40.90625 -27.74578125 40.90625 -28.42578125 40.90625 C-28.75578125 40.24625 -29.08578125 39.58625 -29.42578125 38.90625 C-30.99228257 41.45181464 -31.42578125 42.86623055 -31.42578125 45.90625 C-31.42578125 48.94626945 -31.85927993 50.36068536 -33.42578125 52.90625 C-34.41578125 52.57625 -35.40578125 52.24625 -36.42578125 51.90625 C-36.75578125 53.22625 -37.08578125 54.54625 -37.42578125 55.90625 C-39.80078125 55.34375 -39.80078125 55.34375 -42.42578125 53.90625 C-43.73828125 50.28125 -43.73828125 50.28125 -44.42578125 46.90625 C-45.41578125 47.89625 -46.40578125 48.88625 -47.42578125 49.90625 C-46.00445896 45.04383165 -43.8480314 40.87611559 -41.30078125 36.53125 C-37.64133797 30.17906512 -34.25805695 23.74025107 -31.07763672 17.13525391 C-29.44873791 13.78891984 -27.73547012 10.82231737 -25.42578125 7.90625 C-25.15765625 7.24625 -24.88953125 6.58625 -24.61328125 5.90625 C-19.98872136 -1.88248245 -7.75598844 -3.49706403 0 0 Z " fill="#8B2C2A" transform="translate(65.42578125,19.09375)" />
<path d="M0 0 C3.91389016 0.83869075 6.66039844 1.77359896 10 4 C10 5.32 10 6.64 10 8 C9.38511719 8.10957031 8.77023438 8.21914063 8.13671875 8.33203125 C7.32847656 8.49058594 6.52023438 8.64914063 5.6875 8.8125 C5.28724609 8.88791016 5.28724609 8.88791016 3.26171875 9.26953125 C0.76554413 10.07572236 -0.32422106 11.02052002 -2 13 C-1.33613281 13.18175781 -0.67226563 13.36351562 0.01171875 13.55078125 C9.60056657 16.28045326 9.60056657 16.28045326 13 19 C13 19.99 13 20.98 13 22 C13.99 22 14.98 22 16 22 C15.71848913 23.31471568 15.42446661 24.62675767 15.125 25.9375 C14.96257812 26.66839844 14.80015625 27.39929688 14.6328125 28.15234375 C14 30 14 30 12 31 C7.71509847 31.40423599 5.67310532 31.45828448 2.0625 29 C1.381875 28.34 0.70125 27.68 0 27 C0.33 26.34 0.66 25.68 1 25 C1.9075 25.639375 2.815 26.27875 3.75 26.9375 C6.39221381 28.61428953 7.9898499 29.53689998 11 30 C8.68116787 25.49115974 5.93548431 23.06093224 2 20 C1.01 21.32 0.02 22.64 -1 24 C-0.67 21.36 -0.34 18.72 0 16 C-1.765625 16.12109375 -1.765625 16.12109375 -4 17 C-5.921875 19.72265625 -5.921875 19.72265625 -7.75 23.0625 C-8.36359375 24.16722656 -8.9771875 25.27195312 -9.609375 26.41015625 C-10.06828125 27.26480469 -10.5271875 28.11945312 -11 29 C-11.33 28.34 -11.66 27.68 -12 27 C-11.69578125 26.42765625 -11.3915625 25.8553125 -11.078125 25.265625 C-9.68434516 22.33666736 -9.79596189 19.98265302 -9.75 16.75 C-9.35786457 10.29428888 -7.68932447 6.44435975 -3 2 C-2.01 1.34 -1.02 0.68 0 0 Z " fill="#512B28" transform="translate(58,19)" />
<path d="M0 0 C1.24014484 3.72043452 1.77653521 7.44330573 2.40234375 11.30859375 C2.96629365 13.84821128 3.84149415 15.69784095 5 18 C4.68393897 20.65491264 4.19397377 22.61205246 3 25 C2.01 24.67 1.02 24.34 0 24 C-0.33 25.32 -0.66 26.64 -1 28 C-3.375 27.4375 -3.375 27.4375 -6 26 C-7.3125 22.375 -7.3125 22.375 -8 19 C-8.99 19.99 -9.98 20.98 -11 22 C-9.48968084 16.73877829 -7.09625809 12.32767414 -4.375 7.625 C-3.95476563 6.88894531 -3.53453125 6.15289062 -3.1015625 5.39453125 C-2.07247236 3.5936235 -1.03689244 1.79642682 0 0 Z " fill="#902C2B" transform="translate(29,47)" />
<path d="M0 0 C2.77082834 2.77082834 2.53096421 5.18070857 3 9 C3.33 9.99 3.66 10.98 4 12 C3.34 12 2.68 12 2 12 C1.77054688 12.80308594 1.54109375 13.60617188 1.3046875 14.43359375 C-0.33468012 18.91485913 -2.53915247 22.91177385 -4.875 27.0625 C-5.30941406 27.85205078 -5.74382813 28.64160156 -6.19140625 29.45507812 C-10.74239504 37.60722471 -10.74239504 37.60722471 -14 41 C-17.25 41.3125 -17.25 41.3125 -20 41 C-20 40.67 -20 40.34 -20 40 C-18.35 40 -16.7 40 -15 40 C-15 39.34 -15 38.68 -15 38 C-15.66 38 -16.32 38 -17 38 C-17.165 37.505 -17.165 37.505 -18 35 C-16.68 35.33 -15.36 35.66 -14 36 C-14 34.35 -14 32.7 -14 31 C-12.68 31.66 -11.36 32.32 -10 33 C-9.87882812 32.08476563 -9.75765625 31.16953125 -9.6328125 30.2265625 C-9.46523438 29.03804687 -9.29765625 27.84953125 -9.125 26.625 C-8.96257813 25.44164063 -8.80015625 24.25828125 -8.6328125 23.0390625 C-8 20 -8 20 -6 18 C-5.67 18.99 -5.34 19.98 -5 21 C-4.34 21 -3.68 21 -3 21 C-2.80508548 19.54263913 -2.61930642 18.08405407 -2.4375 16.625 C-2.33308594 15.81289063 -2.22867188 15.00078125 -2.12109375 14.1640625 C-2 12 -2 12 -3 10 C-3.203125 8.125 -3.203125 8.125 -3.25 6 C-3.27578125 5.29875 -3.3015625 4.5975 -3.328125 3.875 C-3.21984375 3.25625 -3.1115625 2.6375 -3 2 C-2.01 1.34 -1.02 0.68 0 0 Z " fill="#5A2929" transform="translate(42,39)" />
<path d="M0 0 C3.91389016 0.83869075 6.66039844 1.77359896 10 4 C10 5.32 10 6.64 10 8 C9.37351562 8.13277344 8.74703125 8.26554687 8.1015625 8.40234375 C7.69292969 8.49064453 7.69292969 8.49064453 5.625 8.9375 C4.81289063 9.11152344 4.00078125 9.28554688 3.1640625 9.46484375 C1 10 1 10 -1 11 C-1.33 11.99 -1.66 12.98 -2 14 C-4.0625 15.1875 -4.0625 15.1875 -6 16 C-5.34 14.68 -4.68 13.36 -4 12 C-5.32 11.67 -6.64 11.34 -8 11 C-8.33 11.66 -8.66 12.32 -9 13 C-8.56572515 8.07821839 -6.30904303 5.54540325 -3 2 C-2.01 1.34 -1.02 0.68 0 0 Z " fill="#A33A3A" transform="translate(58,19)" />
<path d="M0 0 C-0.39832031 0.45890625 -0.79664063 0.9178125 -1.20703125 1.390625 C-2.30068964 2.65724639 -3.38768684 3.92964294 -4.46875 5.20703125 C-5.55322574 6.47686381 -6.67169666 7.71802057 -7.8125 8.9375 C-9.6665352 12.1576664 -9.69310847 15.31730162 -10 19 C-11.65 19.33 -13.3 19.66 -15 20 C-17.12484858 15.75030284 -16.35620877 11.08957977 -14.9375 6.75 C-11.15425054 1.38022657 -6.5820115 -0.64214746 0 0 Z " fill="#EEE6E2" transform="translate(58,19)" />
<path d="M0 0 C1.32 0.33 2.64 0.66 4 1 C4 2.32 4 3.64 4 5 C4.99 5 5.98 5 7 5 C8.82421875 6.42578125 8.82421875 6.42578125 10.6875 8.3125 C11.31011719 8.92738281 11.93273437 9.54226562 12.57421875 10.17578125 C14 12 14 12 14 15 C9.85326256 14.39018567 6.71444984 12.89674034 3 11 C2.236875 10.814375 1.47375 10.62875 0.6875 10.4375 C0.130625 10.293125 -0.42625 10.14875 -1 10 C-1.33 9.34 -1.66 8.68 -2 8 C-2 9.65 -2 11.3 -2 13 C-3.65 13 -5.3 13 -7 13 C-5.58832253 7.73829306 -3.25149768 4.27828642 0 0 Z " fill="#765E50" transform="translate(55,34)" />
<path d="M0 0 C2.20914 3.31371 2.22481553 4.3446021 2.125 8.1875 C2.10695313 9.08855469 2.08890625 9.98960938 2.0703125 10.91796875 C2.04710938 11.60503906 2.02390625 12.29210938 2 13 C1.35933594 12.67386719 0.71867187 12.34773438 0.05859375 12.01171875 C-4.90293355 9.5050753 -9.86213389 7.12216209 -15 5 C-14 2 -14 2 -12 0.8125 C-8.0580798 -0.25510339 -4.04853862 -0.73971334 0 0 Z " fill="#E3C2C1" transform="translate(71,27)" />
<path d="M0 0 C2.26295254 4.19451036 3.09780104 8.35563664 4 13 C4.2475 14.258125 4.495 15.51625 4.75 16.8125 C5.00373802 20.04765978 4.79583216 21.35907035 3 24 C2.34 24 1.68 24 1 24 C-2.17145522 18.01104661 -4.11230385 12.82724433 -3 6 C-1.5 2.4375 -1.5 2.4375 0 0 Z " fill="#DECFCD" transform="translate(36,36)" />
<path d="M0 0 C0.33 0 0.66 0 1 0 C1.12117188 0.74765625 1.24234375 1.4953125 1.3671875 2.265625 C1.53476562 3.25046875 1.70234375 4.2353125 1.875 5.25 C2.03742187 6.22453125 2.19984375 7.1990625 2.3671875 8.203125 C2.95135622 10.78500652 3.82023142 12.66071637 5 15 C4.68393897 17.65491264 4.19397377 19.61205246 3 22 C1.125 21.4375 1.125 21.4375 -1 20 C-3.04414778 14.88963054 -3.43641509 10.41154716 -3 5 C-1.5625 2 -1.5625 2 0 0 Z " fill="#E6BBBE" transform="translate(29,50)" />
<path d="M0 0 C4.58678925 3.24789596 7.46203574 6.71380011 9.57421875 11.90625 C9.86516996 14.94184094 9.82211498 17.86952122 9.57421875 20.90625 C9.24421875 20.90625 8.91421875 20.90625 8.57421875 20.90625 C8.50783203 20.55691406 8.50783203 20.55691406 8.171875 18.7890625 C7.99527344 17.87898438 7.81867188 16.96890625 7.63671875 16.03125 C7.46269531 15.12632813 7.28867188 14.22140625 7.109375 13.2890625 C6.57421875 10.90625 6.57421875 10.90625 5.57421875 8.90625 C4.58421875 8.57625 3.59421875 8.24625 2.57421875 7.90625 C2.57421875 6.58625 2.57421875 5.26625 2.57421875 3.90625 C-4.31683005 1.11258157 -9.77781331 -0.46173798 -16.92578125 2.21875 C-22.02835536 5.43584638 -25.15324919 10.97620171 -28.42578125 15.90625 C-28.75578125 15.24625 -29.08578125 14.58625 -29.42578125 13.90625 C-28.80703125 12.99875 -28.18828125 12.09125 -27.55078125 11.15625 C-25.42578125 7.90625 -25.42578125 7.90625 -24.55078125 5.78125 C-19.92566957 -1.92726947 -7.66861641 -3.45766924 0 0 Z " fill="#582A21" transform="translate(65.42578125,19.09375)" />
<path d="M0 0 C0.99 0.33 1.98 0.66 3 1 C3 1.99 3 2.98 3 4 C3.99 4 4.98 4 6 4 C5.71848913 5.31471568 5.42446661 6.62675767 5.125 7.9375 C4.96257812 8.66839844 4.80015625 9.39929688 4.6328125 10.15234375 C4 12 4 12 2 13 C-2.28490153 13.40423599 -4.32689468 13.45828448 -7.9375 11 C-8.618125 10.34 -9.29875 9.68 -10 9 C-9.67 8.34 -9.34 7.68 -9 7 C-8.0925 7.639375 -7.185 8.27875 -6.25 8.9375 C-3.60778619 10.61428953 -2.0101501 11.53689998 1 12 C0.01 10.02 -0.98 8.04 -2 6 C-1.01 6 -0.02 6 1 6 C0.67 4.02 0.34 2.04 0 0 Z " fill="#723A3B" transform="translate(68,37)" />
<path d="M0 0 C1.26237731 2.52475462 1.09856404 4.31200466 1.0625 7.125 C1.05347656 8.03507812 1.04445313 8.94515625 1.03515625 9.8828125 C1.02355469 10.58148438 1.01195312 11.28015625 1 12 C0.34 12.33 0.34 12.33 -3 14 C-3 15.65 -3 17.3 -3 19 C-3.33 19 -3.66 19 -4 19 C-6.82869955 9.73004484 -6.82869955 9.73004484 -4.796875 5.48828125 C-3.29212048 3.52999091 -1.75783882 1.73301059 0 0 Z " fill="#BD3D3E" transform="translate(42,27)" />
<path d="M0 0 C1.12588014 0.95729916 2.2506715 1.91587895 3.375 2.875 C4.00148438 3.40867188 4.62796875 3.94234375 5.2734375 4.4921875 C6.55836651 5.61432007 7.79371975 6.79371975 9 8 C9 8.99 9 9.98 9 11 C5.06332052 10.43761722 2.09284555 9.56264345 -1 7 C-1.375 3.875 -1.375 3.875 -1 1 C-0.67 0.67 -0.34 0.34 0 0 Z " fill="#E0CFCC" transform="translate(60,38)" />
<path d="M0 0 C0.33 0 0.66 0 1 0 C1.50512244 1.60256108 2.00391627 3.20711792 2.5 4.8125 C2.7784375 5.70582031 3.056875 6.59914063 3.34375 7.51953125 C4 10 4 10 4 13 C1.125 12.8125 1.125 12.8125 -2 12 C-3.625 9.875 -3.625 9.875 -4 7 C-2.92558855 4.40529634 -1.57262642 2.35893964 0 0 Z " fill="#E2D8D7" transform="translate(21,65)" />
<path d="M0 0 C0.66 0 1.32 0 2 0 C2.7109375 1.64453125 2.7109375 1.64453125 3 4 C1.6015625 6.76171875 1.6015625 6.76171875 -0.375 9.6875 C-1.02210937 10.66074219 -1.66921875 11.63398437 -2.3359375 12.63671875 C-4 15 -4 15 -5 16 C-6.99958364 16.04080783 -9.00045254 16.04254356 -11 16 C-11 15.67 -11 15.34 -11 15 C-9.35 15 -7.7 15 -6 15 C-6 14.34 -6 13.68 -6 13 C-6.66 13 -7.32 13 -8 13 C-8.33 12.01 -8.66 11.02 -9 10 C-7.68 10.33 -6.36 10.66 -5 11 C-5 9.35 -5 7.7 -5 6 C-3.68 6.66 -2.36 7.32 -1 8 C-0.67 5.36 -0.34 2.72 0 0 Z " fill="#562F2D" transform="translate(33,64)" />
<path d="M0 0 C2.61509191 2.61509191 2.65744789 4.51360479 3.046875 8.08984375 C3 10 3 10 1.5625 12 C1.046875 12.33 0.53125 12.66 0 13 C-1.5 12 -1.5 12 -3 10 C-3.45432663 7.15172149 -3.27929785 4.93262743 -3 2 C-2.01 1.34 -1.02 0.68 0 0 Z " fill="#7B3438" transform="translate(42,39)" />
<path d="M0 0 C5.75 1.625 5.75 1.625 8 5 C8 6.32 8 7.64 8 9 C4.84526281 8.64947365 3.1766466 8.13480924 0.625 6.1875 C-1 4 -1 4 -0.75 1.75 C-0.5025 1.1725 -0.255 0.595 0 0 Z " fill="#A92024" transform="translate(61,34)" />
<path d="M0 0 C0.99 0 1.98 0 3 0 C4.23076923 6.4 4.23076923 6.4 3.0625 9.4375 C2.711875 9.953125 2.36125 10.46875 2 11 C1.34 11 0.68 11 0 11 C-0.99 8.36 -1.98 5.72 -3 3 C-2.01 2.01 -1.02 1.02 0 0 Z " fill="#B4B7B8" transform="translate(37,49)" />
<path d="M0 0 C1.98 0.99 3.96 1.98 6 3 C6 4.32 6 5.64 6 7 C2.04 7 -1.92 7 -6 7 C-6 6.34 -6 5.68 -6 5 C-4.02 4.34 -2.04 3.68 0 3 C0 2.01 0 1.02 0 0 Z " fill="#AA2523" transform="translate(62,20)" />
<path d="M0 0 C2 1 2 1 2.625 2.5625 C3.16368951 6.06398181 3.05903219 9.45806833 3 13 C2.175 12.67 2.175 12.67 -2 11 C-2 9.35 -2 7.7 -2 6 C-1.34 6 -0.68 6 0 6 C0 4.02 0 2.04 0 0 Z " fill="#A2252C" transform="translate(25,62)" />
<path d="M0 0 C0.33 0 0.66 0 1 0 C1.08160748 1.89510699 1.13946459 3.79124504 1.1875 5.6875 C1.22230469 6.74324219 1.25710937 7.79898438 1.29296875 8.88671875 C0.96666615 12.35422768 -0.00969875 14.18432448 -2 17 C-4.5654594 14.4345406 -4.54046087 12.52313332 -5 9 C-3.68 8.67 -2.36 8.34 -1 8 C-0.67 5.36 -0.34 2.72 0 0 Z " fill="#A3999A" transform="translate(48,30)" />
<path d="M0 0 C1.45792884 -0.05399736 2.91642712 -0.09279177 4.375 -0.125 C5.18710938 -0.14820312 5.99921875 -0.17140625 6.8359375 -0.1953125 C9 0 9 0 11 2 C11 3.32 11 4.64 11 6 C9.3501725 5.57781184 7.70516335 5.13675575 6.0625 4.6875 C5.14597656 4.44386719 4.22945313 4.20023438 3.28515625 3.94921875 C2.53105469 3.63597656 1.77695312 3.32273438 1 3 C0.67 2.01 0.34 1.02 0 0 Z " fill="#C8DADF" transform="translate(60,29)" />
<path d="M0 0 C2.0625 0.4375 2.0625 0.4375 4 1 C4 1.66 4 2.32 4 3 C4.66 3.33 5.32 3.66 6 4 C1.8794254 5.99785435 -1.45194365 6.17835515 -6 6 C-4 4 -2 2 0 0 Z " fill="#CE4344" transform="translate(58,19)" />
<path d="M0 0 C0.66 0 1.32 0 2 0 C0.31326082 4.49797113 -1.81673892 8.72886302 -4 13 C-4.66 12.34 -5.32 11.68 -6 11 C-5.625 8.375 -5.625 8.375 -5 6 C-4.01 6 -3.02 6 -2 6 C-1.34 4.02 -0.68 2.04 0 0 Z " fill="#785D49" transform="translate(24,52)" />
<path d="M0 0 C0.33 0 0.66 0 1 0 C1 1.65 1 3.3 1 5 C2.65 5 4.3 5 6 5 C5.67 6.65 5.34 8.3 5 10 C3.68 10 2.36 10 1 10 C-0.60725635 6.78548731 -0.05748185 3.56387464 0 0 Z " fill="#D0BFC0" transform="translate(42,29)" />
<path d="M0 0 C2.52259061 1.97420135 2.9929808 2.96745642 3.6875 6.1875 C3.790625 7.115625 3.89375 8.04375 4 9 C3.505 9.33 3.505 9.33 1 11 C-0.28317892 7.15046324 -0.06643637 4.05261865 0 0 Z " fill="#EADBD4" transform="translate(26,55)" />
<path d="M0 0 C2.24606427 1.77444972 2.95081002 2.58352485 3.29296875 5.48046875 C3.25816406 6.37378906 3.22335938 7.26710938 3.1875 8.1875 C3.16042969 9.08855469 3.13335937 9.98960938 3.10546875 10.91796875 C3.07066406 11.60503906 3.03585938 12.29210938 3 13 C0.75393573 11.22555028 0.04918998 10.41647515 -0.29296875 7.51953125 C-0.25816406 6.62621094 -0.22335938 5.73289062 -0.1875 4.8125 C-0.16042969 3.91144531 -0.13335937 3.01039062 -0.10546875 2.08203125 C-0.07066406 1.39496094 -0.03585938 0.70789063 0 0 Z " fill="#ABABAE" transform="translate(70,27)" />
<path d="M0 0 C0.33 0.495 0.33 0.495 2 3 C3.25 4.6875 3.25 4.6875 5 6 C8.1875 6.1875 8.1875 6.1875 11 6 C11 6.66 11 7.32 11 8 C4.74257426 9.32368621 4.74257426 9.32368621 1.5625 7.9375 C-0.59592703 5.26105048 -0.29697766 3.34099864 0 0 Z " fill="#5E4E48" transform="translate(16,71)" />
<path d="M0 0 C0.66 0.66 1.32 1.32 2 2 C1.6730244 4.61580479 1.17960932 6.64078137 0 9 C-1.32 8.34 -2.64 7.68 -4 7 C-3.34 6.67 -2.68 6.34 -2 6 C-1.27306096 4.02111039 -0.60183749 2.02045442 0 0 Z " fill="#959696" transform="translate(32,63)" />
<path d="M0 0 C0.33 1.32 0.66 2.64 1 4 C2.65 3.67 4.3 3.34 6 3 C6 4.32 6 5.64 6 7 C2.32579134 6.69381595 1.21864487 6.24228216 -1.3125 3.4375 C-1.869375 2.633125 -2.42625 1.82875 -3 1 C-2.01 0.67 -1.02 0.34 0 0 Z " fill="#B22F33" transform="translate(63,36)" />
<path d="M0 0 C0.33 0.66 0.66 1.32 1 2 C1.66 2.33 2.32 2.66 3 3 C2.19152271 4.16945792 1.37810888 5.33550461 0.5625 6.5 C0.11003906 7.1496875 -0.34242187 7.799375 -0.80859375 8.46875 C-1.20175781 8.9740625 -1.59492187 9.479375 -2 10 C-2.33 10 -2.66 10 -3 10 C-3.125 4.25 -3.125 4.25 -2 2 C-1.34 2 -0.68 2 0 2 C0 1.34 0 0.68 0 0 Z " fill="#6E151A" transform="translate(52,28)" />
<path d="M0 0 C2 1.3125 2 1.3125 4 3 C4 3.99 4 4.98 4 6 C-0.75 5.25 -0.75 5.25 -3 3 C-2.01 2.01 -1.02 1.02 0 0 Z " fill="#B6A5A7" transform="translate(65,43)" />
<path d="M0 0 C0.33 0 0.66 0 1 0 C1.05399736 1.45792884 1.09279177 2.91642712 1.125 4.375 C1.14820313 5.18710937 1.17140625 5.99921875 1.1953125 6.8359375 C1 9 1 9 -1 11 C-2.23076923 4.6 -2.23076923 4.6 -1.0625 1.5625 C-0.711875 1.046875 -0.36125 0.53125 0 0 Z " fill="#F4EBE5" transform="translate(36,36)" />
<path d="M0 0 C0.33 0 0.66 0 1 0 C0.125 6.75 0.125 6.75 -1 9 C-1.66 9 -2.32 9 -3 9 C-3.33 8.01 -3.66 7.02 -4 6 C-3.525625 5.566875 -3.05125 5.13375 -2.5625 4.6875 C-1 3 -1 3 0 0 Z " fill="#898A89" transform="translate(40,51)" />
<path d="M0 0 C1.051875 0.639375 2.10375 1.27875 3.1875 1.9375 C6.10828412 3.61754452 8.6171743 4.58996052 12 5 C12 5.33 12 5.66 12 6 C7.83783725 6.32644414 5.63686538 6.40650982 2.0625 4.125 C0 2 0 2 0 0 Z " fill="#47372E" transform="translate(58,44)" />
<path d="M0 0 C1.9451 2.91765 2.45276317 4.62537285 3 8 C1.68 8 0.36 8 -1 8 C-0.67 5.36 -0.34 2.72 0 0 Z " fill="#CBB5B5" transform="translate(22,70)" />
<path d="M0 0 C0.66 0.165 0.66 0.165 4 1 C3.34 2.98 2.68 4.96 2 7 C1.34 7 0.68 7 0 7 C-1.04449911 3.86650268 -0.93423645 3.01031744 0 0 Z " fill="#C1BFC1" transform="translate(28,62)" />
<path d="M0 0 C0.33 0 0.66 0 1 0 C1.25 6.625 1.25 6.625 -1 10 C-2.0625 7.625 -2.0625 7.625 -3 5 C-2.67 4.34 -2.34 3.68 -2 3 C-1.34 3 -0.68 3 0 3 C0 2.01 0 1.02 0 0 Z " fill="#B42D2D" transform="translate(32,44)" />
<path d="M0 0 C1.04449911 3.13349732 0.93423645 3.98968256 0 7 C-0.99 7 -1.98 7 -3 7 C-3.1875 4.625 -3.1875 4.625 -3 2 C-2.01 1.34 -1.02 0.68 0 0 Z " fill="#9D2026" transform="translate(42,39)" />
<path d="M0 0 C2.64 0.99 5.28 1.98 8 3 C7.01 3.66 6.02 4.32 5 5 C1.8125 4.125 1.8125 4.125 -1 3 C-0.67 2.01 -0.34 1.02 0 0 Z " fill="#BEAFB0" transform="translate(57,29)" />
<path d="M0 0 C0.33 0 0.66 0 1 0 C1 2.64 1 5.28 1 8 C0.01 7.67 -0.98 7.34 -2 7 C-1.125 1.125 -1.125 1.125 0 0 Z " fill="#EFD2CC" transform="translate(21,65)" />
<path d="M0 0 C1.74959319 2.62438979 2.62068453 3.96547627 3 7 C2.34 7.99 1.68 8.98 1 10 C0 9 0 9 -0.09765625 6.93359375 C-0.08605469 6.10988281 -0.07445312 5.28617188 -0.0625 4.4375 C-0.05347656 3.61121094 -0.04445312 2.78492188 -0.03515625 1.93359375 C-0.02355469 1.29550781 -0.01195312 0.65742187 0 0 Z " fill="#F1CAC9" transform="translate(33,42)" />
<path d="M0 0 C-0.33 0.66 -0.66 1.32 -1 2 C-3.64860427 2.59355614 -6.29197322 2.74209269 -9 3 C-9 2.34 -9 1.68 -9 1 C-3.375 -1.125 -3.375 -1.125 0 0 Z " fill="#D0231D" transform="translate(65,24)" />
<path d="M0 0 C0.33 0 0.66 0 1 0 C1.3125 2.25 1.3125 2.25 1 5 C-1.5 7.3125 -1.5 7.3125 -4 9 C-2.94124926 5.59687262 -1.99097846 2.98646769 0 0 Z " fill="#6C2B23" transform="translate(22,60)" />
<path d="M0 0 C0.495 0.33 0.495 0.33 3 2 C2.34 3.32 1.68 4.64 1 6 C0.34 6 -0.32 6 -1 6 C-1.042721 4.33388095 -1.04063832 2.66617115 -1 1 C-0.67 0.67 -0.34 0.34 0 0 Z " fill="#F5E5DE" transform="translate(60,38)" />
</svg>