<?xml version='1.0' encoding='utf-8'?>
<svg xmlns="http://www.w3.org/2000/svg" version="1.1" width="97" height="99">
<path d="M0 0 C3.3125 -0.3125 3.3125 -0.3125 7 0 C9.66537079 2.8373302 9.97508351 4.75914061 10.375 8.625 C10 12 10 12 8.8125 13.9375 C6.43958382 15.32851983 4.70313576 15.21917317 2 15 C1.67 16.155 1.67 16.155 0 22 C3.3 24.31 6.6 26.62 10 29 C10.99 28.34 11.98 27.68 13 27 C17.57833768 25.1309408 21.99264144 23.51541691 27 24 C27 25.32 27 26.64 27 28 C26.835 27.505 26.835 27.505 26 25 C17.63765182 28.58906883 17.63765182 28.58906883 14.1875 30.8125 C12 32 12 32 10.1171875 31.76171875 C7.63726879 30.86949708 5.99075995 29.64577291 3.9375 28 C1.50396398 26.0569079 -0.00385831 24.9987139 -3 24 C-2.34 24.94875 -1.68 25.8975 -1 26.875 C1 30 1 30 1 32 C1.556875 32.226875 2.11375 32.45375 2.6875 32.6875 C5.65837149 34.37367031 7.60822958 36.55387116 10 39 C12.02524159 40.80683319 14.07498431 42.5819904 16.1328125 44.3515625 C17.82403463 45.84464982 19.42498825 47.38585753 21 49 C18.37223611 48.51337706 16.82045598 47.88030399 14.5625 46.375 C12 45 12 45 9.4375 45.0625 C6.51116184 46.18801468 5.13129263 47.73120462 3 50 C2.29875 50.268125 1.5975 50.53625 0.875 50.8125 C-2.10462895 52.69959834 -2.09029729 55.70232767 -3 59 C-4.6875 61.5 -4.6875 61.5 -7 63 C-11.54249781 63.08259087 -13.42795854 62.49742736 -16.875 59.5 C-17.57625 58.675 -18.2775 57.85 -19 57 C-19.33 56.67 -19.66 56.34 -20 56 C-20.04092937 53.66702567 -20.04241723 51.33294775 -20 49 C-21.32 49.66 -22.64 50.32 -24 51 C-23.71382812 50.43796875 -23.42765625 49.8759375 -23.1328125 49.296875 C-21.98584069 46.97129077 -20.92160206 44.62229799 -19.875 42.25 C-19.69839844 41.85039063 -19.69839844 41.85039063 -18.8046875 39.828125 C-18.53914063 39.22484375 -18.27359375 38.6215625 -18 38 C-17.34 38 -16.68 38 -16 38 C-15.773125 37.34 -15.54625 36.68 -15.3125 36 C-13.59034069 32.06363586 -11.33452231 28.59699812 -9 25 C-8.319375 23.906875 -7.63875 22.81375 -6.9375 21.6875 C-5 19 -5 19 -2.875 17.4375 C-0.48542238 15.60549049 0.0854119 13.81997998 1 11 C1.66 11 2.32 11 3 11 C3 10.34 3 9.68 3 9 C3.66 9 4.32 9 5 9 C4.67 10.32 4.34 11.64 4 13 C4.99 12.67 5.98 12.34 7 12 C7 9.36 7 6.72 7 4 C4.69 3.01 2.38 2.02 0 1 C0 0.67 0 0.34 0 0 Z " fill="#393B32" transform="translate(52,18)" />
<path d="M0 0 C3.625 0.1875 3.625 0.1875 6.625 2.1875 C7.03343923 4.89953652 6.75836867 7.4312142 6.625 10.1875 C5.305 10.5175 3.985 10.8475 2.625 11.1875 C2.955 9.8675 3.285 8.5475 3.625 7.1875 C2.965 7.1875 2.305 7.1875 1.625 7.1875 C1.625 7.8475 1.625 8.5075 1.625 9.1875 C0.965 9.1875 0.305 9.1875 -0.375 9.1875 C-0.6225 10.13625 -0.87 11.085 -1.125 12.0625 C-2.56619381 15.66548453 -3.0853338 15.64546897 -6.375 17.1875 C-7.08747732 18.8351038 -7.74900383 20.50513529 -8.375 22.1875 C-8.973125 22.93 -9.57125 23.6725 -10.1875 24.4375 C-13.09339267 28.09062221 -15.18901098 32.07533214 -17.375 36.1875 C-18.035 36.1875 -18.695 36.1875 -19.375 36.1875 C-19.601875 36.744375 -19.82875 37.30125 -20.0625 37.875 C-21.73862843 40.82817866 -23.97172417 42.78422417 -26.375 45.1875 C-28.44555648 47.80370901 -30.42194548 50.48275439 -32.375 53.1875 C-33.77550252 48.98599244 -32.41316181 46.86376968 -30.73388672 42.89306641 C-28.50398136 38.45328719 -25.56167484 34.7168462 -22.4375 30.875 C-21.82970703 30.10349609 -21.22191406 29.33199219 -20.59570312 28.53710938 C-17.38616834 24.50355163 -14.02855688 20.82807799 -10.375 17.1875 C-9.046875 15.203125 -9.046875 15.203125 -8.125 13.4375 C-6.375 10.1875 -6.375 10.1875 -5.375 9.1875 C-5.16895915 7.85968122 -5.0087041 6.52454105 -4.875 5.1875 C-4.38058659 0.24336592 -4.38058659 0.24336592 0 0 Z " fill="#D4DEDE" transform="translate(53.375,19.8125)" />
<path d="M0 0 C-0.1875 2.3125 -0.1875 2.3125 -1 5 C-5.03448276 8 -5.03448276 8 -8 8 C-8 8.66 -8 9.32 -8 10 C-9.32 10 -10.64 10 -12 10 C-11.98839844 10.85464844 -11.97679687 11.70929688 -11.96484375 12.58984375 C-11.95582031 13.69457031 -11.94679688 14.79929687 -11.9375 15.9375 C-11.92589844 17.03964844 -11.91429687 18.14179687 -11.90234375 19.27734375 C-12 22 -12 22 -13 23 C-17.58513686 22.91182429 -19.5100126 22.44828634 -22.9375 19.3125 C-25.17448716 15.71976304 -25.73496964 14.13420421 -25 10 C-24 8.125 -24 8.125 -22 7 C-20.824375 7.0825 -19.64875 7.165 -18.4375 7.25 C-13.21850732 7.52011422 -10.21611643 4.67662847 -6.296875 1.53125 C-4 0 -4 0 0 0 Z " fill="#899492" transform="translate(58,56)" />
<path d="M0 0 C3.73080505 0.59624738 5.76698268 2.21383881 8.625 4.625 C12.0443866 7.45518449 15.48800855 10.04873391 19.1875 12.5 C23.84374512 15.6997893 27.76547174 19.34099407 31 24 C31 24.66 31 25.32 31 26 C22.74664928 24.96833116 16.08899538 20.45666288 11 14 C11 13.34 11 12.68 11 12 C10.71125 11.87625 10.71125 11.87625 9.25 11.25 C5.30003763 9.05557646 2.48913861 5.73370791 0 2 C0 1.34 0 0.68 0 0 Z " fill="#C8D0CB" transform="translate(49,42)" />
<path d="M0 0 C0.33 0.66 0.66 1.32 1 2 C0.67 2.99 0.34 3.98 0 5 C1.258125 5 2.51625 5 3.8125 5 C6.20833333 5 8.60416667 5 11 5 C7.85408067 7.80045623 5.932936 8.35261589 1.75 8.1875 C0.85796875 8.16042969 -0.0340625 8.13335937 -0.953125 8.10546875 C-1.62859375 8.07066406 -2.3040625 8.03585938 -3 8 C-3.48105833 15.09561034 -3.48105833 15.09561034 -1.4375 18.9375 C1.68623957 21.58066425 3.96189914 21.84761884 8 22 C9.66342837 20.33657163 9.36048097 18.2174291 9.5625 15.9375 C9.64628906 15.01839844 9.73007812 14.09929687 9.81640625 13.15234375 C9.84669922 12.79720703 9.84669922 12.79720703 10 11 C11.155 10.835 11.155 10.835 17 10 C17 9.34 17 8.68 17 8 C17.99 8 18.98 8 20 8 C20 7.34 20 6.68 20 6 C20.66 6 21.32 6 22 6 C22 5.01 22 4.02 22 3 C28.39514651 3.59489735 31.70048091 6.47419043 36 11 C33.37223611 10.51337706 31.82045598 9.88030399 29.5625 8.375 C27 7 27 7 24.4375 7.0625 C21.51116184 8.18801468 20.13129263 9.73120462 18 12 C17.29875 12.268125 16.5975 12.53625 15.875 12.8125 C12.89537105 14.69959834 12.90970271 17.70232767 12 21 C10.3125 23.5 10.3125 23.5 8 25 C3.45750219 25.08259087 1.57204146 24.49742736 -1.875 21.5 C-2.57625 20.675 -3.2775 19.85 -4 19 C-4.33 18.67 -4.66 18.34 -5 18 C-5.04092937 15.66702567 -5.04241723 13.33294775 -5 11 C-5.66 11.33 -5.66 11.33 -9 13 C-8.33333333 11.66666667 -7.66666667 10.33333333 -7 9 C-6.54625 7.989375 -6.0925 6.97875 -5.625 5.9375 C-4.0142354 3.02573321 -2.78715566 1.72995868 0 0 Z " fill="#393C33" transform="translate(37,56)" />
<path d="M0 0 C3.3125 -0.3125 3.3125 -0.3125 7 0 C9.66537079 2.8373302 9.97508351 4.75914061 10.375 8.625 C10 12 10 12 8.8125 13.9375 C6.43958382 15.32851983 4.70313576 15.21917317 2 15 C1.67 16.155 1.67 16.155 0 22 C3.3 24.31 6.6 26.62 10 29 C10.99 28.34 11.98 27.68 13 27 C17.57833768 25.1309408 21.99264144 23.51541691 27 24 C27 25.32 27 26.64 27 28 C26.67 27.01 26.34 26.02 26 25 C17.63765182 28.58906883 17.63765182 28.58906883 14.1875 30.8125 C12 32 12 32 10.1484375 31.79296875 C7.44781793 30.79619462 5.65402893 29.33023031 3.4375 27.5 C0.84668714 25.36793141 -0.79336875 24.06887708 -4 23 C-2.68938409 18.76570244 -1.05643741 14.92592596 1 11 C1.66 11 2.32 11 3 11 C3 10.34 3 9.68 3 9 C3.66 9 4.32 9 5 9 C4.67 10.32 4.34 11.64 4 13 C4.99 12.67 5.98 12.34 7 12 C7 9.36 7 6.72 7 4 C4.69 3.01 2.38 2.02 0 1 C0 0.67 0 0.34 0 0 Z " fill="#3B3D33" transform="translate(52,18)" />
<path d="M0 0 C3.625 0.1875 3.625 0.1875 6.625 2.1875 C7.03343923 4.89953652 6.75836867 7.4312142 6.625 10.1875 C5.305 10.5175 3.985 10.8475 2.625 11.1875 C2.955 9.8675 3.285 8.5475 3.625 7.1875 C2.965 7.1875 2.305 7.1875 1.625 7.1875 C1.625 7.8475 1.625 8.5075 1.625 9.1875 C0.965 9.1875 0.305 9.1875 -0.375 9.1875 C-0.6225 10.13625 -0.87 11.085 -1.125 12.0625 C-2.56619381 15.66548453 -3.0853338 15.64546897 -6.375 17.1875 C-7.08747732 18.8351038 -7.74900383 20.50513529 -8.375 22.1875 C-8.973125 22.93 -9.57125 23.6725 -10.1875 24.4375 C-13.09339267 28.09062221 -15.18901098 32.07533214 -17.375 36.1875 C-18.035 36.1875 -18.695 36.1875 -19.375 36.1875 C-20.035 37.5075 -20.695 38.8275 -21.375 40.1875 C-21.375 33.6492146 -15.58058337 27.48555841 -11.8125 22.375 C-11.33103516 21.70791016 -10.84957031 21.04082031 -10.35351562 20.35351562 C-9.88494141 19.71478516 -9.41636719 19.07605469 -8.93359375 18.41796875 C-8.51392334 17.84457764 -8.09425293 17.27118652 -7.66186523 16.68041992 C-6.375 15.1875 -6.375 15.1875 -3.375 13.1875 C-2.65772222 11.54198038 -1.99174772 9.87327711 -1.375 8.1875 C-0.715 7.1975 -0.055 6.2075 0.625 5.1875 C-0.035 4.8575 -0.695 4.5275 -1.375 4.1875 C-2.035 5.5075 -2.695 6.8275 -3.375 8.1875 C-3.705 8.1875 -4.035 8.1875 -4.375 8.1875 C-4.41741723 5.85455225 -4.41592937 3.52047433 -4.375 1.1875 C-3.375 0.1875 -3.375 0.1875 0 0 Z " fill="#C4CDC9" transform="translate(53.375,19.8125)" />
<path d="M0 0 C3.81684226 1.55500981 6.19195732 4.03595495 9 7 C3.42983438 12.57016562 0.67778527 13.91494936 -7.4375 14.0625 C-7.8603125 14.0521875 -7.8603125 14.0521875 -10 14 C-7.00168141 8.97303182 -3.85624293 4.40713477 0 0 Z " fill="#6A6551" transform="translate(45,48)" />
<path d="M0 0 C0.66 0 1.32 0 2 0 C2 1.32 2 2.64 2 4 C3.98 3.67 5.96 3.34 8 3 C8.5534764 5.07553648 9 6.84365964 9 9 C9.66 9 10.32 9 11 9 C11 9.66 11 10.32 11 11 C10.34 11 9.68 11 9 11 C9.66 12.32 10.32 13.64 11 15 C6.44381905 14.82132624 4.48090473 14.43997667 1.0625 11.3125 C-1.16628763 7.73293198 -1.56169931 6.1191283 -1 2 C-0.67 1.34 -0.34 0.68 0 0 Z " fill="#6B7473" transform="translate(34,64)" />
<path d="M0 0 C0.3815625 0.165 0.3815625 0.165 2.3125 1 C5 2 5 2 8 2 C8.33 1.34 8.66 0.68 9 0 C10.27513763 1.07826365 11.54492569 2.16285519 12.8125 3.25 C13.52019531 3.85328125 14.22789063 4.4565625 14.95703125 5.078125 C16.9342127 6.93811214 18.51392197 8.73103544 20 11 C20 11.66 20 12.32 20 13 C11.58305008 11.94788126 5.34758306 7.36696608 0 1 C0 0.67 0 0.34 0 0 Z " fill="#C9D2CF" transform="translate(60,55)" />
<path d="M0 0 C1.18414294 3.55242882 0.69535532 4.69830562 -0.4375 8.1875 C-0.72496094 9.08855469 -1.01242188 9.98960938 -1.30859375 10.91796875 C-1.53675781 11.60503906 -1.76492187 12.29210937 -2 13 C-1.46890625 12.22914062 -0.9378125 11.45828125 -0.390625 10.6640625 C-0.03742187 10.16261719 -0.03742187 10.16261719 1.75 7.625 C2.44609375 6.62726563 3.1421875 5.62953125 3.859375 4.6015625 C5.86722376 2.16136674 7.09043174 1.08781156 10 0 C9.48455373 3.81430239 8.79433828 5.42061082 6 8 C5.484375 8.886875 4.96875 9.77375 4.4375 10.6875 C3.963125 11.450625 3.48875 12.21375 3 13 C2.34 13 1.68 13 1 13 C1 13.66 1 14.32 1 15 C-0.65 15.66 -2.3 16.32 -4 17 C-5.53166168 12.91556885 -4.63081652 9.20544343 -4 5 C-3.01 4.67 -2.02 4.34 -1 4 C-0.3125 1.9375 -0.3125 1.9375 0 0 Z " fill="#414236" transform="translate(23,59)" />
<path d="M0 0 C3.88433735 3.50843373 3.88433735 3.50843373 4.5 6.125 C4.665 6.74375 4.83 7.3625 5 8 C6.31403276 8.70394612 7.6520257 9.36345658 9 10 C11.74310146 12.54716565 13.92093344 14.88140016 16 18 C14.35 17.67 12.7 17.34 11 17 C11 17.99 11 18.98 11 20 C10.34 20 9.68 20 9 20 C9 20.66 9 21.32 9 22 C8.01 22 7.02 22 6 22 C6 22.66 6 23.32 6 24 C3.69 24.33 1.38 24.66 -1 25 C-1 28.3 -1 31.6 -1 35 C-1.33 35 -1.66 35 -2 35 C-2 31.37 -2 27.74 -2 24 C-0.68 24 0.64 24 2 24 C2 23.34 2 22.68 2 22 C3.134375 21.4225 4.26875 20.845 5.4375 20.25 C8.86983743 18.31239016 8.86983743 18.31239016 9.9375 15.75 C9.958125 15.1725 9.97875 14.595 10 14 C9.01 13.67 8.02 13.34 7 13 C7 12.34 7 11.68 7 11 C6.01 10.34 5.02 9.68 4 9 C4 8.34 4 7.68 4 7 C3.01 7 2.02 7 1 7 C0.67 4.69 0.34 2.38 0 0 Z " fill="#616B66" transform="translate(48,42)" />
<path d="M0 0 C0 0.33 0 0.66 0 1 C-0.94875 1.28875 -1.8975 1.5775 -2.875 1.875 C-6 3 -6 3 -8 5 C-8.125 8.125 -8.125 8.125 -8 11 C-5.69 11.66 -3.38 12.32 -1 13 C-2.73212829 16.98586338 -5.3561998 20.27699774 -8 23.6875 C-8.45117188 24.28111328 -8.90234375 24.87472656 -9.3671875 25.48632812 C-12.75002899 29.87501449 -12.75002899 29.87501449 -15 31 C-13.125 25.25 -13.125 25.25 -12 23 C-11.34 23 -10.68 23 -10 23 C-8.7109375 21.46875 -8.7109375 21.46875 -7.375 19.5 C-7.15199219 19.17515625 -7.15199219 19.17515625 -6.0234375 17.53125 C-5.68570313 17.0259375 -5.34796875 16.520625 -5 16 C-5.804375 15.54625 -6.60875 15.0925 -7.4375 14.625 C-10 13 -10 13 -11 11 C-11.54035146 6.94736402 -11.34199395 5.46269769 -8.875 2.125 C-5.56501812 -0.32150834 -4.01686987 -0.46707789 0 0 Z " fill="#3B3E34" transform="translate(40,27)" />
<path d="M0 0 C6.39514651 0.59489735 9.70048091 3.47419043 14 8 C11.37223611 7.51337706 9.82045598 6.88030399 7.5625 5.375 C5 4 5 4 2.4375 4.0625 C0 5 0 5 -1.9375 7 C-4.53860145 9.5222802 -6.45840313 9.67803665 -10 10 C-10.33 12.31 -10.66 14.62 -11 17 C-11.33 17 -11.66 17 -12 17 C-12 14.03 -12 11.06 -12 8 C-10.845 7.835 -10.845 7.835 -5 7 C-5 6.34 -5 5.68 -5 5 C-4.01 5 -3.02 5 -2 5 C-2 4.34 -2 3.68 -2 3 C-1.34 3 -0.68 3 0 3 C0 2.01 0 1.02 0 0 Z " fill="#3D4239" transform="translate(59,59)" />
<path d="M0 0 C0.99 0.33 1.98 0.66 3 1 C2.34 1 1.68 1 1 1 C1 1.66 1 2.32 1 3 C0.34 3 -0.32 3 -1 3 C-1.2475 3.94875 -1.495 4.8975 -1.75 5.875 C-3.19119381 9.47798453 -3.7103338 9.45796897 -7 11 C-7.71247732 12.6476038 -8.37400383 14.31763529 -9 16 C-9.598125 16.7425 -10.19625 17.485 -10.8125 18.25 C-13.71839267 21.90312221 -15.81401098 25.88783214 -18 30 C-18.66 30 -19.32 30 -20 30 C-20.66 31.32 -21.32 32.64 -22 34 C-22 27.4617146 -16.20558337 21.29805841 -12.4375 16.1875 C-11.95603516 15.52041016 -11.47457031 14.85332031 -10.97851562 14.16601562 C-10.74422852 13.84665039 -10.74422852 13.84665039 -9.55859375 12.23046875 C-9.13892334 11.65707764 -8.71925293 11.08368652 -8.28686523 10.49291992 C-7 9 -7 9 -4 7 C-3.29788106 5.34795544 -2.63028587 3.68076231 -2 2 C-1.34 1.34 -0.68 0.68 0 0 Z " fill="#8E9999" transform="translate(54,26)" />
<path d="M0 0 C3.3125 -0.3125 3.3125 -0.3125 7 0 C9.66537079 2.8373302 9.97508351 4.75914061 10.375 8.625 C10 12 10 12 8.8125 13.9375 C6.43958382 15.32851983 4.70313576 15.21917317 2 15 C1.34 16.32 0.68 17.64 0 19 C-0.66 19 -1.32 19 -2 19 C-0.125 13.25 -0.125 13.25 1 11 C1.66 11 2.32 11 3 11 C3 10.34 3 9.68 3 9 C3.66 9 4.32 9 5 9 C4.67 10.32 4.34 11.64 4 13 C4.99 12.67 5.98 12.34 7 12 C7 9.36 7 6.72 7 4 C4.69 3.01 2.38 2.02 0 1 C0 0.67 0 0.34 0 0 Z " fill="#373A30" transform="translate(52,18)" />
<path d="M0 0 C0 0.66 0 1.32 0 2 C0.99 2 1.98 2 3 2 C3.66 3.98 4.32 5.96 5 8 C1.95751583 9.52124209 -0.70020832 8.47139881 -4 8 C-4.33 8.165 -4.33 8.165 -6 9 C-6.36521739 3.52173913 -6.36521739 3.52173913 -4.6875 1.125 C-3 0 -3 0 0 0 Z " fill="#7E8888" transform="translate(37,29)" />
<path d="M0 0 C2.3125 -0.3125 2.3125 -0.3125 5 0 C6.875 2.375 6.875 2.375 8 5 C7.67 5.66 7.34 6.32 7 7 C7.66 7 8.32 7 9 7 C7.63016497 10.16115776 7.0109362 10.9927092 4 13 C0.3125 12.125 0.3125 12.125 -3 11 C-2.67 10.01 -2.34 9.02 -2 8 C0.64 8.33 3.28 8.66 6 9 C5.1875 6.5625 5.1875 6.5625 4 4 C3.01 3.67 2.02 3.34 1 3 C1.33 2.34 1.66 1.68 2 1 C1.34 0.67 0.68 0.34 0 0 Z " fill="#7C837F" transform="translate(35,28)" />
<path d="M0 0 C1.32 0 2.64 0 4 0 C4 0.99 4 1.98 4 3 C4.58265625 3.23847656 5.1653125 3.47695313 5.765625 3.72265625 C8.46049904 5.26325732 9.86316352 6.98219356 11.75 9.4375 C12.36359375 10.21996094 12.9771875 11.00242187 13.609375 11.80859375 C15 14 15 14 15 17 C8.25 16.25 8.25 16.25 6 14 C6.99 14.165 6.99 14.165 12 15 C8.68398435 10.30515998 5.58056101 6.53357564 1 3 C0.67 2.01 0.34 1.02 0 0 Z " fill="#404136" transform="translate(68,53)" />
<path d="M0 0 C0.66 0.33 1.32 0.66 2 1 C1.01 1.33 0.02 1.66 -1 2 C-1.6875 4.0625 -1.6875 4.0625 -2 6 C-3.32 6 -4.64 6 -6 6 C-6.33 6.99 -6.66 7.98 -7 9 C-8.65 9.33 -10.3 9.66 -12 10 C-12.66 9.01 -13.32 8.02 -14 7 C-12.23084525 6.01780373 -10.45961431 5.03934641 -8.6875 4.0625 C-8.19443359 3.78986328 -8.19443359 3.78986328 -5.69921875 2.41015625 C-3 1 -3 1 0 0 Z " fill="#8E9693" transform="translate(76,43)" />
<path d="M0 0 C0.36116409 3.25047681 0.30929204 4.58761061 -1.6875 7.25 C-5.08233762 9.8190663 -7.82612134 10 -12 10 C-12 9.34 -12 8.68 -12 8 C-11.01 7.67 -10.02 7.34 -9 7 C-8.67 6.34 -8.34 5.68 -8 5 C-7.34 4.855625 -6.68 4.71125 -6 4.5625 C-5.34 4.376875 -4.68 4.19125 -4 4 C-3.67 3.01 -3.34 2.02 -3 1 C-1 0 -1 0 0 0 Z " fill="#4F534E" transform="translate(78,44)" />
<path d="M0 0 C2.4375 0.8125 2.4375 0.8125 5 2 C5.33 2.99 5.66 3.98 6 5 C6.5465625 5.144375 6.5465625 5.144375 9.3125 5.875 C13.48350908 7.14751124 14.65038381 8.42858339 17 12 C9.44064657 10.32014368 4.90670989 6.96292264 0 1 C0 0.67 0 0.34 0 0 Z " fill="#A6AFAB" transform="translate(60,55)" />
<path d="M0 0 C0 3 0 3 -1 5 C-0.01 5.33 0.98 5.66 2 6 C1.01 6 0.02 6 -1 6 C-0.67 7.98 -0.34 9.96 0 12 C-0.5775 11.649375 -1.155 11.29875 -1.75 10.9375 C-4.35801776 9.85082593 -5.39417629 10.06934867 -8 11 C-3.8 1.9 -3.8 1.9 0 0 Z " fill="#575F5D" transform="translate(49,36)" />
<path d="M0 0 C0.33 0.99 0.66 1.98 1 3 C-1.65308425 6.63851555 -4.23172413 9.48781609 -8 12 C-8.66 11.67 -9.32 11.34 -10 11 C-8.71284028 9.35063952 -7.42012981 7.70560953 -6.125 6.0625 C-5.76535156 5.60423828 -5.76535156 5.60423828 -3.9453125 3.28515625 C-2 1 -2 1 0 0 Z " fill="#5A6663" transform="translate(32,59)" />
<path d="M0 0 C2.8125 -0.25 2.8125 -0.25 6 0 C7.9375 1.8125 7.9375 1.8125 9 4 C8.67 4.99 8.34 5.98 8 7 C7.01 6.34 6.02 5.68 5 5 C2.3125 4.875 2.3125 4.875 0 5 C0 3.35 0 1.7 0 0 Z " fill="#A6AEAC" transform="translate(36,63)" />
<path d="M0 0 C1.32 0.33 2.64 0.66 4 1 C3.34 1 2.68 1 2 1 C0.47700477 3.93720508 -0.80100302 6.9168649 -2 10 C-2.99 10 -3.98 10 -5 10 C-5 4.69520066 -3.4637943 3.81017373 0 0 Z " fill="#CAD4D3" transform="translate(52,24)" />
<path d="M0 0 C0.66 0 1.32 0 2 0 C1.37606349 3.76119476 -0.34773715 6.18960042 -2.5625 9.25 C-3.20316406 10.14203125 -3.84382813 11.0340625 -4.50390625 11.953125 C-4.99761719 12.62859375 -5.49132812 13.3040625 -6 14 C-7 11 -7 11 -6.25 9 C-5.00782219 7.01251551 -3.64896479 5.64896479 -2 4 C-0.8125 1.8125 -0.8125 1.8125 0 0 Z " fill="#D7E1DF" transform="translate(27,59)" />
<path d="M0 0 C1 2 1 2 0.51171875 4.12890625 C0.23972656 4.93199219 -0.03226563 5.73507813 -0.3125 6.5625 C-0.57675781 7.36816406 -0.84101562 8.17382812 -1.11328125 9.00390625 C-2 11 -2 11 -4 12 C-4 11.01 -4 10.02 -4 9 C-4.66 9.33 -4.66 9.33 -8 11 C-7.59007813 10.45730469 -7.18015625 9.91460937 -6.7578125 9.35546875 C-6.21898438 8.64003906 -5.68015625 7.92460938 -5.125 7.1875 C-4.59132812 6.47980469 -4.05765625 5.77210937 -3.5078125 5.04296875 C-2.29185219 3.39543703 -1.13583859 1.70375789 0 0 Z " fill="#B9C0BE" transform="translate(37,43)" />
<path d="M0 0 C-1.34710422 4.04131267 -3.38428334 4.90288434 -7 7 C-7.99 7 -8.98 7 -10 7 C-8.2054392 2.26888516 -5.07937287 0 0 0 Z " fill="#B0B8B5" transform="translate(55,58)" />
<path d="M0 0 C2.25 0.125 2.25 0.125 5 1 C7.3125 4.0625 7.3125 4.0625 9 7 C5.625 6.3125 5.625 6.3125 2 5 C0.5625 2.375 0.5625 2.375 0 0 Z " fill="#E2ECEB" transform="translate(61,52)" />
<path d="M0 0 C3 0 3 0 5.1875 2 C5.785625 2.66 6.38375 3.32 7 4 C5.84826645 6.46800047 4.95216435 8.04783565 3 10 C2.01 9.67 1.02 9.34 0 9 C1.32 7.68 2.64 6.36 4 5 C3.67 4.773125 3.67 4.773125 2 3.625 C1.34 3.08875 0.68 2.5525 0 2 C0 1.34 0 0.68 0 0 Z " fill="#3D4036" transform="translate(49,49)" />
<path d="M0 0 C0.66 0 1.32 0 2 0 C2 0.66 2 1.32 2 2 C2.61875 2.309375 3.2375 2.61875 3.875 2.9375 C5.25 3.625 6.625 4.3125 8 5 C7.67 3.68 7.34 2.36 7 1 C8.32 2.32 9.64 3.64 11 5 C10.67 5.99 10.34 6.98 10 8 C5.56983933 6.60766379 3.08449737 4.43701135 0 1 C0 0.67 0 0.34 0 0 Z " fill="#C2CBCD" transform="translate(52,47)" />
<path d="M0 0 C3.88433735 3.50843373 3.88433735 3.50843373 4.5 6.125 C4.665 6.74375 4.83 7.3625 5 8 C7 9.125 7 9.125 9 10 C9.33 10.66 9.66 11.32 10 12 C7.5625 11.1875 7.5625 11.1875 5 10 C4.67 9.01 4.34 8.02 4 7 C3.01 7 2.02 7 1 7 C0.67 4.69 0.34 2.38 0 0 Z " fill="#909A97" transform="translate(48,42)" />
<path d="M0 0 C0.33 0 0.66 0 1 0 C1.32644414 4.16216275 1.40650982 6.36313462 -0.875 9.9375 C-3 12 -3 12 -5 12 C-5.144375 11.21625 -5.28875 10.4325 -5.4375 9.625 C-6 7 -6 7 -7 5 C-6.175 5.33 -6.175 5.33 -2 7 C-1.34 4.69 -0.68 2.38 0 0 Z " fill="#36382F" transform="translate(47,23)" />
<path d="M0 0 C0.99 0 1.98 0 3 0 C3.66 2.97 4.32 5.94 5 9 C3.68 8.67 2.36 8.34 1 8 C-0.3125 5.0625 -0.3125 5.0625 -1 2 C-0.67 1.34 -0.34 0.68 0 0 Z " fill="#7D8586" transform="translate(38,70)" />
<path d="M0 0 C1.32 0 2.64 0 4 0 C3.875 2.3125 3.875 2.3125 3 5 C-0.0625 6.8125 -0.0625 6.8125 -3 8 C-2.0022242 5.00667261 -1.2477975 4.05233685 1 2 C0.34 1.67 -0.32 1.34 -1 1 C-0.67 0.67 -0.34 0.34 0 0 Z " fill="#909A96" transform="translate(54,56)" />
<path d="M0 0 C0.09152344 0.60328125 0.18304688 1.2065625 0.27734375 1.828125 C1.17720492 4.53257263 2.20702019 5.2082314 4.5625 6.75 C5.20316406 7.17796875 5.84382813 7.6059375 6.50390625 8.046875 C6.99761719 8.36140625 7.49132813 8.6759375 8 9 C7.01 9.33 6.02 9.66 5 10 C3.2925002 8.71937515 1.62626404 7.38232443 0 6 C-0.99 5.67 -1.98 5.34 -3 5 C-1.125 1.125 -1.125 1.125 0 0 Z " fill="#343832" transform="translate(51,36)" />
<path d="M0 0 C0.68359375 1.734375 0.68359375 1.734375 1 4 C-0.21484375 6.140625 -0.21484375 6.140625 -1.9375 8.25 C-2.50339844 8.95640625 -3.06929687 9.6628125 -3.65234375 10.390625 C-3.87470703 10.65617187 -3.87470703 10.65617187 -5 12 C-5.66 11.67 -6.32 11.34 -7 11 C-6.67 10.34 -6.34 9.68 -6 9 C-5.34 9 -4.68 9 -4 9 C-3.71125 8.2575 -3.4225 7.515 -3.125 6.75 C-2.17697356 4.43260203 -1.15154089 2.22082885 0 0 Z " fill="#59615C" transform="translate(40,47)" />
<path d="M0 0 C0.99 0.99 1.98 1.98 3 3 C0 5 0 5 -2 4.8125 C-4.24469451 3.90059285 -5.42203265 2.81466246 -7 1 C-6.01 1.165 -6.01 1.165 -1 2 C-0.67 1.34 -0.34 0.68 0 0 Z " fill="#484B40" transform="translate(64,45)" />
<path d="M0 0 C2.31 0 4.62 0 7 0 C10.07692308 5.29230769 10.07692308 5.29230769 9.6875 8.875 C9.460625 9.57625 9.23375 10.2775 9 11 C8.67 11 8.34 11 8 11 C7.979375 9.906875 7.95875 8.81375 7.9375 7.6875 C7 4 7 4 5.375 2.8671875 C3.4375 2.0625 3.4375 2.0625 0 1 C0 0.67 0 0.34 0 0 Z " fill="#434436" transform="translate(52,18)" />
<path d="M0 0 C0 3.19610552 -0.54671542 4.41717626 -2 7.1875 C-2.37125 7.90292969 -2.7425 8.61835937 -3.125 9.35546875 C-3.269375 9.62681641 -3.269375 9.62681641 -4 11 C-4.66 10.67 -5.32 10.34 -6 10 C-5.38003922 8.70590711 -4.75383647 7.41480327 -4.125 6.125 C-3.77695312 5.40570313 -3.42890625 4.68640625 -3.0703125 3.9453125 C-2 2 -2 2 0 0 Z " fill="#C1CAC2" transform="translate(28,55)" />
<path d="M0 0 C0.99 0.33 1.98 0.66 3 1 C2.6875 3.375 2.6875 3.375 2 6 C1.505 6.33 1.505 6.33 -1 8 C-1.04241723 5.66705225 -1.04092937 3.33297433 -1 1 C-0.67 0.67 -0.34 0.34 0 0 Z " fill="#8E9A96" transform="translate(50,20)" />
<path d="M0 0 C3.98381075 2.16264012 6.88983545 4.71211176 10 8 C9.67 8.66 9.34 9.32 9 10 C7.49410612 8.71520959 5.99542625 7.42195918 4.5 6.125 C4.08234375 5.76535156 4.08234375 5.76535156 1.96875 3.9453125 C1.3190625 3.30335937 0.669375 2.66140625 0 2 C0 1.34 0 0.68 0 0 Z " fill="#969E97" transform="translate(68,55)" />
<path d="M0 0 C0.66 0.33 1.32 0.66 2 1 C2 3.64 2 6.28 2 9 C0.68 9.33 -0.64 9.66 -2 10 C-1.67 9.278125 -1.34 8.55625 -1 7.8125 C0.00603529 4.98302573 0.16977402 2.97104534 0 0 Z " fill="#858D88" transform="translate(58,21)" />
<path d="M0 0 C1.15941038 3.47823115 0.70820884 5.45895578 0 9 C-0.33 9 -0.66 9 -1 9 C-1 7.35 -1 5.7 -1 4 C-1.66 4.33 -1.66 4.33 -5 6 C-3.63016497 2.83884224 -3.0109362 2.0072908 0 0 Z " fill="#2C342A" transform="translate(33,63)" />
<path d="M0 0 C1.155 0.495 1.155 0.495 7 3 C6.67 3.66 6.34 4.32 6 5 C3.69 4.34 1.38 3.68 -1 3 C-0.67 2.01 -0.34 1.02 0 0 Z " fill="#596161" transform="translate(33,36)" />
<path d="M0 0 C0.99 0.33 1.98 0.66 3 1 C2.01 1.66 1.02 2.32 0 3 C-0.36442233 4.66014616 -0.69972883 6.32706064 -1 8 C-1.33 8.165 -1.33 8.165 -3 9 C-3.36923077 3.46153846 -3.36923077 3.46153846 -1.5 1.125 C-1.005 0.75375 -0.51 0.3825 0 0 Z " fill="#AEB7B5" transform="translate(34,29)" />
<path d="M0 0 C1.0625 1.875 1.0625 1.875 2 4 C1.67 4.66 1.34 5.32 1 6 C-1.5625 6.625 -1.5625 6.625 -4 7 C-2.68 4.69 -1.36 2.38 0 0 Z " fill="#64604E" transform="translate(39,55)" />
<path d="M0 0 C0.99 0.33 1.98 0.66 3 1 C1.68 3.31 0.36 5.62 -1 8 C-1.66 7.01 -2.32 6.02 -3 5 C-2.01 3.35 -1.02 1.7 0 0 Z " fill="#CCD5D0" transform="translate(45,33)" />
<path d="M0 0 C0.66 0 1.32 0 2 0 C2 1.98 2 3.96 2 6 C1.34 6 0.68 6 0 6 C-0.33 6.66 -0.66 7.32 -1 8 C-1.125 2.25 -1.125 2.25 0 0 Z " fill="#67706F" transform="translate(34,64)" />
<path d="M0 0 C1.875 0.3125 1.875 0.3125 4 1 C4.66 1.99 5.32 2.98 6 4 C5.67 4.165 5.67 4.165 4 5 C1.875 4.0625 1.875 4.0625 0 3 C0 2.01 0 1.02 0 0 Z " fill="#CAD4D6" transform="translate(36,33)" />
<path d="M0 0 C2.9375 0.75 2.9375 0.75 6 2 C6.875 4.125 6.875 4.125 7 6 C4.12549673 4.71142957 2.07476576 3.38598062 0 1 C0 0.67 0 0.34 0 0 Z " fill="#E5EDEE" transform="translate(53,46)" />
<path d="M0 0 C0.99 0.33 1.98 0.66 3 1 C2.67 2.32 2.34 3.64 2 5 C1.01 5 0.02 5 -1 5 C-1 1 -1 1 0 0 Z " fill="#B7BCBA" transform="translate(48,29)" />
<path d="M0 0 C0.66 0 1.32 0 2 0 C1.67 1.32 1.34 2.64 1 4 C1.66 4.33 2.32 4.66 3 5 C1.02 5.33 -0.96 5.66 -3 6 C-2.67 4.68 -2.34 3.36 -2 2 C-1.34 2 -0.68 2 0 2 C0 1.34 0 0.68 0 0 Z " fill="#4F5E5E" transform="translate(55,27)" />
</svg>