<?xml version='1.0' encoding='utf-8'?>
<svg xmlns="http://www.w3.org/2000/svg" version="1.1" width="88" height="91">
<path d="M0 0 C3.93846154 3.32307692 3.93846154 3.32307692 4.25 6.75 C4.1675 7.4925 4.085 8.235 4 9 C3.34 9 2.68 9 2 9 C2 9.66 2 10.32 2 11 C1.01 11.66 0.02 12.32 -1 13 C-1.33 13.99 -1.66 14.98 -2 16 C-2.495 16.45375 -2.99 16.9075 -3.5 17.375 C-5.43309736 19.46918881 -5.62452796 21.22150692 -6 24 C-6.66 24 -7.32 24 -8 24 C-8.226875 25.03125 -8.45375 26.0625 -8.6875 27.125 C-9.88861035 31.36777109 -11.93564546 33.8590366 -15 37 C-15.66 37 -16.32 37 -17 37 C-17.33 39.31 -17.66 41.62 -18 44 C-20.5200456 44.92653 -21.72988175 45.08818098 -24.31835938 44.24316406 C-25.15173828 43.83807617 -25.98511719 43.43298828 -26.84375 43.015625 C-27.76027344 42.57476562 -28.67679688 42.13390625 -29.62109375 41.6796875 C-30.57113281 41.20789063 -31.52117188 40.73609375 -32.5 40.25 C-33.45003906 39.79367188 -34.40007813 39.33734375 -35.37890625 38.8671875 C-43.70316114 34.81628428 -43.70316114 34.81628428 -47 32 C-47.9327132 26.08893008 -45.2918218 19.80144708 -42 15 C-38.29574657 10.7818617 -34.33808357 9.40766423 -29 8 C-28.37480469 7.82919922 -28.37480469 7.82919922 -25.2109375 6.96484375 C-24.57800781 6.79533203 -24.57800781 6.79533203 -21.375 5.9375 C-20.10398437 5.59589844 -18.83296875 5.25429688 -17.5234375 4.90234375 C-14.68623885 4.17574409 -11.87429731 3.55050101 -9 3 C-1.23853211 1.23853211 -1.23853211 1.23853211 0 0 Z " fill="#8C9194" transform="translate(64,29)" />
<path d="M0 0 C0 3.93712227 -1.18504159 4.57334782 -3.875 7.375 C-20.10348495 25.04601695 -20.10348495 25.04601695 -20.1328125 34.26953125 C-20.08898437 34.84058594 -20.04515625 35.41164062 -20 36 C-20.33 36 -20.66 36 -21 36 C-21.0825 35.3915625 -21.0825 35.3915625 -21.5 32.3125 C-22.39522143 28.79952765 -23.35915289 27.29503245 -26.4375 25.375 C-27.94639435 24.56080839 -29.46892043 23.7716641 -31 23 C-33.00126208 21.89812246 -35.00124027 20.79391022 -37 19.6875 C-38.66534383 18.78920992 -40.33154605 17.89250018 -42 17 C-40.41817057 13.64292968 -39.24197466 11.92766061 -36 10 C-33.67698431 9.29822584 -31.34152572 8.63729599 -29 8 C-27.74960937 7.65839844 -26.49921875 7.31679688 -25.2109375 6.96484375 C-24.57800781 6.79533203 -24.57800781 6.79533203 -21.375 5.9375 C-20.10398437 5.59589844 -18.83296875 5.25429688 -17.5234375 4.90234375 C-14.68623885 4.17574409 -11.87429731 3.55050101 -9 3 C-1.23853211 1.23853211 -1.23853211 1.23853211 0 0 Z " fill="#F3F6F4" transform="translate(64,29)" />
<path d="M0 0 C4.05091986 1.2055701 8.03360275 2.54109526 12 4 C11.04665052 8.92389294 8.16554902 11.53301518 4.0625 14.3125 C1.3232407 15.22558643 -1.13506519 15.13022431 -4 15 C-4.33 15.66 -4.66 16.32 -5 17 C-7.12946873 17.23660764 -9.26010216 17.46570846 -11.39453125 17.65234375 C-14.95176202 18.12699673 -18.21599161 19.20883325 -21.625 20.30078125 C-24.74695443 21.21990928 -27.76911599 21.64881696 -31 22 C-29.83593677 20.83593677 -28.67129061 19.67245135 -27.50390625 18.51171875 C-26.4596661 17.46205398 -25.42652024 16.40128152 -24.40234375 15.33203125 C-22.97138652 13.85185191 -21.48847779 12.42232322 -20 11 C-19.34 11 -18.68 11 -18 11 C-17.67 10.01 -17.34 9.02 -17 8 C-12.00469027 2.99512071 -7.37812967 -1.52650959 0 0 Z " fill="#9EA5A7" transform="translate(59,17)" />
<path d="M0 0 C2.68596407 2.68596407 3.2445732 5.32016639 3.5625 9 C3.45455229 15.11376577 0.06207412 18.7587177 -3.66845703 23.33837891 C-6.26221926 26.57511263 -8.70865094 29.92504225 -11.1875 33.25 C-12.65758474 35.20021423 -14.12800778 37.15017091 -15.59912109 39.09960938 C-17.02399175 41.0325465 -18.37971609 43.00448143 -19.73828125 44.984375 C-20.48464844 45.97953125 -21.23101562 46.9746875 -22 48 C-22.66 48 -23.32 48 -24 48 C-24.33 48.66 -24.66 49.32 -25 50 C-24.61592703 44.49495413 -22.85484281 42.76519531 -19 39 C-17.48935025 36.40962302 -16.21669431 33.73926148 -15 31 C-14.34 31 -13.68 31 -13 31 C-13 29.02 -13 27.04 -13 25 C-12.360625 24.7525 -11.72125 24.505 -11.0625 24.25 C-9 23 -9 23 -8.4375 20.9375 C-8.293125 20.298125 -8.14875 19.65875 -8 19 C-7.01 18.67 -6.02 18.34 -5 18 C-5 17.34 -5 16.68 -5 16 C-4.34 16 -3.68 16 -3 16 C-3.33 15.071875 -3.66 14.14375 -4 13.1875 C-5 10 -5 10 -5 7 C-3.90625 5.17578125 -3.90625 5.17578125 -2.5 3.3125 C-2.26796875 3.00119141 -2.26796875 3.00119141 -1.09375 1.42578125 C-0.7328125 0.95527344 -0.371875 0.48476563 0 0 Z " fill="#687077" transform="translate(71,22)" />
<path d="M0 0 C0.33 2.31 0.66 4.62 1 7 C0.34 7 -0.32 7 -1 7 C-1 7.66 -1 8.32 -1 9 C-1.99 9.66 -2.98 10.32 -4 11 C-4.33 11.99 -4.66 12.98 -5 14 C-5.495 14.45375 -5.99 14.9075 -6.5 15.375 C-8.43309736 17.46918881 -8.62452796 19.22150692 -9 22 C-9.66 22 -10.32 22 -11 22 C-11.226875 23.03125 -11.45375 24.0625 -11.6875 25.125 C-12.88861035 29.36777109 -14.93564546 31.8590366 -18 35 C-18.66 35 -19.32 35 -20 35 C-20.33 37.31 -20.66 39.62 -21 42 C-21.33 42 -21.66 42 -22 42 C-23.22648641 27.50361198 -23.22648641 27.50361198 -20.25390625 23.859375 C-18.19823274 22.64282668 -16.25643634 21.76804704 -14 21 C-13.67 20.67 -13.34 20.34 -13 20 C-13.020625 19.5565625 -13.020625 19.5565625 -13.125 17.3125 C-12.87311976 10.63767362 -8.87769175 6.40940218 -4.71875 1.5390625 C-3 0 -3 0 0 0 Z " fill="#71797D" transform="translate(67,31)" />
<path d="M0 0 C0.75152344 0.20367187 1.50304687 0.40734375 2.27734375 0.6171875 C3.34855469 0.90335938 4.41976562 1.18953125 5.5234375 1.484375 C15.49088579 4.70684992 15.49088579 4.70684992 18.08984375 9.4296875 C19.71054891 13.28811756 20.00975856 17.51686903 19.27734375 21.6171875 C17.77541323 24.70795496 15.80509613 27.337081 13.71484375 30.0546875 C13.16852295 30.79533447 12.62220215 31.53598145 12.05932617 32.29907227 C10.48571042 34.42153164 8.88792668 36.52269808 7.27734375 38.6171875 C6.89449219 39.11734375 6.89449219 39.11734375 4.95703125 41.6484375 C3.81120872 43.12506235 2.65577766 44.59436578 1.484375 46.05078125 C0.27734375 47.6171875 0.27734375 47.6171875 -0.72265625 49.6171875 C-1.38265625 49.6171875 -2.04265625 49.6171875 -2.72265625 49.6171875 C-2.94953125 50.1534375 -3.17640625 50.6896875 -3.41015625 51.2421875 C-5.15647681 54.40219613 -7.36294115 56.8848858 -9.72265625 59.6171875 C-10.38265625 59.2871875 -11.04265625 58.9571875 -11.72265625 58.6171875 C-11.06265625 57.6271875 -10.40265625 56.6371875 -9.72265625 55.6171875 C-9.06265625 55.6171875 -8.40265625 55.6171875 -7.72265625 55.6171875 C-7.47386719 55.06675781 -7.22507812 54.51632813 -6.96875 53.94921875 C-5.48340052 51.16942678 -3.70057665 48.80893515 -1.78515625 46.3046875 C1.92263802 41.4171405 5.5883345 36.50287928 9.21484375 31.5546875 C9.68720459 30.91168701 10.15956543 30.26868652 10.64624023 29.60620117 C16.55668615 21.54084934 16.55668615 21.54084934 16.52734375 17.2421875 C16.5325 16.49195313 16.53765625 15.74171875 16.54296875 14.96875 C16.21870776 12.09808656 15.71287853 10.14088275 14.27734375 7.6171875 C8.80983519 4.72164807 1.35893146 2.26572356 -4.72265625 3.6171875 C-10.28923805 7.27245878 -15.1545825 11.78808097 -19.72265625 16.6171875 C-21.35102363 18.3212929 -23.01035377 19.99744191 -24.72265625 21.6171875 C-25.38265625 21.6171875 -26.04265625 21.6171875 -26.72265625 21.6171875 C-25.46722201 17.85088479 -23.83576762 17.02277356 -20.72265625 14.6171875 C-20.00078125 13.8953125 -19.27890625 13.1734375 -18.53515625 12.4296875 C-17.60703125 11.5015625 -16.67890625 10.5734375 -15.72265625 9.6171875 C-14.97757813 8.85148437 -14.2325 8.08578125 -13.46484375 7.296875 C-5.25756865 -0.70961049 -5.25756865 -0.70961049 0 0 Z " fill="#3D3F38" transform="translate(56.72265625,14.3828125)" />
<path d="M0 0 C0 3 0 3 -2.5 5.6875 C-3.325 6.450625 -4.15 7.21375 -5 8 C-5.99 7.67 -6.98 7.34 -8 7 C-11.82547615 7.51695624 -15.36355478 8.7314726 -19 10 C-19 10.66 -19 11.32 -19 12 C-21.64 12.99 -24.28 13.98 -27 15 C-27 14.34 -27 13.68 -27 13 C-27.99 13.33 -28.98 13.66 -30 14 C-30 14.66 -30 15.32 -30 16 C-32.76276177 15.47731534 -35.3260876 14.89130413 -38 14 C-38.99 14 -39.98 14 -41 14 C-37.14404856 10.4945896 -33.99893369 9.31279927 -29 8 C-27.74960937 7.65839844 -26.49921875 7.31679688 -25.2109375 6.96484375 C-24.57800781 6.79533203 -24.57800781 6.79533203 -21.375 5.9375 C-20.10398437 5.59589844 -18.83296875 5.25429688 -17.5234375 4.90234375 C-14.68623885 4.17574409 -11.87429731 3.55050101 -9 3 C-1.23853211 1.23853211 -1.23853211 1.23853211 0 0 Z " fill="#D9DEDB" transform="translate(64,29)" />
<path d="M0 0 C3.4375 1 3.4375 1 6 2 C5.34 2.66 4.68 3.32 4 4 C2.68 4 1.36 4 0 4 C0 4.66 0 5.32 0 6 C-1.32 6 -2.64 6 -4 6 C-4 6.66 -4 7.32 -4 8 C-6.64 8.33 -9.28 8.66 -12 9 C-12.33 9.99 -12.66 10.98 -13 12 C-16.57331341 13.7529462 -20.08846628 15.21769326 -24 16 C-22.71937515 14.2925002 -21.38232443 12.62626404 -20 11 C-19.34 11 -18.68 11 -18 11 C-17.67 10.01 -17.34 9.02 -17 8 C-12.00256246 2.99298882 -7.42448862 -1.42778627 0 0 Z " fill="#7A8385" transform="translate(59,17)" />
<path d="M0 0 C0.66 0 1.32 0 2 0 C0.25019236 4.08288449 -2.1816175 6.787745 -5.875 9.25 C-8.64625245 10.2280891 -11.08516757 10.13249238 -14 10 C-14.33 10.66 -14.66 11.32 -15 12 C-17.12689387 12.23632154 -19.2549222 12.46534405 -21.38671875 12.65234375 C-24.94905073 13.12625638 -28.23244822 14.16746674 -31.640625 15.28125 C-34.07617629 16.02320602 -36.4975644 16.53855797 -39 17 C-36.47463555 13.21195332 -34.15839211 12.67794769 -30 11 C-29.01 10.34 -28.02 9.68 -27 9 C-24.94140625 8.47265625 -24.94140625 8.47265625 -22.5625 8.0625 C-18.55224605 7.31462591 -14.58896777 6.46551969 -10.625 5.5 C-9.64789063 5.2628125 -8.67078125 5.025625 -7.6640625 4.78125 C-5.22368838 4.06559777 -3.17509344 3.31101522 -1 2 C-0.67 1.34 -0.34 0.68 0 0 Z " fill="#B2B8BA" transform="translate(69,22)" />
<path d="M0 0 C0.66 0.66 1.32 1.32 2 2 C-2.31867092 8.92170545 -7.2545806 15.34900296 -12.2409668 21.79467773 C-12.78148682 22.49407471 -13.32200684 23.19347168 -13.87890625 23.9140625 C-14.40500488 24.5937207 -14.93110352 25.27337891 -15.47314453 25.97363281 C-16.96596232 27.95482687 -18.37422169 29.97813902 -19.77734375 32.0234375 C-20.51082031 33.00570312 -21.24429688 33.98796875 -22 35 C-22.66 35 -23.32 35 -24 35 C-24.33 35.66 -24.66 36.32 -25 37 C-24.61592703 31.49495413 -22.85484281 29.76519531 -19 26 C-17.48935025 23.40962302 -16.21669431 20.73926148 -15 18 C-14.34 18 -13.68 18 -13 18 C-12.731875 17.195625 -12.46375 16.39125 -12.1875 15.5625 C-11.795625 14.716875 -11.40375 13.87125 -11 13 C-10.01 12.67 -9.02 12.34 -8 12 C-7.0078125 10.203125 -7.0078125 10.203125 -6 8 C-4.98739559 6.56241654 -3.94487352 5.1454872 -2.875 3.75 C-2.33617188 3.04359375 -1.79734375 2.3371875 -1.2421875 1.609375 C-0.83226563 1.07828125 -0.42234375 0.5471875 0 0 Z " fill="#585F62" transform="translate(71,35)" />
<path d="M0 0 C0.33 2.31 0.66 4.62 1 7 C0.34 7 -0.32 7 -1 7 C-1 7.66 -1 8.32 -1 9 C-1.99 9.66 -2.98 10.32 -4 11 C-4.33 11.99 -4.66 12.98 -5 14 C-8.5625 15.6875 -8.5625 15.6875 -12 17 C-13 14 -13 14 -12 11.3125 C-5.16981132 0 -5.16981132 0 0 0 Z " fill="#7C8385" transform="translate(67,31)" />
<path d="M0 0 C2 3 2 3 2 6 C2.66 5.34 3.32 4.68 4 4 C4.33 4.99 4.66 5.98 5 7 C4.67 7.33 4.34 7.66 4 8 C5.89353366 9.89353366 7.84526801 11.4198632 10 13 C10.33 12.01 10.66 11.02 11 10 C11 10.66 11 11.32 11 12 C11.66 12 12.32 12 13 12 C13 12.66 13 13.32 13 14 C13.556875 14.12375 14.11375 14.2475 14.6875 14.375 C17.22114364 15.05976855 19.57921032 15.99133763 22 17 C22 17.99 22 18.98 22 20 C23.65 20.33 25.3 20.66 27 21 C23.3093428 22.23021907 22.66254482 21.66214577 19.25390625 20.015625 C18.33416016 19.57476562 17.41441406 19.13390625 16.46679688 18.6796875 C15.50837891 18.20789063 14.54996094 17.73609375 13.5625 17.25 C12.60794922 16.79367188 11.65339844 16.33734375 10.66992188 15.8671875 C2.15190603 11.74229809 2.15190603 11.74229809 -1 9 C-1.171875 6.73828125 -1.171875 6.73828125 -0.75 4.3125 C-0.68554688 3.90837891 -0.68554688 3.90837891 -0.359375 1.86328125 C-0.30007812 1.55583984 -0.30007812 1.55583984 0 0 Z " fill="#797D7D" transform="translate(18,52)" />
<path d="M0 0 C0.66 0.33 1.32 0.66 2 1 C0.47987323 6.40489519 -3.27385218 9.98492628 -7 14 C-11.875 11.375 -11.875 11.375 -13 8 C-10.18847304 4.77195053 -8.32145242 3.3411673 -4 3 C-3.34 3.33 -2.68 3.66 -2 4 C-1.34 2.68 -0.68 1.36 0 0 Z " fill="#F7FAF4" transform="translate(54,38)" />
<path d="M0 0 C0 0.66 0 1.32 0 2 C-1.56116819 2.33951619 -3.12401338 2.67132544 -4.6875 3 C-5.12255859 3.0928125 -5.12255859 3.0928125 -7.32421875 3.5625 C-9.93712964 3.98972047 -12.35813038 4.07616201 -15 4 C-15 4.66 -15 5.32 -15 6 C-15.66 6 -16.32 6 -17 6 C-17 6.66 -17 7.32 -17 8 C-18.50842356 9.88552944 -19.70445074 10.87605999 -21.9375 11.8125 C-24.54101444 12.04918313 -25.74017934 11.23925649 -28 10 C-28.99 10 -29.98 10 -31 10 C-27.14324658 6.49386053 -23.99854112 5.3164882 -19 4 C-17.73800781 3.64679687 -16.47601563 3.29359375 -15.17578125 2.9296875 C-13.88820197 2.57746217 -12.60044054 2.22590206 -11.3125 1.875 C-10.66216797 1.69324219 -10.01183594 1.51148438 -9.34179688 1.32421875 C-6.05819322 0.43386343 -3.43806471 0 0 0 Z " fill="#CFD3D2" transform="translate(54,33)" />
<path d="M0 0 C0.99 0.33 1.98 0.66 3 1 C2.34 2.32 1.68 3.64 1 5 C0.01 4.67 -0.98 4.34 -2 4 C-2.33 4.495 -2.33 4.495 -4 7 C-4.5465625 7.0721875 -4.5465625 7.0721875 -7.3125 7.4375 C-11.40748677 8.062159 -13.02870846 9.20878674 -16 12 C-16.66 11.67 -17.32 11.34 -18 11 C-17.8125 9.125 -17.8125 9.125 -17 7 C-15.35448038 6.28272222 -13.68577711 5.61674772 -12 5 C-11.34 4.01 -10.68 3.02 -10 2 C-7.87109375 1.5234375 -7.87109375 1.5234375 -5.4375 1.375 C-1.08233276 1.08233276 -1.08233276 1.08233276 0 0 Z " fill="#E9EDE6" transform="translate(56,35)" />
<path d="M0 0 C0.99 0.33 1.98 0.66 3 1 C2.67 2.65 2.34 4.3 2 6 C0.02 6.33 -1.96 6.66 -4 7 C-4 7.66 -4 8.32 -4 9 C-2.68 9.33 -1.36 9.66 0 10 C-0.33 10.165 -0.33 10.165 -2 11 C-4.6015625 9.78515625 -4.6015625 9.78515625 -7.625 8.0625 C-8.62789062 7.49660156 -9.63078125 6.93070313 -10.6640625 6.34765625 C-11.43492188 5.90292969 -12.20578125 5.45820312 -13 5 C-13 4.34 -13 3.68 -13 3 C-9.88228073 1.39660152 -8.60988311 0.81025859 -5.1875 1.875 C-4.465625 2.24625 -3.74375 2.6175 -3 3 C-2.01 2.01 -1.02 1.02 0 0 Z " fill="#EDF1EB" transform="translate(35,41)" />
<path d="M0 0 C1.27208622 0.62244599 2.54261882 1.24806767 3.8125 1.875 C4.52019531 2.22304688 5.22789063 2.57109375 5.95703125 2.9296875 C8 4 8 4 11 6 C11 7.32 11 8.64 11 10 C9.02 9.67 9.02 9.67 -1 8 C-2 4 -2 4 -1.0625 1.75 C-0.711875 1.1725 -0.36125 0.595 0 0 Z " fill="#73777A" transform="translate(21,45)" />
<path d="M0 0 C0.33 0.66 0.66 1.32 1 2 C0.67 2.99 0.34 3.98 0 5 C0.061875 5.804375 0.12375 6.60875 0.1875 7.4375 C0 10 0 10 -1.625 12.1875 C-4.31822075 14.24285267 -6.74825111 15.11315939 -10 16 C-9.52112335 11.23735403 -7.50511358 8.77358348 -4.4375 5.1875 C-4.02435547 4.69958984 -4.02435547 4.69958984 -1.93359375 2.23046875 C-1.29550781 1.49441406 -0.65742187 0.75835937 0 0 Z " fill="#888D8D" transform="translate(55,41)" />
<path d="M0 0 C-0.33 0.165 -0.33 0.165 -2 1 C-2.33 1.99 -2.66 2.98 -3 4 C-8.04151704 7.36101136 -13.11790082 7.66288364 -19 8 C-17 5 -17 5 -14 3 C-12.68 3 -11.36 3 -10 3 C-10 2.34 -10 1.68 -10 1 C-6.1496895 -1.56687367 -4.41430237 -0.83288724 0 0 Z " fill="#A1A6A6" transform="translate(71,21)" />
<path d="M0 0 C0.66 0 1.32 0 2 0 C0.25019236 4.08288449 -2.1816175 6.787745 -5.875 9.25 C-8.64625245 10.2280891 -11.08516757 10.13249238 -14 10 C-14.33 10.66 -14.66 11.32 -15 12 C-17.97 12 -20.94 12 -24 12 C-23.67 11.34 -23.34 10.68 -23 10 C-20.8828125 9.578125 -20.8828125 9.578125 -18.125 9.25 C-11.6792804 8.20383609 -6.38800723 5.65827797 -1 2 C-0.67 1.34 -0.34 0.68 0 0 Z " fill="#BEC3C7" transform="translate(69,22)" />
<path d="M0 0 C3.26460973 1.80412643 4.88929795 2.83394693 7 6 C7.66 4.68 8.32 3.36 9 2 C9.02694851 3.95825873 9.04637218 5.91662226 9.0625 7.875 C9.07410156 8.96554688 9.08570313 10.05609375 9.09765625 11.1796875 C9 14 9 14 8 16 C7.34 16 6.68 16 6 16 C5.30300448 14.54618103 4.61766134 13.08677047 3.9375 11.625 C3.55464844 10.81289063 3.17179687 10.00078125 2.77734375 9.1640625 C2.64908203 8.80699219 2.64908203 8.80699219 2 7 C2.33 6.34 2.66 5.68 3 5 C2.7525 4.773125 2.7525 4.773125 1.5 3.625 C0 2 0 2 0 0 Z " fill="#AFB4B7" transform="translate(36,53)" />
<path d="M0 0 C2.34545328 2.34545328 2.95508888 3.95985838 3.09765625 7.26171875 C3.08605469 8.06222656 3.07445313 8.86273438 3.0625 9.6875 C3.05347656 10.49574219 3.04445313 11.30398437 3.03515625 12.13671875 C3.02355469 12.75160156 3.01195313 13.36648437 3 14 C1.5 12.6875 1.5 12.6875 0 11 C0 10.01 0 9.02 0 8 C-0.66 8 -1.32 8 -2 8 C-2.33 8.66 -2.66 9.32 -3 10 C-3.99 10 -4.98 10 -6 10 C-4.34832443 6.4213696 -2.21713508 3.25179812 0 0 Z " fill="#5E6468" transform="translate(71,22)" />
<path d="M0 0 C0.99 0 1.98 0 3 0 C3.33 2.31 3.66 4.62 4 7 C3.34 7 2.68 7 2 7 C2 7.66 2 8.32 2 9 C1.01 9.33 0.02 9.66 -1 10 C-1.33 9.01 -1.66 8.02 -2 7 C-2.66 6.34 -3.32 5.68 -4 5 C-2.1875 2.5 -2.1875 2.5 0 0 Z " fill="#737B7F" transform="translate(64,31)" />
<path d="M0 0 C0.66 0.66 1.32 1.32 2 2 C0.68 2 -0.64 2 -2 2 C-2 2.66 -2 3.32 -2 4 C-4.48351743 6.48351743 -6.66937119 6.98041975 -10 8 C-10.99 8.33 -11.98 8.66 -13 9 C-13 8.34 -13 7.68 -13 7 C-13.99 6.67 -14.98 6.34 -16 6 C-13.36 5.67 -10.72 5.34 -8 5 C-8 4.34 -8 3.68 -8 3 C-6.68 3 -5.36 3 -4 3 C-4 2.34 -4 1.68 -4 1 C-2.125 0.375 -2.125 0.375 0 0 Z " fill="#949C9B" transform="translate(63,20)" />
<path d="M0 0 C1.65 0.33 3.3 0.66 5 1 C4.67 1.99 4.34 2.98 4 4 C0.42668659 5.7529462 -3.08846628 7.21769326 -7 8 C-5.71937515 6.2925002 -4.38232443 4.62626404 -3 3 C-2.34 3 -1.68 3 -1 3 C-0.67 2.01 -0.34 1.02 0 0 Z " fill="#84898D" transform="translate(42,25)" />
<path d="M0 0 C2.50037734 2.17424117 3.43628586 3.73045798 4 7 C4.66 7 5.32 7 6 7 C6.33 6.34 6.66 5.68 7 5 C7 6.98 7 8.96 7 11 C5.35 10.67 3.7 10.34 2 10 C2 8.02 2 6.04 2 4 C1.34 4 0.68 4 0 4 C0 2.68 0 1.36 0 0 Z " fill="#999EA1" transform="translate(38,62)" />
<path d="M0 0 C0.66 0.66 1.32 1.32 2 2 C1.07544441 3.508013 0.1349253 5.00624917 -0.8125 6.5 C-1.33457031 7.3353125 -1.85664062 8.170625 -2.39453125 9.03125 C-2.92433594 9.6809375 -3.45414062 10.330625 -4 11 C-4.99 11 -5.98 11 -7 11 C-5.22054913 6.95579349 -2.60470327 3.53921513 0 0 Z " fill="#575C5E" transform="translate(71,35)" />
<path d="M0 0 C0.33 1.65 0.66 3.3 1 5 C-1.76276177 4.47731534 -4.3260876 3.89130413 -7 3 C-7.99 3 -8.98 3 -10 3 C-7.29536552 -0.8183075 -4.37912428 -0.24787496 0 0 Z " fill="#DDDEDE" transform="translate(33,40)" />
<path d="M0 0 C3.18666175 0.27953173 4.91798366 0.62000954 7.5625 2.3125 C4.40743858 3.24869813 1.59663498 3.4182123 -1.6875 3.375 C-2.57953125 3.36597656 -3.4715625 3.35695313 -4.390625 3.34765625 C-5.06609375 3.33605469 -5.7415625 3.32445312 -6.4375 3.3125 C-4.13464528 0.65966736 -3.72314367 0.33846761 0 0 Z " fill="#6B7376" transform="translate(55.4375,16.6875)" />
<path d="M0 0 C0 3.93169105 -1.39419615 5.16427228 -4 8 C-4.66 8 -5.32 8 -6 8 C-6.33 8.66 -6.66 9.32 -7 10 C-7.4375 7.8125 -7.4375 7.8125 -7 5 C-4.86004673 3.01558218 -2.49824035 1.4976696 0 0 Z " fill="#636C70" transform="translate(53,58)" />
<path d="M0 0 C-2.38642385 2.38642385 -3.66778384 2.52003049 -6.9375 3.125 C-7.81277344 3.29257812 -8.68804687 3.46015625 -9.58984375 3.6328125 C-12 4 -12 4 -15 4 C-9.98010898 -0.11888494 -6.40141012 -0.51211281 0 0 Z " fill="#BFC4C7" transform="translate(45,34)" />
<path d="M0 0 C-2.93828597 2.50298434 -5.17902761 3.46930939 -9 4 C-6.77642026 0.66463039 -4.04815944 -2.02407972 0 0 Z M-11 4 C-10.34 4.33 -9.68 4.66 -9 5 C-9.66 5.33 -9.66 5.33 -13 7 C-12.34 6.01 -11.68 5.02 -11 4 Z " fill="#A6AAAD" transform="translate(41,32)" />
<path d="M0 0 C0.33 0.66 0.66 1.32 1 2 C1.99 2.33 2.98 2.66 4 3 C1.64046906 5.35953094 0.22104383 5.49141413 -3 6 C-3 3 -3 3 -1.5 1.3125 C-1.2525 1.0959375 -1.2525 1.0959375 0 0 Z " fill="#6C7375" transform="translate(48,20)" />
<path d="M0 0 C0 0.99 0 1.98 0 3 C-1.32 3 -2.64 3 -4 3 C-4 3.66 -4 4.32 -4 5 C-2.68 5.33 -1.36 5.66 0 6 C-0.33 6.165 -0.33 6.165 -2 7 C-4.625 5.75 -4.625 5.75 -7 4 C-7 3.01 -7 2.02 -7 1 C-6.5153125 1.0103125 -6.5153125 1.0103125 -4.0625 1.0625 C-1 1 -1 1 0 0 Z " fill="#E0E5E0" transform="translate(35,45)" />
<path d="M0 0 C-0.66 0.66 -1.32 1.32 -2 2 C-3.32 2 -4.64 2 -6 2 C-6 2.66 -6 3.32 -6 4 C-7.32 4 -8.64 4 -10 4 C-10 3.01 -10 2.02 -10 1 C-6.61981469 -0.04005702 -3.5219721 -0.08004482 0 0 Z " fill="#858C8C" transform="translate(65,19)" />
<path d="M0 0 C0 3 0 3 -2.5 5.6875 C-3.325 6.450625 -4.15 7.21375 -5 8 C-5.66 7.67 -6.32 7.34 -7 7 C-6.67 6.01 -6.34 5.02 -6 4 C-5.01 4 -4.02 4 -3 4 C-3 3.34 -3 2.68 -3 2 C-2.01 1.34 -1.02 0.68 0 0 Z " fill="#DDE2E4" transform="translate(64,29)" />
<path d="M0 0 C2.56687367 3.8503105 1.83288724 5.58569763 1 10 C0.34 9.67 -0.32 9.34 -1 9 C-0.67 6.03 -0.34 3.06 0 0 Z " fill="#6D7275" transform="translate(18,52)" />
<path d="M0 0 C-2.17424117 2.50037734 -3.73045798 3.43628586 -7 4 C-7 3.01 -7 2.02 -7 1 C-4.53721199 -0.231394 -2.7204945 -0.07159196 0 0 Z " fill="#ADAFB4" transform="translate(69,23)" />
<path d="M0 0 C0.66 0.66 1.32 1.32 2 2 C0.35 3.65 -1.3 5.3 -3 7 C-3.33 6.01 -3.66 5.02 -4 4 C-3.34 4 -2.68 4 -2 4 C-2 3.34 -2 2.68 -2 2 C-1.34 2 -0.68 2 0 2 C0 1.34 0 0.68 0 0 Z " fill="#636A70" transform="translate(68,36)" />
</svg>