<?xml version='1.0' encoding='utf-8'?>
<svg xmlns="http://www.w3.org/2000/svg" version="1.1" width="94" height="105">
<path d="M0 0 C2.87793316 1.69536426 5.49066846 3.61467341 8.09765625 5.69921875 C10.29834797 7.38012805 12.59351207 8.76890119 14.9609375 10.203125 C19.13953898 12.97685185 20.86184725 15.29080937 22.1484375 20.265625 C23.03651245 26.77817465 21.47233009 31.84094118 17.8125 37.234375 C13.00406896 43.3328729 6.95235612 46.71026169 0.1484375 50.265625 C-0.25503906 50.47832031 -0.25503906 50.47832031 -2.296875 51.5546875 C-6.75707746 53.84239282 -10.33150566 55.40735852 -15.3515625 55.390625 C-16.125 55.39320312 -16.8984375 55.39578125 -17.6953125 55.3984375 C-19.8515625 55.265625 -19.8515625 55.265625 -22.8515625 54.265625 C-22.8515625 53.605625 -22.8515625 52.945625 -22.8515625 52.265625 C-24.1715625 51.935625 -25.4915625 51.605625 -26.8515625 51.265625 C-26.8515625 50.605625 -26.8515625 49.945625 -26.8515625 49.265625 C-27.5115625 49.265625 -28.1715625 49.265625 -28.8515625 49.265625 C-31.58941383 42.5207817 -32.31705439 36.57250391 -32.2265625 29.328125 C-32.23816406 28.40322266 -32.24976562 27.47832031 -32.26171875 26.52539062 C-32.22428547 17.62250893 -30.56499612 9.32339594 -24.8515625 2.265625 C-17.43332176 -4.42888493 -8.72980673 -4.34958792 0 0 Z " fill="#960A03" transform="translate(49.8515625,31.734375)" />
<path d="M0 0 C0.33 0.33 0.66 0.66 1 1 C2.32 1 3.64 1 5 1 C5.474375 1.804375 5.94875 2.60875 6.4375 3.4375 C8 6 8 6 10.6875 6.8125 C11.450625 6.874375 12.21375 6.93625 13 7 C13 7.66 13 8.32 13 9 C13.66 9 14.32 9 15 9 C18.5111213 11.75873817 19.88059857 13.13433965 20.5 17.625 C20 21 20 21 18.875 22.8125 C14.78002514 25.40598408 10.80427951 26.28260468 6 26 C5.67 27.32 5.34 28.64 5 30 C2.33333333 30 -0.33333333 30 -3 30 C-3 29.01 -3 28.02 -3 27 C-3.99 27 -4.98 27 -6 27 C-6 27.66 -6 28.32 -6 29 C-6.66 29 -7.32 29 -8 29 C-8 29.66 -8 30.32 -8 31 C-6.35 31.33 -4.7 31.66 -3 32 C-3.33 33.98 -3.66 35.96 -4 38 C-4.825 38.165 -4.825 38.165 -9 39 C-8.67 39.99 -8.34 40.98 -8 42 C-8.33 42.165 -8.33 42.165 -10 43 C-10.99 42.34 -11.98 41.68 -13 41 C-13.99 41 -14.98 41 -16 41 C-15.79375 41.763125 -15.5875 42.52625 -15.375 43.3125 C-15 46 -15 46 -17 49 C-21.03525056 44.09168732 -20.40858155 38.83489177 -20.3125 32.8125 C-20.31572266 31.82185547 -20.31894531 30.83121094 -20.32226562 29.81054688 C-20.2557747 20.59248625 -19.6152148 11.58812811 -14 4 C-9.61839281 0.32686163 -5.74779021 -0.57477902 0 0 Z " fill="#C81509" transform="translate(40,31)" />
<path d="M0 0 C0.474375 0.804375 0.94875 1.60875 1.4375 2.4375 C3 5 3 5 5.6875 5.8125 C6.450625 5.874375 7.21375 5.93625 8 6 C8 6.66 8 7.32 8 8 C8.66 8 9.32 8 10 8 C13.5111213 10.75873817 14.88059857 12.13433965 15.5 16.625 C14.96606819 20.22903974 14.8002758 20.90434891 12 23 C7.75960211 24.11168987 3.08672639 24.84897233 -1.0546875 23.1640625 C-2.6875 22.0625 -2.6875 22.0625 -5 20 C-5.33 20.99 -5.66 21.98 -6 23 C-7.65 23 -9.3 23 -11 23 C-11 22.01 -11 21.02 -11 20 C-10.34 19.67 -9.68 19.34 -9 19 C-10.98 18.67 -12.96 18.34 -15 18 C-15 17.01 -15 16.02 -15 15 C-15.66 15 -16.32 15 -17 15 C-17 11.7 -17 8.4 -17 5 C-11.05975239 1.87885295 -6.79221873 0 0 0 Z " fill="#FE908E" transform="translate(45,32)" />
<path d="M0 0 C0.165 0.495 0.165 0.495 1 3 C1.99 3 2.98 3 4 3 C3.67 4.65 3.34 6.3 3 8 C2.34 8 1.68 8 1 8 C1.165 8.825 1.165 8.825 2 13 C0.68 13 -0.64 13 -2 13 C-2 14.32 -2 15.64 -2 17 C-1.01 17.33 -0.02 17.66 1 18 C0.67 19.32 0.34 20.64 0 22 C-2.38564077 21.42415568 -4.66682784 20.77772405 -7 20 C-7 20.66 -7 21.32 -7 22 C-7.66 22 -8.32 22 -9 22 C-9 22.66 -9 23.32 -9 24 C-9.66 24 -10.32 24 -11 24 C-11.66 22.68 -12.32 21.36 -13 20 C-13.391875 20.721875 -13.78375 21.44375 -14.1875 22.1875 C-16.18226967 25.28283224 -18.19874932 27.60868844 -21 30 C-22.32 30 -23.64 30 -25 30 C-25 30.99 -25 31.98 -25 33 C-25.495 33.165 -25.495 33.165 -28 34 C-27.01 34 -26.02 34 -25 34 C-24.67 33.34 -24.34 32.68 -24 32 C-23.01 32 -22.02 32 -21 32 C-20.67 32.99 -20.34 33.98 -20 35 C-21 36 -21 36 -23.72265625 36.09765625 C-24.82480469 36.08605469 -25.92695312 36.07445312 -27.0625 36.0625 C-27.61486328 36.05798828 -27.61486328 36.05798828 -30.41015625 36.03515625 C-31.26480469 36.02355469 -32.11945312 36.01195312 -33 36 C-33 35.34 -33 34.68 -33 34 C-33.99 33.67 -34.98 33.34 -36 33 C-35.979375 32.21625 -35.95875 31.4325 -35.9375 30.625 C-36 28 -36 28 -37 26 C-36.67 25.34 -36.34 24.68 -36 24 C-33.9375 23.375 -33.9375 23.375 -32 23 C-32 23.66 -32 24.32 -32 25 C-31.01 24.67 -30.02 24.34 -29 24 C-29 23.34 -29 22.68 -29 22 C-27.68 21.67 -26.36 21.34 -25 21 C-23.875 16.25 -23.875 16.25 -25 14 C-25.99 14 -26.98 14 -28 14 C-28 13.34 -28 12.68 -28 12 C-27.34 12 -26.68 12 -26 12 C-26 11.34 -26 10.68 -26 10 C-25.01 10 -24.02 10 -23 10 C-22.67 10.66 -22.34 11.32 -22 12 C-21.34 12 -20.68 12 -20 12 C-19.67 11.34 -19.34 10.68 -19 10 C-18.67 10.99 -18.34 11.98 -18 13 C-17.01 12.67 -16.02 12.34 -15 12 C-14.67 11.01 -14.34 10.02 -14 9 C-11.56640625 8.12109375 -11.56640625 8.12109375 -8.5625 7.4375 C-3.2 6.2 -3.2 6.2 -1 4 C-0.375 1.875 -0.375 1.875 0 0 Z " fill="#B11308" transform="translate(60,48)" />
<path d="M0 0 C0.66 0 1.32 0 2 0 C2.99 3.63 3.98 7.26 5 11 C9.62 11 14.24 11 19 11 C18 17 18 17 16 20 C17.98 20.33 19.96 20.66 22 21 C22.165 21.66 22.165 21.66 23 25 C19.34501063 27.43665958 17.82691659 27.36381263 13.609375 26.8125 C9.29852621 25.47019978 6.08311312 22.78515689 2.578125 20.0078125 C-0.98756391 17.2308972 -4.63569574 15.03236058 -8.8125 13.3125 C-9.3384375 13.0959375 -9.3384375 13.0959375 -12 12 C-12 10.02 -12 8.04 -12 6 C-10.68 5.67 -9.36 5.34 -8 5 C-7.67 6.32 -7.34 7.64 -7 9 C-6.34 9 -5.68 9 -5 9 C-4.9175 8.443125 -4.835 7.88625 -4.75 7.3125 C-3.76104459 4.26322081 -2.15242534 2.34810037 0 0 Z " fill="#455B16" transform="translate(53,17)" />
<path d="M0 0 C3.90604537 1.26682552 5.90166803 2.43283565 8 6 C9.97346046 11.0233539 9.46590221 16.46526331 7.9375 21.5 C3.37388759 30.71096084 -4.12515936 35.3624838 -13 40 C-13.40347656 40.21269531 -13.40347656 40.21269531 -15.4453125 41.2890625 C-19.90551496 43.57676782 -23.47994316 45.14173352 -28.5 45.125 C-29.2734375 45.12757812 -30.046875 45.13015625 -30.84375 45.1328125 C-33 45 -33 45 -36 44 C-36 43.34 -36 42.68 -36 42 C-34.02 41.835 -34.02 41.835 -24 41 C-23.67 39.68 -23.34 38.36 -23 37 C-22.34 37 -21.68 37 -21 37 C-20.67 37.66 -20.34 38.32 -20 39 C-19.01 39 -18.02 39 -17 39 C-16.67 37.35 -16.34 35.7 -16 34 C-15.21625 33.9175 -14.4325 33.835 -13.625 33.75 C-11 33 -11 33 -9.6875 30.9375 C-9.460625 30.298125 -9.23375 29.65875 -9 29 C-9 29.66 -9 30.32 -9 31 C-6.36 30.34 -3.72 29.68 -1 29 C-1 28.34 -1 27.68 -1 27 C-0.34 26.67 0.32 26.34 1 26 C2.09771253 21.70894191 1.92311745 18.30788144 1 14 C1.99 14 2.98 14 4 14 C3.54601811 10.91292312 2.84597571 8.69195142 1.4375 5.875 C0 3 0 3 0 0 Z " fill="#862218" transform="translate(63,42)" />
<path d="M0 0 C4.87438001 2.86676666 9.24083662 6.21366297 13.171875 10.27734375 C12.388125 10.07109375 11.604375 9.86484375 10.796875 9.65234375 C9.930625 9.52859375 9.064375 9.40484375 8.171875 9.27734375 C7.511875 9.93734375 6.851875 10.59734375 6.171875 11.27734375 C6.006875 10.78234375 6.006875 10.78234375 5.171875 8.27734375 C4.511875 8.27734375 3.851875 8.27734375 3.171875 8.27734375 C3.171875 7.61734375 3.171875 6.95734375 3.171875 6.27734375 C2.40875 6.33921875 1.645625 6.40109375 0.859375 6.46484375 C-1.828125 6.27734375 -1.828125 6.27734375 -3.640625 4.96484375 C-4.828125 3.27734375 -4.828125 3.27734375 -4.828125 0.27734375 C-6.808125 0.60734375 -8.788125 0.93734375 -10.828125 1.27734375 C-10.828125 0.94734375 -10.828125 0.61734375 -10.828125 0.27734375 C-15.7069879 -0.07114646 -18.74662651 0.52676868 -22.828125 3.27734375 C-29.01348988 11.69631262 -29.18989582 21.90702151 -29.203125 32.02734375 C-29.22761719 33.02894531 -29.25210937 34.03054687 -29.27734375 35.0625 C-29.30137896 41.11136169 -28.90774092 44.69725451 -24.828125 49.27734375 C-24.168125 49.60734375 -23.508125 49.93734375 -22.828125 50.27734375 C-22.828125 50.93734375 -22.828125 51.59734375 -22.828125 52.27734375 C-24.148125 51.94734375 -25.468125 51.61734375 -26.828125 51.27734375 C-26.828125 50.61734375 -26.828125 49.95734375 -26.828125 49.27734375 C-27.488125 49.27734375 -28.148125 49.27734375 -28.828125 49.27734375 C-31.56597633 42.53250045 -32.29361689 36.58422266 -32.203125 29.33984375 C-32.21472656 28.41494141 -32.22632812 27.49003906 -32.23828125 26.53710938 C-32.20084797 17.63422768 -30.54155862 9.33511469 -24.828125 2.27734375 C-17.42156278 -4.40662703 -8.72099761 -4.34503604 0 0 Z " fill="#832313" transform="translate(49.828125,31.72265625)" />
<path d="M0 0 C1.32 0 2.64 0 4 0 C4 0.66 4 1.32 4 2 C4.66 2 5.32 2 6 2 C9.5111213 4.75873817 10.88059857 6.13433965 11.5 10.625 C10.96638085 14.22692925 10.80526299 14.91123275 8 17 C3.04624956 18.2115984 -1.50155739 18.67576823 -6.1875 16.5625 C-6.4865625 16.3046875 -6.4865625 16.3046875 -8 15 C-7.67 14.34 -7.34 13.68 -7 13 C-6.34 13 -5.68 13 -5 13 C-4.34 11.68 -3.68 10.36 -3 9 C-1.68 9 -0.36 9 1 9 C1.07427838 5.65747276 1.06546953 3.1964086 0 0 Z " fill="#E57F75" transform="translate(49,38)" />
<path d="M0 0 C0.33 0.99 0.66 1.98 1 3 C1.99 3 2.98 3 4 3 C3.67 4.65 3.34 6.3 3 8 C2.34 8 1.68 8 1 8 C1.33 9.65 1.66 11.3 2 13 C-2.875 11.25 -2.875 11.25 -4 9 C-4.99 8.67 -5.98 8.34 -7 8 C-7 9.65 -7 11.3 -7 13 C-6.34 13.33 -5.68 13.66 -5 14 C-5 14.66 -5 15.32 -5 16 C-5.81984375 16.12117188 -6.6396875 16.24234375 -7.484375 16.3671875 C-8.56203125 16.53476563 -9.6396875 16.70234375 -10.75 16.875 C-11.28367187 16.95621094 -11.28367187 16.95621094 -13.984375 17.3671875 C-16.67708871 17.93223882 -18.63572439 18.63422914 -21 20 C-22.37562854 18.71034824 -23.70766393 17.37310707 -25 16 C-25 15.34 -25 14.68 -25 14 C-25.99 14 -26.98 14 -28 14 C-28 13.34 -28 12.68 -28 12 C-27.34 12 -26.68 12 -26 12 C-26 11.34 -26 10.68 -26 10 C-25.01 10 -24.02 10 -23 10 C-22.67 10.66 -22.34 11.32 -22 12 C-21.34 12 -20.68 12 -20 12 C-19.67 11.34 -19.34 10.68 -19 10 C-18.67 10.99 -18.34 11.98 -18 13 C-17.01 12.67 -16.02 12.34 -15 12 C-14.67 11.01 -14.34 10.02 -14 9 C-11.56640625 8.12109375 -11.56640625 8.12109375 -8.5625 7.4375 C-3.2 6.2 -3.2 6.2 -1 4 C-0.375 1.875 -0.375 1.875 0 0 Z " fill="#C01205" transform="translate(60,48)" />
<path d="M0 0 C1.32 0.33 2.64 0.66 4 1 C4.82638376 3.89234315 5 5.88742431 5 9 C5.99 9.33 6.98 9.66 8 10 C7.67 11.32 7.34 12.64 7 14 C4.61435923 13.42415568 2.33317216 12.77772405 0 12 C0 12.66 0 13.32 0 14 C-0.66 14 -1.32 14 -2 14 C-2 14.66 -2 15.32 -2 16 C-2.66 16 -3.32 16 -4 16 C-4.66 14.68 -5.32 13.36 -6 12 C-6.45375 12.763125 -6.9075 13.52625 -7.375 14.3125 C-8.53824492 16.23632814 -9.7529415 18.12941224 -11 20 C-12.32 19.67 -13.64 19.34 -15 19 C-14.6875 16.625 -14.6875 16.625 -14 14 C-13.01 13.34 -12.02 12.68 -11 12 C-11.33 11.34 -11.66 10.68 -12 10 C-7.35150485 7.6007767 -3.08913926 7.80042591 2 8 C2 7.34 2 6.68 2 6 C1.01 5.67 0.02 5.34 -1 5 C-0.67 3.35 -0.34 1.7 0 0 Z " fill="#AE160B" transform="translate(53,56)" />
<path d="M0 0 C2.35448165 2.55068845 2.98327924 3.71017358 3.1875 7.25 C3.125625 8.1575 3.06375 9.065 3 10 C3.66 9.67 4.32 9.34 5 9 C7.2072923 8.92907158 9.41667452 8.91584975 11.625 8.9375 C12.81351563 8.94652344 14.00203125 8.95554687 15.2265625 8.96484375 C16.14179687 8.97644531 17.05703125 8.98804688 18 9 C16.22886882 12.78488307 14.23562812 15.29110204 11 18 C8.1875 18.3125 8.1875 18.3125 6 18 C6 17.01 6 16.02 6 15 C5.01 15 4.02 15 3 15 C2.67 13.35 2.34 11.7 2 10 C0.02 10 -1.96 10 -4 10 C-4.41176754 6.39703406 -4.1535853 5.21597933 -2 2.1875 C-1.34 1.465625 -0.68 0.74375 0 0 Z " fill="#55711A" transform="translate(53,20)" />
<path d="M0 0 C-0.33 1.32 -0.66 2.64 -1 4 C-2.32 4 -3.64 4 -5 4 C-5 3.34 -5 2.68 -5 2 C-6.65 2.66 -8.3 3.32 -10 4 C-10 7.3 -10 10.6 -10 14 C-9.34 14 -8.68 14 -8 14 C-8 14.66 -8 15.32 -8 16 C-6.68 16.66 -5.36 17.32 -4 18 C-4.33 18.825 -4.33 18.825 -6 23 C-7.65 23 -9.3 23 -11 23 C-11 22.01 -11 21.02 -11 20 C-10.34 19.67 -9.68 19.34 -9 19 C-10.98 18.67 -12.96 18.34 -15 18 C-15 17.01 -15 16.02 -15 15 C-15.66 15 -16.32 15 -17 15 C-17 11.7 -17 8.4 -17 5 C-11.05975239 1.87885295 -6.79221873 0 0 0 Z " fill="#E96F5D" transform="translate(45,32)" />
<path d="M0 0 C-1.4163067 2.8326134 -3.14497293 3.01707833 -6.0625 4.125 C-6.98160156 4.47820313 -7.90070312 4.83140625 -8.84765625 5.1953125 C-9.55792969 5.46085937 -10.26820312 5.72640625 -11 6 C-11.33 9.3 -11.66 12.6 -12 16 C-11.34 16 -10.68 16 -10 16 C-10 16.99 -10 17.98 -10 19 C-7.69 19 -5.38 19 -3 19 C-3.66 19.66 -4.32 20.32 -5 21 C-8.125 20.625 -8.125 20.625 -11 20 C-11 19.34 -11 18.68 -11 18 C-11.99 18 -12.98 18 -14 18 C-14.33 19.32 -14.66 20.64 -15 22 C-15.66 22 -16.32 22 -17 22 C-17.33 22.99 -17.66 23.98 -18 25 C-18 23.68 -18 22.36 -18 21 C-18.33 20.67 -18.66 20.34 -19 20 C-19.41251712 14.74040672 -18.81644063 11.46745755 -16 7 C-10.80577502 1.13984874 -7.82706475 -0.30104095 0 0 Z " fill="#D72E1C" transform="translate(40,31)" />
<path d="M0 0 C0.125 2.375 0.125 2.375 0 5 C-0.66 5.66 -1.32 6.32 -2 7 C-2.4140625 9.1640625 -2.4140625 9.1640625 -2.625 11.625 C-2.69976563 12.44226563 -2.77453125 13.25953125 -2.8515625 14.1015625 C-2.90054687 14.72804688 -2.94953125 15.35453125 -3 16 C-3.99 16.33 -4.98 16.66 -6 17 C-5.79375 17.763125 -5.5875 18.52625 -5.375 19.3125 C-5 22 -5 22 -7 25 C-11.01676824 20.14640505 -10.28136159 14.95027665 -10 9 C-9.34 9 -8.68 9 -8 9 C-8 9.66 -8 10.32 -8 11 C-7.01 11 -6.02 11 -5 11 C-5 7.7 -5 4.4 -5 1 C-1 0 -1 0 0 0 Z " fill="#BD2C1E" transform="translate(30,55)" />
<path d="M0 0 C0.33 0.99 0.66 1.98 1 3 C1.99 3 2.98 3 4 3 C3.67 4.65 3.34 6.3 3 8 C2.34 8 1.68 8 1 8 C1.33 9.65 1.66 11.3 2 13 C-2.875 11.25 -2.875 11.25 -4 9 C-4.99 8.67 -5.98 8.34 -7 8 C-7 9.65 -7 11.3 -7 13 C-6.34 13.33 -5.68 13.66 -5 14 C-5 14.66 -5 15.32 -5 16 C-6.98 16 -8.96 16 -11 16 C-10.26334455 12.85952151 -9.44606416 9.89212831 -8 7 C-4.9375 5.75 -4.9375 5.75 -2 5 C-0.625 2.375 -0.625 2.375 0 0 Z " fill="#AD0B06" transform="translate(60,48)" />
<path d="M0 0 C0.66 1.32 1.32 2.64 2 4 C6.62 4 11.24 4 16 4 C15 10 15 10 13 13 C13.99 13.165 13.99 13.165 19 14 C19.33 15.32 19.66 16.64 20 18 C16.5647952 20.29013653 15.014669 20.17842973 11 20 C11.33 19.34 11.66 18.68 12 18 C13.98 18 15.96 18 18 18 C18 17.34 18 16.68 18 16 C15.36 15.34 12.72 14.68 10 14 C10 13.01 10 12.02 10 11 C10.66 11 11.32 11 12 11 C12.309375 10.38125 12.61875 9.7625 12.9375 9.125 C13.625 7.75 14.3125 6.375 15 5 C10.05 5.33 5.1 5.66 0 6 C0 4.02 0 2.04 0 0 Z " fill="#43501B" transform="translate(56,24)" />
<path d="M0 0 C0.33 0 0.66 0 1 0 C1.0093457 0.78648926 1.01869141 1.57297852 1.02832031 2.38330078 C1.08217282 5.96449238 1.16579363 9.54439883 1.25 13.125 C1.26417969 14.3625 1.27835938 15.6 1.29296875 16.875 C1.60153048 28.35349649 1.60153048 28.35349649 6 33 C6.66 33.33 7.32 33.66 8 34 C8 34.66 8 35.32 8 36 C6.68 35.67 5.36 35.34 4 35 C4 34.34 4 33.68 4 33 C3.34 33 2.68 33 2 33 C-0.8573258 26.0861766 -1.40886548 19.99442592 -1.25 12.5625 C-1.24484375 11.57056641 -1.2396875 10.57863281 -1.234375 9.55664062 C-1.15534625 2.31069251 -1.15534625 2.31069251 0 0 Z " fill="#752617" transform="translate(19,48)" />
<path d="M0 0 C4.29 0 8.58 0 13 0 C11.21844267 3.56311466 9.83236991 5.35645475 7 8 C6.67 7.34 6.34 6.68 6 6 C4.68 6.33 3.36 6.66 2 7 C1.67 5.68 1.34 4.36 1 3 C0.34 3 -0.32 3 -1 3 C-0.67 2.01 -0.34 1.02 0 0 Z " fill="#6E8828" transform="translate(58,29)" />
<path d="M0 0 C0.33 0.66 0.66 1.32 1 2 C0.34 2 -0.32 2 -1 2 C1 4 1 4 4 6 C3.34 6 2.68 6 2 6 C2.33 9.3 2.66 12.6 3 16 C2.34 16.33 1.68 16.66 1 17 C0.34 16.67 -0.32 16.34 -1 16 C-1 15.34 -1 14.68 -1 14 C-1.66 14 -2.32 14 -3 14 C-3.08082094 12.04233719 -3.13910778 10.08373272 -3.1875 8.125 C-3.22230469 7.03445312 -3.25710937 5.94390625 -3.29296875 4.8203125 C-3.19628906 3.88960937 -3.09960938 2.95890625 -3 2 C-2.01 1.34 -1.02 0.68 0 0 Z " fill="#C12414" transform="translate(23,50)" />
<path d="M0 0 C-1.66384476 3.32768952 -5.27842711 3.70326834 -8.65234375 4.90234375 C-11 6 -11 6 -13 9 C-13.33 8.67 -13.66 8.34 -14 8 C-15.32 10.97 -16.64 13.94 -18 17 C-17.34 17 -16.68 17 -16 17 C-16.33 17.99 -16.66 18.98 -17 20 C-17.66 20 -18.32 20 -19 20 C-19.40929277 13.17845386 -18.08962904 9.3575302 -13.5625 4.25 C-8.92237632 0.17574506 -6.22312137 -0.23935082 0 0 Z " fill="#D43E33" transform="translate(40,31)" />
<path d="M0 0 C0.515625 0.33 0.515625 0.33 3.125 2 C6.53576826 3.97282726 9.0201643 4.38827665 13 4 C12.67 4.66 12.34 5.32 12 6 C10.35 6 8.7 6 7 6 C6.67 7.32 6.34 8.64 6 10 C4.68 10 3.36 10 2 10 C2 9.01 2 8.02 2 7 C0.35 6.67 -1.3 6.34 -3 6 C-3 5.34 -3 4.68 -3 4 C-2.01 4 -1.02 4 0 4 C0 2.68 0 1.36 0 0 Z " fill="#D43222" transform="translate(39,51)" />
<path d="M0 0 C3.90604537 1.26682552 5.90166803 2.43283565 8 6 C10.00360356 11.10008179 9.66342501 16.93409315 7.625 21.9375 C6 25 6 25 4 26 C4.33 25.21625 4.66 24.4325 5 23.625 C6.25691923 19.06866778 6.5504186 14.7028413 6 10 C5.34 9.01 4.68 8.02 4 7 C4 5.68 4 4.36 4 3 C3.01 3.33 2.02 3.66 1 4 C0.67 2.68 0.34 1.36 0 0 Z " fill="#6C2218" transform="translate(63,42)" />
<path d="M0 0 C1.125 5.75 1.125 5.75 0 8 C-2.90259811 9.3749149 -4.76138705 10 -8 10 C-8.33 9.01 -8.66 8.02 -9 7 C-8.525625 6.566875 -8.05125 6.13375 -7.5625 5.6875 C-6 4 -6 4 -5 1 C-2 0 -2 0 0 0 Z " fill="#F9A09D" transform="translate(50,39)" />
<path d="M0 0 C-0.33 1.32 -0.66 2.64 -1 4 C-2.32 4 -3.64 4 -5 4 C-5 3.34 -5 2.68 -5 2 C-6.65 2.66 -8.3 3.32 -10 4 C-10.33 6.31 -10.66 8.62 -11 11 C-11.99 11.33 -12.98 11.66 -14 12 C-14.66 12.66 -15.32 13.32 -16 14 C-16.125 11.625 -16.125 11.625 -16 9 C-15.34 8.34 -14.68 7.68 -14 7 C-13.88269531 6.33484375 -13.76539063 5.6696875 -13.64453125 4.984375 C-13 3 -13 3 -11.07421875 1.953125 C-10.28660156 1.72109375 -9.49898437 1.4890625 -8.6875 1.25 C-7.90761719 1.00765625 -7.12773438 0.7653125 -6.32421875 0.515625 C-4 0 -4 0 0 0 Z " fill="#F5766C" transform="translate(45,32)" />
<path d="M0 0 C7.06601636 0.97012929 12.23013364 2.77736037 18 7 C17.01 7.33 16.02 7.66 15 8 C14.34 7.67 13.68 7.34 13 7 C12.34 7.66 11.68 8.32 11 9 C10.67 8.01 10.34 7.02 10 6 C9.34 6 8.68 6 8 6 C8 5.34 8 4.68 8 4 C7.6184375 4.04125 7.6184375 4.04125 5.6875 4.25 C4.800625 4.1675 3.91375 4.085 3 4 C1.33203125 1.984375 1.33203125 1.984375 0 0 Z " fill="#912414" transform="translate(45,34)" />
<path d="M0 0 C0.99 0.33 1.98 0.66 3 1 C3.36272727 7.40818182 3.36272727 7.40818182 1.8125 9.9375 C-0.56041618 11.32851983 -2.29686424 11.21917317 -5 11 C-4.34 10.67 -3.68 10.34 -3 10 C-3 7.69 -3 5.38 -3 3 C-2.67 3.66 -2.34 4.32 -2 5 C-1.34 5 -0.68 5 0 5 C0 3.35 0 1.7 0 0 Z " fill="#CD4F3A" transform="translate(57,44)" />
<path d="M0 0 C0.99 0 1.98 0 3 0 C3.33 1.98 3.66 3.96 4 6 C4.99 6 5.98 6 7 6 C7.33 5.34 7.66 4.68 8 4 C8.99 4 9.98 4 11 4 C11.33 4.99 11.66 5.98 12 7 C11 8 11 8 8.71484375 8.09765625 C8.25658203 8.09185547 8.25658203 8.09185547 5.9375 8.0625 C5.01839844 8.05347656 4.09929688 8.04445313 3.15234375 8.03515625 C2.44207031 8.02355469 1.73179688 8.01195313 1 8 C0.34 5.69 -0.32 3.38 -1 1 C-0.67 0.67 -0.34 0.34 0 0 Z " fill="#AF291B" transform="translate(28,76)" />
<path d="M0 0 C3.34019306 0.59646305 5.50470633 1.68294159 8 4 C8 4.99 8 5.98 8 7 C8.66 7 9.32 7 10 7 C10 7.66 10 8.32 10 9 C9.01 9.33 8.02 9.66 7 10 C5.62437146 8.71034824 4.29233607 7.37310707 3 6 C3 5.34 3 4.68 3 4 C2.34 4 1.68 4 1 4 C0.67 2.68 0.34 1.36 0 0 Z " fill="#FA8889" transform="translate(34,42)" />
<path d="M0 0 C0.66 0.99 1.32 1.98 2 3 C1.67 3.66 1.34 4.32 1 5 C0.34 5 -0.32 5 -1 5 C-1 5.66 -1 6.32 -1 7 C-2.43011973 7.86646667 -3.86940619 8.71781829 -5.3125 9.5625 C-5.71275391 9.80033203 -5.71275391 9.80033203 -7.73828125 11.00390625 C-10 12 -10 12 -13 11 C-12.39671875 10.62488281 -11.7934375 10.24976562 -11.171875 9.86328125 C-6.6901007 6.99349996 -3.03350913 4.48431785 0 0 Z " fill="#7E5A45" transform="translate(68,67)" />
<path d="M0 0 C0.125 2.375 0.125 2.375 0 5 C-0.66 5.66 -1.32 6.32 -2 7 C-2.4140625 9.1640625 -2.4140625 9.1640625 -2.625 11.625 C-2.69976563 12.44226563 -2.77453125 13.25953125 -2.8515625 14.1015625 C-2.90054687 14.72804688 -2.94953125 15.35453125 -3 16 C-3.33 16 -3.66 16 -4 16 C-4.33 11.05 -4.66 6.1 -5 1 C-1 0 -1 0 0 0 Z " fill="#D4301C" transform="translate(30,55)" />
<path d="M0 0 C1.32 0.33 2.64 0.66 4 1 C4 2.65 4 4.3 4 6 C2.35 6.33 0.7 6.66 -1 7 C-1.625 5.1875 -1.625 5.1875 -2 3 C-1.34 2.01 -0.68 1.02 0 0 Z " fill="#DB6D55" transform="translate(40,38)" />
<path d="M0 0 C2 2 2 2 2 6 C-3.11111111 10 -3.11111111 10 -6 10 C-6 8.35 -6 6.7 -6 5 C-4.35 4.67 -2.7 4.34 -1 4 C-0.67 2.68 -0.34 1.36 0 0 Z " fill="#932B21" transform="translate(53,71)" />
<path d="M0 0 C0.66 0.33 1.32 0.66 2 1 C2 1.99 2 2.98 2 4 C2.66 4 3.32 4 4 4 C4 4.99 4 5.98 4 7 C3.67 7.165 3.67 7.165 2 8 C1.67 8.99 1.34 9.98 1 11 C0.34 11 -0.32 11 -1 11 C-1.33 11.99 -1.66 12.98 -2 14 C-3.49341969 11.01316063 -2.40648676 9.04839022 -1.5625 5.875 C-1.27503906 4.77929688 -0.98757812 3.68359375 -0.69140625 2.5546875 C-0.46324219 1.71164063 -0.23507813 0.86859375 0 0 Z " fill="#7B5D4B" transform="translate(72,54)" />
<path d="M0 0 C5.64441914 -0.57891478 10.20628058 1.13335579 15 4 C15.33 4.495 15.33 4.495 17 7 C15.515 6.67 15.515 6.67 8 5 C8 4.34 8 3.68 8 3 C5.36 2.34 2.72 1.68 0 1 C0 0.67 0 0.34 0 0 Z " fill="#6E2C06" transform="translate(37,29)" />
<path d="M0 0 C0.6875 1.8125 0.6875 1.8125 1 4 C-0.375 5.625 -0.375 5.625 -2 7 C-2.33 7.66 -2.66 8.32 -3 9 C-6.68754757 8.50168276 -8.60490662 7.89932357 -11 5 C-10.01 4.67 -9.02 4.34 -8 4 C-7.67 4.66 -7.34 5.32 -7 6 C-5.68 6 -4.36 6 -3 6 C-3 4.68 -3 3.36 -3 2 C-2.01 1.34 -1.02 0.68 0 0 Z " fill="#F17669" transform="translate(52,47)" />
<path d="M0 0 C2.0625 0.4375 2.0625 0.4375 4 1 C3.79375 1.94875 3.5875 2.8975 3.375 3.875 C3.25125 4.90625 3.1275 5.9375 3 7 C3.66 7.66 4.32 8.32 5 9 C2.83125748 8.49396008 1.00032373 8.00016187 -1 7 C-1.04254356 5.00045254 -1.04080783 2.99958364 -1 1 C-0.67 0.67 -0.34 0.34 0 0 Z " fill="#4C4F20" transform="translate(42,22)" />
<path d="M0 0 C0.66 0.165 0.66 0.165 4 1 C5.125 4.75 5.125 4.75 4 7 C3.175 6.67 3.175 6.67 -1 5 C-0.67 3.35 -0.34 1.7 0 0 Z " fill="#BF3421" transform="translate(53,56)" />
<path d="M0 0 C0.99 0.66 1.98 1.32 3 2 C-1.62369023 3.80679587 -5.42528653 4.21839082 -10.375 4.125 C-11.62023438 4.10695313 -12.86546875 4.08890625 -14.1484375 4.0703125 C-14.61894531 4.05871094 -14.61894531 4.05871094 -17 4 C-17 3.67 -17 3.34 -17 3 C-16.27554687 2.95101562 -15.55109375 2.90203125 -14.8046875 2.8515625 C-10.47594597 2.51680649 -6.63063108 2.21396412 -2.5 0.8125 C-1.675 0.544375 -0.85 0.27625 0 0 Z " fill="#805C49" transform="translate(45,84)" />
<path d="M0 0 C0.66 0 1.32 0 2 0 C2 0.66 2 1.32 2 2 C2.66 2 3.32 2 4 2 C3.34 3.65 2.68 5.3 2 7 C0.68 6.67 -0.64 6.34 -2 6 C-1.125 1.125 -1.125 1.125 0 0 Z " fill="#B7311C" transform="translate(40,69)" />
<path d="M0 0 C0.66 1.32 1.32 2.64 2 4 C6.62 4 11.24 4 16 4 C15.67 5.65 15.34 7.3 15 9 C14.67 8.34 14.34 7.68 14 7 C14.33 6.34 14.66 5.68 15 5 C10.05 5.33 5.1 5.66 0 6 C0 4.02 0 2.04 0 0 Z " fill="#3F4C11" transform="translate(56,24)" />
<path d="M0 0 C1.98 0 3.96 0 6 0 C6.33 1.65 6.66 3.3 7 5 C7.99 5 8.98 5 10 5 C10.33 6.32 10.66 7.64 11 9 C7.34683329 7.75023244 6.21934164 7.32901247 4 4 C4.33 3.34 4.66 2.68 5 2 C3.35 1.67 1.7 1.34 0 1 C0 0.67 0 0.34 0 0 Z " fill="#5F6011" transform="translate(49,30)" />
<path d="M0 0 C1.65 0 3.3 0 5 0 C5.66 1.98 6.32 3.96 7 6 C5.02 6.33 3.04 6.66 1 7 C1.020625 6.21625 1.04125 5.4325 1.0625 4.625 C1 2 1 2 0 0 Z " fill="#B9110C" transform="translate(31,70)" />
<path d="M0 0 C1.65 0 3.3 0 5 0 C3.55746343 3.36591866 1.66735273 5.51047079 -1 8 C-1 5.16032769 -0.59732819 2.76264289 0 0 Z " fill="#748A37" transform="translate(66,29)" />
<path d="M0 0 C0.33 2.31 0.66 4.62 1 7 C0.01 6.01 -0.98 5.02 -2 4 C-2.226875 4.33 -2.226875 4.33 -3.375 6 C-3.91125 6.66 -4.4475 7.32 -5 8 C-5.66 8 -6.32 8 -7 8 C-4.18918919 0 -4.18918919 0 0 0 Z " fill="#455018" transform="translate(55,17)" />
<path d="M0 0 C1.32 0 2.64 0 4 0 C4 1.65 4 3.3 4 5 C2.68 5.33 1.36 5.66 0 6 C-0.38218767 4.34385343 -0.71395102 2.67542976 -1 1 C-0.67 0.67 -0.34 0.34 0 0 Z " fill="#D57056" transform="translate(45,48)" />
<path d="M0 0 C2.91517292 1.07401108 4.77810176 1.77810176 7 4 C7.125 7.125 7.125 7.125 7 10 C5.5 8.75 5.5 8.75 4 7 C4 5.68 4 4.36 4 3 C3.01 3.33 2.02 3.66 1 4 C0.67 2.68 0.34 1.36 0 0 Z " fill="#631B08" transform="translate(63,42)" />
<path d="M0 0 C0.598125 0.350625 1.19625 0.70125 1.8125 1.0625 C1.8125 2.0525 1.8125 3.0425 1.8125 4.0625 C0.8225 4.0625 -0.1675 4.0625 -1.1875 4.0625 C-1.5175 5.0525 -1.8475 6.0425 -2.1875 7.0625 C-2.31125 6.093125 -2.435 5.12375 -2.5625 4.125 C-2.76875 3.114375 -2.975 2.10375 -3.1875 1.0625 C-3.8475 0.7325 -4.5075 0.4025 -5.1875 0.0625 C-2.1875 -0.9375 -2.1875 -0.9375 0 0 Z " fill="#F48683" transform="translate(46.1875,35.9375)" />
<path d="M0 0 C3 1 3 1 5 4 C5.99 4 6.98 4 8 4 C8 4.99 8 5.98 8 7 C6.35 7 4.7 7 3 7 C3 6.01 3 5.02 3 4 C2.01 4 1.02 4 0 4 C0 2.68 0 1.36 0 0 Z " fill="#5E7E1E" transform="translate(56,31)" />
<path d="M0 0 C1.9453125 -0.29296875 1.9453125 -0.29296875 4.125 -0.1875 C5.40375 -0.125625 6.6825 -0.06375 8 0 C7.34 0.66 6.68 1.32 6 2 C4.68 2 3.36 2 2 2 C2 2.99 2 3.98 2 5 C0.68 4.34 -0.64 3.68 -2 3 C-1.34 2.01 -0.68 1.02 0 0 Z " fill="#A41205" transform="translate(33,76)" />
<path d="M0 0 C0.625 1.875 0.625 1.875 1 4 C0.34 4.66 -0.32 5.32 -1 6 C-1.125 9.125 -1.125 9.125 -1 12 C-1.66 12 -2.32 12 -3 12 C-3.08090971 10.37581255 -3.13914995 8.75048255 -3.1875 7.125 C-3.22230469 6.22007813 -3.25710937 5.31515625 -3.29296875 4.3828125 C-3.19628906 3.59648438 -3.09960938 2.81015625 -3 2 C-2.01 1.34 -1.02 0.68 0 0 Z " fill="#F06352" transform="translate(31,35)" />
<path d="M0 0 C2.125 0.9375 2.125 0.9375 4 2 C2.8125 3.5 2.8125 3.5 1 5 C-1.6875 5.1875 -1.6875 5.1875 -4 5 C-3.34 4.67 -2.68 4.34 -2 4 C-2 3.01 -2 2.02 -2 1 C-1.34 0.67 -0.68 0.34 0 0 Z " fill="#D14537" transform="translate(56,50)" />
<path d="M0 0 C2 2 2 2 2.125 5.125 C2.08375 6.07375 2.0425 7.0225 2 8 C1.01 8 0.02 8 -1 8 C-1 7.34 -1 6.68 -1 6 C-1.66 5.67 -2.32 5.34 -3 5 C-2.01 3.35 -1.02 1.7 0 0 Z " fill="#E32623" transform="translate(26,38)" />
<path d="M0 0 C0 1.65 0 3.3 0 5 C-1.65 5 -3.3 5 -5 5 C-5 4.01 -5 3.02 -5 2 C-2 0 -2 0 0 0 Z " fill="#E66641" transform="translate(39,50)" />
<path d="M0 0 C-0.33 0.66 -0.66 1.32 -1 2 C-3.64860427 2.59355614 -6.29197322 2.74209269 -9 3 C-9 2.34 -9 1.68 -9 1 C-6.04335481 -0.4783226 -3.25770263 -0.06032783 0 0 Z " fill="#C72C2A" transform="translate(40,31)" />
<path d="M0 0 C-0.33 1.32 -0.66 2.64 -1 4 C-2.32 4 -3.64 4 -5 4 C-5.33 3.01 -5.66 2.02 -6 1 C-4 0 -4 0 0 0 Z " fill="#CA5F4A" transform="translate(45,32)" />
<path d="M0 0 C2.04119788 1.61594832 4.04072937 3.2856382 6 5 C6 5.66 6 6.32 6 7 C4.68 6.67 3.36 6.34 2 6 C2 5.34 2 4.68 2 4 C1.34 4 0.68 4 0 4 C-0.33 3.01 -0.66 2.02 -1 1 C-0.67 0.67 -0.34 0.34 0 0 Z " fill="#742312" transform="translate(21,77)" />
<path d="M0 0 C1.65 0 3.3 0 5 0 C4.67 1.98 4.34 3.96 4 6 C3.67 5.01 3.34 4.02 3 3 C2.01 3 1.02 3 0 3 C0 2.01 0 1.02 0 0 Z " fill="#D74329" transform="translate(32,63)" />
<path d="M0 0 C0.33 0 0.66 0 1 0 C1 2.31 1 4.62 1 7 C-0.65 7.33 -2.3 7.66 -4 8 C-3.34 6.68 -2.68 5.36 -2 4 C-1.34 4 -0.68 4 0 4 C0 2.68 0 1.36 0 0 Z " fill="#E56B60" transform="translate(53,47)" />
<path d="M0 0 C0.99 0.33 1.98 0.66 3 1 C3 2.98 3 4.96 3 7 C2.34 7 1.68 7 1 7 C0.67 4.69 0.34 2.38 0 0 Z " fill="#DD6A5B" transform="translate(54,42)" />
<path d="M0 0 C1.32 0 2.64 0 4 0 C4 0.66 4 1.32 4 2 C4.66 2 5.32 2 6 2 C6.33 2.99 6.66 3.98 7 5 C4.03824877 4.38722388 2.61941217 3.74627478 0 2 C0 1.34 0 0.68 0 0 Z " fill="#424507" transform="translate(60,38)" />
<path d="M0 0 C-2.95183101 2.95183101 -5.95511947 3.08663988 -10 4 C-7.99220736 -0.01558529 -4.07814299 -1.359381 0 0 Z " fill="#7D5542" transform="translate(56,80)" />
<path d="M0 0 C2 2 2 2 2 6 C0.02 6.33 -1.96 6.66 -4 7 C-4 6.34 -4 5.68 -4 5 C-3.01 4.67 -2.02 4.34 -1 4 C-0.3125 1.9375 -0.3125 1.9375 0 0 Z " fill="#931A12" transform="translate(53,71)" />
<path d="M0 0 C0.99 0.33 1.98 0.66 3 1 C2.67 2.32 2.34 3.64 2 5 C1.01 5 0.02 5 -1 5 C-0.67 3.35 -0.34 1.7 0 0 Z " fill="#AB2E1F" transform="translate(58,65)" />
<path d="M0 0 C1.32 0 2.64 0 4 0 C4.33 1.32 4.66 2.64 5 4 C3.02 4 1.04 4 -1 4 C-0.67 2.68 -0.34 1.36 0 0 Z " fill="#CF160C" transform="translate(23,44)" />
<path d="M0 0 C-0.33 0.99 -0.66 1.98 -1 3 C-3.5625 4.1875 -3.5625 4.1875 -6 5 C-5.6875 3.0625 -5.6875 3.0625 -5 1 C-2 0 -2 0 0 0 Z " fill="#F58884" transform="translate(40,34)" />
<path d="M0 0 C2 2 2 2 2 6 C1.34 5.67 0.68 5.34 0 5 C-0.495 5.33 -0.495 5.33 -3 7 C-2.25 2.25 -2.25 2.25 0 0 Z " fill="#5F7726" transform="translate(53,20)" />
</svg>