<?xml version='1.0' encoding='utf-8'?>
<svg xmlns="http://www.w3.org/2000/svg" version="1.1" width="101" height="98">
<path d="M0 0 C2.21681309 1.64034796 4.16322519 3.17010351 5.84765625 5.3671875 C5.84765625 6.3571875 5.84765625 7.3471875 5.84765625 8.3671875 C4.85765625 8.3671875 3.86765625 8.3671875 2.84765625 8.3671875 C2.84765625 7.7071875 2.84765625 7.0471875 2.84765625 6.3671875 C2.18765625 6.3671875 1.52765625 6.3671875 0.84765625 6.3671875 C-0.15234375 5.3671875 -1.15234375 4.3671875 -2.15234375 3.3671875 C-7.8200197 1.47796218 -14.17039969 1.159255 -19.765625 3.42578125 C-26.03554069 7.31418274 -29.83136049 12.40423773 -32.15234375 19.3671875 C-32.88462808 26.12581175 -32.24693643 31.77991723 -28.15234375 37.3671875 C-23.64728674 40.37055884 -19.42198556 40.30177609 -14.15234375 39.3671875 C-9.5129724 36.8091002 -6.79073558 33.46442345 -4.15234375 28.9296875 C-2.59976177 23.39861419 -2.3231696 19.30192717 -4.65234375 13.8671875 C-5.14734375 13.0421875 -5.64234375 12.2171875 -6.15234375 11.3671875 C-16.11885452 10.58173569 -16.11885452 10.58173569 -20.27734375 13.7421875 C-22.8743854 17.3780458 -23.2714532 19.07665002 -23.21484375 23.4921875 C-23.21033203 23.94722656 -23.21033203 23.94722656 -23.1875 26.25 C-23.17589844 26.94867188 -23.16429687 27.64734375 -23.15234375 28.3671875 C-19.96248768 29.96211553 -16.62301488 29.74335431 -13.15234375 29.3671875 C-11.15234375 28.3046875 -11.15234375 28.3046875 -10.15234375 26.3671875 C-9.96484375 22.6796875 -9.96484375 22.6796875 -10.15234375 19.3671875 C-11.47234375 19.0371875 -12.79234375 18.7071875 -14.15234375 18.3671875 C-14.15234375 18.6971875 -14.15234375 19.0271875 -14.15234375 19.3671875 C-13.16234375 19.6971875 -12.17234375 20.0271875 -11.15234375 20.3671875 C-11.02734375 22.7421875 -11.02734375 22.7421875 -11.15234375 25.3671875 C-13.15234375 27.3671875 -13.15234375 27.3671875 -16.27734375 27.4921875 C-16.75171875 27.4715625 -16.75171875 27.4715625 -19.15234375 27.3671875 C-20.74395225 23.88554391 -21.64412735 21.20309959 -21.15234375 17.3671875 C-20.15234375 15.0546875 -20.15234375 15.0546875 -18.15234375 13.3671875 C-14.98150003 12.90690373 -13.16608756 12.66221819 -10.15234375 13.3671875 C-7.21484375 15.8046875 -7.21484375 15.8046875 -5.15234375 18.3671875 C-4.82234375 18.6971875 -4.49234375 19.0271875 -4.15234375 19.3671875 C-4.0099637 24.28946918 -4.45756242 27.53344991 -7.65234375 31.3671875 C-8.47734375 32.0271875 -9.30234375 32.6871875 -10.15234375 33.3671875 C-10.48234375 33.6971875 -10.81234375 34.0271875 -11.15234375 34.3671875 C-12.94071997 34.49243209 -14.73462589 34.54292426 -16.52734375 34.5546875 C-17.50445312 34.56886719 -18.4815625 34.58304688 -19.48828125 34.59765625 C-22.15234375 34.3671875 -22.15234375 34.3671875 -25.15234375 32.3671875 C-25.15234375 31.7071875 -25.15234375 31.0471875 -25.15234375 30.3671875 C-25.81234375 30.3671875 -26.47234375 30.3671875 -27.15234375 30.3671875 C-29.38730497 25.89726506 -28.76855178 20.20470844 -28.15234375 15.3671875 C-25.92054982 11.00537525 -22.69812506 8.16741554 -18.15234375 6.3671875 C-13.26688842 5.65056218 -8.2720168 5.19597833 -3.84765625 7.640625 C-0.52449405 10.46738123 1.6444662 12.59763365 2.15625 17.0546875 C2.48306529 25.45285008 1.13515723 30.78206587 -4.15234375 37.3671875 C-5.46341062 38.72242151 -6.79119612 40.06226119 -8.15234375 41.3671875 C-7.49234375 42.0271875 -6.83234375 42.6871875 -6.15234375 43.3671875 C-11.54650663 46.71344239 -18.05449344 45.92910545 -24.15234375 45.3671875 C-27.28468953 44.42493714 -28.58014607 43.53017192 -31.15234375 41.3671875 C-32.33984375 38.7421875 -32.33984375 38.7421875 -33.15234375 36.3671875 C-33.81234375 36.0371875 -34.47234375 35.7071875 -35.15234375 35.3671875 C-37.15234375 34.3671875 -37.15234375 34.3671875 -38.25 32.19140625 C-40.51282141 25.1090691 -40.15709704 17.54694271 -36.90234375 10.8671875 C-32.94991152 4.04427376 -29.06686247 -0.77290095 -21.2890625 -3.21875 C-13.48409601 -4.7312298 -6.74473929 -4.33328078 0 0 Z " fill="#FBE7E1" transform="translate(59.15234375,20.6328125)" />
<path d="M0 0 C1.625 0.828125 1.625 0.828125 3.875 2.328125 C3.875 2.988125 3.875 3.648125 3.875 4.328125 C4.535 4.328125 5.195 4.328125 5.875 4.328125 C5.875 4.988125 5.875 5.648125 5.875 6.328125 C7.195 5.998125 8.515 5.668125 9.875 5.328125 C13.36584364 13.83705638 12.18359486 20.99755581 8.875 29.328125 C8.215 29.328125 7.555 29.328125 6.875 29.328125 C7.04 28.214375 7.205 27.100625 7.375 25.953125 C8.14610344 19.76226598 8.62272988 13.37582523 6.875 7.328125 C5.9675 7.555 5.06 7.781875 4.125 8.015625 C0.875 8.328125 0.875 8.328125 -0.9609375 6.875 C-5.08339462 3.9282617 -10.27764297 4.73761698 -15.125 5.328125 C-19.15908996 7.30978322 -21.87322973 9.44576246 -24.125 13.328125 C-24.33826685 16.0010695 -24.41045631 18.4207462 -24.3125 21.078125 C-24.29896484 21.77550781 -24.28542969 22.47289063 -24.27148438 23.19140625 C-24.2362945 24.90398041 -24.18249155 26.61615441 -24.125 28.328125 C-23.465 28.328125 -22.805 28.328125 -22.125 28.328125 C-21.69960938 28.8128125 -21.27421875 29.2975 -20.8359375 29.796875 C-17.87888811 32.44336669 -14.59384242 31.85602984 -10.796875 31.73046875 C-8.125 31.328125 -8.125 31.328125 -5 29.390625 C-2.55183238 25.39195122 -1.57249222 22.0201911 -2.125 17.328125 C-4.14208093 14.20490292 -5.58099029 12.70700561 -9.2421875 11.80859375 C-11.19236524 11.54833871 -13.16007161 11.42803661 -15.125 11.328125 C-17.0328584 14.5030344 -17.2859041 16.43397711 -16.75 20.078125 C-16.69457031 20.47773437 -16.69457031 20.47773437 -16.4140625 22.5 C-16.31867187 23.10328125 -16.22328125 23.7065625 -16.125 24.328125 C-14.12545254 24.37066856 -12.12458364 24.36893283 -10.125 24.328125 C-9.125 23.328125 -9.125 23.328125 -9.0625 20.765625 C-9.083125 19.96125 -9.10375 19.156875 -9.125 18.328125 C-9.785 18.328125 -10.445 18.328125 -11.125 18.328125 C-11.785 18.988125 -12.445 19.648125 -13.125 20.328125 C-12.795 19.008125 -12.465 17.688125 -12.125 16.328125 C-10.25 15.703125 -10.25 15.703125 -8.125 15.328125 C-6.125 17.328125 -6.125 17.328125 -5.75 20.703125 C-6.125 24.328125 -6.125 24.328125 -7.625 26.765625 C-11.34526379 29.09078987 -13.76717141 28.74315629 -18.125 28.328125 C-19.115 27.668125 -20.105 27.008125 -21.125 26.328125 C-22.11083093 21.39008898 -21.61406617 17.27252864 -19.3125 12.828125 C-16.87328559 10.04045139 -15.26473921 8.47574183 -11.53125 7.9921875 C-10.5721875 7.97929687 -9.613125 7.96640625 -8.625 7.953125 C-7.6659375 7.92476562 -6.706875 7.89640625 -5.71875 7.8671875 C-3.125 8.328125 -3.125 8.328125 -1.34375 10.1640625 C1.0631972 14.43793669 1.46918154 18.52300469 0.875 23.328125 C-1.03682833 29.73335878 -5.25948362 35.10306533 -11.125 38.328125 C-16.25316586 39.38392385 -20.46369287 39.19338913 -25.125 36.765625 C-29.43135808 31.51725109 -30.78214753 26.65174787 -30.52734375 19.9453125 C-29.42374045 12.76653374 -26.07767473 7.72318245 -20.4375 3.265625 C-14.26507229 -1.14325193 -7.47041556 -2.36196962 0 0 Z " fill="#C06164" transform="translate(56.125,22.671875)" />
<path d="M0 0 C2.23016222 1.55062404 3.37755513 2.67159505 4.66015625 5.078125 C5.21423826 9.14829752 5.07590459 12.99983174 4.66015625 17.078125 C4.33015625 17.078125 4.00015625 17.078125 3.66015625 17.078125 C3.47839844 16.47484375 3.29664062 15.8715625 3.109375 15.25 C2.85800781 14.45078125 2.60664062 13.6515625 2.34765625 12.828125 C2.10402344 12.03921875 1.86039063 11.2503125 1.609375 10.4375 C0.56164122 7.83325637 -0.35324708 6.0736905 -2.33984375 4.078125 C-6.05466665 3.24430252 -9.5991555 3.42733275 -13.33984375 4.078125 C-16.23668243 6.2797224 -17.73281606 7.86406962 -19.33984375 11.078125 C-19.40980389 12.78515235 -19.42424529 14.49480503 -19.40234375 16.203125 C-19.39783203 16.65816406 -19.39783203 16.65816406 -19.375 18.9609375 C-19.36339844 19.65960938 -19.35179687 20.35828125 -19.33984375 21.078125 C-16.14998768 22.67305303 -12.81051488 22.45429181 -9.33984375 22.078125 C-7.33984375 21.015625 -7.33984375 21.015625 -6.33984375 19.078125 C-6.15234375 15.390625 -6.15234375 15.390625 -6.33984375 12.078125 C-7.65984375 11.748125 -8.97984375 11.418125 -10.33984375 11.078125 C-10.33984375 11.408125 -10.33984375 11.738125 -10.33984375 12.078125 C-9.34984375 12.408125 -8.35984375 12.738125 -7.33984375 13.078125 C-7.21484375 15.453125 -7.21484375 15.453125 -7.33984375 18.078125 C-9.33984375 20.078125 -9.33984375 20.078125 -12.46484375 20.203125 C-12.93921875 20.1825 -12.93921875 20.1825 -15.33984375 20.078125 C-16.93145225 16.59648141 -17.83162735 13.91403709 -17.33984375 10.078125 C-16.33984375 7.765625 -16.33984375 7.765625 -14.33984375 6.078125 C-11.16900003 5.61784123 -9.35358756 5.37315569 -6.33984375 6.078125 C-3.40234375 8.515625 -3.40234375 8.515625 -1.33984375 11.078125 C-1.00984375 11.408125 -0.67984375 11.738125 -0.33984375 12.078125 C-0.1974637 17.00040668 -0.64506242 20.24438741 -3.83984375 24.078125 C-4.66484375 24.738125 -5.48984375 25.398125 -6.33984375 26.078125 C-6.66984375 26.408125 -6.99984375 26.738125 -7.33984375 27.078125 C-9.12821997 27.20336959 -10.92212589 27.25386176 -12.71484375 27.265625 C-13.69195312 27.27980469 -14.6690625 27.29398438 -15.67578125 27.30859375 C-18.33984375 27.078125 -18.33984375 27.078125 -21.33984375 25.078125 C-21.33984375 24.418125 -21.33984375 23.758125 -21.33984375 23.078125 C-21.99984375 23.078125 -22.65984375 23.078125 -23.33984375 23.078125 C-25.57480497 18.60820256 -24.95605178 12.91564594 -24.33984375 8.078125 C-19.66864823 -1.05124736 -9.35511906 -3.6858232 0 0 Z " fill="#F5D1CC" transform="translate(55.33984375,27.921875)" />
<path d="M0 0 C0.9590625 -0.02835938 1.918125 -0.05671875 2.90625 -0.0859375 C5.5 0.375 5.5 0.375 7.28125 2.2109375 C9.6881972 6.48481169 10.09418154 10.56987969 9.5 15.375 C7.59047559 21.77251489 3.36721179 27.16408807 -2.5 30.375 C-7.28927726 31.28913591 -11.66320232 31.58925887 -15.828125 28.8359375 C-16.37984375 28.35382812 -16.9315625 27.87171875 -17.5 27.375 C-16.84 25.395 -16.18 23.415 -15.5 21.375 C-15.14421875 21.53548828 -15.14421875 21.53548828 -13.34375 22.34765625 C-8.7378687 24.01159414 -4.32743767 24.05635006 0.5 23.375 C3.8032426 21.32698959 5.01263767 19.9063146 6.1875 16.21484375 C6.97664939 11.99430372 6.93782992 10.0529302 4.5625 6.375 C0.65457195 3.82288372 -1.87704176 3.61006567 -6.5 3.375 C-8.4078584 6.5499094 -8.6609041 8.48085211 -8.125 12.125 C-8.01414062 12.92421875 -7.90328125 13.7234375 -7.7890625 14.546875 C-7.69367187 15.15015625 -7.59828125 15.7534375 -7.5 16.375 C-5.50045254 16.41754356 -3.49958364 16.41580783 -1.5 16.375 C-0.5 15.375 -0.5 15.375 -0.4375 12.8125 C-0.458125 12.008125 -0.47875 11.20375 -0.5 10.375 C-1.16 10.375 -1.82 10.375 -2.5 10.375 C-3.16 11.035 -3.82 11.695 -4.5 12.375 C-4.17 11.055 -3.84 9.735 -3.5 8.375 C-1.625 7.75 -1.625 7.75 0.5 7.375 C2.5 9.375 2.5 9.375 2.875 12.75 C2.5 16.375 2.5 16.375 1 18.8125 C-2.72026379 21.13766487 -5.14217141 20.79003129 -9.5 20.375 C-10.49 19.715 -11.48 19.055 -12.5 18.375 C-13.48583093 13.43696398 -12.98906617 9.31940364 -10.6875 4.875 C-7.26864388 0.96773587 -5.0654479 0.06808398 0 0 Z " fill="#A3312F" transform="translate(47.5,30.625)" />
<path d="M0 0 C1.65 0 3.3 0 5 0 C6.74299459 3.01751633 7.24972676 5.15161527 7.1875 8.625 C7.17203125 9.49640625 7.1565625 10.3678125 7.140625 11.265625 C6.95933231 14.79076073 6.58266024 18.27464953 6.12109375 21.7734375 C5.93246764 25.24172405 6.32935245 27.18886768 8.56640625 29.89453125 C9.22511719 30.52746094 9.88382813 31.16039063 10.5625 31.8125 C11.27535156 32.50601563 11.98820312 33.19953125 12.72265625 33.9140625 C15.54935344 36.50318136 18.50174931 38.91385572 21.53125 41.26171875 C23 43 23 43 23.21875 45.70703125 C23.1465625 46.46371094 23.074375 47.22039062 23 48 C19.58172539 48.43261586 18.32777965 48.24882164 15.53515625 46.12890625 C10.35913107 40.75663367 5.81715128 35.42398631 2 29 C1.278125 29.66 0.55625 30.32 -0.1875 31 C-3.21597933 33.1535853 -4.39703406 33.41176754 -8 33 C-6.625 30.5 -6.625 30.5 -5 28 C-4.34 28 -3.68 28 -3 28 C-2.731875 27.46375 -2.46375 26.9275 -2.1875 26.375 C-1 24 -1 24 0.625 21.5625 C2.96384617 15.5027622 3.14592267 8.26214768 0.98046875 2.09765625 C0.81869141 1.75154297 0.81869141 1.75154297 0 0 Z " fill="#E3A79E" transform="translate(58,30)" />
<path d="M0 0 C0.33 0 0.66 0 1 0 C1.7912881 9.34892231 0.95552769 15.58290932 -5 23 C-6.31106687 24.35523401 -7.63885237 25.69507369 -9 27 C-8.34 27.66 -7.68 28.32 -7 29 C-12.3793115 32.33704188 -18.91775242 31.59372678 -25 31 C-27.8454708 29.96610066 -29.57048389 28.8510599 -32 27 C-31.34 26.67 -30.68 26.34 -30 26 C-29.67 25.01 -29.34 24.02 -29 23 C-28.01 23.66 -27.02 24.32 -26 25 C-21.30145856 25.85773051 -16.8608254 26.02603423 -12.60546875 23.6796875 C-8.25681332 20.08135667 -5.4985237 16.52580615 -4 11 C-3.78868819 7.6484964 -3.8179031 4.35193183 -4 1 C-3.34 1.33 -2.68 1.66 -2 2 C-1.67 2.99 -1.34 3.98 -1 5 C-0.67 3.35 -0.34 1.7 0 0 Z " fill="#DF9892" transform="translate(60,35)" />
<path d="M0 0 C2.23016222 1.55062404 3.37755513 2.67159505 4.66015625 5.078125 C5.21423826 9.14829752 5.07590459 12.99983174 4.66015625 17.078125 C4.33015625 17.078125 4.00015625 17.078125 3.66015625 17.078125 C3.47839844 16.47484375 3.29664062 15.8715625 3.109375 15.25 C2.85800781 14.45078125 2.60664062 13.6515625 2.34765625 12.828125 C2.10402344 12.03921875 1.86039063 11.2503125 1.609375 10.4375 C0.56164122 7.83325637 -0.35324708 6.0736905 -2.33984375 4.078125 C-6.05466665 3.24430252 -9.5991555 3.42733275 -13.33984375 4.078125 C-16.23668243 6.2797224 -17.73281606 7.86406962 -19.33984375 11.078125 C-19.56934694 13.282489 -19.75060308 15.49204673 -19.90234375 17.703125 C-19.98613281 18.89164063 -20.06992187 20.08015625 -20.15625 21.3046875 C-20.21683594 22.21992187 -20.27742188 23.13515625 -20.33984375 24.078125 C-21.32984375 23.748125 -22.31984375 23.418125 -23.33984375 23.078125 C-25.57480497 18.60820256 -24.95605178 12.91564594 -24.33984375 8.078125 C-19.66864823 -1.05124736 -9.35511906 -3.6858232 0 0 Z " fill="#F8DCD3" transform="translate(55.33984375,27.921875)" />
<path d="M0 0 C1.05445312 -0.01417969 2.10890625 -0.02835938 3.1953125 -0.04296875 C5.875 0.1875 5.875 0.1875 7.875 2.1875 C7.41609375 2.19458984 7.41609375 2.19458984 5.09375 2.23046875 C-1.79718606 2.49828874 -6.99463922 2.77542881 -12.57421875 7.03125 C-14.125 8.1875 -14.125 8.1875 -17.125 9.1875 C-18.125 11.625 -18.125 11.625 -19.125 15.1875 C-19.38539062 15.93644531 -19.64578125 16.68539062 -19.9140625 17.45703125 C-22.46165115 25.01646486 -23.20537826 32.38608152 -21.125 40.1875 C-24.50081494 37.02947957 -25.93684588 35.10398411 -26.3984375 30.40234375 C-26.69536381 20.82076005 -24.38969105 15.1933596 -19.25 7.3125 C-13.69230547 1.75480547 -7.68677131 0.04721604 0 0 Z " fill="#E1C5BF" transform="translate(46.125,16.8125)" />
<path d="M0 0 C0.49693359 0.00902344 0.49693359 0.00902344 3.01171875 0.0546875 C3.77097656 0.07789062 4.53023437 0.10109375 5.3125 0.125 C4.9825 0.785 4.6525 1.445 4.3125 2.125 C3.6525 2.125 2.9925 2.125 2.3125 2.125 C1.9825 2.785 1.6525 3.445 1.3125 4.125 C-1.3275 3.795 -3.9675 3.465 -6.6875 3.125 C-8.5953584 6.2999094 -8.8484041 8.23085211 -8.3125 11.875 C-8.20164062 12.67421875 -8.09078125 13.4734375 -7.9765625 14.296875 C-7.88117187 14.90015625 -7.78578125 15.5034375 -7.6875 16.125 C-5.68795254 16.16754356 -3.68708364 16.16580783 -1.6875 16.125 C-0.6875 15.125 -0.6875 15.125 -0.625 12.5625 C-0.645625 11.758125 -0.66625 10.95375 -0.6875 10.125 C-1.3475 10.125 -2.0075 10.125 -2.6875 10.125 C-3.3475 10.785 -4.0075 11.445 -4.6875 12.125 C-4.3575 10.805 -4.0275 9.485 -3.6875 8.125 C-1.8125 7.5 -1.8125 7.5 0.3125 7.125 C2.3125 9.125 2.3125 9.125 2.6875 12.5 C2.3125 16.125 2.3125 16.125 0.8125 18.5625 C-2.90776379 20.88766487 -5.32967141 20.54003129 -9.6875 20.125 C-10.6775 19.465 -11.6675 18.805 -12.6875 18.125 C-13.67333093 13.18696398 -13.17656617 9.06940364 -10.875 4.625 C-7.33266002 0.57661145 -5.22379793 -0.12291289 0 0 Z " fill="#D49FA0" transform="translate(47.6875,30.875)" />
<path d="M0 0 C3.4375 0.8125 3.4375 0.8125 7 2 C7.33 2.99 7.66 3.98 8 5 C8.66 5 9.32 5 10 5 C10 5.66 10 6.32 10 7 C11.32 6.67 12.64 6.34 14 6 C17.49084364 14.50893138 16.30859486 21.66943081 13 30 C12.34 30 11.68 30 11 30 C11.165 28.88625 11.33 27.7725 11.5 26.625 C12.27110344 20.43414098 12.74772988 14.04770023 11 8 C10.0925 8.226875 9.185 8.45375 8.25 8.6875 C5 9 5 9 3.1875 7.625 C-0.18489064 5.11979552 -3.89533814 5.2543487 -8 5 C-8 4.67 -8 4.34 -8 4 C-7.05125 3.896875 -6.1025 3.79375 -5.125 3.6875 C-2 3 -2 3 0 0 Z " fill="#E6ABA4" transform="translate(52,22)" />
<path d="M0 0 C2.37579988 2.92406139 4.65557439 5.89455067 6.875 8.9375 C13.97829018 18.38469701 13.97829018 18.38469701 18.875 19.875 C19.225625 19.895625 19.225625 19.895625 21 20 C19.74194623 15.49197399 18.09592835 12.5087188 15 9 C18.80864206 10.49625224 20.86359354 12.51844874 23 16 C22.75 19.3125 22.75 19.3125 22 22 C18.9375 22.4375 18.9375 22.4375 15 22 C12.31252267 19.96386646 10.19923148 17.54218094 8 15 C7.43796875 14.47019531 6.8759375 13.94039062 6.296875 13.39453125 C5 12 5 12 5 10 C4.38125 9.71125 3.7625 9.4225 3.125 9.125 C1 8 1 8 -1 6 C-3.7598588 6.40402057 -6.14314048 7.45834398 -8.6875 8.5625 C-13.1601238 10.29764219 -17.26056409 10.29621474 -22 10 C-22 9.67 -22 9.34 -22 9 C-21.32195313 8.92523438 -20.64390625 8.85046875 -19.9453125 8.7734375 C-12.5458081 7.72807815 -5.43721432 5.43721432 0 0 Z " fill="#4E270E" transform="translate(60,58)" />
<path d="M0 0 C1.98 0 3.96 0 6 0 C3.89421628 2.10578372 1.80872776 4.16675016 -0.4375 6.125 C-6.67851762 13.12711733 -8.7551296 19.71901966 -8.359375 29.07421875 C-7.63562119 34.96651879 -5.13862189 38.00408921 -1 42 C-1 42.66 -1 43.32 -1 44 C-0.5978125 44.144375 -0.5978125 44.144375 1.4375 44.875 C4 46 4 46 5 48 C-0.91501512 46.08631864 -5.17396249 42.73662493 -8.3125 37.4375 C-11.46412597 31.01752116 -12.29236437 24.2323402 -10.17578125 17.30078125 C-9.18267857 14.83094596 -8.11331824 12.41760713 -7 10 C-6.68804688 9.09894531 -6.37609375 8.19789062 -6.0546875 7.26953125 C-5.70664062 6.52058594 -5.35859375 5.77164062 -5 5 C-4.01 4.67 -3.02 4.34 -2 4 C-0.8125 1.9375 -0.8125 1.9375 0 0 Z " fill="#553429" transform="translate(29,18)" />
<path d="M0 0 C2.54283234 -0.10871967 5.08095088 -0.18762401 7.625 -0.25 C8.33785156 -0.28351562 9.05070312 -0.31703125 9.78515625 -0.3515625 C15.93710731 -0.46444234 19.15766337 1.63138614 23.875 5.5625 C25 7 25 7 25 10 C24.01 10 23.02 10 22 10 C22 9.34 22 8.68 22 8 C21.34 8 20.68 8 20 8 C19 7 18 6 17 5 C11.28508558 3.09502853 4.79402209 2.65919055 -0.71875 5.3046875 C-2.89972612 6.78463558 -4.95248673 8.34270787 -7 10 C-7.33 10.165 -7.33 10.165 -9 11 C-8.63856094 8.30354986 -8.35462226 7.27140224 -6.15234375 5.5859375 C-5.42144531 5.18632812 -4.69054688 4.78671875 -3.9375 4.375 C-1.71484375 3.1484375 -1.71484375 3.1484375 0 2 C0 1.34 0 0.68 0 0 Z " fill="#F9E2DB" transform="translate(40,19)" />
<path d="M0 0 C0.66 0 1.32 0 2 0 C1.88098517 4.96616441 1.76604648 8.08074422 -1.5 12 C-2.325 12.66 -3.15 13.32 -4 14 C-4.33 14.33 -4.66 14.66 -5 15 C-6.7872057 15.15135944 -8.58161876 15.22175778 -10.375 15.25 C-10.86355469 15.26289062 -10.86355469 15.26289062 -13.3359375 15.328125 C-16 15 -16 15 -17.8515625 13.484375 C-18.04105469 13.23945312 -18.04105469 13.23945312 -19 12 C-18.34 11.01 -17.68 10.02 -17 9 C-16.34 9.33 -15.68 9.66 -15 10 C-7.72371638 10.46943765 -7.72371638 10.46943765 -4.6875 8.5 C-4.130625 8.005 -3.57375 7.51 -3 7 C-2.01 7 -1.02 7 0 7 C0 4.69 0 2.38 0 0 Z " fill="#F7C0B7" transform="translate(53,40)" />
<path d="M0 0 C0.26039062 0.16371094 0.26039062 0.16371094 1.578125 0.9921875 C4.74712009 2.31089836 7.3298619 2.19340276 10.75 2.125 C11.92046875 2.10695312 13.0909375 2.08890625 14.296875 2.0703125 C15.18890625 2.04710937 16.0809375 2.02390625 17 2 C16.67 2.99 16.34 3.98 16 5 C17.32 5.66 18.64 6.32 20 7 C18.09384267 8.90615733 14.91591302 8.26168174 12.375 8.3125 C6.27760197 8.2938345 2.82707712 7.67777305 -2 4 C-1.34 3.67 -0.68 3.34 0 3 C0 2.01 0 1.02 0 0 Z " fill="#ECB3AE" transform="translate(30,58)" />
<path d="M0 0 C3 1 3 1 4.1875 3.0625 C5.72474955 8.62024836 5.70695569 13.04424006 3.3125 18.25 C1.34214723 21.71864185 -0.36489305 24.14205645 -4 26 C-7.0785509 26.01554824 -9.98599698 25.6041139 -13 25 C-13 24.67 -13 24.34 -13 24 C-12.40832031 23.91363281 -11.81664062 23.82726562 -11.20703125 23.73828125 C-7.17947674 23.02212555 -4.41122621 22.28271802 -1 19.9375 C1.64157591 16.05768539 2.47613005 12.68477962 2 8 C0.0625 5.0625 0.0625 5.0625 -2 3 C-2 2.34 -2 1.68 -2 1 C-1.34 0.67 -0.68 0.34 0 0 Z " fill="#961B28" transform="translate(52,32)" />
<path d="M0 0 C3.61752706 1.57210288 6.29838306 3.77723188 9.25 6.375 C10.14203125 7.14585938 11.0340625 7.91671875 11.953125 8.7109375 C14 11 14 11 14 15 C8.98490396 13.71706845 6.44503751 11.82781946 3 8 C2.34 7.34 1.68 6.68 1 6 C0.60235737 4.01178687 0.26224651 2.01055661 0 0 Z " fill="#C78B50" transform="translate(67,62)" />
<path d="M0 0 C5.36797753 4.95505618 5.36797753 4.95505618 6 9 C7.34269523 13.47565078 9.28727724 15.23925744 13 18 C13.33 18.66 13.66 19.32 14 20 C15.64363134 20.72159424 17.31050386 21.39351421 19 22 C19 22.33 19 22.66 19 23 C15.55041939 23.44351751 14.3151899 23.2403323 11.5 21.09375 C1.08861354 10.29193654 1.08861354 10.29193654 -1 5 C-0.8125 2 -0.8125 2 0 0 Z " fill="#9E6339" transform="translate(62,55)" />
<path d="M0 0 C3.69230769 0.69230769 3.69230769 0.69230769 5 2 C5.35688621 5.78299385 5.52053657 8.15412807 3.5 11.4375 C-0.18144512 13.7384032 -2.69368174 13.34728373 -7 13 C-7.66 12.67 -8.32 12.34 -9 12 C-9 10.35 -9 8.7 -9 7 C-8.34 6.67 -7.68 6.34 -7 6 C-6.67 6.495 -6.67 6.495 -5 9 C-1.9375 9.25 -1.9375 9.25 1 9 C2 8 2 8 2.0625 5.4375 C2.041875 4.633125 2.02125 3.82875 2 3 C1.34 3 0.68 3 0 3 C-0.66 3.66 -1.32 4.32 -2 5 C-1.125 1.125 -1.125 1.125 0 0 Z " fill="#A13B3B" transform="translate(45,38)" />
<path d="M0 0 C1.65 0 3.3 0 5 0 C6.90608098 3.21182149 7.22266247 5.53882603 7.125 9.25 C7.10695313 10.14203125 7.08890625 11.0340625 7.0703125 11.953125 C7.05871094 12.29085937 7.05871094 12.29085937 7 14 C6.34 14 5.68 14 5 14 C4.87625 14.969375 4.7525 15.93875 4.625 16.9375 C4.41875 17.948125 4.2125 18.95875 4 20 C3.34 20.33 2.68 20.66 2 21 C2.01160156 20.45150391 2.01160156 20.45150391 2.0703125 17.67578125 C2.08907921 16.221361 2.10727844 14.76693336 2.125 13.3125 C2.14175781 12.59126953 2.15851562 11.87003906 2.17578125 11.12695312 C2.21391569 6.95123219 1.8789919 3.7505862 0 0 Z " fill="#992E2E" transform="translate(58,30)" />
<path d="M0 0 C0.66 0.66 1.32 1.32 2 2 C2.99 1.34 3.98 0.68 5 0 C5.04898437 0.78246094 5.09796875 1.56492188 5.1484375 2.37109375 C5.22320313 3.38300781 5.29796875 4.39492188 5.375 5.4375 C5.40980469 5.94216797 5.40980469 5.94216797 5.5859375 8.49609375 C5.72257812 9.32238281 5.85921875 10.14867187 6 11 C6.66 11.33 7.32 11.66 8 12 C7.34 12 6.68 12 6 12 C5.34 13.65 4.68 15.3 4 17 C0.75101933 12.90345916 -0.13007859 10.01605176 -0.0625 4.8125 C-0.05347656 3.91144531 -0.04445313 3.01039062 -0.03515625 2.08203125 C-0.02355469 1.39496094 -0.01195313 0.70789062 0 0 Z " fill="#D99C9A" transform="translate(26,40)" />
<path d="M0 0 C3.4375 0.8125 3.4375 0.8125 7 2 C7.33 2.99 7.66 3.98 8 5 C8.66 5 9.32 5 10 5 C10.33 5.99 10.66 6.98 11 8 C8.25 8.6875 8.25 8.6875 5 9 C4.401875 8.54625 3.80375 8.0925 3.1875 7.625 C-0.18489064 5.11979552 -3.89533814 5.2543487 -8 5 C-8 4.67 -8 4.34 -8 4 C-7.05125 3.896875 -6.1025 3.79375 -5.125 3.6875 C-2 3 -2 3 0 0 Z " fill="#D49494" transform="translate(52,22)" />
<path d="M0 0 C0.66 0.33 1.32 0.66 2 1 C1.67 6.61 1.34 12.22 1 18 C0.01 17.67 -0.98 17.34 -2 17 C-3.72305453 13.55389094 -3.379435 9.77537825 -3 6 C-1.5 2.4375 -1.5 2.4375 0 0 Z " fill="#FCE4DC" transform="translate(34,34)" />
<path d="M0 0 C2.46581356 3.69872034 2.35881775 5.96332906 2.5625 10.375 C2.77095239 14.68868818 3.01635703 18.78903256 4 23 C0.52078768 19.74525299 -0.91861801 17.85742425 -1.1328125 12.96875 C-1.13023438 11.8240625 -1.12765625 10.679375 -1.125 9.5 C-1.12757812 8.3553125 -1.13015625 7.210625 -1.1328125 6.03125 C-1 3 -1 3 0 0 Z " fill="#BB8E8A" transform="translate(21,34)" />
<path d="M0 0 C4.875 2.625 4.875 2.625 6 6 C5.72230092 8.3406065 5.39460023 10.67624308 5 13 C4.01 13.33 3.02 13.66 2 14 C1.9175 12.72125 1.835 11.4425 1.75 10.125 C1.48828125 7.9140625 1.48828125 7.9140625 1 6 C-1.0625 4.5 -1.0625 4.5 -3 4 C-3 3.34 -3 2.68 -3 2 C-2.01 1.34 -1.02 0.68 0 0 Z " fill="#FAD0C7" transform="translate(48,34)" />
<path d="M0 0 C0.33 0 0.66 0 1 0 C1.23074219 0.88042969 1.46148438 1.76085938 1.69921875 2.66796875 C4.83644767 13.84047173 4.83644767 13.84047173 10 18 C10 18.66 10 19.32 10 20 C10.4021875 20.144375 10.4021875 20.144375 12.4375 20.875 C15 22 15 22 16 24 C9.57658728 21.92183706 4.91923456 17.99815984 1.74609375 12.046875 C0.32981428 8.16137529 0.16513696 4.10365345 0 0 Z " fill="#4C2119" transform="translate(18,42)" />
<path d="M0 0 C0.99 0.33 1.98 0.66 3 1 C2.30132812 1.38671875 1.60265625 1.7734375 0.8828125 2.171875 C0.42777344 2.43226562 0.42777344 2.43226562 -1.875 3.75 C-2.77992187 4.26046875 -3.68484375 4.7709375 -4.6171875 5.296875 C-7.13962141 7.09979498 -7.84260264 8.19553717 -9 11 C-10.3050581 12.68889872 -11.63360658 14.3603279 -13 16 C-12.75331325 11.80632522 -12.44696258 9.5462876 -9.75 6.25 C-6.65885541 3.7208817 -3.56141973 1.78070987 0 0 Z " fill="#FBF1E7" transform="translate(39,20)" />
<path d="M0 0 C1.98 0.33 1.98 0.33 12 2 C12 2.33 12 2.66 12 3 C11.69126953 3.00128906 11.69126953 3.00128906 10.12890625 3.0078125 C2.85724622 3.33985177 -1.28511941 5.66457335 -7 10 C-7.33 10.165 -7.33 10.165 -9 11 C-8.63856094 8.30354986 -8.35462226 7.27140224 -6.15234375 5.5859375 C-5.42144531 5.18632812 -4.69054688 4.78671875 -3.9375 4.375 C-1.71484375 3.1484375 -1.71484375 3.1484375 0 2 C0 1.34 0 0.68 0 0 Z " fill="#F6CEC9" transform="translate(40,19)" />
<path d="M0 0 C0.33 0 0.66 0 1 0 C0.82585701 4.44064628 0.3818087 6.54182956 -2.5 10 C-5.35959442 12.1412085 -7.36800362 12.19417626 -10.875 11.8125 C-12.25507163 11.56882399 -13.63259929 11.30690549 -15 11 C-15 10.67 -15 10.34 -15 10 C-14.40832031 9.91363281 -13.81664062 9.82726563 -13.20703125 9.73828125 C-7.67794944 8.75513293 -4.59167862 7.60183823 -1 3 C-0.67 2.01 -0.34 1.02 0 0 Z " fill="#8C2C2A" transform="translate(54,46)" />
<path d="M0 0 C1.093125 0.0825 2.18625 0.165 3.3125 0.25 C2.9825 0.91 2.6525 1.57 2.3125 2.25 C1.6525 2.25 0.9925 2.25 0.3125 2.25 C-0.0175 2.91 -0.3475 3.57 -0.6875 4.25 C-1.3475 3.92 -2.0075 3.59 -2.6875 3.25 C-3.0175 5.23 -3.3475 7.21 -3.6875 9.25 C-4.6775 9.25 -5.6675 9.25 -6.6875 9.25 C-6.9264871 6.38215478 -6.83570847 4.57257137 -5.625 1.9375 C-3.6875 0.25 -3.6875 0.25 0 0 Z " fill="#FCEBE5" transform="translate(44.6875,33.75)" />
<path d="M0 0 C0.49693359 0.00902344 0.49693359 0.00902344 3.01171875 0.0546875 C3.77097656 0.07789062 4.53023437 0.10109375 5.3125 0.125 C4.9825 0.785 4.6525 1.445 4.3125 2.125 C3.6525 2.125 2.9925 2.125 2.3125 2.125 C1.9825 2.785 1.6525 3.445 1.3125 4.125 C-1.9875 4.125 -5.2875 4.125 -8.6875 4.125 C-8.6875 3.465 -8.6875 2.805 -8.6875 2.125 C-5.26655758 -0.15562828 -4.00562778 -0.09425007 0 0 Z " fill="#CF9695" transform="translate(47.6875,30.875)" />
<path d="M0 0 C0.639375 0.309375 1.27875 0.61875 1.9375 0.9375 C5.92049104 2.31935403 9.81650849 2.6536543 14 3 C14 3.33 14 3.66 14 4 C8.72 4.66 3.44 5.32 -2 6 C-1.34 4.02 -0.68 2.04 0 0 Z " fill="#AA3838" transform="translate(32,52)" />
<path d="M0 0 C2 0 2 0 4.4375 2.25 C7 5 7 5 8.5 7.1875 C10.39167089 9.473269 12.21472937 10.09666899 15 11 C15 11.33 15 11.66 15 12 C12.83203125 12.3046875 12.83203125 12.3046875 10 12 C7.32421875 9.8828125 7.32421875 9.8828125 4.6875 7.125 C3.80449219 6.22007813 2.92148438 5.31515625 2.01171875 4.3828125 C0 2 0 2 0 0 Z " fill="#94551C" transform="translate(66,66)" />
<path d="M0 0 C0.66 0 1.32 0 2 0 C1.64989059 8.19256018 1.64989059 8.19256018 -1.0625 11.5625 C-1.701875 12.036875 -2.34125 12.51125 -3 13 C-3.33 12.01 -3.66 11.02 -4 10 C-4.66 9.67 -5.32 9.34 -6 9 C-2.25 7 -2.25 7 0 7 C0 4.69 0 2.38 0 0 Z " fill="#F1B1AA" transform="translate(53,40)" />
<path d="M0 0 C3.69230769 0.69230769 3.69230769 0.69230769 5 2 C5.25 5.4375 5.25 5.4375 5 9 C4.01 9.66 3.02 10.32 2 11 C2 8.33333333 2 5.66666667 2 3 C1.34 3 0.68 3 0 3 C-0.66 3.66 -1.32 4.32 -2 5 C-1.125 1.125 -1.125 1.125 0 0 Z " fill="#B77776" transform="translate(45,38)" />
<path d="M0 0 C0.99 0.66 1.98 1.32 3 2 C3.29296875 4.8203125 3.29296875 4.8203125 3.1875 8.125 C3.16042969 9.22070312 3.13335937 10.31640625 3.10546875 11.4453125 C3.07066406 12.28835937 3.03585938 13.13140625 3 14 C2.67 14 2.34 14 2 14 C1.49242138 12.58603098 0.99425075 11.16868271 0.5 9.75 C0.36078125 9.35554688 0.36078125 9.35554688 -0.34375 7.359375 C-1 5 -1 5 -1 1 C-0.67 0.67 -0.34 0.34 0 0 Z " fill="#F3C3B4" transform="translate(57,31)" />
<path d="M0 0 C3.3 0 6.6 0 10 0 C9.34 1.32 8.68 2.64 8 4 C6.02 4 4.04 4 2 4 C2 3.01 2 2.02 2 1 C1.34 0.67 0.68 0.34 0 0 Z " fill="#C2716C" transform="translate(42,22)" />
<path d="M0 0 C-0.47246642 4.25219775 -2.77272377 6.37314725 -6 9 C-8.3125 8.8125 -8.3125 8.8125 -10 8 C-9.01 7.67 -8.02 7.34 -7 7 C-7 6.34 -7 5.68 -7 5 C-2.47619048 0 -2.47619048 0 0 0 Z " fill="#F5B5B2" transform="translate(58,51)" />
<path d="M0 0 C0.33 0.66 0.66 1.32 1 2 C3.50390625 2.4140625 3.50390625 2.4140625 6.5625 2.625 C7.06845703 2.66238281 7.06845703 2.66238281 9.62890625 2.8515625 C10.02013672 2.87605469 10.02013672 2.87605469 12 3 C7.98188193 5.28723644 5.52581294 5.0697376 1 4 C-0.9375 2.4375 -0.9375 2.4375 -2 1 C-1.34 0.67 -0.68 0.34 0 0 Z " fill="#E5B4B1" transform="translate(30,60)" />
<path d="M0 0 C0.66 0 1.32 0 2 0 C3.09845718 4.32059823 4.17812739 8.61667943 5 13 C2.53686261 11.17251097 1.16571382 9.77023784 0.51171875 6.73046875 C0.27481707 4.48520654 0.09638651 2.25544422 0 0 Z " fill="#8F5E5B" transform="translate(20,44)" />
<path d="M0 0 C0.33 0.66 0.66 1.32 1 2 C1.66 2 2.32 2 3 2 C3 4.31 3 6.62 3 9 C2.01 9.33 1.02 9.66 0 10 C-0.19412181 8.52168779 -0.38012131 7.04230684 -0.5625 5.5625 C-0.66691406 4.73878906 -0.77132812 3.91507813 -0.87890625 3.06640625 C-0.91886719 2.38449219 -0.95882812 1.70257813 -1 1 C-0.67 0.67 -0.34 0.34 0 0 Z " fill="#EECABB" transform="translate(50,38)" />
<path d="M0 0 C0.66 0.66 1.32 1.32 2 2 C1.09674384 3.32176485 0.17682097 4.63215066 -0.75 5.9375 C-1.26046875 6.66839844 -1.7709375 7.39929687 -2.296875 8.15234375 C-4.19177915 10.20805399 -5.27425729 10.62669176 -8 11 C-7.34 10.01 -6.68 9.02 -6 8 C-5.34 8 -4.68 8 -4 8 C-3.71125 7.4225 -3.4225 6.845 -3.125 6.25 C-2.08333333 4.16666667 -1.04166667 2.08333333 0 0 Z " fill="#AA6868" transform="translate(59,50)" />
<path d="M0 0 C2.62386487 3.06117568 3 3.73173127 3 8 C1.0625 7.1875 1.0625 7.1875 -1 6 C-1.33 5.01 -1.66 4.02 -2 3 C-1.34 2.01 -0.68 1.02 0 0 Z " fill="#F6DBD5" transform="translate(27,53)" />
<path d="M0 0 C0.66 0.66 1.32 1.32 2 2 C2.66 1.67 3.32 1.34 4 1 C4 2.98 4 4.96 4 7 C2.68 7.33 1.36 7.66 0 8 C0 5.36 0 2.72 0 0 Z " fill="#D18C91" transform="translate(26,40)" />
<path d="M0 0 C0.66 0.66 1.32 1.32 2 2 C0.68 4.64 -0.64 7.28 -2 10 C-2.99 9.67 -3.98 9.34 -5 9 C-4.5206753 4.68607774 -3.2542015 2.83430453 0 0 Z " fill="#FED9D4" transform="translate(29,30)" />
<path d="M0 0 C0.33 0.66 0.66 1.32 1 2 C1.66 2 2.32 2 3 2 C2.34 3.32 1.68 4.64 1 6 C0.67 5.34 0.34 4.68 0 4 C-1.32 5.65 -2.64 7.3 -4 9 C-3.46930939 5.17902761 -2.50298434 2.93828597 0 0 Z " fill="#F7D2CA" transform="translate(35,31)" />
<path d="M0 0 C0.92389881 3.44226816 1.31142059 6.41866323 1 10 C0.505 10.33 0.505 10.33 -2 12 C-3.12377697 8.69564916 -2.89554742 6.9493138 -1.5625 3.75 C-1.27503906 3.04359375 -0.98757812 2.3371875 -0.69140625 1.609375 C-0.46324219 1.07828125 -0.23507813 0.5471875 0 0 Z " fill="#D28B85" transform="translate(63,44)" />
<path d="M0 0 C0.99 0.33 1.98 0.66 3 1 C3.33 1.99 3.66 2.98 4 4 C3.01 4.99 2.02 5.98 1 7 C-2 3.25 -2 3.25 -2 1 C-1.34 0.67 -0.68 0.34 0 0 Z " fill="#A43D3D" transform="translate(52,32)" />
<path d="M0 0 C0.99 0.99 1.98 1.98 3 3 C1.84826645 5.46800047 0.95216435 7.04783565 -1 9 C-1.125 2.25 -1.125 2.25 0 0 Z " fill="#C17675" transform="translate(28,35)" />
<path d="M0 0 C2 2 2 2 2 4 C1.69963086 6.67113987 1.34400046 9.33399642 1 12 C0.67 12 0.34 12 0 12 C-0.19477739 10.37585622 -0.38059458 8.75063577 -0.5625 7.125 C-0.66691406 6.22007813 -0.77132813 5.31515625 -0.87890625 4.3828125 C-1 2 -1 2 0 0 Z " fill="#DEB4B0" transform="translate(23,30)" />
<path d="M0 0 C1.5 1.375 1.5 1.375 3 3 C3 3.66 3 4.32 3 5 C3.804375 5.28875 4.60875 5.5775 5.4375 5.875 C8 7 8 7 9 9 C5.57308643 7.76250343 2.64697231 6.5489363 0 4 C0 2.68 0 1.36 0 0 Z " fill="#4E2B23" transform="translate(25,57)" />
<path d="M0 0 C0.99 0.33 1.98 0.66 3 1 C2.34 3.31 1.68 5.62 1 8 C0.34 8 -0.32 8 -1 8 C-0.67 5.36 -0.34 2.72 0 0 Z " fill="#DFA49E" transform="translate(64,44)" />
<path d="M0 0 C1.98 0 3.96 0 6 0 C4.1875 2 4.1875 2 2 4 C1.01 4 0.02 4 -1 4 C-0.67 2.68 -0.34 1.36 0 0 Z " fill="#604036" transform="translate(29,18)" />
<path d="M0 0 C2.31 0.33 4.62 0.66 7 1 C7 1.66 7 2.32 7 3 C4.36 3 1.72 3 -1 3 C-0.67 2.01 -0.34 1.02 0 0 Z " fill="#FFEAEA" transform="translate(45,27)" />
<path d="M0 0 C0 0.66 0 1.32 0 2 C-3.81756824 3.37432457 -7.07255329 2.67975039 -11 2 C-11 1.67 -11 1.34 -11 1 C-7.26513121 0.4254048 -3.78706732 0 0 0 Z " fill="#8F171B" transform="translate(50,55)" />
<path d="M0 0 C-2 2 -2 2 -5.125 2.125 C-5.599375 2.104375 -5.599375 2.104375 -8 2 C-8.33 1.34 -8.66 0.68 -9 0 C-3.375 -1.125 -3.375 -1.125 0 0 Z " fill="#F8BDBA" transform="translate(48,46)" />
<path d="M0 0 C0.99 0.33 1.98 0.66 3 1 C2.67 2.65 2.34 4.3 2 6 C1.01 6 0.02 6 -1 6 C-1.042721 4.33388095 -1.04063832 2.66617115 -1 1 C-0.67 0.67 -0.34 0.34 0 0 Z " fill="#FAE2DA" transform="translate(39,37)" />
</svg>