<?xml version='1.0' encoding='utf-8'?>
<svg xmlns="http://www.w3.org/2000/svg" version="1.1" width="101" height="94">
<path d="M0 0 C8.91463843 3.90379591 15.04017879 14.80153384 19.078125 23.2578125 C20.30232684 25.57134649 21.62891252 25.9940841 24 27 C24.99 27.66 25.98 28.32 27 29 C26.125 33.875 26.125 33.875 25 35 C23.48071962 35.07179964 21.95832518 35.08392007 20.4375 35.0625 C19.61121094 35.05347656 18.78492188 35.04445312 17.93359375 35.03515625 C17.29550781 35.02355469 16.65742187 35.01195312 16 35 C16 34.01 16 33.02 16 32 C15.29230469 31.9484375 14.58460937 31.896875 13.85546875 31.84375 C10.02643484 30.71232548 7.94813648 28.34720458 5.3125 25.5 C0.18353293 20.09176647 0.18353293 20.09176647 -2 19 C6.30663987 29.09449282 17.13462227 40.06731114 29 46 C29 47.32 29 48.64 29 50 C22.65782944 52.30178048 16.38028513 53.84927765 9.75 55.0625 C-0.32023968 56.91715213 -0.32023968 56.91715213 -5 59 C-10.00960619 60.13854686 -14.89414936 60.10211701 -20 60 C-20.125 54.25 -20.125 54.25 -19 52 C-24.94 52 -30.88 52 -37 52 C-38.13773378 47.44906489 -37.83764265 47.16963094 -35.8125 43.25 C-32.52238044 35.8929271 -31.50549226 28.30017868 -30.3449707 20.36621094 C-30.19632568 19.35977539 -30.04768066 18.35333984 -29.89453125 17.31640625 C-29.83189087 16.86495239 -29.83189087 16.86495239 -29.51489258 14.58032227 C-28.9748892 11.87416027 -28.09983852 9.52533391 -27 7 C-25.18359375 7.20703125 -25.18359375 7.20703125 -23 8 C-21.47265625 10.07421875 -21.47265625 10.07421875 -20.0625 12.6875 C-17.02801851 18.0438196 -14.20735718 22.52842855 -9 26 C-9 26.66 -9 27.32 -9 28 C-8.34 28 -7.68 28 -7 28 C-7.680625 26.948125 -8.36125 25.89625 -9.0625 24.8125 C-10.59631979 22.44205124 -11.03183523 21.38630833 -10.796875 18.53515625 C-9.94031056 15.81010564 -8.84222311 13.94580153 -7.1875 11.625 C-4.56071243 7.84622366 -2.22705667 4.02583321 0 0 Z " fill="#E3AB2C" transform="translate(55,17)" />
<path d="M0 0 C3.27198486 1.68556796 5.67983258 3.60565876 8.1875 6.25 C12.72752018 10.95002089 18.14010669 15.07005335 24 18 C24 19.32 24 20.64 24 22 C17.65782944 24.30178048 11.38028513 25.84927765 4.75 27.0625 C-5.32023968 28.91715213 -5.32023968 28.91715213 -10 31 C-15.00960619 32.13854686 -19.89414936 32.10211701 -25 32 C-25 31.67 -25 31.34 -25 31 C-23.35 31 -21.7 31 -20 31 C-19.67 29.35 -19.34 27.7 -19 26 C-18.67 26.99 -18.34 27.98 -18 29 C-17.01 28.67 -16.02 28.34 -15 28 C-15.66 28 -16.32 28 -17 28 C-17 27.01 -17 26.02 -17 25 C-16.01 25 -15.02 25 -14 25 C-14.33 24.01 -14.66 23.02 -15 22 C-12.3260876 21.10869587 -9.76276177 20.52268466 -7 20 C-6.67 18.35 -6.34 16.7 -6 15 C-6.99 14.67 -7.98 14.34 -9 14 C-9 13.34 -9 12.68 -9 12 C-8.01 12 -7.02 12 -6 12 C-6 11.01 -6 10.02 -6 9 C-5.01 8.67 -4.02 8.34 -3 8 C0 2.77777778 0 2.77777778 0 0 Z " fill="#D8A110" transform="translate(60,45)" />
<path d="M0 0 C4.40184756 1.20050388 7.1339154 2.39085643 10 6 C11 7.8125 11 7.8125 11 10 C9.84437937 12.4886156 8.47723431 14.67223684 7 17 C6.01 16.67 5.02 16.34 4 16 C4 16.99 4 17.98 4 19 C4.66 19.33 5.32 19.66 6 20 C4.35 19.67 2.7 19.34 1 19 C3 21 3 21 5 22 C4.67 22.825 4.67 22.825 3 27 C2.34 27 1.68 27 1 27 C0.67 27.66 0.34 28.32 0 29 C-0.33 29.33 -0.66 29.66 -1 30 C-1.99 30 -2.98 30 -4 30 C-4 30.66 -4 31.32 -4 32 C-4.99 32 -5.98 32 -7 32 C-7 32.99 -7 33.98 -7 35 C-5.68 34.34 -4.36 33.68 -3 33 C-3.33 33.99 -3.66 34.98 -4 36 C-5.65 36 -7.3 36 -9 36 C-9.33 36.66 -9.66 37.32 -10 38 C-11.65 38 -13.3 38 -15 38 C-14.50759436 32.78050024 -13.31599622 29.20716266 -10.6875 24.6875 C-6.39106828 17.01907372 -3.33634629 9.44679044 -1 1 C-0.67 0.67 -0.34 0.34 0 0 Z " fill="#EEC330" transform="translate(50,38)" />
<path d="M0 0 C0 0.66 0 1.32 0 2 C0.66 2.33 1.32 2.66 2 3 C-0.93846035 11.0853288 -4.81735063 18.50412838 -9 26 C-12.63 26 -16.26 26 -20 26 C-20 25.67 -20 25.34 -20 25 C-18.68 24.835 -18.68 24.835 -12 24 C-12.639375 23.79375 -13.27875 23.5875 -13.9375 23.375 C-16 22 -16 22 -16.75 18.875 C-16.8325 17.92625 -16.915 16.9775 -17 16 C-18.65 16.33 -20.3 16.66 -22 17 C-21.34 13.7 -20.68 10.4 -20 7 C-19.34 7 -18.68 7 -18 7 C-18 5.35 -18 3.7 -18 2 C-14.27034861 -0.03435531 -12.33094958 -1 -8 -1 C-7.34 -1.20625 -6.68 -1.4125 -6 -1.625 C-3.39225482 -2.11395222 -2.21979834 -1.34773471 0 0 Z " fill="#DAA31C" transform="translate(46,43)" />
<path d="M0 0 C4.61401953 1.22135811 6.70062586 3.65510749 9.5703125 7.24609375 C11 9 11 9 12.58984375 10.51171875 C14 12 14 12 15.4375 15.375 C17.4990819 20.15787001 19.66919022 23.11279348 24 26 C24 26.66 24 27.32 24 28 C24.61875 28.309375 25.2375 28.61875 25.875 28.9375 C27.25 29.625 28.625 30.3125 30 31 C29.875 33.25 29.875 33.25 29 36 C25.9375 38.3125 25.9375 38.3125 23 40 C23.1875 41.875 23.1875 41.875 24 44 C26.4375 45.125 26.4375 45.125 29 46 C29.66 46.66 30.32 47.32 31 48 C30.93359375 50.48046875 30.93359375 50.48046875 30 53 C23.6564064 57.01799304 16.30882804 57.57075447 9 57 C9 56.67 9 56.34 9 56 C15.6 54.68 22.2 53.36 29 52 C29 50.68 29 49.36 29 48 C28.26394531 47.73574219 27.52789062 47.47148438 26.76953125 47.19921875 C18.58602421 43.65572558 11.84174814 36.12172491 5.375 30.125 C4.65143311 29.45831299 3.92786621 28.79162598 3.18237305 28.10473633 C2.51117432 27.47462646 1.83997559 26.8445166 1.1484375 26.1953125 C0.54177246 25.62828613 -0.06489258 25.06125977 -0.68994141 24.47705078 C-2 23 -2 23 -2 21 C2.59076711 22.9154221 5.34532607 26.32994932 8.68359375 29.90625 C11.0579491 32.05237895 12.97917987 33.01969858 16 34 C16 34.99 16 35.98 16 37 C17.485 36.835 17.485 36.835 25 36 C25.66 34.35 26.32 32.7 27 31 C26.443125 30.773125 25.88625 30.54625 25.3125 30.3125 C17.82243704 26.06138318 13.39726411 17.7369117 8.875 10.6875 C6.83334819 7.76113241 4.65781545 5.3780454 2 3 C1.34 3 0.68 3 0 3 C-1.65 5.97 -3.3 8.94 -5 12 C-5.33 11.34 -5.66 10.68 -6 10 C-5.29296875 8.125 -5.29296875 8.125 -4.1875 6 C-3.83042969 5.29875 -3.47335938 4.5975 -3.10546875 3.875 C-2 2 -2 2 0 0 Z " fill="#72550A" transform="translate(55,15)" />
<path d="M0 0 C4.18508513 1.95666318 7.35635955 4.15894593 10 8 C11.04418138 11.30000718 11.60633445 14.56560748 12 18 C10.68 17.67 9.36 17.34 8 17 C8 17.66 8 18.32 8 19 C7.34 19 6.68 19 6 19 C6 18.34 6 17.68 6 17 C5.01 17 4.02 17 3 17 C3 17.66 3 18.32 3 19 C1.35 18.67 -0.3 18.34 -2 18 C-2 17.01 -2 16.02 -2 15 C-3.65 14.67 -5.3 14.34 -7 14 C-7.33 14.66 -7.66 15.32 -8 16 C-7.32599282 12.08885974 -5.45743967 9.12880818 -3.4375 5.75 C-2.79683594 4.67234375 -2.15617187 3.5946875 -1.49609375 2.484375 C-1.00238281 1.66453125 -0.50867187 0.8446875 0 0 Z " fill="#E7AE36" transform="translate(55,17)" />
<path d="M0 0 C0.33 0 0.66 0 1 0 C0.55953028 11.96862553 -0.20040748 23.22932818 -6 34 C-6 34.99 -6 35.98 -6 37 C-0.06 37.33 5.88 37.66 12 38 C11.67 40.64 11.34 43.28 11 46 C18.62455405 45.14613031 25.96232093 44.31710422 33.19140625 41.59765625 C35.50611842 40.83275137 37.58361625 40.76615641 40 41 C34.40701788 46.59298212 23.802129 47.27349107 16.25 47.3125 C10.37470726 47.18735363 10.37470726 47.18735363 8 46 C8 45.34 8 44.68 8 44 C7.505 43.835 7.505 43.835 5 43 C5 42.34 5 41.68 5 41 C1.04 41 -2.92 41 -7 41 C-9.06005405 35.84986488 -9.15788283 35.38834708 -7.14331055 30.68261719 C-6.99591431 30.35342285 -6.99591431 30.35342285 -6.25 28.6875 C-3.29188874 21.55474903 -2.03427874 14.99371889 -1.32421875 7.328125 C-1.07295951 4.74893378 -0.73050654 2.47248368 0 0 Z " fill="#6F5722" transform="translate(24,31)" />
<path d="M0 0 C0.4125 0.66 0.825 1.32 1.25 2 C1.8275 2.66 2.405 3.32 3 4 C4.32 4 5.64 4 7 4 C7 4.66 7 5.32 7 6 C7.66 6.33 8.32 6.66 9 7 C8.67 7.99 8.34 8.98 8 10 C8.66 10 9.32 10 10 10 C10.33 9.34 10.66 8.68 11 8 C11.66 9.65 12.32 11.3 13 13 C10.195 13.165 10.195 13.165 -4 14 C-5.14897419 9.40410325 -4.7140729 8.73828148 -2.5625 4.75 C-2.08941406 3.85796875 -1.61632812 2.9659375 -1.12890625 2.046875 C-0.75636719 1.37140625 -0.38382813 0.6959375 0 0 Z " fill="#E4C25F" transform="translate(22,55)" />
<path d="M0 0 C5.5 -0.36666667 5.5 -0.36666667 7.875 1.375 C9 3 9 3 9 5 C9.598125 5.28875 10.19625 5.5775 10.8125 5.875 C13 7 13 7 16 9 C15.125 13.875 15.125 13.875 14 15 C11.32941149 15.14115161 8.67567762 15.04247107 6 15 C5.731875 14.278125 5.46375 13.55625 5.1875 12.8125 C4 10 4 10 2.4375 7.5 C0.96737241 4.94325637 0.41424836 2.89973855 0 0 Z " fill="#E1A832" transform="translate(66,37)" />
<path d="M0 0 C1.875 0.625 1.875 0.625 4 2 C5.25 5.125 5.25 5.125 6 8 C5.01 8 4.02 8 3 8 C2.9484375 8.37125 2.9484375 8.37125 2.6875 10.25 C2 13 2 13 0.4375 15.0625 C-1 17 -1 17 -1 21 C-1.66 21 -2.32 21 -3 21 C-3 21.66 -3 22.32 -3 23 C-3.99 23 -4.98 23 -6 23 C-7 17.25 -7 17.25 -7 15 C-7.66 14.67 -8.32 14.34 -9 14 C-9 13.34 -9 12.68 -9 12 C-8.01 12 -7.02 12 -6 12 C-6 11.01 -6 10.02 -6 9 C-5.01 8.67 -4.02 8.34 -3 8 C0 2.77777778 0 2.77777778 0 0 Z " fill="#E1AF1E" transform="translate(60,45)" />
<path d="M0 0 C0.42410156 0.37511719 0.84820312 0.75023437 1.28515625 1.13671875 C4.40583711 3.85959853 7.53950199 6.44083608 10.9375 8.8125 C11.4428125 9.1734375 11.4428125 9.1734375 14 11 C14 11.33 14 11.66 14 12 C12.02 12.66 10.04 13.32 8 14 C8 14.99 8 15.98 8 17 C7.01 17 6.02 17 5 17 C5 15.68 5 14.36 5 13 C2.6875 12.8125 2.6875 12.8125 0 13 C-1.625 14.5 -1.625 14.5 -3 16 C-3.99 16 -4.98 16 -6 16 C-5.731875 15.484375 -5.46375 14.96875 -5.1875 14.4375 C-4.21102263 12.43315171 -3.34009255 10.37772751 -2.5 8.3125 C-1 5 -1 5 1 4 C0.67 2.68 0.34 1.36 0 0 Z " fill="#D29C0D" transform="translate(64,48)" />
<path d="M0 0 C4.61401953 1.22135811 6.70062586 3.65510749 9.5703125 7.24609375 C11 9 11 9 12.58984375 10.51171875 C14 12 14 12 15.4375 15.375 C17.4990819 20.15787001 19.66919022 23.11279348 24 26 C24 26.66 24 27.32 24 28 C24.61875 28.309375 25.2375 28.61875 25.875 28.9375 C27.25 29.625 28.625 30.3125 30 31 C29.67 32.32 29.34 33.64 29 35 C27.33333333 33.33333333 25.66666667 31.66666667 24 30 C23.195625 29.236875 22.39125 28.47375 21.5625 27.6875 C17.0800847 22.98643029 13.46697038 17.75150436 9.9375 12.3125 C7.58254086 8.73988483 5.24541013 5.79465873 2 3 C1.34 3 0.68 3 0 3 C-1.65 5.97 -3.3 8.94 -5 12 C-5.33 11.34 -5.66 10.68 -6 10 C-5.29296875 8.125 -5.29296875 8.125 -4.1875 6 C-3.83042969 5.29875 -3.47335938 4.5975 -3.10546875 3.875 C-2 2 -2 2 0 0 Z " fill="#705415" transform="translate(55,15)" />
<path d="M0 0 C0.33 0.66 0.66 1.32 1 2 C2.84765625 2.6328125 2.84765625 2.6328125 5.0625 3.125 C5.79597656 3.29257813 6.52945313 3.46015625 7.28515625 3.6328125 C7.85105469 3.75398438 8.41695312 3.87515625 9 4 C6 6 6 6 3 6 C3 7.32 3 8.64 3 10 C-2.83799592 11.69832609 -7.93107371 12.25287193 -14 12 C-14 11.67 -14 11.34 -14 11 C-12.35 11 -10.7 11 -9 11 C-8.67 9.35 -8.34 7.7 -8 6 C-7.67 6.99 -7.34 7.98 -7 9 C-6.01 8.67 -5.02 8.34 -4 8 C-4.66 8 -5.32 8 -6 8 C-6 7.01 -6 6.02 -6 5 C-5.01 5 -4.02 5 -3 5 C-3.33 4.01 -3.66 3.02 -4 2 C-3.01 1.67 -2.02 1.34 -1 1 C-0.67 0.67 -0.34 0.34 0 0 Z " fill="#E2B21F" transform="translate(49,65)" />
<path d="M0 0 C2.875 1.25 2.875 1.25 5 3 C5 4.32 5 5.64 5 7 C-0.76081841 8.2982126 -6.08739655 9.25706972 -12 9 C-10.68 8.34 -9.36 7.68 -8 7 C-8.33 6.34 -8.66 5.68 -9 5 C-8.34 5 -7.68 5 -7 5 C-7.33 3.68 -7.66 2.36 -8 1 C-5.17998673 -0.41000664 -3.12992745 -0.24548451 0 0 Z " fill="#E0AD19" transform="translate(79,60)" />
<path d="M0 0 C3.80097811 0.54299687 5.57457897 2.07276772 8 5 C9 6.8125 9 6.8125 9 9 C7.84437937 11.4886156 6.47723431 13.67223684 5 16 C4.01 15.67 3.02 15.34 2 15 C2 15.99 2 16.98 2 18 C2.66 18.33 3.32 18.66 4 19 C2.02 18.67 0.04 18.34 -2 18 C-1.67 17.01 -1.34 16.02 -1 15 C-1 14.01 -1 13.02 -1 12 C0.32 12 1.64 12 3 12 C3.08859184 8.19055107 3.05186057 4.681512 2 1 C1.34 0.67 0.68 0.34 0 0 Z " fill="#E9BD29" transform="translate(52,39)" />
<path d="M0 0 C1.765625 0.02734375 1.765625 0.02734375 4 1 C5.73673882 3.16517274 7.25089089 5.24547306 8.75 7.5625 C9.16121094 8.17802734 9.57242188 8.79355469 9.99609375 9.42773438 C11.00763511 10.94504641 12.00519789 12.47166086 13 14 C14.98 11.36 16.96 8.72 19 6 C19 9 19 9 17 12 C17.29812357 16.09919904 17.87367607 19.45612679 20 23 C18 23 18 23 15.8125 21.0625 C10.65408548 15.67448246 5.9908998 9.861476 3 3 C2.01 3 1.02 3 0 3 C-0.66 3.66 -1.32 4.32 -2 5 C-1.125 1.125 -1.125 1.125 0 0 Z " fill="#6D4E0F" transform="translate(28,22)" />
<path d="M0 0 C0.66 0.33 1.32 0.66 2 1 C2 1.66 2 2.32 2 3 C2.66 3.33 3.32 3.66 4 4 C1.50705133 10.67107494 -1.38340123 16.86363979 -5 23 C-5.66 23 -6.32 23 -7 23 C-7 21.68 -7 20.36 -7 19 C-6.34 19 -5.68 19 -5 19 C-5.33 17.35 -5.66 15.7 -6 14 C-5.34 14 -4.68 14 -4 14 C-3.67 11.69 -3.34 9.38 -3 7 C-2.01 7 -1.02 7 0 7 C0 4.69 0 2.38 0 0 Z " fill="#B88609" transform="translate(44,42)" />
<path d="M0 0 C0.66 0 1.32 0 2 0 C3.49821059 3.37097383 4 5.20442119 4 9 C3.34 9 2.68 9 2 9 C1.67 9.66 1.34 10.32 1 11 C0.67257813 11.57234375 0.34515625 12.1446875 0.0078125 12.734375 C-1.24503103 15.55084496 -1.66178311 18.20600328 -2.125 21.25 C-2.29257812 22.32765625 -2.46015625 23.4053125 -2.6328125 24.515625 C-2.75398438 25.33546875 -2.87515625 26.1553125 -3 27 C-3.33 27 -3.66 27 -4 27 C-4.44606924 17.9794887 -3.39968675 9.71596069 -1 1 C-0.67 0.67 -0.34 0.34 0 0 Z " fill="#E8C255" transform="translate(28,24)" />
<path d="M0 0 C2.31 0.33 4.62 0.66 7 1 C7.33 3.31 7.66 5.62 8 8 C7.21625 8.103125 6.4325 8.20625 5.625 8.3125 C3 9 3 9 1 12 C-2.06584362 7.70781893 -2.06584362 7.70781893 -1.75 4.3125 C-1 2 -1 2 0 0 Z " fill="#D9A128" transform="translate(46,31)" />
<path d="M0 0 C4.59076711 1.9154221 7.34532607 5.32994932 10.68359375 8.90625 C13.0579491 11.05237895 14.97917987 12.01969858 18 13 C18 13.99 18 14.98 18 16 C20.31 16 22.62 16 25 16 C23.68 17.32 22.36 18.64 21 20 C17.993182 18.66000502 16.00237391 17.20154709 13.75 14.8125 C10.57837192 11.52441905 7.22490153 8.57806236 3.69921875 5.67578125 C1.90357214 3.90490218 0.98888231 2.30404558 0 0 Z " fill="#905A01" transform="translate(53,36)" />
<path d="M0 0 C2.86207152 1.28299758 5.0245088 2.530636 7 5 C7 5.99 7 6.98 7 8 C5.35 7.67 3.7 7.34 2 7 C2 7.66 2 8.32 2 9 C1.6184375 9.0515625 1.6184375 9.0515625 -0.3125 9.3125 C-3.17059424 10.04364039 -4.15742885 10.76951913 -6 13 C-4.58707905 8.1725201 -2.57025846 4.2837641 0 0 Z " fill="#EEC45D" transform="translate(55,17)" />
<path d="M0 0 C0.66 0 1.32 0 2 0 C2 0.66 2 1.32 2 2 C2.66 2 3.32 2 4 2 C4 2.66 4 3.32 4 4 C3.01 4 2.02 4 1 4 C1.33 4.99 1.66 5.98 2 7 C0.99537873 8.74998544 -0.01362091 10.49820601 -1.07421875 12.21484375 C-2.28482814 14.54922557 -2.31319726 16.41612258 -2 19 C-3.32 19.33 -4.64 19.66 -6 20 C-5.52536397 17.86413786 -5.04995476 15.72849582 -4.5703125 13.59375 C-4.19541902 11.88875497 -3.83556805 10.18036998 -3.4921875 8.46875 C-3.41097656 8.07171875 -3.41097656 8.07171875 -3 6.0625 C-2.855625 5.33160156 -2.71125 4.60070313 -2.5625 3.84765625 C-2 2 -2 2 0 0 Z " fill="#F2C845" transform="translate(50,38)" />
<path d="M0 0 C0.66 0.33 1.32 0.66 2 1 C4.00800456 0.71887936 6.01014051 0.38932033 8 0 C9 2 9 2 8.0625 5.125 C7.711875 6.07375 7.36125 7.0225 7 8 C6.34 8 5.68 8 5 8 C4.67 8.99 4.34 9.98 4 11 C4 9.68 4 8.36 4 7 C2.35 6.67 0.7 6.34 -1 6 C-1.625 4.125 -1.625 4.125 -2 2 C-1.34 1.34 -0.68 0.68 0 0 Z " fill="#E0AA25" transform="translate(33,42)" />
<path d="M0 0 C-2.86782644 1.56605696 -5.45871401 2.43991642 -8.66015625 3.0703125 C-9.09811523 3.15732422 -9.09811523 3.15732422 -11.31445312 3.59765625 C-11.76788086 3.68466797 -11.76788086 3.68466797 -14.0625 4.125 C-14.97322266 4.30675781 -15.88394531 4.48851563 -16.82226562 4.67578125 C-23.57777256 6 -23.57777256 6 -27 6 C-27 5.01 -27 4.02 -27 3 C-22.31016151 1.19452227 -17.91695878 0.59816902 -12.9375 0.375 C-12.59041992 0.35566406 -12.59041992 0.35566406 -10.83398438 0.2578125 C-7.21988137 0.06560949 -3.6189518 -0.04232692 0 0 Z " fill="#C39619" transform="translate(79,68)" />
<path d="M0 0 C0 0.33 0 0.66 0 1 C-2.64 1 -5.28 1 -8 1 C-8 1.66 -8 2.32 -8 3 C-18.20563476 5.73779903 -27.3662573 7.66576476 -38 7 C-38 6.67 -38 6.34 -38 6 C-36.98421875 5.90203125 -35.9684375 5.8040625 -34.921875 5.703125 C-27.08683831 4.87546682 -20.20393467 3.56857857 -12.7734375 0.8203125 C-8.50064517 -0.44347115 -4.40923439 -0.35117796 0 0 Z " fill="#766238" transform="translate(74,72)" />
<path d="M0 0 C-4.72248191 4.72248191 -13.46311426 6.0055056 -20.0390625 6.2578125 C-23.36888332 6.25103079 -26.67545939 6.18188976 -30 6 C-30.33 4.35 -30.66 2.7 -31 1 C-30.67 1.495 -30.67 1.495 -29 4 C-21.96828711 5.35674128 -14.96107274 2.90337812 -8.3125 0.875 C-5.34624907 0.09146202 -3.03983724 -0.18423256 0 0 Z " fill="#6E510C" transform="translate(64,72)" />
<path d="M0 0 C0.66 0.66 1.32 1.32 2 2 C1.690625 2.515625 1.690625 2.515625 0.125 5.125 C-1.30707202 7.59720854 -2.1909503 9.606548 -3.0625 12.375 C-3.371875 13.24125 -3.68125 14.1075 -4 15 C-4.99 15.33 -5.98 15.66 -7 16 C-7.66 16.99 -8.32 17.98 -9 19 C-9.99 18.67 -10.98 18.34 -12 18 C-11 16 -11 16 -8.625 13.8125 C-5.59744529 10.56869139 -4.5516785 8.11194803 -3 4 C-2.67 3.34 -2.34 2.68 -2 2 C-1.34 2 -0.68 2 0 2 C0 1.34 0 0.68 0 0 Z " fill="#77623B" transform="translate(53,14)" />
<path d="M0 0 C1.125 1.75 1.125 1.75 2 4 C1.25 5.75 1.25 5.75 0 8 C-1.75197776 13.97733589 -2.51708665 19.79837586 -3 26 C-3.33 26 -3.66 26 -4 26 C-4.09846262 20.3438697 -4.06795668 14.70847708 -3.6875 9.0625 C-3.62949219 8.18722656 -3.57148438 7.31195313 -3.51171875 6.41015625 C-2.92035328 3.62487001 -1.84659054 2.13372794 0 0 Z " fill="#7A6438" transform="translate(25,25)" />
<path d="M0 0 C1.51953125 1.33203125 1.51953125 1.33203125 3 3 C2.6875 5.6875 2.6875 5.6875 2 8 C1.01 8 0.02 8 -1 8 C-1.33 10.31 -1.66 12.62 -2 15 C-2.66 15 -3.32 15 -4 15 C-4.33 15.66 -4.66 16.32 -5 17 C-4.31063929 13.08878502 -3.21749819 9.44491404 -1.9375 5.6875 C-1.57527344 4.61886719 -1.21304688 3.55023438 -0.83984375 2.44921875 C-0.56269531 1.64097656 -0.28554688 0.83273438 0 0 Z " fill="#CE9715" transform="translate(42,41)" />
<path d="M0 0 C3.37503669 1.1858237 5.64722731 2.27573689 8 5 C7.34 6.32 6.68 7.64 6 9 C5.34 9 4.68 9 4 9 C3.67 7.68 3.34 6.36 3 5 C2.01 5 1.02 5 0 5 C0 3.35 0 1.7 0 0 Z " fill="#F2BF4C" transform="translate(73,41)" />
<path d="M0 0 C1.33332095 2.6666419 0.67102033 4.16680303 0 7 C-0.99 6.67 -1.98 6.34 -3 6 C-3.66 9.3 -4.32 12.6 -5 16 C-5.66 16 -6.32 16 -7 16 C-6.53031881 10.36382567 -5.09327687 5.78582459 -2 1 C-1.34 0.67 -0.68 0.34 0 0 Z " fill="#EFCB4F" transform="translate(42,60)" />
<path d="M0 0 C1.32 0 2.64 0 4 0 C4 0.66 4 1.32 4 2 C4.66 2.33 5.32 2.66 6 3 C5.67 3.99 5.34 4.98 5 6 C5.66 6 6.32 6 7 6 C7.33 5.34 7.66 4.68 8 4 C8.66 5.65 9.32 7.3 10 9 C7.69 8.67 5.38 8.34 3 8 C2.67 6.68 2.34 5.36 2 4 C1.34 4 0.68 4 0 4 C-0.33 3.01 -0.66 2.02 -1 1 C-0.67 0.67 -0.34 0.34 0 0 Z " fill="#E6B738" transform="translate(25,59)" />
<path d="M0 0 C0.66 0.33 1.32 0.66 2 1 C2 2.65 2 4.3 2 6 C1.34 6 0.68 6 0 6 C0 8.31 0 10.62 0 13 C-0.99 13 -1.98 13 -3 13 C-4.2380014 9.42355152 -3.74926071 6.66305234 -3 3 C-2.34 3.66 -1.68 4.32 -1 5 C-0.67 3.35 -0.34 1.7 0 0 Z " fill="#DCAB35" transform="translate(26,44)" />
<path d="M0 0 C0 1.32 0 2.64 0 4 C0.66 4.33 1.32 4.66 2 5 C2.625 7.5625 2.625 7.5625 3 10 C-1.2742558 8.4169423 -3.26531794 5.49431596 -6 2 C-2.25 0 -2.25 0 0 0 Z " fill="#BF7F11" transform="translate(65,38)" />
<path d="M0 0 C0.99 0.33 1.98 0.66 3 1 C3.33 1.99 3.66 2.98 4 4 C3.67 4.66 3.34 5.32 3 6 C2.34 6 1.68 6 1 6 C1 5.34 1 4.68 1 4 C0.34 4 -0.32 4 -1 4 C-1 4.66 -1 5.32 -1 6 C-1.99 6.33 -2.98 6.66 -4 7 C-4.66 6.67 -5.32 6.34 -6 6 C-6.33 6.66 -6.66 7.32 -7 8 C-6.67 6.68 -6.34 5.36 -6 4 C-5.34 4 -4.68 4 -4 4 C-2.62689293 2.70766393 -1.28965176 1.37562854 0 0 Z " fill="#EBB743" transform="translate(54,25)" />
<path d="M0 0 C0.33 0.99 0.66 1.98 1 3 C1.721875 2.814375 2.44375 2.62875 3.1875 2.4375 C6.12826973 1.98004693 8.14103058 2.26483643 11 3 C7.48239398 6.51760602 2.87157039 6.05502509 -1.875 6.0625 C-3.25006609 6.0466164 -4.62511713 6.02749766 -6 6 C-6 5.67 -6 5.34 -6 5 C-4.35 5 -2.7 5 -1 5 C-0.67 3.35 -0.34 1.7 0 0 Z " fill="#C7A328" transform="translate(41,71)" />
<path d="M0 0 C2.56687367 3.8503105 1.83288724 5.58569763 1 10 C0.175 9.67 0.175 9.67 -4 8 C-4 6.35 -4 4.7 -4 3 C-2.68 2.67 -1.36 2.34 0 2 C0 1.34 0 0.68 0 0 Z " fill="#DEA926" transform="translate(34,57)" />
<path d="M0 0 C2.8125 -0.25 2.8125 -0.25 6 0 C7.875 2 7.875 2 9 4 C6.64561267 5.42944945 5.51967567 6.08661261 2.75 5.625 C2.1725 5.41875 1.595 5.2125 1 5 C0.67 3.35 0.34 1.7 0 0 Z " fill="#DDA42C" transform="translate(66,37)" />
<path d="M0 0 C2 3 2 3 2 5 C2.639375 5.12375 3.27875 5.2475 3.9375 5.375 C4.618125 5.58125 5.29875 5.7875 6 6 C6.33 6.66 6.66 7.32 7 8 C7.99 8.33 8.98 8.66 10 9 C10 9.33 10 9.66 10 10 C7.69 10 5.38 10 3 10 C3 9.01 3 8.02 3 7 C1.68 7 0.36 7 -1 7 C-0.67 4.69 -0.34 2.38 0 0 Z " fill="#EDC34C" transform="translate(23,58)" />
<path d="M0 0 C4.20254135 3.75226906 6.49918052 7.99836104 9 13 C5.125 11.125 5.125 11.125 4 10 C3.67 10.66 3.34 11.32 3 12 C2.34 12 1.68 12 1 12 C1.020625 10.948125 1.04125 9.89625 1.0625 8.8125 C1.01103198 5.67295096 0.73482813 3.03116604 0 0 Z " fill="#D0A63A" transform="translate(30,24)" />
<path d="M0 0 C1.65 0.33 3.3 0.66 5 1 C5 2.32 5 3.64 5 5 C2.29120665 6.35439668 -0.00933268 6.06501451 -3 6 C-2.34 5.67 -1.68 5.34 -1 5 C-0.375 2.4375 -0.375 2.4375 0 0 Z " fill="#D6AD28" transform="translate(79,62)" />
<path d="M0 0 C0.66 0.33 1.32 0.66 2 1 C2 1.66 2 2.32 2 3 C2.66 3.33 3.32 3.66 4 4 C2.68 6.64 1.36 9.28 0 12 C-0.99 11.01 -1.98 10.02 -3 9 C-3 8.34 -3 7.68 -3 7 C-2.01 7 -1.02 7 0 7 C0 4.69 0 2.38 0 0 Z " fill="#AA7805" transform="translate(44,42)" />
<path d="M0 0 C1.32 0.66 2.64 1.32 4 2 C-0.64849515 4.3992233 -4.91086074 4.19957409 -10 4 C-10 3.34 -10 2.68 -10 2 C-6.7 2 -3.4 2 0 2 C0 1.34 0 0.68 0 0 Z " fill="#DEA80C" transform="translate(68,65)" />
<path d="M0 0 C3.78611227 0.54087318 5.55400767 2.11722332 8 5 C8 5.66 8 6.32 8 7 C7.34 7.33 7.34 7.33 4 9 C2.74335022 6.09399739 2 4.20395416 2 1 C1.34 0.67 0.68 0.34 0 0 Z " fill="#E1B836" transform="translate(52,39)" />
<path d="M0 0 C0.66 0 1.32 0 2 0 C2.33 1.98 2.66 3.96 3 6 C2.34 6 1.68 6 1 6 C0.67 6.66 0.34 7.32 0 8 C-0.66 8 -1.32 8 -2 8 C-2.20086443 4.28400809 -2.1519437 3.22791555 0 0 Z " fill="#F3C94E" transform="translate(29,27)" />
<path d="M0 0 C2.74277578 3.19990508 4.6302836 6.00499382 6 10 C4.35 10 2.7 10 1 10 C0.67 6.7 0.34 3.4 0 0 Z " fill="#CD9D28" transform="translate(65,27)" />
<path d="M0 0 C0.66 0.33 1.32 0.66 2 1 C2 1.66 2 2.32 2 3 C2.66 3 3.32 3 4 3 C5.5625 5.8125 5.5625 5.8125 7 9 C6.67 9.99 6.34 10.98 6 12 C3.69 8.37 1.38 4.74 -1 1 C-0.67 0.67 -0.34 0.34 0 0 Z " fill="#776443" transform="translate(32,21)" />
<path d="M0 0 C0.66 0 1.32 0 2 0 C2 0.99 2 1.98 2 3 C4.31 3 6.62 3 9 3 C7.68 4.32 6.36 5.64 5 7 C1.83884224 5.63016497 1.0072908 5.0109362 -1 2 C-0.67 1.34 -0.34 0.68 0 0 Z " fill="#A3720A" transform="translate(69,49)" />
<path d="M0 0 C5.94 0 11.88 0 18 0 C17.67 0.99 17.34 1.98 17 3 C16.73960938 2.92330078 16.73960938 2.92330078 15.421875 2.53515625 C12.36721485 1.86017489 9.36984029 1.65588882 6.25 1.4375 C5.07953125 1.35371094 3.9090625 1.26992187 2.703125 1.18359375 C1.81109375 1.12300781 0.9190625 1.06242187 0 1 C0 0.67 0 0.34 0 0 Z " fill="#6D4F08" transform="translate(18,69)" />
<path d="M0 0 C0.66 0 1.32 0 2 0 C1.814375 0.94875 1.62875 1.8975 1.4375 2.875 C1 6 1 6 2 8 C1.67 8.66 1.34 9.32 1 10 C0.01 10 -0.98 10 -2 10 C-1.34 6.7 -0.68 3.4 0 0 Z " fill="#EAC53C" transform="translate(39,66)" />
<path d="M0 0 C0.99 0.33 1.98 0.66 3 1 C3 1.66 3 2.32 3 3 C7.29 3 11.58 3 16 3 C16 3.33 16 3.66 16 4 C11.38 4 6.76 4 2 4 C1.34 2.68 0.68 1.36 0 0 Z " fill="#6F5B27" transform="translate(15,67)" />
<path d="M0 0 C0.99 0.33 1.98 0.66 3 1 C2.67 2.32 2.34 3.64 2 5 C-1.63 5 -5.26 5 -9 5 C-9 4.67 -9 4.34 -9 4 C-6.03 4 -3.06 4 0 4 C0 2.68 0 1.36 0 0 Z " fill="#C69E2A" transform="translate(35,64)" />
<path d="M0 0 C1.17539996 0.92652701 2.34010577 1.86663387 3.5 2.8125 C4.1496875 3.33457031 4.799375 3.85664062 5.46875 4.39453125 C7 6 7 6 7 9 C0.70535714 4.17857143 0.70535714 4.17857143 0 0 Z " fill="#D29E1B" transform="translate(64,48)" />
<path d="M0 0 C2.79828356 0.38597015 3.8205884 0.80136573 5.75 2.9375 C7 5 7 5 7 7 C5 7 5 7 2.375 4.625 C0 2 0 2 0 0 Z " fill="#766544" transform="translate(74,36)" />
<path d="M0 0 C0.5625 1.9375 0.5625 1.9375 1 4 C0 5 0 5 -3.0625 5.0625 C-4.031875 5.041875 -5.00125 5.02125 -6 5 C-6.33 4.01 -6.66 3.02 -7 2 C-6.01 2 -5.02 2 -4 2 C-4 2.66 -4 3.32 -4 4 C-2.68 2.68 -1.36 1.36 0 0 Z " fill="#E1B043" transform="translate(81,46)" />
<path d="M0 0 C1.32 0.99 2.64 1.98 4 3 C3.67 3.99 3.34 4.98 3 6 C2.01 6 1.02 6 0 6 C-0.38218767 4.34385343 -0.71395102 2.67542976 -1 1 C-0.67 0.67 -0.34 0.34 0 0 Z " fill="#DFB136" transform="translate(38,37)" />
<path d="M0 0 C-0.33 2.31 -0.66 4.62 -1 7 C-4 5 -4 5 -4.6875 2.875 C-4.790625 2.25625 -4.89375 1.6375 -5 1 C-3 0 -3 0 0 0 Z " fill="#C18819" transform="translate(49,36)" />
<path d="M0 0 C0.66 0 1.32 0 2 0 C1.32829194 3.8063457 0.27253436 7.35206816 -1 11 C-1.33 11 -1.66 11 -2 11 C-1.85957123 9.35369672 -1.71250671 7.70795821 -1.5625 6.0625 C-1.48128906 5.14597656 -1.40007813 4.22945312 -1.31640625 3.28515625 C-1 1 -1 1 0 0 Z " fill="#ECCC6E" transform="translate(28,24)" />
<path d="M0 0 C4.875 1.75 4.875 1.75 6 4 C4.02 4.33 2.04 4.66 0 5 C0 3.35 0 1.7 0 0 Z " fill="#E5B246" transform="translate(73,41)" />
<path d="M0 0 C2.52282655 2.52282655 5 5.30389793 5 9 C4.34 9 3.68 9 3 9 C0.8125 6.75 0.8125 6.75 -1 4 C-0.75 1.6875 -0.75 1.6875 0 0 Z " fill="#865704" transform="translate(43,36)" />
<path d="M0 0 C0.66 0.33 1.32 0.66 2 1 C1.1875 3.4375 1.1875 3.4375 0 6 C-0.99 6.33 -1.98 6.66 -3 7 C-3.33 5.68 -3.66 4.36 -4 3 C-2.68 2.67 -1.36 2.34 0 2 C0 1.34 0 0.68 0 0 Z " fill="#E3B521" transform="translate(78,61)" />
</svg>