<?xml version='1.0' encoding='utf-8'?>
<svg xmlns="http://www.w3.org/2000/svg" version="1.1" width="97" height="93">
<path d="M0 0 C0.37125 0.0515625 0.37125 0.0515625 2.25 0.3125 C3.48922223 4.03016668 2.82018942 5.75139537 1.8125 9.5 C1.66876953 10.04333984 1.66876953 10.04333984 0.94140625 12.79296875 C0.71324219 13.62441406 0.48507813 14.45585937 0.25 15.3125 C-0.41 15.3125 -1.07 15.3125 -1.75 15.3125 C-1.88277344 16.44429687 -2.01554687 17.57609375 -2.15234375 18.7421875 C-2.3305342 20.22398179 -2.50893029 21.70575136 -2.6875 23.1875 C-2.73100586 23.56068359 -2.73100586 23.56068359 -2.95117188 25.44921875 C-3.63671875 31.0859375 -3.63671875 31.0859375 -4.75 33.3125 C-5.41 33.3125 -6.07 33.3125 -6.75 33.3125 C-6.78029297 33.65152344 -6.78029297 33.65152344 -6.93359375 35.3671875 C-7.10939863 37.31997397 -7.29634637 39.27177732 -7.4921875 41.22265625 C-7.75 44.3125 -7.75 44.3125 -7.7578125 47.05859375 C-7.83823132 50.8325343 -7.91076045 53.32781847 -10.41796875 56.26953125 C-13.40242288 58.66045416 -15.52844372 60.18600749 -19.390625 60.5859375 C-21.75 60.3125 -21.75 60.3125 -23.75 58.3125 C-23.4752226 51.94330089 -21.59473568 46.6661345 -19.1875 40.8125 C-18.85814453 39.99007812 -18.52878906 39.16765625 -18.18945312 38.3203125 C-17.38471991 36.31431087 -16.56854242 34.31290655 -15.75 32.3125 C-17.07 31.6525 -18.39 30.9925 -19.75 30.3125 C-18.22005208 29.140625 -16.69010417 27.96875 -15.16015625 26.796875 C-13.4807711 25.02910116 -13.15077315 23.68670043 -12.75 21.3125 C-22.02927928 24.53772523 -22.02927928 24.53772523 -25.25 28 C-28.56646448 31.06772964 -31.04751949 30.90972674 -35.4453125 30.9765625 C-38.22588859 31.38186681 -38.90306585 32.29224651 -40.75 34.3125 C-42.9375 34 -42.9375 34 -44.75 33.3125 C-44.51076631 29.2455272 -44.15939331 26.85835774 -41.6875 23.5625 C-37.20430728 20.12856515 -32.57367338 18.82440832 -27.1875 17.3125 C-23.75 16.3125 -23.75 16.3125 -20.375 14.75 C-16.13145303 13.06721413 -12.27157652 12.60983723 -7.75 12.3125 C-7.6675 11.260625 -7.585 10.20875 -7.5 9.125 C-6.55292797 4.3107172 -5.28145068 0.60016485 0 0 Z " fill="#DDDB3E" transform="translate(61.75,16.6875)" />
<path d="M0 0 C-3.06007569 3.06007569 -6.80971264 3.21950275 -10.95703125 4.12109375 C-14.79276894 5.22897691 -17.98064432 6.5437776 -20.3125 9.875 C-21.11268687 12.34830486 -21.14354627 14.41616706 -21 17 C-19.35 17 -17.7 17 -16 17 C-15.67 16.01 -15.34 15.02 -15 14 C-14.31292969 13.93941406 -13.62585937 13.87882812 -12.91796875 13.81640625 C-12.46744141 13.77451172 -12.46744141 13.77451172 -10.1875 13.5625 C-9.74083984 13.52189453 -9.74083984 13.52189453 -7.48046875 13.31640625 C-5 13 -5 13 -2 12 C-1.773125 11.38125 -1.54625 10.7625 -1.3125 10.125 C0.77841885 6.73970282 4.27631821 6.02401249 8 5 C8.66 5 9.32 5 10 5 C9.69381595 8.67420866 9.24228216 9.78135513 6.4375 12.3125 C5.633125 12.869375 4.82875 13.42625 4 14 C4.99 14.66 5.98 15.32 7 16 C6.27522469 18.48839524 5.53784314 20.97146266 4.77734375 23.44921875 C4.21628411 25.29028379 3.69063539 27.14226934 3.1875 29 C1.41982522 31.97713647 -0.72724224 32.0737478 -4 33 C-5.22371739 33.70304282 -6.43213166 34.43329937 -7.625 35.1875 C-11 37 -11 37 -13.3125 36.9375 C-15 36 -15 36 -17 33 C-17.3468602 29.18453778 -17.53366895 26.86721204 -15.5 23.5625 C-15.005 23.046875 -14.51 22.53125 -14 22 C-16 20 -16 20 -19.0625 19.9375 C-20.031875 19.958125 -21.00125 19.97875 -22 20 C-23.57027317 18.42972683 -23.16974386 16.85730053 -23.1875 14.6875 C-23.20167969 13.90761719 -23.21585938 13.12773438 -23.23046875 12.32421875 C-22.97176013 9.71520812 -22.43476675 8.18941679 -21 6 C-16.38438525 2.56431684 -5.34417877 -2.67208939 0 0 Z " fill="#555104" transform="translate(39,33)" />
<path d="M0 0 C2.9375 0.0625 2.9375 0.0625 6 1 C7.625 3.3125 7.625 3.3125 9 6 C9.721875 6.66 10.44375 7.32 11.1875 8 C13.50390137 10.5560291 13 11.65544564 13 15 C13.3403125 15.4125 13.3403125 15.4125 15.0625 17.5 C17 20 17 20 16.875 22.6875 C16 25 16 25 14 27 C13.01 27 12.02 27 11 27 C10.67 27.66 10.34 28.32 10 29 C7.66705225 29.04241723 5.33297433 29.04092937 3 29 C2.67 28.67 2.34 28.34 2 28 C1.01 30.64 0.02 33.28 -1 36 C-1.99 36 -2.98 36 -4 36 C-3.67 36.66 -3.34 37.32 -3 38 C-2.51511446 43.93984781 -3.91933053 48.53824265 -6 54 C-6.33 54 -6.66 54 -7 54 C-7.24794402 47.4294834 -6.32388229 41.43028541 -5 35 C-4.34 35 -3.68 35 -3 35 C-2.01 29.06 -1.02 23.12 0 17 C0.66 17 1.32 17 2 17 C2.144375 15.989375 2.28875 14.97875 2.4375 13.9375 C2.69791667 12.11458333 2.69791667 12.11458333 4 3 C3.01 2.835 3.01 2.835 -2 2 C-1.34 1.34 -0.68 0.68 0 0 Z " fill="#6A6B09" transform="translate(60,15)" />
<path d="M0 0 C0.99 0.33 1.98 0.66 3 1 C3 2.98 3 4.96 3 7 C3.66 7 4.32 7 5 7 C7.1368273 9.69081956 7.95754805 11.50118962 8.25 14.9375 C6.29450391 19.72846542 2.51849711 21.72583891 -2 24 C-5.5625 24.875 -5.5625 24.875 -8 25 C-8.165 25.495 -8.165 25.495 -9 28 C-9.66 28 -10.32 28 -11 28 C-11.17015625 28.99 -11.3403125 29.98 -11.515625 31 C-14.54919771 47.86290701 -14.54919771 47.86290701 -20.75 53.5 C-24.989796 55.45682892 -27.36412691 55.53198544 -32 55 C-34.0625 54 -34.0625 54 -35 52 C-34.92372532 49.237767 -34.49363668 46.73743975 -34 44 C-35.010625 44.66 -36.02125 45.32 -37.0625 46 C-40.82903972 48.13157116 -43.64015869 48.75458792 -48 48 C-50 46.0625 -50 46.0625 -51 43 C-50.93358092 39.94472236 -50.54331777 37.0046127 -50 34 C-48.35 33.34 -46.7 32.68 -45 32 C-45.495 32.515625 -45.99 33.03125 -46.5 33.5625 C-48.53366895 36.86721204 -48.3468602 39.18453778 -48 43 C-47.34 43.99 -46.68 44.98 -46 46 C-39.99729545 45.41437029 -35.30369964 43.30369964 -31 39 C-31.08378906 39.92683594 -31.16757812 40.85367188 -31.25390625 41.80859375 C-31.35574219 43.00613281 -31.45757812 44.20367187 -31.5625 45.4375 C-31.66691406 46.63246094 -31.77132812 47.82742187 -31.87890625 49.05859375 C-31.91886719 50.02925781 -31.95882812 50.99992187 -32 52 C-31.835 52.165 -31.835 52.165 -31 53 C-27.34896924 52.78936361 -24.57957784 52.2965282 -21.3125 50.625 C-16.70674277 45.39684314 -14.76094426 38.72926946 -14.75 31.8125 C-14.8325 30.554375 -14.915 29.29625 -15 28 C-14.01 28 -13.02 28 -12 28 C-11.01 25.03 -10.02 22.06 -9 19 C-8.835 19.33 -8.835 19.33 -8 21 C-2.37458159 20.54996653 0.61487125 19.31558515 5 16 C4.25 10.25 4.25 10.25 2 8 C0.68252676 7.30251417 -0.64914193 6.63040043 -2 6 C-0.68 6 0.64 6 2 6 C1.34 4.02 0.68 2.04 0 0 Z " fill="#504E0A" transform="translate(71,23)" />
<path d="M0 0 C-0.2676756 3.30133235 -0.5603835 4.62503298 -3.125 6.8125 C-6.58445601 8.24140574 -9.29159398 8.21814153 -13 8 C-13.33 8.99 -13.66 9.98 -14 11 C-16.54661435 11.95498038 -19.10601602 12.52529928 -21.75 13.15625 C-22.4925 13.4346875 -23.235 13.713125 -24 14 C-24.33 14.99 -24.66 15.98 -25 17 C-27.3125 19.25 -27.3125 19.25 -30 21 C-32.3125 20.75 -32.3125 20.75 -34 20 C-33.76076631 15.9330272 -33.40939331 13.54585774 -30.9375 10.25 C-26.45430728 6.81606515 -21.82367338 5.51190832 -16.4375 4 C-13 3 -13 3 -9.4375 1.375 C-5.97465546 -0.01013782 -3.68208549 -0.26942089 0 0 Z " fill="#E1E24F" transform="translate(51,30)" />
<path d="M0 0 C-0.33 1.98 -0.66 3.96 -1 6 C-1.66 6 -2.32 6 -3 6 C-3.33 7.32 -3.66 8.64 -4 10 C-4.66 10 -5.32 10 -6 10 C-6.268125 10.639375 -6.53625 11.27875 -6.8125 11.9375 C-8 14 -8 14 -11 15 C-11 15.66 -11 16.32 -11 17 C-11.66 17 -12.32 17 -13 17 C-13.66 18.32 -14.32 19.64 -15 21 C-16.875 20.6875 -16.875 20.6875 -19 20 C-21.54633062 16.18050407 -21.7663517 14.52147502 -21 10 C-16.1638634 4.71282476 -7.37927223 -0.92240903 0 0 Z " fill="#E2E956" transform="translate(43,49)" />
<path d="M0 0 C1.99954746 -0.04254356 4.00041636 -0.04080783 6 0 C7 1 7 1 7.0625 4.5625 C7.041875 5.696875 7.02125 6.83125 7 8 C6.34 8 5.68 8 5 8 C4.67 10.31 4.34 12.62 4 15 C2.35 15.495 2.35 15.495 -6 18 C-5.55397709 11.30965634 -2.92654458 5.97187878 0 0 Z " fill="#EDF65F" transform="translate(46,50)" />
<path d="M0 0 C0.5 3.125 0.5 3.125 0 7 C-2.9756213 10.33761903 -6.13566613 12.79897139 -10.64453125 13.28515625 C-13 13 -13 13 -15 11 C-14.96712417 8.27130593 -14.43602229 5.7033382 -14 3 C-9.47739097 1.34538694 -4.86660572 0 0 0 Z " fill="#B9BD3F" transform="translate(53,64)" />
<path d="M0 0 C0.33 0 0.66 0 1 0 C0.88465396 1.56324232 0.75724874 3.12559683 0.625 4.6875 C0.55539063 5.55761719 0.48578125 6.42773438 0.4140625 7.32421875 C0 10 0 10 -0.94140625 12.3203125 C-2.3443281 15.87162021 -2.92066347 19.43496368 -3.5625 23.1875 C-4.87602319 30.75204638 -4.87602319 30.75204638 -6 33 C-6.99 33 -7.98 33 -9 33 C-8.67 33.66 -8.34 34.32 -8 35 C-7.51511446 40.93984781 -8.91933053 45.53824265 -11 51 C-11.33 51 -11.66 51 -12 51 C-12.24794402 44.4294834 -11.32388229 38.43028541 -10 32 C-9.34 32 -8.68 32 -8 32 C-7.01 26.06 -6.02 20.12 -5 14 C-4.34 14 -3.68 14 -3 14 C-2.87625 12.989375 -2.7525 11.97875 -2.625 10.9375 C-2.01914665 7.12062388 -1.12806088 3.68499888 0 0 Z " fill="#93950F" transform="translate(65,18)" />
<path d="M0 0 C1.32 0 2.64 0 4 0 C3.39009109 3.55780196 2.4216319 6.6828589 1 10 C-0.051875 10.103125 -1.10375 10.20625 -2.1875 10.3125 C-6.92654046 11.16708107 -9.72840644 12.46531812 -12.8125 16.1875 C-16.13818923 18.94307107 -18.7693661 18.28204226 -23 18 C-22.8125 16.1015625 -22.8125 16.1015625 -22 14 C-19.75 13.0234375 -19.75 13.0234375 -17 12.375 C-15.3197555 11.96925914 -13.64821835 11.52079122 -12 11 C-11.67 10.34 -11.34 9.68 -11 9 C-8.67038557 8.64159778 -6.33634657 8.31151288 -4 8 C-1.125 7.25 -1.125 7.25 1 6 C1.8125 3.375 1.8125 3.375 2 1 C1.34 0.67 0.68 0.34 0 0 Z " fill="#C4BC24" transform="translate(49,29)" />
<path d="M0 0 C-0.33 1.98 -0.66 3.96 -1 6 C-1.99 6.33 -2.98 6.66 -4 7 C-3.34 7.33 -2.68 7.66 -2 8 C-2.33 10.64 -2.66 13.28 -3 16 C-5.31 16 -7.62 16 -10 16 C-8.97877763 10.59352865 -7.86835937 5.78059895 -5 1 C-3 0 -3 0 0 0 Z " fill="#F0F356" transform="translate(57,32)" />
<path d="M0 0 C-0.2676756 3.30133235 -0.5603835 4.62503298 -3.125 6.8125 C-9.03140115 9.25210047 -14.18684028 7.8981746 -20 6 C-20 5.67 -20 5.34 -20 5 C-18.989375 4.731875 -17.97875 4.46375 -16.9375 4.1875 C-14.24782233 3.43373952 -12.01558188 2.55096717 -9.4375 1.375 C-5.97465546 -0.01013782 -3.68208549 -0.26942089 0 0 Z " fill="#CECB42" transform="translate(51,30)" />
<path d="M0 0 C0.99 0.165 0.99 0.165 6 1 C5.27522469 3.48839524 4.53784314 5.97146266 3.77734375 8.44921875 C3.21628411 10.29028379 2.69063539 12.14226934 2.1875 14 C0.43164255 16.9572336 -1.77256491 17.09631817 -5 18 C-7.375 19.625 -7.375 19.625 -9 21 C-9.66 20.67 -10.32 20.34 -11 20 C-10.67 19.34 -10.34 18.68 -10 18 C-9.34 18 -8.68 18 -8 18 C-8 17.34 -8 16.68 -8 16 C-6.29059971 14.39771617 -4.46698472 12.98705258 -2.62890625 11.53515625 C-1 10 -1 10 0 7 C0.66 7 1.32 7 2 7 C2.33 5.02 2.66 3.04 3 1 C2.01 0.67 1.02 0.34 0 0 Z " fill="#858B09" transform="translate(40,48)" />
<path d="M0 0 C1 2 1 2 0.4375 5.5 C0.293125 6.655 0.14875 7.81 0 9 C2.76223278 11.76223278 5.20706617 11.57856291 9 12 C8 13.625 8 13.625 6 15 C3.1841095 14.65009645 0.7283142 13.84980278 -2 13 C-2.33 10.69 -2.66 8.38 -3 6 C-4.485 6.165 -4.485 6.165 -12 7 C-12.33 6.34 -12.66 5.68 -13 5 C-11.783125 4.731875 -10.56625 4.46375 -9.3125 4.1875 C-5.77878956 3.31505639 -3.0231718 2.07843061 0 0 Z M-5 9 C-4.34 9 -3.68 9 -3 9 C-3 9.66 -3 10.32 -3 11 C-3.66 11 -4.32 11 -5 11 C-5 10.34 -5 9.68 -5 9 Z " fill="#6B6642" transform="translate(37,66)" />
<path d="M0 0 C2.4375 1 2.4375 1 3.75 3.5625 C3.8634375 3.9646875 3.8634375 3.9646875 4.4375 6 C-0.97788462 10.06153846 -0.97788462 10.06153846 -3.9375 9.75 C-4.47375 9.5025 -5.01 9.255 -5.5625 9 C-5.92325949 3.58860759 -5.92325949 3.58860759 -4.375 1.0625 C-2.5625 0 -2.5625 0 0 0 Z " fill="#DADF40" transform="translate(72.5625,31)" />
<path d="M0 0 C-3.06007569 3.06007569 -6.80971264 3.21950275 -10.95703125 4.12109375 C-14.79276894 5.22897691 -17.98064432 6.5437776 -20.3125 9.875 C-21.11268687 12.34830486 -21.14354627 14.41616706 -21 17 C-18.36 17 -15.72 17 -13 17 C-14.125 18.5 -14.125 18.5 -16 20 C-19.125 20.25 -19.125 20.25 -22 20 C-23.57027317 18.42972683 -23.16974386 16.85730053 -23.1875 14.6875 C-23.20167969 13.90761719 -23.21585938 13.12773438 -23.23046875 12.32421875 C-22.97176013 9.71520812 -22.43476675 8.18941679 -21 6 C-16.38438525 2.56431684 -5.34417877 -2.67208939 0 0 Z " fill="#524F0F" transform="translate(39,33)" />
<path d="M0 0 C0 0.66 0 1.32 0 2 C-0.66 2 -1.32 2 -2 2 C-2.33 3.32 -2.66 4.64 -3 6 C-3.66 6 -4.32 6 -5 6 C-5.268125 6.639375 -5.53625 7.27875 -5.8125 7.9375 C-7 10 -7 10 -10 11 C-10 11.66 -10 12.32 -10 13 C-10.66 13 -11.32 13 -12 13 C-12.66 14.32 -13.32 15.64 -14 17 C-15.9375 16.6875 -15.9375 16.6875 -18 16 C-18.33 15.01 -18.66 14.02 -19 13 C-18.34 13 -17.68 13 -17 13 C-16.67 13.66 -16.34 14.32 -16 15 C-15.814375 14.0925 -15.62875 13.185 -15.4375 12.25 C-13.44927694 7.754887 -11.4015387 7.04357154 -7 5 C-6.34 5 -5.68 5 -5 5 C-5 3.68 -5 2.36 -5 1 C-3 0 -3 0 0 0 Z " fill="#D9DF36" transform="translate(42,53)" />
<path d="M0 0 C0.66 0.33 1.32 0.66 2 1 C0.02 1.99 -1.96 2.98 -4 4 C-4 4.66 -4 5.32 -4 6 C-5.65 6.825 -5.65 6.825 -14 11 C-15.5625 8.1875 -15.5625 8.1875 -17 5 C-16.67 4.01 -16.34 3.02 -16 2 C-14.02 2 -12.04 2 -10 2 C-10.66 2.66 -11.32 3.32 -12 4 C-8.84782079 3.52239709 -6.19296969 2.6947131 -3.3125 1.375 C-2.7659375 1.148125 -2.7659375 1.148125 0 0 Z " fill="#656226" transform="translate(40,45)" />
<path d="M0 0 C0.35430394 3.18873549 0.25953249 4.61589191 -1.5625 7.3125 C-4.814649 9.56398777 -7.13193005 9.29754384 -11 9 C-10.8125 6.6875 -10.8125 6.6875 -10 4 C-7.5625 2.25 -7.5625 2.25 -5 1 C-3 0 -3 0 0 0 Z " fill="#EBE47E" transform="translate(51,66)" />
<path d="M0 0 C0.99 0.33 1.98 0.66 3 1 C2.67 1.165 2.67 1.165 1 2 C1.875 6.875 1.875 6.875 3 8 C3.04063832 9.66617115 3.042721 11.33388095 3 13 C-1.75 13.125 -1.75 13.125 -4 12 C-3.28571429 3.42857143 -3.28571429 3.42857143 0 0 Z " fill="#E1E752" transform="translate(58,18)" />
<path d="M0 0 C0.66 0 1.32 0 2 0 C1.85904936 1.6254308 1.71207913 3.25034051 1.5625 4.875 C1.48128906 5.77992187 1.40007813 6.68484375 1.31640625 7.6171875 C1 10 1 10 0 12 C-0.66 12 -1.32 12 -2 12 C-2.04898438 12.74765625 -2.09796875 13.4953125 -2.1484375 14.265625 C-2.22320312 15.25046875 -2.29796875 16.2353125 -2.375 17.25 C-2.44460937 18.22453125 -2.51421875 19.1990625 -2.5859375 20.203125 C-2.98465249 22.89633189 -3.63507063 24.66963279 -5 27 C-5.66 27 -6.32 27 -7 27 C-6.67 24.69 -6.34 22.38 -6 20 C-5.34 20 -4.68 20 -4 20 C-4 17.03 -4 14.06 -4 11 C-3.01 11 -2.02 11 -1 11 C-0.67 7.37 -0.34 3.74 0 0 Z " fill="#C6CC20" transform="translate(57,38)" />
<path d="M0 0 C2.9375 0.0625 2.9375 0.0625 6 1 C7.75 3.4375 7.75 3.4375 9 6 C9.66 6.66 10.32 7.32 11 8 C10.01 8.66 9.02 9.32 8 10 C7.3125 12.625 7.3125 12.625 7 15 C6.34 15 5.68 15 5 15 C4.67 16.65 4.34 18.3 4 20 C3.34 19.34 2.68 18.68 2 18 C2.20496094 17.41992188 2.40992188 16.83984375 2.62109375 16.2421875 C4.14009813 11.8378016 5.4047151 7.64322223 6 3 C3.36 2.67 0.72 2.34 -2 2 C-1.34 1.34 -0.68 0.68 0 0 Z " fill="#646306" transform="translate(60,15)" />
<path d="M0 0 C0.75 2.6875 0.75 2.6875 1 6 C-0.9375 8.875 -0.9375 8.875 -3 11 C-3.66 10.67 -4.32 10.34 -5 10 C-5.8125 6.625 -5.8125 6.625 -6 3 C-4.14008739 0.11713545 -3.48578837 0 0 0 Z " fill="#F7F64D" transform="translate(50,51)" />
<path d="M0 0 C1.65 0.33 3.3 0.66 5 1 C4.01 3.97 3.02 6.94 2 10 C0.68 9.67 -0.64 9.34 -2 9 C-1.125 2.25 -1.125 2.25 0 0 Z " fill="#F3F3AF" transform="translate(19,41)" />
<path d="M0 0 C0.825 0.165 0.825 0.165 5 1 C5.625 4.375 5.625 4.375 6 8 C5.34 8.66 4.68 9.32 4 10 C3.67 9.01 3.34 8.02 3 7 C2.01 7 1.02 7 0 7 C0 4.69 0 2.38 0 0 Z " fill="#EEEE9C" transform="translate(22,59)" />
<path d="M0 0 C1.99954746 -0.04254356 4.00041636 -0.04080783 6 0 C7 1 7 1 7.0625 4.5625 C7.041875 5.696875 7.02125 6.83125 7 8 C6.34 8 5.68 8 5 8 C4.67 10.31 4.34 12.62 4 15 C3.34 15 2.68 15 2 15 C2.55341903 10.96794709 3.20208508 6.98957458 4 3 C4 2.34 4 1.68 4 1 C2.35 1.33 0.7 1.66 -1 2 C-0.67 1.34 -0.34 0.68 0 0 Z " fill="#EFEA3F" transform="translate(46,50)" />
<path d="M0 0 C7.75 -0.125 7.75 -0.125 10 1 C9.67 2.32 9.34 3.64 9 5 C6.75 5.6875 6.75 5.6875 4 6 C1.6875 4.75 1.6875 4.75 0 3 C0 2.01 0 1.02 0 0 Z " fill="#ECE249" transform="translate(28,36)" />
<path d="M0 0 C0 1.65 0 3.3 0 5 C-0.61875 5.2475 -1.2375 5.495 -1.875 5.75 C-4.35068687 7.20628639 -4.95125002 8.37812506 -6 11 C-6.66 8.69 -7.32 6.38 -8 4 C-2.95652174 0 -2.95652174 0 0 0 Z " fill="#F2F360" transform="translate(35,54)" />
<path d="M0 0 C0.66 0.33 1.32 0.66 2 1 C2 2.98 2 4.96 2 7 C5.34373475 6.44271087 8.03312999 5.64826111 11 4 C10.25 5.9375 10.25 5.9375 9 8 C6.9375 8.625 6.9375 8.625 5 9 C4.67 9.66 4.34 10.32 4 11 C2.02 9.35 0.04 7.7 -2 6 C-1.125 1.125 -1.125 1.125 0 0 Z " fill="#8E9515" transform="translate(66,33)" />
<path d="M0 0 C0.33 0 0.66 0 1 0 C0.22095672 10.55808656 0.22095672 10.55808656 -2 15 C-2.66 15 -3.32 15 -4 15 C-4.33 17.97 -4.66 20.94 -5 24 C-5.33 24 -5.66 24 -6 24 C-5.67 20.7 -5.34 17.4 -5 14 C-4.34 14 -3.68 14 -3 14 C-2.87625 12.989375 -2.7525 11.97875 -2.625 10.9375 C-2.01914665 7.12062388 -1.12806088 3.68499888 0 0 Z " fill="#ACAE14" transform="translate(65,18)" />
<path d="M0 0 C0.99 0.165 0.99 0.165 6 1 C5.01 4.3 4.02 7.6 3 11 C1.02 11.33 -0.96 11.66 -3 12 C-1.625 9.5 -1.625 9.5 0 7 C0.66 7 1.32 7 2 7 C2.33 5.02 2.66 3.04 3 1 C2.01 0.67 1.02 0.34 0 0 Z " fill="#A9AA16" transform="translate(40,48)" />
<path d="M0 0 C0.66 0.33 1.32 0.66 2 1 C0.625 2.5 0.625 2.5 -1 4 C-1.66 4 -2.32 4 -3 4 C-3 4.66 -3 5.32 -3 6 C-3.66 6 -4.32 6 -5 6 C-5.66 7.32 -6.32 8.64 -7 10 C-8.9375 9.6875 -8.9375 9.6875 -11 9 C-11.33 8.01 -11.66 7.02 -12 6 C-11.34 6 -10.68 6 -10 6 C-9.67 6.66 -9.34 7.32 -9 8 C-8.34 6.02 -7.68 4.04 -7 2 C-6.34 2.66 -5.68 3.32 -5 4 C-3.35 2.68 -1.7 1.36 0 0 Z " fill="#BBBE43" transform="translate(35,60)" />
<path d="M0 0 C0.66 0.33 1.32 0.66 2 1 C1.505 1.350625 1.01 1.70125 0.5 2.0625 C-1.78116718 5.0090076 -1.31765543 7.37872805 -1 11 C0 13.4375 0 13.4375 1 15 C0.01 15 -0.98 15 -2 15 C-3.82695589 11.91039891 -4.22295727 9.93229631 -3.8125 6.375 C-3.73644531 5.59898438 -3.66039063 4.82296875 -3.58203125 4.0234375 C-3 2 -3 2 0 0 Z " fill="#504F13" transform="translate(24,55)" />
<path d="M0 0 C0.28875 0.61875 0.5775 1.2375 0.875 1.875 C2 4 2 4 4 6 C3.01 6 2.02 6 1 6 C0.67 6.99 0.34 7.98 0 9 C-0.66 9 -1.32 9 -2 9 C-2.33 10.65 -2.66 12.3 -3 14 C-3.33 14 -3.66 14 -4 14 C-3.46148032 8.72250715 -2.22656164 4.74354436 0 0 Z " fill="#464509" transform="translate(62,42)" />
<path d="M0 0 C-1.5 2 -1.5 2 -4 4 C-6.75871627 4.35800135 -9.20097524 4.18660165 -12 4 C-12 3.34 -12 2.68 -12 2 C-10.37787941 1.47026689 -8.75218416 0.95146893 -7.125 0.4375 C-6.22007813 0.14746094 -5.31515625 -0.14257812 -4.3828125 -0.44140625 C-2 -1 -2 -1 0 0 Z " fill="#939308" transform="translate(38,43)" />
<path d="M0 0 C0.33 0 0.66 0 1 0 C0.88521587 2.06309376 0.75773802 4.12548354 0.625 6.1875 C0.55539063 7.33605469 0.48578125 8.48460937 0.4140625 9.66796875 C0.02490426 12.79959117 -0.6809851 15.15285809 -2 18 C-4 15 -4 15 -3.3203125 11.42578125 C-2.93508498 10.05091752 -2.53609893 8.67985079 -2.125 7.3125 C-1.92519531 6.61060547 -1.72539063 5.90871094 -1.51953125 5.18554688 C-1.02470374 3.45365057 -0.51386825 1.72634252 0 0 Z " fill="#8B8E0B" transform="translate(61,33)" />
<path d="M0 0 C2.875 0.3125 2.875 0.3125 6 1 C8.56616632 4.84924948 8.55097676 7.4349304 9 12 C8.34 11.67 7.68 11.34 7 11 C7 10.34 7 9.68 7 9 C6.34 9 5.68 9 5 9 C4.9175 8.071875 4.835 7.14375 4.75 6.1875 C4 3 4 3 1.9375 1.125 C1.298125 0.75375 0.65875 0.3825 0 0 Z " fill="#68633A" transform="translate(69,21)" />
<path d="M0 0 C1.32 0 2.64 0 4 0 C3.67 1.65 3.34 3.3 3 5 C0.69 5.66 -1.62 6.32 -4 7 C-3.6875 5.0625 -3.6875 5.0625 -3 3 C-2.01 2.67 -1.02 2.34 0 2 C0 1.34 0 0.68 0 0 Z " fill="#DDDD39" transform="translate(47,30)" />
<path d="M0 0 C2.0625 0.4375 2.0625 0.4375 4 1 C4 1.99 4 2.98 4 4 C4.66 4.33 5.32 4.66 6 5 C5.00102287 7.99693138 4.34869747 9.02709413 2 11 C1.34 11 0.68 11 0 11 C1.875 5.25 1.875 5.25 3 3 C1.68 2.34 0.36 1.68 -1 1 C-0.67 0.67 -0.34 0.34 0 0 Z " fill="#CDD269" transform="translate(21,39)" />
<path d="M0 0 C1.32 0 2.64 0 4 0 C3.39009109 3.55780196 2.4216319 6.6828589 1 10 C-1.31 10 -3.62 10 -6 10 C-1.25 6 -1.25 6 1 6 C1.33 4.35 1.66 2.7 2 1 C1.34 0.67 0.68 0.34 0 0 Z " fill="#B4B11C" transform="translate(49,29)" />
<path d="M0 0 C1.65 0 3.3 0 5 0 C3.80100302 3.0831351 2.52299523 6.06279492 1 9 C-1 6 -1 6 -0.625 2.8125 C-0.41875 1.884375 -0.2125 0.95625 0 0 Z " fill="#E1E43B" transform="translate(59,17)" />
<path d="M0 0 C1.49341969 2.98683937 0.40648676 4.95160978 -0.4375 8.125 C-0.72496094 9.22070312 -1.01242188 10.31640625 -1.30859375 11.4453125 C-1.53675781 12.28835937 -1.76492187 13.13140625 -2 14 C-2.33 14 -2.66 14 -3 14 C-3.58718592 10.65559323 -4.05863115 7.40060685 -4 4 C-2.0625 1.375 -2.0625 1.375 0 0 Z " fill="#CFD428" transform="translate(64,18)" />
<path d="M0 0 C2 2 2 2 2 5 C2.598125 4.79375 3.19625 4.5875 3.8125 4.375 C6 4 6 4 9 6 C5.625 6.625 5.625 6.625 2 7 C0 5 0 5 -0.125 2.375 C-0.08375 1.59125 -0.0425 0.8075 0 0 Z " fill="#A5A54A" transform="translate(38,70)" />
<path d="M0 0 C0.66 0.33 1.32 0.66 2 1 C2 2.98 2 4.96 2 7 C1.34 7.33 1.34 7.33 -2 9 C-1.34 6.03 -0.68 3.06 0 0 Z " fill="#E4EA5A" transform="translate(49,39)" />
<path d="M0 0 C0.99 0.165 0.99 0.165 6 1 C5.34 2.65 4.68 4.3 4 6 C2.68 5.67 1.36 5.34 0 5 C0 3.35 0 1.7 0 0 Z " fill="#DFDF96" transform="translate(17,45)" />
<path d="M0 0 C-0.1546875 0.3815625 -0.1546875 0.3815625 -0.9375 2.3125 C-1.67893593 4.18789677 -2.36228217 6.08684652 -3 8 C-3.33 7.34 -3.66 6.68 -4 6 C-4.99 5.34 -5.98 4.68 -7 4 C-2.25 0 -2.25 0 0 0 Z " fill="#D4D760" transform="translate(30,54)" />
<path d="M0 0 C-0.33 1.32 -0.66 2.64 -1 4 C-2.65 4.33 -4.3 4.66 -6 5 C-5.625 3.0625 -5.625 3.0625 -5 1 C-3 0 -3 0 0 0 Z " fill="#F7EE40" transform="translate(57,32)" />
<path d="M0 0 C1.67542976 0.28604898 3.34385343 0.61781233 5 1 C5 1.66 5 2.32 5 3 C2.69 3.66 0.38 4.32 -2 5 C-1.125 1.125 -1.125 1.125 0 0 Z " fill="#E0E355" transform="translate(70,31)" />
<path d="M0 0 C0.99 0.66 0.99 0.66 6 4 C5.34 4.66 4.68 5.32 4 6 C2.68 6 1.36 6 0 6 C0 4.02 0 2.04 0 0 Z " fill="#72770E" transform="translate(63,38)" />
<path d="M0 0 C0.66 1.32 1.32 2.64 2 4 C-0.31 5.32 -2.62 6.64 -5 8 C-5 7.34 -5 6.68 -5 6 C-4.34 6 -3.68 6 -3 6 C-3 5.01 -3 4.02 -3 3 C-1.5 1.3125 -1.5 1.3125 0 0 Z " fill="#BCC227" transform="translate(75,33)" />
<path d="M0 0 C1.0625 1.8125 1.0625 1.8125 2 4 C1.67 4.99 1.34 5.98 1 7 C-0.32 6.67 -1.64 6.34 -3 6 C-2.67 4.68 -2.34 3.36 -2 2 C-1.34 2 -0.68 2 0 2 C0 1.34 0 0.68 0 0 Z " fill="#EBF15B" transform="translate(57,24)" />
<path d="M0 0 C1 3 1 3 0.22265625 5.04296875 C-0.16019531 5.75066406 -0.54304688 6.45835938 -0.9375 7.1875 C-1.31777344 7.90292969 -1.69804688 8.61835938 -2.08984375 9.35546875 C-2.24001953 9.62681641 -2.24001953 9.62681641 -3 11 C-4.22376937 7.3286919 -3.61664584 6.40346492 -2 3 C-1.34 2.01 -0.68 1.02 0 0 Z " fill="#555608" transform="translate(56,17)" />
<path d="M0 0 C0.33 0 0.66 0 1 0 C1.25 6.625 1.25 6.625 -1 10 C-1.66 10 -2.32 10 -3 10 C-2.01 6.7 -1.02 3.4 0 0 Z " fill="#D9E059" transform="translate(43,56)" />
<path d="M0 0 C-0.33 1.32 -0.66 2.64 -1 4 C-1 3.34 -1 2.68 -1 2 C-1.556875 2.33 -2.11375 2.66 -2.6875 3 C-5.30284522 4.1309601 -7.1806646 4.15662974 -10 4 C-6.74659338 1.32755885 -4.23938937 0 0 0 Z " fill="#81830B" transform="translate(49,38)" />
<path d="M0 0 C0.33 0.99 0.66 1.98 1 3 C-1 6 -1 6 -3.125 6.6875 C-3.74375 6.790625 -4.3625 6.89375 -5 7 C-3.70700306 4.11562221 -2.34058637 2.12780579 0 0 Z " fill="#6B6F05" transform="translate(41,58)" />
<path d="M0 0 C1.24546405 2.49092811 0.7767578 3.41080733 0 6 C-1.65 5.67 -3.3 5.34 -5 5 C-3.35 3.35 -1.7 1.7 0 0 Z " fill="#BBBF42" transform="translate(47,43)" />
<path d="M0 0 C0.66 0.33 1.32 0.66 2 1 C1.67 3.31 1.34 5.62 1 8 C0.01 7.34 -0.98 6.68 -2 6 C-1.125 1.125 -1.125 1.125 0 0 Z " fill="#858918" transform="translate(66,33)" />
<path d="M0 0 C0.99 0.165 0.99 0.165 6 1 C3.77810176 3.22189824 1.91517292 3.92598892 -1 5 C-1 2 -1 2 0 0 Z " fill="#68653E" transform="translate(20,34)" />
<path d="M0 0 C0.33 0 0.66 0 1 0 C0.67 2.64 0.34 5.28 0 8 C-0.66 8 -1.32 8 -2 8 C-1.125 1.125 -1.125 1.125 0 0 Z " fill="#E1EA47" transform="translate(50,57)" />
<path d="M0 0 C1.98 0 3.96 0 6 0 C5.34 1.32 4.68 2.64 4 4 C2.35 3.67 0.7 3.34 -1 3 C-0.67 2.01 -0.34 1.02 0 0 Z " fill="#6A6B15" transform="translate(24,47)" />
<path d="M0 0 C-5.41538462 3.07692308 -5.41538462 3.07692308 -8.375 2.6875 C-8.643125 2.5740625 -8.643125 2.5740625 -10 2 C-3.375 -1.125 -3.375 -1.125 0 0 Z " fill="#4D4809" transform="translate(37,47)" />
<path d="M0 0 C0.99 0.33 1.98 0.66 3 1 C2.67 2.32 2.34 3.64 2 5 C1.01 5 0.02 5 -1 5 C-0.67 3.35 -0.34 1.7 0 0 Z " fill="#82842C" transform="translate(69,23)" />
</svg>