<?xml version='1.0' encoding='utf-8'?>
<svg xmlns="http://www.w3.org/2000/svg" version="1.1" width="108" height="104">
<path d="M0 0 C3.13881904 2.67422849 5.0359515 4.58441699 6.3515625 8.53125 C7.0115625 8.53125 7.6715625 8.53125 8.3515625 8.53125 C8.3515625 9.19125 8.3515625 9.85125 8.3515625 10.53125 C9.0115625 10.53125 9.6715625 10.53125 10.3515625 10.53125 C11.9765625 13.03125 11.9765625 13.03125 13.3515625 15.53125 C12.0315625 14.87125 10.7115625 14.21125 9.3515625 13.53125 C9.91976695 17.93483445 11.63570745 21.57063166 13.51171875 25.54296875 C14.3515625 27.53125 14.3515625 27.53125 14.3515625 29.53125 C13.6915625 29.53125 13.0315625 29.53125 12.3515625 29.53125 C11.3615625 27.22125 10.3715625 24.91125 9.3515625 22.53125 C9.0215625 22.69625 9.0215625 22.69625 7.3515625 23.53125 C7.3515625 22.87125 7.3515625 22.21125 7.3515625 21.53125 C6.0315625 20.87125 4.7115625 20.21125 3.3515625 19.53125 C3.3515625 18.54125 3.3515625 17.55125 3.3515625 16.53125 C4.0115625 16.20125 4.6715625 15.87125 5.3515625 15.53125 C4.6915625 14.37625 4.6915625 14.37625 1.3515625 8.53125 C-0.09791058 11.43019616 -0.22793746 14.32493719 -0.6484375 17.53125 C-1.53732639 24.30902778 -1.53732639 24.30902778 -2.6484375 26.53125 C-1.93300781 26.66402344 -1.21757813 26.79679687 -0.48046875 26.93359375 C2.29344572 27.51898535 4.95455525 28.26283444 7.6640625 29.09375 C8.54707031 29.36316406 9.43007812 29.63257812 10.33984375 29.91015625 C10.67177734 30.01263672 10.67177734 30.01263672 12.3515625 30.53125 C12.3515625 30.86125 12.3515625 31.19125 12.3515625 31.53125 C5.89644216 32.09256481 1.19716527 30.16588787 -4.6484375 27.53125 C-3.8515625 31.3359375 -3.8515625 31.3359375 -2.0234375 33.09375 C1.00049789 34.92402668 4.07362057 36.20746576 7.3515625 37.53125 C4.3515625 38.53125 4.3515625 38.53125 2.44921875 37.82421875 C1.77761719 37.45941406 1.10601562 37.09460937 0.4140625 36.71875 C-0.25496094 36.36167969 -0.92398438 36.00460938 -1.61328125 35.63671875 C-2.99134447 34.88817385 -4.35846731 34.11919111 -5.71484375 33.33203125 C-7.6484375 32.53125 -7.6484375 32.53125 -10.6484375 33.53125 C-11.59765625 35.59765625 -11.59765625 35.59765625 -12.3359375 38.09375 C-12.46162109 38.50689453 -12.46162109 38.50689453 -13.09765625 40.59765625 C-13.27941406 41.23574219 -13.46117187 41.87382813 -13.6484375 42.53125 C-14.6384375 42.53125 -15.6284375 42.53125 -16.6484375 42.53125 C-16.6484375 43.19125 -16.6484375 43.85125 -16.6484375 44.53125 C-20.48395535 44.01293678 -22.01445682 43.27497987 -24.6484375 40.53125 C-25.3703125 40.28375 -26.0921875 40.03625 -26.8359375 39.78125 C-31.11677434 37.87865585 -34.23888232 34.69545257 -37.6484375 31.53125 C-36.83018476 27.87691735 -35.38409052 24.8516297 -33.6484375 21.53125 C-37.2784375 21.86125 -40.9084375 22.19125 -44.6484375 22.53125 C-41.79258977 20.62735151 -39.7172613 19.83662823 -36.4609375 18.90625 C-35.55988281 18.64585938 -34.65882812 18.38546875 -33.73046875 18.1171875 C-33.04339844 17.92382812 -32.35632812 17.73046875 -31.6484375 17.53125 C-31.6484375 16.54125 -31.6484375 15.55125 -31.6484375 14.53125 C-32.49148437 14.97597656 -33.33453125 15.42070313 -34.203125 15.87890625 C-34.75097656 16.16185547 -34.75097656 16.16185547 -37.5234375 17.59375 C-38.61398438 18.16222656 -39.70453125 18.73070313 -40.828125 19.31640625 C-41.75882813 19.71730469 -42.68953125 20.11820313 -43.6484375 20.53125 C-44.3084375 20.20125 -44.9684375 19.87125 -45.6484375 19.53125 C-44.56304687 18.974375 -43.47765625 18.4175 -42.359375 17.84375 C-29.02221969 10.80154557 -29.02221969 10.80154557 -24.83203125 4.26171875 C-19.71445764 -3.22041032 -7.49276581 -4.15528016 0 0 Z " fill="#E6E7E3" transform="translate(68.6484375,19.46875)" />
<path d="M0 0 C1.17151633 3.40791472 0.8291411 5.30750571 -0.3984375 8.66015625 C-0.55570313 9.09811523 -0.55570313 9.09811523 -1.3515625 11.31445312 C-1.68929687 12.22130859 -2.02703125 13.12816406 -2.375 14.0625 C-2.705 14.97322266 -3.035 15.88394531 -3.375 16.82226562 C-3.98774432 18.51229417 -4.60495603 20.20071433 -5.22802734 21.88696289 C-5.84700678 23.58122824 -6.42959044 25.28877133 -7 27 C-7.66 27 -8.32 27 -9 27 C-9.0928125 27.33 -9.0928125 27.33 -9.5625 29 C-13.77923377 37.80014004 -21.62140047 43.95984156 -30.625 47.375 C-39.64581554 49.13206648 -49.7937417 49.3962098 -58 45 C-61.92409195 42.15841617 -65.33186033 39.0806842 -68 35 C-67.67 34.34 -67.34 33.68 -67 33 C-66.566875 33.495 -66.13375 33.99 -65.6875 34.5 C-64 36 -64 36 -61 36 C-60.34 36 -59.68 36 -59 36 C-59.37253906 35.31292969 -59.74507812 34.62585938 -60.12890625 33.91796875 C-60.60199219 33.01691406 -61.07507813 32.11585937 -61.5625 31.1875 C-62.03816406 30.29417969 -62.51382813 29.40085937 -63.00390625 28.48046875 C-64 26 -64 26 -63 23 C-62.67 23.66 -62.34 24.32 -62 25 C-60.68 24.67 -59.36 24.34 -58 24 C-58 22.02 -58 20.04 -58 18 C-55 17 -55 17 -52 18 C-51.5875 18.928125 -51.175 19.85625 -50.75 20.8125 C-48.96754414 24.05911602 -48.52144984 24.50456261 -45.4375 26.0625 C-42 28 -42 28 -40.5625 30.125 C-39.72286602 34.41646257 -39.84770754 38.64274354 -40 43 C-38.35 43.33 -36.7 43.66 -35 44 C-35 43.01 -35 42.02 -35 41 C-33.906875 40.773125 -32.81375 40.54625 -31.6875 40.3125 C-27.43041051 38.79726476 -27.05154196 37.81000651 -25 34 C-23 33.0625 -23 33.0625 -21 33 C-20.01 33.66 -19.02 34.32 -18 35 C-18 34.34 -18 33.68 -18 33 C-18.99 32.67 -19.98 32.34 -21 32 C-19.125 25.125 -19.125 25.125 -18 24 C-15.32941149 23.85884839 -12.67567762 23.95752893 -10 24 C-10 23.34 -10 22.68 -10 22 C-9.52304688 21.57074219 -9.04609375 21.14148438 -8.5546875 20.69921875 C-6.49642914 18.44961476 -6.47231416 16.81549684 -6.125 13.8125 C-5.26881085 8.26203242 -3.34622241 4.4573726 0 0 Z " fill="#2D5511" transform="translate(88,38)" />
<path d="M0 0 C4.82142857 5.78571429 4.82142857 5.78571429 6 9 C5.67 9.99 5.34 10.98 5 12 C5 11.34 5 10.68 5 10 C4.34 10 3.68 10 3 10 C3.6875 11.875 3.6875 11.875 5 14 C5.825 14.33 6.65 14.66 7.5 15 C10 16 10 16 11.3125 17.9375 C12 20 12 20 12 23 C12.66 23.33 13.32 23.66 14 24 C13.745504 25.48206495 13.47088238 26.96068615 13.1875 28.4375 C13.03667969 29.26121094 12.88585937 30.08492187 12.73046875 30.93359375 C12.48941406 31.61550781 12.24835938 32.29742187 12 33 C11.01 33.33 10.02 33.66 9 34 C9 34.66 9 35.32 9 36 C6.36 36.33 3.72 36.66 1 37 C0.34 39.31 -0.32 41.62 -1 44 C-0.34 44.33 0.32 44.66 1 45 C1 45.66 1 46.32 1 47 C0.05125 46.79375 -0.8975 46.5875 -1.875 46.375 C-2.90625 46.25125 -3.9375 46.1275 -5 46 C-7 48 -7 48 -7.6875 50.0625 C-9 52 -9 52 -12.625 52.75 C-13.73875 52.8325 -14.8525 52.915 -16 53 C-16 53.99 -16 54.98 -16 56 C-17.65 55.67 -19.3 55.34 -21 55 C-21.02578125 54.3709375 -21.0515625 53.741875 -21.078125 53.09375 C-21.60645169 45.12081991 -23.8580011 39.17039868 -29 33 C-25.1286412 33.53768872 -23.02815875 34.577473 -20 37 C-19.01 37.33 -18.02 37.66 -17 38 C-17 37.34 -17 36.68 -17 36 C-16.01 36 -15.02 36 -14 36 C-13.87625 34.906875 -13.7525 33.81375 -13.625 32.6875 C-13 29 -13 29 -11 26 C-8.6875 25.0625 -8.6875 25.0625 -6 25 C-4.28724465 26.27358732 -2.62332967 27.61423077 -1 29 C2.3125 30.25 2.3125 30.25 5 31 C4.54625 30.7834375 4.54625 30.7834375 2.25 29.6875 C-2.91304348 27.00668896 -2.91304348 27.00668896 -5 25 C-5 23.68 -5 22.36 -5 21 C-2.31171277 21.46084924 0.03566221 22.01478677 2.5625 23.0625 C5 24 5 24 9 24 C5.04 22.68 1.08 21.36 -3 20 C-2.69055299 17.41626766 -2.37756043 14.83304867 -2.0625 12.25 C-1.97548828 11.52039062 -1.88847656 10.79078125 -1.79882812 10.0390625 C-1.37972591 6.62415558 -0.882726 3.32396457 0 0 Z " fill="#598C31" transform="translate(69,26)" />
<path d="M0 0 C12.03853009 -1.06520702 12.03853009 -1.06520702 16.67578125 1.453125 C19.77843442 4.15305719 21.68696749 6.06090248 23 10 C23.66 10 24.32 10 25 10 C25 10.66 25 11.32 25 12 C25.66 12 26.32 12 27 12 C28.625 14.5 28.625 14.5 30 17 C28.68 16.34 27.36 15.68 26 15 C26.56820445 19.40358445 28.28414495 23.03938166 30.16015625 27.01171875 C31 29 31 29 31 31 C30.34 31 29.68 31 29 31 C28.01 28.69 27.02 26.38 26 24 C25.67 24.165 25.67 24.165 24 25 C24 24.34 24 23.68 24 23 C22.68 22.34 21.36 21.68 20 21 C20 20.01 20 19.02 20 18 C20.66 17.67 21.32 17.34 22 17 C21.34 15.845 21.34 15.845 18 10 C16.55052692 12.89894616 16.42050004 15.79368719 16 19 C15.11111111 25.77777778 15.11111111 25.77777778 14 28 C14.71542969 28.13277344 15.43085937 28.26554687 16.16796875 28.40234375 C18.94188322 28.98773535 21.60299275 29.73158444 24.3125 30.5625 C25.19550781 30.83191406 26.07851562 31.10132812 26.98828125 31.37890625 C27.32021484 31.48138672 27.32021484 31.48138672 29 32 C29 32.33 29 32.66 29 33 C22.54487966 33.56131481 17.84560277 31.63463787 12 29 C12.796875 32.8046875 12.796875 32.8046875 14.625 34.5625 C17.64893539 36.39277668 20.72205807 37.67621576 24 39 C21 40 21 40 19.09765625 39.29296875 C18.42605469 38.92816406 17.75445312 38.56335937 17.0625 38.1875 C16.39347656 37.83042969 15.72445312 37.47335938 15.03515625 37.10546875 C13.65709303 36.35692385 12.28997019 35.58794111 10.93359375 34.80078125 C9 34 9 34 6 35 C5.05078125 37.06640625 5.05078125 37.06640625 4.3125 39.5625 C4.06113281 40.38878906 3.80976562 41.21507812 3.55078125 42.06640625 C3.36902344 42.70449219 3.18726562 43.34257813 3 44 C2.01 44 1.02 44 0 44 C0 44.66 0 45.32 0 46 C-3.83551785 45.48168678 -5.36601932 44.74372987 -8 42 C-8.7425 41.731875 -9.485 41.46375 -10.25 41.1875 C-14.12661505 39.51350714 -16.90935462 36.83234937 -20 34 C-18.625 32.5 -18.625 32.5 -17 31 C-16.34 31 -15.68 31 -15 31 C-15 31.66 -15 32.32 -15 33 C-14.443125 33.226875 -13.88625 33.45375 -13.3125 33.6875 C-10.36753316 35.35896766 -8.31843456 37.55276352 -6 40 C-5.9175 39.236875 -5.835 38.47375 -5.75 37.6875 C-4.82977836 34.39003912 -3.69632294 33.96096214 -1 32 C-0.27840576 30.35636866 0.39351421 28.68949614 1 27 C1.66 26.34 2.32 25.68 3 25 C3.12375 23.845 3.2475 22.69 3.375 21.5 C3.58125 20.345 3.7875 19.19 4 18 C4.64710937 17.74476562 5.29421875 17.48953125 5.9609375 17.2265625 C8 16 8 16 8.828125 12.7421875 C8.96734375 11.46601563 9.1065625 10.18984375 9.25 8.875 C9.39953125 7.59367187 9.5490625 6.31234375 9.703125 4.9921875 C9.80109375 4.00476563 9.8990625 3.01734375 10 2 C6.7 1.67 3.4 1.34 0 1 C0 0.67 0 0.34 0 0 Z " fill="#A9B0A1" transform="translate(52,18)" />
<path d="M0 0 C0.99 0 1.98 0 3 0 C4.84526962 2.62596061 5.98375849 4.95127546 7 8 C7.66 8 8.32 8 9 8 C9.66 8.66 10.32 9.32 11 10 C12.05991212 10.87813299 13.1227529 11.75273578 14.1875 12.625 C18.22556285 16.05226343 21.6116307 19.94219603 25 24 C24.67 24.66 24.34 25.32 24 26 C18.21538462 22.67692308 18.21538462 22.67692308 17.125 19.25 C17.08375 18.5075 17.0425 17.765 17 17 C15.35 17 13.7 17 12 17 C12 18.98 12 20.96 12 23 C10.35 23.66 8.7 24.32 7 25 C7.52283155 27.71872407 8.32759741 29.62999502 9.625 32.125 C10.07875 33.07375 10.5325 34.0225 11 35 C10.67 35.66 10.34 36.32 10 37 C9.01 36.34 8.02 35.68 7 35 C6.01 35 5.02 35 4 35 C0.17656864 32.48213057 -1.75187052 30.42518633 -3 26 C-3 25.01 -3 24.02 -3 23 C-3.66 23 -4.32 23 -5 23 C-5.57682463 13.98871743 -5.49238382 7.41471816 0 0 Z " fill="#5E982B" transform="translate(19,39)" />
<path d="M0 0 C1.875 1.1875 1.875 1.1875 2.875 3.1875 C1.885 3.1875 0.895 3.1875 -0.125 3.1875 C-0.125 4.5075 -0.125 5.8275 -0.125 7.1875 C3.835 7.5175 7.795 7.8475 11.875 8.1875 C11.875 8.5175 11.875 8.8475 11.875 9.1875 C6.925 9.1875 1.975 9.1875 -3.125 9.1875 C-2.125 13.1875 -2.125 13.1875 -0.05859375 14.8203125 C0.76511719 15.31273438 1.58882812 15.80515625 2.4375 16.3125 C3.94735759 17.22171222 5.43591639 18.16996613 6.875 19.1875 C6.875 19.8475 6.875 20.5075 6.875 21.1875 C6.400625 21.084375 6.400625 21.084375 4 20.5625 C3.484375 20.500625 3.484375 20.500625 0.875 20.1875 C-1.125 22.1875 -1.125 22.1875 -1.8125 24.25 C-3.125 26.1875 -3.125 26.1875 -6.75 26.9375 C-7.306875 26.97875 -7.306875 26.97875 -10.125 27.1875 C-10.125 28.1775 -10.125 29.1675 -10.125 30.1875 C-11.775 29.8575 -13.425 29.5275 -15.125 29.1875 C-15.13789062 28.87296875 -15.13789062 28.87296875 -15.203125 27.28125 C-15.73145169 19.30831991 -17.9830011 13.35789868 -23.125 7.1875 C-19.2536412 7.72518872 -17.15315875 8.764973 -14.125 11.1875 C-13.135 11.5175 -12.145 11.8475 -11.125 12.1875 C-11.125 11.5275 -11.125 10.8675 -11.125 10.1875 C-10.135 10.1875 -9.145 10.1875 -8.125 10.1875 C-8.00125 9.094375 -7.8775 8.00125 -7.75 6.875 C-7.125 3.1875 -7.125 3.1875 -5.125 0.1875 C-2.125 -0.8125 -2.125 -0.8125 0 0 Z " fill="#9FA198" transform="translate(63.125,51.8125)" />
<path d="M0 0 C2.375 0.0625 2.375 0.0625 5 1 C5.45375 1.928125 5.9075 2.85625 6.375 3.8125 C8.06290417 7.12338896 8.46427911 7.50380743 11.5625 9.0625 C15 11 15 11 16.4375 13.25 C17.18745645 16.91645376 17.12681956 20.2588229 17 24 C14.69 24.66 12.38 25.32 10 26 C9.17361624 23.10765685 9 21.11257569 9 18 C8.01 19.32 7.02 20.64 6 22 C4.68 21.67 3.36 21.34 2 21 C2.66 22.98 3.32 24.96 4 27 C-0.40114397 26.49701212 -2.71195019 24.91227269 -6 22 C-5.67 20.68 -5.34 19.36 -5 18 C-4.01 18.33 -3.02 18.66 -2 19 C-2.37253906 18.31292969 -2.74507812 17.62585938 -3.12890625 16.91796875 C-3.60199219 16.01691406 -4.07507813 15.11585937 -4.5625 14.1875 C-5.03816406 13.29417969 -5.51382812 12.40085937 -6.00390625 11.48046875 C-7 9 -7 9 -6 6 C-5.67 6.66 -5.34 7.32 -5 8 C-3.68 7.67 -2.36 7.34 -1 7 C-1.020625 6.030625 -1.04125 5.06125 -1.0625 4.0625 C-1 1 -1 1 0 0 Z " fill="#45851D" transform="translate(31,55)" />
<path d="M0 0 C0.66 0 1.32 0 2 0 C6 4.47058824 6 4.47058824 6 7 C6.66 7 7.32 7 8 7 C10 9 10 9 12 12 C11.34 12.66 10.68 13.32 10 14 C9.01 14 8.02 14 7 14 C6.67 14.99 6.34 15.98 6 17 C5.01 17 4.02 17 3 17 C3 18.98 3 20.96 3 23 C2.34 23 1.68 23 1 23 C1.66 24.65 2.32 26.3 3 28 C1.68 28.33 0.36 28.66 -1 29 C-2.83822407 24.30557119 -3.33611639 20.055004 -3.3125 15.0625 C-3.32861328 14.38509766 -3.34472656 13.70769531 -3.36132812 13.00976562 C-3.36623272 7.89427367 -2.21915478 4.49100716 0 0 Z " fill="#71A046" transform="translate(20,40)" />
<path d="M0 0 C4.62 0 9.24 0 14 0 C14 0.66 14 1.32 14 2 C13.01 2 12.02 2 11 2 C11.04640625 3.03640625 11.0928125 4.0728125 11.140625 5.140625 C11.17815275 6.51038779 11.21455184 7.88018182 11.25 9.25 C11.26675781 9.59095703 11.26675781 9.59095703 11.3515625 11.31640625 C11.41969397 14.82517682 11.38751527 16.56040758 9.0234375 19.2421875 C8.35570313 19.82226562 7.68796875 20.40234375 7 21 C6.68058834 22.98035228 6.36754487 24.96564764 6.203125 26.96484375 C5.91376063 29.8640521 5.16824779 32.33899114 4 35 C3.505 35.165 3.505 35.165 1 36 C-0.1875 38.5625 -0.1875 38.5625 -1 41 C-1.66 41 -2.32 41 -3 41 C-3 40.34 -3 39.68 -3 39 C-3.66 39 -4.32 39 -5 39 C-5.33 39.99 -5.66 40.98 -6 42 C-12.10419901 40.7542451 -15.54831603 38.30284347 -20 34 C-18.625 32.5 -18.625 32.5 -17 31 C-16.34 31 -15.68 31 -15 31 C-15 31.66 -15 32.32 -15 33 C-14.443125 33.226875 -13.88625 33.45375 -13.3125 33.6875 C-10.36753316 35.35896766 -8.31843456 37.55276352 -6 40 C-5.9175 39.236875 -5.835 38.47375 -5.75 37.6875 C-4.82977836 34.39003912 -3.69632294 33.96096214 -1 32 C-0.27840576 30.35636866 0.39351421 28.68949614 1 27 C1.66 26.34 2.32 25.68 3 25 C3.12375 23.845 3.2475 22.69 3.375 21.5 C3.58125 20.345 3.7875 19.19 4 18 C4.64710937 17.74476562 5.29421875 17.48953125 5.9609375 17.2265625 C8 16 8 16 8.828125 12.7421875 C8.96734375 11.46601563 9.1065625 10.18984375 9.25 8.875 C9.39953125 7.59367187 9.5490625 6.31234375 9.703125 4.9921875 C9.80109375 4.00476563 9.8990625 3.01734375 10 2 C6.7 1.67 3.4 1.34 0 1 C0 0.67 0 0.34 0 0 Z " fill="#CBCDC6" transform="translate(52,18)" />
<path d="M0 0 C2.78696543 1.80333057 4.90876987 3.91252208 7.125 6.375 C7.125 7.035 7.125 7.695 7.125 8.375 C7.785 8.375 8.445 8.375 9.125 8.375 C9.125 9.035 9.125 9.695 9.125 10.375 C9.785 10.375 10.445 10.375 11.125 10.375 C12.75 12.875 12.75 12.875 14.125 15.375 C10.91456118 13.99311547 9.07563635 12.45078097 6.875 9.75 C6.61460938 9.43417969 6.61460938 9.43417969 5.296875 7.8359375 C4.91015625 7.35382812 4.5234375 6.87171875 4.125 6.375 C2.475 6.705 0.825 7.035 -0.875 7.375 C-1.205 8.695 -1.535 10.015 -1.875 11.375 C-2.535 11.375 -3.195 11.375 -3.875 11.375 C-3.91238281 12.02726562 -3.94976562 12.67953125 -3.98828125 13.3515625 C-4.39387629 18.74359064 -5.15058065 22.60726613 -7.875 27.375 C-8.04 28.138125 -8.205 28.90125 -8.375 29.6875 C-8.54 30.244375 -8.705 30.80125 -8.875 31.375 C-9.37 31.54 -9.37 31.54 -11.875 32.375 C-11.730625 31.735625 -11.58625 31.09625 -11.4375 30.4375 C-10.875 27.375 -10.875 27.375 -10.7265625 25.14453125 C-10.67242187 24.35433594 -10.61828125 23.56414063 -10.5625 22.75 C-10.52511719 21.99460937 -10.48773438 21.23921875 -10.44921875 20.4609375 C-9.875 18.375 -9.875 18.375 -7.87890625 17.08203125 C-5.875 15.375 -5.875 15.375 -5.265625 11.80078125 C-5.19942709 10.4304845 -5.1531749 9.05910545 -5.125 7.6875 C-5.09535156 6.98560547 -5.06570312 6.28371094 -5.03515625 5.56054688 C-4.96462967 3.83264576 -4.91752932 2.1038168 -4.875 0.375 C-1.875 -0.625 -1.875 -0.625 0 0 Z " fill="#B2B5AE" transform="translate(67.875,19.625)" />
<path d="M0 0 C2.75100957 2.12220738 5.22121884 4.23175307 7.625 6.75 C10 9 10 9 13 9 C13 7.68 13 6.36 13 5 C14.32 5 15.64 5 17 5 C19.25 2.5 19.25 2.5 21 0 C21 2.97 21 5.94 21 9 C22.155 8.835 22.155 8.835 28 8 C28.33 8.99 28.66 9.98 29 11 C28.34 11 27.68 11 27 11 C26.67 11.99 26.34 12.98 26 14 C19.79888395 15.21807637 15.58619605 15.105925 10 12 C6.13018745 9.22921421 2.49091818 6.10268877 0 2 C0 1.34 0 0.68 0 0 Z " fill="#286D0B" transform="translate(20,71)" />
<path d="M0 0 C3.38219649 0.18282143 4.73469296 0.74227316 7.1875 3.125 C9.2442169 6.38737853 10.00735405 9.2775777 11 13 C12.01192195 15.38860647 13.08886807 17.73588448 14.1953125 20.08203125 C15 22 15 22 15 24 C14.34 24 13.68 24 13 24 C12.505 22.845 12.505 22.845 10 17 C9.34 17.33 8.68 17.66 8 18 C8 17.34 8 16.68 8 16 C6.68 15.34 5.36 14.68 4 14 C4 13.01 4 12.02 4 11 C4.66 10.67 5.32 10.34 6 10 C5.34 8.845 5.34 8.845 2 3 C0.53430585 5.9313883 0.37913782 8.88632266 -0.0625 12.125 C-0.23910156 13.40632813 -0.41570312 14.68765625 -0.59765625 16.0078125 C-0.73042969 16.99523437 -0.86320312 17.98265625 -1 19 C-1.33 19 -1.66 19 -2 19 C-2 17.02 -2 15.04 -2 13 C-2.66 13.66 -3.32 14.32 -4 15 C-4 12.03 -4 9.06 -4 6 C-3.34 6 -2.68 6 -2 6 C-1.855625 5.195625 -1.71125 4.39125 -1.5625 3.5625 C-1 1 -1 1 0 0 Z " fill="#9A9E96" transform="translate(68,25)" />
<path d="M0 0 C4.82142857 5.78571429 4.82142857 5.78571429 6 9 C5.67 9.99 5.34 10.98 5 12 C5 11.34 5 10.68 5 10 C4.34 10 3.68 10 3 10 C4.01691438 12.2685013 4.73920454 13.78749999 6.6875 15.375 C8 17 8 17 7.6875 20.1875 C7.460625 21.115625 7.23375 22.04375 7 23 C3.7 22.01 0.4 21.02 -3 20 C-2.69055299 17.41626766 -2.37756043 14.83304867 -2.0625 12.25 C-1.97548828 11.52039062 -1.88847656 10.79078125 -1.79882812 10.0390625 C-1.37972591 6.62415558 -0.882726 3.32396457 0 0 Z " fill="#797A73" transform="translate(69,26)" />
<path d="M0 0 C0.99 0.144375 1.98 0.28875 3 0.4375 C6.99409465 1.00925179 10.99532937 1.50819834 15 2 C15.33 2.99 15.66 3.98 16 5 C15.67 5.66 15.34 6.32 15 7 C13.72125 7.061875 12.4425 7.12375 11.125 7.1875 C8.9453125 7.3828125 8.9453125 7.3828125 7 8 C5.30993005 10.28656522 4.80939594 12.21770144 4 15 C1.36 13.02 -1.28 11.04 -4 9 C-3.67 8.01 -3.34 7.02 -3 6 C-1.35 5.67 0.3 5.34 2 5 C1.34 4.67 0.68 4.34 0 4 C0 2.68 0 1.36 0 0 Z " fill="#697061" transform="translate(63,55)" />
<path d="M0 0 C1.859375 0.18359375 1.859375 0.18359375 4 1 C5.265625 3.28515625 5.265625 3.28515625 6.25 6.0625 C6.58515625 6.98160156 6.9203125 7.90070313 7.265625 8.84765625 C7.50796875 9.55792969 7.7503125 10.26820312 8 11 C5 13 5 13 2 13 C2 13.99 2 14.98 2 16 C0.35 15.67 -1.3 15.34 -3 15 C-3.16852247 13.39602723 -3.33474886 11.7918131 -3.5 10.1875 C-3.5928125 9.29417969 -3.685625 8.40085937 -3.78125 7.48046875 C-4 5 -4 5 -4 2 C-3.34 2.165 -3.34 2.165 0 3 C0 2.01 0 1.02 0 0 Z " fill="#71786E" transform="translate(51,66)" />
<path d="M0 0 C2.64 0.33 5.28 0.66 8 1 C6.68 1.33 5.36 1.66 4 2 C4.3426335 4.8781214 4.74845241 5.80123461 7.06640625 7.6328125 C7.89011719 8.12523438 8.71382812 8.61765625 9.5625 9.125 C11.07235759 10.03421222 12.56091639 10.98246613 14 12 C14 12.66 14 13.32 14 14 C13.05125 13.79375 12.1025 13.5875 11.125 13.375 C10.09375 13.25125 9.0625 13.1275 8 13 C6.04783565 14.95216435 5.15173355 16.53199953 4 19 C0.93686285 15.49927183 -1.07047299 11.55468236 -2 7 C-1.67621804 4.39502698 -0.97717713 2.46865802 0 0 Z " fill="#85897F" transform="translate(56,59)" />
<path d="M0 0 C0.33 0.99 0.66 1.98 1 3 C-2.48720616 7.3590077 -5.72760915 7.94552183 -11 9 C-9.515 8.835 -9.515 8.835 -2 8 C-5.625 15.75 -5.625 15.75 -9 18 C-9.33 17.01 -9.66 16.02 -10 15 C-10.66 15 -11.32 15 -12 15 C-16 10.52941176 -16 10.52941176 -16 8 C-15.18015625 7.67386719 -14.3603125 7.34773438 -13.515625 7.01171875 C-12.43796875 6.57472656 -11.3603125 6.13773438 -10.25 5.6875 C-9.18265625 5.25824219 -8.1153125 4.82898437 -7.015625 4.38671875 C-4.3347085 3.15391388 -2.2616808 1.87192513 0 0 Z " fill="#4C5F30" transform="translate(38,32)" />
<path d="M0 0 C0.66 0 1.32 0 2 0 C6 4.47058824 6 4.47058824 6 7 C6.66 7 7.32 7 8 7 C10 9 10 9 12 12 C11.34 12.66 10.68 13.32 10 14 C9.01 14 8.02 14 7 14 C6.67 14.99 6.34 15.98 6 17 C3 17 3 17 1 16 C1.00580078 15.67386719 1.00580078 15.67386719 1.03515625 14.0234375 C1.08470994 9.2238086 0.99413751 4.72215315 0 0 Z " fill="#70A035" transform="translate(20,40)" />
<path d="M0 0 C0.66 0.66 1.32 1.32 2 2 C1.34 2 0.68 2 0 2 C0 2.66 0 3.32 0 4 C1.32 4.33 2.64 4.66 4 5 C3.6641593 8.10652645 3.40950721 9.60414303 1.125 11.8125 C-1 13 -1 13 -4 13 C-4 12.34 -4 11.68 -4 11 C-4.86625 11.33 -5.7325 11.66 -6.625 12 C-9.95718275 12.98731341 -12.55159538 13.16420974 -16 13 C-13.14415227 11.09610151 -11.0688238 10.30537823 -7.8125 9.375 C-7.36197266 9.24480469 -7.36197266 9.24480469 -5.08203125 8.5859375 C-4.39496094 8.39257812 -3.70789062 8.19921875 -3 8 C-3 7.01 -3 6.02 -3 5 C-3.84304687 5.44472656 -4.68609375 5.88945313 -5.5546875 6.34765625 C-6.10253906 6.63060547 -6.10253906 6.63060547 -8.875 8.0625 C-9.96554688 8.63097656 -11.05609375 9.19945312 -12.1796875 9.78515625 C-13.11039063 10.18605469 -14.04109375 10.58695313 -15 11 C-15.66 10.67 -16.32 10.34 -17 10 C-15.85660156 9.36191406 -14.71320312 8.72382812 -13.53515625 8.06640625 C-12.04422197 7.23185813 -10.55333921 6.39721796 -9.0625 5.5625 C-8.30775391 5.14162109 -7.55300781 4.72074219 -6.77539062 4.28710938 C-6.05673828 3.88427734 -5.33808594 3.48144531 -4.59765625 3.06640625 C-3.93258057 2.69459229 -3.26750488 2.32277832 -2.58227539 1.93969727 C-1 1 -1 1 0 0 Z " fill="#D7D7D0" transform="translate(40,29)" />
<path d="M0 0 C0 0.66 0 1.32 0 2 C-0.66 2 -1.32 2 -2 2 C-2.33 3.65 -2.66 5.3 -3 7 C-3.66 7 -4.32 7 -5 7 C-5 7.66 -5 8.32 -5 9 C-7.30276574 11.21747812 -8.52480092 11.96760006 -11.75 12.1875 C-12.4925 12.125625 -13.235 12.06375 -14 12 C-12.22391865 3.765441 -9.2082371 -0.90276834 0 0 Z " fill="#F4F5F1" transform="translate(54,21)" />
<path d="M0 0 C2.05078125 0.03255208 4.1015625 0.06510417 6.15234375 0.09765625 C5.67589167 4.38572498 4.49331891 6.36413112 1.15234375 9.09765625 C0.49234375 9.09765625 -0.16765625 9.09765625 -0.84765625 9.09765625 C-0.84765625 10.08765625 -0.84765625 11.07765625 -0.84765625 12.09765625 C-2.16765625 12.42765625 -3.48765625 12.75765625 -4.84765625 13.09765625 C-4.51765625 12.10765625 -4.18765625 11.11765625 -3.84765625 10.09765625 C-3.18765625 10.42765625 -2.52765625 10.75765625 -1.84765625 11.09765625 C-1.84765625 10.43765625 -1.84765625 9.77765625 -1.84765625 9.09765625 C-2.83765625 8.76765625 -3.82765625 8.43765625 -4.84765625 8.09765625 C-2.67780446 0.14153301 -2.67780446 0.14153301 0 0 Z " fill="#39741C" transform="translate(71.84765625,61.90234375)" />
<path d="M0 0 C0.99 0.33 1.98 0.66 3 1 C2.34 1 1.68 1 1 1 C-0.65778258 6.05886827 -1.32170862 10.59520778 -1.25 15.9375 C-1.24613281 16.63681641 -1.24226563 17.33613281 -1.23828125 18.05664062 C-1.15505318 23.01795841 -0.5639127 27.30826191 1 32 C-1 31 -1 31 -2.125 28.625 C-3 26 -3 26 -3 23 C-3.66 23 -4.32 23 -5 23 C-5.57682463 13.98871743 -5.49238382 7.41471816 0 0 Z " fill="#4F602A" transform="translate(19,39)" />
<path d="M0 0 C1.65161581 0.75836443 3.29617138 1.53212076 4.9375 2.3125 C5.85402344 2.74175781 6.77054687 3.17101563 7.71484375 3.61328125 C10 5 10 5 11 8 C10.00390625 9.82421875 10.00390625 9.82421875 8.5625 11.6875 C8.08941406 12.31011719 7.61632812 12.93273438 7.12890625 13.57421875 C6.75636719 14.04472656 6.38382812 14.51523437 6 15 C4.07728194 13.07728194 3.10874973 11.57731892 1.875 9.1875 C1.69839844 8.85427734 1.69839844 8.85427734 0.8046875 7.16796875 C-0.12651686 4.65914146 -0.13901571 2.6552 0 0 Z " fill="#829A5B" transform="translate(77,32)" />
<path d="M0 0 C0.33 0.99 0.66 1.98 1 3 C1.99 3.33 2.98 3.66 4 4 C-2.43441926 8.35178114 -7.25189832 9.72790099 -15 9 C-12.50754779 6.24049934 -10.79699009 4.37969901 -7 4 C-6.34 4.33 -5.68 4.66 -5 5 C-5 4.01 -5 3.02 -5 2 C-3.35 1.34 -1.7 0.68 0 0 Z " fill="#254B12" transform="translate(58,77)" />
<path d="M0 0 C0.99 0 1.98 0 3 0 C2.67 2.97 2.34 5.94 2 9 C1.01 9 0.02 9 -1 9 C-1 9.66 -1 10.32 -1 11 C-4.24208567 10.64950425 -5.61527704 10.43778819 -7.8125 7.9375 C-8.204375 7.298125 -8.59625 6.65875 -9 6 C-8.34 6 -7.68 6 -7 6 C-6.67 5.34 -6.34 4.68 -6 4 C-5.34 4 -4.68 4 -4 4 C-4 4.66 -4 5.32 -4 6 C-3.34 6 -2.68 6 -2 6 C-1.855625 5.195625 -1.71125 4.39125 -1.5625 3.5625 C-1 1 -1 1 0 0 Z " fill="#BCBEB8" transform="translate(53,53)" />
<path d="M0 0 C2 1 2 1 3.125 3.0625 C4.2583306 6.86725273 4.13434296 10.0368828 4 14 C1.92446352 14.5534764 0.15634036 15 -2 15 C-2 13.02 -2 11.04 -2 9 C-1.01 8.67 -0.02 8.34 1 8 C0.67 7.34 0.34 6.68 0 6 C-0.039992 4.00039988 -0.04346799 1.99952758 0 0 Z " fill="#3C701F" transform="translate(44,65)" />
<path d="M0 0 C4.12751449 0.60698743 7.3321148 2.03810791 11 4 C10.67 5.32 10.34 6.64 10 8 C6.55736871 8.39344358 5.18281681 8.11375268 2.1875 6.25 C0 4 0 4 0 0 Z " fill="#777C6F" transform="translate(64,47)" />
<path d="M0 0 C1.15224028 0.92961422 2.29659176 1.8690125 3.4375 2.8125 C4.07558594 3.33457031 4.71367188 3.85664063 5.37109375 4.39453125 C7 6 7 6 8 9 C8.66 9 9.32 9 10 9 C10 9.66 10 10.32 10 11 C10.66 11 11.32 11 12 11 C13.625 13.5 13.625 13.5 15 16 C11.78956118 14.61811547 9.95063635 13.07578097 7.75 10.375 C7.22921875 9.74335938 6.7084375 9.11171875 6.171875 8.4609375 C5.78515625 7.97882812 5.3984375 7.49671875 5 7 C2.625 7.25 2.625 7.25 0 8 C-1.3125 10.0625 -1.3125 10.0625 -2 12 C-2.17835515 7.45194365 -1.99785435 4.1205746 0 0 Z " fill="#AEAFA6" transform="translate(67,19)" />
<path d="M0 0 C2.66498982 2.05584929 4.96924661 3.96291503 7.125 6.5625 C10.76782673 9.65098354 14.05693101 10.27642697 18.671875 11.2265625 C19.44015625 11.48179688 20.2084375 11.73703125 21 12 C21.33 12.99 21.66 13.98 22 15 C14.18664945 14.71587816 8.87993597 11.83482044 3.3203125 6.33984375 C0 2.52242232 0 2.52242232 0 0 Z " fill="#385B1A" transform="translate(20,71)" />
<path d="M0 0 C2.25245881 2.68841859 3.88213958 4.64641875 5 8 C3.68 8.33 2.36 8.66 1 9 C1 11.31 1 13.62 1 16 C0.34 16 -0.32 16 -1 16 C-1 17.32 -1 18.64 -1 20 C-1.66 20 -2.32 20 -3 20 C-2.69055299 17.41626766 -2.37756043 14.83304867 -2.0625 12.25 C-1.97548828 11.52039062 -1.88847656 10.79078125 -1.79882812 10.0390625 C-1.37972591 6.62415558 -0.882726 3.32396457 0 0 Z " fill="#868A82" transform="translate(69,26)" />
<path d="M0 0 C5.27749285 0.53851968 9.25645564 1.77343836 14 4 C14 4.33 14 4.66 14 5 C12.04174127 5.02694851 10.08337774 5.04637218 8.125 5.0625 C7.03445312 5.07410156 5.94390625 5.08570313 4.8203125 5.09765625 C2 5 2 5 0 4 C0 2.68 0 1.36 0 0 Z " fill="#66745E" transform="translate(63,55)" />
<path d="M0 0 C5.70512048 0.98042169 5.70512048 0.98042169 8 4 C8 4.66 8 5.32 8 6 C9.65 6 11.3 6 13 6 C12.67 6.165 12.67 6.165 11 7 C11 7.99 11 8.98 11 10 C7.75480334 9.69593558 6.38099448 9.43719323 4.19921875 6.93359375 C3.70035156 6.10988281 3.20148437 5.28617187 2.6875 4.4375 C2.17574219 3.61121094 1.66398437 2.78492188 1.13671875 1.93359375 C0.76160156 1.29550781 0.38648438 0.65742187 0 0 Z " fill="#788476" transform="translate(40,59)" />
<path d="M0 0 C1.67180274 0.94934513 3.33733936 1.90973313 5 2.875 C5.4640625 3.14183594 5.4640625 3.14183594 7.8125 4.4921875 C8.1734375 4.74097656 8.1734375 4.74097656 10 6 C10 6.66 10 7.32 10 8 C9.05125 7.79375 8.1025 7.5875 7.125 7.375 C6.609375 7.313125 6.609375 7.313125 4 7 C2.04783565 8.95216435 1.15173355 10.53199953 0 13 C-1.5625 11.1875 -1.5625 11.1875 -3 9 C-2.67 8.01 -2.34 7.02 -2 6 C-1.34 6.165 -1.34 6.165 2 7 C1.42415568 4.61435923 0.77772405 2.33317216 0 0 Z " fill="#94A388" transform="translate(60,65)" />
<path d="M0 0 C0 0.66 0 1.32 0 2 C0.61875 2.20625 1.2375 2.4125 1.875 2.625 C4.84653645 4.54775888 5.13024659 6.66594527 6 10 C2.60807637 9.40716379 0.7892243 8.23256811 -1.75 5.9375 C-2.36359375 5.38964844 -2.9771875 4.84179688 -3.609375 4.27734375 C-4.06828125 3.85582031 -4.5271875 3.43429688 -5 3 C-2.25 0 -2.25 0 0 0 Z " fill="#BCC2B4" transform="translate(37,49)" />
<path d="M0 0 C1.43410153 3.78819273 0.51009497 6.06521279 -0.9375 9.75 C-1.31777344 10.73484375 -1.69804688 11.7196875 -2.08984375 12.734375 C-2.39019531 13.48203125 -2.69054687 14.2296875 -3 15 C-3.66 15 -4.32 15 -5 15 C-5 15.66 -5 16.32 -5 17 C-5.66 16.67 -6.32 16.34 -7 16 C-5.42334814 9.95616788 -3.80824293 4.99011142 0 0 Z " fill="#446419" transform="translate(88,38)" />
<path d="M0 0 C2.6875 -0.125 2.6875 -0.125 6 1 C8.37024261 4.48493035 11 8.69326991 11 13 C10.34 13 9.68 13 9 13 C8.01 10.69 7.02 8.38 6 6 C5.67 6.165 5.67 6.165 4 7 C4 6.34 4 5.68 4 5 C2.68 4.34 1.36 3.68 0 3 C0 2.01 0 1.02 0 0 Z " fill="#98A783" transform="translate(72,36)" />
<path d="M0 0 C0.66 0.66 1.32 1.32 2 2 C1.58481529 6.46323568 0.49021467 10.77772512 -1 15 C-1.99 15.33 -2.98 15.66 -4 16 C-3.9278125 15.6803125 -3.9278125 15.6803125 -3.5625 14.0625 C-2.94649554 10.70869792 -2.64724972 7.38539538 -2.37890625 3.98828125 C-2 2 -2 2 0 0 Z " fill="#BCBEB6" transform="translate(60,36)" />
<path d="M0 0 C0.33 0.99 0.66 1.98 1 3 C-1.94209022 6.67761277 -4.59081436 7.72431991 -9 8.80078125 C-11.23734399 9.02364169 -12.86521444 8.66235534 -15 8 C-14.00097656 7.50628906 -13.00195312 7.01257812 -11.97265625 6.50390625 C-10.6692186 5.85687605 -9.36583602 5.20973489 -8.0625 4.5625 C-7.40314453 4.23701172 -6.74378906 3.91152344 -6.06445312 3.57617188 C-1.11328125 1.11328125 -1.11328125 1.11328125 0 0 Z " fill="#6C6D64" transform="translate(38,32)" />
<path d="M0 0 C0.66 0.66 1.32 1.32 2 2 C0.75482035 3.13033298 -0.49636652 4.25405036 -1.75 5.375 C-2.44609375 6.00148438 -3.1421875 6.62796875 -3.859375 7.2734375 C-8.29606588 10.85193635 -11.28950033 11.2196346 -17 11 C-17 10.67 -17 10.34 -17 10 C-16.21625 9.814375 -15.4325 9.62875 -14.625 9.4375 C-9.36949385 7.35341997 -4.03199017 4.03199017 0 0 Z " fill="#606A48" transform="translate(73,74)" />
<path d="M0 0 C0.33 0.99 0.66 1.98 1 3 C0.34 3 -0.32 3 -1 3 C-1.33 3.99 -1.66 4.98 -2 6 C-4.0625 6.6875 -4.0625 6.6875 -6 7 C-7.32 5.35 -8.64 3.7 -10 2 C-6.38026598 0.68373308 -3.90432869 0 0 0 Z " fill="#24620A" transform="translate(48,79)" />
<path d="M0 0 C1.32 0 2.64 0 4 0 C4.33 3.3 4.66 6.6 5 10 C3.35 9.67 1.7 9.34 0 9 C0 6.03 0 3.06 0 0 Z " fill="#586750" transform="translate(48,72)" />
<path d="M0 0 C5.21202675 2.52704327 8.3880132 6.61773359 12 11 C11.67 11.66 11.34 12.32 11 13 C5.21538462 9.67692308 5.21538462 9.67692308 4.125 6.25 C4.104375 5.87875 4.104375 5.87875 4 4 C2.68 3.67 1.36 3.34 0 3 C0 2.01 0 1.02 0 0 Z " fill="#5D883B" transform="translate(32,52)" />
<path d="M0 0 C1.03115279 3.26913624 0.9638984 5.86041348 0.5625 9.25 C0.46066406 10.14203125 0.35882812 11.0340625 0.25390625 11.953125 C0.21201172 12.29085937 0.21201172 12.29085937 0 14 C-0.66 14 -1.32 14 -2 14 C-2.33 14.99 -2.66 15.98 -3 17 C-3.55353075 5.47835991 -3.55353075 5.47835991 0 0 Z " fill="#8CB65A" transform="translate(20,41)" />
<path d="M0 0 C1.33897583 0.95043374 2.67105427 1.91059147 4 2.875 C4.37125 3.14183594 4.37125 3.14183594 6.25 4.4921875 C6.8275 4.98976563 7.405 5.48734375 8 6 C8 6.66 8 7.32 8 8 C5.125 8.1875 5.125 8.1875 2 8 C-0.1519437 4.77208445 -0.20086443 3.71599191 0 0 Z " fill="#676C5C" transform="translate(77,32)" />
<path d="M0 0 C0.33 0.99 0.66 1.98 1 3 C-0.375 4.5 -0.375 4.5 -2 6 C-2.66 6 -3.32 6 -4 6 C-4.33 7.65 -4.66 9.3 -5 11 C-7.4375 10.25 -7.4375 10.25 -10 9 C-10.8125 6.875 -10.8125 6.875 -11 5 C-10.175 5.66 -10.175 5.66 -6 9 C-5.938125 8.2575 -5.87625 7.515 -5.8125 6.75 C-4.75814862 3.1814261 -3.00090227 2.07754772 0 0 Z " fill="#D2D4D0" transform="translate(52,49)" />
<path d="M0 0 C0.99 0.33 1.98 0.66 3 1 C4.1875 4.0625 4.1875 4.0625 5 7 C3.35 7.66 1.7 8.32 0 9 C0 6.03 0 3.06 0 0 Z " fill="#616A5B" transform="translate(54,70)" />
<path d="M0 0 C1.33332095 2.6666419 0.67102033 4.16680303 0 7 C-0.99 7 -1.98 7 -3 7 C-3 7.66 -3 8.32 -3 9 C-5.4375 8.625 -5.4375 8.625 -8 8 C-8.33 7.34 -8.66 6.68 -9 6 C-6.33333333 5.33333333 -3.66666667 4.66666667 -1 4 C-0.67 2.68 -0.34 1.36 0 0 Z " fill="#AAACAA" transform="translate(55,55)" />
<path d="M0 0 C-1.32 2.31 -2.64 4.62 -4 7 C-4.66 7 -5.32 7 -6 7 C-7.04449911 3.86650268 -6.93423645 3.01031744 -6 0 C-2.25 -1.125 -2.25 -1.125 0 0 Z " fill="#6C6D5E" transform="translate(36,41)" />
<path d="M0 0 C0.66 0.33 1.32 0.66 2 1 C1.67 2.65 1.34 4.3 1 6 C0.01 6.33 -0.98 6.66 -2 7 C-3.1875 9.5625 -3.1875 9.5625 -4 12 C-4.66 12 -5.32 12 -6 12 C-6.33 10.68 -6.66 9.36 -7 8 C-6.5153125 7.71125 -6.5153125 7.71125 -4.0625 6.25 C-1 4 -1 4 -0.125 1.75 C-0.08375 1.1725 -0.0425 0.595 0 0 Z " fill="#C7CAC0" transform="translate(55,47)" />
<path d="M0 0 C0.99 0 1.98 0 3 0 C3 0.99 3 1.98 3 3 C7.29 3.33 11.58 3.66 16 4 C16 4.33 16 4.66 16 5 C4.47835991 5.18451025 4.47835991 5.18451025 -1 4 C-0.67 2.68 -0.34 1.36 0 0 Z " fill="#A6AC9D" transform="translate(59,56)" />
<path d="M0 0 C0.33 2.31 0.66 4.62 1 7 C0.01 6.835 0.01 6.835 -5 6 C-5 6.66 -5 7.32 -5 8 C-5.66 7.67 -6.32 7.34 -7 7 C-2.53191489 0 -2.53191489 0 0 0 Z " fill="#E8E8E2" transform="translate(48,21)" />
<path d="M0 0 C0.99 0.66 1.98 1.32 3 2 C2.34 2 1.68 2 1 2 C0.67 2.99 0.34 3.98 0 5 C-0.33 4.01 -0.66 3.02 -1 2 C-1.556875 2.103125 -1.556875 2.103125 -4.375 2.625 C-5.57125 2.74875 -6.7675 2.8725 -8 3 C-8.66 2.34 -9.32 1.68 -10 1 C-6.87293041 -0.5635348 -3.42017557 -0.39958487 0 0 Z " fill="#E0E0DC" transform="translate(58,19)" />
<path d="M0 0 C1.875 0.3125 1.875 0.3125 4 1 C4.66 1.99 5.32 2.98 6 4 C5.01 4.99 4.02 5.98 3 7 C2.34 6.67 1.68 6.34 1 6 C0.375 2.9375 0.375 2.9375 0 0 Z " fill="#636261" transform="translate(57,66)" />
<path d="M0 0 C2 2 2 2 2.08203125 4.75 C1.99308594 5.8225 1.90414063 6.895 1.8125 8 C1.73644531 9.0725 1.66039062 10.145 1.58203125 11.25 C1 14 1 14 -2 16 C-3 13 -3 13 -2 10 C-1.34 10 -0.68 10 0 10 C0 6.7 0 3.4 0 0 Z " fill="#81B248" transform="translate(20,45)" />
<path d="M0 0 C0.99 0.33 1.98 0.66 3 1 C2.01 3.31 1.02 5.62 0 8 C-0.99 8 -1.98 8 -3 8 C-2.37240135 5.07120629 -1.41377341 2.63904371 0 0 Z " fill="#EDF1E1" transform="translate(34,43)" />
<path d="M0 0 C0.99 0 1.98 0 3 0 C2.8125 2.3125 2.8125 2.3125 2 5 C-0.5625 6.8125 -0.5625 6.8125 -3 8 C-2.45276317 4.62537285 -1.9451 2.91765 0 0 Z " fill="#3D7A21" transform="translate(75,62)" />
<path d="M0 0 C1.32 0 2.64 0 4 0 C3.67 1.98 3.34 3.96 3 6 C1.35 5.67 -0.3 5.34 -2 5 C-1.34 3.35 -0.68 1.7 0 0 Z " fill="#476B26" transform="translate(75,51)" />
<path d="M0 0 C1.5 1.1875 1.5 1.1875 3 3 C3.1875 5.6875 3.1875 5.6875 3 8 C1.68 8 0.36 8 -1 8 C-0.67 5.36 -0.34 2.72 0 0 Z " fill="#587432" transform="translate(77,41)" />
<path d="M0 0 C1.15957207 3.47871621 0.77456651 4.34219645 -0.4375 7.6875 C-0.72496094 8.49574219 -1.01242188 9.30398437 -1.30859375 10.13671875 C-1.53675781 10.75160156 -1.76492187 11.36648437 -2 12 C-2.99 11.67 -3.98 11.34 -5 11 C-5 7 -5 7 -3.625 5.5 C-3.08875 5.005 -2.5525 4.51 -2 4 C-0.8125 1.8125 -0.8125 1.8125 0 0 Z " fill="#325816" transform="translate(83,53)" />
<path d="M0 0 C3.73584906 1.47169811 3.73584906 1.47169811 5 4 C4.01 4 3.02 4 2 4 C1.67 5.32 1.34 6.64 1 8 C1 7.01 1 6.02 1 5 C0.34 4.67 -0.32 4.34 -1 4 C-1.33 3.01 -1.66 2.02 -2 1 C-1.34 0.67 -0.68 0.34 0 0 Z " fill="#898B84" transform="translate(61,51)" />
<path d="M0 0 C0.33 0 0.66 0 1 0 C1.29296875 5.95703125 1.29296875 5.95703125 1 8 C0.01 8.99 -0.98 9.98 -2 11 C-2 8.03 -2 5.06 -2 2 C-1.34 2 -0.68 2 0 2 C0 1.34 0 0.68 0 0 Z " fill="#A1A49D" transform="translate(66,29)" />
<path d="M0 0 C0.61875 0.350625 1.2375 0.70125 1.875 1.0625 C2.57625 1.371875 3.2775 1.68125 4 2 C4.66 1.67 5.32 1.34 6 1 C6.33 2.32 6.66 3.64 7 5 C6.01 4.67 5.02 4.34 4 4 C4 4.66 4 5.32 4 6 C2.68 5.34 1.36 4.68 0 4 C0 2.68 0 1.36 0 0 Z " fill="#4C8428" transform="translate(25,73)" />
<path d="M0 0 C1.32 0 2.64 0 4 0 C4.66 1.98 5.32 3.96 6 6 C5.38125 5.649375 4.7625 5.29875 4.125 4.9375 C3.774375 4.7828125 3.774375 4.7828125 2 4 C1.67 4.165 1.67 4.165 0 5 C-0.5625 3.0625 -0.5625 3.0625 -1 1 C-0.67 0.67 -0.34 0.34 0 0 Z " fill="#58982E" transform="translate(24,70)" />
<path d="M0 0 C0.33 1.32 0.66 2.64 1 4 C0.34 4 -0.32 4 -1 4 C-1.103125 4.5775 -1.20625 5.155 -1.3125 5.75 C-2.09792798 8.32049158 -3.30504197 9.93657284 -5 12 C-5.66 11.67 -6.32 11.34 -7 11 C-6.21718695 9.66144944 -5.42348123 8.32926356 -4.625 7 C-4.18414062 6.2575 -3.74328125 5.515 -3.2890625 4.75 C-2.86367187 4.1725 -2.43828125 3.595 -2 3 C-1.34 3 -0.68 3 0 3 C0 2.01 0 1.02 0 0 Z " fill="#616942" transform="translate(81,62)" />
<path d="M0 0 C0.99 0.33 1.98 0.66 3 1 C1.6875 3.9375 1.6875 3.9375 0 7 C-0.99 7.33 -1.98 7.66 -3 8 C-1.125 1.125 -1.125 1.125 0 0 Z " fill="#2E5619" transform="translate(70,62)" />
<path d="M0 0 C0.33 0 0.66 0 1 0 C1.21278058 4.46839215 0.59138085 7.82262526 -1 12 C-1.66 12 -2.32 12 -3 12 C-2.40075776 7.80530429 -1.42500059 3.99000166 0 0 Z " fill="#61673E" transform="translate(89,38)" />
<path d="M0 0 C0.93423645 3.01031744 1.04449911 3.86650268 0 7 C-2.31 6.67 -4.62 6.34 -7 6 C-6.67 5.34 -6.34 4.68 -6 4 C-5.01 4.33 -4.02 4.66 -3 5 C-3 4.34 -3 3.68 -3 3 C-2.01 3 -1.02 3 0 3 C0 2.01 0 1.02 0 0 Z " fill="#979995" transform="translate(55,59)" />
<path d="M0 0 C0.99 0.33 1.98 0.66 3 1 C2.67 2.32 2.34 3.64 2 5 C-1.3 5 -4.6 5 -8 5 C-8 4.67 -8 4.34 -8 4 C-6.845 3.835 -6.845 3.835 -1 3 C-0.67 2.01 -0.34 1.02 0 0 Z " fill="#80AD63" transform="translate(76,57)" />
<path d="M0 0 C2.875 0.1875 2.875 0.1875 6 1 C7.375 3.5625 7.375 3.5625 8 6 C4.74456771 5.65120368 3.98126893 4.97866739 1.75 2.4375 C1.1725 1.633125 0.595 0.82875 0 0 Z " fill="#A4B299" transform="translate(35,53)" />
<path d="M0 0 C2.125 0.9375 2.125 0.9375 4 2 C1.69 3.32 -0.62 4.64 -3 6 C-2.625 3.5625 -2.625 3.5625 -2 1 C-1.34 0.67 -0.68 0.34 0 0 Z " fill="#686B54" transform="translate(25,34)" />
<path d="M0 0 C0.33 0.66 0.66 1.32 1 2 C3.5625 2.625 3.5625 2.625 6 3 C4.25 5.0625 4.25 5.0625 2 7 C-0.25 6.75 -0.25 6.75 -2 6 C-1.01 5.34 -0.02 4.68 1 4 C0.67 2.68 0.34 1.36 0 0 Z " fill="#30531D" transform="translate(59,77)" />
<path d="M0 0 C0.99 0.165 0.99 0.165 6 1 C4.75 2.5625 4.75 2.5625 3 4 C0.8125 3.6875 0.8125 3.6875 -1 3 C-0.67 2.01 -0.34 1.02 0 0 Z " fill="#73756D" transform="translate(64,61)" />
<path d="M0 0 C2.375 0.3125 2.375 0.3125 5 1 C5.66 1.99 6.32 2.98 7 4 C5.68 4 4.36 4 3 4 C1.25 2 1.25 2 0 0 Z " fill="#899C7B" transform="translate(40,59)" />
<path d="M0 0 C1.32 0 2.64 0 4 0 C3.625 2.4375 3.625 2.4375 3 5 C2.67 5.165 2.67 5.165 1 6 C0.67 4.02 0.34 2.04 0 0 Z " fill="#6E9330" transform="translate(81,41)" />
<path d="M0 0 C0.33 1.32 0.66 2.64 1 4 C0.34 4 -0.32 4 -1 4 C-1.33 5.98 -1.66 7.96 -2 10 C-2.33 10 -2.66 10 -3 10 C-3 7.03 -3 4.06 -3 1 C-2.01 0.67 -1.02 0.34 0 0 Z " fill="#B9BBB3" transform="translate(66,19)" />
<path d="M0 0 C0.33 0 0.66 0 1 0 C0.67 2.64 0.34 5.28 0 8 C-0.66 8 -1.32 8 -2 8 C-2.33 7.01 -2.66 6.02 -3 5 C-1.625 2.3125 -1.625 2.3125 0 0 Z " fill="#347713" transform="translate(40,71)" />
<path d="M0 0 C2 3 2 3 1.625 5.1875 C1.41875 5.785625 1.2125 6.38375 1 7 C0.01 6.67 -0.98 6.34 -2 6 C-1.49396008 3.83125748 -1.00016187 2.00032373 0 0 Z " fill="#76AB41" transform="translate(21,56)" />
<path d="M0 0 C1.32 0.66 2.64 1.32 4 2 C4 2.66 4 3.32 4 4 C2.02 4 0.04 4 -2 4 C-2 3.34 -2 2.68 -2 2 C-1.34 2 -0.68 2 0 2 C0 1.34 0 0.68 0 0 Z " fill="#505E35" transform="translate(81,36)" />
</svg>