<?xml version='1.0' encoding='utf-8'?>
<svg xmlns="http://www.w3.org/2000/svg" version="1.1" width="100" height="101">
<path d="M0 0 C0 1.65 0 3.3 0 5 C1.216875 5.185625 2.43375 5.37125 3.6875 5.5625 C10.38231552 7.0869564 19.33055221 9.97126284 23.2734375 15.921875 C23.85609309 18.03294598 24.00402308 19.81144253 24 22 C24.05027344 22.804375 24.10054687 23.60875 24.15234375 24.4375 C24.24235113 26.68408413 24.31416507 28.77312404 24 31 C21.28271334 33.71728666 18.69442757 34.06073875 15 35 C14.175 35.2475 13.35 35.495 12.5 35.75 C9.02568754 36.09743125 6.27867783 35.09289261 3 34 C3 34.66 3 35.32 3 36 C6.3 36.33 9.6 36.66 13 37 C13 37.66 13 38.32 13 39 C16.3 39 19.6 39 23 39 C23 38.34 23 37.68 23 37 C23.99 37 24.98 37 26 37 C25.0460501 40.02084134 24.0414865 43.00866283 23 46 C22.79600586 46.60521484 22.59201172 47.21042969 22.38183594 47.83398438 C21.69721578 49.83702153 20.97684088 51.82443325 20.25 53.8125 C20.03456543 54.45840088 19.81913086 55.10430176 19.59716797 55.76977539 C17.54882018 61.20490417 15.07245103 62.69281688 10 65 C1.19138851 67.64258345 -11.68641908 67.73349507 -20.0625 63.9375 C-24.21492557 61.32948534 -25.67011435 58.77194263 -27 54 C-27.45154408 52.39390907 -27.9103677 50.78985357 -28.375 49.1875 C-28.61605469 48.34832031 -28.85710938 47.50914063 -29.10546875 46.64453125 C-30.60721144 42.20488145 -32.78284406 38.11882724 -35 34 C-34.505 33.835 -34.505 33.835 -32 33 C-31.3125 30.9375 -31.3125 30.9375 -31 29 C-30.34 29 -29.68 29 -29 29 C-29.04125 27.72125 -29.0825 26.4425 -29.125 25.125 C-29.1953125 22.9453125 -29.1953125 22.9453125 -29 21 C-28.34 20.34 -27.68 19.68 -27 19 C-26.690625 18.030625 -26.38125 17.06125 -26.0625 16.0625 C-25.04280511 13.12337942 -24.52502482 11.7480941 -22 10 C-20.68 10 -19.36 10 -18 10 C-17.74734375 9.38382813 -17.4946875 8.76765625 -17.234375 8.1328125 C-15.80189836 5.65771046 -14.81348754 5.05738379 -12.25 3.875 C-11.54101562 3.54757813 -10.83203125 3.22015625 -10.1015625 2.8828125 C-3.23893805 0 -3.23893805 0 0 0 Z " fill="#E87F8D" transform="translate(52,17)" />
<path d="M0 0 C0 1.65 0 3.3 0 5 C1.216875 5.185625 2.43375 5.37125 3.6875 5.5625 C10.38231552 7.0869564 19.33055221 9.97126284 23.2734375 15.921875 C23.85665384 18.03497768 24.00804011 19.80906988 24 22 C24.01933594 22.40798828 24.01933594 22.40798828 24.1171875 24.47265625 C24.17998931 26.67420868 24.20632106 28.80723902 24 31 C23 32 23 32 20.64453125 32.3125 C18 32 18 32 16.19921875 30.25 C15.70035156 29.5075 15.20148438 28.765 14.6875 28 C14.17574219 27.2575 13.66398437 26.515 13.13671875 25.75 C12.76160156 25.1725 12.38648438 24.595 12 24 C12.16371094 24.29648437 12.16371094 24.29648437 12.9921875 25.796875 C14.28545792 28.6240243 14.13965059 30.92768711 14 34 C13.01 33.67 12.02 33.34 11 33 C11 31.35 11 29.7 11 28 C10.01 28.33 9.02 28.66 8 29 C2.6498998 26.37740186 -2.59243031 23.03131374 -7 19 C-7.33 18.01 -7.66 17.02 -8 16 C-8.66 16 -9.32 16 -10 16 C-8.94773274 18.18547815 -7.87469237 20.18274029 -6.5 22.1875 C-4.48144113 25.97229789 -3.77635664 29.80767417 -3 34 C-7.7862298 33.31625289 -11.38462919 32.13265248 -14.390625 28.1640625 C-16.63491969 24.6944345 -17.98306576 22.06773696 -19 18 C-19 22.62 -19 27.24 -19 32 C-20.155 32.165 -20.155 32.165 -26 33 C-28.60208598 30.39791402 -29.24088781 28.45560962 -29.3125 24.875 C-29 21 -29 21 -27 19 C-26.8453125 18.5153125 -26.8453125 18.5153125 -26.0625 16.0625 C-25.04280511 13.12337942 -24.52502482 11.7480941 -22 10 C-20.68 10 -19.36 10 -18 10 C-17.74734375 9.38382813 -17.4946875 8.76765625 -17.234375 8.1328125 C-15.80189836 5.65771046 -14.81348754 5.05738379 -12.25 3.875 C-11.54101562 3.54757813 -10.83203125 3.22015625 -10.1015625 2.8828125 C-3.23893805 0 -3.23893805 0 0 0 Z " fill="#F0C1B8" transform="translate(52,17)" />
<path d="M0 0 C1.32 0.33 2.64 0.66 4 1 C4.02578125 1.69867187 4.0515625 2.39734375 4.078125 3.1171875 C4.13484375 4.02726562 4.1915625 4.93734375 4.25 5.875 C4.29640625 6.77992187 4.3428125 7.68484375 4.390625 8.6171875 C5 11 5 11 6.9453125 12.19140625 C7.62335937 12.45824219 8.30140625 12.72507812 9 13 C12.29045936 17.17635227 13.05392098 21.8911733 14 27 C9.2137702 26.31625289 5.61537081 25.13265248 2.609375 21.1640625 C0.36508031 17.6944345 -0.98306576 15.06773696 -2 11 C-2 15.62 -2 20.24 -2 25 C-4.31 25.33 -6.62 25.66 -9 26 C-11.60208598 23.39791402 -12.24088781 21.45560962 -12.3125 17.875 C-12 14 -12 14 -10 12 C-9.690625 11.030625 -9.38125 10.06125 -9.0625 9.0625 C-8.04280511 6.12337942 -7.52502482 4.7480941 -5 3 C-3.68 3 -2.36 3 -1 3 C-0.67 2.01 -0.34 1.02 0 0 Z " fill="#F9DDC8" transform="translate(35,24)" />
<path d="M0 0 C2 2 2 2 2 5 C2.66 5 3.32 5 4 5 C4.515625 5.721875 5.03125 6.44375 5.5625 7.1875 C8.8247708 10.95165862 12.59477317 12.7896309 17 15 C17.35578125 15.18884766 17.35578125 15.18884766 19.15625 16.14453125 C21 17 21 17 23 17 C23.12375 17.804375 23.2475 18.60875 23.375 19.4375 C23.58125 20.283125 23.7875 21.12875 24 22 C24.66 22.33 25.32 22.66 26 23 C24.95902388 19.13351728 23.96301592 15.50538557 22 12 C25.79379058 13.49041773 27.68343758 15.69062512 30 19 C30 19.66 30 20.32 30 21 C31.32 21.33 32.64 21.66 34 22 C26.94772335 24.07419901 22.30447408 25.12376524 15 24 C14.67 24.33 14.34 24.66 14 25 C9.40369887 25.15321004 5.49797888 24.89959578 1 24 C-0.39566495 23.97831977 -1.79181061 23.97995419 -3.1875 24 C-7 24 -7 24 -9 23 C-9 22.34 -9 21.68 -9 21 C-8.34 21 -7.68 21 -7 21 C-7.0721875 20.27554688 -7.144375 19.55109375 -7.21875 18.8046875 C-7.69407922 13.85334145 -8.13461998 8.98093926 -8 4 C-6.34245132 6.48632302 -5.53391502 8.1268687 -4.625 10.875 C-2.99266674 15.25737254 -1.39875073 18.85817624 3.03515625 20.96875 C4.99795963 21.71648462 6.99759454 22.36590494 9 23 C8.23925498 20.89216499 7.46602644 18.78883243 6.6875 16.6875 C6.47287109 16.10162109 6.47287109 16.10162109 5.38671875 13.13671875 C4.11687257 10.26436246 3.18707063 9.08765833 1 7 C0.3125 3.3125 0.3125 3.3125 0 0 Z " fill="#F09696" transform="translate(40,28)" />
<path d="M0 0 C0.99 0 1.98 0 3 0 C3.66 0.99 4.32 1.98 5 3 C7.625 3.1875 7.625 3.1875 10 3 C10 3.66 10 4.32 10 5 C10.45761719 4.99419922 10.45761719 4.99419922 12.7734375 4.96484375 C13.36769531 4.96033203 13.36769531 4.96033203 16.375 4.9375 C17.55835937 4.92589844 18.74171875 4.91429687 19.9609375 4.90234375 C23 5 23 5 25 6 C26.33334436 6.02011511 27.66762721 5.99222245 29 5.9375 C34.18132209 5.86167577 38.97274102 6.824524 44 8 C44 8.66 44 9.32 44 10 C45.65 10 47.3 10 49 10 C49 10.66 49 11.32 49 12 C47.95199219 12.13277344 46.90398437 12.26554687 45.82421875 12.40234375 C44.44529222 12.58057235 43.06638707 12.75896641 41.6875 12.9375 C40.99720703 13.02451172 40.30691406 13.11152344 39.59570312 13.20117188 C36.59857712 13.59210135 33.87549881 14.0415004 31 15 C29 14.66666667 27 14.33333333 25 14 C24.01 14.33 23.02 14.66 22 15 C19.66055264 14.71269945 17.3260857 14.38063221 15 14 C14.34 14 13.68 14 13 14 C12.67 13.34 12.34 12.68 12 12 C8.9375 11.375 8.9375 11.375 6 11 C6 10.34 6 9.68 6 9 C4.35 9 2.7 9 1 9 C1 8.34 1 7.68 1 7 C-0.32 7 -1.64 7 -3 7 C-3.33 6.01 -3.66 5.02 -4 4 C-3.01 4 -2.02 4 -1 4 C-0.67 2.68 -0.34 1.36 0 0 Z " fill="#CD852F" transform="translate(21,46)" />
<path d="M0 0 C0.99 0 1.98 0 3 0 C2.0460501 3.02084134 1.0414865 6.00866283 0 9 C-0.20399414 9.60521484 -0.40798828 10.21042969 -0.61816406 10.83398438 C-1.30278422 12.83702153 -2.02315912 14.82443325 -2.75 16.8125 C-2.96543457 17.45840088 -3.18086914 18.10430176 -3.40283203 18.76977539 C-4.76120496 22.37411047 -6.17800213 24.45289127 -9.42578125 26.40234375 C-13.60015185 28.2682646 -16.49859175 28.6841117 -21 29 C-21 28.01 -21 27.02 -21 26 C-19.35 26.33 -17.7 26.66 -16 27 C-15.87882812 25.90300781 -15.75765625 24.80601563 -15.6328125 23.67578125 C-15.46390637 22.22131177 -15.29461519 20.76688696 -15.125 19.3125 C-15.04636719 18.59126953 -14.96773437 17.87003906 -14.88671875 17.12695312 C-14.4103949 13.11484068 -13.73699858 9.70024488 -12 6 C-13.65 6 -15.3 6 -17 6 C-17 5.67 -17 5.34 -17 5 C-12.9472484 4.01751476 -9.16138263 3.91840426 -5 4 C-5 3.34 -5 2.68 -5 2 C-3.35 2 -1.7 2 0 2 C0 1.34 0 0.68 0 0 Z " fill="#CE696F" transform="translate(75,54)" />
<path d="M0 0 C2.05859375 0.1796875 2.05859375 0.1796875 5.30859375 -0.4453125 C8.05859375 -0.8203125 8.05859375 -0.8203125 10.21972656 0.36450195 C12.05859375 2.1796875 12.05859375 2.1796875 12.42089844 4.35620117 C12.35805664 5.17838135 12.29521484 6.00056152 12.23046875 6.84765625 C12.17246094 7.74033203 12.11445312 8.63300781 12.0546875 9.55273438 C11.97347656 10.48150391 11.89226563 11.41027344 11.80859375 12.3671875 C11.74285156 13.30755859 11.67710938 14.24792969 11.609375 15.21679688 C11.44428968 17.53978314 11.26003599 19.85961766 11.05859375 22.1796875 C9.05859375 21.1796875 7.05859375 20.1796875 5.05859375 19.1796875 C4.72859375 20.1696875 4.39859375 21.1596875 4.05859375 22.1796875 C3.06859375 21.8496875 2.07859375 21.5196875 1.05859375 21.1796875 C0.39859375 15.5696875 -0.26140625 9.9596875 -0.94140625 4.1796875 C0.37859375 4.5096875 1.69859375 4.8396875 3.05859375 5.1796875 C3.71859375 8.4796875 4.37859375 11.7796875 5.05859375 15.1796875 C5.11917969 14.32503906 5.17976563 13.47039062 5.2421875 12.58984375 C5.32597656 11.48511719 5.40976562 10.38039063 5.49609375 9.2421875 C5.57730469 8.14003906 5.65851562 7.03789063 5.7421875 5.90234375 C6.05859375 3.1796875 6.05859375 3.1796875 7.05859375 2.1796875 C6.08921875 2.3653125 5.11984375 2.5509375 4.12109375 2.7421875 C3.11046875 2.8865625 2.09984375 3.0309375 1.05859375 3.1796875 C0.72859375 2.8496875 0.39859375 2.5196875 0.05859375 2.1796875 C-1.94098989 2.13887967 -3.94185879 2.13714394 -5.94140625 2.1796875 C-5.44640625 3.3140625 -4.95140625 4.4484375 -4.44140625 5.6171875 C-2.69494292 10.20062882 -2.63839776 14.33155165 -2.94140625 19.1796875 C-4.84541763 17.27567612 -5.87661064 15.84543064 -6.140625 13.1328125 C-6.13006405 11.14735477 -6.04055668 9.1626961 -5.94140625 7.1796875 C-6.60140625 7.1796875 -7.26140625 7.1796875 -7.94140625 7.1796875 C-8.27140625 4.8696875 -8.60140625 2.5596875 -8.94140625 0.1796875 C-5.60474878 -0.93253166 -3.4188441 -0.51439489 0 0 Z " fill="#EB7D8A" transform="translate(41.94140625,59.8203125)" />
<path d="M0 0 C2.92622783 1.06408285 5.44567093 2.26740256 8.125 3.875 C12.79288808 6.62812246 17.88813612 8.26215116 23 10 C23 10.66 23 11.32 23 12 C23.66 12 24.32 12 25 12 C25.28875 12.804375 25.5775 13.60875 25.875 14.4375 C27 17 27 17 29 18 C29.165 17.505 29.165 17.505 30 15 C29.835 15.825 29.835 15.825 29 20 C26.70703125 20.25 26.70703125 20.25 24 20 C22.19921875 18.25 22.19921875 18.25 20.6875 16 C20.17574219 15.2575 19.66398437 14.515 19.13671875 13.75 C18.76160156 13.1725 18.38648437 12.595 18 12 C18.32742187 12.59296875 18.65484375 13.1859375 18.9921875 13.796875 C20.28545792 16.6240243 20.13965059 18.92768711 20 22 C19.01 21.67 18.02 21.34 17 21 C17 19.35 17 17.7 17 16 C16.01 16.33 15.02 16.66 14 17 C8.6498998 14.37740186 3.40756969 11.03131374 -1 7 C-1.33 6.01 -1.66 5.02 -2 4 C-2.66 4 -3.32 4 -4 4 C-3.67 3.34 -3.34 2.68 -3 2 C-0.50638429 3.20381448 1.68143083 4.45428722 4 6 C10.55474453 10 10.55474453 10 13 10 C12.22914062 9.52949219 11.45828125 9.05898438 10.6640625 8.57421875 C9.66117188 7.95160156 8.65828125 7.32898437 7.625 6.6875 C6.62726562 6.07261719 5.62953125 5.45773438 4.6015625 4.82421875 C2 3 2 3 0 0 Z " fill="#F9A0A0" transform="translate(46,29)" />
<path d="M0 0 C-0.144375 0.61875 -0.144375 0.61875 -0.875 3.75 C-2.15024931 9.46129511 -3.08105689 15.22238961 -4 21 C-5.65 20.67 -7.3 20.34 -9 20 C-9 20.99 -9 21.98 -9 23 C-14.28 23 -19.56 23 -25 23 C-24.01 21.68 -23.02 20.36 -22 19 C-21.34 19 -20.68 19 -20 19 C-19.67 19.66 -19.34 20.32 -19 21 C-18.34 21 -17.68 21 -17 21 C-16.67 20.34 -16.34 19.68 -16 19 C-14 20 -12 21 -10 22 C-10 14.74 -10 7.48 -10 0 C-6.7169902 -1.6415049 -3.57454967 -0.51888624 0 0 Z " fill="#DF7480" transform="translate(63,60)" />
<path d="M0 0 C0.99 0.33 1.98 0.66 3 1 C3 7.93 3 14.86 3 22 C0.69 22.33 -1.62 22.66 -4 23 C-6.60208598 20.39791402 -7.24088781 18.45560962 -7.3125 14.875 C-7 11 -7 11 -5 9 C-4.690625 8.030625 -4.38125 7.06125 -4.0625 6.0625 C-3.04912821 3.14160484 -2.33927607 1.91395315 0 0 Z " fill="#F5B9B6" transform="translate(30,27)" />
<path d="M0 0 C1.32 0 2.64 0 4 0 C4 0.66 4 1.32 4 2 C5.65 2 7.3 2 9 2 C9 2.66 9 3.32 9 4 C10.98 4 12.96 4 15 4 C15 4.66 15 5.32 15 6 C13.68 6 12.36 6 11 6 C11.28875 6.58007812 11.5775 7.16015625 11.875 7.7578125 C14.05480801 12.34449185 15.53310477 15.80222849 15 21 C15.66 21.33 16.32 21.66 17 22 C16.67 22.66 16.34 23.32 16 24 C15.34 24 14.68 24 14 24 C13.67 23.01 13.34 22.02 13 21 C11.35 20.67 9.7 20.34 8 20 C7.87882812 19.61328125 7.87882812 19.61328125 7.265625 17.65625 C5.27198453 11.46062886 3.08593525 5.7310226 0 0 Z " fill="#F5969F" transform="translate(18,53)" />
<path d="M0 0 C2 2 2 2 2 5 C2.66 5 3.32 5 4 5 C4.515625 5.721875 5.03125 6.44375 5.5625 7.1875 C8.8247708 10.95165862 12.59477317 12.7896309 17 15 C17.35578125 15.18884766 17.35578125 15.18884766 19.15625 16.14453125 C21 17 21 17 23 17 C23.12375 17.804375 23.2475 18.60875 23.375 19.4375 C23.58125 20.283125 23.7875 21.12875 24 22 C24.66 22.33 25.32 22.66 26 23 C24.95902388 19.13351728 23.96301592 15.50538557 22 12 C25.79379058 13.49041773 27.68343758 15.69062512 30 19 C30 19.66 30 20.32 30 21 C31.32 21.33 32.64 21.66 34 22 C31.67190457 22.68473395 29.33762223 23.34853151 27 24 C26.175 24.2475 25.35 24.495 24.5 24.75 C20.87490619 25.11250938 18.34745636 24.38951019 15 23 C14.72671875 22.2575 14.4534375 21.515 14.171875 20.75 C12.36459029 16.50890521 8.7803707 14.09758425 5.25585938 11.28125 C2.14291146 8.62709222 1.04468103 7.19755829 0.12890625 3.1484375 C0.08636719 2.10945313 0.04382812 1.07046875 0 0 Z " fill="#DD8C81" transform="translate(40,28)" />
<path d="M0 0 C0.66 0 1.32 0 2 0 C2.50636607 1.74816858 3.00484619 3.49862263 3.5 5.25 C3.7784375 6.22453125 4.056875 7.1990625 4.34375 8.203125 C5 11 5 11 5 15 C6.32 14.67 7.64 14.34 9 14 C9 17.63 9 21.26 9 25 C8.01 24.67 7.02 24.34 6 24 C6.33 22.68 6.66 21.36 7 20 C6.01 20.33 5.02 20.66 4 21 C2.8125 23.5625 2.8125 23.5625 2 26 C-1.3 26 -4.6 26 -8 26 C-8 25.34 -8 24.68 -8 24 C-11.3 23.67 -14.6 23.34 -18 23 C-18 22.34 -18 21.68 -18 21 C-17.61457031 21.04769531 -17.61457031 21.04769531 -15.6640625 21.2890625 C-14.66117188 21.39992188 -13.65828125 21.51078125 -12.625 21.625 C-11.62726562 21.74101563 -10.62953125 21.85703125 -9.6015625 21.9765625 C-8.74304688 21.98429687 -7.88453125 21.99203125 -7 22 C-6.34 21.34 -5.68 20.68 -5 20 C-2.68234271 19.28072705 -0.34904126 18.6090107 2 18 C2.20190089 11.64012196 1.6277833 6.14778871 0 0 Z " fill="#6D4B39" transform="translate(73,30)" />
<path d="M0 0 C1.23968803 3.7190641 0.25712565 5.36408044 -1.1875 8.87890625 C-2 11 -2 11 -2.8125 14.6875 C-4.28233174 18.78755695 -6.31471676 20.86213945 -10 23 C-16.08539286 25.64804967 -21.83946863 26.55041283 -28.4375 26.5 C-29.26572266 26.49718018 -30.09394531 26.49436035 -30.94726562 26.49145508 C-38.42990571 26.29380875 -43.90442514 24.37392895 -49.70703125 19.59375 C-52.01144585 16.75326312 -51.70804265 13.56187966 -52 10 C-50 12 -50 12 -49.1875 15.5 C-48 19 -48 19 -45.6875 20.3125 C-44.800625 20.539375 -43.91375 20.76625 -43 21 C-42.32324219 21.33773437 -41.64648438 21.67546875 -40.94921875 22.0234375 C-36.67353279 23.43922755 -32.59953418 23.32887824 -28.125 23.3125 C-27.25230469 23.32861328 -26.37960938 23.34472656 -25.48046875 23.36132812 C-19.82373857 23.36558131 -16.05946983 22.50437416 -11 20 C-10.2265625 19.8659375 -9.453125 19.731875 -8.65625 19.59375 C-8.38296875 19.49578125 -8.38296875 19.49578125 -7 19 C-6.09375 17.03125 -6.09375 17.03125 -5.5 14.5 C-4.16548208 9.38311912 -2.26826338 4.76680731 0 0 Z " fill="#6E3731" transform="translate(76,59)" />
<path d="M0 0 C0.66 0 1.32 0 2 0 C2.66 0.99 3.32 1.98 4 3 C4.33 2.67 4.66 2.34 5 2 C7 1 7 1 9.06640625 1.6015625 C11.73100663 2.69409036 14.37119551 3.82375935 17 5 C17.86625 5.37511719 18.7325 5.75023437 19.625 6.13671875 C21.97963135 7.2725265 23.99358488 8.32190736 26 10 C27.0625 13.8125 27.0625 13.8125 27 17 C26.01386719 16.4121875 25.02773437 15.824375 24.01171875 15.21875 C19.41796352 12.59176488 14.59583455 10.62566993 9.69726562 8.64453125 C5.73200086 6.9769318 2.7438366 5.45992832 0 2 C0 1.34 0 0.68 0 0 Z " fill="#E8B1AD" transform="translate(48,21)" />
<path d="M0 0 C0.639375 0.165 1.27875 0.33 1.9375 0.5 C4.51462219 0.92075464 6.60463538 1.00619321 9.1875 0.9375 C14.29678858 0.86008654 19.04297392 1.84094589 24 3 C24 3.66 24 4.32 24 5 C25.65 5 27.3 5 29 5 C29 5.66 29 6.32 29 7 C27.95199219 7.13277344 26.90398437 7.26554687 25.82421875 7.40234375 C24.44529222 7.58057235 23.06638707 7.75896641 21.6875 7.9375 C20.99720703 8.02451172 20.30691406 8.11152344 19.59570312 8.20117188 C16.59857712 8.59210135 13.87549881 9.0415004 11 10 C7.8125 9.0625 7.8125 9.0625 5 8 C5 7.34 5 6.68 5 6 C5.99 5.67 6.98 5.34 8 5 C4.7 4.34 1.4 3.68 -2 3 C-1.34 2.01 -0.68 1.02 0 0 Z " fill="#B36C1F" transform="translate(41,51)" />
<path d="M0 0 C0.9765625 0.14648438 0.9765625 0.14648438 5.859375 0.87890625 C8 1 8 1 9.984375 0.421875 C13.97439279 -0.413245 17.56526014 2.1316525 21 4 C23.625 5.75 23.625 5.75 25 8 C25.01083734 10.81770726 24.55824047 13.20879763 24 16 C23.01 15.67 22.02 15.34 21 15 C20.67 13.35 20.34 11.7 20 10 C19.34 10 18.68 10 18 10 C18 9.34 18 8.68 18 8 C17.30390625 7.88527344 16.6078125 7.77054688 15.890625 7.65234375 C12.66680898 6.92480689 9.80152978 5.82896002 6.75 4.5625 C5.69296875 4.13066406 4.6359375 3.69882812 3.546875 3.25390625 C1 2 1 2 0 0 Z " fill="#F4C7B8" transform="translate(51,31)" />
<path d="M0 0 C0.99 0 1.98 0 3 0 C2.690625 0.598125 2.38125 1.19625 2.0625 1.8125 C1 4 1 4 0 7 C-0.66 7 -1.32 7 -2 7 C-2.33 8.32 -2.66 9.64 -3 11 C-3.33 9.68 -3.66 8.36 -4 7 C-4.66 7 -5.32 7 -6 7 C-6.19335938 7.81984375 -6.38671875 8.6396875 -6.5859375 9.484375 C-6.71613281 10.02320312 -6.71613281 10.02320312 -7.375 12.75 C-7.63023438 13.81734375 -7.88546875 14.8846875 -8.1484375 15.984375 C-8.87533541 18.55852722 -9.7026224 20.67600186 -11 23 C-11.66 23 -12.32 23 -13 23 C-12.52450066 20.37428665 -12.04477433 17.7494696 -11.5625 15.125 C-11.42779297 14.37863281 -11.29308594 13.63226563 -11.15429688 12.86328125 C-10.11328125 7.2265625 -10.11328125 7.2265625 -9 5 C-9.66 4.67 -10.32 4.34 -11 4 C-9.02 4 -7.04 4 -5 4 C-5 3.34 -5 2.68 -5 2 C-3.35 2 -1.7 2 0 2 C0 1.34 0 0.68 0 0 Z " fill="#EF9298" transform="translate(75,54)" />
<path d="M0 0 C2.92622783 1.06408285 5.44567093 2.26740256 8.125 3.875 C12.79288808 6.62812246 17.88813612 8.26215116 23 10 C23 10.66 23 11.32 23 12 C23.66 12 24.32 12 25 12 C25.28875 12.804375 25.5775 13.60875 25.875 14.4375 C27 17 27 17 29 18 C29.33 17.01 29.66 16.02 30 15 C29.67 16.65 29.34 18.3 29 20 C26.69140625 20.24609375 26.69140625 20.24609375 24 20 C22.33984375 18.28515625 22.33984375 18.28515625 20.9375 16.0625 C18.77885362 12.67204987 17.85725467 11.85640645 14 11 C11.92059537 9.77000734 9.88139026 8.47080968 7.875 7.125 C6.82054687 6.42632812 5.76609375 5.72765625 4.6796875 5.0078125 C2 3 2 3 0 0 Z " fill="#E7AC9A" transform="translate(46,29)" />
<path d="M0 0 C0.515625 0.0103125 0.515625 0.0103125 3.125 0.0625 C4.115 0.0625 5.105 0.0625 6.125 0.0625 C7.79166667 0.0625 9.45833333 0.0625 11.125 0.0625 C10.795 0.7225 10.465 1.3825 10.125 2.0625 C9.84988371 5.17611767 9.67831352 8.28937938 9.50390625 11.41015625 C9.37886719 12.28542969 9.25382812 13.16070312 9.125 14.0625 C8.795 14.2275 8.795 14.2275 7.125 15.0625 C6.465 11.4325 5.805 7.8025 5.125 4.0625 C4.135 3.7325 3.145 3.4025 2.125 3.0625 C1.795 6.0325 1.465 9.0025 1.125 12.0625 C-1.83552484 8.69826723 -2.79789822 5.37090713 -3.875 1.0625 C-2.875 0.0625 -2.875 0.0625 0 0 Z " fill="#E57B88" transform="translate(38.875,60.9375)" />
<path d="M0 0 C0.66 0 1.32 0 2 0 C2.33 0.99 2.66 1.98 3 3 C3.33 2.01 3.66 1.02 4 0 C4.66 0 5.32 0 6 0 C2.47156321 12.43711407 2.47156321 12.43711407 0 17 C-2.6015625 18.1875 -2.6015625 18.1875 -5 19 C-4.54884201 16.58179317 -4.08938045 14.16567137 -3.625 11.75 C-3.49867187 11.06808594 -3.37234375 10.38617188 -3.2421875 9.68359375 C-2.56093633 6.17515024 -1.83146585 3.08960327 0 0 Z " fill="#BF5F68" transform="translate(69,61)" />
<path d="M0 0 C3.7420825 2.31914777 4.86320609 4.42963404 6.25 8.5625 C6.58515625 9.53316406 6.9203125 10.50382812 7.265625 11.50390625 C8 14 8 14 8 16 C3.99349018 15.42764145 1.21435185 14.49112269 -2 12 C-7 5.31506849 -7 5.31506849 -7 2 C-6.34 2 -5.68 2 -5 2 C-2 5.46153846 -2 5.46153846 -2 8 C-1.34 8 -0.68 8 0 8 C0 8.66 0 9.32 0 10 C0.66 10 1.32 10 2 10 C1.54177532 6.53058454 1.10868317 3.32604951 0 0 Z " fill="#F7C7B5" transform="translate(41,35)" />
<path d="M0 0 C7.41436464 4.71823204 7.41436464 4.71823204 10 8 C10.3125 10.6875 10.3125 10.6875 10 13 C9 14 9 14 5.1875 14.3125 C1.87063448 14.29463537 1.2147547 14.17180376 -1.5 12 C-1.995 11.34 -2.49 10.68 -3 10 C-0.69 10.66 1.62 11.32 4 12 C3.71125 11.30132812 3.4225 10.60265625 3.125 9.8828125 C2.75375 8.97273438 2.3825 8.06265625 2 7.125 C1.62875 6.22007813 1.2575 5.31515625 0.875 4.3828125 C0 2 0 2 0 0 Z " fill="#EDBAA0" transform="translate(45,39)" />
<path d="M0 0 C2.05859375 0.1796875 2.05859375 0.1796875 5.30859375 -0.4453125 C8.05859375 -0.8203125 8.05859375 -0.8203125 10.43359375 0.6171875 C10.96984375 1.1328125 11.50609375 1.6484375 12.05859375 2.1796875 C11.72859375 2.6746875 11.72859375 2.6746875 10.05859375 5.1796875 C9.39859375 4.5196875 8.73859375 3.8596875 8.05859375 3.1796875 C8.38859375 2.8496875 8.71859375 2.5196875 9.05859375 2.1796875 C8.13046875 2.1796875 7.20234375 2.1796875 6.24609375 2.1796875 C2.18359375 2.1796875 -1.87890625 2.1796875 -5.94140625 2.1796875 C-5.44640625 3.3140625 -4.95140625 4.4484375 -4.44140625 5.6171875 C-2.69494292 10.20062882 -2.63839776 14.33155165 -2.94140625 19.1796875 C-4.84541763 17.27567612 -5.87661064 15.84543064 -6.140625 13.1328125 C-6.13006405 11.14735477 -6.04055668 9.1626961 -5.94140625 7.1796875 C-6.60140625 7.1796875 -7.26140625 7.1796875 -7.94140625 7.1796875 C-8.27140625 4.8696875 -8.60140625 2.5596875 -8.94140625 0.1796875 C-5.60474878 -0.93253166 -3.4188441 -0.51439489 0 0 Z " fill="#F6A793" transform="translate(41.94140625,59.8203125)" />
<path d="M0 0 C2 3 2 3 2 5 C2.66 5.2475 3.32 5.495 4 5.75 C7.76360907 7.31817045 11.3711424 9.14505046 15 11 C12 13 12 13 9.87890625 12.8984375 C1.70019854 11.05029782 1.70019854 11.05029782 -1 7 C-1.75 3.75 -1.75 3.75 -2 1 C-1.34 0.67 -0.68 0.34 0 0 Z " fill="#FDE1D2" transform="translate(47,20)" />
<path d="M0 0 C2.31 0.33 4.62 0.66 7 1 C6.71125 2.27875 6.4225 3.5575 6.125 4.875 C5.00617536 9.90171927 3.9916404 14.94685368 3 20 C2.34 20 1.68 20 1 20 C-0.32528788 13.90367577 0.53380093 9.02232181 2 3 C1.34 2.67 0.68 2.34 0 2 C0 1.34 0 0.68 0 0 Z " fill="#F48996" transform="translate(56,59)" />
<path d="M0 0 C3.53392262 1.39176263 6.86409875 2.84173065 10 5 C11.125 8.8125 11.125 8.8125 11 12 C10.01 11.4225 9.02 10.845 8 10.25 C4.07569493 8.00295415 0.05830264 5.99355217 -4 4 C-2.68 3.34 -1.36 2.68 0 2 C0 1.34 0 0.68 0 0 Z " fill="#E39D9B" transform="translate(64,26)" />
<path d="M0 0 C0.33 0 0.66 0 1 0 C1 2.97 1 5.94 1 9 C0.67 9.165 0.67 9.165 -1 10 C-1.33 10.99 -1.66 11.98 -2 13 C-2.33 13.165 -2.33 13.165 -4 14 C-3.77763672 14.44601563 -3.77763672 14.44601563 -2.65234375 16.703125 C-2.08644531 17.87359375 -1.52054688 19.0440625 -0.9375 20.25 C-0.36902344 21.41015625 0.19945312 22.5703125 0.78515625 23.765625 C2 27 2 27 1 31 C0.01 28.03 -0.98 25.06 -2 22 C-2.66 22 -3.32 22 -4 22 C-4 20.68 -4 19.36 -4 18 C-4.66 18 -5.32 18 -6 18 C-6.25 15.25 -6.25 15.25 -6 12 C-4.66666667 10.66666667 -3.33333333 9.33333333 -2 8 C-1.3125 4.3125 -1.3125 4.3125 -1 1 C-0.67 0.67 -0.34 0.34 0 0 Z " fill="#69402D" transform="translate(22,37)" />
<path d="M0 0 C3.79379058 1.49041773 5.68343758 3.69062512 8 7 C8 7.66 8 8.32 8 9 C9.32 9.33 10.64 9.66 12 10 C9.67190457 10.68473395 7.33762223 11.34853151 5 12 C4.175 12.2475 3.35 12.495 2.5 12.75 C-0.97431246 13.09743125 -3.72132217 12.09289261 -7 11 C-6.67 9.35 -6.34 7.7 -6 6 C-5.67 6.99 -5.34 7.98 -5 9 C-2.93359375 9.73046875 -2.93359375 9.73046875 -0.4375 10.1875 C0.38878906 10.34605469 1.21507812 10.50460938 2.06640625 10.66796875 C2.70449219 10.77753906 3.34257813 10.88710938 4 11 C2.95902388 7.13351728 1.96301592 3.50538557 0 0 Z " fill="#D48678" transform="translate(62,40)" />
<path d="M0 0 C1.32 0 2.64 0 4 0 C4 0.66 4 1.32 4 2 C5.65 2 7.3 2 9 2 C9 2.66 9 3.32 9 4 C10.98 4 12.96 4 15 4 C15 4.33 15 4.66 15 5 C12.69 5 10.38 5 8 5 C7.67 5.66 7.34 6.32 7 7 C7.33 7.99 7.66 8.98 8 10 C8.12781786 12.67394964 8.04391871 15.32095857 8 18 C7.67 18 7.34 18 7 18 C6.82984375 17.3709375 6.6596875 16.741875 6.484375 16.09375 C4.85429647 10.33645135 2.83080597 5.27115594 0 0 Z " fill="#DE9383" transform="translate(18,53)" />
<path d="M0 0 C3.00617269 3.00617269 2.59585316 5.82381598 3 10 C3.66 10 4.32 10 5 10 C5.33 10.99 5.66 11.98 6 13 C4.35 13.33 2.7 13.66 1 14 C-1.60208598 11.39791402 -2.24088781 9.45560962 -2.3125 5.875 C-2 2 -2 2 0 0 Z " fill="#E5AD9B" transform="translate(25,36)" />
<path d="M0 0 C0.38542969 0.04189453 0.38542969 0.04189453 2.3359375 0.25390625 C3.33882812 0.35574219 4.34171875 0.45757812 5.375 0.5625 C6.37273438 0.66691406 7.37046875 0.77132812 8.3984375 0.87890625 C11 1 11 1 13 0 C15.3494053 0.60760482 17.68529088 1.27129528 20 2 C20 2.99 20 3.98 20 5 C16.7 5 13.4 5 10 5 C10 4.34 10 3.68 10 3 C6.7 2.67 3.4 2.34 0 2 C0 1.34 0 0.68 0 0 Z " fill="#934C15" transform="translate(55,51)" />
<path d="M0 0 C0.44988281 0.35191406 0.89976563 0.70382813 1.36328125 1.06640625 C7.02137302 5.40919012 12.94411492 9.23733611 19 13 C18.01 13.33 17.02 13.66 16 14 C14.21028462 13.05633189 12.42321506 12.10194342 10.69921875 11.04296875 C9 10 9 10 6.875 9 C4.25478637 7.60255273 2.15930766 6.03934612 0 4 C0 2.68 0 1.36 0 0 Z " fill="#FBBEBB" transform="translate(41,26)" />
<path d="M0 0 C2.9719385 1.12451727 5.33440687 2.22293791 8 4 C11.93937156 6.33444241 15.68431741 8.43066088 20 10 C19.67 10.66 19.34 11.32 19 12 C4.61058046 7.29757531 4.61058046 7.29757531 2 4 C2 3.34 2 2.68 2 2 C1.34 2 0.68 2 0 2 C0 1.34 0 0.68 0 0 Z " fill="#FBB2B1" transform="translate(42,31)" />
<path d="M0 0 C0 1.32 0 2.64 0 4 C-0.66 4 -1.32 4 -2 4 C-2 3.34 -2 2.68 -2 2 C-7.75721717 4.50545562 -13.40373134 7.1527756 -19 10 C-19.33 10.165 -19.33 10.165 -21 11 C-19.8759417 7.74023094 -19.07187022 7.03813522 -15.9375 5.375 C-14.968125 4.92125 -13.99875 4.4675 -13 4 C-12.67 3.34 -12.34 2.68 -12 2 C-7.70418473 0.73238238 -4.49055702 0 0 0 Z " fill="#6E4539" transform="translate(54,15)" />
<path d="M0 0 C1.65 0 3.3 0 5 0 C5.33 1.32 5.66 2.64 6 4 C7.65 4.33 9.3 4.66 11 5 C11.33 6.32 11.66 7.64 12 9 C6.52386331 7.81887248 3.6905212 6.47335903 0 2 C0 1.34 0 0.68 0 0 Z " fill="#CC717A" transform="translate(26,73)" />
<path d="M0 0 C0.4021875 0.0103125 0.4021875 0.0103125 2.4375 0.0625 C2.1075 0.7225 1.7775 1.3825 1.4375 2.0625 C1.16238371 5.17611767 0.99081352 8.28937938 0.81640625 11.41015625 C0.69136719 12.28542969 0.56632812 13.16070312 0.4375 14.0625 C0.1075 14.2275 0.1075 14.2275 -1.5625 15.0625 C-1.92338615 12.75103911 -2.27604191 10.43829171 -2.625 8.125 C-2.82222656 6.83722656 -3.01945312 5.54945312 -3.22265625 4.22265625 C-3.27873047 3.70123047 -3.27873047 3.70123047 -3.5625 1.0625 C-2.5625 0.0625 -2.5625 0.0625 0 0 Z " fill="#D96D77" transform="translate(47.5625,60.9375)" />
<path d="M0 0 C0.99 0 1.98 0 3 0 C3.66 0.99 4.32 1.98 5 3 C7.625 3.1875 7.625 3.1875 10 3 C10 3.66 10 4.32 10 5 C11.98 5.66 13.96 6.32 16 7 C16 7.33 16 7.66 16 8 C13.625 8.125 13.625 8.125 11 8 C10.34 7.34 9.68 6.68 9 6 C7.865625 6 6.73125 6 5.5625 6 C2 6 2 6 -1 4 C-0.67 2.68 -0.34 1.36 0 0 Z " fill="#B87723" transform="translate(21,46)" />
<path d="M0 0 C1.32 0.33 2.64 0.66 4 1 C4.02449219 1.31904297 4.02449219 1.31904297 4.1484375 2.93359375 C4.22320312 3.75988281 4.29796875 4.58617188 4.375 5.4375 C4.44460937 6.26121094 4.51421875 7.08492188 4.5859375 7.93359375 C4.72257812 8.61550781 4.85921875 9.29742187 5 10 C5.66 10.33 6.32 10.66 7 11 C6.67 11.66 6.34 12.32 6 13 C5.34 13 4.68 13 4 13 C3.67 12.01 3.34 11.02 3 10 C2.34 9.67 1.68 9.34 1 9 C0.5859375 6.93359375 0.5859375 6.93359375 0.375 4.4375 C0.30023437 3.61121094 0.22546875 2.78492187 0.1484375 1.93359375 C0.09945313 1.29550781 0.05046875 0.65742187 0 0 Z " fill="#F08C98" transform="translate(28,64)" />
<path d="M0 0 C0.99 0 1.98 0 3 0 C2.690625 0.598125 2.38125 1.19625 2.0625 1.8125 C1 4 1 4 0 7 C-0.66 7 -1.32 7 -2 7 C-2.33 8.32 -2.66 9.64 -3 11 C-4.85776765 7.86501708 -5.20140476 5.62528568 -5 2 C-3.35 2 -1.7 2 0 2 C0 1.34 0 0.68 0 0 Z " fill="#DD8C89" transform="translate(75,54)" />
<path d="M0 0 C1.32 0.33 2.64 0.66 4 1 C4.33 2.98 4.66 4.96 5 7 C4.34 6.67 3.68 6.34 3 6 C3.33 5.34 3.66 4.68 4 4 C1 5 1 5 0 7 C-2.64 6.67 -5.28 6.34 -8 6 C-8 5.34 -8 4.68 -8 4 C-7.4328125 3.855625 -7.4328125 3.855625 -4.5625 3.125 C-3.386875 2.75375 -2.21125 2.3825 -1 2 C-0.67 1.34 -0.34 0.68 0 0 Z " fill="#71310B" transform="translate(76,46)" />
<path d="M0 0 C3 2 3 2 3.5 4.3125 C3.665 5.199375 3.83 6.08625 4 7 C6.47692308 11.73846154 6.47692308 11.73846154 9 13 C9 13.99 9 14.98 9 16 C8.34 16 7.68 16 7 16 C7 15.34 7 14.68 7 14 C6.34 14 5.68 14 5 14 C2 10.53846154 2 10.53846154 2 8 C1.34 8 0.68 8 0 8 C0 5.36 0 2.72 0 0 Z " fill="#FDECD4" transform="translate(34,29)" />
<path d="M0 0 C0.66 0.33 1.32 0.66 2 1 C1.67 1.495 1.67 1.495 0 4 C-0.70164642 5.98799818 -1.37372872 7.98698517 -2 10 C-2.99 10 -3.98 10 -5 10 C-6 9 -6 9 -6.25 6.0625 C-6.1675 5.051875 -6.085 4.04125 -6 3 C-5.01 2.34 -4.02 1.68 -3 1 C-3.33 2.32 -3.66 3.64 -4 5 C-3.34 5 -2.68 5 -2 5 C-1.34 3.35 -0.68 1.7 0 0 Z " fill="#6B5143" transform="translate(27,27)" />
<path d="M0 0 C1.91924787 0.22934409 3.8354406 0.48434343 5.75 0.75 C6.28367187 0.81960937 6.28367187 0.81960937 8.984375 1.171875 C12.44813581 2.1230632 13.66725003 3.33984652 16 6 C17.63978318 7.04349839 19.30094366 8.05607981 21 9 C20.67 9.165 20.67 9.165 19 10 C16.88229211 9.14297181 14.80357727 8.18850171 12.75 7.1875 C8.55152366 5.15114223 4.45890674 3.38496346 0 2 C0 1.34 0 0.68 0 0 Z " fill="#664135" transform="translate(52,20)" />
<path d="M0 0 C0.556875 0.309375 1.11375 0.61875 1.6875 0.9375 C4.12540433 2.05761821 6.36224186 2.56037364 9 3 C9.33 4.98 9.66 6.96 10 9 C5.25 8.125 5.25 8.125 3 7 C2.28272222 5.35448038 1.61674772 3.68577711 1 2 C0.67 1.34 0.34 0.68 0 0 Z " fill="#E98C86" transform="translate(54,42)" />
<path d="M0 0 C3.73907104 2.49271403 3.97913078 3.68093791 5 8 C5.15216356 11.00891171 5.12038111 13.99047214 5 17 C3.09598862 15.09598862 2.06479561 13.66574314 1.80078125 10.953125 C1.8113422 8.96766727 1.90084957 6.9830086 2 5 C1.34 5 0.68 5 0 5 C0 3.35 0 1.7 0 0 Z " fill="#F48A98" transform="translate(34,62)" />
<path d="M0 0 C1.815 0.33 1.815 0.33 11 2 C11 2.66 11 3.32 11 4 C12.65 4 14.3 4 16 4 C16 4.66 16 5.32 16 6 C14.02 6.165 14.02 6.165 4 7 C5.32 6.34 6.64 5.68 8 5 C8.33 4.67 8.66 4.34 9 4 C5.7 3.34 2.4 2.68 -1 2 C-0.67 1.34 -0.34 0.68 0 0 Z " fill="#A66020" transform="translate(54,52)" />
<path d="M0 0 C0.66 0 1.32 0 2 0 C5 3.46153846 5 3.46153846 5 6 C5.66 6 6.32 6 7 6 C7 6.66 7 7.32 7 8 C7.66 8 8.32 8 9 8 C9 7.01 9 6.02 9 5 C9.66 5 10.32 5 11 5 C11.33 6.65 11.66 8.3 12 10 C9 10 9 10 6 9 C6 8.34 6 7.68 6 7 C5.38125 6.95875 4.7625 6.9175 4.125 6.875 C3.42375 6.58625 2.7225 6.2975 2 6 C0.75 2.9375 0.75 2.9375 0 0 Z " fill="#FCD5C3" transform="translate(34,37)" />
<path d="M0 0 C0.99 0 1.98 0 3 0 C3.33 5.28 3.66 10.56 4 16 C3.34 15.67 2.68 15.34 2 15 C0.9458482 11.83754459 0.68724328 9.13051782 0.4375 5.8125 C0.39560547 5.26916016 0.39560547 5.26916016 0.18359375 2.51953125 C0.12300781 1.68808594 0.06242187 0.85664062 0 0 Z " fill="#F68B99" transform="translate(41,64)" />
<path d="M0 0 C3.58310775 5.37466163 3.42484557 11.69777596 4 18 C2.35 18.33 0.7 18.66 -1 19 C-1 18.34 -1 17.68 -1 17 C-0.34 17 0.32 17 1 17 C0.9278125 16.27554688 0.855625 15.55109375 0.78125 14.8046875 C0.30592078 9.85334145 -0.13461998 4.98093926 0 0 Z " fill="#EBA29D" transform="translate(32,32)" />
<path d="M0 0 C4 4.75 4 4.75 4 7 C4.66 7 5.32 7 6 7 C6 8.65 6 10.3 6 12 C5.01 11.67 4.02 11.34 3 11 C3 10.34 3 9.68 3 9 C2.34 9 1.68 9 1 9 C-0.4783226 6.04335481 -0.06032783 3.25770263 0 0 Z " fill="#FBC5C0" transform="translate(27,37)" />
<path d="M0 0 C3.89283238 1.43045578 7.29321861 3.24678267 10.8125 5.4375 C11.78832031 6.03433594 12.76414062 6.63117187 13.76953125 7.24609375 C14.50558594 7.82488281 15.24164063 8.40367188 16 9 C16 9.99 16 10.98 16 12 C4.29384966 4.88610478 4.29384966 4.88610478 0 0 Z " fill="#D9A097" transform="translate(46,29)" />
<path d="M0 0 C0.33 0 0.66 0 1 0 C1 5.61 1 11.22 1 17 C0.34 17 -0.32 17 -1 17 C-1.22262606 14.91814549 -1.42757926 12.83439574 -1.625 10.75 C-1.74101563 9.58984375 -1.85703125 8.4296875 -1.9765625 7.234375 C-1.99955595 4.06127909 -1.69705154 2.61682756 0 0 Z " fill="#F58895" transform="translate(52,65)" />
<path d="M0 0 C1.91789713 0.28346278 3.83429183 0.5771028 5.75 0.875 C6.81734375 1.03742187 7.8846875 1.19984375 8.984375 1.3671875 C11.67708871 1.93223882 13.63572439 2.63422914 16 4 C9.88909517 4.09945415 4.02596573 4.0712828 -2 3 C-1.34 2.01 -0.68 1.02 0 0 Z " fill="#B5762E" transform="translate(41,51)" />
<path d="M0 0 C2.57449581 2.57449581 2.2763761 4.41337147 2.36328125 7.9296875 C2 10 2 10 -1 14 C-1.33 9.71 -1.66 5.42 -2 1 C-1.34 0.67 -0.68 0.34 0 0 Z " fill="#C9656B" transform="translate(55,59)" />
<path d="M0 0 C0.99 0 1.98 0 3 0 C2.67 1.32 2.34 2.64 2 4 C2.66 4.33 3.32 4.66 4 5 C2.6875 7.5 2.6875 7.5 1 10 C0.01 10 -0.98 10 -2 10 C-1 8 0 6 1 4 C0.01 3.67 -0.98 3.34 -2 3 C-1.34 2.01 -0.68 1.02 0 0 Z " fill="#955C49" transform="translate(77,50)" />
<path d="M0 0 C0.99 0.33 1.98 0.66 3 1 C3.05384521 3.29141286 3.09272087 5.58318188 3.125 7.875 C3.14820313 9.15117188 3.17140625 10.42734375 3.1953125 11.7421875 C3 15 3 15 1 17 C0.3583034 11.30494264 -0.12462322 5.73266804 0 0 Z " fill="#F2ABAA" transform="translate(30,27)" />
<path d="M0 0 C3.04386724 -0.08226668 5.07175348 0.02391783 8 1 C9.66621616 1.03874921 11.33394172 1.0450286 13 1 C10.37801226 3.15377564 8.35595828 4.40072174 5 5 C5 4.34 5 3.68 5 3 C3.68 3 2.36 3 1 3 C0.67 2.01 0.34 1.02 0 0 Z " fill="#C9833F" transform="translate(17,50)" />
<path d="M0 0 C0.66 0 1.32 0 2 0 C2.33 0.66 2.66 1.32 3 2 C3.66 2 4.32 2 5 2 C5.33 1.34 5.66 0.68 6 0 C6.99 0.33 7.98 0.66 9 1 C9 1.99 9 2.98 9 4 C5.04 4 1.08 4 -3 4 C-2.01 2.68 -1.02 1.36 0 0 Z " fill="#D16A74" transform="translate(41,79)" />
<path d="M0 0 C3.63 0.33 7.26 0.66 11 1 C8.57884809 3.42115191 7.35839475 3.60948898 4 4 C1.1875 3.5625 1.1875 3.5625 -1 3 C-0.67 2.01 -0.34 1.02 0 0 Z " fill="#D99429" transform="translate(40,54)" />
<path d="M0 0 C2.31 0.33 4.62 0.66 7 1 C6.25 5.75 6.25 5.75 4 8 C3.71125 7.195625 3.4225 6.39125 3.125 5.5625 C2 3 2 3 0 2 C0 1.34 0 0.68 0 0 Z " fill="#EF999A" transform="translate(56,59)" />
<path d="M0 0 C0.12375 0.763125 0.2475 1.52625 0.375 2.3125 C1 5 1 5 3 8 C1.0625 7.6875 1.0625 7.6875 -1 7 C-1.33 6.01 -1.66 5.02 -2 4 C-3.32 4 -4.64 4 -6 4 C-6 3.34 -6 2.68 -6 2 C-2.25 0 -2.25 0 0 0 Z " fill="#F1C4BF" transform="translate(52,17)" />
<path d="M0 0 C-0.33 0.66 -0.66 1.32 -1 2 C-3.88211302 2.96070434 -5.69850044 3.10581883 -8.6875 3.0625 C-9.09162109 3.05798828 -9.09162109 3.05798828 -11.13671875 3.03515625 C-11.44416016 3.02935547 -11.44416016 3.02935547 -13 3 C-8.16353702 -0.22430866 -5.73060016 -0.09242903 0 0 Z " fill="#CA7F1D" transform="translate(59,55)" />
<path d="M0 0 C3.63559661 3.43361902 6.36113346 6.7973607 9 11 C8.01 11.33 7.02 11.66 6 12 C4.99157547 10.56839732 3.99352109 9.12948547 3 7.6875 C2.7215625 7.28724609 2.7215625 7.28724609 1.3125 5.26171875 C0 3 0 3 0 0 Z " fill="#D5817D" transform="translate(34,40)" />
<path d="M0 0 C0.59167969 0.2165625 1.18335938 0.433125 1.79296875 0.65625 C9.64147627 3.42179262 9.64147627 3.42179262 14 3 C13.67 3.99 13.34 4.98 13 6 C8.11063599 4.92268251 4.13096026 3.96912769 0 1 C0 0.67 0 0.34 0 0 Z " fill="#F1BEAD" transform="translate(51,31)" />
<path d="M0 0 C0.66 0 1.32 0 2 0 C2 0.66 2 1.32 2 2 C2.66 2.33 3.32 2.66 4 3 C0.38026598 4.31626692 -2.09567131 5 -6 5 C-6 4.01 -6 3.02 -6 2 C-5.175 2.165 -5.175 2.165 -1 3 C-0.67 2.01 -0.34 1.02 0 0 Z " fill="#C25F67" transform="translate(60,78)" />
<path d="M0 0 C0.33 0.99 0.66 1.98 1 3 C4.3 3.66 7.6 4.32 11 5 C10.67 5.66 10.34 6.32 10 7 C8.741875 6.87625 7.48375 6.7525 6.1875 6.625 C5.83365234 6.59019531 5.83365234 6.59019531 4.04296875 6.4140625 C2 6 2 6 -1 4 C-0.67 2.68 -0.34 1.36 0 0 Z " fill="#D17D6A" transform="translate(56,46)" />
<path d="M0 0 C1.31611677 0.95336021 2.62778961 1.91285774 3.9375 2.875 C4.66839844 3.40867187 5.39929687 3.94234375 6.15234375 4.4921875 C8 6 8 6 9 8 C2.25 6.25 2.25 6.25 0 4 C0 2.68 0 1.36 0 0 Z " fill="#FDD0CE" transform="translate(41,26)" />
<path d="M0 0 C0.94875 0.04125 1.8975 0.0825 2.875 0.125 C3.205 0.785 3.535 1.445 3.875 2.125 C3.318125 2.16625 3.318125 2.16625 0.5 2.375 C-3.125 3.125 -3.125 3.125 -4.5625 5.1875 C-4.748125 5.826875 -4.93375 6.46625 -5.125 7.125 C-5.785 7.125 -6.445 7.125 -7.125 7.125 C-4.56730769 0.18269231 -4.56730769 0.18269231 0 0 Z " fill="#78594C" transform="translate(30.125,24.875)" />
<path d="M0 0 C0.4021875 0.0103125 0.4021875 0.0103125 2.4375 0.0625 C1.7775 2.3725 1.1175 4.6825 0.4375 7.0625 C-1.8102975 5.01016315 -2.5647242 4.05582739 -3.5625 1.0625 C-2.5625 0.0625 -2.5625 0.0625 0 0 Z " fill="#DE727D" transform="translate(38.5625,60.9375)" />
<path d="M0 0 C1.04449911 3.13349732 0.93423645 3.98968256 0 7 C-0.99 6.67 -1.98 6.34 -3 6 C-3.33 4.35 -3.66 2.7 -4 1 C-2.68 0.67 -1.36 0.34 0 0 Z " fill="#DD8085" transform="translate(33,58)" />
<path d="M0 0 C4.17882671 2.56428003 7.12505529 5.01930733 10 9 C9.01 9.33 8.02 9.66 7 10 C6.5875 9.236875 6.175 8.47375 5.75 7.6875 C4.03043329 5.04673684 2.50804131 3.81616784 0 2 C0 1.34 0 0.68 0 0 Z " fill="#EBAD98" transform="translate(45,39)" />
<path d="M0 0 C0.33 0 0.66 0 1 0 C1.33 3.3 1.66 6.6 2 10 C1.01 9.67 0.02 9.34 -1 9 C-1.09765625 2.84765625 -1.09765625 2.84765625 -1 1 C-0.67 0.67 -0.34 0.34 0 0 Z " fill="#FBDBC4" transform="translate(24,37)" />
<path d="M0 0 C2 3 2 3 1.625 6.1875 C1.41875 7.115625 1.2125 8.04375 1 9 C0.01 9.33 -0.98 9.66 -2 10 C-1.34 6.7 -0.68 3.4 0 0 Z " fill="#F18692" transform="translate(64,67)" />
<path d="M0 0 C-0.33 2.64 -0.66 5.28 -1 8 C-2.65 6.35 -4.3 4.7 -6 3 C-2.25 0 -2.25 0 0 0 Z " fill="#E5B3AB" transform="translate(46,19)" />
<path d="M0 0 C0 0.66 0 1.32 0 2 C1.98 2.66 3.96 3.32 6 4 C6 4.33 6 4.66 6 5 C3.625 5.125 3.625 5.125 1 5 C0.34 4.34 -0.32 3.68 -1 3 C-2.31747324 2.30251417 -3.64914193 1.63040043 -5 1 C-2 0 -2 0 0 0 Z " fill="#AC621F" transform="translate(31,49)" />
<path d="M0 0 C1.65 0 3.3 0 5 0 C5.33 1.32 5.66 2.64 6 4 C4.35 3.67 2.7 3.34 1 3 C0.67 2.01 0.34 1.02 0 0 Z " fill="#DE7C86" transform="translate(26,73)" />
<path d="M0 0 C1.32 0.66 1.32 0.66 8 4 C8 4.33 8 4.66 8 5 C5.69 5 3.38 5 1 5 C0.34 3.68 -0.32 2.36 -1 1 C-0.67 0.67 -0.34 0.34 0 0 Z " fill="#C98524" transform="translate(26,52)" />
<path d="M0 0 C0.66 0 1.32 0 2 0 C2.33 1.98 2.66 3.96 3 6 C1.35 5.67 -0.3 5.34 -2 5 C-1.34 4.67 -0.68 4.34 0 4 C-0.33 3.01 -0.66 2.02 -1 1 C-0.67 0.67 -0.34 0.34 0 0 Z " fill="#EC8F93" transform="translate(61,45)" />
<path d="M0 0 C0 1.32 0 2.64 0 4 C-0.66 4 -1.32 4 -2 4 C-2 3.34 -2 2.68 -2 2 C-3.98 2.33 -5.96 2.66 -8 3 C-4.93882432 0.37613513 -4.26826873 0 0 0 Z " fill="#5A3F31" transform="translate(54,15)" />
<path d="M0 0 C0.66 0.165 0.66 0.165 4 1 C4.33 2.98 4.66 4.96 5 7 C4.34 6.67 3.68 6.34 3 6 C3 5.34 3 4.68 3 4 C1.68 3.34 0.36 2.68 -1 2 C-0.67 1.34 -0.34 0.68 0 0 Z " fill="#63341D" transform="translate(76,46)" />
<path d="M0 0 C2.76276177 0.52268466 5.3260876 1.10869587 8 2 C7.67 3.32 7.34 4.64 7 6 C6.5875 5.54625 6.175 5.0925 5.75 4.625 C3.93591905 2.94049626 2.24714373 2.00734029 0 1 C0 0.67 0 0.34 0 0 Z " fill="#C78684" transform="translate(67,32)" />
<path d="M0 0 C2 2 2 2 2 5 C2.66 5 3.32 5 4 5 C4.33 5.99 4.66 6.98 5 8 C4.01 8 3.02 8 2 8 C0.23537317 4.91190305 0 3.76687864 0 0 Z " fill="#DEA197" transform="translate(40,28)" />
</svg>