<?xml version='1.0' encoding='utf-8'?>
<svg xmlns="http://www.w3.org/2000/svg" version="1.1" width="116" height="116">
<path d="M0 0 C0.93328125 -0.02900391 1.8665625 -0.05800781 2.828125 -0.08789062 C8.82841659 -0.1431341 11.98561908 0.46823311 16.625 4.3125 C17.9441582 5.00679379 19.27149406 5.68780495 20.625 6.3125 C20.295 7.3025 19.965 8.2925 19.625 9.3125 C21.275 9.3125 22.925 9.3125 24.625 9.3125 C24.7075 9.93125 24.79 10.55 24.875 11.1875 C25.625 13.3125 25.625 13.3125 27.6875 14.5625 C28.0071875 14.68625 28.0071875 14.68625 29.625 15.3125 C29.625 16.3025 29.625 17.2925 29.625 18.3125 C29.0475 18.003125 28.47 17.69375 27.875 17.375 C25.78205816 16.38666636 23.87964725 15.7956387 21.625 15.3125 C21.79 15.8075 21.79 15.8075 22.625 18.3125 C23.8115126 22.39844833 23.77365179 26.07592394 23.625 30.3125 C24.285 30.3125 24.945 30.3125 25.625 30.3125 C25.295 33.2825 24.965 36.2525 24.625 39.3125 C24.955 39.4775 24.955 39.4775 26.625 40.3125 C26.625 41.3025 26.625 42.2925 26.625 43.3125 C25.635 43.4775 25.635 43.4775 20.625 44.3125 C20.79 46.4575 20.79 46.4575 21.625 57.3125 C19.33435645 55.02185645 19.08147019 53.84203395 18.3359375 50.7421875 C18.11679688 49.84628906 17.89765625 48.95039062 17.671875 48.02734375 C17.45015625 47.09019531 17.2284375 46.15304688 17 45.1875 C16.88527344 44.71505859 16.88527344 44.71505859 16.3046875 42.32421875 C15.73843655 39.9884336 15.17883242 37.65125517 14.625 35.3125 C14.70685547 35.69535156 14.70685547 35.69535156 15.12109375 37.6328125 C15.78798331 42.50265719 15.73072847 47.27940632 15.6875 52.1875 C15.68298828 53.16203125 15.67847656 54.1365625 15.67382812 55.140625 C15.66210906 57.53131434 15.64570219 59.9218744 15.625 62.3125 C15.295 62.3125 14.965 62.3125 14.625 62.3125 C14.295 58.0225 13.965 53.7325 13.625 49.3125 C12.965 49.3125 12.305 49.3125 11.625 49.3125 C11.79 51.7875 11.79 51.7875 12.625 64.3125 C11.965 64.3125 11.305 64.3125 10.625 64.3125 C10.625 62.6625 10.625 61.0125 10.625 59.3125 C9.965 59.3125 9.305 59.3125 8.625 59.3125 C8.295 60.3025 7.965 61.2925 7.625 62.3125 C6.635 62.9725 5.645 63.6325 4.625 64.3125 C1.625 63.3125 1.625 63.3125 -1.375 61.3125 C-0.27432004 60.49528283 0.83069731 59.68390549 1.9375 58.875 C2.55238281 58.42253906 3.16726562 57.97007813 3.80078125 57.50390625 C5.625 56.3125 5.625 56.3125 8.625 55.3125 C6.315 55.3125 4.005 55.3125 1.625 55.3125 C1.53734375 55.92480469 1.4496875 56.53710938 1.359375 57.16796875 C0.625 59.3125 0.625 59.3125 -1.046875 60.61328125 C-6.65547465 63.34378371 -6.65547465 63.34378371 -10.25 63.1875 C-12.375 62.3125 -12.375 62.3125 -14.375 60.3125 C-14.9525 60.51875 -15.53 60.725 -16.125 60.9375 C-18.375 61.3125 -18.375 61.3125 -21.4375 59.4375 C-22.406875 58.73625 -23.37625 58.035 -24.375 57.3125 C-25.365 56.9825 -26.355 56.6525 -27.375 56.3125 C-27.9296875 54.4921875 -27.9296875 54.4921875 -28.25 52.1875 C-28.89128986 48.66593413 -29.64206539 46.68248179 -32 44 C-35.13808697 40.00775918 -34.95764935 36.16871426 -34.73046875 31.23828125 C-33.40224005 20.30593736 -26.82052978 11.99818842 -18.6875 5 C-16.375 3.3125 -16.375 3.3125 -14.375 3.3125 C-14.375 2.6525 -14.375 1.9925 -14.375 1.3125 C-9.6118559 -0.04537193 -4.92158617 0.05056424 0 0 Z " fill="#66A3E4" transform="translate(55.375,25.6875)" />
<path d="M0 0 C3.83039796 3.10079835 6.4729365 6.7882275 9 11 C9 11.66 9 12.32 9 13 C9.66 12.67 10.32 12.34 11 12 C13.71760108 11.92818179 16.40859388 11.90700494 19.125 11.9375 C19.50205078 11.93975586 19.50205078 11.93975586 21.41015625 11.95117188 C23.27347127 11.96296501 25.13674555 11.98090058 27 12 C27.165 12.33 27.165 12.33 28 14 C25.36 14.165 25.36 14.165 12 15 C12.165 15.66 12.165 15.66 13 19 C12.01 19 11.02 19 10 19 C10.433125 19.67546875 10.86625 20.3509375 11.3125 21.046875 C11.869375 21.93890625 12.42625 22.8309375 13 23.75 C13.556875 24.63171875 14.11375 25.5134375 14.6875 26.421875 C16 29 16 29 16 33 C15.34 33 14.68 33 14 33 C13.68546875 32.32453125 13.3709375 31.6490625 13.046875 30.953125 C12.61890625 30.06109375 12.1909375 29.1690625 11.75 28.25 C11.54117188 27.80914062 11.54117188 27.80914062 10.484375 25.578125 C8.94855301 22.9106447 7.26227633 21.06891938 5 19 C5.54269531 20.08539063 6.08539063 21.17078125 6.64453125 22.2890625 C10.95703125 30.9140625 10.95703125 30.9140625 12.00317383 33.01611328 C12.90022923 34.80143589 13.82352285 36.57351688 14.75 38.34375 C16.07373272 41.15668203 16.27062507 42.93291593 16 46 C13.16811225 42.5494537 11.25496982 38.74037641 9.3125 34.75 C8.99216797 34.1003125 8.67183594 33.450625 8.34179688 32.78125 C7.55752859 31.18930243 6.77825745 29.59489471 6 28 C5.34 28.99 4.68 29.98 4 31 C2.35 28.69 0.7 26.38 -1 24 C-0.773125 24.4434375 -0.773125 24.4434375 0.375 26.6875 C1.72004299 29.42931841 2.91038715 32.15024331 4 35 C3.01 34.34 2.02 33.68 1 33 C0.34 33.66 -0.32 34.32 -1 35 C-3.5 33.625 -3.5 33.625 -6 32 C-6 31.34 -6 30.68 -6 30 C-6.99 30.99 -7.98 31.98 -9 33 C-8.69255859 33.09667969 -8.69255859 33.09667969 -7.13671875 33.5859375 C-6.32847656 33.84632812 -5.52023438 34.10671875 -4.6875 34.375 C-3.88699219 34.63023438 -3.08648437 34.88546875 -2.26171875 35.1484375 C0 36 0 36 3 38 C-5.75177665 38.53582306 -11.27191348 35.08039186 -18 30 C-17.34 29.67 -16.68 29.34 -16 29 C-13.375 30.4375 -13.375 30.4375 -11 32 C-11 31.34 -11 30.68 -11 30 C-11.66 29.67 -12.32 29.34 -13 29 C-13 28.01 -13 27.02 -13 26 C-17.49365277 27.81453912 -20.39650543 29.01932133 -23 33.25 C-23.165 33.70375 -23.165 33.70375 -24 36 C-20.37 36.99 -16.74 37.98 -13 39 C-14.134375 38.608125 -15.26875 38.21625 -16.4375 37.8125 C-20 36 -20 36 -20.9375 33.3125 C-20.958125 32.549375 -20.97875 31.78625 -21 31 C-17.21298657 31.658219 -14.46974164 33.38896067 -11.25 35.4375 C-10.26515625 36.05496094 -9.2803125 36.67242187 -8.265625 37.30859375 C-7.51796875 37.86675781 -6.7703125 38.42492187 -6 39 C-6 39.66 -6 40.32 -6 41 C-4.35 41.33 -2.7 41.66 -1 42 C-1 42.33 -1 42.66 -1 43 C-4.63 43 -8.26 43 -12 43 C2.59681093 48.37129841 2.59681093 48.37129841 10 50 C10 50.33 10 50.66 10 51 C3.75344178 51.34352565 -0.61005159 50.43260837 -6.3125 47.9375 C-7.04654053 47.62675537 -7.78058105 47.31601074 -8.53686523 46.99584961 C-14.78803467 44.26845254 -20.43416807 40.95498641 -26 37 C-26 39.31 -26 41.62 -26 44 C-28.60523513 41.83326979 -29.88104259 40.65567077 -30.49609375 37.265625 C-30.27753445 26.0171065 -27.12694761 17.63964237 -19.5 9.25 C-12.55555556 3 -12.55555556 3 -10 3 C-10 2.34 -10 1.68 -10 1 C-6.57113346 -0.05503586 -3.57321156 -0.43753611 0 0 Z " fill="#8FCBF9" transform="translate(51,26)" />
<path d="M0 0 C6.72566372 1.34513274 6.72566372 1.34513274 10 4 C13.08168703 12.7480148 15.03748829 24.67316774 11.1875 33.375 C7.65174939 39.7827502 7.65174939 39.7827502 4 41 C3.70609375 41.77988281 3.4121875 42.55976562 3.109375 43.36328125 C1.33750628 47.57458895 -1.78027855 48.69308223 -5.72265625 50.703125 C-14.98007933 54.36637227 -25.09002883 55.25653445 -34.4375 51.6875 C-37 50 -37 50 -38 47.9375 C-38 46 -38 46 -36 44 C-35.814375 44.2578125 -35.814375 44.2578125 -34.875 45.5625 C-33 47 -33 47 -30.1875 46.8125 C-29.135625 46.544375 -28.08375 46.27625 -27 46 C-25.906875 45.731875 -24.81375 45.46375 -23.6875 45.1875 C-21 44 -21 44 -20.125 41.875 C-20.08375 41.25625 -20.0425 40.6375 -20 40 C-17.36 39.67 -14.72 39.34 -12 39 C-12.33 39.99 -12.66 40.98 -13 42 C-14.32488113 42.36548445 -15.66018514 42.6937566 -17 43 C-19.25 44.5625 -19.25 44.5625 -21 46 C-19.68 46.66 -18.36 47.32 -17 48 C-16.38125 47.34 -15.7625 46.68 -15.125 46 C-13 44 -13 44 -11 44 C-11 45.65 -11 47.3 -11 49 C-10.34 49 -9.68 49 -9 49 C-9.165 48.01 -9.33 47.02 -9.5 46 C-10.08474517 41.97267058 -10.07132024 38.06525377 -10 34 C-9.34 34 -8.68 34 -8 34 C-7.67 36.31 -7.34 38.62 -7 41 C-6.97273073 38.64575325 -6.95303281 36.29183038 -6.9375 33.9375 C-6.92589844 32.62652344 -6.91429688 31.31554687 -6.90234375 29.96484375 C-6.99547665 26.1836481 -7.38551274 22.72079293 -8 19 C-6 20 -6 20 -5.31396484 21.94946289 C-5.11496582 22.7821167 -4.9159668 23.61477051 -4.7109375 24.47265625 C-4.49179688 25.37177734 -4.27265625 26.27089844 -4.046875 27.19726562 C-3.93601562 27.6700293 -3.93601562 27.6700293 -3.375 30.0625 C-3.26027344 30.53719727 -3.26027344 30.53719727 -2.6796875 32.93945312 C-2.11243067 35.29120541 -1.55527272 37.64538934 -1 40 C-1 36.37 -1 32.74 -1 29 C0.32 28.34 1.64 27.68 3 27 C3 26.01 3 25.02 3 24 C3.15127402 22.43593472 3.31902522 20.87340748 3.5 19.3125 C3.54640625 18.90837891 3.54640625 18.90837891 3.78125 16.86328125 C3.8534375 16.24839844 3.925625 15.63351563 4 15 C3.34 15 2.68 15 2 15 C1.67 12.525 1.67 12.525 0 0 Z " fill="#3272B7" transform="translate(77,41)" />
<path d="M0 0 C3.83039796 3.10079835 6.4729365 6.7882275 9 11 C9 11.66 9 12.32 9 13 C9.66 12.67 10.32 12.34 11 12 C13.71760108 11.92818179 16.40859388 11.90700494 19.125 11.9375 C19.87910156 11.94201172 20.63320312 11.94652344 21.41015625 11.95117188 C23.27347127 11.96296501 25.13674555 11.98090058 27 12 C27.165 12.33 27.165 12.33 28 14 C25.36 14.165 25.36 14.165 12 15 C12.33 16.32 12.66 17.64 13 19 C12.01 19 11.02 19 10 19 C10.433125 19.67546875 10.86625 20.3509375 11.3125 21.046875 C11.869375 21.93890625 12.42625 22.8309375 13 23.75 C13.556875 24.63171875 14.11375 25.5134375 14.6875 26.421875 C16 29 16 29 16 33 C15.34 33 14.68 33 14 33 C13.68546875 32.32453125 13.3709375 31.6490625 13.046875 30.953125 C12.61890625 30.06109375 12.1909375 29.1690625 11.75 28.25 C11.54117188 27.80914062 11.54117188 27.80914062 10.484375 25.578125 C8.94855301 22.9106447 7.26227633 21.06891938 5 19 C5.54269531 20.08539063 6.08539063 21.17078125 6.64453125 22.2890625 C10.95703125 30.9140625 10.95703125 30.9140625 12.00317383 33.01611328 C12.90022923 34.80143589 13.82352285 36.57351688 14.75 38.34375 C16.07373272 41.15668203 16.27062507 42.93291593 16 46 C12.79323732 42.10120039 10.806898 37.6733584 8.69335938 33.1328125 C6.89175319 29.3931756 4.96621589 26.85835349 2 24 C0.65625 21.66796875 0.65625 21.66796875 -0.5 19.1875 C-5.76740057 8.23259943 -5.76740057 8.23259943 -8.75 5.25 C-9.1625 4.8375 -9.575 4.425 -10 4 C-10 3.01 -10 2.02 -10 1 C-6.57113346 -0.05503586 -3.57321156 -0.43753611 0 0 Z " fill="#ACE4F9" transform="translate(51,26)" />
<path d="M0 0 C2.49361571 1.20381448 4.68143083 2.45428722 7 4 C7.6875 6.625 7.6875 6.625 8 9 C8.66 9 9.32 9 10 9 C10 10.32 10 11.64 10 13 C9.07058594 13.42410156 8.14117187 13.84820312 7.18359375 14.28515625 C-8.27088481 21.54176961 -8.27088481 21.54176961 -12 29 C-12.22467831 30.53668865 -12.40796805 32.07968054 -12.5625 33.625 C-12.64628906 34.44226563 -12.73007812 35.25953125 -12.81640625 36.1015625 C-12.87699219 36.72804687 -12.93757813 37.35453125 -13 38 C-15.31956593 36.20202958 -15.95235026 35.31532915 -16.3984375 32.36328125 C-16.31087319 20.96532669 -13.11058266 12.59730481 -5.375 4.125 C-3 2 -3 2 0 0 Z " fill="#9FD1EF" transform="translate(37,31)" />
<path d="M0 0 C2.33524782 2.25740623 4.18705073 4.2805761 6 7 C6.66 6.67 7.32 6.34 8 6 C9.1793149 8.22324926 10.34340918 10.45246639 11.5 12.6875 C11.83386719 13.31333984 12.16773438 13.93917969 12.51171875 14.58398438 C14.3695262 18.20481317 15.43750214 20.91404255 15 25 C14.01 24.01 13.02 23.02 12 22 C11.835 22.165 11.835 22.165 11 23 C11.165 23.33 11.165 23.33 12 25 C4.023793 27.07381382 -2.71200114 24.3522817 -10 21 C-10.33 20.34 -10.66 19.68 -11 19 C-8.03 19 -5.06 19 -2 19 C-2.66 18.67 -3.32 18.34 -4 18 C-4 17.34 -4 16.68 -4 16 C-4.680625 15.773125 -5.36125 15.54625 -6.0625 15.3125 C-9.19163795 13.91437453 -11.63923377 12.18909099 -14.3515625 10.12109375 C-16 9 -16 9 -19 8 C-18.5 10.3125 -18.5 10.3125 -17 13 C-14.4309588 14.34219295 -11.78186561 15.20425705 -9 16 C-11.55144824 16.93045933 -12.74006478 17.08564091 -15.359375 16.22265625 C-16.14828125 15.83980469 -16.9371875 15.45695312 -17.75 15.0625 C-18.54921875 14.68222656 -19.3484375 14.30195312 -20.171875 13.91015625 C-20.77515625 13.60980469 -21.3784375 13.30945312 -22 13 C-21.22131787 9.6162722 -20.50561819 7.50561819 -18 5 C-14.3125 3.75 -14.3125 3.75 -11 3 C-11 3.99 -11 4.98 -11 6 C-10.01 6.33 -9.02 6.66 -8 7 C-8.33 7.66 -8.66 8.32 -9 9 C-10.98 8.34 -12.96 7.68 -15 7 C-9.32206314 11.29788276 -5.18404854 13.73876187 2 14 C0.515 13.34 0.515 13.34 -7 10 C-6.67 9.01 -6.34 8.02 -6 7 C-4 7 -4 7 -2.5 8.4375 C-2.005 8.953125 -1.51 9.46875 -1 10 C-0.34 10.33 0.32 10.66 1 11 C1.66 10.34 2.32 9.68 3 9 C3.66 9.33 4.32 9.66 5 10 C4.6390625 9.44570313 4.278125 8.89140625 3.90625 8.3203125 C3.4421875 7.59585938 2.978125 6.87140625 2.5 6.125 C2.0359375 5.40570313 1.571875 4.68640625 1.09375 3.9453125 C0 2 0 2 0 0 Z " fill="#85C1FA" transform="translate(49,49)" />
<path d="M0 0 C2.64 0 5.28 0 8 0 C8.66 2.64 9.32 5.28 10 8 C10.474375 8.0721875 10.474375 8.0721875 12.875 8.4375 C16 9 16 9 18 10 C18.484375 11.99609375 18.484375 11.99609375 18.75 14.4375 C18.79898438 14.83904297 18.79898438 14.83904297 19.046875 16.87109375 C19 19 19 19 17 21 C15.00371336 21.3548954 13.00309329 21.68578929 11 22 C9.31624835 22.62225605 7.64232772 23.27544365 6 24 C6 24.66 6 25.32 6 26 C5.34 26 4.68 26 4 26 C3.34 24.35 2.68 22.7 2 21 C1.34 21 0.68 21 0 21 C1.13036845 18.12269848 2.07540136 16.94115016 4.5625 15 C7.08066518 12.93381319 7.6619668 12.15497657 8 9 C6.1875 9.1875 6.1875 9.1875 4 10 C3.54625 10.845625 3.0925 11.69125 2.625 12.5625 C2.08875 13.366875 1.5525 14.17125 1 15 C-2.1875 15.3125 -2.1875 15.3125 -5 15 C-5.33 14.01 -5.66 13.02 -6 12 C-4.78515625 9.84375 -4.78515625 9.84375 -3.0625 7.5 C0 3.3143508 0 3.3143508 0 0 Z " fill="#624F22" transform="translate(82,17)" />
<path d="M0 0 C6.72566372 1.34513274 6.72566372 1.34513274 10 4 C13.08168703 12.7480148 15.03748829 24.67316774 11.1875 33.375 C7.65174939 39.7827502 7.65174939 39.7827502 4 41 C3.7525 41.78375 3.505 42.5675 3.25 43.375 C1.83049173 46.35596738 1.2906444 46.58886611 -1.625 47.8125 C-2.181875 48.0084375 -2.181875 48.0084375 -5 49 C-5 47.02 -5 45.04 -5 43 C-4.34 43.66 -3.68 44.32 -3 45 C-0.875 44.625 -0.875 44.625 1 44 C1 42.35 1 40.7 1 39 C2.32 39 3.64 39 5 39 C5 38.34 5 37.68 5 37 C5.66 37 6.32 37 7 37 C7 35.68 7 34.36 7 33 C5.68 32.67 4.36 32.34 3 32 C3.66 32 4.32 32 5 32 C5 31.34 5 30.68 5 30 C4.34 29.67 3.68 29.34 3 29 C4.155 28.835 4.155 28.835 10 28 C9.67 26.68 9.34 25.36 9 24 C7.02 24 5.04 24 3 24 C3.165 22.515 3.165 22.515 4 15 C3.34 15 2.68 15 2 15 C1.34 10.05 0.68 5.1 0 0 Z " fill="#0E4D91" transform="translate(77,41)" />
<path d="M0 0 C3.50139542 1.29910431 6.49156386 2.85241413 9.625 4.875 C14.83499557 8.07632258 20.19824357 10.12490762 26 12 C26 12.66 26 13.32 26 14 C26.99 14.66 27.98 15.32 29 16 C23.1977825 16.36263859 19.36000789 15.25684543 14 13 C14.15597656 13.62648438 14.31195313 14.25296875 14.47265625 14.8984375 C14.66730469 15.71570313 14.86195312 16.53296875 15.0625 17.375 C15.16111328 17.78105469 15.16111328 17.78105469 15.66015625 19.8359375 C16 22 16 22 15 24 C11.1286412 23.46231128 9.02815875 22.422527 6 20 C5.01 19.67 4.02 19.34 3 19 C2.33984375 17.0390625 2.33984375 17.0390625 1.9375 14.625 C1.36829089 11.29648197 0.94048384 9.91072575 -1 7 C-0.625 3.3125 -0.625 3.3125 0 0 Z " fill="#67A2D4" transform="translate(25,63)" />
<path d="M0 0 C3.66651247 -0.08796382 7.33274918 -0.14071247 11 -0.1875 C11.51498047 -0.20006836 11.51498047 -0.20006836 14.12109375 -0.26367188 C20.50114621 -0.32462779 25.18541977 0.33731362 31 3 C31 3.66 31 4.32 31 5 C31.99 5 32.98 5 34 5 C34 5.66 34 6.32 34 7 C31.17715392 6.60793804 29.40230661 6.33969778 27.19433594 4.4753418 C24.34515609 2.55972166 22.55117437 2.65482896 19.140625 2.70703125 C18.02558594 2.71669922 16.91054688 2.72636719 15.76171875 2.73632812 C14.60285156 2.76146484 13.44398437 2.78660156 12.25 2.8125 C11.66283203 2.81926758 11.66283203 2.81926758 8.69140625 2.85351562 C5.79380702 2.8888522 2.89713573 2.93819021 0 3 C0 3.66 0 4.32 0 5 C-1.4609375 6.2890625 -1.4609375 6.2890625 -3.375 7.625 C-4.00148438 8.07101563 -4.62796875 8.51703125 -5.2734375 8.9765625 C-7 10 -7 10 -9 10 C-9.268125 10.556875 -9.53625 11.11375 -9.8125 11.6875 C-11.48529615 14.9450504 -13.21302331 18.05562798 -15.5625 20.875 C-19.69531511 26.98437886 -19.99874713 34.87301805 -19 42 C-17.60682567 44.67470055 -15.92487811 46.64202431 -14 49 C-13.6875 51.9375 -13.6875 51.9375 -14 54 C-15.03450491 52.69325696 -16.02172071 51.34935074 -17 50 C-17.433125 49.44054687 -17.86625 48.88109375 -18.3125 48.3046875 C-22.78822718 42.02341128 -22.69738848 36.91204061 -21.640625 29.46875 C-20.84041104 25.21933795 -20.20191531 22.98137523 -17 20 C-14.74922362 16.16534395 -13.60608674 13.46435025 -14 9 C-13.525625 8.9690625 -13.525625 8.9690625 -11.125 8.8125 C-10.09375 8.544375 -9.0625 8.27625 -8 8 C-6.625 5.4375 -6.625 5.4375 -6 3 C-4.35 3 -2.7 3 -1 3 C-0.67 2.01 -0.34 1.02 0 0 Z " fill="#405B68" transform="translate(41,24)" />
<path d="M0 0 C0.18175781 0.60328125 0.36351563 1.2065625 0.55078125 1.828125 C3.04745167 9.76625659 3.04745167 9.76625659 6 13 C5.67 13.66 5.34 14.32 5 15 C4.34 14.34 3.68 13.68 3 13 C2.34 13.66 1.68 14.32 1 15 C-1.5 13.625 -1.5 13.625 -4 12 C-4 11.34 -4 10.68 -4 10 C-4.99 10.99 -5.98 11.98 -7 13 C-6.38511719 13.19335938 -5.77023438 13.38671875 -5.13671875 13.5859375 C-4.32847656 13.84632812 -3.52023438 14.10671875 -2.6875 14.375 C-1.88699219 14.63023438 -1.08648437 14.88546875 -0.26171875 15.1484375 C2 16 2 16 5 18 C-3.75177665 18.53582306 -9.27191348 15.08039186 -16 10 C-15.34 9.67 -14.68 9.34 -14 9 C-11.375 10.4375 -11.375 10.4375 -9 12 C-9 11.34 -9 10.68 -9 10 C-9.66 9.67 -10.32 9.34 -11 9 C-11 8.01 -11 7.02 -11 6 C-11.66 5.67 -12.32 5.34 -13 5 C-11.39967863 4.15930585 -9.79458829 3.32768495 -8.1875 2.5 C-7.74083984 2.26796875 -7.74083984 2.26796875 -5.48046875 1.09375 C-3 0 -3 0 0 0 Z " fill="#84BAD9" transform="translate(49,46)" />
<path d="M0 0 C0 0.99 0 1.98 0 3 C0.721875 3.0825 1.44375 3.165 2.1875 3.25 C5.55313254 4.14750201 7.41612816 5.7114278 10 8 C8.50728166 12.6138567 6.26639972 15.49459542 3 19 C2.01 19.33 1.02 19.66 0 20 C0.53115106 15.48521602 2.36620292 12.65333143 5 9 C4.54625 9.495 4.0925 9.99 3.625 10.5 C2 12 2 12 0 12 C-0.33 13.98 -0.66 15.96 -1 18 C-1.12375 17.360625 -1.2475 16.72125 -1.375 16.0625 C-1.58125 15.381875 -1.7875 14.70125 -2 14 C-2.66 13.67 -3.32 13.34 -4 13 C-3.67 11.35 -3.34 9.7 -3 8 C-2.34 8 -1.68 8 -1 8 C-1 7.01 -1 6.02 -1 5 C-2.32 5.33 -3.64 5.66 -5 6 C-5 6.66 -5 7.32 -5 8 C-6.98 8.33 -8.96 8.66 -11 9 C-8.81638059 4.63276119 -5.32701042 0 0 0 Z " fill="#706449" transform="translate(28,79)" />
<path d="M0 0 C1.32 0 2.64 0 4 0 C5.2062252 3.61867559 5.10816918 6.92506251 5.0625 10.6875 C5.05798828 11.38939453 5.05347656 12.09128906 5.04882812 12.81445312 C5.03706927 14.54300538 5.01913454 16.27151365 5 18 C5.99 17.67 6.98 17.34 8 17 C8 17.66 8 18.32 8 19 C8.66 19.33 9.32 19.66 10 20 C10 20.99 10 21.98 10 23 C8.02 23.33 6.04 23.66 4 24 C4.33 28.29 4.66 32.58 5 37 C1.9287919 33.9287919 2.09297684 29.96284431 1.89453125 25.7734375 C1.49727957 19.18120699 -0.4084601 13.77231115 -2.94140625 7.6875 C-4 5 -4 5 -4 3 C0 3 0 3 1.75 4.5 C2.1625 4.995 2.575 5.49 3 6 C2.42655063 3.13275314 2.1385485 2.1385485 0 0 Z " fill="#4385D8" transform="translate(72,46)" />
<path d="M0 0 C6.6235504 1.32471008 6.6235504 1.32471008 9 3 C9.609375 5.06640625 9.609375 5.06640625 9.75 7.5625 C9.80542969 8.44808594 9.86085938 9.33367188 9.91796875 10.24609375 C10.03485839 14.17024583 10.06331942 18.07419623 10 22 C8.35 22 6.7 22 5 22 C4.67 19.69 4.34 17.38 4 15 C3.34 15 2.68 15 2 15 C1.34 10.05 0.68 5.1 0 0 Z " fill="#1F5DA8" transform="translate(77,41)" />
<path d="M0 0 C4.12472132 1.52767456 6.67579642 4.37632158 9 8 C10.10945657 10.50338919 11.07376789 13.03075581 12.015625 15.6015625 C12.92003254 17.80515864 13.90241093 19.47234557 15.3125 21.375 C17 24 17 24 16.60546875 26.1640625 C16.40566406 26.76992188 16.20585938 27.37578125 16 28 C14.9944239 26.54550599 13.99569565 25.08627557 13 23.625 C12.443125 22.81289063 11.88625 22.00078125 11.3125 21.1640625 C10 19 10 19 10 17 C9.22914062 17.3609375 8.45828125 17.721875 7.6640625 18.09375 C6.66117188 18.5578125 5.65828125 19.021875 4.625 19.5 C3.62726562 19.9640625 2.62953125 20.428125 1.6015625 20.90625 C-1 22 -1 22 -3 22 C-3 22.66 -3 23.32 -3 24 C-3.969375 24.45375 -4.93875 24.9075 -5.9375 25.375 C-9 27 -9 27 -10 29 C-10.66 29 -11.32 29 -12 29 C-8.85647043 21.9536342 -2.79639813 18.57644396 4.08203125 15.6640625 C6 15 6 15 8 15 C8 13.68 8 12.36 8 11 C7.34 11 6.68 11 6 11 C5.9175 10.21625 5.835 9.4325 5.75 8.625 C5 6 5 6 3.0625 4.875 C2.381875 4.58625 1.70125 4.2975 1 4 C0.34 3.01 -0.32 2.02 -1 1 C-0.67 0.67 -0.34 0.34 0 0 Z " fill="#AEE6FB" transform="translate(39,29)" />
<path d="M0 0 C3.72626684 0.25862192 5.48784014 0.46421653 8.1171875 3.21484375 C8.69726562 4.11332031 9.27734375 5.01179688 9.875 5.9375 C10.47054687 6.83339844 11.06609375 7.72929688 11.6796875 8.65234375 C13 11 13 11 13 13 C13.66 12.67 14.32 12.34 15 12 C17.71760108 11.92818179 20.40859388 11.90700494 23.125 11.9375 C23.87910156 11.94201172 24.63320312 11.94652344 25.41015625 11.95117188 C27.27347127 11.96296501 29.13674555 11.98090058 31 12 C31.33 12.66 31.66 13.32 32 14 C29.36 14.165 29.36 14.165 16 15 C16.33 16.32 16.66 17.64 17 19 C10.41263727 16.78869449 4.99094821 11.78841869 1.75390625 5.62890625 C0.9375 3.4375 0.9375 3.4375 0 0 Z " fill="#A9E5FC" transform="translate(47,26)" />
<path d="M0 0 C0 0.99 0 1.98 0 3 C-0.5775 3.103125 -1.155 3.20625 -1.75 3.3125 C-4.32049158 4.09792798 -5.93657284 5.30504197 -8 7 C-6.68 7.66 -5.36 8.32 -4 9 C-3.38125 8.34 -2.7625 7.68 -2.125 7 C0 5 0 5 2 5 C1.4375 7.3125 1.4375 7.3125 0 10 C-5.4542077 13.29525049 -10.71059407 13.77710946 -17 13 C-21.11275909 11.45771534 -22.55780938 10.66328593 -25 7 C-24.34 6.34 -23.68 5.68 -23 5 C-22.814375 5.2578125 -22.814375 5.2578125 -21.875 6.5625 C-20 8 -20 8 -17.1875 7.8125 C-16.135625 7.544375 -15.08375 7.27625 -14 7 C-12.906875 6.731875 -11.81375 6.46375 -10.6875 6.1875 C-8 5 -8 5 -7.125 2.875 C-7.08375 2.25625 -7.0425 1.6375 -7 1 C-5.845 0.835 -5.845 0.835 0 0 Z " fill="#3C77BC" transform="translate(64,80)" />
<path d="M0 0 C0 0.99 0 1.98 0 3 C0.99 3.33 1.98 3.66 3 4 C2.67 4.66 2.34 5.32 2 6 C0.02 5.34 -1.96 4.68 -4 4 C4.13707208 9.86754858 11.0566283 12.14320153 21 13 C21.165 13.495 21.165 13.495 22 16 C17.05 15.67 12.1 15.34 7 15 C7 14.34 7 13.68 7 13 C6.319375 12.773125 5.63875 12.54625 4.9375 12.3125 C1.80836205 10.91437453 -0.63923377 9.18909099 -3.3515625 7.12109375 C-5 6 -5 6 -8 5 C-7.5 7.3125 -7.5 7.3125 -6 10 C-3.4309588 11.34219295 -0.78186561 12.20425705 2 13 C-0.55144824 13.93045933 -1.74006478 14.08564091 -4.359375 13.22265625 C-5.14828125 12.83980469 -5.9371875 12.45695312 -6.75 12.0625 C-7.54921875 11.68222656 -8.3484375 11.30195312 -9.171875 10.91015625 C-9.77515625 10.60980469 -10.3784375 10.30945312 -11 10 C-10.23978854 6.63536037 -9.39023561 4.56096673 -7 2 C-4.53285219 0.79651326 -2.74945885 0 0 0 Z " fill="#84BCDD" transform="translate(38,52)" />
<path d="M0 0 C7.75095362 7.08658616 11.02354198 15.02304575 14 25 C14.66 24.67 15.32 24.34 16 24 C16 30.93 16 37.86 16 45 C15.67 45 15.34 45 15 45 C14.86722656 44.07316406 14.73445313 43.14632812 14.59765625 42.19140625 C14.42105469 40.99386719 14.24445313 39.79632813 14.0625 38.5625 C13.88847656 37.36753906 13.71445313 36.17257813 13.53515625 34.94140625 C13 32 13 32 12 31 C11.82812502 29.64648453 11.66282742 28.29213367 11.5 26.9375 C10.37008735 20.7808106 7.38790743 15.90910072 4.1875 10.62280273 C2.06434343 7.08348332 0.46202819 4.19067675 0 0 Z " fill="#4F8ED8" transform="translate(55,43)" />
<path d="M0 0 C6.61641977 6.11112266 11.89426441 17.66257162 12.5859375 26.58984375 C12.65284746 30.08538232 12.42039518 33.52784725 12 37 C11.34 37 10.68 37 10 37 C10 35.35 10 33.7 10 32 C9.34 32 8.68 32 8 32 C7.67 32.99 7.34 33.98 7 35 C6.01 35.66 5.02 36.32 4 37 C1 36 1 36 -2 34 C-0.92250558 33.17977251 0.16229508 32.36913831 1.25 31.5625 C1.55164062 31.33626953 1.55164062 31.33626953 3.078125 30.19140625 C5.07320162 28.95462095 6.72907608 28.5140546 9 28 C8.57025699 21.11729055 7.07312425 16.16586535 3.9375 10.0625 C0 2.19423077 0 2.19423077 0 0 Z " fill="#4889D1" transform="translate(56,53)" />
<path d="M0 0 C0.66 0 1.32 0 2 0 C2 0.66 2 1.32 2 2 C2.61875 1.835 3.2375 1.67 3.875 1.5 C8.57410225 0.74814364 14.63939756 -0.18030122 19 2 C19 1.34 19 0.68 19 0 C19.66 0 20.32 0 21 0 C21.04125 0.309375 21.04125 0.309375 21.25 1.875 C22 4 22 4 24.0625 5.25 C24.701875 5.4975 25.34125 5.745 26 6 C26 6.99 26 7.98 26 9 C25.46375 8.67 24.9275 8.34 24.375 8 C21.4608939 6.77300796 19.13132292 6.85766714 16 7 C15.67 7.99 15.34 8.98 15 10 C12.69 9.01 10.38 8.02 8 7 C8.33 7.99 8.66 8.98 9 10 C7.0625 9.6875 7.0625 9.6875 5 9 C4.67 8.01 4.34 7.02 4 6 C8.95 5.34 13.9 4.68 19 4 C13.06 4 7.12 4 1 4 C0.67 2.68 0.34 1.36 0 0 Z " fill="#4F88C6" transform="translate(59,35)" />
<path d="M0 0 C6.52025727 5.02991275 9.15498846 13.15197758 10.53515625 21.0703125 C10.76938387 23.38619681 10.9422343 25.67361776 11 28 C7.893533 24.893533 7.30910218 21.16532512 6 17 C6 20.3 6 23.6 6 27 C5.67 27 5.34 27 5 27 C3.12134155 20.8160826 1.86721735 15.50634998 2 9 C1.36525925 7.65117592 0.70151152 6.3153341 0 5 C-0.125 2.25 -0.125 2.25 0 0 Z " fill="#6DAAE6" transform="translate(64,46)" />
<path d="M0 0 C1.32 0 2.64 0 4 0 C3.84518205 2.70931419 3.51827919 4.46584039 1.59765625 6.4453125 C0.10228292 7.67679642 -1.4462924 8.8429837 -3 10 C-2.525625 10.598125 -2.05125 11.19625 -1.5625 11.8125 C0 14 0 14 1 17 C1.66 17.33 2.32 17.66 3 18 C3 20.64 3 23.28 3 26 C0.33763128 23.33763128 -0.05939079 20.67117635 -1.0234375 17.09375 C-2.23375721 14.49882454 -3.37452191 13.99400817 -6 13 C-6 11.68 -6 10.36 -6 9 C-7.65 9 -9.3 9 -11 9 C-11 7.02 -11 5.04 -11 3 C-10.34 3.66 -9.68 4.32 -9 5 C-7.01178687 5.39764263 -5.01055661 5.73775349 -3 6 C-2.690625 5.195625 -2.38125 4.39125 -2.0625 3.5625 C-1 1 -1 1 0 0 Z " fill="#59635B" transform="translate(86,26)" />
<path d="M0 0 C5.28 1.32 10.56 2.64 16 4 C15.67 4.66 15.34 5.32 15 6 C12.03 6 9.06 6 6 6 C5.67 5.34 5.34 4.68 5 4 C4.67 4.99 4.34 5.98 4 7 C7.3 7.33 10.6 7.66 14 8 C13 11 13 11 11.25 12.25 C8.32611489 13.22462837 6.87728587 13.10664841 4 12 C0.68657962 7.97656097 0.78974443 5.52821103 0 0 Z " fill="#4884CC" transform="translate(39,76)" />
<path d="M0 0 C2.375 -0.125 2.375 -0.125 5 0 C7 2 7 2 7 6 C6.01 6.33 5.02 6.66 4 7 C2.61328125 8.84765625 2.61328125 8.84765625 1.3125 11.0625 C0.87550781 11.79597656 0.43851562 12.52945312 -0.01171875 13.28515625 C-0.17478516 13.56810547 -0.17478516 13.56810547 -1 15 C-2.65 14.67 -4.3 14.34 -6 14 C-4.72846029 9.44364936 -2.95448071 6.64385954 0 3 C0 2.01 0 1.02 0 0 Z " fill="#C0A049" transform="translate(82,17)" />
<path d="M0 0 C3.78701343 0.658219 6.53025836 2.38896067 9.75 4.4375 C10.73484375 5.05496094 11.7196875 5.67242187 12.734375 6.30859375 C13.10820313 6.58767578 13.10820313 6.58767578 15 8 C15 8.66 15 9.32 15 10 C15.825 10.165 15.825 10.165 20 11 C20 11.33 20 11.66 20 12 C13.54107286 12.40368295 8.93891422 11.5915262 3 9 C6 8 6 8 8 8 C6.865625 7.608125 5.73125 7.21625 4.5625 6.8125 C1 5 1 5 0.0625 2.3125 C0.041875 1.549375 0.02125 0.78625 0 0 Z " fill="#A6E1FA" transform="translate(30,57)" />
<path d="M0 0 C0 3.76275013 -1.29290326 5.64903232 -3 9 C-6.07241575 15.60000421 -7.12237071 21.72463271 -6 29 C-4.60192728 31.66993054 -2.92343182 33.64379602 -1 36 C-0.6875 38.9375 -0.6875 38.9375 -1 41 C-2.03450491 39.69325696 -3.02172071 38.34935074 -4 37 C-4.433125 36.44054687 -4.86625 35.88109375 -5.3125 35.3046875 C-9.78822718 29.02341128 -9.69738848 23.91204061 -8.640625 16.46875 C-7.83770234 12.20495379 -7.18552629 10.00628951 -4 7 C-2.96838392 5.01612292 -1.96476382 3.01723344 -1 1 C-0.67 0.67 -0.34 0.34 0 0 Z " fill="#314D5F" transform="translate(28,37)" />
<path d="M0 0 C0.99 0.33 1.98 0.66 3 1 C-1.75 5 -1.75 5 -4 5 C-4.66 6.32 -5.32 7.64 -6 9 C-4.35 9 -2.7 9 -1 9 C-1 8.34 -1 7.68 -1 7 C0.32 6.67 1.64 6.34 3 6 C3 6.99 3 7.98 3 9 C2.34 9 1.68 9 1 9 C0.67 10.32 0.34 11.64 0 13 C-3.32534757 14.10844919 -5.62182575 13.84454356 -9 13 C-9 9.61579359 -8.50204985 7.57409288 -6.2578125 5.0078125 C-2.30872241 1.40589516 -2.30872241 1.40589516 0 0 Z " fill="#72633E" transform="translate(24,78)" />
<path d="M0 0 C3.27359168 0.2198781 6.54260267 0.48105711 9.8125 0.75 C10.74126953 0.811875 11.67003906 0.87375 12.62695312 0.9375 C13.51962891 1.01484375 14.41230469 1.0921875 15.33203125 1.171875 C16.15421143 1.2347168 16.9763916 1.29755859 17.82348633 1.36230469 C20.66163755 2.19385275 21.47265678 3.53724007 23 6 C15.023793 8.07381382 8.28799886 5.3522817 1 2 C0.67 1.34 0.34 0.68 0 0 Z " fill="#64A0DA" transform="translate(38,68)" />
<path d="M0 0 C0.33 0.66 0.66 1.32 1 2 C0.01 3.485 0.01 3.485 -5 11 C-3.576875 11.45375 -2.15375 11.9075 -0.6875 12.375 C2.3373411 13.33944209 4.3139714 14.20931427 7 16 C-1.75177665 16.53582306 -7.27191348 13.08039186 -14 8 C-13.34 7.67 -12.68 7.34 -12 7 C-9.375 8.4375 -9.375 8.4375 -7 10 C-6.773125 9.46375 -6.54625 8.9275 -6.3125 8.375 C-4.56617944 5.21499137 -2.3597151 2.7323017 0 0 Z " fill="#ADE4FB" transform="translate(47,48)" />
<path d="M0 0 C2.56290253 1.12426701 3.32852236 1.705585 4.40234375 4.33203125 C4.89126107 6.59818087 5.26317659 8.81959662 5.5 11.125 C4.84 10.795 4.18 10.465 3.5 10.125 C3.5 9.465 3.5 8.805 3.5 8.125 C2.88125 8.310625 2.2625 8.49625 1.625 8.6875 C-0.5 9.125 -0.5 9.125 -2.5 8.125 C-2.5 7.465 -2.5 6.805 -2.5 6.125 C-3.49 6.125 -4.48 6.125 -5.5 6.125 C-5.5 4.145 -5.5 2.165 -5.5 0.125 C-3.5 -0.875 -3.5 -0.875 0 0 Z " fill="#6EAEEA" transform="translate(32.5,72.875)" />
<path d="M0 0 C3.82350061 3.39866721 6.71296575 7.43530459 9 12 C9 12.99 9 13.98 9 15 C3.19834261 14.02541328 -1.83982722 12.98746845 -7 10 C-6.67 9.01 -6.34 8.02 -6 7 C-4 7 -4 7 -2.5 8.4375 C-2.005 8.953125 -1.51 9.46875 -1 10 C-0.34 10.33 0.32 10.66 1 11 C1.66 10.34 2.32 9.68 3 9 C3.66 9.33 4.32 9.66 5 10 C4.6390625 9.44570313 4.278125 8.89140625 3.90625 8.3203125 C3.4421875 7.59585938 2.978125 6.87140625 2.5 6.125 C2.0359375 5.40570313 1.571875 4.68640625 1.09375 3.9453125 C0 2 0 2 0 0 Z " fill="#689FD2" transform="translate(49,49)" />
<path d="M0 0 C0.66 0.33 1.32 0.66 2 1 C1.45730469 1.44730469 0.91460937 1.89460938 0.35546875 2.35546875 C-3.48879484 5.60404465 -6.76332678 8.38686148 -9 13 C-8.34 13.33 -7.68 13.66 -7 14 C-7.33 14.66 -7.66 15.32 -8 16 C-8.22467831 17.53668865 -8.40796805 19.07968054 -8.5625 20.625 C-8.64628906 21.44226563 -8.73007812 22.25953125 -8.81640625 23.1015625 C-8.87699219 23.72804688 -8.93757813 24.35453125 -9 25 C-10.48046875 23.875 -10.48046875 23.875 -12 22 C-12.36328125 19.1875 -12.36328125 19.1875 -12.3125 16 C-12.30863281 14.948125 -12.30476563 13.89625 -12.30078125 12.8125 C-12 10 -12 10 -10 7 C-9.67 7.66 -9.34 8.32 -9 9 C-8.51789062 8.43410156 -8.03578125 7.86820313 -7.5390625 7.28515625 C-7.22324219 6.91841797 -7.22324219 6.91841797 -5.625 5.0625 C-4.99851562 4.33160156 -4.37203125 3.60070313 -3.7265625 2.84765625 C-2 1 -2 1 0 0 Z " fill="#7CB6E2" transform="translate(33,44)" />
<path d="M0 0 C2.76981569 0.42612549 4.23950551 1.16940634 6.5625 2.8125 C10.53978562 5.52080156 14.88625175 7.08193247 19.375 8.75 C20.20644531 9.06582031 21.03789063 9.38164063 21.89453125 9.70703125 C23.92716738 10.47803116 25.96324323 11.2399524 28 12 C28 12.33 28 12.66 28 13 C21.67981166 13.53788837 17.60082578 11.80041289 12 9 C11.27039062 8.67644531 10.54078125 8.35289063 9.7890625 8.01953125 C5.39935143 6.02049925 2.74807721 4.12211581 0 0 Z " fill="#A4E0FC" transform="translate(26,66)" />
<path d="M0 0 C0.33 0.99 0.66 1.98 1 3 C2.98 3 4.96 3 7 3 C1.59454284 7.87026338 -6.47409309 7.99288379 -13.484375 8.00390625 C-17.81611873 7.59255849 -21.25482469 6.1534758 -25 4 C-24.34 3.67 -23.68 3.34 -23 3 C-22.34 3.309375 -21.68 3.61875 -21 3.9375 C-15.42559388 5.91176883 -9.44190164 5.8608085 -3.9375 3.625 C-1 2 -1 2 0 0 Z " fill="#214664" transform="translate(65,87)" />
<path d="M0 0 C1.32 0 2.64 0 4 0 C4.33 1.32 4.66 2.64 5 4 C3.35 4.66 1.7 5.32 0 6 C0 6.66 0 7.32 0 8 C0.66 8.33 1.32 8.66 2 9 C2 9.66 2 10.32 2 11 C-0.64 11.33 -3.28 11.66 -6 12 C-6 9.69 -6 7.38 -6 5 C-5.38125 4.731875 -4.7625 4.46375 -4.125 4.1875 C-2 3 -2 3 0 0 Z " fill="#2365B4" transform="translate(82,65)" />
<path d="M0 0 C3 2 3 2 3.546875 4.09375 C3.61390625 4.8878125 3.6809375 5.681875 3.75 6.5 C3.82734375 7.2940625 3.9046875 8.088125 3.984375 8.90625 C4 11 4 11 3 13 C-0.8713588 12.46231128 -2.97184125 11.422527 -6 9 C-6.99 8.67 -7.98 8.34 -9 8 C-9 7.01 -9 6.02 -9 5 C-8.34 5 -7.68 5 -7 5 C-7 5.66 -7 6.32 -7 7 C-5.02 7 -3.04 7 -1 7 C-1 6.67 -1 6.34 -1 6 C-0.67329097 3.99890722 -0.34022786 1.99883869 0 0 Z " fill="#659FE3" transform="translate(37,74)" />
<path d="M0 0 C0.66 0.33 1.32 0.66 2 1 C1.81953125 1.27714844 1.81953125 1.27714844 0.90625 2.6796875 C0.4421875 3.40414062 -0.021875 4.12859375 -0.5 4.875 C-0.9640625 5.59429687 -1.428125 6.31359375 -1.90625 7.0546875 C-3 9 -3 9 -3 11 C-2.2575 10.2575 -1.515 9.515 -0.75 8.75 C1.5 6.5 3.75 4.25 6 2 C5.44546753 5.32719482 4.95004305 8.21422422 3 11 C-0.23032218 12.92444725 -2.21823079 14 -6 14 C-5.54177532 10.53058454 -5.10868317 7.32604951 -4 4 C-3.34 4 -2.68 4 -2 4 C-1.34 2.68 -0.68 1.36 0 0 Z " fill="#6A501A" transform="translate(32,87)" />
<path d="M0 0 C0.33 0.99 0.66 1.98 1 3 C-2.21311475 8.73770492 -2.21311475 8.73770492 -6 10 C-6.2475 10.78375 -6.495 11.5675 -6.75 12.375 C-8.16950827 15.35596738 -8.7093556 15.58886611 -11.625 16.8125 C-12.73875 17.204375 -13.8525 17.59625 -15 18 C-15 16.02 -15 14.04 -15 12 C-14.34 12.66 -13.68 13.32 -13 14 C-10.875 13.625 -10.875 13.625 -9 13 C-9 11.35 -9 9.7 -9 8 C-7.68 8 -6.36 8 -5 8 C-5 7.34 -5 6.68 -5 6 C-4.34 6 -3.68 6 -3 6 C-2.690625 5.195625 -2.38125 4.39125 -2.0625 3.5625 C-1 1 -1 1 0 0 Z " fill="#1E4264" transform="translate(87,72)" />
<path d="M0 0 C0.66 0 1.32 0 2 0 C2.66 2.97 3.32 5.94 4 9 C4.33 7.35 4.66 5.7 5 4 C7.31 4 9.62 4 12 4 C12 4.66 12 5.32 12 6 C11.34 6 10.68 6 10 6 C10 6.66 10 7.32 10 8 C9.01 8.33 8.02 8.66 7 9 C6.3125 11.0625 6.3125 11.0625 6 13 C5.01 13 4.02 13 3 13 C0.78145293 8.37802694 -0.38281159 5.23175837 0 0 Z " fill="#1A59A4" transform="translate(72,72)" />
<path d="M0 0 C3.7602985 0.58107632 6.53035032 1.65199496 9.8125 3.5625 C10.60269531 4.01753906 11.39289063 4.47257812 12.20703125 4.94140625 C12.50287109 5.11607422 12.50287109 5.11607422 14 6 C13.67 6.495 13.67 6.495 12 9 C9.69 8.67 7.38 8.34 5 8 C5.66 7.34 6.32 6.68 7 6 C3.7 5.67 0.4 5.34 -3 5 C-3 4.34 -3 3.68 -3 3 C-1.68 3 -0.36 3 1 3 C0.67 2.01 0.34 1.02 0 0 Z " fill="#588ECD" transform="translate(62,26)" />
<path d="M0 0 C0.68964844 0.20496094 1.37929688 0.40992188 2.08984375 0.62109375 C8.0949719 2.34272857 13.77409051 3.48967955 20 4 C20.33 4.99 20.66 5.98 21 7 C16.05 6.67 11.1 6.34 6 6 C6 5.34 6 4.68 6 4 C5.195625 3.71125 4.39125 3.4225 3.5625 3.125 C1 2 1 2 0 0 Z " fill="#649ED4" transform="translate(39,61)" />
<path d="M0 0 C1.32 0 2.64 0 4 0 C5.45295405 8.19256018 5.45295405 8.19256018 3.5625 11.5625 C3.046875 12.036875 2.53125 12.51125 2 13 C-1.15331799 9.99001464 -3.10783325 7.3121393 -4 3 C0 3 0 3 1.75 4.5 C2.1625 4.995 2.575 5.49 3 6 C2.42655063 3.13275314 2.1385485 2.1385485 0 0 Z " fill="#518DD8" transform="translate(72,46)" />
<path d="M0 0 C0.33 0.66 0.66 1.32 1 2 C0.02065076 3.67888441 -0.98343919 5.34338239 -2 7 C-3.68983532 11.42545551 -4.50571154 15.68610165 -5.125 20.375 C-5.29257812 21.62023437 -5.46015625 22.86546875 -5.6328125 24.1484375 C-5.75398438 25.08945313 -5.87515625 26.03046875 -6 27 C-6.33 27 -6.66 27 -7 27 C-7.21977625 11.20052929 -7.21977625 11.20052929 -6 5 C-3.953125 3.76171875 -3.953125 3.76171875 -2 3 C-2 2.34 -2 1.68 -2 1 C-1.34 0.67 -0.68 0.34 0 0 Z " fill="#64685E" transform="translate(25,39)" />
<path d="M0 0 C0.33 0 0.66 0 1 0 C2.70899874 5.29509445 3.44995763 10.2040555 3.75 15.75 C3.80542969 16.50410156 3.86085938 17.25820313 3.91796875 18.03515625 C4.14809058 21.96117408 4.23875366 23.6418695 2 27 C2 24.36 2 21.72 2 19 C0.68 18.67 -0.64 18.34 -2 18 C-1.01 18 -0.02 18 1 18 C0.84402344 16.86820313 0.68804687 15.73640625 0.52734375 14.5703125 C0.33040524 13.08858468 0.13380835 11.60681143 -0.0625 10.125 C-0.11438477 9.75181641 -0.11438477 9.75181641 -0.37695312 7.86328125 C-1.11328125 2.2265625 -1.11328125 2.2265625 0 0 Z " fill="#1B4366" transform="translate(86,45)" />
<path d="M0 0 C0.99 0.33 1.98 0.66 3 1 C1.50728166 5.6138567 -0.73360028 8.49459542 -4 12 C-4.99 12.33 -5.98 12.66 -7 13 C-6.36664937 7.61651963 -3.79089107 3.79089107 0 0 Z " fill="#D1A645" transform="translate(35,86)" />
<path d="M0 0 C0.33 0.66 0.66 1.32 1 2 C0.195625 2.9075 -0.60875 3.815 -1.4375 4.75 C-3.41142671 7.10309908 -4.63877467 8.86938046 -5 12 C-6.32 12 -7.64 12 -9 12 C-9 12.66 -9 13.32 -9 14 C-10.6875 15.6875 -10.6875 15.6875 -13 17 C-15.75 16.6875 -15.75 16.6875 -18 16 C-15.33517676 13.72706253 -13.02094174 12.00944432 -9.8125 10.5625 C-6.46612231 8.70340129 -6.19928015 7.50558814 -5 4 C-4.01 3.67 -3.02 3.34 -2 3 C-1.34 2.01 -0.68 1.02 0 0 Z " fill="#5B655C" transform="translate(86,77)" />
<path d="M0 0 C1.32 0 2.64 0 4 0 C5.34588326 2.55657735 6.67675328 5.11923905 8 7.6875 C8.3815625 8.40873047 8.763125 9.12996094 9.15625 9.87304688 C11.1162084 13.70546553 12.55874253 16.57371149 12 21 C8.72751851 17.0269873 6.70253351 12.48491686 4.51757812 7.86914062 C2.20795949 3.10397975 2.20795949 3.10397975 0 2 C0 1.34 0 0.68 0 0 Z " fill="#92CBF7" transform="translate(55,51)" />
<path d="M0 0 C0 0.99 0 1.98 0 3 C-2.1953125 4.578125 -2.1953125 4.578125 -5.125 6.25 C-10.18240275 9.31054437 -13.45291859 12.30251381 -17 17 C-17.33 16.01 -17.66 15.02 -18 14 C-13.89722836 7.35211917 -7.35591428 2.45197143 0 0 Z " fill="#AEE7FD" transform="translate(41,37)" />
<path d="M0 0 C-2.52956528 3.0916909 -5.22454612 3.90931332 -9 5 C-9 5.66 -9 6.32 -9 7 C-9.969375 7.45375 -10.93875 7.9075 -11.9375 8.375 C-15 10 -15 10 -16 12 C-16.66 12 -17.32 12 -18 12 C-16.64891639 8.90989789 -15.20982067 7.03089847 -12.625 4.875 C-12.03976563 4.37742187 -11.45453125 3.87984375 -10.8515625 3.3671875 C-7.16740441 0.6468176 -4.5986112 -0.2554784 0 0 Z " fill="#BCF0FE" transform="translate(45,46)" />
<path d="M0 0 C0.99 0 1.98 0 3 0 C4.50156874 3.00313748 4.09281204 5.79067522 4.0625 9.125 C4.05347656 10.40632813 4.04445313 11.68765625 4.03515625 13.0078125 C4.02355469 13.99523438 4.01195313 14.98265625 4 16 C3.67 15.01 3.34 14.02 3 13 C2.34 13 1.68 13 1 13 C0.67 8.71 0.34 4.42 0 0 Z " fill="#3C7EC4" transform="translate(78,43)" />
<path d="M0 0 C4.18659858 3.82774727 7.37820862 7.94607874 10 13 C10 13.66 10 14.32 10 15 C9.01 15.33 8.02 15.66 7 16 C5.82845707 13.71070947 4.66261926 11.41881638 3.5 9.125 C3.16613281 8.47402344 2.83226562 7.82304688 2.48828125 7.15234375 C0 2.2265625 0 2.2265625 0 0 Z " fill="#6AA1D4" transform="translate(55,43)" />
<path d="M0 0 C0.556875 0.2475 1.11375 0.495 1.6875 0.75 C1.6875 2.07 1.6875 3.39 1.6875 4.75 C-0.0625 6.5 -0.0625 6.5 -2.3125 7.75 C-3.6325 7.75 -4.9525 7.75 -6.3125 7.75 C-6.6425 6.43 -6.9725 5.11 -7.3125 3.75 C-2.88173077 -0.31153846 -2.88173077 -0.31153846 0 0 Z " fill="#C9A947" transform="translate(91.3125,32.25)" />
<path d="M0 0 C1.12588014 0.95729916 2.2506715 1.91587895 3.375 2.875 C4.00148438 3.40867187 4.62796875 3.94234375 5.2734375 4.4921875 C8.13793674 6.99376376 9.37115538 8.64260525 10.5 12.25 C10.75394531 13.04792969 11.00789063 13.84585938 11.26953125 14.66796875 C11.39005859 15.05275391 11.39005859 15.05275391 12 17 C12.391875 18.175625 12.78375 19.35125 13.1875 20.5625 C13.455625 21.366875 13.72375 22.17125 14 23 C10.80151425 20.11933418 9.17160165 17.6004276 7.5625 13.625 C5.5630143 8.97402239 3.35853336 5.74236574 0 2 C0 1.34 0 0.68 0 0 Z " fill="#76AED2" transform="translate(41,28)" />
<path d="M0 0 C0.66 0.33 1.32 0.66 2 1 C2 1.66 2 2.32 2 3 C1.07058594 3.43570313 0.14117187 3.87140625 -0.81640625 4.3203125 C-7.63024902 7.58002691 -13.53612426 10.66621654 -19 16 C-15.52887748 8.68750188 -10.34379056 5.87351703 -3.328125 2.234375 C-1 1 -1 1 0 0 Z " fill="#7EB6D2" transform="translate(45,41)" />
<path d="M0 0 C4.21263763 1.52755554 5.84918775 4.26959239 8.25 7.9375 C8.95640625 8.99839844 9.6628125 10.05929688 10.390625 11.15234375 C12 14 12 14 12 17 C6.20554386 11.75219066 2.08154031 7.63231448 0 0 Z " fill="#71ABD6" transform="translate(47,26)" />
<path d="M0 0 C5.05692659 0.08085202 8.77669158 1.26880737 13.375 3.3125 C13.375 3.9725 13.375 4.6325 13.375 5.3125 C14.365 5.3125 15.355 5.3125 16.375 5.3125 C16.375 5.9725 16.375 6.6325 16.375 7.3125 C11.7913799 6.6758861 11.7913799 6.6758861 9.65625 4.8125 C6.4924634 2.73220196 3.87746787 2.79872536 0.125 2.625 C-0.50664063 2.59212891 -0.50664063 2.59212891 -3.703125 2.42578125 C-4.66734375 2.38839844 -5.6315625 2.35101562 -6.625 2.3125 C-4.16503225 -0.14746775 -3.38881446 0.01573753 0 0 Z " fill="#304D60" transform="translate(58.625,23.6875)" />
<path d="M0 0 C4.13702583 3.52413312 6.86947606 8.04041969 9 13 C9 14.32 9 15.64 9 17 C8.34 17 7.68 17 7 17 C6.67386719 16.33613281 6.34773438 15.67226563 6.01171875 14.98828125 C2.28050491 7.44880785 2.28050491 7.44880785 0.125 4 C-0.24625 3.34 -0.6175 2.68 -1 2 C-0.67 1.34 -0.34 0.68 0 0 Z " fill="#A6DFFB" transform="translate(58,42)" />
<path d="M0 0 C0.66 0 1.32 0 2 0 C2.33 2.31 2.66 4.62 3 7 C3.99 7.33 4.98 7.66 6 8 C5.67 10.31 5.34 12.62 5 15 C3.68 15 2.36 15 1 15 C0.15318867 9.91913204 -0.09038099 5.15171623 0 0 Z " fill="#1556A1" transform="translate(67,75)" />
<path d="M0 0 C-0.33 1.65 -0.66 3.3 -1 5 C-2.32 5.33 -3.64 5.66 -5 6 C-5 6.66 -5 7.32 -5 8 C-6.98 8.33 -8.96 8.66 -11 9 C-8.81638059 4.63276119 -5.32701042 0 0 0 Z " fill="#BD9C45" transform="translate(28,79)" />
<path d="M0 0 C2 2 2 2 2.1953125 4.1640625 C2.17210938 4.97617187 2.14890625 5.78828125 2.125 6.625 C2.10695313 7.44226562 2.08890625 8.25953125 2.0703125 9.1015625 C2.05871094 9.41480469 2.05871094 9.41480469 2 11 C2.99 10.67 3.98 10.34 5 10 C5 10.66 5 11.32 5 12 C3.02 12 1.04 12 -1 12 C-4.125 5.375 -4.125 5.375 -3 2 C-2.67 2.495 -2.67 2.495 -1 5 C-0.67 3.35 -0.34 1.7 0 0 Z " fill="#3C7AC2" transform="translate(75,53)" />
<path d="M0 0 C0.66 0.33 1.32 0.66 2 1 C1.01 1.33 0.02 1.66 -1 2 C-1 2.66 -1 3.32 -1 4 C-3.96187272 6.17204 -6.50685991 7.83561997 -10 9 C-11.125 10.9375 -11.125 10.9375 -12 13 C-12.33 13.66 -12.66 14.32 -13 15 C-13.66 15 -14.32 15 -15 15 C-13.64848129 10.83645043 -11.93130608 8.65196884 -8.625 5.8125 C-7.85414062 5.13832031 -7.08328125 4.46414062 -6.2890625 3.76953125 C-4.22347419 2.17275394 -2.43686864 0.92808401 0 0 Z " fill="#ACE7FB" transform="translate(39,42)" />
<path d="M0 0 C1.48831242 0.00667405 2.97660807 0.01863442 4.46484375 0.03515625 C5.22345703 0.03966797 5.98207031 0.04417969 6.76367188 0.04882812 C8.64326246 0.06064945 10.52281274 0.07858547 12.40234375 0.09765625 C12.73234375 0.75765625 13.06234375 1.41765625 13.40234375 2.09765625 C7.79234375 2.75765625 2.18234375 3.41765625 -3.59765625 4.09765625 C-3.92765625 3.10765625 -4.25765625 2.11765625 -4.59765625 1.09765625 C-3.59765625 0.09765625 -3.59765625 0.09765625 0 0 Z " fill="#7BB6F3" transform="translate(65.59765625,37.90234375)" />
<path d="M0 0 C0.33 0 0.66 0 1 0 C1 2.64 1 5.28 1 8 C1.66 8 2.32 8 3 8 C3 9.98 3 11.96 3 14 C2.34 14.33 2.34 14.33 -1 16 C-1.33 14.02 -1.66 12.04 -2 10 C-1.34 10 -0.68 10 0 10 C0 6.7 0 3.4 0 0 Z " fill="#5597E1" transform="translate(78,48)" />
<path d="M0 0 C0.66 0 1.32 0 2 0 C3.32421875 1.6796875 3.32421875 1.6796875 4.6875 3.875 C5.14511719 4.59429687 5.60273437 5.31359375 6.07421875 6.0546875 C6.37972656 6.69664063 6.68523438 7.33859375 7 8 C6.67 8.66 6.34 9.32 6 10 C5.34 9.34 4.68 8.68 4 8 C3.34 8.66 2.68 9.32 2 10 C1.34 9.67 0.68 9.34 0 9 C0 6.03 0 3.06 0 0 Z " fill="#A7DEFA" transform="translate(48,51)" />
<path d="M0 0 C1.32 0 2.64 0 4 0 C3.8125 2.3125 3.8125 2.3125 3 5 C0.4375 6.8125 0.4375 6.8125 -2 8 C-2.66 7.34 -3.32 6.68 -4 6 C-2.25 3 -2.25 3 0 0 Z " fill="#72624C" transform="translate(86,26)" />
<path d="M0 0 C0.66 0 1.32 0 2 0 C2.6875 2.8125 2.6875 2.8125 3 6 C1.8125 7.625 1.8125 7.625 0 9 C-3.88571429 12.77142857 -3.88571429 12.77142857 -5 15 C-5.66 15 -6.32 15 -7 15 C-5.87548273 12.0280615 -4.77706209 9.66559313 -3 7 C-2.67 6.34 -2.34 5.68 -2 5 C-1.01 5.33 -0.02 5.66 1 6 C0.67 4.02 0.34 2.04 0 0 Z " fill="#634D0F" transform="translate(88,17)" />
<path d="M0 0 C4.29 0.99 8.58 1.98 13 3 C12.67 3.66 12.34 4.32 12 5 C9.03 5 6.06 5 3 5 C2.67 4.34 2.34 3.68 2 3 C1.67 3.66 1.34 4.32 1 5 C0.34 5 -0.32 5 -1 5 C-0.67 3.35 -0.34 1.7 0 0 Z " fill="#4884CA" transform="translate(42,77)" />
<path d="M0 0 C-0.99 0.33 -1.98 0.66 -3 1 C-3 2.32 -3 3.64 -3 5 C-3.66 5 -4.32 5 -5 5 C-5.28875 5.5775 -5.5775 6.155 -5.875 6.75 C-6.91666667 8.83333333 -7.95833333 10.91666667 -9 13 C-9.66 13 -10.32 13 -11 13 C-10.731875 12.34 -10.46375 11.68 -10.1875 11 C-9.52154633 9.31759072 -8.86955971 7.62890785 -8.26953125 5.921875 C-8.01558594 5.20515625 -7.76164062 4.4884375 -7.5 3.75 C-7.2628125 3.06421875 -7.025625 2.3784375 -6.78125 1.671875 C-5.1915186 -1.73015021 -3.09671212 -0.92901364 0 0 Z " fill="#614B12" transform="translate(86,16)" />
<path d="M0 0 C0 0.99 0 1.98 0 3 C-0.556875 3.061875 -1.11375 3.12375 -1.6875 3.1875 C-4 4 -4 4 -6.4375 6.625 C-7.283125 7.40875 -8.12875 8.1925 -9 9 C-11.8125 8.8125 -11.8125 8.8125 -14 8 C-10.25 5 -10.25 5 -8 5 C-7.67 3.68 -7.34 2.36 -7 1 C-5.845 0.835 -5.845 0.835 0 0 Z " fill="#3678C6" transform="translate(64,80)" />
<path d="M0 0 C2.52631142 3.12781414 4.42373366 6.29577411 6 10 C5.67 10.99 5.34 11.98 5 13 C4.34 12.34 3.68 11.68 3 11 C0.8359375 10.5859375 0.8359375 10.5859375 -1.625 10.375 C-2.44226562 10.30023438 -3.25953125 10.22546875 -4.1015625 10.1484375 C-4.72804687 10.09945312 -5.35453125 10.05046875 -6 10 C-2.28125 7.953125 -2.28125 7.953125 0.25 8.375 C0.8275 8.58125 1.405 8.7875 2 9 C1.67 8.2575 1.34 7.515 1 6.75 C0 4 0 4 0 0 Z " fill="#8EC8FA" transform="translate(56,55)" />
<path d="M0 0 C0.66 0 1.32 0 2 0 C1.4375 2.3125 1.4375 2.3125 0 5 C-5.58440655 8.37391229 -10.59453696 8.3479829 -17 8 C-17 7.67 -17 7.34 -17 7 C-16.43152344 6.97421875 -15.86304688 6.9484375 -15.27734375 6.921875 C-9.48122884 6.49611698 -5.80073158 5.30050296 -1 2 C-0.67 1.34 -0.34 0.68 0 0 Z " fill="#2862A6" transform="translate(64,85)" />
<path d="M0 0 C4.875 0.875 4.875 0.875 6 2 C6.04063832 3.66617115 6.042721 5.33388095 6 7 C4.35 6.67 2.7 6.34 1 6 C0.67 4.02 0.34 2.04 0 0 Z " fill="#D1AF53" transform="translate(93,27)" />
<path d="M0 0 C2.4375 0.1875 2.4375 0.1875 5 1 C6.3125 3.0625 6.3125 3.0625 7 5 C5.35 5.66 3.7 6.32 2 7 C0 4 0 4 -1 1 C-0.67 0.67 -0.34 0.34 0 0 Z " fill="#52584A" transform="translate(28,82)" />
<path d="M0 0 C0.33 0.99 0.66 1.98 1 3 C1.66 3 2.32 3 3 3 C3.33 2.34 3.66 1.68 4 1 C4 1.66 4 2.32 4 3 C6.64 2.67 9.28 2.34 12 2 C11.67 2.66 11.34 3.32 11 4 C8.11788698 4.96070434 6.30149956 5.10581883 3.3125 5.0625 C2.90837891 5.05798828 2.90837891 5.05798828 0.86328125 5.03515625 C0.55583984 5.02935547 0.55583984 5.02935547 -1 5 C-1.33 4.34 -1.66 3.68 -2 3 C-1.34 2.01 -0.68 1.02 0 0 Z " fill="#6EACF5" transform="translate(44,79)" />
<path d="M0 0 C1.875 0.25 1.875 0.25 4 1 C6.02755186 3.93995019 6 5.27704003 6 9 C4.35 9 2.7 9 1 9 C2.32 8.67 3.64 8.34 5 8 C5 7.34 5 6.68 5 6 C2.69 5.67 0.38 5.34 -2 5 C-0.68 4.34 0.64 3.68 2 3 C1.34 2.01 0.68 1.02 0 0 Z " fill="#3B79C4" transform="translate(58,70)" />
<path d="M0 0 C0.99 0 1.98 0 3 0 C3.33 0.99 3.66 1.98 4 3 C2.56640625 5.04296875 2.56640625 5.04296875 0.5625 7.1875 C-0.09621094 7.90292969 -0.75492188 8.61835937 -1.43359375 9.35546875 C-1.95050781 9.89816406 -2.46742187 10.44085938 -3 11 C-3.5859375 9.12890625 -3.5859375 9.12890625 -4 7 C-2.625 4.9375 -2.625 4.9375 -1 3 C-0.67 2.01 -0.34 1.02 0 0 Z " fill="#80AED4" transform="translate(27,40)" />
<path d="M0 0 C-1.40759521 2.81519043 -3.22583277 3.61291638 -6 5 C-6.99 4.67 -7.98 4.34 -9 4 C-9.99 4 -10.98 4 -12 4 C-8.41084094 -0.78554541 -5.58334594 -0.37222306 0 0 Z " fill="#99CDEB" transform="translate(47,40)" />
<path d="M0 0 C3.55778921 3.55778921 3.95168196 8.64709495 4.125 13.5 C4.08375 14.325 4.0425 15.15 4 16 C1.45718331 13.45718331 1.16836595 11.47356329 0.3125 8 C0.04050781 6.9275 -0.23148437 5.855 -0.51171875 4.75 C-1 2 -1 2 0 0 Z " fill="#64A2EA" transform="translate(71,58)" />
<path d="M0 0 C0.66 0 1.32 0 2 0 C2.165 0.598125 2.33 1.19625 2.5 1.8125 C4.81276204 5.18527798 8.19891337 5.8331548 12 7 C9.44855176 7.93045933 8.25993522 8.08564091 5.640625 7.22265625 C4.85171875 6.83980469 4.0628125 6.45695312 3.25 6.0625 C2.45078125 5.68222656 1.6515625 5.30195312 0.828125 4.91015625 C0.22484375 4.60980469 -0.3784375 4.30945312 -1 4 C-0.67 2.68 -0.34 1.36 0 0 Z " fill="#6DA6CD" transform="translate(28,58)" />
<path d="M0 0 C2 0 2 0 3.5 1.4375 C3.995 1.953125 4.49 2.46875 5 3 C5.66 3.33 6.32 3.66 7 4 C7.66 3.34 8.32 2.68 9 2 C9.33 3.65 9.66 5.3 10 7 C8.5410574 6.52269162 7.08286504 6.04308958 5.625 5.5625 C4.81289063 5.29566406 4.00078125 5.02882813 3.1640625 4.75390625 C1 4 1 4 -1 3 C-0.67 2.01 -0.34 1.02 0 0 Z " fill="#75AAD7" transform="translate(43,56)" />
<path d="M0 0 C0.66 0.66 1.32 1.32 2 2 C0.75 4 0.75 4 -1 6 C-2.32 6 -3.64 6 -5 6 C-5 5.01 -5 4.02 -5 3 C-5.66 2.67 -6.32 2.34 -7 2 C-4.92446352 1.4465236 -3.15634036 1 -1 1 C-0.67 0.67 -0.34 0.34 0 0 Z " fill="#98CCEE" transform="translate(43,49)" />
<path d="M0 0 C3.35212973 3.08748791 5.85053527 5.51708756 7 10 C6.5390625 12.15234375 6.5390625 12.15234375 6 14 C4.9923048 12.2335343 3.99408286 10.46166177 3 8.6875 C2.443125 7.70136719 1.88625 6.71523438 1.3125 5.69921875 C0 3 0 3 0 0 Z " fill="#8FCCFB" transform="translate(64,46)" />
<path d="M0 0 C2.49361571 1.20381448 4.68143083 2.45428722 7 4 C7.6875 6.625 7.6875 6.625 8 9 C6.68 8.67 5.36 8.34 4 8 C4.33 7.34 4.66 6.68 5 6 C4.34 6 3.68 6 3 6 C3 5.01 3 4.02 3 3 C2.01 3 1.02 3 0 3 C0 2.01 0 1.02 0 0 Z " fill="#73AED8" transform="translate(37,31)" />
<path d="M0 0 C0.66 0 1.32 0 2 0 C2 0.66 2 1.32 2 2 C3.98 2 5.96 2 8 2 C8.99 3.98 9.98 5.96 11 8 C7.2089881 6.55049545 3.6125362 4.84827434 0 3 C0 2.01 0 1.02 0 0 Z " fill="#6889B1" transform="translate(28,79)" />
<path d="M0 0 C0.99 0.33 1.98 0.66 3 1 C-1.75 5 -1.75 5 -4 5 C-4.66 6.32 -5.32 7.64 -6 9 C-6.66 9 -7.32 9 -8 9 C-6.40758592 4.70048197 -3.64459275 2.60328053 0 0 Z " fill="#634E12" transform="translate(24,78)" />
<path d="M0 0 C0.66 0 1.32 0 2 0 C2.33 1.32 2.66 2.64 3 4 C1.03533587 5.06775224 -0.96855359 6.06553465 -3 7 C-3.66 6.67 -4.32 6.34 -5 6 C-4.34 4.68 -3.68 3.36 -3 2 C-2.01 2 -1.02 2 0 2 C0 1.34 0 0.68 0 0 Z " fill="#8AC5ED" transform="translate(38,34)" />
<path d="M0 0 C0 0.99 0 1.98 0 3 C-3.85756507 5.15305957 -6.55129785 6.39253254 -11 6 C-8.38058783 4.25372522 -6.96175123 3.61277612 -4 3 C-4 2.34 -4 1.68 -4 1 C-2 0 -2 0 0 0 Z " fill="#6B4F16" transform="translate(27,84)" />
<path d="M0 0 C0.99 0.66 1.98 1.32 3 2 C1.71086513 2.67154933 0.41859796 3.33708859 -0.875 4 C-1.59429687 4.37125 -2.31359375 4.7425 -3.0546875 5.125 C-5 6 -5 6 -7 6 C-7 6.66 -7 7.32 -7 8 C-7.66 8 -8.32 8 -9 8 C-9 7.01 -9 6.02 -9 5 C-6.03 3.35 -3.06 1.7 0 0 Z " fill="#63490E" transform="translate(95,35)" />
<path d="M0 0 C1.65 0 3.3 0 5 0 C5 0.33 5 0.66 5 1 C7.31 1.33 9.62 1.66 12 2 C12 2.33 12 2.66 12 3 C8.7 3.33 5.4 3.66 2 4 C2 3.34 2 2.68 2 2 C1.34 2 0.68 2 0 2 C0 1.34 0 0.68 0 0 Z " fill="#87BFF8" transform="translate(59,33)" />
<path d="M0 0 C0.33 2.97 0.66 5.94 1 9 C0.67 9.165 0.67 9.165 -1 10 C-1.33 7.03 -1.66 4.06 -2 1 C-2.99 1.33 -3.98 1.66 -5 2 C-7.1875 1.0625 -7.1875 1.0625 -9 0 C-5.52176885 -1.15941038 -3.54104422 -0.70820884 0 0 Z " fill="#756439" transform="translate(92,16)" />
<path d="M0 0 C0.99 0.33 1.98 0.66 3 1 C3 1.66 3 2.32 3 3 C2.030625 3.45375 1.06125 3.9075 0.0625 4.375 C-3 6 -3 6 -4 8 C-4.66 8 -5.32 8 -6 8 C-4.55746343 4.63408134 -2.66735273 2.48952921 0 0 Z " fill="#B1E9FD" transform="translate(33,50)" />
<path d="M0 0 C3.34373475 0.55728913 6.03312999 1.35173889 9 3 C9 3.99 9 4.98 9 6 C7.68 6 6.36 6 5 6 C4.67 4.68 4.34 3.36 4 2 C2.68 2 1.36 2 0 2 C0 1.34 0 0.68 0 0 Z " fill="#19589D" transform="translate(77,41)" />
<path d="M0 0 C0.33 0.99 0.66 1.98 1 3 C-1.97 5.31 -4.94 7.62 -8 10 C-8 7 -8 7 -6.25 5.17578125 C-5.5075 4.56089844 -4.765 3.94601563 -4 3.3125 C-3.2575 2.68988281 -2.515 2.06726563 -1.75 1.42578125 C-1.1725 0.95527344 -0.595 0.48476563 0 0 Z " fill="#5F4912" transform="translate(91,28)" />
<path d="M0 0 C1.9375 0.6875 1.9375 0.6875 4 2 C4.75 4.625 4.75 4.625 5 7 C3.68 6.34 2.36 5.68 1 5 C1 4.34 1 3.68 1 3 C0.01 2.67 -0.98 2.34 -2 2 C-1.34 1.34 -0.68 0.68 0 0 Z " fill="#98D5F2" transform="translate(45,26)" />
<path d="M0 0 C0.79921875 0.29648438 1.5984375 0.59296875 2.421875 0.8984375 C3.02515625 1.13820313 3.6284375 1.37796875 4.25 1.625 C4.25 1.955 4.25 2.285 4.25 2.625 C-0.57360189 2.81794408 -4.24646738 2.38247614 -8.75 0.625 C-5.33677284 -1.55132374 -3.73452846 -1.42790794 0 0 Z " fill="#87C2F9" transform="translate(49.75,76.375)" />
<path d="M0 0 C3.63 0 7.26 0 11 0 C11.33 0.66 11.66 1.32 12 2 C7.31034294 3.11658501 4.46236469 2.80619523 0 1 C0 0.67 0 0.34 0 0 Z " fill="#74B2F8" transform="translate(58,31)" />
<path d="M0 0 C0.4125 0.433125 0.825 0.86625 1.25 1.3125 C3.06054505 3.05838272 4.96474232 4.52619271 7 6 C5.35 6.66 3.7 7.32 2 8 C0.23537317 4.91190305 0 3.76687864 0 0 Z " fill="#545D4C" transform="translate(38,87)" />
<path d="M0 0 C0.886875 0.165 1.77375 0.33 2.6875 0.5 C5.53596892 0.92995757 8.13004802 1.08441035 11 1 C9.3125 2.5625 9.3125 2.5625 7 4 C4.375 3.875 4.375 3.875 2 3 C1.34 2.01 0.68 1.02 0 0 Z " fill="#5E9FEB" transform="translate(41,85)" />
<path d="M0 0 C0.33 0 0.66 0 1 0 C1 2.64 1 5.28 1 8 C0.01 7.67 -0.98 7.34 -2 7 C-2.33 6.01 -2.66 5.02 -3 4 C-1.625 1.8125 -1.625 1.8125 0 0 Z " fill="#7FB4DF" transform="translate(47,51)" />
<path d="M0 0 C2.83374881 3.20336822 3.5205537 5.78087253 4 10 C3.34 10 2.68 10 2 10 C1.46987262 8.71211992 0.9511671 7.41953322 0.4375 6.125 C0.14746094 5.40570313 -0.14257812 4.68640625 -0.44140625 3.9453125 C-1 2 -1 2 0 0 Z " fill="#93CEFB" transform="translate(63,49)" />
<path d="M0 0 C0.33 0.66 0.66 1.32 1 2 C-0.98 4.64 -2.96 7.28 -5 10 C-5.33 9.01 -5.66 8.02 -6 7 C-4.78515625 5.17578125 -4.78515625 5.17578125 -3.0625 3.3125 C-2.49660156 2.68988281 -1.93070313 2.06726562 -1.34765625 1.42578125 C-0.90292969 0.95527344 -0.45820312 0.48476563 0 0 Z " fill="#B8EDFE" transform="translate(47,48)" />
<path d="M0 0 C0.66 0.33 1.32 0.66 2 1 C1.38125 1.2475 0.7625 1.495 0.125 1.75 C-2.35068687 3.20628639 -2.95125002 4.37812506 -4 7 C-4.66 6.67 -5.32 6.34 -6 6 C-6.625 3.9375 -6.625 3.9375 -7 2 C-6.030625 1.855625 -5.06125 1.71125 -4.0625 1.5625 C-1 1 -1 1 0 0 Z " fill="#43585D" transform="translate(34,31)" />
<path d="M0 0 C2 3 2 3 2 5 C3.65 5.33 5.3 5.66 7 6 C3.25 8 3.25 8 1 8 C1 7.01 1 6.02 1 5 C0.34 5 -0.32 5 -1 5 C-0.67 3.35 -0.34 1.7 0 0 Z " fill="#9C7917" transform="translate(92,28)" />
<path d="M0 0 C4.875 4.625 4.875 4.625 6 8 C4.68 7.67 3.36 7.34 2 7 C2 6.34 2 5.68 2 5 C1.34 4.67 0.68 4.34 0 4 C0 2.68 0 1.36 0 0 Z " fill="#666A64" transform="translate(19,67)" />
<path d="M0 0 C0.66 0.66 1.32 1.32 2 2 C1.8453125 2.2578125 1.8453125 2.2578125 1.0625 3.5625 C-0.29059287 6.66665423 -0.61359424 9.65115007 -1 13 C-1.33 13 -1.66 13 -2 13 C-2.05416188 11.39620659 -2.09286638 9.79188594 -2.125 8.1875 C-2.14820312 7.29417969 -2.17140625 6.40085937 -2.1953125 5.48046875 C-2 3 -2 3 0 0 Z " fill="#A0D9FD" transform="translate(26,57)" />
<path d="M0 0 C2.31 0 4.62 0 7 0 C7 0.66 7 1.32 7 2 C4.69 2.33 2.38 2.66 0 3 C0 2.01 0 1.02 0 0 Z " fill="#0B4B97" transform="translate(77,76)" />
<path d="M0 0 C0.66 0 1.32 0 2 0 C2 0.66 2 1.32 2 2 C2.66 2 3.32 2 4 2 C4 2.66 4 3.32 4 4 C4.99 3.67 5.98 3.34 7 3 C7 3.66 7 4.32 7 5 C5.02 5 3.04 5 1 5 C0.67 3.35 0.34 1.7 0 0 Z " fill="#3575BD" transform="translate(73,60)" />
<path d="M0 0 C0.66 0 1.32 0 2 0 C2 0.99 2 1.98 2 3 C2.99 3.33 3.98 3.66 5 4 C4.67 4.66 4.34 5.32 4 6 C3.175 5.67 3.175 5.67 -1 4 C-0.67 2.68 -0.34 1.36 0 0 Z " fill="#72A6D4" transform="translate(36,52)" />
<path d="M0 0 C0.99 0.33 1.98 0.66 3 1 C2.34 2.65 1.68 4.3 1 6 C0.67 5.34 0.34 4.68 0 4 C-0.99 3.67 -1.98 3.34 -3 3 C-2.01 2.01 -1.02 1.02 0 0 Z " fill="#C8A94F" transform="translate(35,86)" />
<path d="M0 0 C0.66 0.66 1.32 1.32 2 2 C4.125 1.625 4.125 1.625 6 1 C5.25 2.9375 5.25 2.9375 4 5 C1.875 5.75 1.875 5.75 0 6 C0 4.02 0 2.04 0 0 Z " fill="#154376" transform="translate(72,84)" />
<path d="M0 0 C0.66 0 1.32 0 2 0 C1.67 1.65 1.34 3.3 1 5 C-0.32 5.33 -1.64 5.66 -3 6 C-1.125 1.125 -1.125 1.125 0 0 Z " fill="#C6A94D" transform="translate(26,79)" />
<path d="M0 0 C0.66 0 1.32 0 2 0 C2.33 2.64 2.66 5.28 3 8 C2.34 8 1.68 8 1 8 C-0.35439668 5.29120665 -0.06501451 2.99066732 0 0 Z " fill="#1F62A7" transform="translate(72,72)" />
<path d="M0 0 C2.125 0.9375 2.125 0.9375 4 2 C4 3.98 4 5.96 4 8 C3.7525 7.360625 3.505 6.72125 3.25 6.0625 C2 4 2 4 -0.125 3.25 C-0.434375 3.20875 -0.434375 3.20875 -2 3 C-2 2.34 -2 1.68 -2 1 C-1.34 0.67 -0.68 0.34 0 0 Z " fill="#77B2F1" transform="translate(29,72)" />
<path d="M0 0 C4.75 1.875 4.75 1.875 7 3 C7 3.66 7 4.32 7 5 C6.21625 4.814375 5.4325 4.62875 4.625 4.4375 C2 4 2 4 0 5 C0 3.35 0 1.7 0 0 Z " fill="#69A3D1" transform="translate(25,63)" />
<path d="M0 0 C0.66 0.33 1.32 0.66 2 1 C2.59355614 3.64860427 2.74209269 6.29197322 3 9 C0.86928411 6.40608501 -0.53582673 4.36525621 -1 1 C-0.67 0.67 -0.34 0.34 0 0 Z " fill="#74B1F4" transform="translate(64,63)" />
<path d="M0 0 C0.825 0.165 0.825 0.165 5 1 C4.34 2.32 3.68 3.64 3 5 C2.01 4.67 1.02 4.34 0 4 C0 2.68 0 1.36 0 0 Z " fill="#6FA3DF" transform="translate(27,75)" />
<path d="M0 0 C6.15234375 0.5859375 6.15234375 0.5859375 8 1 C8.33 1.66 8.66 2.32 9 3 C2.84765625 2.4140625 2.84765625 2.4140625 1 2 C0.67 1.34 0.34 0.68 0 0 Z " fill="#7BB8F8" transform="translate(52,71)" />
<path d="M0 0 C0.99 0 1.98 0 3 0 C3.33 2.31 3.66 4.62 4 7 C2.35 5.35 0.7 3.7 -1 2 C-0.67 1.34 -0.34 0.68 0 0 Z " fill="#70ACF3" transform="translate(60,67)" />
<path d="M0 0 C0.99 0.33 1.98 0.66 3 1 C3.33 3.31 3.66 5.62 4 8 C0 3.375 0 3.375 0 0 Z " fill="#4F8BC8" transform="translate(63,58)" />
<path d="M0 0 C0.66 0.33 1.32 0.66 2 1 C1.67 2.65 1.34 4.3 1 6 C-0.32 6.33 -1.64 6.66 -3 7 C-3 6.01 -3 5.02 -3 4 C-2.01 4 -1.02 4 0 4 C0 2.68 0 1.36 0 0 Z " fill="#6B5821" transform="translate(99,31)" />
<path d="M0 0 C0.66 0.33 1.32 0.66 2 1 C1.67 2.65 1.34 4.3 1 6 C-0.32 6.33 -1.64 6.66 -3 7 C-1.125 1.125 -1.125 1.125 0 0 Z " fill="#E5B84F" transform="translate(81,24)" />
<path d="M0 0 C1.32 0.33 2.64 0.66 4 1 C4 4 4 4 2.5 5.6875 C2.005 6.120625 1.51 6.55375 1 7 C0.67 4.69 0.34 2.38 0 0 Z " fill="#C79E44" transform="translate(81,22)" />
</svg>