<?xml version='1.0' encoding='utf-8'?>
<svg xmlns="http://www.w3.org/2000/svg" version="1.1" width="103" height="99">
<path d="M0 0 C2.9684468 2.00535072 5.41980695 4.52660302 8 7 C10.09963514 8.86346122 12.23336135 10.68507305 14.375 12.5 C14.93058594 12.97211914 15.48617187 13.44423828 16.05859375 13.93066406 C20.82607326 17.93968092 25.80575552 21.56056784 31 25 C31.99 25.66 32.98 26.32 34 27 C34.11611744 29.90293611 34.16705096 31.40185941 33 34 C30.63314261 35.68744054 28.15157555 36.96053434 25.5859375 38.32421875 C20.66247774 41.51479917 17.82822553 46.51532342 16 52 C14.35 52 12.7 52 11 52 C10.835 51.34 10.835 51.34 10 48 C8.68 47.67 7.36 47.34 6 47 C8.06923354 50.29544601 9.92029402 52.92029402 12.6875 55.6875 C15 58 15 58 16 61 C12.1389146 62.43668294 9.103573 63.11185208 5 63 C4.01888025 60.8967433 3.04016866 58.79236311 2.0625 56.6875 C1.51722656 55.51574219 0.97195312 54.34398437 0.41015625 53.13671875 C-1 50 -1 50 -2 47 C-4.625 45.9296875 -4.625 45.9296875 -8 44.875 C-14.84154736 42.40087924 -19.70756189 38.92289909 -24 33 C-24 32.01 -24 31.02 -24 30 C-22.71086513 29.32845067 -21.41859796 28.66291141 -20.125 28 C-19.40570312 27.62875 -18.68640625 27.2575 -17.9453125 26.875 C-16 26 -16 26 -14 26 C-14 25.34 -14 24.68 -14 24 C-14.763125 23.731875 -15.52625 23.46375 -16.3125 23.1875 C-20.45598194 21.35665914 -20.45598194 21.35665914 -22 19 C-22.70827611 15.38779184 -22.66926514 13.08704883 -20.7109375 9.90625 C-15.45740784 3.47727307 -8.66722077 -1.70248979 0 0 Z " fill="#EBEBEB" transform="translate(41,18)" />
<path d="M0 0 C4.37436651 0.50864727 7.40096719 1.42926228 11 4 C11.33 4.66 11.66 5.32 12 6 C12.639375 6.12375 13.27875 6.2475 13.9375 6.375 C14.2778125 6.478125 14.2778125 6.478125 16 7 C16.66666667 8.33333333 17.33333333 9.66666667 18 11 C18.598125 11.12375 19.19625 11.2475 19.8125 11.375 C23.32938858 12.37982531 25.09978723 15.03846438 27 18 C28.19781265 20.61251319 29.13576091 23.26129641 30 26 C30.165 26.495 30.165 26.495 31 29 C31.66 29 32.32 29 33 29 C33.66 29.99 34.32 30.98 35 32 C35.99 32 36.98 32 38 32 C38 32.66 38 33.32 38 34 C36.35 34 34.7 34 33 34 C32.835 33.34 32.835 33.34 32 30 C30.68 29.67 29.36 29.34 28 29 C30.06923354 32.29544601 31.92029402 34.92029402 34.6875 37.6875 C37 40 37 40 38 43 C34.1389146 44.43668294 31.103573 45.11185208 27 45 C26.01888025 42.8967433 25.04016866 40.79236311 24.0625 38.6875 C23.51722656 37.51574219 22.97195312 36.34398437 22.41015625 35.13671875 C21 32 21 32 20 29 C17.375 27.9296875 17.375 27.9296875 14 26.875 C7.15845264 24.40087924 2.29243811 20.92289909 -2 15 C-2 14.01 -2 13.02 -2 12 C-0.71086513 11.32845067 0.58140204 10.66291141 1.875 10 C2.59429688 9.62875 3.31359375 9.2575 4.0546875 8.875 C6 8 6 8 8 8 C8 7.34 8 6.68 8 6 C7.236875 5.7525 6.47375 5.505 5.6875 5.25 C2.7635955 3.89004442 1.69995644 2.68414174 0 0 Z " fill="#ACADAC" transform="translate(19,36)" />
<path d="M0 0 C2.97284749 1.99727891 5.42057378 4.52733811 8 7 C10.09963514 8.86346122 12.23336135 10.68507305 14.375 12.5 C14.93058594 12.97211914 15.48617187 13.44423828 16.05859375 13.93066406 C20.82607326 17.93968092 25.80575552 21.56056784 31 25 C31.99 25.66 32.98 26.32 34 27 C33.67 29.31 33.34 31.62 33 34 C31 34 29 34 27 34 C26.835 33.34 26.835 33.34 26 30 C23.36 30 20.72 30 18 30 C17.835 29.34 17.835 29.34 17 26 C16.34 26 15.68 26 15 26 C15 24.02 15 22.04 15 20 C10.25 18 10.25 18 8 18 C8 17.34 8 16.68 8 16 C7.01 16.66 6.02 17.32 5 18 C4.01 18 3.02 18 2 18 C2 17.01 2 16.02 2 15 C1.34 15 0.68 15 0 15 C0 13.02 0 11.04 0 9 C-0.49951172 8.97550781 -0.49951172 8.97550781 -3.02734375 8.8515625 C-3.67251953 8.81417969 -3.67251953 8.81417969 -6.9375 8.625 C-8.22527344 8.55539063 -9.51304688 8.48578125 -10.83984375 8.4140625 C-11.36126953 8.34574219 -11.36126953 8.34574219 -14 8 C-14.33 7.34 -14.66 6.68 -15 6 C-14 3 -14 3 -10.875 1.3125 C-7.03429813 -0.13460763 -4.12428024 -0.72355794 0 0 Z " fill="#9A9B97" transform="translate(41,18)" />
<path d="M0 0 C3.89835017 1.29945006 6.60392154 2.59019603 9 6 C8.875 9.5 8.875 9.5 8 13 C7.814375 13.78375 7.62875 14.5675 7.4375 15.375 C5.60359887 17.44810562 4.70174489 17.30356242 2 17.5625 C1.29875 17.58441406 0.5975 17.60632813 -0.125 17.62890625 C-0.74375 17.75136719 -1.3625 17.87382813 -2 18 C-3.99097846 20.98646769 -4.94124926 23.59687262 -6 27 C-6.99 27 -7.98 27 -9 27 C-9.33 27.99 -9.66 28.98 -10 30 C-11.84765625 30.94921875 -11.84765625 30.94921875 -14.0625 31.6875 C-14.79597656 31.93886719 -15.52945313 32.19023438 -16.28515625 32.44921875 C-16.85105469 32.63097656 -17.41695312 32.81273437 -18 33 C-19.105981 31.75160501 -20.20970201 30.50120766 -21.3125 29.25 C-21.92738281 28.55390625 -22.54226562 27.8578125 -23.17578125 27.140625 C-28 21.47965739 -28 21.47965739 -28 19 C-26.68 19.33 -25.36 19.66 -24 20 C-23.67 21.32 -23.34 22.64 -23 24 C-21.35 24 -19.7 24 -18 24 C-17.95875 23.34 -17.9175 22.68 -17.875 22 C-15.89296368 15.20444689 -11.06911661 10.37173145 -5 7 C-4.01 6.67 -3.02 6.34 -2 6 C-0.8125 2.9375 -0.8125 2.9375 0 0 Z " fill="#707778" transform="translate(75,46)" />
<path d="M0 0 C4.36084875 0.50707544 7.5032476 1.28030369 11 4 C11.268125 4.7425 11.53625 5.485 11.8125 6.25 C13.3980321 9.92175856 15.86053186 11.6316124 18.890625 14.1640625 C21.90875212 16.79095092 24.80333686 19.63843974 27 23 C27 23.99 27 24.98 27 26 C25.35 25.67 23.7 25.34 22 25 C21.67 23.68 21.34 22.36 21 21 C20.38511719 20.91363281 19.77023438 20.82726562 19.13671875 20.73828125 C16.66159366 20.30799635 14.3668939 19.84867006 12 19 C11.505 18.13375 11.01 17.2675 10.5 16.375 C10.005 15.59125 9.51 14.8075 9 14 C6.6212649 13.71207117 4.44364977 13.8119648 2.05859375 14.01953125 C0 14 0 14 -2 12 C-0.71086513 11.32845067 0.58140204 10.66291141 1.875 10 C2.59429688 9.62875 3.31359375 9.2575 4.0546875 8.875 C6 8 6 8 8 8 C8 7.34 8 6.68 8 6 C7.236875 5.7525 6.47375 5.505 5.6875 5.25 C2.7635955 3.89004442 1.69995644 2.68414174 0 0 Z " fill="#A6A6A4" transform="translate(19,36)" />
<path d="M0 0 C0.66 0 1.32 0 2 0 C4.19524174 0.48020913 5.9838142 0.9919071 8 2 C8 2.66 8 3.32 8 4 C8.66 4 9.32 4 10 4 C9.67 5.98 9.34 7.96 9 10 C9.61488281 9.97679687 10.22976562 9.95359375 10.86328125 9.9296875 C11.67152344 9.91164063 12.47976562 9.89359375 13.3125 9.875 C14.11300781 9.85179687 14.91351563 9.82859375 15.73828125 9.8046875 C18 10 18 10 21 12 C21 12.66 21 13.32 21 14 C21.99 14.33 22.98 14.66 24 15 C24 17.31 24 19.62 24 22 C24.99 22 25.98 22 27 22 C27 22.66 27 23.32 27 24 C27.763125 23.814375 28.52625 23.62875 29.3125 23.4375 C32 23 32 23 35 24 C35 24.66 35 25.32 35 26 C35.66 26 36.32 26 37 26 C37.165 26.66 37.165 26.66 38 30 C37.01 30.33 36.02 30.66 35 31 C34.835 30.34 34.835 30.34 34 27 C31.36 27 28.72 27 26 27 C25.835 26.34 25.835 26.34 25 23 C24.34 23 23.68 23 23 23 C23 21.02 23 19.04 23 17 C18.25 15 18.25 15 16 15 C16 14.34 16 13.68 16 13 C15.01 13.66 14.02 14.32 13 15 C12.01 15 11.02 15 10 15 C10 14.01 10 13.02 10 12 C9.34 12 8.68 12 8 12 C8 10.02 8 8.04 8 6 C7.50048828 5.97550781 7.50048828 5.97550781 4.97265625 5.8515625 C4.32748047 5.81417969 4.32748047 5.81417969 1.0625 5.625 C0.41861328 5.59019531 0.41861328 5.59019531 -2.83984375 5.4140625 C-3.36126953 5.34574219 -3.36126953 5.34574219 -6 5 C-6.33 4.34 -6.66 3.68 -7 3 C-6.67 2.01 -6.34 1.02 -6 0 C-3.48314464 -1.25842768 -2.63419763 -0.74086808 0 0 Z " fill="#BCBDBB" transform="translate(33,21)" />
<path d="M0 0 C2.95190129 1.36140902 5.30355061 2.94137486 7.8125 5 C11.98794282 8.3070063 16.31669246 11.30489761 20.75 14.25 C21.38784424 14.67410156 22.02568848 15.09820312 22.68286133 15.53515625 C25.3952611 17.32565983 28.0637952 19.03471209 30.921875 20.58984375 C31.60765625 21.05519531 32.2934375 21.52054688 33 22 C33.793664 27.258024 32.54197897 30.44562101 30 35 C30 35.66 30 36.32 30 37 C30.845625 37.556875 31.69125 38.11375 32.5625 38.6875 C33.366875 39.450625 34.17125 40.21375 35 41 C35.06873492 44.91789017 34.85174091 47.06014796 32.1875 50 C30 51 30 51 27.75 50.6875 C27.1725 50.460625 26.595 50.23375 26 50 C26.4793247 45.68607774 27.7457985 43.83430453 31 41 C30.34 41 29.68 41 29 41 C29 40.34 29 39.68 29 39 C25.7 38.67 22.4 38.34 19 38 C19.33 37.01 19.66 36.02 20 35 C22.64 35 25.28 35 28 35 C29.97772233 30.23019908 30.30285628 27.01655344 29 22 C26.55078125 19.953125 26.55078125 19.953125 23.3125 18.25 C17.96696321 15.27540058 13.10999165 11.986325 8.3125 8.1875 C7.71284424 7.71924805 7.11318848 7.25099609 6.49536133 6.76855469 C3.83322194 4.64682078 1.90351699 2.85527548 0 0 Z " fill="#4F5145" transform="translate(53,28)" />
<path d="M0 0 C3.89835017 1.29945006 6.60392154 2.59019603 9 6 C8.85222025 10.1378329 8.13517533 13.44137445 6 17 C3.69 17 1.38 17 -1 17 C-1.66 15.35 -2.32 13.7 -3 12 C-2 11 -2 11 -0.15234375 10.90234375 C1.8984375 10.93489583 3.94921875 10.96744792 6 11 C6 10.34 6 9.68 6 9 C5.01 8.835 5.01 8.835 0 8 C0 8.66 0 9.32 0 10 C-0.61875 9.814375 -1.2375 9.62875 -1.875 9.4375 C-4 9 -4 9 -6 10 C-5.67 9.01 -5.34 8.02 -5 7 C-4.01 6.67 -3.02 6.34 -2 6 C-0.8125 2.9375 -0.8125 2.9375 0 0 Z " fill="#5E6765" transform="translate(75,46)" />
<path d="M0 0 C0 0.99 0 1.98 0 3 C-1.155 3 -2.31 3 -3.5 3 C-9.33288898 3.70450524 -12.43546723 7.6406174 -16 12 C-18 15 -18 15 -19 17 C-19.99 16.67 -20.98 16.34 -22 16 C-22.875 14 -22.875 14 -23 11 C-20.39035204 6.20943197 -17.05371075 2.24609367 -12 0 C-10 0 -10 0 -7 1 C-6.67 0.67 -6.34 0.34 -6 0 C-3.50907189 -1.24546405 -2.58919267 -0.7767578 0 0 Z " fill="#8E9596" transform="translate(81,54)" />
<path d="M0 0 C3.70643926 -0.28317448 7.30386971 -0.45856325 11 0 C12.625 2.375 12.625 2.375 14 5 C16.94079466 6.05826065 19.91091927 6.56610396 23 7 C23 7.66 23 8.32 23 9 C17.72015882 10.3199603 12.37450932 11.04920179 7.3125 8.8125 C4.63399878 6.71313418 2.27374523 4.53360183 0 2 C0 1.34 0 0.68 0 0 Z " fill="#C6C9C7" transform="translate(17,49)" />
<path d="M0 0 C0.33 0.66 0.66 1.32 1 2 C3.0625 3.125 3.0625 3.125 5 4 C5 4.66 5 5.32 5 6 C5.9075 6.268125 6.815 6.53625 7.75 6.8125 C10.72991834 7.90131632 12.68590359 8.86391101 15 11 C15 11.66 15 12.32 15 13 C11.1389146 14.43668294 8.103573 15.11185208 4 15 C3.13153169 13.25705322 2.28069373 11.50531337 1.4375 9.75 C1.19966797 9.26273438 1.19966797 9.26273438 -0.00390625 6.796875 C-1.03510273 3.90143703 -1.11346788 2.80033839 0 0 Z " fill="#DFE0DF" transform="translate(42,66)" />
<path d="M0 0 C0.33 0.66 0.66 1.32 1 2 C1.66 2 2.32 2 3 2 C3.33 3.32 3.66 4.64 4 6 C4.763125 5.814375 5.52625 5.62875 6.3125 5.4375 C9 5 9 5 12 6 C12.6875 8.0625 12.6875 8.0625 13 10 C14.32 9.67 15.64 9.34 17 9 C14.6875 11.5 14.6875 11.5 12 14 C9 14 9 14 7 13 C6.67 12.01 6.34 11.02 6 10 C5.34 10.33 5.34 10.33 2 12 C1.67 10.02 1.34 8.04 1 6 C0.34 6 -0.32 6 -1 6 C-0.67 4.02 -0.34 2.04 0 0 Z " fill="#D9DADA" transform="translate(55,42)" />
<path d="M0 0 C0.33 1.32 0.66 2.64 1 4 C2.32 4.33 3.64 4.66 5 5 C5.66 7.64 6.32 10.28 7 13 C6.21625 12.484375 5.4325 11.96875 4.625 11.4375 C3.75875 10.963125 2.8925 10.48875 2 10 C1.67 10.165 1.67 10.165 0 11 C-0.33 10.01 -0.66 9.02 -1 8 C-3.90625 6.68359375 -3.90625 6.68359375 -7.5 5.4375 C-13.89730086 3.20539829 -13.89730086 3.20539829 -15 1 C-14.66806641 1.00580078 -14.66806641 1.00580078 -12.98828125 1.03515625 C-4.21792619 1.12478032 -4.21792619 1.12478032 0 0 Z " fill="#C1C2C0" transform="translate(40,57)" />
<path d="M0 0 C0.33 1.32 0.66 2.64 1 4 C1.61875 4.0825 1.61875 4.0825 4.75 4.5 C5.09804688 4.54640625 5.09804688 4.54640625 6.859375 4.78125 C9 5 9 5 13 5 C15.75 6.5 15.75 6.5 18 8 C17.67 10.31 17.34 12.62 17 15 C16.01 15 15.02 15 14 15 C13.67 13.35 13.34 11.7 13 10 C12.34 10 11.68 10 11 10 C11 9.34 11 8.68 11 8 C8.36 8 5.72 8 3 8 C3 7.34 3 6.68 3 6 C2.01 6 1.02 6 0 6 C0 4.02 0 2.04 0 0 Z " fill="#A4A7A5" transform="translate(57,37)" />
<path d="M0 0 C2.9375 1.875 2.9375 1.875 5 4 C5 4.66 5 5.32 5 6 C4.34 6 3.68 6 3 6 C3 7.32 3 8.64 3 10 C3.99 10.33 4.98 10.66 6 11 C6.33 11.99 6.66 12.98 7 14 C6.01 13.835 6.01 13.835 1 13 C1.33 11.02 1.66 9.04 2 7 C1.34 7 0.68 7 0 7 C0 6.34 0 5.68 0 5 C-3.66305234 4.25073929 -6.42355152 3.7619986 -10 5 C-10 4.01 -10 3.02 -10 2 C-6.2626144 -0.4915904 -4.42668417 -0.45793285 0 0 Z " fill="#9EA19E" transform="translate(41,18)" />
<path d="M0 0 C1.32 0.33 2.64 0.66 4 1 C4.33 2.32 4.66 3.64 5 5 C6.32 5 7.64 5 9 5 C9.33 5.66 9.66 6.32 10 7 C10.99 7 11.98 7 13 7 C13.33 8.65 13.66 10.3 14 12 C13.34 12.33 13.34 12.33 10 14 C8.894019 12.75160501 7.79029799 11.50120766 6.6875 10.25 C6.07261719 9.55390625 5.45773438 8.8578125 4.82421875 8.140625 C0 2.47965739 0 2.47965739 0 0 Z " fill="#8A908F" transform="translate(47,65)" />
<path d="M0 0 C0.33 0.66 0.66 1.32 1 2 C1.66 2 2.32 2 3 2 C3 2.99 3 3.98 3 5 C4.98 4.34 6.96 3.68 9 3 C5.46800731 9.22303473 5.46800731 9.22303473 3 11 C0.8125 10.6875 0.8125 10.6875 -1 10 C-2.15837626 5.94568308 -1.83691257 3.78187881 0 0 Z " fill="#DDDDDC" transform="translate(40,31)" />
<path d="M0 0 C0.66 0.33 1.32 0.66 2 1 C1.51454933 7.43222143 1.51454933 7.43222143 -0.8125 10 C-3 11 -3 11 -5.25 10.6875 C-5.8275 10.460625 -6.405 10.23375 -7 10 C-6.6875 7.625 -6.6875 7.625 -6 5 C-3 3 -3 3 0 3 C0 2.01 0 1.02 0 0 Z " fill="#56452B" transform="translate(86,68)" />
<path d="M0 0 C3.42347118 0.60797374 3.96705297 0.96282899 6.4375 3.75 C10.24405795 7.84254288 15.09736573 9.21365651 20.26953125 11.01953125 C23 12 23 12 24 13 C24.04063832 14.66617115 24.042721 16.33388095 24 18 C23.38125 17.2575 22.7625 16.515 22.125 15.75 C19.71143304 13.30234311 17.48139106 12.30993023 14.25 11.1875 C8.40684377 9.0643111 4.24600126 5.48189022 0 1 C0 0.67 0 0.34 0 0 Z " fill="#4D4B42" transform="translate(16,52)" />
<path d="M0 0 C2.64 0.33 5.28 0.66 8 1 C8 1.66 8 2.32 8 3 C8.66 3 9.32 3 10 3 C9.34 4.32 8.68 5.64 8 7 C7.34 7 6.68 7 6 7 C6 7.66 6 8.32 6 9 C5.34 9 4.68 9 4 9 C4 8.01 4 7.02 4 6 C3.34 6 2.68 6 2 6 C0 3 0 3 0 0 Z " fill="#9E773C" transform="translate(74,66)" />
<path d="M0 0 C0 3.83764027 -1.26535335 5.11486085 -3.5 8.1875 C-4.1496875 9.08855469 -4.799375 9.98960938 -5.46875 10.91796875 C-5.9740625 11.60503906 -6.479375 12.29210937 -7 13 C-7.66 12.67 -8.32 12.34 -9 12 C-9.73075648 9.6859378 -10.40138258 7.35171131 -11 5 C-10.01 5.165 -10.01 5.165 -5 6 C-4.67 4.35 -4.34 2.7 -4 1 C-2.68 0.67 -1.36 0.34 0 0 Z " fill="#F3F5F5" transform="translate(64,55)" />
<path d="M0 0 C2.375 0.25 2.375 0.25 5 1 C5.69937532 2.31647119 6.36729133 3.65022151 7 5 C7.598125 5.12375 8.19625 5.2475 8.8125 5.375 C12.47470852 6.42134529 13.8480307 8.92575814 16 12 C15.67 12.99 15.34 13.98 15 15 C14.67 14.34 14.34 13.68 14 13 C12.28398813 12.04299338 10.56755409 11.08672392 8.84765625 10.13671875 C4.78516958 7.63738763 1.79935948 4.41660964 0 0 Z " fill="#CBCBCA" transform="translate(30,42)" />
<path d="M0 0 C2.46278801 2.46278801 2.99771255 4.70676982 4 8 C4.66 8 5.32 8 6 8 C6 8.99 6 9.98 6 11 C5.34 11 4.68 11 4 11 C4 10.34 4 9.68 4 9 C0.7 9.33 -2.6 9.66 -6 10 C-5.67 9.01 -5.34 8.02 -5 7 C-4.01 6.67 -3.02 6.34 -2 6 C-0.8125 2.9375 -0.8125 2.9375 0 0 Z " fill="#5B543E" transform="translate(71,66)" />
<path d="M0 0 C5.06083789 1.84915231 8.04014533 3.26423252 11 8 C11 8.99 11 9.98 11 11 C9.35 10.67 7.7 10.34 6 10 C5.67 8.68 5.34 7.36 5 6 C3.68 5.67 2.36 5.34 1 5 C0.67 3.35 0.34 1.7 0 0 Z " fill="#8E8E8D" transform="translate(35,51)" />
<path d="M0 0 C0 5.53941757 -1.79858697 8.45605892 -5 13 C-5.99 12.67 -6.98 12.34 -8 12 C-8.33 10.35 -8.66 8.7 -9 7 C-8.01 7 -7.02 7 -6 7 C-4.39453125 5.46875 -4.39453125 5.46875 -2.8125 3.5 C-2.54759766 3.17515625 -2.54759766 3.17515625 -1.20703125 1.53125 C-0.80871094 1.0259375 -0.41039063 0.520625 0 0 Z " fill="#9BA0A3" transform="translate(67,58)" />
<path d="M0 0 C1.38115777 1.62725498 2.71937515 3.2925002 4 5 C1.87527424 5.05386629 -0.24983652 5.09273071 -2.375 5.125 C-2.96667969 5.13660156 -2.96667969 5.13660156 -5.9609375 5.1953125 C-9 5 -9 5 -11 3 C-4.0843949 -0.85987261 -4.0843949 -0.85987261 0 0 Z " fill="#A5A5A3" transform="translate(28,45)" />
<path d="M0 0 C0.12375 0.639375 0.2475 1.27875 0.375 1.9375 C0.58125 2.618125 0.7875 3.29875 1 4 C1.66 4.33 2.32 4.66 3 5 C-3.81598387 5.33278764 -8.92122066 5.24201565 -15 2 C-12.33496252 0.66748126 -9.96434799 0.98867981 -7.04296875 1.03125 C-4.60703175 0.99398901 -2.36006691 0.59001673 0 0 Z " fill="#BABAB8" transform="translate(40,57)" />
<path d="M0 0 C-0.99 0.66 -1.98 1.32 -3 2 C-0.36 2.33 2.28 2.66 5 3 C5 3.99 5 4.98 5 6 C3.18674449 5.88648483 1.37436643 5.75887039 -0.4375 5.625 C-0.94216797 5.59019531 -0.94216797 5.59019531 -3.49609375 5.4140625 C-4.32238281 5.27742188 -5.14867188 5.14078125 -6 5 C-6.33 4.34 -6.66 3.68 -7 3 C-6.67 2.01 -6.34 1.02 -6 0 C-3.50907189 -1.24546405 -2.58919267 -0.7767578 0 0 Z " fill="#C8C9C8" transform="translate(33,21)" />
<path d="M0 0 C8.01759463 0.49681676 8.01759463 0.49681676 11.5625 2.3125 C13 4 13 4 13 8 C12.34 8 11.68 8 11 8 C11 7.34 11 6.68 11 6 C10.34 6 9.68 6 9 6 C9 5.34 9 4.68 9 4 C5.7 3.67 2.4 3.34 -1 3 C-0.67 2.01 -0.34 1.02 0 0 Z " fill="#624E2F" transform="translate(73,63)" />
<path d="M0 0 C0.79921875 0.09925781 1.5984375 0.19851562 2.421875 0.30078125 C4.86677987 0.65065557 7.27812232 1.08094697 9.6875 1.625 C9.6875 1.955 9.6875 2.285 9.6875 2.625 C4.37583136 3.95291716 -1.07131575 4.37206142 -6.3125 2.625 C-6.3125 1.965 -6.3125 1.305 -6.3125 0.625 C-3.85994998 -0.60127501 -2.69588039 -0.33528596 0 0 Z " fill="#D5D5D4" transform="translate(30.3125,55.375)" />
<path d="M0 0 C1.32 0.825 1.32 0.825 8 5 C7.67 5.495 7.67 5.495 6 8 C1.25 7.25 1.25 7.25 -1 5 C-0.625 2.375 -0.625 2.375 0 0 Z " fill="#848883" transform="translate(60,35)" />
<path d="M0 0 C4.35522853 0.50642192 7.44239635 1.38411497 11 4 C11 4.66 11 5.32 11 6 C8.35556973 6.3888868 6.61173798 6.39540909 4.33203125 4.921875 C2.83068266 3.68085526 1.40974295 2.34417351 0 1 C0 0.67 0 0.34 0 0 Z " fill="#ACADA9" transform="translate(19,36)" />
<path d="M0 0 C0.33 0.99 0.66 1.98 1 3 C-1.64 5.97 -4.28 8.94 -7 12 C-7.33 10.68 -7.66 9.36 -8 8 C-5.78514551 4.63670244 -3.32150867 2.25388088 0 0 Z " fill="#7F8485" transform="translate(68,54)" />
<path d="M0 0 C2.4375 0.8125 2.4375 0.8125 5 2 C5.33 2.99 5.66 3.98 6 5 C3.69 5.33 1.38 5.66 -1 6 C-1.042721 4.33388095 -1.04063832 2.66617115 -1 1 C-0.67 0.67 -0.34 0.34 0 0 Z " fill="#7E8580" transform="translate(75,46)" />
<path d="M0 0 C4.95 0 9.9 0 15 0 C12.21832297 2.78167703 9.831383 3.2337234 6 4 C2.5625 3.125 2.5625 3.125 0 2 C0 1.34 0 0.68 0 0 Z " fill="#554E38" transform="translate(21,17)" />
<path d="M0 0 C3.28330144 2.92348758 3.95866933 5.75457495 5 10 C6.65 10 8.3 10 10 10 C9.67 10.66 9.34 11.32 9 12 C4.25 11.25 4.25 11.25 2 9 C1.3671875 6.8359375 1.3671875 6.8359375 0.875 4.375 C0.70742188 3.55773437 0.53984375 2.74046875 0.3671875 1.8984375 C0.24601562 1.27195312 0.12484375 0.64546875 0 0 Z " fill="#56554B" transform="translate(41,72)" />
<path d="M0 0 C0.66 0.33 1.32 0.66 2 1 C2 4 2 4 -0.3125 6.6875 C-3 9 -3 9 -6 9 C-4.47291037 5.56404834 -2.40072955 2.88087546 0 0 Z " fill="#A1A8A5" transform="translate(72,59)" />
<path d="M0 0 C2.375 0.625 2.375 0.625 5 2 C6.3125 5.125 6.3125 5.125 7 8 C4.69 7.34 2.38 6.68 0 6 C0 4.02 0 2.04 0 0 Z " fill="#DDDDDB" transform="translate(19,30)" />
<path d="M0 0 C2.5 1.375 2.5 1.375 5 3 C5 3.66 5 4.32 5 5 C2.36 5.66 -0.28 6.32 -3 7 C-3.33 6.34 -3.66 5.68 -4 5 C-3.01 4.34 -2.02 3.68 -1 3 C-0.67 2.01 -0.34 1.02 0 0 Z " fill="#BDBFBD" transform="translate(52,74)" />
<path d="M0 0 C3.375 0.5625 3.375 0.5625 7 2 C8.4375 5.625 8.4375 5.625 9 9 C7.68 8.34 6.36 7.68 5 7 C5 6.34 5 5.68 5 5 C4.34 5 3.68 5 3 5 C1.375 2.5 1.375 2.5 0 0 Z " fill="#D2D3D2" transform="translate(47,60)" />
<path d="M0 0 C0 0.99 0 1.98 0 3 C0.33 3.66 0.66 4.32 1 5 C0.0925 4.814375 -0.815 4.62875 -1.75 4.4375 C-4.68314324 4.04265379 -6.2644657 4.05308428 -9 5 C-9 4.01 -9 3.02 -9 2 C-5.5647952 -0.29013653 -4.014669 -0.17842973 0 0 Z " fill="#A6A8A2" transform="translate(40,18)" />
<path d="M0 0 C0.4021875 0.0103125 0.4021875 0.0103125 2.4375 0.0625 C2.7675 0.7225 3.0975 1.3825 3.4375 2.0625 C1.7875 1.7325 0.1375 1.4025 -1.5625 1.0625 C-0.9025 3.0425 -0.2425 5.0225 0.4375 7.0625 C1.0975 7.0625 1.7575 7.0625 2.4375 7.0625 C2.1075 8.0525 1.7775 9.0425 1.4375 10.0625 C-1.78563813 7.25525066 -3.21248321 5.37937378 -3.5625 1.0625 C-2.5625 0.0625 -2.5625 0.0625 0 0 Z " fill="#8B6D3D" transform="translate(75.5625,64.9375)" />
<path d="M0 0 C0.99 0 1.98 0 3 0 C7 5.25714286 7 5.25714286 7 8 C3.56404834 6.47291037 0.88087546 4.40072955 -2 2 C-1.34 2 -0.68 2 0 2 C0 1.34 0 0.68 0 0 Z " fill="#8E8E8D" transform="translate(27,42)" />
<path d="M0 0 C2.86724686 0.57344937 3.8614515 0.8614515 6 3 C5.625 5.125 5.625 5.125 5 7 C4.34 7 3.68 7 3 7 C2.34 6.34 1.68 5.68 1 5 C0.67 5.165 0.67 5.165 -1 6 C-0.67 4.02 -0.34 2.04 0 0 Z " fill="#7C8485" transform="translate(57,67)" />
<path d="M0 0 C0.99 0.165 0.99 0.165 6 1 C6.33 2.32 6.66 3.64 7 5 C8.32 4.67 9.64 4.34 11 4 C10.01 4.99 9.02 5.98 8 7 C7.01 6.67 6.02 6.34 5 6 C5 5.34 5 4.68 5 4 C4.01 4 3.02 4 2 4 C2 3.01 2 2.02 2 1 C1.34 0.67 0.68 0.34 0 0 Z " fill="#D2D4D3" transform="translate(61,47)" />
<path d="M0 0 C0.33 0.66 0.66 1.32 1 2 C1.66 2 2.32 2 3 2 C3 2.99 3 3.98 3 5 C4.98 4.34 6.96 3.68 9 3 C8.01 4.65 7.02 6.3 6 8 C5.67 7.34 5.34 6.68 5 6 C4.01 6.33 3.02 6.66 2 7 C0 4 0 4 0 0 Z " fill="#CDCDCC" transform="translate(40,31)" />
<path d="M0 0 C0 0.66 0 1.32 0 2 C-3.92438786 3.66489182 -7.89100419 4.87204037 -12 6 C-8.43530515 2.03922794 -5.41936579 0 0 0 Z " fill="#686858" transform="translate(73,74)" />
<path d="M0 0 C2.31 0.33 4.62 0.66 7 1 C6.67 1.165 6.67 1.165 5 2 C5 2.66 5 3.32 5 4 C3.35 4.33 1.7 4.66 0 5 C-0.33 4.01 -0.66 3.02 -1 2 C-0.67 1.34 -0.34 0.68 0 0 Z " fill="#757F79" transform="translate(74,58)" />
<path d="M0 0 C0.66 0.33 1.32 0.66 2 1 C2.33 1.99 2.66 2.98 3 4 C5.06640625 4.73046875 5.06640625 4.73046875 7.5625 5.1875 C8.38878906 5.34605469 9.21507812 5.50460938 10.06640625 5.66796875 C10.38544922 5.72275391 10.38544922 5.72275391 12 6 C12 6.33 12 6.66 12 7 C10.3954444 6.85851011 8.79136233 6.71164314 7.1875 6.5625 C6.29417969 6.48128906 5.40085937 6.40007813 4.48046875 6.31640625 C2 6 2 6 -1 5 C-0.67 3.35 -0.34 1.7 0 0 Z " fill="#C0C0BE" transform="translate(28,50)" />
<path d="M0 0 C-1.40751221 0.86916887 -2.8264521 1.71985149 -4.25 2.5625 C-5.03890625 3.03816406 -5.8278125 3.51382813 -6.640625 4.00390625 C-9.30844625 5.13022151 -10.34501768 5.0169313 -13 4 C-12.01 4 -11.02 4 -10 4 C-10 3.34 -10 2.68 -10 2 C-3.375 -1.125 -3.375 -1.125 0 0 Z " fill="#4F5047" transform="translate(65,77)" />
<path d="M0 0 C0.825 0.33 0.825 0.33 5 2 C4.67 3.65 4.34 5.3 4 7 C3.34 7 2.68 7 2 7 C2 6.01 2 5.02 2 4 C1.34 4 0.68 4 0 4 C0 2.68 0 1.36 0 0 Z " fill="#B99048" transform="translate(76,68)" />
<path d="M0 0 C2.64 0.33 5.28 0.66 8 1 C8 1.99 8 2.98 8 4 C6.02 4 4.04 4 2 4 C1.34 2.68 0.68 1.36 0 0 Z " fill="#DCDCDE" transform="translate(17,49)" />
<path d="M0 0 C2.64 0.33 5.28 0.66 8 1 C8 1.66 8 2.32 8 3 C5.39417629 3.93065133 4.35801776 4.14917407 1.75 3.0625 C1.1725 2.711875 0.595 2.36125 0 2 C0 1.34 0 0.68 0 0 Z " fill="#D1D1CE" transform="translate(35,61)" />
<path d="M0 0 C0.825 0.165 0.825 0.165 5 1 C5.33 1.99 5.66 2.98 6 4 C6.99 4.33 7.98 4.66 9 5 C7.1875 5.6875 7.1875 5.6875 5 6 C3.25 4.6875 3.25 4.6875 2 3 C2 2.34 2 1.68 2 1 C1.34 0.67 0.68 0.34 0 0 Z " fill="#B1B1B5" transform="translate(48,31)" />
<path d="M0 0 C0.99 0 1.98 0 3 0 C2.1875 2.4375 2.1875 2.4375 1 5 C0.01 5.33 -0.98 5.66 -2 6 C-1.125 1.125 -1.125 1.125 0 0 Z " fill="#4A2B08" transform="translate(83,71)" />
<path d="M0 0 C0.99 0.33 1.98 0.66 3 1 C2.67 2.32 2.34 3.64 2 5 C0 1.125 0 1.125 0 0 Z M-3 5 C-2.34 5.165 -2.34 5.165 1 6 C0.67 6.66 0.34 7.32 0 8 C-1.32 7.67 -2.64 7.34 -4 7 C-3.67 6.34 -3.34 5.68 -3 5 Z " fill="#D4D6D3" transform="translate(49,73)" />
<path d="M0 0 C0 0.99 0 1.98 0 3 C-1.98 3 -3.96 3 -6 3 C-6 2.01 -6 1.02 -6 0 C-3.50907189 -1.24546405 -2.58919267 -0.7767578 0 0 Z " fill="#758082" transform="translate(81,54)" />
<path d="M0 0 C0 0.99 0 1.98 0 3 C0.3062434 4.33981486 0.63451555 5.67511887 1 7 C-0.32 7 -1.64 7 -3 7 C-3.33 6.01 -3.66 5.02 -4 4 C-2.68 2.68 -1.36 1.36 0 0 Z " fill="#F4F4EC" transform="translate(26,22)" />
<path d="M0 0 C0 2.62113708 -0.31292445 4.50935112 -1 7 C-1.99 7 -2.98 7 -4 7 C-4 4 -4 4 -2 1.8125 C-1.34 1.214375 -0.68 0.61625 0 0 Z " fill="#B1B5B6" transform="translate(67,58)" />
<path d="M0 0 C0.99 0.33 1.98 0.66 3 1 C3 1.66 3 2.32 3 3 C3.99 3.33 4.98 3.66 6 4 C5.67 5.32 5.34 6.64 5 8 C4.34 7.67 3.68 7.34 3 7 C2.375 4.4375 2.375 4.4375 2 2 C1.34 2 0.68 2 0 2 C0 1.34 0 0.68 0 0 Z " fill="#ACB1AE" transform="translate(68,45)" />
<path d="M0 0 C-0.99 0.825 -0.99 0.825 -6 5 C-6.33 4.34 -6.66 3.68 -7 3 C-6.67 2.01 -6.34 1.02 -6 0 C-3.50907189 -1.24546405 -2.58919267 -0.7767578 0 0 Z " fill="#D1CEC4" transform="translate(33,21)" />
<path d="M0 0 C1.61949011 2.57213134 2.04408751 3.67669159 1.625 6.75 C1.41875 7.4925 1.2125 8.235 1 9 C0.34 8.67 -0.32 8.34 -1 8 C-0.67 5.36 -0.34 2.72 0 0 Z " fill="#6A685B" transform="translate(40,68)" />
<path d="M0 0 C0 0.66 0 1.32 0 2 C-6.0546875 2.9765625 -6.0546875 2.9765625 -8 3 C-8.66 2.34 -9.32 1.68 -10 1 C-6.78548731 -0.60725635 -3.56387464 -0.05748185 0 0 Z " fill="#B3B3AF" transform="translate(27,47)" />
<path d="M0 0 C1.9375 0.8125 1.9375 0.8125 4 2 C4.33 2.99 4.66 3.98 5 5 C2.13275314 4.42655063 1.1385485 4.1385485 -1 2 C-0.67 1.34 -0.34 0.68 0 0 Z " fill="#787B7A" transform="translate(45,25)" />
<path d="M0 0 C0.99 0.165 0.99 0.165 6 1 C5.67 2.32 5.34 3.64 5 5 C2 4 2 4 0.8125 1.9375 C0.6784375 1.6178125 0.6784375 1.6178125 0 0 Z " fill="#DBDCDC" transform="translate(25,25)" />
</svg>