<?xml version='1.0' encoding='utf-8'?>
<svg xmlns="http://www.w3.org/2000/svg" version="1.1" width="93" height="94">
<path d="M0 0 C4.21931868 6.21794332 3.84100226 12.4081845 3.1875 19.75 C1.68208859 25.462426 -0.96405496 30.28682497 -5.8125 33.75 C-10.06636637 35.38798303 -14.41226694 36.57213566 -18.8125 37.75 C-21.10533303 38.39168023 -23.39700334 39.03752933 -25.6875 39.6875 C-26.83605469 40.01105469 -27.98460938 40.33460937 -29.16796875 40.66796875 C-34.40953022 42.22414509 -39.56655026 44.00166983 -44.73046875 45.796875 C-47.8125 46.75 -47.8125 46.75 -50.8125 46.75 C-51.71644028 43.7018293 -51.86477181 41.10620007 -51.75 37.9375 C-51.69163002 33.52083844 -52.50950528 29.98473284 -53.8125 25.75 C-54.01309443 22.47362432 -53.81962874 19.78635658 -53.1875 16.5625 C-52.8125 13.75 -52.8125 13.75 -54.8125 10.75 C-54.9375 7.5625 -54.9375 7.5625 -54.8125 4.75 C-45.37547447 3.37204776 -35.93100487 2.08302315 -26.46899414 0.89013672 C-25.06021565 0.71176043 -23.65168884 0.53138625 -22.2434082 0.34912109 C-20.16409402 0.08003619 -18.08411884 -0.18327432 -16.00390625 -0.4453125 C-14.78904541 -0.60016113 -13.57418457 -0.75500977 -12.32250977 -0.91455078 C-2.66446679 -1.8375633 -2.66446679 -1.8375633 0 0 Z " fill="#F9B039" transform="translate(71.8125,30.25)" />
<path d="M0 0 C0 1.65 0 3.3 0 5 C-0.66 5 -1.32 5 -2 5 C-2.18175781 5.61488281 -2.36351562 6.22976562 -2.55078125 6.86328125 C-2.80214844 7.67152344 -3.05351563 8.47976562 -3.3125 9.3125 C-3.55613281 10.11300781 -3.79976562 10.91351563 -4.05078125 11.73828125 C-5 14 -5 14 -6.60546875 15.54296875 C-8 17 -8 17 -8 21 C-8.30404678 22.67225729 -8.63128912 24.34080104 -9 26 C-10.9914056 26.38133299 -12.99279077 26.71325582 -15 27 C-15.33 26.67 -15.66 26.34 -16 26 C-16.66 26.66 -17.32 27.32 -18 28 C-18.33 27.67 -18.66 27.34 -19 27 C-19.639375 27.969375 -20.27875 28.93875 -20.9375 29.9375 C-23.32554048 32.87078672 -25.07390426 33.49170548 -28.8125 33.875 C-30.20728577 33.94326031 -31.60355817 33.99391529 -33 34 C-33 35.65 -33 37.3 -33 39 C-34.98 39.99 -36.96 40.98 -39 42 C-39.90394028 38.9518293 -40.05227181 36.35620007 -39.9375 33.1875 C-39.87913002 28.77083844 -40.69700528 25.23473284 -42 21 C-42.20059443 17.72362432 -42.00712874 15.03635658 -41.375 11.8125 C-41 9 -41 9 -43 6 C-43.125 2.8125 -43.125 2.8125 -43 0 C-41.68 0 -40.36 0 -39 0 C-39 0.66 -39 1.32 -39 2 C-38.01 1.84402344 -37.02 1.68804687 -36 1.52734375 C-29.16458332 0.50155554 -22.85544499 -0.39907041 -16 1 C-16.33 2.32 -16.66 3.64 -17 5 C-17.66 5 -18.32 5 -19 5 C-19 6.65 -19 8.3 -19 10 C-16.21309756 11.1354047 -15.13101837 11.04764304 -12.25 10 C-10 8 -10 8 -9.6875 4.3125 C-9.7390625 3.7659375 -9.7390625 3.7659375 -10 1 C-3.375 -1.125 -3.375 -1.125 0 0 Z " fill="#F9CB57" transform="translate(60,35)" />
<path d="M0 0 C0.6811084 0.16258301 1.3622168 0.32516602 2.06396484 0.49267578 C11.67250176 2.86438974 21.14200405 5.36311809 28 13 C31.41208255 20.07691195 32.35418921 27.0055172 30.2734375 34.6796875 C29.31157264 37.25248049 28.32239721 39.59013002 27 42 C26.72623535 42.56380371 26.4524707 43.12760742 26.17041016 43.70849609 C23.03781295 49.17341323 19.06128457 50.48576733 13.17675781 52.20703125 C12.04592773 52.50996094 10.91509766 52.81289062 9.75 53.125 C8.59081055 53.45628906 7.43162109 53.78757813 6.23730469 54.12890625 C3.91096949 54.79265107 1.58187223 55.44679817 -0.75 56.09082031 C-3.60928809 56.89069928 -6.44661333 57.73468538 -9.28125 58.6171875 C-10.04791992 58.85421387 -10.81458984 59.09124023 -11.60449219 59.33544922 C-12.9863749 59.76347434 -14.36731735 60.19455307 -15.74707031 60.62939453 C-19.59565536 61.78275916 -22.98485913 62.28851312 -27 62 C-28 61 -28 61 -28.09765625 58.05859375 C-28.08605469 56.86363281 -28.07445312 55.66867188 -28.0625 54.4375 C-28.05347656 53.23996094 -28.04445313 52.04242188 -28.03515625 50.80859375 C-28.02355469 49.88175781 -28.01195312 48.95492187 -28 48 C-28.66 47.67 -29.32 47.34 -30 47 C-30 42.71 -30 38.42 -30 34 C-29.67 34 -29.34 34 -29 34 C-28.86722656 34.81984375 -28.73445313 35.6396875 -28.59765625 36.484375 C-28.42105469 37.56203125 -28.24445312 38.6396875 -28.0625 39.75 C-27.88847656 40.81734375 -27.71445312 41.8846875 -27.53515625 42.984375 C-27 46 -27 46 -26.4375 48.03125 C-25.85905132 50.63426905 -25.90580007 53.0872055 -25.9375 55.75 C-25.94652344 56.73484375 -25.95554687 57.7196875 -25.96484375 58.734375 C-25.97644531 59.48203125 -25.98804688 60.2296875 -26 61 C-25.37996094 60.75765625 -24.75992187 60.5153125 -24.12109375 60.265625 C-18.60826643 58.17925658 -13.08060291 56.41410085 -7.375 54.9375 C-2.55107964 53.68884114 2.18166351 52.36749324 6.87890625 50.70703125 C8.43148805 50.18950398 10.00630064 49.7374208 11.58984375 49.32421875 C17.00982375 47.89958377 20.55508328 46.69761371 24 42 C28.0693069 34.28234898 28.4603718 24.91266835 25.98046875 16.5703125 C25.65691406 15.72210937 25.33335938 14.87390625 25 14 C19.0177582 13.91732341 13.24891064 14.16150173 7.3125 14.875 C6.53358398 14.96450928 5.75466797 15.05401855 4.95214844 15.14624023 C0.20450209 15.70252913 -4.52242849 16.35363077 -9.25 17.0625 C-16.14558762 18.08795624 -23.04310306 18.59823392 -30 19 C-29.690625 20.03125 -29.38125 21.0625 -29.0625 22.125 C-28.12497188 25.38972557 -27.49227298 28.63613462 -27 32 C-27.33 32.165 -27.33 32.165 -29 33 C-29.309375 31.865625 -29.61875 30.73125 -29.9375 29.5625 C-31 26 -31 26 -32 25 C-32.81671366 21.81836764 -32.82837654 19.18116197 -32 16 C-29.10834563 12.43502902 -25.60265888 9.81581443 -22 7 C-21.1853125 6.21496094 -20.370625 5.42992187 -19.53125 4.62109375 C-12.98147591 -1.49273758 -8.58173158 -2.04980789 0 0 Z " fill="#703B0A" transform="translate(47,16)" />
<path d="M0 0 C0.69295166 0.17901855 1.38590332 0.35803711 2.09985352 0.54248047 C7.25578352 1.92326397 12.48987943 3.4232891 17.0625 6.25 C17.2275 6.58 17.2275 6.58 18.0625 8.25 C11.70162787 10.05237227 5.58250905 10.77021892 -1 11.25 C-9.04128149 11.88554756 -16.99854318 12.69615059 -24.9765625 13.8828125 C-27.67045282 14.21688333 -30.22732521 14.32052499 -32.9375 14.25 C-29.4744224 9.85095548 -25.7713716 6.01209229 -21.5625 2.3125 C-20.68851563 1.54035156 -19.81453125 0.76820312 -18.9140625 -0.02734375 C-12.90316074 -3.50609398 -6.37142756 -1.69064854 0 0 Z " fill="#E86344" transform="translate(50.9375,18.75)" />
<path d="M0 0 C0.33 0 0.66 0 1 0 C1.52918042 10.33371763 0.94470104 17.27382107 -4.9375 25.8125 C-9.80780463 29.29128902 -15.26721466 30.46543505 -21 32 C-23.29283303 32.64168023 -25.58450334 33.28752933 -27.875 33.9375 C-29.02226563 34.25976562 -30.16953125 34.58203125 -31.3515625 34.9140625 C-36.63344526 36.48618606 -41.82086966 38.30696738 -47.015625 40.14453125 C-50 41 -50 41 -52 40 C-51.360625 39.5875 -50.72125 39.175 -50.0625 38.75 C-47.7381833 36.77785249 -47.56682371 35.88781766 -47 33 C-46.40832031 32.92523438 -45.81664062 32.85046875 -45.20703125 32.7734375 C-38.83995092 31.71398857 -36.80479945 30.10930211 -33 25 C-30.6875 24.125 -30.6875 24.125 -29 24 C-29 24.66 -29 25.32 -29 26 C-27.02 25.67 -25.04 25.34 -23 25 C-22.67 23.35 -22.34 21.7 -22 20 C-20.68 20 -19.36 20 -18 20 C-19 22 -20 24 -21 26 C-19.02 26 -17.04 26 -15 26 C-14.67 24.68 -14.34 23.36 -14 22 C-10.65747276 21.92572162 -8.1964086 21.93453047 -5 23 C-4.34 19.37 -3.68 15.74 -3 12 C-2.01 11.67 -1.02 11.34 0 11 C0 10.34 0 9.68 0 9 C-0.763125 9.474375 -1.52625 9.94875 -2.3125 10.4375 C-5 12 -5 12 -8 13 C-7.25 8.25 -7.25 8.25 -5 6 C-3.68 6 -2.36 6 -1 6 C-0.67 4.02 -0.34 2.04 0 0 Z " fill="#D9921E" transform="translate(74,36)" />
<path d="M0 0 C0.99 0.33 1.98 0.66 3 1 C2.125 5.875 2.125 5.875 1 7 C0.95919217 8.99958364 0.95745644 11.00045254 1 13 C1.763125 12.34 2.52625 11.68 3.3125 11 C6 9 6 9 9 9 C9 9.66 9 10.32 9 11 C8.67 11.165 8.67 11.165 7 12 C6.14843268 14.81775155 5.52636307 17.66024146 4.87890625 20.53125 C4.58886719 21.3459375 4.29882812 22.160625 4 23 C3.01 23.33 2.02 23.66 1 24 C1 23.34 1 22.68 1 22 C-0.98 22 -2.96 22 -5 22 C-5.33 23.32 -5.66 24.64 -6 26 C-7.98 26 -9.96 26 -12 26 C-11 24 -10 22 -9 20 C-10.98 20 -12.96 20 -15 20 C-14.505 18.845 -14.505 18.845 -12 13 C-11.34 13 -10.68 13 -10 13 C-9.34 10.03 -8.68 7.06 -8 4 C-4 3 -4 3 -2 3 C-1.34 2.01 -0.68 1.02 0 0 Z " fill="#F7BE4D" transform="translate(65,36)" />
<path d="M0 0 C6.41321142 1.9516533 6.41321142 1.9516533 8.69897461 4.9934082 C5.09663589 4.53156991 1.8049443 3.74337662 -1.61352539 2.5559082 C-8.41366733 0.22834284 -16.06387684 -2.37418198 -23.30102539 -1.0065918 C-26.10984028 0.59411533 -28.34223838 2.64648027 -30.67602539 4.8684082 C-31.2909082 5.42399414 -31.90579102 5.97958008 -32.53930664 6.55200195 C-34.84818208 8.64868315 -37.09567459 10.78805741 -39.30102539 12.9934082 C-38.19629883 12.87223633 -37.09157227 12.75106445 -35.95336914 12.6262207 C-34.38181817 12.45636032 -32.8101974 12.28714504 -31.23852539 12.1184082 C-30.3988623 12.02817383 -29.55919922 11.93793945 -28.6940918 11.8449707 C-23.87786081 11.33772092 -19.06154109 10.87915768 -14.23461914 10.4855957 C-13.73031372 10.44426514 -13.73031372 10.44426514 -11.17822266 10.23510742 C-9.22211184 10.07762595 -7.26557302 9.92534714 -5.30859375 9.77905273 C0.52626205 9.30822567 6.01179962 8.38903397 11.69897461 6.9934082 C11.69897461 7.9834082 11.69897461 8.9734082 11.69897461 9.9934082 C11.01496582 10.07381348 10.33095703 10.15421875 9.6262207 10.23706055 C6.44192661 10.61240781 3.25790105 10.98995467 0.07397461 11.3684082 C-1.07433838 11.5048877 -2.22265137 11.64136719 -3.40576172 11.78198242 C-9.2802255 12.48706756 -15.13879343 13.23188166 -20.98852539 14.1184082 C-27.73503081 15.12409845 -34.49434405 15.60031718 -41.30102539 15.9934082 C-40.99165039 17.0246582 -40.68227539 18.0559082 -40.36352539 19.1184082 C-39.42599727 22.38313378 -38.79329837 25.62954282 -38.30102539 28.9934082 C-38.63102539 29.1584082 -38.63102539 29.1584082 -40.30102539 29.9934082 C-40.61040039 28.8590332 -40.91977539 27.7246582 -41.23852539 26.5559082 C-42.30102539 22.9934082 -42.30102539 22.9934082 -43.30102539 21.9934082 C-44.11773906 18.81177584 -44.12940193 16.17457018 -43.30102539 12.9934082 C-40.40937102 9.42843723 -36.90368427 6.80922263 -33.30102539 3.9934082 C-32.48633789 3.20836914 -31.67165039 2.42333008 -30.83227539 1.61450195 C-21.10862447 -7.46195791 -11.55726545 -3.26084041 0 0 Z " fill="#742A13" transform="translate(58.301025390625,19.006591796875)" />
<path d="M0 0 C2.01040581 0.441635 3.99305762 0.94258405 5.98046875 1.47802734 C6.32787109 1.56810059 6.32787109 1.56810059 8.0859375 2.02392578 C12.85564189 3.28794219 17.42898374 4.76907526 21.98046875 6.66552734 C21.98046875 6.99552734 21.98046875 7.32552734 21.98046875 7.66552734 C14.06046875 7.99552734 6.14046875 8.32552734 -2.01953125 8.66552734 C-2.01953125 7.34552734 -2.01953125 6.02552734 -2.01953125 4.66552734 C-3.66953125 4.66552734 -5.31953125 4.66552734 -7.01953125 4.66552734 C-7.01953125 5.32552734 -7.01953125 5.98552734 -7.01953125 6.66552734 C-9.32953125 6.33552734 -11.63953125 6.00552734 -14.01953125 5.66552734 C-13.70703125 3.79052734 -13.70703125 3.79052734 -13.01953125 1.66552734 C-8.81451866 -1.13781439 -4.83255343 -0.80036245 0 0 Z " fill="#DA4D32" transform="translate(45.01953125,17.33447265625)" />
<path d="M0 0 C0.33 0.66 0.66 1.32 1 2 C2.155 1.835 2.155 1.835 8 1 C7.67 2.65 7.34 4.3 7 6 C5.10614563 6.50744423 3.20981334 7.00564574 1.3125 7.5 C0.25675781 7.7784375 -0.79898438 8.056875 -1.88671875 8.34375 C-4.71142672 8.9391715 -7.12836708 9.12786492 -10 9 C-10.12375 9.763125 -10.2475 10.52625 -10.375 11.3125 C-12.7223273 15.19461823 -15.63193166 15.42971619 -19.8828125 16.51953125 C-20.58148437 16.67808594 -21.28015625 16.83664063 -22 17 C-21.360625 16.4225 -20.72125 15.845 -20.0625 15.25 C-17.96071331 12.95714179 -17.58614071 11.93687346 -17 9 C-16.70416016 8.96261719 -16.70416016 8.96261719 -15.20703125 8.7734375 C-8.8780708 7.72033152 -6.72576665 6.15032448 -3 1 C-2.01 0.67 -1.02 0.34 0 0 Z " fill="#E8A32F" transform="translate(44,60)" />
<path d="M0 0 C0.33 0 0.66 0 1 0 C1.53160464 10.3810573 0.76677682 17.34983477 -5 26 C-8.07921132 26.25660094 -10.21136993 26.39431504 -13 25 C-12.67 24.01 -12.34 23.02 -12 22 C-9.69 22.33 -7.38 22.66 -5 23 C-4.34 19.37 -3.68 15.74 -3 12 C-2.01 11.67 -1.02 11.34 0 11 C0 10.34 0 9.68 0 9 C-0.3815625 9.2371875 -0.3815625 9.2371875 -2.3125 10.4375 C-5 12 -5 12 -8 13 C-7.25 8.25 -7.25 8.25 -5 6 C-3.68 6 -2.36 6 -1 6 C-0.67 4.02 -0.34 2.04 0 0 Z " fill="#D88618" transform="translate(74,36)" />
<path d="M0 0 C0.99 0 1.98 0 3 0 C3 1.32 3 2.64 3 4 C3.763125 3.34 4.52625 2.68 5.3125 2 C8 0 8 0 11 0 C11 0.66 11 1.32 11 2 C10.67 2.165 10.67 2.165 9 3 C8.14843268 5.81775155 7.52636307 8.66024146 6.87890625 11.53125 C6.58886719 12.3459375 6.29882812 13.160625 6 14 C5.01 14.33 4.02 14.66 3 15 C2.67 13.68 2.34 12.36 2 11 C-0.31 11 -2.62 11 -5 11 C-5 10.01 -5 9.02 -5 8 C-3.68 8 -2.36 8 -1 8 C-0.67 5.36 -0.34 2.72 0 0 Z " fill="#E9B037" transform="translate(63,45)" />
<path d="M0 0 C0.165 0.495 0.165 0.495 1 3 C0.31599121 3.08040527 -0.36801758 3.16081055 -1.07275391 3.24365234 C-4.25704799 3.6189996 -7.44107356 3.99654646 -10.625 4.375 C-11.77331299 4.51147949 -12.92162598 4.64795898 -14.10473633 4.78857422 C-19.97920011 5.49365936 -25.83776804 6.23847346 -31.6875 7.125 C-38.43400542 8.13069025 -45.19331866 8.60690898 -52 9 C-51.67 8.01 -51.34 7.02 -51 6 C-50.5875 5.97550781 -50.5875 5.97550781 -48.5 5.8515625 C-41.25581466 5.38263086 -34.10533228 4.68646952 -26.91210938 3.73095703 C-22.61062141 3.16975707 -18.32825239 2.78021056 -14 2.5 C-9.1031242 2.16459755 -4.70489769 1.38379344 0 0 Z " fill="#C15518" transform="translate(69,26)" />
<path d="M0 0 C0.33 0.66 0.66 1.32 1 2 C-2.52447552 7.79020979 -2.52447552 7.79020979 -5.125 8.9375 C-7 10 -7 10 -8.25 13.625 C-8.4975 14.73875 -8.745 15.8525 -9 17 C-11.02558881 13.65060119 -11.21738987 11.13037449 -11.125 7.25 C-11.11597656 6.75757812 -11.11597656 6.75757812 -11.0703125 4.265625 C-11.04710938 3.51796875 -11.02390625 2.7703125 -11 2 C-9.68 1.67 -8.36 1.34 -7 1 C-7 1.66 -7 2.32 -7 3 C-5.35 3.33 -3.7 3.66 -2 4 C-1.34 2.68 -0.68 1.36 0 0 Z " fill="#F5C658" transform="translate(31,60)" />
<path d="M0 0 C1.98 0 3.96 0 6 0 C5.49477778 4.37859255 2.82172778 6.81651224 0 10 C-1.65 9.67 -3.3 9.34 -5 9 C-5.74342169 6.21216865 -6 3.87722583 -6 1 C-5.01 1.165 -5.01 1.165 0 2 C0 1.34 0 0.68 0 0 Z " fill="#F7C04B" transform="translate(29,54)" />
<path d="M0 0 C0.33 0 0.66 0 1 0 C1 1.65 1 3.3 1 5 C-0.32 5 -1.64 5 -3 5 C-3 5.99 -3 6.98 -3 8 C-0.69 8 1.62 8 4 8 C4 8.66 4 9.32 4 10 C2.35 10 0.7 10 -1 10 C-1.33 11.32 -1.66 12.64 -2 14 C-3.98 14 -5.96 14 -8 14 C-7.5 13 -7.5 13 -5 8 C-5.66 8 -6.32 8 -7 8 C-6.75 5.625 -6.75 5.625 -6 3 C-3.9375 1.6875 -3.9375 1.6875 -2 1 C-2.33 1.99 -2.66 2.98 -3 4 C-2.01 4 -1.02 4 0 4 C0 2.68 0 1.36 0 0 Z " fill="#F0B040" transform="translate(61,48)" />
<path d="M0 0 C0 0.33 0 0.66 0 1 C-29.34541547 5.5691466 -29.34541547 5.5691466 -41 6 C-40.34 5.01 -39.68 4.02 -39 3 C-35.9453125 2.55859375 -35.9453125 2.55859375 -32.125 2.4375 C-27.26065094 2.23319385 -22.60817964 1.85217267 -17.8125 0.9375 C-11.84704791 -0.15819528 -6.04816998 -0.1930267 0 0 Z " fill="#FB8D73" transform="translate(59,27)" />
<path d="M0 0 C1.0725 0.28875 2.145 0.5775 3.25 0.875 C3.58 1.535 3.91 2.195 4.25 2.875 C6.3125 3.5 6.3125 3.5 8.25 3.875 C4.71813168 6.02559309 1.58712007 6.2547728 -2.5 6.5 C-3.67046875 6.57476563 -4.8409375 6.64953125 -6.046875 6.7265625 C-6.93890625 6.77554687 -7.8309375 6.82453125 -8.75 6.875 C-8.75 3.875 -8.75 3.875 -6.6875 1.625 C-3.75 -0.125 -3.75 -0.125 0 0 Z " fill="#E97251" transform="translate(30.75,24.125)" />
<path d="M0 0 C2.31 0 4.62 0 7 0 C6.64947365 3.15473719 6.13480924 4.8233534 4.1875 7.375 C2 9 2 9 -0.25 8.75 C-0.53875 8.62625 -0.53875 8.62625 -2 8 C-3.125 4.25 -3.125 4.25 -2 2 C-1.34 2 -0.68 2 0 2 C0 1.34 0 0.68 0 0 Z " fill="#D78917" transform="translate(43,38)" />
<path d="M0 0 C3.85045216 0.55006459 5.59599127 1.97560192 8 5 C11.15713327 11.4270213 11.3518862 16.9101448 11 24 C10.34 24 9.68 24 9 24 C8.87882812 23.20335938 8.75765625 22.40671875 8.6328125 21.5859375 C6.96836555 11.06151142 6.96836555 11.06151142 5 6 C4.34 6 3.68 6 3 6 C3 4.68 3 3.36 3 2 C2.01 1.67 1.02 1.34 0 1 C0 0.67 0 0.34 0 0 Z " fill="#79230A" transform="translate(67,24)" />
<path d="M0 0 C2.32719845 0.22108385 4.65454977 0.42965706 6.984375 0.62109375 C9 1 9 1 12 3 C4.08 3.33 -3.84 3.66 -12 4 C-12 2.68 -12 1.36 -12 0 C-7.69522364 -1.17402992 -4.37321089 -0.72886848 0 0 Z " fill="#DA573B" transform="translate(55,22)" />
<path d="M0 0 C0.99 0.33 1.98 0.66 3 1 C1.54712339 2.33927721 0.08752741 3.67126847 -1.375 5 C-2.18710937 5.7425 -2.99921875 6.485 -3.8359375 7.25 C-6 9 -6 9 -8 9 C-7.88541307 10.43836751 -7.75790884 11.87570966 -7.625 13.3125 C-7.55539063 14.11300781 -7.48578125 14.91351563 -7.4140625 15.73828125 C-7 18 -7 18 -5 21 C-5.375 23.6875 -5.375 23.6875 -6 26 C-6.33 26 -6.66 26 -7 26 C-7.309375 24.865625 -7.61875 23.73125 -7.9375 22.5625 C-9 19 -9 19 -10 18 C-10.81882587 14.81013924 -10.86691673 12.18192343 -10 9 C-7.01961266 5.52897096 -3.64362451 2.7522378 0 0 Z " fill="#6D3D1C" transform="translate(25,23)" />
<path d="M0 0 C0.33 0 0.66 0 1 0 C1 4.62 1 9.24 1 14 C0.34 13.67 -0.32 13.34 -1 13 C-0.67 11.68 -0.34 10.36 0 9 C-0.763125 9.474375 -1.52625 9.94875 -2.3125 10.4375 C-5 12 -5 12 -8 13 C-7.25 8.25 -7.25 8.25 -5 6 C-3.68 6 -2.36 6 -1 6 C-0.67 4.02 -0.34 2.04 0 0 Z " fill="#D5820F" transform="translate(74,36)" />
<path d="M0 0 C-0.33 0.66 -0.66 1.32 -1 2 C-3.5625 2.625 -3.5625 2.625 -6 3 C-6 4.98 -6 6.96 -6 9 C-6.66 9.33 -6.66 9.33 -10 11 C-9.01 8.69 -8.02 6.38 -7 4 C-8.98 4 -10.96 4 -13 4 C-13 3.34 -13 2.68 -13 2 C-14.32 1.67 -15.64 1.34 -17 1 C-5.47835991 -0.14806378 -5.47835991 -0.14806378 0 0 Z " fill="#F3BB43" transform="translate(57,34)" />
<path d="M0 0 C0.61875 -0.00257812 0.61875 -0.00257812 3.75 -0.015625 C7 0.25 7 0.25 10 2.25 C9.34 3.9 8.68 5.55 8 7.25 C7.01 6.92 6.02 6.59 5 6.25 C4.67 4.93 4.34 3.61 4 2.25 C-0.62 2.25 -5.24 2.25 -10 2.25 C-6.32077133 -0.20281911 -4.37740649 -0.01823919 0 0 Z " fill="#DF9E29" transform="translate(55,32.75)" />
<path d="M0 0 C3.73639216 1.24546405 4.18756513 2.63404953 6 6 C4.37660195 7.70884005 2.70680947 9.37446717 1 11 C0.34 11 -0.32 11 -1 11 C-0.67 7.37 -0.34 3.74 0 0 Z " fill="#F7D66A" transform="translate(20,43)" />
<path d="M0 0 C6.39655172 -0.36206897 6.39655172 -0.36206897 8.875 1.125 C10.84729815 4.41216358 11.25241818 7.62972988 10.5625 11.375 C10.376875 11.91125 10.19125 12.4475 10 13 C9.01 13 8.02 13 7 13 C7.33 9.37 7.66 5.74 8 2 C6.02 2.66 4.04 3.32 2 4 C2 3.34 2 2.68 2 2 C1.34 1.34 0.68 0.68 0 0 Z " fill="#EB9023" transform="translate(63,29)" />
<path d="M0 0 C5.75 1.875 5.75 1.875 8 3 C8 2.34 8 1.68 8 1 C9.65 1 11.3 1 13 1 C13 1.99 13 2.98 13 4 C8.38 4.33 3.76 4.66 -1 5 C-1 1 -1 1 0 0 Z " fill="#DF6143" transform="translate(30,21)" />
<path d="M0 0 C0.74572266 0.03544922 1.49144531 0.07089844 2.25976562 0.10742188 C4.15868283 0.22297814 6.05031248 0.4471605 7.9375 0.6875 C8.2675 1.3475 8.5975 2.0075 8.9375 2.6875 C7.8753125 2.53410156 6.813125 2.38070313 5.71875 2.22265625 C-5.52739963 0.88199404 -5.52739963 0.88199404 -9.90625 3.1796875 C-11.83004987 4.91528955 -13.49862668 6.62462762 -15.0625 8.6875 C-15.3925 7.6975 -15.7225 6.7075 -16.0625 5.6875 C-10.24715997 0.75710302 -7.76787666 -0.4926629 0 0 Z " fill="#7E5D47" transform="translate(42.0625,14.3125)" />
<path d="M0 0 C-0.254496 1.48206495 -0.52911762 2.96068615 -0.8125 4.4375 C-0.96332031 5.26121094 -1.11414063 6.08492187 -1.26953125 6.93359375 C-1.39005859 7.27455078 -1.39005859 7.27455078 -2 9 C-2.99 9.33 -3.98 9.66 -5 10 C-5.12375 9.360625 -5.2475 8.72125 -5.375 8.0625 C-5.478125 7.7221875 -5.478125 7.7221875 -6 6 C-6.66 5.67 -7.32 5.34 -8 5 C-7.34 5 -6.68 5 -6 5 C-6 4.34 -6 3.68 -6 3 C-5.34 3 -4.68 3 -4 3 C-4 2.34 -4 1.68 -4 1 C-2 0 -2 0 0 0 Z " fill="#EAA62D" transform="translate(71,50)" />
<path d="M0 0 C7.26 0.33 14.52 0.66 22 1 C22 1.33 22 1.66 22 2 C5.71251932 3.90417311 5.71251932 3.90417311 0 2 C0 1.34 0 0.68 0 0 Z " fill="#EB674E" transform="translate(35,25)" />
<path d="M0 0 C1.32 0.66 2.64 1.32 4 2 C2.41727399 3.58272601 0.61965997 3.34735747 -1.5625 3.5625 C-1.97564453 3.60439453 -1.97564453 3.60439453 -4.06640625 3.81640625 C-4.38544922 3.84669922 -4.38544922 3.84669922 -6 4 C-6 5.65 -6 7.3 -6 9 C-7.32 9.33 -8.64 9.66 -10 10 C-10 8.35 -10 6.7 -10 5 C-8.35 4.34 -6.7 3.68 -5 3 C-5 2.34 -5 1.68 -5 1 C-3.35 1.33 -1.7 1.66 0 2 C0 1.34 0 0.68 0 0 Z " fill="#F7B941" transform="translate(33,65)" />
<path d="M0 0 C-5.3901979 2.57792074 -10.98370034 4.61504481 -17 5 C-17.66 4.34 -18.32 3.68 -19 3 C-6.11213235 -2.20036765 -6.11213235 -2.20036765 0 0 Z " fill="#D38B24" transform="translate(68,63)" />
<path d="M0 0 C-3.37148985 2.2476599 -5.9237222 2.79798837 -9.875 3.625 C-11.08929688 3.88539062 -12.30359375 4.14578125 -13.5546875 4.4140625 C-16.47090842 4.91001844 -19.05617097 5.12312593 -22 5 C-18.47893171 3.05460977 -14.8524463 1.94293181 -11 0.8125 C-9.783125 0.44769531 -8.56625 0.08289063 -7.3125 -0.29296875 C-4.27118248 -0.94211789 -2.83488355 -1.11269179 0 0 Z " fill="#7F5F41" transform="translate(67,67)" />
<path d="M0 0 C0.66 0 1.32 0 2 0 C1.1381848 3.23180698 0.51738545 5.48261455 -1.875 7.875 C-4 9 -4 9 -8 9 C-6.73786958 5.21360875 -5.34654649 4.95895404 -2 3 C-1.34 2.01 -0.68 1.02 0 0 Z " fill="#FEE376" transform="translate(52,40)" />
<path d="M0 0 C0.680625 -0.00515625 1.36125 -0.0103125 2.0625 -0.015625 C4 0.25 4 0.25 7 2.25 C6.25234375 2.37117188 5.5046875 2.49234375 4.734375 2.6171875 C3.74953125 2.78476562 2.7646875 2.95234375 1.75 3.125 C0.77546875 3.28742187 -0.1990625 3.44984375 -1.203125 3.6171875 C-3.77264117 4.19855848 -5.72071056 4.95840265 -8 6.25 C-7.6875 4.375 -7.6875 4.375 -7 2.25 C-4.00261059 0.25174039 -3.36652492 -0.02550398 0 0 Z " fill="#C24D34" transform="translate(39,16.75)" />
<path d="M0 0 C1.98 0 3.96 0 6 0 C5.42655063 2.86724686 5.1385485 3.8614515 3 6 C1.68 6 0.36 6 -1 6 C-0.67 4.02 -0.34 2.04 0 0 Z " fill="#BF740D" transform="translate(29,54)" />
<path d="M0 0 C6.08233706 0.67581523 12.01314152 1.73638028 18 3 C18 4.32 18 5.64 18 7 C17.31550781 6.71382812 16.63101563 6.42765625 15.92578125 6.1328125 C12.71638749 4.89019008 9.48089886 3.87299966 6.1875 2.875 C5.02605469 2.52179687 3.86460938 2.16859375 2.66796875 1.8046875 C1.78753906 1.53914063 0.90710937 1.27359375 0 1 C0 0.67 0 0.34 0 0 Z " fill="#7F5B44" transform="translate(51,17)" />
<path d="M0 0 C0 0.33 0 0.66 0 1 C-12.27902622 3.48689139 -12.27902622 3.48689139 -18 3 C-18.66 2.34 -19.32 1.68 -20 1 C-13.30324864 -0.03026944 -6.7685324 -0.10152799 0 0 Z " fill="#FB7E66" transform="translate(59,27)" />
<path d="M0 0 C0.66 0 1.32 0 2 0 C3.32 2.64 4.64 5.28 6 8 C4.68 8 3.36 8 2 8 C-0.1519437 4.77208445 -0.20086443 3.71599191 0 0 Z " fill="#F4CC74" transform="translate(17,36)" />
<path d="M0 0 C0.79921875 0.02707031 1.5984375 0.05414062 2.421875 0.08203125 C3.02515625 0.11683594 3.6284375 0.15164062 4.25 0.1875 C4.25 0.8475 4.25 1.5075 4.25 2.1875 C2.105 2.3525 2.105 2.3525 -8.75 3.1875 C-4.25 -0.1875 -4.25 -0.1875 0 0 Z " fill="#F77864" transform="translate(30.75,27.8125)" />
<path d="M0 0 C0.99 0.33 1.98 0.66 3 1 C2.34 3.97 1.68 6.94 1 10 C0.34 10 -0.32 10 -1 10 C-1.125 3.375 -1.125 3.375 0 0 Z " fill="#EFD57F" transform="translate(21,63)" />
<path d="M0 0 C3.78611227 0.54087318 5.55400767 2.11722332 8 5 C8 5.66 8 6.32 8 7 C6.35 6.67 4.7 6.34 3 6 C3 4.68 3 3.36 3 2 C2.01 1.67 1.02 1.34 0 1 C0 0.67 0 0.34 0 0 Z " fill="#7E2E14" transform="translate(67,24)" />
<path d="M0 0 C2.0625 0.4375 2.0625 0.4375 4 1 C2.71937515 2.7074998 1.38232443 4.37373596 0 6 C-0.66 6 -1.32 6 -2 6 C-1.125 1.125 -1.125 1.125 0 0 Z " fill="#B6650B" transform="translate(68,43)" />
<path d="M0 0 C1.65 0.33 1.65 0.33 10 2 C6.23312136 3.88343932 4.97041037 4.22057835 1 4 C0.67 2.68 0.34 1.36 0 0 Z " fill="#C54B34" transform="translate(49,19)" />
<path d="M0 0 C1.65 0.33 3.3 0.66 5 1 C4.67 1.99 4.34 2.98 4 4 C2.02 4 0.04 4 -2 4 C-1.34 2.68 -0.68 1.36 0 0 Z " fill="#F2B246" transform="translate(55,58)" />
<path d="M0 0 C1.65 0 3.3 0 5 0 C4.67 1.65 4.34 3.3 4 5 C3.01 5 2.02 5 1 5 C0.67 3.35 0.34 1.7 0 0 Z " fill="#BD7208" transform="translate(45,38)" />
<path d="M0 0 C1.32 0 2.64 0 4 0 C4 1.65 4 3.3 4 5 C3.67 5.165 3.67 5.165 2 6 C2 5.34 2 4.68 2 4 C1.01 3.67 0.02 3.34 -1 3 C-0.67 2.01 -0.34 1.02 0 0 Z " fill="#F0B41C" transform="translate(67,31)" />
<path d="M0 0 C1.32 0.66 2.64 1.32 4 2 C4 2.99 4 3.98 4 5 C2.35 5 0.7 5 -1 5 C-0.67 3.35 -0.34 1.7 0 0 Z " fill="#EDBE47" transform="translate(59,43)" />
<path d="M0 0 C0.99 0.33 1.98 0.66 3 1 C2.67 4.63 2.34 8.26 2 12 C1.67 12 1.34 12 1 12 C0.67 8.04 0.34 4.08 0 0 Z " fill="#D2B166" transform="translate(18,50)" />
<path d="M0 0 C0.99 0 1.98 0 3 0 C3 0.66 3 1.32 3 2 C-1.47058824 6 -1.47058824 6 -4 6 C-2.84826645 3.53199953 -1.95216435 1.95216435 0 0 Z " fill="#EFAD41" transform="translate(71,45)" />
<path d="M0 0 C0.66 0 1.32 0 2 0 C2.33 1.98 2.66 3.96 3 6 C1.68 6.33 0.36 6.66 -1 7 C-1.33 5.35 -1.66 3.7 -2 2 C-1.34 2 -0.68 2 0 2 C0 1.34 0 0.68 0 0 Z " fill="#6B5B46" transform="translate(16,44)" />
<path d="M0 0 C2 2 2 2 2.3125 4.375 C2 7 2 7 -1 11 C-0.67 7.37 -0.34 3.74 0 0 Z " fill="#FCF1A2" transform="translate(20,43)" />
<path d="M0 0 C-1.485 0.495 -1.485 0.495 -9 3 C-9 2.01 -9 1.02 -9 0 C-5.32431536 -0.91892116 -3.83619425 -0.95904856 0 0 Z " fill="#F1A31D" transform="translate(52,65)" />
<path d="M0 0 C0.66 0.33 1.32 0.66 2 1 C1.1875 3.9375 1.1875 3.9375 0 7 C-0.99 7.33 -1.98 7.66 -3 8 C-3 6.68 -3 5.36 -3 4 C-2.34 4 -1.68 4 -1 4 C-0.67 2.68 -0.34 1.36 0 0 Z " fill="#EA9B13" transform="translate(69,52)" />
</svg>