<?xml version='1.0' encoding='utf-8'?>
<svg xmlns="http://www.w3.org/2000/svg" version="1.1" width="97" height="99">
<path d="M0 0 C0.165 0.33 0.165 0.33 1 2 C-0.98 2.66 -2.96 3.32 -5 4 C-4.61908203 3.92330078 -4.61908203 3.92330078 -2.69140625 3.53515625 C5.54747939 2.29058052 5.54747939 2.29058052 9.6953125 4.31640625 C13.71520821 7.38771271 16.84054399 10.36698529 19 15 C20.40403113 25.64451507 19.53805106 34.19722198 13 43 C12.32324219 43.93457031 11.64648438 44.86914062 10.94921875 45.83203125 C4.41798687 54.312192 -4.1933156 63.45064864 -15 66 C-27.95393679 67.17150988 -27.95393679 67.17150988 -32.44921875 64.59765625 C-34 63 -34 63 -34 61 C-34.66 61 -35.32 61 -36 61 C-37.4239869 59.28480923 -38.7663216 57.5012088 -40.0625 55.6875 C-40.77535156 54.70136719 -41.48820312 53.71523437 -42.22265625 52.69921875 C-45.85864618 47.17730877 -45.49060673 41.41172243 -45 35 C-42.9375 29.46875 -42.9375 29.46875 -40 28 C-40.06960937 27.21496094 -40.13921875 26.42992188 -40.2109375 25.62109375 C-40.70914137 15.95356622 -40.70914137 15.95356622 -37.625 11.8125 C-34.20207589 8.42217517 -30.8968864 8.36665767 -26.25 8.2421875 C-23.12092072 7.90537688 -22.13076005 6.20178538 -20 4 C-17.24621368 3.64104342 -14.79251169 3.81383255 -12 4 C-12 3.34 -12 2.68 -12 2 C-8.09971775 -0.60018816 -4.52565431 -0.15085514 0 0 Z " fill="#785C17" transform="translate(61,18)" />
<path d="M0 0 C1.3125 3.625 1.3125 3.625 2 7 C-2.875 5.25 -2.875 5.25 -4 3 C-4.66 3 -5.32 3 -6 3 C-6.0515625 3.71542969 -6.103125 4.43085937 -6.15625 5.16796875 C-7.40926201 16.17454018 -12.78393172 25.94929358 -20.94140625 33.50390625 C-28.77092266 39.19404816 -36.40215635 42.18457392 -46 42 C-46.17440451 33.62858337 -45.50834223 26.02669514 -43 18 C-41.80375 17.87625 -40.6075 17.7525 -39.375 17.625 C-35.72403187 17.17674946 -32.45475101 16.29553163 -29 15 C-28.95875 14.175 -28.9175 13.35 -28.875 12.5 C-27.67396056 7.69584224 -25.59490099 4.40688315 -22 1 C-15.78092855 -2.45376477 -6.18656739 -4.18503088 0 0 Z " fill="#70664E" transform="translate(75,30)" />
<path d="M0 0 C0.165 0.33 0.165 0.33 1 2 C-1.64 2.66 -4.28 3.32 -7 4 C-6.21625 4.103125 -5.4325 4.20625 -4.625 4.3125 C-2 5 -2 5 0 8 C-1.11375 8.226875 -2.2275 8.45375 -3.375 8.6875 C-7 10 -7 10 -8.1875 12.25 C-8.455625 13.1575 -8.72375 14.065 -9 15 C-9.66 15.969375 -10.32 16.93875 -11 17.9375 C-13 21 -13 21 -13.875 24.1875 C-15 27 -15 27 -17.625 28.875 C-21.71498327 30.23832776 -24.71230361 30.2217774 -29 30 C-29 31.98 -29 33.96 -29 36 C-29.495 36.165 -29.495 36.165 -32 37 C-32.94921875 40.16015625 -32.94921875 40.16015625 -33.6875 44.0625 C-33.93886719 45.35285156 -34.19023438 46.64320312 -34.44921875 47.97265625 C-34.63097656 48.97167969 -34.81273437 49.97070312 -35 51 C-37.36661433 47.45007851 -37.75511657 45.09815691 -37 41 C-35.54167667 37.22461939 -33.82753392 33.60937949 -32 30 C-32.66 30 -33.32 30 -34 30 C-34 30.66 -34 31.32 -34 32 C-34.66 32 -35.32 32 -36 32 C-36.19335938 32.77085938 -36.38671875 33.54171875 -36.5859375 34.3359375 C-36.84632812 35.33882812 -37.10671875 36.34171875 -37.375 37.375 C-37.63023438 38.37273438 -37.88546875 39.37046875 -38.1484375 40.3984375 C-39 43 -39 43 -41 45 C-41 44.34 -41 43.68 -41 43 C-41.66 43 -42.32 43 -43 43 C-43.48539326 34.91011236 -43.48539326 34.91011236 -41.5 31.1875 C-39.82331966 27.62455428 -39.97155566 25.930303 -40.1875 22.0625 C-40.27587252 17.88299981 -40.15000882 15.21669016 -37.625 11.8125 C-34.20207589 8.42217517 -30.8968864 8.36665767 -26.25 8.2421875 C-23.12092072 7.90537688 -22.13076005 6.20178538 -20 4 C-17.24621368 3.64104342 -14.79251169 3.81383255 -12 4 C-12 3.34 -12 2.68 -12 2 C-8.09971775 -0.60018816 -4.52565431 -0.15085514 0 0 Z " fill="#D7D9E4" transform="translate(61,18)" />
<path d="M0 0 C0.825 0.33 0.825 0.33 5 2 C5 2.66 5 3.32 5 4 C6.32 4 7.64 4 9 4 C9.52689556 13.13285638 4.54414785 20.5715287 -1.25 27.3125 C-8.06792083 34.45234627 -15.68686267 40.79635041 -25.875 41.125 C-26.90625 41.08375 -27.9375 41.0425 -29 41 C-28.835 40.01 -28.835 40.01 -28 35 C-28.99 35 -29.98 35 -31 35 C-30 32 -30 32 -27.0859375 30.421875 C-25.85095079 29.86018177 -24.61384064 29.30314132 -23.375 28.75 C-11.83590462 23.23534359 -5.12286389 14.77860434 -0.80078125 2.62890625 C-0.53652344 1.76136719 -0.27226563 0.89382812 0 0 Z " fill="#FBF9C1" transform="translate(68,39)" />
<path d="M0 0 C0.165 0.33 0.165 0.33 1 2 C-1.64 2.66 -4.28 3.32 -7 4 C-6.608125 4.0515625 -6.608125 4.0515625 -4.625 4.3125 C-2 5 -2 5 0 8 C-0.89203125 8.29132812 -1.7840625 8.58265625 -2.703125 8.8828125 C-13.45851217 12.64956704 -13.45851217 12.64956704 -15.75 16 C-16.880109 18.71226161 -17.65714469 21.08572983 -18 24 C-22.54498441 25.5149948 -28.44216047 25.85689759 -33 24 C-35.3649042 22.31078271 -35.9201684 21.44477606 -36.4375 18.5625 C-35.84464352 15.09005488 -34.85227904 14.04779008 -32 12 C-28.25 11.25 -28.25 11.25 -25 11 C-25.33 10.34 -25.66 9.68 -26 9 C-21.17970402 4.17970402 -21.17970402 4.17970402 -17.8203125 3.66796875 C-15.8771309 3.68525684 -13.93607771 3.83309675 -12 4 C-12 3.34 -12 2.68 -12 2 C-8.09971775 -0.60018816 -4.52565431 -0.15085514 0 0 Z " fill="#F5E995" transform="translate(61,18)" />
<path d="M0 0 C0.67160156 0.48984375 1.34320313 0.9796875 2.03515625 1.484375 C5.07597848 4.30665764 6.72363715 6.88782853 7.37109375 11.01171875 C7.38075128 18.24520846 6.15197207 23.76365457 2.9375 30.25 C2.2775 29.92 1.6175 29.59 0.9375 29.25 C1.246875 28.54875 1.55625 27.8475 1.875 27.125 C2.97052678 24.16063343 3.50172992 21.37301892 3.9375 18.25 C2.6175 18.25 1.2975 18.25 -0.0625 18.25 C-0.3925 17.59 -0.7225 16.93 -1.0625 16.25 C-3.125 15.125 -3.125 15.125 -5.0625 14.25 C-5.0625 12.27 -5.0625 10.29 -5.0625 8.25 C-3.7425 8.25 -2.4225 8.25 -1.0625 8.25 C-1.0625 8.91 -1.0625 9.57 -1.0625 10.25 C0.2575 10.58 1.5775 10.91 2.9375 11.25 C2.6075 9.27 2.2775 7.29 1.9375 5.25 C-5.74376256 3.32968436 -12.54317334 4.30054494 -20.0625 6.25 C-19.7325 5.26 -19.4025 4.27 -19.0625 3.25 C-16.5 2.0625 -16.5 2.0625 -14.0625 1.25 C-15.0525 -0.07 -16.0425 -1.39 -17.0625 -2.75 C-15.64706585 -2.94658808 -14.23005969 -3.13187546 -12.8125 -3.3125 C-12.02359375 -3.41691406 -11.2346875 -3.52132813 -10.421875 -3.62890625 C-6.04391833 -3.8536027 -3.4713398 -2.59514421 0 0 Z " fill="#9B6F11" transform="translate(73.0625,24.75)" />
<path d="M0 0 C0.66 0 1.32 0 2 0 C1.52269162 1.4589426 1.04308958 2.91713496 0.5625 4.375 C0.29566406 5.18710937 0.02882813 5.99921875 -0.24609375 6.8359375 C-1 9 -1 9 -2 11 C-2.04022391 13.3329866 -2.04320247 15.66706666 -2 18 C-1.80664062 17.37351562 -1.61328125 16.74703125 -1.4140625 16.1015625 C-1.28386719 15.69292969 -1.28386719 15.69292969 -0.625 13.625 C-0.49738281 13.21894531 -0.49738281 13.21894531 0.1484375 11.1640625 C1 9 1 9 3 7 C2.67 12.61 2.34 18.22 2 24 C4.97 23.67 7.94 23.34 11 23 C10.67 23.99 10.34 24.98 10 26 C10.99 26 11.98 26 13 26 C13 27.65 13 29.3 13 31 C14.65 31.33 16.3 31.66 18 32 C14.47008011 34.35327993 12.55120512 34.61040598 8.40234375 34.49609375 C0.98382792 32.96414007 -3.6620544 25.12632915 -7.75 19.33203125 C-9 17 -9 17 -9 13 C-8.01 13 -7.02 13 -6 13 C-5.79503906 12.37351562 -5.59007812 11.74703125 -5.37890625 11.1015625 C-5.10949219 10.28429688 -4.84007812 9.46703125 -4.5625 8.625 C-4.29566406 7.81289063 -4.02882813 7.00078125 -3.75390625 6.1640625 C-3 4 -3 4 -2 2 C-1.34 2 -0.68 2 0 2 C0 1.34 0 0.68 0 0 Z " fill="#A1750B" transform="translate(27,48)" />
<path d="M0 0 C0.3609375 0.226875 0.3609375 0.226875 2.1875 1.375 C4.74894081 2.85494358 7.23277989 3.97217539 10 5 C10 6.98 10 8.96 10 11 C9.01 11.33 8.02 11.66 7 12 C6.05078125 15.16015625 6.05078125 15.16015625 5.3125 19.0625 C5.06113281 20.35285156 4.80976563 21.64320312 4.55078125 22.97265625 C4.36902344 23.97167969 4.18726563 24.97070312 4 26 C1.63338567 22.45007851 1.24488343 20.09815691 2 16 C3.45832333 12.22461939 5.17246608 8.60937949 7 5 C6.34 5 5.68 5 5 5 C5 5.66 5 6.32 5 7 C4.34 7 3.68 7 3 7 C2.80664062 7.77085938 2.61328125 8.54171875 2.4140625 9.3359375 C2.15367188 10.33882812 1.89328125 11.34171875 1.625 12.375 C1.36976562 13.37273438 1.11453125 14.37046875 0.8515625 15.3984375 C0 18 0 18 -2 20 C-2 19.34 -2 18.68 -2 18 C-2.66 18 -3.32 18 -4 18 C-4.45164525 10.88658735 -3.32797915 6.28453206 0 0 Z " fill="#F4D157" transform="translate(22,43)" />
<path d="M0 0 C0 4 0 4 -1 7 C-1.99 7.33 -2.98 7.66 -4 8 C-4.66 7.34 -5.32 6.68 -6 6 C-8.50037734 8.17424117 -9.43628586 9.73045798 -10 13 C-10.99 13 -11.98 13 -13 13 C-13 12.34 -13 11.68 -13 11 C-16.56927631 12.66566228 -19.28953038 14.1540069 -22 17 C-22.66 17 -23.32 17 -24 17 C-24.35205968 13.8314629 -24.28286337 12.40732325 -22.4375 9.75 C-19.32665983 7.51657629 -16.77258731 7.29019902 -13 7 C-13.33 6.34 -13.66 5.68 -14 5 C-9.20407947 0.20407947 -6.75190546 -0.58206082 0 0 Z " fill="#BEC1AD" transform="translate(49,22)" />
<path d="M0 0 C0.825 0.33 0.825 0.33 5 2 C5 2.66 5 3.32 5 4 C6.32 4 7.64 4 9 4 C9.38281159 9.23175837 8.21854707 12.37802694 6 17 C4.125 16.6875 4.125 16.6875 2 16 C1.34 15.01 0.68 14.02 0 13 C-0.66 13.33 -0.66 13.33 -4 15 C-4.66 14.34 -5.32 13.68 -6 13 C-5.38125 11.96875 -4.7625 10.9375 -4.125 9.875 C-2.29301955 6.68527517 -1.0364253 3.54111979 0 0 Z " fill="#F2D85E" transform="translate(68,39)" />
<path d="M0 0 C-0.66 0.66 -1.32 1.32 -2 2 C-2 2.99 -2 3.98 -2 5 C-1.67 5.33 -1.34 5.66 -1 6 C-1 6.99 -1 7.98 -1 9 C-5.50353262 10.75747614 -9.17639811 11.19294408 -14 11 C-13.67 9.02 -13.34 7.04 -13 5 C-13.99 5 -14.98 5 -16 5 C-15 2 -15 2 -13.14453125 0.76171875 C-8.09847072 -1.56268099 -5.26415043 -2.69956432 0 0 Z " fill="#F7DE5F" transform="translate(53,69)" />
<path d="M0 0 C0.66 0.66 1.32 1.32 2 2 C1 3 1 3 -2.375 3.375 C-6 4 -6 4 -7.875 5.25 C-9.29035995 7.45167104 -9.65198447 9.42468508 -10 12 C-9.01 12.33 -8.02 12.66 -7 13 C-7 13.66 -7 14.32 -7 15 C-4.03 15.33 -1.06 15.66 2 16 C2 16.33 2 16.66 2 17 C1.4534375 17.1546875 1.4534375 17.1546875 -1.3125 17.9375 C-3.55407994 18.58337897 -5.7869351 19.2623117 -8 20 C-10.66712132 18.37880861 -12.17055724 17.41076102 -14 15 C-14.81272807 10.80090499 -14.87926784 8.68844912 -12.921875 4.9296875 C-9.12774074 -0.21949471 -6.23073134 -0.9346097 0 0 Z " fill="#C7CDD7" transform="translate(35,27)" />
<path d="M0 0 C3.19666736 2.16245145 3.38065623 4.78344876 4.125 8.4375 C-0.75 6.6875 -0.75 6.6875 -1.875 4.4375 C-2.535 4.4375 -3.195 4.4375 -3.875 4.4375 C-3.94976562 5.18773437 -4.02453125 5.93796875 -4.1015625 6.7109375 C-5.08781863 14.38826465 -7.11315417 20.26521614 -11.875 26.4375 C-12.535 26.7675 -13.195 27.0975 -13.875 27.4375 C-12.75048273 24.4655615 -11.65206209 22.10309313 -9.875 19.4375 C-9.4609375 17.17578125 -9.4609375 17.17578125 -9.25 14.75 C-9.17523438 13.94175781 -9.10046875 13.13351563 -9.0234375 12.30078125 C-8.97445312 11.68589844 -8.92546875 11.07101563 -8.875 10.4375 C-8.215 10.4375 -7.555 10.4375 -6.875 10.4375 C-6.875 7.4675 -6.875 4.4975 -6.875 1.4375 C-8.50066606 1.91440204 -10.12551311 2.39409666 -11.75 2.875 C-12.65492187 3.14183594 -13.55984375 3.40867187 -14.4921875 3.68359375 C-16.875 4.4375 -16.875 4.4375 -18.875 5.4375 C-19.205 4.4475 -19.535 3.4575 -19.875 2.4375 C-12.92416795 -0.26560135 -7.44501091 -1.45663257 0 0 Z " fill="#6C4D0C" transform="translate(72.875,28.5625)" />
<path d="M0 0 C10.00549138 -1.32642357 15.32878487 0.65662276 23.125 6.4453125 C26.94900365 9.84327227 30.35033889 13.05101668 32 18 C32.23887949 22.37945725 32.12324394 25.18151782 30 29 C29.97421875 28.20335938 29.9484375 27.40671875 29.921875 26.5859375 C29.33813536 15.68061973 29.33813536 15.68061973 25 11 C24.57332031 10.505 24.14664063 10.01 23.70703125 9.5 C20.60409628 6.56457566 18.53804634 6.01220311 14.2109375 5.9140625 C10.45097595 6.10618383 6.7325289 6.51481928 3 7 C3.33 6.34 3.66 5.68 4 5 C6.3140622 4.26924352 8.64828869 3.59861742 11 3 C2.42857143 2.85714286 2.42857143 2.85714286 -1 4 C-0.67 2.68 -0.34 1.36 0 0 Z " fill="#674F15" transform="translate(50,16)" />
<path d="M0 0 C0.30679688 0.22751953 0.30679688 0.22751953 1.859375 1.37890625 C2.31828125 1.72824219 2.7771875 2.07757813 3.25 2.4375 C1.25 4.4375 1.25 4.4375 -1.25390625 4.5625 C-1.75857422 4.541875 -1.75857422 4.541875 -4.3125 4.4375 C-9.82477571 4.33111108 -14.43546837 5.02029156 -19.75 6.4375 C-19.42 5.4475 -19.09 4.4575 -18.75 3.4375 C-16.1875 2.25 -16.1875 2.25 -13.75 1.4375 C-14.74 0.1175 -15.73 -1.2025 -16.75 -2.5625 C-15.33456585 -2.75908808 -13.91755969 -2.94437546 -12.5 -3.125 C-11.71109375 -3.22941406 -10.9221875 -3.33382813 -10.109375 -3.44140625 C-5.86886422 -3.65904836 -3.3572141 -2.51791058 0 0 Z " fill="#AA7A0F" transform="translate(72.75,24.5625)" />
<path d="M0 0 C1.258125 -0.020625 2.51625 -0.04125 3.8125 -0.0625 C4.52019531 -0.07410156 5.22789063 -0.08570313 5.95703125 -0.09765625 C8 0 8 0 11 1 C11 1.66 11 2.32 11 3 C8.03 3 5.06 3 2 3 C1.505 6.135 1.505 6.135 -1 22 C1.041875 21.566875 3.08375 21.13375 5.1875 20.6875 C6.33605469 20.44386719 7.48460937 20.20023438 8.66796875 19.94921875 C11.89289047 19.03051303 14.15842357 17.72109692 17 16 C17.66 16.33 18.32 16.66 19 17 C11.81812166 21.88740812 5.88780667 24.36276762 -3 24 C-3.17440451 15.62858337 -2.50834223 8.02669514 0 0 Z " fill="#694D0F" transform="translate(32,48)" />
<path d="M0 0 C1.5 1.375 1.5 1.375 3 3 C3 3.66 3 4.32 3 5 C3.99 5 4.98 5 6 5 C5.39816251 7.02045442 4.72693904 9.02111039 4 11 C2 12 2 12 0.08984375 11.58203125 C-0.62042969 11.32808594 -1.33070312 11.07414062 -2.0625 10.8125 C-2.77535156 10.57144531 -3.48820312 10.33039062 -4.22265625 10.08203125 C-6 9 -6 9 -6.74609375 6.88671875 C-6.82988281 6.26410156 -6.91367187 5.64148437 -7 5 C-4.35261084 3.5393715 -3.10551666 3 0 3 C0 2.01 0 1.02 0 0 Z " fill="#F9EA72" transform="translate(67,50)" />
<path d="M0 0 C0.66 0.33 1.32 0.66 2 1 C1.7628125 1.2784375 1.7628125 1.2784375 0.5625 2.6875 C-1.12395996 5.18346074 -1.58953107 7.0446237 -2 10 C-4.75078884 10.91692961 -6.35948913 11.10886083 -9.1875 11.0625 C-9.8165625 11.0521875 -9.8165625 11.0521875 -13 11 C-11.49260007 6.95334899 -9.09765041 5.4360315 -5.5 3.1875 C-4.5203125 2.56230469 -3.540625 1.93710937 -2.53125 1.29296875 C-1.6959375 0.86628906 -0.860625 0.43960938 0 0 Z " fill="#6F592A" transform="translate(45,32)" />
<path d="M0 0 C0.33 0.99 0.66 1.98 1 3 C0.67 3.66 0.34 4.32 0 5 C-0.91372686 12.14368275 -0.89973088 17.61100323 3.4375 23.5625 C4.07558594 24.32691406 4.71367187 25.09132813 5.37109375 25.87890625 C6.9970215 27.99612152 7.58071361 29.39570001 8 32 C7.34 32 6.68 32 6 32 C4.5760131 30.28480923 3.2336784 28.5012088 1.9375 26.6875 C1.22464844 25.70136719 0.51179688 24.71523437 -0.22265625 23.69921875 C-3.8530234 18.18584797 -3.50624711 12.40402596 -3 6 C-2.24784645 3.62546872 -1.39125226 2.08687839 0 0 Z " fill="#654B0D" transform="translate(19,47)" />
<path d="M0 0 C0.103125 0.639375 0.20625 1.27875 0.3125 1.9375 C0.539375 2.618125 0.76625 3.29875 1 4 C1.99 4.33 2.98 4.66 4 5 C4 5.66 4 6.32 4 7 C6.97 7.33 9.94 7.66 13 8 C13 8.33 13 8.66 13 9 C11.906875 9.309375 10.81375 9.61875 9.6875 9.9375 C7.44592006 10.58337897 5.2130649 11.2623117 3 12 C-0.1875 9.6875 -0.1875 9.6875 -3 7 C-3 6.34 -3 5.68 -3 5 C-2.34 5 -1.68 5 -1 5 C-0.67 3.35 -0.34 1.7 0 0 Z " fill="#C3C4C5" transform="translate(24,35)" />
<path d="M0 0 C0.33 0.66 0.66 1.32 1 2 C-1.64 2.66 -4.28 3.32 -7 4 C-6.34 5.32 -5.68 6.64 -5 8 C-6 9 -6 9 -8.5625 9.0625 C-9.366875 9.041875 -10.17125 9.02125 -11 9 C-11.33 6.69 -11.66 4.38 -12 2 C-8.09971775 -0.60018816 -4.52565431 -0.15085514 0 0 Z " fill="#DCBF56" transform="translate(61,18)" />
<path d="M0 0 C2.91517292 1.07401108 4.77810176 1.77810176 7 4 C6.70630173 5.34262065 6.3721042 6.67696283 6 8 C6.33 8.66 6.66 9.32 7 10 C5.02253397 10.73080266 3.01927511 11.39421747 1 12 C0.34 11.67 -0.32 11.34 -1 11 C-1 10.34 -1 9.68 -1 9 C-0.34 8.67 0.32 8.34 1 8 C1 5 1 5 -0.5 3.3125 C-0.995 2.879375 -1.49 2.44625 -2 2 C-1.34 1.34 -0.68 0.68 0 0 Z " fill="#FAF07C" transform="translate(50,65)" />
<path d="M0 0 C0.66 0 1.32 0 2 0 C1.3808361 2.584859 0.75492318 5.16776172 0.125 7.75 C-0.04902344 8.47960938 -0.22304688 9.20921875 -0.40234375 9.9609375 C-1.27908598 13.53285028 -2.12686823 16.79373841 -4 20 C-5.52067895 15.43796316 -5.7673007 11.84044854 -3.8828125 7.3203125 C-2.64212667 4.84595037 -1.35854865 2.41142385 0 0 Z " fill="#EBBE4C" transform="translate(29,49)" />
<path d="M0 0 C2.125 0.9375 2.125 0.9375 4 2 C4 3.32 4 4.64 4 6 C4.66 6 5.32 6 6 6 C6 7.32 6 8.64 6 10 C3.69 10 1.38 10 -1 10 C-0.67 8.02 -0.34 6.04 0 4 C-0.99 4 -1.98 4 -3 4 C-2.67 3.01 -2.34 2.02 -2 1 C-1.34 0.67 -0.68 0.34 0 0 Z " fill="#ECC541" transform="translate(40,70)" />
<path d="M0 0 C1.32 1.65 2.64 3.3 4 5 C0.67692308 8.93846154 0.67692308 8.93846154 -2.75 9.25 C-3.4925 9.1675 -4.235 9.085 -5 9 C-5.33 7.68 -5.66 6.36 -6 5 C-4.02 3.35 -2.04 1.7 0 0 Z " fill="#E3D787" transform="translate(33,33)" />
<path d="M0 0 C0.825 0.33 0.825 0.33 5 2 C5 2.66 5 3.32 5 4 C6.32 4 7.64 4 9 4 C9 5.98 9 7.96 9 10 C8.525625 9.8246875 8.525625 9.8246875 6.125 8.9375 C3 8 3 8 1 9 C1 7.35 1 5.7 1 4 C0.34 4 -0.32 4 -1 4 C-0.67 2.68 -0.34 1.36 0 0 Z " fill="#E0B430" transform="translate(68,39)" />
<path d="M0 0 C0.721875 0.804375 1.44375 1.60875 2.1875 2.4375 C5.02515689 5.02292072 6.27166147 5.68042813 10 6 C4.85714286 11.57142857 4.85714286 11.57142857 1 12 C1.33 10.35 1.66 8.7 2 7 C0.35 5.68 -1.3 4.36 -3 3 C-2.01 2.01 -1.02 1.02 0 0 Z " fill="#FAF69A" transform="translate(54,62)" />
<path d="M0 0 C0.66 0.66 1.32 1.32 2 2 C1.360625 2.9075 0.72125 3.815 0.0625 4.75 C-2 8 -2 8 -2.5 10.125 C-3.23634808 12.88630532 -4.86138276 14.18541567 -7 16 C-7.66 16 -8.32 16 -9 16 C-9 15.01 -9 14.02 -9 13 C-7.68 12.67 -6.36 12.34 -5 12 C-5 11.01 -5 10.02 -5 9 C-5.66 8.67 -6.32 8.34 -7 8 C-6.34 8 -5.68 8 -5 8 C-4.9175 7.05125 -4.835 6.1025 -4.75 5.125 C-4 2 -4 2 -1.9375 0.625 C-1.298125 0.41875 -0.65875 0.2125 0 0 Z " fill="#6C603D" transform="translate(62,46)" />
<path d="M0 0 C0.66 0 1.32 0 2 0 C2.54195705 10.9194309 0.63977694 17.38623533 -6 26 C-6 23 -6 23 -4.5625 20.875 C-2.4558687 16.99879841 -2.27481879 13.34971812 -2 9 C-1.34 9 -0.68 9 0 9 C0 6.03 0 3.06 0 0 Z " fill="#695520" transform="translate(66,30)" />
<path d="M0 0 C1.27617188 0.02320313 2.55234375 0.04640625 3.8671875 0.0703125 C4.50785156 0.07933594 4.50785156 0.07933594 7.75 0.125 C8.24371094 0.13660156 8.24371094 0.13660156 10.7421875 0.1953125 C9.45204241 2.77560269 8.39229522 3.13526941 5.7421875 4.1953125 C3.453125 4.4609375 3.453125 4.4609375 1.1171875 4.4453125 C0.34117188 4.45046875 -0.43484375 4.455625 -1.234375 4.4609375 C-3.2578125 4.1953125 -3.2578125 4.1953125 -5.2578125 2.1953125 C-3.2578125 0.1953125 -3.2578125 0.1953125 0 0 Z " fill="#E8EBEE" transform="translate(34.2578125,43.8046875)" />
<path d="M0 0 C-0.33 0.66 -0.66 1.32 -1 2 C-0.01 2 0.98 2 2 2 C2 3.65 2 5.3 2 7 C3.65 7.33 5.3 7.66 7 8 C7 8.33 7 8.66 7 9 C4.36 9 1.72 9 -1 9 C-1.33 7.35 -1.66 5.7 -2 4 C-2.66 4 -3.32 4 -4 4 C-4 3.01 -4 2.02 -4 1 C-4.99 0.67 -5.98 0.34 -7 0 C-2.25 -1.125 -2.25 -1.125 0 0 Z " fill="#C89B20" transform="translate(38,72)" />
<path d="M0 0 C0.66 0 1.32 0 2 0 C0 6 -2 12 -4 18 C-4.33 18 -4.66 18 -5 18 C-5.32712342 11.86946489 -5.39366878 7.37330889 -2 2 C-1.34 2 -0.68 2 0 2 C0 1.34 0 0.68 0 0 Z " fill="#8E5E09" transform="translate(27,48)" />
<path d="M0 0 C0.45375 0.12375 0.45375 0.12375 2.75 0.75 C1.08333333 2.41666667 -0.58333333 4.08333333 -2.25 5.75 C-2.806875 6.348125 -3.36375 6.94625 -3.9375 7.5625 C-5.25 8.75 -5.25 8.75 -7.25 8.75 C-7.61101683 5.50084855 -7.49958242 4.1147743 -5.625 1.375 C-3.25 -0.25 -3.25 -0.25 0 0 Z " fill="#4F4F4F" transform="translate(32.25,30.25)" />
<path d="M0 0 C0.66 0.99 1.32 1.98 2 3 C-6.98255814 4.44767442 -6.98255814 4.44767442 -11.125 2.625 C-11.74375 2.08875 -12.3625 1.5525 -13 1 C-13 0.67 -13 0.34 -13 0 C-11.58456585 -0.19658808 -10.16755969 -0.38187546 -8.75 -0.5625 C-7.96109375 -0.66691406 -7.1721875 -0.77132813 -6.359375 -0.87890625 C-3.92516937 -1.00384065 -2.26822395 -0.88693373 0 0 Z " fill="#E2B93A" transform="translate(69,22)" />
<path d="M0 0 C2.01822917 0.06510417 4.03645833 0.13020833 6.0546875 0.1953125 C6.0546875 1.5153125 6.0546875 2.8353125 6.0546875 4.1953125 C5.1059375 4.1540625 4.1571875 4.1128125 3.1796875 4.0703125 C0.0546875 4.1953125 0.0546875 4.1953125 -1.9453125 6.1953125 C-2.9353125 6.1953125 -3.9253125 6.1953125 -4.9453125 6.1953125 C-3.78219775 0.37973873 -3.78219775 0.37973873 0 0 Z " fill="#C7C7C6" transform="translate(42.9453125,21.8046875)" />
<path d="M0 0 C0.66 0.165 0.66 0.165 4 1 C4 1.66 4 2.32 4 3 C5.65 3 7.3 3 9 3 C9 5.64 9 8.28 9 11 C8.67 9.68 8.34 8.36 8 7 C6.68 7 5.36 7 4 7 C3.67 6.34 3.34 5.68 3 5 C0.9375 3.875 0.9375 3.875 -1 3 C-0.67 2.01 -0.34 1.02 0 0 Z " fill="#C19215" transform="translate(69,36)" />
<path d="M0 0 C-1.52994792 1.23697917 -3.05989583 2.47395833 -4.58984375 3.7109375 C-6 5 -6 5 -7 7 C-7.07033769 8.87379605 -7.0843022 10.75001102 -7.0625 12.625 C-7.05798828 13.12644531 -7.05798828 13.12644531 -7.03515625 15.6640625 C-7.02355469 16.43492188 -7.01195312 17.20578125 -7 18 C-9.49194337 15.79889352 -9.9617616 15.27859402 -10.4375 11.8125 C-9.92310902 7.32995004 -8.67391949 3.66657857 -6 0 C-3 -1 -3 -1 0 0 Z " fill="#4E4C48" transform="translate(29,27)" />
<path d="M0 0 C0.33 1.32 0.66 2.64 1 4 C3.31 4.33 5.62 4.66 8 5 C7.67 6.32 7.34 7.64 7 9 C5.68127338 8.60348083 4.37002899 8.18201309 3.0625 7.75 C2.69705078 7.63398437 2.69705078 7.63398437 0.84765625 7.046875 C-1 6 -1 6 -1.87890625 4.015625 C-1.91886719 3.35046875 -1.95882812 2.6853125 -2 2 C-1.34 1.34 -0.68 0.68 0 0 Z " fill="#F6F090" transform="translate(62,53)" />
<path d="M0 0 C1.67542976 0.28604898 3.34385343 0.61781233 5 1 C4.67 3.31 4.34 5.62 4 8 C2.68 7.67 1.36 7.34 0 7 C-0.38133299 5.0085944 -0.71325582 3.00720923 -1 1 C-0.67 0.67 -0.34 0.34 0 0 Z " fill="#F5D055" transform="translate(71,46)" />
<path d="M0 0 C0.33 0.66 0.66 1.32 1 2 C0.34 2.99 0.34 2.99 -3 8 C-4.65 7.67 -6.3 7.34 -8 7 C-7.9375 5.1875 -7.9375 5.1875 -7 3 C-3.4375 1.25 -3.4375 1.25 0 0 Z " fill="#CAC6B2" transform="translate(53,28)" />
<path d="M0 0 C1.258125 -0.020625 2.51625 -0.04125 3.8125 -0.0625 C4.52019531 -0.07410156 5.22789063 -0.08570313 5.95703125 -0.09765625 C8 0 8 0 11 1 C11 1.66 11 2.32 11 3 C8.03 3 5.06 3 2 3 C1.67 3.66 1.34 4.32 1 5 C0.67 3.35 0.34 1.7 0 0 Z " fill="#464034" transform="translate(32,48)" />
<path d="M0 0 C0.66 0 1.32 0 2 0 C1.67 2.31 1.34 4.62 1 7 C0.34 7 -0.32 7 -1 7 C-1.66 9.31 -2.32 11.62 -3 14 C-4.1750709 10.47478731 -3.72717795 9.34332144 -2.625 5.875 C-2.34914062 4.98554687 -2.07328125 4.09609375 -1.7890625 3.1796875 C-1 1 -1 1 0 0 Z " fill="#4E5154" transform="translate(52,32)" />
<path d="M0 0 C1.98 0.66 3.96 1.32 6 2 C5.34 2.66 4.68 3.32 4 4 C4 4.99 4 5.98 4 7 C3.01 7 2.02 7 1 7 C1 6.34 1 5.68 1 5 C-0.32 4.34 -1.64 3.68 -3 3 C-2.01 2.01 -1.02 1.02 0 0 Z " fill="#F5E56F" transform="translate(47,67)" />
<path d="M0 0 C0.66 0.99 1.32 1.98 2 3 C2.66 2.67 3.32 2.34 4 2 C4 5.63 4 9.26 4 13 C3.34 12.67 2.68 12.34 2 12 C1.66666667 10.33333333 1.33333333 8.66666667 1 7 C0.34 6.67 -0.32 6.34 -1 6 C-0.67 4.02 -0.34 2.04 0 0 Z " fill="#BE8F1E" transform="translate(23,63)" />
<path d="M0 0 C0.721875 0.45375 1.44375 0.9075 2.1875 1.375 C4.74894081 2.85494358 7.23277989 3.97217539 10 5 C10 6.98 10 8.96 10 11 C9.67 11.165 9.67 11.165 8 12 C8.33 10.02 8.66 8.04 9 6 C7.68 5.67 6.36 5.34 5 5 C4.67 5.66 4.34 6.32 4 7 C0 2.25 0 2.25 0 0 Z " fill="#A7914C" transform="translate(22,43)" />
<path d="M0 0 C-2.06756277 2.7972908 -3.14440371 3.02692273 -6.6875 3.6875 C-7.780625 3.790625 -8.87375 3.89375 -10 4 C-9 1 -9 1 -6.6875 -0.25 C-3.90126985 -1.0275526 -2.66561622 -0.98726527 0 0 Z " fill="#A88A1F" transform="translate(63,27)" />
<path d="M0 0 C2.49361571 1.20381448 4.68143083 2.45428722 7 4 C6.67 4.99 6.34 5.98 6 7 C4.35 7 2.7 7 1 7 C0.67 4.69 0.34 2.38 0 0 Z " fill="#C8B47B" transform="translate(49,20)" />
<path d="M0 0 C0 3 0 3 -1.75 4.82421875 C-2.4925 5.43910156 -3.235 6.05398437 -4 6.6875 C-4.7425 7.31011719 -5.485 7.93273437 -6.25 8.57421875 C-6.8275 9.04472656 -7.405 9.51523438 -8 10 C-8.66 9.67 -9.32 9.34 -10 9 C-9.0919838 7.86800647 -8.17316174 6.74467637 -7.25 5.625 C-6.73953125 4.99851562 -6.2290625 4.37203125 -5.703125 3.7265625 C-3.91800519 1.91687682 -2.32050356 0.99882545 0 0 Z " fill="#644D16" transform="translate(67,67)" />
<path d="M0 0 C-1.81115956 1.81115956 -4.61278227 1.38199448 -7.0625 1.5625 C-8.16722656 1.64628906 -9.27195313 1.73007812 -10.41015625 1.81640625 C-11.26480469 1.87699219 -12.11945312 1.93757813 -13 2 C-12 0 -12 0 -10.29296875 -0.703125 C-3.34405145 -2.50803859 -3.34405145 -2.50803859 0 0 Z " fill="#AA880F" transform="translate(66,21)" />
<path d="M0 0 C2.31 0.33 4.62 0.66 7 1 C6.67 1.495 6.67 1.495 5 4 C4.01 3.835 4.01 3.835 -1 3 C-0.67 2.01 -0.34 1.02 0 0 Z " fill="#56585A" transform="translate(41,46)" />
<path d="M0 0 C-0.66 1.32 -1.32 2.64 -2 4 C-3.65 4 -5.3 4 -7 4 C-7.33 3.01 -7.66 2.02 -8 1 C-5.29120665 -0.35439668 -2.99066732 -0.06501451 0 0 Z " fill="#EEE4A9" transform="translate(35,38)" />
<path d="M0 0 C0.99 0.165 0.99 0.165 6 1 C6.66 3.31 7.32 5.62 8 8 C7.236875 7.195625 6.47375 6.39125 5.6875 5.5625 C3 3 3 3 0 2 C0 1.34 0 0.68 0 0 Z " fill="#724300" transform="translate(69,29)" />
<path d="M0 0 C0.33 0 0.66 0 1 0 C1.08333357 4.8333472 0.95261487 9.23692563 0 14 C-0.33 14 -0.66 14 -1 14 C-2.12029814 8.51053913 -1.79217969 5.16569441 0 0 Z " fill="#A28118" transform="translate(29,55)" />
<path d="M0 0 C0.66 1.32 1.32 2.64 2 4 C2.66 4.66 3.32 5.32 4 6 C3.625 8.625 3.625 8.625 3 11 C2.67 10.34 2.34 9.68 2 9 C1.34 9 0.68 9 0 9 C0 6.03 0 3.06 0 0 Z " fill="#D4B03A" transform="translate(18,52)" />
<path d="M0 0 C0.66 0 1.32 0 2 0 C0.25 7.75 0.25 7.75 -2 10 C-1.85950482 8.52031676 -1.71245174 7.04125484 -1.5625 5.5625 C-1.48128906 4.73878906 -1.40007813 3.91507813 -1.31640625 3.06640625 C-1 1 -1 1 0 0 Z " fill="#F8D668" transform="translate(29,49)" />
<path d="M0 0 C0.33 1.32 0.66 2.64 1 4 C-1.97411124 5.23921302 -4.85262818 6.30058404 -8 7 C-5.42215154 4.35247996 -3.08351902 2.05567935 0 0 Z " fill="#746241" transform="translate(65,71)" />
<path d="M0 0 C2.31 0.66 4.62 1.32 7 2 C5.71034824 3.37562854 4.37310707 4.70766393 3 6 C2.34 6 1.68 6 1 6 C0.67 4.02 0.34 2.04 0 0 Z " fill="#F8F4A9" transform="translate(57,66)" />
<path d="M0 0 C0.33 0.165 0.33 0.165 2 1 C2 1.66 2 2.32 2 3 C2.66 3 3.32 3 4 3 C4 3.66 4 4.32 4 5 C4.99 5.33 5.98 5.66 7 6 C7 6.66 7 7.32 7 8 C6.01 8 5.02 8 4 8 C4 7.34 4 6.68 4 6 C3.34 6 2.68 6 2 6 C1.34 4.02 0.68 2.04 0 0 Z " fill="#766240" transform="translate(23,76)" />
<path d="M0 0 C0.33 0 0.66 0 1 0 C1.04898437 0.60328125 1.09796875 1.2065625 1.1484375 1.828125 C1.22320313 2.62734375 1.29796875 3.4265625 1.375 4.25 C1.44460937 5.03890625 1.51421875 5.8278125 1.5859375 6.640625 C2.01507113 9.085877 2.78600638 10.84836903 4 13 C2.68 12.67 1.36 12.34 0 12 C0 8.04 0 4.08 0 0 Z " fill="#7B6014" transform="translate(17,56)" />
<path d="M0 0 C0.66 0.33 1.32 0.66 2 1 C1.39816251 3.02045442 0.72693904 5.02111039 0 7 C-0.33 7.165 -0.33 7.165 -2 8 C-1.125 1.125 -1.125 1.125 0 0 Z " fill="#766156" transform="translate(76,57)" />
<path d="M0 0 C2.0625 0.1875 2.0625 0.1875 4 1 C4.33 1.99 4.66 2.98 5 4 C4.01 4.33 3.02 4.66 2 5 C-0.1875 3.5625 -0.1875 3.5625 -2 2 C-1.34 1.34 -0.68 0.68 0 0 Z " fill="#9B9778" transform="translate(43,25)" />
<path d="M0 0 C1.65 0 3.3 0 5 0 C3.66666667 2 2.33333333 4 1 6 C0.34 6 -0.32 6 -1 6 C-0.67 4.02 -0.34 2.04 0 0 Z " fill="#726438" transform="translate(17,45)" />
<path d="M0 0 C1.98 0 3.96 0 6 0 C5.1875 1.9375 5.1875 1.9375 4 4 C3.01 4.33 2.02 4.66 1 5 C0.67 3.35 0.34 1.7 0 0 Z " fill="#6D6542" transform="translate(40,64)" />
<path d="M0 0 C0.75 1.75 0.75 1.75 1 4 C-0.8125 6.25 -0.8125 6.25 -3 8 C-3.66 8 -4.32 8 -5 8 C-3.62845496 5.04590299 -2.01136276 2.55991624 0 0 Z " fill="#746242" transform="translate(73,61)" />
<path d="M0 0 C1.32 0.66 2.64 1.32 4 2 C2.625 3.5 2.625 3.5 1 5 C0.34 5 -0.32 5 -1 5 C-0.67 3.35 -0.34 1.7 0 0 Z " fill="#F3C943" transform="translate(71,46)" />
<path d="M0 0 C0.93065133 2.60582371 1.14917407 3.64198224 0.0625 6.25 C-0.1128125 6.53875 -0.1128125 6.53875 -1 8 C-1.66 8 -2.32 8 -3 8 C-1.125 1.125 -1.125 1.125 0 0 Z " fill="#6A6F7B" transform="translate(49,36)" />
<path d="M0 0 C0.99 0.33 1.98 0.66 3 1 C2.67 2.32 2.34 3.64 2 5 C1.01 5 0.02 5 -1 5 C-0.67 3.35 -0.34 1.7 0 0 Z " fill="#D4CD9F" transform="translate(37,30)" />
<path d="M0 0 C1.32 0.33 2.64 0.66 4 1 C4 1.99 4 2.98 4 4 C4.66 4 5.32 4 6 4 C6 5.65 6 7.3 6 9 C3.75972706 6.11964908 1.83827868 3.15133488 0 0 Z " fill="#756240" transform="translate(76,25)" />
</svg>