<?xml version='1.0' encoding='utf-8'?>
<svg xmlns="http://www.w3.org/2000/svg" version="1.1" width="99" height="101">
<path d="M0 0 C2 1.4375 2 1.4375 3 4 C3.22339665 7.01845245 3.17422244 9.98014438 3 13 C3.825 13.165 3.825 13.165 8 14 C6 16 6 16 2.875 16.125 C1.92625 16.08375 0.9775 16.0425 0 16 C-0.06058594 15.28972656 -0.12117188 14.57945313 -0.18359375 13.84765625 C-0.26738281 12.92855469 -0.35117188 12.00945313 -0.4375 11.0625 C-0.51871094 10.14597656 -0.59992188 9.22945312 -0.68359375 8.28515625 C-1 6 -1 6 -2 5 C-5.375 5.125 -5.375 5.125 -9 6 C-12.46389089 9.81027998 -12.58143407 14.06092198 -13 19 C-15.31 19 -17.62 19 -20 19 C-19.875 21.25 -19.875 21.25 -19 24 C-15.7953889 26.75745607 -13.86706222 27.93577317 -9.625 28.25 C-9.191875 28.20875 -9.191875 28.20875 -7 28 C-6.67 26.68 -6.34 25.36 -6 24 C-5.835 24.495 -5.835 24.495 -5 27 C-2.0625 28.125 -2.0625 28.125 1 29 C1.66 29.33 2.32 29.66 3 30 C3.639375 29.814375 4.27875 29.62875 4.9375 29.4375 C5.618125 29.293125 6.29875 29.14875 7 29 C7.99 29.66 8.98 30.32 10 31 C10.1875 34.125 10.1875 34.125 10 37 C8.68 37 7.36 37 6 37 C6 36.01 6 35.02 6 34 C6.66 34 7.32 34 8 34 C8 33.34 8 32.68 8 32 C7.67 32.165 7.67 32.165 6 33 C5.91666643 37.8333472 6.04738513 42.23692563 7 47 C4.65941363 44.87219421 3.29299694 42.88437779 2 40 C1.01 40.33 0.02 40.66 -1 41 C0.65 42.65 2.3 44.3 4 46 C3.835 46.33 3.835 46.33 3 48 C0.5 46.625 0.5 46.625 -2 45 C-2 44.34 -2 43.68 -2 43 C-2.57234375 42.89945313 -3.1446875 42.79890625 -3.734375 42.6953125 C-6.43159496 41.867545 -8.02655257 40.60866705 -10.25 38.875 C-22.880695 29.79961174 -36.69287796 26.08723484 -52 25 C-50.1875 23 -50.1875 23 -48 21 C-47.01 21 -46.02 21 -45 21 C-45 21.66 -45 22.32 -45 23 C-41.7 23 -38.4 23 -35 23 C-34.67 21.68 -34.34 20.36 -34 19 C-34.9075 19.350625 -35.815 19.70125 -36.75 20.0625 C-40 21 -40 21 -44 20 C-42.68 19.505 -42.68 19.505 -36 17 C-36.33 15.68 -36.66 14.36 -37 13 C-36 11.1875 -36 11.1875 -34 10 C-30.3125 10.3125 -30.3125 10.3125 -27 11 C-27.103125 10.278125 -27.20625 9.55625 -27.3125 8.8125 C-27 6 -27 6 -24.9375 3.125 C-22 1 -22 1 -18.4375 1.1875 C-17.303125 1.455625 -16.16875 1.72375 -15 2 C-9.37060102 2 -5.99791205 -0.96216506 0 0 Z " fill="#EDE2A6" transform="translate(71,18)" />
<path d="M0 0 C5.45697216 2.84042397 10.241244 6.10647236 15 10 C15.99 10.33 16.98 10.66 18 11 C18.165 11.33 18.165 11.33 19 13 C21.03125 13.78125 21.03125 13.78125 23.5 14.5 C25.96875 15.21875 25.96875 15.21875 28 16 C29.84862688 19.69725375 29.47587094 23.96461442 29 28 C27.20353146 30.93423195 26.0558929 32.47205355 23 34 C20.89851818 34.12327929 18.79256093 34.17558006 16.6875 34.1875 C15.55699219 34.20167969 14.42648438 34.21585938 13.26171875 34.23046875 C10.06795157 34.00480137 7.8723571 33.36342654 5 32 C5 31.34 5 30.68 5 30 C7.64 29.835 7.64 29.835 21 29 C21.33 27.68 21.66 26.36 22 25 C20.73339467 22.95708818 19.40113616 20.95309888 18 19 C18 18.34 18 17.68 18 17 C17.44570312 16.74863281 16.89140625 16.49726562 16.3203125 16.23828125 C13.61235042 14.79312303 11.31586357 13.04839161 8.875 11.1875 C3.80801378 7.4681165 -1.22997903 4.48365878 -7 2 C-7.35771484 1.84595703 -7.35771484 1.84595703 -9.16796875 1.06640625 C-15.60972178 -1.38591867 -22.16212833 -1.69351116 -29 -2 C-28.625 0.9375 -28.625 0.9375 -28 4 C-27.34 4.33 -26.68 4.66 -26 5 C-25 7 -24 9 -23 11 C-22.7215625 11.2578125 -22.7215625 11.2578125 -21.3125 12.5625 C-20 14 -20 14 -19.8125 16.6875 C-19.8434375 17.0690625 -19.8434375 17.0690625 -20 19 C-25.5 19.36666667 -25.5 19.36666667 -27.875 17.625 C-29 16 -29 16 -29 14 C-29.66 14 -30.32 14 -31 14 C-31 13.34 -31 12.68 -31 12 C-31.66 12 -32.32 12 -33 12 C-36.39931105 6.15743413 -37.85835109 1.78238078 -37 -5 C-32.43667824 -14.12664353 -6.79189445 -3.10192582 0 0 Z " fill="#674C14" transform="translate(51,50)" />
<path d="M0 0 C3.59252648 0.42713691 5.1679658 1.88583291 7.5625 4.5 C9.83403472 6.96883952 10.74320043 7.91440014 14 9 C14.33 8.34 14.66 7.68 15 7 C15.99 7.66 16.98 8.32 18 9 C21.1875 9.125 21.1875 9.125 24 9 C24.33 7.68 24.66 6.36 25 5 C25.165 5.495 25.165 5.495 26 8 C28.9375 9.125 28.9375 9.125 32 10 C32.66 10.33 33.32 10.66 34 11 C34.3196875 10.9071875 34.3196875 10.9071875 35.9375 10.4375 C36.618125 10.293125 37.29875 10.14875 38 10 C38.99 10.66 39.98 11.32 41 12 C41.1875 15.125 41.1875 15.125 41 18 C39.68 18 38.36 18 37 18 C37 17.01 37 16.02 37 15 C37.66 15 38.32 15 39 15 C39 14.34 39 13.68 39 13 C38.34 13.33 37.68 13.66 37 14 C36.91666643 18.8333472 37.04738513 23.23692563 38 28 C35.65941363 25.87219421 34.29299694 23.88437779 33 21 C32.01 21.33 31.02 21.66 30 22 C31.65 23.65 33.3 25.3 35 27 C34.67 27.66 34.34 28.32 34 29 C31.5 27.625 31.5 27.625 29 26 C29 25.34 29 24.68 29 24 C28.42765625 23.89945313 27.8553125 23.79890625 27.265625 23.6953125 C24.56840504 22.867545 22.97344743 21.60866705 20.75 19.875 C8.119305 10.79961174 -5.69287796 7.08723484 -21 6 C-19.1875 4 -19.1875 4 -17 2 C-16.01 2 -15.02 2 -14 2 C-14 2.66 -14 3.32 -14 4 C-10.7 4 -7.4 4 -4 4 C-3.67 3.01 -3.34 2.02 -3 1 C-3 1.99 -3 2.98 -3 4 C-1.33388095 4.042721 0.33382885 4.04063832 2 4 C2.33 3.67 2.66 3.34 3 3 C1.68 2.34 0.36 1.68 -1 1 C-0.67 0.67 -0.34 0.34 0 0 Z " fill="#D2A738" transform="translate(40,37)" />
<path d="M0 0 C2 2 2 2 2.1953125 4.3828125 C2.17210938 5.28773437 2.14890625 6.19265625 2.125 7.125 C2.10695313 8.03507812 2.08890625 8.94515625 2.0703125 9.8828125 C2.04710938 10.58148438 2.02390625 11.28015625 2 12 C2.63808594 11.84402344 3.27617188 11.68804687 3.93359375 11.52734375 C4.75988281 11.33269531 5.58617188 11.13804688 6.4375 10.9375 C7.26121094 10.74027344 8.08492187 10.54304688 8.93359375 10.33984375 C9.27455078 10.28376953 9.27455078 10.28376953 11 10 C12 11 12 11 12.09765625 12.84765625 C12.06510417 14.8984375 12.03255208 16.94921875 12 19 C10.35 19.66 8.7 20.32 7 21 C7.33 19.845 7.33 19.845 9 14 C7.35 14 5.7 14 4 14 C3.9175 14.61875 3.835 15.2375 3.75 15.875 C3 18 3 18 0.9375 19.25 C0.298125 19.4975 -0.34125 19.745 -1 20 C-1 20.99 -1 21.98 -1 23 C-1.66 23 -2.32 23 -3 23 C-3.33 22.34 -3.66 21.68 -4 21 C-4 22.32 -4 23.64 -4 25 C-9.03404473 25.62925559 -11.35011137 25.10379244 -15.4375 22 C-16.63812971 21.01580259 -17.83033248 20.02080074 -19 19 C-18.67 17.68 -18.34 16.36 -18 15 C-15.69 15 -13.38 15 -11 15 C-11.04125 14.401875 -11.04125 14.401875 -11.25 11.375 C-11.26583495 6.91746125 -9.8659892 4.4560458 -7 1 C-4.48718205 -0.25640898 -2.78302919 -0.20872719 0 0 Z " fill="#D89D61" transform="translate(69,22)" />
<path d="M0 0 C11.64887261 1.22619712 22.1137171 7.7294049 31 15 C31.495 15.165 31.495 15.165 34 16 C34.165 16.33 34.165 16.33 35 18 C37.03125 18.78125 37.03125 18.78125 39.5 19.5 C41.96875 20.21875 41.96875 20.21875 44 21 C45.84862688 24.69725375 45.47587094 28.96461442 45 33 C43.20353146 35.93423195 42.0558929 37.47205355 39 39 C36.89851818 39.12327929 34.79256093 39.17558006 32.6875 39.1875 C31.55699219 39.20167969 30.42648438 39.21585938 29.26171875 39.23046875 C26.06795157 39.00480137 23.8723571 38.36342654 21 37 C21 36.34 21 35.68 21 35 C23.64 34.835 23.64 34.835 37 34 C38 30 38 30 36.25 27.0625 C35.87875 26.5571875 35.87875 26.5571875 34 24 C33.5875 23.195625 33.175 22.39125 32.75 21.5625 C26.86536383 12.94571132 18.28349522 9.55198558 8.94873047 5.79101562 C5.94626081 4.57227324 2.97491054 3.28435669 0 2 C0 1.34 0 0.68 0 0 Z " fill="#8D670C" transform="translate(35,45)" />
<path d="M0 0 C1.58877287 3.17754575 1 6.49382922 1 10 C1.33 10.66 1.66 11.32 2 12 C2.825 12.165 2.825 12.165 7 13 C7.66 9.37 8.32 5.74 9 2 C9.99 2.33 10.98 2.66 12 3 C13.8066225 6.76379687 12.59379272 11.04138185 12 15 C9.69 15 7.38 15 5 15 C5.55728913 18.34373475 6.35173889 21.03312999 8 24 C4.37783399 23.43478289 2.86520432 22.12589741 0.4375 19.4375 C-1.31640625 17.49609375 -1.31640625 17.49609375 -3 16 C-3.99 16 -4.98 16 -6 16 C-4.68 16.66 -3.36 17.32 -2 18 C-2.66 18.66 -3.32 19.32 -4 20 C-6.625 19.625 -6.625 19.625 -9 19 C-9.33 17.68 -9.66 16.36 -10 15 C-10.7425 15.350625 -11.485 15.70125 -12.25 16.0625 C-15 17 -15 17 -19 16 C-16.36 15.01 -13.72 14.02 -11 13 C-11.33 11.68 -11.66 10.36 -12 9 C-11 7.1875 -11 7.1875 -9 6 C-5.3125 6.3125 -5.3125 6.3125 -2 7 C-2.04125 6.21625 -2.0825 5.4325 -2.125 4.625 C-2 2 -2 2 0 0 Z " fill="#E2C777" transform="translate(46,22)" />
<path d="M0 0 C-0.33 8.25 -0.66 16.5 -1 25 C-2.65 25.66 -4.3 26.32 -6 27 C-6.33 27.66 -6.66 28.32 -7 29 C-8 28 -8 28 -8.09765625 26.15234375 C-8.06510417 24.1015625 -8.03255208 22.05078125 -8 20 C-7.01 19.67 -6.02 19.34 -5 19 C-5 19.66 -5 20.32 -5 21 C-5.66 21 -6.32 21 -7 21 C-6.67 21.99 -6.34 22.98 -6 24 C-5.34 24 -4.68 24 -4 24 C-4 22.02 -4 20.04 -4 18 C-7.01031744 17.06576355 -7.86650268 16.95550089 -11 18 C-13.6875 16.8125 -13.6875 16.8125 -16 15 C-16 13.68 -16 12.36 -16 11 C-14.70264493 9.95374591 -13.36733028 8.95298777 -12 8 C-11.67 7.01 -11.34 6.02 -11 5 C-9.35 5 -7.7 5 -6 5 C-6.875 9.75 -6.875 9.75 -8 12 C-6 11 -6 11 -4 8 C-3.92094936 5.66800612 -3.91201231 3.33167378 -4 1 C-1 0 -1 0 0 0 Z " fill="#6F5828" transform="translate(84,31)" />
<path d="M0 0 C2.37160148 2.37160148 2.31983352 3.00621122 2.375 6.25 C2.25614323 10.84827135 1.28994228 13.62348029 -2 17 C-5.0625 17.625 -5.0625 17.625 -8 17 C-10.5092428 14.82532291 -10.93934465 13.39859229 -11.4375 10.125 C-10.88939233 6.20994522 -9.43242523 4.0763025 -7 1 C-4.48718205 -0.25640898 -2.78302919 -0.20872719 0 0 Z " fill="#9B75CC" transform="translate(69,22)" />
<path d="M0 0 C0.33 0.99 0.66 1.98 1 3 C3.9375 4.125 3.9375 4.125 7 5 C7.66 5.33 8.32 5.66 9 6 C9.639375 5.814375 10.27875 5.62875 10.9375 5.4375 C11.618125 5.293125 12.29875 5.14875 13 5 C13.99 5.66 14.98 6.32 16 7 C16.1875 10.125 16.1875 10.125 16 13 C14.68 13 13.36 13 12 13 C12 12.01 12 11.02 12 10 C12.66 10 13.32 10 14 10 C14 9.34 14 8.68 14 8 C13.67 8.165 13.67 8.165 12 9 C11.91666643 13.8333472 12.04738513 18.23692563 13 23 C10.65941363 20.87219421 9.29299694 18.88437779 8 16 C7.01 16 6.02 16 5 16 C5 14.02 5 12.04 5 10 C4.03578125 9.81824219 3.0715625 9.63648438 2.078125 9.44921875 C0.81484375 9.19785156 -0.4484375 8.94648437 -1.75 8.6875 C-3.00296875 8.44386719 -4.2559375 8.20023438 -5.546875 7.94921875 C-8.7833062 7.05956628 -10.54111953 6.216718 -13 4 C-12.34 4 -11.68 4 -11 4 C-10.67 3.34 -10.34 2.68 -10 2 C-9.01 2.66 -8.02 3.32 -7 4 C-3.8125 4.125 -3.8125 4.125 -1 4 C-0.67 2.68 -0.34 1.36 0 0 Z " fill="#DCAE35" transform="translate(65,42)" />
<path d="M0 0 C5.61 0.66 11.22 1.32 17 2 C14.41331224 4.58668776 13.03108979 4.34229306 9.4375 4.5625 C4.09722222 4.90277778 4.09722222 4.90277778 3 6 C3 12.25252728 5.46846264 15.33996102 9.50390625 19.984375 C11 22 11 22 11 25 C7.15757655 23.43456822 4.80436007 21.01468708 2 18 C1.2575 17.21625 0.515 16.4325 -0.25 15.625 C-2.47909791 12.28135314 -2.92964913 10.00999985 -3 6 C-2.01 4.02 -1.02 2.04 0 0 Z " fill="#90630B" transform="translate(18,42)" />
<path d="M0 0 C2.46278801 2.46278801 2.99771255 4.70676982 4 8 C4.66 7.01 5.32 6.02 6 5 C8.5016291 10.73290003 9.90988423 15.71352713 9 22 C7.57795721 25.5814411 5.78760068 27.39773585 2.33203125 29.23828125 C-3.41694371 31.11608714 -10.3897738 31.28001477 -15.84375 28.60546875 C-18 27 -18 27 -18.875 24.875 C-18.91625 24.25625 -18.9575 23.6375 -19 23 C-18 22 -18 22 -16.23413086 21.88647461 C-15.48526611 21.89171143 -14.73640137 21.89694824 -13.96484375 21.90234375 C-13.15595703 21.90556641 -12.34707031 21.90878906 -11.51367188 21.91210938 C-10.66353516 21.92048828 -9.81339844 21.92886719 -8.9375 21.9375 C-8.08349609 21.94201172 -7.22949219 21.94652344 -6.34960938 21.95117188 C-4.23304337 21.96299627 -2.11651315 21.98093231 0 22 C-0.33 22.66 -0.66 23.32 -1 24 C-6.28 24 -11.56 24 -17 24 C-16 26 -16 26 -14.33984375 26.6015625 C-8.00391904 27.68046788 -1.37973289 28.34701862 4.3125 25.125 C6.68964463 20.72288032 7.0425631 16.89587634 6 12 C3.8125 9.75 3.8125 9.75 1 8 C-0.77904983 6.07670289 -2.36734561 4.05247981 -4 2 C-2.68 2 -1.36 2 0 2 C0 1.34 0 0.68 0 0 Z " fill="#634C15" transform="translate(73,56)" />
<path d="M0 0 C11.64887261 1.22619712 22.1137171 7.7294049 31 15 C31.495 15.165 31.495 15.165 34 16 C35.38671875 17.55859375 35.38671875 17.55859375 36.6875 19.4375 C37.12449219 20.05496094 37.56148437 20.67242187 38.01171875 21.30859375 C39 23 39 23 39 25 C39.66 25.33 40.32 25.66 41 26 C40.34 26 39.68 26 39 26 C38.67 26.66 38.34 27.32 38 28 C37.77957031 27.27039063 37.55914062 26.54078125 37.33203125 25.7890625 C35.67550938 22.32056802 33.69699615 20.74513093 30.6875 18.375 C29.74261719 17.61960937 28.79773438 16.86421875 27.82421875 16.0859375 C19.38853139 9.85542982 9.75287549 5.714393 0 2 C0 1.34 0 0.68 0 0 Z " fill="#936809" transform="translate(35,45)" />
<path d="M0 0 C0 0.66 0 1.32 0 2 C0.6084375 1.95875 0.6084375 1.95875 3.6875 1.75 C14.18502826 1.7830111 23.46799175 6.22211631 32 12 C30 13 30 13 26.91015625 12.109375 C25.62549261 11.66227159 24.34305628 11.20873491 23.0625 10.75 C21.69469192 10.27926509 20.32619563 9.81052534 18.95703125 9.34375 C18.28236816 9.11300781 17.60770508 8.88226563 16.91259766 8.64453125 C8.9564501 5.96336843 1.38639856 4.47041694 -7 4 C-3.375 0 -3.375 0 0 0 Z " fill="#F8E47E" transform="translate(26,39)" />
<path d="M0 0 C5.53846154 -0.36923077 5.53846154 -0.36923077 7.875 1.5 C8.24625 1.995 8.6175 2.49 9 3 C7.9275 2.9175 6.855 2.835 5.75 2.75 C2 3 2 3 -0.375 4.6875 C-2.13434402 7.19118187 -2.66466723 8.98200506 -3 12 C-4.093125 11.896875 -5.18625 11.79375 -6.3125 11.6875 C-7.529375 11.790625 -8.74625 11.89375 -10 12 C-11.9375 14.5 -11.9375 14.5 -13 17 C-12.34 17.33 -11.68 17.66 -11 18 C-17.4 21.07692308 -17.4 21.07692308 -20.4375 20.6875 C-20.953125 20.460625 -21.46875 20.23375 -22 20 C-19.69 19.01 -17.38 18.02 -15 17 C-15.33 16.01 -15.66 15.02 -16 14 C-10.59375 9.09665698 -10.59375 9.09665698 -7.3125 8.5625 C-6.549375 8.376875 -5.78625 8.19125 -5 8 C-3.1875 4.9375 -3.1875 4.9375 -2 2 C-1.34 2 -0.68 2 0 2 C0 1.34 0 0.68 0 0 Z " fill="#6B591F" transform="translate(47,17)" />
<path d="M0 0 C3.875 0.875 3.875 0.875 5 2 C5.09854655 3.64340867 5.12972411 5.2911461 5.125 6.9375 C5.12757812 7.83339844 5.13015625 8.72929687 5.1328125 9.65234375 C5 12 5 12 4 14 C1.625 14.1875 1.625 14.1875 -1 14 C-3.67927341 9.98108988 -3.15601248 7.75838077 -3 3 C-2.34 2.67 -1.68 2.34 -1 2 C-1 3.98 -1 5.96 -1 8 C-0.34 8 0.32 8 1 8 C1.33 5.69 1.66 3.38 2 1 C1.34 0.67 0.68 0.34 0 0 Z " fill="#5D3D6B" transform="translate(49,21)" />
<path d="M0 0 C0.33 0.66 0.66 1.32 1 2 C1.5259375 1.87625 1.5259375 1.87625 4.1875 1.25 C8 1 8 1 10.875 2.6875 C12.93832742 4.93288572 13.68087403 6.02149096 14 9 C8.96595527 9.62925559 6.64988863 9.10379244 2.5625 6 C1.36187029 5.01580259 0.16966752 4.02080074 -1 3 C-0.67 2.01 -0.34 1.02 0 0 Z " fill="#6E4497" transform="translate(51,38)" />
<path d="M0 0 C0.99 0.33 1.98 0.66 3 1 C2.40140845 6.38732394 2.40140845 6.38732394 0.8125 8.8125 C-1.72012792 10.47180794 -4.01430386 10.74037425 -7 11 C-8 10 -8 10 -8.125 7.0625 C-8 4 -8 4 -7 2 C-6.34 2 -5.68 2 -5 2 C-5 2.99 -5 3.98 -5 5 C-3.35 3.35 -1.7 1.7 0 0 Z " fill="#4E33CC" transform="translate(66,25)" />
<path d="M0 0 C0.33 1.32 0.66 2.64 1 4 C-2.73530598 7.28254162 -6.2896745 9.37279665 -11 11 C-12.32 10.67 -13.64 10.34 -15 10 C-12.36 9.01 -9.72 8.02 -7 7 C-7.33 5.68 -7.66 4.36 -8 3 C-5.85915306 -0.33020635 -3.75910189 -0.30479204 0 0 Z " fill="#F1D875" transform="translate(42,28)" />
<path d="M0 0 C2.46278801 2.46278801 2.99771255 4.70676982 4 8 C4.66 7.01 5.32 6.02 6 5 C8.54104642 10.82323138 9.68717543 15.63041237 9 22 C8.67 22.66 8.34 23.32 8 24 C7.34 24 6.68 24 6 24 C6.05800781 23.18015625 6.11601563 22.3603125 6.17578125 21.515625 C6.31102703 18.28518287 6.34489778 15.21617184 6 12 C3.8125 9.625 3.8125 9.625 1 8 C-0.78423066 6.08074648 -2.36695284 4.05297358 -4 2 C-2.68 2 -1.36 2 0 2 C0 1.34 0 0.68 0 0 Z " fill="#6D510D" transform="translate(73,56)" />
<path d="M0 0 C1.45922693 0.11409593 2.91740598 0.24165544 4.375 0.375 C4.78105469 0.40980469 4.78105469 0.40980469 6.8359375 0.5859375 C9 1 9 1 11 3 C11.86625 3.825 12.7325 4.65 13.625 5.5 C16 8 16 8 16 10 C12.37783399 9.43478289 10.86520432 8.12589741 8.4375 5.4375 C6.68359375 3.49609375 6.68359375 3.49609375 5 2 C4.01 2 3.02 2 2 2 C3.32 2.66 4.64 3.32 6 4 C5.34 4.66 4.68 5.32 4 6 C1.375 5.625 1.375 5.625 -1 5 C-0.67 3.35 -0.34 1.7 0 0 Z " fill="#F7E89C" transform="translate(38,36)" />
<path d="M0 0 C2.10633718 1.70828921 2.93801608 2.52148416 3.29296875 5.26171875 C3.25816406 6.06222656 3.22335938 6.86273438 3.1875 7.6875 C3.16042969 8.49574219 3.13335937 9.30398437 3.10546875 10.13671875 C3.07066406 10.75160156 3.03585938 11.36648437 3 12 C4.65 12.33 6.3 12.66 8 13 C6 15 6 15 2.875 15.125 C1.92625 15.08375 0.9775 15.0425 0 15 C-0.06058594 14.30132812 -0.12117188 13.60265625 -0.18359375 12.8828125 C-0.26738281 11.97273438 -0.35117188 11.06265625 -0.4375 10.125 C-0.51871094 9.22007813 -0.59992188 8.31515625 -0.68359375 7.3828125 C-1 5 -1 5 -2 3 C-1.34 2.01 -0.68 1.02 0 0 Z " fill="#E1CA6B" transform="translate(71,19)" />
<path d="M0 0 C0.99 0.33 1.98 0.66 3 1 C4.8066225 4.76379687 3.59379272 9.04138185 3 13 C-0.3 13.33 -3.6 13.66 -7 14 C-7 13.34 -7 12.68 -7 12 C-5.35 12 -3.7 12 -2 12 C-1.34 8.04 -0.68 4.08 0 0 Z " fill="#F0E494" transform="translate(55,24)" />
<path d="M0 0 C1.31471568 0.28151087 2.62675767 0.57553339 3.9375 0.875 C4.66839844 1.03742188 5.39929688 1.19984375 6.15234375 1.3671875 C8 2 8 2 9 4 C9.12082534 5.66345582 9.1753794 7.33220591 9.1875 9 C9.20167969 9.886875 9.21585938 10.77375 9.23046875 11.6875 C9 14 9 14 7 16 C6.34 12.7 5.68 9.4 5 6 C4.34 6 3.68 6 3 6 C2.01 4.02 1.02 2.04 0 0 Z " fill="#B18713" transform="translate(71,64)" />
<path d="M0 0 C0 1.98 0 3.96 0 6 C-1.32 6 -2.64 6 -4 6 C-4 5.01 -4 4.02 -4 3 C-3.34 3 -2.68 3 -2 3 C-2 2.34 -2 1.68 -2 1 C-2.33 1.165 -2.33 1.165 -4 2 C-4.08333357 6.8333472 -3.95261487 11.23692563 -3 16 C-4.96058195 14.38038883 -5.91837844 13.2380629 -6.75 10.8125 C-7.08925863 6.99584043 -6.69259018 3.77776463 -6 0 C-3.50907189 -1.24546405 -2.58919267 -0.7767578 0 0 Z " fill="#BA962C" transform="translate(81,49)" />
<path d="M0 0 C1.65 0 3.3 0 5 0 C4.47731534 2.76276177 3.89130413 5.3260876 3 8 C1.02 8.33 -0.96 8.66 -3 9 C-2.44271087 5.65626525 -1.64826111 2.96687001 0 0 Z " fill="#583CDE" transform="translate(73,36)" />
<path d="M0 0 C0 0.99 0 1.98 0 3 C-3.4766338 5.14336161 -6.21229195 5.21277626 -10.25 5.125 C-11.32765625 5.10695313 -12.4053125 5.08890625 -13.515625 5.0703125 C-14.33546875 5.04710938 -15.1553125 5.02390625 -16 5 C-16.33 4.01 -16.66 3.02 -17 2 C-15.85660156 1.93941406 -14.71320312 1.87882812 -13.53515625 1.81640625 C-12.04425695 1.73201572 -10.55337225 1.64736698 -9.0625 1.5625 C-8.30775391 1.52318359 -7.55300781 1.48386719 -6.77539062 1.44335938 C-1.11328125 1.11328125 -1.11328125 1.11328125 0 0 Z " fill="#DBC05A" transform="translate(73,78)" />
<path d="M0 0 C-0.33 8.25 -0.66 16.5 -1 25 C-1.33 25 -1.66 25 -2 25 C-2.66 17.08 -3.32 9.16 -4 1 C-1 0 -1 0 0 0 Z " fill="#715D33" transform="translate(84,31)" />
<path d="M0 0 C0.20947266 0.28294922 0.20947266 0.28294922 1.26953125 1.71484375 C2.42970589 3.24690281 3.61519175 4.76009773 4.82421875 6.25390625 C5.43910156 7.01574219 6.05398437 7.77757812 6.6875 8.5625 C7.31011719 9.32691406 7.93273437 10.09132813 8.57421875 10.87890625 C10 13 10 13 10 16 C4.27101565 13.23428342 2.17873676 11.12121281 0 5 C-0.1875 2.0625 -0.1875 2.0625 0 0 Z " fill="#BF9E2E" transform="translate(19,51)" />
<path d="M0 0 C3.6005691 0.41603214 5.03190346 1.78987933 7.25 4.5625 C7.77078125 5.20316406 8.2915625 5.84382813 8.828125 6.50390625 C9.21484375 6.99761719 9.6015625 7.49132813 10 8 C6.8568669 9.57156655 4.634536 8.11705576 1.375 7.0625 C0.18648437 6.68222656 -1.00203125 6.30195312 -2.2265625 5.91015625 C-3.14179687 5.60980469 -4.05703125 5.30945312 -5 5 C-4.34 3.68 -3.68 2.36 -3 1 C-3 1.99 -3 2.98 -3 4 C-1.33388095 4.042721 0.33382885 4.04063832 2 4 C2.33 3.67 2.66 3.34 3 3 C1.68 2.34 0.36 1.68 -1 1 C-0.67 0.67 -0.34 0.34 0 0 Z " fill="#C7AA8F" transform="translate(40,37)" />
<path d="M0 0 C-0.33 2.31 -0.66 4.62 -1 7 C-1.99 7.33 -2.98 7.66 -4 8 C-3.34 5.69 -2.68 3.38 -2 1 C-3.65 1 -5.3 1 -7 1 C-7.0825 1.61875 -7.165 2.2375 -7.25 2.875 C-8 5 -8 5 -10 6.0625 C-10.66 6.371875 -11.32 6.68125 -12 7 C-12.33 7.99 -12.66 8.98 -13 10 C-13.51264032 6.41151779 -13.13857753 5.19487465 -11 2.1875 C-6.96985387 -0.75114822 -4.88409122 -0.41390604 0 0 Z " fill="#9B70A0" transform="translate(80,35)" />
<path d="M0 0 C5 2 5 2 7.375 3.0625 C10.55658303 4.19877965 13.65288801 4.60622212 17 5 C17.33 5.99 17.66 6.98 18 8 C17.67 8.66 17.34 9.32 17 10 C13.25912846 8.58010715 9.76931806 6.90233408 6.25 5 C5.28578125 4.484375 4.3215625 3.96875 3.328125 3.4375 C1 2 1 2 0 0 Z " fill="#9A7E32" transform="translate(49,45)" />
<path d="M0 0 C8.05364285 -0.33608711 14.49783264 -0.0517291 22 3 C18.08263419 4.1700097 15.02040985 3.69584017 11 3 C11 2.34 11 1.68 11 1 C9.515 1.165 9.515 1.165 2 2 C2 3.65 2 5.3 2 7 C1.34 6.67 0.68 6.34 0 6 C0 4.02 0 2.04 0 0 Z " fill="#756541" transform="translate(22,48)" />
<path d="M0 0 C3.875 0.875 3.875 0.875 5 2 C5.1245486 3.64230364 5.17568524 5.29052276 5.1875 6.9375 C5.20167969 7.83339844 5.21585938 8.72929687 5.23046875 9.65234375 C5 12 5 12 3 14 C2.01 13.34 1.02 12.68 0 12 C0.66 12 1.32 12 2 12 C2.33 10.35 2.66 8.7 3 7 C2.34 6.67 1.68 6.34 1 6 C1.33 4.35 1.66 2.7 2 1 C1.34 0.67 0.68 0.34 0 0 Z " fill="#7676AE" transform="translate(49,21)" />
<path d="M0 0 C0.33 0 0.66 0 1 0 C1.38004558 4.75056978 1.38348154 8.15929047 -0.625 12.5625 C-3 15 -3 15 -6.125 15.5625 C-7.07375 15.376875 -8.0225 15.19125 -9 15 C-9.66 14.01 -10.32 13.02 -11 12 C-10.0925 12.0825 -9.185 12.165 -8.25 12.25 C-5 12 -5 12 -2.6875 10.5 C-0.31711375 6.98831667 -0.28043247 4.20648707 0 0 Z " fill="#857852" transform="translate(70,24)" />
<path d="M0 0 C6.30214697 0.33169195 10.85216936 3.67323988 16 7 C14 8 14 8 10.25 6.8125 C6.43353553 5.30123579 3.28112615 3.46084461 0 1 C0 0.67 0 0.34 0 0 Z " fill="#F7E09B" transform="translate(42,44)" />
<path d="M0 0 C0.33 0.99 0.66 1.98 1 3 C4.0625 4.1875 4.0625 4.1875 7 5 C7.33 6.65 7.66 8.3 8 10 C7.67 9.34 7.34 8.68 7 8 C4.49609375 7.3671875 4.49609375 7.3671875 1.4375 6.875 C0.42558594 6.70742188 -0.58632812 6.53984375 -1.62890625 6.3671875 C-2.41136719 6.24601562 -3.19382813 6.12484375 -4 6 C-3.01 5.34 -2.02 4.68 -1 4 C-0.3125 1.875 -0.3125 1.875 0 0 Z " fill="#BA8D29" transform="translate(65,42)" />
<path d="M0 0 C3 1 3 1 5 4 C5.66 4 6.32 4 7 4 C7.66 5.65 8.32 7.3 9 9 C8.34 9 7.68 9 7 9 C6.67 9.66 6.34 10.32 6 11 C5.34 11 4.68 11 4 11 C3.896875 10.443125 3.79375 9.88625 3.6875 9.3125 C2.87055365 6.56458956 1.47929543 4.44405332 0 2 C0 1.34 0 0.68 0 0 Z " fill="#78520F" transform="translate(69,67)" />
<path d="M0 0 C5.76044212 0.60636233 10.72014369 2.75658279 16 5 C10.64501462 6.78499513 5.19086048 3.77248894 0 2 C0 1.34 0 0.68 0 0 Z " fill="#927212" transform="translate(35,45)" />
<path d="M0 0 C1.65 0.33 3.3 0.66 5 1 C4.67 2.98 4.34 4.96 4 7 C2.0625 6.625 2.0625 6.625 0 6 C-1.24546405 3.50907189 -0.7767578 2.58919267 0 0 Z " fill="#B18D28" transform="translate(66,51)" />
<path d="M0 0 C0.66 0.33 1.32 0.66 2 1 C1.34 2.32 0.68 3.64 0 5 C-3.3 5 -6.6 5 -10 5 C-10.33 4.01 -10.66 3.02 -11 2 C-10.28972656 1.93941406 -9.57945313 1.87882812 -8.84765625 1.81640625 C-8.38810547 1.77451172 -8.38810547 1.77451172 -6.0625 1.5625 C-5.14597656 1.48128906 -4.22945312 1.40007813 -3.28515625 1.31640625 C-1 1 -1 1 0 0 Z " fill="#AB883F" transform="translate(36,36)" />
<path d="M0 0 C3.63 1.65 7.26 3.3 11 5 C11 5.33 11 5.66 11 6 C1.40546697 5.40546697 1.40546697 5.40546697 -2 2 C-1.34 2 -0.68 2 0 2 C0 1.34 0 0.68 0 0 Z " fill="#DACA66" transform="translate(54,44)" />
<path d="M0 0 C0.99 0 1.98 0 3 0 C3 0.99 3 1.98 3 3 C4.98 3 6.96 3 9 3 C9.33 3.66 9.66 4.32 10 5 C7.69 4.835 7.69 4.835 -4 4 C-2.68 2.68 -1.36 1.36 0 0 Z " fill="#E8C247" transform="translate(23,39)" />
<path d="M0 0 C2.46278801 2.46278801 2.99771255 4.70676982 4 8 C4.66 8 5.32 8 6 8 C5.67 8.99 5.34 9.98 5 11 C2 8 -1 5 -4 2 C-2.68 2 -1.36 2 0 2 C0 1.34 0 0.68 0 0 Z " fill="#825A1C" transform="translate(73,56)" />
<path d="M0 0 C1.5 1.375 1.5 1.375 3 3 C3 3.66 3 4.32 3 5 C0.03 5 -2.94 5 -6 5 C-6.33 4.01 -6.66 3.02 -7 2 C-4.69 2 -2.38 2 0 2 C0 1.34 0 0.68 0 0 Z " fill="#D19BB2" transform="translate(58,35)" />
<path d="M0 0 C1.62818946 0.22830701 3.2526349 0.48343576 4.875 0.75 C5.32746094 0.81960937 5.32746094 0.81960937 7.6171875 1.171875 C10 2 10 2 11.3203125 4.078125 C11.54460938 4.71234375 11.76890625 5.3465625 12 6 C7.24518354 5.42365861 4.02951788 3.44931479 0 1 C0 0.67 0 0.34 0 0 Z " fill="#E0B659" transform="translate(51,50)" />
<path d="M0 0 C5.61 0.66 11.22 1.32 17 2 C13.28065705 4.47956196 11.80647018 4.06433778 7.4375 3.625 C6.28121094 3.51414063 5.12492187 3.40328125 3.93359375 3.2890625 C2.96550781 3.19367187 1.99742188 3.09828125 1 3 C0.34 3 -0.32 3 -1 3 C-0.67 2.01 -0.34 1.02 0 0 Z " fill="#A87C17" transform="translate(18,42)" />
<path d="M0 0 C0.12375 0.639375 0.2475 1.27875 0.375 1.9375 C0.58125 2.618125 0.7875 3.29875 1 4 C1.66 4.33 2.32 4.66 3 5 C-3.4 8.07692308 -3.4 8.07692308 -6.4375 7.6875 C-6.953125 7.460625 -7.46875 7.23375 -8 7 C-5.69 6.01 -3.38 5.02 -1 4 C-1.33 3.01 -1.66 2.02 -2 1 C-1.34 0.67 -0.68 0.34 0 0 Z " fill="#685411" transform="translate(33,30)" />
<path d="M0 0 C5.53846154 -0.36923077 5.53846154 -0.36923077 7.875 1.5 C8.24625 1.995 8.6175 2.49 9 3 C7.9275 2.938125 6.855 2.87625 5.75 2.8125 C1.89133813 3.00543309 0.71182212 3.39665076 -2 6 C-2 4.68 -2 3.36 -2 2 C-1.34 2 -0.68 2 0 2 C0 1.34 0 0.68 0 0 Z " fill="#68562A" transform="translate(47,17)" />
<path d="M0 0 C0.99 0.66 1.98 1.32 3 2 C1.25 5.875 1.25 5.875 -1 7 C-1.66 6.67 -2.32 6.34 -3 6 C-2.42655063 3.13275314 -2.1385485 2.1385485 0 0 Z " fill="#D6BC42" transform="translate(37,28)" />
<path d="M0 0 C0.66 0 1.32 0 2 0 C1.61094382 2.72339328 0.93262433 4.08903214 -0.75 6.3125 C-3 8 -3 8 -5.75 7.75 C-6.4925 7.5025 -7.235 7.255 -8 7 C-8 6.67 -8 6.34 -8 6 C-6.35 6 -4.7 6 -3 6 C-2.67 5.01 -2.34 4.02 -2 3 C-1.34 3 -0.68 3 0 3 C0 2.01 0 1.02 0 0 Z " fill="#6E88BC" transform="translate(68,29)" />
<path d="M0 0 C0.47050781 0.40992188 0.94101562 0.81984375 1.42578125 1.2421875 C2.04839844 1.78101563 2.67101562 2.31984375 3.3125 2.875 C3.61994141 3.14183594 3.61994141 3.14183594 5.17578125 4.4921875 C7 6 7 6 10 8 C6.28400809 8.20086443 5.22791555 8.1519437 2 6 C2 5.34 2 4.68 2 4 C1.34 4 0.68 4 0 4 C0 2.68 0 1.36 0 0 Z " fill="#6A5212" transform="translate(20,60)" />
<path d="M0 0 C0.66 0 1.32 0 2 0 C2 0.66 2 1.32 2 2 C3.32 2.66 4.64 3.32 6 4 C5.34 4.66 4.68 5.32 4 6 C1.375 5.625 1.375 5.625 -1 5 C-0.67 3.35 -0.34 1.7 0 0 Z " fill="#F3E593" transform="translate(38,36)" />
<path d="M0 0 C1.5 1.375 1.5 1.375 3 3 C3 3.66 3 4.32 3 5 C0.03 5.66 -2.94 6.32 -6 7 C-6 6.34 -6 5.68 -6 5 C-4.35 5 -2.7 5 -1 5 C-0.67 3.35 -0.34 1.7 0 0 Z " fill="#F2E180" transform="translate(54,31)" />
<path d="M0 0 C0.33 0.99 0.66 1.98 1 3 C2.65 3.33 4.3 3.66 6 4 C4 6 4 6 0.875 6.125 C0.400625 6.104375 0.400625 6.104375 -2 6 C-2 5.01 -2 4.02 -2 3 C-1.34 3 -0.68 3 0 3 C0 2.01 0 1.02 0 0 Z " fill="#DCB845" transform="translate(73,28)" />
<path d="M0 0 C-3.29324523 2.19549682 -6.48187121 4.17811188 -10 6 C-10.99 5.67 -11.98 5.34 -13 5 C-8.40698258 1.51564196 -5.91384928 -0.26283775 0 0 Z " fill="#5A4F23" transform="translate(69,16)" />
<path d="M0 0 C3.6005691 0.41603214 5.03190346 1.78987933 7.25 4.5625 C7.77078125 5.20316406 8.2915625 5.84382813 8.828125 6.50390625 C9.21484375 6.99761719 9.6015625 7.49132813 10 8 C9.01 8 8.02 8 7 8 C5.65080468 6.34614767 4.31866272 4.678298 3 3 C0.75 1.6875 0.75 1.6875 -1 1 C-0.67 0.67 -0.34 0.34 0 0 Z " fill="#B19C6F" transform="translate(40,37)" />
<path d="M0 0 C1.32 0.33 2.64 0.66 4 1 C3.67 3.31 3.34 5.62 3 8 C2.34 8 1.68 8 1 8 C0.67 5.36 0.34 2.72 0 0 Z " fill="#C5A0E1" transform="translate(47,21)" />
<path d="M0 0 C1 3 1 3 -0.0625 5.6875 C-2 8 -2 8 -5.1875 8.3125 C-6.115625 8.209375 -7.04375 8.10625 -8 8 C-3.25 4 -3.25 4 -1 4 C-0.67 2.68 -0.34 1.36 0 0 Z " fill="#746244" transform="translate(81,78)" />
<path d="M0 0 C2.3431213 0.25561323 4.67843403 0.59270772 7 1 C7.33 1.66 7.66 2.32 8 3 C5.21176345 4.0326802 4.1322726 4.04509293 1.25 3.0625 C0.5075 2.711875 -0.235 2.36125 -1 2 C-0.67 1.34 -0.34 0.68 0 0 Z " fill="#E8D9B4" transform="translate(49,19)" />
<path d="M0 0 C1.875 0.1875 1.875 0.1875 4 1 C5.25 3.5625 5.25 3.5625 6 6 C4.02 5.01 2.04 4.02 0 3 C0 2.01 0 1.02 0 0 Z " fill="#B89143" transform="translate(69,60)" />
<path d="M0 0 C1.45792884 -0.05399736 2.91642712 -0.09279177 4.375 -0.125 C5.18710937 -0.14820313 5.99921875 -0.17140625 6.8359375 -0.1953125 C9 0 9 0 11 2 C11 2.66 11 3.32 11 4 C10.649375 3.8453125 10.649375 3.8453125 8.875 3.0625 C5.91063343 1.96697322 3.12301892 1.43577008 0 1 C0 0.67 0 0.34 0 0 Z " fill="#F9DB70" transform="translate(26,41)" />
<path d="M0 0 C2.31 0.33 4.62 0.66 7 1 C7.66 2.98 8.32 4.96 9 7 C7.53515625 5.76302083 6.0703125 4.52604167 4.60546875 3.2890625 C3.1344954 2.10798901 1.56962206 1.04641471 0 0 Z " fill="#FCF4A9" transform="translate(40,36)" />
<path d="M0 0 C1.65 0 3.3 0 5 0 C4.67 1.65 4.34 3.3 4 5 C3.01 5 2.02 5 1 5 C0.67 3.35 0.34 1.7 0 0 Z " fill="#4838D4" transform="translate(47,28)" />
<path d="M0 0 C1.98 0 3.96 0 6 0 C6.33 0.66 6.66 1.32 7 2 C6.67 2.66 6.34 3.32 6 4 C1.125 2.25 1.125 2.25 0 0 Z " fill="#60364A" transform="translate(60,51)" />
<path d="M0 0 C0.99 0.33 1.98 0.66 3 1 C3 1.99 3 2.98 3 4 C2.505 4.33 2.505 4.33 0 6 C-0.66 5.67 -1.32 5.34 -2 5 C-2 4.01 -2 3.02 -2 2 C-1.34 2 -0.68 2 0 2 C0 1.34 0 0.68 0 0 Z " fill="#6A6147" transform="translate(55,13)" />
<path d="M0 0 C0.99 0.66 0.99 0.66 6 4 C5.67 4.66 5.34 5.32 5 6 C3.35 5.67 1.7 5.34 0 5 C-0.33 4.01 -0.66 3.02 -1 2 C-0.67 1.34 -0.34 0.68 0 0 Z " fill="#726042" transform="translate(63,63)" />
<path d="M0 0 C0.66 0.33 1.32 0.66 2 1 C2 3.64 2 6.28 2 9 C1.34 8.67 0.68 8.34 0 8 C-0.6875 4.5 -0.6875 4.5 -1 1 C-0.67 0.67 -0.34 0.34 0 0 Z " fill="#855F12" transform="translate(16,47)" />
<path d="M0 0 C0.66 0.33 1.32 0.66 2 1 C2 3.64 2 6.28 2 9 C1.67 9 1.34 9 1 9 C1 7.02 1 5.04 1 3 C-0.65 3 -2.3 3 -4 3 C-2.68 2.01 -1.36 1.02 0 0 Z " fill="#C1A053" transform="translate(79,32)" />
</svg>