<?xml version='1.0' encoding='utf-8'?>
<svg xmlns="http://www.w3.org/2000/svg" version="1.1" width="93" height="91">
<path d="M0 0 C6.08854027 0.44280293 12.41008116 1.45021246 18 4 C19 7 19 7 18.07421875 9.04296875 C17.61660156 9.75066406 17.15898438 10.45835938 16.6875 11.1875 C16.23761719 11.90292969 15.78773437 12.61835938 15.32421875 13.35546875 C14.88722656 13.89816406 14.45023438 14.44085938 14 15 C13.34 15 12.68 15 12 15 C11.7525 15.70511719 11.505 16.41023438 11.25 17.13671875 C9.83896341 20.36887443 8.0749274 22.96328902 6 25.8125 C5.649375 26.30041016 5.649375 26.30041016 3.875 28.76953125 C3.25625 29.50558594 2.6375 30.24164063 2 31 C1.34 31 0.68 31 0 31 C-0.144375 31.2990625 -0.144375 31.2990625 -0.875 32.8125 C-2 35 -2 35 -4 38 C-4.4140625 40.26171875 -4.4140625 40.26171875 -4.625 42.6875 C-4.69976562 43.49574219 -4.77453125 44.30398437 -4.8515625 45.13671875 C-4.90054688 45.75160156 -4.94953125 46.36648437 -5 47 C-7.94153471 43.41900122 -7.94153471 43.41900122 -8.28125 40.984375 C-9 39 -9 39 -11.22265625 37.875 C-12.15980469 37.58625 -13.09695312 37.2975 -14.0625 37 C-18.99672761 35.3767293 -23.41106958 33.4243406 -28 31 C-28 29.68 -28 28.36 -28 27 C-27.34 27 -26.68 27 -26 27 C-25.79375 26.443125 -25.5875 25.88625 -25.375 25.3125 C-23.82948717 22.71322843 -21.93135442 21.15432578 -19.58203125 19.28515625 C-16.4158761 16.7131438 -13.65937147 13.86400399 -11.1875 10.625 C-8.15449621 6.98539545 -4.59918575 4.06383775 -1 1 C-0.67 0.67 -0.34 0.34 0 0 Z " fill="#DDD8B7" transform="translate(52,17)" />
<path d="M0 0 C3.05478988 2.78803358 4.48706028 5.09052637 5.28515625 9.16015625 C4.67475284 15.23910527 0.03335851 20.28856495 -3.54345703 25.05371094 C-5.38624908 27.51612097 -7.15738798 30.02551691 -8.93115234 32.5378418 C-10.16498924 34.28070234 -11.41044357 36.01459116 -12.66015625 37.74609375 C-15.82097439 42.13070585 -18.91276903 46.56338331 -22 51 C-22.99 50.67 -23.98 50.34 -25 50 C-26.20272819 47.59454362 -26.10071472 46.05003047 -26.0625 43.375 C-26.05347656 42.55773437 -26.04445312 41.74046875 -26.03515625 40.8984375 C-26.02355469 40.27195313 -26.01195312 39.64546875 -26 39 C-25.67 39 -25.34 39 -25 39 C-24.90203125 38.40832031 -24.8040625 37.81664062 -24.703125 37.20703125 C-23.75261379 32.18407117 -22.79936696 28.68063674 -19 25 C-18.34 25 -17.68 25 -17 25 C-16.74347656 24.44570313 -16.48695312 23.89140625 -16.22265625 23.3203125 C-14.82449029 20.66692407 -13.18147518 18.31438073 -11.4375 15.875 C-8.09722222 11.19444444 -8.09722222 11.19444444 -7 9 C-6.34 9 -5.68 9 -5 9 C-4.731875 8.443125 -4.46375 7.88625 -4.1875 7.3125 C-2.89877353 4.80287477 -1.47073522 2.40665764 0 0 Z " fill="#8D8C78" transform="translate(71,23)" />
<path d="M0 0 C0.75023437 0.38671875 1.50046875 0.7734375 2.2734375 1.171875 C8.73843681 4.46137087 15.2100324 7.44625112 22 10 C22.12117188 11.03640625 22.24234375 12.0728125 22.3671875 13.140625 C22.53607181 14.51046438 22.70536411 15.88025349 22.875 17.25 C22.95363281 17.93191406 23.03226563 18.61382812 23.11328125 19.31640625 C23.56645833 22.90696311 24.09385738 25.892507 26 29 C19.27938306 28.55195887 13.99192898 25.94518543 8 23 C6.89785156 22.46246094 5.79570312 21.92492187 4.66015625 21.37109375 C-3.80721831 17.19278169 -3.80721831 17.19278169 -5 16 C-4.52742616 8.67510549 -4.52742616 8.67510549 -2.4375 6 C-1.963125 5.67 -1.48875 5.34 -1 5 C-0.67 5.66 -0.34 6.32 0 7 C1.84765625 7.4140625 1.84765625 7.4140625 4.0625 7.625 C5.361875 7.74875 6.66125 7.8725 8 8 C8 7.01 8 6.02 8 5 C7.236875 5.20625 6.47375 5.4125 5.6875 5.625 C3 6 3 6 0 4 C0 2.68 0 1.36 0 0 Z " fill="#7F7252" transform="translate(22,46)" />
<path d="M0 0 C2.1640625 0.0234375 2.1640625 0.0234375 4.625 0.375 C5.03363281 0.43042969 5.03363281 0.43042969 7.1015625 0.7109375 C7.72804688 0.80632813 8.35453125 0.90171875 9 1 C7.58534746 7.4985601 5.35918269 11.5068961 0.140625 15.69140625 C-2.99061013 17.60557371 -5.357591 17.92411648 -9 18 C-8.67 18.66 -8.34 19.32 -8 20 C-13.42096702 18.64475824 -18.0778687 16.63365987 -23 14 C-23 12.68 -23 11.36 -23 10 C-22.34 10 -21.68 10 -21 10 C-20.34 8.68 -19.68 7.36 -19 6 C-19 9 -19 9 -20 11 C-16.288 10.36 -16.288 10.36 -14.75 8.4375 C-12.25742882 6.39003082 -10.09876034 6.95688146 -7.0078125 7.09375 C-4.10766743 6.95833467 -2.28015061 5.71011296 0 4 C-0.66 3.34 -1.32 2.68 -2 2 C-1.34 1.34 -0.68 0.68 0 0 Z " fill="#CDC9A4" transform="translate(47,34)" />
<path d="M0 0 C3.04079826 2.77526376 4.46050988 5.08354679 5.3125 9.1171875 C4.47672197 16.82723987 -2.56173415 24.74099587 -8 30 C-8.75 27.8125 -8.75 27.8125 -9 25 C-7.0625 22.1875 -7.0625 22.1875 -5 20 C-5.33 19.34 -5.66 18.68 -6 18 C-6 17.34 -6 16.68 -6 16 C-6.99 16.99 -7.98 17.98 -9 19 C-9.17942163 15.05272412 -9.09350689 12.4019487 -7 9 C-6.34 9 -5.68 9 -5 9 C-4.8659375 8.7215625 -4.8659375 8.7215625 -4.1875 7.3125 C-2.89877353 4.80287477 -1.47073522 2.40665764 0 0 Z " fill="#84836F" transform="translate(71,23)" />
<path d="M0 0 C0 0.99 0 1.98 0 3 C-0.825 3.804375 -1.65 4.60875 -2.5 5.4375 C-5 8 -5 8 -5 12 C-2.69 12.33 -0.38 12.66 2 13 C2 13.99 2 14.98 2 16 C-5.625 15.125 -5.625 15.125 -9 14 C-9.33 17.3 -9.66 20.6 -10 24 C13.47572816 36 13.47572816 36 20 36 C21.46044922 34.56640625 21.46044922 34.56640625 22.8046875 32.5625 C23.30613281 31.83160156 23.80757812 31.10070312 24.32421875 30.34765625 C24.58009766 29.96029297 24.58009766 29.96029297 25.875 28 C26.89202014 26.49918 27.91024709 24.99917707 28.9296875 23.5 C29.17960449 23.12939453 29.17960449 23.12939453 30.44433594 21.25390625 C32.85805297 17.75681967 35.41790109 14.37385064 38 11 C38.165 11.495 38.165 11.495 39 14 C37.6640625 16.27734375 37.6640625 16.27734375 35.625 18.9375 C34.89410156 19.90300781 34.16320313 20.86851563 33.41015625 21.86328125 C32.61480469 22.89839844 31.81945313 23.93351562 31 25 C30.16333347 26.11697106 29.32870988 27.23547518 28.49609375 28.35546875 C22.25262293 36.74737707 22.25262293 36.74737707 21 38 C10.39870394 39.44563128 -0.31096963 32.51070288 -9.515625 27.94140625 C-12 26 -12 26 -13.00390625 23.16015625 C-12.99936736 19.48819333 -12.20116634 17.2093298 -10.6875 13.875 C-10.23761719 12.86179687 -9.78773437 11.84859375 -9.32421875 10.8046875 C-8.88722656 9.87914062 -8.45023438 8.95359375 -8 8 C-7.65582031 7.24203125 -7.31164062 6.4840625 -6.95703125 5.703125 C-5.69914838 3.46460691 -4.31298926 3.0119328 -2 2 C-1.34 1.34 -0.68 0.68 0 0 Z " fill="#504831" transform="translate(28,38)" />
<path d="M0 0 C0.79664063 0.40992188 1.59328125 0.81984375 2.4140625 1.2421875 C3.47367188 1.78101563 4.53328125 2.31984375 5.625 2.875 C6.66914063 3.40867188 7.71328125 3.94234375 8.7890625 4.4921875 C11.81801625 5.91454291 14.80643334 7.0122001 18 8 C18.33 9.98 18.66 11.96 19 14 C12.3227105 13.39297368 6.29872004 11.22368606 0 9 C-0.33 9.66 -0.66 10.32 -1 11 C-1.99 10.67 -2.98 10.34 -4 10 C-3.6875 8.0625 -3.6875 8.0625 -3 6 C-2.01 5.67 -1.02 5.34 0 5 C0 5.66 0 6.32 0 7 C2.64 7.33 5.28 7.66 8 8 C8 7.01 8 6.02 8 5 C7.236875 5.20625 6.47375 5.4125 5.6875 5.625 C3 6 3 6 0 4 C0 2.68 0 1.36 0 0 Z " fill="#706447" transform="translate(22,46)" />
<path d="M0 0 C0.99 0.66 1.98 1.32 3 2 C3.66 2 4.32 2 5 2 C4.23232323 12.4040404 4.23232323 12.4040404 2 17 C1.62875 17.928125 1.2575 18.85625 0.875 19.8125 C0.730625 20.1734375 0.730625 20.1734375 0 22 C-0.99 21.67 -1.98 21.34 -3 21 C-4.20272819 18.59454362 -4.10071472 17.05003047 -4.0625 14.375 C-4.05347656 13.55773437 -4.04445312 12.74046875 -4.03515625 11.8984375 C-4.02355469 11.27195312 -4.01195312 10.64546875 -4 10 C-3.67 10 -3.34 10 -3 10 C-2.86722656 9.36191406 -2.73445313 8.72382812 -2.59765625 8.06640625 C-2.42105469 7.24011719 -2.24445312 6.41382813 -2.0625 5.5625 C-1.88847656 4.73878906 -1.71445312 3.91507813 -1.53515625 3.06640625 C-1 1 -1 1 0 0 Z " fill="#9C9A85" transform="translate(49,52)" />
<path d="M0 0 C2.42843061 0.55499541 4.84607265 1.1594851 7.25 1.8125 C8.45140625 2.12832031 9.6528125 2.44414062 10.890625 2.76953125 C14.21807632 4.08629905 15.27159018 4.93573445 17 8 C18.72140979 12.16762369 19.36610637 15.50687635 19 20 C17.57421875 22.921875 17.57421875 22.921875 15.6875 25.75 C15.07261719 26.69359375 14.45773438 27.6371875 13.82421875 28.609375 C12 31 12 31 9 33 C10.29330995 29.37366033 11.86838718 26.75483861 14.25 23.75 C16.01684983 21.17495609 16.9854224 19.70084609 17.05078125 16.55859375 C16.19249516 12.3907565 14.98247796 9.11186963 12 6 C9.0390625 4.734375 9.0390625 4.734375 5.625 3.75 C4.50351562 3.41484375 3.38203125 3.0796875 2.2265625 2.734375 C-0.74230238 2.05865273 -2.99106027 1.57742471 -6 2 C-7.87890625 3.49609375 -7.87890625 3.49609375 -9.5625 5.4375 C-11.94406127 8.16007004 -13.37905182 9.43744569 -17 10 C-16.67 9.34 -16.34 8.68 -16 8 C-15.34 8 -14.68 8 -14 8 C-13.896875 7.401875 -13.79375 6.80375 -13.6875 6.1875 C-11.56510449 -0.56557663 -6.19166117 -1.21392527 0 0 Z " fill="#4F4A34" transform="translate(58,16)" />
<path d="M0 0 C1.65 0 3.3 0 5 0 C4.54917531 1.46067199 4.08906463 2.91848032 3.625 4.375 C3.49738281 4.78105469 3.49738281 4.78105469 2.8515625 6.8359375 C2 9 2 9 0 11 C-4.51612903 12.24193548 -4.51612903 12.24193548 -7 11 C-7 11.66 -7 12.32 -7 13 C-9.31 13.33 -11.62 13.66 -14 14 C-14.33 13.34 -14.66 12.68 -15 12 C-10.80005922 6.65462083 -4.21919367 5.07306456 2 3 C2 2.34 2 1.68 2 1 C1.34 0.67 0.68 0.34 0 0 Z " fill="#C3BF96" transform="translate(51,35)" />
<path d="M0 0 C-0.94083247 2.60538222 -1.70387138 4.66833595 -3.5625 6.75 C-5.78190193 10.2238465 -5.74915316 13.95185104 -6 18 C-8.92439863 14.43986254 -8.92439863 14.43986254 -9.34375 12 C-10 10 -10 10 -11.84765625 8.734375 C-12.57855469 8.40953125 -13.30945312 8.0846875 -14.0625 7.75 C-14.79597656 7.41484375 -15.52945313 7.0796875 -16.28515625 6.734375 C-16.85105469 6.49203125 -17.41695312 6.2496875 -18 6 C-18 5.67 -18 5.34 -18 5 C-17.33613281 4.97421875 -16.67226563 4.9484375 -15.98828125 4.921875 C-9.73205809 4.52001541 -5.32479696 0 0 0 Z " fill="#E7E5C8" transform="translate(53,46)" />
<path d="M0 0 C5.5483871 0.77419355 5.5483871 0.77419355 8.25 2.125 C12.53003232 3.48682846 16.61157438 2.63056989 21 2 C21 1.34 21 0.68 21 0 C22.98 0 24.96 0 27 0 C24.11593757 3.40843742 22.6291735 4.86591384 18.1875 5.8125 C17.6615625 5.8434375 17.6615625 5.8434375 15 6 C15.33 6.66 15.66 7.32 16 8 C10.67431849 6.66857962 5.68371709 4.92446726 1 2 C0.67 1.34 0.34 0.68 0 0 Z " fill="#CECAA7" transform="translate(23,46)" />
<path d="M0 0 C0.33 0.99 0.66 1.98 1 3 C0.67 3.495 0.67 3.495 -1 6 C-1.66 6 -2.32 6 -3 6 C-3.24492188 6.70511719 -3.48984375 7.41023438 -3.7421875 8.13671875 C-5.17467528 11.39763037 -6.99521869 13.96134115 -9.125 16.8125 C-9.84945312 17.78832031 -10.57390625 18.76414062 -11.3203125 19.76953125 C-11.87460937 20.50558594 -12.42890625 21.24164063 -13 22 C-13.33 21.34 -13.66 20.68 -14 20 C-14.66 19.67 -15.32 19.34 -16 19 C-15.36191406 18.32453125 -14.72382812 17.6490625 -14.06640625 16.953125 C-13.24011719 16.06109375 -12.41382813 15.1690625 -11.5625 14.25 C-11.15064453 13.80914062 -11.15064453 13.80914062 -9.06640625 11.578125 C-7.0809797 9.10103328 -6.65331898 7.96506307 -6 5 C-4.16391839 3.06728252 -2.12737753 1.62948066 0 0 Z " fill="#E1DDC2" transform="translate(67,26)" />
<path d="M0 0 C0 3 0 3 -1.375 4.4375 C-1.91125 4.953125 -2.4475 5.46875 -3 6 C-3.144375 6.309375 -3.144375 6.309375 -3.875 7.875 C-5.41704089 10.7877439 -7.62277097 12.74788829 -10 15 C-9.9278125 14.38511719 -9.855625 13.77023438 -9.78125 13.13671875 C-9.73484375 12.73259766 -9.73484375 12.73259766 -9.5 10.6875 C-9.4071875 9.88699219 -9.314375 9.08648437 -9.21875 8.26171875 C-9 6 -9 6 -9 3 C-8.01 3 -7.02 3 -6 3 C-6 2.34 -6 1.68 -6 1 C-4.02 0.67 -2.04 0.34 0 0 Z " fill="#CEC8A8" transform="translate(64,27)" />
<path d="M0 0 C0 0.99 0 1.98 0 3 C-0.825 3.804375 -1.65 4.60875 -2.5 5.4375 C-5 8 -5 8 -5 12 C-2.69 12.33 -0.38 12.66 2 13 C2 13.99 2 14.98 2 16 C0.741875 15.87625 -0.51625 15.7525 -1.8125 15.625 C-2.52019531 15.55539063 -3.22789063 15.48578125 -3.95703125 15.4140625 C-6 15 -6 15 -9 13 C-8.690625 12.0925 -8.38125 11.185 -8.0625 10.25 C-7 7 -7 7 -6.6875 4.75 C-6 3 -6 3 -3.5 1.8125 C-3.0875 1.6784375 -3.0875 1.6784375 -1 1 C-0.67 0.67 -0.34 0.34 0 0 Z " fill="#605437" transform="translate(28,38)" />
<path d="M0 0 C0.33 0 0.66 0 1 0 C1.02449219 0.37382813 1.02449219 0.37382813 1.1484375 2.265625 C1.22320312 3.25046875 1.29796875 4.2353125 1.375 5.25 C1.40980469 5.73726563 1.40980469 5.73726563 1.5859375 8.203125 C1.98465249 10.89633189 2.63507063 12.66963279 4 15 C2.68 15 1.36 15 0 15 C-0.66 14.01 -1.32 13.02 -2 12 C-2.33 12 -2.66 12 -3 12 C-3 9.36 -3 6.72 -3 4 C-2.34 3.67 -1.68 3.34 -1 3 C-0.67 2.01 -0.34 1.02 0 0 Z " fill="#91886A" transform="translate(44,60)" />
<path d="M0 0 C0 3 0 3 -1 5 C-1.22467831 6.53668865 -1.40796805 8.07968054 -1.5625 9.625 C-1.64628906 10.44226562 -1.73007812 11.25953125 -1.81640625 12.1015625 C-1.87699219 12.72804688 -1.93757813 13.35453125 -2 14 C-4.33136151 11.1387836 -5.72656129 8.4564765 -7 5 C-7.33 4.34 -7.66 3.68 -8 3 C-6.865625 2.690625 -5.73125 2.38125 -4.5625 2.0625 C-1 1 -1 1 0 0 Z " fill="#F5F4E0" transform="translate(49,50)" />
<path d="M0 0 C0.2990625 0.103125 0.2990625 0.103125 1.8125 0.625 C0.23739875 2.11292961 -1.34790864 3.5900606 -2.9375 5.0625 C-3.37835938 5.47435547 -3.37835938 5.47435547 -5.609375 7.55859375 C-7.97625032 9.45568018 -9.2384191 10.24602932 -12.1875 10.625 C-11.8575 9.965 -11.5275 9.305 -11.1875 8.625 C-10.5275 8.625 -9.8675 8.625 -9.1875 8.625 C-9.084375 8.026875 -8.98125 7.42875 -8.875 6.8125 C-7.68591942 3.02906179 -4.19615748 -0.71934128 0 0 Z " fill="#5A5339" transform="translate(53.1875,15.375)" />
<path d="M0 0 C0.33 0 0.66 0 1 0 C1.33 3.96 1.66 7.92 2 12 C1.67 12.165 1.67 12.165 0 13 C-0.66 12.67 -1.32 12.34 -2 12 C-2.05422947 10.5629191 -2.09289723 9.12524538 -2.125 7.6875 C-2.14820313 6.88699219 -2.17140625 6.08648437 -2.1953125 5.26171875 C-2 3 -2 3 0 0 Z " fill="#C1BA9E" transform="translate(47,59)" />
<path d="M0 0 C0.99 0.33 1.98 0.66 3 1 C3 3.31 3 5.62 3 8 C3.66 8.33 4.32 8.66 5 9 C5 9.66 5 10.32 5 11 C2.625 10.6875 2.625 10.6875 0 10 C-2 7 -2 7 -2 3 C-1.34 2.67 -0.68 2.34 0 2 C0 1.34 0 0.68 0 0 Z " fill="#857A58" transform="translate(39,63)" />
<path d="M0 0 C0.33 0.66 0.66 1.32 1 2 C1.99 1.67 2.98 1.34 4 1 C4 1.66 4 2.32 4 3 C3.34 3 2.68 3 2 3 C2 3.66 2 4.32 2 5 C-0.31 5.33 -2.62 5.66 -5 6 C-5.33 5.34 -5.66 4.68 -6 4 C-2.25 0 -2.25 0 0 0 Z " fill="#BDB792" transform="translate(42,43)" />
<path d="M0 0 C3.96 0 7.92 0 12 0 C12 0.99 12 1.98 12 3 C7.06729471 4.6442351 4.45975807 3.18615592 0 1 C0 0.67 0 0.34 0 0 Z " fill="#CEC9A6" transform="translate(53,22)" />
<path d="M0 0 C2.64 0.33 5.28 0.66 8 1 C8 2.32 8 3.64 8 5 C6.68 5 5.36 5 4 5 C1.75 2.5 1.75 2.5 0 0 Z " fill="#E0DBBE" transform="translate(62,20)" />
<path d="M0 0 C1.65 0 3.3 0 5 0 C5 0.33 5 0.66 5 1 C3.35 1 1.7 1 0 1 C0 0.67 0 0.34 0 0 Z M-3 1 C-2.01 1 -1.02 1 0 1 C-0.75 3.4375 -0.75 3.4375 -2 6 C-4.125 6.8125 -4.125 6.8125 -6 7 C-4.125 2.125 -4.125 2.125 -3 1 Z " fill="#E8E4C4" transform="translate(38,33)" />
<path d="M0 0 C0.33 0.66 0.66 1.32 1 2 C2.84765625 2.6328125 2.84765625 2.6328125 5.0625 3.125 C5.79597656 3.29257812 6.52945313 3.46015625 7.28515625 3.6328125 C7.85105469 3.75398438 8.41695312 3.87515625 9 4 C9 4.33 9 4.66 9 5 C4.38 5 -0.24 5 -5 5 C-3.35 3.35 -1.7 1.7 0 0 Z " fill="#D9D5B4" transform="translate(40,29)" />
<path d="M0 0 C0 3.54404336 -0.60989485 4.10267905 -2.875 6.6875 C-3.40867187 7.31011719 -3.94234375 7.93273438 -4.4921875 8.57421875 C-6 10 -6 10 -8 10 C-6.51948052 4.32467532 -6.51948052 4.32467532 -4 2.75 C-3.34 2.5025 -2.68 2.255 -2 2 C-1.34 1.34 -0.68 0.68 0 0 Z " fill="#524A32" transform="translate(28,38)" />
<path d="M0 0 C1.485 0.66 1.485 0.66 9 4 C5 6 5 6 2.25 5.125 C1.5075 4.75375 0.765 4.3825 0 4 C0 2.68 0 1.36 0 0 Z " fill="#7B7050" transform="translate(22,46)" />
<path d="M0 0 C0.5775 0.37125 1.155 0.7425 1.75 1.125 C-5.53571429 4.55357143 -5.53571429 4.55357143 -10.25 4.125 C-3.34459459 -1.30067568 -3.34459459 -1.30067568 0 0 Z " fill="#DAD6B0" transform="translate(47.25,37.875)" />
<path d="M0 0 C3.9492568 0.55105909 7.34920174 1.38935371 11 3 C11 3.33 11 3.66 11 4 C9.54054712 3.91291331 8.08234132 3.80473093 6.625 3.6875 C5.81289063 3.62949219 5.00078125 3.57148437 4.1640625 3.51171875 C2 3 2 3 0 0 Z " fill="#EBE4C3" transform="translate(23,46)" />
<path d="M0 0 C0.66 0.33 1.32 0.66 2 1 C1.74438677 3.3431213 1.40729228 5.67843403 1 8 C0.67 8.165 0.67 8.165 -1 9 C-1.09765625 2.84765625 -1.09765625 2.84765625 -1 1 C-0.67 0.67 -0.34 0.34 0 0 Z " fill="#8E835F" transform="translate(42,63)" />
<path d="M0 0 C0.99 0.33 1.98 0.66 3 1 C1.54744301 4.82946843 -0.42895561 6.12050295 -4 8 C-4 7.34 -4 6.68 -4 6 C-3.34 6 -2.68 6 -2 6 C-1.34 4.02 -0.68 2.04 0 0 Z " fill="#595238" transform="translate(38,26)" />
<path d="M0 0 C0.66 0.33 1.32 0.66 2 1 C2 2.65 2 4.3 2 6 C0.68 5.67 -0.64 5.34 -2 5 C-2 2 -2 2 0 0 Z " fill="#C6C09C" transform="translate(35,44)" />
<path d="M0 0 C0.66 0.33 1.32 0.66 2 1 C1.67 2.65 1.34 4.3 1 6 C-0.32 5.67 -1.64 5.34 -3 5 C-3 4.01 -3 3.02 -3 2 C-2.01 2 -1.02 2 0 2 C0 1.34 0 0.68 0 0 Z " fill="#E6E3C2" transform="translate(44,26)" />
<path d="M0 0 C0 0.99 0 1.98 0 3 C-0.99 3.66 -1.98 4.32 -3 5 C-3.99 4.67 -4.98 4.34 -6 4 C-4 1 -4 1 -1.875 0.3125 C-1.25625 0.209375 -0.6375 0.10625 0 0 Z " fill="#CCC8A3" transform="translate(64,27)" />
</svg>