<?xml version='1.0' encoding='utf-8'?>
<svg xmlns="http://www.w3.org/2000/svg" version="1.1" width="102" height="95">
<path d="M0 0 C3.79189724 1.75468186 7.56830646 3.40376283 11.48046875 4.8671875 C12.33906494 5.19847656 13.19766113 5.52976562 14.08227539 5.87109375 C15.79428099 6.5308039 17.5135297 7.17207046 19.23999023 7.79296875 C25.18463614 10.15117539 25.18463614 10.15117539 27.1796875 14.6328125 C27.5625 18 27.5625 18 26.5625 20 C25.9025 20 25.2425 20 24.5625 20 C24.5625 20.66 24.5625 21.32 24.5625 22 C23.428125 22.433125 22.29375 22.86625 21.125 23.3125 C19.949375 23.869375 18.77375 24.42625 17.5625 25 C17.3975 25.495 17.3975 25.495 16.5625 28 C14.60652816 29.39712274 12.60813599 30.73779907 10.5625 32 C11.98125765 31.23302204 13.39741452 30.46123222 14.8125 29.6875 C15.60140625 29.25824219 16.3903125 28.82898438 17.203125 28.38671875 C19.5625 27 19.5625 27 21.734375 25.33203125 C23.5625 24 23.5625 24 25.5625 24 C26.1875 26.625 26.1875 26.625 25.5625 30 C22.58483239 32.60021678 19.07801444 34.23176747 15.5625 36 C14.9039502 36.33354492 14.24540039 36.66708984 13.56689453 37.01074219 C10.05717221 38.7861634 6.53721781 40.53767395 3.00390625 42.265625 C-0.4375 44 -0.4375 44 -3.4375 46 C-4.283125 46.12375 -5.12875 46.2475 -6 46.375 C-8.4375 47 -8.4375 47 -9.75 49.0625 C-9.976875 49.701875 -10.20375 50.34125 -10.4375 51 C-14.94467294 49.58345993 -17.15379127 47.32217092 -20.4375 44 C-22.25210666 42.47739901 -24.08576672 40.97722543 -25.9375 39.5 C-28.82689275 37.19497882 -31.50854626 34.92728207 -34.09375 32.28125 C-36.4375 30 -36.4375 30 -39.4375 29 C-40.19923392 24.6835078 -40.59813604 21.25566547 -39.4375 17 C-40.0975 16.67 -40.7575 16.34 -41.4375 16 C-41.1075 15.34 -40.7775 14.68 -40.4375 14 C-39.4475 14.33 -38.4575 14.66 -37.4375 15 C-37.7675 14.46375 -38.0975 13.9275 -38.4375 13.375 C-39.66378024 10.46258442 -39.50615438 8.13235623 -39.4375 5 C-35.6526526 3.81039905 -31.85874239 2.65266914 -28.0625 1.5 C-27.00160156 1.16613281 -25.94070312 0.83226562 -24.84765625 0.48828125 C-16.43314939 -2.04123308 -8.26933801 -3.92180773 0 0 Z " fill="#93494F" transform="translate(58.4375,20)" />
<path d="M0 0 C0.98355469 0.44730469 1.96710937 0.89460938 2.98046875 1.35546875 C4.16253906 1.89816406 5.34460937 2.44085938 6.5625 3 C9.97066387 4.4578555 13.39203564 5.88379079 16.8125 7.3125 C18.48464106 8.01629528 20.15653729 8.7206727 21.828125 9.42578125 C22.54774414 9.72911377 23.26736328 10.03244629 24.00878906 10.3449707 C24.26515137 10.45305054 24.26515137 10.45305054 25.5625 11 C25.5625 11.99 25.5625 12.98 25.5625 14 C-3.31358069 26 -3.31358069 26 -6.4375 26 C-6.4375 27.65 -6.4375 29.3 -6.4375 31 C-10.80860191 30.4654048 -13.23781234 28.9330904 -16.6875 26.25 C-20.07623617 23.6936648 -23.37451186 21.36399371 -27.125 19.375 C-30.17818783 17.72716036 -33.12801424 16.01242718 -36 14.0625 C-36.66128906 13.62035156 -37.32257812 13.17820312 -38.00390625 12.72265625 C-40.09255497 10.21286311 -39.67884575 8.1550472 -39.4375 5 C-35.6526526 3.81039905 -31.85874239 2.65266914 -28.0625 1.5 C-27.00160156 1.16613281 -25.94070312 0.83226562 -24.84765625 0.48828125 C-16.43314939 -2.04123308 -8.26933801 -3.92180773 0 0 Z " fill="#F2F4EF" transform="translate(58.4375,20)" />
<path d="M0 0 C3.86669239 0.47815757 6.84887094 1.77147941 10.2734375 3.58203125 C11.2634375 4.10216797 12.2534375 4.62230469 13.2734375 5.15820312 C13.78519531 5.43116211 13.78519531 5.43116211 16.375 6.8125 C16.88289063 7.0796582 16.88289063 7.0796582 19.453125 8.43164062 C23.65836113 10.65167762 27.81635084 12.86998009 31.8515625 15.38671875 C35.47032563 17.24099812 37.00478894 17.74225243 41 17 C44.20313276 15.47024603 47.1473237 13.61351738 50.125 11.6875 C50.92292969 11.18798828 51.72085938 10.68847656 52.54296875 10.17382812 C55.49076607 8.31607606 58.38663481 6.48000356 61.13232422 4.33129883 C63 3 63 3 65 3 C65.625 5.625 65.625 5.625 65 9 C62.02233239 11.60021678 58.51551444 13.23176747 55 15 C54.3414502 15.33354492 53.68290039 15.66708984 53.00439453 16.01074219 C49.49467221 17.7861634 45.97471781 19.53767395 42.44140625 21.265625 C39 23 39 23 36 25 C35.154375 25.12375 34.30875 25.2475 33.4375 25.375 C31 26 31 26 29.6875 28.0625 C29.460625 28.701875 29.23375 29.34125 29 30 C24.49282706 28.58345993 22.28370873 26.32217092 19 23 C17.18539334 21.47739901 15.35173328 19.97722543 13.5 18.5 C10.61060725 16.19497882 7.92895374 13.92728207 5.34375 11.28125 C3 9 3 9 0 8 C-0.38063221 5.6739143 -0.71269945 3.33944736 -1 1 C-0.67 0.67 -0.34 0.34 0 0 Z " fill="#9093B5" transform="translate(19,41)" />
<path d="M0 0 C4.95052326 0.42433057 6.5888269 2.56004063 10 6 C12.98734782 8.44958226 16.08795246 10.75464051 19.1796875 13.0703125 C23.8936756 16.68102679 23.8936756 16.68102679 25 20 C30.55300157 21.68272775 34.79194086 19.98657962 39.9375 17.6875 C42.29018461 16.39112277 44.45566464 15.04131774 46.6875 13.5625 C50.7849015 10.92336132 55.04740365 9.45026013 59.6796875 7.9921875 C62 7 62 7 64 4 C66 6 66 6 66.4375 8.875 C66 12 66 12 64 13.8828125 C60.30770873 16.48857014 56.48058858 18.7533115 52.5625 21 C44.2268259 25.80484271 44.2268259 25.80484271 40.66015625 28.27734375 C37.42095635 30.3749754 35.78424998 30.74039674 32 30 C31.44828125 29.28328125 30.8965625 28.5665625 30.328125 27.828125 C27.30309515 24.15342431 23.79371231 21.8392248 19.875 19.1875 C18.3501814 18.12959205 16.82673909 17.06969759 15.3046875 16.0078125 C14.56831055 15.49508789 13.83193359 14.98236328 13.07324219 14.45410156 C10.34092869 12.5377498 7.65441599 10.58601132 5 8.5625 C4.236875 7.98628906 3.47375 7.41007812 2.6875 6.81640625 C0.62904876 4.60071221 0.32553235 2.96539622 0 0 Z " fill="#735711" transform="translate(18,49)" />
<path d="M0 0 C1.1859375 0.00257812 2.371875 0.00515625 3.59375 0.0078125 C4.7796875 0.00523438 5.965625 0.00265625 7.1875 0 C10.09375 0.1328125 10.09375 0.1328125 11.09375 1.1328125 C17.45423232 2.71427544 23.55981506 3.34254997 30.09765625 3.0078125 C32.09375 3.1328125 32.09375 3.1328125 34.09375 5.1328125 C33.10375 5.4628125 32.11375 5.7928125 31.09375 6.1328125 C31.09375 7.1228125 31.09375 8.1128125 31.09375 9.1328125 C29.77375 9.1328125 28.45375 9.1328125 27.09375 9.1328125 C27.09375 9.7928125 27.09375 10.4528125 27.09375 11.1328125 C25.11375 11.1328125 23.13375 11.1328125 21.09375 11.1328125 C21.09375 10.1428125 21.09375 9.1528125 21.09375 8.1328125 C22.08375 8.1328125 23.07375 8.1328125 24.09375 8.1328125 C24.09375 7.4728125 24.09375 6.8128125 24.09375 6.1328125 C16.64895505 6.00662953 16.64895505 6.00662953 13.34375 6.7578125 C10.51856692 7.22867635 9.54824344 6.51346506 7.09375 5.1328125 C5.43634285 4.75612906 3.77029729 4.41223705 2.09375 4.1328125 C2.09375 4.7928125 2.09375 5.4528125 2.09375 6.1328125 C3.08375 6.1328125 4.07375 6.1328125 5.09375 6.1328125 C5.75375 8.4428125 6.41375 10.7528125 7.09375 13.1328125 C11.05375 12.4728125 15.01375 11.8128125 19.09375 11.1328125 C19.09375 11.7928125 19.09375 12.4528125 19.09375 13.1328125 C15.11214985 16.70252298 10.79850852 16.68636939 5.69921875 16.5625 C3.09375 16.1328125 3.09375 16.1328125 -0.09375 13.7578125 C-1.90625 11.1328125 -1.90625 11.1328125 -1.90625 9.1328125 C-2.56625 9.1328125 -3.22625 9.1328125 -3.90625 9.1328125 C-4.00390625 2.98046875 -4.00390625 2.98046875 -3.90625 1.1328125 C-2.90625 0.1328125 -2.90625 0.1328125 0 0 Z " fill="#E0EBD6" transform="translate(40.90625,22.8671875)" />
<path d="M0 0 C1.54197452 0.97868179 3.08355071 1.95799116 4.625 2.9375 C5.6253125 3.57171875 6.625625 4.2059375 7.65625 4.859375 C9.95972629 6.33403038 12.25015567 7.81990145 14.53125 9.328125 C21.97025737 14.2264159 29.21814602 18.97041597 38 21 C37.34 22.98 36.68 24.96 36 27 C31.51726539 26.39820533 27.96423678 24.58859852 24.0546875 22.4375 C23.40299591 22.0861499 22.75130432 21.7347998 22.0798645 21.37280273 C20.00818798 20.25466542 17.94141118 19.12783383 15.875 18 C13.80069643 16.87363344 11.72540549 15.74915171 9.64871216 14.62719727 C8.3594432 13.93005966 7.0716789 13.23013046 5.78561401 12.52709961 C3.20760423 11.12822435 0.79029175 9.93009725 -2 9 C-2 7.68 -2 6.36 -2 5 C-2.66 4.67 -3.32 4.34 -4 4 C-3.67 3.34 -3.34 2.68 -3 2 C-2.01 2.33 -1.02 2.66 0 3 C0 2.01 0 1.02 0 0 Z " fill="#D15A56" transform="translate(21,32)" />
<path d="M0 0 C3.83136703 0.60042528 6.78167464 1.73655066 10.203125 3.546875 C11.18410156 4.0625 12.16507813 4.578125 13.17578125 5.109375 C14.19027344 5.65078125 15.20476563 6.1921875 16.25 6.75 C17.24902344 7.2759375 18.24804688 7.801875 19.27734375 8.34375 C25.22793676 11.48628539 31.13318416 14.70382914 37 18 C36.34 19.98 35.68 21.96 35 24 C29.83334748 23.53121106 26.46749345 20.86467163 22.375 17.9375 C21.67221924 17.44378906 20.96943848 16.95007813 20.24536133 16.44140625 C18.1570241 14.96992071 16.07765999 13.4865096 14 12 C13.41686035 11.58637207 12.8337207 11.17274414 12.23291016 10.74658203 C2.64637106 3.94612183 2.64637106 3.94612183 0 1 C0 0.67 0 0.34 0 0 Z " fill="#F2F3F0" transform="translate(19,41)" />
<path d="M0 0 C4.95052326 0.42433057 6.5888269 2.56004063 10 6 C12.98734782 8.44958226 16.08795246 10.75464051 19.1796875 13.0703125 C23.8936756 16.68102679 23.8936756 16.68102679 25 20 C29.2274734 21.81177431 33.45319073 22.45438289 38 23 C38 23.66 38 24.32 38 25 C37.01 25 36.02 25 35 25 C35 26.32 35 27.64 35 29 C30.08329945 27.41794029 26.47031482 24.55012698 22.4375 21.4375 C21.01700892 20.35536132 19.59643514 19.27333118 18.17578125 18.19140625 C17.47404785 17.65402832 16.77231445 17.11665039 16.04931641 16.56298828 C13.09325582 14.30843743 10.10885349 12.09254672 7.125 9.875 C4.59349384 7.99189051 2.22941305 6.22941305 0 4 C0 2.68 0 1.36 0 0 Z " fill="#CDA141" transform="translate(18,49)" />
<path d="M0 0 C0 1.32 0 2.64 0 4 C-6.24245823 7.72960428 -12.57474995 10.7710082 -19.375 13.3125 C-20.05240234 13.56660645 -20.72980469 13.82071289 -21.42773438 14.08251953 C-24.92241718 15.35622578 -28.32734707 16.3973446 -32 17 C-32 15.35 -32 13.7 -32 12 C-28.12648123 10.37145319 -24.25093163 8.7477949 -20.375 7.125 C-19.28058594 6.66480469 -18.18617187 6.20460938 -17.05859375 5.73046875 C-16.52685547 5.50810547 -16.52685547 5.50810547 -13.8359375 4.3828125 C-12.86188965 3.97434082 -11.8878418 3.56586914 -10.88427734 3.14501953 C-2.96204691 0 -2.96204691 0 0 0 Z " fill="#9F91B0" transform="translate(84,34)" />
<path d="M0 0 C5.75 -0.125 5.75 -0.125 8 1 C11.69230769 2.15384615 11.69230769 2.15384615 14 1 C19.53846154 0.76923077 19.53846154 0.76923077 22 2 C22 2.66 22 3.32 22 4 C21.01 4 20.02 4 19 4 C19 4.99 19 5.98 19 7 C20.98 7 22.96 7 25 7 C25 6.34 25 5.68 25 5 C26.65 5 28.3 5 30 5 C30 5.66 30 6.32 30 7 C29.34 7 28.68 7 28 7 C28 7.66 28 8.32 28 9 C25.855 9.165 25.855 9.165 15 10 C15.66 9.67 16.32 9.34 17 9 C17 8.34 17 7.68 17 7 C16.39671875 7.22816406 15.7934375 7.45632812 15.171875 7.69140625 C14.77226563 7.83513672 14.77226563 7.83513672 12.75 8.5625 C11.96109375 8.85253906 11.1721875 9.14257812 10.359375 9.44140625 C7.80896548 10.04522837 6.44677771 9.8473932 4 9 C3.67 6.69 3.34 4.38 3 2 C2.01 2 1.02 2 0 2 C0 1.34 0 0.68 0 0 Z " fill="#E9F2DE" transform="translate(43,27)" />
<path d="M0 0 C4.49084882 0.3742374 6.58031106 2.21653226 10 5 C11.27676151 5.6748211 12.57004121 6.31896462 13.875 6.9375 C16.73285566 8.29632948 19.21448197 9.79402302 21.75 11.6875 C24.56115818 13.68774717 25.80137828 14.36722918 29 15 C29 16.65 29 18.3 29 20 C24.62889809 19.4654048 22.19968766 17.9330904 18.75 15.25 C15.30378435 12.64443804 11.9527616 10.31599395 8.125 8.3125 C4.37090846 6.33098669 1.80923496 4.17171689 -1 1 C-0.67 0.67 -0.34 0.34 0 0 Z " fill="#EFCFD1" transform="translate(23,31)" />
<path d="M0 0 C4.24635127 3.163948 8.46764 6.35522466 12.65673828 9.59472656 C19.02187461 14.51639788 25.46175577 19.3092356 32 24 C31.34 24.99 30.68 25.98 30 27 C25.49282706 25.58345993 23.28370873 23.32217092 20 20 C18.18539334 18.47739901 16.35173328 16.97722543 14.5 15.5 C11.61060725 13.19497882 8.92895374 10.92728207 6.34375 8.28125 C4 6 4 6 1 5 C0.67 3.35 0.34 1.7 0 0 Z " fill="#698BB2" transform="translate(18,44)" />
<path d="M0 0 C0.66 0 1.32 0 2 0 C2 0.66 2 1.32 2 2 C2.73645752 2.26643311 3.47291504 2.53286621 4.23168945 2.80737305 C6.95497097 3.98060086 8.95244866 5.27824195 11.29296875 7.08203125 C12.08896484 7.68466797 12.88496094 8.28730469 13.70507812 8.90820312 C15.34207232 10.16396185 16.97752663 11.42173085 18.61132812 12.68164062 C24.13094394 16.85349483 29.70543137 20.12670082 36 23 C33.81476054 24.32675253 32.54835171 25.0611694 29.96679688 24.77319336 C27.8673205 23.94784062 26.32843886 22.9896855 24.53125 21.62890625 C24.20705078 21.38519287 24.20705078 21.38519287 22.56640625 20.15185547 C21.88449219 19.62736816 21.20257813 19.10288086 20.5 18.5625 C19.79746094 18.0277002 19.09492187 17.49290039 18.37109375 16.94189453 C4.69898315 6.46759383 4.69898315 6.46759383 0 2 C0 1.34 0 0.68 0 0 Z " fill="#87B5E3" transform="translate(18,42)" />
<path d="M0 0 C1.6792238 0.63437344 3.35008418 1.29289322 5 2 C5 2.99 5 3.98 5 5 C2.25138605 6.1492567 -0.49877984 7.29451341 -3.25 8.4375 C-4.02730469 8.76298828 -4.80460937 9.08847656 -5.60546875 9.42382812 C-5.98251953 9.58012695 -5.98251953 9.58012695 -7.890625 10.37109375 C-8.58188477 10.65911865 -9.27314453 10.94714355 -9.98535156 11.24389648 C-11.97191686 11.98946031 -13.93306394 12.52784696 -16 13 C-16.33 12.34 -16.66 11.68 -17 11 C-16.34 10.67 -15.68 10.34 -15 10 C-14.67 9.01 -14.34 8.02 -14 7 C-12.02 7 -10.04 7 -8 7 C-8 6.34 -8 5.68 -8 5 C-7.34 5 -6.68 5 -6 5 C-6.33 3.35 -6.66 1.7 -7 0 C-4.26965677 -1.36517162 -2.92769462 -0.74894513 0 0 Z " fill="#F0F1F4" transform="translate(79,29)" />
<path d="M0 0 C1 2 1 2 0.51953125 3.9375 C-1.73843112 7.00229212 -4.83807917 7.79438591 -8.3125 9 C-13.2865585 10.75611765 -16.9372451 12.51056069 -21 16 C-27.11864407 19.11299435 -27.11864407 19.11299435 -30.4375 18.6875 C-30.953125 18.460625 -31.46875 18.23375 -32 18 C-31.67 17.01 -31.34 16.02 -31 15 C-29.32536126 14.49322887 -27.64614029 13.99703568 -25.94775391 13.57666016 C-22.73948723 12.62680732 -20.04715706 10.89675788 -17.1875 9.1875 C-15.97130953 8.47051899 -14.75385042 7.75568576 -13.53515625 7.04296875 C-13.23810791 6.86918701 -13.23810791 6.86918701 -11.73486328 5.98974609 C-7.91713161 3.81171567 -3.96204856 1.89886198 0 0 Z " fill="#4B5D8E" transform="translate(81,51)" />
<path d="M0 0 C8.35361865 5.30199062 16.68084272 10.64416298 25 16 C22 17 22 17 18.55859375 15.5234375 C17.17975683 14.8172367 15.80629459 14.10047377 14.4375 13.375 C13.72529297 13.00761719 13.01308594 12.64023437 12.27929688 12.26171875 C10.84950106 11.52417702 9.42157027 10.78300759 7.99560547 10.03808594 C5.34624309 8.65992484 2.67487193 7.32784173 0 6 C-1.33333333 5.33333333 -2.66666667 4.66666667 -4 4 C-3.67 3.34 -3.34 2.68 -3 2 C-2.01 2.33 -1.02 2.66 0 3 C0 2.01 0 1.02 0 0 Z " fill="#E57E78" transform="translate(21,32)" />
<path d="M0 0 C0.845625 0.30421875 1.69125 0.6084375 2.5625 0.921875 C3.408125 1.21578125 4.25375 1.5096875 5.125 1.8125 C5.929375 2.09609375 6.73375 2.3796875 7.5625 2.671875 C8.89150043 3.02208457 10.22353665 3.36192978 11.5625 3.671875 C10.9025 5.651875 10.2425 7.631875 9.5625 9.671875 C5.41951333 9.07352775 2.38055623 7.66523215 -1.25 5.609375 C-2.22582031 5.06152344 -3.20164063 4.51367188 -4.20703125 3.94921875 C-4.94308594 3.52769531 -5.67914063 3.10617188 -6.4375 2.671875 C-3.12991012 -0.42133405 -3.12991012 -0.42133405 0 0 Z " fill="#D86A69" transform="translate(47.4375,49.328125)" />
<path d="M0 0 C3.34373475 0.55728913 6.03312999 1.35173889 9 3 C9 3.99 9 4.98 9 6 C9.680625 6.2475 10.36125 6.495 11.0625 6.75 C14.56865083 8.24197908 17.71620368 10.06835511 21 12 C21 12.66 21 13.32 21 14 C22.32 14.66 23.64 15.32 25 16 C24.67 16.66 24.34 17.32 24 18 C19.99113585 16.23050136 16.58195126 13.6325524 13.0625 11.0625 C6.5083298 6.28761672 6.5083298 6.28761672 3.12109375 4.37109375 C1 3 1 3 0 0 Z " fill="#C8E5F3" transform="translate(19,41)" />
<path d="M0 0 C2.95857409 -0.05379226 5.91617721 -0.09357093 8.875 -0.125 C9.71675781 -0.14175781 10.55851562 -0.15851562 11.42578125 -0.17578125 C12.23144531 -0.18222656 13.03710938 -0.18867188 13.8671875 -0.1953125 C14.23900146 -0.20054932 14.23900146 -0.20054932 16.12060547 -0.22705078 C18 0 18 0 20 2 C19.01 2.33 18.02 2.66 17 3 C17 3.99 17 4.98 17 6 C15.68 6 14.36 6 13 6 C13 6.66 13 7.32 13 8 C11.02 8 9.04 8 7 8 C7 7.01 7 6.02 7 5 C7.99 5 8.98 5 10 5 C10 4.34 10 3.68 10 3 C6.7 2.34 3.4 1.68 0 1 C0 0.67 0 0.34 0 0 Z " fill="#C1D2AF" transform="translate(55,26)" />
<path d="M0 0 C5.75 -0.125 5.75 -0.125 8 1 C10.65756465 1.43225449 13.32332885 1.69779519 16 2 C16 2.99 16 3.98 16 5 C14.35 5 12.7 5 11 5 C11 5.66 11 6.32 11 7 C9.75 8.6875 9.75 8.6875 8 10 C5.8125 9.6875 5.8125 9.6875 4 9 C3.67 6.69 3.34 4.38 3 2 C2.01 2 1.02 2 0 2 C0 1.34 0 0.68 0 0 Z " fill="#F2EEF1" transform="translate(43,27)" />
<path d="M0 0 C0.66 0.33 1.32 0.66 2 1 C3.06350897 6.94640232 3.47406519 13.10373922 2 19 C1.34 17.68 0.68 16.36 0 15 C-3.62276315 16.3255581 -6.63505348 17.94346955 -9.8125 20.125 C-10.60269531 20.66382812 -11.39289063 21.20265625 -12.20703125 21.7578125 C-12.79871094 22.16773437 -13.39039062 22.57765625 -14 23 C-14.66 22.34 -15.32 21.68 -16 21 C-14.20963542 20.05598958 -12.41927083 19.11197917 -10.62890625 18.16796875 C-9 17 -9 17 -8 14 C-4.4375 12.8125 -4.4375 12.8125 -1 12 C-1 11.34 -1 10.68 -1 10 C-0.34 9.34 0.32 8.68 1 8 C0.9765625 6.0546875 0.9765625 6.0546875 0.625 3.875 C0.41875 2.59625 0.2125 1.3175 0 0 Z " fill="#60444B" transform="translate(84,30)" />
<path d="M0 0 C4.90579632 0.42049683 6.7185393 2.47843242 10 6 C11.96296057 7.71642761 13.97718225 9.35352044 16 11 C13.35375715 12.32312142 11.70057338 11.71175796 8.953125 10.86328125 C5.45906426 9.3189064 2.36569573 7.00565597 0 4 C0 2.68 0 1.36 0 0 Z " fill="#E1CA54" transform="translate(18,49)" />
<path d="M0 0 C0.23589844 0.5775 0.47179687 1.155 0.71484375 1.75 C5.36404237 9.88963041 16.80623652 15.79112249 24.42407227 21.01367188 C25.13233154 21.50287109 25.84059082 21.99207031 26.5703125 22.49609375 C27.20727051 22.93107178 27.84422852 23.3660498 28.50048828 23.81420898 C30 25 30 25 31 27 C27.4124787 25.66749209 24.1635377 24.169283 21 22 C21 21.34 21 20.68 21 20 C20.34644531 19.78859375 19.69289063 19.5771875 19.01953125 19.359375 C14.85440554 17.48426019 11.36180555 14.9425206 7.6875 12.25 C6.94693359 11.73695312 6.20636719 11.22390625 5.44335938 10.6953125 C3.43904305 9.22486476 1.65723053 7.85390908 0 6 C-0.48046875 2.609375 -0.48046875 2.609375 0 0 Z " fill="#684B0D" transform="translate(17,49)" />
<path d="M0 0 C-1.03991128 3.01574271 -1.96914829 3.97991051 -4.6875 5.75 C-8.35033925 7.13220349 -11.11747717 7.23295137 -15 7 C-15 6.01 -15 5.02 -15 4 C-12.39457984 2.26305323 -10.41657225 1.30899552 -7.5 0.3125 C-7.11328125 0.17650391 -7.11328125 0.17650391 -5.15625 -0.51171875 C-3 -1 -3 -1 0 0 Z " fill="#8E6D16" transform="translate(78,61)" />
<path d="M0 0 C1.67542976 0.28604898 3.34385343 0.61781233 5 1 C5.33 1.99 5.66 2.98 6 4 C10.69023454 3.43393721 15.34500026 2.81462495 20 2 C20 2.66 20 3.32 20 4 C16.03651169 7.55347228 11.69124337 7.60685715 6.60546875 7.50390625 C3.65347723 6.93298135 2.70080625 6.28869211 0.8125 4 C0.214375 3.01 -0.38375 2.02 -1 1 C-0.67 0.67 -0.34 0.34 0 0 Z " fill="#90B46B" transform="translate(40,32)" />
<path d="M0 0 C0.33 0 0.66 0 1 0 C0.67 2.31 0.34 4.62 0 7 C-1.32 7.33 -2.64 7.66 -4 8 C-4 7.34 -4 6.68 -4 6 C-5.75280733 6.42611351 -7.50217435 6.86639267 -9.25 7.3125 C-9.73726562 7.43431641 -9.73726562 7.43431641 -12.203125 8.05078125 C-14.98975665 8.99652356 -16.77304368 10.10708713 -19 12 C-19.66 11.67 -20.32 11.34 -21 11 C-17.0209529 7.44507613 -13.16861451 5.63684161 -8.25 3.8125 C-1.09882398 1.09882398 -1.09882398 1.09882398 0 0 Z " fill="#7C6926" transform="translate(81,55)" />
<path d="M0 0 C0.99 0.66 1.98 1.32 3 2 C3.5 4.875 3.5 4.875 3 8 C-0.41613557 11.11745705 -4.21370452 13.46771385 -8.1875 15.8125 C-9.23292969 16.43769531 -10.27835937 17.06289062 -11.35546875 17.70703125 C-12.22816406 18.13371094 -13.10085937 18.56039062 -14 19 C-14.66 18.67 -15.32 18.34 -16 18 C-2.63106796 9 -2.63106796 9 0 9 C0 6.03 0 3.06 0 0 Z " fill="#564722" transform="translate(81,53)" />
<path d="M0 0 C-3.70249493 3.20743441 -7.34313573 5.26361588 -11.8125 7.25 C-12.97394531 7.77078125 -14.13539062 8.2915625 -15.33203125 8.828125 C-16.21246094 9.21484375 -17.09289062 9.6015625 -18 10 C-17.67 8.68 -17.34 7.36 -17 6 C-16.360625 5.87625 -15.72125 5.7525 -15.0625 5.625 C-14.381875 5.41875 -13.70125 5.2125 -13 5 C-12.67 4.34 -12.34 3.68 -12 3 C-11.01 3 -10.02 3 -9 3 C-9 2.34 -9 1.68 -9 1 C-5.64919071 -1.10976881 -3.77897651 -1.0497157 0 0 Z " fill="#7591C3" transform="translate(83,50)" />
<path d="M0 0 C5.65394631 -0.34615998 9.03006806 0.56574762 14 3 C14 3.99 14 4.98 14 6 C9.45319073 5.45438289 5.2274734 4.81177431 1 3 C0.67 2.01 0.34 1.02 0 0 Z " fill="#F1F4F1" transform="translate(46,18)" />
<path d="M0 0 C2.12438339 -0.08078641 4.2496323 -0.13909141 6.375 -0.1875 C7.55835938 -0.22230469 8.74171875 -0.25710937 9.9609375 -0.29296875 C10.46238281 -0.24462891 10.46238281 -0.24462891 13 0 C13.66 0.99 14.32 1.98 15 3 C11.04 2.67 7.08 2.34 3 2 C3 3.65 3 5.3 3 7 C2.34 7 1.68 7 1 7 C0.67 4.69 0.34 2.38 0 0 Z " fill="#9BBA80" transform="translate(38,23)" />
<path d="M0 0 C2 3.75 2 3.75 2 6 C2.66 6 3.32 6 4 6 C4 5.34 4 4.68 4 4 C5.65 4.33 7.3 4.66 9 5 C9.66 7.64 10.32 10.28 11 13 C10.01 12.67 9.02 12.34 8 12 C7.67 11.01 7.34 10.02 7 9 C4.69 8.67 2.38 8.34 0 8 C0 5.36 0 2.72 0 0 Z " fill="#CCE5B8" transform="translate(37,24)" />
<path d="M0 0 C-0.99 0.33 -1.98 0.66 -3 1 C-3 1.99 -3 2.98 -3 4 C-2.34 4 -1.68 4 -1 4 C-1.33 4.99 -1.66 5.98 -2 7 C-3.65614657 7.38218767 -5.32457024 7.71395102 -7 8 C-8 7 -8 7 -8.0625 3.9375 C-8.041875 2.968125 -8.02125 1.99875 -8 1 C-2.25 -1.125 -2.25 -1.125 0 0 Z " fill="#E9F2EE" transform="translate(27,24)" />
<path d="M0 0 C0.33 0 0.66 0 1 0 C1.33 2.31 1.66 4.62 2 7 C1.01 7.33 0.02 7.66 -1 8 C-1 8.66 -1 9.32 -1 10 C-2.43344 10.53190541 -3.87195367 11.05015258 -5.3125 11.5625 C-5.71275391 11.70751953 -5.71275391 11.70751953 -7.73828125 12.44140625 C-10 13 -10 13 -13 12 C-11.21118264 10.99491199 -9.41885304 9.99607264 -7.625 9 C-6.62726563 8.443125 -5.62953125 7.88625 -4.6015625 7.3125 C-2 6 -2 6 0 6 C0 4.02 0 2.04 0 0 Z " fill="#864F5E" transform="translate(84,32)" />
<path d="M0 0 C-2.45699392 2.63249349 -4.56568654 4.78137264 -8 6 C-8.99 5.67 -9.98 5.34 -11 5 C-8.028376 -0.51873028 -6.10563207 -1.48515375 0 0 Z " fill="#954757" transform="translate(68,53)" />
<path d="M0 0 C1.65 0 3.3 0 5 0 C5 0.66 5 1.32 5 2 C4.34 2 3.68 2 3 2 C3 2.66 3 3.32 3 4 C0.855 4.165 0.855 4.165 -10 5 C-9.34 4.67 -8.68 4.34 -8 4 C-7.67 3.01 -7.34 2.02 -7 1 C-4.69 1.33 -2.38 1.66 0 2 C0 1.34 0 0.68 0 0 Z " fill="#E0ECC9" transform="translate(68,32)" />
<path d="M0 0 C3.3 0.99 6.6 1.98 10 3 C10 4.32 10 5.64 10 7 C5.48521602 6.46884894 2.65333143 4.63379708 -1 2 C-0.67 1.34 -0.34 0.68 0 0 Z " fill="#C9DFF2" transform="translate(44,58)" />
<path d="M0 0 C0.99 0.33 1.98 0.66 3 1 C2.67 2.32 2.34 3.64 2 5 C-1.34373475 4.44271087 -4.03312999 3.64826111 -7 2 C-7 1.34 -7 0.68 -7 0 C-4.30224476 -1.34887762 -2.88231982 -0.70300484 0 0 Z " fill="#D04F49" transform="translate(55,54)" />
<path d="M0 0 C3.89608498 1.48904175 7.59097018 3.24378713 11.3125 5.125 C12.38113281 5.66382813 13.44976562 6.20265625 14.55078125 6.7578125 C14.95490234 6.96277344 14.95490234 6.96277344 17 8 C16.34 8.66 15.68 9.32 15 10 C14.01 10 13.02 10 12 10 C12 9.34 12 8.68 12 8 C11.42765625 7.71382812 10.8553125 7.42765625 10.265625 7.1328125 C6.84375 5.421875 3.421875 3.7109375 0 2 C0 1.34 0 0.68 0 0 Z " fill="#F8E3E0" transform="translate(28,45)" />
<path d="M0 0 C5.11672973 3.50222763 8.90644332 6.58627581 12 12 C7.99635363 10.7015201 6.40477206 9.38854245 4 6 C3.01 5.67 2.02 5.34 1 5 C0.67 3.35 0.34 1.7 0 0 Z " fill="#7B9096" transform="translate(18,44)" />
<path d="M0 0 C3.54243452 1.36591169 6.92627929 2.90931484 10.3125 4.625 C10.75400391 4.84800781 10.75400391 4.84800781 12.98828125 5.9765625 C13.65214844 6.31429687 14.31601562 6.65203125 15 7 C11.2421875 9.0078125 11.2421875 9.0078125 9.0625 8.9375 C4.97485911 7.07948141 2.43991011 3.65986516 0 0 Z " fill="#7BA6D4" transform="translate(39,58)" />
<path d="M0 0 C-0.33 0.99 -0.66 1.98 -1 3 C-4.61100785 4.66661901 -8.22886015 3.7826894 -12 3 C-12.33 2.34 -12.66 1.68 -13 1 C-8.59085217 -0.10228696 -4.51617599 -0.07654536 0 0 Z " fill="#8C6B1F" transform="translate(61,69)" />
<path d="M0 0 C-2.49398774 2.49398774 -4.83552462 3.10613333 -8.125 4.21875 C-10 5 -10 5 -12 7 C-12 5.35 -12 3.7 -12 2 C-4.71428571 -1.57142857 -4.71428571 -1.57142857 0 0 Z " fill="#9E9DC0" transform="translate(64,44)" />
<path d="M0 0 C0.33 0.66 0.66 1.32 1 2 C1.66 2 2.32 2 3 2 C4.37849103 3.28659163 5.70529025 4.62913085 7 6 C7.7425 6.7425 8.485 7.485 9.25 8.25 C9.8275 8.8275 10.405 9.405 11 10 C10.01 10.33 9.02 10.66 8 11 C5.95703125 9.70703125 5.95703125 9.70703125 3.8125 7.8125 C3.09707031 7.20019531 2.38164062 6.58789062 1.64453125 5.95703125 C0 4 0 4 0 0 Z " fill="#D2A41A" transform="translate(18,49)" />
<path d="M0 0 C1.48285242 0.95262034 2.96118201 1.91228405 4.4375 2.875 C4.84935547 3.14183594 4.84935547 3.14183594 6.93359375 4.4921875 C9 6 9 6 10 8 C8.22888156 7.52188823 6.45811517 7.0424722 4.6875 6.5625 C3.70136719 6.29566406 2.71523438 6.02882813 1.69921875 5.75390625 C-0.21517526 5.21920575 -2.11433615 4.62855462 -4 4 C-3.67 3.34 -3.34 2.68 -3 2 C-2.01 2.33 -1.02 2.66 0 3 C0 2.01 0 1.02 0 0 Z " fill="#DD645F" transform="translate(21,32)" />
<path d="M0 0 C4.37977021 0.36498085 6.8352851 2.01612595 10 5 C10 5.66 10 6.32 10 7 C9.34 7 8.68 7 8 7 C8 6.34 8 5.68 8 5 C6.88625 4.896875 5.7725 4.79375 4.625 4.6875 C4.026875 4.5740625 4.026875 4.5740625 1 4 C0.34 3.01 -0.32 2.02 -1 1 C-0.67 0.67 -0.34 0.34 0 0 Z " fill="#EDD6D6" transform="translate(23,31)" />
<path d="M0 0 C0.99 0.33 1.98 0.66 3 1 C3 1.99 3 2.98 3 4 C1.68 4.33 0.36 4.66 -1 5 C-0.01 5.33 0.98 5.66 2 6 C1.67 7.65 1.34 9.3 1 11 C0.34 11 -0.32 11 -1 11 C-2.4783226 8.04335481 -2.06032783 5.25770263 -2 2 C-1.34 2 -0.68 2 0 2 C0 1.34 0 0.68 0 0 Z " fill="#7C3A2A" transform="translate(18,31)" />
<path d="M0 0 C0.66 0.33 1.32 0.66 2 1 C-1.01887244 4.48331435 -3.56909529 5.79157144 -8 7 C-8 6.01 -8 5.02 -8 4 C-6.71349294 3.30289269 -5.42059335 2.61757124 -4.125 1.9375 C-3.40570313 1.55464844 -2.68640625 1.17179687 -1.9453125 0.77734375 C-1.30335937 0.52082031 -0.66140625 0.26429687 0 0 Z " fill="#87640B" transform="translate(76,61)" />
<path d="M0 0 C-5.41538462 4.06153846 -5.41538462 4.06153846 -8.375 3.75 C-8.91125 3.5025 -9.4475 3.255 -10 3 C-9.67 2.01 -9.34 1.02 -9 0 C-5.62182575 -0.84454356 -3.32534757 -1.10844919 0 0 Z " fill="#405982" transform="translate(59,66)" />
<path d="M0 0 C0 0.66 0 1.32 0 2 C-5 4 -10 6 -15 8 C-11.03279342 3.4129174 -6.40279478 0 0 0 Z " fill="#676049" transform="translate(75,59)" />
<path d="M0 0 C1.32 0.33 2.64 0.66 4 1 C4 1.99 4 2.98 4 4 C3.34 4 2.68 4 2 4 C2 4.66 2 5.32 2 6 C0.02 6 -1.96 6 -4 6 C-4 5.01 -4 4.02 -4 3 C-2.02 3 -0.04 3 2 3 C2 2.34 2 1.68 2 1 C1.34 0.67 0.68 0.34 0 0 Z " fill="#8DAA72" transform="translate(66,28)" />
<path d="M0 0 C1.65 0 3.3 0 5 0 C5 0.66 5 1.32 5 2 C4.01 2 3.02 2 2 2 C2 3.32 2 4.64 2 6 C-1.65316671 4.75023244 -2.78065836 4.32901247 -5 1 C-3.02 1.66 -1.04 2.32 1 3 C0.67 2.01 0.34 1.02 0 0 Z " fill="#B88E1F" transform="translate(51,72)" />
<path d="M0 0 C2 3.75 2 3.75 2 6 C2.33 6.495 2.33 6.495 4 9 C2.35 9.33 0.7 9.66 -1 10 C-2.46726798 6.18510326 -1.43336419 3.70988378 0 0 Z " fill="#615C55" transform="translate(84,45)" />
<path d="M0 0 C0 1.98 0 3.96 0 6 C-1.65 5.67 -3.3 5.34 -5 5 C-5 4.01 -5 3.02 -5 2 C-2 0 -2 0 0 0 Z " fill="#A7ABC6" transform="translate(84,44)" />
<path d="M0 0 C1.79236067 0.47656412 3.58386897 0.95633498 5.375 1.4375 C6.37273438 1.70433594 7.37046875 1.97117188 8.3984375 2.24609375 C11 3 11 3 13 4 C13 4.66 13 5.32 13 6 C7.71862571 5.48474397 4.42778844 3.74522883 0 1 C0 0.67 0 0.34 0 0 Z " fill="#F5766D" transform="translate(20,36)" />
<path d="M0 0 C2.875 0.25 2.875 0.25 6 1 C7.375 3.0625 7.375 3.0625 8 5 C5 5 5 5 2.3125 2.5 C1.549375 1.675 0.78625 0.85 0 0 Z " fill="#D69E18" transform="translate(28,60)" />
<path d="M0 0 C0.66 0 1.32 0 2 0 C1.67 1.32 1.34 2.64 1 4 C-1.97 4.66 -4.94 5.32 -8 6 C-7.67 5.34 -7.34 4.68 -7 4 C-4.6859378 3.26924352 -2.35171131 2.59861742 0 2 C0 1.34 0 0.68 0 0 Z " fill="#7A3944" transform="translate(83,40)" />
<path d="M0 0 C0 1.32 0 2.64 0 4 C-2.875 4.125 -2.875 4.125 -6 4 C-6.66 3.34 -7.32 2.68 -8 2 C-2.25 0 -2.25 0 0 0 Z " fill="#9D9DBD" transform="translate(84,34)" />
<path d="M0 0 C0.66 0.66 1.32 1.32 2 2 C0.54735962 2.8638129 -0.9123163 3.71580454 -2.375 4.5625 C-2.78105469 4.80033203 -2.78105469 4.80033203 -4.8359375 6.00390625 C-5.55007812 6.33261719 -6.26421875 6.66132812 -7 7 C-7.66 6.67 -8.32 6.34 -9 6 C-6.03 4.02 -3.06 2.04 0 0 Z " fill="#5A4917" transform="translate(74,65)" />
<path d="M0 0 C3.375 -0.125 3.375 -0.125 7 0 C7.66 0.66 8.32 1.32 9 2 C5.42355152 3.2380014 2.66305234 2.74926071 -1 2 C-0.67 1.34 -0.34 0.68 0 0 Z " fill="#7D691A" transform="translate(56,67)" />
<path d="M0 0 C0 0.66 0 1.32 0 2 C-2.25 3.75 -2.25 3.75 -5 5 C-7.3125 4.1875 -7.3125 4.1875 -9 3 C-5.87496336 0.91664224 -3.72863529 0 0 0 Z " fill="#A4BD82" transform="translate(60,34)" />
<path d="M0 0 C1.98 0 3.96 0 6 0 C6 0.66 6 1.32 6 2 C4.02 2.99 2.04 3.98 0 5 C0 3.35 0 1.7 0 0 Z " fill="#7C8DC4" transform="translate(54,61)" />
<path d="M0 0 C0.37125 0.1134375 0.37125 0.1134375 2.25 0.6875 C0.5625 2.25 0.5625 2.25 -1.75 3.6875 C-4.5 3.375 -4.5 3.375 -6.75 2.6875 C-4.29511132 0.41445492 -3.41240272 -0.38777304 0 0 Z " fill="#7B9AC5" transform="translate(80.75,49.3125)" />
<path d="M0 0 C3.82097239 0.53069061 6.06171403 1.49701566 9 4 C3.48 4.368 3.48 4.368 1.125 2.5625 C0 1 0 1 0 0 Z " fill="#E2D4E3" transform="translate(19,41)" />
<path d="M0 0 C-1.32 1.32 -2.64 2.64 -4 4 C-4.99 3.67 -5.98 3.34 -7 3 C-7 2.01 -7 1.02 -7 0 C-3.86650268 -1.04449911 -3.01031744 -0.93423645 0 0 Z " fill="#9391B6" transform="translate(69,42)" />
<path d="M0 0 C0.99 0 1.98 0 3 0 C3.66 2.64 4.32 5.28 5 8 C2 7 2 7 0.8125 5.125 C0 3 0 3 0 0 Z " fill="#DBEBCA" transform="translate(43,29)" />
<path d="M0 0 C2.64 0.33 5.28 0.66 8 1 C8.33 1.99 8.66 2.98 9 4 C5.17902761 3.46930939 2.93828597 2.50298434 0 0 Z " fill="#CE6C63" transform="translate(48,55)" />
<path d="M0 0 C0.33 0.66 0.66 1.32 1 2 C0.0625 4.125 0.0625 4.125 -1 6 C-1.99 6 -2.98 6 -4 6 C-3.6875 4.125 -3.6875 4.125 -3 2 C-2.01 1.34 -1.02 0.68 0 0 Z " fill="#3F4C83" transform="translate(81,51)" />
<path d="M0 0 C0.99 0.66 0.99 0.66 6 4 C5.67 4.99 5.34 5.98 5 7 C3.0625 6.3125 3.0625 6.3125 1 5 C0.25 2.375 0.25 2.375 0 0 Z " fill="#628BB2" transform="translate(18,44)" />
<path d="M0 0 C0.2475 0.5775 0.495 1.155 0.75 1.75 C2.16683317 4.3002997 3.87627537 6.01785701 6 8 C5.67 8.66 5.34 9.32 5 10 C2.5 8.375 2.5 8.375 0 6 C-0.3125 2.75 -0.3125 2.75 0 0 Z " fill="#5D4512" transform="translate(17,49)" />
<path d="M0 0 C0.99 0.33 1.98 0.66 3 1 C0.47211993 3.79872437 -1.20411134 5.45773019 -5 6 C-5 5.34 -5 4.68 -5 4 C-4.360625 3.71125 -3.72125 3.4225 -3.0625 3.125 C-1 2 -1 2 0 0 Z " fill="#804E69" transform="translate(65,52)" />
<path d="M0 0 C0.66 0.33 1.32 0.66 2 1 C1.67 1.99 1.34 2.98 1 4 C-1.31 4.33 -3.62 4.66 -6 5 C-2.25 1.125 -2.25 1.125 0 0 Z " fill="#9E4E55" transform="translate(74,44)" />
<path d="M0 0 C-5.625 3 -5.625 3 -9 3 C-8.67 2.01 -8.34 1.02 -8 0 C-4.71303767 -0.79953138 -3.28976808 -1.09658936 0 0 Z " fill="#9E7E99" transform="translate(74,43)" />
<path d="M0 0 C1.155 0.66 1.155 0.66 7 4 C4.39417629 4.93065133 3.35801776 5.14917407 0.75 4.0625 C0.1725 3.711875 -0.405 3.36125 -1 3 C-0.67 2.01 -0.34 1.02 0 0 Z " fill="#E1DFDE" transform="translate(40,40)" />
<path d="M0 0 C0.33 0.99 0.66 1.98 1 3 C-3.75 4.125 -3.75 4.125 -6 3 C-6 2.34 -6 1.68 -6 1 C-5.5978125 1.0103125 -5.5978125 1.0103125 -3.5625 1.0625 C-1 1 -1 1 0 0 Z " fill="#E4E9F1" transform="translate(83,31)" />
</svg>