<?xml version='1.0' encoding='utf-8'?>
<svg xmlns="http://www.w3.org/2000/svg" version="1.1" width="102" height="108">
<path d="M0 0 C0.99 0 1.98 0 3 0 C3 0.66 3 1.32 3 2 C4.32 2 5.64 2 7 2 C7 2.66 7 3.32 7 4 C7.66 4 8.32 4 9 4 C9 2.68 9 1.36 9 0 C10.32 0 11.64 0 13 0 C13 0.66 13 1.32 13 2 C14.32 2 15.64 2 17 2 C17 1.34 17 0.68 17 0 C18.27875 -0.061875 19.5575 -0.12375 20.875 -0.1875 C21.23464844 -0.20490234 21.23464844 -0.20490234 23.0546875 -0.29296875 C23.69664063 -0.19628906 24.33859375 -0.09960938 25 0 C25.66 0.99 26.32 1.98 27 3 C29.125 3.6875 29.125 3.6875 31 4 C31 4.66 31 5.32 31 6 C32.299375 6.144375 33.59875 6.28875 34.9375 6.4375 C38.875 6.875 38.875 6.875 40 8 C40.04063832 9.66617115 40.042721 11.33388095 40 13 C40.61875 13.0825 41.2375 13.165 41.875 13.25 C44 14 44 14 45.11328125 15.73046875 C48.65113225 24.78549709 44.90331857 35.68922937 41.3125 44.1875 C40.879375 45.115625 40.44625 46.04375 40 47 C38.78116787 43.50493834 39.26641673 41.52370167 40.4375 38.0625 C42.33871003 31.66752079 42.28417646 25.62025911 42 19 C41.01 19 40.02 19 39 19 C38.26619695 21.9352122 38.01432986 24.3451109 38.140625 27.38671875 C38.17338316 33.36371878 36.62996161 39.03059355 35.25 44.8125 C35.12367187 45.3684082 35.12367187 45.3684082 34.484375 48.18164062 C32.81012962 55.33485401 30.67865555 62.15980032 28 69 C27.34 69 26.68 69 26 69 C26.14033111 67.02043559 26.2874123 65.04134859 26.4375 63.0625 C26.51871094 61.96035156 26.59992187 60.85820313 26.68359375 59.72265625 C27 57 27 57 28 56 C28.228226 54.1500004 28.39504938 52.29234486 28.53515625 50.43359375 C28.62216797 49.30888672 28.70917969 48.18417969 28.79882812 47.02539062 C28.88583984 45.84138672 28.97285156 44.65738281 29.0625 43.4375 C29.15337891 42.24962891 29.24425781 41.06175781 29.33789062 39.83789062 C29.56266136 36.89221095 29.78317196 33.94627326 30 31 C29.37351563 31.0721875 28.74703125 31.144375 28.1015625 31.21875 C27.28429687 31.3115625 26.46703125 31.404375 25.625 31.5 C24.81289063 31.5928125 24.00078125 31.685625 23.1640625 31.78125 C21 32 21 32 19 32 C19 31.01 19 30.02 19 29 C18.34 29 17.68 29 17 29 C16.67 31.97 16.34 34.94 16 38 C15.67 38 15.34 38 15 38 C15 48.56 15 59.12 15 70 C7 69 7 69 4 68 C3.12451172 65.51904297 3.12451172 65.51904297 2.4296875 62.2421875 C2.30142578 61.65050781 2.30142578 61.65050781 1.65234375 58.65625 C1.52408203 58.03234375 1.52408203 58.03234375 0.875 54.875 C0.61074219 53.65039062 0.34648438 52.42578125 0.07421875 51.1640625 C-3.16852955 35.95442073 -3.16852955 35.95442073 -3.0625 29.0625 C-3.05347656 28.29035156 -3.04445313 27.51820312 -3.03515625 26.72265625 C-3.02355469 26.15417969 -3.01195312 25.58570312 -3 25 C-6.25397359 23.26638194 -8.27683778 22.63676466 -12 23 C-14.8125 24 -14.8125 24 -17 25 C-17.1875 22.6875 -17.1875 22.6875 -17 20 C-15.625 18.4375 -15.625 18.4375 -14 17 C-12.8125 14.8125 -12.8125 14.8125 -12 13 C-10.68 13 -9.36 13 -8 13 C-8 12.34 -8 11.68 -8 11 C-8.66 11 -9.32 11 -10 11 C-10 9.68 -10 8.36 -10 7 C-9.6390625 7.020625 -9.6390625 7.020625 -7.8125 7.125 C-4.79270631 6.99078695 -2.73064271 6.24829381 0 5 C-0.185625 4.360625 -0.37125 3.72125 -0.5625 3.0625 C-0.706875 2.381875 -0.85125 1.70125 -1 1 C-0.67 0.67 -0.34 0.34 0 0 Z " fill="#E3D17B" transform="translate(37,17)" />
<path d="M0 0 C0.33 0 0.66 0 1 0 C1 1.98 1 3.96 1 6 C1.721875 5.505 2.44375 5.01 3.1875 4.5 C6.24109714 2.87141486 7.61035952 2.57629494 11 3 C13.8125 4 13.8125 4 16 5 C15.9690625 5.6496875 15.9690625 5.6496875 15.8125 8.9375 C15.8125 20.17879961 18.74177411 31.51961836 21.44921875 42.36328125 C22 45 22 45 22 49 C25.63 49.66 29.26 50.32 33 51 C32.67 49.35 32.34 47.7 32 46 C31.91839247 43.34836945 31.88328805 40.72474527 31.90234375 38.07421875 C31.9037587 37.32662796 31.90517365 36.57903717 31.90663147 35.80879211 C31.91220236 33.43498635 31.9247494 31.06127697 31.9375 28.6875 C31.94251877 27.07226699 31.94708101 25.4570325 31.95117188 23.84179688 C31.96216225 19.89449445 31.97940668 15.94726353 32 12 C32.66 12.66 33.32 13.32 34 14 C34.33 12.68 34.66 11.36 35 10 C35.66 10 36.32 10 37 10 C37.66 10.66 38.32 11.32 39 12 C41.1640625 12.1953125 41.1640625 12.1953125 43.625 12.125 C44.44226562 12.10695313 45.25953125 12.08890625 46.1015625 12.0703125 C46.72804687 12.04710937 47.35453125 12.02390625 48 12 C48.02727345 14.66673742 48.04696948 17.33318869 48.0625 20 C48.07087891 20.74378906 48.07925781 21.48757812 48.08789062 22.25390625 C48.10966004 27.26087094 47.7898031 32.05130363 47 37 C46.67 37.33 46.34 37.66 46 38 C45.60430892 40.01311449 45.25747809 42.03597208 44.9375 44.0625 C44.76089844 45.16722656 44.58429687 46.27195313 44.40234375 47.41015625 C44.26957031 48.26480469 44.13679688 49.11945313 44 50 C44.66 50 45.32 50 46 50 C48.23107549 42.01757424 50.27840553 34.0028349 52.1875 25.9375 C52.46013672 24.83083984 52.73277344 23.72417969 53.01367188 22.58398438 C54.42628355 16.59012081 55.28913577 11.18902102 54.90356445 5.02563477 C55 3 55 3 57 0 C57.99 0 58.98 0 60 0 C62.64032838 9.78220022 59.75457068 17.8636303 56.6328125 27.10107422 C55.76089663 29.71749461 54.96990564 32.3556194 54.1875 35 C53.795625 36.32 53.40375 37.64 53 39 C54.32 36.36 55.64 33.72 57 31 C58.18758434 34.56275301 57.48552528 35.8629071 55.94921875 39.171875 C53.33547296 44.20575579 49.23866112 51.38066944 44 54 C38.10728023 54.33848521 32.6447215 53.39201282 26.875 52.25 C26.43478516 52.17136719 26.43478516 52.17136719 24.20703125 51.7734375 C19.19686252 50.79105147 15.54850451 49.90530112 12 46 C10.41292419 43.46945516 9.15697726 40.84901529 7.9375 38.125 C7.59388428 37.37049561 7.25026855 36.61599121 6.89624023 35.83862305 C1.90154955 24.58249807 -1.09079627 13.40276992 -1 1 C-0.67 0.67 -0.34 0.34 0 0 Z " fill="#55281A" transform="translate(19,36)" />
<path d="M0 0 C2.00720923 0.28674418 4.0085944 0.61866701 6 1 C6 1.66 6 2.32 6 3 C6.99 2.67 7.98 2.34 9 2 C9 2.66 9 3.32 9 4 C9.99 4 10.98 4 12 4 C12 4.66 12 5.32 12 6 C13.32 6 14.64 6 16 6 C16.33 7.32 16.66 8.64 17 10 C17.66 10 18.32 10 19 10 C19.165 10.66 19.165 10.66 20 14 C20.99 14 21.98 14 23 14 C23 13.34 23 12.68 23 12 C24.98 12 26.96 12 29 12 C29 12.66 29 13.32 29 14 C29.66 14.33 30.32 14.66 31 15 C30.67 15.99 30.34 16.98 30 18 C23.25 18.125 23.25 18.125 21 17 C21 17.66 21 18.32 21 19 C19.35 19 17.7 19 16 19 C16.33 19.66 16.66 20.32 17 21 C17.08527628 23.03232634 17.10716135 25.06747006 17.09765625 27.1015625 C17.09443359 28.31328125 17.09121094 29.525 17.08789062 30.7734375 C17.07951172 32.04445312 17.07113281 33.31546875 17.0625 34.625 C17.05798828 35.90375 17.05347656 37.1825 17.04882812 38.5 C17.03701203 41.66671292 17.02053815 44.83333356 17 48 C16.7009375 47.6803125 16.7009375 47.6803125 15.1875 46.0625 C13 44 13 44 10 43 C9.67 43.99 9.34 44.98 9 46 C8.67 45.01 8.34 44.02 8 43 C8.33 42.34 8.66 41.68 9 41 C8.34 41 7.68 41 7 41 C6.67 42.98 6.34 44.96 6 47 C3.12593871 44.12593871 3.01860257 40.80610666 2.375 36.9375 C2.3090564 36.55436646 2.3090564 36.55436646 1.9753418 34.61547852 C1.11101171 29.3451322 0.70835566 24.34681299 1 19 C-2.25397359 17.26638194 -4.27683778 16.63676466 -8 17 C-10.8125 18 -10.8125 18 -13 19 C-13.1875 16.6875 -13.1875 16.6875 -13 14 C-11.625 12.4375 -11.625 12.4375 -10 11 C-8.8125 8.8125 -8.8125 8.8125 -8 7 C-6.68 7 -5.36 7 -4 7 C-4 6.34 -4 5.68 -4 5 C-4.66 5 -5.32 5 -6 5 C-6 3.68 -6 2.36 -6 1 C-5.5978125 1.0103125 -5.5978125 1.0103125 -3.5625 1.0625 C-1 1 -1 1 0 0 Z " fill="#ECE3A5" transform="translate(33,23)" />
<path d="M0 0 C3.63 0 7.26 0 11 0 C11 0.66 11 1.32 11 2 C12.65 1.67 14.3 1.34 16 1 C16 2.65 16 4.3 16 6 C16.66 4.35 17.32 2.7 18 1 C18.99 1 19.98 1 21 1 C21.3905403 8.26937518 19.93273753 14.76199155 18.25 21.8125 C18.12367187 22.3684082 18.12367187 22.3684082 17.484375 25.18164062 C15.81012962 32.33485401 13.67865555 39.15980032 11 46 C10.34 46 9.68 46 9 46 C9.14033111 44.02043559 9.2874123 42.04134859 9.4375 40.0625 C9.51871094 38.96035156 9.59992187 37.85820313 9.68359375 36.72265625 C10 34 10 34 11 33 C11.228226 31.1500004 11.39504938 29.29234486 11.53515625 27.43359375 C11.62216797 26.30888672 11.70917969 25.18417969 11.79882812 24.02539062 C11.88583984 22.84138672 11.97285156 21.65738281 12.0625 20.4375 C12.15337891 19.24962891 12.24425781 18.06175781 12.33789062 16.83789062 C12.56266136 13.89221095 12.78317196 10.94627326 13 8 C12.37351562 8.0721875 11.74703125 8.144375 11.1015625 8.21875 C10.69292969 8.26515625 10.69292969 8.26515625 8.625 8.5 C7.81289063 8.5928125 7.00078125 8.685625 6.1640625 8.78125 C4 9 4 9 2 9 C2 8.01 2 7.02 2 6 C1.34 6 0.68 6 0 6 C-0.33 8.97 -0.66 11.94 -1 15 C-1.33 15 -1.66 15 -2 15 C-2 25.56 -2 36.12 -2 47 C-10 46 -10 46 -13 45 C-16.62870159 29.25512528 -16.62870159 29.25512528 -15 22 C-14.67 22.66 -14.34 23.32 -14 24 C-13.34 24 -12.68 24 -12 24 C-12 25.32 -12 26.64 -12 28 C-11.67 27.34 -11.34 26.68 -11 26 C-6.125 26.875 -6.125 26.875 -5 28 C-5 19.42 -5 10.84 -5 2 C-3.35 2 -1.7 2 0 2 C0 1.34 0 0.68 0 0 Z " fill="#E05948" transform="translate(54,40)" />
<path d="M0 0 C0.66 0 1.32 0 2 0 C2.66 0.66 3.32 1.32 4 2 C6.1640625 2.1953125 6.1640625 2.1953125 8.625 2.125 C9.44226562 2.10695312 10.25953125 2.08890625 11.1015625 2.0703125 C11.72804688 2.04710937 12.35453125 2.02390625 13 2 C13.02727345 4.66673742 13.04696948 7.33318869 13.0625 10 C13.07087891 10.74378906 13.07925781 11.48757812 13.08789062 12.25390625 C13.10966004 17.26087094 12.7898031 22.05130363 12 27 C11.67 27.33 11.34 27.66 11 28 C10.76518307 30.18292774 10.58636677 32.37203174 10.4375 34.5625 C10.35371094 35.76003906 10.26992187 36.95757812 10.18359375 38.19140625 C10.12300781 39.11824219 10.06242187 40.04507813 10 41 C5.68903724 42.00514676 2.37164968 41.77146759 -2 41 C-3.06378669 36.68227756 -3.1294216 32.49257744 -3.09765625 28.07421875 C-3.0962413 27.32662796 -3.09482635 26.57903717 -3.09336853 25.80879211 C-3.08779764 23.43498635 -3.0752506 21.06127697 -3.0625 18.6875 C-3.05748123 17.07226699 -3.05291899 15.4570325 -3.04882812 13.84179688 C-3.03783775 9.89449445 -3.02059332 5.94726353 -3 2 C-2.34 2.66 -1.68 3.32 -1 4 C-0.67 2.68 -0.34 1.36 0 0 Z " fill="#A22B1B" transform="translate(54,46)" />
<path d="M0 0 C4.24208176 1.54778659 4.24208176 1.54778659 6 4 C6.77485602 8.59384529 6.5610577 13.10809903 6.375 17.75 C6.34792969 19.01972656 6.32085937 20.28945313 6.29296875 21.59765625 C6.2222359 24.73347906 6.12356492 27.86588663 6 31 C5.401875 30.360625 4.80375 29.72125 4.1875 29.0625 C2 27 2 27 -1 26 C-1.33 26.99 -1.66 27.98 -2 29 C-2.33 28.01 -2.66 27.02 -3 26 C-2.67 25.34 -2.34 24.68 -2 24 C-2.66 24 -3.32 24 -4 24 C-4.33 25.98 -4.66 27.96 -5 30 C-7.88724788 27.11275212 -7.9774977 23.76001378 -8.625 19.875 C-8.7590625 19.14023437 -8.893125 18.40546875 -9.03125 17.6484375 C-9.88510825 12.69954476 -10.12522394 8.02034159 -10 3 C-9.34 3 -8.68 3 -8 3 C-8 2.34 -8 1.68 -8 1 C-5.13391871 -0.43304064 -3.18699217 -0.30644155 0 0 Z " fill="#F5F3E8" transform="translate(44,40)" />
<path d="M0 0 C0.721875 0.33 1.44375 0.66 2.1875 1 C2.17589844 1.57105469 2.16429687 2.14210937 2.15234375 2.73046875 C2.07297172 9.86261249 2.56410007 16.8976936 3.1875 24 C2.5275 24 1.8675 24 1.1875 24 C1.1875 23.34 1.1875 22.68 1.1875 22 C0.5275 22 -0.1325 22 -0.8125 22 C-1.1425 23.65 -1.4725 25.3 -1.8125 27 C-1.1525 27 -0.4925 27 0.1875 27 C0.8125 28.875 0.8125 28.875 1.1875 31 C0.5275 31.66 -0.1325 32.32 -0.8125 33 C-0.9775 32.505 -0.9775 32.505 -1.8125 30 C-2.4725 29.67 -3.1325 29.34 -3.8125 29 C-4.53943904 27.02111039 -5.21066251 25.02045442 -5.8125 23 C-6.4725 23.66 -7.1325 24.32 -7.8125 25 C-8.65860515 22.48283718 -9.48946767 19.96220727 -10.3125 17.4375 C-10.55097656 16.73302734 -10.78945313 16.02855469 -11.03515625 15.30273438 C-12.50035261 10.76062565 -13.27002545 6.83146875 -12.8125 2 C-8.69420718 -1.64763078 -5.03129752 -1.78890579 0 0 Z " fill="#CA4130" transform="translate(32.8125,40)" />
<path d="M0 0 C0.66 0 1.32 0 2 0 C2.66 0.66 3.32 1.32 4 2 C7.01826653 2.27240673 9.96370622 2.08675125 13 2 C13 7.61 13 13.22 13 19 C12.34 19.33 12.34 19.33 9 21 C8.34 20.34 7.68 19.68 7 19 C6.34 19.33 5.68 19.66 5 20 C2.69 19.67 0.38 19.34 -2 19 C-2 24.61 -2 30.22 -2 36 C-2.33 36 -2.66 36 -3 36 C-3 24.78 -3 13.56 -3 2 C-2.34 2.66 -1.68 3.32 -1 4 C-0.67 2.68 -0.34 1.36 0 0 Z " fill="#CD4636" transform="translate(54,46)" />
<path d="M0 0 C0.33 0 0.66 0 1 0 C1.33 13.53 1.66 27.06 2 41 C-6 40 -6 40 -9 39 C-12.62870159 23.25512528 -12.62870159 23.25512528 -11 16 C-10.67 16.66 -10.34 17.32 -10 18 C-9.34 18 -8.68 18 -8 18 C-8 19.32 -8 20.64 -8 22 C-7.67 21.34 -7.34 20.68 -7 20 C-2.125 20.875 -2.125 20.875 -1 22 C-0.67 14.74 -0.34 7.48 0 0 Z " fill="#CDADA2" transform="translate(50,46)" />
<path d="M0 0 C0.66 0 1.32 0 2 0 C2 0.66 2 1.32 2 2 C3.299375 2.144375 4.59875 2.28875 5.9375 2.4375 C9.875 2.875 9.875 2.875 11 4 C11.04063832 5.66617115 11.042721 7.33388095 11 9 C11.61875 9.0825 12.2375 9.165 12.875 9.25 C15 10 15 10 16.11328125 11.73046875 C19.65113225 20.78549709 15.90331857 31.68922937 12.3125 40.1875 C11.879375 41.115625 11.44625 42.04375 11 43 C9.78116787 39.50493834 10.26641673 37.52370167 11.4375 34.0625 C13.33871003 27.66752079 13.28417646 21.62025911 13 15 C10.69 15.33 8.38 15.66 6 16 C5.95875 15.690625 5.95875 15.690625 5.75 14.125 C5 12 5 12 3 10.9375 C2.34 10.628125 1.68 10.31875 1 10 C0.67 9.01 0.34 8.02 0 7 C-0.66 7.66 -1.32 8.32 -2 9 C-1.41196203 5.97580475 -0.77321882 2.98241547 0 0 Z " fill="#F9EE94" transform="translate(66,21)" />
<path d="M0 0 C0.4021875 0.0103125 0.4021875 0.0103125 2.4375 0.0625 C2.7675 2.7025 3.0975 5.3425 3.4375 8.0625 C4.0975 8.0625 4.7575 8.0625 5.4375 8.0625 C6.81976016 10.82702033 6.53275387 13.1086363 6.5 16.1875 C6.49097656 17.28320312 6.48195313 18.37890625 6.47265625 19.5078125 C6.46105469 20.35085937 6.44945312 21.19390625 6.4375 22.0625 C5.839375 21.423125 5.24125 20.78375 4.625 20.125 C2.4375 18.0625 2.4375 18.0625 -0.5625 17.0625 C-0.8925 18.0525 -1.2225 19.0425 -1.5625 20.0625 C-1.8925 19.0725 -2.2225 18.0825 -2.5625 17.0625 C-2.2325 16.4025 -1.9025 15.7425 -1.5625 15.0625 C-2.2225 15.0625 -2.8825 15.0625 -3.5625 15.0625 C-3.8925 17.0425 -4.2225 19.0225 -4.5625 21.0625 C-8.13454106 17.49045894 -8.40972221 11.76953146 -8.6875 6.84765625 C-8.6875 5.25206004 -8.63180827 3.65659022 -8.5625 2.0625 C-6.61033565 4.01466435 -5.71423355 5.59449953 -4.5625 8.0625 C-3.5725 7.4025 -2.5825 6.7425 -1.5625 6.0625 C-1.8925 5.4025 -2.2225 4.7425 -2.5625 4.0625 C-2.8925 3.0725 -3.2225 2.0825 -3.5625 1.0625 C-2.5625 0.0625 -2.5625 0.0625 0 0 Z " fill="#E7E8DE" transform="translate(43.5625,48.9375)" />
<path d="M0 0 C1.27875 -0.061875 2.5575 -0.12375 3.875 -0.1875 C4.23464844 -0.20490234 4.23464844 -0.20490234 6.0546875 -0.29296875 C6.69664063 -0.19628906 7.33859375 -0.09960938 8 0 C10 3 10 3 9.75 5.0625 C9 7 9 7 7 9 C6.875 12.625 6.875 12.625 7 16 C4.03 15.67 1.06 15.34 -2 15 C-3 11 -3 11 -2 9 C-2.99 9.33 -3.98 9.66 -5 10 C-5.33 7.36 -5.66 4.72 -6 2 C-4.02 2 -2.04 2 0 2 C0 1.34 0 0.68 0 0 Z " fill="#F4E8A6" transform="translate(54,17)" />
<path d="M0 0 C0.33 0.165 0.33 0.165 2 1 C2.625 4.0625 2.625 4.0625 3 7 C3.99 7.33 4.98 7.66 6 8 C6.33 7.67 6.66 7.34 7 7 C7 6.34 7 5.68 7 5 C6.34 5 5.68 5 5 5 C5.33 3.35 5.66 1.7 6 0 C6.66 0 7.32 0 8 0 C8 0.66 8 1.32 8 2 C8.99 2 9.98 2 11 2 C12.32 8.27 13.64 14.54 15 21 C13.35 21.33 11.7 21.66 10 22 C4.63556791 18.24489754 1.99135262 12.1096393 0 6 C-0.13671875 2.65234375 -0.13671875 2.65234375 0 0 Z " fill="#A93225" transform="translate(26,62)" />
<path d="M0 0 C2.0625 0.4375 2.0625 0.4375 4 1 C3.34 1.66 2.68 2.32 2 3 C4.1875 5.0625 4.1875 5.0625 7 7 C9.8125 6.75 9.8125 6.75 12 6 C12.33 4.35 12.66 2.7 13 1 C14.65 1 16.3 1 18 1 C17.34 3.64 16.68 6.28 16 9 C18.31 9.66 20.62 10.32 23 11 C23 10.34 23 9.68 23 9 C23.99 9.33 24.98 9.66 26 10 C25.34 10 24.68 10 24 10 C24 10.66 24 11.32 24 12 C22.35 12 20.7 12 19 12 C18.67 12.66 18.34 13.32 18 14 C17.505 13.505 17.01 13.01 16.5 12.5 C12.88369842 10.33021905 10.17768384 10.79111581 6 11 C6 11.66 6 12.32 6 13 C1.125 11.125 1.125 11.125 0 10 C-3.84597567 9.67950203 -6.50971852 10.40444275 -10 12 C-10.25 9.6875 -10.25 9.6875 -10 7 C-8 5.1875 -8 5.1875 -6 4 C-5.67 4.99 -5.34 5.98 -5 7 C-3.35 7.33 -1.7 7.66 0 8 C-0.0928125 7.4328125 -0.0928125 7.4328125 -0.5625 4.5625 C-0.706875 3.386875 -0.85125 2.21125 -1 1 C-0.67 0.67 -0.34 0.34 0 0 Z " fill="#C2B36F" transform="translate(30,30)" />
<path d="M0 0 C0 4.62 0 9.24 0 14 C-2 11 -2 11 -3 8 C-4.65 8 -6.3 8 -8 8 C-8 7.34 -8 6.68 -8 6 C-8.33 6.165 -8.33 6.165 -10 7 C-11.20143379 12.10609359 -10.72805488 15.13984565 -9 20 C-9.4375 22.17578125 -9.4375 22.17578125 -10 24 C-10.84610515 21.48283718 -11.67696767 18.96220727 -12.5 16.4375 C-12.73847656 15.73302734 -12.97695313 15.02855469 -13.22265625 14.30273438 C-14.68785261 9.76062565 -15.45752545 5.83146875 -15 1 C-9.90241106 -3.51500734 -5.94653843 -2.37861537 0 0 Z " fill="#D55A49" transform="translate(35,41)" />
<path d="M0 0 C0.33 0.66 0.66 1.32 1 2 C1.66 2 2.32 2 3 2 C3 3.32 3 4.64 3 6 C3.33 5.34 3.66 4.68 4 4 C6.375 4.25 6.375 4.25 9 5 C11.41757377 8.10830913 11.24918391 11.17917999 11 15 C10.67 15.66 10.34 16.32 10 17 C7.4375 17.625 7.4375 17.625 5 18 C4.67 16.02 4.34 14.04 4 12 C2.68 12 1.36 12 0 12 C-1.53166168 7.91556885 -0.63081652 4.20544343 0 0 Z " fill="#C5C2BB" transform="translate(39,62)" />
<path d="M0 0 C0.33 0 0.66 0 1 0 C1 3.63 1 7.26 1 11 C-0.32 11 -1.64 11 -3 11 C-3.33 10.34 -3.66 9.68 -4 9 C-4.45375 9.66 -4.9075 10.32 -5.375 11 C-5.91125 11.66 -6.4475 12.32 -7 13 C-7.66 13 -8.32 13 -9 13 C-9.33 11.02 -9.66 9.04 -10 7 C-10.33 9.31 -10.66 11.62 -11 14 C-13.67927341 9.98108988 -13.15601248 7.75838077 -13 3 C-8.23727328 1.97022125 -5.34114537 1.60488531 -1 4 C-0.67 2.68 -0.34 1.36 0 0 Z " fill="#B42B22" transform="translate(65,62)" />
<path d="M0 0 C0.99 0 1.98 0 3 0 C3.41948835 7.13130198 2.54600506 14.29298666 0 21 C-0.66 21.33 -0.66 21.33 -4 23 C-4 17.39 -4 11.78 -4 6 C-3.34 5.67 -2.68 5.34 -2 5 C-1.27840576 3.35636866 -0.60648579 1.68949614 0 0 Z " fill="#A48A80" transform="translate(72,41)" />
<path d="M0 0 C0.99 0 1.98 0 3 0 C3 0.66 3 1.32 3 2 C4.32 2 5.64 2 7 2 C7 2.66 7 3.32 7 4 C7.66 4 8.32 4 9 4 C9 2.68 9 1.36 9 0 C10.32 0 11.64 0 13 0 C13.33 0.99 13.66 1.98 14 3 C13.67 3.165 13.67 3.165 12 4 C12 5.98 12 7.96 12 10 C5.375 10.125 5.375 10.125 2 9 C2 8.34 2 7.68 2 7 C1.34 6.67 0.68 6.34 0 6 C-0.6875 3.5 -0.6875 3.5 -1 1 C-0.67 0.67 -0.34 0.34 0 0 Z " fill="#DCCD95" transform="translate(37,17)" />
<path d="M0 0 C0.99 0.33 1.98 0.66 3 1 C2.34 1 1.68 1 1 1 C1 1.99 1 2.98 1 4 C2.32 4.33 3.64 4.66 5 5 C4.67 5.99 4.34 6.98 4 8 C1.69 8 -0.62 8 -3 8 C-3 10.31 -3 12.62 -3 15 C-4.66611905 15.042721 -6.33382885 15.04063832 -8 15 C-9 14 -9 14 -9.0625 10.9375 C-9.041875 9.968125 -9.02125 8.99875 -9 8 C-7.35 7.67 -5.7 7.34 -4 7 C-4 6.34 -4 5.68 -4 5 C-4.66 5 -5.32 5 -6 5 C-6 3.68 -6 2.36 -6 1 C-5.5978125 1.0103125 -5.5978125 1.0103125 -3.5625 1.0625 C-1 1 -1 1 0 0 Z " fill="#E9DBA8" transform="translate(33,23)" />
<path d="M0 0 C3.49774642 3.98817118 3.43698074 6.85185368 3.29296875 11.98828125 C2.57148449 19.40513945 0.13446367 26.28329213 -3 33 C-4.21883213 29.50493834 -3.73358327 27.52370167 -2.5625 24.0625 C-0.66128997 17.66752079 -0.71582354 11.62025911 -1 5 C-1.99 4.67 -2.98 4.34 -4 4 C-3.67 3.34 -3.34 2.68 -3 2 C-2.01 2 -1.02 2 0 2 C0 1.34 0 0.68 0 0 Z " fill="#C2B4B1" transform="translate(80,31)" />
<path d="M0 0 C0.66 1.32 1.32 2.64 2 4 C2.99 4 3.98 4 5 4 C4.02405146 7.45924983 3.04369681 10.91723549 2.0625 14.375 C1.92360352 14.86742188 1.92360352 14.86742188 1.22070312 17.359375 C0.95322266 18.30039063 0.68574219 19.24140625 0.41015625 20.2109375 C0.28709106 20.64559326 0.28709106 20.64559326 -0.33569336 22.84521484 C-1 25 -1 25 -2 27 C-2.66 27 -3.32 27 -4 27 C-3.85966889 25.02043559 -3.7125877 23.04134859 -3.5625 21.0625 C-3.48128906 19.96035156 -3.40007813 18.85820313 -3.31640625 17.72265625 C-3 15 -3 15 -2 14 C-1.602507 11.65276034 -1.25631277 9.29671452 -0.9375 6.9375 C-0.84919922 6.29232422 -0.84919922 6.29232422 -0.40234375 3.02734375 C-0.26957031 2.02832031 -0.13679688 1.02929688 0 0 Z " fill="#8E645A" transform="translate(67,59)" />
<path d="M0 0 C0.33 0 0.66 0 1 0 C1 2.64 1 5.28 1 8 C1.66 8 2.32 8 3 8 C3.33 7.01 3.66 6.02 4 5 C4 5.99 4 6.98 4 8 C6.31 8 8.62 8 11 8 C11.33 9.98 11.66 11.96 12 14 C7.74433453 15.16063604 4.3164922 14.76173392 0 14 C0 9.38 0 4.76 0 0 Z " fill="#81251D" transform="translate(52,73)" />
<path d="M0 0 C0.99 0 1.98 0 3 0 C3.84604751 2.94102229 4.13522521 5.56766268 4.125 8.625 C4.12757812 9.40101562 4.13015625 10.17703125 4.1328125 10.9765625 C4 13 4 13 3 15 C2.34 15 1.68 15 1 15 C1 15.66 1 16.32 1 17 C0.01 17 -0.98 17 -2 17 C-2.05398987 14.72942623 -2.09278742 12.45848712 -2.125 10.1875 C-2.14820312 8.92292969 -2.17140625 7.65835938 -2.1953125 6.35546875 C-2 3 -2 3 0 0 Z " fill="#89361E" transform="translate(76,36)" />
<path d="M0 0 C2.0625 0.4375 2.0625 0.4375 4 1 C3.34 1.66 2.68 2.32 2 3 C3.65 4.65 5.3 6.3 7 8 C6.67 8.66 6.34 9.32 6 10 C3.5 10.6875 3.5 10.6875 1 11 C0.67 10.67 0.34 10.34 0 10 C-3.84597567 9.67950203 -6.50971852 10.40444275 -10 12 C-10.25 9.6875 -10.25 9.6875 -10 7 C-8 5.1875 -8 5.1875 -6 4 C-5.67 4.99 -5.34 5.98 -5 7 C-3.35 7.33 -1.7 7.66 0 8 C-0.0928125 7.4328125 -0.0928125 7.4328125 -0.5625 4.5625 C-0.706875 3.386875 -0.85125 2.21125 -1 1 C-0.67 0.67 -0.34 0.34 0 0 Z " fill="#E6DB9D" transform="translate(30,30)" />
<path d="M0 0 C3.5219721 -0.08004482 6.61981469 -0.04005702 10 1 C9.67 2.32 9.34 3.64 9 5 C9 4.34 9 3.68 9 3 C7.68 3 6.36 3 5 3 C5 2.34 5 1.68 5 1 C4.01 1.33 3.02 1.66 2 2 C2.33 3.65 2.66 5.3 3 7 C2.21625 7.12375 1.4325 7.2475 0.625 7.375 C-2 8 -2 8 -4 10 C-4 9.34 -4 8.68 -4 8 C-5.32 8 -6.64 8 -8 8 C-8 9.32 -8 10.64 -8 12 C-7.34 12 -6.68 12 -6 12 C-6 12.66 -6 13.32 -6 14 C-6.309375 14.04125 -6.309375 14.04125 -7.875 14.25 C-10 15 -10 15 -11.25 17.0625 C-11.4975 17.701875 -11.745 18.34125 -12 19 C-12.66 18.67 -13.32 18.34 -14 18 C-9.50134529 6.70224215 -9.50134529 6.70224215 -5.8203125 4.98046875 C-3.625 4.75 -3.625 4.75 0 5 C0 3.35 0 1.7 0 0 Z " fill="#483114" transform="translate(35,16)" />
<path d="M0 0 C0.4021875 0.0103125 0.4021875 0.0103125 2.4375 0.0625 C3.125 2.375 3.125 2.375 3.4375 5.0625 C2.4375 6.0625 1.4375 7.0625 0.4375 8.0625 C0.25 11.25 0.25 11.25 0.4375 14.0625 C-0.8825 14.0625 -2.2025 14.0625 -3.5625 14.0625 C-3.5625 12.0825 -3.5625 10.1025 -3.5625 8.0625 C-4.2225 7.7325 -4.8825 7.4025 -5.5625 7.0625 C-4.5725 7.0625 -3.5825 7.0625 -2.5625 7.0625 C-2.748125 6.093125 -2.93375 5.12375 -3.125 4.125 C-3.269375 3.114375 -3.41375 2.10375 -3.5625 1.0625 C-2.5625 0.0625 -2.5625 0.0625 0 0 Z " fill="#F5EBB2" transform="translate(60.5625,17.9375)" />
<path d="M0 0 C0.66 0.33 1.32 0.66 2 1 C2 1.99 2 2.98 2 4 C2.639375 4.268125 3.27875 4.53625 3.9375 4.8125 C6 6 6 6 7 9 C7.99 9 8.98 9 10 9 C9.34 10.32 8.68 11.64 8 13 C6 12.33333333 4 11.66666667 2 11 C1.67 10.34 1.34 9.68 1 9 C-0.32 9 -1.64 9 -3 9 C-3 8.34 -3 7.68 -3 7 C-2.01 7 -1.02 7 0 7 C0 6.34 0 5.68 0 5 C-1.32 5 -2.64 5 -4 5 C-3.67 3.68 -3.34 2.36 -3 1 C-3 1.66 -3 2.32 -3 3 C-2.34 3 -1.68 3 -1 3 C-0.67 2.01 -0.34 1.02 0 0 Z " fill="#D0B955" transform="translate(66,27)" />
<path d="M0 0 C1.51839575 3.92655206 0.43537717 6.71821846 -0.8125 10.625 C-1.16957031 11.77226563 -1.52664062 12.91953125 -1.89453125 14.1015625 C-3 17 -3 17 -5 19 C-5.66 18.67 -6.32 18.34 -7 18 C-6.01 13.05 -5.02 8.1 -4 3 C-2.68 2.67 -1.36 2.34 0 2 C0 1.34 0 0.68 0 0 Z " fill="#70312B" transform="translate(77,51)" />
<path d="M0 0 C1.18469826 3.55409479 0.48826871 4.84207735 -1.03125 8.1484375 C-2.48513621 10.92723615 -4.18947136 13.44028709 -6 16 C-6.99 15.34 -7.98 14.68 -9 14 C-8.40075776 9.80530429 -7.42500059 5.99000166 -6 2 C-5.34 2 -4.68 2 -4 2 C-4 3.98 -4 5.96 -4 8 C-2.68 5.36 -1.36 2.72 0 0 Z " fill="#4B2E24" transform="translate(76,67)" />
<path d="M0 0 C0 0.66 0 1.32 0 2 C1.65 1.67 3.3 1.34 5 1 C4.34 6.94 3.68 12.88 3 19 C2.67 19 2.34 19 2 19 C2 15.04 2 11.08 2 7 C1.01 7 0.02 7 -1 7 C-2.35500919 5.68870078 -3.68671343 4.35308313 -5 3 C-7.25 1.75 -7.25 1.75 -9 1 C-2.25 0 -2.25 0 0 0 Z " fill="#C9764F" transform="translate(65,40)" />
<path d="M0 0 C1.98 0 3.96 0 6 0 C6 0.66 6 1.32 6 2 C6.66 2.33 7.32 2.66 8 3 C7.67 3.99 7.34 4.98 7 6 C4.69 6 2.38 6 0 6 C0 5.34 0 4.68 0 4 C-0.99 4 -1.98 4 -3 4 C-3 4.66 -3 5.32 -3 6 C-4.65 6 -6.3 6 -8 6 C-8.33 5.34 -8.66 4.68 -9 4 C-7.68 4.33 -6.36 4.66 -5 5 C-5 4.34 -5 3.68 -5 3 C-3.35 2.67 -1.7 2.34 0 2 C0 1.34 0 0.68 0 0 Z " fill="#F6ECA5" transform="translate(56,35)" />
<path d="M0 0 C0.66 0 1.32 0 2 0 C2 0.66 2 1.32 2 2 C2.99 2 3.98 2 5 2 C5 2.66 5 3.32 5 4 C5.66 4.33 6.32 4.66 7 5 C6.34 5 5.68 5 5 5 C5.66 7.31 6.32 9.62 7 12 C4.0625 11.1875 4.0625 11.1875 1 10 C0.67 9.01 0.34 8.02 0 7 C-0.66 7.66 -1.32 8.32 -2 9 C-1.41196203 5.97580475 -0.77321882 2.98241547 0 0 Z " fill="#F9EDA8" transform="translate(66,21)" />
<path d="M0 0 C0.2475 0.2371875 0.2475 0.2371875 1.5 1.4375 C4.99468651 3.62167907 7.90966936 3.65913911 12 4 C12 5.65 12 7.3 12 9 C4.375 8.125 4.375 8.125 1 7 C0.67 4.69 0.34 2.38 0 0 Z " fill="#A79489" transform="translate(40,78)" />
<path d="M0 0 C0.66 0 1.32 0 2 0 C3.38226016 2.76452033 3.09525387 5.0461363 3.0625 8.125 C3.05347656 9.22070312 3.04445313 10.31640625 3.03515625 11.4453125 C3.02355469 12.28835937 3.01195312 13.13140625 3 14 C2.38125 13.360625 1.7625 12.72125 1.125 12.0625 C-1 10 -1 10 -3 9 C-2.30058404 5.85262818 -1.23921302 2.97411124 0 0 Z " fill="#EBE2D8" transform="translate(47,57)" />
<path d="M0 0 C2.16874252 0.50603992 3.99967627 0.99983813 6 2 C6 1.34 6 0.68 6 0 C9.3 0 12.6 0 16 0 C16.33 0.99 16.66 1.98 17 3 C18.32 3 19.64 3 21 3 C21 3.66 21 4.32 21 5 C19.35 5 17.7 5 16 5 C15.67 4.34 15.34 3.68 15 3 C13.15234375 2.5859375 13.15234375 2.5859375 10.9375 2.375 C9.638125 2.25125 8.33875 2.1275 7 2 C7.33 2.99 7.66 3.98 8 5 C4.75791433 4.64950425 3.38472296 4.43778819 1.1875 1.9375 C0.795625 1.298125 0.40375 0.65875 0 0 Z " fill="#523515" transform="translate(47,15)" />
<path d="M0 0 C2.9283932 2.9283932 4.8135769 6.01604516 6 10 C5.7654006 13.16220446 5.02549673 16.00665819 4 19 C0.42795894 15.42795894 0.15277779 9.70703146 -0.125 4.78515625 C-0.125 3.18956004 -0.06930827 1.59409022 0 0 Z " fill="#EDD8C9" transform="translate(35,51)" />
<path d="M0 0 C0.33 0 0.66 0 1 0 C1 3.63 1 7.26 1 11 C-0.32 11 -1.64 11 -3 11 C-5 9 -5 9 -5.125 5.375 C-5.08375 4.26125 -5.0425 3.1475 -5 2 C-4.34 2.33 -4.34 2.33 -1 4 C-0.67 2.68 -0.34 1.36 0 0 Z " fill="#B03726" transform="translate(65,62)" />
<path d="M0 0 C0.66 0 1.32 0 2 0 C2 1.65 2 3.3 2 5 C2.825 5.33 2.825 5.33 7 7 C7 7.66 7 8.32 7 9 C2.25 10.125 2.25 10.125 0 9 C-0.73075648 6.6859378 -1.40138258 4.35171131 -2 2 C-1.34 1.34 -0.68 0.68 0 0 Z " fill="#86211A" transform="translate(34,74)" />
<path d="M0 0 C0.99 0 1.98 0 3 0 C3.49108911 7.36633663 3.49108911 7.36633663 1.0625 10.5 C-1 12 -1 12 -2 12 C-2.17835515 7.45194365 -1.99785435 4.1205746 0 0 Z " fill="#A89E95" transform="translate(72,41)" />
<path d="M0 0 C4.21047434 -0.24059853 5.7900275 0.316011 10 2 C10 6.62 10 11.24 10 16 C7.70366176 12.55549263 7.45983515 10.06187717 7 6 C6.34 6 5.68 6 5 6 C5 5.01 5 4.02 5 3 C4.175 2.67 4.175 2.67 0 1 C0 0.67 0 0.34 0 0 Z " fill="#D4785E" transform="translate(25,39)" />
<path d="M0 0 C1.32 0 2.64 0 4 0 C4.33 2.64 4.66 5.28 5 8 C3.33388095 8.042721 1.66617115 8.04063832 0 8 C-1 7 -1 7 -1.125 4 C-1 1 -1 1 0 0 Z " fill="#ECDEAD" transform="translate(25,30)" />
<path d="M0 0 C0.66 0 1.32 0 2 0 C2.33 1.98 2.66 3.96 3 6 C2.34 6 1.68 6 1 6 C1.33 8.97 1.66 11.94 2 15 C0 12 0 12 0 10 C-0.66 10 -1.32 10 -2 10 C-2 7.36 -2 4.72 -2 2 C-1.34 2 -0.68 2 0 2 C0 1.34 0 0.68 0 0 Z " fill="#F8EEE2" transform="translate(36,41)" />
<path d="M0 0 C1.65 0 3.3 0 5 0 C4.34 2.64 3.68 5.28 3 8 C0.03 8 -2.94 8 -6 8 C-4.68 7.34 -3.36 6.68 -2 6 C-0.75 2.875 -0.75 2.875 0 0 Z " fill="#E1D996" transform="translate(43,31)" />
<path d="M0 0 C0 1.65 0 3.3 0 5 C1.32 5.66 2.64 6.32 4 7 C4 8.32 4 9.64 4 11 C3.01 11 2.02 11 1 11 C0.67 9.68 0.34 8.36 0 7 C-0.66 7 -1.32 7 -2 7 C-2.33 5.68 -2.66 4.36 -3 3 C-4.32 3 -5.64 3 -7 3 C-7 2.34 -7 1.68 -7 1 C-2.25 0 -2.25 0 0 0 Z " fill="#D4C574" transform="translate(52,26)" />
<path d="M0 0 C2.64 0 5.28 0 8 0 C7.34 0.33 7.34 0.33 4 2 C4.04125 2.9075 4.0825 3.815 4.125 4.75 C4.00468444 7.8782046 3.6085292 9.38614006 2 12 C-0.79496066 9.20503934 -0.66104876 6.86404416 -1 3 C-0.67 2.01 -0.34 1.02 0 0 Z " fill="#D9C87D" transform="translate(54,17)" />
<path d="M0 0 C2.20712931 2.77159629 3.74826178 5.48837457 5.25 8.6875 C6.52734375 11.0703125 6.52734375 11.0703125 8 13 C11.8125 14.0625 11.8125 14.0625 15 14 C15.33 14.99 15.66 15.98 16 17 C12.56885007 17.31917674 10.50365241 17.27025251 7.4375 15.625 C3.52428079 11.41076392 0 5.8708541 0 0 Z " fill="#542010" transform="translate(26,69)" />
<path d="M0 0 C2.875 0.3125 2.875 0.3125 6 1 C6.66 1.99 7.32 2.98 8 4 C7.34 4 6.68 4 6 4 C5.34 6.31 4.68 8.62 4 11 C3.4465236 8.92446352 3 7.15634036 3 5 C1.68 5 0.36 5 -1 5 C-0.67 3.35 -0.34 1.7 0 0 Z " fill="#F1E496" transform="translate(66,37)" />
<path d="M0 0 C0.99 0 1.98 0 3 0 C3 0.99 3 1.98 3 3 C3.99 3 4.98 3 6 3 C5.34 4.98 4.68 6.96 4 9 C3.34 9 2.68 9 2 9 C2 8.34 2 7.68 2 7 C1.34 6.67 0.68 6.34 0 6 C-0.6875 3.5 -0.6875 3.5 -1 1 C-0.67 0.67 -0.34 0.34 0 0 Z " fill="#E6D7A3" transform="translate(37,17)" />
<path d="M0 0 C0.33 0.99 0.66 1.98 1 3 C2.98 3 4.96 3 7 3 C6.67 4.32 6.34 5.64 6 7 C3.69 7.33 1.38 7.66 -1 8 C-0.67 5.36 -0.34 2.72 0 0 Z " fill="#931F14" transform="translate(55,78)" />
<path d="M0 0 C0.33 0 0.66 0 1 0 C1.0270043 1.45823212 1.04639787 2.91660675 1.0625 4.375 C1.07410156 5.18710937 1.08570312 5.99921875 1.09765625 6.8359375 C1 9 1 9 0 11 C-0.66 11 -1.32 11 -2 11 C-2 11.66 -2 12.32 -2 13 C-2.99 13 -3.98 13 -5 13 C-4.67 9.7 -4.34 6.4 -4 3 C-3.67 3 -3.34 3 -3 3 C-3 4.98 -3 6.96 -3 9 C-2.34 9 -1.68 9 -1 9 C-0.67 6.03 -0.34 3.06 0 0 Z " fill="#844138" transform="translate(79,40)" />
<path d="M0 0 C0.66 0 1.32 0 2 0 C2.66 3.96 3.32 7.92 4 12 C2.68 11.67 1.36 11.34 0 11 C0 7.37 0 3.74 0 0 Z " fill="#963C2F" transform="translate(36,68)" />
<path d="M0 0 C0.66 0.66 1.32 1.32 2 2 C1.66384435 6.81823105 -0.00927064 10.67232747 -2 15 C-3.31534494 11.34142468 -2.65468309 8.91973519 -1.5625 5.25 C-1.27503906 4.26515625 -0.98757812 3.2803125 -0.69140625 2.265625 C-0.46324219 1.51796875 -0.23507813 0.7703125 0 0 Z " fill="#9E8A85" transform="translate(79,49)" />
<path d="M0 0 C2.31 0.33 4.62 0.66 7 1 C7 1.99 7 2.98 7 4 C6.34 4 5.68 4 5 4 C5 4.66 5 5.32 5 6 C3.02 6 1.04 6 -1 6 C-0.67 4.02 -0.34 2.04 0 0 Z " fill="#FCF4BD" transform="translate(46,34)" />
<path d="M0 0 C0.66 0.33 1.32 0.66 2 1 C1.67 1.495 1.67 1.495 0 4 C-0.4140625 6.69921875 -0.4140625 6.69921875 -0.625 9.6875 C-0.69976562 10.68136719 -0.77453125 11.67523438 -0.8515625 12.69921875 C-0.90054688 13.45847656 -0.94953125 14.21773437 -1 15 C-1.33 15 -1.66 15 -2 15 C-2.13277344 14.39671875 -2.26554687 13.7934375 -2.40234375 13.171875 C-2.57894531 12.37265625 -2.75554688 11.5734375 -2.9375 10.75 C-3.11152344 9.96109375 -3.28554688 9.1721875 -3.46484375 8.359375 C-3.947556 6.23121297 -4.46163178 4.11467158 -5 2 C-3.35 2 -1.7 2 0 2 C0 1.34 0 0.68 0 0 Z " fill="#C0763D" transform="translate(54,40)" />
<path d="M0 0 C0.66 0.99 1.32 1.98 2 3 C3.32 3.66 4.64 4.32 6 5 C4.515 5.495 4.515 5.495 -3 8 C-3.36923077 3.44615385 -3.36923077 3.44615385 -1.5 1.1875 C-1.005 0.795625 -0.51 0.40375 0 0 Z " fill="#D7AA8C" transform="translate(23,34)" />
<path d="M0 0 C0.66 0.66 1.32 1.32 2 2 C1.71857705 6.78419016 -0.7870902 10.8520807 -3 15 C-4.43410153 11.21180727 -3.51009497 8.93478721 -2.0625 5.25 C-1.68222656 4.26515625 -1.30195312 3.2803125 -0.91015625 2.265625 C-0.60980469 1.51796875 -0.30945313 0.7703125 0 0 Z " fill="#846A63" transform="translate(75,62)" />
<path d="M0 0 C0.66 1.32 1.32 2.64 2 4 C1.67 4.495 1.67 4.495 0 7 C-2.31 6.67 -4.62 6.34 -7 6 C-5.75 4 -5.75 4 -4 2 C-2.68 2 -1.36 2 0 2 C0 1.34 0 0.68 0 0 Z " fill="#FDF2B9" transform="translate(41,31)" />
<path d="M0 0 C1.9375 0.3125 1.9375 0.3125 4 1 C4.33 1.99 4.66 2.98 5 4 C5.99 4 6.98 4 8 4 C7.34 5.32 6.68 6.64 6 8 C3 7 3 7 0 5 C0 3.33333333 0 1.66666667 0 0 Z " fill="#DFC760" transform="translate(68,32)" />
<path d="M0 0 C2.4375 0.375 2.4375 0.375 5 1 C6.24546405 3.49092811 5.7767578 4.41080733 5 7 C3.68 7.33 2.36 7.66 1 8 C0.67 5.36 0.34 2.72 0 0 Z " fill="#FCF5BD" transform="translate(48,19)" />
<path d="M0 0 C1.125 3.75 1.125 3.75 0 6 C0.66 6 1.32 6 2 6 C1.34 8.31 0.68 10.62 0 13 C-0.66 13 -1.32 13 -2 13 C-1.85966889 11.02043559 -1.7125877 9.04134859 -1.5625 7.0625 C-1.48128906 5.96035156 -1.40007813 4.85820313 -1.31640625 3.72265625 C-1 1 -1 1 0 0 Z " fill="#775144" transform="translate(65,73)" />
<path d="M0 0 C7.38461538 -0.36923077 7.38461538 -0.36923077 10.5 1.5 C10.995 1.995 11.49 2.49 12 3 C9.69 3 7.38 3 5 3 C5 2.34 5 1.68 5 1 C4.01 1 3.02 1 2 1 C2 1.66 2 2.32 2 3 C0.35 3 -1.3 3 -3 3 C-3.33 2.34 -3.66 1.68 -4 1 C-2.68 1.33 -1.36 1.66 0 2 C0 1.34 0 0.68 0 0 Z " fill="#E8D486" transform="translate(51,38)" />
<path d="M0 0 C1.65 0 3.3 0 5 0 C5.33 1.65 5.66 3.3 6 5 C5.34 4.67 4.68 4.34 4 4 C3.67 4.99 3.34 5.98 3 7 C2.34 7 1.68 7 1 7 C0.67 4.69 0.34 2.38 0 0 Z " fill="#E3D17E" transform="translate(71,24)" />
<path d="M0 0 C0.99 0.33 1.98 0.66 3 1 C3 1.66 3 2.32 3 3 C3.99 2.67 4.98 2.34 6 2 C6 2.66 6 3.32 6 4 C6.66 4.33 7.32 4.66 8 5 C4.7 4.67 1.4 4.34 -2 4 C-2 3.01 -2 2.02 -2 1 C-1.34 0.67 -0.68 0.34 0 0 Z " fill="#F8F1B5" transform="translate(36,23)" />
<path d="M0 0 C-0.99 0.33 -1.98 0.66 -3 1 C-3.6875 3.0625 -3.6875 3.0625 -4 5 C-4.33 4.01 -4.66 3.02 -5 2 C-6.84765625 1.26953125 -6.84765625 1.26953125 -9.0625 0.8125 C-9.79597656 0.65394531 -10.52945313 0.49539062 -11.28515625 0.33203125 C-11.85105469 0.22246094 -12.41695312 0.11289062 -13 0 C-13 -0.33 -13 -0.66 -13 -1 C-8.15507803 -2.51403812 -4.7408989 -1.36602172 0 0 Z " fill="#6E563C" transform="translate(49,16)" />
<path d="M0 0 C1.32 0 2.64 0 4 0 C3.34 3.63 2.68 7.26 2 11 C-0.67927341 6.98108988 -0.15601248 4.75838077 0 0 Z " fill="#B03422" transform="translate(52,65)" />
<path d="M0 0 C2.31 0.66 4.62 1.32 7 2 C7 2.33 7 2.66 7 3 C4.36 3.66 1.72 4.32 -1 5 C-1.33 6.32 -1.66 7.64 -2 9 C-2.25 3.375 -2.25 3.375 0 0 Z " fill="#DC6945" transform="translate(55,41)" />
<path d="M0 0 C0.33 0.66 0.66 1.32 1 2 C1.66 2 2.32 2 3 2 C3 2.66 3 3.32 3 4 C2.690625 4.04125 2.690625 4.04125 1.125 4.25 C-1 5 -1 5 -2.25 7.0625 C-2.4975 7.701875 -2.745 8.34125 -3 9 C-3.66 8.67 -4.32 8.34 -5 8 C-2.25 2.25 -2.25 2.25 0 0 Z " fill="#584723" transform="translate(26,26)" />
<path d="M0 0 C0.66 0.33 1.32 0.66 2 1 C1.34 2.98 0.68 4.96 0 7 C-0.66 7 -1.32 7 -2 7 C-2.33 8.32 -2.66 9.64 -3 11 C-2.88590407 9.54077307 -2.75834456 8.08259402 -2.625 6.625 C-2.55539063 5.81289062 -2.48578125 5.00078125 -2.4140625 4.1640625 C-2 2 -2 2 0 0 Z " fill="#8A746B" transform="translate(70,62)" />
<path d="M0 0 C0.66 0.165 0.66 0.165 4 1 C4.33 3.64 4.66 6.28 5 9 C4.38125 8.360625 3.7625 7.72125 3.125 7.0625 C1 5 1 5 -1 4 C-0.67 2.68 -0.34 1.36 0 0 Z " fill="#DBD4C9" transform="translate(45,62)" />
<path d="M0 0 C2.16874252 0.50603992 3.99967627 0.99983813 6 2 C6 1.34 6 0.68 6 0 C7.65 0 9.3 0 11 0 C10.01 0.66 9.02 1.32 8 2 C8 2.99 8 3.98 8 5 C4.75791433 4.64950425 3.38472296 4.43778819 1.1875 1.9375 C0.795625 1.298125 0.40375 0.65875 0 0 Z " fill="#44290E" transform="translate(47,15)" />
<path d="M0 0 C3 1 3 1 5 3 C4.67 3.66 4.34 4.32 4 5 C1.4375 5.625 1.4375 5.625 -1 6 C-1.33 5.34 -1.66 4.68 -2 4 C-1.0625 1.875 -1.0625 1.875 0 0 Z " fill="#E6D07F" transform="translate(32,35)" />
<path d="M0 0 C0 0.66 0 1.32 0 2 C0.99 2 1.98 2 3 2 C3 2.66 3 3.32 3 4 C1.02 3.67 1.02 3.67 -9 2 C-9 1.67 -9 1.34 -9 1 C-2.25 0 -2.25 0 0 0 Z " fill="#D79F5B" transform="translate(65,40)" />
<path d="M0 0 C3.85645121 -0.22036864 6.49223216 0.39644899 10 2 C9.67 2.99 9.34 3.98 9 5 C5.22454612 3.90931332 2.52956528 3.0916909 0 0 Z " fill="#C07C44" transform="translate(25,39)" />
<path d="M0 0 C1.125 1.6875 1.125 1.6875 2 4 C1.125 6.75 1.125 6.75 0 9 C-0.103125 8.360625 -0.20625 7.72125 -0.3125 7.0625 C-0.539375 6.381875 -0.76625 5.70125 -1 5 C-1.99 4.67 -2.98 4.34 -4 4 C-3.67 3.34 -3.34 2.68 -3 2 C-2.01 2 -1.02 2 0 2 C0 1.34 0 0.68 0 0 Z " fill="#C0A253" transform="translate(80,31)" />
<path d="M0 0 C1.32 0 2.64 0 4 0 C4.33 1.65 4.66 3.3 5 5 C4.01 5.33 3.02 5.66 2 6 C0 3 0 3 0 0 Z " fill="#BFADA2" transform="translate(39,74)" />
<path d="M0 0 C0.66 0 1.32 0 2 0 C2.33 1.98 2.66 3.96 3 6 C1.68 6 0.36 6 -1 6 C-1.625 4.125 -1.625 4.125 -2 2 C-1.34 1.34 -0.68 0.68 0 0 Z " fill="#9C2419" transform="translate(34,74)" />
<path d="M0 0 C1.32 0 2.64 0 4 0 C4 1.32 4 2.64 4 4 C2.35 4 0.7 4 -1 4 C-1 1 -1 1 0 0 Z " fill="#FCF7C6" transform="translate(26,34)" />
<path d="M0 0 C0.4021875 0.0103125 0.4021875 0.0103125 2.4375 0.0625 C1.4375 3.0625 1.4375 3.0625 -0.625 4.25 C-1.264375 4.518125 -1.90375 4.78625 -2.5625 5.0625 C-3.125 3.125 -3.125 3.125 -3.5625 1.0625 C-2.5625 0.0625 -2.5625 0.0625 0 0 Z " fill="#D6C67B" transform="translate(45.5625,30.9375)" />
<path d="M0 0 C0.66 0 1.32 0 2 0 C2.33 2.31 2.66 4.62 3 7 C2.01 7 1.02 7 0 7 C-0.66 7.66 -1.32 8.32 -2 9 C-1.41196203 5.97580475 -0.77321882 2.98241547 0 0 Z " fill="#F2DE90" transform="translate(66,21)" />
<path d="M0 0 C0.99 0.33 1.98 0.66 3 1 C2.67 2.98 2.34 4.96 2 7 C1.01 6.67 0.02 6.34 -1 6 C-0.67 4.02 -0.34 2.04 0 0 Z " fill="#5F2A2E" transform="translate(71,63)" />
<path d="M0 0 C0.99 0 1.98 0 3 0 C2.34 2.31 1.68 4.62 1 7 C0.34 7 -0.32 7 -1 7 C-1.625 5.1875 -1.625 5.1875 -2 3 C-1.34 2.01 -0.68 1.02 0 0 Z " fill="#AC6623" transform="translate(76,36)" />
<path d="M0 0 C1.65 0 3.3 0 5 0 C5.33 1.32 5.66 2.64 6 4 C6.66 4 7.32 4 8 4 C8 4.66 8 5.32 8 6 C6.35 5.67 4.7 5.34 3 5 C3 4.01 3 3.02 3 2 C2.01 1.34 1.02 0.68 0 0 Z " fill="#F4ECA7" transform="translate(44,29)" />
<path d="M0 0 C0.66 0 1.32 0 2 0 C2 1.98 2 3.96 2 6 C0.68 6.33 -0.64 6.66 -2 7 C-1.125 2.25 -1.125 2.25 0 0 Z " fill="#7A6253" transform="translate(74,75)" />
<path d="M0 0 C0.99 0 1.98 0 3 0 C3 1.65 3 3.3 3 5 C1.68 5 0.36 5 -1 5 C-0.67 3.35 -0.34 1.7 0 0 Z " fill="#FDF3C0" transform="translate(58,27)" />
<path d="M0 0 C0.33 0 0.66 0 1 0 C1.25 2.3125 1.25 2.3125 1 5 C-1 6.8125 -1 6.8125 -3 8 C-2.67 6.02 -2.34 4.04 -2 2 C-1.34 2 -0.68 2 0 2 C0 1.34 0 0.68 0 0 Z " fill="#3F1D11" transform="translate(68,79)" />
<path d="M0 0 C1.32 1.65 2.64 3.3 4 5 C3.34 5.33 3.34 5.33 0 7 C-0.66 5.35 -1.32 3.7 -2 2 C-1.34 2 -0.68 2 0 2 C0 1.34 0 0.68 0 0 Z " fill="#755C4A" transform="translate(30,80)" />
<path d="M0 0 C0.66 0 1.32 0 2 0 C1.74438677 2.3431213 1.40729228 4.67843403 1 7 C0.67 7.165 0.67 7.165 -1 8 C-1.125 2.25 -1.125 2.25 0 0 Z " fill="#48241F" transform="translate(70,69)" />
<path d="M0 0 C0.66 0.33 0.66 0.33 4 2 C3.34 3.32 2.68 4.64 2 6 C1.34 6 0.68 6 0 6 C0 4.02 0 2.04 0 0 Z " fill="#C42E27" transform="translate(56,64)" />
</svg>