<?xml version='1.0' encoding='utf-8'?>
<svg xmlns="http://www.w3.org/2000/svg" version="1.1" width="105" height="95">
<path d="M0 0 C4.24165895 1.9181844 7.75443329 1.39123317 12.26953125 0.8203125 C21.45683832 -0.01705169 21.45683832 -0.01705169 25.26953125 2.4453125 C28.20172561 5.96394574 28.20370077 7.99950156 28.76953125 12.4453125 C31.70703125 14.7578125 31.70703125 14.7578125 34.76953125 16.4453125 C36.76953125 18.4453125 36.76953125 18.4453125 37.08203125 21.8203125 C36.76286074 25.52269047 36.40799172 26.90833128 33.76953125 29.4453125 C33.10953125 29.4453125 32.44953125 29.4453125 31.76953125 29.4453125 C31.43953125 30.4353125 31.10953125 31.4253125 30.76953125 32.4453125 C29.24609375 33.69140625 29.24609375 33.69140625 27.39453125 34.8828125 C24.55623517 36.79822703 22.75120705 38.62924689 20.76953125 41.4453125 C20.10953125 41.4453125 19.44953125 41.4453125 18.76953125 41.4453125 C18.76953125 42.1053125 18.76953125 42.7653125 18.76953125 43.4453125 C8.67640912 53.05604277 -0.46435794 57.9810495 -14.4765625 57.73046875 C-20.10047905 57.30326177 -23.93183574 55.85061061 -27.9140625 51.68359375 C-29.62531657 48.77395404 -29.59703454 46.73905026 -29.54296875 43.3828125 C-29.53910156 42.33996094 -29.53523438 41.29710937 -29.53125 40.22265625 C-29.23046875 37.4453125 -29.23046875 37.4453125 -27.23046875 34.4453125 C-28.01421875 34.0121875 -28.79796875 33.5790625 -29.60546875 33.1328125 C-32.23046875 31.4453125 -32.23046875 31.4453125 -34.23046875 28.4453125 C-35.02285152 23.97851761 -35.52193919 19.33599545 -32.875 15.4609375 C-29.37860663 12.34274121 -25.81051003 10.56239574 -21.23046875 9.4453125 C-21.16859375 8.5378125 -21.10671875 7.6303125 -21.04296875 6.6953125 C-20.02929349 2.64061144 -18.71899589 1.63578303 -15.23046875 -0.5546875 C-10.23384226 -2.62225708 -4.75679848 -2.28924522 0 0 Z " fill="#374A08" transform="translate(50.23046875,19.5546875)" />
<path d="M0 0 C-0.66 0.66 -1.32 1.32 -2 2 C-1.360625 2.226875 -0.72125 2.45375 -0.0625 2.6875 C2 4 2 4 2.75 6.625 C2.79125 7.016875 2.79125 7.016875 3 9 C3.99 9.165 3.99 9.165 9 10 C9.95619733 13.99795892 10.1039592 17.70803922 10.0625 21.8125 C10.05347656 22.97394531 10.04445313 24.13539062 10.03515625 25.33203125 C10.02355469 26.21246094 10.01195313 27.09289062 10 28 C11.32 28 12.64 28 14 28 C13.9896875 27.4328125 13.9896875 27.4328125 13.9375 24.5625 C14 21 14 21 15 20 C17.37338639 19.84028023 19.72118272 19.7407567 22.09765625 19.68359375 C22.80651474 19.66281265 23.51537323 19.64203156 24.24571228 19.62062073 C26.51787305 19.55505402 28.79015264 19.4962077 31.0625 19.4375 C32.59962183 19.39432151 34.1367315 19.35070745 35.67382812 19.30664062 C39.4490959 19.19936551 43.2244836 19.09811863 47 19 C47 19.66 47 20.32 47 21 C46.34 21 45.68 21 45 21 C44.94944458 21.30296997 44.94944458 21.30296997 44.69360352 22.83618164 C43.86866349 25.40972738 43.07586547 26.0712011 40.90234375 27.62109375 C40.2688501 28.07943604 39.63535645 28.53777832 38.98266602 29.01000977 C38.30776123 29.48108154 37.63285645 29.95215332 36.9375 30.4375 C36.2580835 30.92468506 35.57866699 31.41187012 34.87866211 31.91381836 C31.34672528 34.42674055 27.77615712 36.82358037 24.0625 39.0625 C23.051875 39.701875 22.04125 40.34125 21 41 C21 41.66 21 42.32 21 43 C6.79521709 45.77687485 6.79521709 45.77687485 1 43 C-1.875 40.4375 -1.875 40.4375 -4 38 C-4.33 37.67 -4.66 37.34 -5 37 C-5.12548989 35.04469236 -5.17575363 33.08429521 -5.1875 31.125 C-5.20167969 30.05507813 -5.21585938 28.98515625 -5.23046875 27.8828125 C-5 25 -5 25 -3 22 C-3.78375 21.566875 -4.5675 21.13375 -5.375 20.6875 C-8 19 -8 19 -10 16 C-10.6672387 12.23866323 -10.7158486 8.75553407 -10 5 C-7.28164698 1.11144689 -4.73120166 -1.57706722 0 0 Z " fill="#91BF06" transform="translate(26,32)" />
<path d="M0 0 C0.78375 0.04125 1.5675 0.0825 2.375 0.125 C1.385 3.095 0.395 6.065 -0.625 9.125 C-0.22651855 9.11452637 -0.22651855 9.11452637 1.79003906 9.06152344 C5.40156434 8.97836678 9.01288824 8.92633966 12.625 8.875 C13.25212891 8.85824219 13.25212891 8.85824219 16.42578125 8.7734375 C17.63105469 8.76054687 18.83632813 8.74765625 20.078125 8.734375 C21.18833008 8.71342773 22.29853516 8.69248047 23.44238281 8.67089844 C27.00019334 9.22180816 28.14201723 10.3789063 30.375 13.125 C29.900625 13.516875 29.42625 13.90875 28.9375 14.3125 C27.02320367 16.53308374 26.76233012 18.25875709 26.375 21.125 C24.065 21.125 21.755 21.125 19.375 21.125 C19.375 22.115 19.375 23.105 19.375 24.125 C25.315 24.455 31.255 24.785 37.375 25.125 C36.375 29.125 36.375 29.125 34.375 31.125 C31.39404297 31.44384766 31.39404297 31.44384766 27.6171875 31.5390625 C27.28566177 31.54874557 27.28566177 31.54874557 25.60794067 31.5977478 C23.48875823 31.65755954 21.3695215 31.70393388 19.25 31.75 C17.81377831 31.78817845 16.37757955 31.82723011 14.94140625 31.8671875 C11.41948064 31.96326125 7.89738392 32.04728642 4.375 32.125 C4.045 34.435 3.715 36.745 3.375 39.125 C2.055 39.125 0.735 39.125 -0.625 39.125 C-0.955 33.185 -1.285 27.245 -1.625 21.125 C-3.605 21.125 -5.585 21.125 -7.625 21.125 C-8.625 20.125 -8.625 20.125 -8.6875 17.5625 C-8.666875 16.758125 -8.64625 15.95375 -8.625 15.125 C-10.935 14.795 -13.245 14.465 -15.625 14.125 C-12.33695019 11.21272731 -10.02614397 9.62798788 -5.625 9.125 C-5.50125 8.01125 -5.3775 6.8975 -5.25 5.75 C-4.54526246 1.66252224 -4.29314267 0.20443537 0 0 Z " fill="#3699AF" transform="translate(36.625,20.875)" />
<path d="M0 0 C1.6484375 1.37890625 1.6484375 1.37890625 4.0234375 3.87890625 C3.6934375 4.86890625 3.3634375 5.85890625 3.0234375 6.87890625 C0.4609375 8.06640625 0.4609375 8.06640625 -1.9765625 8.87890625 C-1.68072266 8.92789063 -1.68072266 8.92789063 -0.18359375 9.17578125 C4.89385889 10.13660426 8.19857494 11.17742635 12.0234375 14.87890625 C11.7415484 18.26157546 11.19279313 19.68962643 8.8984375 22.25390625 C5.09700225 24.40254357 3.30415061 23.5470941 -0.9765625 22.87890625 C-3.9570961 22.75628936 -6.93163535 22.78318298 -9.9140625 22.81640625 C-10.30368164 22.81866211 -10.30368164 22.81866211 -12.27539062 22.83007812 C-14.17581518 22.84173717 -16.07619956 22.85966748 -17.9765625 22.87890625 C-17.6465625 21.55890625 -17.3165625 20.23890625 -16.9765625 18.87890625 C-14.6665625 18.87890625 -12.3565625 18.87890625 -9.9765625 18.87890625 C-9.9765625 17.22890625 -9.9765625 15.57890625 -9.9765625 13.87890625 C-8.9865625 13.54890625 -7.9965625 13.21890625 -6.9765625 12.87890625 C-6.9765625 11.88890625 -6.9765625 10.89890625 -6.9765625 9.87890625 C-10.46335186 7.55438001 -12.04623821 7.58116891 -16.17578125 7.46484375 C-17.38427734 7.42617188 -18.59277344 7.3875 -19.83789062 7.34765625 C-21.10052734 7.31671875 -22.36316406 7.28578125 -23.6640625 7.25390625 C-24.93830078 7.21523438 -26.21253906 7.1765625 -27.52539062 7.13671875 C-30.67563542 7.04232939 -33.82587241 6.95674795 -36.9765625 6.87890625 C-36.9765625 6.21890625 -36.9765625 5.55890625 -36.9765625 4.87890625 C-33.0165625 5.20890625 -29.0565625 5.53890625 -24.9765625 5.87890625 C-24.6465625 4.88890625 -24.3165625 3.89890625 -23.9765625 2.87890625 C-21.9965625 2.87890625 -20.0165625 2.87890625 -17.9765625 2.87890625 C-17.9765625 2.21890625 -17.9765625 1.55890625 -17.9765625 0.87890625 C-12.5323342 -1.4134004 -5.42531907 -3.07720667 0 0 Z " fill="#8CBA0D" transform="translate(72.9765625,23.12109375)" />
<path d="M0 0 C-0.66 0.66 -1.32 1.32 -2 2 C-1.360625 2.226875 -0.72125 2.45375 -0.0625 2.6875 C2 4 2 4 2.75 6.625 C2.79125 7.016875 2.79125 7.016875 3 9 C3.99 9.165 3.99 9.165 9 10 C9.33 12.64 9.66 15.28 10 18 C9.31292969 18.31453125 8.62585938 18.6290625 7.91796875 18.953125 C7.01691406 19.38109375 6.11585937 19.8090625 5.1875 20.25 C4.29417969 20.66765625 3.40085937 21.0853125 2.48046875 21.515625 C-0.14426221 23.08633014 -1.42102044 24.40413717 -3 27 C-3.5 29.5 -3.5 29.5 -3 32 C-0.75 34.1875 -0.75 34.1875 2 36 C2.53625 36.36480469 3.0725 36.72960937 3.625 37.10546875 C7.28928064 38.48560077 10.87236247 38.20859749 14.75 38.125 C15.14638672 38.12048828 15.14638672 38.12048828 17.15234375 38.09765625 C19.10169281 38.07417012 21.05088575 38.03830137 23 38 C22.38671875 40.41015625 22.38671875 40.41015625 21 43 C15.79878602 44.85497841 9.44682156 45.69352981 4 44.4375 C0.56392101 42.79104549 -1.50735875 40.85920614 -4 38 C-4.33 37.67 -4.66 37.34 -5 37 C-5.12548989 35.04469236 -5.17575363 33.08429521 -5.1875 31.125 C-5.20167969 30.05507813 -5.21585938 28.98515625 -5.23046875 27.8828125 C-5 25 -5 25 -3 22 C-3.78375 21.566875 -4.5675 21.13375 -5.375 20.6875 C-8 19 -8 19 -10 16 C-10.6672387 12.23866323 -10.7158486 8.75553407 -10 5 C-7.28164698 1.11144689 -4.73120166 -1.57706722 0 0 Z " fill="#3B4A07" transform="translate(26,32)" />
<path d="M0 0 C0.78375 0.04125 1.5675 0.0825 2.375 0.125 C1.385 3.095 0.395 6.065 -0.625 9.125 C0.79554687 9.11339844 2.21609375 9.10179687 3.6796875 9.08984375 C5.53645702 9.08046613 7.39322796 9.0713659 9.25 9.0625 C10.18714844 9.05412109 11.12429687 9.04574219 12.08984375 9.03710938 C12.53779297 9.03549805 12.53779297 9.03549805 14.8046875 9.02734375 C15.218396 9.02472534 15.218396 9.02472534 17.31201172 9.01147461 C19.375 9.125 19.375 9.125 21.375 10.125 C21.375 10.785 21.375 11.445 21.375 12.125 C22.365 12.785 23.355 13.445 24.375 14.125 C24.045 14.455 23.715 14.785 23.375 15.125 C21.18449979 15.03482004 18.996534 14.87833792 16.8125 14.6875 C15.61496094 14.58566406 14.41742188 14.48382813 13.18359375 14.37890625 C12.25675781 14.29511719 11.32992187 14.21132813 10.375 14.125 C10.045 15.445 9.715 16.765 9.375 18.125 C10.695 18.455 12.015 18.785 13.375 19.125 C11.6171875 20.1015625 9.859375 21.078125 8.1015625 22.0546875 C6.375 23.125 6.375 23.125 4.375 25.125 C4.375 22.815 4.375 20.505 4.375 18.125 C1.375 20.125 1.375 20.125 0.6875 23.25 C0.584375 24.19875 0.48125 25.1475 0.375 26.125 C-0.285 26.125 -0.945 26.125 -1.625 26.125 C-1.625 24.475 -1.625 22.825 -1.625 21.125 C-2.594375 21.145625 -3.56375 21.16625 -4.5625 21.1875 C-7.625 21.125 -7.625 21.125 -8.625 20.125 C-8.66563832 18.45882885 -8.667721 16.79111905 -8.625 15.125 C-10.935 14.795 -13.245 14.465 -15.625 14.125 C-12.33695019 11.21272731 -10.02614397 9.62798788 -5.625 9.125 C-5.50125 8.01125 -5.3775 6.8975 -5.25 5.75 C-4.54526246 1.66252224 -4.29314267 0.20443537 0 0 Z " fill="#338DA8" transform="translate(36.625,20.875)" />
<path d="M0 0 C0.33 2.31 0.66 4.62 1 7 C1.69867188 6.97679687 2.39734375 6.95359375 3.1171875 6.9296875 C4.02726562 6.91164063 4.93734375 6.89359375 5.875 6.875 C6.32746094 6.86339844 6.32746094 6.86339844 8.6171875 6.8046875 C11 7 11 7 13 9 C12.67 9.66 12.34 10.32 12 11 C12.804375 10.690625 13.60875 10.38125 14.4375 10.0625 C18.62249087 8.81434483 22.66306101 8.3662304 27 8 C22.25116649 13.49083875 17.64682875 15.63691311 10.4296875 16.35546875 C2.64262687 16.64187158 -3.08997308 16.37275175 -9 11 C-9.66 10.34 -10.32 9.68 -11 9 C-10.625 5.375 -10.625 5.375 -10 2 C-3.375 0 -3.375 0 0 0 Z " fill="#A0CB09" transform="translate(33,55)" />
<path d="M0 0 C6.4 -0.49230769 6.4 -0.49230769 9.4375 2 C9.6953125 2.33 9.6953125 2.33 11 4 C10.525625 4.391875 10.05125 4.78375 9.5625 5.1875 C7.64820367 7.40808374 7.38733012 9.13375709 7 12 C4.69 12 2.38 12 0 12 C-0.33 13.32 -0.66 14.64 -1 16 C-5.29 16 -9.58 16 -14 16 C-13 13 -13 13 -9.9375 11.3125 C-8.968125 10.879375 -7.99875 10.44625 -7 10 C-7.99 9.67 -8.98 9.34 -10 9 C-9.67 7.68 -9.34 6.36 -9 5 C-4.71 5 -0.42 5 4 5 C1.69 4.67 -0.62 4.34 -3 4 C-3 3.67 -3 3.34 -3 3 C-1.35 3 0.3 3 2 3 C2 2.34 2 1.68 2 1 C1.34 0.67 0.68 0.34 0 0 Z " fill="#316015" transform="translate(56,30)" />
<path d="M0 0 C0 0.66 0 1.32 0 2 C-0.66 2 -1.32 2 -2 2 C-2.0309375 2.2990625 -2.0309375 2.2990625 -2.1875 3.8125 C-3 6 -3 6 -4.9609375 7.69140625 C-9.32412678 9.57015742 -12.82649502 8.81363354 -17.4375 8.125 C-22.88056795 7.35884504 -27.56160891 6.7089348 -33 8 C-33.04254356 6.00045254 -33.04080783 3.99958364 -33 2 C-31.12217241 0.12217241 -27.9201379 0.75786322 -25.41015625 0.68359375 C-24.7504332 0.66281265 -24.09071014 0.64203156 -23.41099548 0.62062073 C-21.29493951 0.55506803 -19.17875466 0.49625155 -17.0625 0.4375 C-15.63865865 0.39431408 -14.21483022 0.35069977 -12.79101562 0.30664062 C-2.72938405 0 -2.72938405 0 0 0 Z " fill="#669311" transform="translate(73,51)" />
<path d="M0 0 C0 1.32 0 2.64 0 4 C-0.804375 4.28875 -1.60875 4.5775 -2.4375 4.875 C-5 6 -5 6 -6 8 C-9.96 7.67 -13.92 7.34 -18 7 C-17 3 -17 3 -16 1 C-17.65 1.33 -19.3 1.66 -21 2 C-21.66 4.31 -22.32 6.62 -23 9 C-24.65 9.33 -26.3 9.66 -28 10 C-27.67 9.34 -27.34 8.68 -27 8 C-26.34 8 -25.68 8 -25 8 C-24.9690625 7.54625 -24.9690625 7.54625 -24.8125 5.25 C-23.79882474 1.19529894 -22.48852714 0.19047053 -19 -2 C-12.41285308 -4.72571597 -6.02845669 -3.01422834 0 0 Z " fill="#264B38" transform="translate(54,21)" />
<path d="M0 0 C0.75 2.625 0.75 2.625 1 5 C1.99 5.165 1.99 5.165 7 6 C7 7.65 7 9.3 7 11 C1.98872601 12.67042466 -3.04757957 12.65080681 -8 11 C-10.3099337 8.6900663 -10.34044762 8.08313902 -10.4375 4.9375 C-10 1 -10 1 -8 -1 C-4.71813145 -2.31274742 -2.84064821 -2.15497451 0 0 Z " fill="#9FCB05" transform="translate(28,36)" />
<path d="M0 0 C0.763125 0.0825 1.52625 0.165 2.3125 0.25 C1.3225 3.22 0.3325 6.19 -0.6875 9.25 C0.73304687 9.23839844 2.15359375 9.22679687 3.6171875 9.21484375 C5.47395702 9.20546613 7.33072796 9.1963659 9.1875 9.1875 C10.12464844 9.17912109 11.06179687 9.17074219 12.02734375 9.16210938 C12.47529297 9.16049805 12.47529297 9.16049805 14.7421875 9.15234375 C15.155896 9.14972534 15.155896 9.14972534 17.24951172 9.13647461 C19.3125 9.25 19.3125 9.25 21.3125 10.25 C21.3125 10.91 21.3125 11.57 21.3125 12.25 C12.88392857 13.53571429 12.88392857 13.53571429 8.3125 12.25 C8.3125 13.24 8.3125 14.23 8.3125 15.25 C7.3225 15.25 6.3325 15.25 5.3125 15.25 C5.3125 14.59 5.3125 13.93 5.3125 13.25 C2.0125 13.25 -1.2875 13.25 -4.6875 13.25 C-4.6875 15.23 -4.6875 17.21 -4.6875 19.25 C-5.0175 19.25 -5.3475 19.25 -5.6875 19.25 C-5.76867951 16.83265458 -5.82806926 14.41805051 -5.875 12 C-5.90013672 11.31808594 -5.92527344 10.63617188 -5.95117188 9.93359375 C-5.99726357 6.76863082 -5.87044762 4.58611307 -4.34375 1.78125 C-2.6875 0.25 -2.6875 0.25 0 0 Z " fill="#2C838B" transform="translate(36.6875,20.75)" />
<path d="M0 0 C-0.57344937 2.86724686 -0.8614515 3.8614515 -3 6 C-5.98095703 6.31884766 -5.98095703 6.31884766 -9.7578125 6.4140625 C-10.42086395 6.43342865 -11.08391541 6.4527948 -11.76705933 6.4727478 C-13.88624177 6.53255954 -16.0054785 6.57893388 -18.125 6.625 C-19.56122169 6.66317845 -20.99742045 6.70223011 -22.43359375 6.7421875 C-25.95551936 6.83826125 -29.47761608 6.92228642 -33 7 C-33.33 9.31 -33.66 11.62 -34 14 C-35.32 14 -36.64 14 -38 14 C-38 10.04 -38 6.08 -38 2 C-37.01 2.33 -36.02 2.66 -35 3 C-32.79040747 3.15109093 -30.57699953 3.24873801 -28.36328125 3.31640625 C-27.06455078 3.35830078 -25.76582031 3.40019531 -24.42773438 3.44335938 C-23.05599239 3.48316987 -21.68424756 3.52288216 -20.3125 3.5625 C-18.92902355 3.60570835 -17.54555973 3.64932339 -16.16210938 3.69335938 C-12.77484281 3.79958028 -9.38750201 3.90162358 -6 4 C-6 3.01 -6 2.02 -6 1 C-3 0 -3 0 0 0 Z " fill="#2A755F" transform="translate(74,46)" />
<path d="M0 0 C2.51011013 1.42091047 3.98568054 2.87966372 6 5 C5.67 5.99 5.34 6.98 5 8 C3.54364629 8.22174933 2.08477044 8.42698698 0.625 8.625 C-0.18710938 8.74101562 -0.99921875 8.85703125 -1.8359375 8.9765625 C-2.55007812 8.98429687 -3.26421875 8.99203125 -4 9 C-4.66 8.34 -5.32 7.68 -6 7 C-9.625 6.875 -9.625 6.875 -13 7 C-13 6.01 -13 5.02 -13 4 C-13.66 3.34 -14.32 2.68 -15 2 C-10.2638135 -0.52596614 -5.23325911 -0.85969009 0 0 Z " fill="#9FCA12" transform="translate(71,22)" />
<path d="M0 0 C0.33 0.99 0.66 1.98 1 3 C1.66 3.33 2.32 3.66 3 4 C-5.04083958 11.66857849 -12.17222019 17.17651267 -23.6875 17.0625 C-24.27724609 17.05798828 -24.27724609 17.05798828 -27.26171875 17.03515625 C-28.16535156 17.02355469 -29.06898437 17.01195313 -30 17 C-30 16.67 -30 16.34 -30 16 C-29.33613281 15.98582031 -28.67226563 15.97164062 -27.98828125 15.95703125 C-20.63777384 15.55999654 -20.63777384 15.55999654 -17.4375 12.75 C-16.633125 11.8425 -15.82875 10.935 -15 10 C-13.54852028 9.11932691 -12.06574178 8.28907708 -10.5625 7.5 C-6.55607378 5.38959154 -3.36545964 3.02028429 0 0 Z " fill="#335002" transform="translate(64,60)" />
<path d="M0 0 C0 3.63 0 7.26 0 11 C2.64 10.34 5.28 9.68 8 9 C7.34 11.64 6.68 14.28 6 17 C5.34 17 4.68 17 4 17 C4 15.35 4 13.7 4 12 C3.5153125 12.0103125 3.5153125 12.0103125 1.0625 12.0625 C-2 12 -2 12 -3 11 C-3.04063832 9.33382885 -3.042721 7.66611905 -3 6 C-5.31 5.67 -7.62 5.34 -10 5 C-4.03225806 0 -4.03225806 0 0 0 Z " fill="#82B625" transform="translate(31,30)" />
<path d="M0 0 C0.25523438 0.17466797 0.25523438 0.17466797 1.546875 1.05859375 C7.94906532 5.0656384 13.51608292 5.86070544 21 6 C18.19542435 8.71958851 16.53551627 9.92066426 12.625 10.5 C7.41874958 9.78189649 3.76158576 7.76158576 0 4 C0 2.68 0 1.36 0 0 Z " fill="#799F0C" transform="translate(23,65)" />
<path d="M0 0 C0.763125 0.0825 1.52625 0.165 2.3125 0.25 C1.3225 3.22 0.3325 6.19 -0.6875 9.25 C2.2825 9.25 5.2525 9.25 8.3125 9.25 C8.3125 9.91 8.3125 10.57 8.3125 11.25 C6.16673363 11.27685938 4.02087355 11.29633088 1.875 11.3125 C0.68003906 11.32410156 -0.51492187 11.33570313 -1.74609375 11.34765625 C-4.6875 11.25 -4.6875 11.25 -5.6875 10.25 C-5.9792773 6.96750543 -5.98616591 4.84733181 -4.5 1.875 C-2.6875 0.25 -2.6875 0.25 0 0 Z " fill="#42BBDB" transform="translate(36.6875,20.75)" />
<path d="M0 0 C0.66 0.33 1.32 0.66 2 1 C1.01 2.65 0.02 4.3 -1 6 C1.31 6.66 3.62 7.32 6 8 C5.67 8.99 5.34 9.98 5 11 C5.94875 10.814375 6.8975 10.62875 7.875 10.4375 C11 10 11 10 13 11 C13.66 9.68 14.32 8.36 15 7 C15 8.65 15 10.3 15 12 C9.98872601 13.67042466 4.95242043 13.65080681 0 12 C-2.3099337 9.6900663 -2.34044762 9.08313902 -2.4375 5.9375 C-2 2 -2 2 0 0 Z " fill="#A9CE14" transform="translate(20,35)" />
<path d="M0 0 C1.32 0.66 2.64 1.32 4 2 C3.67 2.99 3.34 3.98 3 5 C4.32 5.33 5.64 5.66 7 6 C-1.58 6 -10.16 6 -19 6 C-19 5.34 -19 4.68 -19 4 C-15.04 4.33 -11.08 4.66 -7 5 C-6.67 4.01 -6.34 3.02 -6 2 C-4.02 2 -2.04 2 0 2 C0 1.34 0 0.68 0 0 Z " fill="#6BAB46" transform="translate(55,24)" />
<path d="M0 0 C0.33 0 0.66 0 1 0 C1.185625 0.9075 1.37125 1.815 1.5625 2.75 C3.13221644 6.29892412 4.60383123 7.58810429 8.06640625 9.30859375 C11.20639334 10.43137701 13.71551154 10.42576702 17 10 C19.625 8.5625 19.625 8.5625 22 7 C24.8125 6.3125 24.8125 6.3125 27 6 C26.38671875 8.41015625 26.38671875 8.41015625 25 11 C19.79878602 12.85497841 13.44682156 13.69352981 8 12.4375 C3.96405485 10.50360962 1.02136496 8.04272993 -1 4 C-0.5625 1.875 -0.5625 1.875 0 0 Z " fill="#3E5408" transform="translate(22,64)" />
<path d="M0 0 C1.60332791 -0.08121924 3.20784026 -0.13929134 4.8125 -0.1875 C5.25916016 -0.20490234 5.25916016 -0.20490234 7.51953125 -0.29296875 C10.41647515 0.04918998 11.22555028 0.75393573 13 3 C12 4 12 4 8.9375 4.0625 C7.968125 4.041875 6.99875 4.02125 6 4 C6 4.66 6 5.32 6 6 C3.36 6.33 0.72 6.66 -2 7 C-1.34 4.69 -0.68 2.38 0 0 Z " fill="#234841" transform="translate(38,20)" />
<path d="M0 0 C0.66 0.66 1.32 1.32 2 2 C1.625 4.625 1.625 4.625 1 7 C-2 8 -2 8 -5.1875 6.5625 C-6.115625 6.046875 -7.04375 5.53125 -8 5 C-7.67 3.35 -7.34 1.7 -7 0 C-3.85179059 -1.04940314 -3.00659136 -1.066855 0 0 Z " fill="#95C011" transform="translate(83,36)" />
<path d="M0 0 C0.66 0 1.32 0 2 0 C2.33 2.31 2.66 4.62 3 7 C3.99 7.33 4.98 7.66 6 8 C6 8.66 6 9.32 6 10 C7.32 10.33 8.64 10.66 10 11 C8.39667209 11.08121924 6.79215974 11.13929134 5.1875 11.1875 C4.29417969 11.22230469 3.40085937 11.25710937 2.48046875 11.29296875 C-0.41647515 10.95081002 -1.22555028 10.24606427 -3 8 C-1.125 1.125 -1.125 1.125 0 0 Z " fill="#44BBE2" transform="translate(39,39)" />
<path d="M0 0 C0.99 0.66 1.98 1.32 3 2 C-5.04083958 9.66857849 -12.17222019 15.17651267 -23.6875 15.0625 C-24.27724609 15.05798828 -24.27724609 15.05798828 -27.26171875 15.03515625 C-28.16535156 15.02355469 -29.06898437 15.01195313 -30 15 C-30 14.67 -30 14.34 -30 14 C-28.98679688 13.89042969 -27.97359375 13.78085938 -26.9296875 13.66796875 C-25.57805539 13.50840107 -24.22649657 13.34821167 -22.875 13.1875 C-22.20984375 13.11724609 -21.5446875 13.04699219 -20.859375 12.97460938 C-16.36401519 12.42370744 -12.8795657 11.34071061 -9 9 C-8.67 8.34 -8.34 7.68 -8 7 C-7.030625 6.54625 -6.06125 6.0925 -5.0625 5.625 C-1.92812978 3.96186478 -1.1240583 3.25976906 0 0 Z " fill="#2C3904" transform="translate(64,62)" />
<path d="M0 0 C3.3 0 6.6 0 10 0 C10 0.99 10 1.98 10 3 C8.73581754 3.69965443 7.46334598 4.38434763 6.1875 5.0625 C5.47980469 5.44535156 4.77210937 5.82820313 4.04296875 6.22265625 C2 7 2 7 -1 6 C-0.67 4.02 -0.34 2.04 0 0 Z " fill="#3E7C35" transform="translate(32,34)" />
<path d="M0 0 C2.31 0 4.62 0 7 0 C7 0.66 7 1.32 7 2 C10.96 2 14.92 2 19 2 C15.95318939 4.03120707 15.39881676 4.24659875 11.98828125 4.1953125 C11.60961914 4.19208984 11.60961914 4.19208984 9.69335938 4.17578125 C8.90767578 4.15902344 8.12199219 4.14226563 7.3125 4.125 C6.51521484 4.11597656 5.71792969 4.10695313 4.89648438 4.09765625 C2.930861 4.07411585 0.96539225 4.03824547 -1 4 C-0.67 2.68 -0.34 1.36 0 0 Z " fill="#75B61D" transform="translate(56,42)" />
<path d="M0 0 C-1.40508004 4.47070922 -3.59346112 6.83678532 -7 10 C-7.61875 10.721875 -8.2375 11.44375 -8.875 12.1875 C-11.68574347 14.58489884 -14.44087527 15.17866352 -18 16 C-16.33333333 14.33333333 -14.66666667 12.66666667 -13 11 C-12.278125 10.236875 -11.55625 9.47375 -10.8125 8.6875 C-9 7 -9 7 -7 7 C-7 6.34 -7 5.68 -7 5 C-2.47619048 0 -2.47619048 0 0 0 Z " fill="#676542" transform="translate(76,56)" />
<path d="M0 0 C3.63 0.33 7.26 0.66 11 1 C11 1.66 11 2.32 11 3 C11.66 3 12.32 3 13 3 C13 3.66 13 4.32 13 5 C10.69 4.835 10.69 4.835 -1 4 C-0.67 2.68 -0.34 1.36 0 0 Z " fill="#104946" transform="translate(47,35)" />
<path d="M0 0 C2.97 0.33 5.94 0.66 9 1 C7.75368556 4.84280285 6.63951308 7.07319896 3 9 C0.75 8.6875 0.75 8.6875 -1 8 C-0.34 8 0.32 8 1 8 C0.67 7.01 0.34 6.02 0 5 C0.9375 2.8125 0.9375 2.8125 2 1 C1.34 0.67 0.68 0.34 0 0 Z " fill="#375303" transform="translate(72,45)" />
<path d="M0 0 C0.29003906 0.23203125 0.29003906 0.23203125 1.7578125 1.40625 C2.35335937 1.8703125 2.94890625 2.334375 3.5625 2.8125 C3.99820313 3.1734375 4.43390625 3.534375 4.8828125 3.90625 C4.2228125 4.56625 3.5628125 5.22625 2.8828125 5.90625 C2.2640625 5.24625 1.6453125 4.58625 1.0078125 3.90625 C-4.72356677 0.23816726 -11.66549068 1.54799804 -18.1171875 2.90625 C-18.1171875 3.56625 -18.1171875 4.22625 -18.1171875 4.90625 C-19.1071875 4.57625 -20.0971875 4.24625 -21.1171875 3.90625 C-20.7871875 2.91625 -20.4571875 1.92625 -20.1171875 0.90625 C-18.24331273 0.5666481 -16.36802053 0.23486309 -14.4921875 -0.09375 C-13.44804688 -0.279375 -12.40390625 -0.465 -11.328125 -0.65625 C-3.36940159 -1.74065027 -3.36940159 -1.74065027 0 0 Z " fill="#3F500A" transform="translate(73.1171875,21.09375)" />
<path d="M0 0 C0 1.66666667 0 3.33333333 0 5 C1.98 5.99 3.96 6.98 6 8 C5.34 8.66 4.68 9.32 4 10 C1.36 8.68 -1.28 7.36 -4 6 C-3.67 4.68 -3.34 3.36 -3 2 C-3.99 2 -4.98 2 -6 2 C-6 1.34 -6 0.68 -6 0 C-3.50907189 -1.24546405 -2.58919267 -0.7767578 0 0 Z " fill="#8DC102" transform="translate(76,36)" />
<path d="M0 0 C-8.33823529 6.48529412 -8.33823529 6.48529412 -14 6 C-12.7929807 2.37894209 -11.20134306 1.50755076 -7.921875 -0.28125 C-5.06363324 -1.35018594 -2.86794612 -0.83939887 0 0 Z " fill="#183A0C" transform="translate(56,40)" />
<path d="M0 0 C4.97093824 0.41153737 9.44508386 0.79600832 14 3 C14 3.66 14 4.32 14 5 C10.625 5.625 10.625 5.625 7 6 C6.34 5.34 5.68 4.68 5 4 C3.01178687 3.60235737 1.01055661 3.26224651 -1 3 C-0.67 2.01 -0.34 1.02 0 0 Z " fill="#9ECC02" transform="translate(60,25)" />
<path d="M0 0 C0.4021875 0.0103125 0.4021875 0.0103125 2.4375 0.0625 C2.7675 1.0525 3.0975 2.0425 3.4375 3.0625 C4.0975 3.7225 4.7575 4.3825 5.4375 5.0625 C2.4675 5.7225 -0.5025 6.3825 -3.5625 7.0625 C-3.60504356 5.06295254 -3.60330783 3.06208364 -3.5625 1.0625 C-2.5625 0.0625 -2.5625 0.0625 0 0 Z " fill="#528004" transform="translate(43.5625,51.9375)" />
<path d="M0 0 C0.70125 0.309375 1.4025 0.61875 2.125 0.9375 C5.08936657 2.03302678 7.87698108 2.56422992 11 3 C10.67 4.32 10.34 5.64 10 7 C3.55192878 6.39169139 3.55192878 6.39169139 1.0625 4.625 C0 3 0 3 0 0 Z " fill="#70920E" transform="translate(18,45)" />
<path d="M0 0 C-4.05330197 4.38493576 -8.56309857 5.8661656 -14.4140625 6.1875 C-17.61498661 6.1875 -20.80197294 6.13162611 -24 6 C-24 5.67 -24 5.34 -24 5 C-21.36 4.835 -21.36 4.835 -8 4 C-7.67 3.01 -7.34 2.02 -7 1 C-4.53721199 -0.231394 -2.7204945 -0.07159196 0 0 Z " fill="#A1C925" transform="translate(58,65)" />
<path d="M0 0 C0 3.3 0 6.6 0 10 C-0.66 9.67 -1.32 9.34 -2 9 C-2 7.02 -2 5.04 -2 3 C-5 4 -5 4 -6 6 C-8.0625 6.625 -8.0625 6.625 -10 7 C-10 6.01 -10 5.02 -10 4 C-8.71086513 3.32845067 -7.41859796 2.66291141 -6.125 2 C-5.40570312 1.62875 -4.68640625 1.2575 -3.9453125 0.875 C-2 0 -2 0 0 0 Z " fill="#81BA27" transform="translate(36,50)" />
<path d="M0 0 C0.33 0 0.66 0 1 0 C1 1.65 1 3.3 1 5 C-1.31 5 -3.62 5 -6 5 C-6.33 6.32 -6.66 7.64 -7 9 C-8.98 9 -10.96 9 -13 9 C-13.33 8.34 -13.66 7.68 -14 7 C-9.43672206 3.46713966 -5.50366792 3.67625483 0 4 C0 2.68 0 1.36 0 0 Z " fill="#467218" transform="translate(62,37)" />
<path d="M0 0 C1.65 0.33 1.65 0.33 10 2 C10 2.33 10 2.66 10 3 C7.69 3 5.38 3 3 3 C2.67 5.64 2.34 8.28 2 11 C2.66 11.33 3.32 11.66 4 12 C2.68 12 1.36 12 0 12 C0 8.04 0 4.08 0 0 Z " fill="#3F948F" transform="translate(36,48)" />
<path d="M0 0 C1.65 0.33 3.3 0.66 5 1 C4.67 2.32 4.34 3.64 4 5 C0.04 4.67 -3.92 4.34 -8 4 C-6 2 -6 2 -2.875 1.875 C-1.92625 1.91625 -0.9775 1.9575 0 2 C0 1.34 0 0.68 0 0 Z " fill="#233D0A" transform="translate(44,24)" />
<path d="M0 0 C0.33 0 0.66 0 1 0 C1 3.63 1 7.26 1 11 C3.64 10.34 6.28 9.68 9 9 C8.34 11.64 7.68 14.28 7 17 C6.34 17 5.68 17 5 17 C5 15.35 5 13.7 5 12 C3.35 12 1.7 12 0 12 C0 8.04 0 4.08 0 0 Z " fill="#75BD73" transform="translate(30,30)" />
<path d="M0 0 C2.31 0 4.62 0 7 0 C7 0.66 7 1.32 7 2 C7.66 2.33 8.32 2.66 9 3 C6 5 6 5 2.8125 4.625 C1.884375 4.41875 0.95625 4.2125 0 4 C0 2.68 0 1.36 0 0 Z " fill="#497109" transform="translate(46,52)" />
<path d="M0 0 C0.4021875 0.0103125 0.4021875 0.0103125 2.4375 0.0625 C1.4475 2.7025 0.4575 5.3425 -0.5625 8.0625 C-0.8925 7.4025 -1.2225 6.7425 -1.5625 6.0625 C-2.8825 6.0625 -4.2025 6.0625 -5.5625 6.0625 C-3.26136364 0.07954545 -3.26136364 0.07954545 0 0 Z " fill="#3A9BC6" transform="translate(36.5625,20.9375)" />
<path d="M0 0 C2.51529467 1.41825063 3.98328959 2.87714693 6 5 C5.67 5.99 5.34 6.98 5 8 C4.34 8 3.68 8 3 8 C2.979375 7.690625 2.979375 7.690625 2.875 6.125 C2 4 2 4 -0.5 2.75 C-4.73859107 1.84173049 -8.6860317 1.82744127 -13 2 C-8.76524009 -0.82317327 -4.97396771 -0.79429252 0 0 Z " fill="#9DBD25" transform="translate(71,22)" />
<path d="M0 0 C2.125 0.9375 2.125 0.9375 4 2 C4 3.65 4 5.3 4 7 C3.01 7 2.02 7 1 7 C0.67 6.34 0.34 5.68 0 5 C-0.99 5.33 -1.98 5.66 -3 6 C-2.625 3.5625 -2.625 3.5625 -2 1 C-1.34 0.67 -0.68 0.34 0 0 Z " fill="#92C004" transform="translate(24,34)" />
<path d="M0 0 C3.60654039 2.40436026 3.85452932 3.94679607 5 8 C3.02 8 1.04 8 -1 8 C-1.04241723 5.66705225 -1.04092937 3.33297433 -1 1 C-0.67 0.67 -0.34 0.34 0 0 Z " fill="#81B607" transform="translate(64,36)" />
<path d="M0 0 C5.28 0.33 10.56 0.66 16 1 C15.67 1.66 15.34 2.32 15 3 C10.05 3 5.1 3 0 3 C0 2.01 0 1.02 0 0 Z " fill="#579970" transform="translate(45,33)" />
<path d="M0 0 C0 0.99 0 1.98 0 3 C-1.155 3.495 -1.155 3.495 -7 6 C-7.33 4.68 -7.66 3.36 -8 2 C-4.77208445 -0.1519437 -3.71599191 -0.20086443 0 0 Z " fill="#406702" transform="translate(36,47)" />
<path d="M0 0 C0.103125 0.639375 0.20625 1.27875 0.3125 1.9375 C0.539375 2.618125 0.76625 3.29875 1 4 C1.99 4.33 2.98 4.66 4 5 C4.144375 5.763125 4.28875 6.52625 4.4375 7.3125 C5 10 5 10 6 13 C5.01 13 4.02 13 3 13 C2.938125 11.9275 2.87625 10.855 2.8125 9.75 C2 6 2 6 -0.5625 3.5625 C-1.366875 3.046875 -2.17125 2.53125 -3 2 C-2.01 1.34 -1.02 0.68 0 0 Z " fill="#646742" transform="translate(75,19)" />
<path d="M0 0 C0.66 0.66 1.32 1.32 2 2 C-3.0940919 8.70459519 -3.0940919 8.70459519 -6.875 9.9375 C-7.57625 9.958125 -8.2775 9.97875 -9 10 C-8.06409496 8.8944811 -7.12620142 7.79064547 -6.1875 6.6875 C-5.66542969 6.07261719 -5.14335938 5.45773438 -4.60546875 4.82421875 C-3.12827531 3.14575321 -1.59960869 1.56117966 0 0 Z " fill="#666743" transform="translate(85,46)" />
<path d="M0 0 C5.61 0 11.22 0 17 0 C17 0.99 17 1.98 17 3 C15.35 3 13.7 3 12 3 C12 2.34 12 1.68 12 1 C8.04 1 4.08 1 0 1 C0 0.67 0 0.34 0 0 Z " fill="#2986B2" transform="translate(51,47)" />
<path d="M0 0 C2.31 0 4.62 0 7 0 C6.67 1.65 6.34 3.3 6 5 C3.03 4.67 0.06 4.34 -3 4 C-3 3.67 -3 3.34 -3 3 C-1.35 3 0.3 3 2 3 C2 2.34 2 1.68 2 1 C1.34 0.67 0.68 0.34 0 0 Z " fill="#205448" transform="translate(56,30)" />
<path d="M0 0 C0.66 0.33 1.32 0.66 2 1 C1.01 2.65 0.02 4.3 -1 6 C-0.34 6.33 0.32 6.66 1 7 C1.33 7.99 1.66 8.98 2 10 C2.66 10.66 3.32 11.32 4 12 C-0.875 11.125 -0.875 11.125 -2 10 C-2.27314815 4.26388889 -2.27314815 4.26388889 -2 2 C-1.34 1.34 -0.68 0.68 0 0 Z " fill="#B7D72B" transform="translate(20,35)" />
<path d="M0 0 C0.66 0 1.32 0 2 0 C2 2.97 2 5.94 2 9 C1.01 9 0.02 9 -1 9 C-1.09765625 2.84765625 -1.09765625 2.84765625 -1 1 C-0.67 0.67 -0.34 0.34 0 0 Z " fill="#2AB4EA" transform="translate(39,39)" />
<path d="M0 0 C0.99 0.66 1.98 1.32 3 2 C6.1875 2.125 6.1875 2.125 9 2 C5.32003497 4.45331002 3.34586828 4.39507893 -1 4 C-1.66 3.01 -2.32 2.02 -3 1 C-2.01 0.67 -1.02 0.34 0 0 Z " fill="#91C116" transform="translate(65,28)" />
<path d="M0 0 C1.60332791 -0.08121924 3.20784026 -0.13929134 4.8125 -0.1875 C5.25916016 -0.20490234 5.25916016 -0.20490234 7.51953125 -0.29296875 C10.41647515 0.04918998 11.22555028 0.75393573 13 3 C11.68 3.33 10.36 3.66 9 4 C8.67 3.01 8.34 2.02 8 1 C5.69 1.33 3.38 1.66 1 2 C0.67 1.34 0.34 0.68 0 0 Z " fill="#285D7C" transform="translate(38,20)" />
<path d="M0 0 C-0.33 0.495 -0.33 0.495 -2 3 C-6.34586828 3.39507893 -8.32003497 3.45331002 -12 1 C-7.95858806 0.36605303 -4.0934693 -0.12404452 0 0 Z " fill="#5B800C" transform="translate(41,72)" />
<path d="M0 0 C-1.98 0.33 -3.96 0.66 -6 1 C-6 1.66 -6 2.32 -6 3 C-8.64 3 -11.28 3 -14 3 C-4.91666667 -1.89102564 -4.91666667 -1.89102564 0 0 Z " fill="#83B31B" transform="translate(50,58)" />
<path d="M0 0 C3.63 0 7.26 0 11 0 C9.35 1.65 7.7 3.3 6 5 C6 3.68 6 2.36 6 1 C4.02 1 2.04 1 0 1 C0 0.67 0 0.34 0 0 Z " fill="#90BB1D" transform="translate(54,59)" />
<path d="M0 0 C-2.97 0.66 -5.94 1.32 -9 2 C-9 2.66 -9 3.32 -9 4 C-9.99 3.67 -10.98 3.34 -12 3 C-11.67 2.01 -11.34 1.02 -11 0 C-6.79405774 -0.72795155 -4.19895255 -1.04973814 0 0 Z " fill="#2B440A" transform="translate(64,22)" />
<path d="M0 0 C1.65 0 3.3 0 5 0 C4.34 1.32 3.68 2.64 3 4 C1.68 4 0.36 4 -1 4 C-0.67 2.68 -0.34 1.36 0 0 Z " fill="#7DB328" transform="translate(41,52)" />
<path d="M0 0 C2.96175123 0.61277612 4.38058783 1.25372522 7 3 C6.01 3.66 6.01 3.66 1 7 C1 4 1 4 2 1 C1.34 0.67 0.68 0.34 0 0 Z " fill="#4A771F" transform="translate(72,45)" />
<path d="M0 0 C-0.33 1.32 -0.66 2.64 -1 4 C-2.65 4 -4.3 4 -6 4 C-6 3.01 -6 2.02 -6 1 C-3 0 -3 0 0 0 Z " fill="#135873" transform="translate(74,46)" />
<path d="M0 0 C1.65 0 3.3 0 5 0 C5 0.66 5 1.32 5 2 C5.66 2 6.32 2 7 2 C7 2.66 7 3.32 7 4 C5.35 4 3.7 4 2 4 C2 3.34 2 2.68 2 2 C1.34 2 0.68 2 0 2 C0 1.34 0 0.68 0 0 Z " fill="#165A70" transform="translate(53,36)" />
<path d="M0 0 C-3.3340947 2.19097652 -6.04179141 3.43454163 -10 4 C-7.6604297 0.49064455 -4.21379901 -2.1068995 0 0 Z " fill="#476B03" transform="translate(49,71)" />
<path d="M0 0 C2.31 0 4.62 0 7 0 C7 0.66 7 1.32 7 2 C6.34 2.33 6.34 2.33 3 4 C2.01 3.34 1.02 2.68 0 2 C0 1.34 0 0.68 0 0 Z " fill="#4B6D01" transform="translate(63,55)" />
<path d="M0 0 C0.53625 0.680625 1.0725 1.36125 1.625 2.0625 C-2.23145121 2.28286864 -4.86723216 1.66605101 -8.375 0.0625 C-8.375 -0.2675 -8.375 -0.5975 -8.375 -0.9375 C-2.95961538 -2.41442308 -2.95961538 -2.41442308 0 0 Z " fill="#A9CF0D" transform="translate(73.375,25.9375)" />
<path d="M0 0 C-0.33 0.66 -0.66 1.32 -1 2 C-3.875 2.125 -3.875 2.125 -7 2 C-7.66 1.34 -8.32 0.68 -9 0 C-5.62182575 -0.84454356 -3.32534757 -1.10844919 0 0 Z " fill="#4B7321" transform="translate(49,27)" />
<path d="M0 0 C0.33 0.66 0.66 1.32 1 2 C0.0625 4.125 0.0625 4.125 -1 6 C-2.65 6 -4.3 6 -6 6 C-4 4 -2 2 0 0 Z " fill="#3F5D03" transform="translate(64,60)" />
<path d="M0 0 C0.4021875 0.0103125 0.4021875 0.0103125 2.4375 0.0625 C0.81383534 3.30982932 -2.31637839 3.76405136 -5.5625 5.0625 C-3.15007962 0.07683121 -3.15007962 0.07683121 0 0 Z " fill="#659E4D" transform="translate(47.5625,38.9375)" />
<path d="M0 0 C1.65 0 3.3 0 5 0 C5 0.99 5 1.98 5 3 C3.35 3.33 1.7 3.66 0 4 C0 2.68 0 1.36 0 0 Z " fill="#83B526" transform="translate(34,34)" />
<path d="M0 0 C3.625 -0.1875 3.625 -0.1875 7 0 C6.67 0.66 6.34 1.32 6 2 C3.35139573 2.59355614 0.70802678 2.74209269 -2 3 C-1.34 2.01 -0.68 1.02 0 0 Z " fill="#646A3C" transform="translate(59,19)" />
</svg>