<?xml version='1.0' encoding='utf-8'?>
<svg xmlns="http://www.w3.org/2000/svg" version="1.1" width="94" height="96">
<path d="M0 0 C0 0.66 0 1.32 0 2 C0.2990625 2.144375 0.2990625 2.144375 1.8125 2.875 C4 4 4 4 7 6 C7 6.66 7 7.32 7 8 C7.556875 8.226875 8.11375 8.45375 8.6875 8.6875 C11.65253447 10.3703574 13.65353689 12.53621374 16 15 C16.66 15.66 17.32 16.32 18 17 C18.66 17.66 19.32 18.32 20 19 C20.721875 19.70125 21.44375 20.4025 22.1875 21.125 C23.12956769 22.07884354 24.06613754 23.03812166 25 24 C25.7425 24.75796875 26.485 25.5159375 27.25 26.296875 C27.6521875 26.72226562 27.6521875 26.72226562 29.6875 28.875 C30.45449219 29.67679688 31.22148438 30.47859375 32.01171875 31.3046875 C34 34 34 34 34.88671875 37.47265625 C36.49920044 42.58167718 39.73625669 44.68484937 43.83203125 47.90429688 C46.7734167 50.36494742 47.9390185 51.44532788 48.3671875 55.33984375 C48.30660156 55.77876953 48.30660156 55.77876953 48 58 C45.3125 58.3125 45.3125 58.3125 42 58 C37.23038522 54.18430818 32.75234254 48.50468508 30 43 C29.13375 43.66 28.2675 44.32 27.375 45 C23.64504388 47.21034436 22.23088522 47.53487803 18 47 C6.48848711 38.72781585 -3.01992137 24.22683262 -8 11 C-8.35962481 7.02974205 -8.34185281 5.56161533 -6.25 2.125 C-4 0 -4 0 0 0 Z " fill="#CB2D08" transform="translate(28,21)" />
<path d="M0 0 C13.32464129 5.54048658 26.55284898 17.92819178 34.2734375 29.9453125 C35.04801135 33.15214692 34.91594004 35.73279982 34.2734375 38.9453125 C34.09554687 39.85539062 33.91765625 40.76546875 33.734375 41.703125 C33.58226562 42.44304688 33.43015625 43.18296875 33.2734375 43.9453125 C34.05589844 44.57179687 34.83835938 45.19828125 35.64453125 45.84375 C36.65644531 46.66101563 37.66835937 47.47828125 38.7109375 48.3203125 C39.72027344 49.13242188 40.72960937 49.94453125 41.76953125 50.78125 C44.2734375 52.9453125 44.2734375 52.9453125 45.2734375 54.9453125 C45.4609375 57.9453125 45.4609375 57.9453125 45.2734375 60.9453125 C43.2734375 62.9453125 43.2734375 62.9453125 40.4609375 63.3203125 C35.6929257 62.75936993 33.63827002 60.58570503 30.62890625 56.96875 C26.2734375 51.35866145 26.2734375 51.35866145 26.2734375 48.9453125 C25.4071875 49.4403125 24.5409375 49.9353125 23.6484375 50.4453125 C20.06514535 52.03788679 18.13345748 52.43808101 14.2734375 51.9453125 C1.35690459 46.64622208 -7.85076482 27.69690786 -13.7265625 15.9453125 C-14.3299024 12.48699306 -14.4472382 9.39087881 -13.7265625 5.9453125 C-10.39371136 1.45245603 -5.7090636 -1.24110078 0 0 Z M-11.0390625 4.8828125 C-13.05330008 8.53828071 -13.1320046 10.38205108 -12.4609375 14.421875 C-8.74522665 27.18968993 1.44076049 37.46216703 10.2734375 46.9453125 C10.799375 47.52667969 11.3253125 48.10804687 11.8671875 48.70703125 C13.2734375 49.9453125 13.2734375 49.9453125 16.0234375 50.3828125 C20.26228374 49.81219858 22.68440928 48.24229056 26.2734375 45.9453125 C26.53125 46.67234375 26.7890625 47.399375 27.0546875 48.1484375 C28.3235939 51.060415 29.80571002 53.21063966 31.7734375 55.6953125 C32.381875 56.47390625 32.9903125 57.2525 33.6171875 58.0546875 C35.2734375 59.9453125 35.2734375 59.9453125 37.2734375 60.9453125 C39.27303762 60.9853045 41.27390992 60.98878049 43.2734375 60.9453125 C43.67578125 58.3203125 43.67578125 58.3203125 43.2734375 54.9453125 C41.42231689 52.60040941 39.15706608 50.81193737 36.8359375 48.9453125 C30.46228145 43.78728527 30.46228145 43.78728527 29.56640625 39.79296875 C29.46972656 38.85324219 29.37304688 37.91351563 29.2734375 36.9453125 C27.8203125 35.00390625 27.8203125 35.00390625 26.0234375 33.3828125 C25.394375 32.79628906 24.7653125 32.20976563 24.1171875 31.60546875 C23.50875 31.05761719 22.9003125 30.50976562 22.2734375 29.9453125 C17.53659539 25.4237814 17.53659539 25.4237814 15.8984375 22.4453125 C13.96372489 19.46883157 11.83666449 18.09013825 8.91796875 16.1484375 C6.92628563 14.69133916 5.68494842 12.95114381 4.2734375 10.9453125 C3.6134375 10.9453125 2.9534375 10.9453125 2.2734375 10.9453125 C1.9434375 9.9553125 1.6134375 8.9653125 1.2734375 7.9453125 C-2.17100694 4.9453125 -2.17100694 4.9453125 -4.7265625 4.9453125 C-4.7265625 4.2853125 -4.7265625 3.6253125 -4.7265625 2.9453125 C-8.7265625 2.9453125 -8.7265625 2.9453125 -11.0390625 4.8828125 Z " fill="#6E1908" transform="translate(32.7265625,18.0546875)" />
<path d="M0 0 C0 0.66 0 1.32 0 2 C0.2990625 2.144375 0.2990625 2.144375 1.8125 2.875 C4 4 4 4 7 6 C7 6.66 7 7.32 7 8 C7.556875 8.226875 8.11375 8.45375 8.6875 8.6875 C11.65253447 10.3703574 13.65353689 12.53621374 16 15 C16.66 15.66 17.32 16.32 18 17 C18.66 17.66 19.32 18.32 20 19 C20.721875 19.70125 21.44375 20.4025 22.1875 21.125 C24.77997636 23.72560325 27.26815205 26.41895977 29.75 29.125 C30.52859375 29.97320312 31.3071875 30.82140625 32.109375 31.6953125 C34 34 34 34 35 37 C32.6875 36.8125 32.6875 36.8125 30 36 C28.95107762 34.36368108 27.95093297 32.69514137 27 31 C24.875 29.8125 24.875 29.8125 23 29 C22.67 28.34 22.34 27.68 22 27 C19.9375 26.375 19.9375 26.375 18 26 C18 25.34 18 24.68 18 24 C16.68 23.67 15.36 23.34 14 23 C14 22.34 14 21.68 14 21 C13.40832031 20.95101562 12.81664063 20.90203125 12.20703125 20.8515625 C7.80895528 20.43543133 4.03071103 19.95034405 0 18 C0.66 20.97 1.32 23.94 2 27 C-3.16441764 22.7209111 -5.93025601 17.35015071 -8 11 C-8.30541315 7.06841167 -8.32472896 5.53348329 -6.25 2.125 C-4 0 -4 0 0 0 Z " fill="#EC7455" transform="translate(28,21)" />
<path d="M0 0 C13.2424123 0.21708873 21.60844932 9.02512503 30.34765625 18.01171875 C32.49861796 20.4351145 33.65859196 22.15672842 35 25 C35.99 25.66 36.98 26.32 38 27 C38.51171875 29.3828125 38.51171875 29.3828125 38.6875 32.125 C38.75324219 33.03507812 38.81898437 33.94515625 38.88671875 34.8828125 C38.90541016 35.23214844 38.90541016 35.23214844 39 37 C36 37 36 37 34.3515625 35.42578125 C33.78179687 34.72839844 33.21203125 34.03101563 32.625 33.3125 C30.56079807 30.84329643 28.53051697 28.53051697 26.25 26.25 C24.25682785 24.25682785 22.54326109 22.35550377 21 20 C21 19.34 21 18.68 21 18 C20.443125 17.773125 19.88625 17.54625 19.3125 17.3125 C16.34162851 15.62632969 14.39177042 13.44612884 12 11 C4.70725995 4.35362998 4.70725995 4.35362998 2 3 C2 2.34 2 1.68 2 1 C1.34 0.67 0.68 0.34 0 0 Z " fill="#CB361B" transform="translate(26,20)" />
<path d="M0 0 C7.38254032 0.64759126 13.31206292 1.78888118 18.4375 7.5625 C21 10.67362924 21 10.67362924 21 13 C22.65 13.66 24.3 14.32 26 15 C25.67 15.66 25.34 16.32 25 17 C23.02 17 21.04 17 19 17 C19 16.01 19 15.02 19 14 C17.375 11.75 17.375 11.75 15 10 C11.75 10.25 11.75 10.25 9 11 C8.45627049 14.05847848 8 16.88772805 8 20 C5.69 17.69 3.38 15.38 1 13 C1.99 12.01 2.98 11.02 4 10 C3.01 9.34 2.02 8.68 1 8 C0.29947539 5.336937 0.22255182 2.75964263 0 0 Z " fill="#D13A16" transform="translate(35,45)" />
<path d="M0 0 C1.66870487 0.32297514 3.33465333 0.66013333 5 1 C5.75925781 1.14566406 6.51851562 1.29132812 7.30078125 1.44140625 C7.70490234 1.52326172 7.70490234 1.52326172 9.75 1.9375 C10.52859375 2.09089844 11.3071875 2.24429688 12.109375 2.40234375 C12.42132813 2.50095703 12.42132813 2.50095703 14 3 C14.33 3.66 14.66 4.32 15 5 C15.99 5.33 16.98 5.66 18 6 C18 6.66 18 7.32 18 8 C18.804375 8.12375 19.60875 8.2475 20.4375 8.375 C21.283125 8.58125 22.12875 8.7875 23 9 C23.33 9.66 23.66 10.32 24 11 C24.4125 11.226875 24.4125 11.226875 26.5 12.375 C29 14 29 14 29.8125 16.1875 C29.874375 16.785625 29.93625 17.38375 30 18 C31.65 18.33 33.3 18.66 35 19 C34.67 19.66 34.34 20.32 34 21 C30.65154016 20.42267934 29.24432069 19.51363917 27 17 C26.113125 16.154375 25.22625 15.30875 24.3125 14.4375 C22 12 22 12 22 10 C21.54625 9.9278125 21.54625 9.9278125 19.25 9.5625 C16 9 16 9 13.8125 8.4375 C12 8 12 8 9 8 C9 7.34 9 6.68 9 6 C8.34 6 7.68 6 7 6 C7.33 6.94875 7.66 7.8975 8 8.875 C9 12 9 12 9 14 C9.99 14.66 10.98 15.32 12 16 C11.34 16.33 11.34 16.33 8 18 C2.62667831 12.97741732 0.23034267 9.34554501 -0.02734375 1.90625 C-0.01832031 1.2771875 -0.00929688 0.648125 0 0 Z " fill="#D94B26" transform="translate(28,39)" />
<path d="M0 0 C1.32 0 2.64 0 4 0 C4 0.66 4 1.32 4 2 C4.2990625 2.144375 4.2990625 2.144375 5.8125 2.875 C8 4 8 4 11 6 C11 6.66 11 7.32 11 8 C11.556875 8.226875 12.11375 8.45375 12.6875 8.6875 C16.96311877 11.11420254 20.13916819 14.43250373 22 19 C21.4740625 18.8453125 21.4740625 18.8453125 18.8125 18.0625 C15 17 15 17 12.25 16.5 C10 16 10 16 7 14 C7 13.34 7 12.68 7 12 C6.360625 11.731875 5.72125 11.46375 5.0625 11.1875 C3 10 3 10 2 7 C-0.0625 6.3125 -0.0625 6.3125 -2 6 C-1.125 1.125 -1.125 1.125 0 0 Z " fill="#F2916F" transform="translate(24,21)" />
<path d="M0 0 C4.26672384 0.47408043 6.2455048 2.88307122 9 6 C9.68177416 7.32567199 10.35191436 8.65753688 11 10 C11.99 10.66 12.98 11.32 14 12 C14.51171875 14.3828125 14.51171875 14.3828125 14.6875 17.125 C14.75324219 18.03507812 14.81898437 18.94515625 14.88671875 19.8828125 C14.92410156 20.58148438 14.96148437 21.28015625 15 22 C12 22 12 22 10.3515625 20.42578125 C9.78179687 19.72839844 9.21203125 19.03101562 8.625 18.3125 C6.53356124 15.78682184 4.58566109 13.63069793 2.125 11.4375 C-0.59362688 8.31907505 -0.84605027 6.07966782 -1 2 C-0.67 1.34 -0.34 0.68 0 0 Z " fill="#C52509" transform="translate(50,35)" />
<path d="M0 0 C3.57177728 1.56891152 6.29859521 3.71282747 9.25 6.25 C9.69601563 6.62382813 9.69601563 6.62382813 11.953125 8.515625 C14 11 14 11 14.296875 14.296875 C14.19890625 15.18890625 14.1009375 16.0809375 14 17 C11.3125 17.3125 11.3125 17.3125 8 17 C5.4375 14.9375 5.4375 14.9375 3 12 C2.50757812 11.43410156 2.01515625 10.86820313 1.5078125 10.28515625 C0.11208731 8.56124703 -1.05726402 7.00903444 -2 5 C-1.3125 2.0625 -1.3125 2.0625 0 0 Z " fill="#E5A662" transform="translate(62,62)" />
<path d="M0 0 C0.66 0.33 1.32 0.66 2 1 C1.7421875 1.2371875 1.7421875 1.2371875 0.4375 2.4375 C-1.80902899 6.44218211 -1.18644572 9.65853662 0 14 C5.29829408 26.31543274 14.61237614 36.61237614 24 46 C28.09797257 46.55881444 29.76872323 46.1370529 33.375 44 C34.24125 43.34 35.1075 42.68 36 42 C36.33 42.165 36.33 42.165 38 43 C37.835 43.33 37.835 43.33 37 45 C36.34 45 35.68 45 35 45 C35 45.66 35 46.32 35 47 C31.58251778 49.10306598 28.97914475 49.40603518 25 49 C12.08346709 43.70090958 2.87579768 24.75159536 -3 13 C-3.14640501 11.35857459 -3.22096589 9.7101859 -3.25 8.0625 C-3.27578125 7.18722656 -3.3015625 6.31195312 -3.328125 5.41015625 C-2.94290357 2.5806131 -2.19305243 1.74867075 0 0 Z " fill="#6B1709" transform="translate(22,21)" />
<path d="M0 0 C0.45375 0.495 0.9075 0.99 1.375 1.5 C3 3 3 3 5 3 C5 3.66 5 4.32 5 5 C5.66 5 6.32 5 7 5 C7.42925781 5.47050781 7.85851563 5.94101562 8.30078125 6.42578125 C10.51062912 8.47306559 12.24192566 8.69019524 15.1875 9.1875 C16.08855469 9.34605469 16.98960938 9.50460938 17.91796875 9.66796875 C18.26150391 9.72275391 18.26150391 9.72275391 20 10 C20 10.66 20 11.32 20 12 C20.66 12 21.32 12 22 12 C22 12.66 22 13.32 22 14 C22.89074219 13.90074219 23.78148438 13.80148438 24.69921875 13.69921875 C29.04660678 14.09537127 30.04794534 15.52046642 32.8125 18.8125 C33.58207031 19.70582031 34.35164063 20.59914063 35.14453125 21.51953125 C37 24 37 24 38 27 C35.6875 26.8125 35.6875 26.8125 33 26 C31.95107762 24.36368108 30.95093297 22.69514137 30 21 C27.875 19.8125 27.875 19.8125 26 19 C25.67 18.34 25.34 17.68 25 17 C22.9375 16.375 22.9375 16.375 21 16 C21 15.34 21 14.68 21 14 C19.68 13.67 18.36 13.34 17 13 C17 12.34 17 11.68 17 11 C16.71576172 10.98130859 16.71576172 10.98130859 15.27734375 10.88671875 C9.96189346 10.4341512 5.56897706 9.85561066 1 7 C0.0625 3.3125 0.0625 3.3125 0 0 Z " fill="#E86440" transform="translate(25,31)" />
<path d="M0 0 C0.721875 0.144375 1.44375 0.28875 2.1875 0.4375 C2.6515625 0.5303125 2.6515625 0.5303125 5 1 C6.66666667 1.33333333 8.33333333 1.66666667 10 2 C9.01 2.66 8.02 3.32 7 4 C6.60492107 8.34586828 6.54668998 10.32003497 9 14 C9.99 14.66 10.98 15.32 12 16 C11.34 16.33 11.34 16.33 8 18 C2.62667831 12.97741732 0.23034267 9.34554501 -0.02734375 1.90625 C-0.01832031 1.2771875 -0.00929688 0.648125 0 0 Z " fill="#E04E2A" transform="translate(28,39)" />
<path d="M0 0 C3.47064731 1.5532967 6.22929462 3.6229487 9.1875 6 C10.06792969 6.70125 10.94835937 7.4025 11.85546875 8.125 C14 10 14 10 15 12 C15.1875 15 15.1875 15 15 18 C13 20 13 20 10.1875 20.375 C5.4194882 19.81405743 3.36483252 17.64039253 0.35546875 14.0234375 C-4 8.41334895 -4 8.41334895 -4 6 C-4.66 5.67 -5.32 5.34 -6 5 C-4.203125 5.19140625 -4.203125 5.19140625 -2 6 C-0.359375 8.21484375 -0.359375 8.21484375 1.25 10.9375 C3.65239881 14.59060535 5.10934888 16.60616089 9.4375 17.625 C10.613125 17.74875 11.78875 17.8725 13 18 C11.79220049 12.10652047 10.10767664 9.59947005 5.375 5.625 C3.5748474 4.09325062 1.78066556 2.55436023 0 1 C0 0.67 0 0.34 0 0 Z " fill="#612D10" transform="translate(63,61)" />
<path d="M0 0 C3.37462715 0.54723683 5.08235 1.0549 8 3 C8 3.66 8 4.32 8 5 C8.61875 5.2475 9.2375 5.495 9.875 5.75 C12.37480203 7.22047178 12.83316022 8.41403076 14 11 C12.22604492 10.57533503 10.45589369 10.1347591 8.6875 9.6875 C7.70136719 9.44386719 6.71523438 9.20023438 5.69921875 8.94921875 C2.9705447 7.98964162 1.70541283 7.30461193 0 5 C-0.1875 2.3125 -0.1875 2.3125 0 0 Z " fill="#FAAD8C" transform="translate(27,24)" />
<path d="M0 0 C2.35964273 0.40683495 3.85934088 0.89814339 5.8125 2.3125 C6.0084375 2.5909375 6.0084375 2.5909375 7 4 C6.68770276 5.33841672 6.35169068 6.67139075 6 8 C6.9375 10.75 6.9375 10.75 8 13 C7.01 13.33 6.02 13.66 5 14 C1.66988653 11.18221168 0.14734451 9.62095188 -0.875 5.3125 C-1 2 -1 2 0 0 Z " fill="#C52D12" transform="translate(50,35)" />
<path d="M0 0 C1.08518111 0.91447846 2.16804738 1.83170407 3.25 2.75 C3.89324219 3.29398438 4.53648438 3.83796875 5.19921875 4.3984375 C7 6 7 6 9.0625 8.375 C11 10 11 10 13.875 10.5 C17.71739911 9.88521614 19.93292923 8.33681582 23 6 C23.66 6.33 24.32 6.66 25 7 C24.67 7.66 24.34 8.32 24 9 C23.34 9 22.68 9 22 9 C22 9.66 22 10.32 22 11 C18.58251778 13.10306598 15.97914475 13.40603518 12 13 C6.8752947 10.8975568 3.23180311 6.38668376 0 2 C0 1.34 0 0.68 0 0 Z " fill="#700F05" transform="translate(35,57)" />
<path d="M0 0 C5.37992836 0.33990833 9.53273547 0.68557793 14 4 C13 6 12 8 11 10 C9.49428343 8.88266271 7.99555708 7.75589965 6.5 6.625 C5.6646875 5.99851562 4.829375 5.37203125 3.96875 4.7265625 C3.3190625 4.15679687 2.669375 3.58703125 2 3 C2 2.34 2 1.68 2 1 C1.34 0.67 0.68 0.34 0 0 Z " fill="#D75639" transform="translate(26,20)" />
<path d="M0 0 C0.99 0 1.98 0 3 0 C3.268125 0.99 3.53625 1.98 3.8125 3 C4.6131819 5.848803 5.59220485 8.56421354 6.6875 11.3125 C7.120625 12.529375 7.55375 13.74625 8 15 C7.67 15.66 7.34 16.32 7 17 C0.17156208 7.33711615 0.17156208 7.33711615 -1 2 C-0.67 1.34 -0.34 0.68 0 0 Z " fill="#ED6647" transform="translate(22,31)" />
<path d="M0 0 C1.9375 0.6875 1.9375 0.6875 3.9375 1.6875 C3.6075 4.6575 3.2775 7.6275 2.9375 10.6875 C0.5 9.5 0.5 9.5 -2.0625 7.6875 C-2.75 5.0625 -2.75 5.0625 -3.0625 2.6875 C-3.7225 2.3575 -4.3825 2.0275 -5.0625 1.6875 C-2.0625 -0.3125 -2.0625 -0.3125 0 0 Z " fill="#D54328" transform="translate(41.0625,25.3125)" />
<path d="M0 0 C2 3 2 3 2 5 C2.66 5 3.32 5 4 5 C4.33 5.99 4.66 6.98 5 8 C6.87239624 10.127723 8.60277126 11.40184751 11 13 C10.34 13.33 10.34 13.33 7 15 C0.32017937 8.43946188 0.32017937 8.43946188 -0.46484375 4.91015625 C-0.4375 3 -0.4375 3 0 0 Z " fill="#DD4B30" transform="translate(29,42)" />
<path d="M0 0 C1.32 0.66 2.64 1.32 4 2 C3.67 4.97 3.34 7.94 3 11 C0.47411298 8.63707344 -0.88820837 7.33537489 -2 4 C-1.0625 1.8125 -1.0625 1.8125 0 0 Z " fill="#DB8A4C" transform="translate(62,62)" />
<path d="M0 0 C2.4375 0.875 2.4375 0.875 5 3 C5.75964864 6.3221254 5.92981522 9.59922821 6 13 C0 5.8 0 5.8 0 0 Z " fill="#B91C03" transform="translate(59,44)" />
<path d="M0 0 C0.495 0.33 0.495 0.33 3 2 C2.67 2.33 2.34 2.66 2 3 C2.763125 3 3.52625 3 4.3125 3 C6.20833333 3 8.10416667 3 10 3 C9.34 4.65 8.68 6.3 8 8 C7.34 8 6.68 8 6 8 C5.67 7.34 5.34 6.68 5 6 C4.01 6.33 3.02 6.66 2 7 C0.4375 4.625 0.4375 4.625 -1 2 C-0.67 1.34 -0.34 0.68 0 0 Z " fill="#B32910" transform="translate(53,58)" />
<path d="M0 0 C0.33 0.99 0.66 1.98 1 3 C3.0625 4.1875 3.0625 4.1875 5 5 C4.34 5.66 3.68 6.32 3 7 C2.39671875 6.59007812 1.7934375 6.18015625 1.171875 5.7578125 C0.37265625 5.21898437 -0.4265625 4.68015625 -1.25 4.125 C-2.03890625 3.59132813 -2.8278125 3.05765625 -3.640625 2.5078125 C-5.71555692 1.18177985 -7.77614972 0.05071825 -10 -1 C-3.375 -2.25 -3.375 -2.25 0 0 Z " fill="#7E5C48" transform="translate(41,19)" />
<path d="M0 0 C0.66 0.33 1.32 0.66 2 1 C1.67 1.99 1.34 2.98 1 4 C-1.70879335 5.35439668 -4.00933268 5.06501451 -7 5 C-7.66 3.68 -8.32 2.36 -9 1 C-8.01 1.33 -7.02 1.66 -6 2 C-3.99594773 1.34561559 -1.99571323 0.67939174 0 0 Z " fill="#C92511" transform="translate(53,63)" />
<path d="M0 0 C5.96351455 1.27789598 8.48417174 4.33716394 12 9 C11.67 9.165 11.67 9.165 10 10 C7 9 7 9 5.5625 6.5625 C3.90447019 3.84333111 2.91563061 3.10592885 0 2 C0 1.34 0 0.68 0 0 Z " fill="#EB5D3A" transform="translate(51,48)" />
<path d="M0 0 C0.33 0.66 0.66 1.32 1 2 C2.65 1.67 4.3 1.34 6 1 C7.32 2.98 8.64 4.96 10 7 C9.67 7.66 9.34 8.32 9 9 C8.01 8.67 7.02 8.34 6 8 C6 7.34 6 6.68 6 6 C5.34 6 4.68 6 4 6 C4 5.34 4 4.68 4 4 C2.68 4 1.36 4 0 4 C0 2.68 0 1.36 0 0 Z " fill="#EB7B56" transform="translate(41,37)" />
<path d="M0 0 C2 0.25 2 0.25 4 1 C4.33 1.99 4.66 2.98 5 4 C4.01 4.33 3.02 4.66 2 5 C2 4.34 2 3.68 2 3 C1.34 3 0.68 3 0 3 C0.66 4.98 1.32 6.96 2 9 C1.01 8.67 0.02 8.34 -1 8 C-1.04241723 5.66705225 -1.04092937 3.33297433 -1 1 C-0.67 0.67 -0.34 0.34 0 0 Z " fill="#DA4320" transform="translate(35,42)" />
<path d="M0 0 C2.74277578 3.19990508 4.6302836 6.00499382 6 10 C5.34 10.66 4.68 11.32 4 12 C3 11 3 11 2.9375 8.4375 C2.958125 7.633125 2.97875 6.82875 3 6 C2.01 6 1.02 6 0 6 C0 4.02 0 2.04 0 0 Z " fill="#7B5943" transform="translate(22,40)" />
<path d="M0 0 C4.44941586 -0.39259552 7.22346468 0.6501558 11 3 C12.375 5.1875 12.375 5.1875 13 7 C11.0625 6.625 11.0625 6.625 9 6 C8.67 5.34 8.34 4.68 8 4 C6.15234375 3.1484375 6.15234375 3.1484375 3.9375 2.375 C3.20402344 2.11460938 2.47054687 1.85421875 1.71484375 1.5859375 C1.14894531 1.39257812 0.58304688 1.19921875 0 1 C0 0.67 0 0.34 0 0 Z " fill="#F49E7A" transform="translate(33,33)" />
<path d="M0 0 C0.639375 0.33 1.27875 0.66 1.9375 1 C4 2 4 2 5 2 C5 3.98 5 5.96 5 8 C3.68 8 2.36 8 1 8 C-0.35439668 5.29120665 -0.06501451 2.99066732 0 0 Z " fill="#725D43" transform="translate(14,25)" />
<path d="M0 0 C2.875 -0.125 2.875 -0.125 6 0 C8 2 8 2 8 6 C6 5 4 4 2 3 C2 2.34 2 1.68 2 1 C1.34 0.67 0.68 0.34 0 0 Z " fill="#E46F55" transform="translate(26,20)" />
<path d="M0 0 C0.66 0.33 1.32 0.66 2 1 C2.0270043 2.45823212 2.04639787 3.91660675 2.0625 5.375 C2.07410156 6.18710937 2.08570312 6.99921875 2.09765625 7.8359375 C2 10 2 10 1 12 C0.01 12 -0.98 12 -2 12 C-1.67 10.68 -1.34 9.36 -1 8 C-0.34 8 0.32 8 1 8 C0.67 5.36 0.34 2.72 0 0 Z " fill="#841006" transform="translate(64,49)" />
<path d="M0 0 C2 3 2 3 2 5 C2.66 5 3.32 5 4 5 C4.33 6.98 4.66 8.96 5 11 C2 10 2 10 0.8125 8.3125 C-0.19313465 5.45030907 -0.13689641 3.01172092 0 0 Z " fill="#DA553C" transform="translate(29,42)" />
<path d="M0 0 C0.495 0.33 0.495 0.33 3 2 C3.1875 5.125 3.1875 5.125 3 8 C1.68 7.01 0.36 6.02 -1 5 C-0.67 3.35 -0.34 1.7 0 0 Z " fill="#7A5B49" transform="translate(66,57)" />
<path d="M0 0 C0.825 0.165 0.825 0.165 5 1 C5.33 2.32 5.66 3.64 6 5 C4.35 5 2.7 5 1 5 C0.67 3.35 0.34 1.7 0 0 Z " fill="#FEC3A9" transform="translate(30,26)" />
<path d="M0 0 C1.32 0 2.64 0 4 0 C4.33 0.66 4.66 1.32 5 2 C5.99 2.33 6.98 2.66 8 3 C7.67 3.66 7.34 4.32 7 5 C5.35 5 3.7 5 2 5 C1.34 3.35 0.68 1.7 0 0 Z " fill="#DA532F" transform="translate(38,42)" />
<path d="M0 0 C2.0245738 1.93254772 3.42105792 3.63158688 5 6 C4.625 8.1875 4.625 8.1875 4 10 C0 3.375 0 3.375 0 0 Z " fill="#E47059" transform="translate(22,34)" />
<path d="M0 0 C1.65 1.65 3.3 3.3 5 5 C2.16032769 5 -0.23735711 4.59732819 -3 4 C-3 3.34 -3 2.68 -3 2 C-2.01 2 -1.02 2 0 2 C0 1.34 0 0.68 0 0 Z " fill="#FBB594" transform="translate(36,29)" />
<path d="M0 0 C0.825 0.165 0.825 0.165 5 1 C5.33 2.65 5.66 4.3 6 6 C1.125 3.375 1.125 3.375 0 0 Z " fill="#CE5735" transform="translate(38,30)" />
</svg>