<?xml version='1.0' encoding='utf-8'?>
<svg xmlns="http://www.w3.org/2000/svg" version="1.1" width="103" height="97">
<path d="M0 0 C9.97108668 -0.4959441 19.08083683 2.15362007 26.921875 8.4765625 C33.54734372 14.87791389 36.5247326 22.20823638 36.734375 31.2890625 C36.62759995 39.9475481 34.79104362 47.05988498 28.921875 53.6015625 C20.31004985 61.49979008 8.94119156 63.80048803 -2.35546875 63.56640625 C-11.00151998 63.0969991 -18.65479976 59.17276143 -24.890625 53.26171875 C-31.81183336 44.91461329 -33.43802945 35.77881849 -32.578125 25.2265625 C-30.90460072 18.58287272 -26.78151473 12.65729111 -21.578125 8.2265625 C-20.588125 8.2265625 -19.598125 8.2265625 -18.578125 8.2265625 C-18.248125 7.2365625 -17.918125 6.2465625 -17.578125 5.2265625 C-12.05522316 1.85468559 -6.3623196 0.55911293 0 0 Z " fill="#B16C25" transform="translate(49.578125,16.7734375)" />
<path d="M0 0 C1.32 0 2.64 0 4 0 C4.33 0.99 4.66 1.98 5 3 C6.0725 2.95875 7.145 2.9175 8.25 2.875 C12 3 12 3 14.125 4.125 C16 5 16 5 18.75 4.125 C19.12125 3.939375 19.12125 3.939375 21 3 C20.67 4.65 20.34 6.3 20 8 C20.99 8.66 21.98 9.32 23 10 C23 10.66 23 11.32 23 12 C24.32 12.33 25.64 12.66 27 13 C27 13.99 27 14.98 27 16 C26.34 16.66 25.68 17.32 25 18 C24.67261988 19.65648747 24.408909 21.32605062 24.1875 23 C23.69140625 25.7265625 23.69140625 25.7265625 23 28 C20.625 29.375 20.625 29.375 18 30 C16.64691687 31.31328657 15.31129922 32.64499081 14 34 C8.03838685 35.98720438 1.73748124 35.58186656 -4 33 C-4.33 32.34 -4.66 31.68 -5 31 C-6.65 31.33 -8.3 31.66 -10 32 C-9.34 32.66 -8.68 33.32 -8 34 C-8 34.99 -8 35.98 -8 37 C-7.505 36.835 -7.505 36.835 -5 36 C-2.48301368 37.07254877 -0.33194455 38.54803452 2 40 C2 40.66 2 41.32 2 42 C1.175 42.165 1.175 42.165 -3 43 C-3 44.65 -3 46.3 -3 48 C-2.48759766 48.09667969 -2.48759766 48.09667969 0.10546875 48.5859375 C1.46619601 48.84869863 2.82687033 49.11173398 4.1875 49.375 C4.52426758 49.43816406 4.52426758 49.43816406 6.22851562 49.7578125 C10.0141239 50.49646777 13.47612869 51.42623223 17 53 C10.73170061 57.97140986 3.74925873 57.75202325 -3.94042969 57.26513672 C-12.15625644 56.2074805 -18.61356051 51.18970537 -23.79296875 45.02734375 C-25.18101352 42.69596759 -25.61585956 40.67047028 -26 38 C-25.67 38.66 -25.34 39.32 -25 40 C-24.34 39.835 -24.34 39.835 -21 39 C-21.309375 37.989375 -21.61875 36.97875 -21.9375 35.9375 C-22.97647919 32.3268631 -23.54311181 28.73125353 -24 25 C-22.02 24.67 -20.04 24.34 -18 24 C-18 24.99 -18 25.98 -18 27 C-17.01 27 -16.02 27 -15 27 C-15 27.66 -15 28.32 -15 29 C-14.01 28.67 -13.02 28.34 -12 28 C-12 26.68 -12 25.36 -12 24 C-11.63860737 20.60290929 -11.22681941 18.37198383 -9.4375 15.4375 C-7.8177108 12.69090093 -7.73164838 11.13076895 -8 8 C-7.01 7.67 -6.02 7.34 -5 7 C-4.67 8.32 -4.34 9.64 -4 11 C-3.34 9.35 -2.68 7.7 -2 6 C-1.34 6 -0.68 6 0 6 C0 4.02 0 2.04 0 0 Z " fill="#CA8630" transform="translate(46,22)" />
<path d="M0 0 C0 0.99 0 1.98 0 3 C0.66 3 1.32 3 2 3 C2 3.99 2 4.98 2 6 C2.639375 6.28875 3.27875 6.5775 3.9375 6.875 C6 8 6 8 7 10 C7.99 10 8.98 10 10 10 C10 10.99 10 11.98 10 13 C10.99 12.67 11.98 12.34 13 12 C15.51698632 13.07254877 17.66805545 14.54803452 20 16 C20 16.66 20 17.32 20 18 C18.35 18.33 16.7 18.66 15 19 C15 20.65 15 22.3 15 24 C15.51240234 24.09667969 15.51240234 24.09667969 18.10546875 24.5859375 C19.46619601 24.84869863 20.82687033 25.11173398 22.1875 25.375 C22.52426758 25.43816406 22.52426758 25.43816406 24.22851562 25.7578125 C28.0141239 26.49646777 31.47612869 27.42623223 35 29 C28.73170061 33.97140986 21.74925873 33.75202325 14.05957031 33.26513672 C5.84374356 32.2074805 -0.61356051 27.18970537 -5.79296875 21.02734375 C-7.18101352 18.69596759 -7.61585956 16.67047028 -8 14 C-7.67 14.66 -7.34 15.32 -7 16 C-5.68 15.67 -4.36 15.34 -3 15 C-3.309375 13.989375 -3.61875 12.97875 -3.9375 11.9375 C-4.97647919 8.3268631 -5.54311181 4.73125353 -6 1 C-3.92446352 0.4465236 -2.15634036 0 0 0 Z " fill="#D3A06E" transform="translate(28,46)" />
<path d="M0 0 C1.81325551 0.11351517 3.62563357 0.24112961 5.4375 0.375 C5.94216797 0.40980469 5.94216797 0.40980469 8.49609375 0.5859375 C9.32238281 0.72257812 10.14867188 0.85921875 11 1 C11.33 1.66 11.66 2.32 12 3 C13.99680259 3.83821823 16.02644999 4.46575091 18.08984375 5.12109375 C20 6 20 6 22 9 C22 9.99 22 10.98 22 12 C23.65 11.34 25.3 10.68 27 10 C27 11.32 27 12.64 27 14 C26.34 14.33 25.68 14.66 25 15 C25.99 16.32 26.98 17.64 28 19 C27.34 19 26.68 19 26 19 C25.67 21.31 25.34 23.62 25 26 C25.99 26 26.98 26 28 26 C27.835 25.01 27.835 25.01 27 20 C27.99 20.33 28.98 20.66 30 21 C30.165 22.155 30.165 22.155 31 28 C30.01 28.33 29.02 28.66 28 29 C27.67 29.165 27.67 29.165 26 30 C26.66 31.98 27.32 33.96 28 36 C26.375 36.6875 26.375 36.6875 24 37 C20.75 35.5625 20.75 35.5625 18 34 C18.33 34.99 18.66 35.98 19 37 C20.65 37.33 22.3 37.66 24 38 C21 40 21 40 19 40 C18.67 40.99 18.34 41.98 18 43 C16 40 16 40 16 38 C15.67 38.165 15.67 38.165 14 39 C13.62690101 40.65821773 13.29299023 42.32577014 13 44 C12.67 44.33 12.34 44.66 12 45 C11.63837971 46.32594105 11.30271961 47.65938457 11 49 C10.67 48.34 10.34 47.68 10 47 C8.01178687 46.60235737 6.00875442 46.27571139 4 46 C3.6390625 45.9071875 3.6390625 45.9071875 1.8125 45.4375 C0 45 0 45 -3 45 C-3 44.34 -3 43.68 -3 43 C-9.75 40 -9.75 40 -12 40 C-12.165 39.505 -12.165 39.505 -13 37 C-13.66 36.34 -14.32 35.68 -15 35 C-13.26171875 33.8828125 -13.26171875 33.8828125 -11 33 C-8.95703125 33.6796875 -8.95703125 33.6796875 -6.8125 34.875 C-2.02041918 37.21972488 1.74685559 37.48961346 7 37 C7.969375 36.938125 8.93875 36.87625 9.9375 36.8125 C12 36 12 36 13.3125 33.4375 C13.539375 32.633125 13.76625 31.82875 14 31 C15.65 31 17.3 31 19 31 C19.19477739 29.37585622 19.38059458 27.75063577 19.5625 26.125 C19.66691406 25.22007813 19.77132812 24.31515625 19.87890625 23.3828125 C20 21 20 21 19 19 C20.32 19 21.64 19 23 19 C22.835 18.505 22.835 18.505 22 16 C21.01 15.67 20.02 15.34 19 15 C18.835 14.67 18.835 14.67 18 13 C17.01 12.34 16.02 11.68 15 11 C15.66 9.35 16.32 7.7 17 6 C12.125 7.75 12.125 7.75 11 10 C10.67 9.505 10.34 9.01 10 8.5 C6.82427253 6.11820439 3.89753934 6.80831774 0 7 C0 4.69 0 2.38 0 0 Z " fill="#A04A09" transform="translate(50,19)" />
<path d="M0 0 C0 0.33 0 0.66 0 1 C1.98 1.66 3.96 2.32 6 3 C6 3.66 6 4.32 6 5 C9.55672853 4.56625262 12.31228282 3.86539533 15.625 2.4375 C19 1 19 1 23 1 C21.18297872 9.17659574 21.18297872 9.17659574 17.828125 11.51171875 C17.40273437 11.70572266 17.40273437 11.70572266 15.25 12.6875 C14.40953125 13.08324219 13.5690625 13.47898437 12.703125 13.88671875 C6.71979829 16.35095012 2.03496455 17.27568633 -4.375 17.125 C-4.74302734 17.12048828 -4.74302734 17.12048828 -6.60546875 17.09765625 C-8.4037888 17.07430144 -10.20193911 17.03843836 -12 17 C-12 16.67 -12 16.34 -12 16 C-11.55978516 15.97550781 -11.55978516 15.97550781 -9.33203125 15.8515625 C-8.17058594 15.77679688 -7.00914063 15.70203125 -5.8125 15.625 C-5.23822266 15.59019531 -5.23822266 15.59019531 -2.33203125 15.4140625 C0.79959117 15.02490426 3.15285809 14.3190149 6 13 C3.03222891 11.02148594 1.54217187 10.58164628 -1.875 10 C-5.46286173 9.3390781 -8.67317206 8.55251971 -12 7 C-12 5.35 -12 3.7 -12 2 C-7.8803623 0.70756464 -4.33168317 -0.26252625 0 0 Z " fill="#C07C31" transform="translate(55,63)" />
<path d="M0 0 C-0.33 1.65 -0.66 3.3 -1 5 C-0.01 5.66 0.98 6.32 2 7 C2 7.66 2 8.32 2 9 C3.32 9.33 4.64 9.66 6 10 C6 10.99 6 11.98 6 13 C4.68 12.67 3.36 12.34 2 12 C1.9175 13.2375 1.835 14.475 1.75 15.75 C1.36472925 18.89916961 1.07691917 19.90074946 -0.9375 22.5 C-3 24 -3 24 -5 24 C-5.26554687 23.36191406 -5.53109375 22.72382812 -5.8046875 22.06640625 C-6.15789063 21.24011719 -6.51109375 20.41382812 -6.875 19.5625 C-7.22304688 18.73878906 -7.57109375 17.91507813 -7.9296875 17.06640625 C-9 15 -9 15 -11 14 C-16.11606253 13.7953575 -20.94914839 14.29110855 -26 15 C-25.3125 13.0625 -25.3125 13.0625 -24 11 C-21.375 10.25 -21.375 10.25 -19 10 C-19 9.34 -19 8.68 -19 8 C-17.71211992 7.46987262 -16.41953322 6.9511671 -15.125 6.4375 C-14.40570313 6.14746094 -13.68640625 5.85742188 -12.9453125 5.55859375 C-11 5 -11 5 -9 6 C-9 5.34 -9 4.68 -9 4 C-9.66 4 -10.32 4 -11 4 C-11 3.34 -11 2.68 -11 2 C-7.25 0.875 -7.25 0.875 -5 2 C-2 0 -2 0 0 0 Z " fill="#D79E59" transform="translate(67,25)" />
<path d="M0 0 C0.825 0.165 0.825 0.165 5 1 C4.01 1.33 3.02 1.66 2 2 C2.1134375 2.3815625 2.1134375 2.3815625 2.6875 4.3125 C2.790625 5.199375 2.89375 6.08625 3 7 C1.6875 8.5 1.6875 8.5 0 10 C-1.1875 12.6875 -1.1875 12.6875 -2 15 C-2.66 14.67 -3.32 14.34 -4 14 C-3.67 12.68 -3.34 11.36 -3 10 C-3.33 10.165 -3.33 10.165 -5 11 C-4.938125 11.70125 -4.87625 12.4025 -4.8125 13.125 C-5.04363255 16.6690325 -6.3942264 18.85268374 -8 22 C-8.98694865 26.03004031 -9.06177364 28.98885515 -8 33 C-9.65 32.67 -11.3 32.34 -13 32 C-14.05774062 27.98058564 -14.97570103 24.19135439 -15.5 20.0625 C-15.665 19.051875 -15.83 18.04125 -16 17 C-16.66 16.67 -17.32 16.34 -18 16 C-18.66 17.32 -19.32 18.64 -20 20 C-20 19.34 -20 18.68 -20 18 C-20.66 18 -21.32 18 -22 18 C-21.5235009 13.71150812 -19.27412061 11.6335318 -16 9 C-12.1875 8.1875 -12.1875 8.1875 -9 8 C-8.67 6.35 -8.34 4.7 -8 3 C-6.35 3.33 -4.7 3.66 -3 4 C-3 3.34 -3 2.68 -3 2 C-2.01 2 -1.02 2 0 2 C0 1.34 0 0.68 0 0 Z " fill="#A8550C" transform="translate(44,19)" />
<path d="M0 0 C1.32 0.33 2.64 0.66 4 1 C3.67 2.65 3.34 4.3 3 6 C2.39671875 6.06316406 1.7934375 6.12632813 1.171875 6.19140625 C-5.27823822 7.17973005 -5.27823822 7.17973005 -7.48828125 9.69140625 C-8.5625 11.625 -8.5625 11.625 -10 15 C-9.01 15 -8.02 15 -7 15 C-6.67 14.34 -6.34 13.68 -6 13 C-5.01 13.33 -4.02 13.66 -3 14 C-2.34 17.96 -1.68 21.92 -1 26 C-2.65 26.66 -4.3 27.32 -6 28 C-5.34 26.68 -4.68 25.36 -4 24 C-5.98 24.33 -7.96 24.66 -10 25 C-10 25.66 -10 26.32 -10 27 C-9.34 27.33 -8.68 27.66 -8 28 C-7.71080072 29.99226169 -7.42735449 31.98722182 -7.24609375 33.9921875 C-7 36 -7 36 -6 39 C-6.66 39.66 -7.32 40.32 -8 41 C-10.375 40.375 -10.375 40.375 -13 39 C-16.13059792 31.61307545 -16.4669435 22.67659637 -13.4375 15.1875 C-11.07217549 10.62580273 -7.92266718 6.34018296 -4 3 C-3.01 3 -2.02 3 -1 3 C-0.67 2.01 -0.34 1.02 0 0 Z " fill="#B97936" transform="translate(32,22)" />
<path d="M0 0 C2.40656544 2.33136027 2.92965604 4.02172817 3.16796875 7.3359375 C3.18556691 9.56738432 3.13101332 11.77277348 3 14 C-1.5576696 16.59839554 -5.86324944 16.94396641 -11 16 C-13.73431069 14.33521615 -15.86541975 12.37489723 -18 10 C-17.875 7.75 -17.875 7.75 -17 5 C-11.73276512 0.87781618 -6.66831537 -1.18084751 0 0 Z " fill="#72654C" transform="translate(58,39)" />
<path d="M0 0 C-1 2 -1 2 -3.1875 3.125 C-8.92340248 6.94893498 -12.21438263 12.40885018 -14 19 C-15.09648737 29.04688428 -13.54469948 37.55925337 -7.5 45.75 C-2.27698442 51.41609916 6.69517509 55.6471455 14.3359375 56.2734375 C25.79166686 56.68359148 35.72856752 55.05086581 44.6875 47.25 C45.28949219 46.65703125 45.89148438 46.0640625 46.51171875 45.453125 C48 44 48 44 50 43 C46.82596222 50.14549393 40.77599848 53.96853065 33.75 56.9375 C23.26502755 60.62239205 11.97921614 59.95274529 1.75 55.625 C0.8425 55.08875 -0.065 54.5525 -1 54 C-1.4846875 53.7421875 -1.4846875 53.7421875 -3.9375 52.4375 C-10.63642292 47.10570421 -15.40409929 39.44376558 -17 31 C-17.34185514 27.6145314 -17.27435703 24.38881744 -17 21 C-16.93039063 20.08863281 -16.86078125 19.17726563 -16.7890625 18.23828125 C-15.88522612 11.03771812 -13.33414844 5.97927786 -8 1 C-2.95238095 -1.47619048 -2.95238095 -1.47619048 0 0 Z " fill="#664417" transform="translate(32,23)" />
<path d="M0 0 C1.9453125 0.77734375 1.9453125 0.77734375 4.125 1.9375 C4.48722656 2.12763672 4.48722656 2.12763672 6.3203125 3.08984375 C6.87460937 3.39019531 7.42890625 3.69054688 8 4 C8 4.66 8 5.32 8 6 C6.35 6.33 4.7 6.66 3 7 C3 8.65 3 10.3 3 12 C3.51240234 12.09667969 3.51240234 12.09667969 6.10546875 12.5859375 C7.46619601 12.84869863 8.82687033 13.11173398 10.1875 13.375 C10.86103516 13.50132813 11.53457031 13.62765625 12.22851562 13.7578125 C16.0141239 14.49646777 19.47612869 15.42623223 23 17 C18.09861833 20.8873027 14.10482148 21.18206866 8 21.1875 C7.27554688 21.19974609 6.55109375 21.21199219 5.8046875 21.22460938 C1.99299702 21.23515833 0.2463696 21.1642464 -3 19 C2.28 19 7.56 19 13 19 C13 18.34 13 17.68 13 17 C11.89140625 16.87882812 10.7828125 16.75765625 9.640625 16.6328125 C8.17703766 16.46393704 6.71349843 16.29464428 5.25 16.125 C4.88519531 16.08568359 4.88519531 16.08568359 3.0390625 15.88671875 C-0.66777257 15.44863824 -3.80452172 15.0013785 -7 13 C-7 12.34 -7 11.68 -7 11 C-7.99 11 -8.98 11 -10 11 C-10 10.01 -10 9.02 -10 8 C-10.99 7.67 -11.98 7.34 -13 7 C-12.67 6.01 -12.34 5.02 -12 4 C-11.319375 4.309375 -10.63875 4.61875 -9.9375 4.9375 C-6.63034088 6.13370649 -3.48454122 6.59005397 0 7 C0.33 6.01 0.66 5.02 1 4 C0.01 3.67 -0.98 3.34 -2 3 C-2 2.34 -2 1.68 -2 1 C-1.34 0.67 -0.68 0.34 0 0 Z " fill="#CF9153" transform="translate(40,58)" />
<path d="M0 0 C0.99 0.99 1.98 1.98 3 3 C2.67 3.165 2.67 3.165 1 4 C0.40234375 6.03125 0.40234375 6.03125 -0.0625 8.5 C-0.90606654 12.90606654 -0.90606654 12.90606654 -2 14 C-2.36162029 15.32594105 -2.69728039 16.65938457 -3 18 C-3.33 17.34 -3.66 16.68 -4 16 C-5.98821313 15.60235737 -7.99124558 15.27571139 -10 15 C-10.721875 14.814375 -11.44375 14.62875 -12.1875 14.4375 C-14 14 -14 14 -17 14 C-17 13.34 -17 12.68 -17 12 C-23.75 9 -23.75 9 -26 9 C-26.33 8.01 -26.66 7.02 -27 6 C-27.66 5.34 -28.32 4.68 -29 4 C-27.26171875 2.8828125 -27.26171875 2.8828125 -25 2 C-22.95703125 2.6796875 -22.95703125 2.6796875 -20.8125 3.875 C-16.02041918 6.21972488 -12.25314441 6.48961346 -7 6 C-6.030625 5.938125 -5.06125 5.87625 -4.0625 5.8125 C-2 5 -2 5 -0.6875 2.4375 C-0.460625 1.633125 -0.23375 0.82875 0 0 Z " fill="#A75013" transform="translate(64,50)" />
<path d="M0 0 C0.78375 0.04125 1.5675 0.0825 2.375 0.125 C1.385 0.785 0.395 1.445 -0.625 2.125 C-1.97751497 3.43887169 -3.31445377 4.76926252 -4.625 6.125 C-4.0371875 5.96 -4.0371875 5.96 -1.0625 5.125 C2.8761676 4.1280467 6.32639129 3.95630797 10.375 4.125 C10.375 4.455 10.375 4.785 10.375 5.125 C10.08496094 5.17398438 10.08496094 5.17398438 8.6171875 5.421875 C3.27853568 6.44379515 -0.31385232 7.80873256 -4.625 11.125 C-4.35460418 14.36974984 -3.7992292 15.91704902 -1.6875 18.4375 C2.63645495 20.82008742 6.5339238 20.62551805 11.375 20.125 C12.365 19.795 13.355 19.465 14.375 19.125 C14.705 16.815 15.035 14.505 15.375 12.125 C15.705 13.115 16.035 14.105 16.375 15.125 C17.035 15.125 17.695 15.125 18.375 15.125 C18.705 14.135 19.035 13.145 19.375 12.125 C20.035 11.795 20.695 11.465 21.375 11.125 C21.7890625 9.05859375 21.7890625 9.05859375 22 6.5625 C22.07476562 5.73621094 22.14953125 4.90992188 22.2265625 4.05859375 C22.27554688 3.42050781 22.32453125 2.78242187 22.375 2.125 C23.90625 3.27734375 23.90625 3.27734375 25.375 5.125 C25.40625 7.75390625 25.40625 7.75390625 24.875 10.6875 C24.7203125 11.65816406 24.565625 12.62882812 24.40625 13.62890625 C23.375 16.125 23.375 16.125 20.9140625 17.3359375 C20.49511719 17.46613281 20.49511719 17.46613281 18.375 18.125 C17.02191687 19.43828657 15.68629922 20.76999081 14.375 22.125 C8.41338685 24.11220438 2.11248124 23.70686656 -3.625 21.125 C-3.955 20.465 -4.285 19.805 -4.625 19.125 C-5.285 19.125 -5.945 19.125 -6.625 19.125 C-9.07910358 15.44384463 -8.85787843 13.47206402 -8.625 9.125 C-8.295 8.135 -7.965 7.145 -7.625 6.125 C-6.965 6.125 -6.305 6.125 -5.625 6.125 C-5.50125 5.50625 -5.3775 4.8875 -5.25 4.25 C-4.29660357 1.00845214 -3.38899251 0.1613806 0 0 Z " fill="#BA7F44" transform="translate(45.625,33.875)" />
<path d="M0 0 C-1.81702128 8.17659574 -1.81702128 8.17659574 -5.171875 10.51171875 C-5.59726563 10.70572266 -5.59726563 10.70572266 -7.75 11.6875 C-8.59046875 12.08324219 -9.4309375 12.47898437 -10.296875 12.88671875 C-16.28020171 15.35095012 -20.96503545 16.27568633 -27.375 16.125 C-27.74302734 16.12048828 -27.74302734 16.12048828 -29.60546875 16.09765625 C-31.4037888 16.07430144 -33.20193911 16.03843836 -35 16 C-35 15.67 -35 15.34 -35 15 C-34.55978516 14.97550781 -34.55978516 14.97550781 -32.33203125 14.8515625 C-31.17058594 14.77679688 -30.00914063 14.70203125 -28.8125 14.625 C-28.23822266 14.59019531 -28.23822266 14.59019531 -25.33203125 14.4140625 C-22.20040883 14.02490426 -19.84714191 13.3190149 -17 12 C-20.00440021 9.99706653 -21.70993945 9.50728374 -25.1875 8.875 C-26.08855469 8.70742187 -26.98960938 8.53984375 -27.91796875 8.3671875 C-28.60503906 8.24601562 -29.29210938 8.12484375 -30 8 C-26.65740578 6.92503425 -24.08430102 7.10222886 -20.625 7.5625 C-16.25824093 8.0061814 -12.96390826 8.19058088 -9 6 C-8.375 4 -8.375 4 -8 2 C-5.06004981 -0.02755186 -3.72295997 0 0 0 Z " fill="#CE9B4C" transform="translate(78,64)" />
<path d="M0 0 C0.33 0.66 0.66 1.32 1 2 C1.5775 2.103125 2.155 2.20625 2.75 2.3125 C6.01417341 3.30988632 7.64932619 5.5890525 10 8 C10.99 8.33 11.98 8.66 13 9 C13.33 9.66 13.66 10.32 14 11 C18.00395739 12.33465246 21.89290462 12.37666235 26.08984375 12.62109375 C28.86693803 12.98267515 30.61617434 13.58119292 33 15 C33 15.66 33 16.32 33 17 C26.65103242 19.11632253 19.18044296 18.55279166 13 16 C7.28796738 12.67682861 3.40087168 8.63269371 0 3 C0 2.01 0 1.02 0 0 Z " fill="#E6C58B" transform="translate(20,60)" />
<path d="M0 0 C1.81325551 0.11351517 3.62563357 0.24112961 5.4375 0.375 C5.94216797 0.40980469 5.94216797 0.40980469 8.49609375 0.5859375 C8.90923828 0.65425781 8.90923828 0.65425781 11 1 C11.33 1.66 11.66 2.32 12 3 C13.99680259 3.83821823 16.02644999 4.46575091 18.08984375 5.12109375 C20 6 20 6 22 9 C22 9.99 22 10.98 22 12 C23.32 11.67 24.64 11.34 26 11 C26 11.66 26 12.32 26 13 C24.68 13 23.36 13 22 13 C22 13.66 22 14.32 22 15 C21.01 15 20.02 15 19 15 C18.67 14.34 18.34 13.68 18 13 C17.01 12.34 16.02 11.68 15 11 C15.66 9.35 16.32 7.7 17 6 C12.125 7.75 12.125 7.75 11 10 C10.67 9.505 10.34 9.01 10 8.5 C6.82427253 6.11820439 3.89753934 6.80831774 0 7 C0 4.69 0 2.38 0 0 Z " fill="#A7510D" transform="translate(50,19)" />
<path d="M0 0 C1.32 0 2.64 0 4 0 C4.33 0.66 4.66 1.32 5 2 C7.51953125 2.30859375 7.51953125 2.30859375 10.8125 2.4375 C18.43434621 2.90808808 26.52985537 3.68657025 33 8 C27.69108564 10.63361066 23.64296511 11.44992922 17.75 11.3125 C17.04359375 11.31572266 16.3371875 11.31894531 15.609375 11.32226562 C11.87841778 11.28340149 10.17544109 11.11696073 7 9 C12.28 9 17.56 9 23 9 C23 8.34 23 7.68 23 7 C21.89140625 6.87882812 20.7828125 6.75765625 19.640625 6.6328125 C18.17703766 6.46393704 16.71349843 6.29464428 15.25 6.125 C14.88519531 6.08568359 14.88519531 6.08568359 13.0390625 5.88671875 C9.33222743 5.44863824 6.19547828 5.0013785 3 3 C3 2.34 3 1.68 3 1 C2.01 0.67 1.02 0.34 0 0 Z " fill="#D8AA67" transform="translate(30,68)" />
<path d="M0 0 C0.99 0.99 1.98 1.98 3 3 C2.21625 3.61875 1.4325 4.2375 0.625 4.875 C-2 7 -2 7 -4 9 C-6.4609375 9.23046875 -6.4609375 9.23046875 -9.375 9.1875 C-10.33148438 9.18105469 -11.28796875 9.17460938 -12.2734375 9.16796875 C-14.66594068 9.02057959 -16.71041797 8.67819373 -19 8 C-19.33 8.99 -19.66 9.98 -20 11 C-20.61875 10.67 -21.2375 10.34 -21.875 10 C-24 9 -24 9 -26 9 C-26.33 8.01 -26.66 7.02 -27 6 C-27.66 5.34 -28.32 4.68 -29 4 C-27.26171875 2.8828125 -27.26171875 2.8828125 -25 2 C-22.95703125 2.6796875 -22.95703125 2.6796875 -20.8125 3.875 C-16.02041918 6.21972488 -12.25314441 6.48961346 -7 6 C-6.030625 5.938125 -5.06125 5.87625 -4.0625 5.8125 C-2 5 -2 5 -0.6875 2.4375 C-0.460625 1.633125 -0.23375 0.82875 0 0 Z " fill="#B26424" transform="translate(64,50)" />
<path d="M0 0 C1.37562854 1.28965176 2.70766393 2.62689293 4 4 C4 4.66 4 5.32 4 6 C4.66 6.33 5.32 6.66 6 7 C6.28919928 8.99226169 6.57264551 10.98722182 6.75390625 12.9921875 C7 15 7 15 8 18 C7.34 18.66 6.68 19.32 6 20 C3.625 19.375 3.625 19.375 1 18 C-1.77540839 12.84567014 -1.41886343 6.71797282 -1 1 C-0.67 0.67 -0.34 0.34 0 0 Z " fill="#CD9457" transform="translate(18,43)" />
<path d="M0 0 C2.33503724 2.61807206 2.90161802 4.17359133 3.3125 7.625 C3 10 3 10 1 13 C0.34 13 -0.32 13 -1 13 C-1.1959375 12.38511719 -1.391875 11.77023438 -1.59375 11.13671875 C-3.99991196 4.63385861 -3.99991196 4.63385861 -6.94140625 2.76953125 C-8.95166208 2.04021192 -10.91732312 1.47897292 -13 1 C-13.99 0.67 -14.98 0.34 -16 0 C-10.2833891 -2.18934034 -5.73868036 -2.42834378 0 0 Z " fill="#DEBA83" transform="translate(63,36)" />
<path d="M0 0 C-1.86666667 5.73333333 -1.86666667 5.73333333 -3.1875 8.375 C-4.36333708 12.17385826 -3.66166515 15.0961756 -3 19 C-4.65 18.67 -6.3 18.34 -8 18 C-10.53191489 9.21276596 -10.53191489 9.21276596 -9 5 C-8.34 4.67 -7.68 4.34 -7 4 C-6.34 3.01 -5.68 2.02 -5 1 C-3 0 -3 0 0 0 Z " fill="#BE6C20" transform="translate(39,33)" />
<path d="M0 0 C-0.33 0.66 -0.66 1.32 -1 2 C-2.97362599 2.1973626 -4.94735599 2.39381271 -6.921875 2.58203125 C-9.98774091 3.19866218 -11.79549617 4.86438691 -14 7 C-13.9375 8.8125 -13.9375 8.8125 -13 11 C-7.81186409 13.96464909 -3.91125786 14.31111883 2 14 C2.14285714 5.42857143 2.14285714 5.42857143 1 2 C3.10633718 3.70828921 3.93801608 4.52148416 4.29296875 7.26171875 C4.25816406 8.06222656 4.22335938 8.86273438 4.1875 9.6875 C4.16042969 10.49574219 4.13335937 11.30398437 4.10546875 12.13671875 C4.08806641 12.44416016 4.08806641 12.44416016 4 14 C-0.5576696 16.59839554 -4.86324944 16.94396641 -10 16 C-12.73431069 14.33521615 -14.86541975 12.37489723 -17 10 C-16.875 7.75 -16.875 7.75 -16 5 C-10.57901475 0.75748981 -6.78911919 -0.12809659 0 0 Z " fill="#643D10" transform="translate(57,39)" />
<path d="M0 0 C0.78375 0.04125 1.5675 0.0825 2.375 0.125 C1.385 0.785 0.395 1.445 -0.625 2.125 C-1.97751497 3.43887169 -3.31445377 4.76926252 -4.625 6.125 C-4.0371875 5.96 -4.0371875 5.96 -1.0625 5.125 C2.8761676 4.1280467 6.32639129 3.95630797 10.375 4.125 C10.375 4.455 10.375 4.785 10.375 5.125 C10.08496094 5.17398438 10.08496094 5.17398438 8.6171875 5.421875 C3.48179649 6.40488714 -0.76929328 7.36815755 -4.625 11.125 C-5.1322364 13.97206882 -4.91727765 16.20222355 -4.625 19.125 C-5.285 19.125 -5.945 19.125 -6.625 19.125 C-9.07910358 15.44384463 -8.85787843 13.47206402 -8.625 9.125 C-8.295 8.135 -7.965 7.145 -7.625 6.125 C-6.965 6.125 -6.305 6.125 -5.625 6.125 C-5.50125 5.50625 -5.3775 4.8875 -5.25 4.25 C-4.29660357 1.00845214 -3.38899251 0.1613806 0 0 Z " fill="#C28D47" transform="translate(45.625,33.875)" />
<path d="M0 0 C0 3 0 3 -1.51171875 4.8671875 C-10.19224688 12.87758509 -19.48543749 16.69694866 -31.34375 16.2734375 C-33.94653824 16.00550342 -36.44633685 15.56439657 -39 15 C-39 14.67 -39 14.34 -39 14 C-37.92363281 13.98582031 -36.84726562 13.97164062 -35.73828125 13.95703125 C-22.12079275 13.59064142 -10.7742295 11.21352071 -1 1 C-0.67 0.67 -0.34 0.34 0 0 Z " fill="#624012" transform="translate(81,66)" />
<path d="M0 0 C0 0.99 0 1.98 0 3 C0.66 3 1.32 3 2 3 C2 3.99 2 4.98 2 6 C1.01 6.33 0.02 6.66 -1 7 C-0.9278125 7.69867188 -0.855625 8.39734375 -0.78125 9.1171875 C-0.6884375 10.02726562 -0.595625 10.93734375 -0.5 11.875 C-0.4071875 12.77992187 -0.314375 13.68484375 -0.21875 14.6171875 C0 17 0 17 0 19 C0.66 19.33 1.32 19.66 2 20 C2 20.66 2 21.32 2 22 C0.0625 21.3125 0.0625 21.3125 -2 20 C-2.625 17.8125 -2.625 17.8125 -3 15 C-3.33 13.88625 -3.66 12.7725 -4 11.625 C-4.97772045 8.08076338 -5.55364622 4.6452225 -6 1 C-3.92446352 0.4465236 -2.15634036 0 0 0 Z " fill="#D6A26E" transform="translate(28,46)" />
<path d="M0 0 C0.66 0 1.32 0 2 0 C2.66 1.32 3.32 2.64 4 4 C4.99 3.01 5.98 2.02 7 1 C8.24546405 3.49092811 7.7767578 4.41080733 7 7 C6.01 7 5.02 7 4 7 C3.67 8.32 3.34 9.64 3 11 C1.68 11.33 0.36 11.66 -1 12 C-1.33 10.35 -1.66 8.7 -2 7 C-2.66 7 -3.32 7 -4 7 C-3.67 6.34 -3.34 5.68 -3 5 C-2.34 5.33 -1.68 5.66 -1 6 C-1.020625 5.195625 -1.04125 4.39125 -1.0625 3.5625 C-1 1 -1 1 0 0 Z " fill="#B1540E" transform="translate(64,57)" />
<path d="M0 0 C0.99 0 1.98 0 3 0 C3.66 1.98 4.32 3.96 5 6 C1.82679218 9.53586014 -0.16743695 11.58578031 -5 12 C-4.67 10.68 -4.34 9.36 -4 8 C-5.32 7.34 -6.64 6.68 -8 6 C-8 5.01 -8 4.02 -8 3 C-4.97580475 3.58803797 -1.98241547 4.22678118 1 5 C0.67 3.35 0.34 1.7 0 0 Z " fill="#C57B2E" transform="translate(76,50)" />
<path d="M0 0 C0.66 0.66 1.32 1.32 2 2 C-8.97932151 9.56885107 -17.98763614 10.43108445 -31 10 C-31 9.67 -31 9.34 -31 9 C-30.154375 8.96261719 -29.30875 8.92523438 -28.4375 8.88671875 C-21.64311663 8.49295335 -16.24727819 7.66087775 -10 5 C-9.01 5 -8.02 5 -7 5 C-7 4.34 -7 3.68 -7 3 C-5.845 2.835 -5.845 2.835 0 2 C0 1.34 0 0.68 0 0 Z " fill="#B48E4B" transform="translate(74,70)" />
<path d="M0 0 C0.66 0.33 1.32 0.66 2 1 C3.86718948 7.01649944 5.44504503 14.47770275 3 20.4375 C2.67 20.953125 2.34 21.46875 2 22 C0 19 0 19 0 17 C-0.99 16.67 -1.98 16.34 -3 16 C-3 15.34 -3 14.68 -3 14 C-1.68 13.34 -0.36 12.68 1 12 C0.9278125 11.30132812 0.855625 10.60265625 0.78125 9.8828125 C0.6884375 8.97273438 0.595625 8.06265625 0.5 7.125 C0.4071875 6.22007813 0.314375 5.31515625 0.21875 4.3828125 C0 2 0 2 0 0 Z " fill="#B66516" transform="translate(79,33)" />
<path d="M0 0 C1.32 0.33 2.64 0.66 4 1 C4 1.66 4 2.32 4 3 C4.99 3.33 5.98 3.66 7 4 C7.6837045 5.32467746 8.34964186 6.65863633 9 8 C9.99 8.66 10.98 9.32 12 10 C4.25 10.125 4.25 10.125 2 9 C0.37265234 5.65489648 0 3.81164166 0 0 Z " fill="#DEB38A" transform="translate(26,53)" />
<path d="M0 0 C-0.58803797 3.02419525 -1.22678118 6.01758453 -2 9 C-2.99 8.67 -3.98 8.34 -5 8 C-5.33 7.34 -5.66 6.68 -6 6 C-6.66 6.66 -7.32 7.32 -8 8 C-8.33 6.68 -8.66 5.36 -9 4 C-9.66 4 -10.32 4 -11 4 C-11 3.34 -11 2.68 -11 2 C-7.25 0.875 -7.25 0.875 -5 2 C-2 0 -2 0 0 0 Z " fill="#DDA766" transform="translate(67,25)" />
<path d="M0 0 C-0.25561323 2.3431213 -0.59270772 4.67843403 -1 7 C-1.33 7.165 -1.33 7.165 -3 8 C-3.66 7.67 -4.32 7.34 -5 7 C-5.66 8.32 -6.32 9.64 -7 11 C-7 10.34 -7 9.68 -7 9 C-7.66 9 -8.32 9 -9 9 C-8.44706396 4.02357564 -5.06735917 0 0 0 Z " fill="#AD5A18" transform="translate(31,28)" />
<path d="M0 0 C0.33 0 0.66 0 1 0 C1.66 3.96 2.32 7.92 3 12 C1.35 12.66 -0.3 13.32 -2 14 C-1.34 12.68 -0.68 11.36 0 10 C-0.33 10.165 -0.33 10.165 -2 11 C-3.99960012 11.039992 -6.00047242 11.04346799 -8 11 C-8 10.67 -8 10.34 -8 10 C-6.35 10 -4.7 10 -3 10 C-3 8.68 -3 7.36 -3 6 C-3.66 5.67 -4.32 5.34 -5 5 C-3.35 4.67 -1.7 4.34 0 4 C0 2.68 0 1.36 0 0 Z " fill="#B4763C" transform="translate(28,36)" />
<path d="M0 0 C-1.38728705 2.77457409 -3.3415631 3.40493786 -6 5 C-9.50613523 7.73478548 -12.52510838 10.28766257 -15 14 C-14.66565027 8.65040435 -11.62396289 4.73276547 -8 1 C-2.90196078 -1.45098039 -2.90196078 -1.45098039 0 0 Z " fill="#735128" transform="translate(32,23)" />
<path d="M0 0 C0.66 0.66 1.32 1.32 2 2 C0 4 0 4 -3.25 4.375 C-7.44402869 5.07400478 -9.62469004 6.48814142 -13 9 C-13.33 9.165 -13.33 9.165 -15 10 C-14.68656398 7.07459717 -13.98672635 5.98592189 -11.9375 3.8125 C-8.14314706 1.47130351 -5.41633643 1.36802804 -1 1 C-0.67 0.67 -0.34 0.34 0 0 Z " fill="#79603F" transform="translate(57,39)" />
<path d="M0 0 C0.375 2.6875 0.375 2.6875 0 6 C-1.823983 8.06398076 -3.72763839 9.39041053 -6 11 C-5.42415568 8.61435923 -4.77772405 6.33317216 -4 4 C-5.32 3.67 -6.64 3.34 -8 3 C-4.93882432 0.37613513 -4.26826873 0 0 0 Z " fill="#C48D3C" transform="translate(82,60)" />
<path d="M0 0 C2.64 0.33 5.28 0.66 8 1 C7 2.9765625 7 2.9765625 5 5 C2.18146187 5.35231727 -0.19667759 5.46977425 -3 5.375 C-3.72445312 5.37371094 -4.44890625 5.37242188 -5.1953125 5.37109375 C-8.96746683 5.3084565 -10.79738642 5.13507572 -14 3 C-8.72 3 -3.44 3 2 3 C2 2.34 2 1.68 2 1 C1.34 0.67 0.68 0.34 0 0 Z " fill="#D6B36D" transform="translate(51,74)" />
<path d="M0 0 C0.66 0 1.32 0 2 0 C2.1875 2.375 2.1875 2.375 2 5 C1.01 5.66 0.02 6.32 -1 7 C-1 8.32 -1 9.64 -1 11 C-2.65 11 -4.3 11 -6 11 C-6 8.69 -6 6.38 -6 4 C-5.67 4.165 -5.67 4.165 -4 5 C-2.29159719 3.36587557 -1.06546953 2.13093906 0 0 Z " fill="#DCA05C" transform="translate(26,35)" />
<path d="M0 0 C2.0625 1.5 2.0625 1.5 4 4 C4.05928384 6.82406647 3.55954815 9.20225927 3 12 C1.68 12 0.36 12 -1 12 C-1.02687279 10.18757948 -1.04633715 8.37504767 -1.0625 6.5625 C-1.07410156 5.55316406 -1.08570312 4.54382812 -1.09765625 3.50390625 C-1 1 -1 1 0 0 Z " fill="#C78E4B" transform="translate(18,43)" />
<path d="M0 0 C2 1 2 1 3.1171875 3.4453125 C4.24768697 7.99732363 4.21637158 12.20802081 4.125 16.875 C4.11597656 17.75414063 4.10695313 18.63328125 4.09765625 19.5390625 C4.07424577 21.6928271 4.0383801 23.84645014 4 26 C3.01 26 2.02 26 1 26 C1.165 25.071875 1.33 24.14375 1.5 23.1875 C2.49341513 16.1184155 2.78658491 9.63053011 0 3 C0 2.01 0 1.02 0 0 Z " fill="#7A6240" transform="translate(85,34)" />
<path d="M0 0 C0.625 2.3125 0.625 2.3125 1 5 C0.67 5.495 0.67 5.495 -1 8 C-1.125 10.6875 -1.125 10.6875 -1 13 C-1.99 13 -2.98 13 -4 13 C-3.79375 11.7625 -3.5875 10.525 -3.375 9.25 C-2.93892876 5.88090165 -2.96596361 3.87158079 -5 1 C-2 0 -2 0 0 0 Z " fill="#C37127" transform="translate(79,32)" />
<path d="M0 0 C1.32 0 2.64 0 4 0 C4.33 0.99 4.66 1.98 5 3 C7.31 3 9.62 3 12 3 C12 3.66 12 4.32 12 5 C11.01 5 10.02 5 9 5 C9 5.66 9 6.32 9 7 C4.71193127 6.52354792 2.73352513 5.34097516 0 2 C0 1.34 0 0.68 0 0 Z " fill="#D18943" transform="translate(46,22)" />
<path d="M0 0 C1.32 0.33 2.64 0.66 4 1 C3.67 2.65 3.34 4.3 3 6 C1.02 6.33 -0.96 6.66 -3 7 C-3.33 5.68 -3.66 4.36 -4 3 C-3.01 3 -2.02 3 -1 3 C-0.67 2.01 -0.34 1.02 0 0 Z " fill="#C58136" transform="translate(32,22)" />
<path d="M0 0 C0.33 0.66 0.66 1.32 1 2 C4 1 4 1 5 0 C6.32 0.66 7.64 1.32 9 2 C8.01 2.99 7.02 3.98 6 5 C6.33 5.66 6.66 6.32 7 7 C6.34 7 5.68 7 5 7 C4.67 7.66 4.34 8.32 4 9 C3.67 7.68 3.34 6.36 3 5 C2.01 4.835 2.01 4.835 -3 4 C-2.01 3.67 -1.02 3.34 0 3 C0 2.01 0 1.02 0 0 Z " fill="#BC7C3E" transform="translate(30,49)" />
<path d="M0 0 C2.91517292 1.07401108 4.77810176 1.77810176 7 4 C7 4.99 7 5.98 7 7 C7.66 7 8.32 7 9 7 C9 7.66 9 8.32 9 9 C8.01 8.67 7.02 8.34 6 8 C6 7.34 6 6.68 6 6 C4.68 6 3.36 6 2 6 C2 5.34 2 4.68 2 4 C1.01 3.67 0.02 3.34 -1 3 C-0.67 2.01 -0.34 1.02 0 0 Z " fill="#D39C5C" transform="translate(28,62)" />
<path d="M0 0 C0.66 0 1.32 0 2 0 C2.66 1.98 3.32 3.96 4 6 C2.02 6.99 0.04 7.98 -2 9 C-2 8.34 -2 7.68 -2 7 C-2.66 7 -3.32 7 -4 7 C-3.67 6.34 -3.34 5.68 -3 5 C-2.34 5.33 -1.68 5.66 -1 6 C-1.020625 5.195625 -1.04125 4.39125 -1.0625 3.5625 C-1 1 -1 1 0 0 Z " fill="#C67D33" transform="translate(64,57)" />
<path d="M0 0 C0.33 0.66 0.66 1.32 1 2 C0.12702641 4.53955953 -0.47650183 5.72080098 -2.875 7 C-3.57625 7.33 -4.2775 7.66 -5 8 C-6.37086915 9.29470975 -7.71340837 10.62150897 -9 12 C-9.99 11.34 -10.98 10.68 -12 10 C-11.38511719 9.52949219 -10.77023438 9.05898437 -10.13671875 8.57421875 C-9.32847656 7.95160156 -8.52023438 7.32898438 -7.6875 6.6875 C-6.88699219 6.07261719 -6.08648437 5.45773438 -5.26171875 4.82421875 C-3.37298626 3.30083693 -1.66922364 1.75565593 0 0 Z " fill="#796343" transform="translate(81,68)" />
<path d="M0 0 C4.83256305 0.41421969 6.82679218 2.46413986 10 6 C9.34 6.66 8.68 7.32 8 8 C7.01 8 6.02 8 5 8 C4.34 7.34 3.68 6.68 3 6 C3 4.68 3 3.36 3 2 C2.01 1.67 1.02 1.34 0 1 C0 0.67 0 0.34 0 0 Z " fill="#BE6F23" transform="translate(67,23)" />
<path d="M0 0 C0.40863281 0.05091797 0.40863281 0.05091797 2.4765625 0.30859375 C2.78980469 0.35048828 2.78980469 0.35048828 4.375 0.5625 C4.375 1.2225 4.375 1.8825 4.375 2.5625 C0.90174819 3.7202506 -1.98567448 3.63116652 -5.625 3.5625 C-5.955 2.5725 -6.285 1.5825 -6.625 0.5625 C-4.10446405 -0.69776798 -2.7707902 -0.35624445 0 0 Z " fill="#EACD8D" transform="translate(48.625,74.4375)" />
<path d="M0 0 C2 1.375 2 1.375 4 3 C4 3.66 4 4.32 4 5 C2.68 5 1.36 5 0 5 C0 5.66 0 6.32 0 7 C-1.32 7 -2.64 7 -4 7 C-3.67 5.68 -3.34 4.36 -3 3 C-2.34 3 -1.68 3 -1 3 C-0.67 2.01 -0.34 1.02 0 0 Z " fill="#BC6D1C" transform="translate(47,25)" />
<path d="M0 0 C3.63 0 7.26 0 11 0 C11 0.66 11 1.32 11 2 C12.32 2.66 13.64 3.32 15 4 C12.21176345 5.0326802 11.1322726 5.04509293 8.25 4.0625 C7.5075 3.711875 6.765 3.36125 6 3 C6 2.67 6 2.34 6 2 C5.01 1.835 5.01 1.835 0 1 C0 0.67 0 0.34 0 0 Z " fill="#B86019" transform="translate(54,19)" />
<path d="M0 0 C4.875 4.625 4.875 4.625 6 8 C7.65204456 8.70211894 9.31923769 9.36971413 11 10 C11.33 10.66 11.66 11.32 12 12 C10.35 11.67 8.7 11.34 7 11 C7 10.34 7 9.68 7 9 C6.401875 8.7525 5.80375 8.505 5.1875 8.25 C2.66413131 6.80807503 1.49969924 5.47450374 0 3 C0 2.01 0 1.02 0 0 Z " fill="#75613D" transform="translate(19,65)" />
<path d="M0 0 C1.98 0 3.96 0 6 0 C6 0.99 6 1.98 6 3 C6.99 3.66 7.98 4.32 9 5 C2.25 5.125 2.25 5.125 0 4 C0 2.68 0 1.36 0 0 Z " fill="#C78741" transform="translate(43,66)" />
<path d="M0 0 C0.33 0.66 0.66 1.32 1 2 C1.66 2.144375 2.32 2.28875 3 2.4375 C3.33 2.5303125 3.33 2.5303125 5 3 C5.33 3.99 5.66 4.98 6 6 C4.68 6.33 3.36 6.66 2 7 C1.67 6.01 1.34 5.02 1 4 C0.67 5.32 0.34 6.64 0 8 C-1.65 7.67 -3.3 7.34 -5 7 C-4.6803125 6.8865625 -4.6803125 6.8865625 -3.0625 6.3125 C-1 5 -1 5 -0.25 2.375 C-0.1675 1.59125 -0.085 0.8075 0 0 Z " fill="#9D4707" transform="translate(36,22)" />
<path d="M0 0 C3.37462715 0.54723683 5.08235 1.0549 8 3 C8 3.66 8 4.32 8 5 C5.69 5 3.38 5 1 5 C0.67 3.35 0.34 1.7 0 0 Z " fill="#A74C0A" transform="translate(50,19)" />
<path d="M0 0 C0.99 0 1.98 0 3 0 C3.33 0.66 3.66 1.32 4 2 C6.5625 2.625 6.5625 2.625 9 3 C6 5 6 5 4 5 C3.67 5.99 3.34 6.98 3 8 C1.0549 5.08235 0.54723683 3.37462715 0 0 Z " fill="#974A04" transform="translate(65,54)" />
<path d="M0 0 C0.33 0.66 0.66 1.32 1 2 C1.66 2 2.32 2 3 2 C3 2.66 3 3.32 3 4 C-0.67410785 5.17571451 -4.16929183 5.07366746 -8 5 C-8 4.34 -8 3.68 -8 3 C-6.02253397 2.26919734 -4.01927511 1.60578253 -2 1 C-1.34 1.33 -0.68 1.66 0 2 C0 1.34 0 0.68 0 0 Z " fill="#C17F2E" transform="translate(55,27)" />
<path d="M0 0 C0.66 0.66 1.32 1.32 2 2 C0.71186658 2.83878455 -0.58063256 3.67086783 -1.875 4.5 C-2.59429687 4.9640625 -3.31359375 5.428125 -4.0546875 5.90625 C-6 7 -6 7 -8 7 C-7.67 5.68 -7.34 4.36 -7 3 C-5.845 2.835 -5.845 2.835 0 2 C0 1.34 0 0.68 0 0 Z " fill="#AD8540" transform="translate(74,70)" />
<path d="M0 0 C2.4375 0.375 2.4375 0.375 5 1 C5.33 1.66 5.66 2.32 6 3 C6.66 3 7.32 3 8 3 C8 4.32 8 5.64 8 7 C4.78448712 6.65548076 3.97940123 5.97711248 1.75 3.5 C0 1 0 1 0 0 Z " fill="#D8A97C" transform="translate(29,53)" />
<path d="M0 0 C0.99 0.33 1.98 0.66 3 1 C2.690625 1.1959375 2.690625 1.1959375 1.125 2.1875 C-1.32496368 4.27717491 -2.01879998 5.97463327 -3 9 C-3.99 9 -4.98 9 -6 9 C-6 7.68 -6 6.36 -6 5 C-5.34 4.67 -4.68 4.34 -4 4 C-3.34 3.01 -2.68 2.02 -2 1 C-1.34 0.67 -0.68 0.34 0 0 Z " fill="#B96213" transform="translate(36,33)" />
<path d="M0 0 C0.99 0 1.98 0 3 0 C4.96536552 2.54769604 5.91872304 4.4310613 6.375 7.625 C5.93551743 10.4083896 5.17471852 11.27834784 3 13 C3.2475 11.948125 3.495 10.89625 3.75 9.8125 C4 6 4 6 2.0625 3.125 C1.381875 2.42375 0.70125 1.7225 0 1 C0 0.67 0 0.34 0 0 Z " fill="#D4A86B" transform="translate(60,36)" />
<path d="M0 0 C0.66 0.33 1.32 0.66 2 1 C1.625 2.9375 1.625 2.9375 1 5 C0.67 5.165 0.67 5.165 -1 6 C-0.67 6.66 -0.34 7.32 0 8 C-0.66 8.66 -1.32 9.32 -2 10 C-2 9.34 -2 8.68 -2 8 C-2.66 8 -3.32 8 -4 8 C-3.40072174 4.64404172 -2.15377564 2.62198774 0 0 Z " fill="#B8691F" transform="translate(26,29)" />
<path d="M0 0 C2.91517292 1.07401108 4.77810176 1.77810176 7 4 C6.67 5.32 6.34 6.64 6 8 C3.69 6.02 1.38 4.04 -1 2 C-0.67 1.34 -0.34 0.68 0 0 Z " fill="#7A6141" transform="translate(74,20)" />
<path d="M0 0 C0.33 0.66 0.66 1.32 1 2 C1.66 2 2.32 2 3 2 C3.33 3.98 3.66 5.96 4 8 C3.67 8.165 3.67 8.165 2 9 C1.67 7.35 1.34 5.7 1 4 C0.01 3.67 -0.98 3.34 -2 3 C-2 2.34 -2 1.68 -2 1 C-1.34 0.67 -0.68 0.34 0 0 Z " fill="#A75E16" transform="translate(78,46)" />
<path d="M0 0 C1.69141656 0.08963062 3.37959602 0.24577676 5.0625 0.4375 C5.52205078 0.48841797 5.52205078 0.48841797 7.84765625 0.74609375 C8.55792969 0.82988281 9.26820312 0.91367187 10 1 C10 1.66 10 2.32 10 3 C8.68 3 7.36 3 6 3 C6 3.66 6 4.32 6 5 C5.01 5 4.02 5 3 5 C2.67 4.34 2.34 3.68 2 3 C1.01 2.34 0.02 1.68 -1 1 C-0.67 0.67 -0.34 0.34 0 0 Z " fill="#A85517" transform="translate(66,29)" />
<path d="M0 0 C0.33 0.66 0.66 1.32 1 2 C3.0625 2.625 3.0625 2.625 5 3 C5.33 4.32 5.66 5.64 6 7 C5.01 7.33 4.02 7.66 3 8 C0 3.375 0 3.375 0 0 Z " fill="#E2BC81" transform="translate(20,60)" />
<path d="M0 0 C0.33 0.66 0.66 1.32 1 2 C1.99 1.67 2.98 1.34 4 1 C4.33 3.31 4.66 5.62 5 8 C3.68 7.67 2.36 7.34 1 7 C0.67 4.69 0.34 2.38 0 0 Z " fill="#D7A56C" transform="translate(18,54)" />
<path d="M0 0 C2.9375 0.75 2.9375 0.75 6 2 C6.875 4.125 6.875 4.125 7 6 C6.34 6 5.68 6 5 6 C5 5.34 5 4.68 5 4 C2.36 3.67 -0.28 3.34 -3 3 C-2.01 2.01 -1.02 1.02 0 0 Z " fill="#CD9241" transform="translate(55,30)" />
<path d="M0 0 C0.99 0.33 1.98 0.66 3 1 C3 1.66 3 2.32 3 3 C3.99 3.33 4.98 3.66 6 4 C5.67 5.32 5.34 6.64 5 8 C0 2.25 0 2.25 0 0 Z " fill="#F6D2B5" transform="translate(27,53)" />
<path d="M0 0 C0.66 0 1.32 0 2 0 C3.0326802 2.78823655 3.04509293 3.8677274 2.0625 6.75 C1.711875 7.4925 1.36125 8.235 1 9 C0.67 9 0.34 9 0 9 C-0.87890625 2.84765625 -0.87890625 2.84765625 -1 1 C-0.67 0.67 -0.34 0.34 0 0 Z " fill="#C48B4D" transform="translate(66,37)" />
<path d="M0 0 C-2.91708924 1.98362069 -4.12380904 1.9876191 -7.75 1.625 C-8.8225 1.41875 -9.895 1.2125 -11 1 C-7.46971544 -2.53028456 -4.14884561 -2.61223613 0 0 Z " fill="#DFB16C" transform="translate(58,36)" />
<path d="M0 0 C3.79303725 1.00193437 6.71536341 1.81024227 10 4 C10 4.66 10 5.32 10 6 C5.56909529 4.79157144 3.01887244 3.48331435 0 0 Z " fill="#D2AF75" transform="translate(27,71)" />
<path d="M0 0 C-1.39332574 3.36720387 -2.9789286 4.9859524 -6 7 C-5.37162381 3.35541809 -4.14650034 0 0 0 Z " fill="#A37B35" transform="translate(82,64)" />
<path d="M0 0 C0.66 0.33 1.32 0.66 2 1 C2 1.99 2 2.98 2 4 C0.68 4.33 -0.64 4.66 -2 5 C-2 3.68 -2 2.36 -2 1 C-1.34 0.67 -0.68 0.34 0 0 Z " fill="#B76116" transform="translate(65,64)" />
<path d="M0 0 C0.66 0 1.32 0 2 0 C1.67 1.98 1.34 3.96 1 6 C0.67 5.34 0.34 4.68 0 4 C-2.0625 3.375 -2.0625 3.375 -4 3 C-4 2.34 -4 1.68 -4 1 C-2.68 1.33 -1.36 1.66 0 2 C0 1.34 0 0.68 0 0 Z " fill="#AF5011" transform="translate(41,21)" />
</svg>