<?xml version='1.0' encoding='utf-8'?>
<svg xmlns="http://www.w3.org/2000/svg" version="1.1" width="101" height="98">
<path d="M0 0 C0.40041504 0.00080566 0.40041504 0.00080566 2.42675781 0.00488281 C11.66382416 0.19399979 20.23357315 2.48330256 27.5 8.375 C31.37863017 16.13226034 28.63118998 30.88241047 26.45703125 38.8046875 C24.00078464 45.4014641 18.15031768 48.07725027 12.21875 51.234375 C8.8705045 52.63909869 6.09250706 52.44685014 2.5 52.375 C1.71625 53.179375 0.9325 53.98375 0.125 54.8125 C-3.18006476 58.03887274 -5.00519966 57.82886368 -9.4296875 58.0625 C-12.38511482 58.50860224 -13.51091733 60.24873921 -15.5 62.375 C-20.98451744 63.68083749 -24.80730702 60.75460705 -29.328125 57.98046875 C-31.5 56.375 -31.5 56.375 -33.5 53.375 C-30.78163459 54.38467858 -28.43917632 55.41453539 -26 57 C-23.22868963 58.52422071 -21.61018994 58.64158771 -18.5 58.375 C-18.2525 57.67375 -18.005 56.9725 -17.75 56.25 C-16.5 53.375 -16.5 53.375 -14.5625 50.5 C-12.40604764 47.23264793 -11.00748341 43.97985164 -9.5 40.375 C-8.11875297 37.90026574 -6.79177658 35.71200195 -4.9375 33.5703125 C-2.30921782 29.55646852 -2.75356348 24.98373192 -3.5 20.375 C-5.8125 17.375 -5.8125 17.375 -8.5 15.375 C-9.5 14.375 -10.5 13.375 -11.5 12.375 C-6.62262664 12.79306057 -4.6850091 14.7816564 -1.5 18.375 C-0.736875 19.055625 0.02625 19.73625 0.8125 20.4375 C3.55904008 25.21851422 3.32697748 30.00665469 2.5 35.375 C1.47070438 37.63002169 0.27834978 39.43947962 -1.19140625 41.4296875 C-3.43667953 44.76743703 -4.3819777 48.5450182 -5.5 52.375 C-5.83 53.365 -6.16 54.355 -6.5 55.375 C-3.13408573 52.65021226 -2.05773724 49.30643208 -0.5 45.375 C0.16 45.375 0.82 45.375 1.5 45.375 C1.5515625 44.7253125 1.5515625 44.7253125 1.8125 41.4375 C2.17422862 38.03299534 2.85187561 35.13537576 4.0625 31.9375 C5.83777346 27.0598069 5.78944213 22.50991783 5.5 17.375 C4.84 17.375 4.18 17.375 3.5 17.375 C3.2525 16.59125 3.005 15.8075 2.75 15 C1.29859234 11.95204392 0.50449293 11.64963336 -2.5 10.375 C-4.25 8.75 -4.25 8.75 -5.5 7.375 C0.02096964 7.51302424 2.84601974 9.85833854 6.73046875 13.453125 C8.95022435 15.86398538 10.3118213 18.33029209 11.5 21.375 C11.0849902 16.083625 10.33759901 13.11160956 6.5 9.375 C1.08334029 5.19965814 -3.16196677 4.95419657 -9.92578125 5.0390625 C-12.5 5.375 -12.5 5.375 -14.5 7.375 C-15.263125 7.66375 -16.02625 7.9525 -16.8125 8.25 C-19.88271262 9.53520528 -21.96636739 11.23115702 -24.5 13.375 C-25.17933594 13.766875 -25.85867187 14.15875 -26.55859375 14.5625 C-29.39102127 17.20685889 -29.41507401 19.65472203 -30 23.4375 C-31.07783519 29.80806922 -32.78158169 35.51039198 -35.5 41.375 C-36.65461134 37.91116599 -36.30240708 37.20198514 -35.125 33.875 C-33.86895436 30.02800821 -33.27565707 26.60155316 -33.0625 22.5625 C-32.7467108 17.99966833 -31.99415323 15.56084559 -28.5 12.375 C-25.5 10.375 -25.5 10.375 -22.5 10.375 C-22.5 9.715 -22.5 9.055 -22.5 8.375 C-20.453125 6.9375 -20.453125 6.9375 -17.75 5.375 C-17.30914062 5.1171875 -17.30914062 5.1171875 -15.078125 3.8125 C-14.22734375 3.338125 -13.3765625 2.86375 -12.5 2.375 C-11.90703125 1.99085937 -11.3140625 1.60671875 -10.703125 1.2109375 C-7.21574631 -0.11228775 -3.68128042 -0.00762802 0 0 Z " fill="#7E4912" transform="translate(54.5,17.625)" />
<path d="M0 0 C6.64167015 0.063254 10.72753495 1.85633629 15.5 6.4375 C18.32910424 9.78302803 19.5768444 12.38088944 19.25 16.875 C19.0025 17.720625 18.755 18.56625 18.5 19.4375 C18.2525 18.90125 18.005 18.365 17.75 17.8125 C15.07218234 12.72464646 12.33775868 8.66267245 7.5 5.4375 C6.51 5.4375 5.52 5.4375 4.5 5.4375 C4.9021875 5.8190625 4.9021875 5.8190625 6.9375 7.75 C9.5 10.4375 9.5 10.4375 10.5 13.4375 C11.16 13.4375 11.82 13.4375 12.5 13.4375 C16.19236199 20.82222398 11.7162307 30.21027377 9.5 37.4375 C9.15456431 38.76774925 8.81459987 40.09962265 8.5 41.4375 C7.84 41.4375 7.18 41.4375 6.5 41.4375 C6.4484375 41.7984375 6.4484375 41.7984375 6.1875 43.625 C5.43206053 46.71543421 4.34468685 48.85493841 2.5 51.4375 C1.84 51.4375 1.18 51.4375 0.5 51.4375 C1.15192794 47.77206843 2.11790555 44.3782981 3.375 40.875 C3.70242187 39.94558594 4.02984375 39.01617187 4.3671875 38.05859375 C5.5 35.4375 5.5 35.4375 7.10546875 33.46875 C9.88665 29.4177297 9.11060255 24.13592591 8.5 19.4375 C6.5 16.3125 6.5 16.3125 4.5 14.4375 C4.5 13.7775 4.5 13.1175 4.5 12.4375 C0.75 10.4375 0.75 10.4375 -1.5 10.4375 C-0.695625 11.05625 0.10875 11.675 0.9375 12.3125 C3.71546928 14.61618184 4.37223822 15.32049701 4.7734375 18.828125 C5.05270575 26.69060034 5.05270575 26.69060034 2.1875 30.5625 C1.300625 31.51125 0.41375 32.46 -0.5 33.4375 C-1.359375 35.62109375 -1.359375 35.62109375 -2.0625 38 C-3.23020728 41.92953181 -4.78906347 44.31581551 -7.5 47.4375 C-8.16100259 48.6795452 -8.80624266 49.9300761 -9.4375 51.1875 C-11.5 54.4375 -11.5 54.4375 -13.77734375 55.34375 C-17.45900618 55.47052173 -19.09986272 54.23759303 -22.125 52.1875 C-23.06601562 51.56359375 -24.00703125 50.9396875 -24.9765625 50.296875 C-25.80929688 49.68328125 -26.64203125 49.0696875 -27.5 48.4375 C-27.81324219 48.21320313 -27.81324219 48.21320313 -29.3984375 47.078125 C-30.5 45.4375 -30.5 45.4375 -30.33984375 42.6953125 C-29.42619873 39.15121971 -28.29536323 35.7586637 -27.0625 32.3125 C-25.34984077 27.45132181 -24.14965108 22.89044304 -23.5 17.75 C-22.77614897 12.73666138 -22.77614897 12.73666138 -20.25 10 C-19.3425 9.484375 -18.435 8.96875 -17.5 8.4375 C-17.005 8.004375 -17.005 8.004375 -14.5 5.8125 C-11.79749126 3.67301391 -9.71754531 2.54065839 -6.5 1.4375 C-4.73812123 -0.32437877 -2.39690867 0.09987119 0 0 Z " fill="#EFD895" transform="translate(47.5,21.5625)" />
<path d="M0 0 C13.64052239 -0.36921715 13.64052239 -0.36921715 20 2 C20.35642578 2.11472656 20.35642578 2.11472656 22.16015625 2.6953125 C24.14443406 3.36023804 26.0782032 4.17163931 28 5 C28.33 5.99 28.66 6.98 29 8 C28.67 8.66 28.34 9.32 28 10 C25.9375 10.625 25.9375 10.625 24 11 C24.33 13.64 24.66 16.28 25 19 C28.3 18.67 31.6 18.34 35 18 C35.35791139 25.1582277 35.16826502 32.43786595 32 39 C29.68477109 40.68949137 27.6964354 41.52825731 24.9609375 42.3515625 C24.31382813 42.56554688 23.66671875 42.77953125 23 43 C22.67 43.66 22.34 44.32 22 45 C21.01 45 20.02 45 19 45 C18.67 46.32 18.34 47.64 18 49 C17.34 48.67 16.68 48.34 16 48 C16.34255481 39.91570657 17.99082663 32.4747704 20.0625 24.69921875 C22.31975974 15.79244804 22.31975974 15.79244804 20.5625 11.4375 C17.88332987 7.32761657 14.5544452 4.7932659 10 3 C6.3291033 2.34707371 2.72502153 2.07532213 -1 2 C-0.67 1.34 -0.34 0.68 0 0 Z " fill="#B1701E" transform="translate(44,20)" />
<path d="M0 0 C6.64167015 0.063254 10.72753495 1.85633629 15.5 6.4375 C18.32910424 9.78302803 19.5768444 12.38088944 19.25 16.875 C19.0025 17.720625 18.755 18.56625 18.5 19.4375 C18.2525 18.90125 18.005 18.365 17.75 17.8125 C15.07218234 12.72464646 12.33775868 8.66267245 7.5 5.4375 C6.51 5.4375 5.52 5.4375 4.5 5.4375 C4.9021875 5.8190625 4.9021875 5.8190625 6.9375 7.75 C9.5 10.4375 9.5 10.4375 10.5 13.4375 C11.16 13.4375 11.82 13.4375 12.5 13.4375 C16.19236199 20.82222398 11.7162307 30.21027377 9.5 37.4375 C9.15456431 38.76774925 8.81459987 40.09962265 8.5 41.4375 C7.84 41.4375 7.18 41.4375 6.5 41.4375 C6.396875 42.159375 6.29375 42.88125 6.1875 43.625 C5.43206053 46.71543421 4.34468685 48.85493841 2.5 51.4375 C1.84 51.4375 1.18 51.4375 0.5 51.4375 C1.15192794 47.77206843 2.11790555 44.3782981 3.375 40.875 C3.70242187 39.94558594 4.02984375 39.01617187 4.3671875 38.05859375 C5.5 35.4375 5.5 35.4375 7.10546875 33.46875 C9.88665 29.4177297 9.11060255 24.13592591 8.5 19.4375 C6.5 16.3125 6.5 16.3125 4.5 14.4375 C4.5 13.7775 4.5 13.1175 4.5 12.4375 C-0.23398415 9.80750881 -4.97471115 9.32517496 -10.3125 8.875 C-11.28832031 8.79121094 -12.26414063 8.70742188 -13.26953125 8.62109375 C-14.00558594 8.56050781 -14.74164063 8.49992187 -15.5 8.4375 C-12.82187053 4.66828075 -10.90524374 2.8662277 -6.5 1.4375 C-4.73812123 -0.32437877 -2.39690867 0.09987119 0 0 Z " fill="#CFAF73" transform="translate(47.5,21.5625)" />
<path d="M0 0 C3.17852316 1.64448689 5.37801764 3.75603527 7 7 C7.50187235 11.38779823 8.00725149 15.98549703 5.98828125 20.0234375 C3.86239538 22.64089458 2.20868631 23.9304379 -1 25 C-3.125 24.5 -3.125 24.5 -5 23 C-6.42682927 16.85365854 -6.42682927 16.85365854 -5 14 C-6.32 13.01 -7.64 12.02 -9 11 C-9.33 11.66 -9.66 12.32 -10 13 C-10 12.34 -10 11.68 -10 11 C-11.65 11 -13.3 11 -15 11 C-14.34 10.01 -13.68 9.02 -13 8 C-12.92094936 5.66800612 -12.91201231 3.33167378 -13 1 C-9.03716439 -0.98141781 -4.30789762 -0.55820645 0 0 Z " fill="#EEDC9D" transform="translate(45,31)" />
<path d="M0 0 C4.87737336 0.41806057 6.8149909 2.4066564 10 6 C10.763125 6.680625 11.52625 7.36125 12.3125 8.0625 C15.05788659 12.84150629 14.83144965 17.6340056 14 23 C12.94897166 25.29597335 11.74508155 27.15023683 10.24609375 29.17578125 C8.34430248 31.95990828 7.74797174 34.73612331 7 38 C6.67 36.68 6.34 35.36 6 34 C5.34 34 4.68 34 4 34 C3.87625 34.350625 3.87625 34.350625 3.25 36.125 C1.04127679 41.20506338 -1.95098617 45.24020144 -6 49 C-7.32 48.34 -8.64 47.68 -10 47 C-9.505 46.835 -9.505 46.835 -7 46 C-6.29289322 44.35008418 -5.63437344 42.6792238 -5 41 C-4.360625 40.05125 -3.72125 39.1025 -3.0625 38.125 C-0.90604764 34.85764793 0.49251659 31.60485164 2 28 C3.38124703 25.52526574 4.70822342 23.33700195 6.5625 21.1953125 C9.19078218 17.18146852 8.74643652 12.60873192 8 8 C5.6875 5 5.6875 5 3 3 C2 2 1 1 0 0 Z " fill="#A06D28" transform="translate(43,30)" />
<path d="M0 0 C0.33 1.32 0.66 2.64 1 4 C4.3 3.67 7.6 3.34 11 3 C11.35791139 10.1582277 11.16826502 17.43786595 8 24 C5.68477109 25.68949137 3.6964354 26.52825731 0.9609375 27.3515625 C0.31382813 27.56554687 -0.33328125 27.77953125 -1 28 C-1.33 28.66 -1.66 29.32 -2 30 C-2.99 30 -3.98 30 -5 30 C-5.33 31.32 -5.66 32.64 -6 34 C-6.66 33.34 -7.32 32.68 -8 32 C-7.34 30.68 -6.68 29.36 -6 28 C-5.01 28 -4.02 28 -3 28 C-2.87625 27.05125 -2.7525 26.1025 -2.625 25.125 C-2 22 -2 22 0 20 C0.38133299 18.0085944 0.71325582 16.00720923 1 14 C1.33 13.01 1.66 12.02 2 11 C1.690625 10.4225 1.38125 9.845 1.0625 9.25 C-0.40978898 6.13221157 -0.13077327 3.40010497 0 0 Z " fill="#A25F10" transform="translate(68,35)" />
<path d="M0 0 C5.56450647 0.13911266 8.30281329 2.57286226 12.265625 6.11328125 C15.86723565 10.0312496 16.37171489 13.28395536 16.26171875 18.4453125 C15.88008348 22.17052842 14.86792548 25.62237563 13.80078125 29.203125 C12.59474104 33.41544104 11.79394384 37.69402226 11 42 C9.68 41.67 8.36 41.34 7 41 C6.7525 41.969375 6.505 42.93875 6.25 43.9375 C5.8375 44.948125 5.425 45.95875 5 47 C4.34 47.165 4.34 47.165 1 48 C2.32 44.7 3.64 41.4 5 38 C5.66 38 6.32 38 7 38 C7.0515625 37.3503125 7.0515625 37.3503125 7.3125 34.0625 C7.67422862 30.65799534 8.35187561 27.76037576 9.5625 24.5625 C11.33777346 19.6848069 11.28944213 15.13491783 11 10 C10.34 10 9.68 10 9 10 C8.7525 9.21625 8.505 8.4325 8.25 7.625 C6.79859234 4.57704392 6.00449293 4.27463336 3 3 C1.25 1.375 1.25 1.375 0 0 Z " fill="#875714" transform="translate(49,25)" />
<path d="M0 0 C0.40041504 0.00080566 0.40041504 0.00080566 2.42675781 0.00488281 C11.66382416 0.19399979 20.23357315 2.48330256 27.5 8.375 C29.03266582 11.44033164 28.60276471 14.64254272 28.5625 18 C28.55798828 18.70640625 28.55347656 19.4128125 28.54882812 20.140625 C28.53703875 21.88545275 28.51910324 23.630237 28.5 25.375 C28.17 25.375 27.84 25.375 27.5 25.375 C27.37882812 24.39917969 27.25765625 23.42335938 27.1328125 22.41796875 C27.04902344 21.78181641 27.04902344 21.78181641 26.625 18.5625 C26.46257812 17.29792969 26.30015625 16.03335938 26.1328125 14.73046875 C25.5 11.375 25.5 11.375 23.5 8.375 C21.375 7.6875 21.375 7.6875 19.5 7.375 C19.5 6.715 19.5 6.055 19.5 5.375 C-3.94886005 2.22976368 -3.94886005 2.22976368 -10.5 3.375 C-12.703125 5.3359375 -12.703125 5.3359375 -14.5 7.375 C-16.16072849 8.05632451 -17.827767 8.72242127 -19.5 9.375 C-21.20250393 10.66225907 -22.87064759 11.99631719 -24.5 13.375 C-25.17933594 13.766875 -25.85867187 14.15875 -26.55859375 14.5625 C-29.39102127 17.20685889 -29.41507401 19.65472203 -30 23.4375 C-31.07783519 29.80806922 -32.78158169 35.51039198 -35.5 41.375 C-36.65461134 37.91116599 -36.30240708 37.20198514 -35.125 33.875 C-33.86895436 30.02800821 -33.27565707 26.60155316 -33.0625 22.5625 C-32.7467108 17.99966833 -31.99415323 15.56084559 -28.5 12.375 C-25.5 10.375 -25.5 10.375 -22.5 10.375 C-22.5 9.715 -22.5 9.055 -22.5 8.375 C-20.453125 6.9375 -20.453125 6.9375 -17.75 5.375 C-17.30914062 5.1171875 -17.30914062 5.1171875 -15.078125 3.8125 C-14.22734375 3.338125 -13.3765625 2.86375 -12.5 2.375 C-11.90703125 1.99085937 -11.3140625 1.60671875 -10.703125 1.2109375 C-7.21574631 -0.11228775 -3.68128042 -0.00762802 0 0 Z " fill="#594217" transform="translate(54.5,17.625)" />
<path d="M0 0 C0.8125 1.6875 0.8125 1.6875 1 4 C-2.91334163 9.31096364 -9.00073026 12.48306499 -15 15 C-17.33302989 15.03762951 -19.66713319 15.04665734 -22 15 C-22.78375 15.804375 -23.5675 16.60875 -24.375 17.4375 C-27.68006476 20.66387274 -29.50519966 20.45386368 -33.9296875 20.6875 C-36.88511482 21.13360224 -38.01091733 22.87373921 -40 25 C-45.48451744 26.30583749 -49.30730702 23.37960705 -53.828125 20.60546875 C-56 19 -56 19 -58 16 C-54.32859735 17.33505551 -51.141034 19.03685375 -47.84375 21.09765625 C-45.6041959 22.19370921 -43.45016774 22.59303721 -41 23 C-39.87162591 21.41906946 -38.74743482 19.83515284 -37.625 18.25 C-36.99851562 17.36828125 -36.37203125 16.4865625 -35.7265625 15.578125 C-34.28519059 13.42585021 -33.08501907 11.34539477 -32 9 C-31.34 9 -30.68 9 -30 9 C-30.33 11.97 -30.66 14.94 -31 18 C-28.6875 17.875 -28.6875 17.875 -26 17 C-24.1875 13.9375 -24.1875 13.9375 -23 11 C-20.83125748 11.50603992 -19.00032373 11.99983813 -17 13 C-14.41093711 11.87767687 -11.98337378 10.69791874 -9.5 9.375 C-8.81035156 9.03082031 -8.12070313 8.68664063 -7.41015625 8.33203125 C-4.07525314 6.5703183 -2.33574124 5.63397946 -0.53125 2.2265625 C-0.3559375 1.49179687 -0.180625 0.75703125 0 0 Z " fill="#593A0D" transform="translate(79,55)" />
<path d="M0 0 C2 2 2 2 2 5 C3.65 5.33 5.3 5.66 7 6 C7 7.32 7 8.64 7 10 C6.34 10 5.68 10 5 10 C5 10.66 5 11.32 5 12 C8 12 8 12 10 11.5 C12 11 12 11 15 11 C15 11.99 15 12.98 15 14 C16.32 13.01 17.64 12.02 19 11 C19.66 11.33 20.32 11.66 21 12 C17.70296685 18.71617863 17.70296685 18.71617863 14.70703125 19.92578125 C11.04319899 20.02623264 9.38569999 18.79030909 6.375 16.75 C5.43398438 16.12609375 4.49296875 15.5021875 3.5234375 14.859375 C-0.49642005 11.8973747 -0.49642005 11.8973747 -2 10 C-1.75 7.0625 -1.75 7.0625 -1 4 C-0.814375 3.21625 -0.62875 2.4325 -0.4375 1.625 C-0.293125 1.08875 -0.14875 0.5525 0 0 Z " fill="#E0BF76" transform="translate(19,57)" />
<path d="M0 0 C5.73842251 -0.20413361 10.60539047 -0.27141454 16 2 C16 2.66 16 3.32 16 4 C16.763125 4.020625 17.52625 4.04125 18.3125 4.0625 C21 5 21 5 22.75 7.75 C25.69898718 15.92290733 25.72395202 24.82814394 23 33 C22.67 33 22.34 33 22 33 C22.33 27.06 22.66 21.12 23 15 C21.02 15 19.04 15 17 15 C17 13.68 17 12.36 17 11 C14.36 10.67 11.72 10.34 9 10 C9.33 9.34 9.66 8.68 10 8 C11.32 8.33 12.64 8.66 14 9 C14 7.68 14 6.36 14 5 C9.29593201 3.13459373 5.05255964 1.63156995 0 1 C0 0.67 0 0.34 0 0 Z " fill="#69380B" transform="translate(58,21)" />
<path d="M0 0 C13.64052239 -0.36921715 13.64052239 -0.36921715 20 2 C20.35642578 2.11472656 20.35642578 2.11472656 22.16015625 2.6953125 C24.14443406 3.36023804 26.0782032 4.17163931 28 5 C28.33 5.99 28.66 6.98 29 8 C28.67 8.66 28.34 9.32 28 10 C22.65775389 10.57238351 19.95129945 10.38249903 15.625 7.0625 C14.41535688 6.04321905 13.20679097 5.0226562 12 4 C9.43106162 2.71553081 7.23423663 2.67022856 4.375 2.4375 C3.37210938 2.35371094 2.36921875 2.26992188 1.3359375 2.18359375 C0.56507812 2.12300781 -0.20578125 2.06242187 -1 2 C-0.67 1.34 -0.34 0.68 0 0 Z " fill="#926E36" transform="translate(44,20)" />
<path d="M0 0 C2 2 2 2 2.375 5.25 C2.24410466 11.72336953 -0.11894508 17.86579681 -2 24 C-2.34543569 25.33024925 -2.68540013 26.66212265 -3 28 C-3.66 28 -4.32 28 -5 28 C-5.103125 28.721875 -5.20625 29.44375 -5.3125 30.1875 C-6.06793947 33.27793421 -7.15531315 35.41743841 -9 38 C-9.66 38 -10.32 38 -11 38 C-10.34807206 34.33456843 -9.38209445 30.9407981 -8.125 27.4375 C-7.79757813 26.50808594 -7.47015625 25.57867187 -7.1328125 24.62109375 C-6 22 -6 22 -4.41015625 19.95703125 C-2.7298363 17.62506367 -2.52144067 16.09159315 -2.3125 13.25 C-2.24675781 12.45078125 -2.18101563 11.6515625 -2.11328125 10.828125 C-2.07589844 10.22484375 -2.03851563 9.6215625 -2 9 C-1.67 9 -1.34 9 -1 9 C-0.67 6.03 -0.34 3.06 0 0 Z " fill="#BE8C43" transform="translate(59,35)" />
<path d="M0 0 C12.65715819 -0.53987879 24.65215753 -0.39014254 35 8 C36.53266582 11.06533164 36.10276471 14.26754272 36.0625 17.625 C36.05798828 18.33140625 36.05347656 19.0378125 36.04882812 19.765625 C36.03703875 21.51045275 36.01910324 23.255237 36 25 C35.67 25 35.34 25 35 25 C34.87882812 24.02417969 34.75765625 23.04835938 34.6328125 22.04296875 C34.54902344 21.40681641 34.54902344 21.40681641 34.125 18.1875 C33.96257812 16.92292969 33.80015625 15.65835938 33.6328125 14.35546875 C33 11 33 11 31 8 C28.875 7.3125 28.875 7.3125 27 7 C27 6.34 27 5.68 27 5 C26.2886792 4.91959473 25.5773584 4.83918945 24.84448242 4.75634766 C21.62446447 4.38760918 18.40603508 4.00645601 15.1875 3.625 C14.62772461 3.56183594 14.62772461 3.56183594 11.79492188 3.2421875 C10.72177734 3.11328125 9.64863281 2.984375 8.54296875 2.8515625 C7.55321045 2.73635254 6.56345215 2.62114258 5.54370117 2.50244141 C3 2 3 2 0 0 Z " fill="#4A2908" transform="translate(47,18)" />
<path d="M0 0 C0.40863281 0.00451172 0.40863281 0.00451172 2.4765625 0.02734375 C2.78980469 0.03314453 2.78980469 0.03314453 4.375 0.0625 C4.375 1.3825 4.375 2.7025 4.375 4.0625 C3.715 4.7225 3.055 5.3825 2.375 6.0625 C2.375 5.4025 2.375 4.7425 2.375 4.0625 C1.385 5.0525 0.395 6.0425 -0.625 7.0625 C0.365 7.0625 1.355 7.0625 2.375 7.0625 C2.705 8.0525 3.035 9.0425 3.375 10.0625 C2.055 9.7325 0.735 9.4025 -0.625 9.0625 C-1.615 10.3825 -2.605 11.7025 -3.625 13.0625 C-3.625 12.4025 -3.625 11.7425 -3.625 11.0625 C-5.275 11.0625 -6.925 11.0625 -8.625 11.0625 C-7.965 10.0725 -7.305 9.0825 -6.625 8.0625 C-6.54594936 5.73050612 -6.53701231 3.39417378 -6.625 1.0625 C-4.21954362 -0.14022819 -2.67503047 -0.03821472 0 0 Z " fill="#F9E4A7" transform="translate(38.625,30.9375)" />
<path d="M0 0 C0.33 0 0.66 0 1 0 C0.67 2.31 0.34 4.62 0 7 C0.66 7 1.32 7 2 7 C2.33 6.34 2.66 5.68 3 5 C3.99 5.33 4.98 5.66 6 6 C6 6.99 6 7.98 6 9 C4.68 9 3.36 9 2 9 C2.99 9.66 3.98 10.32 5 11 C4.67 11.33 4.34 11.66 4 12 C4.99 12.33 5.98 12.66 7 13 C5.25 18.75 5.25 18.75 3 21 C2.67 19.68 2.34 18.36 2 17 C0.68 16.67 -0.64 16.34 -2 16 C-3.43680971 9.86090397 -2.32637691 5.79622721 0 0 Z " fill="#EFD68E" transform="translate(23,46)" />
<path d="M0 0 C0 3 0 3 -1 4.75 C-2 7 -2 7 -1.75 10.1875 C-2.19802629 17.01990096 -6.96786753 22.5484982 -12 27 C-13.32 26.34 -14.64 25.68 -16 25 C-15.01 24.67 -14.02 24.34 -13 24 C-12.29289322 22.35008418 -11.63437344 20.6792238 -11 19 C-10.360625 18.05125 -9.72125 17.1025 -9.0625 16.125 C-6.90604764 12.85764793 -5.50748341 9.60485164 -4 6 C-1.4 1.4 -1.4 1.4 0 0 Z " fill="#B68337" transform="translate(49,52)" />
<path d="M0 0 C4.87737336 0.41806057 6.8149909 2.4066564 10 6 C10.763125 6.680625 11.52625 7.36125 12.3125 8.0625 C15.05772572 12.84122626 14.83287474 17.63489858 14 23 C12.6820615 25.99831008 11.00933691 28.43068396 9 31 C8.67 31.66 8.34 32.32 8 33 C7.34 33 6.68 33 6 33 C6.52268466 30.23723823 7.10869587 27.6739124 8 25 C8.66 25 9.32 25 10 25 C10.99 22.03 11.98 19.06 13 16 C12.34 16 11.68 16 11 16 C10.608125 14.783125 10.21625 13.56625 9.8125 12.3125 C8.29712396 8.24755764 6.29012065 5.87885557 3 3 C2 2 1 1 0 0 Z " fill="#6F4509" transform="translate(43,30)" />
<path d="M0 0 C0.8125 1.6875 0.8125 1.6875 1 4 C-2.91334163 9.31096364 -9.00073026 12.48306499 -15 15 C-17.33302989 15.03762951 -19.66713319 15.04665734 -22 15 C-22.825 15.825 -23.65 16.65 -24.5 17.5 C-27 20 -27 20 -30.8125 20.3125 C-31.864375 20.209375 -32.91625 20.10625 -34 20 C-34 19.67 -34 19.34 -34 19 C-32.741875 18.79375 -31.48375 18.5875 -30.1875 18.375 C-26.51890422 17.49193978 -26.17283915 17.27006117 -24 13.875 C-23.67 12.92625 -23.34 11.9775 -23 11 C-20.83125748 11.50603992 -19.00032373 11.99983813 -17 13 C-14.41093711 11.87767687 -11.98337378 10.69791874 -9.5 9.375 C-8.81035156 9.03082031 -8.12070313 8.68664063 -7.41015625 8.33203125 C-4.07525314 6.5703183 -2.33574124 5.63397946 -0.53125 2.2265625 C-0.3559375 1.49179687 -0.180625 0.75703125 0 0 Z " fill="#512E08" transform="translate(79,55)" />
<path d="M0 0 C3.375 0.3125 3.375 0.3125 7 1 C7.66 1.99 8.32 2.98 9 4 C11.125 4.6875 11.125 4.6875 13 5 C12.67 7.31 12.34 9.62 12 12 C11.67 12 11.34 12 11 12 C11 10.35 11 8.7 11 7 C7.7 7.33 4.4 7.66 1 8 C0.67 5.36 0.34 2.72 0 0 Z " fill="#844707" transform="translate(68,31)" />
<path d="M0 0 C3.46941546 0.45822468 6.67395049 0.89131683 10 2 C9.74445946 3.46109063 9.46999628 4.91888096 9.1875 6.375 C9.03667969 7.18710937 8.88585938 7.99921875 8.73046875 8.8359375 C8 11 8 11 5 13 C4.67 10.36 4.34 7.72 4 5 C2.68 4.67 1.36 4.34 0 4 C0 2.68 0 1.36 0 0 Z " fill="#E9CF84" transform="translate(36,53)" />
<path d="M0 0 C11.30975009 -0.40232313 11.30975009 -0.40232313 16 2 C17.9375 4.375 17.9375 4.375 19 7 C18.67 8.32 18.34 9.64 18 11 C15.03 10.67 12.06 10.34 9 10 C9.33 9.34 9.66 8.68 10 8 C11.32 8.33 12.64 8.66 14 9 C14 7.68 14 6.36 14 5 C9.29593201 3.13459373 5.05255964 1.63156995 0 1 C0 0.67 0 0.34 0 0 Z " fill="#7F491D" transform="translate(58,21)" />
<path d="M0 0 C5.19591612 0.44033187 8.66335081 0.88303339 13 4 C12.67 5.32 12.34 6.64 12 8 C8.76761586 7.92303847 6.66772205 7.62561345 4.265625 5.375 C2.78148327 3.62229929 1.36155666 1.84920638 0 0 Z " fill="#8E5628" transform="translate(60,22)" />
<path d="M0 0 C6.93678364 -0.78201736 11.44758714 -0.02021359 17.078125 4.22265625 C20.07372647 6.99297875 21.4964917 9.17288797 23 13 C22.75 16.4375 22.75 16.4375 22 19 C20.7457733 16.67072184 19.86984481 14.55375363 19.125 12 C17.35855106 7.2894695 15.13082619 5.57608127 10.6875 3.3125 C7.07726852 2.02750235 3.80275301 1.38803602 0 1 C0 0.67 0 0.34 0 0 Z " fill="#F4D291" transform="translate(44,22)" />
<path d="M0 0 C0.90105469 0.01804687 1.80210938 0.03609375 2.73046875 0.0546875 C3.41753906 0.07789062 4.10460938 0.10109375 4.8125 0.125 C4.8125 0.455 4.8125 0.785 4.8125 1.125 C2.1725 1.455 -0.4675 1.785 -3.1875 2.125 C-2.8575 4.105 -2.5275 6.085 -2.1875 8.125 C-2.80625 7.939375 -3.425 7.75375 -4.0625 7.5625 C-6.1875 7.125 -6.1875 7.125 -8.1875 8.125 C-8.1875 7.465 -8.1875 6.805 -8.1875 6.125 C-8.8475 6.125 -9.5075 6.125 -10.1875 6.125 C-7.96735818 1.00159579 -5.45984177 -0.14181407 0 0 Z " fill="#E7D091" transform="translate(35.1875,29.875)" />
<path d="M0 0 C0.66 0.33 1.32 0.66 2 1 C1.61330541 7.96050253 -0.63438409 12.9394075 -4 19 C-4.99 18.67 -5.98 18.34 -7 18 C-5.68 15.03 -4.36 12.06 -3 9 C-2.34 9 -1.68 9 -1 9 C-0.67 6.03 -0.34 3.06 0 0 Z " fill="#9F6822" transform="translate(57,54)" />
<path d="M0 0 C0.66 0.33 1.32 0.66 2 1 C-1.02454666 13.24834144 -1.02454666 13.24834144 -4 17 C-4.66 17 -5.32 17 -6 17 C-5.34331435 13.25141943 -4.3123267 9.82030057 -3 6.25 C-2.8246875 5.76789062 -2.8246875 5.76789062 -1.9375 3.328125 C-1 1 -1 1 0 0 Z " fill="#D2AD65" transform="translate(54,56)" />
<path d="M0 0 C1.32 0 2.64 0 4 0 C4.66 1.32 5.32 2.64 6 4 C5.01 4.33 4.02 4.66 3 5 C3.20625 5.5775 3.4125 6.155 3.625 6.75 C4.08661261 9.51967567 3.42944945 10.64561267 2 13 C1.34 12.67 0.68 12.34 0 12 C0 8.04 0 4.08 0 0 Z " fill="#FAE6AC" transform="translate(25,36)" />
<path d="M0 0 C0.99 0 1.98 0 3 0 C3.12375 0.61875 3.2475 1.2375 3.375 1.875 C4 4 4 4 6 6 C3.69 7.65 1.38 9.3 -1 11 C-1.66 10.67 -2.32 10.34 -3 10 C-2.34 9.01 -1.68 8.02 -1 7 C-1.99 7 -2.98 7 -4 7 C-4.33 7.66 -4.66 8.32 -5 9 C-5.33 7.68 -5.66 6.36 -6 5 C-3.69 5 -1.38 5 1 5 C0.67 3.35 0.34 1.7 0 0 Z " fill="#E8CE87" transform="translate(35,61)" />
<path d="M0 0 C3.2645028 3.2645028 3.93236055 7.41047299 4.125 11.9375 C4.08375 12.618125 4.0425 13.29875 4 14 C1.53199953 12.84826645 -0.04783565 11.95216435 -2 10 C-1.62916167 6.5882874 -0.89141824 3.31098205 0 0 Z " fill="#D5B877" transform="translate(19,57)" />
<path d="M0 0 C5.08174565 -0.17523261 9.32069904 -0.28258584 14 2 C14.33 3.32 14.66 4.64 15 6 C13.515 5.67 13.515 5.67 6 4 C6 3.34 6 2.68 6 2 C5.01 1.835 5.01 1.835 0 1 C0 0.67 0 0.34 0 0 Z " fill="#F2D89A" transform="translate(38,26)" />
<path d="M0 0 C0.33 0 0.66 0 1 0 C0.67 2.31 0.34 4.62 0 7 C0.66 7 1.32 7 2 7 C2.33 6.34 2.66 5.68 3 5 C3.99 5.33 4.98 5.66 6 6 C6 6.99 6 7.98 6 9 C4.68 9 3.36 9 2 9 C1.67 9.66 1.34 10.32 1 11 C-0.32 11 -1.64 11 -3 11 C-2.01 7.37 -1.02 3.74 0 0 Z " fill="#E2CA89" transform="translate(23,46)" />
<path d="M0 0 C4.8665386 0.41713188 6.79230533 2.45465326 10 6 C10.61875 6.495 11.2375 6.99 11.875 7.5 C13 9 13 9 12.6875 11.6875 C12.460625 12.450625 12.23375 13.21375 12 14 C10 13 10 13 8.8125 9.75 C7.02287916 5.22002226 4.01896162 3.5782018 0 1 C0 0.67 0 0.34 0 0 Z " fill="#6B4A12" transform="translate(43,30)" />
<path d="M0 0 C0.33 0 0.66 0 1 0 C0.99419922 0.30164062 0.99419922 0.30164062 0.96484375 1.828125 C0.95582031 2.62734375 0.94679687 3.4265625 0.9375 4.25 C0.92589844 5.03890625 0.91429687 5.8278125 0.90234375 6.640625 C0.99614694 8.90691002 1.36758937 10.8288895 2 13 C1.01 13 0.02 13 -1 13 C-1.66 14.32 -2.32 15.64 -3 17 C-2.54775239 11.08507728 -1.8417395 5.64800112 0 0 Z " fill="#CDA25C" transform="translate(63,50)" />
<path d="M0 0 C2.55573817 2.55573817 2.35498461 3.69698427 2.4375 7.25 C2.39033111 11.23839189 2.10270448 13.61291708 -0.5 16.6875 C-1.325 17.450625 -2.15 18.21375 -3 19 C-3.66 18.34 -4.32 17.68 -5 17 C-4.1875 15.0625 -4.1875 15.0625 -3 13 C-2.01 12.67 -1.02 12.34 0 12 C0 8.04 0 4.08 0 0 Z " fill="#E7C27C" transform="translate(50,36)" />
<path d="M0 0 C1.32 0.66 2.64 1.32 4 2 C3.34 3.65 2.68 5.3 2 7 C2.66 7 3.32 7 4 7 C3.67 8.65 3.34 10.3 3 12 C2.67 10.68 2.34 9.36 2 8 C1.01 8 0.02 8 -1 8 C-0.67 5.36 -0.34 2.72 0 0 Z " fill="#956825" transform="translate(47,56)" />
<path d="M0 0 C0.5775 0.37125 1.155 0.7425 1.75 1.125 C1.2034375 1.2590625 1.2034375 1.2590625 -1.5625 1.9375 C-5.10209598 3.07736989 -5.9032819 3.5649439 -8.25 6.125 C-9.89551962 6.84227778 -11.56422289 7.50825228 -13.25 8.125 C-14.59050052 8.77713539 -15.92661368 9.43879969 -17.25 10.125 C-15.99677706 6.36533117 -14.8105772 5.99350027 -11.4375 4.0625 C-10.56480469 3.55589844 -9.69210938 3.04929687 -8.79296875 2.52734375 C-7.95378906 2.06457031 -7.11460938 1.60179687 -6.25 1.125 C-5.52941406 0.71636719 -4.80882812 0.30773437 -4.06640625 -0.11328125 C-2.25 -0.875 -2.25 -0.875 0 0 Z " fill="#53380E" transform="translate(48.25,18.875)" />
<path d="M0 0 C1.9375 0.375 1.9375 0.375 4 1 C5.26237731 3.52475462 5.09856404 5.31200466 5.0625 8.125 C5.05347656 9.03507812 5.04445313 9.94515625 5.03515625 10.8828125 C5.02355469 11.58148438 5.01195312 12.28015625 5 13 C4.34 12.67 3.68 12.34 3 12 C3 9.36 3 6.72 3 4 C2.01 4 1.02 4 0 4 C0 2.68 0 1.36 0 0 Z " fill="#F4D798" transform="translate(54,32)" />
<path d="M0 0 C0.66 0 1.32 0 2 0 C3.28282363 2.56564725 3.20391953 4.51033069 3.25 7.375 C3.26289062 7.85324219 3.26289062 7.85324219 3.328125 10.2734375 C2.95439914 13.37892147 2.06626291 14.70536066 0 17 C0.09539062 16.26394531 0.19078125 15.52789062 0.2890625 14.76953125 C0.39992188 13.79371094 0.51078125 12.81789063 0.625 11.8125 C0.74101563 10.84957031 0.85703125 9.88664062 0.9765625 8.89453125 C1.00194942 5.75924677 0.34359283 3.80513465 -1 1 C-0.67 0.67 -0.34 0.34 0 0 Z " fill="#BC8C46" transform="translate(65,29)" />
<path d="M0 0 C0.66 0.66 1.32 1.32 2 2 C1.64644564 4.26274788 1.02455574 5.95088852 0 8 C-0.99 8 -1.98 8 -3 8 C-3.33 9.32 -3.66 10.64 -4 12 C-4.66 11.34 -5.32 10.68 -6 10 C-5.34 8.68 -4.68 7.36 -4 6 C-3.01 6 -2.02 6 -1 6 C-0.67 4.02 -0.34 2.04 0 0 Z " fill="#A2641E" transform="translate(66,57)" />
<path d="M0 0 C1.65 0 3.3 0 5 0 C4.74445946 1.46109063 4.46999628 2.91888096 4.1875 4.375 C4.03667969 5.18710937 3.88585938 5.99921875 3.73046875 6.8359375 C3 9 3 9 0 11 C0 9.35 0 7.7 0 6 C0.99 5.67 1.98 5.34 3 5 C3 4.01 3 3.02 3 2 C2.01 2 1.02 2 0 2 C0 1.34 0 0.68 0 0 Z " fill="#EBCA77" transform="translate(41,55)" />
<path d="M0 0 C3.01657791 0.14030595 5.23841273 0.29351465 7.51171875 2.40234375 C8.73256066 3.88904235 9.87246522 5.44134898 11 7 C10.67 7.66 10.34 8.32 10 9 C9.01 8.34 8.02 7.68 7 7 C7 6.34 7 5.68 7 5 C6.401875 4.731875 5.80375 4.46375 5.1875 4.1875 C3.02775192 3.01506533 1.64209744 1.80630718 0 0 Z " fill="#704B11" transform="translate(49,25)" />
<path d="M0 0 C0.33 0 0.66 0 1 0 C1 3.63 1 7.26 1 11 C1.99 11.33 2.98 11.66 4 12 C4 12.99 4 13.98 4 15 C2.35 15.33 0.7 15.66 -1 16 C-0.67 10.72 -0.34 5.44 0 0 Z " fill="#E7CF93" transform="translate(24,37)" />
<path d="M0 0 C1.78409802 3.06246747 2.22880021 5.22079273 2.125 8.75 C2.10695313 9.54921875 2.08890625 10.3484375 2.0703125 11.171875 C2.04710938 11.77515625 2.02390625 12.3784375 2 13 C1.01 13 0.02 13 -1 13 C-1.02696365 11.20841511 -1.04637917 9.41671527 -1.0625 7.625 C-1.07410156 6.62726562 -1.08570313 5.62953125 -1.09765625 4.6015625 C-1 2 -1 2 0 0 Z " fill="#BE8638" transform="translate(64,46)" />
<path d="M0 0 C0.33 0 0.66 0 1 0 C1 2.97 1 5.94 1 9 C0.34 9 -0.32 9 -1 9 C-1.66 9.66 -2.32 10.32 -3 11 C-4.09658936 7.71023192 -3.79953138 6.28696233 -3 3 C-2.01 3.33 -1.02 3.66 0 4 C0 2.68 0 1.36 0 0 Z " fill="#A46F20" transform="translate(64,37)" />
<path d="M0 0 C5.73842251 -0.20413361 10.60539047 -0.27141454 16 2 C16 2.66 16 3.32 16 4 C10.63486869 3.152874 5.3212615 2.08318169 0 1 C0 0.67 0 0.34 0 0 Z " fill="#683715" transform="translate(58,21)" />
<path d="M0 0 C0.66 0 1.32 0 2 0 C1.67 2.97 1.34 5.94 1 9 C1.99 9.33 2.98 9.66 4 10 C2.68 10 1.36 10 0 10 C-2.21538462 4.58461538 -2.21538462 4.58461538 -1.125 1.625 C-0.75375 1.08875 -0.3825 0.5525 0 0 Z " fill="#6F4F16" transform="translate(47,64)" />
<path d="M0 0 C0.99 0.33 1.98 0.66 3 1 C1.68 3.31 0.36 5.62 -1 8 C-1.99 7.67 -2.98 7.34 -4 7 C-2.92598892 4.08482708 -2.22189824 2.22189824 0 0 Z " fill="#AC712C" transform="translate(44,65)" />
<path d="M0 0 C3 1 3 1 4 3 C4.13415472 5.6723621 4.04318541 8.32250488 4 11 C3.67 11.165 3.67 11.165 2 12 C2 10.02 2 8.04 2 6 C1.34 5.67 0.68 5.34 0 5 C0.66 5 1.32 5 2 5 C2 4.01 2 3.02 2 2 C1.34 2 0.68 2 0 2 C0 1.34 0 0.68 0 0 Z " fill="#FDE7A5" transform="translate(47,37)" />
<path d="M0 0 C-2.26568725 2.26568725 -3.43233985 2.55280451 -6.5 3.25 C-7.2940625 3.44078125 -8.088125 3.6315625 -8.90625 3.828125 C-9.5971875 3.88484375 -10.288125 3.9415625 -11 4 C-11.66 3.34 -12.32 2.68 -13 2 C-8.11922548 -0.44038726 -5.47332932 -1.46845421 0 0 Z " fill="#736143" transform="translate(74,68)" />
<path d="M0 0 C0.33 0 0.66 0 1 0 C0.52060632 4.71403788 0.03165952 8.66579301 -2 13 C-2.33 13 -2.66 13 -3 13 C-3 10.69 -3 8.38 -3 6 C-2.34 6 -1.68 6 -1 6 C-0.67 4.02 -0.34 2.04 0 0 Z " fill="#776847" transform="translate(21,41)" />
<path d="M0 0 C0.33 0 0.66 0 1 0 C1 3.63 1 7.26 1 11 C0.34 11 -0.32 11 -1 11 C-1.33 11.99 -1.66 12.98 -2 14 C-1.03644647 4.58997722 -1.03644647 4.58997722 0 0 Z " fill="#8F5519" transform="translate(80,38)" />
<path d="M0 0 C3.3 0.66 6.6 1.32 10 2 C9.67 2.66 9.34 3.32 9 4 C5.37 3.67 1.74 3.34 -2 3 C-1.34 2.01 -0.68 1.02 0 0 Z " fill="#AB8E4B" transform="translate(34,27)" />
<path d="M0 0 C3.36720387 1.39332574 4.9859524 2.9789286 7 6 C4 6 4 6 1.3125 3.5 C0.549375 2.675 -0.21375 1.85 -1 1 C-0.67 0.67 -0.34 0.34 0 0 Z " fill="#A97C3A" transform="translate(59,23)" />
<path d="M0 0 C-1.75 5.75 -1.75 5.75 -4 8 C-4.33 5.69 -4.66 3.38 -5 1 C-3 0 -3 0 0 0 Z " fill="#E5CC81" transform="translate(30,59)" />
<path d="M0 0 C0.66 0 1.32 0 2 0 C2 0.66 2 1.32 2 2 C2.99 2 3.98 2 5 2 C5 3.32 5 4.64 5 6 C4.01 6 3.02 6 2 6 C0 3 0 3 0 0 Z " fill="#F9E9B5" transform="translate(32,32)" />
<path d="M0 0 C0.33 0.99 0.66 1.98 1 3 C-1.8125 4.5625 -1.8125 4.5625 -5 6 C-5.99 5.67 -6.98 5.34 -8 5 C-5.36 3.35 -2.72 1.7 0 0 Z " fill="#756143" transform="translate(78,61)" />
<path d="M0 0 C3.69806223 0.50428121 7.34514648 1.24753016 11 2 C11 2.33 11 2.66 11 3 C2.42857143 3.28571429 2.42857143 3.28571429 -1 1 C-0.67 0.67 -0.34 0.34 0 0 Z " fill="#746342" transform="translate(27,78)" />
<path d="M0 0 C1.25541557 3.76624671 0.37061958 5.37188934 -1 9 C-1.66 9 -2.32 9 -3 9 C-2.44271087 5.65626525 -1.64826111 2.96687001 0 0 Z " fill="#DCBA75" transform="translate(51,64)" />
</svg>