<?xml version='1.0' encoding='utf-8'?>
<svg xmlns="http://www.w3.org/2000/svg" version="1.1" width="100" height="99">
<path d="M0 0 C0.70600342 0.00990967 1.41200684 0.01981934 2.1394043 0.0300293 C8.44728168 0.25507653 13.12245499 1.48991091 17.6796875 6.05859375 C19.125 7.5 19.125 7.5 21.4375 8.75 C26.01595176 11.73131743 29.11833075 15.98999612 32.125 20.5 C32.55269469 27.12926775 31.86030714 31.41292427 27.75 36.75 C25.16182476 39.46142168 24.56228496 39.88567673 21.125 40.5 C21.03863281 41.44101562 20.95226562 42.38203125 20.86328125 43.3515625 C19.57011115 54.8121342 19.57011115 54.8121342 17.1875 58.1875 C10.90302027 62.93292347 2.86052971 64.3595033 -4.875 63.5 C-15.12034927 60.37118076 -15.12034927 60.37118076 -17.875 56.5 C-18.7563855 53.16872257 -19.46424985 49.86930797 -20.07226562 46.48046875 C-21.27894223 40.82120817 -23.23262163 38.9020023 -27.875 35.5 C-30.30795657 32.48807783 -31.70438739 29.39097698 -32.4375 25.5625 C-31.62882864 21.1597337 -29.36926198 18.14719879 -26.875 14.5 C-26.38 13.571875 -25.885 12.64375 -25.375 11.6875 C-23.06708005 8.32178341 -20.18081771 7.00223758 -16.4375 5.5625 C-13.875 4.5 -13.875 4.5 -11.20703125 2.46484375 C-7.3471585 0.18874059 -4.35597499 -0.11700465 0 0 Z " fill="#7F3606" transform="translate(49.875,17.5)" />
<path d="M0 0 C1.72013686 2.20421909 1.91984686 3.4368921 1.9296875 6.20703125 C1.7646875 7.40328125 1.5996875 8.59953125 1.4296875 9.83203125 C0.7696875 9.83203125 0.1096875 9.83203125 -0.5703125 9.83203125 C-0.5703125 9.17203125 -0.5703125 8.51203125 -0.5703125 7.83203125 C-2.8803125 7.50203125 -5.1903125 7.17203125 -7.5703125 6.83203125 C-6.7659375 7.61578125 -5.9615625 8.39953125 -5.1328125 9.20703125 C-2.5703125 11.83203125 -2.5703125 11.83203125 -1.5703125 13.83203125 C-2.2303125 13.83203125 -2.8903125 13.83203125 -3.5703125 13.83203125 C-3.5703125 14.49203125 -3.5703125 15.15203125 -3.5703125 15.83203125 C-6.2103125 16.49203125 -8.8503125 17.15203125 -11.5703125 17.83203125 C-11.5703125 18.49203125 -11.5703125 19.15203125 -11.5703125 19.83203125 C-9.0703125 21.45703125 -9.0703125 21.45703125 -6.5703125 22.83203125 C-7.5703125 25.83203125 -7.5703125 25.83203125 -9.8203125 27.51953125 C-18.51207395 30.56164776 -28.55866981 28.84335789 -37.5703125 27.83203125 C-37.5703125 26.84203125 -37.5703125 25.85203125 -37.5703125 24.83203125 C-36.9103125 24.50203125 -36.2503125 24.17203125 -35.5703125 23.83203125 C-35.5703125 22.51203125 -35.5703125 21.19203125 -35.5703125 19.83203125 C-37.2203125 20.16203125 -38.8703125 20.49203125 -40.5703125 20.83203125 C-40.5703125 21.82203125 -40.5703125 22.81203125 -40.5703125 23.83203125 C-41.2303125 23.83203125 -41.8903125 23.83203125 -42.5703125 23.83203125 C-42.5703125 23.17203125 -42.5703125 22.51203125 -42.5703125 21.83203125 C-43.8903125 21.83203125 -45.2103125 21.83203125 -46.5703125 21.83203125 C-47.12554229 16.14092593 -45.51625664 13.51088371 -42.5703125 8.83203125 C-42.2815625 8.11015625 -41.9928125 7.38828125 -41.6953125 6.64453125 C-39.27067496 2.73817077 -34.94010609 0.91859477 -30.8203125 -0.79296875 C-27.5703125 -2.16796875 -27.5703125 -2.16796875 -25.5703125 -4.16796875 C-16.70948985 -6.36407781 -7.18833141 -5.93253857 0 0 Z " fill="#F0C467" transform="translate(66.5703125,24.16796875)" />
<path d="M0 0 C0.66 1.32 1.32 2.64 2 4 C2.66 4 3.32 4 4 4 C4.33 5.98 4.66 7.96 5 10 C1.94736336 10.98120464 0.05263664 10.98120464 -3 10 C-2.67 11.32 -2.34 12.64 -2 14 C-1.236875 13.814375 -0.47375 13.62875 0.3125 13.4375 C3 13 3 13 6 14 C6 15.65 6 17.3 6 19 C7.916588 19.02712153 9.8332873 19.04645097 11.75 19.0625 C12.81734375 19.07410156 13.8846875 19.08570312 14.984375 19.09765625 C20.07588886 18.93277562 20.07588886 18.93277562 22 18 C22.99 16.02 23.98 14.04 25 12 C19.06 12 13.12 12 7 12 C7.66 9.36 8.32 6.72 9 4 C11.64 4 14.28 4 17 4 C17.33 4.99 17.66 5.98 18 7 C20.48020497 6.88658509 22.95844969 6.75985314 25.4375 6.625 C26.14455078 6.5940625 26.85160156 6.563125 27.58007812 6.53125 C29.39239188 6.42719371 31.19817988 6.22080108 33 6 C33.33 5.34 33.66 4.68 34 4 C34.825 4.825 34.825 4.825 39 9 C38.34 9 37.68 9 37 9 C37 9.66 37 10.32 37 11 C34.36 11.66 31.72 12.32 29 13 C29 13.66 29 14.32 29 15 C31.5 16.625 31.5 16.625 34 18 C33 21 33 21 30.75 22.6875 C22.05823855 25.72961651 12.01164269 24.01132664 3 23 C3 22.01 3 21.02 3 20 C3.66 19.67 4.32 19.34 5 19 C5 17.68 5 16.36 5 15 C3.35 15.33 1.7 15.66 0 16 C0 16.99 0 17.98 0 19 C-0.66 19 -1.32 19 -2 19 C-2 18.34 -2 17.68 -2 17 C-3.32 17 -4.64 17 -6 17 C-6.55522979 11.30889468 -4.94594414 8.67885246 -2 4 C-1.3197633 2.67353844 -0.64507739 1.34391123 0 0 Z " fill="#DFA43E" transform="translate(26,29)" />
<path d="M0 0 C2.31 0.33 4.62 0.66 7 1 C7 1.66 7 2.32 7 3 C7.99 3 8.98 3 10 3 C10 3.66 10 4.32 10 5 C11.65 5 13.3 5 15 5 C16.1875 6.6875 16.1875 6.6875 17 9 C15.875 11.75 15.875 11.75 14 14 C12.68 14 11.36 14 10 14 C10 14.99 10 15.98 10 17 C5.50710581 22.88829819 -0.92463711 24.99521474 -8 26 C-16.49245629 26.68642418 -25.37657906 27.25152322 -33 23 C-36.09912041 20.36245072 -37.71335878 18.85992365 -39 15 C-37.68 15 -36.36 15 -35 15 C-35 15.66 -35 16.32 -35 17 C-34.34 17 -33.68 17 -33 17 C-33 16.01 -33 15.02 -33 14 C-31.35 13.67 -29.7 13.34 -28 13 C-28.875 18.875 -28.875 18.875 -30 20 C-26.97950658 20.19613594 -23.95894342 20.38214855 -20.9375 20.5625 C-20.08994141 20.61857422 -19.24238281 20.67464844 -18.36914062 20.73242188 C-5.33363108 21.48737417 -5.33363108 21.48737417 0 18 C0.33 17.34 0.66 16.68 1 16 C0.175 15.67 0.175 15.67 -4 14 C-4 12.68 -4 11.36 -4 10 C-1.36 9.67 1.28 9.34 4 9 C4.33 8.01 4.66 7.02 5 6 C4.175 5.38125 3.35 4.7625 2.5 4.125 C1.675 3.42375 0.85 2.7225 0 2 C0 1.34 0 0.68 0 0 Z " fill="#AD5F14" transform="translate(59,31)" />
<path d="M0 0 C0.59167969 0.13277344 1.18335938 0.26554687 1.79296875 0.40234375 C5.85446525 1.31005178 9.91374171 2.2091113 14 3 C14 3.66 14 4.32 14 5 C14.61875 4.835 15.2375 4.67 15.875 4.5 C20.25470729 3.79924683 24.57428989 3.92265749 29 4 C29.05416188 5.60379341 29.09286638 7.20811406 29.125 8.8125 C29.14820312 9.70582031 29.17140625 10.59914063 29.1953125 11.51953125 C29 14 29 14 27 17 C25.67405895 17.36162029 24.34061543 17.69728039 23 18 C22.67 18.66 22.34 19.32 22 20 C10.40495562 20.68542134 10.40495562 20.68542134 5.9375 18.625 C1.84792484 14.97048602 0.90203589 11.31198916 0 6 C-0.1875 2.375 -0.1875 2.375 0 0 Z " fill="#CA8225" transform="translate(31,58)" />
<path d="M0 0 C1.72013686 2.20421909 1.91984686 3.4368921 1.9296875 6.20703125 C1.7646875 7.40328125 1.5996875 8.59953125 1.4296875 9.83203125 C0.7696875 9.83203125 0.1096875 9.83203125 -0.5703125 9.83203125 C-0.5703125 9.17203125 -0.5703125 8.51203125 -0.5703125 7.83203125 C-2.8803125 7.50203125 -5.1903125 7.17203125 -7.5703125 6.83203125 C-7.9003125 7.49203125 -8.2303125 8.15203125 -8.5703125 8.83203125 C-9.24835937 8.18234375 -9.92640625 7.53265625 -10.625 6.86328125 C-15.06266109 3.80282533 -19.13929788 4.34518994 -24.390625 4.30078125 C-27.5703125 3.83203125 -27.5703125 3.83203125 -29.5 1.80078125 C-29.85320313 1.15109375 -30.20640625 0.50140625 -30.5703125 -0.16796875 C-22.73019637 -8.00808488 -8.19717796 -6.76514085 0 0 Z " fill="#CD9028" transform="translate(66.5703125,24.16796875)" />
<path d="M0 0 C2 1.5 2 1.5 4 4 C4.62765033 10.59032845 3.69522885 14.96496439 -0.375 20.25 C-2.96317524 22.96142168 -3.56271504 23.38567673 -7 24 C-7.08636719 24.94101562 -7.17273438 25.88203125 -7.26171875 26.8515625 C-8.70813893 39.67029549 -8.70813893 39.67029549 -14 44 C-19.5120438 46.95768204 -25.90887341 46.17741145 -32 46 C-32 45.67 -32 45.34 -32 45 C-31.51789062 44.93361328 -31.51789062 44.93361328 -29.078125 44.59765625 C-27.81484375 44.42105469 -26.5515625 44.24445313 -25.25 44.0625 C-23.99703125 43.88847656 -22.7440625 43.71445313 -21.453125 43.53515625 C-18.90017407 43.13950662 -16.4813709 42.69553578 -14 42 C-14 41.01 -14 40.02 -14 39 C-13.34 39 -12.68 39 -12 39 C-11.83081732 37.41693353 -11.66476064 35.83353281 -11.5 34.25 C-11.4071875 33.36828125 -11.314375 32.4865625 -11.21875 31.578125 C-11 29 -11 29 -11 25 C-11.66 25.33 -12.32 25.66 -13 26 C-13.33 26.99 -13.66 27.98 -14 29 C-14.99 28.67 -15.98 28.34 -17 28 C-17 27.34 -17 26.68 -17 26 C-17.886875 26.185625 -18.77375 26.37125 -19.6875 26.5625 C-25.44094964 27.41838507 -31.24757059 26.56226754 -37 26 C-36.67 25.34 -36.34 24.68 -36 24 C-32.16443265 23.48630794 -28.35333202 23.16278591 -24.49609375 22.87695312 C-19.27675669 22.42363042 -14.72829303 21.44970021 -9.8125 19.61889648 C-8 19 -8 19 -6 19 C-6.185625 18.21625 -6.37125 17.4325 -6.5625 16.625 C-7 14 -7 14 -6 12 C-4.35 12 -2.7 12 -1 12 C-0.835 12.66 -0.835 12.66 0 16 C1.23004981 13.53990037 1.13314027 11.86827194 1.125 9.125 C1.12757812 8.26132812 1.13015625 7.39765625 1.1328125 6.5078125 C1.01023921 4.19334029 0.64966445 2.21710884 0 0 Z " fill="#4D1201" transform="translate(78,34)" />
<path d="M0 0 C0.70600342 0.00990967 1.41200684 0.01981934 2.1394043 0.0300293 C9.50473464 0.29280347 13.95011946 2.32511946 19.125 7.5 C19.929375 7.974375 20.73375 8.44875 21.5625 8.9375 C25.24013408 11.17995981 27.50899307 13.20638545 29.375 17.125 C30.361308 21.56338602 30.67867615 25.97288323 30.125 30.5 C29.465 31.16 28.805 31.82 28.125 32.5 C27.96 31.51 27.96 31.51 27.125 26.5 C25.805 26.83 24.485 27.16 23.125 27.5 C23.785 25.19 24.445 22.88 25.125 20.5 C23.145 19.84 21.165 19.18 19.125 18.5 C19.06183594 17.83613281 18.99867187 17.17226563 18.93359375 16.48828125 C17.80712869 8.36587529 17.80712869 8.36587529 14.125 5.4375 C7.85427481 1.75572567 0.09603647 2.04243466 -6.91796875 2.98828125 C-9.8596654 3.7574674 -11.63573405 5.49644625 -13.875 7.5 C-17.174931 9.03617478 -20.42390889 10.3496363 -23.875 11.5 C-24.5763284 13.82315031 -25.23985174 16.15789079 -25.875 18.5 C-26.41125 19.16 -26.9475 19.82 -27.5 20.5 C-29.5547695 23.48875563 -29.12786877 25.95983717 -28.875 29.5 C-28.375 31.9375 -28.375 31.9375 -27.875 33.5 C-30.875 31.5 -30.875 31.5 -31.5625 29.6171875 C-32.48747847 22.98046697 -30.78372961 19.75379245 -26.875 14.5 C-26.38 13.571875 -25.885 12.64375 -25.375 11.6875 C-23.06708005 8.32178341 -20.18081771 7.00223758 -16.4375 5.5625 C-13.875 4.5 -13.875 4.5 -11.20703125 2.46484375 C-7.3471585 0.18874059 -4.35597499 -0.11700465 0 0 Z " fill="#834B28" transform="translate(49.875,17.5)" />
<path d="M0 0 C0.825 0.33 0.825 0.33 5 2 C4.34 3.98 3.68 5.96 3 8 C3.639375 7.9175 3.639375 7.9175 6.875 7.5 C11.9284158 6.92958264 16.92062649 6.90456292 22 7 C19.66981132 13.62264151 19.66981132 13.62264151 16.78125 15.25 C13.51747711 16.13011853 11.0397481 15.99337891 7.6875 15.625 C6.61886719 15.51414062 5.55023438 15.40328125 4.44921875 15.2890625 C3.64097656 15.19367187 2.83273438 15.09828125 2 15 C2 13.35 2 11.7 2 10 C-0.64 10 -3.28 10 -6 10 C-6.33 8.68 -6.66 7.36 -7 6 C-4.36 6 -1.72 6 1 6 C0.67 4.02 0.34 2.04 0 0 Z " fill="#E1A74C" transform="translate(30,33)" />
<path d="M0 0 C2.31 0.33 4.62 0.66 7 1 C7 1.66 7 2.32 7 3 C7.99 3 8.98 3 10 3 C10 3.66 10 4.32 10 5 C11.65 5 13.3 5 15 5 C16.1875 6.6875 16.1875 6.6875 17 9 C15.875 11.75 15.875 11.75 14 14 C12.68 14 11.36 14 10 14 C10 14.99 10 15.98 10 17 C9.34 17 8.68 17 8 17 C8 16.01 8 15.02 8 14 C7.34 14 6.68 14 6 14 C5.67 14.495 5.67 14.495 4 17 C0.17902761 16.46930939 -2.06171403 15.50298434 -5 13 C-4.67 12.01 -4.34 11.02 -4 10 C-1.36 9.67 1.28 9.34 4 9 C4.33 8.01 4.66 7.02 5 6 C4.175 5.38125 3.35 4.7625 2.5 4.125 C1.675 3.42375 0.85 2.7225 0 2 C0 1.34 0 0.68 0 0 Z " fill="#B46B16" transform="translate(59,31)" />
<path d="M0 0 C2.31 0 4.62 0 7 0 C7.05416188 1.60379341 7.09286638 3.20811406 7.125 4.8125 C7.14820312 5.70582031 7.17140625 6.59914063 7.1953125 7.51953125 C7 10 7 10 5 13 C3.67405895 13.36162029 2.34061543 13.69728039 1 14 C0.67 14.66 0.34 15.32 0 16 C-7.47120084 16.44164734 -12.94025413 16.71313568 -19 12 C-19.33 11.01 -19.66 10.02 -20 9 C-19.360625 9.28875 -18.72125 9.5775 -18.0625 9.875 C-14.11589708 11.3247725 -10.1125393 12.15778062 -6 13 C-5.67 12.01 -5.34 11.02 -5 10 C-5 10.66 -5 11.32 -5 12 C-4.34 12 -3.68 12 -3 12 C-3 12.66 -3 13.32 -3 14 C-2.34 13.67 -1.68 13.34 -1 13 C-0.5859375 10.05859375 -0.5859375 10.05859375 -0.375 6.4375 C-0.30023438 5.23996094 -0.22546875 4.04242188 -0.1484375 2.80859375 C-0.09945312 1.88175781 -0.05046875 0.95492187 0 0 Z " fill="#9B5714" transform="translate(53,62)" />
<path d="M0 0 C0.66 0 1.32 0 2 0 C3.51708428 9.41002278 3.51708428 9.41002278 1 14 C0.34 14 -0.32 14 -1 14 C-1 14.99 -1 15.98 -1 17 C-4.63 18.32 -8.26 19.64 -12 21 C-12 21.33 -12 21.66 -12 22 C-20.57142857 22.28571429 -20.57142857 22.28571429 -24 20 C-21.47524538 18.73762269 -19.68799534 18.90143596 -16.875 18.9375 C-15.96492188 18.94652344 -15.05484375 18.95554687 -14.1171875 18.96484375 C-13.41851562 18.97644531 -12.71984375 18.98804687 -12 19 C-11.67 18.01 -11.34 17.02 -11 16 C-9.67696283 15.6278958 -8.34262065 15.29369827 -7 15 C-5.85185003 12.70370006 -5.69230191 10.92301914 -5.4375 8.375 C-5.35371094 7.55773437 -5.26992188 6.74046875 -5.18359375 5.8984375 C-5.15330078 5.58519531 -5.15330078 5.58519531 -5 4 C-4.67 4.66 -4.34 5.32 -4 6 C-1.2160817 4.60804085 -1.02101003 2.84424221 0 0 Z " fill="#8B4608" transform="translate(65,59)" />
<path d="M0 0 C6.56848599 0.02692002 11.41854922 0.91621231 16.5703125 5.16796875 C18.29044936 7.37218784 18.49015936 8.60486085 18.5 11.375 C18.335 12.57125 18.17 13.7675 18 15 C17.34 15 16.68 15 16 15 C16 14.34 16 13.68 16 13 C13.69 12.67 11.38 12.34 9 12 C8.67 12.66 8.34 13.32 8 14 C7.67 12.68 7.34 11.36 7 10 C8.32 10 9.64 10 11 10 C8.36 9.34 5.72 8.68 3 8 C3 7.67 3 7.34 3 7 C4.65 6.67 6.3 6.34 8 6 C6.02 5.34 4.04 4.68 2 4 C2 3.01 2 2.02 2 1 C1.34 0.67 0.68 0.34 0 0 Z " fill="#CB993D" transform="translate(50,19)" />
<path d="M0 0 C0.35300171 0.00531738 0.35300171 0.00531738 2.1394043 0.03222656 C7.87080585 0.24133901 11.47013182 1.21421069 16.125 4.5 C18.125 6.75 18.125 6.75 19.125 8.5 C16.92229267 7.43943721 14.97622324 6.39060532 13 4.9375 C6.60515326 1.74007663 -1.99541782 1.70114717 -8.875 3.5 C-11.5 5.375 -11.5 5.375 -13.875 7.5 C-17.174931 9.03617478 -20.42390889 10.3496363 -23.875 11.5 C-24.5763284 13.82315031 -25.23985174 16.15789079 -25.875 18.5 C-26.41125 19.16 -26.9475 19.82 -27.5 20.5 C-29.5547695 23.48875563 -29.12786877 25.95983717 -28.875 29.5 C-28.375 31.9375 -28.375 31.9375 -27.875 33.5 C-30.875 31.5 -30.875 31.5 -31.5625 29.6171875 C-32.48747847 22.98046697 -30.78372961 19.75379245 -26.875 14.5 C-26.38 13.571875 -25.885 12.64375 -25.375 11.6875 C-23.06708005 8.32178341 -20.18081771 7.00223758 -16.4375 5.5625 C-13.875 4.5 -13.875 4.5 -11.20703125 2.46484375 C-7.34739267 0.18887868 -4.35585626 -0.11751689 0 0 Z " fill="#482809" transform="translate(49.875,17.5)" />
<path d="M0 0 C-0.165 0.928125 -0.33 1.85625 -0.5 2.8125 C-1 6 -1 6 -1 9 C7.72000443 12.03304502 15.63476666 11.32927216 24.5546875 9.33984375 C27.05581468 8.99224301 28.62514479 9.21022257 31 10 C21.08913826 13.59616582 8.477292 15.20865958 -1.75 11.8125 C-6.2442983 9.30606441 -9.34704092 6.95887725 -11 2 C-9.68 2 -8.36 2 -7 2 C-7 2.66 -7 3.32 -7 4 C-6.34 4 -5.68 4 -5 4 C-5 3.01 -5 2.02 -5 1 C-2 0 -2 0 0 0 Z " fill="#96460C" transform="translate(31,44)" />
<path d="M0 0 C0 4.29 0 8.58 0 13 C-0.99 13.33 -1.98 13.66 -3 14 C-3 13.34 -3 12.68 -3 12 C-3.86625 12.37125 -4.7325 12.7425 -5.625 13.125 C-9.55697326 14.14440048 -11.32937509 13.57312496 -15 12 C-13.1875 10.9375 -13.1875 10.9375 -11 10 C-10.01 10.33 -9.02 10.66 -8 11 C-8 7.7 -8 4.4 -8 1 C-5.23735711 0.40267181 -2.83967231 0 0 0 Z " fill="#B06B15" transform="translate(53,62)" />
<path d="M0 0 C0.66 1.32 1.32 2.64 2 4 C2.66 4 3.32 4 4 4 C4.33 5.98 4.66 7.96 5 10 C1.94736336 10.98120464 0.05263664 10.98120464 -3 10 C-2.67 11.32 -2.34 12.64 -2 14 C-0.35 13.67 1.3 13.34 3 13 C3 13.99 3 14.98 3 16 C2.01 16 1.02 16 0 16 C0 16.99 0 17.98 0 19 C-0.66 19 -1.32 19 -2 19 C-2 18.34 -2 17.68 -2 17 C-3.32 17 -4.64 17 -6 17 C-6.55522979 11.30889468 -4.94594414 8.67885246 -2 4 C-1.3197633 2.67353844 -0.64507739 1.34391123 0 0 Z " fill="#C38222" transform="translate(26,29)" />
<path d="M0 0 C1.98 0.99 3.96 1.98 6 3 C5 6 5 6 2.75 7.6875 C-5.46582594 10.56303908 -16.48933374 9.72162333 -25 8 C-25.33 7.34 -25.66 6.68 -26 6 C-24.35 5.67 -22.7 5.34 -21 5 C-21 5.66 -21 6.32 -21 7 C-18.9163691 6.85848172 -16.83310062 6.71162064 -14.75 6.5625 C-13.58984375 6.48128906 -12.4296875 6.40007813 -11.234375 6.31640625 C-4.58468677 5.66589327 -4.58468677 5.66589327 -1.75 2.4375 C-1.46125 2.0353125 -1.46125 2.0353125 0 0 Z " fill="#BE7018" transform="translate(54,44)" />
<path d="M0 0 C0.495 0.268125 0.99 0.53625 1.5 0.8125 C4.29136429 2.13839804 7.12924693 3.20238158 10.02734375 4.26953125 C12.36928893 5.1367466 14.68637744 6.06009083 17 7 C17 7.33 17 7.66 17 8 C14.36 7.67 11.72 7.34 9 7 C9.39537806 9.62986315 9.81501873 12.25165938 10.25 14.875 C10.35957031 15.62136719 10.46914063 16.36773437 10.58203125 17.13671875 C11.52538022 22.64786275 11.52538022 22.64786275 13.9375 24.4375 C14.618125 24.623125 15.29875 24.80875 16 25 C16.9075 25.37125 17.815 25.7425 18.75 26.125 C19.12125 26.269375 19.12125 26.269375 21 27 C19.375 27.75 19.375 27.75 17 28 C13.76266249 26.54650153 11.62157517 25.26296151 10.01953125 22.0078125 C8.98580836 18.97485904 8.18038995 15.96207973 7.58984375 12.8125 C6.46114133 7.02653029 4.54012459 5.35574426 0 2 C0 1.34 0 0.68 0 0 Z " fill="#652405" transform="translate(22,51)" />
<path d="M0 0 C1.98 0 3.96 0 6 0 C4.7196989 13.94954932 4.7196989 13.94954932 1.75 17.75 C-4.58327136 22.93176748 -11.17263373 22.22798154 -19 22 C-19 21.67 -19 21.34 -19 21 C-18.51789062 20.93361328 -18.51789062 20.93361328 -16.078125 20.59765625 C-15.44648437 20.50935547 -15.44648437 20.50935547 -12.25 20.0625 C-10.99703125 19.88847656 -9.7440625 19.71445313 -8.453125 19.53515625 C-5.90017407 19.13950662 -3.4813709 18.69553578 -1 18 C-1 17.01 -1 16.02 -1 15 C-0.34 15 0.32 15 1 15 C1.16918268 13.41693353 1.33523936 11.83353281 1.5 10.25 C1.54640625 9.80914062 1.54640625 9.80914062 1.78125 7.578125 C2 5 2 5 2 1 C1.34 0.67 0.68 0.34 0 0 Z " fill="#401D04" transform="translate(65,58)" />
<path d="M0 0 C2.64 0 5.28 0 8 0 C8.66 1.65 9.32 3.3 10 5 C5.77050005 7.41685712 2.87664009 8.34833144 -2 8 C-1.34 5.36 -0.68 2.72 0 0 Z " fill="#C98423" transform="translate(35,33)" />
<path d="M0 0 C3.63 0 7.26 0 11 0 C11 0.99 11 1.98 11 3 C13.31 3.33 15.62 3.66 18 4 C17.67 4.66 17.34 5.32 17 6 C14.72858891 5.88597936 12.45785448 5.75841495 10.1875 5.625 C8.92292969 5.55539063 7.65835938 5.48578125 6.35546875 5.4140625 C3 5 3 5 0 3 C0 2.01 0 1.02 0 0 Z " fill="#E7B352" transform="translate(41,20)" />
<path d="M0 0 C0.66 0 1.32 0 2 0 C2 1.65 2 3.3 2 5 C7.94 5 13.88 5 20 5 C20.66 3.68 21.32 2.36 22 1 C22.66 0.67 23.32 0.34 24 0 C23.43850643 3.25666272 22.62770014 4.95623323 20 7 C16.43733261 8.22337535 12.9877266 8.09987727 9.25 8.0625 C8.07953125 8.05347656 6.9090625 8.04445313 5.703125 8.03515625 C4.81109375 8.02355469 3.9190625 8.01195312 3 8 C3 7.34 3 6.68 3 6 C2.01 6.33 1.02 6.66 0 7 C-0.33 6.34 -0.66 5.68 -1 5 C-0.34 5 0.32 5 1 5 C0.67 3.35 0.34 1.7 0 0 Z " fill="#D18F34" transform="translate(30,43)" />
<path d="M0 0 C0.825 0.33 0.825 0.33 5 2 C4.34 3.98 3.68 5.96 3 8 C4.32 8.33 5.64 8.66 7 9 C4.69 8.67 2.38 8.34 0 8 C-0.33 8.66 -0.66 9.32 -1 10 C-2.65 10 -4.3 10 -6 10 C-6.33 8.68 -6.66 7.36 -7 6 C-4.36 6 -1.72 6 1 6 C0.67 4.02 0.34 2.04 0 0 Z " fill="#D5922E" transform="translate(30,33)" />
<path d="M0 0 C0.556875 0.2475 1.11375 0.495 1.6875 0.75 C0.6975 0.75 -0.2925 0.75 -1.3125 0.75 C-1.126875 1.554375 -0.94125 2.35875 -0.75 3.1875 C-0.605625 4.033125 -0.46125 4.87875 -0.3125 5.75 C-0.6425 6.08 -0.9725 6.41 -1.3125 6.75 C1.6575 6.75 4.6275 6.75 7.6875 6.75 C7.6875 7.08 7.6875 7.41 7.6875 7.75 C5.3775 7.75 3.0675 7.75 0.6875 7.75 C0.6875 8.41 0.6875 9.07 0.6875 9.75 C-1.6225 9.09 -3.9325 8.43 -6.3125 7.75 C-6.6425 6.43 -6.9725 5.11 -7.3125 3.75 C-2.88173077 -0.31153846 -2.88173077 -0.31153846 0 0 Z " fill="#DAA54C" transform="translate(34.3125,25.25)" />
<path d="M0 0 C2 1.5 2 1.5 4 4 C4.63457723 10.66306089 3.68121596 15.0212267 -0.5 20.3125 C-1.325 21.199375 -2.15 22.08625 -3 23 C-3.66 23 -4.32 23 -5 23 C-4.75 20.625 -4.75 20.625 -4 18 C-2 16.8125 -2 16.8125 0 16 C1.23004981 13.53990037 1.13314027 11.86827194 1.125 9.125 C1.12628906 8.69316406 1.12628906 8.69316406 1.1328125 6.5078125 C1.01023921 4.19334029 0.64966445 2.21710884 0 0 Z " fill="#452111" transform="translate(78,34)" />
<path d="M0 0 C6.35714286 0.48901099 6.35714286 0.48901099 9.4375 2.9375 C11 5 11 5 11 7 C7.71480525 8.09506492 5.26336585 8.09960608 1.8125 8.0625 C1.26916016 8.05798828 1.26916016 8.05798828 -1.48046875 8.03515625 C-2.31191406 8.02355469 -3.14335938 8.01195312 -4 8 C-3.67 7.34 -3.34 6.68 -3 6 C-0.69 6 1.62 6 4 6 C4 4.68 4 3.36 4 2 C2.68 1.34 1.36 0.68 0 0 Z " fill="#E5AE49" transform="translate(48,28)" />
<path d="M0 0 C-2.70879335 1.35439668 -5.00933268 1.06501451 -8 1 C-7.67 1.99 -7.34 2.98 -7 4 C-12.61 3.67 -18.22 3.34 -24 3 C-23.67 2.34 -23.34 1.68 -23 1 C-21.20581055 0.57348633 -21.20581055 0.57348633 -18.88671875 0.33203125 C-18.05076172 0.24373047 -17.21480469 0.15542969 -16.35351562 0.06445312 C-15.47373047 -0.01869141 -14.59394531 -0.10183594 -13.6875 -0.1875 C-12.81931641 -0.28224609 -11.95113281 -0.37699219 -11.05664062 -0.47460938 C-7.07523398 -0.87488894 -3.87507998 -1.16577296 0 0 Z " fill="#611B00" transform="translate(65,57)" />
<path d="M0 0 C1.32 0 2.64 0 4 0 C4 0.99 4 1.98 4 3 C0.37 4.32 -3.26 5.64 -7 7 C-7 7.33 -7 7.66 -7 8 C-15.57142857 8.28571429 -15.57142857 8.28571429 -19 6 C-15.8346014 4.4173007 -12.35358491 4.34303451 -8.875 3.9375 C-8.49794922 3.89206055 -8.49794922 3.89206055 -6.58984375 3.66210938 C-4.72695812 3.43809148 -2.86352748 3.21861427 -1 3 C-0.67 2.01 -0.34 1.02 0 0 Z " fill="#663C16" transform="translate(60,73)" />
<path d="M0 0 C0.99 0 1.98 0 3 0 C3.05416188 1.60379341 3.09286638 3.20811406 3.125 4.8125 C3.14820313 5.70582031 3.17140625 6.59914063 3.1953125 7.51953125 C3 10 3 10 1 13 C0.34 13 -0.32 13 -1 13 C-1.02686553 11.02090602 -1.04633375 9.04171029 -1.0625 7.0625 C-1.07410156 5.96035156 -1.08570313 4.85820313 -1.09765625 3.72265625 C-1 1 -1 1 0 0 Z " fill="#AF6E21" transform="translate(57,62)" />
<path d="M0 0 C0.91007812 0.00902344 1.82015625 0.01804688 2.7578125 0.02734375 C3.45648438 0.03894531 4.15515625 0.05054688 4.875 0.0625 C4.545 0.7225 4.215 1.3825 3.875 2.0625 C2.885 2.0625 1.895 2.0625 0.875 2.0625 C0.875 3.0525 0.875 4.0425 0.875 5.0625 C-2 5.6875 -2 5.6875 -5.125 6.0625 C-5.785 5.4025 -6.445 4.7425 -7.125 4.0625 C-7.125 3.0725 -7.125 2.0825 -7.125 1.0625 C-4.60024538 -0.19987731 -2.81299534 -0.03606404 0 0 Z " fill="#E8B65D" transform="translate(44.125,41.9375)" />
<path d="M0 0 C0.99 0 1.98 0 3 0 C3.05395478 1.62463842 3.09277195 3.24978541 3.125 4.875 C3.14820313 5.77992187 3.17140625 6.68484375 3.1953125 7.6171875 C3 10 3 10 1 12 C-0.5 10.875 -0.5 10.875 -2 9 C-2.1875 5.8125 -2.1875 5.8125 -2 3 C-1.34 3 -0.68 3 0 3 C0 2.01 0 1.02 0 0 Z " fill="#C27D25" transform="translate(50,62)" />
<path d="M0 0 C1.98 1.32 3.96 2.64 6 4 C5.67 4.165 5.67 4.165 4 5 C4 5.66 4 6.32 4 7 C1.03 7.66 -1.94 8.32 -5 9 C-4.67 7.68 -4.34 6.36 -4 5 C-3.34 5 -2.68 5 -2 5 C-2 4.01 -2 3.02 -2 2 C-1.34 2 -0.68 2 0 2 C0 1.34 0 0.68 0 0 Z " fill="#D79734" transform="translate(59,33)" />
<path d="M0 0 C1.65 0 3.3 0 5 0 C5.3475632 3.12806884 5.26933948 4.59599079 3.5 7.25 C-0.00812477 9.70568734 -2.75182555 9.71678837 -7 10 C-6.67 9.34 -6.34 8.68 -6 8 C-2.9375 7.375 -2.9375 7.375 0 7 C-0.0928125 6.608125 -0.0928125 6.608125 -0.5625 4.625 C-1 2 -1 2 0 0 Z " fill="#5D1505" transform="translate(72,46)" />
<path d="M0 0 C2 1 2 1 4 3 C4.36933645 5.75372909 4.18336678 8.20365661 4 11 C3.34 11 2.68 11 2 11 C2 10.34 2 9.68 2 9 C-0.31 8.67 -2.62 8.34 -5 8 C-5.33 8.66 -5.66 9.32 -6 10 C-6.33 8.68 -6.66 7.36 -7 6 C-4.36 6.33 -1.72 6.66 1 7 C1 5.35 1 3.7 1 2 C0.34 1.67 -0.32 1.34 -1 1 C-0.67 0.67 -0.34 0.34 0 0 Z " fill="#C38626" transform="translate(64,23)" />
<path d="M0 0 C1.32 0.33 2.64 0.66 4 1 C3.67 4.96 3.34 8.92 3 13 C2.01 13.33 1.02 13.66 0 14 C0 9.38 0 4.76 0 0 Z " fill="#9F560A" transform="translate(53,62)" />
<path d="M0 0 C0.59167969 0.13277344 1.18335938 0.26554687 1.79296875 0.40234375 C5.85446525 1.31005178 9.91374171 2.2091113 14 3 C14 3.66 14 4.32 14 5 C13.01 5 12.02 5 11 5 C11 5.66 11 6.32 11 7 C10.01 7 9.02 7 8 7 C8 6.34 8 5.68 8 5 C5.125 4.375 5.125 4.375 2 4 C1.34 4.66 0.68 5.32 0 6 C0 4.02 0 2.04 0 0 Z " fill="#A96822" transform="translate(31,58)" />
<path d="M0 0 C3.37047222 3.37047222 3.243629 8.22760181 4.0234375 12.8125 C5 16 5 16 6.9296875 17.3671875 C7.61289062 17.57601562 8.29609375 17.78484375 9 18 C9.9075 18.37125 10.815 18.7425 11.75 19.125 C12.12125 19.269375 12.12125 19.269375 14 20 C12.375 20.75 12.375 20.75 10 21 C6.75678802 19.54386401 4.63186569 18.23942884 2.984375 15.0078125 C1.24496562 10.07948592 0.47179738 5.18977119 0 0 Z " fill="#4A2605" transform="translate(29,58)" />
<path d="M0 0 C0.66 0.99 1.32 1.98 2 3 C5.125 3.1875 5.125 3.1875 8 3 C8 3.99 8 4.98 8 6 C7.01 6 6.02 6 5 6 C5 6.99 5 7.98 5 9 C4.34 9 3.68 9 3 9 C3 8.34 3 7.68 3 7 C1.68 7 0.36 7 -1 7 C-1.04254356 5.00045254 -1.04080783 2.99958364 -1 1 C-0.67 0.67 -0.34 0.34 0 0 Z " fill="#AF6A1F" transform="translate(21,39)" />
<path d="M0 0 C0.66 0 1.32 0 2 0 C3.51708428 9.41002278 3.51708428 9.41002278 1 14 C0.34 14 -0.32 14 -1 14 C-1.02685938 11.85423363 -1.04633088 9.70837355 -1.0625 7.5625 C-1.07410156 6.36753906 -1.08570313 5.17257813 -1.09765625 3.94140625 C-1 1 -1 1 0 0 Z " fill="#68340D" transform="translate(65,59)" />
<path d="M0 0 C-0.875 5.75 -0.875 5.75 -2 8 C-4.16874252 7.49396008 -5.99967627 7.00016187 -8 6 C-7.67 4.68 -7.34 3.36 -7 2 C-7 2.66 -7 3.32 -7 4 C-6.34 4 -5.68 4 -5 4 C-5 3.01 -5 2.02 -5 1 C-2 0 -2 0 0 0 Z " fill="#9F5512" transform="translate(31,44)" />
<path d="M0 0 C1.98 0.99 3.96 1.98 6 3 C-0.375 7.25 -0.375 7.25 -4.1875 7.125 C-4.8165625 7.104375 -4.8165625 7.104375 -8 7 C-7.71125 6.8865625 -7.71125 6.8865625 -6.25 6.3125 C-3.4336339 4.66961977 -1.91922886 2.60466773 0 0 Z " fill="#CA7E23" transform="translate(54,44)" />
<path d="M0 0 C0.99 0.66 1.98 1.32 3 2 C2.34 2 1.68 2 1 2 C0.9175 2.78375 0.835 3.5675 0.75 4.375 C0 7 0 7 -1.625 8.3125 C-4.79801368 9.23100396 -7.71644746 9.12629048 -11 9 C-8.61426621 7.10786631 -6.92824652 5.97608217 -4 5 C-2.61423077 3.37667033 -1.27358732 1.71275535 0 0 Z " fill="#B6640F" transform="translate(67,42)" />
<path d="M0 0 C0 2.31 0 4.62 0 7 C-0.2475 6.360625 -0.495 5.72125 -0.75 5.0625 C-2 3 -2 3 -4.125 2.25 C-4.434375 2.20875 -4.434375 2.20875 -6 2 C-6 4.31 -6 6.62 -6 9 C-7.98 9.33 -9.96 9.66 -12 10 C-11.54625 9.62875 -11.0925 9.2575 -10.625 8.875 C-9 7 -9 7 -8.0625 3.9375 C-7 1 -7 1 -5.0625 -0.4375 C-3 -1 -3 -1 0 0 Z " fill="#712A0E" transform="translate(78,44)" />
<path d="M0 0 C0.99 0.33 1.98 0.66 3 1 C2.34 2.98 1.68 4.96 1 7 C-0.65 7.33 -2.3 7.66 -4 8 C-4 8.99 -4 9.98 -4 11 C-4.66 11 -5.32 11 -6 11 C-5.67 9.68 -5.34 8.36 -5 7 C-4.34 7 -3.68 7 -3 7 C-2.690625 6.030625 -2.38125 5.06125 -2.0625 4.0625 C-1 1 -1 1 0 0 Z " fill="#A7520C" transform="translate(73,37)" />
<path d="M0 0 C4.83256305 0.41421969 6.82679218 2.46413986 10 6 C9.67 6.66 9.34 7.32 9 8 C7.02 6.35 5.04 4.7 3 3 C2.87625 3.639375 2.7525 4.27875 2.625 4.9375 C2.41875 5.618125 2.2125 6.29875 2 7 C1.67 7.165 1.67 7.165 0 8 C0 5.36 0 2.72 0 0 Z " fill="#6A4011" transform="translate(68,26)" />
<path d="M0 0 C3.3 0.33 6.6 0.66 10 1 C9.67 1.99 9.34 2.98 9 4 C4.25 5.125 4.25 5.125 2 4 C2 3.01 2 2.02 2 1 C1.34 0.67 0.68 0.34 0 0 Z " fill="#8E5F28" transform="translate(50,19)" />
<path d="M0 0 C2.13586678 3.20380017 2.23132175 4.01939967 2.125 7.6875 C2.10695313 8.49574219 2.08890625 9.30398437 2.0703125 10.13671875 C2.05871094 10.44416016 2.05871094 10.44416016 2 12 C-1.76624671 13.25541557 -3.37188934 12.37061958 -7 11 C-5.1875 9.9375 -5.1875 9.9375 -3 9 C-2.01 9.33 -1.02 9.66 0 10 C0 6.7 0 3.4 0 0 Z " fill="#BC701A" transform="translate(45,63)" />
<path d="M0 0 C0.33 0.66 0.66 1.32 1 2 C-2.16240582 4.10827055 -3.50657469 4.33817465 -7.1875 4.625 C-8.08855469 4.69976562 -8.98960938 4.77453125 -9.91796875 4.8515625 C-10.60503906 4.90054688 -11.29210938 4.94953125 -12 5 C-12 4.34 -12 3.68 -12 3 C-8.04 2.01 -4.08 1.02 0 0 Z " fill="#AA570A" transform="translate(65,49)" />
<path d="M0 0 C0.90105469 0.01804688 1.80210938 0.03609375 2.73046875 0.0546875 C3.41753906 0.07789063 4.10460938 0.10109375 4.8125 0.125 C4.4825 1.445 4.1525 2.765 3.8125 4.125 C1.8325 3.795 1.8325 3.795 -8.1875 2.125 C-4.87379 -0.08414 -3.8428979 -0.09981553 0 0 Z " fill="#E9B24C" transform="translate(47.1875,39.875)" />
<path d="M0 0 C3.63 0 7.26 0 11 0 C10.67 0.66 10.34 1.32 10 2 C9.34 2 8.68 2 8 2 C8 2.66 8 3.32 8 4 C5.36 3.34 2.72 2.68 0 2 C0 1.34 0 0.68 0 0 Z " fill="#E4BB78" transform="translate(41,20)" />
<path d="M0 0 C0 0.66 0 1.32 0 2 C-4.29 2.66 -8.58 3.32 -13 4 C-12 2 -12 2 -9.875 0.875 C-6.47608911 -0.15945114 -3.53359114 -0.1385722 0 0 Z " fill="#D5972C" transform="translate(52,37)" />
<path d="M0 0 C2.31 0 4.62 0 7 0 C6.67 1.65 6.34 3.3 6 5 C4 4 2 3 0 2 C0 1.34 0 0.68 0 0 Z " fill="#8F4E0B" transform="translate(36,33)" />
<path d="M0 0 C0.99 0 1.98 0 3 0 C3 1.32 3 2.64 3 4 C3.969375 4.268125 4.93875 4.53625 5.9375 4.8125 C6.948125 5.204375 7.95875 5.59625 9 6 C9.33 6.99 9.66 7.98 10 9 C5.74257863 8.52695318 3.74294902 6.1136178 1 3 C0.67 2.01 0.34 1.02 0 0 Z " fill="#7E3F0F" transform="translate(20,46)" />
<path d="M0 0 C2.31 0.33 4.62 0.66 7 1 C7.33 2.32 7.66 3.64 8 5 C5 7 5 7 2.8125 6.625 C2.214375 6.41875 1.61625 6.2125 1 6 C1.99 6 2.98 6 4 6 C4 4.68 4 3.36 4 2 C2.68 1.34 1.36 0.68 0 0 Z " fill="#E8B650" transform="translate(48,28)" />
<path d="M0 0 C2.97 0.33 5.94 0.66 9 1 C8.67 1.165 8.67 1.165 7 2 C6.67 2.66 6.34 3.32 6 4 C4.35 4 2.7 4 1 4 C0.67 2.68 0.34 1.36 0 0 Z " fill="#DF9834" transform="translate(23,39)" />
<path d="M0 0 C3.3 0 6.6 0 10 0 C10 0.66 10 1.32 10 2 C6.6875 2.6875 6.6875 2.6875 3 3 C2.01 2.01 1.02 1.02 0 0 Z " fill="#E7BF65" transform="translate(42,32)" />
<path d="M0 0 C0.66 0 1.32 0 2 0 C2.33 0.66 2.66 1.32 3 2 C5.06640625 2.4140625 5.06640625 2.4140625 7.5625 2.625 C8.38878906 2.69976563 9.21507812 2.77453125 10.06640625 2.8515625 C10.70449219 2.90054687 11.34257813 2.94953125 12 3 C12 3.33 12 3.66 12 4 C10.40012764 4.27615058 8.794667 4.52007625 7.1875 4.75 C6.29417969 4.88921875 5.40085937 5.0284375 4.48046875 5.171875 C2 5 2 5 0.17578125 3.015625 C-0.21222656 2.35046875 -0.60023437 1.6853125 -1 1 C-0.67 0.67 -0.34 0.34 0 0 Z " fill="#BE8620" transform="translate(37,23)" />
<path d="M0 0 C0.2475 0.2371875 0.2475 0.2371875 1.5 1.4375 C4.99468651 3.62167907 7.90966936 3.65913911 12 4 C12 4.33 12 4.66 12 5 C8.04 5 4.08 5 0 5 C-0.33 3.68 -0.66 2.36 -1 1 C-0.67 0.67 -0.34 0.34 0 0 Z " fill="#D39A32" transform="translate(40,21)" />
<path d="M0 0 C0.66 0 1.32 0 2 0 C2.33 2.31 2.66 4.62 3 7 C2.01 7 1.02 7 0 7 C-0.38133299 5.0085944 -0.71325582 3.00720923 -1 1 C-0.67 0.67 -0.34 0.34 0 0 Z " fill="#D68B27" transform="translate(36,64)" />
<path d="M0 0 C1.32 0.33 2.64 0.66 4 1 C4 1.66 4 2.32 4 3 C3.34 3 2.68 3 2 3 C2.33 5.31 2.66 7.62 3 10 C2.34 10 1.68 10 1 10 C-0.1577506 6.52674819 -0.06866652 3.63932552 0 0 Z " fill="#C1873B" transform="translate(32,61)" />
<path d="M0 0 C2.64 0 5.28 0 8 0 C7.67 0.66 7.34 1.32 7 2 C6.01 2 5.02 2 4 2 C4 2.66 4 3.32 4 4 C2.68 3.67 1.36 3.34 0 3 C0 2.01 0 1.02 0 0 Z " fill="#EBBE64" transform="translate(41,42)" />
<path d="M0 0 C2 1 2 1 4 3 C4.36933645 5.75372909 4.18336678 8.20365661 4 11 C3.67 9.68 3.34 8.36 3 7 C2.34 7 1.68 7 1 7 C1 5.35 1 3.7 1 2 C0.34 1.67 -0.32 1.34 -1 1 C-0.67 0.67 -0.34 0.34 0 0 Z " fill="#B08030" transform="translate(64,23)" />
<path d="M0 0 C2.66666667 1.33333333 5.33333333 2.66666667 8 4 C7.67 4.99 7.34 5.98 7 7 C3.42895561 5.12050295 1.45255699 3.82946843 0 0 Z " fill="#471D08" transform="translate(22,51)" />
<path d="M0 0 C-0.99 0 -1.98 0 -3 0 C-2.67 1.65 -2.34 3.3 -2 5 C-3.32 5 -4.64 5 -6 5 C-6 3.35 -6 1.7 -6 0 C-3.50907189 -1.24546405 -2.58919267 -0.7767578 0 0 Z " fill="#D4B056" transform="translate(36,26)" />
<path d="M0 0 C0 0.99 0 1.98 0 3 C-1.65 3 -3.3 3 -5 3 C-5.33 2.01 -5.66 1.02 -6 0 C-3.50907189 -1.24546405 -2.58919267 -0.7767578 0 0 Z " fill="#712A03" transform="translate(62,43)" />
<path d="M0 0 C2.31 0.33 4.62 0.66 7 1 C7 1.66 7 2.32 7 3 C7.99 3 8.98 3 10 3 C10 3.66 10 4.32 10 5 C8.51793505 4.745504 7.03931385 4.47088238 5.5625 4.1875 C4.73878906 4.03667969 3.91507813 3.88585938 3.06640625 3.73046875 C2.38449219 3.48941406 1.70257813 3.24835937 1 3 C0.67 2.01 0.34 1.02 0 0 Z " fill="#B57217" transform="translate(59,31)" />
<path d="M0 0 C0.763125 0.309375 1.52625 0.61875 2.3125 0.9375 C4.18789677 1.67893593 6.08684652 2.36228217 8 3 C8 3.66 8 4.32 8 5 C4.33776842 4.50510384 2.33006074 3.94323463 0 1 C0 0.67 0 0.34 0 0 Z " fill="#A86327" transform="translate(33,71)" />
<path d="M0 0 C0.33 0 0.66 0 1 0 C0.67 2.97 0.34 5.94 0 9 C-0.66 9 -1.32 9 -2 9 C-1.125 1.125 -1.125 1.125 0 0 Z " fill="#97541F" transform="translate(64,63)" />
<path d="M0 0 C1.32 0.66 2.64 1.32 4 2 C3.67 2.165 3.67 2.165 2 3 C2 3.66 2 4.32 2 5 C1.01 5.33 0.02 5.66 -1 6 C-1 2 -1 2 0 0 Z " fill="#D28A29" transform="translate(61,35)" />
<path d="M0 0 C0.66 0 1.32 0 2 0 C2.66 1.98 3.32 3.96 4 6 C2.35 5.67 0.7 5.34 -1 5 C-1.33 4.01 -1.66 3.02 -2 2 C-1.34 2 -0.68 2 0 2 C0 1.34 0 0.68 0 0 Z " fill="#D3A849" transform="translate(59,21)" />
<path d="M0 0 C1.32 0 2.64 0 4 0 C4 0.99 4 1.98 4 3 C2.02 3.66 0.04 4.32 -2 5 C-1.34 3.35 -0.68 1.7 0 0 Z " fill="#673307" transform="translate(60,73)" />
<path d="M0 0 C0.78375 0.04125 1.5675 0.0825 2.375 0.125 C1.88 0.785 1.88 0.785 -0.625 4.125 C-1.945 3.465 -3.265 2.805 -4.625 2.125 C-2.625 0.125 -2.625 0.125 0 0 Z " fill="#756043" transform="translate(35.625,19.875)" />
</svg>