<?xml version='1.0' encoding='utf-8'?>
<svg xmlns="http://www.w3.org/2000/svg" version="1.1" width="101" height="89">
<path d="M0 0 C0.80614746 0.04833984 1.61229492 0.09667969 2.44287109 0.14648438 C23.89191583 1.82941583 23.89191583 1.82941583 29.0625 7 C29.674772 15.751888 30.01302096 26.48254225 25.0625 34 C23.76779025 35.37086915 22.44099103 36.71340837 21.0625 38 C20.8975 38.33 20.8975 38.33 20.0625 40 C19.4025 40 18.7425 40 18.0625 40 C17.7325 40.99 17.4025 41.98 17.0625 43 C15.44275441 44.71230248 13.7666054 46.37163262 12.0625 48 C11.60617188 48.55816406 11.14984375 49.11632812 10.6796875 49.69140625 C9.22693541 51.40216076 7.92746415 52.74787277 6.0625 54 C0.32942943 54.19110235 -4.14520177 52.25880567 -9.3671875 50.0390625 C-11.86767582 49.0282268 -14.34526544 48.23947757 -16.9375 47.5 C-30.28827951 43.64922049 -30.28827951 43.64922049 -32.9375 41 C-33.12291131 39.10762741 -33.26060701 37.21048989 -33.375 35.3125 C-33.70175748 30.84857118 -34.49393601 27.23445436 -35.9375 23 C-36.74694351 17.9005059 -36.74694351 17.9005059 -35.9375 15 C-28.14458519 4.75062292 -12.50449636 -0.88048628 0 0 Z " fill="#612E0D" transform="translate(53.9375,18)" />
<path d="M0 0 C0 1.32 0 2.64 0 4 C-0.391875 4.0309375 -0.391875 4.0309375 -2.375 4.1875 C-3.24125 4.455625 -4.1075 4.72375 -5 5 C-5.28875 5.721875 -5.5775 6.44375 -5.875 7.1875 C-7.48739011 11.21847529 -10.45507743 13.56704607 -14 16 C-14.66 16 -15.32 16 -16 16 C-16.165 16.495 -16.165 16.495 -17 19 C-20 21 -20 21 -22.8125 20.8125 C-26 20 -26 20 -28.65234375 18.5390625 C-32.69149821 16.68208834 -36.37798342 16.14442669 -40.75 15.5625 C-47.60709303 14.54975796 -53.73808123 13.09949245 -60 10 C-57.73837628 4.17344397 -52.20913807 1.9074259 -47 -1 C-46.60425781 -1.226875 -46.60425781 -1.226875 -44.6015625 -2.375 C-31.39691561 -8.52862185 -13.11922783 -4.81336857 0 0 Z " fill="#A05511" transform="translate(80,25)" />
<path d="M0 0 C0.86560547 0.06123047 1.73121094 0.12246094 2.62304688 0.18554688 C4.72907931 0.33680887 6.83352913 0.50985037 8.9375 0.6875 C8.9375 1.0175 8.9375 1.3475 8.9375 1.6875 C7.64457031 1.70167969 6.35164063 1.71585938 5.01953125 1.73046875 C-10.33499435 2.07523164 -23.49717897 4.60889589 -35.0625 15.6875 C-35.0625 16.6775 -35.0625 17.6675 -35.0625 18.6875 C-34.4025 19.3475 -33.7425 20.0075 -33.0625 20.6875 C-33.7225 20.6875 -34.3825 20.6875 -35.0625 20.6875 C-34.753125 21.595 -34.44375 22.5025 -34.125 23.4375 C-32.58560987 28.73256536 -32.40429698 34.20975363 -32.0625 39.6875 C-31.5675 39.5225 -31.5675 39.5225 -29.0625 38.6875 C-29.0625 38.0275 -29.0625 37.3675 -29.0625 36.6875 C-27.7425 36.6875 -26.4225 36.6875 -25.0625 36.6875 C-25.0625 38.0075 -25.0625 39.3275 -25.0625 40.6875 C-24.4025 40.6875 -23.7425 40.6875 -23.0625 40.6875 C-23.0625 41.3475 -23.0625 42.0075 -23.0625 42.6875 C-18.72829301 44.71915952 -14.77653788 45.20810632 -10.0625 45.6875 C-10.0625 46.3475 -10.0625 47.0075 -10.0625 47.6875 C-6.1025 48.6775 -2.1425 49.6675 1.9375 50.6875 C4.10103374 45.27866565 4.60865262 40.61398537 5.1796875 34.8671875 C5.9375 31.6875 5.9375 31.6875 7.8828125 29.7578125 C9.9375 28.6875 9.9375 28.6875 11.9375 28.6875 C11.9375 30.0075 11.9375 31.3275 11.9375 32.6875 C14.4375 30.875 14.4375 30.875 16.9375 28.6875 C16.9375 27.6975 16.9375 26.7075 16.9375 25.6875 C18.2575 25.6875 19.5775 25.6875 20.9375 25.6875 C20.6075 24.0375 20.2775 22.3875 19.9375 20.6875 C21.5875 20.3575 23.2375 20.0275 24.9375 19.6875 C25.5975 15.7275 26.2575 11.7675 26.9375 7.6875 C27.2675 7.6875 27.5975 7.6875 27.9375 7.6875 C28.2882109 29.08086493 28.2882109 29.08086493 21.8125 35.9375 C21.19375 36.515 20.575 37.0925 19.9375 37.6875 C19.7725 38.0175 19.7725 38.0175 18.9375 39.6875 C18.2775 39.6875 17.6175 39.6875 16.9375 39.6875 C16.6075 40.6775 16.2775 41.6675 15.9375 42.6875 C14.31775441 44.39980248 12.6416054 46.05913262 10.9375 47.6875 C10.48117188 48.24566406 10.02484375 48.80382812 9.5546875 49.37890625 C8.10193541 51.08966076 6.80246415 52.43537277 4.9375 53.6875 C-0.79557057 53.87860235 -5.27020177 51.94630567 -10.4921875 49.7265625 C-12.99267582 48.7157268 -15.47026544 47.92697757 -18.0625 47.1875 C-31.41327951 43.33672049 -31.41327951 43.33672049 -34.0625 40.6875 C-34.24791131 38.79512741 -34.38560701 36.89798989 -34.5 35 C-34.82675748 30.53607118 -35.61893601 26.92195436 -37.0625 22.6875 C-37.87194351 17.5880059 -37.87194351 17.5880059 -37.0625 14.6875 C-32.62536762 8.85170633 -25.71892239 5.41355237 -19.0625 2.6875 C-18.41337646 2.41768311 -17.76425293 2.14786621 -17.09545898 1.86987305 C-11.18406335 -0.37314249 -6.2508466 -0.54797957 0 0 Z " fill="#391C06" transform="translate(55.0625,18.3125)" />
<path d="M0 0 C1.56337173 0.45535099 3.12565849 0.91442776 4.6875 1.375 C5.55761719 1.63023438 6.42773438 1.88546875 7.32421875 2.1484375 C10 3 10 3 12.40625 4.046875 C15.54823991 5.20146165 18.48707211 5.51569247 21.8125 5.875 C27.72099939 6.64540371 31.91153672 7.94692203 37 11 C36.67 11.66 36.34 12.32 36 13 C33.36 12.34 30.72 11.68 28 11 C28.33 11.66 28.66 12.32 29 13 C31.28515625 13.4140625 31.28515625 13.4140625 34.0625 13.625 C34.52205078 13.66238281 34.52205078 13.66238281 36.84765625 13.8515625 C37.55792969 13.90054688 38.26820312 13.94953125 39 14 C39 16.64 39 19.28 39 22 C36.69 22.33 34.38 22.66 32 23 C33.32 23.99 34.64 24.98 36 26 C34.68 26 33.36 26 32 26 C32 26.66 32 27.32 32 28 C30.68 27.34 29.36 26.68 28 26 C28 25.01 28 24.02 28 23 C27.01 23.33 26.02 23.66 25 24 C25 24.99 25 25.98 25 27 C22.23723823 26.47731534 19.6739124 25.89130413 17 25 C17.33 24.67 17.66 24.34 18 24 C17.525625 23.608125 17.05125 23.21625 16.5625 22.8125 C14.64820367 20.59191626 14.38733012 18.86624291 14 16 C11.69 15.67 9.38 15.34 7 15 C7 14.01 7 13.02 7 12 C7.66 12 8.32 12 9 12 C8.67 11.34 8.34 10.68 8 10 C7.01 9.67 6.02 9.34 5 9 C5.185625 9.7425 5.37125 10.485 5.5625 11.25 C5.99203108 13.94990963 5.85122974 15.44631077 5 18 C4.34 18 3.68 18 3 18 C1.65218597 13.11417415 0.88427359 9.09196216 1 4 C0.69395291 2.66014028 0.36521228 1.32495618 0 0 Z " fill="#7B3F18" transform="translate(19,34)" />
<path d="M0 0 C-0.33 0.99 -0.66 1.98 -1 3 C-0.175 2.835 0.65 2.67 1.5 2.5 C5.41272317 1.94103955 9.05183173 1.93192813 13 2 C13 2.66 13 3.32 13 4 C15.64 4.33 18.28 4.66 21 5 C21 5.99 21 6.98 21 8 C11.84498778 9.17603912 11.84498778 9.17603912 8 8.375 C3.33471582 7.79183948 -0.75590163 9.04742002 -5 11 C-5.350625 11.4434375 -5.350625 11.4434375 -7.125 13.6875 C-9 16 -9 16 -11.0078125 16.3203125 C-13.00804787 16.31334304 -15.00666182 16.16611151 -17 16 C-17 14.02 -17 12.04 -17 10 C-16.01 10 -15.02 10 -14 10 C-14 9.34 -14 8.68 -14 8 C-13.690625 7.8865625 -13.690625 7.8865625 -12.125 7.3125 C-9.37739861 5.61545208 -9.06789821 3.97485929 -8 1 C-5.29120665 -0.35439668 -2.99066732 -0.06501451 0 0 Z " fill="#9A4F10" transform="translate(51,21)" />
<path d="M0 0 C-0.75 4.75 -0.75 4.75 -3 7 C-3.99 7 -4.98 7 -6 7 C-6 7.66 -6 8.32 -6 9 C-6.99 9 -7.98 9 -9 9 C-9 11.31 -9 13.62 -9 16 C-7.78183594 16.01417969 -6.56367187 16.02835938 -5.30859375 16.04296875 C-3.68485927 16.08989749 -2.06116253 16.13814471 -0.4375 16.1875 C-0.03756836 16.19040039 -0.03756836 16.19040039 1.98632812 16.20507812 C8.14080963 16.43116112 11.36965538 17.90416496 16 22 C16 22.66 16 23.32 16 24 C13.07558696 23.56993926 10.97327349 22.98524887 8.3671875 21.546875 C4.31859824 19.68696624 0.63132956 19.14566627 -3.75 18.5625 C-10.60709303 17.54975796 -16.73808123 16.09949245 -23 13 C-21.50115053 9.02059848 -19.25287411 7.56536515 -15.6875 5.375 C-14.74261719 4.78460937 -13.79773437 4.19421875 -12.82421875 3.5859375 C-8.41356979 1.10914154 -5.09461716 -0.29112098 0 0 Z " fill="#A25513" transform="translate(43,22)" />
<path d="M0 0 C10.31990561 -0.57244469 19.27709586 0.39502607 29 4 C30.43117339 6.86234677 29.71459867 8.80903667 29.1875 11.9375 C29.01605469 12.99839844 28.84460938 14.05929688 28.66796875 15.15234375 C28 18 28 18 26 21 C26 20.01 26 19.02 26 18 C25.01 18.33 24.02 18.66 23 19 C22.3125 21.0625 22.3125 21.0625 22 23 C22.66 23.33 23.32 23.66 24 24 C23.34 24.33 22.68 24.66 22 25 C21.01 24.67 20.02 24.34 19 24 C19.33 25.32 19.66 26.64 20 28 C16.25 31 16.25 31 14 31 C14 29.68 14 28.36 14 27 C12.35 27 10.7 27 9 27 C13.63519313 22.2360515 13.63519313 22.2360515 16.125 20.625 C18.88103512 18.23643623 19.71745689 15.35904147 21 12 C22.39195915 9.2160817 24.15575779 9.02101003 27 8 C27 7.34 27 6.68 27 6 C17.87869289 3.05984853 9.60356913 1.31905545 0 1 C0 0.67 0 0.34 0 0 Z " fill="#583215" transform="translate(53,20)" />
<path d="M0 0 C0.66 0 1.32 0 2 0 C1.71861942 2.29295236 1.4245814 4.58435456 1.125 6.875 C0.96257813 8.15117188 0.80015625 9.42734375 0.6328125 10.7421875 C0 14 0 14 -2 16 C-5.96 14.68 -9.92 13.36 -14 12 C-14 11.34 -14 10.68 -14 10 C-16.64 10 -19.28 10 -22 10 C-21.34 8.35 -20.68 6.7 -20 5 C-18.35 5.33 -16.7 5.66 -15 6 C-15.33 5.01 -15.66 4.02 -16 3 C-14.68 3 -13.36 3 -12 3 C-11.71125 3.639375 -11.4225 4.27875 -11.125 4.9375 C-10 7 -10 7 -8 8 C-8 7.34 -8 6.68 -8 6 C-7.01 6 -6.02 6 -5 6 C-5 6.99 -5 7.98 -5 9 C-5.66 9.66 -6.32 10.32 -7 11 C-6.175 11.165 -6.175 11.165 -2 12 C-1.34 8.04 -0.68 4.08 0 0 Z " fill="#572606" transform="translate(59,54)" />
<path d="M0 0 C3.0031512 0.39961286 6.00131365 0.81907767 9 1.25 C9.41958984 1.30478516 9.41958984 1.30478516 11.54296875 1.58203125 C17.41012833 2.44618654 21.82235106 4.09955777 27 7 C26.67 7.66 26.34 8.32 26 9 C23.36 8.34 20.72 7.68 18 7 C18.33 7.66 18.66 8.32 19 9 C22.0625 9.625 22.0625 9.625 25 10 C25 10.99 25 11.98 25 13 C23.68 13 22.36 13 21 13 C21 12.34 21 11.68 21 11 C18.03 11 15.06 11 12 11 C12 10.34 12 9.68 12 9 C11.01 8.34 10.02 7.68 9 7 C9 6.34 9 5.68 9 5 C9.99 5.165 9.99 5.165 15 6 C15 5.67 15 5.34 15 5 C14.08476563 4.97421875 13.16953125 4.9484375 12.2265625 4.921875 C11.03804687 4.86515625 9.84953125 4.8084375 8.625 4.75 C8.03332031 4.72679687 8.03332031 4.72679687 5.0390625 4.609375 C4.53761719 4.50882813 4.53761719 4.50882813 2 4 C0.81005859 1.96191406 0.81005859 1.96191406 0 0 Z " fill="#814822" transform="translate(29,38)" />
<path d="M0 0 C2.74354649 0.08980248 5.48391402 0.18644332 8.22558594 0.32373047 C9.21381348 0.36941162 10.20204102 0.41509277 11.22021484 0.4621582 C19.25787664 0.93939028 26.39127927 2.41609236 33.97558594 5.19873047 C33.97558594 6.18873047 33.97558594 7.17873047 33.97558594 8.19873047 C32.65558594 7.86873047 31.33558594 7.53873047 29.97558594 7.19873047 C29.97558594 7.85873047 29.97558594 8.51873047 29.97558594 9.19873047 C28.22558594 10.32373047 28.22558594 10.32373047 25.97558594 11.19873047 C23.72558594 10.32373047 23.72558594 10.32373047 21.97558594 9.19873047 C23.29558594 8.53873047 24.61558594 7.87873047 25.97558594 7.19873047 C23.33558594 6.53873047 20.69558594 5.87873047 17.97558594 5.19873047 C17.97558594 4.53873047 17.97558594 3.87873047 17.97558594 3.19873047 C13.35558594 3.52873047 8.73558594 3.85873047 3.97558594 4.19873047 C3.97558594 3.53873047 3.97558594 2.87873047 3.97558594 2.19873047 C1.33558594 2.19873047 -1.30441406 2.19873047 -4.02441406 2.19873047 C-2.02441406 0.19873047 -2.02441406 0.19873047 0 0 Z " fill="#98531B" transform="translate(46.0244140625,19.80126953125)" />
<path d="M0 0 C0 1.32 0 2.64 0 4 C0.99 3.67 1.98 3.34 3 3 C3.33 3.495 3.33 3.495 5 6 C4.01 6.66 3.02 7.32 2 8 C1.67 8.680625 1.34 9.36125 1 10.0625 C0 12 0 12 -3 13 C-4.1875 15.0625 -4.1875 15.0625 -5 17 C-7 15 -7 15 -7.1171875 12.28515625 C-7.03726563 11.22167969 -6.95734375 10.15820312 -6.875 9.0625 C-6.81054688 8.00160156 -6.74609375 6.94070312 -6.6796875 5.84765625 C-6 3 -6 3 -4.0703125 1.12109375 C-2 0 -2 0 0 0 Z " fill="#462108" transform="translate(67,47)" />
<path d="M0 0 C0.268125 0.1546875 0.268125 0.1546875 1.625 0.9375 C5.7917867 2.80158879 9.63008608 3.51266251 14 2 C14 1.34 14 0.68 14 0 C15.32 0 16.64 0 18 0 C18 0.66 18 1.32 18 2 C18.66 2.66 19.32 3.32 20 4 C18.68 4.33 17.36 4.66 16 5 C17.32 5.99 18.64 6.98 20 8 C18.68 8 17.36 8 16 8 C16 8.66 16 9.32 16 10 C14.68 9.34 13.36 8.68 12 8 C12 7.01 12 6.02 12 5 C11.01 5.33 10.02 5.66 9 6 C9 6.99 9 7.98 9 9 C6.23723823 8.47731534 3.6739124 7.89130413 1 7 C1.33 6.67 1.66 6.34 2 6 C1.01 5.01 0.02 4.02 -1 3 C-0.67 2.01 -0.34 1.02 0 0 Z " fill="#723814" transform="translate(35,52)" />
<path d="M0 0 C0.67546875 0.20496094 1.3509375 0.40992188 2.046875 0.62109375 C2.93890625 0.89050781 3.8309375 1.15992188 4.75 1.4375 C5.63171875 1.70433594 6.5134375 1.97117188 7.421875 2.24609375 C8.27265625 2.49488281 9.1234375 2.74367187 10 3 C10.62777344 3.19207031 11.25554688 3.38414063 11.90234375 3.58203125 C14.86535468 4.17242635 17.79488331 4.158458 20.8125 4.25 C27.15408969 4.65337536 30.45459306 5.56281703 35 10 C35 10.66 35 11.32 35 12 C32.08109709 11.57074957 29.98187551 10.9899639 27.3828125 9.55078125 C23.26494568 7.66302937 19.4580166 7.09587351 15 6.5 C9.41452671 5.75342684 4.9725085 4.8687549 0 2 C0 1.34 0 0.68 0 0 Z " fill="#D39762" transform="translate(24,34)" />
<path d="M0 0 C1.62992692 0.39695637 3.25392235 0.81832493 4.875 1.25 C5.32746094 1.36601563 5.32746094 1.36601563 7.6171875 1.953125 C10 3 10 3 10.875 5.0625 C11.060625 5.3821875 11.060625 5.3821875 12 7 C15.2578125 7.609375 15.2578125 7.609375 19.125 7.75 C19.76566406 7.77835938 19.76566406 7.77835938 23.0078125 7.921875 C23.99523437 7.94765625 24.98265625 7.9734375 26 8 C26.33 8.99 26.66 9.98 27 11 C25.845 10.835 24.69 10.67 23.5 10.5 C20.5027965 10.11068353 17.64493414 9.97953478 14.625 10.0625 C11 10 11 10 9 8 C7.0546875 7.3671875 7.0546875 7.3671875 4.875 6.875 C4.235625 6.730625 4.235625 6.730625 1 6 C0.67 4.02 0.34 2.04 0 0 Z " fill="#6A2E0C" transform="translate(19,34)" />
<path d="M0 0 C10.31990561 -0.57244469 19.27709586 0.39502607 29 4 C30.33332095 6.6666419 29.67102033 8.16680303 29 11 C27.35 11.33 25.7 11.66 24 12 C23.67 13.32 23.34 14.64 23 16 C21.68 15.67 20.36 15.34 19 15 C20.58358642 11.83282717 21.45263699 10.26731682 24.6875 8.6875 C25.450625 8.460625 26.21375 8.23375 27 8 C27 7.34 27 6.68 27 6 C17.87869289 3.05984853 9.60356913 1.31905545 0 1 C0 0.67 0 0.34 0 0 Z " fill="#4F2E10" transform="translate(53,20)" />
<path d="M0 0 C1.20785156 -0.00515625 2.41570312 -0.0103125 3.66015625 -0.015625 C6.7058189 0.23122251 8.387395 0.64744025 10.9375 2.25 C10.6075 2.91 10.2775 3.57 9.9375 4.25 C4.49908453 5.42781126 -0.62859951 5.3367801 -6.0625 4.25 C-8.39552989 4.21237049 -10.72963319 4.20334266 -13.0625 4.25 C-12.0625 2.25 -12.0625 2.25 -9.94140625 1.140625 C-6.51066449 0.07928291 -3.5881618 -0.01535042 0 0 Z " fill="#9C4A05" transform="translate(62.0625,24.75)" />
<path d="M0 0 C0.4021875 0.0103125 0.4021875 0.0103125 2.4375 0.0625 C2.35003716 1.50111294 2.24184652 2.93847508 2.125 4.375 C2.06699219 5.17550781 2.00898437 5.97601563 1.94921875 6.80078125 C1.02357428 10.89198848 -2.29886527 12.6991783 -5.5625 15.0625 C-5.5625 13.7425 -5.5625 12.4225 -5.5625 11.0625 C-6.2225 10.7325 -6.8825 10.4025 -7.5625 10.0625 C-7.2325 8.7425 -6.9025 7.4225 -6.5625 6.0625 C-5.2425 6.0625 -3.9225 6.0625 -2.5625 6.0625 C-2.6553125 5.6603125 -2.6553125 5.6603125 -3.125 3.625 C-3.269375 2.779375 -3.41375 1.93375 -3.5625 1.0625 C-2.5625 0.0625 -2.5625 0.0625 0 0 Z " fill="#442209" transform="translate(78.5625,37.9375)" />
<path d="M0 0 C7.75 0.75 7.75 0.75 10 3 C12.32275177 3.40047444 14.65739357 3.7397104 17 4 C17 4.66 17 5.32 17 6 C15.35 6 13.7 6 12 6 C11.67 6.66 11.34 7.32 11 8 C11 7.01 11 6.02 11 5 C10.34 5 9.68 5 9 5 C9 5.66 9 6.32 9 7 C8.34 6.67 7.68 6.34 7 6 C7 5.34 7 4.68 7 4 C6.01 3.67 5.02 3.34 4 3 C4.185625 3.7425 4.37125 4.485 4.5625 5.25 C4.99203108 7.94990963 4.85122974 9.44631077 4 12 C3.34 12 2.68 12 2 12 C0.86235649 7.73383684 0 4.43513689 0 0 Z " fill="#884D2A" transform="translate(20,40)" />
<path d="M0 0 C1.32 0 2.64 0 4 0 C4 0.66 4 1.32 4 2 C3.608125 2.0309375 3.608125 2.0309375 1.625 2.1875 C0.75875 2.455625 -0.1075 2.72375 -1 3 C-1.144375 3.3609375 -1.144375 3.3609375 -1.875 5.1875 C-3.48739011 9.21847529 -6.45507743 11.56704607 -10 14 C-10.66 14 -11.32 14 -12 14 C-12.33 14.99 -12.66 15.98 -13 17 C-13.99 17.33 -14.98 17.66 -16 18 C-15.34 16.35 -14.68 14.7 -14 13 C-13.34 13 -12.68 13 -12 13 C-11.855625 12.690625 -11.855625 12.690625 -11.125 11.125 C-10 9 -10 9 -8 7 C-7.01 7 -6.02 7 -5 7 C-4.731875 6.360625 -4.46375 5.72125 -4.1875 5.0625 C-3 3 -3 3 0 2 C0 1.34 0 0.68 0 0 Z " fill="#7A3E0E" transform="translate(76,27)" />
<path d="M0 0 C-1.0625 1.4375 -1.0625 1.4375 -3 3 C-3.5671875 3.0721875 -3.5671875 3.0721875 -6.4375 3.4375 C-10.54208965 4.0855931 -11.44995689 4.83442924 -14 8 C-14.7425 8.9075 -15.485 9.815 -16.25 10.75 C-16.8275 11.4925 -17.405 12.235 -18 13 C-19.32 12.67 -20.64 12.34 -22 12 C-20.50115053 8.02059848 -18.25287411 6.56536515 -14.6875 4.375 C-13.74261719 3.78460937 -12.79773437 3.19421875 -11.82421875 2.5859375 C-4.35009894 -1.61114776 -4.35009894 -1.61114776 0 0 Z " fill="#AE7A4A" transform="translate(42,23)" />
<path d="M0 0 C0.6290625 0.020625 0.6290625 0.020625 3.8125 0.125 C3.8125 1.115 3.8125 2.105 3.8125 3.125 C0.60869983 5.26086678 -0.20689967 5.35632175 -3.875 5.25 C-4.27912109 5.24097656 -4.27912109 5.24097656 -6.32421875 5.1953125 C-6.63166016 5.18371094 -6.63166016 5.18371094 -8.1875 5.125 C-6.68328007 0.61234022 -4.4443381 -0.145716 0 0 Z " fill="#B46D28" transform="translate(55.1875,28.875)" />
<path d="M0 0 C2.60643914 0.5012383 4.49509517 1.25831053 6.875 2.5 C9.99547783 3.99782936 12.58276463 4.59318627 16 5 C16 5.99 16 6.98 16 8 C14.68 8 13.36 8 12 8 C12 7.34 12 6.68 12 6 C9.03 6 6.06 6 3 6 C3 5.34 3 4.68 3 4 C2.01 3.34 1.02 2.68 0 2 C0 1.34 0 0.68 0 0 Z " fill="#8A4C24" transform="translate(38,43)" />
<path d="M0 0 C5.37677337 0.11384048 10.71627093 0.62789471 16.0625 1.1875 C16.0625 1.8475 16.0625 2.5075 16.0625 3.1875 C11.4425 3.5175 6.8225 3.8475 2.0625 4.1875 C2.0625 3.5275 2.0625 2.8675 2.0625 2.1875 C-0.5775 2.1875 -3.2175 2.1875 -5.9375 2.1875 C-3.9375 0.1875 -3.9375 0.1875 0 0 Z " fill="#B27541" transform="translate(47.9375,19.8125)" />
<path d="M0 0 C3.29201643 0.13854088 6.58350709 0.28707024 9.875 0.4375 C10.81214844 0.47681641 11.74929687 0.51613281 12.71484375 0.55664062 C13.16279297 0.57758789 13.16279297 0.57758789 15.4296875 0.68359375 C15.843396 0.70192261 15.843396 0.70192261 17.93701172 0.79467773 C20 1 20 1 22 2 C22 2.66 22 3.32 22 4 C23.65 4 25.3 4 27 4 C26.67 5.65 26.34 7.3 26 9 C25.58492187 8.57847656 25.16984375 8.15695313 24.7421875 7.72265625 C19.17743618 2.77491711 14.50027064 2.29913018 7.171875 2.203125 C4.07542449 2.00483014 2.6498602 1.45203721 0 0 Z " fill="#A3652A" transform="translate(34,37)" />
<path d="M0 0 C1.32 0 2.64 0 4 0 C4 2.64 4 5.28 4 8 C3.01 7.835 3.01 7.835 -2 7 C-1.67 6.01 -1.34 5.02 -1 4 C-1.99 3.67 -2.98 3.34 -4 3 C-2.68 3 -1.36 3 0 3 C0 2.01 0 1.02 0 0 Z " fill="#80461E" transform="translate(54,48)" />
<path d="M0 0 C2.97088824 4.45633237 3.29066467 7.42816596 3.71875 12.6875 C4 15 4 15 5 17 C6.64363134 17.72159424 8.31050386 18.39351421 10 19 C10 19.33 10 19.66 10 20 C3.125 19.125 3.125 19.125 2 18 C1.78821866 16.10867494 1.63078008 14.21114646 1.5 12.3125 C1.18791639 8.15633897 0.79664224 4.09701726 0 0 Z " fill="#381702" transform="translate(19,41)" />
<path d="M0 0 C0 0.66 0 1.32 0 2 C-4.95 2 -9.9 2 -15 2 C-14 0 -14 0 -12 -1.25 C-7.69115527 -2.32721118 -4.20401132 -1.19067859 0 0 Z " fill="#904603" transform="translate(64,27)" />
<path d="M0 0 C10.16236162 0.84132841 10.16236162 0.84132841 14 3 C14.33 3.99 14.66 4.98 15 6 C11.33827525 5.37321829 8.1181005 4.35548154 4.6875 2.9375 C4.24599609 2.75638672 4.24599609 2.75638672 2.01171875 1.83984375 C1.34785156 1.56269531 0.68398438 1.28554688 0 1 C0 0.67 0 0.34 0 0 Z " fill="#E6BA8F" transform="translate(44,40)" />
<path d="M0 0 C-0.36712972 2.71675995 -0.72744599 4.61063713 -2.3125 6.875 C-4 8 -4 8 -6.1875 7.6875 C-6.785625 7.460625 -7.38375 7.23375 -8 7 C-6.47663111 3.31852519 -4.31953005 0 0 0 Z " fill="#A66F3B" transform="translate(28,28)" />
<path d="M0 0 C0.33 0.99 0.66 1.98 1 3 C-0.125 5.1875 -0.125 5.1875 -2 7 C-4.5 7.4375 -4.5 7.4375 -7 7 C-8.8125 5.5 -8.8125 5.5 -10 4 C-8.906875 3.896875 -7.81375 3.79375 -6.6875 3.6875 C-3.14440371 3.02692273 -2.06756277 2.7972908 0 0 Z " fill="#AA6422" transform="translate(42,22)" />
<path d="M0 0 C0.66 0 1.32 0 2 0 C0.79618552 2.49361571 -0.45428722 4.68143083 -2 7 C-2.66 7 -3.32 7 -4 7 C-4.33 7.99 -4.66 8.98 -5 10 C-5.99 10.33 -6.98 10.66 -8 11 C-7.34 9.35 -6.68 7.7 -6 6 C-5.34 6 -4.68 6 -4 6 C-3.855625 5.690625 -3.855625 5.690625 -3.125 4.125 C-2 2 -2 2 0 0 Z " fill="#8B4A15" transform="translate(68,34)" />
<path d="M0 0 C4.875 3.625 4.875 3.625 6 7 C4.68528432 6.71848913 3.37324233 6.42446661 2.0625 6.125 C1.33160156 5.96257813 0.60070312 5.80015625 -0.15234375 5.6328125 C-2 5 -2 5 -3 3 C-2.34 3 -1.68 3 -1 3 C-0.67 2.01 -0.34 1.02 0 0 Z " fill="#AA641C" transform="translate(28,30)" />
<path d="M0 0 C3.3 0.99 6.6 1.98 10 3 C9.67 3.66 9.34 4.32 9 5 C6.35139573 5.59355614 3.70802678 5.74209269 1 6 C0.67 4.02 0.34 2.04 0 0 Z " fill="#773C13" transform="translate(19,34)" />
<path d="M0 0 C2.375 -0.125 2.375 -0.125 5 0 C7 2 7 2 7 5 C6.01 4.835 6.01 4.835 1 4 C0.67 2.68 0.34 1.36 0 0 Z " fill="#552002" transform="translate(28,49)" />
<path d="M0 0 C5.65020618 0.60108576 10.66164461 2.07528683 16 4 C15.67 4.66 15.34 5.32 15 6 C10.05 4.35 5.1 2.7 0 1 C0 0.67 0 0.34 0 0 Z " fill="#9E6B41" transform="translate(65,22)" />
<path d="M0 0 C1.99609375 0.3046875 1.99609375 0.3046875 4.4375 0.875 C5.24058594 1.05804688 6.04367188 1.24109375 6.87109375 1.4296875 C9 2 9 2 11 3 C10.67 3.66 10.34 4.32 10 5 C7.36 4.34 4.72 3.68 2 3 C1.67 3.66 1.34 4.32 1 5 C0.34 3.68 -0.32 2.36 -1 1 C-0.67 0.67 -0.34 0.34 0 0 Z " fill="#753D1C" transform="translate(45,42)" />
<path d="M0 0 C0 0.99 0 1.98 0 3 C-0.99 3 -1.98 3 -3 3 C-3.33 4.32 -3.66 5.64 -4 7 C-5.32 6.67 -6.64 6.34 -8 6 C-4.76923077 0 -4.76923077 0 0 0 Z " fill="#5C2803" transform="translate(80,29)" />
<path d="M0 0 C0.33 0 0.66 0 1 0 C1.04898437 0.77085938 1.09796875 1.54171875 1.1484375 2.3359375 C1.22320313 3.33882812 1.29796875 4.34171875 1.375 5.375 C1.44460937 6.37273438 1.51421875 7.37046875 1.5859375 8.3984375 C2 11 2 11 4 13 C3.01 13.99 2.02 14.98 1 16 C-1.26273207 12.44181064 -1.07331744 9.87452049 -0.625 5.75 C-0.51414062 4.67234375 -0.40328125 3.5946875 -0.2890625 2.484375 C-0.19367187 1.66453125 -0.09828125 0.8446875 0 0 Z " fill="#68553B" transform="translate(20,48)" />
<path d="M0 0 C4.29 0.33 8.58 0.66 13 1 C9.79619983 3.13586678 8.98060033 3.23132175 5.3125 3.125 C4.50425781 3.10695312 3.69601563 3.08890625 2.86328125 3.0703125 C2.55583984 3.05871094 2.55583984 3.05871094 1 3 C0.67 2.01 0.34 1.02 0 0 Z " fill="#6A2B08" transform="translate(47,45)" />
<path d="M0 0 C1.32 0 2.64 0 4 0 C4 1.32 4 2.64 4 4 C4.66 4 5.32 4 6 4 C6 4.66 6 5.32 6 6 C3.36 5.34 0.72 4.68 -2 4 C-1.34 2.68 -0.68 1.36 0 0 Z " fill="#4F1F08" transform="translate(26,55)" />
<path d="M0 0 C3.35595828 0.59927826 5.37801226 1.84622436 8 4 C6.68 4 5.36 4 4 4 C4 4.66 4 5.32 4 6 C2.68 5.34 1.36 4.68 0 4 C0 2.68 0 1.36 0 0 Z " fill="#6D3813" transform="translate(47,56)" />
<path d="M0 0 C1.5625 1.0625 1.5625 1.0625 3 3 C2.6875 6.6875 2.6875 6.6875 2 10 C1.34 10 0.68 10 0 10 C-1.125 3.375 -1.125 3.375 0 0 Z " fill="#7A441F" transform="translate(22,42)" />
<path d="M0 0 C2.97 0.33 5.94 0.66 9 1 C8.67 1.66 8.34 2.32 8 3 C5.03 3 2.06 3 -1 3 C-0.67 2.01 -0.34 1.02 0 0 Z " fill="#AC6423" transform="translate(48,31)" />
</svg>