<?xml version='1.0' encoding='utf-8'?>
<svg xmlns="http://www.w3.org/2000/svg" version="1.1" width="103" height="86">
<path d="M0 0 C2.67578125 1.33984375 2.67578125 1.33984375 5.3125 2.9375 C6.19550781 3.46214844 7.07851563 3.98679687 7.98828125 4.52734375 C8.65214844 5.01332031 9.31601563 5.49929687 10 6 C10 6.66 10 7.32 10 8 C10.804375 8.061875 11.60875 8.12375 12.4375 8.1875 C18.32397822 9.53003012 23.1417419 12.277712 27.5625 16.375 C29.64255276 20.17335721 30.08496085 21.73248732 29 26 C25.64716606 29.14211979 21.85680765 31.52202562 18 34 C16.32875457 35.1810473 14.66182331 36.36823148 13 37.5625 C9.42414418 40.04335691 5.8244215 42.48446659 2.1875 44.875 C1.31480469 45.44992188 0.44210938 46.02484375 -0.45703125 46.6171875 C-4.89096007 49.028264 -4.89096007 49.028264 -8 49 C-10.38667181 47.32963454 -12.33578525 45.72888727 -14.4375 43.75 C-15.66816478 42.64055207 -16.90131185 41.53385247 -18.13671875 40.4296875 C-18.76884277 39.86088867 -19.4009668 39.29208984 -20.05224609 38.70605469 C-23.75409584 35.46357211 -27.66351799 32.48688419 -31.55639648 29.47949219 C-37.92818483 24.54374344 -37.92818483 24.54374344 -38.4375 20.6875 C-38 17 -38 17 -36.0625 14.25 C-32.72234809 11.79601084 -29.8523872 10.74493231 -25.890625 9.67578125 C-24 9 -24 9 -23 7 C-21.13417682 6.12077072 -19.23097938 5.31998079 -17.3125 4.5625 C-13.92601434 3.21031319 -10.76790856 1.87340467 -7.5625 0.125 C-4.40069297 -1.26311041 -3.28545173 -0.92703536 0 0 Z " fill="#85400E" transform="translate(56,19)" />
<path d="M0 0 C4.93243409 0.83758315 8.35763965 3.6095376 12.3125 6.5625 C9.3125 8.5625 9.3125 8.5625 7.3125 9.5625 C7.3125 10.5525 7.3125 11.5425 7.3125 12.5625 C7.6528125 12.315 7.6528125 12.315 9.375 11.0625 C13.18738373 9.11575086 15.0532141 8.93408077 19.3125 9.5625 C28.55003666 14.03757331 28.55003666 14.03757331 30.3125 17.5625 C26.58284861 19.59685531 24.64344958 20.5625 20.3125 20.5625 C18.18963676 19.40155917 16.29058291 18.04708955 14.3125 16.65625 C12.3125 15.5625 12.3125 15.5625 8.3125 15.5625 C11.9425 17.8725 15.5725 20.1825 19.3125 22.5625 C12.95155325 27.6512574 12.95155325 27.6512574 9.3125 27.5625 C6.3125 25.3125 6.3125 25.3125 4.8046875 23.91015625 C2.82663517 22.12369537 0.63200532 20.85869415 -1.6875 19.5625 C-1.3575 18.5725 -1.0275 17.5825 -0.6875 16.5625 C1.375 15.875 1.375 15.875 3.3125 15.5625 C3.3125 14.9025 3.3125 14.2425 3.3125 13.5625 C2.24 13.871875 1.1675 14.18125 0.0625 14.5 C-1.175 14.850625 -2.4125 15.20125 -3.6875 15.5625 C-4.409375 15.85125 -5.13125 16.14 -5.875 16.4375 C-6.1740625 16.458125 -6.1740625 16.458125 -7.6875 16.5625 C-9.625 14.8125 -9.625 14.8125 -11.6875 12.5625 C-12.595 12.02625 -13.5025 11.49 -14.4375 10.9375 C-15.18 10.48375 -15.9225 10.03 -16.6875 9.5625 C-16.6875 8.9025 -16.6875 8.2425 -16.6875 7.5625 C-16.01203125 7.30855469 -15.3365625 7.05460937 -14.640625 6.79296875 C-13.74859375 6.44878906 -12.8565625 6.10460937 -11.9375 5.75 C-11.05578125 5.41355469 -10.1740625 5.07710937 -9.265625 4.73046875 C-5.88584497 3.19932598 -3.64405839 0.7627099 0 0 Z " fill="#924C19" transform="translate(51.6875,19.4375)" />
<path d="M0 0 C2.67578125 1.33984375 2.67578125 1.33984375 5.3125 2.9375 C6.19550781 3.46214844 7.07851563 3.98679687 7.98828125 4.52734375 C8.65214844 5.01332031 9.31601563 5.49929687 10 6 C10 6.66 10 7.32 10 8 C10.804375 8.061875 11.60875 8.12375 12.4375 8.1875 C18.32397822 9.53003012 23.1417419 12.277712 27.5625 16.375 C29.64255276 20.17335721 30.08496085 21.73248732 29 26 C25.64716606 29.14211979 21.85680765 31.52202562 18 34 C16.32875457 35.1810473 14.66182331 36.36823148 13 37.5625 C9.42414418 40.04335691 5.8244215 42.48446659 2.1875 44.875 C1.31480469 45.44992188 0.44210938 46.02484375 -0.45703125 46.6171875 C-4.89096007 49.028264 -4.89096007 49.028264 -8 49 C-10.38667181 47.32963454 -12.33578525 45.72888727 -14.4375 43.75 C-15.66816478 42.64055207 -16.90131185 41.53385247 -18.13671875 40.4296875 C-18.76884277 39.86088867 -19.4009668 39.29208984 -20.05224609 38.70605469 C-23.75409584 35.46357211 -27.66351799 32.48688419 -31.55639648 29.47949219 C-37.92818483 24.54374344 -37.92818483 24.54374344 -38.4375 20.6875 C-38 17 -38 17 -36.0625 14.25 C-32.72234809 11.79601084 -29.8523872 10.74493231 -25.890625 9.67578125 C-24 9 -24 9 -23 7 C-21.13417682 6.12077072 -19.23097938 5.31998079 -17.3125 4.5625 C-13.92601434 3.21031319 -10.76790856 1.87340467 -7.5625 0.125 C-4.40069297 -1.26311041 -3.28545173 -0.92703536 0 0 Z M-12 5 C-14.31241696 5.89032081 -16.62975799 6.60850228 -19.01171875 7.2890625 C-21 8 -21 8 -23 10 C-25.79504809 11.06539642 -28.62425296 11.97788221 -31.46875 12.90234375 C-34 14 -34 14 -36 17 C-36.42578125 19.88671875 -36.42578125 19.88671875 -36 23 C-33.98046875 25.45703125 -33.98046875 25.45703125 -31.1875 27.8125 C-30.18589844 28.6684375 -29.18429688 29.524375 -28.15234375 30.40625 C-27.10240598 31.27185744 -26.05163191 32.13645156 -25 33 C-24.03191406 33.8146875 -23.06382813 34.629375 -22.06640625 35.46875 C-8.2096875 47 -8.2096875 47 -5 47 C-4.80792969 46.2678125 -4.61585937 45.535625 -4.41796875 44.78125 C-2.5296285 41.07739805 0.21804288 39.54615908 3.6875 37.5 C4.96434646 36.7161532 6.24039858 35.9310109 7.515625 35.14453125 C8.12341797 34.77408691 8.73121094 34.40364258 9.35742188 34.02197266 C11.2813169 32.82497138 13.11710946 31.53609208 14.9375 30.1875 C17.23344812 28.54753706 19.34450417 27.24704881 21.8125 25.9375 C25 24 25 24 27 20 C24.36 21.65 21.72 23.3 19 25 C19.6875 22.625 19.6875 22.625 21 20 C23.625 18.6875 23.625 18.6875 26 18 C21.86420259 13.3679069 17.64482227 10.32480274 11.4375 9.5625 C7.71864827 10.0358084 5.21854609 11.11597302 2 13 C2.33 12.01 2.66 11.02 3 10 C5.5625 8.8125 5.5625 8.8125 8 8 C4.41357723 4.14791629 1.32748816 1.33942536 -4 0.5625 C-7.7553333 1.11015277 -9.07552275 2.61961154 -12 5 Z " fill="#542A0A" transform="translate(56,19)" />
<path d="M0 0 C2.96474041 2.12175398 5.84836851 4.301487 8.69140625 6.58203125 C13.26155512 10.04186195 13.26155512 10.04186195 17.4453125 9.8046875 C18.28835937 9.53914063 19.13140625 9.27359375 20 9 C16.94713476 12.25834655 13.69797078 14.75386972 10 17.25 C8.96875 17.95640625 7.9375 18.6628125 6.875 19.390625 C4 21 4 21 0 21 C-2.359375 19.5390625 -2.359375 19.5390625 -4.75 17.625 C-5.54921875 16.99851562 -6.3484375 16.37203125 -7.171875 15.7265625 C-7.77515625 15.15679687 -8.3784375 14.58703125 -9 14 C-9 13.34 -9 12.68 -9 12 C-6.41791754 13.1475922 -4.73071461 14.24802602 -2.625 16.1875 C0 18 0 18 3 18 C6.35325729 16.88224757 8.34110891 15.28960066 11 13 C11.66 13 12.32 13 13 13 C12.67 12.34 12.34 11.68 12 11 C6.25 11.875 6.25 11.875 4 13 C3.67 13.99 3.34 14.98 3 16 C2.34 16 1.68 16 1 16 C-0.296875 14.609375 -0.296875 14.609375 -1.75 12.75 C-3.78795304 10.26530356 -5.64600944 8.388269 -8.375 6.6875 C-9.24125 6.130625 -10.1075 5.57375 -11 5 C-11 4.34 -11 3.68 -11 3 C-4.11374533 -1.37012315 -4.11374533 -1.37012315 0 0 Z " fill="#BB7133" transform="translate(48,41)" />
<path d="M0 0 C3.25 -0.375 3.25 -0.375 6 0 C6 0.66 6 1.32 6 2 C5.34 2.33 5.34 2.33 2 4 C3.12783937 7.38351811 3.45088872 7.52883475 6.4375 9.0625 C8.74149765 10.26019398 10.13152817 11.13152817 12 13 C15.89928865 12.69216142 17.98754934 11.37791318 21 9 C20.2059375 8.50628906 19.411875 8.01257812 18.59375 7.50390625 C17.5728125 6.86324219 16.551875 6.22257812 15.5 5.5625 C14.4790625 4.92441406 13.458125 4.28632812 12.40625 3.62890625 C11.6121875 3.09136719 10.818125 2.55382813 10 2 C10 1.67 10 1.34 10 1 C16.39969165 1.2723273 21.24234087 3.66308623 26 8 C26 8.99 26 9.98 26 11 C28.64 9.35 31.28 7.7 34 6 C31.09580803 11.80838393 26.57113027 13.92601123 21 17 C20.30132812 17.38800781 19.60265625 17.77601562 18.8828125 18.17578125 C16.6331709 19.08590596 15.41413321 19.35897892 13 19 C8.95028191 16.77207486 5.51211302 13.98823619 2 11 C1.32839844 10.45472656 0.65679687 9.90945312 -0.03515625 9.34765625 C-1.37556354 8.25441626 -2.6917179 7.13148722 -4 6 C-2.375 3 -2.375 3 0 0 Z " fill="#87400E" transform="translate(49,33)" />
<path d="M0 0 C0.66 0.33 1.32 0.66 2 1 C1.67 1.66 1.34 2.32 1 3 C0.66796875 5.85546875 0.66796875 5.85546875 1 9 C2.80078125 11.23828125 2.80078125 11.23828125 5.3125 13.3125 C6.22515625 14.07820313 7.1378125 14.84390625 8.078125 15.6328125 C9.04234375 16.41398437 10.0065625 17.19515625 11 18 C11.92296875 18.78117187 12.8459375 19.56234375 13.796875 20.3671875 C19.29435607 24.97948094 24.92732479 29.17646376 31 33 C31.33 32.01 31.66 31.02 32 30 C34.33333333 29.33333333 36.66666667 28.66666667 39 28 C39.165 27.505 39.165 27.505 40 25 C41.94982535 23.59431196 43.95950578 22.2704964 46 21 C46.969375 20.34 47.93875 19.68 48.9375 19 C51.1876127 17.53053865 53.41000869 16.18306968 55.75 14.875 C59 13 59 13 61 11 C61.99 11 62.98 11 64 11 C64 9.35 64 7.7 64 6 C64.33 6 64.66 6 65 6 C65.3046875 8.75390625 65.3046875 8.75390625 65 12 C62.9453125 14.08984375 62.9453125 14.08984375 60.125 15.9375 C59.11695313 16.61554687 58.10890625 17.29359375 57.0703125 17.9921875 C56.05710938 18.65476562 55.04390625 19.31734375 54 20 C52.32995164 21.18273941 50.66308948 22.36999532 49 23.5625 C45.42414418 26.04335691 41.8244215 28.48446659 38.1875 30.875 C37.31480469 31.44992188 36.44210938 32.02484375 35.54296875 32.6171875 C31.10903993 35.028264 31.10903993 35.028264 28 35 C25.61332819 33.32963454 23.66421475 31.72888727 21.5625 29.75 C20.33183522 28.64055207 19.09868815 27.53385247 17.86328125 26.4296875 C17.23115723 25.86088867 16.5990332 25.29208984 15.94775391 24.70605469 C12.24590416 21.46357211 8.33648201 18.48688419 4.44360352 15.47949219 C2.18617263 13.730829 0.02171823 12.02171823 -2 10 C-2.31537716 5.66356399 -2.44897847 3.67346771 0 0 Z " fill="#3D1A06" transform="translate(20,33)" />
<path d="M0 0 C4.53720182 2.91234654 8.69599843 6.08436127 12.8125 9.5625 C13.39708984 10.04396484 13.98167969 10.52542969 14.58398438 11.02148438 C18.88022791 14.64068374 18.88022791 14.64068374 20 18 C22.79174406 20.16022629 25.70034994 22.09271945 28.62890625 24.0625 C29.02013672 24.3821875 29.02013672 24.3821875 31 26 C31 26.99 31 27.98 31 29 C26.49667563 27.5459746 23.36531245 25.02077586 19.875 21.9375 C18.73119457 20.94707781 17.58664992 19.95750876 16.44140625 18.96875 C15.86922363 18.47246094 15.29704102 17.97617187 14.70751953 17.46484375 C11.24667487 14.49586062 7.68819884 11.64652117 4.14453125 8.77734375 C2 7 2 7 0 5 C-0.125 2.375 -0.125 2.375 0 0 Z " fill="#8D4F24" transform="translate(20,37)" />
<path d="M0 0 C2.89453125 1.62890625 2.89453125 1.62890625 5.8125 3.5625 C6.78832031 4.20316406 7.76414062 4.84382813 8.76953125 5.50390625 C9.50558594 5.99761719 10.24164063 6.49132813 11 7 C4.81628063 12.09308002 4.81628063 12.09308002 1 12 C-2 9.75 -2 9.75 -3.5078125 8.34765625 C-5.48586483 6.56119537 -7.68049468 5.29619415 -10 4 C-9 1 -9 1 -7.25 -0.25 C-4.34424746 -1.21858418 -2.94665441 -0.83284207 0 0 Z " fill="#BA6F35" transform="translate(60,35)" />
<path d="M0 0 C2.17626486 1.54351825 4.03474009 3.17853959 6 5 C3.33333333 7 0.66666667 9 -2 11 C-4.51896049 9.880462 -6.39734655 8.68018448 -8.5625 6.9375 C-11 5 -11 5 -14 4 C-14 3.01 -14 2.02 -14 1 C-8.57641166 -1.87782238 -5.90104883 -2.57500313 0 0 Z " fill="#BD814B" transform="translate(36,32)" />
<path d="M0 0 C2.26122098 1.73014523 4.31748885 3.42370246 6.12890625 5.62890625 C6.12890625 6.28890625 6.12890625 6.94890625 6.12890625 7.62890625 C6.78890625 7.62890625 7.44890625 7.62890625 8.12890625 7.62890625 C8.15984375 7.31953125 8.15984375 7.31953125 8.31640625 5.75390625 C9.12890625 3.62890625 9.12890625 3.62890625 11.44140625 2.31640625 C14.20542278 1.60933225 15.49551354 1.65357562 18.12890625 2.62890625 C18.12890625 3.28890625 18.12890625 3.94890625 18.12890625 4.62890625 C16.3359375 6.171875 16.3359375 6.171875 13.94140625 7.81640625 C13.55275391 8.09162109 13.55275391 8.09162109 11.5859375 9.484375 C9.12890625 10.62890625 9.12890625 10.62890625 6.78125 10.64453125 C2.92744737 9.16884836 0.0558104 6.78499916 -3.12109375 4.19140625 C-3.75789063 3.68802734 -4.3946875 3.18464844 -5.05078125 2.66601562 C-9.72452099 -1.07794823 -9.72452099 -1.07794823 -10.87109375 -3.37109375 C-6.10909761 -5.22177861 -3.84945975 -2.73330668 0 0 Z " fill="#8A4618" transform="translate(42.87109375,49.37109375)" />
<path d="M0 0 C9.20659554 4.41319108 9.20659554 4.41319108 11 8 C7.27034861 10.03435531 5.33094958 11 1 11 C-1.796875 9.46875 -1.796875 9.46875 -4.75 7.5 C-5.73484375 6.8503125 -6.7196875 6.200625 -7.734375 5.53125 C-8.48203125 5.0259375 -9.2296875 4.520625 -10 4 C-9.67 3.01 -9.34 2.02 -9 1 C-5.94736897 -0.52631552 -3.28717904 -0.65145912 0 0 Z " fill="#CB8241" transform="translate(71,29)" />
<path d="M0 0 C4.90712113 0.92587191 8.36048682 3.67416349 12.3125 6.625 C9.68602812 8.37598126 7.02474618 10.01231308 4.3125 11.625 C3.61125 11.026875 2.91 10.42875 2.1875 9.8125 C-0.65780977 7.64759039 -3.45382767 6.12903364 -6.6875 4.625 C-4.58216558 2.03381917 -3.29165047 0.76550011 0 0 Z " fill="#BA7840" transform="translate(51.6875,19.375)" />
<path d="M0 0 C0.66 0.33 1.32 0.66 2 1 C1.67 1.66 1.34 2.32 1 3 C0.66796875 5.85546875 0.66796875 5.85546875 1 9 C2.80078125 11.23828125 2.80078125 11.23828125 5.3125 13.3125 C5.76947266 13.69599609 5.76947266 13.69599609 8.08203125 15.63671875 C9.04496094 16.41660156 10.00789063 17.19648437 11 18 C11.45568359 18.38478516 11.45568359 18.38478516 13.76171875 20.33203125 C19.61555522 25.23388861 25.67173236 29.73082162 32 34 C30.18505859 34.63378906 30.18505859 34.63378906 28 35 C25.68751927 33.32818016 23.70402808 31.67920385 21.625 29.75 C20.38515142 28.64060965 19.14289224 27.53390843 17.8984375 26.4296875 C17.5792334 26.14528809 17.5792334 26.14528809 15.96386719 24.70605469 C12.24622253 21.47645488 8.33948471 18.48942208 4.44384766 15.47949219 C2.18622834 13.73093746 0.02177443 12.02177443 -2 10 C-2.31537716 5.66356399 -2.44897847 3.67346771 0 0 Z " fill="#472107" transform="translate(20,33)" />
<path d="M0 0 C0.66 0 1.32 0 2 0 C2 0.99 2 1.98 2 3 C-0.0625 4.4375 -0.0625 4.4375 -3 6 C-7.46518391 8.51674002 -11.75916712 11.11262442 -16 14 C-17.03125 14.66 -18.0625 15.32 -19.125 16 C-22 18 -22 18 -24.125 20.1875 C-26.12290524 22.1188084 -27.28952231 22.6127889 -30 23 C-30 22.01 -30 21.02 -30 20 C-27.67775942 18.2366513 -25.39892325 16.67005927 -22.9375 15.125 C-21.61252098 14.27462092 -20.28829905 13.42306104 -18.96484375 12.5703125 C-18.30613281 12.14878906 -17.64742187 11.72726563 -16.96875 11.29296875 C-15.02349161 10.01542802 -13.13207526 8.68352728 -11.24609375 7.3203125 C-8.89688066 5.64109159 -6.65112311 4.1236522 -4.125 2.75 C-1 1 -1 1 0 0 Z " fill="#5B2105" transform="translate(82,41)" />
<path d="M0 0 C3.47355307 1.15785102 6.35486327 2.58645081 9.4375 4.5625 C12.02061794 6.01156616 14.08759012 6.58394145 17 7 C16.360625 7.598125 15.72125 8.19625 15.0625 8.8125 C13 11 13 11 12 14 C11.34 14 10.68 14 10 14 C8.703125 12.609375 8.703125 12.609375 7.25 10.75 C5.21204696 8.26530356 3.35399056 6.388269 0.625 4.6875 C-0.24125 4.130625 -1.1075 3.57375 -2 3 C-2 2.34 -2 1.68 -2 1 C-1.34 0.67 -0.68 0.34 0 0 Z " fill="#C68444" transform="translate(39,43)" />
<path d="M0 0 C6.39969165 0.2723273 11.24234087 2.66308623 16 7 C16 7.99 16 8.98 16 10 C18.64 8.35 21.28 6.7 24 5 C21.82905523 9.34188953 20.50685716 10.30821427 16.5 12.8125 C15.5203125 13.43769531 14.540625 14.06289063 13.53125 14.70703125 C12.6959375 15.13371094 11.860625 15.56039062 11 16 C10.34 15.67 9.68 15.34 9 15 C10.32 14.34 11.64 13.68 13 13 C13 12.01 13 11.02 13 10 C12.01 9.67 11.02 9.34 10 9 C10.33 8.67 10.66 8.34 11 8 C10.2059375 7.50628906 9.411875 7.01257812 8.59375 6.50390625 C7.5728125 5.86324219 6.551875 5.22257812 5.5 4.5625 C4.4790625 3.92441406 3.458125 3.28632812 2.40625 2.62890625 C1.6121875 2.09136719 0.818125 1.55382813 0 1 C0 0.67 0 0.34 0 0 Z " fill="#8E4B1F" transform="translate(59,34)" />
<path d="M0 0 C0.7425 0.350625 1.485 0.70125 2.25 1.0625 C5.1322726 2.04509293 6.21176345 2.0326802 9 1 C5.94713476 4.25834655 2.69797078 6.75386972 -1 9.25 C-2.03125 9.95640625 -3.0625 10.6628125 -4.125 11.390625 C-7 13 -7 13 -11 13 C-13.359375 11.5390625 -13.359375 11.5390625 -15.75 9.625 C-16.54921875 8.99851562 -17.3484375 8.37203125 -18.171875 7.7265625 C-18.77515625 7.15679687 -19.3784375 6.58703125 -20 6 C-20 5.34 -20 4.68 -20 4 C-17.41791754 5.1475922 -15.73071461 6.24802602 -13.625 8.1875 C-11 10 -11 10 -8 10 C-4.64674271 8.88224757 -2.65889109 7.28960066 0 5 C0.66 5 1.32 5 2 5 C1.34 3.35 0.68 1.7 0 0 Z " fill="#9E5935" transform="translate(59,49)" />
<path d="M0 0 C3 1 3 1 5 3 C7.5963192 3.38015988 10.1662335 3.50595314 12.78515625 3.65625 C13.51605469 3.7696875 14.24695313 3.883125 15 4 C15.33 4.66 15.66 5.32 16 6 C10.82421875 9.22265625 10.82421875 9.22265625 9 10 C5.86363109 8.9545437 5.23811043 8.23811043 3 6 C2.113125 5.484375 1.22625 4.96875 0.3125 4.4375 C-0.450625 3.963125 -1.21375 3.48875 -2 3 C-2 2.34 -2 1.68 -2 1 C-1.34 0.67 -0.68 0.34 0 0 Z " fill="#CC8D50" transform="translate(37,26)" />
<path d="M0 0 C1.48280196 0.78483659 2.9611498 1.57809334 4.4375 2.375 C4.84935547 2.59542969 4.84935547 2.59542969 6.93359375 3.7109375 C9 5 9 5 10 7 C10.99 7 11.98 7 13 7 C12.67 8.65 12.34 10.3 12 12 C11.01 12.33 10.02 12.66 9 13 C9 12.34 9 11.68 9 11 C8.01 10.67 7.02 10.34 6 10 C6 9.34 6 8.68 6 8 C4.04109119 6.60699818 2.0360882 5.27754554 0 4 C-0.99 3.34 -1.98 2.68 -3 2 C-2.01 1.34 -1.02 0.68 0 0 Z " fill="#965224" transform="translate(34,28)" />
<path d="M0 0 C4.59701767 1.31635669 8.01352039 3.12772419 11.875 5.9375 C12.84179688 6.62714844 13.80859375 7.31679688 14.8046875 8.02734375 C15.16691406 8.35283203 15.16691406 8.35283203 17 10 C17 10.99 17 11.98 17 13 C12.48240045 11.5332469 9.23877673 8.98823226 5.6875 5.9375 C5.13771484 5.47794922 4.58792969 5.01839844 4.02148438 4.54492188 C2.65722044 3.39080543 1.32538998 2.1985584 0 1 C0 0.67 0 0.34 0 0 Z " fill="#8D4D1F" transform="translate(34,53)" />
<path d="M0 0 C0.53625 0.226875 1.0725 0.45375 1.625 0.6875 C1.625 1.3475 1.625 2.0075 1.625 2.6875 C-0.30859375 4.1953125 -0.30859375 4.1953125 -2.8125 5.8125 C-3.63621094 6.35132813 -4.45992187 6.89015625 -5.30859375 7.4453125 C-7.375 8.6875 -7.375 8.6875 -8.375 8.6875 C-8.375 6.7075 -8.375 4.7275 -8.375 2.6875 C-2.95961538 -0.38942308 -2.95961538 -0.38942308 0 0 Z " fill="#6E2A05" transform="translate(59.375,51.3125)" />
<path d="M0 0 C0.4228125 0.165 0.4228125 0.165 2.5625 1 C6.23989794 2.06978849 9.18935624 2.14113495 13 2 C14.32 2 15.64 2 17 2 C11.13265306 7.196793 11.13265306 7.196793 7 7 C4.40055781 5.26342067 2.13774257 3.27943732 0 1 C0 0.67 0 0.34 0 0 Z " fill="#CB854F" transform="translate(54,40)" />
<path d="M0 0 C0.33 0.66 0.66 1.32 1 2 C2.03125 1.79375 3.0625 1.5875 4.125 1.375 C8.15345292 0.98514972 10.2943613 1.53498005 14 3 C14.66 3 15.32 3 16 3 C15.67 3.99 15.34 4.98 15 6 C10.06887174 6.16715689 6.49207902 6.24603951 2 4 C1.236875 3.62875 0.47375 3.2575 -0.3125 2.875 C-0.869375 2.58625 -1.42625 2.2975 -2 2 C-1.34 1.34 -0.68 0.68 0 0 Z " fill="#C57E36" transform="translate(52,37)" />
<path d="M0 0 C1.2375 0.309375 2.475 0.61875 3.75 0.9375 C4.09804688 1.02451172 4.09804688 1.02451172 5.859375 1.46484375 C7.90625 1.9765625 9.953125 2.48828125 12 3 C12.33 4.32 12.66 5.64 13 7 C12.01 7.66 11.02 8.32 10 9 C9.29875 8.401875 8.5975 7.80375 7.875 7.1875 C5.02969023 5.02259039 2.23367233 3.50403364 -1 2 C-0.67 1.34 -0.34 0.68 0 0 Z " fill="#D79557" transform="translate(46,22)" />
<path d="M0 0 C-0.33 0.66 -0.66 1.32 -1 2 C-8.45937249 1.38857603 -8.45937249 1.38857603 -11 -0.4375 C-12 -2 -12 -2 -12 -4 C-6.66800198 -6.10048407 -3.98534988 -3.31921071 0 0 Z " fill="#AD692B" transform="translate(51,29)" />
<path d="M0 0 C0.66 0.33 1.32 0.66 2 1 C1.67 1.66 1.34 2.32 1 3 C0.5 5.75 0.5 5.75 1 9 C3.10270558 11.32348966 5.46095601 13.17344285 8 15 C7.34 15.66 6.68 16.32 6 17 C-1.78635015 11.28189911 -1.78635015 11.28189911 -2.625 6.25 C-2 3 -2 3 0 0 Z " fill="#532C0E" transform="translate(20,33)" />
<path d="M0 0 C8.19256018 -0.63019694 8.19256018 -0.63019694 11.5625 2 C12.036875 2.66 12.51125 3.32 13 4 C9.57056481 5.18771723 7.62215325 4.80226223 4.25 3.5625 C3.45078125 3.27503906 2.6515625 2.98757812 1.828125 2.69140625 C1.22484375 2.46324219 0.6215625 2.23507813 0 2 C0 1.34 0 0.68 0 0 Z " fill="#BB6E28" transform="translate(27,32)" />
<path d="M0 0 C5.24660434 1.07316907 8.82059808 3.82365454 13 7 C12.34 7.33 12.34 7.33 9 9 C8.566875 8.54625 8.13375 8.0925 7.6875 7.625 C4.46222977 4.51918422 1.20307212 3.30762244 -3 2 C-2.01 1.34 -1.02 0.68 0 0 Z " fill="#B2753B" transform="translate(69,29)" />
<path d="M0 0 C4.60350025 2.93840442 8.74128815 6.18677779 12.875 9.75 C13.46796875 10.25660156 14.0609375 10.76320313 14.671875 11.28515625 C16.11705495 12.52055202 17.55888175 13.75986857 19 15 C15.1136865 15 14.14236735 13.76808101 11.1875 11.3125 C10.30707031 10.58417969 9.42664062 9.85585938 8.51953125 9.10546875 C7.68808594 8.41066406 6.85664063 7.71585938 6 7 C5.34386719 6.48050781 4.68773437 5.96101563 4.01171875 5.42578125 C2.6350676 4.33168857 1.31048246 3.17253694 0 2 C0 1.34 0 0.68 0 0 Z " fill="#D38E5F" transform="translate(20,37)" />
<path d="M0 0 C-1.35513665 4.06540996 -3.30796918 4.97300269 -7 7 C-9.375 6.75 -9.375 6.75 -11 6 C-7.34769214 1.25199978 -6.01084259 -0.15818007 0 0 Z " fill="#6E2705" transform="translate(43,39)" />
<path d="M0 0 C4.85963179 0.60745397 8.7405518 2.72758967 13 5 C12 7 12 7 10 8 C7.6171875 6.85546875 7.6171875 6.85546875 4.875 5.1875 C3.96492188 4.64480469 3.05484375 4.10210937 2.1171875 3.54296875 C1.76785156 3.28837891 1.76785156 3.28837891 0 2 C0 1.34 0 0.68 0 0 Z " fill="#D89558" transform="translate(61,31)" />
<path d="M0 0 C3.48926074 1.11021932 6.77046122 2.26988994 10 4 C10.66 4.33 11.32 4.66 12 5 C11.01 5.99 10.02 6.98 9 8 C5.56247993 6.4722133 2.81046312 4.49818944 0 2 C0 1.34 0 0.68 0 0 Z " fill="#D79559" transform="translate(25,35)" />
<path d="M0 0 C0.928125 0.0825 1.85625 0.165 2.8125 0.25 C2.8125 0.91 2.8125 1.57 2.8125 2.25 C-0.1575 3.9 -3.1275 5.55 -6.1875 7.25 C-6.1875 4.25 -6.1875 4.25 -5.0625 2.0625 C-3.1875 0.25 -3.1875 0.25 0 0 Z " fill="#742B03" transform="translate(52.1875,32.75)" />
<path d="M0 0 C1.65 0 3.3 0 5 0 C5 0.99 5 1.98 5 3 C2.69 4.32 0.38 5.64 -2 7 C-2 3.89448334 -1.4606285 2.64738916 0 0 Z " fill="#692403" transform="translate(67,44)" />
<path d="M0 0 C2.51564471 1.11806432 4.35798767 2.29533983 6.5 4.0625 C8.82767647 5.86644927 10.1441791 6.57691542 13 7 C12.67 7.99 12.34 8.98 12 10 C9.00745382 8.59808647 6.4045389 6.96632511 3.75 5 C3.04359375 4.484375 2.3371875 3.96875 1.609375 3.4375 C1.07828125 2.963125 0.5471875 2.48875 0 2 C0 1.34 0 0.68 0 0 Z " fill="#C97E48" transform="translate(39,53)" />
<path d="M0 0 C0.41185547 0.00580078 0.41185547 0.00580078 2.49609375 0.03515625 C3.32238281 0.04417969 4.14867187 0.05320313 5 0.0625 C5.63808594 0.07410156 6.27617188 0.08570313 6.93359375 0.09765625 C7.26359375 0.75765625 7.59359375 1.41765625 7.93359375 2.09765625 C3.54929064 4.16802161 3.54929064 4.16802161 0.74609375 3.84765625 C-1.06640625 3.09765625 -1.06640625 3.09765625 -3.06640625 1.09765625 C-2.06640625 0.09765625 -2.06640625 0.09765625 0 0 Z " fill="#C77F3B" transform="translate(34.06640625,35.90234375)" />
<path d="M0 0 C0.66 0.66 1.32 1.32 2 2 C-4.28571429 4.42857143 -4.28571429 4.42857143 -8 3 C-8 2.34 -8 1.68 -8 1 C-5.23749964 -0.38125018 -3.05268901 -0.19079306 0 0 Z " fill="#AF7538" transform="translate(55,20)" />
<path d="M0 0 C4.23429756 1.31061591 8.07407404 2.94356259 12 5 C12 5.99 12 6.98 12 8 C8.58846252 7.38530856 6.48230844 6.10488946 3.75 4 C3.04359375 3.46375 2.3371875 2.9275 1.609375 2.375 C1.07828125 1.92125 0.5471875 1.4675 0 1 C0 0.67 0 0.34 0 0 Z " fill="#E1A16B" transform="translate(37,45)" />
<path d="M0 0 C1.32 0 2.64 0 4 0 C3.8125 1.875 3.8125 1.875 3 4 C0.4375 5.25 0.4375 5.25 -2 6 C-1.125 1.125 -1.125 1.125 0 0 Z " fill="#692604" transform="translate(77,38)" />
<path d="M0 0 C-0.66 0.66 -1.32 1.32 -2 2 C-0.02 2.66 1.96 3.32 4 4 C3.67 4.66 3.34 5.32 3 6 C-0.91211733 4.84414715 -3.8745041 3.64465038 -7 1 C-4.53721199 -0.231394 -2.7204945 -0.07159196 0 0 Z " fill="#C37C3A" transform="translate(69,29)" />
<path d="M0 0 C4.95696581 1.23924145 7.11658466 2.78577758 10 7 C9.67 7.66 9.34 8.32 9 9 C7.49704815 7.69088122 5.99770689 6.37761608 4.5 5.0625 C3.6646875 4.33160156 2.829375 3.60070313 1.96875 2.84765625 C1.3190625 2.23792969 0.669375 1.62820312 0 1 C0 0.67 0 0.34 0 0 Z " fill="#7E441D" transform="translate(34,53)" />
<path d="M0 0 C0.886875 0.309375 1.77375 0.61875 2.6875 0.9375 C5.46709155 1.8290671 8.13136375 2.49377007 11 3 C10.67 3.66 10.34 4.32 10 5 C7.8125 5.3125 7.8125 5.3125 5 5 C2.1875 2.5 2.1875 2.5 0 0 Z " fill="#E19E61" transform="translate(54,40)" />
<path d="M0 0 C0.33 0.66 0.66 1.32 1 2 C1.309375 2.0721875 1.309375 2.0721875 2.875 2.4375 C5.36710392 3.09717457 6.3329446 4.08288629 8 6 C4.76138705 6 2.90259811 5.3749149 0 4 C-0.33 3.34 -0.66 2.68 -1 2 C-0.67 1.34 -0.34 0.68 0 0 Z " fill="#8E4B16" transform="translate(21,34)" />
<path d="M0 0 C0.33 0.66 0.66 1.32 1 2 C3.32156597 2.40729228 5.6568787 2.74438677 8 3 C8 3.99 8 4.98 8 6 C4.51329166 4.8905928 1.22515763 3.73662334 -2 2 C-1.34 1.34 -0.68 0.68 0 0 Z " fill="#CE874A" transform="translate(52,37)" />
<path d="M0 0 C2.66666667 1.33333333 5.33333333 2.66666667 8 4 C8 4.66 8 5.32 8 6 C7.62875 5.8453125 7.62875 5.8453125 5.75 5.0625 C3.49307824 4.1905075 1.3549847 3.52332993 -1 3 C-0.67 2.01 -0.34 1.02 0 0 Z " fill="#934B1D" transform="translate(48,38)" />
<path d="M0 0 C1.32 0.825 1.32 0.825 8 5 C6.68 5.33 5.36 5.66 4 6 C1.25 3.5625 1.25 3.5625 -1 1 C-0.67 0.67 -0.34 0.34 0 0 Z " fill="#4D270C" transform="translate(44,62)" />
<path d="M0 0 C0 0.66 0 1.32 0 2 C-5.41176471 6 -5.41176471 6 -8 6 C-7.8125 4.125 -7.8125 4.125 -7 2 C-4.55683729 0.74709605 -2.75474605 0 0 0 Z " fill="#3A1102" transform="translate(59,61)" />
<path d="M0 0 C4.875 3.625 4.875 3.625 6 7 C5.01 7.33 4.02 7.66 3 8 C3 7.34 3 6.68 3 6 C2.01 5.67 1.02 5.34 0 5 C0 3.33333333 0 1.66666667 0 0 Z " fill="#904818" transform="translate(40,33)" />
<path d="M0 0 C0.78375 0.185625 1.5675 0.37125 2.375 0.5625 C5 1 5 1 7 0 C7.99 0.99 8.98 1.98 10 3 C6.06329512 4.31223496 3.87511856 3.24296256 0 2 C0 1.34 0 0.68 0 0 Z " fill="#BB722F" transform="translate(41,27)" />
<path d="M0 0 C3.125 -0.1875 3.125 -0.1875 6 0 C3.6875 2.0625 3.6875 2.0625 1 4 C0.01 3.67 -0.98 3.34 -2 3 C-1.34 2.01 -0.68 1.02 0 0 Z " fill="#561D03" transform="translate(53,60)" />
<path d="M0 0 C0 0.66 0 1.32 0 2 C0.66 2 1.32 2 2 2 C2 2.99 2 3.98 2 5 C0.125 4.6875 0.125 4.6875 -2 4 C-2.66 3.01 -3.32 2.02 -4 1 C-2 0 -2 0 0 0 Z " fill="#843F0E" transform="translate(49,55)" />
<path d="M0 0 C0.825 0.33 0.825 0.33 5 2 C5 2.66 5 3.32 5 4 C3.68 4.33 2.36 4.66 1 5 C0.34 3.68 -0.32 2.36 -1 1 C-0.67 0.67 -0.34 0.34 0 0 Z " fill="#DA9759" transform="translate(43,31)" />
<path d="M0 0 C-1.6875 1.625 -1.6875 1.625 -4 3 C-6.75 2.1875 -6.75 2.1875 -9 1 C-9 0.67 -9 0.34 -9 0 C-3.375 -1.125 -3.375 -1.125 0 0 Z " fill="#CB8646" transform="translate(53,31)" />
</svg>