<?xml version='1.0' encoding='utf-8'?>
<svg xmlns="http://www.w3.org/2000/svg" version="1.1" width="109" height="100">
<path d="M0 0 C0.94875 0.2475 1.8975 0.495 2.875 0.75 C7.33526347 2.53410539 10.73850659 5.49016953 14 9 C14 9.66 14 10.32 14 11 C14.66 11 15.32 11 16 11 C21.66090516 18.20478839 21.78401372 26.12944475 21 35 C18.87629815 43.90419571 13.66280604 50.7954021 6.0625 55.8125 C-1.00626144 60.11589982 -7.54444523 61.53956297 -15.6875 61.4375 C-16.5630957 61.42702637 -17.43869141 61.41655273 -18.34082031 61.40576172 C-26.7204106 61.17308093 -34.85053265 60.60155057 -41.42578125 54.89453125 C-49.33234437 45.80270638 -51.70499447 36.3292282 -51.30859375 24.44921875 C-50.50482211 15.4652902 -46.52556886 10.14886005 -40 4 C-29.778153 -4.16803478 -11.29148518 -6.3729077 0 0 Z " fill="#571F04" transform="translate(70,21)" />
<path d="M0 0 C0.38349609 -0.00193359 0.38349609 -0.00193359 2.32421875 -0.01171875 C7.99650022 -0.00174989 7.99650022 -0.00174989 10.25 1.125 C10.25 2.115 10.25 3.105 10.25 4.125 C11.075 4.455 11.075 4.455 15.25 6.125 C15.25 8.765 15.25 11.405 15.25 14.125 C14.755 13.856875 14.26 13.58875 13.75 13.3125 C10.3263054 11.68624507 6.80867715 10.42984829 3.25 9.125 C3.25 8.465 3.25 7.805 3.25 7.125 C-5.25894317 4.7300343 -12.07210614 6.03211495 -19.75 10.125 C-21.08240997 10.7935102 -22.41547193 11.46072818 -23.75 12.125 C-23.75 12.785 -23.75 13.445 -23.75 14.125 C-24.41 14.125 -25.07 14.125 -25.75 14.125 C-24 19 -24 19 -21.75 20.125 C-21.75 22.765 -21.75 25.405 -21.75 28.125 C-20.1 28.455 -18.45 28.785 -16.75 29.125 C-16.75 29.785 -16.75 30.445 -16.75 31.125 C-15.43 31.125 -14.11 31.125 -12.75 31.125 C-13.08 29.145 -13.41 27.165 -13.75 25.125 C-12.1 23.805 -10.45 22.485 -8.75 21.125 C-13.5 23 -13.5 23 -15.75 24.125 C-16.11421725 16.7192492 -16.11421725 16.7192492 -14.5625 14.1875 C-10.09960703 11.57132136 -5.42858393 12.1426892 -0.4375 12.5625 C0.18962891 12.61341797 0.18962891 12.61341797 3.36328125 12.87109375 C3.83958984 12.91298828 3.83958984 12.91298828 6.25 13.125 C6.58 12.465 6.91 11.805 7.25 11.125 C10.21909598 14.39801919 10.59354794 16.50565762 10.4375 20.875 C10.42396484 21.36742187 10.42396484 21.36742187 10.35546875 23.859375 C10.32066406 24.60703125 10.28585938 25.3546875 10.25 26.125 C9.59 26.125 8.93 26.125 8.25 26.125 C8.023125 26.723125 7.79625 27.32125 7.5625 27.9375 C5.89390958 30.71848403 4.1216168 31.6891916 1.25 33.125 C0.59 33.125 -0.07 33.125 -0.75 33.125 C-0.75 34.445 -0.75 35.765 -0.75 37.125 C-1.719375 37.57875 -2.68875 38.0325 -3.6875 38.5 C-6.75 40.125 -6.75 40.125 -7.75 42.125 C-9.1870809 42.17922947 -10.62475462 42.21789723 -12.0625 42.25 C-12.86300781 42.27320313 -13.66351563 42.29640625 -14.48828125 42.3203125 C-16.75 42.125 -16.75 42.125 -19.75 40.125 C-20.74 40.125 -21.73 40.125 -22.75 40.125 C-22.75 39.465 -22.75 38.805 -22.75 38.125 C-23.41 38.125 -24.07 38.125 -24.75 38.125 C-25.08 36.475 -25.41 34.825 -25.75 33.125 C-26.74 32.795 -27.73 32.465 -28.75 32.125 C-29.08 30.145 -29.41 28.165 -29.75 26.125 C-30.41 26.125 -31.07 26.125 -31.75 26.125 C-30.875 19.25 -30.875 19.25 -29.75 18.125 C-29.67851801 16.77256083 -29.66600546 15.41665633 -29.6875 14.0625 C-29.708125 12.763125 -29.72875 11.46375 -29.75 10.125 C-28.76 9.795 -27.77 9.465 -26.75 9.125 C-26.42 8.135 -26.09 7.145 -25.75 6.125 C-23.75390625 5.17578125 -23.75390625 5.17578125 -21.3125 4.4375 C-20.50941406 4.18613281 -19.70632812 3.93476563 -18.87890625 3.67578125 C-16.75 3.125 -16.75 3.125 -14.75 3.125 C-14.75 2.465 -14.75 1.805 -14.75 1.125 C-9.7816043 0.12815628 -5.04125628 -0.02594128 0 0 Z " fill="#894212" transform="translate(58.75,21.875)" />
<path d="M0 0 C0 0.66 0 1.32 0 2 C1.2375 2.268125 2.475 2.53625 3.75 2.8125 C7.10283779 3.63881995 9.41095936 4.62671274 12 7 C11.835 5.515 11.835 5.515 11 -2 C11.99 -2 12.98 -2 14 -2 C16.29013653 1.4352048 16.17842973 2.985331 16 7 C16.99 7.33 17.98 7.66 19 8 C19 8.66 19 9.32 19 10 C19.66 10.33 20.32 10.66 21 11 C20.74337755 12.44010481 20.46909179 13.8770687 20.1875 15.3125 C20.03667969 16.11300781 19.88585937 16.91351563 19.73046875 17.73828125 C18.9080695 20.28464042 17.99929657 21.26993538 16 23 C15.2575 23.78375 14.515 24.5675 13.75 25.375 C5.76190476 33 5.76190476 33 2 33 C1.67 33.99 1.34 34.98 1 36 C-5.6 36 -12.2 36 -19 36 C-19 35.67 -19 35.34 -19 35 C-16.36 35 -13.72 35 -11 35 C-10.67 34.01 -10.34 33.02 -10 32 C-6.9375 30.8125 -6.9375 30.8125 -4 30 C-4 28.68 -4 27.36 -4 26 C-3.2575 25.773125 -2.515 25.54625 -1.75 25.3125 C1.51069263 23.75626034 2.83515305 21.836696 5 19 C5.66 19 6.32 19 7 19 C6.91306859 17.20741442 6.80489496 15.41584856 6.6875 13.625 C6.62949219 12.62726562 6.57148437 11.62953125 6.51171875 10.6015625 C6.42728516 10.17230469 6.42728516 10.17230469 6 8 C-0.35663309 3.7622446 -10.6586291 5.60164364 -18 7 C-18 9.97 -18 12.94 -18 16 C-17.45859375 15.50886719 -16.9171875 15.01773438 -16.359375 14.51171875 C-13.42758717 12.6332388 -11.69700309 12.68939275 -8.25 12.8125 C-7.26515625 12.83957031 -6.2803125 12.86664063 -5.265625 12.89453125 C-4.51796875 12.92933594 -3.7703125 12.96414062 -3 13 C-3 13.33 -3 13.66 -3 14 C-3.60328125 14.03738281 -4.2065625 14.07476562 -4.828125 14.11328125 C-8.3622565 14.40399207 -11.32476102 14.68708437 -14.5625 16.1875 C-16.61808082 18.77931929 -16.28504823 20.79320746 -16 24 C-17.32 24 -18.64 24 -20 24 C-20 23.34 -20 22.68 -20 22 C-21.65 21.67 -23.3 21.34 -25 21 C-25 18.36 -25 15.72 -25 13 C-25.99 12.67 -26.98 12.34 -28 12 C-28.33 10.35 -28.66 8.7 -29 7 C-28.34 7 -27.68 7 -27 7 C-27 6.34 -27 5.68 -27 5 C-19.86513172 -1.58603226 -8.88252379 -5.15759446 0 0 Z " fill="#7D390A" transform="translate(62,29)" />
<path d="M0 0 C0 3 0 3 -1.5 5.4375 C-4.48261935 12.52122096 -3.36388744 20.45876165 -1.92578125 27.8671875 C-0.19532511 31.85380796 2.00833907 35.02390762 5.93383789 36.94775391 C8.16758766 37.71161632 10.39425163 38.31557767 12.6875 38.875 C13.43966797 39.08640625 14.19183594 39.2978125 14.96679688 39.515625 C27.03995338 42.68033326 37.84319362 40.67989855 48.96484375 35.27197266 C54.12668193 32.04582379 56.48481671 26.75906772 58 21 C58.362049 16.26750239 57.90951606 12.98582653 55.9375 8.6875 C54.77734375 6.13671875 54.77734375 6.13671875 54 4 C54.33 3.34 54.66 2.68 55 2 C60.87319154 8.8520568 61.55219897 14.54269263 61.30859375 23.40234375 C60.88919633 28.29177438 60.04801979 30.17043667 57 34 C56.44441406 34.71027344 55.88882813 35.42054687 55.31640625 36.15234375 C50.25401253 42.34697176 50.25401253 42.34697176 46 43 C46 43.66 46 44.32 46 45 C38.76638976 47.42564176 31.89309115 48.30059604 24.3125 48.3125 C23.52963623 48.31765625 22.74677246 48.3228125 21.94018555 48.328125 C14.32338162 48.23861896 6.73486656 47.44195387 0.5703125 42.625 C-6.72512528 35.07549225 -7.52940519 26.0509622 -7.359375 16.078125 C-7.01535078 9.78656338 -4.4395536 4.4395536 0 0 Z " fill="#AE721F" transform="translate(28,29)" />
<path d="M0 0 C0 0.33 0 0.66 0 1 C-5.94 1.33 -11.88 1.66 -18 2 C-18 2.66 -18 3.32 -18 4 C-18.75925781 4.25394531 -19.51851562 4.50789063 -20.30078125 4.76953125 C-21.29464844 5.11371094 -22.28851563 5.45789063 -23.3125 5.8125 C-24.29863281 6.14894531 -25.28476562 6.48539063 -26.30078125 6.83203125 C-28.91341866 7.96253572 -30.349716 8.70199361 -32 11 C-32 12.93124243 -31.99215712 14.86363796 -31.90625 16.79296875 C-32.06546524 20.54116079 -33.53229377 23.57535212 -35 27 C-34.34 27 -33.68 27 -33 27 C-33.33 28.65 -33.66 30.3 -34 32 C-35.65522397 29.06482551 -36.29920064 26.7250642 -36.5625 23.375 C-36.90277778 19.19444444 -36.90277778 19.19444444 -38 17 C-37.22265625 15.0546875 -37.22265625 15.0546875 -36.0625 12.875 C-35.68222656 12.15054688 -35.30195312 11.42609375 -34.91015625 10.6796875 C-34.60980469 10.12539063 -34.30945312 9.57109375 -34 9 C-34.81642254 10.26831693 -35.62799105 11.53975931 -36.4375 12.8125 C-36.88996094 13.52019531 -37.34242187 14.22789063 -37.80859375 14.95703125 C-41.52504776 21.329836 -40.90357312 31.54192968 -39.46875 38.62109375 C-36.98234359 45.55330294 -33.78223446 50.07815877 -27.1953125 53.23828125 C-21.41893637 55.24253987 -15.53936191 55.18280376 -9.5 55.1875 C-8.67113281 55.19974609 -7.84226563 55.21199219 -6.98828125 55.22460938 C-2.21317036 55.23599676 1.48503268 54.71838308 6 53 C9.375 52.875 9.375 52.875 12 53 C12 52.34 12 51.68 12 51 C12.73734375 50.566875 13.4746875 50.13375 14.234375 49.6875 C17.32459876 47.80193974 19.0318187 45.84469052 21.25 43 C21.93578125 42.13375 22.6215625 41.2675 23.328125 40.375 C26.25830243 36.21250496 26.19088622 32.66783584 26.25 27.6875 C26.27578125 26.39199219 26.3015625 25.09648438 26.328125 23.76171875 C25.97972703 19.76758487 24.97035208 17.44811614 23 14 C22.835 13.505 22.835 13.505 22 11 C22.66 11 23.32 11 24 11 C29.66090516 18.20478839 29.78401372 26.12944475 29 35 C26.87629815 43.90419571 21.66280604 50.7954021 14.0625 55.8125 C6.99373856 60.11589982 0.45555477 61.53956297 -7.6875 61.4375 C-8.12529785 61.43226318 -8.12529785 61.43226318 -10.34082031 61.40576172 C-18.7204106 61.17308093 -26.85053265 60.60155057 -33.42578125 54.89453125 C-41.33234437 45.80270638 -43.70499447 36.3292282 -43.30859375 24.44921875 C-42.48915654 15.29019273 -38.33365151 10.49913885 -32 4 C-31.01 4.33 -30.02 4.66 -29 5 C-27.30080394 4.30033103 -25.60400901 3.59320325 -23.9296875 2.8359375 C-16.09260622 -0.55907342 -8.40507243 -0.21248779 0 0 Z " fill="#71450F" transform="translate(62,21)" />
<path d="M0 0 C2 1.3125 2 1.3125 4 4 C4.36089448 7.68855385 4.22933459 11.3051649 4 15 C3.34 15 2.68 15 2 15 C1.773125 15.598125 1.54625 16.19625 1.3125 16.8125 C-0.42707276 19.71178793 -1.93514709 20.5675144 -5 22 C-8.55078125 22.07421875 -8.55078125 22.07421875 -12.3125 21.6875 C-13.56675781 21.56761719 -14.82101563 21.44773437 -16.11328125 21.32421875 C-17.06589844 21.21722656 -18.01851562 21.11023438 -19 21 C-19.8125 17.75 -19.8125 17.75 -20 14 C-17.5625 11.5625 -17.5625 11.5625 -15 10 C-19.75 11.875 -19.75 11.875 -22 13 C-22.36421725 5.5942492 -22.36421725 5.5942492 -20.8125 3.0625 C-16.34960703 0.44632136 -11.67858393 1.0176892 -6.6875 1.4375 C-5.43324219 1.53933594 -4.17898437 1.64117187 -2.88671875 1.74609375 C-2.41041016 1.78798828 -2.41041016 1.78798828 0 2 C0 1.34 0 0.68 0 0 Z " fill="#703203" transform="translate(65,33)" />
<path d="M0 0 C0 0.66 0 1.32 0 2 C1.32 2.66 2.64 3.32 4 4 C3.67 4.66 3.34 5.32 3 6 C2.07058594 5.98839844 1.14117187 5.97679687 0.18359375 5.96484375 C-12.09490334 5.87521968 -12.09490334 5.87521968 -18 7 C-18 9.97 -18 12.94 -18 16 C-17.45859375 15.50886719 -16.9171875 15.01773438 -16.359375 14.51171875 C-13.42758717 12.6332388 -11.69700309 12.68939275 -8.25 12.8125 C-7.26515625 12.83957031 -6.2803125 12.86664063 -5.265625 12.89453125 C-4.51796875 12.92933594 -3.7703125 12.96414062 -3 13 C-3 13.33 -3 13.66 -3 14 C-3.60328125 14.03738281 -4.2065625 14.07476562 -4.828125 14.11328125 C-8.3622565 14.40399207 -11.32476102 14.68708437 -14.5625 16.1875 C-16.61808082 18.77931929 -16.28504823 20.79320746 -16 24 C-17.32 24 -18.64 24 -20 24 C-20 23.34 -20 22.68 -20 22 C-21.65 21.67 -23.3 21.34 -25 21 C-25 18.36 -25 15.72 -25 13 C-25.99 12.67 -26.98 12.34 -28 12 C-28.33 10.35 -28.66 8.7 -29 7 C-28.34 7 -27.68 7 -27 7 C-27 6.34 -27 5.68 -27 5 C-19.86513172 -1.58603226 -8.88252379 -5.15759446 0 0 Z " fill="#6F2F09" transform="translate(62,29)" />
<path d="M0 0 C0.82200226 5.20601432 -0.70433763 9.18091649 -3.44140625 13.51953125 C-6.96657083 16.93705721 -10.68513273 18.43832023 -15.25 20.125 C-16.04768799 20.42011475 -16.84537598 20.71522949 -17.66723633 21.01928711 C-23.85418688 23.07492101 -31.1016863 24.73470804 -37.29003906 21.98095703 C-37.57218262 21.81909912 -37.57218262 21.81909912 -39 21 C-39 20.34 -39 19.68 -39 19 C-37.75863281 18.89042969 -36.51726563 18.78085938 -35.23828125 18.66796875 C-33.59629103 18.50846113 -31.95436722 18.3482688 -30.3125 18.1875 C-29.49587891 18.11724609 -28.67925781 18.04699219 -27.83789062 17.97460938 C-23.09046761 17.49410097 -20.02471942 16.72217386 -16 14 C-15.3915625 13.9278125 -15.3915625 13.9278125 -12.3125 13.5625 C-9 13 -9 13 -7.75 11.3125 C-7.5025 10.549375 -7.255 9.78625 -7 9 C-2.7755102 0 -2.7755102 0 0 0 Z " fill="#450D01" transform="translate(85,48)" />
<path d="M0 0 C0.66 0 1.32 0 2 0 C7.66090516 7.20478839 7.78401372 15.12944475 7 24 C4.87629815 32.90419571 -0.33719396 39.7954021 -7.9375 44.8125 C-15.16362176 49.2116994 -21.69260061 50.48828272 -30 50.375 C-30.42539062 50.38080078 -30.42539062 50.38080078 -32.578125 50.41015625 C-38.36359418 50.38353599 -42.74113759 49.4501518 -48 47 C-48.33 46.34 -48.66 45.68 -49 45 C-48.42894531 45.13277344 -47.85789063 45.26554687 -47.26953125 45.40234375 C-34.13557344 48.26299911 -21.26359374 49.83123226 -9.375 42.3125 C-8.76398438 41.87550781 -8.15296875 41.43851563 -7.5234375 40.98828125 C-6 40 -6 40 -4 40 C-3.34 38.68 -2.68 37.36 -2 36 C-1.34 36 -0.68 36 0 36 C0.06638672 35.70416016 0.06638672 35.70416016 0.40234375 34.20703125 C1 32 1 32 2.5625 28.6875 C5.21893554 21.73889276 5.57197308 12.52222845 2.5390625 5.7265625 C2.03117187 4.82679687 1.52328125 3.92703125 1 3 C0.835 2.505 0.835 2.505 0 0 Z " fill="#63380A" transform="translate(84,32)" />
<path d="M0 0 C0.57685547 -0.00837891 0.57685547 -0.00837891 3.49609375 -0.05078125 C6.5625 0.3125 6.5625 0.3125 8.47265625 1.83203125 C8.83230469 2.32058594 9.19195312 2.80914062 9.5625 3.3125 C6.64256239 6.98596989 4.54666543 8.63861081 -0.0625 9.1875 C-3.04200105 9.42138575 -4.53495657 9.28001448 -7.4375 8.3125 C-7.4375 7.6525 -7.4375 6.9925 -7.4375 6.3125 C-8.0975 6.3125 -8.7575 6.3125 -9.4375 6.3125 C-8.23639074 0.3069537 -5.82495366 0.01948145 0 0 Z " fill="#7E6644" transform="translate(54.4375,43.6875)" />
<path d="M0 0 C2.375 -0.125 2.375 -0.125 5 0 C7 2 7 2 7.125 5.625 C7.08375 6.73875 7.0425 7.8525 7 9 C7.99 9 8.98 9 10 9 C12 12 12 12 12 15 C14.31 15 16.62 15 19 15 C19.33 15.99 19.66 16.98 20 18 C18.06318839 18.08107583 16.1254066 18.13922475 14.1875 18.1875 C13.10855469 18.22230469 12.02960937 18.25710937 10.91796875 18.29296875 C8 18 8 18 6.125 16.65625 C4.58433611 14.38805039 4.78284585 12.67823455 5 10 C4.01 10 3.02 10 2 10 C0.39644899 6.49223216 -0.22036864 3.85645121 0 0 Z " fill="#975D38" transform="translate(29,42)" />
<path d="M0 0 C0 0.66 0 1.32 0 2 C1.32 2.33 2.64 2.66 4 3 C4 5.31 4 7.62 4 10 C3.34 10 2.68 10 2 10 C2 9.34 2 8.68 2 8 C1.360625 7.690625 0.72125 7.38125 0.0625 7.0625 C-2 6 -2 6 -3 5 C-4.84891946 4.76636119 -6.70488031 4.58696365 -8.5625 4.4375 C-9.57441406 4.35371094 -10.58632813 4.26992188 -11.62890625 4.18359375 C-12.02013672 4.15330078 -12.02013672 4.15330078 -14 4 C-14 4.66 -14 5.32 -14 6 C-14.66 6 -15.32 6 -16 6 C-16 6.66 -16 7.32 -16 8 C-16.99 8 -17.98 8 -19 8 C-18.67 5.69 -18.34 3.38 -18 1 C-11.92753853 -0.98284456 -6.27207701 -2.00706464 0 0 Z " fill="#BA7C2B" transform="translate(62,35)" />
<path d="M0 0 C2.875 0.6875 2.875 0.6875 5 1 C4.34 1.66 3.68 2.32 3 3 C3 3.99 3 4.98 3 6 C1.68 5.67 0.36 5.34 -1 5 C-1 4.01 -1 3.02 -1 2 C-12.19411042 -0.13221151 -22.36695587 0.61232536 -33.13671875 4.125 C-36 5 -36 5 -39 5 C-30.31723331 -4.84046892 -11.01426083 -6.16671458 0 0 Z " fill="#5D2907" transform="translate(70,21)" />
<path d="M0 0 C0 3 0 3 -1.5 5.4375 C-4.42047765 12.37363441 -3.63359269 20.72260309 -1.84375 27.9609375 C-0.56643071 31.04779244 1.42810636 33.23227031 3.7578125 35.58984375 C5 37 5 37 5 39 C2.75 38.875 2.75 38.875 0 38 C-4 33.02702703 -4 33.02702703 -4 29 C-4.99 28.67 -5.98 28.34 -7 28 C-7.54267395 18.28010664 -7.88445148 10.30955876 -2 2 C-1.34 1.34 -0.68 0.68 0 0 Z " fill="#BD8139" transform="translate(28,29)" />
<path d="M0 0 C0 0.99 0 1.98 0 3 C0.825 3.33 0.825 3.33 5 5 C5 7.64 5 10.28 5 13 C4.505 12.731875 4.01 12.46375 3.5 12.1875 C0.63831001 10.82819726 -2.28213277 9.8564504 -5.29296875 8.87890625 C-7 8 -7 8 -8 5 C-8.66 4.67 -9.32 4.34 -10 4 C-10 3.01 -10 2.02 -10 1 C-6.42181037 -1.33958553 -4.07775191 -0.9267618 0 0 Z " fill="#7D4925" transform="translate(69,23)" />
<path d="M0 0 C0 0.33 0 0.66 0 1 C-5.94 1.33 -11.88 1.66 -18 2 C-18 2.66 -18 3.32 -18 4 C-18.75925781 4.25394531 -19.51851562 4.50789063 -20.30078125 4.76953125 C-21.29464844 5.11371094 -22.28851563 5.45789063 -23.3125 5.8125 C-24.29863281 6.14894531 -25.28476562 6.48539063 -26.30078125 6.83203125 C-28.91341866 7.96253572 -30.349716 8.70199361 -32 11 C-32 12.93124243 -31.99215712 14.86363796 -31.90625 16.79296875 C-32.06546524 20.54116079 -33.53229377 23.57535212 -35 27 C-34.34 27 -33.68 27 -33 27 C-33.33 28.65 -33.66 30.3 -34 32 C-35.65522397 29.06482551 -36.29920064 26.7250642 -36.5625 23.375 C-36.90277778 19.19444444 -36.90277778 19.19444444 -38 17 C-35.52405693 11.27438166 -31.3740711 6.1710971 -26 3 C-17.52811227 -0.34084858 -8.98755224 -0.35897028 0 0 Z " fill="#803908" transform="translate(62,21)" />
<path d="M0 0 C0.66 0.33 1.32 0.66 2 1 C2.37890625 3.46875 2.37890625 3.46875 2.5625 6.5 C2.90371389 11.90371389 2.90371389 11.90371389 4 13 C4.23529412 18.52941176 4.23529412 18.52941176 3 21 C2.34 21 1.68 21 1 21 C1 21.66 1 22.32 1 23 C-0.65 22.67 -2.3 22.34 -4 22 C-3.67 17.38 -3.34 12.76 -3 8 C-3.66 7.67 -4.32 7.34 -5 7 C-5 6.34 -5 5.68 -5 5 C-5.99 4.67 -6.98 4.34 -8 4 C-7.34 3.67 -6.68 3.34 -6 3 C-5.01 3.66 -5.01 3.66 0 7 C0 4.69 0 2.38 0 0 Z " fill="#874011" transform="translate(74,29)" />
<path d="M0 0 C0 0.66 0 1.32 0 2 C-1.89332534 2.81832722 -3.78977733 3.62942268 -5.6875 4.4375 C-6.74324219 4.88996094 -7.79898438 5.34242187 -8.88671875 5.80859375 C-14.56341052 7.98097893 -19.68356492 8.15555438 -25.6875 8.125 C-26.45900391 8.12886719 -27.23050781 8.13273437 -28.02539062 8.13671875 C-33.74654908 8.12672546 -33.74654908 8.12672546 -36 7 C-36 6.01 -36 5.02 -36 4 C-35.44441406 4.00580078 -35.44441406 4.00580078 -32.6328125 4.03515625 C-21.51958076 4.11891176 -10.16215181 0 0 0 Z " fill="#D08A31" transform="translate(79,66)" />
<path d="M0 0 C0.99 0 1.98 0 3 0 C3 0.66 3 1.32 3 2 C3.49371094 2.03029297 3.49371094 2.03029297 5.9921875 2.18359375 C7.27351563 2.26738281 8.55484375 2.35117187 9.875 2.4375 C11.15117188 2.51871094 12.42734375 2.59992187 13.7421875 2.68359375 C17 3 17 3 19 4 C19 5.32 19 6.64 19 8 C15.65060119 10.02558881 13.13037449 10.21738987 9.25 10.125 C8.26515625 10.10695313 7.2803125 10.08890625 6.265625 10.0703125 C5.89179687 10.05871094 5.89179687 10.05871094 4 10 C4 9.67 4 9.34 4 9 C5.98 9 7.96 9 10 9 C9.67 8.34 9.34 7.68 9 7 C6.67843403 6.59270772 4.3431213 6.25561323 2 6 C1.34 4.02 0.68 2.04 0 0 Z " fill="#864115" transform="translate(39,51)" />
<path d="M0 0 C0.165 0.33 0.165 0.33 1 2 C-1.37433201 8.80641844 -6.69713257 12.86668897 -12.5703125 16.66015625 C-17.38819145 18.54231169 -21.9302784 18.60772059 -27.0625 18.75 C-28.04283203 18.79253906 -29.02316406 18.83507812 -30.03320312 18.87890625 C-34.56315046 19.04497357 -38.56018011 19.01941484 -43 18 C-43 17.67 -43 17.34 -43 17 C-41.69804688 16.95101562 -40.39609375 16.90203125 -39.0546875 16.8515625 C-37.32810529 16.77649371 -35.60154378 16.70094767 -33.875 16.625 C-33.44703125 16.60953125 -33.44703125 16.60953125 -31.28125 16.53125 C-26.47993116 16.30965067 -22.54290061 15.69674601 -18 14 C-14.625 13.875 -14.625 13.875 -12 14 C-12 13.34 -12 12.68 -12 12 C-11.319375 11.649375 -10.63875 11.29875 -9.9375 10.9375 C-5.63501541 8.09969102 -3.00681146 4.13328261 0 0 Z " fill="#915612" transform="translate(86,60)" />
<path d="M0 0 C4.95 0.99 9.9 1.98 15 3 C15 3.33 15 3.66 15 4 C13.35 4 11.7 4 10 4 C10 4.99 10 5.98 10 7 C14.95 7.33 19.9 7.66 25 8 C25 8.33 25 8.66 25 9 C22.79317093 9.22370596 20.58440027 9.42830391 18.375 9.625 C17.14523438 9.74101563 15.91546875 9.85703125 14.6484375 9.9765625 C10.94681886 10.00034163 8.40982003 9.37441976 5 8 C5 7.34 5 6.68 5 6 C3.68 6 2.36 6 1 6 C1 5.34 1 4.68 1 4 C-0.65 3.67 -2.3 3.34 -4 3 C-2.68 2.67 -1.36 2.34 0 2 C0 1.34 0 0.68 0 0 Z " fill="#B77622" transform="translate(33,66)" />
<path d="M0 0 C1.32 0.99 2.64 1.98 4 3 C1.69 3.495 1.69 3.495 -10 6 C-10.12375 7.464375 -10.2475 8.92875 -10.375 10.4375 C-10.5859375 12.93359375 -10.5859375 12.93359375 -11 15 C-11.33 15.165 -11.33 15.165 -13 16 C-14.49356111 13.62787353 -15.04005633 12.39054922 -14.75 9.5625 C-14.5025 8.716875 -14.255 7.87125 -14 7 C-13.773125 6.113125 -13.54625 5.22625 -13.3125 4.3125 C-12 2 -12 2 -9.25 0.6875 C-5.96496739 -0.00741074 -3.3395275 -0.36299212 0 0 Z " fill="#4E1402" transform="translate(54,30)" />
<path d="M0 0 C0.99 0 1.98 0 3 0 C5.29013653 3.4352048 5.17842973 4.985331 5 9 C5.99 9.33 6.98 9.66 8 10 C8 10.66 8 11.32 8 12 C8.66 12.33 9.32 12.66 10 13 C9.74337755 14.44010481 9.46909179 15.8770687 9.1875 17.3125 C9.03667969 18.11300781 8.88585937 18.91351563 8.73046875 19.73828125 C7.90795436 22.28499691 6.96275697 23.23500192 5 25 C4.34 25.99 3.68 26.98 3 28 C2.34 27.67 1.68 27.34 1 27 C1.495 26.13375 1.99 25.2675 2.5 24.375 C4.05368147 20.87921669 4.35064088 18.76938944 4 15 C3.67 14.67 3.34 14.34 3 14 C2.71520878 11.22441577 2.55156981 8.44872155 2.37890625 5.6640625 C2 3 2 3 0 0 Z " fill="#6A2D09" transform="translate(73,27)" />
<path d="M0 0 C0.66 0.33 1.32 0.66 2 1 C0.71283353 2.00578589 -0.57988658 3.00446798 -1.875 4 C-2.59429687 4.556875 -3.31359375 5.11375 -4.0546875 5.6875 C-6 7 -6 7 -8 7 C-8.33 7.99 -8.66 8.98 -9 10 C-15.6 10 -22.2 10 -29 10 C-29 9.67 -29 9.34 -29 9 C-25.7 9 -22.4 9 -19 9 C-19 8.34 -19 7.68 -19 7 C-14.13199367 4.77764928 -9.28348124 3.11443723 -4.13671875 1.6484375 C-2 1 -2 1 0 0 Z " fill="#6D2F0A" transform="translate(72,55)" />
<path d="M0 0 C0.99 0 1.98 0 3 0 C2.649375 0.70125 2.29875 1.4025 1.9375 2.125 C0.8360807 5.50268586 1.20483859 7.58080593 2 11 C2.99 11.33 3.98 11.66 5 12 C5.60328125 11.52949219 6.2065625 11.05898438 6.828125 10.57421875 C9.63470128 8.53995573 11.32735295 8.69026261 14.75 8.8125 C15.73484375 8.83957031 16.7196875 8.86664063 17.734375 8.89453125 C18.48203125 8.92933594 19.2296875 8.96414062 20 9 C20 9.33 20 9.66 20 10 C19.39671875 10.03738281 18.7934375 10.07476562 18.171875 10.11328125 C14.6377435 10.40399207 11.67523898 10.68708437 8.4375 12.1875 C6.38191918 14.77931929 6.71495177 16.79320746 7 20 C5.68 20 4.36 20 3 20 C-2.60294118 7.26604278 -2.60294118 7.26604278 -1 1 C-0.67 0.67 -0.34 0.34 0 0 Z " fill="#592004" transform="translate(39,33)" />
<path d="M0 0 C0.56203125 0.30679688 1.1240625 0.61359375 1.703125 0.9296875 C4.06346934 2.02957585 6.20465562 2.60095851 8.75 3.125 C9.54921875 3.29257813 10.3484375 3.46015625 11.171875 3.6328125 C11.77515625 3.75398438 12.3784375 3.87515625 13 4 C13 4.66 13 5.32 13 6 C20.59 6 28.18 6 36 6 C32.81387644 9.18612356 29.175291 8.75376088 24.8125 9.05078125 C19.33367404 8.97780508 14.33360066 7.86343497 9.01953125 6.59375 C6 6 6 6 4 7 C3.01 6.67 2.02 6.34 1 6 C1.33 5.34 1.66 4.68 2 4 C1.0625 1.875 1.0625 1.875 0 0 Z " fill="#7E470C" transform="translate(30,72)" />
<path d="M0 0 C9.93514711 -0.62638406 9.93514711 -0.62638406 14.1875 1.875 C16 4 16 4 16 6 C16.66 6 17.32 6 18 6 C18 6.66 18 7.32 18 8 C17.01 8 16.02 8 15 8 C15 7.34 15 6.68 15 6 C12.89594609 5.83191581 10.79175242 5.66558052 8.6875 5.5 C7.51574219 5.4071875 6.34398437 5.314375 5.13671875 5.21875 C0.95730541 4.92728406 -1.3437892 4.98278025 -5 7 C-5 6.01 -5 5.02 -5 4 C-4.01 4 -3.02 4 -2 4 C-2 3.34 -2 2.68 -2 2 C-1.34 2 -0.68 2 0 2 C0 1.34 0 0.68 0 0 Z " fill="#754611" transform="translate(48,39)" />
<path d="M0 0 C-0.47050781 0.38671875 -0.94101562 0.7734375 -1.42578125 1.171875 C-7.29548789 6.0815261 -10.13275811 9.39157039 -12 17 C-12.56824994 24.88028956 -12.46186011 32.46055342 -10 40 C-12.57226303 38.71386849 -12.93339838 37.63408543 -14 35 C-14.25878906 32.94458008 -14.25878906 32.94458008 -14.265625 30.76953125 C-14.26820312 29.96580078 -14.27078125 29.16207031 -14.2734375 28.33398438 C-14.26570313 27.50189453 -14.25796875 26.66980469 -14.25 25.8125 C-14.25773437 24.99974609 -14.26546875 24.18699219 -14.2734375 23.34960938 C-14.25615022 17.91708307 -14.12721684 12.07408862 -12 7 C-11.01 6.67 -10.02 6.34 -9 6 C-9 5.34 -9 4.68 -9 4 C-8.34 4 -7.68 4 -7 4 C-6.9484375 3.6803125 -6.9484375 3.6803125 -6.6875 2.0625 C-6.460625 1.381875 -6.23375 0.70125 -6 0 C-3 -1 -3 -1 0 0 Z " fill="#79603D" transform="translate(32,25)" />
<path d="M0 0 C0.66 0 1.32 0 2 0 C2.64834654 1.269553 3.29357815 2.54069706 3.9375 3.8125 C4.29714844 4.52019531 4.65679688 5.22789063 5.02734375 5.95703125 C6 8 6 8 7 11 C8.65 11.33 10.3 11.66 12 12 C12 12.66 12 13.32 12 14 C13.32 14 14.64 14 16 14 C16 14.66 16 15.32 16 16 C19.3 16.66 22.6 17.32 26 18 C26 18.33 26 18.66 26 19 C17.54327203 18.82612335 10.47049398 17.58813856 4.3671875 11.32421875 C1.56928301 7.71891897 0.33866972 4.62848617 0 0 Z " fill="#A06619" transform="translate(22,58)" />
<path d="M0 0 C0.66 0 1.32 0 2 0 C2.33 2.31 2.66 4.62 3 7 C3.5671875 6.9896875 3.5671875 6.9896875 6.4375 6.9375 C10 7 10 7 11 8 C12.51469448 8.23192865 14.03754562 8.41215238 15.5625 8.5625 C16.38878906 8.64628906 17.21507813 8.73007812 18.06640625 8.81640625 C18.70449219 8.87699219 19.34257813 8.93757813 20 9 C19.67 9.99 19.34 10.98 19 12 C17.5629191 12.05422947 16.12524538 12.09289723 14.6875 12.125 C13.88699219 12.14820312 13.08648437 12.17140625 12.26171875 12.1953125 C10 12 10 12 7 10 C6.01 10 5.02 10 4 10 C4 9.34 4 8.68 4 8 C3.34 8 2.68 8 2 8 C0.74335022 5.09399739 0 3.20395416 0 0 Z " fill="#7B4522" transform="translate(32,52)" />
<path d="M0 0 C0.33 0 0.66 0 1 0 C0.875 3.25 0.875 3.25 0 7 C-6.34174355 12.43578018 -12.84256153 14.42933887 -21 14 C-17.71532056 11.8102137 -14.82820651 10.97026706 -11.0625 9.8125 C-3.39733691 7.29934775 -3.39733691 7.29934775 -1.125 3.1875 C-0.75375 2.135625 -0.3825 1.08375 0 0 Z " fill="#9A5C18" transform="translate(83,56)" />
<path d="M0 0 C0 0.99 0 1.98 0 3 C-5.28 3 -10.56 3 -16 3 C-16 2.01 -16 1.02 -16 0 C-10.67099269 -1.29188056 -5.28305817 -1.69057861 0 0 Z " fill="#BD8129" transform="translate(62,35)" />
<path d="M0 0 C0.74580322 -0.01297119 1.49160645 -0.02594238 2.26000977 -0.03930664 C6.07199737 -0.04582286 7.81406007 0.02187338 11.0625 2.1875 C9.85335937 2.14109375 8.64421875 2.0946875 7.3984375 2.046875 C-2.14206766 1.79663224 -10.14631228 2.22068153 -19.25 5.3125 C-21.9375 6.1875 -21.9375 6.1875 -24.9375 6.1875 C-18.03059477 -0.94963541 -9.45919668 0.08917154 0 0 Z " fill="#702D06" transform="translate(55.9375,19.8125)" />
<path d="M0 0 C4.67476876 4.30570807 6.76614956 7.20594285 7.30078125 13.59375 C7.30464844 14.8828125 7.30851562 16.171875 7.3125 17.5 C7.32925781 18.7890625 7.34601563 20.078125 7.36328125 21.40625 C6.98695084 25.12908842 6.17874312 27.01069546 4 30 C3.67 29.34 3.34 28.68 3 28 C3.1546875 27.6390625 3.1546875 27.6390625 3.9375 25.8125 C6.18332508 19.8676689 4.87584523 14.95612686 2.80078125 9.22265625 C1.70721951 6.18735561 0.85981402 3.10855836 0 0 Z " fill="#9F631A" transform="translate(82,31)" />
<path d="M0 0 C0.625 1.8125 0.625 1.8125 1 4 C-1 7 -1 7 -4 7.75 C-8.70029645 8.25679729 -13.33511794 7.61009524 -18 7 C-18.33 5.68 -18.66 4.36 -19 3 C-18.34 3 -17.68 3 -17 3 C-17 3.66 -17 4.32 -17 5 C-11.18506473 5.34889612 -7.08418446 5.22411698 -2 2 C-1.34 1.34 -0.68 0.68 0 0 Z " fill="#643108" transform="translate(64,47)" />
<path d="M0 0 C3.2542015 2.83430453 4.5206753 4.68607774 5 9 C5.66 9 6.32 9 7 9 C7 9.66 7 10.32 7 11 C8.32 10.67 9.64 10.34 11 10 C11 10.66 11 11.32 11 12 C11.66 12.33 12.32 12.66 13 13 C10.69 13.33 8.38 13.66 6 14 C0.11816193 7.10284464 0.11816193 7.10284464 -0.375 2.5 C-0.25125 1.675 -0.1275 0.85 0 0 Z " fill="#5F270D" transform="translate(29,51)" />
<path d="M0 0 C2.05078125 0.03255208 4.1015625 0.06510417 6.15234375 0.09765625 C6.48234375 1.74765625 6.81234375 3.39765625 7.15234375 5.09765625 C1.52734375 6.22265625 1.52734375 6.22265625 -1.84765625 5.09765625 C-2.59765625 3.09765625 -2.59765625 3.09765625 -2.84765625 1.09765625 C-1.84765625 0.09765625 -1.84765625 0.09765625 0 0 Z " fill="#6E684F" transform="translate(50.84765625,44.90234375)" />
<path d="M0 0 C0.93423645 3.01031744 1.04449911 3.86650268 0 7 C-2.89558441 8.4477922 -4.74188938 9 -8 9 C-8 9.66 -8 10.32 -8 11 C-11.13498292 12.85776765 -13.37471432 13.20140476 -17 13 C-14.46161847 10.99044795 -11.83421246 9.28593166 -9.0625 7.625 C-5.5053301 5.43750673 -2.81197949 3.07560257 0 0 Z " fill="#786040" transform="translate(85,68)" />
<path d="M0 0 C2 3 2 3 2 7 C-3.47826087 7.36521739 -3.47826087 7.36521739 -5.875 5.6875 C-7 4 -7 4 -7 1 C-4.46578263 -0.26710868 -2.80561762 -0.28056176 0 0 Z " fill="#9A6042" transform="translate(66,23)" />
<path d="M0 0 C0.19491452 1.45736087 0.38069358 2.91594593 0.5625 4.375 C0.66691406 5.18710937 0.77132812 5.99921875 0.87890625 6.8359375 C1 9 1 9 0 11 C-1.65 10.67 -3.3 10.34 -5 10 C-4.88637738 8.5199159 -4.75877092 7.04089926 -4.625 5.5625 C-4.55539063 4.73878906 -4.48578125 3.91507813 -4.4140625 3.06640625 C-4.27742188 2.38449219 -4.14078125 1.70257813 -4 1 C-2 0 -2 0 0 0 Z " fill="#9B490E" transform="translate(75,41)" />
<path d="M0 0 C0 2.64 0 5.28 0 8 C-0.66 7.01 -1.32 6.02 -2 5 C-4.74855776 7.37375443 -5.6829917 9.66357897 -7 13 C-7.33 13.165 -7.33 13.165 -9 14 C-5.15686275 0 -5.15686275 0 0 0 Z M-12 14 C-11.01 14.33 -10.02 14.66 -9 15 C-9.99 15.99 -10.98 16.98 -12 18 C-12.66 17.34 -13.32 16.68 -14 16 C-13.34 15.34 -12.68 14.68 -12 14 Z " fill="#4F1704" transform="translate(86,44)" />
<path d="M0 0 C0.99 0.165 0.99 0.165 6 1 C6 1.99 6 2.98 6 4 C8.31 4 10.62 4 13 4 C13.33 4.99 13.66 5.98 14 7 C7.88225104 7.49940808 4.97504047 6.24900602 0 3 C0 2.01 0 1.02 0 0 Z " fill="#DAA586" transform="translate(35,53)" />
<path d="M0 0 C0.33 0.66 0.66 1.32 1 2 C-1.22561431 8.38009436 -6.19059168 12.96640609 -12.078125 16.109375 C-13.69216356 16.80485503 -15.34333086 17.41326301 -17 18 C-17 17.34 -17 16.68 -17 16 C-15.35 15.34 -13.7 14.68 -12 14 C-12 13.34 -12 12.68 -12 12 C-11.319375 11.649375 -10.63875 11.29875 -9.9375 10.9375 C-5.63501541 8.09969102 -3.00681146 4.13328261 0 0 Z " fill="#864F0E" transform="translate(86,60)" />
<path d="M0 0 C2.58990277 1.29495138 2.94702057 2.56247378 4.25 5.125 C6.68169769 9.66174942 9.53127081 13.20859833 13 17 C7.74414718 15.60874484 5.0525853 12.26993049 2 8 C0.47498702 4.94997404 0 3.41022524 0 0 Z " fill="#643B08" transform="translate(21,60)" />
<path d="M0 0 C2.64 0.33 5.28 0.66 8 1 C8 1.66 8 2.32 8 3 C9.65 3 11.3 3 13 3 C12.67 3.99 12.34 4.98 12 6 C7.83861737 6.08159574 4.0527516 5.98248524 0 5 C0.99 4.34 1.98 3.68 3 3 C2.01 2.01 1.02 1.02 0 0 Z " fill="#5F2408" transform="translate(53,29)" />
<path d="M0 0 C0.99 0.33 1.98 0.66 3 1 C2 9.57142857 2 9.57142857 1 13 C1.66 13 2.32 13 3 13 C2.67 14.65 2.34 16.3 2 18 C0.34477603 15.06482551 -0.29920064 12.7250642 -0.5625 9.375 C-0.90277778 5.19444444 -0.90277778 5.19444444 -2 3 C-1.34 2.01 -0.68 1.02 0 0 Z " fill="#672E08" transform="translate(26,35)" />
<path d="M0 0 C0.5625 1.9375 0.5625 1.9375 1 4 C0 5 0 5 -1.94946289 5.11352539 C-2.7821167 5.10828857 -3.61477051 5.10305176 -4.47265625 5.09765625 C-5.37177734 5.09443359 -6.27089844 5.09121094 -7.19726562 5.08789062 C-8.14279297 5.07951172 -9.08832031 5.07113281 -10.0625 5.0625 C-11.01189453 5.05798828 -11.96128906 5.05347656 -12.93945312 5.04882812 C-15.29303065 5.0370011 -17.64648477 5.02052025 -20 5 C-20 4.67 -20 4.34 -20 4 C-19.14277344 3.96261719 -18.28554688 3.92523438 -17.40234375 3.88671875 C-10.94801388 3.51561297 -5.73004075 3.06490552 0 0 Z " fill="#602B09" transform="translate(63,60)" />
<path d="M0 0 C3.63 0 7.26 0 11 0 C11.33 0.66 11.66 1.32 12 2 C11.67966797 2.01289062 11.67966797 2.01289062 10.05859375 2.078125 C3.9410516 2.4792753 0.0874978 3.57146888 -5 7 C-5 6.01 -5 5.02 -5 4 C-4.01 4 -3.02 4 -2 4 C-2 3.34 -2 2.68 -2 2 C-1.34 2 -0.68 2 0 2 C0 1.34 0 0.68 0 0 Z " fill="#935613" transform="translate(48,39)" />
<path d="M0 0 C-2.92209224 1.94806149 -5.84960716 3.45695045 -9 5 C-9.78375 5.391875 -10.5675 5.78375 -11.375 6.1875 C-11.91125 6.455625 -12.4475 6.72375 -13 7 C-12.34 6.01 -11.68 5.02 -11 4 C-10.61500109 2.34450469 -10.27206865 0.6777567 -10 -1 C-6.18510326 -2.46726798 -3.70988378 -1.43336419 0 0 Z " fill="#8C3F09" transform="translate(48,27)" />
<path d="M0 0 C1.66666667 1.66666667 3.33333333 3.33333333 5 5 C5.2990625 5.2784375 5.2990625 5.2784375 6.8125 6.6875 C8 8 8 8 8 10 C4.98197607 9.67372714 3.40308719 9.38918764 1.1875 7.25 C-0.19608294 4.62847443 -0.24360427 2.92325122 0 0 Z " fill="#C8863B" transform="translate(25,58)" />
<path d="M0 0 C0.66 0 1.32 0 2 0 C2 0.66 2 1.32 2 2 C5.3 2 8.6 2 12 2 C12 2.33 12 2.66 12 3 C9.36 3 6.72 3 4 3 C4 3.66 4 4.32 4 5 C3.34 5 2.68 5 2 5 C2 5.66 2 6.32 2 7 C1.01 7 0.02 7 -1 7 C-0.67 4.69 -0.34 2.38 0 0 Z " fill="#AE6E29" transform="translate(44,36)" />
<path d="M0 0 C1 0.5 1 0.5 6 3 C6.33 2.34 6.66 1.68 7 1 C6.125 4.875 6.125 4.875 5 6 C3.00041636 6.04080783 0.99954746 6.04254356 -1 6 C-1.625 4.125 -1.625 4.125 -2 2 C-1.34 1.34 -0.68 0.68 0 0 Z " fill="#894108" transform="translate(69,49)" />
<path d="M0 0 C0.66 0 1.32 0 2 0 C6.10909071 4.82437688 6.53318496 8.3518738 6.25 14.375 C6.23195313 15.11105469 6.21390625 15.84710938 6.1953125 16.60546875 C6.14859176 18.40421736 6.07686183 20.20228711 6 22 C5.67 22 5.34 22 5 22 C4.98130859 21.56558594 4.98130859 21.56558594 4.88671875 19.3671875 C4.24623425 8.13987089 4.24623425 8.13987089 1 3 C0.67 2.01 0.34 1.02 0 0 Z " fill="#6C420A" transform="translate(84,32)" />
<path d="M0 0 C5.61 0 11.22 0 17 0 C14.06781196 2.93218804 12.19870545 2.99369189 8.0625 3.125 C5.22954645 3.09369665 2.71056227 2.90352076 0 2 C0 1.34 0 0.68 0 0 Z " fill="#B47026" transform="translate(49,70)" />
<path d="M0 0 C3.63 0 7.26 0 11 0 C11 1.65 11 3.3 11 5 C8.03 5 5.06 5 2 5 C2 4.67 2 4.34 2 4 C3.98 4 5.96 4 8 4 C7.67 3.34 7.34 2.68 7 2 C4.67843403 1.59270772 2.3431213 1.25561323 0 1 C0 0.67 0 0.34 0 0 Z " fill="#B17852" transform="translate(41,56)" />
<path d="M0 0 C0 0.66 0 1.32 0 2 C-1.93467942 2.83986084 -3.87285129 3.67168027 -5.8125 4.5 C-6.35197266 4.73203125 -6.35197266 4.73203125 -9.08203125 5.90625 C-12 7 -12 7 -15 7 C-15 6.34 -15 5.68 -15 5 C-12.8765984 4.16260219 -10.7512272 3.33019717 -8.625 2.5 C-7.44164063 2.0359375 -6.25828125 1.571875 -5.0390625 1.09375 C-2 0 -2 0 0 0 Z " fill="#C4852B" transform="translate(79,66)" />
<path d="M0 0 C0.99 0.33 1.98 0.66 3 1 C3 1.66 3 2.32 3 3 C3.99 3.33 4.98 3.66 6 4 C5.74438677 6.3431213 5.40729228 8.67843403 5 11 C4.67 11.165 4.67 11.165 3 12 C2.938125 11.38125 2.938125 11.38125 2.625 8.25 C2.24253695 5.1237803 1.69450477 2.71120763 0 0 Z " fill="#773410" transform="translate(66,33)" />
<path d="M0 0 C-0.75 4.75 -0.75 4.75 -3 7 C-4.32 7 -5.64 7 -7 7 C-3.86206897 0 -3.86206897 0 0 0 Z " fill="#9A4A14" transform="translate(38,27)" />
<path d="M0 0 C2.31 0.165 2.31 0.165 14 1 C13.67 2.98 13.34 4.96 13 7 C12.34 7 11.68 7 11 7 C11 5.35 11 3.7 11 2 C7.37 2 3.74 2 0 2 C0 1.34 0 0.68 0 0 Z " fill="#975529" transform="translate(41,54)" />
<path d="M0 0 C0.99 0.33 1.98 0.66 3 1 C3 3.31 3 5.62 3 8 C1.0625 7.25 1.0625 7.25 -1 6 C-1.75 3.875 -1.75 3.875 -2 2 C-1.34 2 -0.68 2 0 2 C0 1.34 0 0.68 0 0 Z " fill="#A8663B" transform="translate(71,28)" />
<path d="M0 0 C0 0.33 0 0.66 0 1 C-0.60328125 1.03738281 -1.2065625 1.07476562 -1.828125 1.11328125 C-9.90131357 1.77736612 -9.90131357 1.77736612 -13 5 C-13.66 5.99 -14.32 6.98 -15 8 C-15.33 6.68 -15.66 5.36 -16 4 C-11.34158975 -1.14031476 -6.42886252 -0.40532233 0 0 Z " fill="#62360B" transform="translate(59,42)" />
<path d="M0 0 C3.49413605 2.86698342 5.28836874 4.84150148 5.8125 9.3125 C5.874375 10.529375 5.93625 11.74625 6 13 C3.19438607 11.59719304 2.99319493 9.9490995 1.875 7.0625 C1.52179688 6.16660156 1.16859375 5.27070312 0.8046875 4.34765625 C0 2 0 2 0 0 Z " fill="#A97039" transform="translate(82,31)" />
<path d="M0 0 C0 0.66 0 1.32 0 2 C-1.45381897 2.69699552 -2.91322953 3.38233866 -4.375 4.0625 C-5.18710937 4.44535156 -5.99921875 4.82820313 -6.8359375 5.22265625 C-7.55007812 5.47917969 -8.26421875 5.73570313 -9 6 C-9.66 5.67 -10.32 5.34 -11 5 C-7.17906575 1.05170128 -5.52310605 -0.1453449 0 0 Z " fill="#633410" transform="translate(42,21)" />
<path d="M0 0 C1.7074998 1.28062485 3.37373596 2.61767557 5 4 C5 4.66 5 5.32 5 6 C6.65 6.33 8.3 6.66 10 7 C10 7.33 10 7.66 10 8 C3.52864939 7.51159618 3.52864939 7.51159618 1.0625 5.125 C0 3 0 3 0 0 Z " fill="#776244" transform="translate(26,72)" />
<path d="M0 0 C0.33 0 0.66 0 1 0 C1.28571429 7.42857143 1.28571429 7.42857143 -1 11 C-1.33 11 -1.66 11 -2 11 C-2.19622241 6.78121808 -1.80230168 3.82989106 0 0 Z " fill="#B5722B" transform="translate(87,47)" />
<path d="M0 0 C2.97 0 5.94 0 9 0 C8.67 0.99 8.34 1.98 8 3 C6.35 3 4.7 3 3 3 C3 2.34 3 1.68 3 1 C2.01 0.67 1.02 0.34 0 0 Z " fill="#82522E" transform="translate(43,61)" />
<path d="M0 0 C0.33 0 0.66 0 1 0 C1.33 3.63 1.66 7.26 2 11 C1.34 11 0.68 11 0 11 C-1.28571429 3.57142857 -1.28571429 3.57142857 0 0 Z " fill="#BE7A37" transform="translate(24,50)" />
<path d="M0 0 C0.99 0.33 1.98 0.66 3 1 C3 2.65 3 4.3 3 6 C1.68 5.34 0.36 4.68 -1 4 C-0.67 2.68 -0.34 1.36 0 0 Z " fill="#C68969" transform="translate(31,43)" />
<path d="M0 0 C0.99 0.165 0.99 0.165 6 1 C6.33 1.99 6.66 2.98 7 4 C6.01 3.835 6.01 3.835 1 3 C0.67 2.01 0.34 1.02 0 0 Z " fill="#D49B84" transform="translate(60,25)" />
<path d="M0 0 C-1.32 0.33 -2.64 0.66 -4 1 C-4 1.99 -4 2.98 -4 4 C-3.01 4.33 -2.02 4.66 -1 5 C-1.33 5.165 -1.33 5.165 -3 6 C-3.66 5.67 -4.32 5.34 -5 5 C-5 4.34 -5 3.68 -5 3 C-5.66 3 -6.32 3 -7 3 C-6.67 2.01 -6.34 1.02 -6 0 C-3 -1 -3 -1 0 0 Z " fill="#924E28" transform="translate(63,23)" />
<path d="M0 0 C0.99 0 1.98 0 3 0 C2.67 2.31 2.34 4.62 2 7 C1.34 6.67 0.68 6.34 0 6 C0 4.02 0 2.04 0 0 Z " fill="#696954" transform="translate(91,36)" />
<path d="M0 0 C0.99 0 1.98 0 3 0 C3 0.66 3 1.32 3 2 C3.66 2 4.32 2 5 2 C5.33 3.98 5.66 5.96 6 8 C4.62437146 6.71034824 3.29233607 5.37310707 2 4 C2 3.34 2 2.68 2 2 C1.34 2 0.68 2 0 2 C0 1.34 0 0.68 0 0 Z " fill="#7A633E" transform="translate(84,30)" />
<path d="M0 0 C1.65 0 3.3 0 5 0 C4.34 0.66 3.68 1.32 3 2 C3 2.99 3 3.98 3 5 C1.68 4.67 0.36 4.34 -1 4 C-0.67 2.68 -0.34 1.36 0 0 Z " fill="#62310E" transform="translate(70,22)" />
</svg>