<?xml version='1.0' encoding='utf-8'?>
<svg xmlns="http://www.w3.org/2000/svg" version="1.1" width="93" height="104">
<path d="M0 0 C0.99 0 1.98 0 3 0 C3 3.3 3 6.6 3 10 C3.66 10 4.32 10 5 10 C5 8.35 5 6.7 5 5 C11.44151278 5.6233722 17.67179031 6.65769822 24 8 C23.88979143 11.08404808 23.75924186 14.16691192 23.625 17.25 C23.60953125 17.68634766 23.60953125 17.68634766 23.53125 19.89453125 C23.49257812 20.73886719 23.45390625 21.58320312 23.4140625 22.453125 C23.3826416 23.22817383 23.3512207 24.00322266 23.31884766 24.80175781 C22.96973494 27.20865742 22.19448896 28.89602295 21 31 C20.87625 30.195625 20.7525 29.39125 20.625 28.5625 C20.41875 27.716875 20.2125 26.87125 20 26 C19.34 25.67 18.68 25.34 18 25 C18.66 27.31 19.32 29.62 20 32 C19.67 32.165 19.67 32.165 18 33 C18 31.35 18 29.7 18 28 C17.01 28 16.02 28 15 28 C13.875 33.75 13.875 33.75 15 36 C13.02 36.99 11.04 37.98 9 39 C9 38.01 9 37.02 9 36 C7 38 7 38 6.8046875 39.9453125 C6.82789063 40.66460937 6.85109375 41.38390625 6.875 42.125 C6.91625 43.40375 6.9575 44.6825 7 46 C3.26345828 45.19534869 -0.19422782 43.82425115 -3.75 42.4375 C-4.92046875 41.98246094 -6.0909375 41.52742188 -7.296875 41.05859375 C-8.18890625 40.70925781 -9.0809375 40.35992187 -10 40 C-10 40.99 -10 41.98 -10 43 C-9.24074219 43.18175781 -8.48148438 43.36351562 -7.69921875 43.55078125 C-7.20228516 43.67646484 -7.20228516 43.67646484 -4.6875 44.3125 C-3.70136719 44.55613281 -2.71523438 44.79976562 -1.69921875 45.05078125 C1.02071932 46.00728624 2.31434964 46.68659019 4 49 C3.75546876 52.34192692 3.39456443 53.60543557 1 56 C-3.81039527 55.66439103 -7.75010544 54.16661292 -12 52 C-12.33 51.01 -12.66 50.02 -13 49 C-13.58007812 48.96261719 -14.16015625 48.92523438 -14.7578125 48.88671875 C-19.72579303 48.46862138 -23.88429518 48.03778213 -28 45 C-29.59157 42.43781345 -30.34998866 39.93272834 -31 37 C-31.17402344 36.27167969 -31.34804688 35.54335938 -31.52734375 34.79296875 C-31.86443574 32.15626288 -31.83379144 30.539857 -31 28 C-28.04186648 24.49287954 -24.76875898 21.61341811 -21 19 C-20.34 19 -19.68 19 -19 19 C-19.33 16.03 -19.66 13.06 -20 10 C-13.3830748 6.75956186 -7.26236302 4.30960645 0 3 C0 2.01 0 1.02 0 0 Z " fill="#953B19" transform="translate(49,28)" />
<path d="M0 0 C0.99 0 1.98 0 3 0 C3 3.3 3 6.6 3 10 C3.66 10 4.32 10 5 10 C5 8.35 5 6.7 5 5 C11.14154225 5.58490879 17.00679849 6.54066252 23 8 C23 8.66 23 9.32 23 10 C20.09399739 11.25664978 18.20395416 12 15 12 C15 12.66 15 13.32 15 14 C12.69 14.66 10.38 15.32 8 16 C8.01160156 16.71285156 8.02320313 17.42570312 8.03515625 18.16015625 C8.08606026 23.56325366 7.94608271 28.67828475 7 34 C6.34 34 5.68 34 5 34 C5 33.01 5 32.02 5 31 C3.68 30.67 2.36 30.34 1 30 C0.875 24.25 0.875 24.25 2 22 C0.68 22 -0.64 22 -2 22 C-1.67 22.66 -1.34 23.32 -1 24 C-0.95977609 26.3329866 -0.95679753 28.66706666 -1 31 C-0.34 31.33 0.32 31.66 1 32 C-0.9375 31.6875 -0.9375 31.6875 -3 31 C-4.1577506 27.52674819 -4.06866652 24.63932552 -4 21 C-4.99 21.33 -5.98 21.66 -7 22 C-7.33 21.34 -7.66 20.68 -8 20 C-8.33 21.98 -8.66 23.96 -9 26 C-9.99 25.67 -10.98 25.34 -12 25 C-11.67 23.02 -11.34 21.04 -11 19 C-12.32 18.67 -13.64 18.34 -15 18 C-14.67 18.66 -14.34 19.32 -14 20 C-13.95977609 22.3329866 -13.95679753 24.66706666 -14 27 C-15.32 27 -16.64 27 -18 27 C-18 24.69 -18 22.38 -18 20 C-20.56172531 21.93860293 -22.75280761 23.67041015 -24.6875 26.25 C-24.9040625 26.53875 -24.9040625 26.53875 -26 28 C-26.66 28 -27.32 28 -28 28 C-28.144375 29.093125 -28.28875 30.18625 -28.4375 31.3125 C-29 35 -29 35 -30 38 C-31.97687805 36.02312195 -31.68714435 33.22156963 -31.69140625 30.56640625 C-30.27165692 25.29648924 -25.33130628 22.00351239 -21 19 C-20.34 19 -19.68 19 -19 19 C-19.33 16.03 -19.66 13.06 -20 10 C-13.3830748 6.75956186 -7.26236302 4.30960645 0 3 C0 2.01 0 1.02 0 0 Z " fill="#D6AC63" transform="translate(49,28)" />
<path d="M0 0 C1.32 0.33 2.64 0.66 4 1 C4.042721 2.66611905 4.04063832 4.33382885 4 6 C3.67 6.33 3.34 6.66 3 7 C2.93955473 8.78417111 2.93948884 10.5704541 2.96484375 12.35546875 C2.95904297 13.45310547 2.95324219 14.55074219 2.94726562 15.68164062 C2.94080938 17.9994336 2.96118781 20.31747278 3.00976562 22.63476562 C2.89775816 30.97688701 2.89775816 30.97688701 0.22705078 34.02050781 C-1.93359375 35.58984375 -1.93359375 35.58984375 -4.08764648 36.80834961 C-6.92077574 38.57376566 -7.84111445 40.95792542 -9 44 C-9.99 44 -10.98 44 -12 44 C-11.67 42.02 -11.34 40.04 -11 38 C-11.33 38.165 -11.33 38.165 -13 39 C-13.625 42.0625 -13.625 42.0625 -14 45 C-13.67 45.165 -13.67 45.165 -12 46 C-12.99 46 -13.98 46 -15 46 C-15.0825 46.61875 -15.165 47.2375 -15.25 47.875 C-16 50 -16 50 -17.75 51.3125 C-20.5986167 52.18291066 -22.12223215 51.73617317 -25 51 C-26.04285156 50.89945313 -27.08570313 50.79890625 -28.16015625 50.6953125 C-32.66254213 49.88002798 -36.09847675 48.28448895 -40.125 46.1875 C-40.81464844 45.84396484 -41.50429688 45.50042969 -42.21484375 45.14648438 C-52.08851851 40.1152524 -52.08851851 40.1152524 -53.92578125 35.8515625 C-55.41646947 27.26881212 -55.41646947 27.26881212 -55 23 C-54.34 22.34 -53.68 21.68 -53 21 C-52.96261719 21.556875 -52.92523438 22.11375 -52.88671875 22.6875 C-51.91361149 33.98317639 -51.91361149 33.98317639 -49 38 C-44.35484392 40.71956092 -39.32885204 41.4099117 -34 41 C-33.91234375 41.62261719 -33.8246875 42.24523437 -33.734375 42.88671875 C-33 45 -33 45 -31.328125 46.08203125 C-27.19697948 47.53414443 -24.32301662 48.48603696 -20 47 C-19.67 44.69 -19.34 42.38 -19 40 C-19.77085938 39.79503906 -20.54171875 39.59007812 -21.3359375 39.37890625 C-22.33882812 39.10949219 -23.34171875 38.84007812 -24.375 38.5625 C-25.37273438 38.29566406 -26.37046875 38.02882812 -27.3984375 37.75390625 C-30 37 -30 37 -32 36 C-32 35.01 -32 34.02 -32 33 C-30.26982492 33.45451184 -28.54090123 33.91378857 -26.8125 34.375 C-26.33103516 34.50261719 -26.33103516 34.50261719 -23.89453125 35.1484375 C-21.17789793 35.94766296 -18.60862825 36.9031362 -16 38 C-16 35.36 -16 32.72 -16 30 C-14.68 30 -13.36 30 -12 30 C-11.01 29.67 -10.02 29.34 -9 29 C-8.26953125 27.15234375 -8.26953125 27.15234375 -7.8125 24.9375 C-7.65394531 24.20402344 -7.49539062 23.47054687 -7.33203125 22.71484375 C-7.22246094 22.14894531 -7.11289062 21.58304688 -7 21 C-6.01 21 -5.02 21 -4 21 C-4.165 20.01 -4.165 20.01 -5 15 C-4.34 15.66 -3.68 16.32 -3 17 C-2.34 16.34 -1.68 15.68 -1 15 C-1 16.98 -1 18.96 -1 21 C0.95627825 19.04372175 0.36431953 15.37347081 0.5 12.6875 C0.92074319 4.49859082 0.92074319 4.49859082 2 1 C1.34 0.67 0.68 0.34 0 0 Z " fill="#5D3E1F" transform="translate(71,35)" />
<path d="M0 0 C0.33 0.66 0.66 1.32 1 2 C2.216875 1.95875 3.43375 1.9175 4.6875 1.875 C8.21894127 1.86245492 10.80003566 2.40001783 14 4 C14 4.66 14 5.32 14 6 C15.65 6 17.3 6 19 6 C18.690625 6.66 18.38125 7.32 18.0625 8 C16.75039745 11.70476015 16.39735865 15.09263991 16 19 C16.61488281 19.13277344 17.22976562 19.26554687 17.86328125 19.40234375 C18.26740234 19.49064453 18.26740234 19.49064453 20.3125 19.9375 C21.11300781 20.11152344 21.91351563 20.28554687 22.73828125 20.46484375 C25 21 25 21 28 22 C27.67 23.65 27.34 25.3 27 27 C26.01 27 25.02 27 24 27 C24 26.34 24 25.68 24 25 C19.09017296 23.94423343 14.26041146 22.97220997 9.25 22.5625 C5.26787698 22.13257167 2.30299339 21.41682443 -1 19 C-3.16163307 13.98894152 -3.43948653 9.36173565 -3 4 C-1.5 1.5 -1.5 1.5 0 0 Z " fill="#A8755D" transform="translate(22,54)" />
<path d="M0 0 C0.7425 0.0407666 1.485 0.0815332 2.25 0.12353516 C3.054375 0.16736328 3.85875 0.21119141 4.6875 0.25634766 C5.1103125 0.28212891 5.1103125 0.28212891 7.25 0.41259766 C7.6728125 0.43451172 7.6728125 0.43451172 9.8125 0.54541016 C16.12181122 0.90940888 16.12181122 0.90940888 17.25 2.03759766 C18.68434586 2.19470653 20.12297244 2.31364486 21.5625 2.41259766 C25.28221002 2.77390707 27.52163748 3.30923513 30.25 6.03759766 C29.99438677 8.38071896 29.65729228 10.71603169 29.25 13.03759766 C28.59 13.36759766 27.93 13.69759766 27.25 14.03759766 C28.57 15.02759766 29.89 16.01759766 31.25 17.03759766 C25.61718401 17.27729195 20.70461169 16.42289586 15.25 15.03759766 C15.25 16.68759766 15.25 18.33759766 15.25 20.03759766 C14.59 20.03759766 13.93 20.03759766 13.25 20.03759766 C13.25 16.73759766 13.25 13.43759766 13.25 10.03759766 C12.26 10.03759766 11.27 10.03759766 10.25 10.03759766 C10.25 11.02759766 10.25 12.01759766 10.25 13.03759766 C8.31643218 13.73608029 6.37797702 14.42104579 4.4375 15.10009766 C3.35855469 15.48294922 2.27960937 15.86580078 1.16796875 16.26025391 C-1.75 17.03759766 -1.75 17.03759766 -4.75 16.03759766 C-0.46 14.38759766 3.83 12.73759766 8.25 11.03759766 C6.26432292 10.84228516 4.27864583 10.64697266 2.29296875 10.45166016 C0.25 10.03759766 0.25 10.03759766 -2.75 8.03759766 C-3 4.47509766 -3 4.47509766 -2.75 1.03759766 C-1.75 0.03759766 -1.75 0.03759766 0 0 Z " fill="#4B3516" transform="translate(38.75,17.96240234375)" />
<path d="M0 0 C0.33 0 0.66 0 1 0 C1.03738281 0.556875 1.07476563 1.11375 1.11328125 1.6875 C2.08638851 12.98317639 2.08638851 12.98317639 5 17 C9.64515608 19.71956092 14.67114796 20.4099117 20 20 C20.08765625 20.62261719 20.1753125 21.24523437 20.265625 21.88671875 C21 24 21 24 22.671875 25.08203125 C26.80302052 26.53414443 29.67698338 27.48603696 34 26 C34.33 23.69 34.66 21.38 35 19 C34.22914062 18.79503906 33.45828125 18.59007813 32.6640625 18.37890625 C31.66117188 18.10949219 30.65828125 17.84007813 29.625 17.5625 C28.62726562 17.29566406 27.62953125 17.02882813 26.6015625 16.75390625 C24 16 24 16 22 15 C22 14.01 22 13.02 22 12 C23.73017508 12.45451184 25.45909877 12.91378857 27.1875 13.375 C28.15042969 13.63023438 29.11335938 13.88546875 30.10546875 14.1484375 C32.82210207 14.94766296 35.39137175 15.9031362 38 17 C38 16.34 38 15.68 38 15 C38.99 15 39.98 15 41 15 C40.67 17.97 40.34 20.94 40 24 C40.66 24.33 41.32 24.66 42 25 C41.01 25 40.02 25 39 25 C38.9175 25.61875 38.835 26.2375 38.75 26.875 C38 29 38 29 36.25 30.3125 C33.4013833 31.18291066 31.87776785 30.73617317 29 30 C27.95714844 29.89945313 26.91429687 29.79890625 25.83984375 29.6953125 C21.33745787 28.88002798 17.90152325 27.28448895 13.875 25.1875 C13.18535156 24.84396484 12.49570312 24.50042969 11.78515625 24.14648438 C1.91148149 19.1152524 1.91148149 19.1152524 0.07421875 14.8515625 C-0.05339844 14.11679688 -0.18101563 13.38203125 -0.3125 12.625 C-0.44914062 11.84253906 -0.58578125 11.06007813 -0.7265625 10.25390625 C-1.58577406 3.17154812 -1.58577406 3.17154812 0 0 Z " fill="#613222" transform="translate(17,56)" />
<path d="M0 0 C0.33 0 0.66 0 1 0 C1 3.3 1 6.6 1 10 C1.66 10 2.32 10 3 10 C3 8.35 3 6.7 3 5 C9.14154225 5.58490879 15.00679849 6.54066252 21 8 C21 8.66 21 9.32 21 10 C18.09399739 11.25664978 16.20395416 12 13 12 C13 12.66 13 13.32 13 14 C8.78103134 16.04898287 5.34627854 16.21207997 0.6875 16.125 C-0.56675781 16.10695313 -1.82101563 16.08890625 -3.11328125 16.0703125 C-4.06589844 16.04710938 -5.01851562 16.02390625 -6 16 C-5.67 14.35 -5.34 12.7 -5 11 C-4.01 11.33 -3.02 11.66 -2 12 C-2.33 11.01 -2.66 10.02 -3 9 C-2.01 8.67 -1.02 8.34 0 8 C0 5.36 0 2.72 0 0 Z " fill="#E0B967" transform="translate(51,28)" />
<path d="M0 0 C0.054138 2.24973447 0.09285491 4.49984383 0.125 6.75 C0.14820312 8.00296875 0.17140625 9.2559375 0.1953125 10.546875 C0.01537302 13.72820492 -0.31001418 15.36521896 -2 18 C-2.12375 17.195625 -2.2475 16.39125 -2.375 15.5625 C-2.58125 14.716875 -2.7875 13.87125 -3 13 C-3.66 12.67 -4.32 12.34 -5 12 C-4.34 14.31 -3.68 16.62 -3 19 C-3.66 19.33 -4.32 19.66 -5 20 C-5 18.35 -5 16.7 -5 15 C-5.99 15 -6.98 15 -8 15 C-8.33 16.98 -8.66 18.96 -9 21 C-9.66 21 -10.32 21 -11 21 C-11.33 21.66 -11.66 22.32 -12 23 C-12.66 21.68 -13.32 20.36 -14 19 C-13.01 19.33 -12.02 19.66 -11 20 C-11.495 19.62875 -11.99 19.2575 -12.5 18.875 C-14.59755514 16.25305607 -14.21743835 14.26157528 -14 11 C-12.68 11.33 -11.36 11.66 -10 12 C-10 11.01 -10 10.02 -10 9 C-11.32 9 -12.64 9 -14 9 C-14 8.01 -14 7.02 -14 6 C-12.2335343 4.9923048 -10.46166177 3.99408286 -8.6875 3 C-8.19443359 2.7215625 -8.19443359 2.7215625 -5.69921875 1.3125 C-3 0 -3 0 0 0 Z " fill="#804D1A" transform="translate(72,41)" />
<path d="M0 0 C0 2.31 0 4.62 0 7 C3.3 7.99 6.6 8.98 10 10 C9.34 13.63 8.68 17.26 8 21 C4 22 4 22 0.875 21 C-2 19 -2 19 -3.375 15.8125 C-5.02052135 5.77481974 -5.02052135 5.77481974 -2.5625 1.5 C-1 0 -1 0 0 0 Z " fill="#CF5A49" transform="translate(23,54)" />
<path d="M0 0 C2.86688248 0.09096556 5.70300515 0.23767988 8.5625 0.4375 C9.36880859 0.48970703 10.17511719 0.54191406 11.00585938 0.59570312 C13.00421738 0.72577376 15.00215386 0.86229056 17 1 C17 1.66 17 2.32 17 3 C20.3 3 23.6 3 27 3 C26.67 4.65 26.34 6.3 26 8 C25.37351562 7.9278125 24.74703125 7.855625 24.1015625 7.78125 C23.28429687 7.6884375 22.46703125 7.595625 21.625 7.5 C20.81289063 7.4071875 20.00078125 7.314375 19.1640625 7.21875 C16.88582924 6.98845927 14.72794054 7.0066356 12.4375 7.0625 C10 7 10 7 9 6 C7.48530552 5.76807135 5.96245438 5.58784762 4.4375 5.4375 C3.61121094 5.35371094 2.78492188 5.26992188 1.93359375 5.18359375 C1.29550781 5.12300781 0.65742187 5.06242187 0 5 C-0.5625 3.0625 -0.5625 3.0625 -1 1 C-0.67 0.67 -0.34 0.34 0 0 Z " fill="#C3874D" transform="translate(38,20)" />
<path d="M0 0 C0.33 1.32 0.66 2.64 1 4 C-0.93269959 5.17460192 -2.87133313 6.33944472 -4.8125 7.5 C-5.89144531 8.1496875 -6.97039062 8.799375 -8.08203125 9.46875 C-11 11 -11 11 -14 11 C-13.67 11.66 -13.34 12.32 -13 13 C-11.68 12.67 -10.36 12.34 -9 12 C-8.67 12.66 -8.34 13.32 -8 14 C-8.9375 16.125 -8.9375 16.125 -10 18 C-10.99 18 -11.98 18 -13 18 C-13 19.32 -13 20.64 -13 22 C-12.34 21.34 -11.68 20.68 -11 20 C-11 21.65 -11 23.3 -11 25 C-11.66 25.33 -12.32 25.66 -13 26 C-11.35 26.33 -9.7 26.66 -8 27 C-9.65 28.32 -11.3 29.64 -13 31 C-13.33 30.01 -13.66 29.02 -14 28 C-16.0625 26.8125 -16.0625 26.8125 -18 26 C-17.34 26 -16.68 26 -16 26 C-15.835 23.03 -15.835 23.03 -15 8 C-12.69 7.34 -10.38 6.68 -8 6 C-8 5.34 -8 4.68 -8 4 C-5.09399739 2.74335022 -3.20395416 2 0 2 C0 1.34 0 0.68 0 0 Z " fill="#9D6830" transform="translate(72,36)" />
<path d="M0 0 C0.7425 0.0407666 1.485 0.0815332 2.25 0.12353516 C3.054375 0.16736328 3.85875 0.21119141 4.6875 0.25634766 C5.1103125 0.28212891 5.1103125 0.28212891 7.25 0.41259766 C7.6728125 0.43451172 7.6728125 0.43451172 9.8125 0.54541016 C16.12181122 0.90940888 16.12181122 0.90940888 17.25 2.03759766 C19.56952569 2.31861711 21.88885514 2.48542391 24.21875 2.65869141 C24.8890625 2.78373047 25.559375 2.90876953 26.25 3.03759766 C26.58 3.69759766 26.91 4.35759766 27.25 5.03759766 C23.62 5.03759766 19.99 5.03759766 16.25 5.03759766 C16.25 4.37759766 16.25 3.71759766 16.25 3.03759766 C10.64 3.03759766 5.03 3.03759766 -0.75 3.03759766 C-0.75 4.02759766 -0.75 5.01759766 -0.75 6.03759766 C-0.12351562 6.08658203 0.50296875 6.13556641 1.1484375 6.18603516 C1.96570312 6.26080078 2.78296875 6.33556641 3.625 6.41259766 C4.03105469 6.44740234 4.03105469 6.44740234 6.0859375 6.62353516 C8.25 7.03759766 8.25 7.03759766 10.25 9.03759766 C10.25 10.35759766 10.25 11.67759766 10.25 13.03759766 C8.31643218 13.73608029 6.37797702 14.42104579 4.4375 15.10009766 C3.35855469 15.48294922 2.27960937 15.86580078 1.16796875 16.26025391 C-1.75 17.03759766 -1.75 17.03759766 -4.75 16.03759766 C-0.46 14.38759766 3.83 12.73759766 8.25 11.03759766 C6.26432292 10.84228516 4.27864583 10.64697266 2.29296875 10.45166016 C0.25 10.03759766 0.25 10.03759766 -2.75 8.03759766 C-3 4.47509766 -3 4.47509766 -2.75 1.03759766 C-1.75 0.03759766 -1.75 0.03759766 0 0 Z " fill="#513514" transform="translate(38.75,17.96240234375)" />
<path d="M0 0 C9.67311609 0.98370672 9.67311609 0.98370672 13 3 C14 5.375 14 5.375 14 8 C12.5625 10.3125 12.5625 10.3125 11 12 C6.15340923 11.40895235 2.39251833 10.02055843 -2 8 C-2 7.01 -2 6.02 -2 5 C-0.515 5.33 -0.515 5.33 7 7 C7 7.66 7 8.32 7 9 C7.99 9 8.98 9 10 9 C10.33 7.35 10.66 5.7 11 4 C10.28972656 3.87882812 9.57945313 3.75765625 8.84765625 3.6328125 C7.92855469 3.46523437 7.00945313 3.29765625 6.0625 3.125 C5.60423828 3.04378906 5.60423828 3.04378906 3.28515625 2.6328125 C2.53105469 2.42398438 1.77695312 2.21515625 1 2 C0.67 1.34 0.34 0.68 0 0 Z " fill="#BA403A" transform="translate(39,72)" />
<path d="M0 0 C3 2 3 2 4 5 C4.03954234 7.33299825 4.04401732 9.66708189 4 12 C2.68 12 1.36 12 0 12 C0 9.69 0 7.38 0 5 C-2.56172531 6.93860293 -4.75280761 8.67041015 -6.6875 11.25 C-7.120625 11.8275 -7.55375 12.405 -8 13 C-8.66 13 -9.32 13 -10 13 C-10.144375 14.093125 -10.28875 15.18625 -10.4375 16.3125 C-11 20 -11 20 -12 23 C-13.97770124 21.02229876 -13.68714964 18.21862226 -13.69140625 15.5625 C-12.26350215 10.27038085 -7.25590704 7.12564976 -3 4 C-2.34 3.67 -1.68 3.34 -1 3 C-0.67 2.01 -0.34 1.02 0 0 Z " fill="#D6AE66" transform="translate(31,43)" />
<path d="M0 0 C1.73017508 0.45451184 3.45909877 0.91378857 5.1875 1.375 C6.15042969 1.63023438 7.11335938 1.88546875 8.10546875 2.1484375 C10.82210207 2.94766296 13.39137175 3.9031362 16 5 C16 4.34 16 3.68 16 3 C16.99 3 17.98 3 19 3 C18.67 5.97 18.34 8.94 18 12 C18.66 12.33 19.32 12.66 20 13 C19.01 12.835 19.01 12.835 14 12 C13.67 10.35 13.34 8.7 13 7 C12.22914062 6.79503906 11.45828125 6.59007813 10.6640625 6.37890625 C9.66117188 6.10949219 8.65828125 5.84007813 7.625 5.5625 C6.62726562 5.29566406 5.62953125 5.02882813 4.6015625 4.75390625 C2 4 2 4 0 3 C0 2.01 0 1.02 0 0 Z " fill="#6F1016" transform="translate(39,68)" />
<path d="M0 0 C0.33 0 0.66 0 1 0 C1 2.31 1 4.62 1 7 C4.3 7.99 7.6 8.98 11 10 C10.67 11.32 10.34 12.64 10 14 C8.20620902 13.55005243 6.41501072 13.08975857 4.625 12.625 C3.62726562 12.36976562 2.62953125 12.11453125 1.6015625 11.8515625 C-1 11 -1 11 -3 9 C-2.53846154 2.53846154 -2.53846154 2.53846154 0 0 Z " fill="#8F1F11" transform="translate(22,54)" />
<path d="M0 0 C8.57142857 -0.28571429 8.57142857 -0.28571429 12 2 C11.34 3.98 10.68 5.96 10 8 C6.44219804 7.39009109 3.3171411 6.4216319 0 5 C0 3.35 0 1.7 0 0 Z " fill="#E46454" transform="translate(23,56)" />
<path d="M0 0 C2.77260114 0.34518327 5.30713416 1.21820024 8 2 C8 6.29 8 10.58 8 15 C7.34 15 6.68 15 6 15 C6 14.01 6 13.02 6 12 C4.68 11.67 3.36 11.34 2 11 C1.875 5.25 1.875 5.25 3 3 C1.35 2.67 -0.3 2.34 -2 2 C-1.34 1.34 -0.68 0.68 0 0 Z " fill="#E4BA6F" transform="translate(48,47)" />
<path d="M0 0 C1.32 0.33 2.64 0.66 4 1 C3.67 3.97 3.34 6.94 3 10 C3.66 10.33 4.32 10.66 5 11 C0.05 10.67 -4.9 10.34 -10 10 C-7.63414634 4.08536585 -7.63414634 4.08536585 -5 2 C-4.34 2 -3.68 2 -3 2 C-3 4.31 -3 6.62 -3 9 C-1.68 9 -0.36 9 1 9 C0.67 6.03 0.34 3.06 0 0 Z " fill="#A76E34" transform="translate(34,46)" />
<path d="M0 0 C0.33 0 0.66 0 1 0 C1.03738281 0.556875 1.07476563 1.11375 1.11328125 1.6875 C2.08638851 12.98317639 2.08638851 12.98317639 5 17 C9.64515608 19.71956092 14.67114796 20.4099117 20 20 C20 20.99 20 21.98 20 23 C17.76862737 22.77052189 15.53986844 22.51554444 13.3125 22.25 C12.69181641 22.18039063 12.69181641 22.18039063 9.55078125 21.828125 C5.63058903 20.91384475 3.78429621 19.87642365 1 17 C0.07421875 14.8515625 0.07421875 14.8515625 -0.3125 12.625 C-0.44914062 11.84253906 -0.58578125 11.06007813 -0.7265625 10.25390625 C-1.58577406 3.17154812 -1.58577406 3.17154812 0 0 Z " fill="#683723" transform="translate(17,56)" />
<path d="M0 0 C1.6254308 0.14095064 3.25034051 0.28792087 4.875 0.4375 C5.77992187 0.51871094 6.68484375 0.59992187 7.6171875 0.68359375 C10 1 10 1 12 2 C11.625 4.4375 11.625 4.4375 11 7 C8.18185434 8.40907283 6.82722796 7.50872691 3.875 6.5625 C2.96492188 6.27503906 2.05484375 5.98757812 1.1171875 5.69140625 C0.41851562 5.46324219 -0.28015625 5.23507813 -1 5 C-0.67 3.35 -0.34 1.7 0 0 Z " fill="#F77B6A" transform="translate(42,62)" />
<path d="M0 0 C0.99 0 1.98 0 3 0 C3.054138 2.24973447 3.09285491 4.49984383 3.125 6.75 C3.14820312 8.00296875 3.17140625 9.2559375 3.1953125 10.546875 C3.01537302 13.72820492 2.68998582 15.36521896 1 18 C0.896875 17.2575 0.79375 16.515 0.6875 15.75 C-0.05269611 12.78921557 -1.15719597 11.38028854 -3 9 C-3.9375 7 -3.9375 7 -4 5 C-2.0625 2.8125 -2.0625 2.8125 0 1 C0 0.67 0 0.34 0 0 Z " fill="#8D6232" transform="translate(69,41)" />
<path d="M0 0 C0.66 1.32 1.32 2.64 2 4 C-0.3833861 7.14947449 -2.55084975 9.9972676 -6 12 C-6.99 11.67 -7.98 11.34 -9 11 C-9.33 9.68 -9.66 8.36 -10 7 C-6.7 4.69 -3.4 2.38 0 0 Z " fill="#885B2F" transform="translate(70,60)" />
<path d="M0 0 C0.99 0.33 1.98 0.66 3 1 C2.835 1.721875 2.67 2.44375 2.5 3.1875 C2 6 2 6 2.23828125 8.4453125 C2 11 2 11 0.13671875 12.94921875 C-0.67152344 13.52285156 -1.47976562 14.09648438 -2.3125 14.6875 C-2.71275391 14.97818359 -2.71275391 14.97818359 -4.73828125 16.44921875 C-6.48337464 17.6457681 -8.23945525 18.8263035 -10 20 C-9.814375 19.38125 -9.62875 18.7625 -9.4375 18.125 C-9 16 -9 16 -10 14 C-7.01353231 12.00902154 -4.40312738 11.05875074 -1 10 C-1 7.95822704 -1.02167271 5.91636472 -1.0625 3.875 C-1 1 -1 1 0 0 Z " fill="#5B4A20" transform="translate(28,36)" />
<path d="M0 0 C0.66 0.33 1.32 0.66 2 1 C-1.75 4 -1.75 4 -4 4 C-4 4.66 -4 5.32 -4 6 C-3.34 6.33 -2.68 6.66 -2 7 C-2 9.97 -2 12.94 -2 16 C-2.99 16 -3.98 16 -5 16 C-4.67 14.02 -4.34 12.04 -4 10 C-4.66 10 -5.32 10 -6 10 C-6 9.34 -6 8.68 -6 8 C-6.66 8 -7.32 8 -8 8 C-8.33 6.02 -8.66 4.04 -9 2 C-7.68 2 -6.36 2 -5 2 C-4.13375 1.649375 -3.2675 1.29875 -2.375 0.9375 C-1.59125 0.628125 -0.8075 0.31875 0 0 Z " fill="#72251A" transform="translate(64,63)" />
<path d="M0 0 C0.825 0.33 0.825 0.33 5 2 C6 8.625 6 8.625 6 12 C3.03 11.01 0.06 10.02 -3 9 C-2.67 8.01 -2.34 7.02 -2 6 C-1.34 6.33 -0.68 6.66 0 7 C0 4.69 0 2.38 0 0 Z " fill="#A57B32" transform="translate(40,47)" />
<path d="M0 0 C0.33 0 0.66 0 1 0 C1 3.3 1 6.6 1 10 C1.66 10 2.32 10 3 10 C3 8.35 3 6.7 3 5 C4.43836751 5.11458693 5.87570966 5.24209116 7.3125 5.375 C7.71275391 5.40980469 7.71275391 5.40980469 9.73828125 5.5859375 C12 6 12 6 15 8 C11.7 8.33 8.4 8.66 5 9 C5.33 9.99 5.66 10.98 6 12 C3.36 11.67 0.72 11.34 -2 11 C-2 10.01 -2 9.02 -2 8 C-1.34 8 -0.68 8 0 8 C0 5.36 0 2.72 0 0 Z " fill="#B4975B" transform="translate(51,28)" />
<path d="M0 0 C1.43793392 0.31049726 2.8753318 0.6234776 4.3125 0.9375 C5.11300781 1.11152344 5.91351563 1.28554687 6.73828125 1.46484375 C9 2 9 2 12 3 C11.67 4.65 11.34 6.3 11 8 C10.01 8 9.02 8 8 8 C8 7.34 8 6.68 8 6 C6.515 5.67 6.515 5.67 -1 4 C-0.67 2.68 -0.34 1.36 0 0 Z " fill="#F57762" transform="translate(38,73)" />
<path d="M0 0 C0.33 1.32 0.66 2.64 1 4 C-0.91297061 5.15199331 -2.83052529 6.29637688 -4.75 7.4375 C-5.81734375 8.07558594 -6.8846875 8.71367188 -7.984375 9.37109375 C-10.43484971 10.69473099 -12.28991337 11.53297051 -15 12 C-15 10.68 -15 9.36 -15 8 C-12.69 7.34 -10.38 6.68 -8 6 C-8 5.34 -8 4.68 -8 4 C-5.09399739 2.74335022 -3.20395416 2 0 2 C0 1.34 0 0.68 0 0 Z " fill="#B58748" transform="translate(72,36)" />
<path d="M0 0 C2.70108504 0.090916 5.36930311 0.23740766 8.0625 0.4375 C8.44180664 0.46360352 8.44180664 0.46360352 10.36132812 0.59570312 C12.24121722 0.72575835 14.12065685 0.86228038 16 1 C15.67 1.66 15.34 2.32 15 3 C14.01 2.835 14.01 2.835 9 2 C9 2.99 9 3.98 9 5 C6.03 5 3.06 5 0 5 C-0.33 3.68 -0.66 2.36 -1 1 C-0.67 0.67 -0.34 0.34 0 0 Z " fill="#B68F66" transform="translate(38,20)" />
<path d="M0 0 C1.32 0.33 2.64 0.66 4 1 C3.67 1.66 3.34 2.32 3 3 C3.66 2.67 4.32 2.34 5 2 C6.71233688 2.0870204 8.42175406 2.24097162 10.125 2.4375 C11.03507812 2.53933594 11.94515625 2.64117187 12.8828125 2.74609375 C13.58148438 2.82988281 14.28015625 2.91367187 15 3 C15 4.32 15 5.64 15 7 C9.24237834 5.91103333 3.60752181 4.70663707 -2 3 C-1.34 2.01 -0.68 1.02 0 0 Z " fill="#F9D98F" transform="translate(42,41)" />
<path d="M0 0 C0.66 0.66 1.32 1.32 2 2 C2.66 1.34 3.32 0.68 4 0 C4.08086147 1.79093191 4.13912702 3.58289628 4.1875 5.375 C4.22230469 6.37273438 4.25710937 7.37046875 4.29296875 8.3984375 C4.19628906 9.25695313 4.09960938 10.11546875 4 11 C0.77208445 13.1519437 -0.28400809 13.20086443 -4 13 C-3.34 10.69 -2.68 8.38 -2 6 C-1.01 6 -0.02 6 1 6 C0.67 4.02 0.34 2.04 0 0 Z " fill="#724D18" transform="translate(66,50)" />
<path d="M0 0 C3.3 0.66 6.6 1.32 10 2 C10 3.32 10 4.64 10 6 C8.54119891 5.85892253 7.08296449 5.71197585 5.625 5.5625 C5.21894531 5.52189453 5.21894531 5.52189453 3.1640625 5.31640625 C1 5 1 5 -1 4 C-0.67 2.68 -0.34 1.36 0 0 Z " fill="#F5D58C" transform="translate(30,37)" />
<path d="M0 0 C0.99 0.165 0.99 0.165 6 1 C6 1.66 6 2.32 6 3 C8.31 3.33 10.62 3.66 13 4 C13 4.33 13 4.66 13 5 C10.69 5 8.38 5 6 5 C5.67 6.65 5.34 8.3 5 10 C4.34 10 3.68 10 3 10 C3 10.99 3 11.98 3 13 C3.66 13.33 4.32 13.66 5 14 C4.34 14.33 4.34 14.33 1 16 C1.33990833 10.62007164 1.68557793 6.46726453 5 2 C3.35 2 1.7 2 0 2 C0 1.34 0 0.68 0 0 Z " fill="#A9604A" transform="translate(36,58)" />
<path d="M0 0 C1.45903258 0.30921884 2.91720722 0.62248799 4.375 0.9375 C5.18710937 1.11152344 5.99921875 1.28554687 6.8359375 1.46484375 C9 2 9 2 11 3 C10.67 4.32 10.34 5.64 10 7 C8.515 6.67 8.515 6.67 1 5 C0.67 3.35 0.34 1.7 0 0 Z " fill="#F47264" transform="translate(19,66)" />
<path d="M0 0 C0.66 0 1.32 0 2 0 C2 2.64 2 5.28 2 8 C-4.4 8.36923077 -4.4 8.36923077 -7.4375 6.5 C-7.953125 6.005 -8.46875 5.51 -9 5 C-6.03 4.34 -3.06 3.68 0 3 C0 2.01 0 1.02 0 0 Z " fill="#CAB486" transform="translate(49,28)" />
<path d="M0 0 C7.36072234 0.42465706 13.32137824 2.98348917 20 6 C20 6.33 20 6.66 20 7 C12.96392328 6.2514812 5.38614323 4.91778295 0 0 Z " fill="#521C0A" transform="translate(26,77)" />
<path d="M0 0 C0.99 0.66 1.98 1.32 3 2 C2.67 4.31 2.34 6.62 2 9 C1.67 8.34 1.34 7.68 1 7 C0.30132812 7.02320313 -0.39734375 7.04640625 -1.1171875 7.0703125 C-2.02726562 7.08835937 -2.93734375 7.10640625 -3.875 7.125 C-4.77992187 7.14820313 -5.68484375 7.17140625 -6.6171875 7.1953125 C-9 7 -9 7 -11 5 C-8.03 5.33 -5.06 5.66 -2 6 C-1.34 4.02 -0.68 2.04 0 0 Z " fill="#683F17" transform="translate(66,22)" />
<path d="M0 0 C0.66 0.33 1.32 0.66 2 1 C0.07423885 3.43929746 -1.80090595 5.80090595 -4 8 C-4.66 8 -5.32 8 -6 8 C-6.144375 9.093125 -6.28875 10.18625 -6.4375 11.3125 C-7 15 -7 15 -8 18 C-9.97110763 16.02889237 -9.62433702 13.14434941 -9.6328125 10.5 C-8.38675825 5.57731655 -3.94591026 2.87331164 0 0 Z " fill="#E4D3B1" transform="translate(27,48)" />
<path d="M0 0 C2.45906037 0.47565766 4.91720993 0.95536052 7.375 1.4375 C8.07367188 1.57220703 8.77234375 1.70691406 9.4921875 1.84570312 C14.7734375 2.88671875 14.7734375 2.88671875 17 4 C17 4.66 17 5.32 17 6 C14.59314446 5.53200031 12.22853817 5.06721711 9.875 4.375 C8 4 8 4 5 5 C4.34 4.34 3.68 3.68 3 3 C2.34 3.66 1.68 4.32 1 5 C0.67 3.35 0.34 1.7 0 0 Z " fill="#CFA65E" transform="translate(29,41)" />
<path d="M0 0 C1.25127906 3.54667178 0.72285053 5.72253438 -0.4375 9.25 C-0.72496094 10.14203125 -1.01242188 11.0340625 -1.30859375 11.953125 C-1.53675781 12.62859375 -1.76492187 13.3040625 -2 14 C-2.99 13.34 -3.98 12.68 -5 12 C-4.67 11.34 -4.34 10.68 -4 10 C-3.34 10.33 -2.68 10.66 -2 11 C-2.495 10.62875 -2.99 10.2575 -3.5 9.875 C-5.59755514 7.25305607 -5.21743835 5.26157528 -5 2 C-3.68 2.33 -2.36 2.66 -1 3 C-0.67 2.01 -0.34 1.02 0 0 Z " fill="#7B4E18" transform="translate(63,50)" />
<path d="M0 0 C1.32 0 2.64 0 4 0 C4 2.64 4 5.28 4 8 C4.99 8.33 5.98 8.66 7 9 C7 9.99 7 10.98 7 12 C6.01 11.835 6.01 11.835 1 11 C0.67 7.37 0.34 3.74 0 0 Z " fill="#AC7A35" transform="translate(47,50)" />
<path d="M0 0 C10.15317287 0.35010941 10.15317287 0.35010941 13.6875 3.0625 C14.120625 3.701875 14.55375 4.34125 15 5 C6.5 5.16666667 6.5 5.16666667 3 4 C1.95763139 2.69952107 0.95209476 1.36795224 0 0 Z " fill="#654E27" transform="translate(55,30)" />
<path d="M0 0 C1.79379098 0.44994757 3.58498928 0.91024143 5.375 1.375 C6.37273438 1.63023438 7.37046875 1.88546875 8.3984375 2.1484375 C11 3 11 3 13 5 C8.02398374 6.71050559 4.57383705 5.00885647 0 3 C0 2.01 0 1.02 0 0 Z " fill="#900B05" transform="translate(39,68)" />
<path d="M0 0 C0.66 0 1.32 0 2 0 C2.99 3.3 3.98 6.6 5 10 C4.67 10.165 4.67 10.165 3 11 C3 9.35 3 7.7 3 6 C2.01 6 1.02 6 0 6 C-0.33 7.98 -0.66 9.96 -1 12 C-1.33 12 -1.66 12 -2 12 C-1 3.42857143 -1 3.42857143 0 0 Z " fill="#987337" transform="translate(64,50)" />
<path d="M0 0 C0.825 0.33 0.825 0.33 5 2 C4.34 4.64 3.68 7.28 3 10 C2.01 9.67 1.02 9.34 0 9 C0.33 7.02 0.66 5.04 1 3 C0.01 2.67 -0.98 2.34 -2 2 C-1.34 1.34 -0.68 0.68 0 0 Z " fill="#DFB46A" transform="translate(37,44)" />
<path d="M0 0 C0.33 0.66 0.66 1.32 1 2 C-3.06368679 2.77403558 -6.86425173 3.0984702 -11 3 C-11 2.34 -11 1.68 -11 1 C-7.23822458 -1.55800728 -4.30753844 -0.97529172 0 0 Z " fill="#E3BF74" transform="translate(44,35)" />
<path d="M0 0 C0.33 0 0.66 0 1 0 C1 1.65 1 3.3 1 5 C0.67 5.165 0.67 5.165 -1 6 C0.65 6.33 2.3 6.66 4 7 C2.35 8.32 0.7 9.64 -1 11 C-1.33 10.01 -1.66 9.02 -2 8 C-2.66 7.67 -3.32 7.34 -4 7 C-3.67 5.02 -3.34 3.04 -3 1 C-2.34 1.33 -1.68 1.66 -1 2 C-0.67 1.34 -0.34 0.68 0 0 Z " fill="#915C2C" transform="translate(60,56)" />
<path d="M0 0 C0.66 0 1.32 0 2 0 C2 1.98 2 3.96 2 6 C2.99 5.67 3.98 5.34 5 5 C4.34 6.32 3.68 7.64 3 9 C1.35 9 -0.3 9 -2 9 C-1.67 8.34 -1.34 7.68 -1 7 C-1 5.989375 -1 4.97875 -1 3.9375 C-1 1 -1 1 0 0 Z " fill="#804744" transform="translate(58,73)" />
<path d="M0 0 C5.75 -0.125 5.75 -0.125 8 1 C7.625 3.4375 7.625 3.4375 7 6 C6.67 6.165 6.67 6.165 5 7 C3 5 3 5 2 2 C1.34 1.34 0.68 0.68 0 0 Z " fill="#F06958" transform="translate(46,63)" />
<path d="M0 0 C-2.85276137 2.93200474 -5.65079784 5.64315404 -9 8 C-8.814375 7.38125 -8.62875 6.7625 -8.4375 6.125 C-8 4 -8 4 -9 2 C-5.5647952 -0.29013653 -4.014669 -0.17842973 0 0 Z " fill="#655435" transform="translate(27,48)" />
<path d="M0 0 C1.98 0 3.96 0 6 0 C6 1.65 6 3.3 6 5 C4.35 5 2.7 5 1 5 C0.67 3.35 0.34 1.7 0 0 Z " fill="#C4BAA7" transform="translate(47,22)" />
<path d="M0 0 C8.16964286 0.66964286 8.16964286 0.66964286 11 4 C9.54119891 3.85892253 8.08296449 3.71197585 6.625 3.5625 C6.21894531 3.52189453 6.21894531 3.52189453 4.1640625 3.31640625 C2 3 2 3 0 2 C0 1.34 0 0.68 0 0 Z " fill="#D14439" transform="translate(41,67)" />
<path d="M0 0 C0.66 0 1.32 0 2 0 C2 2.64 2 5.28 2 8 C-0.86724686 7.42655063 -1.8614515 7.1385485 -4 5 C-3.34 5 -2.68 5 -2 5 C-1.34 3.35 -0.68 1.7 0 0 Z " fill="#9E433E" transform="translate(54,66)" />
<path d="M0 0 C2.02045442 0.60183749 4.02111039 1.27306096 6 2 C6.33 2.66 6.66 3.32 7 4 C3.71303767 4.79953138 2.28976808 5.09658936 -1 4 C-0.67 2.68 -0.34 1.36 0 0 Z " fill="#F37D6D" transform="translate(38,73)" />
<path d="M0 0 C0.33 0 0.66 0 1 0 C1 3.3 1 6.6 1 10 C2.65 10.33 4.3 10.66 6 11 C2.23375329 12.25541557 0.62811066 11.37061958 -3 10 C-2.67 9.34 -2.34 8.68 -2 8 C-1.34 8 -0.68 8 0 8 C0 5.36 0 2.72 0 0 Z " fill="#A99463" transform="translate(51,28)" />
<path d="M0 0 C0.66 0 1.32 0 2 0 C2 1.98 2 3.96 2 6 C0.35 6 -1.3 6 -3 6 C-2.42655063 3.13275314 -2.1385485 2.1385485 0 0 Z " fill="#633A15" transform="translate(28,49)" />
<path d="M0 0 C1.32 0.33 2.64 0.66 4 1 C3.67 2.32 3.34 3.64 3 5 C1.02 5 -0.96 5 -3 5 C-2.01 3.35 -1.02 1.7 0 0 Z " fill="#662B29" transform="translate(52,80)" />
<path d="M0 0 C1.485 0.33 1.485 0.33 9 2 C9 2.66 9 3.32 9 4 C9.99 4.33 10.98 4.66 12 5 C7.91621717 4.25749403 3.98060777 3.17076699 0 2 C0 1.34 0 0.68 0 0 Z " fill="#DC5041" transform="translate(37,77)" />
<path d="M0 0 C0.33 0 0.66 0 1 0 C0.67 2.97 0.34 5.94 0 9 C-0.99 9 -1.98 9 -3 9 C-2.25 2.25 -2.25 2.25 0 0 Z " fill="#714D2C" transform="translate(22,54)" />
<path d="M0 0 C2.64 0 5.28 0 8 0 C8 0.66 8 1.32 8 2 C5.69 2.66 3.38 3.32 1 4 C0.67 2.68 0.34 1.36 0 0 Z " fill="#E8C07B" transform="translate(64,36)" />
<path d="M0 0 C1.32 0 2.64 0 4 0 C4 1.65 4 3.3 4 5 C2.68 5.33 1.36 5.66 0 6 C0 5.34 0 4.68 0 4 C-0.66 4 -1.32 4 -2 4 C-2 3.34 -2 2.68 -2 2 C-1.34 2 -0.68 2 0 2 C0 1.34 0 0.68 0 0 Z " fill="#D9B158" transform="translate(45,35)" />
<path d="M0 0 C0.33 0.66 0.66 1.32 1 2 C-0.62339805 3.70884005 -2.29319053 5.37446717 -4 7 C-4.66 7 -5.32 7 -6 7 C-5.8125 4.625 -5.8125 4.625 -5 2 C-2.4375 0.6875 -2.4375 0.6875 0 0 Z " fill="#766856" transform="translate(60,81)" />
<path d="M0 0 C2 2 2 2 2.125 4.625 C2.08375 5.40875 2.0425 6.1925 2 7 C1.34 7 0.68 7 0 7 C0 6.01 0 5.02 0 4 C-1.32 3.67 -2.64 3.34 -4 3 C-4 2.34 -4 1.68 -4 1 C-2.125 0.375 -2.125 0.375 0 0 Z " fill="#DBAA63" transform="translate(54,55)" />
<path d="M0 0 C3.3 0.99 6.6 1.98 10 3 C10 3.66 10 4.32 10 5 C8.51793505 4.745504 7.03931385 4.47088238 5.5625 4.1875 C4.73878906 4.03667969 3.91507813 3.88585938 3.06640625 3.73046875 C2.38449219 3.48941406 1.70257812 3.24835937 1 3 C0.67 2.01 0.34 1.02 0 0 Z " fill="#FA796B" transform="translate(24,57)" />
<path d="M0 0 C0.99 0.66 1.98 1.32 3 2 C2.25 6.75 2.25 6.75 0 9 C0 7.68 0 6.36 0 5 C-0.99 4.67 -1.98 4.34 -3 4 C-2.34 3.67 -1.68 3.34 -1 3 C-0.67 2.01 -0.34 1.02 0 0 Z " fill="#E5BD80" transform="translate(31,43)" />
<path d="M0 0 C3.3 0.99 6.6 1.98 10 3 C10 3.33 10 3.66 10 4 C7.03 4 4.06 4 1 4 C0.67 2.68 0.34 1.36 0 0 Z " fill="#9F6838" transform="translate(37,21)" />
<path d="M0 0 C0.99 0 1.98 0 3 0 C2.42655063 2.86724686 2.1385485 3.8614515 0 6 C0 5.34 0 4.68 0 4 C-1.65 4 -3.3 4 -5 4 C-5 3.34 -5 2.68 -5 2 C-3.35 2 -1.7 2 0 2 C0 1.34 0 0.68 0 0 Z " fill="#73090D" transform="translate(55,71)" />
<path d="M0 0 C0.825 0.165 0.825 0.165 5 1 C4.67 2.65 4.34 4.3 4 6 C3.67 5.34 3.34 4.68 3 4 C2.01 4 1.02 4 0 4 C0 2.68 0 1.36 0 0 Z " fill="#948667" transform="translate(33,68)" />
<path d="M0 0 C1.65 0 3.3 0 5 0 C4.67 1.32 4.34 2.64 4 4 C2.35 4 0.7 4 -1 4 C-0.67 2.68 -0.34 1.36 0 0 Z " fill="#958468" transform="translate(36,60)" />
<path d="M0 0 C0.66 0 1.32 0 2 0 C2 2.64 2 5.28 2 8 C1.01 7.67 0.02 7.34 -1 7 C-1.6875 4.9375 -1.6875 4.9375 -2 3 C-1.34 3 -0.68 3 0 3 C0 2.01 0 1.02 0 0 Z " fill="#F1C379" transform="translate(54,49)" />
<path d="M0 0 C0.825 0.165 0.825 0.165 5 1 C4.67 2.65 4.34 4.3 4 6 C2.68 5.67 1.36 5.34 0 5 C0 3.35 0 1.7 0 0 Z " fill="#987A5E" transform="translate(34,63)" />
<path d="M0 0 C0.66 1.32 1.32 2.64 2 4 C1.34 4 0.68 4 0 4 C0 4.99 0 5.98 0 7 C0.66 7.33 1.32 7.66 2 8 C1.34 8.33 1.34 8.33 -2 10 C-1.85950482 8.52031676 -1.71245174 7.04125484 -1.5625 5.5625 C-1.48128906 4.73878906 -1.40007813 3.91507812 -1.31640625 3.06640625 C-1 1 -1 1 0 0 Z " fill="#8E503F" transform="translate(39,64)" />
<path d="M0 0 C7.75 0.875 7.75 0.875 10 2 C10 2.66 10 3.32 10 4 C6.44219804 3.39009109 3.3171411 2.4216319 0 1 C0 0.67 0 0.34 0 0 Z " fill="#DD5349" transform="translate(23,60)" />
<path d="M0 0 C1.5 1.3125 1.5 1.3125 3 3 C3 3.99 3 4.98 3 6 C4.32 6.66 5.64 7.32 7 8 C5.02 8 3.04 8 1 8 C0.67 5.36 0.34 2.72 0 0 Z " fill="#4F3615" transform="translate(53,25)" />
<path d="M0 0 C0.33 0.66 0.66 1.32 1 2 C4.3 2 7.6 2 11 2 C10.67 2.99 10.34 3.98 10 5 C10 4.34 10 3.68 10 3 C7.03 3 4.06 3 1 3 C0.67 3.66 0.34 4.32 0 5 C-0.33 4.01 -0.66 3.02 -1 2 C-0.67 1.34 -0.34 0.68 0 0 Z " fill="#A0764A" transform="translate(54,21)" />
<path d="M0 0 C-0.33 0.99 -0.66 1.98 -1 3 C-3.31 2.67 -5.62 2.34 -8 2 C-4.77208445 -0.1519437 -3.71599191 -0.20086443 0 0 Z " fill="#8A6D53" transform="translate(37,74)" />
<path d="M0 0 C0.99 0.165 0.99 0.165 6 1 C6 1.66 6 2.32 6 3 C6.99 3 7.98 3 9 3 C9 3.66 9 4.32 9 5 C2.25 3.375 2.25 3.375 0 0 Z " fill="#C33930" transform="translate(20,71)" />
<path d="M0 0 C0.99 0 1.98 0 3 0 C3 1.65 3 3.3 3 5 C2.01 4.67 1.02 4.34 0 4 C0 4.99 0 5.98 0 7 C-0.66 6.67 -1.32 6.34 -2 6 C-1.34 4.02 -0.68 2.04 0 0 Z " fill="#321501" transform="translate(64,56)" />
<path d="M0 0 C0.66 0.33 1.32 0.66 2 1 C0.07423885 3.43929746 -1.80090595 5.80090595 -4 8 C-4.33 6.68 -4.66 5.36 -5 4 C-3.35 2.68 -1.7 1.36 0 0 Z " fill="#DFCAA4" transform="translate(27,48)" />
<path d="M0 0 C0.66 0 1.32 0 2 0 C2 2.64 2 5.28 2 8 C1.01 8 0.02 8 -1 8 C-0.67 5.36 -0.34 2.72 0 0 Z " fill="#5C1A16" transform="translate(60,71)" />
<path d="M0 0 C2.31 0 4.62 0 7 0 C4.82575883 2.50037734 3.26954202 3.43628586 0 4 C0 2.68 0 1.36 0 0 Z " fill="#AC8146" transform="translate(57,44)" />
<path d="M0 0 C0.99 0.33 1.98 0.66 3 1 C3 1.66 3 2.32 3 3 C3.99 2.67 4.98 2.34 6 2 C6 2.66 6 3.32 6 4 C3.69 4.33 1.38 4.66 -1 5 C-0.67 3.35 -0.34 1.7 0 0 Z " fill="#DFBC74" transform="translate(46,39)" />
</svg>