<?xml version='1.0' encoding='utf-8'?>
<svg xmlns="http://www.w3.org/2000/svg" version="1.1" width="100" height="100">
<path d="M0 0 C1.815 0.165 1.815 0.165 11 1 C10 8.42857143 10 8.42857143 9 12 C9.66 12 10.32 12 11 12 C13.80541099 16.20811648 12.85569482 18.09920241 12 23 C11.67 23.66 11.34 24.32 11 25 C10.34 25 9.68 25 9 25 C9 24.34 9 23.68 9 23 C8.01 22.67 7.02 22.34 6 22 C5.38125 23.093125 4.7625 24.18625 4.125 25.3125 C2.82100438 27.6162256 1.47225301 29.79162049 0 32 C-2.625 32.1875 -2.625 32.1875 -5 32 C-5 31.34 -5 30.68 -5 30 C-5.60328125 29.95101562 -6.2065625 29.90203125 -6.828125 29.8515625 C-7.62734375 29.77679688 -8.4265625 29.70203125 -9.25 29.625 C-10.03890625 29.55539063 -10.8278125 29.48578125 -11.640625 29.4140625 C-14.12085981 28.9787895 -15.85982375 28.31630309 -18 27 C-18.33 26.34 -18.66 25.68 -19 25 C-26.24970259 22.9459176 -33.49942607 22.4405283 -41 22 C-40.13375 21.01 -39.2675 20.02 -38.375 19 C-35.49699708 15.65824305 -32.86862487 12.18265506 -30.296875 8.6015625 C-29 7 -29 7 -27 6 C-25.29297265 5.93003986 -23.58331997 5.91559846 -21.875 5.9375 C-20.96492188 5.94652344 -20.05484375 5.95554687 -19.1171875 5.96484375 C-18.76785156 5.97064453 -18.76785156 5.97064453 -17 6 C-17 6.66 -17 7.32 -17 8 C-16.7215625 7.99419922 -16.7215625 7.99419922 -15.3125 7.96484375 C-10.10221657 7.90323567 -5.1562049 8.25000656 0 9 C0 6.03 0 3.06 0 0 Z " fill="#59AFEA" transform="translate(65,27)" />
<path d="M0 0 C3.01442178 0.03887647 5.9919794 0.14739812 9 0.3125 C9.82628906 0.34794922 10.65257812 0.38339844 11.50390625 0.41992188 C22.91407962 1.0181078 22.91407962 1.0181078 28 3 C28.33 3.495 28.33 3.495 30 6 C33.9386265 7.32560421 37.93694233 8.09229563 42 9 C41.67 16.59 41.34 24.18 41 32 C39.35 31.67 37.7 31.34 36 31 C36 29.35 36 27.7 36 26 C35.4121875 25.9690625 35.4121875 25.9690625 32.4375 25.8125 C26.53414428 25.17732881 21.12350405 23.1503193 15.5546875 21.2109375 C11.72686368 19.90695356 7.94159668 18.88484824 4 18 C4 18.99 4 19.98 4 21 C2.68 20.67 1.36 20.34 0 20 C-0.19594676 16.85463232 -0.3803401 13.70869386 -0.5625 10.5625 C-0.61857422 9.66466797 -0.67464844 8.76683594 -0.73242188 7.84179688 C-0.78076172 6.98779297 -0.82910156 6.13378906 -0.87890625 5.25390625 C-0.9260376 4.46314697 -0.97316895 3.6723877 -1.02172852 2.85766602 C-1 1 -1 1 0 0 Z " fill="#DB9D46" transform="translate(18,48)" />
<path d="M0 0 C0.93005859 -0.02900391 1.86011719 -0.05800781 2.81835938 -0.08789062 C9.2646145 -0.14678122 13.4352431 1.04095347 18.9375 4.3125 C20.59447379 5.00290574 22.25673769 5.68221413 23.9375 6.3125 C23.9375 7.9625 23.9375 9.6125 23.9375 11.3125 C22.9475 11.6425 21.9575 11.9725 20.9375 12.3125 C20.9375 11.6525 20.9375 10.9925 20.9375 10.3125 C19.865 10.333125 18.7925 10.35375 17.6875 10.375 C13.9375 10.3125 13.9375 10.3125 9.9375 9.3125 C9.9375 12.2825 9.9375 15.2525 9.9375 18.3125 C4.3275 17.9825 -1.2825 17.6525 -7.0625 17.3125 C-7.0625 16.6525 -7.0625 15.9925 -7.0625 15.3125 C-9.7025 15.3125 -12.3425 15.3125 -15.0625 15.3125 C-13.7425 14.9825 -12.4225 14.6525 -11.0625 14.3125 C-11.07410156 13.38566406 -11.08570313 12.45882813 -11.09765625 11.50390625 C-11.10667969 10.30636719 -11.11570313 9.10882813 -11.125 7.875 C-11.13660156 6.68003906 -11.14820313 5.48507813 -11.16015625 4.25390625 C-10.95622169 -1.88860257 -4.93834076 0.04988223 0 0 Z " fill="#9A7C2C" transform="translate(55.0625,17.6875)" />
<path d="M0 0 C1.815 0.165 1.815 0.165 11 1 C10 8.42857143 10 8.42857143 9 12 C9.66 12 10.32 12 11 12 C13.80541099 16.20811648 12.85569482 18.09920241 12 23 C11.67 23.66 11.34 24.32 11 25 C10.34 25 9.68 25 9 25 C9 24.34 9 23.68 9 23 C8.34 23 7.68 23 7 23 C6.75266113 22.36843994 6.50532227 21.73687988 6.25048828 21.08618164 C5 19 5 19 3.19091797 18.13452148 C2.46533691 17.96509033 1.73975586 17.79565918 0.9921875 17.62109375 C0.17717773 17.42346436 -0.63783203 17.22583496 -1.47753906 17.0222168 C-2.35120117 16.82926025 -3.22486328 16.63630371 -4.125 16.4375 C-5.01413086 16.22843018 -5.90326172 16.01936035 -6.81933594 15.80395508 C-14.83164377 13.95248552 -22.896348 12.39210782 -31 11 C-29.25 7.125 -29.25 7.125 -27 6 C-25.29297265 5.93003986 -23.58331997 5.91559846 -21.875 5.9375 C-20.96492188 5.94652344 -20.05484375 5.95554687 -19.1171875 5.96484375 C-18.41851562 5.97644531 -17.71984375 5.98804688 -17 6 C-17 6.66 -17 7.32 -17 8 C-16.7215625 7.99419922 -16.7215625 7.99419922 -15.3125 7.96484375 C-10.10221657 7.90323567 -5.1562049 8.25000656 0 9 C0 6.03 0 3.06 0 0 Z " fill="#EEECDF" transform="translate(65,27)" />
<path d="M0 0 C6.27 0 12.54 0 19 0 C19.33 0.99 19.66 1.98 20 3 C20.66 3.33 21.32 3.66 22 4 C20.02 4 18.04 4 16 4 C22.75 5.125 22.75 5.125 25 4 C27.6015625 4.77734375 27.6015625 4.77734375 30.625 5.9375 C31.62789062 6.31777344 32.63078125 6.69804688 33.6640625 7.08984375 C34.43492188 7.39019531 35.20578125 7.69054688 36 8 C35.34 8.33 34.68 8.66 34 9 C34 11.64 34 14.28 34 17 C27.47397582 16.54203339 21.41682604 15.16147108 15.14233398 13.37207031 C12.31778095 12.57436004 9.9534329 12 7 12 C7.33 12.66 7.66 13.32 8 14 C5.69 13.67 3.38 13.34 1 13 C1 13.99 1 14.98 1 16 C0.34 15.67 -0.32 15.34 -1 15 C-0.67 10.05 -0.34 5.1 0 0 Z " fill="#CA8B35" transform="translate(21,53)" />
<path d="M0 0 C1.68491394 0.57019954 3.37237778 1.13292865 5.0625 1.6875 C5.71875 1.90625 5.71875 1.90625 9 3 C9.24512715 21.65689944 9.24512715 21.65689944 8 28 C7.34 28.66 6.68 29.32 6 30 C5.855625 28.906875 5.71125 27.81375 5.5625 26.6875 C5 23 5 23 4 20 C3.34 20 2.68 20 2 20 C2.44963064 15.32384131 3.01337609 12.60883722 6 9 C6.6875 6.75 6.6875 6.75 7 5 C6.34 4.9175 5.68 4.835 5 4.75 C2.29707982 4.07426996 0.837497 3.3529246 -1.5 1.96875 C-6.61781019 -0.63936481 -11.36498923 -0.45208314 -17 -0.25 C-17.96550781 -0.23195313 -18.93101563 -0.21390625 -19.92578125 -0.1953125 C-22.28429037 -0.14860935 -24.6422817 -0.07688212 -27 0 C-27.33 4.29 -27.66 8.58 -28 13 C-29.19625 13.33 -30.3925 13.66 -31.625 14 C-36.09219878 15.65946997 -37.93488484 18.07235865 -40.5703125 21.92578125 C-42.77916356 25.13042582 -44.9970274 27.49752284 -48 30 C-49.98 30 -51.96 30 -54 30 C-54 36.27 -54 42.54 -54 49 C-52.68 49.33 -51.36 49.66 -50 50 C-50 49.01 -50 48.02 -50 47 C-45.28596212 47.47939368 -41.33420699 47.96834048 -37 50 C-37 50.33 -37 50.66 -37 51 C-42.61 51 -48.22 51 -54 51 C-55.98931258 46.02671856 -56.47579378 42.5268409 -56.75 37.3125 C-56.80542969 36.54099609 -56.86085938 35.76949219 -56.91796875 34.97460938 C-57.0325853 32.98618583 -57.02497263 30.9915676 -57 29 C-56.34 28.34 -55.68 27.68 -55 27 C-53.9275 27.0825 -52.855 27.165 -51.75 27.25 C-47.22368055 26.94824537 -46.16992339 25.90476237 -43.26953125 22.65234375 C-42 21 -42 21 -40.4375 18.375 C-38.66296707 15.44316299 -36.87838052 13.85038748 -34 12 C-31.3359375 11.89453125 -31.3359375 11.89453125 -29 12 C-29.01160156 11.07316406 -29.02320312 10.14632813 -29.03515625 9.19140625 C-29.04417969 7.99386719 -29.05320312 6.79632813 -29.0625 5.5625 C-29.07410156 4.36753906 -29.08570312 3.17257813 -29.09765625 1.94140625 C-29 -1 -29 -1 -28 -2 C-17.90984309 -3.44145099 -9.57592105 -3.69071957 0 0 Z " fill="#4E3B15" transform="translate(72,19)" />
<path d="M0 0 C0.33 0.99 0.66 1.98 1 3 C1.66 3 2.32 3 3 3 C3 3.66 3 4.32 3 5 C3.66 5 4.32 5 5 5 C5.33 3.35 5.66 1.7 6 0 C6.33 0 6.66 0 7 0 C7.22692276 3.32820054 7.32162419 5.41801336 5.6875 8.375 C4 10 4 10 1 10 C0.95294922 10.35964844 0.95294922 10.35964844 0.71484375 12.1796875 C-0.11455905 15.45197613 -1.4435256 17.41385809 -3.4375 20.125 C-4.05496094 20.97320312 -4.67242187 21.82140625 -5.30859375 22.6953125 C-5.86675781 23.45585938 -6.42492187 24.21640625 -7 25 C-8.99097846 27.98646769 -9.94124926 30.59687262 -11 34 C-12.98 34 -14.96 34 -17 34 C-17.33 32.35 -17.66 30.7 -18 29 C-18.94875 28.87625 -19.8975 28.7525 -20.875 28.625 C-24 28 -24 28 -26 26 C-23.03 26.33 -20.06 26.66 -17 27 C-16.67 28.65 -16.34 30.3 -16 32 C-14.68 32.33 -13.36 32.66 -12 33 C-12.00523682 32.43490723 -12.01047363 31.86981445 -12.01586914 31.28759766 C-12.03662422 28.7334097 -12.0496554 26.17923947 -12.0625 23.625 C-12.07087891 22.73554687 -12.07925781 21.84609375 -12.08789062 20.9296875 C-12.09111328 20.07890625 -12.09433594 19.228125 -12.09765625 18.3515625 C-12.10289307 17.56604004 -12.10812988 16.78051758 -12.11352539 15.97119141 C-12 14 -12 14 -11 12 C-9.35 12 -7.7 12 -6 12 C-5.85691406 11.71382812 -5.85691406 11.71382812 -5.1328125 10.265625 C-3.421875 6.84375 -1.7109375 3.421875 0 0 Z " fill="#1A3E4B" transform="translate(71,47)" />
<path d="M0 0 C1.20217503 2.40435006 1.03897118 3.68381369 0.87890625 6.3515625 C0.83056641 7.20234375 0.78222656 8.053125 0.73242188 8.9296875 C0.67634766 9.81914063 0.62027344 10.70859375 0.5625 11.625 C0.53639648 12.07359375 0.53639648 12.07359375 0.40429688 14.34375 C0.2744565 16.56284012 0.13948661 18.78149871 0 21 C-1.65 20.67 -3.3 20.34 -5 20 C-5 18.35 -5 16.7 -5 15 C-6.175625 14.938125 -7.35125 14.87625 -8.5625 14.8125 C-13.14154991 14.31018769 -17.3933578 13.07153095 -21.75 11.625 C-22.38752197 11.41593018 -23.02504395 11.20686035 -23.68188477 10.99145508 C-28.41157684 9.36866113 -32.44376434 7.55623566 -36 4 C-30.05377246 4.59597725 -24.59925087 5.81071855 -18.875 7.5 C-13.93068914 8.94449816 -9.1152494 10.28092341 -4 11 C-4 7.7 -4 4.4 -4 1 C-2.68 0.67 -1.36 0.34 0 0 Z " fill="#CB8F38" transform="translate(59,59)" />
<path d="M0 0 C0.55751953 0.04382812 0.55751953 0.04382812 3.37890625 0.265625 C6.17952493 0.70914571 8.02551323 1.31106412 10.4375 2.75 C9.4475 2.75 8.4575 2.75 7.4375 2.75 C8.82945915 5.5339183 10.59325779 5.72898997 13.4375 6.75 C13.1075 6.915 13.1075 6.915 11.4375 7.75 C10.8125 9.8125 10.8125 9.8125 10.4375 11.75 C8.95738629 11.44201674 7.47842675 11.128482 6 10.8125 C5.17628906 10.63847656 4.35257813 10.46445312 3.50390625 10.28515625 C1.4375 9.75 1.4375 9.75 0.4375 8.75 C-1.91237262 8.51472227 -4.26806039 8.33613583 -6.625 8.1875 C-7.91535156 8.10371094 -9.20570312 8.01992188 -10.53515625 7.93359375 C-11.53417969 7.87300781 -12.53320312 7.81242187 -13.5625 7.75 C-12.22757263 2.16757647 -12.22757263 2.16757647 -9.34765625 0.359375 C-6.0655324 -0.35873344 -3.34578271 -0.29464599 0 0 Z " fill="#5BB1E7" transform="translate(41.5625,40.25)" />
<path d="M0 0 C3.33422438 -0.10872471 6.66484659 -0.18766068 10 -0.25 C10.93457031 -0.28351562 11.86914062 -0.31703125 12.83203125 -0.3515625 C19.31322633 -0.44220859 23.47053893 0.70058101 29 4 C30.65697379 4.69040574 32.31923769 5.36971413 34 6 C34 7.65 34 9.3 34 11 C31.53929884 10.38332793 29.08173479 9.75711607 26.625 9.125 C25.92632812 8.95097656 25.22765625 8.77695312 24.5078125 8.59765625 C19.2265625 7.2265625 19.2265625 7.2265625 17 5 C18.65 5 20.3 5 22 5 C18.60231132 3.96841259 15.47860037 3.86622404 11.9375 3.875 C11.41607422 3.87371094 11.41607422 3.87371094 8.77734375 3.8671875 C6 4 6 4 3 5 C6.63 5.33 10.26 5.66 14 6 C14 6.66 14 7.32 14 8 C10.7 8 7.4 8 4 8 C4 8.66 4 9.32 4 10 C2.68 10 1.36 10 0 10 C0 6.7 0 3.4 0 0 Z " fill="#DFAB5D" transform="translate(45,18)" />
<path d="M0 0 C12.32142857 -0.26785714 12.32142857 -0.26785714 16 2 C15.2575 2.12375 14.515 2.2475 13.75 2.375 C11.18924619 2.9569895 9.31185302 3.80421396 7 5 C6.34 5 5.68 5 5 5 C5 4.34 5 3.68 5 3 C4.34 2.67 3.68 2.34 3 2 C2.67 1.67 2.34 1.34 2 1 C2 2.65 2 4.3 2 6 C2.53625 6.04898438 3.0725 6.09796875 3.625 6.1484375 C6.41869262 6.41494107 9.20923039 6.70431131 12 7 C12.66386719 7.06977051 13.32773437 7.13954102 14.01171875 7.21142578 C16.17571147 7.44349331 18.33782574 7.68910273 20.5 7.9375 C21.20640625 8.01210449 21.9128125 8.08670898 22.640625 8.16357422 C27.77135717 8.77135717 27.77135717 8.77135717 30 11 C25.71 11 21.42 11 17 11 C17 11.66 17 12.32 17 13 C15.906875 12.835 14.81375 12.67 13.6875 12.5 C10 12 10 12 7 12 C7.33 12.66 7.66 13.32 8 14 C5.69 13.67 3.38 13.34 1 13 C1 13.99 1 14.98 1 16 C0.34 15.67 -0.32 15.34 -1 15 C-0.67 10.05 -0.34 5.1 0 0 Z " fill="#C5842D" transform="translate(21,53)" />
<path d="M0 0 C0.33 0.66 0.66 1.32 1 2 C1.4640625 1.97615234 1.4640625 1.97615234 3.8125 1.85546875 C9.02368968 1.85940073 13.95080707 3.12824709 19 4.3125 C19.9590625 4.52583984 20.918125 4.73917969 21.90625 4.95898438 C27.24429966 6.18717575 32.01750188 7.74064912 37 10 C37.66 10 38.32 10 39 10 C39.66 9.01 40.32 8.02 41 7 C41.165 7.165 41.165 7.165 42 8 C41.29411765 15.41176471 41.29411765 15.41176471 40 18 C39.34 18 38.68 18 38 18 C38 17.34 38 16.68 38 16 C37.34 16 36.68 16 36 16 C35.87633057 15.68421997 35.87633057 15.68421997 35.25048828 14.08618164 C34 12 34 12 32.19091797 11.13452148 C31.46533691 10.96509033 30.73975586 10.79565918 29.9921875 10.62109375 C29.17717773 10.42346436 28.36216797 10.22583496 27.52246094 10.0222168 C26.64879883 9.82926025 25.77513672 9.63630371 24.875 9.4375 C23.98586914 9.22843018 23.09673828 9.01936035 22.18066406 8.80395508 C14.16835623 6.95248552 6.103652 5.39210782 -2 4 C-1.34 2.68 -0.68 1.36 0 0 Z " fill="#97D1AB" transform="translate(36,34)" />
<path d="M0 0 C14.42371964 -0.7292892 14.42371964 -0.7292892 20.25390625 3.02734375 C22.44585799 4.24836385 24.53795473 4.60018068 27 5 C27.24512715 23.65689944 27.24512715 23.65689944 26 30 C25.34 30.66 24.68 31.32 24 32 C23.855625 30.906875 23.71125 29.81375 23.5625 28.6875 C23 25 23 25 22 22 C21.34 22 20.68 22 20 22 C20.44963064 17.32384131 21.01337609 14.60883722 24 11 C24.6875 8.75 24.6875 8.75 25 7 C24.34 6.9175 23.68 6.835 23 6.75 C20.31932087 6.07983022 18.77863837 5.34896491 16.4375 4 C11.23321384 1.24302691 5.78926865 1.19297562 0 1 C0 0.67 0 0.34 0 0 Z " fill="#5C3C0F" transform="translate(54,17)" />
<path d="M0 0 C3.63 0.33 7.26 0.66 11 1 C10.49547781 4.74787912 9.91840767 8.32636934 9 12 C4.71 11.34 0.42 10.68 -4 10 C-2.68 9.67 -1.36 9.34 0 9 C0 6.03 0 3.06 0 0 Z " fill="#5BB2D5" transform="translate(65,27)" />
<path d="M0 0 C2.97983024 0.11519181 5.95845792 0.24190802 8.9375 0.375 C9.76830078 0.4059375 10.59910156 0.436875 11.45507812 0.46875 C22.89745953 1.00302462 22.89745953 1.00302462 28 3 C28.33 3.495 28.33 3.495 30 6 C32.8203125 6.94921875 32.8203125 6.94921875 36.125 7.6875 C37.22070312 7.93886719 38.31640625 8.19023438 39.4453125 8.44921875 C40.28835937 8.63097656 41.13140625 8.81273437 42 9 C41.67 9.99 41.34 10.98 41 12 C35.94744036 11.36843005 31.70406799 9.86540627 27 8 C27 7.34 27 6.68 27 6 C17.70030388 4.34437228 8.37579682 3.11843262 -1 2 C-0.67 1.34 -0.34 0.68 0 0 Z " fill="#D2B77D" transform="translate(18,48)" />
<path d="M0 0 C3.917666 0.76580826 7.8339254 1.53859851 11.75 2.3125 C12.29591797 2.41916992 12.29591797 2.41916992 15.05859375 2.95898438 C22.43406828 4.42098672 29.72335264 6.10678815 37 8 C37.165 8.66 37.165 8.66 38 12 C37.34 11.34 36.68 10.68 36 10 C31.66162941 8.98388469 27.58273937 8.91402206 23.1875 9.5625 C20 10 20 10 17.625 9.25 C16 8 16 8 15 5 C12.9174133 4.80438131 10.83388144 4.61880687 8.75 4.4375 C7.58984375 4.33308594 6.4296875 4.22867188 5.234375 4.12109375 C2.48128523 4.01801913 0.580018 4.13786527 -2 5 C-1.34 3.35 -0.68 1.7 0 0 Z " fill="#44A3C7" transform="translate(33,37)" />
<path d="M0 0 C2.02456848 1.29572383 4.02678947 2.6273318 6 4 C8.375 4.75 8.375 4.75 10 5 C10 6.65 10 8.3 10 10 C7.53929884 9.38332793 5.08173479 8.75711607 2.625 8.125 C1.92632812 7.95097656 1.22765625 7.77695312 0.5078125 7.59765625 C-4.7734375 6.2265625 -4.7734375 6.2265625 -7 4 C-5.35 4 -3.7 4 -2 4 C-3.98 3.34 -5.96 2.68 -8 2 C-8 1.34 -8 0.68 -8 0 C-5.01770098 -1.49114951 -3.20107966 -0.80026992 0 0 Z " fill="#D7A358" transform="translate(69,19)" />
<path d="M0 0 C0.33 0.66 0.66 1.32 1 2 C0.67 2.66 0.34 3.32 0 4 C0.9178125 3.96519531 1.835625 3.93039063 2.78125 3.89453125 C9.91073927 3.7372631 15.60894146 3.68156576 22 7 C22.33 7.495 22.33 7.495 24 10 C26.3828125 10.73046875 26.3828125 10.73046875 29.125 11.1875 C30.03507812 11.34605469 30.94515625 11.50460938 31.8828125 11.66796875 C32.58148438 11.77753906 33.28015625 11.88710938 34 12 C34.165 12.495 34.165 12.495 35 15 C34.01 15 33.02 15 32 15 C32 14.34 32 13.68 32 13 C31.39671875 12.95101562 30.7934375 12.90203125 30.171875 12.8515625 C29.37265625 12.77679688 28.5734375 12.70203125 27.75 12.625 C27.35554688 12.59019531 27.35554688 12.59019531 25.359375 12.4140625 C22.87914019 11.9787895 21.14017625 11.31630309 19 10 C18.67 9.34 18.34 8.68 18 8 C10.75029741 5.9459176 3.50057393 5.4405283 -4 5 C-2.68 3.35 -1.36 1.7 0 0 Z " fill="#67A4C0" transform="translate(28,44)" />
<path d="M0 0 C3.63 0 7.26 0 11 0 C12 4 12 4 11 7 C7.37 6.67 3.74 6.34 0 6 C0 4.02 0 2.04 0 0 Z " fill="#E87361" transform="translate(50,27)" />
<path d="M0 0 C7.875 1.125 7.875 1.125 11 3 C8.69 3 6.38 3 4 3 C4 7.95 4 12.9 4 18 C3.01 18 2.02 18 1 18 C0.67 12.06 0.34 6.12 0 0 Z " fill="#C28C36" transform="translate(17,50)" />
<path d="M0 0 C5.4389165 -0.21755666 9.87080814 -0.10428384 15 2 C14.67 4.31 14.34 6.62 14 9 C12.58280758 8.37619308 11.1662694 7.7508997 9.75 7.125 C8.96109375 6.77695312 8.1721875 6.42890625 7.359375 6.0703125 C6.58078125 5.71710937 5.8021875 5.36390625 5 5 C4.26265625 4.68804687 3.5253125 4.37609375 2.765625 4.0546875 C1 3 1 3 0 0 Z " fill="#E8F5E6" transform="translate(61,37)" />
<path d="M0 0 C0.33 0 0.66 0 1 0 C0.75581643 7.56969064 -1.27516597 12.99682891 -6 19 C-6.66 19 -7.32 19 -8 19 C-8 16.03 -8 13.06 -8 10 C-7.01 10 -6.02 10 -5 10 C-4.731875 9.46375 -4.46375 8.9275 -4.1875 8.375 C-2.79166667 5.58333333 -1.39583333 2.79166667 0 0 Z " fill="#054F95" transform="translate(70,49)" />
<path d="M0 0 C0.52851562 0.31324219 1.05703125 0.62648437 1.6015625 0.94921875 C0.6115625 0.94921875 -0.3784375 0.94921875 -1.3984375 0.94921875 C-1.3984375 1.60921875 -1.3984375 2.26921875 -1.3984375 2.94921875 C-5.6884375 2.61921875 -9.9784375 2.28921875 -14.3984375 1.94921875 C-14.3984375 1.28921875 -14.3984375 0.62921875 -14.3984375 -0.05078125 C-15.0584375 -0.05078125 -15.7184375 -0.05078125 -16.3984375 -0.05078125 C-16.7284375 0.60921875 -17.0584375 1.26921875 -17.3984375 1.94921875 C-18.7184375 1.61921875 -20.0384375 1.28921875 -21.3984375 0.94921875 C-15.31535475 -3.39584036 -6.72857622 -2.94786157 0 0 Z " fill="#52A7E4" transform="translate(50.3984375,42.05078125)" />
<path d="M0 0 C0.33 0 0.66 0 1 0 C1 2.97 1 5.94 1 9 C2.32 9 3.64 9 5 9 C5 8.34 5 7.68 5 7 C6.98 7 8.96 7 11 7 C11 7.33 11 7.66 11 8 C9.35 8 7.7 8 6 8 C5.875 10.875 5.875 10.875 6 14 C6.66 14.66 7.32 15.32 8 16 C6.68 16 5.36 16 4 16 C4 15.34 4 14.68 4 14 C1.36 14 -1.28 14 -4 14 C-2.68 13.67 -1.36 13.34 0 13 C0 8.71 0 4.42 0 0 Z " fill="#879251" transform="translate(44,19)" />
<path d="M0 0 C6.7394507 0.63382929 12.99550621 2.22297453 19.5 4.0625 C20.51320313 4.34416016 21.52640625 4.62582031 22.5703125 4.91601562 C25.04832734 5.60565183 27.52478 6.30041189 30 7 C30 7.99 30 8.98 30 10 C29.42032471 9.823479 28.84064941 9.64695801 28.2434082 9.46508789 C25.60050726 8.66178337 22.95652082 7.86211045 20.3125 7.0625 C19.40048828 6.78470703 18.48847656 6.50691406 17.54882812 6.22070312 C16.66259766 5.95322266 15.77636719 5.68574219 14.86328125 5.41015625 C14.05157471 5.16402588 13.23986816 4.91789551 12.40356445 4.66430664 C10 4 10 4 7.37182617 3.47827148 C4.75085829 2.94976134 2.45289555 2.05124095 0 1 C0 0.67 0 0.34 0 0 Z " fill="#ECB157" transform="translate(23,63)" />
<path d="M0 0 C0 4.0333534 -1.60879918 5.83517538 -4 9 C-4.66 9 -5.32 9 -6 9 C-6.33 8.34 -6.66 7.68 -7 7 C-9.28515625 6.3671875 -9.28515625 6.3671875 -12.0625 5.875 C-12.98160156 5.70742188 -13.90070312 5.53984375 -14.84765625 5.3671875 C-15.55792969 5.24601562 -16.26820312 5.12484375 -17 5 C-17 3.68 -17 2.36 -17 1 C-11.25 1.875 -11.25 1.875 -9 3 C-9 3.66 -9 4.32 -9 5 C-3.46153846 4.50769231 -3.46153846 4.50769231 -1.125 1.9375 C-0.75375 1.298125 -0.3825 0.65875 0 0 Z " fill="#4799CB" transform="translate(69,50)" />
<path d="M0 0 C0.33 0 0.66 0 1 0 C1.06058594 0.84304687 1.12117188 1.68609375 1.18359375 2.5546875 C1.26738281 3.65039062 1.35117187 4.74609375 1.4375 5.875 C1.51871094 6.96554688 1.59992187 8.05609375 1.68359375 9.1796875 C2 12 2 12 3 14 C2.39421747 16.01927511 1.73080266 18.02253397 1 20 C-0.98 20 -2.96 20 -5 20 C-5.33 18.35 -5.66 16.7 -6 15 C-6.94875 14.87625 -7.8975 14.7525 -8.875 14.625 C-12 14 -12 14 -14 12 C-11.03 12.33 -8.06 12.66 -5 13 C-4.67 14.65 -4.34 16.3 -4 18 C-2.68 18.33 -1.36 18.66 0 19 C0 12.73 0 6.46 0 0 Z " fill="#5C4013" transform="translate(59,61)" />
<path d="M0 0 C0.39960937 0.05091797 0.39960937 0.05091797 2.421875 0.30859375 C3.02515625 0.39238281 3.6284375 0.47617187 4.25 0.5625 C4.90234375 2.390625 4.90234375 2.390625 5.25 4.5625 C2.8125 7.3125 2.8125 7.3125 0.25 9.5625 C-0.08 8.2425 -0.41 6.9225 -0.75 5.5625 C-0.09 5.5625 0.57 5.5625 1.25 5.5625 C0.1875 4.0625 0.1875 4.0625 -1.75 2.5625 C-5.4375 2.375 -5.4375 2.375 -8.75 2.5625 C-8.75 1.9025 -8.75 1.2425 -8.75 0.5625 C-5.62819599 -0.40411363 -3.22916205 -0.42738909 0 0 Z " fill="#51ACE6" transform="translate(64.75,45.4375)" />
<path d="M0 0 C1.91635217 -0.05423638 3.83314925 -0.09289963 5.75 -0.125 C6.28367187 -0.13660156 6.28367187 -0.13660156 8.984375 -0.1953125 C11.92470106 -0.00487687 13.52361878 0.47329896 16 2 C15.2575 2.12375 14.515 2.2475 13.75 2.375 C11.18924619 2.9569895 9.31185302 3.80421396 7 5 C6.34 5 5.68 5 5 5 C5 4.34 5 3.68 5 3 C4.34 2.67 3.68 2.34 3 2 C2.67 1.67 2.34 1.34 2 1 C2 3.64 2 6.28 2 9 C1.34 9 0.68 9 0 9 C0 6.03 0 3.06 0 0 Z " fill="#A86517" transform="translate(21,53)" />
<path d="M0 0 C0.66 0.33 1.32 0.66 2 1 C2 5.29 2 9.58 2 14 C1.01 13.67 0.02 13.34 -1 13 C-1 12.34 -1 11.68 -1 11 C-1.66 11 -2.32 11 -3 11 C-2.53199289 6.94393835 -2.12046792 3.53411321 0 0 Z " fill="#645238" transform="translate(77,28)" />
<path d="M0 0 C0.66 0 1.32 0 2 0 C2 2.97 2 5.94 2 9 C3.32 8.01 4.64 7.02 6 6 C6.33 6.99 6.66 7.98 7 9 C5.0625 12.1875 5.0625 12.1875 3 15 C2.01 14.67 1.02 14.34 0 14 C0 9.38 0 4.76 0 0 Z " fill="#2D4043" transform="translate(60,59)" />
<path d="M0 0 C7.78593716 1.61088355 15.37428218 3.76543688 23 6 C23 6.66 23 7.32 23 8 C14.89654389 7.50387003 7.59474067 4.679915 0 2 C0 1.34 0 0.68 0 0 Z " fill="#BD8E40" transform="translate(30,66)" />
<path d="M0 0 C0.66 0 1.32 0 2 0 C2 2.64 2 5.28 2 8 C-3.78898419 8.20674944 -8.42932723 7.59162079 -14 6 C-14 5.67 -14 5.34 -14 5 C-10.04 5.33 -6.08 5.66 -2 6 C-2 5.01 -2 4.02 -2 3 C-1.34 3 -0.68 3 0 3 C0 2.01 0 1.02 0 0 Z " fill="#AD4D43" transform="translate(63,28)" />
<path d="M0 0 C0.33 1.32 0.66 2.64 1 4 C5.29 4.33 9.58 4.66 14 5 C14 5.66 14 6.32 14 7 C10.7 7 7.4 7 4 7 C4 7.66 4 8.32 4 9 C2.68 9 1.36 9 0 9 C0 6.03 0 3.06 0 0 Z " fill="#B2CB79" transform="translate(45,19)" />
<path d="M0 0 C0.39537964 0.02356567 0.39537964 0.02356567 2.39624023 0.14282227 C2.82324219 0.16699219 2.82324219 0.16699219 4.98413086 0.28930664 C5.88196289 0.34538086 6.77979492 0.40145508 7.70483398 0.45922852 C8.6065332 0.51143555 9.50823242 0.56364258 10.43725586 0.61743164 C12.67259948 0.74753101 14.90754288 0.88250788 17.14233398 1.02172852 C17.14233398 1.68172852 17.14233398 2.34172852 17.14233398 3.02172852 C18.13233398 3.35172852 19.12233398 3.68172852 20.14233398 4.02172852 C17.05828591 3.91151994 13.97542207 3.78097038 10.89233398 3.64672852 C10.45598633 3.63125977 10.45598633 3.63125977 8.24780273 3.55297852 C7.82563477 3.53364258 7.82563477 3.53364258 5.68920898 3.43579102 C4.91416016 3.40437012 4.13911133 3.37294922 3.34057617 3.34057617 C0.93367657 2.99146346 -0.75368897 2.21621748 -2.85766602 1.02172852 C-1.85766602 0.02172852 -1.85766602 0.02172852 0 0 Z " fill="#E0C07D" transform="translate(19.857666015625,47.978271484375)" />
<path d="M0 0 C8.25 1.65 16.5 3.3 25 5 C25 5.33 25 5.66 25 6 C24.42894531 5.93941406 23.85789062 5.87882812 23.26953125 5.81640625 C18.22524161 5.29513625 13.17705309 4.81455716 8.125 4.375 C7.59003906 4.32730469 7.59003906 4.32730469 4.8828125 4.0859375 C2.30398547 4.0090619 0.43417641 4.21212647 -2 5 C-1.34 3.35 -0.68 1.7 0 0 Z " fill="#59A2AD" transform="translate(33,37)" />
<path d="M0 0 C1.60031344 3.20062687 0.03173691 5.72271806 -1 9 C-5.29 8.34 -9.58 7.68 -14 7 C-12.68 6.67 -11.36 6.34 -10 6 C-10 5.34 -10 4.68 -10 4 C-7.36 4.66 -4.72 5.32 -2 6 C-2 4.68 -2 3.36 -2 2 C-2.66 1.67 -3.32 1.34 -4 1 C-2.68 0.67 -1.36 0.34 0 0 Z " fill="#699DB5" transform="translate(75,30)" />
<path d="M0 0 C1.65 0 3.3 0 5 0 C4.625 1.9375 4.625 1.9375 4 4 C3.67 4.165 3.67 4.165 2 5 C3.32 5.66 4.64 6.32 6 7 C2.86650268 8.04449911 2.01031744 7.93423645 -1 7 C-1 7.99 -1 8.98 -1 10 C-1.66 9.67 -2.32 9.34 -3 9 C-2.67 7.02 -2.34 5.04 -2 3 C-1.34 3 -0.68 3 0 3 C0 2.01 0 1.02 0 0 Z " fill="#BE8235" transform="translate(23,59)" />
<path d="M0 0 C3.2578125 0.4609375 3.2578125 0.4609375 7.125 1.375 C8.40632813 1.67148437 9.68765625 1.96796875 11.0078125 2.2734375 C11.50152344 2.39332031 11.50152344 2.39332031 14 3 C13.67 3.99 13.34 4.98 13 6 C13 5.34 13 4.68 13 4 C8.71 4 4.42 4 0 4 C-0.33 4.99 -0.66 5.98 -1 7 C-1.625 4.625 -1.625 4.625 -2 2 C-1.34 1.34 -0.68 0.68 0 0 Z " fill="#968875" transform="translate(63,24)" />
<path d="M0 0 C0.33 0 0.66 0 1 0 C1.22692276 3.32820054 1.32162419 5.41801336 -0.3125 8.375 C-2 10 -2 10 -5 10 C-5 7.69 -5 5.38 -5 3 C-4.34 3 -3.68 3 -3 3 C-3 3.66 -3 4.32 -3 5 C-2.34 5 -1.68 5 -1 5 C-0.67 3.35 -0.34 1.7 0 0 Z " fill="#36452F" transform="translate(77,47)" />
<path d="M0 0 C0.66 0.33 1.32 0.66 2 1 C1.855625 2.27875 1.71125 3.5575 1.5625 4.875 C1.48128906 5.59429687 1.40007812 6.31359375 1.31640625 7.0546875 C1 9 1 9 0 11 C-0.66 11 -1.32 11 -2 11 C-2 10.34 -2 9.68 -2 9 C-2.66 8.67 -3.32 8.34 -4 8 C-3.67 7.01 -3.34 6.02 -3 5 C-2.34 5 -1.68 5 -1 5 C-0.67 3.35 -0.34 1.7 0 0 Z " fill="#80AC9D" transform="translate(76,41)" />
<path d="M0 0 C3.63 0.33 7.26 0.66 11 1 C10.67 1.99 10.34 2.98 10 4 C8.88625 3.979375 7.7725 3.95875 6.625 3.9375 C3 4 3 4 1 5 C0.67 3.35 0.34 1.7 0 0 Z " fill="#8FCDE2" transform="translate(65,27)" />
<path d="M0 0 C0.33 0.66 0.66 1.32 1 2 C1.515625 1.979375 1.515625 1.979375 4.125 1.875 C7.86829627 1.99575149 10.53734547 2.64872018 14 4 C8.99691568 5.66769477 3.00308432 5.66769477 -2 4 C-1.34 2.68 -0.68 1.36 0 0 Z " fill="#9CCA9A" transform="translate(36,34)" />
<path d="M0 0 C2.31 0.165 2.31 0.165 14 1 C14 1.33 14 1.66 14 2 C12.41913952 2.36504603 10.83516093 2.71660506 9.25 3.0625 C8.36828125 3.25972656 7.4865625 3.45695312 6.578125 3.66015625 C4.01320972 3.99825872 2.42908361 3.81158635 0 3 C0 2.01 0 1.02 0 0 Z " fill="#CD8A3B" transform="translate(37,63)" />
<path d="M0 0 C3.3 0 6.6 0 10 0 C10 0.99 10 1.98 10 3 C2.25 3.125 2.25 3.125 0 2 C0 1.34 0 0.68 0 0 Z " fill="#EC9D86" transform="translate(51,27)" />
<path d="M0 0 C2.31 0.66 4.62 1.32 7 2 C7 2.66 7 3.32 7 4 C4.70774565 3.88628503 2.41617612 3.75869036 0.125 3.625 C-1.15117188 3.55539063 -2.42734375 3.48578125 -3.7421875 3.4140625 C-7 3 -7 3 -9 1 C-6.03 1 -3.06 1 0 1 C0 0.67 0 0.34 0 0 Z " fill="#C58329" transform="translate(44,57)" />
<path d="M0 0 C0.71542969 0.14308594 1.43085937 0.28617188 2.16796875 0.43359375 C2.63525391 0.52705078 2.63525391 0.52705078 5 1 C6.33138021 1.26627604 6.33138021 1.26627604 12.98828125 2.59765625 C13.32021484 2.66404297 13.32021484 2.66404297 15 3 C15.33 3.99 15.66 4.98 16 6 C15.01 6 14.02 6 13 6 C13 5.34 13 4.68 13 4 C12.39671875 3.95101562 11.7934375 3.90203125 11.171875 3.8515625 C10.37265625 3.77679688 9.5734375 3.70203125 8.75 3.625 C7.96109375 3.55539063 7.1721875 3.48578125 6.359375 3.4140625 C3.914123 2.98492887 2.15163097 2.21399362 0 1 C0 0.67 0 0.34 0 0 Z " fill="#799A95" transform="translate(47,53)" />
<path d="M0 0 C2.31 0.66 4.62 1.32 7 2 C7 3.65 7 5.3 7 7 C4.36 5.68 1.72 4.36 -1 3 C-0.67 2.01 -0.34 1.02 0 0 Z " fill="#E5B771" transform="translate(72,22)" />
<path d="M0 0 C1.32 0.33 2.64 0.66 4 1 C3.34 3.97 2.68 6.94 2 10 C-0.4294516 6.3558226 -0.16179575 4.28758728 0 0 Z " fill="#CF994B" transform="translate(17,50)" />
<path d="M0 0 C1.485 0.33 1.485 0.33 9 2 C9 3.65 9 5.3 9 7 C7 7 7 7 5.5 5.5625 C5.005 5.046875 4.51 4.53125 4 4 C3.34 3.67 2.68 3.34 2 3 C2 2.34 2 1.68 2 1 C1.34 0.67 0.68 0.34 0 0 Z " fill="#CEE1DF" transform="translate(67,37)" />
<path d="M0 0 C0.33 0 0.66 0 1 0 C1 3.3 1 6.6 1 10 C-0.65 9.67 -2.3 9.34 -4 9 C-3.67 7.68 -3.34 6.36 -3 5 C-2.67 5.66 -2.34 6.32 -2 7 C-1.34 4.69 -0.68 2.38 0 0 Z " fill="#AB782E" transform="translate(58,70)" />
<path d="M0 0 C0.99 0 1.98 0 3 0 C3 2.64 3 5.28 3 8 C2.01 8.33 1.02 8.66 0 9 C0 6.03 0 3.06 0 0 Z " fill="#E19D38" transform="translate(55,60)" />
<path d="M0 0 C-0.33 1.32 -0.66 2.64 -1 4 C-2.65 4.33 -4.3 4.66 -6 5 C-6.33 4.01 -6.66 3.02 -7 2 C-2.25 0 -2.25 0 0 0 Z " fill="#61B3EF" transform="translate(36,42)" />
<path d="M0 0 C0.66 0 1.32 0 2 0 C2 2.64 2 5.28 2 8 C1.01 8 0.02 8 -1 8 C-0.67 5.36 -0.34 2.72 0 0 Z " fill="#5B474F" transform="translate(63,28)" />
<path d="M0 0 C0 0.33 0 0.66 0 1 C-3.63 1 -7.26 1 -11 1 C-8.58139369 -3.83721261 -4.10632509 -1.31712314 0 0 Z " fill="#67471B" transform="translate(35,69)" />
<path d="M0 0 C0.33 0.165 0.33 0.165 2 1 C2.33 1.99 2.66 2.98 3 4 C3.33 4.66 3.66 5.32 4 6 C3.67 6.495 3.67 6.495 2 9 C1.34 9 0.68 9 0 9 C0 6.03 0 3.06 0 0 Z " fill="#0E4784" transform="translate(62,59)" />
<path d="M0 0 C2.97 0.33 5.94 0.66 9 1 C8.67 2.98 8.34 4.96 8 7 C7.67 5.68 7.34 4.36 7 3 C6.608125 2.938125 6.608125 2.938125 4.625 2.625 C2 2 2 2 0 0 Z " fill="#724E18" transform="translate(72,21)" />
<path d="M0 0 C0.66 0.66 1.32 1.32 2 2 C0.515 2.165 0.515 2.165 -7 3 C-7.33 2.34 -7.66 1.68 -8 1 C-5.23749964 -0.38125018 -3.05268901 -0.19079306 0 0 Z " fill="#C18129" transform="translate(49,65)" />
<path d="M0 0 C1.5625 1.75 1.5625 1.75 3 4 C2.6875 6.25 2.6875 6.25 2 8 C0.68 7.67 -0.64 7.34 -2 7 C-1.34 4.69 -0.68 2.38 0 0 Z " fill="#676344" transform="translate(78,49)" />
<path d="M0 0 C0.33 0.66 0.66 1.32 1 2 C0.67 2.66 0.34 3.32 0 4 C2.31 4 4.62 4 7 4 C7 4.33 7 4.66 7 5 C3.37 5 -0.26 5 -4 5 C-2.68 3.35 -1.36 1.7 0 0 Z " fill="#7CA6AE" transform="translate(28,44)" />
<path d="M0 0 C0.99 0 1.98 0 3 0 C1.70700306 2.88437779 0.34058637 4.87219421 -2 7 C-2.33 5.68 -2.66 4.36 -3 3 C-2.01 3 -1.02 3 0 3 C0 2.01 0 1.02 0 0 Z " fill="#49A3DE" transform="translate(67,48)" />
<path d="M0 0 C0.66 0 1.32 0 2 0 C2 0.66 2 1.32 2 2 C2.66 2 3.32 2 4 2 C3.34 3.32 2.68 4.64 2 6 C1.34 6 0.68 6 0 6 C0 4.02 0 2.04 0 0 Z " fill="#2A654B" transform="translate(72,50)" />
</svg>