<?xml version='1.0' encoding='utf-8'?>
<svg xmlns="http://www.w3.org/2000/svg" version="1.1" width="99" height="102">
<path d="M0 0 C0 4 0 4 -1.71484375 5.88671875 C-2.08158203 6.18384766 -2.08158203 6.18384766 -3.9375 7.6875 C-4.66839844 8.28949219 -5.39929688 8.89148438 -6.15234375 9.51171875 C-6.76207031 10.00285156 -7.37179688 10.49398438 -8 11 C-9 12 -9 12 -9.375 15 C-9.31610573 20.70096557 -5.97672308 25.45149751 -2.58203125 29.828125 C-1 31 -1 31 0.9609375 30.97265625 C3.72167748 29.65575155 4.86258398 27.91808114 6.625 25.4375 C7.70538187 23.92543716 8.82146855 22.43687948 10 21 C10.66 21 11.32 21 12 21 C11.50485982 25.34037775 8.68886128 28.08612375 5.9375 31.25 C5.46505859 31.80429687 4.99261719 32.35859375 4.50585938 32.9296875 C3.34341033 34.291749 2.17252145 35.64659956 1 37 C-3.7990969 36.21258341 -6.87914943 34.50483074 -11 32 C-11 32.66 -11 33.32 -11 34 C-10.05125 34.28875 -9.1025 34.5775 -8.125 34.875 C-5 36 -5 36 -3 38 C-3.99 38 -4.98 38 -6 38 C-6 39.32 -6 40.64 -6 42 C-7.32 41.67 -8.64 41.34 -10 41 C-10 42.32 -10 43.64 -10 45 C-11.32 44.67 -12.64 44.34 -14 44 C-14 45.32 -14 46.64 -14 48 C-15.65 47.67 -17.3 47.34 -19 47 C-19 48.32 -19 49.64 -19 51 C-20.32 51 -21.64 51 -23 51 C-23 52.32 -23 53.64 -23 55 C-24.65 54.67 -26.3 54.34 -28 54 C-28 55.32 -28 56.64 -28 58 C-29.65 58 -31.3 58 -33 58 C-33 59.32 -33 60.64 -33 62 C-34.98 61.67 -36.96 61.34 -39 61 C-39 62.32 -39 63.64 -39 65 C-42.81970556 64.7427992 -44.55376437 64.43653486 -47.3359375 61.71484375 C-48.00882813 60.79832031 -48.68171875 59.88179687 -49.375 58.9375 C-50.06335938 58.01839844 -50.75171875 57.09929687 -51.4609375 56.15234375 C-51.96882813 55.44207031 -52.47671875 54.73179688 -53 54 C-52.62488281 53.56429687 -52.24976562 53.12859375 -51.86328125 52.6796875 C-51.35152344 52.08414063 -50.83976562 51.48859375 -50.3125 50.875 C-49.76207031 50.235625 -49.21164063 49.59625 -48.64453125 48.9375 C-47.23110952 47.27228105 -45.86368103 45.58071178 -44.5 43.875 C-42 41 -42 41 -39.0625 38.5625 C-36.13747958 36.11503394 -33.86111073 33.61121916 -31.4375 30.6953125 C-28.64723729 27.40462224 -25.49592435 24.47230891 -22.375 21.5 C-20 19 -20 19 -18.7890625 16.80078125 C-16.32311915 12.94034156 -13.23726022 9.9081759 -10 6.6875 C-9.3709375 6.04232422 -8.741875 5.39714844 -8.09375 4.73242188 C-7.78953125 4.42788086 -7.78953125 4.42788086 -6.25 2.88671875 C-5.69828125 2.33201904 -5.1465625 1.77731934 -4.578125 1.20581055 C-3 0 -3 0 0 0 Z " fill="#DDDFDD" transform="translate(70,20)" />
<path d="M0 0 C0 4 0 4 -1.71484375 5.88671875 C-2.44832031 6.48097656 -3.18179688 7.07523438 -3.9375 7.6875 C-4.66839844 8.28949219 -5.39929688 8.89148438 -6.15234375 9.51171875 C-6.76207031 10.00285156 -7.37179688 10.49398438 -8 11 C-9 12 -9 12 -9.375 15 C-9.31610573 20.70096557 -5.97672308 25.45149751 -2.58203125 29.828125 C-1 31 -1 31 0.9609375 30.97265625 C3.72167748 29.65575155 4.86258398 27.91808114 6.625 25.4375 C7.70538187 23.92543716 8.82146855 22.43687948 10 21 C10.66 21 11.32 21 12 21 C11.50485982 25.34037775 8.68886128 28.08612375 5.9375 31.25 C5.46505859 31.80429687 4.99261719 32.35859375 4.50585938 32.9296875 C3.34341033 34.291749 2.17252145 35.64659956 1 37 C-3.7990969 36.21258341 -6.87914943 34.50483074 -11 32 C-11 32.66 -11 33.32 -11 34 C-10.525625 34.144375 -10.525625 34.144375 -8.125 34.875 C-5 36 -5 36 -3 38 C-3.99 38 -4.98 38 -6 38 C-6 39.32 -6 40.64 -6 42 C-7.32 41.67 -8.64 41.34 -10 41 C-10 42.32 -10 43.64 -10 45 C-11.32 44.67 -12.64 44.34 -14 44 C-14 45.32 -14 46.64 -14 48 C-15.65 47.67 -17.3 47.34 -19 47 C-19 48.32 -19 49.64 -19 51 C-20.32 51 -21.64 51 -23 51 C-23 52.32 -23 53.64 -23 55 C-24.65 54.67 -26.3 54.34 -28 54 C-28 55.32 -28 56.64 -28 58 C-29.65 58 -31.3 58 -33 58 C-33.33 59.32 -33.66 60.64 -34 62 C-34 60.35 -34 58.7 -34 57 C-33.01 57 -32.02 57 -31 57 C-31 55.68 -31 54.36 -31 53 C-30.34 53 -29.68 53 -29 53 C-29 51.35 -29 49.7 -29 48 C-28.505 47.835 -28.505 47.835 -26 47 C-25.67 46.34 -25.34 45.68 -25 45 C-24.34 45.33 -23.68 45.66 -23 46 C-22.93941406 45.65646484 -22.93941406 45.65646484 -22.6328125 43.91796875 C-22.46523438 43.01691406 -22.29765625 42.11585937 -22.125 41.1875 C-21.96257813 40.29417969 -21.80015625 39.40085938 -21.6328125 38.48046875 C-21 36 -21 36 -19 33 C-19.0234375 30.40625 -19.0234375 30.40625 -19.375 27.5 C-20.37742966 18.8278178 -20.37742966 18.8278178 -17 14 C-14.76218401 11.46366399 -12.39730329 9.07252202 -10 6.6875 C-9.3709375 6.04232422 -8.741875 5.39714844 -8.09375 4.73242188 C-7.78953125 4.42788086 -7.78953125 4.42788086 -6.25 2.88671875 C-5.69828125 2.33201904 -5.1465625 1.77731934 -4.578125 1.20581055 C-3 0 -3 0 0 0 Z " fill="#A9ABA9" transform="translate(70,20)" />
<path d="M0 0 C0.061875 0.969375 0.12375 1.93875 0.1875 2.9375 C1.08378998 9.32843723 4.98768898 15.07241379 9 20 C11.1875 21.25 11.1875 21.25 13 22 C11.89191046 26.80172134 10.95313492 29.91161335 7 33 C6.34 33 5.68 33 5 33 C6.81309003 29.22272911 8.9073259 25.62730178 11 22 C7.40746109 25.45436433 4.20760251 29.19364503 1 33 C-3.52783779 32.18287428 -5.45020963 29.63770093 -8 26 C-10.75707033 21.53164464 -11.99263213 18.2338785 -11 13 C-8.64482985 9.96124304 -6.04230921 7.35198604 -3 5 C-2.34 5 -1.68 5 -1 5 C-1 3.68 -1 2.36 -1 1 C-5.70700836 3.46389368 -9.02915107 6.79643071 -12.6875 10.5625 C-12.97786133 10.85737305 -12.97786133 10.85737305 -14.44726562 12.34960938 C-15.52014726 13.43985557 -16.5909532 14.53215138 -17.65893555 15.62719727 C-18.76476387 16.75919665 -19.88100963 17.88100963 -21 19 C-20.44828634 15.1552454 -18.78537669 13.49126453 -16 10.875 C-12.08474576 7.16949153 -12.08474576 7.16949153 -11 5 C-10.34 5 -9.68 5 -9 5 C-9 4.34 -9 3.68 -9 3 C-8.34 3 -7.68 3 -7 3 C-7 2.34 -7 1.68 -7 1 C-4.53721199 -0.231394 -2.7204945 -0.07159196 0 0 Z " fill="#683F15" transform="translate(71,19)" />
<path d="M0 0 C0 4 0 4 -1.71484375 5.88671875 C-2.44832031 6.48097656 -3.18179688 7.07523438 -3.9375 7.6875 C-4.66839844 8.28949219 -5.39929688 8.89148438 -6.15234375 9.51171875 C-6.45720703 9.75728516 -6.45720703 9.75728516 -8 11 C-9 12 -9 12 -9.375 15 C-9.31610573 20.70096557 -5.97672308 25.45149751 -2.58203125 29.828125 C-1 31 -1 31 0.9609375 30.97265625 C3.72167748 29.65575155 4.86258398 27.91808114 6.625 25.4375 C7.70538187 23.92543716 8.82146855 22.43687948 10 21 C10.66 21 11.32 21 12 21 C11.50485982 25.34037775 8.68886128 28.08612375 5.9375 31.25 C5.46505859 31.80429687 4.99261719 32.35859375 4.50585938 32.9296875 C3.34341033 34.291749 2.17252145 35.64659956 1 37 C-4.65161047 36.12130438 -8.79735816 33.87064123 -13 30 C-15.92815914 25.02488321 -17.17617996 18.68745357 -16 13 C-14.26483021 10.2498515 -12.08067313 8.18208559 -9.6875 6 C-9.09259766 5.41605469 -8.49769531 4.83210938 -7.88476562 4.23046875 C-3.45119475 0 -3.45119475 0 0 0 Z " fill="#E4B552" transform="translate(70,20)" />
<path d="M0 0 C0.99 0.33 1.98 0.66 3 1 C3.22226864 2.76913824 3.42733873 4.54044371 3.625 6.3125 C3.68300781 6.80556641 3.68300781 6.80556641 3.9765625 9.30078125 C4 12 4 12 2 15 C1.835 16.155 1.67 17.31 1.5 18.5 C1 22 1 22 -1 25 C-1.804375 25.20625 -2.60875 25.4125 -3.4375 25.625 C-6.60094499 27.32245829 -6.72108813 28.29879239 -7.8125 31.625 C-8.22732811 33.07804431 -8.62925084 34.53508867 -9 36 C-9.99 36 -10.98 36 -12 36 C-12 37.65 -12 39.3 -12 41 C-12.99 40.67 -13.98 40.34 -15 40 C-14.67 39.34 -14.34 38.68 -14 38 C-14.04125 37.195625 -14.0825 36.39125 -14.125 35.5625 C-14 33 -14 33 -12.5 31.1875 C-12.005 30.795625 -11.51 30.40375 -11 30 C-10.34 30.33 -9.68 30.66 -9 31 C-8.96261719 30.23816406 -8.92523438 29.47632812 -8.88671875 28.69140625 C-8.33886684 20.08690854 -7.33273289 12.93255276 -2 6 C-2.33 5.01 -2.66 4.02 -3 3 C-2.01 2.01 -1.02 1.02 0 0 Z " fill="#C3C5C3" transform="translate(48,41)" />
<path d="M0 0 C0.66 1.32 1.32 2.64 2 4 C1.01 4.33 0.02 4.66 -1 5 C-1 4.34 -1 3.68 -1 3 C-1.66 3 -2.32 3 -3 3 C-3 3.66 -3 4.32 -3 5 C-6.08809695 6.76462683 -7.23312136 7 -11 7 C-11 7.99 -11 8.98 -11 10 C-12.32 10 -13.64 10 -15 10 C-15 10.99 -15 11.98 -15 13 C-16.32 13 -17.64 13 -19 13 C-19 13.99 -19 14.98 -19 16 C-20.32 16 -21.64 16 -23 16 C-23.33 17.32 -23.66 18.64 -24 20 C-25.65 19.67 -27.3 19.34 -29 19 C-29 20.32 -29 21.64 -29 23 C-30.65 23 -32.3 23 -34 23 C-34.33 24.32 -34.66 25.64 -35 27 C-35.99 27 -36.98 27 -38 27 C-38.66 27.99 -39.32 28.98 -40 30 C-40.99 29.67 -41.98 29.34 -43 29 C-42.34 29 -41.68 29 -41 29 C-41 27.35 -41 25.7 -41 24 C-39.02 24.33 -37.04 24.66 -35 25 C-35 23.68 -35 22.36 -35 21 C-33.35 21 -31.7 21 -30 21 C-30 19.68 -30 18.36 -30 17 C-28.35 17.33 -26.7 17.66 -25 18 C-25 16.68 -25 15.36 -25 14 C-23.68 14 -22.36 14 -21 14 C-21 12.68 -21 11.36 -21 10 C-20.175 10.165 -20.175 10.165 -16 11 C-16 9.68 -16 8.36 -16 7 C-14.68 7.33 -13.36 7.66 -12 8 C-12 6.68 -12 5.36 -12 4 C-10.68 4.33 -9.36 4.66 -8 5 C-8 3.68 -8 2.36 -8 1 C-7.05125 1.020625 -6.1025 1.04125 -5.125 1.0625 C-2 1 -2 1 0 0 Z " fill="#4B4B43" transform="translate(72,57)" />
<path d="M0 0 C0.33 0 0.66 0 1 0 C1.05478516 0.2784375 1.05478516 0.2784375 1.33203125 1.6875 C2.16937107 5.71762336 3.12018377 9.53807522 4.625 13.375 C6 17 6 17 6 20 C6.474375 20.144375 6.474375 20.144375 8.875 20.875 C12 22 12 22 14 24 C13.01 24 12.02 24 11 24 C11 25.32 11 26.64 11 28 C9.68 27.67 8.36 27.34 7 27 C7 28.32 7 29.64 7 31 C5.68 30.67 4.36 30.34 3 30 C3 31.32 3 32.64 3 34 C1 33 1 33 0.0625 30.75 C0.041875 29.8425 0.02125 28.935 0 28 C1.6459651 26.31288577 3.31237149 24.6454378 5 23 C4.8125 20.6875 4.8125 20.6875 4 19 C3.01 19 2.02 19 1 19 C0.63495397 17.41913952 0.28339494 15.83516093 -0.0625 14.25 C-0.25972656 13.36828125 -0.45695312 12.4865625 -0.66015625 11.578125 C-0.99825872 9.01320972 -0.81158635 7.42908361 0 5 C-0.66 5 -1.32 5 -2 5 C-1.125 1.125 -1.125 1.125 0 0 Z " fill="#82827D" transform="translate(53,34)" />
<path d="M0 0 C1 2 1 2 -0.0625 5.5 C-1.46306098 8.64798987 -1.82603484 8.92154512 -5.1875 10.4375 C-6.115625 10.623125 -7.04375 10.80875 -8 11 C-7.979375 11.474375 -7.979375 11.474375 -7.875 13.875 C-8 17 -8 17 -10 19 C-9.67 19.99 -9.34 20.98 -9 22 C-9.33 22.66 -9.66 23.32 -10 24 C-12.3125 23.8125 -12.3125 23.8125 -15 23 C-16.66796875 20.44921875 -16.66796875 20.44921875 -18 18 C-12 12 -6 6 0 0 Z " fill="#F5F6F4" transform="translate(35,55)" />
<path d="M0 0 C0.061875 0.969375 0.12375 1.93875 0.1875 2.9375 C1.08378998 9.32843723 4.98768898 15.07241379 9 20 C11.1875 21.25 11.1875 21.25 13 22 C11.89191046 26.80172134 10.95313492 29.91161335 7 33 C6.34 33 5.68 33 5 33 C6.81309003 29.22272911 8.9073259 25.62730178 11 22 C9.02 22.33 7.04 22.66 5 23 C4.896875 22.278125 4.79375 21.55625 4.6875 20.8125 C3.93970722 17.75334771 2.65222195 15.65792227 1 13 C1 12.34 1 11.68 1 11 C0.34 11 -0.32 11 -1 11 C-1.74926071 7.33694766 -2.2380014 4.57644848 -1 1 C-5.70700836 3.46389368 -9.02915107 6.79643071 -12.6875 10.5625 C-12.97786133 10.85737305 -12.97786133 10.85737305 -14.44726562 12.34960938 C-15.52014726 13.43985557 -16.5909532 14.53215138 -17.65893555 15.62719727 C-18.76476387 16.75919665 -19.88100963 17.88100963 -21 19 C-20.44828634 15.1552454 -18.78537669 13.49126453 -16 10.875 C-12.08474576 7.16949153 -12.08474576 7.16949153 -11 5 C-10.34 5 -9.68 5 -9 5 C-9 4.34 -9 3.68 -9 3 C-8.34 3 -7.68 3 -7 3 C-7 2.34 -7 1.68 -7 1 C-4.53721199 -0.231394 -2.7204945 -0.07159196 0 0 Z " fill="#58380E" transform="translate(71,19)" />
<path d="M0 0 C4.42726858 1.47575619 5.5548867 4.4941651 7.8359375 8.41015625 C9.29057765 11.64648651 9.22295117 13.68056111 8 17 C6.68 16.67 5.36 16.34 4 16 C4 15.34 4 14.68 4 14 C3.34 14 2.68 14 2 14 C1.29819469 12.5903653 0.61406042 11.17192359 -0.0625 9.75 C-0.44535156 8.96109375 -0.82820313 8.1721875 -1.22265625 7.359375 C-2.0915687 4.72207289 -1.98989621 3.55676051 -1 1 C-0.67 0.67 -0.34 0.34 0 0 Z " fill="#6F624E" transform="translate(63,32)" />
<path d="M0 0 C0.33 0 0.66 0 1 0 C1.226875 1.155 1.45375 2.31 1.6875 3.5 C2.8728848 8.30123484 5.21193305 11.96981348 8 16 C8.66 16.99 9.32 17.98 10 19 C7.8125 19.75 7.8125 19.75 5 20 C1.99066972 18.18040495 0.35303275 16.62583079 -1.375 13.5625 C-2.10280542 10.57849778 -1.79114508 8.94881349 -1 6 C-0.66055205 4.00102872 -0.32578384 2.00124361 0 0 Z " fill="#E8B64E" transform="translate(59,33)" />
<path d="M0 0 C1 2 1 2 0.4375 3.9375 C0.293125 4.618125 0.14875 5.29875 0 6 C0.33 6.495 0.33 6.495 2 9 C1.34 9.33 1.34 9.33 -2 11 C-2.66 9.35 -3.32 7.7 -4 6 C-5.98 7.65 -7.96 9.3 -10 11 C-13.63 9.35 -17.26 7.7 -21 6 C-21 5.34 -21 4.68 -21 4 C-18.55180323 4.95207652 -16.21700318 5.87505878 -13.9375 7.1875 C-12 8 -12 8 -10 7.875 C-7.40478086 6.73959163 -5.88335517 5.08514322 -4 3 C-3.34 3.33 -2.68 3.66 -2 4 C-1.34 2.68 -0.68 1.36 0 0 Z " fill="#6F552B" transform="translate(80,48)" />
<path d="M0 0 C0.66 1.32 1.32 2.64 2 4 C1.01 4.33 0.02 4.66 -1 5 C-0.40075776 9.19469571 0.57499941 13.00999834 2 17 C2.66 17 3.32 17 4 17 C4 17.66 4 18.32 4 19 C5.65 19.33 7.3 19.66 9 20 C9.66 18.68 10.32 17.36 11 16 C11.99 16.33 12.98 16.66 14 17 C12.35 18.98 10.7 20.96 9 23 C5.66699321 22.75311061 4.80343072 21.79384198 2.4375 19.3125 C-1.59950043 14.07935129 -3.76618894 9.76800234 -3 3 C-1.5 1.0625 -1.5 1.0625 0 0 Z " fill="#734C1E" transform="translate(63,29)" />
<path d="M0 0 C3 1 3 1 5 5 C2.36 7.64 -0.28 10.28 -3 13 C-3.99 12.67 -4.98 12.34 -6 12 C-4.66355783 8.40188648 -3.0247216 5.25716084 -1 2 C-0.67 1.34 -0.34 0.68 0 0 Z " fill="#656255" transform="translate(23,58)" />
<path d="M0 0 C0.33 0 0.66 0 1 0 C1.05478516 0.2784375 1.05478516 0.2784375 1.33203125 1.6875 C2.17361106 5.73803048 3.13165853 9.53535453 4.6875 13.375 C6 17 6 17 5 20 C3.68 19.67 2.36 19.34 1 19 C0.63495397 17.41913952 0.28339494 15.83516093 -0.0625 14.25 C-0.25972656 13.36828125 -0.45695312 12.4865625 -0.66015625 11.578125 C-0.99825872 9.01320972 -0.81158635 7.42908361 0 5 C-0.66 5 -1.32 5 -2 5 C-1.125 1.125 -1.125 1.125 0 0 Z " fill="#AD9E70" transform="translate(53,34)" />
<path d="M0 0 C0.4021875 0.0103125 0.4021875 0.0103125 2.4375 0.0625 C1.53009259 6.67361111 1.53009259 6.67361111 0.8125 9.6875 C0.38389467 12.40200045 0.75745506 14.41788079 1.4375 17.0625 C-2.96299073 11.46187543 -3.91158568 8.16057552 -3.5625 1.0625 C-2.5625 0.0625 -2.5625 0.0625 0 0 Z " fill="#F5C65B" transform="translate(57.5625,31.9375)" />
<path d="M0 0 C3.87387012 1.29129004 4.22473604 2.64957136 6.125 6.1875 C6.64320312 7.12980469 7.16140625 8.07210937 7.6953125 9.04296875 C9.05463101 12.12381939 9.76778545 14.64217757 10 18 C9.34 18.99 8.68 19.98 8 21 C7.34 20.67 6.68 20.34 6 20 C6.28875 19.21625 6.5775 18.4325 6.875 17.625 C7.04289118 12.75615573 5.09995665 10.33063295 2.4453125 6.3671875 C1.10578381 4.17325673 0.45059244 2.50714255 0 0 Z " fill="#3A1E09" transform="translate(64,29)" />
<path d="M0 0 C0.99 0.33 1.98 0.66 3 1 C1.94773274 3.18547815 0.87469237 5.18274029 -0.5 7.1875 C-2.51855887 10.97229789 -3.22364336 14.80767417 -4 19 C-4.33 19 -4.66 19 -5 19 C-5.0270043 17.54176788 -5.04639787 16.08339325 -5.0625 14.625 C-5.07410156 13.81289063 -5.08570313 13.00078125 -5.09765625 12.1640625 C-5 10 -5 10 -4 8 C-4.66 7.34 -5.32 6.68 -6 6 C-4 4 -2 2 0 0 Z " fill="#D1D2D0" transform="translate(44,45)" />
<path d="M0 0 C0.66 0.33 1.32 0.66 2 1 C2 2.65 2 4.3 2 6 C2.66 6 3.32 6 4 6 C4 7.65 4 9.3 4 11 C1.5625 10.1875 1.5625 10.1875 -1 9 C-1.33 8.01 -1.66 7.02 -2 6 C-2.66 5.34 -3.32 4.68 -4 4 C-2.68 2.68 -1.36 1.36 0 0 Z " fill="#825525" transform="translate(68,24)" />
<path d="M0 0 C0.33 0 0.66 0 1 0 C1.125 7.75 1.125 7.75 0 10 C-0.99 10 -1.98 10 -3 10 C-3 11.65 -3 13.3 -3 15 C-3.99 14.67 -4.98 14.34 -6 14 C-5.67 13.34 -5.34 12.68 -5 12 C-5.04125 11.195625 -5.0825 10.39125 -5.125 9.5625 C-5 7 -5 7 -3.5 5.1875 C-3.2525 4.9915625 -3.2525 4.9915625 -2 4 C-1.34 4.33 -0.68 4.66 0 5 C0 3.35 0 1.7 0 0 Z " fill="#C9CECE" transform="translate(39,67)" />
<path d="M0 0 C0.33 0.66 0.66 1.32 1 2 C1.66 2 2.32 2 3 2 C3.33 3.65 3.66 5.3 4 7 C4.3815625 6.95875 4.3815625 6.95875 6.3125 6.75 C9 7 9 7 10.8125 9 C11.204375 9.66 11.59625 10.32 12 11 C9.8125 11.75 9.8125 11.75 7 12 C3.07829021 9.62873362 1.24164142 7.40218322 0 3 C0 2.01 0 1.02 0 0 Z " fill="#EAB03D" transform="translate(57,41)" />
<path d="M0 0 C2.31332486 3.46998729 2.33957563 4.92509248 2 9 C1.67 9.495 1.67 9.495 0 12 C-0.39387788 14.32387947 -0.73486085 16.65793749 -1 19 C-1.66 18.67 -2.32 18.34 -3 18 C-2.22095672 5.33029613 -2.22095672 5.33029613 0 0 Z " fill="#B3B7B6" transform="translate(50,44)" />
<path d="M0 0 C0.33 0 0.66 0 1 0 C1 1.65 1 3.3 1 5 C1.99 5 2.98 5 4 5 C4.66 6.65 5.32 8.3 6 10 C5.01 10.66 5.01 10.66 0 14 C0 9.38 0 4.76 0 0 Z " fill="#9A9EA0" transform="translate(53,48)" />
<path d="M0 0 C0.66 1.32 1.32 2.64 2 4 C1.01 4.33 0.02 4.66 -1 5 C-1 4.34 -1 3.68 -1 3 C-1.66 3 -2.32 3 -3 3 C-3 3.66 -3 4.32 -3 5 C-4.98 5.33 -6.96 5.66 -9 6 C-8.67 4.35 -8.34 2.7 -8 1 C-7.05125 1.020625 -6.1025 1.04125 -5.125 1.0625 C-2 1 -2 1 0 0 Z " fill="#595348" transform="translate(72,57)" />
<path d="M0 0 C0.66 0 1.32 0 2 0 C1.40716913 3.60571107 -0.02741777 5.54429438 -2.4375 8.25 C-3.05496094 8.95640625 -3.67242187 9.6628125 -4.30859375 10.390625 C-6 12 -6 12 -8 12 C-6.59808647 9.00745382 -4.96632511 6.4045389 -3 3.75 C-2.484375 3.04359375 -1.96875 2.3371875 -1.4375 1.609375 C-0.963125 1.07828125 -0.48875 0.5471875 0 0 Z " fill="#E1B564" transform="translate(80,41)" />
<path d="M0 0 C0.99 0 1.98 0 3 0 C3 1.32 3 2.64 3 4 C1.68 4 0.36 4 -1 4 C-1 5.32 -1 6.64 -1 8 C-2.32 8 -3.64 8 -5 8 C-4.67 6.02 -4.34 4.04 -4 2 C-3.34 2.165 -3.34 2.165 0 3 C0 2.01 0 1.02 0 0 Z " fill="#969C9B" transform="translate(52,63)" />
<path d="M0 0 C0.33 0.66 0.66 1.32 1 2 C0.06421005 4.35981813 -0.93347808 6.69631264 -2 9 C-2.99 9 -3.98 9 -5 9 C-5 8.34 -5 7.68 -5 7 C-5.66 6.67 -6.32 6.34 -7 6 C-4.69 4.02 -2.38 2.04 0 0 Z " fill="#EBEBEA" transform="translate(35,55)" />
<path d="M0 0 C-0.33 1.65 -0.66 3.3 -1 5 C-1.66 5 -2.32 5 -3 5 C-3 6.65 -3 8.3 -3 10 C-5 9 -5 9 -5.875 6.6875 C-6 4 -6 4 -4.1875 1.6875 C-2 0 -2 0 0 0 Z " fill="#858D86" transform="translate(59,58)" />
<path d="M0 0 C3.57011026 3.732388 4.10913442 8.0949989 5 13 C4.01 12.67 3.02 12.34 2 12 C1.26953125 10.0390625 1.26953125 10.0390625 0.8125 7.625 C0.65394531 6.83351563 0.49539062 6.04203125 0.33203125 5.2265625 C0 3 0 3 0 0 Z " fill="#A08855" transform="translate(54,41)" />
<path d="M0 0 C0.66 1.32 1.32 2.64 2 4 C1.01 4.33 0.02 4.66 -1 5 C-0.67 7.97 -0.34 10.94 0 14 C-2.48192093 11.4146657 -2.99225664 10.07356189 -3.375 6.4375 C-3 3 -3 3 -1.5 1.0625 C-1.005 0.711875 -0.51 0.36125 0 0 Z " fill="#6C4B12" transform="translate(63,29)" />
<path d="M0 0 C0.66 0.33 1.32 0.66 2 1 C1.34 2.65 0.68 4.3 0 6 C0.66 6.33 1.32 6.66 2 7 C2 8.65 2 10.3 2 12 C-0.81645906 8.81617671 -1.72317437 6.24465971 -2 2 C-1.34 1.34 -0.68 0.68 0 0 Z " fill="#756547" transform="translate(63,32)" />
<path d="M0 0 C0.66 0.33 1.32 0.66 2 1 C0.89191046 5.80172134 -0.04686508 8.91161335 -4 12 C-4.66 12 -5.32 12 -6 12 C-4.97379138 9.7897045 -3.94283206 7.92682503 -2.4375 6 C-0.96806014 3.95556194 -0.43835352 2.45477972 0 0 Z " fill="#604010" transform="translate(82,40)" />
<path d="M0 0 C0.66 0.33 1.32 0.66 2 1 C2 3.31 2 5.62 2 8 C0.0625 7.25 0.0625 7.25 -2 6 C-2.75 3.875 -2.75 3.875 -3 2 C-2.34 2 -1.68 2 -1 2 C-0.67 1.34 -0.34 0.68 0 0 Z " fill="#714728" transform="translate(72,32)" />
<path d="M0 0 C0.763125 0.0825 1.52625 0.165 2.3125 0.25 C1.9825 0.415 1.9825 0.415 0.3125 1.25 C0.3125 2.57 0.3125 3.89 0.3125 5.25 C-0.6775 5.085 -0.6775 5.085 -5.6875 4.25 C-3.34903846 0.31153846 -3.34903846 0.31153846 0 0 Z " fill="#CCD0D0" transform="translate(30.6875,79.75)" />
<path d="M0 0 C0.33 0.99 0.66 1.98 1 3 C1.66 3 2.32 3 3 3 C3 4.65 3 6.3 3 8 C2.01 7.67 1.02 7.34 0 7 C-0.38133299 5.0085944 -0.71325582 3.00720923 -1 1 C-0.67 0.67 -0.34 0.34 0 0 Z " fill="#8B6140" transform="translate(69,27)" />
<path d="M0 0 C0.4021875 0.0103125 0.4021875 0.0103125 2.4375 0.0625 C1.4475 2.0425 0.4575 4.0225 -0.5625 6.0625 C-2.5625 5.0625 -2.5625 5.0625 -3.25 3.0625 C-3.353125 2.4025 -3.45625 1.7425 -3.5625 1.0625 C-2.5625 0.0625 -2.5625 0.0625 0 0 Z " fill="#F6C349" transform="translate(57.5625,31.9375)" />
<path d="M0 0 C2.86724686 0.57344937 3.8614515 0.8614515 6 3 C5.67 3.99 5.34 4.98 5 6 C3.31237149 4.3545622 1.6459651 2.68711423 0 1 C0 0.67 0 0.34 0 0 Z " fill="#EBECE6" transform="translate(17,73)" />
<path d="M0 0 C0.99 0.33 1.98 0.66 3 1 C1.35 2.98 -0.3 4.96 -2 7 C-2.99 6.67 -3.98 6.34 -5 6 C-4.360625 5.38125 -3.72125 4.7625 -3.0625 4.125 C-1 2 -1 2 0 0 Z " fill="#9E722A" transform="translate(74,45)" />
<path d="M0 0 C0.33 0.66 0.66 1.32 1 2 C1.66 2 2.32 2 3 2 C3.66 3.98 4.32 5.96 5 8 C4.01 8 3.02 8 2 8 C0.74335022 5.09399739 0 3.20395416 0 0 Z " fill="#F6BF3D" transform="translate(57,41)" />
</svg>