<?xml version='1.0' encoding='utf-8'?>
<svg xmlns="http://www.w3.org/2000/svg" version="1.1" width="93" height="109">
<path d="M0 0 C5.14854597 2.96654315 9.27082151 7.27209626 11 13 C11.52536811 20.0520566 10.94968963 27.01216026 10 34 C9.85046875 35.24136719 9.7009375 36.48273437 9.546875 37.76171875 C9.03050761 41.88212954 8.40551046 45.97261719 7.6875 50.0625 C7.6349707 50.39668945 7.6349707 50.39668945 7.36914062 52.08789062 C5.96373285 59.99042941 2.46990849 65.28235839 -4 70 C-9.76689961 73.557503 -17.36319288 72.81390301 -23.7578125 71.3828125 C-33.27292632 68.01225494 -40.53849924 60.98275377 -45 52 C-46.76927704 46.69216888 -46.77118822 41.1421895 -44.875 35.875 C-43.28987191 33.44447026 -41.61851587 31.26285677 -39.8125 29 C-37.12042392 25.53875932 -36.46883928 23.46175005 -37 19 C-36.67 18.34 -36.34 17.68 -36 17 C-33.66673458 16.43244895 -31.35643808 16.0467911 -28.9765625 15.734375 C-26.24186577 14.71832167 -25.89030621 13.42368293 -24.6875 10.8125 C-19.24982737 0.25701784 -11.4360323 -2.59120226 0 0 Z " fill="#5D5944" transform="translate(64,19)" />
<path d="M0 0 C3.41919316 1.81441329 6.05340186 3.82641903 7.91015625 7.23046875 C9.95900791 14.1220607 8.80247999 20.48906541 6.91015625 27.23046875 C6.25015625 27.23046875 5.59015625 27.23046875 4.91015625 27.23046875 C4.91015625 27.89046875 4.91015625 28.55046875 4.91015625 29.23046875 C3.92015625 29.23046875 2.93015625 29.23046875 1.91015625 29.23046875 C1.91015625 29.89046875 1.91015625 30.55046875 1.91015625 31.23046875 C1.58015625 31.39546875 1.58015625 31.39546875 -0.08984375 32.23046875 C-0.71484375 34.29296875 -0.71484375 34.29296875 -1.08984375 36.23046875 C-1.74984375 36.23046875 -2.40984375 36.23046875 -3.08984375 36.23046875 C-3.08984375 34.91046875 -3.08984375 33.59046875 -3.08984375 32.23046875 C-4.83984375 31.60546875 -4.83984375 31.60546875 -7.08984375 31.23046875 C-7.70859375 31.60171875 -8.32734375 31.97296875 -8.96484375 32.35546875 C-9.66609375 32.64421875 -10.36734375 32.93296875 -11.08984375 33.23046875 C-14.02734375 31.91796875 -14.02734375 31.91796875 -17.08984375 30.23046875 C-18.75503894 29.88986064 -20.42141841 29.55488479 -22.08984375 29.23046875 C-22.74984375 28.57046875 -23.40984375 27.91046875 -24.08984375 27.23046875 C-24.08984375 25.91046875 -24.08984375 24.59046875 -24.08984375 23.23046875 C-26.06984375 23.23046875 -28.04984375 23.23046875 -30.08984375 23.23046875 C-30.35796875 24.01421875 -30.62609375 24.79796875 -30.90234375 25.60546875 C-32.08984375 28.23046875 -32.08984375 28.23046875 -35.08984375 30.23046875 C-34.75984375 31.88046875 -34.42984375 33.53046875 -34.08984375 35.23046875 C-34.85296875 35.00359375 -35.61609375 34.77671875 -36.40234375 34.54296875 C-37.28921875 34.43984375 -38.17609375 34.33671875 -39.08984375 34.23046875 C-40.90234375 35.66796875 -40.90234375 35.66796875 -42.08984375 37.23046875 C-41.75984375 35.58046875 -41.42984375 33.93046875 -41.08984375 32.23046875 C-40.59484375 32.06546875 -40.59484375 32.06546875 -38.08984375 31.23046875 C-38.41984375 30.57046875 -38.74984375 29.91046875 -39.08984375 29.23046875 C-38.70828125 28.70453125 -38.70828125 28.70453125 -36.77734375 26.04296875 C-34.72948542 23.18292865 -32.87404244 20.26360652 -31.08984375 17.23046875 C-30.08984375 16.23046875 -30.08984375 16.23046875 -27.52734375 16.16796875 C-27.12515625 16.17828125 -27.12515625 16.17828125 -25.08984375 16.23046875 C-24.84234375 15.36421875 -24.59484375 14.49796875 -24.33984375 13.60546875 C-22.21819543 7.87701829 -19.24435095 3.5300776 -14.14453125 0.1484375 C-9.57725989 -1.89207347 -4.65408678 -1.71374784 0 0 Z " fill="#33301F" transform="translate(63.08984375,20.76953125)" />
<path d="M0 0 C0.33 0.66 0.66 1.32 1 2 C2.65 2 4.3 2 6 2 C6 3.32 6 4.64 6 6 C6.99 6.33 7.98 6.66 9 7 C9.66 7.66 10.32 8.32 11 9 C10.01 9.33 9.02 9.66 8 10 C8.33 10.66 8.66 11.32 9 12 C9.66 11.67 10.32 11.34 11 11 C11.33 11.66 11.66 12.32 12 13 C12.99 13.33 13.98 13.66 15 14 C15.33 13.01 15.66 12.02 16 11 C16 13.31 16 15.62 16 18 C15.01 18.33 14.02 18.66 13 19 C13 18.34 13 17.68 13 17 C11.35 16.67 9.7 16.34 8 16 C8 16.66 8 17.32 8 18 C8.598125 18.04125 9.19625 18.0825 9.8125 18.125 C12 19 12 19 13.75 21.9375 C15 25 15 25 15 27 C15.66 27 16.32 27 17 27 C17.66 28.98 18.32 30.96 19 33 C19.495 32.835 19.495 32.835 22 32 C22.33 31.34 22.66 30.68 23 30 C23 30.66 23 31.32 23 32 C24.32 32 25.64 32 27 32 C27 31.01 27 30.02 27 29 C25.68 28.67 24.36 28.34 23 28 C24.32 27.67 25.64 27.34 27 27 C29.20925553 33.25955734 29.20925553 33.25955734 28.1875 36.875 C27 39 27 39 26 40 C25.443125 40.825 24.88625 41.65 24.3125 42.5 C22 45 22 45 19.0625 45.9375 C15.81250867 46.00382635 13.88450346 45.44225173 11 44 C11 43.34 11 42.68 11 42 C13.90600261 40.74335022 15.79604584 40 19 40 C18.50628906 38.89140625 18.01257813 37.7828125 17.50390625 36.640625 C16.85660329 35.17715743 16.20947712 33.71361165 15.5625 32.25 C15.39975586 31.88519531 15.39975586 31.88519531 14.57617188 30.0390625 C14.26357422 29.33007812 13.95097656 28.62109375 13.62890625 27.890625 C13.4848938 27.56594238 13.4848938 27.56594238 12.75610352 25.92285156 C11.98791843 23.96927529 11.46357207 22.04528795 11 20 C9.35 20.66 7.7 21.32 6 22 C6.04189453 22.52980469 6.04189453 22.52980469 6.25390625 25.2109375 C6.35706832 26.59893625 6.45991663 27.98695835 6.5625 29.375 C6.61857422 30.07367188 6.67464844 30.77234375 6.73242188 31.4921875 C7.11328125 36.7734375 7.11328125 36.7734375 6 39 C4.125 38.75 4.125 38.75 2 38 C0.75 35.9375 0.75 35.9375 0 34 C-0.66 34.99 -1.32 35.98 -2 37 C-2.66 37 -3.32 37 -4 37 C-4.33 35.35 -4.66 33.7 -5 32 C-5.99 31.67 -6.98 31.34 -8 31 C-8.33 30.01 -8.66 29.02 -9 28 C-8.01 28 -7.02 28 -6 28 C-6 27.34 -6 26.68 -6 26 C-6.99 26 -7.98 26 -9 26 C-9.33 24.02 -9.66 22.04 -10 20 C-9.34 19.67 -8.68 19.34 -8 19 C-8.33 17.02 -8.66 15.04 -9 13 C-7.35 13.33 -5.7 13.66 -4 14 C-4.66 11.69 -5.32 9.38 -6 7 C-5.38125 6.95875 -4.7625 6.9175 -4.125 6.875 C-3.42375 6.58625 -2.7225 6.2975 -2 6 C-0.75 2.9375 -0.75 2.9375 0 0 Z " fill="#474738" transform="translate(33,42)" />
<path d="M0 0 C3.41919316 1.81441329 6.05340186 3.82641903 7.91015625 7.23046875 C9.95900791 14.1220607 8.80247999 20.48906541 6.91015625 27.23046875 C6.25015625 27.23046875 5.59015625 27.23046875 4.91015625 27.23046875 C4.91015625 27.89046875 4.91015625 28.55046875 4.91015625 29.23046875 C3.92015625 29.23046875 2.93015625 29.23046875 1.91015625 29.23046875 C1.91015625 29.89046875 1.91015625 30.55046875 1.91015625 31.23046875 C1.58015625 31.39546875 1.58015625 31.39546875 -0.08984375 32.23046875 C-0.71484375 34.29296875 -0.71484375 34.29296875 -1.08984375 36.23046875 C-1.74984375 36.23046875 -2.40984375 36.23046875 -3.08984375 36.23046875 C-3.08984375 34.91046875 -3.08984375 33.59046875 -3.08984375 32.23046875 C-4.83984375 31.60546875 -4.83984375 31.60546875 -7.08984375 31.23046875 C-7.70859375 31.60171875 -8.32734375 31.97296875 -8.96484375 32.35546875 C-9.66609375 32.64421875 -10.36734375 32.93296875 -11.08984375 33.23046875 C-14.02734375 31.91796875 -14.02734375 31.91796875 -17.08984375 30.23046875 C-18.75503894 29.88986064 -20.42141841 29.55488479 -22.08984375 29.23046875 C-22.74984375 28.57046875 -23.40984375 27.91046875 -24.08984375 27.23046875 C-24.08984375 25.91046875 -24.08984375 24.59046875 -24.08984375 23.23046875 C-26.06984375 23.23046875 -28.04984375 23.23046875 -30.08984375 23.23046875 C-30.35796875 24.01421875 -30.62609375 24.79796875 -30.90234375 25.60546875 C-32.08984375 28.23046875 -32.08984375 28.23046875 -35.08984375 30.23046875 C-34.75984375 31.88046875 -34.42984375 33.53046875 -34.08984375 35.23046875 C-34.85296875 35.00359375 -35.61609375 34.77671875 -36.40234375 34.54296875 C-37.28921875 34.43984375 -38.17609375 34.33671875 -39.08984375 34.23046875 C-40.90234375 35.66796875 -40.90234375 35.66796875 -42.08984375 37.23046875 C-41.75984375 35.58046875 -41.42984375 33.93046875 -41.08984375 32.23046875 C-40.59484375 32.06546875 -40.59484375 32.06546875 -38.08984375 31.23046875 C-38.41984375 30.57046875 -38.74984375 29.91046875 -39.08984375 29.23046875 C-38.70828125 28.70453125 -38.70828125 28.70453125 -36.77734375 26.04296875 C-34.72948542 23.18292865 -32.87404244 20.26360652 -31.08984375 17.23046875 C-30.08984375 16.23046875 -30.08984375 16.23046875 -27.52734375 16.16796875 C-27.12515625 16.17828125 -27.12515625 16.17828125 -25.08984375 16.23046875 C-24.84234375 15.36421875 -24.59484375 14.49796875 -24.33984375 13.60546875 C-22.21819543 7.87701829 -19.24435095 3.5300776 -14.14453125 0.1484375 C-9.57725989 -1.89207347 -4.65408678 -1.71374784 0 0 Z M-17.77734375 6.35546875 C-20.12622136 9.66005014 -20.68735686 12.1474625 -20.08984375 16.23046875 C-20.74984375 16.23046875 -21.40984375 16.23046875 -22.08984375 16.23046875 C-21.78046875 16.93171875 -21.47109375 17.63296875 -21.15234375 18.35546875 C-20.08984375 21.23046875 -20.08984375 21.23046875 -19.96484375 24.29296875 C-18.97174932 27.62692862 -18.46866733 28.06339885 -15.58984375 29.79296875 C-12.14568075 31.27698871 -9.99229216 31.351312 -6.40234375 30.29296875 C-2.4503881 28.6616779 0.2144632 26.60008506 2.91015625 23.23046875 C4.51131793 18.4269837 4.52186085 13.06558255 2.91015625 8.23046875 C2.25015625 8.23046875 1.59015625 8.23046875 0.91015625 8.23046875 C0.91015625 7.57046875 0.91015625 6.91046875 0.91015625 6.23046875 C-0.40984375 5.90046875 -1.72984375 5.57046875 -3.08984375 5.23046875 C-3.08984375 4.57046875 -3.08984375 3.91046875 -3.08984375 3.23046875 C-13.82904254 2.02660839 -13.82904254 2.02660839 -17.77734375 6.35546875 Z " fill="#676350" transform="translate(63.08984375,20.76953125)" />
<path d="M0 0 C5.14854597 2.96654315 9.27082151 7.27209626 11 13 C11.52536811 20.0520566 10.94968963 27.01216026 10 34 C9.85046875 35.24136719 9.7009375 36.48273437 9.546875 37.76171875 C9.03050761 41.88212954 8.40551046 45.97261719 7.6875 50.0625 C7.6349707 50.39668945 7.6349707 50.39668945 7.36914062 52.08789062 C5.96373285 59.99042941 2.46990849 65.28235839 -4 70 C-9.76689961 73.557503 -17.36319288 72.81390301 -23.7578125 71.3828125 C-33.27292632 68.01225494 -40.53849924 60.98275377 -45 52 C-46.76927704 46.69216888 -46.77118822 41.1421895 -44.875 35.875 C-43.28987191 33.44447026 -41.61851587 31.26285677 -39.8125 29 C-37.12042392 25.53875932 -36.46883928 23.46175005 -37 19 C-36.67 18.34 -36.34 17.68 -36 17 C-33.66673458 16.43244895 -31.35643808 16.0467911 -28.9765625 15.734375 C-26.24186577 14.71832167 -25.89030621 13.42368293 -24.6875 10.8125 C-19.24982737 0.25701784 -11.4360323 -2.59120226 0 0 Z M-21 7 C-26 14.26277372 -26 14.26277372 -26 18 C-26.3815625 17.9690625 -26.3815625 17.9690625 -28.3125 17.8125 C-31 18 -31 18 -32.625 19.125 C-34.44025932 21.60035361 -35.67274538 24.2348862 -37 27 C-39.73684211 31.73684211 -39.73684211 31.73684211 -41 33 C-44.92978533 37.26976676 -44.4886346 41.23689995 -44.3515625 46.80078125 C-43.61045169 53.54488965 -39.95205101 57.51957289 -35 62 C-34.525625 62.433125 -34.525625 62.433125 -32.125 64.625 C-25.58773129 69.59332422 -19.17831028 71.21120457 -11 71 C-6.57505082 70.05542957 -2.98705919 68.47191518 0 65 C2.18828114 59.20749111 2.74866503 53.12815047 3.53515625 47.01171875 C4 44 4 44 5 42 C5.0689472 40.62657169 5.08467708 39.24997898 5.0625 37.875 C5.041875 36.59625 5.02125 35.3175 5 34 C4.34 34 3.68 34 3 34 C3.33 32.35 3.66 30.7 4 29 C4.66 29 5.32 29 6 29 C8.05479902 21.67977848 9.28763326 15.20148239 6 8 C2.69163902 4.16926623 -0.2474976 1.48683716 -5.296875 0.59375 C-12.18005148 0.33069867 -16.31619161 1.88000546 -21 7 Z " fill="#33311E" transform="translate(64,19)" />
<path d="M0 0 C2.25 0.75 2.25 0.75 4 1 C4.66 0.34 5.32 -0.32 6 -1 C6.99 -0.67 7.98 -0.34 9 0 C9.33 1.65 9.66 3.3 10 5 C10.99 5 11.98 5 13 5 C13 4.34 13 3.68 13 3 C13.66 3 14.32 3 15 3 C15.15639125 8.06316683 14.62766071 12.50398438 13.5 17.4375 C13.2215625 18.67371094 12.943125 19.90992188 12.65625 21.18359375 C12.4396875 22.11300781 12.223125 23.04242188 12 24 C11.67 24 11.34 24 11 24 C10.67 22.02 10.34 20.04 10 18 C9.01 18 8.02 18 7 18 C7.99 18.33 8.98 18.66 10 19 C10 19.99 10 20.98 10 22 C7.69 22 5.38 22 3 22 C2.67 22.66 2.34 23.32 2 24 C0 21 0 21 0 17 C-0.66 17 -1.32 17 -2 17 C-2.25394531 16.43410156 -2.50789063 15.86820313 -2.76953125 15.28515625 C-3.11371094 14.55167969 -3.45789062 13.81820312 -3.8125 13.0625 C-4.14894531 12.33160156 -4.48539063 11.60070312 -4.83203125 10.84765625 C-6 9 -6 9 -9 8 C-9.33 7.01 -9.66 6.02 -10 5 C-8.02 5.66 -6.04 6.32 -4 7 C-4 7.66 -4 8.32 -4 9 C-3.34 8.67 -2.68 8.34 -2 8 C-2 6.68 -2 5.36 -2 4 C-5.75 2.875 -5.75 2.875 -8 4 C-8.66 2.35 -9.32 0.7 -10 -1 C-6.15733512 -2.47794803 -3.74939537 -1.40602326 0 0 Z " fill="#4A4A3C" transform="translate(50,52)" />
<path d="M0 0 C0 0.66 0 1.32 0 2 C0.99 2.33 1.98 2.66 3 3 C4.50910969 7.52732908 4.57411241 11.34942683 3 15.875 C0.4207622 18.61544017 -1.42045093 18.77296364 -5.0625 19.15234375 C-7 19 -7 19 -10 17 C-10.70381157 15.01276732 -11.3711811 13.01222047 -12 11 C-12.66 10.34 -13.32 9.68 -14 9 C-13.84066761 5.97268465 -13.14986563 4.23104284 -11.5 1.6875 C-7.79612992 -0.8126123 -4.34139932 -0.33395379 0 0 Z " fill="#6D6550" transform="translate(61,29)" />
<path d="M0 0 C3.41919316 1.81441329 6.05340186 3.82641903 7.91015625 7.23046875 C9.95900791 14.1220607 8.80247999 20.48906541 6.91015625 27.23046875 C4.93015625 27.56046875 2.95015625 27.89046875 0.91015625 28.23046875 C1.43284091 25.46770698 2.01885212 22.90438115 2.91015625 20.23046875 C2.97914725 18.16901768 2.99483352 16.10545474 2.97265625 14.04296875 C2.96363281 12.95628906 2.95460938 11.86960937 2.9453125 10.75 C2.93371094 9.91855469 2.92210938 9.08710938 2.91015625 8.23046875 C2.25015625 8.23046875 1.59015625 8.23046875 0.91015625 8.23046875 C0.91015625 7.57046875 0.91015625 6.91046875 0.91015625 6.23046875 C-0.40984375 5.90046875 -1.72984375 5.57046875 -3.08984375 5.23046875 C-3.08984375 4.57046875 -3.08984375 3.91046875 -3.08984375 3.23046875 C-6.96130365 2.98850251 -10.35778062 3.12014328 -14.08984375 4.23046875 C-17.34384974 7.20107764 -19.73845204 10.5180996 -22.08984375 14.23046875 C-22.68359375 12.4140625 -22.68359375 12.4140625 -23.08984375 10.23046875 C-18.37228975 0.9919255 -10.17944114 -3.74831758 0 0 Z " fill="#A6A99D" transform="translate(63.08984375,20.76953125)" />
<path d="M0 0 C1.32 0 2.64 0 4 0 C5.34277732 2.7663534 6.67255228 5.53876211 8 8.3125 C8.3815625 9.09818359 8.763125 9.88386719 9.15625 10.69335938 C9.5171875 11.45068359 9.878125 12.20800781 10.25 12.98828125 C10.58515625 13.68477783 10.9203125 14.38127441 11.265625 15.09887695 C12 17 12 17 12 20 C9.36 20.66 6.72 21.32 4 22 C4 22.66 4 23.32 4 24 C2.35 23.67 0.7 23.34 -1 23 C-1 22.34 -1 21.68 -1 21 C-1.66 20.34 -2.32 19.68 -3 19 C-2.34 19 -1.68 19 -1 19 C-0.90523524 14.45129145 -0.92260414 10.06609696 -1.625 5.5625 C-1.74875 4.386875 -1.8725 3.21125 -2 2 C-1.34 1.34 -0.68 0.68 0 0 Z " fill="#5B5A44" transform="translate(40,62)" />
<path d="M0 0 C0.66 1.32 1.32 2.64 2 4 C1.01 4.33 0.02 4.66 -1 5 C-4.25447654 9.88171481 -3.57831914 15.29254087 -3 21 C-1.97835899 23.79987465 -0.77578951 25.54523215 1 28 C1.33 28.763125 1.66 29.52625 2 30.3125 C3.33399256 32.56361245 4.62089826 32.9068992 7 34 C8.04573509 34.82822219 9.08691738 35.66220626 10.125 36.5 C16.2079929 40.89327265 23.66377884 41.68376308 30.9609375 40.5234375 C34.42662425 39.63377845 36.40456396 38.47184385 39 36 C39.97220653 33.69459887 40.66837404 31.45332536 41.26171875 29.0234375 C42 27 42 27 45 25 C45.51171875 22.20703125 45.51171875 22.20703125 45.6875 18.8125 C45.75195312 17.64976563 45.81640625 16.48703125 45.8828125 15.2890625 C46.00533567 11.85024556 46.07999271 8.43968653 46 5 C46.99 4.67 47.98 4.34 49 4 C49.165 4.165 49.165 4.165 50 5 C49.73132518 7.68970068 49.40151111 10.32963247 49 13 C48.89993652 13.67434082 48.79987305 14.34868164 48.69677734 15.04345703 C48.38371544 17.05444839 48.03941064 19.05797033 47.6875 21.0625 C47.58244141 21.73087891 47.47738281 22.39925781 47.36914062 23.08789062 C45.96373285 30.99042941 42.46990849 36.28235839 36 41 C30.23310039 44.557503 22.63680712 43.81390301 16.2421875 42.3828125 C6.72707368 39.01225494 -0.53849924 31.98275377 -5 23 C-6.81814751 17.54555746 -6.76961363 11.97900648 -4.6875 6.625 C-3.21117971 4.32850177 -1.71527868 2.12367836 0 0 Z " fill="#38321B" transform="translate(24,48)" />
<path d="M0 0 C0.99 0 1.98 0 3 0 C3.33 1.32 3.66 2.64 4 4 C3.34 4 2.68 4 2 4 C2.495 4.70125 2.99 5.4025 3.5 6.125 C5.1936681 9.37119719 5.25162315 11.39340156 5 15 C6.99541868 15.68025637 8.99617991 16.34490497 11 17 C11.7425 17.2475 12.485 17.495 13.25 17.75 C13.8275 17.8325 14.405 17.915 15 18 C15.66 17.34 16.32 16.68 17 16 C18.9453125 15.3671875 18.9453125 15.3671875 21.125 14.875 C22.40375 14.58625 23.6825 14.2975 25 14 C25 14.66 25 15.32 25 16 C26.32 15.67 27.64 15.34 29 15 C29 15.66 29 16.32 29 17 C28.01 17 27.02 17 26 17 C26 17.66 26 18.32 26 19 C25.67 19.165 25.67 19.165 24 20 C23.375 22.0625 23.375 22.0625 23 24 C22.34 24 21.68 24 21 24 C21 22.68 21 21.36 21 20 C19.25 19.375 19.25 19.375 17 19 C16.38769531 19.35964844 15.77539062 19.71929687 15.14453125 20.08984375 C13 21 13 21 10.74609375 20.41796875 C6.16136594 17.9743321 3.60351612 16.24962589 1.9375 11.1875 C1.59111292 9.79968772 1.26637636 8.40536493 1 7 C0.01 7 -0.98 7 -2 7 C-2 6.34 -2 5.68 -2 5 C-3.98 5.99 -5.96 6.98 -8 8 C-7.34 6.68 -6.68 5.36 -6 4 C-4.35 4 -2.7 4 -1 4 C-0.67 2.68 -0.34 1.36 0 0 Z " fill="#878370" transform="translate(39,33)" />
<path d="M0 0 C2.0625 0.4375 2.0625 0.4375 4 1 C5.22743682 7.38267148 5.22743682 7.38267148 4.125 10.375 C3 12 3 12 2 13 C1.443125 13.825 0.88625 14.65 0.3125 15.5 C-2 18 -2 18 -5.125 18.9375 C-5.599375 18.9478125 -5.599375 18.9478125 -8 19 C-8.66 18.34 -9.32 17.68 -10 17 C-7.36 16.34 -4.72 15.68 -2 15 C-2.22816406 14.44570312 -2.45632812 13.89140625 -2.69140625 13.3203125 C-2.83513672 12.95808594 -2.83513672 12.95808594 -3.5625 11.125 C-3.85253906 10.40570313 -4.14257812 9.68640625 -4.44140625 8.9453125 C-5 7 -5 7 -4 5 C-3.34 5 -2.68 5 -2 5 C-1.67 4.34 -1.34 3.68 -1 3 C-1 3.66 -1 4.32 -1 5 C0.32 5 1.64 5 3 5 C3 4.01 3 3.02 3 2 C1.68 1.67 0.36 1.34 -1 1 C-0.67 0.67 -0.34 0.34 0 0 Z " fill="#4B4938" transform="translate(57,69)" />
<path d="M0 0 C3.32532111 2.69192661 4.52454943 6.06546515 6 10 C6 10.99 6 11.98 6 13 C2.52674819 14.1577506 -0.36067448 14.06866652 -4 14 C-4.33 11.03 -4.66 8.06 -5 5 C-4.34 5.66 -3.68 6.32 -3 7 C-2.690625 6.030625 -2.38125 5.06125 -2.0625 4.0625 C-1 1 -1 1 0 0 Z " fill="#676451" transform="translate(46,69)" />
<path d="M0 0 C0.66 0 1.32 0 2 0 C2 0.99 2 1.98 2 3 C2.66 3 3.32 3 4 3 C4.18434392 8.3459737 3.71720763 11.89906958 2 17 C1.6005985 19.22150771 1.24652294 21.45162816 0.9375 23.6875 C0.48100969 26.9583851 0.04497966 29.86506101 -1 33 C-1.66 33 -2.32 33 -3 33 C-4.22317564 29.33047308 -3.29579798 28.39576515 -1.74755859 25.04638672 C-0.38756337 21.32349974 -0.42327336 17.49020683 -0.3125 13.5625 C-0.27833984 12.73556641 -0.24417969 11.90863281 -0.20898438 11.05664062 C-0.12731379 9.03821056 -0.06196276 7.01913116 0 5 C-0.66 5 -1.32 5 -2 5 C-2.33 5.66 -2.66 6.32 -3 7 C-2.67 5.35 -2.34 3.7 -2 2 C-1.34 2 -0.68 2 0 2 C0 1.34 0 0.68 0 0 Z " fill="#6F6C55" transform="translate(65,50)" />
<path d="M0 0 C2.25 0.75 2.25 0.75 4 1 C4.66 0.34 5.32 -0.32 6 -1 C6.99 -0.67 7.98 -0.34 9 0 C9.33 1.65 9.66 3.3 10 5 C9.34 4.34 8.68 3.68 8 3 C7.67 4.65 7.34 6.3 7 8 C6.01 8 5.02 8 4 8 C4 7.34 4 6.68 4 6 C2.68 6 1.36 6 0 6 C-0.33 4.68 -0.66 3.36 -1 2 C-1.33 2.66 -1.66 3.32 -2 4 C-2.61875 3.814375 -3.2375 3.62875 -3.875 3.4375 C-6 3 -6 3 -8 4 C-8.66 2.35 -9.32 0.7 -10 -1 C-6.15733512 -2.47794803 -3.74939537 -1.40602326 0 0 Z " fill="#5F5E4B" transform="translate(50,52)" />
<path d="M0 0 C0.66 0.33 1.32 0.66 2 1 C1.3567229 6.38068227 0.62453417 11.7250291 -0.3125 17.0625 C-0.3650293 17.39668945 -0.3650293 17.39668945 -0.63085938 19.08789062 C-2.0439254 27.03349139 -5.57374715 32.18031037 -12 37 C-12.66 36.67 -13.32 36.34 -14 36 C-13.236875 35.525625 -12.47375 35.05125 -11.6875 34.5625 C-8.50008534 31.52333719 -7.84121577 29.19747981 -6.7734375 25.0234375 C-6 23 -6 23 -3 21 C-2.48828125 18.20703125 -2.48828125 18.20703125 -2.3125 14.8125 C-2.24804688 13.64976563 -2.18359375 12.48703125 -2.1171875 11.2890625 C-1.99466433 7.85024556 -1.92000729 4.43968653 -2 1 C-1.34 0.67 -0.68 0.34 0 0 Z " fill="#36301A" transform="translate(72,52)" />
<path d="M0 0 C1.5 1.375 1.5 1.375 3 3 C3 3.66 3 4.32 3 5 C3.66 5 4.32 5 5 5 C5.83739781 7.1234016 6.66980283 9.2487728 7.5 11.375 C7.9640625 12.55835937 8.428125 13.74171875 8.90625 14.9609375 C10 18 10 18 10 20 C6.91111478 22.05925681 6.29064073 22.2390374 2.8125 22.125 C1.554375 22.08375 0.29625 22.0425 -1 22 C-1 21.34 -1 20.68 -1 20 C1.90600261 18.74335022 3.79604584 18 7 18 C6.4946875 16.86820313 5.989375 15.73640625 5.46875 14.5703125 C4.81230711 13.08862711 4.15606763 11.60685159 3.5 10.125 C3.16613281 9.37863281 2.83226562 8.63226563 2.48828125 7.86328125 C2.17246094 7.14785156 1.85664062 6.43242188 1.53125 5.6953125 C1.23798828 5.03547363 0.94472656 4.37563477 0.64257812 3.69580078 C0 2 0 2 0 0 Z " fill="#1B1B0C" transform="translate(45,64)" />
<path d="M0 0 C0 0.66 0 1.32 0 2 C0.99 1.67 1.98 1.34 3 1 C5.47785723 4.66291938 6.48964169 7.6109185 7 12 C4 11 4 11 2 10 C2 8.68 2 7.36 2 6 C1.236875 6.061875 0.47375 6.12375 -0.3125 6.1875 C-3 6 -3 6 -4.8125 4.5 C-5.204375 4.005 -5.59625 3.51 -6 3 C-2.25 0 -2.25 0 0 0 Z " fill="#7A7660" transform="translate(37,38)" />
<path d="M0 0 C0 0.66 0 1.32 0 2 C-0.6290625 2.02835938 -1.258125 2.05671875 -1.90625 2.0859375 C-6.38494336 2.58506899 -9.1313192 3.16184792 -12.4453125 6.359375 C-14.40647935 8.84773724 -16.25413194 11.35681427 -18 14 C-18.6015625 12.1875 -18.6015625 12.1875 -19 10 C-14.18261529 1.10636669 -9.6395347 -0.67383155 0 0 Z " fill="#CACBC5" transform="translate(59,21)" />
<path d="M0 0 C1.32 0.33 2.64 0.66 4 1 C4 1.66 4 2.32 4 3 C4.3196875 3.0515625 4.3196875 3.0515625 5.9375 3.3125 C6.618125 3.539375 7.29875 3.76625 8 4 C8.33 4.99 8.66 5.98 9 7 C8.67 7.66 8.34 8.32 8 9 C9.65 7.68 11.3 6.36 13 5 C13.33 6.65 13.66 8.3 14 10 C11.3125 10.8125 11.3125 10.8125 8 11 C5.3125 8.8125 5.3125 8.8125 3 6 C2.401875 5.278125 1.80375 4.55625 1.1875 3.8125 C0 2 0 2 0 0 Z " fill="#524F3C" transform="translate(21,70)" />
<path d="M0 0 C2.89672562 2.89672562 2.9099415 5.09941498 3.3125 9.125 C2.90843047 14.13546221 1.50718285 18.62291155 -1 23 C-1.99 23.33 -2.98 23.66 -4 24 C-3.67 22.35 -3.34 20.7 -3 19 C-2.34 19 -1.68 19 -1 19 C-0.83168225 16.58343806 -0.66528738 14.16676951 -0.5 11.75 C-0.47615234 11.40904297 -0.47615234 11.40904297 -0.35546875 9.68359375 C-0.13521281 6.44268497 0 3.2506634 0 0 Z " fill="#46483D" transform="translate(71,29)" />
<path d="M0 0 C0.66 0 1.32 0 2 0 C3.32630565 4.14470514 3.98384711 9.03230578 2 13 C0.0625 12.6875 0.0625 12.6875 -2 12 C-3.15957207 8.52128379 -2.77456651 7.65780355 -1.5625 4.3125 C-1.41876953 3.90837891 -1.41876953 3.90837891 -0.69140625 1.86328125 C-0.46324219 1.24839844 -0.23507813 0.63351563 0 0 Z " fill="#050501" transform="translate(37,68)" />
<path d="M0 0 C3.10847208 1.97295717 5.5611571 4.2527152 8 7 C7.34 7.66 6.68 8.32 6 9 C5.2575 8.21625 4.515 7.4325 3.75 6.625 C-0.11175908 2.93877542 -2.66107991 1.71744561 -8 1.75 C-8.845625 1.74484375 -9.69125 1.7396875 -10.5625 1.734375 C-13.13478811 2.01468845 -14.7803108 2.7051813 -17 4 C-16.1875 2.0625 -16.1875 2.0625 -15 0 C-9.99571922 -1.66809359 -5.09979859 -1.18973864 0 0 Z " fill="#343121" transform="translate(64,19)" />
<path d="M0 0 C0.99 0.33 1.98 0.66 3 1 C3 2.32 3 3.64 3 5 C2.01 5.66 1.02 6.32 0 7 C0.33 7.66 0.66 8.32 1 9 C0.67 9.99 0.34 10.98 0 12 C-0.66 12 -1.32 12 -2 12 C-2 10.68 -2 9.36 -2 8 C-2.66 8 -3.32 8 -4 8 C-4.33 6.02 -4.66 4.04 -5 2 C-4.175 2.165 -4.175 2.165 0 3 C0 2.01 0 1.02 0 0 Z " fill="#434233" transform="translate(29,53)" />
<path d="M0 0 C0.33 0.66 0.66 1.32 1 2 C2.32 1.67 3.64 1.34 5 1 C5 1.66 5 2.32 5 3 C4.01 3 3.02 3 2 3 C2 3.66 2 4.32 2 5 C1.67 5.165 1.67 5.165 0 6 C-0.625 8.0625 -0.625 8.0625 -1 10 C-1.66 10 -2.32 10 -3 10 C-3 8.68 -3 7.36 -3 6 C-3.99 5.67 -4.98 5.34 -6 5 C-6.33 4.01 -6.66 3.02 -7 2 C-4.69 1.34 -2.38 0.68 0 0 Z " fill="#79765F" transform="translate(63,47)" />
<path d="M0 0 C3.288638 2.86429761 4.59452899 4.64118669 5 9 C5.30772873 14.43654086 4.45586713 18.81347335 3 24 C2.34 24 1.68 24 1 24 C1.66 18.06 2.32 12.12 3 6 C2.34 6 1.68 6 1 6 C0.67 4.02 0.34 2.04 0 0 Z " fill="#7A7F76" transform="translate(67,24)" />
<path d="M0 0 C2.6015625 -0.29296875 2.6015625 -0.29296875 5.625 -0.1875 C6.12644531 -0.17396484 6.12644531 -0.17396484 8.6640625 -0.10546875 C9.43492188 -0.07066406 10.20578125 -0.03585938 11 0 C11 0.66 11 1.32 11 2 C12.32 2.33 13.64 2.66 15 3 C15 3.66 15 4.32 15 5 C15.66 5 16.32 5 17 5 C16.67 6.32 16.34 7.64 16 9 C15.34 7.35 14.68 5.7 14 4 C8.65097076 3.40801257 3.39115154 2.85812759 -2 3 C-1.34 2.01 -0.68 1.02 0 0 Z " fill="#5C5F57" transform="translate(49,24)" />
<path d="M0 0 C3.3 0 6.6 0 10 0 C10.66 1.32 11.32 2.64 12 4 C12.66 4 13.32 4 14 4 C14.33 5.32 14.66 6.64 15 8 C13.02 7.34 11.04 6.68 9 6 C9 5.34 9 4.68 9 4 C6.69 4 4.38 4 2 4 C2 3.67 2 3.34 2 3 C3.98 3 5.96 3 8 3 C8 2.34 8 1.68 8 1 C5.36 1 2.72 1 0 1 C0 0.67 0 0.34 0 0 Z " fill="#A8AAA4" transform="translate(51,20)" />
<path d="M0 0 C1.25099616 2.25179309 2.0147711 4.07754828 2.5 6.625 C3 9 3 9 5 11 C3.02 11.33 1.04 11.66 -1 12 C-1 11.34 -1 10.68 -1 10 C-1.33 10.165 -1.33 10.165 -3 11 C-3.33 8.69 -3.66 6.38 -4 4 C-3.34 4.66 -2.68 5.32 -2 6 C-1.34 4.02 -0.68 2.04 0 0 Z " fill="#605D48" transform="translate(45,70)" />
<path d="M0 0 C0.66 0.33 1.32 0.66 2 1 C1.22602467 7.70778622 0.14231412 14.34574301 -1 21 C-1.33 21 -1.66 21 -2 21 C-2 14.4 -2 7.8 -2 1 C-1.34 0.67 -0.68 0.34 0 0 Z " fill="#26210E" transform="translate(72,52)" />
<path d="M0 0 C0.825 0.33 0.825 0.33 5 2 C5.33 4.31 5.66 6.62 6 9 C6.66 9 7.32 9 8 9 C7.67 9.99 7.34 10.98 7 12 C6.67 11.67 6.34 11.34 6 11 C6 13.64 6 16.28 6 19 C5.67 19 5.34 19 5 19 C4.67 15.37 4.34 11.74 4 8 C3.34 8 2.68 8 2 8 C2.33 6.35 2.66 4.7 3 3 C2.34 3 1.68 3 1 3 C0.67 2.01 0.34 1.02 0 0 Z " fill="#979A8F" transform="translate(62,21)" />
<path d="M0 0 C0.33 0 0.66 0 1 0 C1.33 2.97 1.66 5.94 2 9 C3.32 9.33 4.64 9.66 6 10 C5.34 10 4.68 10 4 10 C4 10.66 4 11.32 4 12 C2.35 11.67 0.7 11.34 -1 11 C-1 10.34 -1 9.68 -1 9 C-1.66 8.34 -2.32 7.68 -3 7 C-2.34 7 -1.68 7 -1 7 C-0.67 4.69 -0.34 2.38 0 0 Z " fill="#474330" transform="translate(40,74)" />
<path d="M0 0 C0.5625 1.9375 0.5625 1.9375 1 4 C0.67 4.33 0.34 4.66 0 5 C-0.3931648 6.67884238 -0.74085452 8.36850045 -1.0625 10.0625 C-1.15080078 10.52205078 -1.15080078 10.52205078 -1.59765625 12.84765625 C-1.66404297 13.20279297 -1.66404297 13.20279297 -2 15 C-3.5 13.625 -3.5 13.625 -5 12 C-5 11.34 -5 10.68 -5 10 C-4.34 10 -3.68 10 -3 10 C-3.0309375 9.54625 -3.0309375 9.54625 -3.1875 7.25 C-2.98327924 3.71017358 -2.35448165 2.55068845 0 0 Z " fill="#4C4C44" transform="translate(46,27)" />
<path d="M0 0 C0.33 0 0.66 0 1 0 C1.05449838 1.72880982 1.09301688 3.45812712 1.125 5.1875 C1.14820312 6.15042969 1.17140625 7.11335938 1.1953125 8.10546875 C0.9913544 11.12812778 0.26874632 13.26769985 -1 16 C-1.33 16 -1.66 16 -2 16 C-2.20674944 10.21101581 -1.59162079 5.57067277 0 0 Z " fill="#62604A" transform="translate(64,62)" />
<path d="M0 0 C2.0625 0.4375 2.0625 0.4375 4 1 C4 2.98 4 4.96 4 7 C2.35 7.66 0.7 8.32 -1 9 C-1 7.68 -1 6.36 -1 5 C0.32 5 1.64 5 3 5 C3 4.01 3 3.02 3 2 C1.68 1.67 0.36 1.34 -1 1 C-0.67 0.67 -0.34 0.34 0 0 Z " fill="#393828" transform="translate(57,69)" />
<path d="M0 0 C0.33 0 0.66 0 1 0 C1.22577402 5.4185766 0.46670113 9.77487721 -1 15 C-1.33 15 -1.66 15 -2 15 C-3.1875 11.75 -3.1875 11.75 -4 8 C-2.6875 5.8125 -2.6875 5.8125 -1 4 C-0.3125 1.75 -0.3125 1.75 0 0 Z " fill="#575540" transform="translate(64,55)" />
<path d="M0 0 C0.99 0 1.98 0 3 0 C1.66958425 8.35010941 1.66958425 8.35010941 -1.125 11.0625 C-1.74375 11.371875 -2.3625 11.68125 -3 12 C-2.67 11.46375 -2.34 10.9275 -2 10.375 C-0.77270033 7.46016327 -0.93182771 5.13592513 -1 2 C-0.67 1.34 -0.34 0.68 0 0 Z " fill="#4E4731" transform="translate(28,36)" />
<path d="M0 0 C0.33 0 0.66 0 1 0 C1.33 2.97 1.66 5.94 2 9 C3.65 9 5.3 9 7 9 C7 9.66 7 10.32 7 11 C4.625 11.625 4.625 11.625 2 12 C0 10 0 10 -0.1953125 7.6171875 C-0.17210938 6.71226563 -0.14890625 5.80734375 -0.125 4.875 C-0.10695313 3.96492188 -0.08890625 3.05484375 -0.0703125 2.1171875 C-0.04710938 1.41851562 -0.02390625 0.71984375 0 0 Z " fill="#6B6952" transform="translate(20,59)" />
<path d="M0 0 C0.33 0 0.66 0 1 0 C1 2.31 1 4.62 1 7 C0.01 7.33 -0.98 7.66 -2 8 C-2 7.34 -2 6.68 -2 6 C-2.99 6 -3.98 6 -5 6 C-4.34 4.68 -3.68 3.36 -3 2 C-2.01 2.33 -1.02 2.66 0 3 C0 2.01 0 1.02 0 0 Z " fill="#3B3A2C" transform="translate(48,53)" />
<path d="M0 0 C0.66 0 1.32 0 2 0 C1 3 1 3 -0.671875 3.94921875 C-4.56333025 5.33170943 -7.80183483 6.39357798 -12 6 C-7.82050327 3.21366885 -5.06624674 2 0 2 C0 1.34 0 0.68 0 0 Z " fill="#69654F" transform="translate(60,84)" />
<path d="M0 0 C0.99 0 1.98 0 3 0 C5.5654594 2.5654594 5.54046087 4.47686668 6 8 C3 7 3 7 1 6 C0.375 2.9375 0.375 2.9375 0 0 Z " fill="#6A6753" transform="translate(38,42)" />
<path d="M0 0 C0.99 0.33 1.98 0.66 3 1 C3.33 3.31 3.66 5.62 4 8 C3.01 8 2.02 8 1 8 C0.67 5.36 0.34 2.72 0 0 Z " fill="#161305" transform="translate(44,39)" />
<path d="M0 0 C0.99 0.66 1.98 1.32 3 2 C1.35 4.31 -0.3 6.62 -2 9 C-3 5 -3 5 -1.5625 2.25 C-1.046875 1.5075 -0.53125 0.765 0 0 Z " fill="#A8ACA3" transform="translate(43,26)" />
<path d="M0 0 C0 0.66 0 1.32 0 2 C-2.65228812 3.07525194 -5.28368454 4.09456151 -8 5 C-8.33 4.01 -8.66 3.02 -9 2 C-5.62902617 0.50178941 -3.79557881 0 0 0 Z " fill="#26261B" transform="translate(57,26)" />
<path d="M0 0 C0.33 0.99 0.66 1.98 1 3 C1.66 2.34 2.32 1.68 3 1 C3 1.99 3 2.98 3 4 C0.625 5.75 0.625 5.75 -2 7 C-2.66 6.67 -3.32 6.34 -4 6 C-2.68 4.02 -1.36 2.04 0 0 Z " fill="#36392A" transform="translate(30,65)" />
<path d="M0 0 C0.99 0.33 1.98 0.66 3 1 C3 3.64 3 6.28 3 9 C2.67 9.165 2.67 9.165 1 10 C0 2.25 0 2.25 0 0 Z " fill="#787660" transform="translate(66,52)" />
<path d="M0 0 C0.33 0 0.66 0 1 0 C1 1.98 1 3.96 1 6 C1.66 6.33 2.32 6.66 3 7 C1.35 7.33 -0.3 7.66 -2 8 C-3.125 4.25 -3.125 4.25 -2 2 C-1.34 2 -0.68 2 0 2 C0 1.34 0 0.68 0 0 Z " fill="#404133" transform="translate(55,72)" />
<path d="M0 0 C1.8125 0.0625 1.8125 0.0625 4 1 C5.75 4.5625 5.75 4.5625 7 8 C3.64379729 6.61122646 1.92701272 5.08322035 0 2 C0 1.34 0 0.68 0 0 Z " fill="#5E5944" transform="translate(21,70)" />
<path d="M0 0 C0.99 0.33 1.98 0.66 3 1 C3 2.32 3 3.64 3 5 C1.35 5.33 -0.3 5.66 -2 6 C-2 5.34 -2 4.68 -2 4 C-1.34 4 -0.68 4 0 4 C0 2.68 0 1.36 0 0 Z " fill="#323224" transform="translate(29,53)" />
<path d="M0 0 C0.33 0.66 0.66 1.32 1 2 C2.32 1.67 3.64 1.34 5 1 C5 1.66 5 2.32 5 3 C4.01 3 3.02 3 2 3 C1.67 3.66 1.34 4.32 1 5 C-0.98 4.34 -2.96 3.68 -5 3 C-2 1 -2 1 0 0 Z " fill="#82806C" transform="translate(63,47)" />
<path d="M0 0 C0.66 0 1.32 0 2 0 C0.50902342 3.7952131 -1.75700849 5.61042731 -5 8 C-5.66 7.67 -6.32 7.34 -7 7 C-6.21625 6.401875 -5.4325 5.80375 -4.625 5.1875 C-2 3 -2 3 0 0 Z " fill="#2D270E" transform="translate(65,81)" />
<path d="M0 0 C0.99 0.33 1.98 0.66 3 1 C3.33 2.65 3.66 4.3 4 6 C3.34 5.34 2.68 4.68 2 4 C1.67 4.165 1.67 4.165 0 5 C0 4.34 0 3.68 0 3 C-0.66 2.67 -1.32 2.34 -2 2 C-1.34 1.34 -0.68 0.68 0 0 Z " fill="#676550" transform="translate(56,51)" />
<path d="M0 0 C0.66 0.33 1.32 0.66 2 1 C2.625 3.0625 2.625 3.0625 3 5 C2.175 5.495 2.175 5.495 -2 8 C-1.33333333 5.33333333 -0.66666667 2.66666667 0 0 Z " fill="#383830" transform="translate(47,27)" />
</svg>