<?xml version='1.0' encoding='utf-8'?>
<svg xmlns="http://www.w3.org/2000/svg" version="1.1" width="91" height="98">
<path d="M0 0 C0.79019531 0.03609375 1.58039062 0.0721875 2.39453125 0.109375 C2.69037109 0.13257812 2.69037109 0.13257812 4.1875 0.25 C4.30867188 0.54583984 4.30867188 0.54583984 4.921875 2.04296875 C9.53739648 12.92494824 9.53739648 12.92494824 14.1875 15.25 C15.72773996 15.31950541 17.27084988 15.33452357 18.8125 15.3125 C19.62976562 15.30347656 20.44703125 15.29445313 21.2890625 15.28515625 C21.91554687 15.27355469 22.54203125 15.26195312 23.1875 15.25 C25.59169714 20.05839429 26.92747531 22.92132561 25.1875 28.25 C23.72183264 31.06387707 22.19491273 33.78607285 20.1875 36.25 C19.5275 36.25 18.8675 36.25 18.1875 36.25 C17.95675781 36.80429688 17.72601563 37.35859375 17.48828125 37.9296875 C15.83211599 40.88392823 13.76299238 42.97626703 11.375 45.375 C10.52292969 46.24382812 9.67085937 47.11265625 8.79296875 48.0078125 C5.50270995 50.83930957 2.72296939 51.96433128 -1.5 52.75 C-11.23054133 51.28123904 -18.38438964 43.38418718 -24.52734375 36.26171875 C-26.45628484 33.24225169 -26.09994239 31.25298235 -25.57421875 27.8046875 C-22.79257904 18.47549586 -10.94340187 -0.65333743 0 0 Z " fill="#CBD2C4" transform="translate(42.8125,28.75)" />
<path d="M0 0 C2.4517856 1.84572624 3.6825128 3.42282664 4.73828125 6.30859375 C4.42578125 8.99609375 4.42578125 8.99609375 3.73828125 11.30859375 C3.73828125 13.30859375 3.73828125 13.30859375 4.73828125 16.05859375 C5.74821188 19.34086829 5.90058217 21.90027446 5.73828125 25.30859375 C5.40828125 25.30859375 5.07828125 25.30859375 4.73828125 25.30859375 C4.51140625 24.23609375 4.28453125 23.16359375 4.05078125 22.05859375 C2.56967663 17.82686626 1.62590089 16.46838244 -2.26171875 14.30859375 C-6.54741675 13.69635118 -8.48806275 13.80403549 -12.13671875 16.18359375 C-14.60884405 18.65571905 -15.16677854 19.61236555 -15.63671875 23.05859375 C-15.03854229 28.24278975 -11.88429334 30.99299273 -7.94921875 34.18359375 C-7.39234375 34.55484375 -6.83546875 34.92609375 -6.26171875 35.30859375 C-11.8146838 34.51531303 -15.42464995 32.4610887 -19.07421875 28.24609375 C-21.26171875 25.30859375 -21.26171875 25.30859375 -21.26171875 23.30859375 C-21.92171875 23.30859375 -22.58171875 23.30859375 -23.26171875 23.30859375 C-23.24109375 22.52484375 -23.22046875 21.74109375 -23.19921875 20.93359375 C-23.26171875 18.30859375 -23.26171875 18.30859375 -24.26171875 16.30859375 C-22.96875 13.8828125 -22.96875 13.8828125 -21.07421875 10.99609375 C-20.76806641 10.52365234 -20.76806641 10.52365234 -19.21875 8.1328125 C-14.06411251 0.69408414 -9.06047361 -5.36591155 0 0 Z " fill="#F4F6E9" transform="translate(44.26171875,34.69140625)" />
<path d="M0 0 C2.40419714 4.80839429 3.73997531 7.67132561 2 13 C0.53433264 15.81387707 -0.99258727 18.53607285 -3 21 C-3.66 21 -4.32 21 -5 21 C-5.23074219 21.55429688 -5.46148437 22.10859375 -5.69921875 22.6796875 C-7.35538401 25.63392823 -9.42450762 27.72626703 -11.8125 30.125 C-12.66457031 30.99382812 -13.51664063 31.86265625 -14.39453125 32.7578125 C-17.7985278 35.68718884 -20.50130446 36.8405643 -24.9375 37.3125 C-28.5100034 36.94795884 -30.90223384 35.77015209 -34 34 C-34 33.67 -34 33.34 -34 33 C-31.36 33 -28.72 33 -26 33 C-26 32.34 -26 31.68 -26 31 C-25.34 31 -24.68 31 -24 31 C-24 30.01 -24 29.02 -24 28 C-22.5430145 26.77480765 -21.0797032 25.55570853 -19.57421875 24.390625 C-18 23 -18 23 -16.0625 19.9375 C-13.42976076 16.18784108 -11.03850032 15.0940372 -7 13 C-4.4345406 10.4345406 -4.45953913 8.52313332 -4 5 C-4.99 4.67 -5.98 4.34 -7 4 C-7.33 3.01 -7.66 2.02 -8 1 C-2.25 0 -2.25 0 0 0 Z " fill="#ADB5AA" transform="translate(66,44)" />
<path d="M0 0 C0.37632149 5.14306032 -0.95228446 8.33120856 -3 13 C-3.4054103 15.32189536 -3.76072994 17.65515344 -4 20 C-4.66 20 -5.32 20 -6 20 C-6.25126779 25.52789138 -6.25126779 25.52789138 -5 27.87890625 C-2.99903921 32.12313167 -3.75426691 36.59840975 -5 41 C-7.3305641 44.39082073 -10.07230164 47.12908889 -13 50 C-13.165 50.33 -13.165 50.33 -14 52 C-14.66 52 -15.32 52 -16 52 C-16 52.66 -16 53.32 -16 54 C-16.66 54 -17.32 54 -18 54 C-18 54.66 -18 55.32 -18 56 C-18.66 56 -19.32 56 -20 56 C-20 56.66 -20 57.32 -20 58 C-23.46153846 61 -23.46153846 61 -26 61 C-26 61.66 -26 62.32 -26 63 C-29.25844259 64.6292213 -32.48012026 64.55984551 -36 64 C-39.17790781 62.59523704 -42.08693549 60.88809736 -45 59 C-45 58.34 -45 57.68 -45 57 C-45.29197266 56.86980469 -45.29197266 56.86980469 -46.76953125 56.2109375 C-49.14336694 54.92216506 -50.77514054 53.5249146 -52.6875 51.625 C-53.28949219 51.03976563 -53.89148438 50.45453125 -54.51171875 49.8515625 C-56.10135013 47.87391086 -56.5905426 46.4785821 -57 44 C-56.690625 44.3196875 -56.690625 44.3196875 -55.125 45.9375 C-52.49023246 48.55725462 -49.79058375 51.10265409 -47.0625 53.625 C-46.24910156 54.38039062 -45.43570313 55.13578125 -44.59765625 55.9140625 C-40.65020671 59.08389416 -36.82620384 61.60838326 -31.625 61.125 C-23.80305375 59.91555621 -18.87233826 53.18970366 -14.2265625 47.28515625 C-13.82179687 46.86105469 -13.41703125 46.43695313 -13 46 C-12.34 46 -11.68 46 -11 46 C-10.731875 45.29875 -10.46375 44.5975 -10.1875 43.875 C-9 41 -9 41 -7.3125 38.0625 C-5.75813524 34.43564889 -6.01812089 32.76386993 -7 29 C-7.0928125 28.608125 -7.0928125 28.608125 -7.5625 26.625 C-7.706875 26.08875 -7.85125 25.5525 -8 25 C-10.31 25.33 -12.62 25.66 -15 26 C-15.165 25.67 -15.165 25.67 -16 24 C-15.34 24 -14.68 24 -14 24 C-13.896875 23.401875 -13.79375 22.80375 -13.6875 22.1875 C-12.90175967 19.68741714 -12.03081147 18.62464918 -10 17 C-9.34 17 -8.68 17 -8 17 C-8.2475 16.29875 -8.495 15.5975 -8.75 14.875 C-9.10046134 10.84469458 -7.32013719 9.20724847 -5 6 C-4.25 3.625 -4.25 3.625 -4 2 C-7.91211733 3.15585285 -10.8745041 4.35534962 -14 7 C-15.32 6.34 -16.64 5.68 -18 5 C-17 4 -17 4 -14.4375 3.9375 C-14.0353125 3.9478125 -14.0353125 3.9478125 -12 4 C-12 3.34 -12 2.68 -12 2 C-7.52828892 -0.66173278 -5.06604612 -1.3268216 0 0 Z " fill="#46483B" transform="translate(74,19)" />
<path d="M0 0 C0.99 0.33 1.98 0.66 3 1 C1.49760034 4.61941735 0.17854707 7.7321794 -2 11 C-1.938125 11.804375 -1.87625 12.60875 -1.8125 13.4375 C-1.8434375 13.8603125 -1.8434375 13.8603125 -2 16 C-3.63260714 17.37482707 -5.30225062 18.70647667 -7 20 C-8.3125 22.75 -8.3125 22.75 -9 25 C-13.91692633 23.84307616 -15.96232947 20.91389093 -18.86328125 17.0703125 C-20 15 -20 15 -20 11 C-19.05125 10.566875 -18.1025 10.13375 -17.125 9.6875 C-14 8 -14 8 -12 5 C-11.6184375 5.0103125 -11.6184375 5.0103125 -9.6875 5.0625 C-6.0309928 4.97746495 -4.670076 3.38141913 -2 1 C-1.34 0.67 -0.68 0.34 0 0 Z " fill="#D25442" transform="translate(68,20)" />
<path d="M0 0 C3.375 2.0625 3.375 2.0625 6 5 C6.875 8.8125 6.875 8.8125 7 12 C6.67 12.165 6.67 12.165 5 13 C3 12 3 12 1.875 8.9375 C1.58625 7.968125 1.2975 6.99875 1 6 C-4.75 4.875 -4.75 4.875 -7 6 C-7.4140625 7.84765625 -7.4140625 7.84765625 -7.625 10.0625 C-7.686875 10.7121875 -7.686875 10.7121875 -8 14 C-7.175 14.33 -7.175 14.33 -3 16 C-3.66 14.35 -4.32 12.7 -5 11 C-4.01 10.67 -3.02 10.34 -2 10 C-0.35 11.65 1.3 13.3 3 15 C1.84826645 17.46800047 0.95216435 19.04783565 -1 21 C-4.52213404 21.06773335 -6.97616188 20.81193262 -9.79296875 18.578125 C-12.40359746 15.77526472 -13.84138825 13.70654323 -14.6875 9.9375 C-13.72419559 5.82156297 -11.94981618 4.0200499 -9 1 C-5.85088521 -0.57455739 -3.47991184 -0.34799118 0 0 Z " fill="#61B7D6" transform="translate(42,48)" />
<path d="M0 0 C0.41185547 0.00580078 0.41185547 0.00580078 2.49609375 0.03515625 C3.32238281 0.04417969 4.14867187 0.05320312 5 0.0625 C5.63808594 0.07410156 6.27617188 0.08570312 6.93359375 0.09765625 C7.05476563 0.39349609 7.05476563 0.39349609 7.66796875 1.890625 C12.28349023 12.77260449 12.28349023 12.77260449 16.93359375 15.09765625 C17.97866969 18.63483637 18.16394311 20.50898567 16.80859375 23.97265625 C14.93359375 26.09765625 14.93359375 26.09765625 12.24609375 26.41015625 C11.48296875 26.30703125 10.71984375 26.20390625 9.93359375 26.09765625 C8.61359375 23.12765625 7.29359375 20.15765625 5.93359375 17.09765625 C6.59359375 17.09765625 7.25359375 17.09765625 7.93359375 17.09765625 C7.44735522 10.77655533 7.44735522 10.77655533 5.18359375 7.78515625 C2.71406084 5.93300656 0.94684912 4.81509801 -2.06640625 4.09765625 C-5.37890625 4.97265625 -5.37890625 4.97265625 -8.06640625 6.09765625 C-2.06640625 0.09765625 -2.06640625 0.09765625 0 0 Z " fill="#E2DDD6" transform="translate(40.06640625,28.90234375)" />
<path d="M0 0 C0.66 0.33 1.32 0.66 2 1 C0.52307692 7.64615385 0.52307692 7.64615385 -2.125 9.4375 C-2.74375 9.623125 -3.3625 9.80875 -4 10 C-3.6875 11.9375 -3.6875 11.9375 -3 14 C-2.01 14.33 -1.02 14.66 0 15 C-0.165 15.350625 -0.165 15.350625 -1 17.125 C-2.15594797 20.44835041 -2.49916565 22.50584045 -2 26 C0.57959804 29.65443056 3.27676069 32.51784046 7 35 C1.44703495 34.20671928 -2.1629312 32.15249495 -5.8125 27.9375 C-8 25 -8 25 -8 23 C-8.66 23 -9.32 23 -10 23 C-9.979375 22.21625 -9.95875 21.4325 -9.9375 20.625 C-10 18 -10 18 -11 16 C-9.70703125 13.57421875 -9.70703125 13.57421875 -7.8125 10.6875 C-7.50634766 10.21505859 -7.50634766 10.21505859 -5.95703125 7.82421875 C-4.078534 5.1133335 -2.09290485 2.5476824 0 0 Z " fill="#EDEFE1" transform="translate(31,35)" />
<path d="M0 0 C0.34833144 4.87664009 -0.58314288 7.77050005 -3 12 C-3.66 12 -4.32 12 -5 12 C-4.95875 12.4640625 -4.95875 12.4640625 -4.75 14.8125 C-4.8325 15.864375 -4.915 16.91625 -5 18 C-6.29735507 19.04625409 -7.63266972 20.04701223 -9 21 C-9.75 23.6875 -9.75 23.6875 -10 26 C-11.65 26 -13.3 26 -15 26 C-15.33 25.34 -15.66 24.68 -16 24 C-15.34 24 -14.68 24 -14 24 C-13.9484375 23.7009375 -13.9484375 23.7009375 -13.6875 22.1875 C-12.90175967 19.68741714 -12.03081147 18.62464918 -10 17 C-9.34 17 -8.68 17 -8 17 C-8.2475 16.29875 -8.495 15.5975 -8.75 14.875 C-9.10046134 10.84469458 -7.32013719 9.20724847 -5 6 C-4.25 3.625 -4.25 3.625 -4 2 C-7.91211733 3.15585285 -10.8745041 4.35534962 -14 7 C-15.32 6.34 -16.64 5.68 -18 5 C-17 4 -17 4 -14.4375 3.9375 C-14.0353125 3.9478125 -14.0353125 3.9478125 -12 4 C-12 3.34 -12 2.68 -12 2 C-7.52828892 -0.66173278 -5.06604612 -1.3268216 0 0 Z " fill="#901E18" transform="translate(74,19)" />
<path d="M0 0 C0.99 0 1.98 0 3 0 C2.67 1.98 2.34 3.96 2 6 C2.66 6 3.32 6 4 6 C4.66 7.32 5.32 8.64 6 10 C6.66 9.67 7.32 9.34 8 9 C8.70180531 10.4096347 9.38593958 11.82807641 10.0625 13.25 C10.44535156 14.03890625 10.82820313 14.8278125 11.22265625 15.640625 C12.08564091 18.25993522 11.93045933 19.44855176 11 22 C5.79109247 21.329428 3.10049326 17.54000542 -0.19921875 13.78125 C-2.14758057 10.77206646 -2.51774455 9.5062412 -2.125 6 C-1.62491251 3.77738893 -1.01895102 2.03790205 0 0 Z " fill="#DDDDD2" transform="translate(19,52)" />
<path d="M0 0 C2.40419714 4.80839429 3.73997531 7.67132561 2 13 C0.53433264 15.81387707 -0.99258727 18.53607285 -3 21 C-3.66 21 -4.32 21 -5 21 C-5.22816406 21.55300781 -5.45632812 22.10601562 -5.69140625 22.67578125 C-7.37542889 25.66680654 -9.50543242 27.76971769 -11.9375 30.1875 C-12.81277344 31.06792969 -13.68804687 31.94835937 -14.58984375 32.85546875 C-17 35 -17 35 -20 36 C-18.54872961 32.61370242 -16.67349063 30.51146089 -14 28 C-13.46375 27.4225 -12.9275 26.845 -12.375 26.25 C-11 25 -11 25 -9 25 C-8.87625 24.360625 -8.7525 23.72125 -8.625 23.0625 C-8.41875 22.381875 -8.2125 21.70125 -8 21 C-7.34 20.67 -6.68 20.34 -6 20 C-3.37871784 16.06807675 -0.88907635 12.27393478 -1.125 7.4375 C-2.18101415 4.49574628 -3.6646884 3.03398107 -6 1 C-3.92446352 0.4465236 -2.15634036 0 0 0 Z " fill="#7A7E78" transform="translate(66,44)" />
<path d="M0 0 C0.66 0 1.32 0 2 0 C2 0.66 2 1.32 2 2 C2.66 2.33 3.32 2.66 4 3 C1.98769021 7.55417479 -0.14707185 10.80488885 -4 14 C-5.32 14 -6.64 14 -8 14 C-8.309375 14.639375 -8.61875 15.27875 -8.9375 15.9375 C-10 18 -10 18 -11 19 C-17.6 18.4 -17.6 18.4 -20 16 C-17.36 16 -14.72 16 -12 16 C-12 15.34 -12 14.68 -12 14 C-11.34 14 -10.68 14 -10 14 C-10 13.01 -10 12.02 -10 11 C-8.54939534 9.78017336 -7.09286456 8.56594239 -5.59375 7.40625 C-3.94373849 5.95035749 -2.90897425 4.54888289 -1.75 2.6875 C-1.46125 2.2440625 -1.46125 2.2440625 0 0 Z " fill="#B5BCAC" transform="translate(52,61)" />
<path d="M0 0 C2.0625 1.5625 2.0625 1.5625 4 4 C3.75 7.75 3.75 7.75 3 11 C2.690625 11.04125 2.690625 11.04125 1.125 11.25 C-1 12 -1 12 -2.25 14.0625 C-2.4975 14.701875 -2.745 15.34125 -3 16 C-3.84495189 14.92570402 -4.67554858 13.84010798 -5.5 12.75 C-5.9640625 12.14671875 -6.428125 11.5434375 -6.90625 10.921875 C-8 9 -8 9 -8 5 C-7.05125 4.54625 -6.1025 4.0925 -5.125 3.625 C-2 2 -2 2 0 0 Z " fill="#FC8B75" transform="translate(56,26)" />
<path d="M0 0 C0.99 0 1.98 0 3 0 C3.226875 0.78375 3.45375 1.5675 3.6875 2.375 C5 5 5 5 7.625 6.3125 C8.016875 6.4259375 8.016875 6.4259375 10 7 C9.34 5.35 8.68 3.7 8 2 C8.99 1.67 9.98 1.34 11 1 C12.65 2.65 14.3 4.3 16 6 C14.84826645 8.46800047 13.95216435 10.04783565 12 12 C7.72793641 11.91939503 5.51183181 11.38115135 2.0625 8.8125 C-0.33274372 5.54625856 -0.46009282 3.95679828 0 0 Z " fill="#318DB7" transform="translate(29,57)" />
<path d="M0 0 C1.19625 0.165 2.3925 0.33 3.625 0.5 C7.10548715 0.93970567 10.48771488 1.08780713 14 1 C14 1.99 14 2.98 14 4 C13.34 4 12.68 4 12 4 C12 4.99 12 5.98 12 7 C11.34 7 10.68 7 10 7 C10 7.66 10 8.32 10 9 C8.56344146 9.08131463 7.1255517 9.13933559 5.6875 9.1875 C5.28724609 9.20490234 5.28724609 9.20490234 3.26171875 9.29296875 C0.52148416 8.93801608 -0.29171079 8.10633718 -2 6 C-1.34 5.67 -0.68 5.34 0 5 C0 3.35 0 1.7 0 0 Z " fill="#CED1CA" transform="translate(30,68)" />
<path d="M0 0 C2.875 0.6875 2.875 0.6875 3.875 1.6875 C3.91563832 3.35367115 3.917721 5.02138095 3.875 6.6875 C1.565 6.6875 -0.745 6.6875 -3.125 6.6875 C-2.135 8.3375 -1.145 9.9875 -0.125 11.6875 C-1.115 12.0175 -2.105 12.3475 -3.125 12.6875 C-5.3125 11.25 -5.3125 11.25 -7.125 9.6875 C-6.63671875 3.6328125 -6.63671875 3.6328125 -6.125 1.6875 C-3.125 -0.3125 -3.125 -0.3125 0 0 Z " fill="#D3E9E9" transform="translate(40.125,52.3125)" />
<path d="M0 0 C2.97 1.32 5.94 2.64 9 4 C8.34 5.32 7.68 6.64 7 8 C7.9578025 10.35096976 8.96157435 12.68351201 10 15 C10.1875 18.4375 10.1875 18.4375 10 21 C9.67 21 9.34 21 9 21 C8.773125 19.9275 8.54625 18.855 8.3125 17.75 C6.81241314 13.46403753 5.98684942 12.12066459 2 10 C-1.03251497 9.68962515 -3.96444364 9.76191715 -7 10 C-6.34 9.01 -5.68 8.02 -5 7 C-1.375 6.8125 -1.375 6.8125 2 7 C1.67 6.401875 1.34 5.80375 1 5.1875 C0 3 0 3 0 0 Z " fill="#E7F2EA" transform="translate(40,39)" />
<path d="M0 0 C3.36546475 1.94706964 5.35088156 3.79723329 6.8125 7.5 C6.4825 8.16 6.1525 8.82 5.8125 9.5 C5.29300781 9.19964844 4.77351563 8.89929687 4.23828125 8.58984375 C-1.52883791 5.44511149 -1.52883791 5.44511149 -5.1875 5.75 C-5.8475 5.9975 -6.5075 6.245 -7.1875 6.5 C-7.1875 5.51 -7.1875 4.52 -7.1875 3.5 C-7.5175 3.665 -7.5175 3.665 -9.1875 4.5 C-9.5175 3.51 -9.8475 2.52 -10.1875 1.5 C-6.33566152 -1.19628694 -4.23473138 -1.9725551 0 0 Z " fill="#F8FAF4" transform="translate(42.1875,33.5)" />
<path d="M0 0 C0.61875 0.639375 1.2375 1.27875 1.875 1.9375 C4.50976754 4.55725462 7.20941625 7.10265409 9.9375 9.625 C10.34419922 10.00269531 10.34419922 10.00269531 12.40234375 11.9140625 C15.98723887 14.79276023 19.08433821 16.94873581 23.7734375 17.07421875 C24.63195312 16.94660156 25.49046875 16.81898437 26.375 16.6875 C27.24898437 16.56761719 28.12296875 16.44773437 29.0234375 16.32421875 C29.67570312 16.21722656 30.32796875 16.11023438 31 16 C31 16.99 31 17.98 31 19 C27.74155741 20.6292213 24.51987974 20.55984551 21 20 C17.82209219 18.59523704 14.91306451 16.88809736 12 15 C12 14.34 12 13.68 12 13 C11.41605469 12.73960938 10.83210938 12.47921875 10.23046875 12.2109375 C7.85663306 10.92216506 6.22485946 9.5249146 4.3125 7.625 C3.71050781 7.03976563 3.10851562 6.45453125 2.48828125 5.8515625 C0.89864987 3.87391086 0.4094574 2.4785821 0 0 Z " fill="#4D4C40" transform="translate(17,63)" />
<path d="M0 0 C0.34833144 4.87664009 -0.58314288 7.77050005 -3 12 C-4.60080151 7.99799622 -3.29279692 4.95443764 -2 1 C-10.57142857 4 -10.57142857 4 -14 7 C-15.32 6.34 -16.64 5.68 -18 5 C-17 4 -17 4 -14.4375 3.9375 C-14.0353125 3.9478125 -14.0353125 3.9478125 -12 4 C-12 3.34 -12 2.68 -12 2 C-7.52828892 -0.66173278 -5.06604612 -1.3268216 0 0 Z " fill="#613A26" transform="translate(74,19)" />
<path d="M0 0 C0.66 0.33 1.32 0.66 2 1 C1.67 1.66 1.34 2.32 1 3 C0.34 3 -0.32 3 -1 3 C-1.33 3.99 -1.66 4.98 -2 6 C-2.3196875 6.0721875 -2.3196875 6.0721875 -3.9375 6.4375 C-4.618125 6.623125 -5.29875 6.80875 -6 7 C-7 8.8125 -7 8.8125 -8 11 C-9.75 13.25 -9.75 13.25 -12 15 C-15.25 15.25 -15.25 15.25 -18 15 C-17.195625 14.38125 -16.39125 13.7625 -15.5625 13.125 C-13 11 -13 11 -12 9 C-11.38125 8.87625 -10.7625 8.7525 -10.125 8.625 C-7.32605072 7.80177962 -6.65001489 6.32502098 -5 4 C-4.34 4 -3.68 4 -3 4 C-3 3.01 -3 2.02 -3 1 C-2.01 0.67 -1.02 0.34 0 0 Z " fill="#999F97" transform="translate(56,66)" />
<path d="M0 0 C0.99 0.33 1.98 0.66 3 1 C2.48050781 1.36351563 1.96101563 1.72703125 1.42578125 2.1015625 C-3.09730013 5.36219418 -6.62064189 8.56459248 -10 13 C-10.99 11.68 -11.98 10.36 -13 9 C-11 6 -11 6 -8 5 C-8 4.34 -8 3.68 -8 3 C-7.236875 2.87625 -6.47375 2.7525 -5.6875 2.625 C-3 2 -3 2 0 0 Z " fill="#5A5847" transform="translate(37,28)" />
<path d="M0 0 C2.5 1.625 2.5 1.625 5 4 C5.5 7.0625 5.5 7.0625 5 10 C3.5 11.875 3.5 11.875 2 13 C1.01 12.67 0.02 12.34 -1 12 C-1.8125 10.125 -1.8125 10.125 -2 8 C-1.34 7.01 -0.68 6.02 0 5 C0.125 2.3125 0.125 2.3125 0 0 Z " fill="#C6C8B9" transform="translate(57,45)" />
<path d="M0 0 C0.66 0.165 0.66 0.165 4 1 C3.67 1.495 3.67 1.495 2 4 C1.34414507 8.21621025 1.75460862 9.65236221 4.25 13.1875 C6.4220987 15.40896458 8.42622425 17.2841495 11 19 C7.04167177 18.43452454 4.20439321 17.42494621 1 15 C-2.07192706 10.39210941 -0.74638301 5.1944223 0 0 Z " fill="#D2EDEC" transform="translate(27,51)" />
<path d="M0 0 C0.66 0.33 1.32 0.66 2 1 C1.67 1.495 1.67 1.495 0 4 C-1.32 4 -2.64 4 -4 4 C-4.309375 4.639375 -4.61875 5.27875 -4.9375 5.9375 C-6 8 -6 8 -7 9 C-13.6 8.4 -13.6 8.4 -16 6 C-13.36 6 -10.72 6 -8 6 C-8 5.34 -8 4.68 -8 4 C-6.71349294 3.30289269 -5.42059335 2.61757124 -4.125 1.9375 C-3.40570313 1.55464844 -2.68640625 1.17179687 -1.9453125 0.77734375 C-1.62433594 0.64908203 -1.62433594 0.64908203 0 0 Z " fill="#AFB2A5" transform="translate(48,71)" />
<path d="M0 0 C2.85866009 -0.23822167 5.19819084 -0.42775712 8 0 C10.90799783 2.5444981 11.90702057 3.95398137 12.25 7.8125 C12.1675 8.534375 12.085 9.25625 12 10 C11.67 10.165 11.67 10.165 10 11 C9.34 10.67 8.68 10.34 8 10 C7.33333333 8 6.66666667 6 6 4 C5.34 3.67 4.68 3.34 4 3 C4 2.34 4 1.68 4 1 C2.68 0.67 1.36 0.34 0 0 Z " fill="#399CC7" transform="translate(37,50)" />
<path d="M0 0 C0.33 0.66 0.66 1.32 1 2 C0.67 2.495 0.67 2.495 -1 5 C-1.99 5 -2.98 5 -4 5 C-3.649375 6.258125 -3.29875 7.51625 -2.9375 8.8125 C-2.06390515 11.94716388 -1.92760703 12.78282108 -3 16 C-3.84495189 14.92570402 -4.67554858 13.84010798 -5.5 12.75 C-5.9640625 12.14671875 -6.428125 11.5434375 -6.90625 10.921875 C-8 9 -8 9 -8 5 C-7.05125 4.54625 -6.1025 4.0925 -5.125 3.625 C-2 2 -2 2 0 0 Z " fill="#DE8173" transform="translate(56,26)" />
<path d="M0 0 C2.6875 0.3125 2.6875 0.3125 5.0625 2.0625 C5.59875 2.805 6.135 3.5475 6.6875 4.3125 C6.2890625 6.453125 6.2890625 6.453125 5.6875 8.3125 C5.17960937 8.00054687 4.67171875 7.68859375 4.1484375 7.3671875 C-1.54406089 4.14783448 -1.54406089 4.14783448 -5.8125 5.0625 C-6.6375 5.475 -7.4625 5.8875 -8.3125 6.3125 C-2.3125 0.3125 -2.3125 0.3125 0 0 Z " fill="#E7E9E1" transform="translate(40.3125,28.6875)" />
<path d="M0 0 C2.74892592 0.89154354 4.71566361 1.74409725 6.875 3.6875 C8.53583755 7.10144385 7.91952707 9.38757223 7 13 C5.5625 14.6875 5.5625 14.6875 4 16 C2.8125 18.1875 2.8125 18.1875 2 20 C1.01 19.67 0.02 19.34 -1 19 C-0.34 18.67 0.32 18.34 1 18 C1.72159424 16.35636866 2.39351421 14.68949614 3 13 C3.66 13 4.32 13 5 13 C5 10.36 5 7.72 5 5 C4.360625 4.731875 3.72125 4.46375 3.0625 4.1875 C1 3 1 3 0 0 Z " fill="#97A2A0" transform="translate(58,45)" />
<path d="M0 0 C-1.375 2 -1.375 2 -3 4 C-3.66 4 -4.32 4 -5 4 C-5.66 5.32 -6.32 6.64 -7 8 C-7.99 8 -8.98 8 -10 8 C-9.10633592 4.34410148 -8.55523341 2.44133938 -5.5625 0.0625 C-3 -1 -3 -1 0 0 Z " fill="#F08876" transform="translate(71,21)" />
<path d="M0 0 C1.65 0.33 3.3 0.66 5 1 C5.33 2.65 5.66 4.3 6 6 C5.5978125 6.2990625 5.5978125 6.2990625 3.5625 7.8125 C1 10 1 10 0 13 C-1.32 12.67 -2.64 12.34 -4 12 C-3.67 11.01 -3.34 10.02 -3 9 C-2.01 9 -1.02 9 0 9 C0 8.34 0 7.68 0 7 C0.66 6.67 1.32 6.34 2 6 C1.49396008 3.83125748 1.00016187 2.00032373 0 0 Z " fill="#C13B36" transform="translate(60,30)" />
<path d="M0 0 C0.99 0 1.98 0 3 0 C3.268125 0.763125 3.53625 1.52625 3.8125 2.3125 C4.94424112 4.87380884 5.91223401 6.19692938 8 8 C7.34 8.33 7.34 8.33 4 10 C2 8.375 2 8.375 0 6 C-0.25 2.75 -0.25 2.75 0 0 Z " fill="#439DC5" transform="translate(29,57)" />
<path d="M0 0 C0.99 0.33 1.98 0.66 3 1 C2.67 1.495 2.67 1.495 1 4 C0.61500109 5.65549531 0.27206865 7.3222433 0 9 C-1.65 9 -3.3 9 -5 9 C-5.33 8.34 -5.66 7.68 -6 7 C-5.34 7 -4.68 7 -4 7 C-3.896875 6.401875 -3.79375 5.80375 -3.6875 5.1875 C-2.91123545 2.71756736 -1.92911079 1.67748765 0 0 Z " fill="#8F2431" transform="translate(64,36)" />
<path d="M0 0 C0.66 0.33 1.32 0.66 2 1 C1.67 3.31 1.34 5.62 1 8 C0.34 8 -0.32 8 -1 8 C-1.33 9.65 -1.66 11.3 -2 13 C-2.99 13 -3.98 13 -5 13 C-4.75 10.625 -4.75 10.625 -4 8 C-1.9375 6.6875 -1.9375 6.6875 0 6 C0 4.02 0 2.04 0 0 Z " fill="#603333" transform="translate(69,31)" />
<path d="M0 0 C0.33 0.66 0.66 1.32 1 2 C-0.14453125 4.06640625 -0.14453125 4.06640625 -1.8125 6.5625 C-4.84011844 11.38842544 -6.09695228 15.40110413 -7 21 C-7.33 21 -7.66 21 -8 21 C-8.37851209 15.06997733 -7.10575375 10.52760359 -5 5 C-4.34 5 -3.68 5 -3 5 C-3 4.34 -3 3.68 -3 3 C-2.34 3 -1.68 3 -1 3 C-0.67 2.01 -0.34 1.02 0 0 Z " fill="#4A483B" transform="translate(24,42)" />
<path d="M0 0 C0.33 0.495 0.33 0.495 2 3 C2.66 2.01 3.32 1.02 4 0 C4.99 0.33 5.98 0.66 7 1 C6.01 1.33 5.02 1.66 4 2 C4.99 3.65 5.98 5.3 7 7 C6.01 7.33 5.02 7.66 4 8 C1.8125 6.875 1.8125 6.875 0 5 C-0.25 2.3125 -0.25 2.3125 0 0 Z " fill="#C2E8ED" transform="translate(33,57)" />
<path d="M0 0 C0.66 0 1.32 0 2 0 C0.63016497 3.16115776 0.0109362 3.9927092 -3 6 C-4.8125 5.75 -4.8125 5.75 -7 5 C-8.0725 4.649375 -9.145 4.29875 -10.25 3.9375 C-11.1575 3.628125 -12.065 3.31875 -13 3 C-10.24246258 2.04546782 -8.86563982 2.02742044 -5.9375 2.625 C-5.4528125 2.686875 -5.4528125 2.686875 -3 3 C-1.25 1.5625 -1.25 1.5625 0 0 Z " fill="#634434" transform="translate(54,25)" />
<path d="M0 0 C0.66 0 1.32 0 2 0 C2.75 2.75 2.75 2.75 3 6 C1.0625 8.375 1.0625 8.375 -1 10 C-1.125 2.25 -1.125 2.25 0 0 Z " fill="#D6D3C0" transform="translate(55,44)" />
<path d="M0 0 C0.99 0.165 0.99 0.165 6 1 C5.67 1.165 5.67 1.165 4 2 C4 2.66 4 3.32 4 4 C1.03 4 -1.94 4 -5 4 C-4.67 3.34 -4.34 2.68 -4 2 C-2.68 2 -1.36 2 0 2 C0 1.34 0 0.68 0 0 Z " fill="#BDC1BA" transform="translate(36,73)" />
<path d="M0 0 C0.93065133 2.60582371 1.14917407 3.64198224 0.0625 6.25 C-0.1128125 6.53875 -0.1128125 6.53875 -1 8 C-1.99 8 -2.98 8 -4 8 C-4.33 8.66 -4.66 9.32 -5 10 C-5.33 8.35 -5.66 6.7 -6 5 C-5.01 5 -4.02 5 -3 5 C-2.67 4.01 -2.34 3.02 -2 2 C-1.34 2 -0.68 2 0 2 C0 1.34 0 0.68 0 0 Z " fill="#F4705A" transform="translate(59,30)" />
<path d="M0 0 C3.34998521 1.11666174 3.79340222 1.74694925 5.6875 4.5625 C6.12449219 5.20316406 6.56148437 5.84382813 7.01171875 6.50390625 C7.33785156 6.99761719 7.66398437 7.49132813 8 8 C6.35 8 4.7 8 3 8 C0 1.125 0 1.125 0 0 Z " fill="#E4E2D0" transform="translate(47,47)" />
<path d="M0 0 C0.825 0.165 0.825 0.165 5 1 C7 7.625 7 7.625 7 11 C5.10786631 8.61426621 3.97608217 6.92824652 3 4 C2.01 3.34 1.02 2.68 0 2 C0 1.34 0 0.68 0 0 Z " fill="#CDC2B2" transform="translate(43,29)" />
<path d="M0 0 C0 0.66 0 1.32 0 2 C1.32 2.33 2.64 2.66 4 3 C3.67 3.99 3.34 4.98 3 6 C0.11424181 5.60196439 -0.82189513 5.20990931 -2.75 2.9375 C-3.1625 2.298125 -3.575 1.65875 -4 1 C-2 0 -2 0 0 0 Z " fill="#D6D4CE" transform="translate(27,68)" />
<path d="M0 0 C-0.97566112 1.16959987 -1.955625 2.33561177 -2.9375 3.5 C-3.48277344 4.1496875 -4.02804688 4.799375 -4.58984375 5.46875 C-5.05519531 5.9740625 -5.52054688 6.479375 -6 7 C-6.33 7 -6.66 7 -7 7 C-7 5.02 -7 3.04 -7 1 C-4.53721199 -0.231394 -2.7204945 -0.07159196 0 0 Z " fill="#E9EBD5" transform="translate(41,54)" />
<path d="M0 0 C0.99 0.33 1.98 0.66 3 1 C3.36923077 6.53846154 3.36923077 6.53846154 1.5 8.875 C1.005 9.24625 0.51 9.6175 0 10 C0 6.66666667 0 3.33333333 0 0 Z M-3 9 C-1 10 -1 10 -1 10 Z " fill="#B7BDB6" transform="translate(59,48)" />
<path d="M0 0 C2.875 0.1875 2.875 0.1875 6 1 C8.24095934 4.56516258 8.19206739 7.87055112 8 12 C7.67 12 7.34 12 7 12 C6.8865625 11.4740625 6.8865625 11.4740625 6.3125 8.8125 C5.20639469 4.8402094 3.11370115 2.70400363 0 0 Z " fill="#C6EAE8" transform="translate(42,48)" />
<path d="M0 0 C1.98 0 3.96 0 6 0 C6 0.99 6 1.98 6 3 C5.34 3 4.68 3 4 3 C4 3.66 4 4.32 4 5 C3.01 4.67 2.02 4.34 1 4 C1.33 3.34 1.66 2.68 2 2 C1.34 2 0.68 2 0 2 C0 1.34 0 0.68 0 0 Z " fill="#C5CCBE" transform="translate(38,69)" />
<path d="M0 0 C3.84685385 1.24762828 6.02929405 2.3870391 8 6 C7.67 6.99 7.34 7.98 7 9 C6.7525 8.38125 6.505 7.7625 6.25 7.125 C4.77229238 4.61289704 3.56044823 4.23892656 1 3 C0.67 2.01 0.34 1.02 0 0 Z " fill="#9B9D97" transform="translate(58,45)" />
<path d="M0 0 C5.75 -0.125 5.75 -0.125 8 1 C8 1.66 8 2.32 8 3 C5.69 3 3.38 3 1 3 C0.67 2.01 0.34 1.02 0 0 Z " fill="#D0D1B8" transform="translate(32,70)" />
<path d="M0 0 C-1.34603482 4.03810445 -3.65336723 5.47295076 -7 8 C-7.66 8 -8.32 8 -9 8 C-9 6 -9 6 -7.5390625 4.4921875 C-7.22324219 4.22535156 -7.22324219 4.22535156 -5.625 2.875 C-4.99851562 2.33617188 -4.37203125 1.79734375 -3.7265625 1.2421875 C-2 0 -2 0 0 0 Z " fill="#B9B8A3" transform="translate(51,66)" />
<path d="M0 0 C0.33 0 0.66 0 1 0 C1 1.65 1 3.3 1 5 C1.66 5.33 2.32 5.66 3 6 C2.01 6.66 1.02 7.32 0 8 C-1.32 6.35 -2.64 4.7 -4 3 C-2.68 3.33 -1.36 3.66 0 4 C0 2.68 0 1.36 0 0 Z " fill="#A4D7DD" transform="translate(44,55)" />
<path d="M0 0 C0.495 0.33 0.495 0.33 3 2 C2.67 3.32 2.34 4.64 2 6 C1.34 6 0.68 6 0 6 C-0.33 6.66 -0.66 7.32 -1 8 C-0.67 5.36 -0.34 2.72 0 0 Z " fill="#D9513E" transform="translate(60,31)" />
<path d="M0 0 C2.25 -0.25 2.25 -0.25 5 0 C7.3125 2 7.3125 2 9 4 C8.67 4.66 8.34 5.32 8 6 C6.66402348 5.19185349 5.331275 4.37836819 4 3.5625 C3.2575 3.11003906 2.515 2.65757813 1.75 2.19140625 C1.1725 1.79824219 0.595 1.40507812 0 1 C0 0.67 0 0.34 0 0 Z " fill="#D4D9CE" transform="translate(38,29)" />
<path d="M0 0 C1.98 0 3.96 0 6 0 C5.67 1.65 5.34 3.3 5 5 C3.0625 4.1875 3.0625 4.1875 1 3 C0.67 2.01 0.34 1.02 0 0 Z " fill="#C04537" transform="translate(56,25)" />
<path d="M0 0 C0.825 0.165 0.825 0.165 5 1 C5.33 2.65 5.66 4.3 6 6 C5.01 6.33 4.02 6.66 3 7 C2.690625 6.21625 2.38125 5.4325 2.0625 4.625 C1 2 1 2 0 0 Z " fill="#BA2A1B" transform="translate(60,30)" />
<path d="M0 0 C0.33 1.32 0.66 2.64 1 4 C-0.9375 6.25 -0.9375 6.25 -3 8 C-3.66 7.67 -4.32 7.34 -5 7 C-3.35 4.69 -1.7 2.38 0 0 Z " fill="#A6B0AA" transform="translate(59,59)" />
<path d="M0 0 C0.66 0.33 1.32 0.66 2 1 C2 2.65 2 4.3 2 6 C1.67 6.165 1.67 6.165 0 7 C-0.66 6.67 -1.32 6.34 -2 6 C-1.33333333 4 -0.66666667 2 0 0 Z " fill="#3A8BA9" transform="translate(47,54)" />
<path d="M0 0 C0.66 0.33 1.32 0.66 2 1 C1.34 2.98 0.68 4.96 0 7 C-0.99 7 -1.98 7 -3 7 C-1.125 1.125 -1.125 1.125 0 0 Z " fill="#E1846B" transform="translate(64,22)" />
</svg>