<?xml version='1.0' encoding='utf-8'?>
<svg xmlns="http://www.w3.org/2000/svg" version="1.1" width="106" height="93">
<path d="M0 0 C3.24816264 2.6263148 5.6503825 4.95114751 7 9 C6.95312072 12.06846211 6.8060167 15.12303198 6.64453125 18.1875 C7 21 7 21 9.01171875 22.875 C9.66785156 23.24625 10.32398437 23.6175 11 24 C10.835 24.33 10.835 24.33 10 26 C10 26.99 10 27.98 10 29 C10 31 10 33 10 35 C9.505 35.165 9.505 35.165 7 36 C6.55078125 37.8203125 6.55078125 37.8203125 6.3125 40.125 C5.33696301 45.1057905 3.2991505 47.44888437 -0.62890625 50.5625 C-3.93561943 52.56722891 -7.25330683 53.5893473 -10.99609375 54.4921875 C-13 55 -13 55 -14 56 C-28.07598839 57.36962711 -43.55275797 56.7214896 -55.51171875 48.34765625 C-58.95799409 45.22701323 -59.9356834 42.15769879 -60.1875 37.625 C-60.125625 36.75875 -60.06375 35.8925 -60 35 C-60.66 35 -61.32 35 -62 35 C-63.125 31.25 -63.125 31.25 -62 29 C-62.99 28.34 -63.98 27.68 -65 27 C-64 25 -63 23 -62 21 C-61.84523558 19.08550683 -61.72520046 17.16812304 -61.625 15.25 C-61.07413688 8.46142216 -59.75682685 4.39767573 -54.625 -0.1875 C-39.6054786 -12.63518555 -15.76446965 -9.99629781 0 0 Z " fill="#804913" transform="translate(80,24)" />
<path d="M0 0 C0 0.66 0 1.32 0 2 C0.66 2 1.32 2 2 2 C3.66251802 7.57432514 4.18609365 11.3067505 3 17 C3.33 17.226875 3.33 17.226875 5 18.375 C5.33 18.643125 5.33 18.643125 7 20 C7 20.66 7 21.32 7 22 C5.02 22 3.04 22 1 22 C1 20.35 1 18.7 1 17 C0.566875 17.1546875 0.566875 17.1546875 -1.625 17.9375 C-17.63286375 22.46076411 -42.35291599 22.60946437 -57.4375 14.375 C-60.6142132 12.3857868 -60.6142132 12.3857868 -62 11 C-61.49908843 5.69033738 -60.98663442 1.81788555 -56.9765625 -1.8515625 C-56.20054688 -2.43679687 -55.42453125 -3.02203125 -54.625 -3.625 C-54.23957031 -3.92019531 -54.23957031 -3.92019531 -52.2890625 -5.4140625 C-37.23863741 -15.84149013 -13.44797718 -10.4894222 0 0 Z " fill="#FAB626" transform="translate(82,28)" />
<path d="M0 0 C10.89761308 -0.2071352 21.27133239 -0.15729044 32 2 C28.11970961 5.17853574 24.11178016 7.93518685 19.890625 10.6328125 C18 12 18 12 17 14 C25.97544773 14.3205517 33.24443762 12.01865166 41.58203125 8.90234375 C43.37530881 8.23312385 45.18414491 7.60528503 47 7 C47.33 4.69 47.66 2.38 48 0 C49.32 0.99 50.64 1.98 52 3 C51.8453125 3.2990625 51.8453125 3.2990625 51.0625 4.8125 C50 7 50 7 49 10 C46.9375 10.6875 46.9375 10.6875 45 11 C45 11.99 45 12.98 45 14 C44.01 14.4125 43.02 14.825 42 15.25 C36.79527802 17.48210638 31.71695322 19.85536452 27 23 C22.22427911 24.59190696 17.37723887 24.26767707 12.375 24.3125 C11.84712891 24.32700195 11.84712891 24.32700195 9.17578125 24.40039062 C1.13966798 24.46511768 -4.79836753 22.98537044 -11.375 18.3125 C-13.44954076 15.36026892 -14.3267804 12.38433631 -15.2890625 8.92578125 C-16 7 -16 7 -18 6 C-17.67 4.68 -17.34 3.36 -17 2 C-16.34 2 -15.68 2 -15 2 C-14.79375 2.76828125 -14.5875 3.5365625 -14.375 4.328125 C-12.52895403 7.91532797 -10.73122662 8.36872861 -7 9.75 C-5.9275 10.15734375 -4.855 10.5646875 -3.75 10.984375 C-2.8425 11.31953125 -1.935 11.6546875 -1 12 C-0.34 12.33 0.32 12.66 1 13 C2.87379605 13.07033769 4.75001102 13.0843022 6.625 13.0625 C7.62789062 13.05347656 8.63078125 13.04445313 9.6640625 13.03515625 C10.04949219 13.02935547 10.04949219 13.02935547 12 13 C10.93359375 11.0703125 10.93359375 11.0703125 9 9 C5.78515625 8.2421875 5.78515625 8.2421875 2.0625 7.875 C-5.55386307 7.09013819 -5.55386307 7.09013819 -9 5 C-9 4.34 -9 3.68 -9 3 C-2.375 2.875 -2.375 2.875 1 4 C0.67 2.68 0.34 1.36 0 0 Z " fill="#79880D" transform="translate(37,52)" />
<path d="M0 0 C6.97502553 1.6294117 12.85144374 3.8370623 18 9 C18 9.66 18 10.32 18 11 C18.66 11 19.32 11 20 11 C21.66251802 16.57432514 22.18609365 20.3067505 21 26 C21.66 26.45375 22.32 26.9075 23 27.375 C23.66 27.91125 24.32 28.4475 25 29 C25 29.66 25 30.32 25 31 C23.02 31 21.04 31 19 31 C19 29.35 19 27.7 19 26 C18.566875 26.1546875 18.566875 26.1546875 16.375 26.9375 C5.44316148 30.02645637 -6.72054134 29.13183783 -18 29 C-18 28.67 -18 28.34 -18 28 C-16.87980469 27.91363281 -15.75960937 27.82726562 -14.60546875 27.73828125 C-13.13269579 27.59757046 -11.66004505 27.45557617 -10.1875 27.3125 C-9.44951172 27.25900391 -8.71152344 27.20550781 -7.95117188 27.15039062 C-5.79296875 26.92578125 -5.79296875 26.92578125 -2 26 C-0.11328125 23.48046875 -0.11328125 23.48046875 1 21 C1.66 20.67 2.32 20.34 3 20 C2.34 19.01 1.68 18.02 1 17 C1.375 13.8125 1.375 13.8125 2 11 C1.175 10.835 1.175 10.835 -3 10 C-2.67 12.64 -2.34 15.28 -2 18 C-3.32 17.67 -4.64 17.34 -6 17 C-5.67 16.34 -5.34 15.68 -5 15 C-6.32 15 -7.64 15 -9 15 C-8.67 15.99 -8.34 16.98 -8 18 C-9.8125 18.625 -9.8125 18.625 -12 19 C-15.32901247 16.78065836 -15.75023244 15.65316671 -17 12 C-13.86650268 10.95550089 -13.01031744 11.06576355 -10 12 C-9.67 10.35 -9.34 8.7 -9 7 C-7.906875 7.020625 -6.81375 7.04125 -5.6875 7.0625 C-2 7 -2 7 1 6 C1 5.34 1 4.68 1 4 C0.01 3.67 -0.98 3.34 -2 3 C-1.34 2.01 -0.68 1.02 0 0 Z " fill="#FBAB04" transform="translate(64,19)" />
<path d="M0 0 C0 1.65 0 3.3 0 5 C2.64 5.33 5.28 5.66 8 6 C7.67 6.66 7.34 7.32 7 8 C6.960008 9.99960012 6.95653201 12.00047242 7 14 C6.01 14.33 5.02 14.66 4 15 C3.55078125 16.8203125 3.55078125 16.8203125 3.3125 19.125 C2.34362497 24.17929806 0.15088153 26.54475466 -3.82421875 29.69140625 C-6.9780215 31.5882176 -9.34575611 31.92386992 -13 32 C-11.68 31.34 -10.36 30.68 -9 30 C-9 29.01 -9 28.02 -9 27 C-8.34 27 -7.68 27 -7 27 C-7 26.34 -7 25.68 -7 25 C-4.09451118 22.95830515 -2.59857954 22 1 22 C1.103125 21.278125 1.20625 20.55625 1.3125 19.8125 C2 17 2 17 3.6875 14.4375 C4.120625 13.633125 4.55375 12.82875 5 12 C4.1875 9.6875 4.1875 9.6875 3 8 C2.835 8.9075 2.67 9.815 2.5 10.75 C0.37605998 15.35187004 -2.45096266 16.18686056 -7 18 C-7.62132812 18.28875 -8.24265625 18.5775 -8.8828125 18.875 C-14.66334765 21.39037931 -20.72982214 21.96141429 -27 22 C-27.66 21.67 -28.32 21.34 -29 21 C-27.68774191 17.06322574 -25.8038606 16.1728218 -22.4375 13.8125 C-21.42558594 13.09707031 -20.41367187 12.38164063 -19.37109375 11.64453125 C-18.58863281 11.10183594 -17.80617188 10.55914062 -17 10 C-17.84304687 9.79503906 -18.68609375 9.59007812 -19.5546875 9.37890625 C-20.65039062 9.10949219 -21.74609375 8.84007812 -22.875 8.5625 C-23.96554688 8.29566406 -25.05609375 8.02882813 -26.1796875 7.75390625 C-29 7 -29 7 -31 6 C-32.70363822 5.77377919 -34.41328701 5.59111527 -36.125 5.4375 C-37.03507812 5.35371094 -37.94515625 5.26992188 -38.8828125 5.18359375 C-39.58148438 5.12300781 -40.28015625 5.06242187 -41 5 C-41 4.34 -41 3.68 -41 3 C-40.49287476 2.97232544 -40.49287476 2.97232544 -37.92651367 2.83227539 C-34.1635792 2.62583229 -30.40096686 2.4139572 -26.63842773 2.20043945 C-25.00992981 2.10878677 -23.38134828 2.01860745 -21.75268555 1.92993164 C-19.41171093 1.80221617 -17.07108817 1.66920524 -14.73046875 1.53515625 C-14.00224411 1.49656998 -13.27401947 1.4579837 -12.52372742 1.41822815 C-8.1870557 1.16352622 -4.31723906 0 0 0 Z " fill="#772D05" transform="translate(83,45)" />
<path d="M0 0 C0.99 0 1.98 0 3 0 C2.67 1.65 2.34 3.3 2 5 C2.66 5 3.32 5 4 5 C4 5.66 4 6.32 4 7 C4.70125 7.0825 5.4025 7.165 6.125 7.25 C9.6903452 8.18009005 12.09015572 9.76686369 15 12 C15 12.66 15 13.32 15 14 C14.34 14.33 14.34 14.33 11 16 C11 16.33 11 16.66 11 17 C-9.38579655 17.7428023 -9.38579655 17.7428023 -18 12 C-18.6875 9.375 -18.6875 9.375 -19 7 C-15.68811135 4.82361603 -12.96670899 3.44074544 -9 3 C-8.67 3.33 -8.34 3.66 -8 4 C-4.16826858 3.59665985 -2.60820981 2.7267648 0 0 Z " fill="#FBD248" transform="translate(42,30)" />
<path d="M0 0 C10.89761308 -0.2071352 21.27133239 -0.15729044 32 2 C28.59305576 4.7774002 25.14055386 7.41046775 21.5 9.875 C21.04109375 10.19339844 21.04109375 10.19339844 18.71875 11.8046875 C16 13 16 13 13.28125 12.3203125 C11 11 11 11 9 9 C6.72102524 8.58875643 4.42524525 8.26780402 2.125 8 C-5.50410048 7.10808011 -5.50410048 7.10808011 -9 5 C-9 4.34 -9 3.68 -9 3 C-2.375 2.875 -2.375 2.875 1 4 C0.67 2.68 0.34 1.36 0 0 Z " fill="#F3C40A" transform="translate(37,52)" />
<path d="M0 0 C2.75 -0.1875 2.75 -0.1875 6 0 C6.53109375 0.47308594 7.0621875 0.94617188 7.609375 1.43359375 C11.30520301 3.85520654 15.16658451 3.87090785 19.5 4.25 C20.35464844 4.34023437 21.20929687 4.43046875 22.08984375 4.5234375 C26.04746835 4.90623426 29.14762696 5.07874395 33 4 C35.81197431 3.74288188 38.62350691 3.55860946 41.44140625 3.37890625 C44 3 44 3 47 1 C49.6875 0.875 49.6875 0.875 52 1 C49.47463555 4.78804668 47.15839211 5.32205231 43 7 C42.01 7.66 41.02 8.32 40 9 C35.22427911 10.59190696 30.37723887 10.26767707 25.375 10.3125 C24.84712891 10.32700195 24.84712891 10.32700195 22.17578125 10.40039062 C14.05165095 10.46582662 7.77794939 9.13293364 1.4375 3.875 C0 2 0 2 0 0 Z " fill="#BD701B" transform="translate(24,66)" />
<path d="M0 0 C1.68555102 0.61736536 3.35008418 1.29289322 5 2 C11.2895989 3.96491206 17.44011246 5.38114268 24 6 C22.68 6.33 21.36 6.66 20 7 C20 7.66 20 8.32 20 9 C20.69867188 8.97679687 21.39734375 8.95359375 22.1171875 8.9296875 C23.02726562 8.91164063 23.93734375 8.89359375 24.875 8.875 C25.32746094 8.86339844 25.32746094 8.86339844 27.6171875 8.8046875 C30 9 30 9 32 11 C26.39 11 20.78 11 15 11 C15.33 12.32 15.66 13.64 16 15 C15.01 14.67 14.02 14.34 13 14 C13.33 13.34 13.66 12.68 14 12 C13.67 12.165 13.67 12.165 12 13 C10.45386986 12.91348369 8.91090613 12.75997364 7.375 12.5625 C6.55773438 12.46066406 5.74046875 12.35882813 4.8984375 12.25390625 C4.27195312 12.17011719 3.64546875 12.08632813 3 12 C3 11.01 3 10.02 3 9 C0.36 9 -2.28 9 -5 9 C-4.5504955 7.68445015 -4.09010284 6.37261642 -3.625 5.0625 C-3.36976562 4.33160156 -3.11453125 3.60070313 -2.8515625 2.84765625 C-2 1 -2 1 0 0 Z " fill="#A53E08" transform="translate(22,41)" />
<path d="M0 0 C0.33 0.99 0.66 1.98 1 3 C1.66 3 2.32 3 3 3 C4.66251802 8.57432514 5.18609365 12.3067505 4 18 C4.66 18.45375 5.32 18.9075 6 19.375 C6.66 19.91125 7.32 20.4475 8 21 C8 21.66 8 22.32 8 23 C6.02 23 4.04 23 2 23 C2 21.35 2 19.7 2 18 C0.96875 18.33 -0.0625 18.66 -1.125 19 C-4.48426709 19.9715192 -7.49106202 20.17116771 -11 20 C-10.608125 19.7009375 -10.608125 19.7009375 -8.625 18.1875 C-6 16 -6 16 -4 13 C-3.34 13 -2.68 13 -2 13 C-2 12.34 -2 11.68 -2 11 C-4.31 11 -6.62 11 -9 11 C-8.34 9.35 -7.68 7.7 -7 6 C-5.68 6 -4.36 6 -3 6 C-4.22934015 2.31197956 -5.93859378 1.27643027 -9 -1 C-5.40440208 -2.33170293 -3.34558716 -1.80842549 0 0 Z " fill="#C57B0A" transform="translate(81,27)" />
<path d="M0 0 C-0.66 0.66 -1.32 1.32 -2 2 C-1.34 2.33 -0.68 2.66 0 3 C0 3.66 0 4.32 0 5 C-0.66 5.66 -1.32 6.32 -2 7 C-4.72869407 6.96712417 -7.2966618 6.43602229 -10 6 C-10 6.66 -10 7.32 -10 8 C-12.31 8 -14.62 8 -17 8 C-17 6.35 -17 4.7 -17 3 C-19.31 2.01 -21.62 1.02 -24 0 C-24.33 1.32 -24.66 2.64 -25 4 C-25.99 4 -26.98 4 -28 4 C-28.33 4.66 -28.66 5.32 -29 6 C-31 3 -31 3 -31 0 C-20.96409529 -2.58991089 -9.86168541 -3.75683254 0 0 Z " fill="#F4B615" transform="translate(65,20)" />
<path d="M0 0 C0.99 0.165 0.99 0.165 6 1 C5.875 2.8125 5.875 2.8125 5 5 C2.4375 6.5625 2.4375 6.5625 -1 8 C-2.19625 8.53625 -3.3925 9.0725 -4.625 9.625 C-9.87132109 11.5567849 -15.43803126 11.9657725 -21 12 C-21.66 11.67 -22.32 11.34 -23 11 C-21.81052889 7.43158667 -21.25920481 6.79256264 -18 5 C-15.01669535 4.44604014 -12.02371188 4.22397866 -9 4 C-5.0625 3.625 -5.0625 3.625 -2 3 C-1.34 2.01 -0.68 1.02 0 0 Z " fill="#343202" transform="translate(77,55)" />
<path d="M0 0 C0.33 0.99 0.66 1.98 1 3 C-0.32 3.33 -1.64 3.66 -3 4 C-2.360625 4.268125 -1.72125 4.53625 -1.0625 4.8125 C1 6 1 6 2 9 C1.67 9.495 1.67 9.495 0 12 C-0.99 12 -1.98 12 -3 12 C-3.33 12.66 -3.66 13.32 -4 14 C-5.97888961 14.72693904 -7.97954558 15.39816251 -10 16 C-9.67 16.99 -9.34 17.98 -9 19 C-10.32 19 -11.64 19 -13 19 C-13.33 18.67 -13.66 18.34 -14 18 C-13.49206109 12.6158476 -12.95841961 8.79765382 -8.90625 5.078125 C-8.1121875 4.47484375 -7.318125 3.8715625 -6.5 3.25 C-6.10296875 2.94320313 -6.10296875 2.94320313 -4.09375 1.390625 C-2 0 -2 0 0 0 Z " fill="#F1B124" transform="translate(34,21)" />
<path d="M0 0 C0.165 0.33 0.165 0.33 1 2 C0 5 0 5 -2.9375 6.6875 C-6 8 -6 8 -8 8 C-8 8.66 -8 9.32 -8 10 C-8.66 10 -9.32 10 -10 10 C-10 10.99 -10 11.98 -10 13 C-16.36055007 16.66954812 -23.56716091 16.1826063 -30.6875 16.1875 C-31.63689453 16.19974609 -32.58628906 16.21199219 -33.56445312 16.22460938 C-34.01981445 16.22557617 -34.01981445 16.22557617 -36.32421875 16.23046875 C-36.73716187 16.23252319 -36.73716187 16.23252319 -38.8269043 16.24291992 C-41 16 -41 16 -44 14 C-43.38479492 13.98018066 -42.76958984 13.96036133 -42.13574219 13.93994141 C-39.34007458 13.84450273 -36.5451349 13.73490045 -33.75 13.625 C-33.26595703 13.60953125 -33.26595703 13.60953125 -30.81640625 13.53125 C-29.88183594 13.49257812 -28.94726562 13.45390625 -27.984375 13.4140625 C-27.12553711 13.3826416 -26.26669922 13.3512207 -25.38183594 13.31884766 C-22.85029082 12.97995898 -21.20349342 12.2602457 -19 11 C-17.66666667 10.33333333 -16.33333333 9.66666667 -15 9 C-14.071875 8.505 -13.14375 8.01 -12.1875 7.5 C-8.79514953 5.90359978 -5.61978334 4.94114367 -2 4 C-2 3.01 -2 2.02 -2 1 C-1.34 0.67 -0.68 0.34 0 0 Z " fill="#9E5E13" transform="translate(84,62)" />
<path d="M0 0 C0.89203125 0.01804688 1.7840625 0.03609375 2.703125 0.0546875 C3.04085937 0.06628906 3.04085937 0.06628906 4.75 0.125 C4.75 0.785 4.75 1.445 4.75 2.125 C4.09 2.125 3.43 2.125 2.75 2.125 C2.09 4.105 1.43 6.085 0.75 8.125 C-9.02092772 9.99887655 -18.35355133 10.35367275 -28.25 10.125 C-28.25 9.795 -28.25 9.465 -28.25 9.125 C-27.12980469 9.03863281 -26.00960937 8.95226563 -24.85546875 8.86328125 C-23.38269579 8.72257046 -21.91004505 8.58057617 -20.4375 8.4375 C-19.69951172 8.38400391 -18.96152344 8.33050781 -18.20117188 8.27539062 C-16.04296875 8.05078125 -16.04296875 8.05078125 -12.25 7.125 C-10.48828125 4.66796875 -10.48828125 4.66796875 -9.25 2.125 C-6.19869622 -0.01604088 -3.66787472 -0.09652302 0 0 Z " fill="#D39D2F" transform="translate(74.25,37.875)" />
<path d="M0 0 C1.32 0.99 2.64 1.98 4 3 C3.690625 3.598125 3.38125 4.19625 3.0625 4.8125 C2 7 2 7 1 10 C-0.98 10.33 -2.96 10.66 -5 11 C-5.33 11.99 -5.66 12.98 -6 14 C-6.6496875 14.061875 -6.6496875 14.061875 -9.9375 14.375 C-13.15442814 14.72630261 -16.23104123 15.23817274 -19.375 16 C-24.53319372 17.22335922 -29.72177691 17.62509817 -35 18 C-35 17.01 -35 16.02 -35 15 C-33.85144531 14.91363281 -32.70289063 14.82726562 -31.51953125 14.73828125 C-21.46888824 13.86917134 -13.26199917 12.14694815 -4 8 C-3.01 7.67 -2.02 7.34 -1 7 C-0.67 4.69 -0.34 2.38 0 0 Z " fill="#71941D" transform="translate(85,52)" />
<path d="M0 0 C2.64 0.66 5.28 1.32 8 2 C6.41126986 6.8544532 6.41126986 6.8544532 5 9 C1.9375 9.6875 1.9375 9.6875 -1 10 C-1.69937532 11.31647119 -2.36729133 12.65022151 -3 14 C-5.625 14.75 -5.625 14.75 -8 15 C-7.649375 14.05125 -7.29875 13.1025 -6.9375 12.125 C-6 9 -6 9 -7 7 C-9.0625 5.875 -9.0625 5.875 -11 5 C-10 4 -10 4 -7.93359375 3.90234375 C-7.52173828 3.90814453 -7.52173828 3.90814453 -5.4375 3.9375 C-4.61121094 3.94652344 -3.78492188 3.95554687 -2.93359375 3.96484375 C-2.29550781 3.97644531 -1.65742187 3.98804688 -1 4 C-0.67 2.68 -0.34 1.36 0 0 Z " fill="#FAB006" transform="translate(41,20)" />
<path d="M0 0 C0.81082031 0.13277344 1.62164063 0.26554687 2.45703125 0.40234375 C22.09433876 3.53425426 22.09433876 3.53425426 28 2 C30.00946222 2.27050453 32.01354224 2.59367909 34 3 C34 3.66 34 4.32 34 5 C22.90108704 8.00260447 14.0111312 7.17847086 3 4 C3 3.34 3 2.68 3 2 C2.01 2 1.02 2 0 2 C0 1.34 0 0.68 0 0 Z " fill="#E4A737" transform="translate(29,68)" />
<path d="M0 0 C2.97 0.33 5.94 0.66 9 1 C8.67 1.66 8.34 2.32 8 3 C7.960008 4.99960012 7.95653201 7.00047242 8 9 C7.01 9.33 6.02 9.66 5 10 C4.55078125 11.8203125 4.55078125 11.8203125 4.3125 14.125 C3.34362497 19.17929806 1.15088153 21.54475466 -2.82421875 24.69140625 C-5.9780215 26.5882176 -8.34575611 26.92386992 -12 27 C-10.68 26.34 -9.36 25.68 -8 25 C-8 24.01 -8 23.02 -8 22 C-7.34 22 -6.68 22 -6 22 C-6 21.34 -6 20.68 -6 20 C-3.09451118 17.95830515 -1.59857954 17 2 17 C2.103125 16.278125 2.20625 15.55625 2.3125 14.8125 C3 12 3 12 4.6875 9.4375 C4.9040625 9.0353125 4.9040625 9.0353125 6 7 C5.1875 4.6875 5.1875 4.6875 4 3 C3.34 4.98 2.68 6.96 2 9 C1.01879536 5.94736336 1.01879536 4.05263664 2 1 C1.34 0.67 0.68 0.34 0 0 Z " fill="#684110" transform="translate(82,50)" />
<path d="M0 0 C1.6837311 0.62231167 3.34801907 1.29773136 5 2 C6.93000283 2.5678011 8.86786025 3.10955332 10.8125 3.625 C11.78832031 3.88539062 12.76414062 4.14578125 13.76953125 4.4140625 C14.50558594 4.60742188 15.24164063 4.80078125 16 5 C16 5.66 16 6.32 16 7 C16.66 7.33 17.32 7.66 18 8 C10.41 8.33 2.82 8.66 -5 9 C-2 1 -2 1 0 0 Z " fill="#CD4018" transform="translate(22,41)" />
<path d="M0 0 C10.89761308 -0.2071352 21.27133239 -0.15729044 32 2 C30.35 3.32 28.7 4.64 27 6 C26.34 5.67 25.68 5.34 25 5 C25 4.67 25 4.34 25 4 C20.4161086 2.90684754 15.87488993 2.67717375 11.1875 2.4375 C10.39923828 2.39431641 9.61097656 2.35113281 8.79882812 2.30664062 C6.86605785 2.20121679 4.93304974 2.10016906 3 2 C3.33 2.99 3.66 3.98 4 5 C3.2575 5.144375 2.515 5.28875 1.75 5.4375 C-1 6 -1 6 -3.0625 6.6875 C-5.61209669 7.09872527 -6.83666008 6.31345638 -9 5 C-9 4.34 -9 3.68 -9 3 C-2.375 2.875 -2.375 2.875 1 4 C0.67 2.68 0.34 1.36 0 0 Z " fill="#DD9912" transform="translate(37,52)" />
<path d="M0 0 C0.66 0 1.32 0 2 0 C2.21140625 0.76957031 2.4228125 1.53914063 2.640625 2.33203125 C4.44006772 5.86369613 6.08517429 6.31546948 9.75 7.6875 C10.77609375 8.08324219 11.8021875 8.47898437 12.859375 8.88671875 C18.29209012 10.81249463 23.25353782 12.31042454 29 13 C28.67 13.66 28.34 14.32 28 15 C25.56152549 14.88602456 23.12486826 14.75929026 20.6875 14.625 C19.99720703 14.5940625 19.30691406 14.563125 18.59570312 14.53125 C14.93009211 14.31875081 13.12099208 14.08066139 10 12 C7.67612053 11.60612212 5.34206251 11.26513915 3 11 C2.71125 10.030625 2.4225 9.06125 2.125 8.0625 C1 5 1 5 -1 4 C-0.67 2.68 -0.34 1.36 0 0 Z " fill="#84AF2A" transform="translate(20,54)" />
<path d="M0 0 C0.33 0.66 0.66 1.32 1 2 C-0.98 2 -2.96 2 -5 2 C-5 3.32 -5 4.64 -5 6 C-10.21831143 6.28990619 -12.72679547 4.84880302 -17 2 C-17.33 3.32 -17.66 4.64 -18 6 C-18.99 6 -19.98 6 -21 6 C-21.33 6.66 -21.66 7.32 -22 8 C-24 5 -24 5 -24 2 C-15.96235969 -0.07422976 -8.27015524 -0.2144997 0 0 Z " fill="#EEBB22" transform="translate(58,18)" />
<path d="M0 0 C1.62992692 0.39695637 3.25392235 0.81832493 4.875 1.25 C5.32746094 1.36601562 5.32746094 1.36601562 7.6171875 1.953125 C10 3 10 3 11.3203125 5.109375 C11.54460937 5.73328125 11.76890625 6.3571875 12 7 C11.67 7.165 11.67 7.165 10 8 C10.33 8.2165625 10.33 8.2165625 12 9.3125 C12.66 9.869375 13.32 10.42625 14 11 C14 11.99 14 12.98 14 14 C12.35 14.66 10.7 15.32 9 16 C7.87119943 12.68885166 6.78697325 9.41021743 6 6 C3.36 6.33 0.72 6.66 -2 7 C-1.01 6.67 -0.02 6.34 1 6 C1 5.34 1 4.68 1 4 C0.01 3.67 -0.98 3.34 -2 3 C-1.34 2.01 -0.68 1.02 0 0 Z " fill="#D8A129" transform="translate(64,19)" />
<path d="M0 0 C0 0.99 0 1.98 0 3 C-0.66 3 -1.32 3 -2 3 C-2 3.66 -2 4.32 -2 5 C-8.07806891 6.79172099 -12.03241883 7.28545662 -18 5 C-17.296875 3.046875 -17.296875 3.046875 -16 1 C-13.828125 0.390625 -13.828125 0.390625 -11.25 0.25 C-10.80527344 0.22228516 -10.80527344 0.22228516 -8.5546875 0.08203125 C-5.69961462 -0.0096454 -2.85602416 -0.07515853 0 0 Z " fill="#BB421B" transform="translate(80,48)" />
<path d="M0 0 C0.98651887 2.95955661 1 4.92864836 1 8 C1.33 8.99 1.66 9.98 2 11 C1.34 11 0.68 11 0 11 C-0.144375 11.969375 -0.28875 12.93875 -0.4375 13.9375 C-1 17 -1 17 -2 18 C-0.68 18.33 0.64 18.66 2 19 C2 20.32 2 21.64 2 23 C1.34 23.33 0.68 23.66 0 24 C-0.33 24.99 -0.66 25.98 -1 27 C-0.01 27.33 0.98 27.66 2 28 C2.33 29.98 2.66 31.96 3 34 C5.31 34 7.62 34 10 34 C10 34.33 10 34.66 10 35 C2.25 35.125 2.25 35.125 0 34 C0 32.02 0 30.04 0 28 C-0.66 28 -1.32 28 -2 28 C-3.125 24.25 -3.125 24.25 -2 22 C-2.99 21.34 -3.98 20.68 -5 20 C-4.5 19 -4.5 19 -2 14 C-1.79581065 12.00348191 -1.63477704 10.00240179 -1.5 8 C-1.11111111 2.22222222 -1.11111111 2.22222222 0 0 Z " fill="#6B4912" transform="translate(20,31)" />
<path d="M0 0 C1.65 0 3.3 0 5 0 C5.79953138 3.28696233 6.09658936 4.71023192 5 8 C5.99 8.66 6.98 9.32 8 10 C5.69 10.33 3.38 10.66 1 11 C1 10.34 1 9.68 1 9 C-0.485 9.165 -0.485 9.165 -8 10 C-7.34 9.01 -6.68 8.02 -6 7 C-6 6.34 -6 5.68 -6 5 C-4.68 5 -3.36 5 -2 5 C-2 5.66 -2 6.32 -2 7 C-1.01 7.33 -0.02 7.66 1 8 C0.67 5.36 0.34 2.72 0 0 Z " fill="#F8AE1C" transform="translate(61,29)" />
<path d="M0 0 C9.24 0 18.48 0 28 0 C28 0.33 28 0.66 28 1 C26.865625 1.28875 25.73125 1.5775 24.5625 1.875 C23.386875 2.24625 22.21125 2.6175 21 3 C20.67 3.66 20.34 4.32 20 5 C14.4851752 5.25067385 14.4851752 5.25067385 12.125 4.03125 C9.60420536 2.80792319 7.534413 2.59482208 4.75 2.375 C3.85796875 2.30023438 2.9659375 2.22546875 2.046875 2.1484375 C1.70914063 2.12394531 1.70914063 2.12394531 0 2 C0 1.34 0 0.68 0 0 Z " fill="#541C01" transform="translate(42,48)" />
<path d="M0 0 C0.78246094 -0.01417969 1.56492187 -0.02835938 2.37109375 -0.04296875 C4.5625 0.1875 4.5625 0.1875 7.5625 2.1875 C7.2325 3.5075 6.9025 4.8275 6.5625 6.1875 C4.97955218 6.24187607 3.39605744 6.28046271 1.8125 6.3125 C0.93078125 6.33570313 0.0490625 6.35890625 -0.859375 6.3828125 C-3.5510858 6.17889502 -5.13654974 5.55301721 -7.4375 4.1875 C-7.1075 3.1975 -6.7775 2.2075 -6.4375 1.1875 C-4.0978331 0.01766655 -2.60358473 0.0213759 0 0 Z " fill="#FADB59" transform="translate(39.4375,37.8125)" />
<path d="M0 0 C7.63977839 -0.47748615 14.13352447 2.96361526 20.07421875 7.62890625 C22.50244075 9.97481564 23.92502369 11.77507106 25 15 C24.95312072 18.06846211 24.8060167 21.12303198 24.64453125 24.1875 C25 27 25 27 27.01171875 28.875 C27.66785156 29.24625 28.32398437 29.6175 29 30 C28.67 30.66 28.34 31.32 28 32 C23.74793388 29.13636364 23.74793388 29.13636364 22 27 C22.1875 23.6875 22.1875 23.6875 23 20 C22.83812007 17.28613059 22.42479749 14.69038408 22 12 C21.34 12 20.68 12 20 12 C18.66666667 10.66666667 17.33333333 9.33333333 16 8 C11.05142322 4.11183253 5.99334336 2.56348088 0 1 C0 0.67 0 0.34 0 0 Z " fill="#6E4509" transform="translate(62,18)" />
<path d="M0 0 C0.66 0.33 1.32 0.66 2 1 C2.66796875 3.6875 2.66796875 3.6875 3.1875 7 C3.27708984 7.5465625 3.27708984 7.5465625 3.73046875 10.3125 C3.81941406 11.199375 3.90835938 12.08625 4 13 C3 14 3 14 -0.0625 14.0625 C-1.031875 14.041875 -2.00125 14.02125 -3 14 C-4.43088528 11.13822943 -3.59991697 9.06624227 -3 6 C-4.32 5.34 -5.64 4.68 -7 4 C-6.030625 3.71125 -5.06125 3.4225 -4.0625 3.125 C-1 2 -1 2 0 0 Z " fill="#E5980A" transform="translate(69,24)" />
<path d="M0 0 C3 1 3 1 4.625 2.875 C10.71176952 8.32105694 19.18153436 8.57619532 27 9 C27 9.99 27 10.98 27 12 C18.93207595 12.49144715 13.0825535 11.96854736 6 8 C5.01 7.525625 4.02 7.05125 3 6.5625 C1 5 1 5 0.1875 2.3125 C0.1565625 1.9309375 0.1565625 1.9309375 0 0 Z " fill="#704301" transform="translate(22,54)" />
<path d="M0 0 C0.66 0.33 1.32 0.66 2 1 C0.98071608 3.75264246 0.36600733 4.80789324 -2.27734375 6.1953125 C-3.15519531 6.50210938 -4.03304687 6.80890625 -4.9375 7.125 C-8.01761565 8.22277318 -10.2501251 9.16675007 -13 11 C-15.77148438 11.25878906 -15.77148438 11.25878906 -19.09375 11.265625 C-20.28871094 11.26820312 -21.48367187 11.27078125 -22.71484375 11.2734375 C-23.96394531 11.26570313 -25.21304688 11.25796875 -26.5 11.25 C-27.12455078 11.25386719 -27.12455078 11.25386719 -30.28515625 11.2734375 C-30.88263672 11.27214844 -30.88263672 11.27214844 -33.90625 11.265625 C-34.45442383 11.26449707 -34.45442383 11.26449707 -37.22851562 11.25878906 C-40 11 -40 11 -43 9 C-42.62713867 9.00785522 -42.62713867 9.00785522 -40.74023438 9.04760742 C-37.32690157 9.11037588 -33.91369069 9.14912339 -30.5 9.1875 C-29.32695313 9.21263672 -28.15390625 9.23777344 -26.9453125 9.26367188 C-20.18063042 9.32067762 -15.13810777 8.88726324 -9 6 C-7.906875 5.505 -6.81375 5.01 -5.6875 4.5 C-3.32546941 3.18165734 -1.74530566 2.03618994 0 0 Z " fill="#796341" transform="translate(83,70)" />
<path d="M0 0 C0.99 0.165 0.99 0.165 6 1 C5.01 1.33 4.02 1.66 3 2 C3 2.66 3 3.32 3 4 C-2.67345002 5.81504739 -8.0912737 7.26140921 -14 8 C-14.33 8.165 -14.33 8.165 -16 9 C-17.99960012 9.039992 -20.00047242 9.04346799 -22 9 C-20.26690961 6.66409556 -18.86919292 5.19464552 -15.9765625 4.546875 C-13.65159092 4.3088233 -11.33300257 4.13746648 -9 4 C-5.0625 3.625 -5.0625 3.625 -2 3 C-1.34 2.01 -0.68 1.02 0 0 Z " fill="#4E2106" transform="translate(77,55)" />
<path d="M0 0 C0.33 0.99 0.66 1.98 1 3 C2.98 3 4.96 3 7 3 C7 3.99 7 4.98 7 6 C5.02 6 3.04 6 1 6 C1.33 7.65 1.66 9.3 2 11 C2.99 11.33 3.98 11.66 5 12 C1.23375329 13.25541557 -0.37188934 12.37061958 -4 11 C-3.34 9.02 -2.68 7.04 -2 5 C-3.65 5.33 -5.3 5.66 -7 6 C-7.33 6.99 -7.66 7.98 -8 9 C-8.33 8.34 -8.66 7.68 -9 7 C-8.34 6.01 -7.68 5.02 -7 4 C-3.875 3.8125 -3.875 3.8125 -1 4 C-0.67 2.68 -0.34 1.36 0 0 Z " fill="#EEB218" transform="translate(47,25)" />
<path d="M0 0 C-0.33 1.65 -0.66 3.3 -1 5 C-0.34 5 0.32 5 1 5 C1 5.66 1 6.32 1 7 C1.70125 7.0825 2.4025 7.165 3.125 7.25 C6.6903452 8.18009005 9.09015572 9.76686369 12 12 C12 12.66 12 13.32 12 14 C10.35 14.33 8.7 14.66 7 15 C7 14.01 7 13.02 7 12 C6.34 12 5.68 12 5 12 C5 11.01 5 10.02 5 9 C1.37 8.34 -2.26 7.68 -6 7 C-5.625 4.0625 -5.625 4.0625 -5 1 C-3 0 -3 0 0 0 Z " fill="#F6C435" transform="translate(45,30)" />
<path d="M0 0 C-0.33 0.99 -0.66 1.98 -1 3 C-3.64 3.33 -6.28 3.66 -9 4 C-9.33 5.32 -9.66 6.64 -10 8 C-13.16115776 6.63016497 -13.9927092 6.0109362 -16 3 C-9.93964947 -0.76724492 -6.88966563 -1.01650804 0 0 Z " fill="#FBC630" transform="translate(39,34)" />
<path d="M0 0 C1.65 0.33 3.3 0.66 5 1 C4.67 1.99 4.34 2.98 4 4 C5.32 3.67 6.64 3.34 8 3 C8.28875 3.639375 8.5775 4.27875 8.875 4.9375 C10 7 10 7 12 8 C12 8.66 12 9.32 12 10 C10.02 10 8.04 10 6 10 C6 8.35 6 6.7 6 5 C4.96875 5.33 3.9375 5.66 2.875 6 C-0.48426709 6.9715192 -3.49106202 7.17116771 -7 7 C-6.21625 6.401875 -5.4325 5.80375 -4.625 5.1875 C-2 3 -2 3 0 0 Z " fill="#AC7D1B" transform="translate(77,40)" />
<path d="M0 0 C0.33 0.66 0.66 1.32 1 2 C0 5 0 5 -2.9375 6.6875 C-6 8 -6 8 -8 8 C-8 8.66 -8 9.32 -8 10 C-8.66 10 -9.32 10 -10 10 C-10 10.99 -10 11.98 -10 13 C-12.35438733 14.42944945 -13.48032433 15.08661261 -16.25 14.625 C-16.8275 14.41875 -17.405 14.2125 -18 14 C-17.34 13.34 -16.68 12.68 -16 12 C-15.01 12 -14.02 12 -13 12 C-13 11.34 -13 10.68 -13 10 C-13.66 9.67 -14.32 9.34 -15 9 C-10.70543612 6.69559987 -6.68520915 5.21815438 -2 4 C-2 3.01 -2 2.02 -2 1 C-1.34 0.67 -0.68 0.34 0 0 Z " fill="#8C5312" transform="translate(84,62)" />
<path d="M0 0 C2.9719385 1.12451727 5.33440687 2.22293791 8 4 C8 4.66 8 5.32 8 6 C8.66 6 9.32 6 10 6 C10 6.99 10 7.98 10 9 C11.65 9 13.3 9 15 9 C14.34 9.33 14.34 9.33 11 11 C10.38125 10.38125 9.7625 9.7625 9.125 9.125 C5.43223585 6.61392038 2.46610715 6.12378476 -1.890625 5.4921875 C-2.58671875 5.32976563 -3.2828125 5.16734375 -4 5 C-4.33 4.34 -4.66 3.68 -5 3 C-3.35 2.67 -1.7 2.34 0 2 C0 1.34 0 0.68 0 0 Z " fill="#F2C81C" transform="translate(40,54)" />
<path d="M0 0 C0.33 0.99 0.66 1.98 1 3 C0.4225 3.0825 -0.155 3.165 -0.75 3.25 C-3.60798931 4.2026631 -4.92954588 5.86053074 -7 8 C-7.66 8 -8.32 8 -9 8 C-9.33 9.65 -9.66 11.3 -10 13 C-10.66 13 -11.32 13 -12 13 C-12.33 14.65 -12.66 16.3 -13 18 C-13.33 18 -13.66 18 -14 18 C-12.93579454 8.77688604 -12.93579454 8.77688604 -8.90625 5.078125 C-8.1121875 4.47484375 -7.318125 3.8715625 -6.5 3.25 C-6.10296875 2.94320313 -6.10296875 2.94320313 -4.09375 1.390625 C-2 0 -2 0 0 0 Z " fill="#CF8C15" transform="translate(34,21)" />
<path d="M0 0 C1.98 0 3.96 0 6 0 C6 0.66 6 1.32 6 2 C5.34 2 4.68 2 4 2 C3.34 3.98 2.68 5.96 2 8 C0.515 8.165 0.515 8.165 -7 9 C-6.67 8.01 -6.34 7.02 -6 6 C-5.34 6 -4.68 6 -4 6 C-4 5.34 -4 4.68 -4 4 C-3.01 3.67 -2.02 3.34 -1 3 C-0.67 2.01 -0.34 1.02 0 0 Z " fill="#CB972A" transform="translate(73,38)" />
<path d="M0 0 C0.66 0 1.32 0 2 0 C2.103125 0.3815625 2.103125 0.3815625 2.625 2.3125 C4.42070704 5.82229103 6.43136312 6.52599781 10 8 C9.67 8.165 9.67 8.165 8 9 C8 9.66 8 10.32 8 11 C6.35 11 4.7 11 3 11 C2.71125 10.030625 2.4225 9.06125 2.125 8.0625 C1 5 1 5 -1 4 C-0.67 2.68 -0.34 1.36 0 0 Z " fill="#7B9921" transform="translate(20,54)" />
<path d="M0 0 C0.33 0.99 0.66 1.98 1 3 C1.66 3.33 2.32 3.66 3 4 C2.34 4 1.68 4 1 4 C0.67 5.65 0.34 7.3 0 9 C-0.66 8.34 -1.32 7.68 -2 7 C-2 5.68 -2 4.36 -2 3 C-2.78375 2.71125 -3.5675 2.4225 -4.375 2.125 C-7 1 -7 1 -9 -1 C-5.40440208 -2.33170293 -3.34558716 -1.80842549 0 0 Z " fill="#AD650B" transform="translate(81,27)" />
<path d="M0 0 C2.97 0.33 5.94 0.66 9 1 C8.67 1.66 8.34 2.32 8 3 C7.960008 4.99960012 7.95653201 7.00047242 8 9 C7.01 9.33 6.02 9.66 5 10 C4.67 10.66 4.34 11.32 4 12 C4.165 11.4225 4.33 10.845 4.5 10.25 C5 8 5 8 5 4 C4.67 3.67 4.34 3.34 4 3 C3.34 4.98 2.68 6.96 2 9 C1.01879536 5.94736336 1.01879536 4.05263664 2 1 C1.34 0.67 0.68 0.34 0 0 Z " fill="#694603" transform="translate(82,50)" />
<path d="M0 0 C2.81666361 0.58842283 5.62726432 1.19474236 8.4375 1.8125 C9.23994141 1.97814453 10.04238281 2.14378906 10.86914062 2.31445312 C12.93749958 2.77699753 14.97333737 3.37976241 17 4 C17.33 4.99 17.66 5.98 18 7 C11.18012971 6.56699236 6.08356979 5.09212176 0 2 C0 1.34 0 0.68 0 0 Z " fill="#F1B250" transform="translate(24,40)" />
<path d="M0 0 C-2.31399023 2.31399023 -2.98604724 2.32256804 -6.1328125 2.6328125 C-6.93847656 2.71660156 -7.74414062 2.80039063 -8.57421875 2.88671875 C-9.41597656 2.96535156 -10.25773437 3.04398437 -11.125 3.125 C-11.97449219 3.21136719 -12.82398438 3.29773438 -13.69921875 3.38671875 C-15.79869727 3.59902557 -17.89926242 3.80053603 -20 4 C-20 3.01 -20 2.02 -20 1 C-13.31184516 0.37577221 -6.71884955 -0.12920865 0 0 Z " fill="#75A31D" transform="translate(70,66)" />
<path d="M0 0 C-0.60328125 0.31453125 -1.2065625 0.6290625 -1.828125 0.953125 C-6.1503191 3.26759023 -9.63905779 5.37018242 -13 9 C-13.66 9 -14.32 9 -15 9 C-15.66 10.32 -16.32 11.64 -17 13 C-17.33 12.34 -17.66 11.68 -18 11 C-7.2986511 -2.4010813 -7.2986511 -2.4010813 0 0 Z " fill="#74480D" transform="translate(38,19)" />
<path d="M0 0 C0 0.66 0 1.32 0 2 C-1.57925975 2.39180108 -3.16368794 2.76280736 -4.75 3.125 C-5.63171875 3.33382812 -6.5134375 3.54265625 -7.421875 3.7578125 C-10.32875493 4.03088304 -11.56661348 3.53508028 -14 2 C-9.32380218 -1.77112727 -5.55498905 -1.00449693 0 0 Z " fill="#E4B640" transform="translate(63,71)" />
<path d="M0 0 C0.45503906 0.09732422 0.45503906 0.09732422 2.7578125 0.58984375 C3.45648438 0.74582031 4.15515625 0.90179688 4.875 1.0625 C4.875 1.7225 4.875 2.3825 4.875 3.0625 C0.585 3.0625 -3.705 3.0625 -8.125 3.0625 C-7.795 2.0725 -7.465 1.0825 -7.125 0.0625 C-4.4030754 -1.2984623 -2.9418043 -0.64116248 0 0 Z " fill="#FEDE64" transform="translate(40.125,38.9375)" />
<path d="M0 0 C-2.30984208 3.46476311 -3.04028313 3.98900846 -7 5 C-10.03546083 4.86758057 -13.00193309 4.48334848 -16 4 C-15.34 3.34 -14.68 2.68 -14 2 C-12 2 -10 2 -8 2 C-4.77208445 -0.1519437 -3.71599191 -0.20086443 0 0 Z " fill="#96831F" transform="translate(76,67)" />
<path d="M0 0 C0.66 0 1.32 0 2 0 C1.67 1.65 1.34 3.3 1 5 C1.99 5.33 2.98 5.66 4 6 C4.33 7.98 4.66 9.96 5 12 C7.31 12 9.62 12 12 12 C12 12.33 12 12.66 12 13 C4.25 13.125 4.25 13.125 2 12 C2 10.02 2 8.04 2 6 C1.34 6 0.68 6 0 6 C-1.125 2.25 -1.125 2.25 0 0 Z " fill="#575C0D" transform="translate(18,53)" />
<path d="M0 0 C1.32 0.33 2.64 0.66 4 1 C1.69233187 3.7339253 0.1703257 4.43539772 -3.375 4.75 C-6.77206138 5.03262664 -9.69363804 4.95991154 -13 4 C-13 3.67 -13 3.34 -13 3 C-10.855 2.835 -10.855 2.835 0 2 C0 1.34 0 0.68 0 0 Z " fill="#E7B835" transform="translate(61,42)" />
<path d="M0 0 C0.66 0.33 1.32 0.66 2 1 C2.4140625 3.06640625 2.4140625 3.06640625 2.625 5.5625 C2.69976562 6.38878906 2.77453125 7.21507812 2.8515625 8.06640625 C2.87605469 8.38544922 2.87605469 8.38544922 3 10 C1.68 10 0.36 10 -1 10 C-1.125 2.25 -1.125 2.25 0 0 Z " fill="#F19208" transform="translate(69,24)" />
<path d="M0 0 C0.99 0 1.98 0 3 0 C2.3203125 1.890625 2.3203125 1.890625 1 4 C-1.3828125 5.046875 -1.3828125 5.046875 -4.125 5.75 C-5.03507812 5.99234375 -5.94515625 6.2346875 -6.8828125 6.484375 C-7.23214844 6.56945313 -7.23214844 6.56945313 -9 7 C-9.33 6.01 -9.66 5.02 -10 4 C-6.7 3.34 -3.4 2.68 0 2 C0 1.34 0 0.68 0 0 Z " fill="#312300" transform="translate(80,57)" />
<path d="M0 0 C3 1 3 1 4.8125 2.9375 C7.38750415 5.36536105 9.61963637 6.07808265 13 7 C13 7.33 13 7.66 13 8 C8.08121703 8.28934017 4.84199691 8.27699736 1 5 C0.1875 2.3125 0.1875 2.3125 0 0 Z " fill="#5D4101" transform="translate(22,54)" />
<path d="M0 0 C0.33 0.99 0.66 1.98 1 3 C0.34 3.66 -0.32 4.32 -1 5 C-1 4.34 -1 3.68 -1 3 C-1.6290625 3.08378906 -2.258125 3.16757812 -2.90625 3.25390625 C-8.5314382 3.9231681 -13.41233867 3.93127689 -19 3 C-19 2.67 -19 2.34 -19 2 C-18.02417969 1.93941406 -17.04835937 1.87882812 -16.04296875 1.81640625 C-14.77066406 1.73261719 -13.49835938 1.64882813 -12.1875 1.5625 C-10.92292969 1.48128906 -9.65835938 1.40007813 -8.35546875 1.31640625 C-5.436201 1.04113188 -2.88497422 0 0 0 Z " fill="#8D3406" transform="translate(81,45)" />
<path d="M0 0 C1.65 0 3.3 0 5 0 C5.33 0.66 5.66 1.32 6 2 C7.32 2 8.64 2 10 2 C9.67 3.32 9.34 4.64 9 6 C7.35 6 5.7 6 4 6 C4 5.01 4 4.02 4 3 C3.34 3 2.68 3 2 3 C2 2.34 2 1.68 2 1 C1.34 0.67 0.68 0.34 0 0 Z " fill="#FCDB0A" transform="translate(46,57)" />
<path d="M0 0 C3.96 0 7.92 0 12 0 C12.33 0.66 12.66 1.32 13 2 C12.2575 2.144375 11.515 2.28875 10.75 2.4375 C8 3 8 3 5.9375 3.6875 C3.38790331 4.09872527 2.16333992 3.31345638 0 2 C0 1.34 0 0.68 0 0 Z " fill="#C17539" transform="translate(28,55)" />
<path d="M0 0 C-0.33 1.32 -0.66 2.64 -1 4 C-1.99 4 -2.98 4 -4 4 C-4.33 4.66 -4.66 5.32 -5 6 C-7 3 -7 3 -7 0 C-4.3333581 -1.33332095 -2.83319697 -0.67102033 0 0 Z " fill="#E4B837" transform="translate(41,20)" />
<path d="M0 0 C4.29 0 8.58 0 13 0 C13 0.33 13 0.66 13 1 C12.4328125 1.144375 12.4328125 1.144375 9.5625 1.875 C8.386875 2.24625 7.21125 2.6175 6 3 C5.67 3.66 5.34 4.32 5 5 C3.02 5 1.04 5 -1 5 C0.32 4.67 1.64 4.34 3 4 C3 3.34 3 2.68 3 2 C2.01 1.67 1.02 1.34 0 1 C0 0.67 0 0.34 0 0 Z " fill="#672203" transform="translate(57,48)" />
<path d="M0 0 C2 3 2 3 1.625 5.6875 C1.41875 6.450625 1.2125 7.21375 1 8 C-0.32 8.33 -1.64 8.66 -3 9 C-2.4140625 2.84765625 -2.4140625 2.84765625 -2 1 C-1.34 0.67 -0.68 0.34 0 0 Z " fill="#C19014" transform="translate(84,35)" />
<path d="M0 0 C0.66 0 1.32 0 2 0 C2.33 1.32 2.66 2.64 3 4 C2.01 4.33 1.02 4.66 0 5 C0 6.65 0 8.3 0 10 C-0.99 9.67 -1.98 9.34 -3 9 C-3.33 8.01 -3.66 7.02 -4 6 C-3.01 5.67 -2.02 5.34 -1 5 C-0.67 3.35 -0.34 1.7 0 0 Z " fill="#B8780E" transform="translate(82,31)" />
<path d="M0 0 C-0.33 0.495 -0.33 0.495 -2 3 C-5.625 3.6875 -5.625 3.6875 -9 4 C-9 3.01 -9 2.02 -9 1 C-5.57367167 -0.61798838 -3.61944899 -1.34053666 0 0 Z " fill="#71371C" transform="translate(77,56)" />
<path d="M0 0 C1.67542976 0.28604898 3.34385343 0.61781233 5 1 C5.33 2.32 5.66 3.64 6 5 C4.68 5 3.36 5 2 5 C0.25 3 0.25 3 -1 1 C-0.67 0.67 -0.34 0.34 0 0 Z " fill="#F1C537" transform="translate(24,36)" />
<path d="M0 0 C-0.33 1.65 -0.66 3.3 -1 5 C-2.65 5.33 -4.3 5.66 -6 6 C-5.625 3.5625 -5.625 3.5625 -5 1 C-3 0 -3 0 0 0 Z " fill="#FCEA6F" transform="translate(45,30)" />
<path d="M0 0 C1.98 0 3.96 0 6 0 C6.33 0.66 6.66 1.32 7 2 C6.34 2 5.68 2 5 2 C5 2.66 5 3.32 5 4 C5.99 4.33 6.98 4.66 8 5 C5.69 4.67 3.38 4.34 1 4 C0.67 2.68 0.34 1.36 0 0 Z " fill="#A87B22" transform="translate(24,66)" />
<path d="M0 0 C7.5 -0.375 7.5 -0.375 12 3 C8.37 3 4.74 3 1 3 C0.67 2.01 0.34 1.02 0 0 Z " fill="#F3CA52" transform="translate(41,44)" />
<path d="M0 0 C0.99 0.33 1.98 0.66 3 1 C3.144375 1.639375 3.28875 2.27875 3.4375 2.9375 C4 5 4 5 6.0625 6.25 C6.701875 6.4975 7.34125 6.745 8 7 C8 7.99 8 8.98 8 10 C4.27549784 7.89484661 2.3204079 6.75732776 0.625 2.75 C0.41875 1.8425 0.2125 0.935 0 0 Z " fill="#6C4B1A" transform="translate(21,65)" />
<path d="M0 0 C0.33 0.66 0.66 1.32 1 2 C0 5 0 5 -2.8125 6.75 C-5.96403086 7.98589446 -6.96929372 8.28222189 -10 7 C-7.4345406 4.4345406 -5.52313332 4.45953913 -2 4 C-2 3.01 -2 2.02 -2 1 C-1.34 0.67 -0.68 0.34 0 0 Z " fill="#805C1A" transform="translate(84,62)" />
<path d="M0 0 C1.32 0.99 2.64 1.98 4 3 C3 5 2 7 1 9 C0.34 9 -0.32 9 -1 9 C-0.67 6.03 -0.34 3.06 0 0 Z " fill="#83A12B" transform="translate(85,52)" />
<path d="M0 0 C0.33 0 0.66 0 1 0 C1 3.96 1 7.92 1 12 C-0.32 11.34 -1.64 10.68 -3 10 C-3.33 9.01 -3.66 8.02 -4 7 C-3.01 6.67 -2.02 6.34 -1 6 C-0.67 4.02 -0.34 2.04 0 0 Z " fill="#6D643C" transform="translate(18,33)" />
<path d="M0 0 C0.59167969 0.13277344 1.18335937 0.26554687 1.79296875 0.40234375 C5.85446525 1.31005178 9.91374171 2.2091113 14 3 C14 3.33 14 3.66 14 4 C8.78020872 4.1799928 4.92737019 3.97094808 0 2 C0 1.34 0 0.68 0 0 Z " fill="#A02401" transform="translate(24,43)" />
<path d="M0 0 C2.86724686 0.57344937 3.8614515 0.8614515 6 3 C5 4 5 4 1.4375 4.0625 C0.303125 4.041875 -0.83125 4.02125 -2 4 C-1.34 2.68 -0.68 1.36 0 0 Z " fill="#9A340C" transform="translate(64,49)" />
<path d="M0 0 C0.98651887 2.95955661 1 4.92864836 1 8 C1.33 8.99 1.66 9.98 2 11 C1.34 11 0.68 11 0 11 C-0.33 12.65 -0.66 14.3 -1 16 C-2.40187289 13.19625421 -1.90114275 11.10474015 -1.625 8 C-1.53476562 6.9275 -1.44453125 5.855 -1.3515625 4.75 C-1 2 -1 2 0 0 Z " fill="#6B3C09" transform="translate(20,31)" />
<path d="M0 0 C0.33 0.66 0.66 1.32 1 2 C3.0625 3.125 3.0625 3.125 5 4 C3.35333797 3.8864371 1.70763918 3.75882619 0.0625 3.625 C-0.85402344 3.55539063 -1.77054688 3.48578125 -2.71484375 3.4140625 C-3.09189453 3.34574219 -3.09189453 3.34574219 -5 3 C-5.33 2.34 -5.66 1.68 -6 1 C-4.02 0.67 -2.04 0.34 0 0 Z " fill="#E8AA4F" transform="translate(41,56)" />
<path d="M0 0 C4.62 0.66 9.24 1.32 14 2 C14 2.33 14 2.66 14 3 C12.04174127 3.02694851 10.08337774 3.04637218 8.125 3.0625 C7.03445312 3.07410156 5.94390625 3.08570313 4.8203125 3.09765625 C2 3 2 3 0 2 C0 1.34 0 0.68 0 0 Z " fill="#F05222" transform="translate(22,46)" />
<path d="M0 0 C1.65 0 3.3 0 5 0 C5.33 0.66 5.66 1.32 6 2 C5.67 2.165 5.67 2.165 4 3 C4.66 3.66 5.32 4.32 6 5 C4.02 5 2.04 5 0 5 C0 3.35 0 1.7 0 0 Z " fill="#F1D358" transform="translate(59,19)" />
<path d="M0 0 C2 1 4 2 6 3 C6 3.66 6 4.32 6 5 C4.02 5 2.04 5 0 5 C0 3.35 0 1.7 0 0 Z " fill="#C77C24" transform="translate(83,45)" />
<path d="M0 0 C3.37462715 0.54723683 5.08235 1.0549 8 3 C8.33 3.66 8.66 4.32 9 5 C8.01 4.835 8.01 4.835 3 4 C3 3.34 3 2.68 3 2 C2.01 2 1.02 2 0 2 C0 1.34 0 0.68 0 0 Z " fill="#D09A30" transform="translate(29,68)" />
<path d="M0 0 C0 0.66 0 1.32 0 2 C-2 4 -2 4 -3.9453125 4.1953125 C-5.96354167 4.13020833 -7.98177083 4.06510417 -10 4 C-6.74659338 1.32755885 -4.23938937 0 0 0 Z " fill="#61801E" transform="translate(78,62)" />
<path d="M0 0 C1.32 0.33 2.64 0.66 4 1 C4 2.98 4 4.96 4 7 C3.01 7.33 2.02 7.66 1 8 C0.67 8.66 0.34 9.32 0 10 C0.165 9.4225 0.33 8.845 0.5 8.25 C1.1733744 5.2198152 1.41270365 2.82540729 0 0 Z " fill="#585207" transform="translate(86,52)" />
<path d="M0 0 C3.96 0 7.92 0 12 0 C10.35 1.32 8.7 2.64 7 4 C6.34 3.67 5.68 3.34 5 3 C5 2.67 5 2.34 5 2 C3.35 1.67 1.7 1.34 0 1 C0 0.67 0 0.34 0 0 Z " fill="#E5A721" transform="translate(57,54)" />
<path d="M0 0 C1.32 0 2.64 0 4 0 C4 0.66 4 1.32 4 2 C3.34 2 2.68 2 2 2 C1.7525 2.639375 1.505 3.27875 1.25 3.9375 C0 6 0 6 -2.125 6.75 C-2.434375 6.79125 -2.434375 6.79125 -4 7 C-3.34 6.01 -2.68 5.02 -2 4 C-1.34 4 -0.68 4 0 4 C0 2.68 0 1.36 0 0 Z " fill="#C18C1E" transform="translate(75,38)" />
<path d="M0 0 C1.32 0 2.64 0 4 0 C3.67 1.98 3.34 3.96 3 6 C2.34 6 1.68 6 1 6 C0.67 4.02 0.34 2.04 0 0 Z " fill="#FEEC6F" transform="translate(63,30)" />
<path d="M0 0 C-3.01490557 1.00496852 -5.04181692 1.10335303 -8.1875 1.0625 C-8.63802734 1.05798828 -8.63802734 1.05798828 -10.91796875 1.03515625 C-11.60503906 1.02355469 -12.29210938 1.01195313 -13 1 C-13 0.67 -13 0.34 -13 0 C-11.58800422 -0.39222105 -10.17007236 -0.76311059 -8.75 -1.125 C-7.96109375 -1.33382812 -7.1721875 -1.54265625 -6.359375 -1.7578125 C-3.5796929 -2.04314411 -2.34112451 -1.44977894 0 0 Z " fill="#D28A26" transform="translate(67,74)" />
<path d="M0 0 C2.64 0 5.28 0 8 0 C8 0.66 8 1.32 8 2 C9.32 2.33 10.64 2.66 12 3 C7.06729471 4.6442351 4.45975807 3.18615592 0 1 C0 0.67 0 0.34 0 0 Z " fill="#675C04" transform="translate(30,62)" />
<path d="M0 0 C6.75 0.75 6.75 0.75 9 3 C6.03 2.67 3.06 2.34 0 2 C0 1.34 0 0.68 0 0 Z " fill="#762206" transform="translate(25,51)" />
<path d="M0 0 C0.33 2.97 0.66 5.94 1 9 C0.01 8.34 -0.98 7.68 -2 7 C-2 5.68 -2 4.36 -2 3 C-3.32 2.34 -4.64 1.68 -6 1 C-3.92446352 0.4465236 -2.15634036 0 0 0 Z " fill="#E5A615" transform="translate(68,27)" />
<path d="M0 0 C0.66 0 1.32 0 2 0 C1.67 1.65 1.34 3.3 1 5 C-0.32 4.67 -1.64 4.34 -3 4 C-2 2 -2 2 0 0 Z " fill="#632D07" transform="translate(82,51)" />
<path d="M0 0 C0.99 0 1.98 0 3 0 C3 0.66 3 1.32 3 2 C3.66 2.33 4.32 2.66 5 3 C2.69 3.33 0.38 3.66 -2 4 C-1.34 2.68 -0.68 1.36 0 0 Z " fill="#C06A1A" transform="translate(19,46)" />
<path d="M0 0 C-0.3125 1.9375 -0.3125 1.9375 -1 4 C-1.99 4.33 -2.98 4.66 -4 5 C-4.66 4.01 -5.32 3.02 -6 2 C-2.25 0 -2.25 0 0 0 Z " fill="#FBBD1E" transform="translate(33,33)" />
<path d="M0 0 C1.65 0 3.3 0 5 0 C5.33 0.99 5.66 1.98 6 3 C4.02 3 2.04 3 0 3 C0 2.01 0 1.02 0 0 Z " fill="#FEE863" transform="translate(48,25)" />
</svg>