<?xml version='1.0' encoding='utf-8'?>
<svg xmlns="http://www.w3.org/2000/svg" version="1.1" width="103" height="92">
<path d="M0 0 C2.43333003 2.42012932 2.87940832 3.77946231 3.16015625 7.1484375 C3.90265625 6.9215625 4.64515625 6.6946875 5.41015625 6.4609375 C8.16015625 6.1484375 8.16015625 6.1484375 10.09765625 7.3359375 C10.43796875 7.635 10.43796875 7.635 12.16015625 9.1484375 C13.21203125 9.7671875 14.26390625 10.3859375 15.34765625 11.0234375 C18.16015625 13.1484375 18.16015625 13.1484375 19.03515625 15.8984375 C19.07640625 16.6409375 19.11765625 17.3834375 19.16015625 18.1484375 C18.17015625 18.1484375 17.18015625 18.1484375 16.16015625 18.1484375 C16.16015625 19.1384375 16.16015625 20.1284375 16.16015625 21.1484375 C13.01104096 22.46903423 9.82170445 23.65087286 6.59765625 24.7734375 C6.22576172 24.90363281 6.22576172 24.90363281 4.34375 25.5625 C2.16015625 26.1484375 2.16015625 26.1484375 -1.83984375 26.1484375 C-1.83984375 26.8084375 -1.83984375 27.4684375 -1.83984375 28.1484375 C-6.58338811 30.37499914 -10.5623509 31.60991782 -15.83984375 32.1484375 C-16.16984375 33.7984375 -16.49984375 35.4484375 -16.83984375 37.1484375 C-17.16984375 35.8284375 -17.49984375 34.5084375 -17.83984375 33.1484375 C-18.49984375 33.1484375 -19.15984375 33.1484375 -19.83984375 33.1484375 C-19.96359375 33.7878125 -20.08734375 34.4271875 -20.21484375 35.0859375 C-20.31796875 35.42625 -20.31796875 35.42625 -20.83984375 37.1484375 C-21.16984375 37.3134375 -21.16984375 37.3134375 -22.83984375 38.1484375 C-23.25390625 40.65234375 -23.25390625 40.65234375 -23.46484375 43.7109375 C-23.53960937 44.72285156 -23.614375 45.73476562 -23.69140625 46.77734375 C-23.74039063 47.55980469 -23.789375 48.34226563 -23.83984375 49.1484375 C-26.83984375 49.1484375 -26.83984375 49.1484375 -29.33984375 46.7734375 C-30.16484375 45.9071875 -30.98984375 45.0409375 -31.83984375 44.1484375 C-34.83984375 42.1484375 -34.83984375 42.1484375 -38.83984375 42.1484375 C-39.16984375 42.8084375 -39.49984375 43.4684375 -39.83984375 44.1484375 C-43.6037434 39.33270836 -43.59780674 34.20364954 -44.02734375 28.3359375 C-44.10919922 27.35689453 -44.19105469 26.37785156 -44.27539062 25.36914062 C-44.47493055 22.96292383 -44.6626903 20.55638862 -44.83984375 18.1484375 C-44.17984375 18.1484375 -43.51984375 18.1484375 -42.83984375 18.1484375 C-42.98421875 16.9521875 -43.12859375 15.7559375 -43.27734375 14.5234375 C-43.25917639 11.95275572 -43.12152603 10.56344939 -41.66796875 8.421875 C-36.84372442 3.94221955 -31.05908107 1.98593943 -24.83984375 0.1484375 C-24.46859375 0.035 -24.46859375 0.035 -22.58984375 -0.5390625 C-15.59527253 -2.39056665 -6.26290629 -4.08338044 0 0 Z " fill="#5BAC2F" transform="translate(63.83984375,18.8515625)" />
<path d="M0 0 C6.15423406 0.36925404 8.72703501 1.82877227 13 6 C15.60200616 11.20401232 14.17896905 19.53387078 13 25 C10.90371025 29.59187279 10.90371025 29.59187279 8.0625 30.875 C6 31 6 31 4.3125 30.3125 C0.73089563 29.82849941 -1.94610782 31.54930051 -5.0625 33.125 C-6.4005154 33.78232233 -7.73906222 34.43856397 -9.078125 35.09375 C-9.40844727 35.25681641 -9.40844727 35.25681641 -11.08007812 36.08203125 C-14.6216261 37.77534513 -18.27895736 39.21405479 -21.92578125 40.6640625 C-24.60209247 42.38778837 -24.98341009 44.05045743 -26 47 C-28.70879335 48.35439668 -31.00933268 48.06501451 -34 48 C-34 47.34 -34 46.68 -34 46 C-34.66 46 -35.32 46 -36 46 C-36.433125 45.21625 -36.86625 44.4325 -37.3125 43.625 C-39.30837239 40.52030962 -40.52112514 40.01820728 -44 39 C-44.680625 38.9175 -45.36125 38.835 -46.0625 38.75 C-48.58556243 37.77333067 -49.68391902 36.2336293 -51.11987305 33.99267578 C-52.92734841 29.90041117 -52.76924268 25.47199284 -52.875 21.0625 C-52.92140625 20.09892578 -52.9678125 19.13535156 -53.015625 18.14257812 C-53.21114948 12.64157202 -52.86172782 8.1883035 -51 3 C-50.67 3 -50.34 3 -50 3 C-50 5.64 -50 8.28 -50 11 C-50.66 11 -51.32 11 -52 11 C-51.8453125 11.61875 -51.8453125 11.61875 -51.0625 14.75 C-49.95754718 19.61797397 -49.60098396 24.42096038 -49.34375 29.3984375 C-49 32 -49 32 -47 35 C-47 34.67 -47 34.34 -47 34 C-40.87647862 34.36741128 -38.21348564 35.78651436 -34 40 C-34 40.66 -34 41.32 -34 42 C-33.01 42 -32.02 42 -31 42 C-31.01740234 41.61457031 -31.01740234 41.61457031 -31.10546875 39.6640625 C-31.13253906 38.66117188 -31.15960938 37.65828125 -31.1875 36.625 C-31.20490234 36.12613281 -31.20490234 36.12613281 -31.29296875 33.6015625 C-31.19628906 32.74304687 -31.09960938 31.88453125 -31 31 C-30.01 30.34 -29.02 29.68 -28 29 C-27.67 28.01 -27.34 27.02 -27 26 C-26.01 26.33 -25.02 26.66 -24 27 C-23.5978125 26.53980469 -23.195625 26.07960938 -22.78125 25.60546875 C-20.74175658 23.76724113 -19.10696002 23.1336924 -16.5 22.3125 C-15.7265625 22.06113281 -14.953125 21.80976562 -14.15625 21.55078125 C-12 21 -12 21 -9 21 C-9 20.34 -9 19.68 -9 19 C-6.87607494 18.3299166 -4.75082476 17.66403203 -2.625 17 C-1.44164062 16.62875 -0.25828125 16.2575 0.9609375 15.875 C4 15 4 15 6 15 C6.33 14.01 6.66 13.02 7 12 C7 12.66 7 13.32 7 14 C7.66 14 8.32 14 9 14 C9 13.01 9 12.02 9 11 C9.99 11 10.98 11 12 11 C10.8668344 7.67604757 9.88597094 5.51838725 6.796875 3.7109375 C4.55225838 2.72980005 2.30722765 1.82228239 0 1 C0 0.67 0 0.34 0 0 Z " fill="#257704" transform="translate(71,26)" />
<path d="M0 0 C6.27904325 0.24818353 11.1720754 0.54345422 16 5 C16.875 7.75 16.875 7.75 17 10 C16.01 10 15.02 10 14 10 C14 10.99 14 11.98 14 13 C10.85088471 14.32059673 7.6615482 15.50243536 4.4375 16.625 C4.06560547 16.75519531 4.06560547 16.75519531 2.18359375 17.4140625 C0 18 0 18 -4 18 C-4 18.66 -4 19.32 -4 20 C-8.74354436 22.22656164 -12.72250715 23.46148032 -18 24 C-18.33 25.65 -18.66 27.3 -19 29 C-19.33 27.68 -19.66 26.36 -20 25 C-22.97 25.66 -25.94 26.32 -29 27 C-29.37125 25.7625 -29.7425 24.525 -30.125 23.25 C-31.74465908 18.8923458 -33.83326513 17.17017441 -38 15 C-38.99 14.67 -39.98 14.34 -41 14 C-41 13.34 -41 12.68 -41 12 C-40.0925 12.165 -39.185 12.33 -38.25 12.5 C-27.69720374 14.0014141 -17.7851269 13.42259016 -8.15625 8.85546875 C-5.36398356 7.74766739 -2.96824412 7.69556471 0 8 C0 5.36 0 2.72 0 0 Z " fill="#77C34C" transform="translate(66,27)" />
<path d="M0 0 C6.15423406 0.36925404 8.72703501 1.82877227 13 6 C15.60200616 11.20401232 14.17896905 19.53387078 13 25 C10.90371025 29.59187279 10.90371025 29.59187279 8.0625 30.875 C6 31 6 31 4.3125 30.3125 C0.73089563 29.82849941 -1.94610782 31.54930051 -5.0625 33.125 C-6.4005154 33.78232233 -7.73906222 34.43856397 -9.078125 35.09375 C-9.40844727 35.25681641 -9.40844727 35.25681641 -11.08007812 36.08203125 C-14.6216261 37.77534513 -18.27895736 39.21405479 -21.92578125 40.6640625 C-24.60209247 42.38778837 -24.98341009 44.05045743 -26 47 C-28.70879335 48.35439668 -31.00933268 48.06501451 -34 48 C-34 47.34 -34 46.68 -34 46 C-34.66 46 -35.32 46 -36 46 C-36.433125 45.21625 -36.86625 44.4325 -37.3125 43.625 C-39.30837239 40.52030962 -40.52112514 40.01820728 -44 39 C-44.680625 38.9175 -45.36125 38.835 -46.0625 38.75 C-48.58556243 37.77333067 -49.68391902 36.2336293 -51.11987305 33.99267578 C-52.92734841 29.90041117 -52.76924268 25.47199284 -52.875 21.0625 C-52.92140625 20.09892578 -52.9678125 19.13535156 -53.015625 18.14257812 C-53.21114948 12.64157202 -52.86172782 8.1883035 -51 3 C-50.67 3 -50.34 3 -50 3 C-50 5.64 -50 8.28 -50 11 C-50.66 11 -51.32 11 -52 11 C-51.8453125 11.61875 -51.8453125 11.61875 -51.0625 14.75 C-49.95754718 19.61797397 -49.60098396 24.42096038 -49.34375 29.3984375 C-49 32 -49 32 -47 35 C-47 34.67 -47 34.34 -47 34 C-40.87647862 34.36741128 -38.21348564 35.78651436 -34 40 C-34 40.66 -34 41.32 -34 42 C-32.68 42 -31.36 42 -30 42 C-29.67 40.68 -29.34 39.36 -29 38 C-29 38.66 -29 39.32 -29 40 C-28.01 40 -27.02 40 -26 40 C-25.34 39.01 -24.68 38.02 -24 37 C-21.06991804 35.49056384 -18.20701742 34.844328 -15 34.25 C-9.56958566 33.14751655 -4.91378198 30.67051317 -0.015625 28.14453125 C3.2518861 26.90440074 4.72277943 26.95007563 8 28 C10.51284416 23.30935756 11.18614996 19.32000152 11.3125 14 C11.34988281 12.96875 11.38726562 11.9375 11.42578125 10.875 C10.89163048 7.2682572 9.8346596 6.21973344 7 4 C5.078125 2.953125 5.078125 2.953125 3.25 2.25 C2.71375 2.04375 2.71375 2.04375 0 1 C0 0.67 0 0.34 0 0 Z " fill="#2A3E03" transform="translate(71,26)" />
<path d="M0 0 C4.39184334 0.23739694 6.85831134 2.02813235 10 5 C12.00796384 8.05975443 12 9.14485886 12 13 C14.31 12.34 16.62 11.68 19 11 C18.625 12.9375 18.625 12.9375 18 15 C17.67 15.165 17.67 15.165 16 16 C15.5859375 18.50390625 15.5859375 18.50390625 15.375 21.5625 C15.30023438 22.57441406 15.22546875 23.58632812 15.1484375 24.62890625 C15.09945312 25.41136719 15.05046875 26.19382812 15 27 C12 27 12 27 9.5 24.625 C8.675 23.75875 7.85 22.8925 7 22 C4 20 4 20 1.375 19.5 C0.59125 19.335 -0.1925 19.17 -1 19 C-2.5171199 15.96576019 -2.18439257 12.82495206 -2.1875 9.5 C-2.19974609 8.81035156 -2.21199219 8.12070312 -2.22460938 7.41015625 C-2.22988695 5.60522506 -2.12184458 3.80082158 -2 2 C-1.34 1.34 -0.68 0.68 0 0 Z " fill="#56A528" transform="translate(25,41)" />
<path d="M0 0 C0.53238281 0.48855469 1.06476563 0.97710938 1.61328125 1.48046875 C1.28328125 2.47046875 0.95328125 3.46046875 0.61328125 4.48046875 C0.61328125 3.82046875 0.61328125 3.16046875 0.61328125 2.48046875 C-4.17972008 1.08895223 -8.53807657 1.79384186 -13.38671875 2.48046875 C-13.71671875 4.13046875 -14.04671875 5.78046875 -14.38671875 7.48046875 C-15.37671875 6.16046875 -16.36671875 4.84046875 -17.38671875 3.48046875 C-17.71671875 3.97546875 -17.71671875 3.97546875 -19.38671875 6.48046875 C-21.35424703 7.54293402 -23.35259454 8.55184683 -25.38671875 9.48046875 C-25.71671875 8.49046875 -26.04671875 7.50046875 -26.38671875 6.48046875 C-29.71067118 7.61363435 -31.8683315 8.59449781 -33.67578125 11.68359375 C-34.6569187 13.92821037 -35.56443636 16.1732411 -36.38671875 18.48046875 C-37.04671875 18.48046875 -37.70671875 18.48046875 -38.38671875 18.48046875 C-38.71671875 16.83046875 -39.04671875 15.18046875 -39.38671875 13.48046875 C-40.04671875 13.48046875 -40.70671875 13.48046875 -41.38671875 13.48046875 C-41.12368118 10.32401797 -40.66416568 8.78566037 -38.51171875 6.41796875 C-29.45016581 0.79980593 -9.9142238 -6.31200173 0 0 Z " fill="#65B538" transform="translate(63.38671875,18.51953125)" />
<path d="M0 0 C0.33 1.65 0.66 3.3 1 5 C2.65 4.67 4.3 4.34 6 4 C6.33 4.495 6.33 4.495 8 7 C5.36 6.67 2.72 6.34 0 6 C-0.33 7.32 -0.66 8.64 -1 10 C-1.33 9.34 -1.66 8.68 -2 8 C-5 9 -5 9 -6 11 C-7.32 11 -8.64 11 -10 11 C-10.33 11.66 -10.66 12.32 -11 13 C-13.0625 13.625 -13.0625 13.625 -15 14 C-16.97153141 9.07117148 -17.26582874 5.2279653 -17 0 C-13.02053253 -3.97946747 -4.56993303 -1.6529545 0 0 Z " fill="#67B73A" transform="translate(66,21)" />
<path d="M0 0 C6.27904325 0.24818353 11.1720754 0.54345422 16 5 C16.875 7.75 16.875 7.75 17 10 C16.01 10 15.02 10 14 10 C14 10.99 14 11.98 14 13 C12.35 13.33 10.7 13.66 9 14 C9 13.34 9 12.68 9 12 C3.70346121 11.06040376 -1.08668517 11.01158885 -6.4375 11.4375 C-7.16904297 11.48970703 -7.90058594 11.54191406 -8.65429688 11.59570312 C-10.43668622 11.72384876 -12.2184257 11.8609816 -14 12 C-10.73262697 8.73262697 -7.16831802 8.04327104 -2.625 7.875 C-1.75875 7.91625 -0.8925 7.9575 0 8 C0 5.36 0 2.72 0 0 Z " fill="#66B83C" transform="translate(66,27)" />
<path d="M0 0 C2 3 2 3 2 7 C1.16855469 7.19335938 0.33710937 7.38671875 -0.51953125 7.5859375 C-1.60621094 7.84632812 -2.69289063 8.10671875 -3.8125 8.375 C-4.89144531 8.63023438 -5.97039063 8.88546875 -7.08203125 9.1484375 C-10 10 -10 10 -13 12 C-15.9609375 12.51953125 -15.9609375 12.51953125 -19.375 12.8125 C-19.93574219 12.86728516 -19.93574219 12.86728516 -22.7734375 13.14453125 C-26.38957977 12.98254909 -28.10351348 12.0991391 -31 10 C-30.67 9.01 -30.34 8.02 -30 7 C-24.65998179 5.66499545 -21.16044765 6.487455 -16 8 C-16 5.69 -16 3.38 -16 1 C-15.34 1 -14.68 1 -14 1 C-13.67 2.65 -13.34 4.3 -13 6 C-12.2575 5.67 -11.515 5.34 -10.75 5 C-8 4 -8 4 -4 4 C-3.67 3.01 -3.34 2.02 -3 1 C-2.01 0.67 -1.02 0.34 0 0 Z " fill="#3D8F14" transform="translate(64,28)" />
<path d="M0 0 C0.33 0 0.66 0 1 0 C1 2.64 1 5.28 1 8 C0.34 8 -0.32 8 -1 8 C-0.8453125 8.61875 -0.8453125 8.61875 -0.0625 11.75 C1.04245282 16.61797397 1.39901604 21.42096038 1.65625 26.3984375 C2 29 2 29 4 32 C4 31.67 4 31.34 4 31 C10.12352138 31.36741128 12.78651436 32.78651436 17 37 C17 37.66 17 38.32 17 39 C17.99 39 18.98 39 20 39 C20 39.66 20 40.32 20 41 C21.65 41 23.3 41 25 41 C25 41.99 25 42.98 25 44 C22.29120665 45.35439668 19.99066732 45.06501451 17 45 C17 44.34 17 43.68 17 43 C16.34 43 15.68 43 15 43 C14.566875 42.21625 14.13375 41.4325 13.6875 40.625 C11.69162761 37.52030962 10.47887486 37.01820728 7 36 C6.319375 35.9175 5.63875 35.835 4.9375 35.75 C2.41443757 34.77333067 1.31608098 33.2336293 -0.11987305 30.99267578 C-1.92734841 26.90041117 -1.76924268 22.47199284 -1.875 18.0625 C-1.92140625 17.09892578 -1.9678125 16.13535156 -2.015625 15.14257812 C-2.21114948 9.64157202 -1.86172782 5.1883035 0 0 Z " fill="#556C19" transform="translate(20,29)" />
<path d="M0 0 C0.33 0.66 0.66 1.32 1 2 C-0.33216504 4.66433008 -1.47151628 4.74447159 -4.25 5.6875 C-11.5626347 7.94107925 -16.34055878 5.1193461 -23 2 C-23 1.67 -23 1.34 -23 1 C-20.4803886 0.63400603 -17.96006672 0.28199149 -15.4375 -0.0625 C-14.73302734 -0.16626953 -14.02855469 -0.27003906 -13.30273438 -0.37695312 C-8.67281793 -0.99569772 -4.61666496 -1.03978941 0 0 Z " fill="#80CA54" transform="translate(75,38)" />
<path d="M0 0 C0.33 0.99 0.66 1.98 1 3 C0.01 3.66 -0.98 4.32 -2 5 C-2.51171875 7.6015625 -2.51171875 7.6015625 -2.6875 10.625 C-2.75324219 11.62789062 -2.81898437 12.63078125 -2.88671875 13.6640625 C-2.92410156 14.43492188 -2.96148437 15.20578125 -3 16 C-6 16 -6 16 -8.5 13.625 C-9.325 12.75875 -10.15 11.8925 -11 11 C-13.91765 9.0549 -15.62537285 8.54723683 -19 8 C-19.33 6.02 -19.66 4.04 -20 2 C-19.6390625 2.33 -19.6390625 2.33 -17.8125 4 C-14.78402067 6.1535853 -13.60296594 6.41176754 -10 6 C-9.67 5.34 -9.34 4.68 -9 4 C-9 4.66 -9 5.32 -9 6 C-8.34 6 -7.68 6 -7 6 C-6.67 5.01 -6.34 4.02 -6 3 C-5.67 4.32 -5.34 5.64 -5 7 C-4.731875 6.030625 -4.46375 5.06125 -4.1875 4.0625 C-3.795625 3.051875 -3.40375 2.04125 -3 1 C-2.01 0.67 -1.02 0.34 0 0 Z " fill="#489E1F" transform="translate(43,52)" />
<path d="M0 0 C0.33 0.99 0.66 1.98 1 3 C2.65 2.67 4.3 2.34 6 2 C6.33 2.495 6.33 2.495 8 5 C5.36 4.67 2.72 4.34 0 4 C-0.33 5.32 -0.66 6.64 -1 8 C-1.33 7.34 -1.66 6.68 -2 6 C-5 7 -5 7 -6 9 C-7.32 9 -8.64 9 -10 9 C-10.33 9.66 -10.66 10.32 -11 11 C-13.0625 11.625 -13.0625 11.625 -15 12 C-15.93423645 8.98968256 -16.04449911 8.13349732 -15 5 C-12.4375 3.3125 -12.4375 3.3125 -10 2 C-9.01 2.66 -8.02 3.32 -7 4 C-7 3.34 -7 2.68 -7 2 C-5.34385343 1.61781233 -3.67542976 1.28604898 -2 1 C-1.67 1.33 -1.34 1.66 -1 2 C-0.67 1.34 -0.34 0.68 0 0 Z " fill="#59A22C" transform="translate(66,23)" />
<path d="M0 0 C1.03125 0.165 2.0625 0.33 3.125 0.5 C6.48244326 0.93321848 9.62336157 1.08235703 13 1 C13.66 2.32 14.32 3.64 15 5 C15.66 5 16.32 5 17 5 C17.6875 7.3125 17.6875 7.3125 18 10 C16.625 11.6875 16.625 11.6875 15 13 C14.67 13.66 14.34 14.32 14 15 C13.34 15 12.68 15 12 15 C11.62875 13.7625 11.2575 12.525 10.875 11.25 C9.25534092 6.8923458 7.16673487 5.17017441 3 3 C2.01 2.67 1.02 2.34 0 2 C0 1.34 0 0.68 0 0 Z " fill="#8FD158" transform="translate(25,39)" />
<path d="M0 0 C0 0.66 0 1.32 0 2 C-0.29583984 2.03867187 -0.29583984 2.03867187 -1.79296875 2.234375 C-4.59112828 2.83691506 -6.56202067 3.47116681 -9 5 C-11.27326817 8.81473083 -12.69384161 12.76647154 -14 17 C-14.66 17 -15.32 17 -16 17 C-16.33 15.35 -16.66 13.7 -17 12 C-17.66 12 -18.32 12 -19 12 C-18.72524783 8.70297393 -18.27233527 7.28058785 -15.9375 4.875 C-10.98631209 1.71466729 -5.98787389 -0.56136318 0 0 Z " fill="#80C851" transform="translate(41,20)" />
<path d="M0 0 C0.66 0 1.32 0 2 0 C2.33 2.31 2.66 4.62 3 7 C3.556875 6.79375 4.11375 6.5875 4.6875 6.375 C7.659538 5.89304789 9.31979941 6.73434972 12 8 C9.83572512 9.12221661 7.73059447 10.098563 5.4375 10.9375 C3.00676845 11.99704965 1.71524145 13.01393095 0 15 C-0.66 14.67 -1.32 14.34 -2 14 C-2.66 14.66 -3.32 15.32 -4 16 C-4.08086147 14.20906809 -4.13912702 12.41710372 -4.1875 10.625 C-4.22230469 9.62726562 -4.25710937 8.62953125 -4.29296875 7.6015625 C-4.24462891 7.17230469 -4.24462891 7.17230469 -4 5 C-3.01 4.34 -2.02 3.68 -1 3 C-0.67 2.01 -0.34 1.02 0 0 Z " fill="#207003" transform="translate(44,52)" />
<path d="M0 0 C0.99 0 1.98 0 3 0 C3.19705341 10.04972376 3.19705341 10.04972376 2 14 C1.34 14.66 0.68 15.32 0 16 C-0.33 16.66 -0.66 17.32 -1 18 C-2.98 17.67 -2.98 17.67 -13 16 C-9.09567131 14.04783565 -6.27786748 13.49360009 -2 13 C-2.33 9.04 -2.66 5.08 -3 1 C-2.67 1.66 -2.34 2.32 -2 3 C-1.34 3 -0.68 3 0 3 C0 2.01 0 1.02 0 0 Z " fill="#3D8517" transform="translate(80,37)" />
<path d="M0 0 C0.33 0.66 0.66 1.32 1 2 C2.9609375 2.59765625 2.9609375 2.59765625 5.375 3.0625 C8.02183151 3.58410686 10.4317625 4.14392083 13 5 C13 3.35 13 1.7 13 0 C13.99 0 14.98 0 16 0 C16.33 1.65 16.66 3.3 17 5 C16.01 5 15.02 5 14 5 C14 5.99 14 6.98 14 8 C12.35 8.33 10.7 8.66 9 9 C9 8.34 9 7.68 9 7 C3.70346121 6.06040376 -1.08668517 6.01158885 -6.4375 6.4375 C-7.16904297 6.48970703 -7.90058594 6.54191406 -8.65429688 6.59570312 C-10.43668622 6.72384876 -12.2184257 6.8609816 -14 7 C-10.73262697 3.73262697 -7.16831802 3.04327104 -2.625 2.875 C-1.75875 2.91625 -0.8925 2.9575 0 3 C0 2.01 0 1.02 0 0 Z " fill="#64B33A" transform="translate(66,32)" />
<path d="M0 0 C-2.66666667 0.66666667 -5.33333333 1.33333333 -8 2 C-8.66 4.97 -9.32 7.94 -10 11 C-12.31 11.66 -14.62 12.32 -17 13 C-16.34 11.35 -15.68 9.7 -15 8 C-14.34 8 -13.68 8 -13 8 C-13.33 6.35 -13.66 4.7 -14 3 C-14.66 3 -15.32 3 -16 3 C-16.33 2.01 -16.66 1.02 -17 0 C-15.10768055 -0.39234694 -13.21089343 -0.76318316 -11.3125 -1.125 C-10.78462891 -1.22941406 -10.78462891 -1.22941406 -8.11328125 -1.7578125 C-4.75602341 -2.01897936 -2.9770956 -1.49130948 0 0 Z " fill="#76C048" transform="translate(56,41)" />
<path d="M0 0 C6.15423406 0.36925404 8.72703501 1.82877227 13 6 C15.60200616 11.20401232 14.17896905 19.53387078 13 25 C10.88970588 29.62254902 10.88970588 29.62254902 7.9375 30.875 C6 31 6 31 4 30 C5 28 5 28 8 27 C11.48587189 21.19021352 12.19387649 14.66502702 11 8 C8.75321081 5.17560488 6.60209245 3.53926633 3.25 2.25 C2.1775 1.8375 1.105 1.425 0 1 C0 0.67 0 0.34 0 0 Z " fill="#39410B" transform="translate(71,26)" />
<path d="M0 0 C0.33 0 0.66 0 1 0 C1 2.64 1 5.28 1 8 C0.34 8 -0.32 8 -1 8 C-0.8453125 8.61875 -0.8453125 8.61875 -0.0625 11.75 C1.03360313 16.58665087 1.39768081 21.35564548 1.65625 26.30078125 C2.00288601 29.02266176 2.44684933 30.74373383 4 33 C5.99285937 33.37366113 7.99363529 33.70740515 10 34 C10.66 34.99 11.32 35.98 12 37 C4.55702918 36.38992042 4.55702918 36.38992042 2.125 34.6875 C-1.45946376 29.31080436 -1.4930413 24.51614413 -1.75 18.1875 C-1.80542969 17.21490234 -1.86085938 16.24230469 -1.91796875 15.24023438 C-2.16637059 9.68130235 -1.90104546 5.24249843 0 0 Z " fill="#39400A" transform="translate(20,29)" />
<path d="M0 0 C0.33 0.66 0.66 1.32 1 2 C3.5625 2.625 3.5625 2.625 6 3 C5.835 3.928125 5.67 4.85625 5.5 5.8125 C4.54115218 12.53813254 4.49143655 19.36710989 6 26 C3.41398891 24.70699445 3.07855729 23.6523411 2 21 C1.58935547 18.61816406 1.58935547 18.61816406 1.3671875 16.015625 C1.28339844 15.08105469 1.19960938 14.14648438 1.11328125 13.18359375 C1.03464844 12.21550781 0.95601562 11.24742188 0.875 10.25 C0.78863281 9.26644531 0.70226562 8.28289063 0.61328125 7.26953125 C0.40159362 4.84688397 0.19743721 2.42384333 0 0 Z " fill="#619430" transform="translate(19,37)" />
<path d="M0 0 C0.66 0.33 1.32 0.66 2 1 C2 2.32 2 3.64 2 5 C1.16855469 5.19335938 0.33710937 5.38671875 -0.51953125 5.5859375 C-1.60621094 5.84632812 -2.69289063 6.10671875 -3.8125 6.375 C-4.35197266 6.50261719 -4.35197266 6.50261719 -7.08203125 7.1484375 C-10 8 -10 8 -13 10 C-15.91796875 10.4140625 -15.91796875 10.4140625 -19.1875 10.625 C-20.27417969 10.69976562 -21.36085937 10.77453125 -22.48046875 10.8515625 C-22.89619141 10.87605469 -22.89619141 10.87605469 -25 11 C-25 10.34 -25 9.68 -25 9 C-24.54689453 8.91492188 -24.54689453 8.91492188 -22.25390625 8.484375 C-15.68332244 7.17721124 -9.67591926 5.78283918 -3.671875 2.76953125 C-2 2 -2 2 0 2 C0 1.34 0 0.68 0 0 Z " fill="#378A0D" transform="translate(64,30)" />
<path d="M0 0 C0.26619141 0.24427734 0.26619141 0.24427734 1.61328125 1.48046875 C1.28328125 2.47046875 0.95328125 3.46046875 0.61328125 4.48046875 C0.61328125 3.82046875 0.61328125 3.16046875 0.61328125 2.48046875 C-2.88019371 1.40686425 -6.11903575 1.34697765 -9.76171875 1.35546875 C-10.86257812 1.35289063 -11.9634375 1.3503125 -13.09765625 1.34765625 C-16.38671875 1.48046875 -16.38671875 1.48046875 -19.67578125 2.11328125 C-20.57039063 2.23445313 -21.465 2.355625 -22.38671875 2.48046875 C-23.04671875 1.82046875 -23.70671875 1.16046875 -24.38671875 0.48046875 C-17.19124238 -1.47084688 -6.65936359 -4.23975849 0 0 Z " fill="#80AC50" transform="translate(63.38671875,18.51953125)" />
<path d="M0 0 C0.33 0.99 0.66 1.98 1 3 C1.66 3 2.32 3 3 3 C3.33 4.65 3.66 6.3 4 8 C5.815 8.33 5.815 8.33 15 10 C10.38553428 12.30723286 8.92217216 11.94989287 4 11 C3.030625 10.814375 2.06125 10.62875 1.0625 10.4375 C0.7221875 10.3653125 0.7221875 10.3653125 -1 10 C-0.67 6.7 -0.34 3.4 0 0 Z " fill="#76BF40" transform="translate(21,29)" />
<path d="M0 0 C10.55808656 0.59453303 10.55808656 0.59453303 15 4 C14 7 14 7 12 10 C11.690625 9.236875 11.38125 8.47375 11.0625 7.6875 C8.10698839 3.83637881 4.57899591 3.18074737 0 2 C0 1.34 0 0.68 0 0 Z " fill="#93D361" transform="translate(66,27)" />
<path d="M0 0 C-3.21531688 3.72976759 -6.46889472 5.18755789 -11 7 C-11.495 7.33 -11.495 7.33 -14 9 C-14 7.02 -14 5.04 -14 3 C-12.04486839 2.303447 -10.08577524 1.61800435 -8.125 0.9375 C-7.03445312 0.55464844 -5.94390625 0.17179687 -4.8203125 -0.22265625 C-2 -1 -2 -1 0 0 Z " fill="#3A8A14" transform="translate(77,42)" />
<path d="M0 0 C0.66 0 1.32 0 2 0 C2 1.32 2 2.64 2 4 C1.34 4 0.68 4 0 4 C-0.03738281 4.69867188 -0.07476562 5.39734375 -0.11328125 6.1171875 C-0.17902344 7.02726562 -0.24476562 7.93734375 -0.3125 8.875 C-0.37050781 9.77992187 -0.42851563 10.68484375 -0.48828125 11.6171875 C-1 14 -1 14 -4 16 C-4.08086147 14.20906809 -4.13912702 12.41710372 -4.1875 10.625 C-4.22230469 9.62726562 -4.25710937 8.62953125 -4.29296875 7.6015625 C-4.24462891 7.17230469 -4.24462891 7.17230469 -4 5 C-3.01 4.34 -2.02 3.68 -1 3 C-0.67 2.01 -0.34 1.02 0 0 Z " fill="#2C8006" transform="translate(44,52)" />
<path d="M0 0 C-5.75 3 -5.75 3 -8 3 C-8.309375 3.639375 -8.61875 4.27875 -8.9375 4.9375 C-10 7 -10 7 -11 8 C-12.66617115 8.04063832 -14.33388095 8.042721 -16 8 C-15.67 6.02 -15.34 4.04 -15 2 C-14.67 2.66 -14.34 3.32 -14 4 C-13.01 4 -12.02 4 -11 4 C-10.34 3.01 -9.68 2.02 -9 1 C-5.62745872 -0.77502172 -3.61207747 -1.33780647 0 0 Z " fill="#295504" transform="translate(56,62)" />
<path d="M0 0 C0 0.66 0 1.32 0 2 C-0.66 2 -1.32 2 -2 2 C-2 2.66 -2 3.32 -2 4 C-3.98 4.33 -5.96 4.66 -8 5 C-8 5.66 -8 6.32 -8 7 C-9.98 7.66 -11.96 8.32 -14 9 C-13.83984375 6.64453125 -13.83984375 6.64453125 -13 4 C-10.56640625 2.63671875 -10.56640625 2.63671875 -7.5625 1.6875 C-6.57378906 1.36136719 -5.58507812 1.03523438 -4.56640625 0.69921875 C-2 0 -2 0 0 0 Z " fill="#43921C" transform="translate(61,47)" />
<path d="M0 0 C-2.56528426 3.03901272 -5.42319941 4.24652224 -9.0625 5.75 C-9.59423828 5.97429688 -9.59423828 5.97429688 -12.28515625 7.109375 C-15 8 -15 8 -17 7 C-15.68 6.67 -14.36 6.34 -13 6 C-13 5.34 -13 4.68 -13 4 C-8.86950146 0.31205488 -5.4040984 -0.15011384 0 0 Z " fill="#2D6608" transform="translate(73,53)" />
<path d="M0 0 C0.66 0 1.32 0 2 0 C1.67 0.99 1.34 1.98 1 3 C3.64 3 6.28 3 9 3 C6.60490662 5.89932357 4.68754757 6.50168276 1 7 C0.67 8.65 0.34 10.3 0 12 C-0.33 12 -0.66 12 -1 12 C-1.02698189 10.37509046 -1.04638757 8.75005367 -1.0625 7.125 C-1.07410156 6.22007813 -1.08570313 5.31515625 -1.09765625 4.3828125 C-1 2 -1 2 0 0 Z " fill="#81CC54" transform="translate(47,44)" />
<path d="M0 0 C1.65 0 3.3 0 5 0 C5.33 3.63 5.66 7.26 6 11 C4.02 11.66 2.04 12.32 0 13 C0.66 11.35 1.32 9.7 2 8 C2.66 8 3.32 8 4 8 C3.67 6.35 3.34 4.7 3 3 C2.34 3 1.68 3 1 3 C0.67 2.01 0.34 1.02 0 0 Z " fill="#62AC2F" transform="translate(39,41)" />
<path d="M0 0 C0 0.66 0 1.32 0 2 C-0.66 2 -1.32 2 -2 2 C-2.66 3.32 -3.32 4.64 -4 6 C-5.65 5.01 -7.3 4.02 -9 3 C-8.67 2.01 -8.34 1.02 -8 0 C-5.13822943 -1.43088528 -3.06624227 -0.59991697 0 0 Z " fill="#459518" transform="translate(42,35)" />
<path d="M0 0 C0.99 0.33 1.98 0.66 3 1 C2.608125 1.1753125 2.608125 1.1753125 0.625 2.0625 C-2.83547272 4.61665844 -3.14536744 6.88222494 -4 11 C-5.32 10.67 -6.64 10.34 -8 10 C-7.70179167 6.42150008 -7.25754642 5.23773516 -4.5625 2.75 C-2 1 -2 1 0 0 Z " fill="#A0D16D" transform="translate(30,22)" />
<path d="M0 0 C-0.33 1.65 -0.66 3.3 -1 5 C-2.98 4.67 -2.98 4.67 -13 3 C-8.21852189 0.60926095 -5.27819716 -0.11729327 0 0 Z " fill="#466D11" transform="translate(80,50)" />
<path d="M0 0 C5.04529854 0.74195567 9.38395377 2.22234915 12.875 6.0625 C14 8 14 8 14 10 C11.52105044 8.89824464 9.6754554 7.733707 7.5625 6 C5.08071863 4.06299991 2.95836218 3.01429561 0 2 C0 1.34 0 0.68 0 0 Z " fill="#95D85E" transform="translate(25,39)" />
<path d="M0 0 C-0.33 1.32 -0.66 2.64 -1 4 C-1.7425 3.979375 -2.485 3.95875 -3.25 3.9375 C-5.70462279 3.99328688 -7.66109261 4.3069904 -10 5 C-10 3.68 -10 2.36 -10 1 C-6.78548731 -0.60725635 -3.56387464 -0.05748185 0 0 Z " fill="#2A7F0B" transform="translate(56,55)" />
<path d="M0 0 C0.33 0.99 0.66 1.98 1 3 C0.01 3.66 -0.98 4.32 -2 5 C-2.51171875 7.6015625 -2.51171875 7.6015625 -2.6875 10.625 C-2.75324219 11.62789062 -2.81898437 12.63078125 -2.88671875 13.6640625 C-2.92410156 14.43492188 -2.96148437 15.20578125 -3 16 C-3.99 16 -4.98 16 -6 16 C-6.33 15.01 -6.66 14.02 -7 13 C-6.34 13 -5.68 13 -5 13 C-4.98710938 12.61457031 -4.98710938 12.61457031 -4.921875 10.6640625 C-4.86515625 9.66117188 -4.8084375 8.65828125 -4.75 7.625 C-4.70359375 6.62726562 -4.6571875 5.62953125 -4.609375 4.6015625 C-4 2 -4 2 -1.953125 0.6484375 C-1.30859375 0.43445312 -0.6640625 0.22046875 0 0 Z " fill="#429213" transform="translate(43,52)" />
<path d="M0 0 C1.98 0.66 3.96 1.32 6 2 C5.67 2.99 5.34 3.98 5 5 C2.93359375 5.94921875 2.93359375 5.94921875 0.4375 6.6875 C-0.38878906 6.93886719 -1.21507812 7.19023438 -2.06640625 7.44921875 C-2.70449219 7.63097656 -3.34257813 7.81273437 -4 8 C-3.67 6.68 -3.34 5.36 -3 4 C-1.68 3.67 -0.36 3.34 1 3 C0.67 2.01 0.34 1.02 0 0 Z " fill="#6CB93E" transform="translate(57,42)" />
<path d="M0 0 C2 2 2 2 2 5 C0.5625 6.5625 0.5625 6.5625 -1 8 C-1.33 8.66 -1.66 9.32 -2 10 C-2.66 10 -3.32 10 -4 10 C-4.66 7.69 -5.32 5.38 -6 3 C-5.175 3.165 -5.175 3.165 -1 4 C-0.67 2.68 -0.34 1.36 0 0 Z " fill="#7EC549" transform="translate(41,44)" />
<path d="M0 0 C0.33 0.99 0.66 1.98 1 3 C1.66 3 2.32 3 3 3 C3.33 4.32 3.66 5.64 4 7 C3.34 7 2.68 7 2 7 C2.33 7.99 2.66 8.98 3 10 C1.68 10 0.36 10 -1 10 C-0.67 6.7 -0.34 3.4 0 0 Z " fill="#7CB147" transform="translate(21,29)" />
<path d="M0 0 C5.75 2.75 5.75 2.75 8 5 C8 5.99 8 6.98 8 8 C8.66 8.33 9.32 8.66 10 9 C9.01 9.33 8.02 9.66 7 10 C6.67 9.01 6.34 8.02 6 7 C5.34 6.67 4.68 6.34 4 6 C4 5.01 4 4.02 4 3 C2.68 2.67 1.36 2.34 0 2 C0 1.34 0 0.68 0 0 Z " fill="#726240" transform="translate(27,64)" />
<path d="M0 0 C0 0.99 0 1.98 0 3 C-1.98 3.165 -1.98 3.165 -12 4 C-12 3.34 -12 2.68 -12 2 C-10.37548581 1.66430703 -8.75037083 1.3315204 -7.125 1 C-6.22007813 0.814375 -5.31515625 0.62875 -4.3828125 0.4375 C-2 0 -2 0 0 0 Z " fill="#2D7D06" transform="translate(51,37)" />
<path d="M0 0 C0 0.66 0 1.32 0 2 C-1.815 2.495 -1.815 2.495 -11 5 C-9 1 -9 1 -7.1875 0.25 C-4.77172869 -0.02608815 -2.42947614 -0.06748545 0 0 Z " fill="#8ABB56" transform="translate(41,20)" />
<path d="M0 0 C3.96 0 7.92 0 12 0 C12 0.33 12 0.66 12 1 C10.515 1.165 10.515 1.165 3 2 C2.67 3.65 2.34 5.3 2 7 C0.4375 5.1875 0.4375 5.1875 -1 3 C-0.67 2.01 -0.34 1.02 0 0 Z " fill="#75C044" transform="translate(47,19)" />
<path d="M0 0 C1.65 0 3.3 0 5 0 C5 0.99 5 1.98 5 3 C2.29120665 4.35439668 -0.00933268 4.06501451 -3 4 C-3 3.34 -3 2.68 -3 2 C-2.34 2 -1.68 2 -1 2 C-0.67 1.34 -0.34 0.68 0 0 Z " fill="#573C0D" transform="translate(40,70)" />
<path d="M0 0 C-0.99 0 -1.98 0 -3 0 C-3.103125 0.61875 -3.20625 1.2375 -3.3125 1.875 C-4 4 -4 4 -7 6 C-7 4.02 -7 2.04 -7 0 C-3.86650268 -1.04449911 -3.01031744 -0.93423645 0 0 Z " fill="#53A129" transform="translate(70,45)" />
<path d="M0 0 C0.99 0 1.98 0 3 0 C3.33 1.65 3.66 3.3 4 5 C3.01 5 2.02 5 1 5 C1 5.99 1 6.98 1 8 C0.34 8 -0.32 8 -1 8 C-0.67 5.36 -0.34 2.72 0 0 Z " fill="#70AD40" transform="translate(79,32)" />
<path d="M0 0 C-0.66 0 -1.32 0 -2 0 C-2 0.66 -2 1.32 -2 2 C-4.98241547 2.77321882 -7.97580475 3.41196203 -11 4 C-10.67 3.01 -10.34 2.02 -10 1 C-3.84210526 -1.28070175 -3.84210526 -1.28070175 0 0 Z " fill="#6EBF44" transform="translate(42,23)" />
<path d="M0 0 C1.62580966 0.11398665 3.25067157 0.24155659 4.875 0.375 C5.77992187 0.44460937 6.68484375 0.51421875 7.6171875 0.5859375 C10 1 10 1 12 3 C10.56260487 3.02712066 9.12506137 3.04645067 7.6875 3.0625 C7.28724609 3.06830078 7.28724609 3.06830078 5.26171875 3.09765625 C3 3 3 3 0 2 C0 1.34 0 0.68 0 0 Z " fill="#90C262" transform="translate(66,27)" />
<path d="M0 0 C0.7425 0.61875 1.485 1.2375 2.25 1.875 C4.48801188 3.60437281 6.43739987 4.86106661 9 6 C6.36 6 3.72 6 1 6 C0.67 4.02 0.34 2.04 0 0 Z " fill="#489215" transform="translate(23,54)" />
<path d="M0 0 C-1.33038449 0.3449145 -2.66457061 0.67516582 -4 1 C-4.845625 1.2475 -5.69125 1.495 -6.5625 1.75 C-9 2 -9 2 -10.8125 0.5625 C-11.204375 0.046875 -11.59625 -0.46875 -12 -1 C-7.28400182 -1.92470553 -4.32734391 -2.22923777 0 0 Z " fill="#62B038" transform="translate(56,41)" />
<path d="M0 0 C0.33 0.66 0.66 1.32 1 2 C-0.125 3.5 -0.125 3.5 -2 5 C-5.1875 5.1875 -5.1875 5.1875 -8 5 C-7.360625 4.896875 -6.72125 4.79375 -6.0625 4.6875 C-5.381875 4.460625 -4.70125 4.23375 -4 4 C-3.67 3.01 -3.34 2.02 -3 1 C-2.01 0.67 -1.02 0.34 0 0 Z " fill="#489B1C" transform="translate(64,28)" />
<path d="M0 0 C-1.28913487 0.67154933 -2.58140204 1.33708859 -3.875 2 C-4.59429687 2.37125 -5.31359375 2.7425 -6.0546875 3.125 C-8 4 -8 4 -10 4 C-9 1 -9 1 -6.6875 -0.25 C-3.83402593 -1.04631835 -2.75197675 -0.8214856 0 0 Z " fill="#2F620E" transform="translate(56,62)" />
<path d="M0 0 C3.34373475 0.55728913 6.03312999 1.35173889 9 3 C9 3.66 9 4.32 9 5 C5.22454612 3.90931332 2.52956528 3.0916909 0 0 Z " fill="#9AE06C" transform="translate(56,40)" />
<path d="M0 0 C0 0.66 0 1.32 0 2 C-2.31 2 -4.62 2 -7 2 C-7.33 1.34 -7.66 0.68 -8 0 C-5.13822943 -1.43088528 -3.06624227 -0.59991697 0 0 Z " fill="#4DA022" transform="translate(42,35)" />
<path d="M0 0 C1.31471568 0.28151087 2.62675767 0.57553339 3.9375 0.875 C4.66839844 1.03742187 5.39929688 1.19984375 6.15234375 1.3671875 C8 2 8 2 9 4 C7.02 4 5.04 4 3 4 C3 3.34 3 2.68 3 2 C2.01 2 1.02 2 0 2 C0 1.34 0 0.68 0 0 Z " fill="#78C34B" transform="translate(67,29)" />
</svg>