<?xml version='1.0' encoding='utf-8'?>
<svg xmlns="http://www.w3.org/2000/svg" version="1.1" width="86" height="98">
<path d="M0 0 C2.19016405 2.71882433 2.53905669 4.8190236 2.28125 8.29296875 C1.42928127 11.84993819 -0.25966587 13.14195943 -3.1875 15.25 C-6.46002414 16.77384712 -9.77873205 18.06520493 -13.1875 19.25 C-12.3625 19.58 -12.3625 19.58 -8.1875 21.25 C-8.3525 22.075 -8.3525 22.075 -9.1875 26.25 C-3.43929856 23.80395683 -3.43929856 23.80395683 -2.25 21.1875 C-2.1875 19.25 -2.1875 19.25 -3.1875 17.25 C-2.5275 16.26 -1.8675 15.27 -1.1875 14.25 C-0.5275 14.25 0.1325 14.25 0.8125 14.25 C0.99085515 18.79805635 0.81035435 22.1294254 -1.1875 26.25 C-1.8475 26.25 -2.5075 26.25 -3.1875 26.25 C-3.5175 27.24 -3.8475 28.23 -4.1875 29.25 C-7.13269277 30.29111729 -10.10373428 30.68536684 -13.1875 31.25 C-13.1875 34.88 -13.1875 38.51 -13.1875 42.25 C-20.51959758 41.873995 -25.68726771 37.32466084 -31.125 32.8125 C-33.1875 30.25 -33.1875 30.25 -34.1875 26.5625 C-35.1875 23.25 -35.1875 23.25 -37.6875 21.8125 C-40.1875 21.25 -40.1875 21.25 -42.1875 21.25 C-41.8575 22.57 -41.5275 23.89 -41.1875 25.25 C-40.1975 24.92 -39.2075 24.59 -38.1875 24.25 C-38.1359375 24.641875 -38.1359375 24.641875 -37.875 26.625 C-37.1875 29.25 -37.1875 29.25 -34.1875 31.25 C-34.8475 31.25 -35.5075 31.25 -36.1875 31.25 C-35.8575 32.24 -35.5275 33.23 -35.1875 34.25 C-35.1875 34.91 -35.1875 35.57 -35.1875 36.25 C-29.81410178 41.28756083 -23.17322685 44.15428194 -16.1875 46.25 C-16.1875 46.58 -16.1875 46.91 -16.1875 47.25 C-32.97638373 48.10974369 -32.97638373 48.10974369 -39.1875 43.25 C-42.93165787 38.64338529 -44.04419899 34.64021962 -44.875 28.9375 C-44.99601074 28.18855469 -45.11702148 27.43960938 -45.24169922 26.66796875 C-45.86857257 22.70551003 -46.39482596 18.74039353 -46.8125 14.75 C-47.1875 11.25 -47.1875 11.25 -48.1875 10.25 C-48.6875 7.0625 -48.6875 7.0625 -48.1875 3.25 C-37.48100406 -11.28264183 -13.49310905 -7.40798144 0 0 Z " fill="#9CB3BA" transform="translate(66.1875,23.75)" />
<path d="M0 0 C0.66 0.34933594 1.32 0.69867188 2 1.05859375 C13.26414771 6.23599498 24.79666192 5.92390632 37 6 C38 9 38 9 37 12 C42.74820144 9.55395683 42.74820144 9.55395683 43.9375 6.9375 C44 5 44 5 43 3 C43.66 2.01 44.32 1.02 45 0 C45.66 0 46.32 0 47 0 C47.17835515 4.54805635 46.99785435 7.8794254 45 12 C44.34 12 43.68 12 43 12 C42.67 12.99 42.34 13.98 42 15 C39.05480723 16.04111729 36.08376572 16.43536684 33 17 C33 20.63 33 24.26 33 28 C25.66790242 27.623995 20.50023229 23.07466084 15.0625 18.5625 C13 16 13 16 12 12.3125 C11 9 11 9 8.5 7.5625 C6 7 6 7 4 7 C4.33 8.32 4.66 9.64 5 11 C5.99 10.67 6.98 10.34 8 10 C8.103125 10.78375 8.20625 11.5675 8.3125 12.375 C9 15 9 15 12 17 C11.34 17 10.68 17 10 17 C10.33 17.99 10.66 18.98 11 20 C11 20.66 11 21.32 11 22 C16.37339822 27.03756083 23.01427315 29.90428194 30 32 C30 32.33 30 32.66 30 33 C13.21111627 33.85974369 13.21111627 33.85974369 7 29 C3.21487433 24.35524872 2.10977399 20.25542826 1.25 14.5 C1.12496094 13.76652344 0.99992187 13.03304687 0.87109375 12.27734375 C0.19837211 8.1449108 -0.13292106 4.20030553 0 0 Z " fill="#C4CBCD" transform="translate(20,38)" />
<path d="M0 0 C2.5 1.25 2.5 1.25 4.5 4.25 C4.70625 5.1575 4.9125 6.065 5.125 7 C7.49051033 12.59120624 11.84163979 15.96235677 17.25 18.58203125 C19.63928435 19.54249641 22.06736479 20.405335 24.5 21.25 C24.5 17.62 24.5 13.99 24.5 10.25 C25.2321875 10.023125 25.2321875 10.023125 28.9375 8.875 C31.43359375 8.1015625 31.43359375 8.1015625 33.5 7.25 C33.83 6.59 34.16 5.93 34.5 5.25 C35.16 5.25 35.82 5.25 36.5 5.25 C36.78571429 13.82142857 36.78571429 13.82142857 34.5 17.25 C35.49 17.58 36.48 17.91 37.5 18.25 C36.84 18.91 36.18 19.57 35.5 20.25 C34.875 22.875 34.875 22.875 34.5 25.25 C34.335 24.92 34.335 24.92 33.5 23.25 C32.76136719 23.51296875 32.02273437 23.7759375 31.26171875 24.046875 C24.29357695 26.20726458 19.7843505 26.57570384 13.05078125 23.6328125 C7.99087267 20.88976865 3.7143816 18.0715724 0.5 13.25 C0.5 11.93 0.5 10.61 0.5 9.25 C0.17 8.92 -0.16 8.59 -0.5 8.25 C-0.54063832 6.58382885 -0.542721 4.91611905 -0.5 3.25 C-1.16 3.58 -1.16 3.58 -4.5 5.25 C-4.5 3.6 -4.5 1.95 -4.5 0.25 C-2.5 -0.75 -2.5 -0.75 0 0 Z " fill="#A09978" transform="translate(28.5,44.75)" />
<path d="M0 0 C0.51369141 0.21076172 0.51369141 0.21076172 3.11328125 1.27734375 C11.09423626 4.46316501 18.27949989 6.96304873 27 7 C26.38511719 7.27070312 25.77023438 7.54140625 25.13671875 7.8203125 C21.42852969 9.86761249 19.50359654 13.40527763 18.25 17.375 C18.20875 17.643125 18.20875 17.643125 18 19 C15.35433623 17.995526 14.22496461 17.45409522 12.9453125 14.87109375 C12.67460938 14.06800781 12.40390625 13.26492187 12.125 12.4375 C11.1484375 10 11.1484375 10 10 8 C6.75 6.9375 6.75 6.9375 4 7 C4.33 8.32 4.66 9.64 5 11 C5.99 10.67 6.98 10.34 8 10 C8.103125 10.78375 8.20625 11.5675 8.3125 12.375 C9 15 9 15 12 17 C11.34 17 10.68 17 10 17 C10.33 17.99 10.66 18.98 11 20 C11 20.66 11 21.32 11 22 C16.37339822 27.03756083 23.01427315 29.90428194 30 32 C30 32.33 30 32.66 30 33 C13.21111627 33.85974369 13.21111627 33.85974369 7 29 C3.21487433 24.35524872 2.10977399 20.25542826 1.25 14.5 C1.12496094 13.76652344 0.99992187 13.03304687 0.87109375 12.27734375 C0.19837211 8.1449108 -0.13292106 4.20030553 0 0 Z " fill="#CFE7EF" transform="translate(20,38)" />
<path d="M0 0 C0.33 0 0.66 0 1 0 C3.7052798 21.40069554 3.7052798 21.40069554 -1 30 C-1.37511719 30.825 -1.75023438 31.65 -2.13671875 32.5 C-4.39029345 37.39103911 -6.20696691 41.17333946 -11 44 C-13.3125 44.75 -13.3125 44.75 -15 45 C-15 44.34 -15 43.68 -15 43 C-18.63 43 -22.26 43 -26 43 C-26.33 41.02 -26.66 39.04 -27 37 C-15.60167321 33.93344508 -15.60167321 33.93344508 -9.9375 33.625 C-6 33 -6 33 -3.9375 30.4375 C-3.628125 29.633125 -3.31875 28.82875 -3 28 C-3.66 27.67 -4.32 27.34 -5 27 C-4.3581369 23.06184205 -3.71083121 19.12459786 -3.0625 15.1875 C-2.88009766 14.06794922 -2.69769531 12.94839844 -2.50976562 11.79492188 C-2.33251953 10.72177734 -2.15527344 9.64863281 -1.97265625 8.54296875 C-1.81031494 7.55321045 -1.64797363 6.56345215 -1.48071289 5.54370117 C-1 3 -1 3 0 0 Z " fill="#413F32" transform="translate(68,35)" />
<path d="M0 0 C0 1.32 0 2.64 0 4 C0.6290625 3.95359375 1.258125 3.9071875 1.90625 3.859375 C8.48529795 3.58194527 12.33929632 4.64550893 18 8 C17.67 8.99 17.34 9.98 17 11 C15.33388095 11.042721 13.66617115 11.04063832 12 11 C11.67 10.67 11.34 10.34 11 10 C8.14122091 9.76298761 5.30116703 9.57780818 2.4375 9.4375 C1.63119141 9.39431641 0.82488281 9.35113281 -0.00585938 9.30664062 C-2.00368805 9.20024738 -4.0018207 9.09959112 -6 9 C-5.67 10.32 -5.34 11.64 -5 13 C-8.50411265 12.6814443 -10.5840105 12.30932553 -13.4375 10.1875 C-15 8 -15 8 -15.125 6 C-11.64825662 -0.18087712 -6.31657138 -0.43562561 0 0 Z " fill="#3386C3" transform="translate(41,23)" />
<path d="M0 0 C0.495 0.33 0.495 0.33 3 2 C3 2.66 3 3.32 3 4 C9.64558134 6.60900601 15.88515313 7.6143354 23 8 C23 8.33 23 8.66 23 9 C21.35 9.33 19.7 9.66 18 10 C18 11.65 18 13.3 18 15 C19.98 14.835 19.98 14.835 30 14 C29 16 29 16 27.32421875 16.6015625 C19.15297769 18.00234668 11.96335524 17.86061717 4.8046875 13.484375 C2.11955425 11.27582384 0.19027308 9.39026196 -0.29296875 5.859375 C-0.1953125 3.90625 -0.09765625 1.953125 0 0 Z " fill="#4D83BC" transform="translate(24,63)" />
<path d="M0 0 C-0.56589844 0.21914063 -1.13179687 0.43828125 -1.71484375 0.6640625 C-3.97064641 1.63933043 -5.98235613 2.59234148 -8 4 C-9 7.25 -9 7.25 -9 10 C-0.57533832 15.66521915 -0.57533832 15.66521915 4 16 C4.63292969 16.05027344 5.26585938 16.10054687 5.91796875 16.15234375 C13.36092196 16.48167796 20.00666376 14.33111208 27 12 C27.33 9.69 27.66 7.38 28 5 C28.66 5.33 29.32 5.66 30 6 C30.375 8.1875 30.375 8.1875 30 11 C25.15177279 15.96366119 20.47850787 18.03621211 13.46875 18.265625 C11.81250018 18.2708913 10.15618609 18.2654543 8.5 18.25 C7.67113281 18.25773437 6.84226562 18.26546875 5.98828125 18.2734375 C-1.32503187 18.25018372 -7.30679838 16.89880139 -13 12 C-14.125 8.5 -14.125 8.5 -14 5 C-10.66654439 0.0664857 -5.62256566 -1.68434618 0 0 Z " fill="#98927B" transform="translate(34,22)" />
<path d="M0 0 C0.51369141 0.21076172 0.51369141 0.21076172 3.11328125 1.27734375 C11.09423626 4.46316501 18.27949989 6.96304873 27 7 C26.38511719 7.27070312 25.77023438 7.54140625 25.13671875 7.8203125 C21.42852969 9.86761249 19.50359654 13.40527763 18.25 17.375 C18.20875 17.643125 18.20875 17.643125 18 19 C15.3576954 17.99262137 14.21895245 17.4143371 12.875 14.87109375 C12.29083745 13.24639166 11.70750632 11.62139039 11.125 9.99609375 C10 8 10 8 8 7.16015625 C6 7 6 7 4 8 C3.67 8.495 3.67 8.495 2 11 C0.18453193 7.14213034 -0.09380477 4.23294004 0 0 Z " fill="#DADFDE" transform="translate(20,38)" />
<path d="M0 0 C0.3125 2.25 0.3125 2.25 0 5 C-3.6142194 8.9427848 -6.77118434 9.64550402 -12 10 C-14.67306506 10.06096464 -17.32532103 10.04692419 -20 10 C-20.33 8.02 -20.66 6.04 -21 4 C-5.67924528 0 -5.67924528 0 0 0 Z " fill="#14397E" transform="translate(62,68)" />
<path d="M0 0 C0.25136719 0.59425781 0.50273437 1.18851563 0.76171875 1.80078125 C2.16064218 4.28530457 3.53419933 5.49293219 5.8125 7.1875 C6.47894531 7.69667969 7.14539063 8.20585938 7.83203125 8.73046875 C11.89494279 11.10965118 16.11937911 11.12235626 20.73828125 11.09765625 C21.27163086 11.09604492 21.27163086 11.09604492 23.97070312 11.08789062 C25.07349609 11.07951172 26.17628906 11.07113281 27.3125 11.0625 C27.87356445 11.06024414 27.87356445 11.06024414 30.71289062 11.04882812 C33.4753151 11.03707313 36.23762998 11.02064077 39 11 C33.62642334 16.37357666 24.17166274 16.08230589 16.93408203 16.11474609 C11.25084392 15.77756837 6.62443854 13.08295903 2 10 C-0.23513741 6.70611329 -0.17758833 3.90694321 0 0 Z " fill="#B7B49E" transform="translate(18,28)" />
<path d="M0 0 C2.5 1.25 2.5 1.25 4.5 4.25 C4.644375 4.724375 4.644375 4.724375 5.375 7.125 C6.58290897 10.48030271 8.15555153 12.5929584 10.5 15.25 C10.17 15.91 9.84 16.57 9.5 17.25 C9.9021875 17.394375 9.9021875 17.394375 11.9375 18.125 C14.5 19.25 14.5 19.25 15.5 21.25 C5.65632646 20.14139211 5.65632646 20.14139211 2.375 16.375 C0.5 13.25 0.5 13.25 0.5 9.25 C0.17 8.92 -0.16 8.59 -0.5 8.25 C-0.54063832 6.58382885 -0.542721 4.91611905 -0.5 3.25 C-1.16 3.58 -1.16 3.58 -4.5 5.25 C-4.5 3.6 -4.5 1.95 -4.5 0.25 C-2.5 -0.75 -2.5 -0.75 0 0 Z " fill="#98998F" transform="translate(28.5,44.75)" />
<path d="M0 0 C0.66 0 1.32 0 2 0 C2.17835515 4.54805635 1.99785435 7.8794254 0 12 C-0.66 12 -1.32 12 -2 12 C-2.33 12.99 -2.66 13.98 -3 15 C-5.06640625 15.73046875 -5.06640625 15.73046875 -7.5625 16.1875 C-8.38878906 16.34605469 -9.21507813 16.50460938 -10.06640625 16.66796875 C-10.70449219 16.77753906 -11.34257813 16.88710938 -12 17 C-13.22596039 13.32211882 -12.84310077 12.21550387 -12 8 C-17.61 7.67 -23.22 7.34 -29 7 C-29 6.67 -29 6.34 -29 6 C-22.07 6 -15.14 6 -8 6 C-7 9 -7 9 -8 12 C-2.25179856 9.55395683 -2.25179856 9.55395683 -1.0625 6.9375 C-1 5 -1 5 -2 3 C-1.34 2.01 -0.68 1.02 0 0 Z " fill="#98A0A2" transform="translate(65,38)" />
<path d="M0 0 C0.33 0 0.66 0 1 0 C1.125 6.625 1.125 6.625 0 10 C-0.99 10.33 -1.98 10.66 -3 11 C-3 11.99 -3 12.98 -3 14 C-3.1875 16.5 -3.1875 16.5 -4 19 C-8.03448276 22 -8.03448276 22 -11 22 C-11 20.35 -11 18.7 -11 17 C-18.26 16.67 -25.52 16.34 -33 16 C-33 15.67 -33 15.34 -33 15 C-32.41412109 14.99291016 -32.41412109 14.99291016 -29.44921875 14.95703125 C-19.49652653 14.70479605 -10.25014695 14.2551684 -2.2578125 7.53515625 C-0.37789944 5.2407282 -0.32064455 2.88580098 0 0 Z " fill="#74766D" transform="translate(68,28)" />
<path d="M0 0 C2.13702275 2.6119167 2.32245687 4.73866821 2.12109375 8.0703125 C1.33855586 11.66575685 -0.37319261 12.94619868 -3.3125 15.0625 C-11.73467505 19.33481497 -11.73467505 19.33481497 -15.62109375 18.6640625 C-16.17925781 18.46554688 -16.73742188 18.26703125 -17.3125 18.0625 C-16.260625 17.65 -15.20875 17.2375 -14.125 16.8125 C-9.81990485 14.97368406 -6.61343301 12.36343301 -3.3125 9.0625 C-3.1875 6.4375 -3.1875 6.4375 -3.3125 4.0625 C-3.9725 6.0425 -4.6325 8.0225 -5.3125 10.0625 C-5.6425 10.0625 -5.9725 10.0625 -6.3125 10.0625 C-6.4375 4.3125 -6.4375 4.3125 -5.3125 2.0625 C-5.9725 2.0625 -6.6325 2.0625 -7.3125 2.0625 C-7.3125 1.4025 -7.3125 0.7425 -7.3125 0.0625 C-4.40269806 -0.82660615 -2.85930518 -1.15917778 0 0 Z " fill="#A5A18C" transform="translate(66.3125,23.9375)" />
<path d="M0 0 C0.66 0 1.32 0 2 0 C2 2.31 2 4.62 2 7 C1.01 7.33 0.02 7.66 -1 8 C-1.33 8.495 -1.33 8.495 -3 11 C-6.44444444 14 -6.44444444 14 -10 14 C-10 11.03 -10 8.06 -10 5 C-9.36191406 4.80664062 -8.72382812 4.61328125 -8.06640625 4.4140625 C-7.24011719 4.15367188 -6.41382813 3.89328125 -5.5625 3.625 C-5.15064453 3.49738281 -5.15064453 3.49738281 -3.06640625 2.8515625 C-1 2 -1 2 0 0 Z " fill="#6D808C" transform="translate(63,50)" />
<path d="M0 0 C0.99 0 1.98 0 3 0 C3.33 0.99 3.66 1.98 4 3 C4.99 2.67 5.98 2.34 7 2 C7.103125 2.78375 7.20625 3.5675 7.3125 4.375 C8 7 8 7 11 9 C10.34 9 9.68 9 9 9 C9.33 9.99 9.66 10.98 10 12 C9.01 12.33 8.02 12.66 7 13 C6.67 13.33 6.34 13.66 6 14 C6 14.66 6 15.32 6 16 C5.01 16.33 4.02 16.66 3 17 C1.25314692 13.17254549 0.65113667 9.87557277 0.375 5.6875 C0.33761719 5.15318359 0.33761719 5.15318359 0.1484375 2.44921875 C0.09945313 1.64097656 0.05046875 0.83273438 0 0 Z " fill="#C3CCCD" transform="translate(21,46)" />
<path d="M0 0 C7.83534611 -0.61187085 13.8036691 0.93540281 21 4 C21 4.99 21 5.98 21 7 C20.030625 6.855625 19.06125 6.71125 18.0625 6.5625 C14.42161749 6.03708809 10.77349226 5.64532072 7.11328125 5.28125 C5.01774819 5.00236205 3.03889144 4.55229565 1 4 C0.67 2.68 0.34 1.36 0 0 Z " fill="#DFE2DA" transform="translate(42,18)" />
<path d="M0 0 C2.77141717 -0.08089542 5.54047819 -0.14044062 8.3125 -0.1875 C9.09818359 -0.21263672 9.88386719 -0.23777344 10.69335938 -0.26367188 C11.45068359 -0.27333984 12.20800781 -0.28300781 12.98828125 -0.29296875 C13.33652954 -0.30082397 13.33652954 -0.30082397 15.09887695 -0.34057617 C17.54489783 0.09761557 18.42702086 1.13437358 20 3 C15.37630977 4.80679587 11.57471347 5.21839082 6.625 5.125 C5.37976562 5.10695313 4.13453125 5.08890625 2.8515625 5.0703125 C2.38105469 5.05871094 2.38105469 5.05871094 0 5 C0 3.35 0 1.7 0 0 Z " fill="#4396D1" transform="translate(35,32)" />
<path d="M0 0 C0.48791016 0.05542969 0.48791016 0.05542969 2.95703125 0.3359375 C3.69308594 0.43132813 4.42914063 0.52671875 5.1875 0.625 C5.1875 1.615 5.1875 2.605 5.1875 3.625 C4.84976563 3.67978516 4.84976563 3.67978516 3.140625 3.95703125 C2.69460937 4.03630859 2.69460937 4.03630859 0.4375 4.4375 C-0.44421875 4.58832031 -1.3259375 4.73914063 -2.234375 4.89453125 C-5.0035911 5.67914248 -6.6384401 6.77095359 -8.8125 8.625 C-8.30646008 10.79374252 -7.81266187 12.62467627 -6.8125 14.625 C-8.4625 14.295 -10.1125 13.965 -11.8125 13.625 C-11.44326923 7.225 -11.44326923 7.225 -8.25 4.1875 C-7.445625 3.671875 -6.64125 3.15625 -5.8125 2.625 C-12.5625 5.375 -12.5625 5.375 -14.8125 7.625 C-14.9375 10.75 -14.9375 10.75 -14.8125 13.625 C-15.4725 13.295 -16.1325 12.965 -16.8125 12.625 C-17.4375 10.0625 -17.4375 10.0625 -17.8125 7.625 C-16.75762267 6.65828244 -15.69316719 5.70201255 -14.625 4.75 C-14.03332031 4.21632813 -13.44164062 3.68265625 -12.83203125 3.1328125 C-8.55526708 -0.06028415 -5.24856217 -0.63235689 0 0 Z " fill="#949B8D" transform="translate(35.8125,19.375)" />
<path d="M0 0 C0.99 0.33 1.98 0.66 3 1 C2.9375 3.25 2.9375 3.25 2 6 C-2.64992131 9.66057635 -6.5276535 10.68058124 -12.421875 10.47265625 C-16.82113206 9.66612579 -20.33322474 7.47994462 -24 5 C-24 4.34 -24 3.68 -24 3 C-21.5 4 -21.5 4 -9 9 C-9 8.34 -9 7.68 -9 7 C-8.05125 6.7525 -7.1025 6.505 -6.125 6.25 C-3 5 -3 5 -1.6875 2.9375 C-1.460625 2.298125 -1.23375 1.65875 -1 1 C-0.67 0.67 -0.34 0.34 0 0 Z " fill="#72766E" transform="translate(62,57)" />
<path d="M0 0 C2 3 2 3 2 6 C1.34 6 0.68 6 0 6 C0 7.65 0 9.3 0 11 C-2.71675995 10.63287028 -4.61063713 10.27255401 -6.875 8.6875 C-8 7 -8 7 -7.9375 5 C-6.20186712 1.29731651 -4.03002355 0 0 0 Z " fill="#15334A" transform="translate(34,24)" />
<path d="M0 0 C2.64 0 5.28 0 8 0 C8 1.32 8 2.64 8 4 C8.474375 3.979375 8.474375 3.979375 10.875 3.875 C14 4 14 4 16 6 C15.70416016 6.03029297 15.70416016 6.03029297 14.20703125 6.18359375 C10.09021792 6.62012371 6.04455467 7.08671346 2 8 C2.33 9.65 2.66 11.3 3 13 C1.68 12.67 0.36 12.34 -1 12 C-0.34 12 0.32 12 1 12 C1 10.35 1 8.7 1 7 C1.66 7 2.32 7 3 7 C2.01 4.69 1.02 2.38 0 0 Z " fill="#236797" transform="translate(33,23)" />
<path d="M0 0 C2 2 2 2 2.265625 4.171875 C2.23528962 9.17721328 1.97526844 13.30873746 0 18 C-1.32 18 -2.64 18 -4 18 C-3.5256323 15.18661171 -3.04575381 12.37436287 -2.5625 9.5625 C-2.42779297 8.76005859 -2.29308594 7.95761719 -2.15429688 7.13085938 C-1.11328125 1.11328125 -1.11328125 1.11328125 0 0 Z " fill="#535443" transform="translate(67,44)" />
<path d="M0 0 C0.60328125 0.42152344 1.2065625 0.84304687 1.828125 1.27734375 C2.62734375 1.82519531 3.4265625 2.37304688 4.25 2.9375 C5.03890625 3.48277344 5.8278125 4.02804688 6.640625 4.58984375 C11.30872907 7.37988608 15.93572852 7.12352962 21.25 7.0625 C21.62253906 7.06024414 21.62253906 7.06024414 23.5078125 7.04882812 C25.3385764 7.03709246 27.16929873 7.0191585 29 7 C28 9 28 9 26.32421875 9.6015625 C18.14749439 11.00328668 10.9398561 10.80900681 3.70703125 6.58203125 C1.58249429 4.61306679 0.89301912 2.72485321 0 0 Z " fill="#BBC7CB" transform="translate(25,70)" />
<path d="M0 0 C4.6011513 4.6011513 4.25055407 13.54600495 4.65625 19.7734375 C5.03412185 22.22101653 5.7034989 23.89606939 7 26 C9.0625 27.125 9.0625 27.125 11 28 C11.33 28.66 11.66 29.32 12 30 C7.51474012 28.62950392 5.569932 26.90671114 3 23 C2.12498794 20.22521581 1.67451768 17.4367344 1.25 14.5625 C1.18748047 14.19350586 1.18748047 14.19350586 0.87109375 12.32617188 C0.20004185 8.17818623 -0.13360035 4.21509106 0 0 Z " fill="#3E423E" transform="translate(20,49)" />
<path d="M0 0 C0.26296875 0.59683594 0.5259375 1.19367187 0.796875 1.80859375 C2.95237228 5.73467808 6.07894771 7.92926677 10 10 C14.61939788 11.33328115 19.25507377 12.24027867 24 13 C24 13.33 24 13.66 24 14 C15.10758244 14.76075816 8.21932971 13.33215887 1.23046875 7.53125 C-0.67740625 5.15700555 -0.19539944 2.93099166 0 0 Z " fill="#F2EFD9" transform="translate(18,28)" />
<path d="M0 0 C0.66 0 1.32 0 2 0 C2 3.3 2 6.6 2 10 C2.99 9.67 3.98 9.34 5 9 C5 9.66 5 10.32 5 11 C-0.28137429 10.48474397 -3.57221156 8.74522883 -8 6 C-4.91190305 4.23537317 -3.76687864 4 0 4 C0 2.68 0 1.36 0 0 Z " fill="#B3BBBA" transform="translate(48,55)" />
<path d="M0 0 C6.6 0 13.2 0 20 0 C20 1.98 20 3.96 20 6 C20.99 6.66 21.98 7.32 23 8 C22.01 8.99 21.02 9.98 20 11 C19.01 10.67 18.02 10.34 17 10 C16 7 16 7 17 2 C11.39 1.67 5.78 1.34 0 1 C0 0.67 0 0.34 0 0 Z " fill="#A5A9A7" transform="translate(36,44)" />
<path d="M0 0 C-0.55429687 0.1959375 -1.10859375 0.391875 -1.6796875 0.59375 C-7.52640303 3.00734075 -7.52640303 3.00734075 -8.9765625 6.046875 C-9.5 8.25 -9.5 8.25 -10 12 C-10.99 11.67 -11.98 11.34 -13 11 C-13.75 8.25 -13.75 8.25 -14 5 C-10.59508783 0.09692647 -5.65504908 -1.6940772 0 0 Z " fill="#5A5845" transform="translate(34,22)" />
<path d="M0 0 C6.56026059 0.49511401 6.56026059 0.49511401 8.6875 2.9375 C9.120625 3.618125 9.55375 4.29875 10 5 C11.32 5.66 12.64 6.32 14 7 C14 9.97 14 12.94 14 16 C13.01 16 12.02 16 11 16 C10.96003906 15.41992188 10.92007813 14.83984375 10.87890625 14.2421875 C10.35200912 10.30021641 9.91658033 7.81436571 6.86328125 5.1015625 C5.23621627 4.05431502 3.58105962 3.04918212 1.8984375 2.09375 C1.27195313 1.7328125 0.64546875 1.371875 0 1 C0 0.67 0 0.34 0 0 Z " fill="#525045" transform="translate(58,19)" />
<path d="M0 0 C4.55555556 1.55555556 4.55555556 1.55555556 6 3 C6.04080783 4.99958364 6.04254356 7.00045254 6 9 C4.68 9 3.36 9 2 9 C2 7.35 2 5.7 2 4 C1.34 4.33 1.34 4.33 -2 6 C-2 4.35 -2 2.7 -2 1 C-1.34 0.67 -0.68 0.34 0 0 Z " fill="#6693B7" transform="translate(26,44)" />
<path d="M0 0 C-0.020625 0.78375 -0.04125 1.5675 -0.0625 2.375 C0 5 0 5 1 7 C-1.64 7 -4.28 7 -7 7 C-7.33 5.02 -7.66 3.04 -8 1 C-2.25 0 -2.25 0 0 0 Z " fill="#315A9A" transform="translate(49,71)" />
<path d="M0 0 C0.495 0.33 0.495 0.33 3 2 C3 2.66 3 3.32 3 4 C3.3196875 4.144375 3.3196875 4.144375 4.9375 4.875 C7 6 7 6 8 8 C7.67 8.99 7.34 9.98 7 11 C6.401875 10.690625 5.80375 10.38125 5.1875 10.0625 C3 9 3 9 0 8 C0 5.36 0 2.72 0 0 Z " fill="#4F7AA2" transform="translate(24,63)" />
<path d="M0 0 C1.65 0.66 1.65 0.66 10 4 C6 7 6 7 4 8 C3.67 8.495 3.67 8.495 2 11 C0.19769832 7.17010894 -0.19622241 4.21878192 0 0 Z " fill="#D3D9DF" transform="translate(20,38)" />
<path d="M0 0 C0 0.66 0 1.32 0 2 C-0.66 2 -1.32 2 -2 2 C-2.268125 2.61875 -2.53625 3.2375 -2.8125 3.875 C-4 6 -4 6 -7 8 C-9.1875 7.625 -9.1875 7.625 -11 7 C-10.01 7 -9.02 7 -8 7 C-8.33 5.02 -8.66 3.04 -9 1 C-2.25 0 -2.25 0 0 0 Z " fill="#182654" transform="translate(62,68)" />
<path d="M0 0 C0.66 0 1.32 0 2 0 C2.103125 0.78375 2.20625 1.5675 2.3125 2.375 C3 5 3 5 6 7 C5.34 7 4.68 7 4 7 C4.33 7.99 4.66 8.98 5 10 C4.01 10.33 3.02 10.66 2 11 C-0.47524576 8.09427672 -1.69670231 5.84177074 -2 2 C-1.34 1.34 -0.68 0.68 0 0 Z " fill="#CAD2C2" transform="translate(26,48)" />
<path d="M0 0 C1.43836751 0.11458693 2.87570966 0.24209116 4.3125 0.375 C4.71275391 0.40980469 4.71275391 0.40980469 6.73828125 0.5859375 C9 1 9 1 12 3 C11.01 3 10.02 3 9 3 C8.34 4.65 7.68 6.3 7 8 C6.401875 7.236875 5.80375 6.47375 5.1875 5.6875 C3.52599023 3.64621657 1.87395061 1.83099472 0 0 Z " fill="#E4F3F3" transform="translate(27,43)" />
<path d="M0 0 C0 1.65 0 3.3 0 5 C-0.33 4.34 -0.66 3.68 -1 3 C-1.78503906 3.25136719 -2.57007812 3.50273438 -3.37890625 3.76171875 C-13.02821988 6.56771548 -13.02821988 6.56771548 -17.25 4.6875 C-18.1575 4.130625 -19.065 3.57375 -20 3 C-15.91951718 1.63983906 -12.17901445 2.02791157 -7.91015625 2.16015625 C-4.97820278 1.99880042 -2.62984685 0 0 0 Z " fill="#7C7A68" transform="translate(63,65)" />
<path d="M0 0 C0.66 0.33 1.32 0.66 2 1 C2.375 3.1875 2.375 3.1875 2 6 C-2.85899465 10.64773402 -5.38501039 12.14380412 -12 12 C-9.77174356 9.77174356 -8.34238372 9.30760631 -5.375 8.375 C-4.55773438 8.11460938 -3.74046875 7.85421875 -2.8984375 7.5859375 C-2.27195312 7.39257812 -1.64546875 7.19921875 -1 7 C-0.67 4.69 -0.34 2.38 0 0 Z " fill="#565140" transform="translate(62,27)" />
<path d="M0 0 C3.37462715 0.54723683 5.08235 1.0549 8 3 C8 3.66 8 4.32 8 5 C8.969375 5.12375 9.93875 5.2475 10.9375 5.375 C11.4428125 5.478125 11.4428125 5.478125 14 6 C14.33 6.66 14.66 7.32 15 8 C5.14171603 6.88974666 5.14171603 6.88974666 1.875 2.875 C1.25625 1.92625 0.6375 0.9775 0 0 Z " fill="#AFA78B" transform="translate(29,58)" />
<path d="M0 0 C0.33 0 0.66 0 1 0 C1.144375 1.134375 1.28875 2.26875 1.4375 3.4375 C2 7 2 7 3 8 C3.07244053 10.01964199 3.08377188 12.04167124 3.0625 14.0625 C3.05347656 15.16722656 3.04445313 16.27195312 3.03515625 17.41015625 C3.02355469 18.26480469 3.01195312 19.11945312 3 20 C1.37893452 17.05075061 0.51556732 14.36193006 -0.125 11.0625 C-0.20878906 10.64548828 -0.20878906 10.64548828 -0.6328125 8.53515625 C-1.00411299 5.97160288 -1.13493105 3.5861785 -1 1 C-0.67 0.67 -0.34 0.34 0 0 Z " fill="#46443A" transform="translate(17,27)" />
<path d="M0 0 C0 0.66 0 1.32 0 2 C-0.66 2 -1.32 2 -2 2 C-2 4.64 -2 7.28 -2 10 C-2.99 10 -3.98 10 -5 10 C-5 7.03 -5 4.06 -5 1 C-2 0 -2 0 0 0 Z " fill="#869497" transform="translate(58,54)" />
<path d="M0 0 C4.29 1.65 8.58 3.3 13 5 C13 5.33 13 5.66 13 6 C7.32723489 6.29341888 4.00932754 6.00559652 -1 3 C-0.67 2.01 -0.34 1.02 0 0 Z " fill="#C2C8C3" transform="translate(37,65)" />
<path d="M0 0 C2.49361571 1.20381448 4.68143083 2.45428722 7 4 C6.67 4.99 6.34 5.98 6 7 C4.68 6.67 3.36 6.34 2 6 C2 5.34 2 4.68 2 4 C1.34 4 0.68 4 0 4 C0 2.68 0 1.36 0 0 Z " fill="#EFECE4" transform="translate(30,61)" />
<path d="M0 0 C0 0.99 0 1.98 0 3 C-5.625 4.125 -5.625 4.125 -9 3 C-6.07868595 -0.19953443 -4.37453972 -1.45817991 0 0 Z " fill="#BEC3C5" transform="translate(48,56)" />
<path d="M0 0 C-1.65 0.825 -1.65 0.825 -10 5 C-10.66 4.34 -11.32 3.68 -12 3 C-5.11627907 -1.27906977 -5.11627907 -1.27906977 0 0 Z " fill="#5F614C" transform="translate(34,22)" />
<path d="M0 0 C2.31 0.33 4.62 0.66 7 1 C7.33 1.99 7.66 2.98 8 4 C8.99 3.67 9.98 3.34 11 3 C11 3.66 11 4.32 11 5 C6.62886504 4.49172849 3.61004338 3.54826592 0 1 C0 0.67 0 0.34 0 0 Z " fill="#A6AAA4" transform="translate(42,61)" />
<path d="M0 0 C-0.66 0 -1.32 0 -2 0 C-2 1.65 -2 3.3 -2 5 C-2.33 5.165 -2.33 5.165 -4 6 C-4.66 5.34 -5.32 4.68 -6 4 C-5.67 3.01 -5.34 2.02 -5 1 C-5.66 0.67 -6.32 0.34 -7 0 C-3.98968256 -0.93423645 -3.13349732 -1.04449911 0 0 Z " fill="#BCBDC0" transform="translate(55,46)" />
<path d="M0 0 C1.65 1.65 3.3 3.3 5 5 C0.72290301 5 -0.55930376 4.29379749 -4 2 C-2.68 1.34 -1.36 0.68 0 0 Z " fill="#817D65" transform="translate(25,32)" />
<path d="M0 0 C6.4 0.36923077 6.4 0.36923077 9.4375 3.5625 C9.953125 4.366875 10.46875 5.17125 11 6 C10.67 6.66 10.34 7.32 10 8 C9.278125 7.401875 8.55625 6.80375 7.8125 6.1875 C5 4 5 4 2.1875 2.3125 C1.465625 1.879375 0.74375 1.44625 0 1 C0 0.67 0 0.34 0 0 Z " fill="#444135" transform="translate(58,19)" />
<path d="M0 0 C0.66 0 1.32 0 2 0 C1.875 1.75 1.875 1.75 1 4 C-2.0625 6.25 -2.0625 6.25 -5 8 C-5.66 7.34 -6.32 6.68 -7 6 C-6.030625 5.38125 -5.06125 4.7625 -4.0625 4.125 C-1 2 -1 2 0 0 Z " fill="#5D677C" transform="translate(60,70)" />
<path d="M0 0 C0.99 0.33 1.98 0.66 3 1 C3 2.98 3 4.96 3 7 C1.68 7 0.36 7 -1 7 C-1 6.01 -1 5.02 -1 4 C-0.34 4 0.32 4 1 4 C0.67 2.68 0.34 1.36 0 0 Z " fill="#364871" transform="translate(29,46)" />
<path d="M0 0 C0.99 0 1.98 0 3 0 C3.25 7.5 3.25 7.5 1 12 C0.67 8.04 0.34 4.08 0 0 Z " fill="#B4C1CB" transform="translate(21,46)" />
<path d="M0 0 C0.20625 0.5775 0.4125 1.155 0.625 1.75 C2.49750888 4.81410544 4.96958519 6.15539968 8 8 C7.34 8.33 7.34 8.33 4 10 C2 8.375 2 8.375 0 6 C-0.25 2.75 -0.25 2.75 0 0 Z " fill="#CDC8B6" transform="translate(18,28)" />
<path d="M0 0 C1.65 0.99 3.3 1.98 5 3 C4.67 4.65 4.34 6.3 4 8 C3.34 8 2.68 8 2 8 C1.87625 7.195625 1.7525 6.39125 1.625 5.5625 C1.521875 5.1396875 1.521875 5.1396875 1 3 C0.34 2.67 -0.32 2.34 -1 2 C-0.67 1.34 -0.34 0.68 0 0 Z " fill="#DCDEDA" transform="translate(26,57)" />
<path d="M0 0 C5.625 -0.25 5.625 -0.25 9 2 C8.67 2.99 8.34 3.98 8 5 C7.01 4.67 6.02 4.34 5 4 C5 3.34 5 2.68 5 2 C3.35 1.67 1.7 1.34 0 1 C0 0.67 0 0.34 0 0 Z " fill="#2F7DAF" transform="translate(50,29)" />
<path d="M0 0 C2.4375 0.8125 2.4375 0.8125 5 2 C5.33 2.99 5.66 3.98 6 5 C4.02 5 2.04 5 0 5 C0 3.35 0 1.7 0 0 Z " fill="#629AC6" transform="translate(41,22)" />
<path d="M0 0 C0 1.32 0 2.64 0 4 C-2.875 4.1875 -2.875 4.1875 -6 4 C-6.66 3.01 -7.32 2.02 -8 1 C-2.25 0 -2.25 0 0 0 Z " fill="#1D4F9E" transform="translate(49,71)" />
<path d="M0 0 C3.59391114 1.33488128 6.75490696 2.96022723 10 5 C7 6 7 6 5.17578125 5.22265625 C3.45052083 4.1484375 1.72526042 3.07421875 0 2 C0 1.34 0 0.68 0 0 Z " fill="#787466" transform="translate(38,60)" />
<path d="M0 0 C1.65 0 3.3 0 5 0 C5.33 0.66 5.66 1.32 6 2 C5.0625 4.625 5.0625 4.625 4 7 C3.34 7 2.68 7 2 7 C2.04125 6.21625 2.0825 5.4325 2.125 4.625 C2 2 2 2 0 0 Z " fill="#8D908E" transform="translate(55,43)" />
<path d="M0 0 C5.53846154 -0.36923077 5.53846154 -0.36923077 7.875 1.5 C8.24625 1.995 8.6175 2.49 9 3 C6.36 3 3.72 3 1 3 C0.67 2.01 0.34 1.02 0 0 Z " fill="#489EDE" transform="translate(46,32)" />
<path d="M0 0 C1.65 0 3.3 0 5 0 C4.67 0.99 4.34 1.98 4 3 C0.7 3 -2.6 3 -6 3 C-5.34 2.34 -4.68 1.68 -4 1 C-1.875 1.375 -1.875 1.375 0 2 C0 1.34 0 0.68 0 0 Z " fill="#8A8870" transform="translate(53,64)" />
<path d="M0 0 C1.32 0.66 2.64 1.32 4 2 C3.67 2.99 3.34 3.98 3 5 C3.66 5.33 4.32 5.66 5 6 C4.01 6 3.02 6 2 6 C2 5.34 2 4.68 2 4 C0.68 3.34 -0.64 2.68 -2 2 C-1.34 1.34 -0.68 0.68 0 0 Z " fill="#93907C" transform="translate(35,57)" />
<path d="M0 0 C0.66 0 1.32 0 2 0 C2 2.31 2 4.62 2 7 C1.34 7 0.68 7 0 7 C-0.66 5.68 -1.32 4.36 -2 3 C-1.34 2.01 -0.68 1.02 0 0 Z " fill="#8F9697" transform="translate(65,38)" />
<path d="M0 0 C0.33 0 0.66 0 1 0 C1.125 6.625 1.125 6.625 0 10 C-1.65 10.33 -3.3 10.66 -5 11 C-4.360625 10.29875 -3.72125 9.5975 -3.0625 8.875 C-0.83613898 5.77158767 -0.34919057 3.75379861 0 0 Z " fill="#77786C" transform="translate(68,28)" />
<path d="M0 0 C0.99 0 1.98 0 3 0 C3 0.99 3 1.98 3 3 C3.99 3.33 4.98 3.66 6 4 C5.67 4.99 5.34 5.98 5 7 C3.29115995 5.37660195 1.62553283 3.70680947 0 2 C0 1.34 0 0.68 0 0 Z " fill="#C1D4EA" transform="translate(25,62)" />
<path d="M0 0 C-0.33 1.65 -0.66 3.3 -1 5 C-2.65 5.33 -4.3 5.66 -6 6 C-6 4 -6 4 -4.125 1.875 C-2 0 -2 0 0 0 Z " fill="#A8ABA4" transform="translate(66,45)" />
<path d="M0 0 C0.99 0 1.98 0 3 0 C2.25 6.75 2.25 6.75 0 9 C0 6.03 0 3.06 0 0 Z " fill="#5F5F55" transform="translate(18,44)" />
<path d="M0 0 C1.485 0.33 1.485 0.33 9 2 C9 2.66 9 3.32 9 4 C6.36 3.67 3.72 3.34 1 3 C0.67 2.01 0.34 1.02 0 0 Z " fill="#88B4DA" transform="translate(46,24)" />
<path d="M0 0 C0.825 0.165 0.825 0.165 5 1 C5 1.99 5 2.98 5 4 C3.68 4.33 2.36 4.66 1 5 C0.67 3.35 0.34 1.7 0 0 Z " fill="#5CA6E4" transform="translate(31,69)" />
<path d="M0 0 C0.66 0 1.32 0 2 0 C2 2.31 2 4.62 2 7 C1.34 7 0.68 7 0 7 C-1.125 2.25 -1.125 2.25 0 0 Z " fill="#7D898A" transform="translate(63,50)" />
</svg>