<?xml version='1.0' encoding='utf-8'?>
<svg xmlns="http://www.w3.org/2000/svg" version="1.1" width="83" height="95">
<path d="M0 0 C0.680625 0.12375 1.36125 0.2475 2.0625 0.375 C2.61422044 6.03013448 1.14321005 8.79794507 -1.9375 13.375 C-2.9275 14.035 -3.9175 14.695 -4.9375 15.375 C-2.9575 15.705 -0.9775 16.035 1.0625 16.375 C0.71764457 19.2592454 0.27994593 20.1957818 -2.00390625 22.078125 C-2.41576172 22.33335938 -2.41576172 22.33335938 -4.5 23.625 C-5.32628906 24.14578125 -6.15257812 24.6665625 -7.00390625 25.203125 C-7.32294922 25.39648438 -7.32294922 25.39648438 -8.9375 26.375 C-8.2775 26.705 -7.6175 27.035 -6.9375 27.375 C-7.24830688 30.24996365 -7.54990725 31.94089612 -9.5 34.125 C-12.96563365 35.90224802 -16.062531 36.05208592 -19.9375 36.375 C-18.7825 36.54 -18.7825 36.54 -12.9375 37.375 C-12.9375 38.695 -12.9375 40.015 -12.9375 41.375 C-17.7150551 45.74043374 -21.70220306 45.89426732 -27.8125 45.625 C-28.59625 45.60695312 -29.38 45.58890625 -30.1875 45.5703125 C-32.10470189 45.52355148 -34.02126715 45.45182003 -35.9375 45.375 C-38.33235475 49.35182182 -40.33657551 52.7033257 -41.1875 57.3125 C-41.33703125 58.08464844 -41.4865625 58.85679688 -41.640625 59.65234375 C-41.73859375 60.22082031 -41.8365625 60.78929687 -41.9375 61.375 C-43.5875 61.375 -45.2375 61.375 -46.9375 61.375 C-46.56324592 54.51367517 -44.44480746 50.19906101 -40.9375 44.375 C-39.92353878 42.38204174 -38.9168294 40.38520246 -37.9375 38.375 C-38.5975 38.375 -39.2575 38.375 -39.9375 38.375 C-40.62662276 25.4730905 -40.62662276 25.4730905 -37.9375 21.5625 C-37.2775 20.840625 -36.6175 20.11875 -35.9375 19.375 C-34.6175 19.705 -33.2975 20.035 -31.9375 20.375 C-31.66035156 19.73691406 -31.38320313 19.09882812 -31.09765625 18.44140625 C-30.73542969 17.61511719 -30.37320313 16.78882812 -30 15.9375 C-29.64035156 15.11378906 -29.28070313 14.29007813 -28.91015625 13.44140625 C-27.9375 11.375 -27.9375 11.375 -26.9375 10.375 C-26.55400391 10.4059375 -26.55400391 10.4059375 -24.61328125 10.5625 C-21.9375 10.375 -21.9375 10.375 -19.91796875 8.625 C-19.32628906 7.8825 -18.73460938 7.14 -18.125 6.375 C-17.52042969 5.6325 -16.91585937 4.89 -16.29296875 4.125 C-16.06931641 3.83625 -16.06931641 3.83625 -14.9375 2.375 C-13 2.6875 -13 2.6875 -10.9375 3.375 C-10.7725 3.87 -10.7725 3.87 -9.9375 6.375 C-9.71384766 6.1584375 -9.71384766 6.1584375 -8.58203125 5.0625 C-3.58243997 0.45733276 -3.58243997 0.45733276 0 0 Z " fill="#A46F24" transform="translate(63.9375,16.625)" />
<path d="M0 0 C0.680625 0.12375 1.36125 0.2475 2.0625 0.375 C2.58408976 5.72129507 1.4102071 9.27302556 -1.9375 13.375 C-5.42098866 15.79829646 -7.07318778 16.45502891 -11.3125 16.0625 C-12.17875 15.835625 -13.045 15.60875 -13.9375 15.375 C-13.9375 16.035 -13.9375 16.695 -13.9375 17.375 C-16.89231492 20.11875671 -17.71221908 20.375 -21.9375 20.375 C-22.02 21.2825 -22.1025 22.19 -22.1875 23.125 C-23.03784258 26.80981784 -23.96557373 28.1023505 -26.9375 30.375 C-27.9275 30.375 -28.9175 30.375 -29.9375 30.375 C-30.9275 32.685 -31.9175 34.995 -32.9375 37.375 C-35.2475 37.375 -37.5575 37.375 -39.9375 37.375 C-40.675541 24.70529613 -40.675541 24.70529613 -35.9375 19.375 C-34.6175 19.705 -33.2975 20.035 -31.9375 20.375 C-31.66035156 19.73691406 -31.38320313 19.09882812 -31.09765625 18.44140625 C-30.91654297 18.02826172 -30.91654297 18.02826172 -30 15.9375 C-29.64035156 15.11378906 -29.28070313 14.29007813 -28.91015625 13.44140625 C-27.9375 11.375 -27.9375 11.375 -26.9375 10.375 C-26.17050781 10.436875 -25.40351562 10.49875 -24.61328125 10.5625 C-21.9375 10.375 -21.9375 10.375 -19.91796875 8.625 C-19.32628906 7.8825 -18.73460938 7.14 -18.125 6.375 C-17.52042969 5.6325 -16.91585937 4.89 -16.29296875 4.125 C-16.06931641 3.83625 -16.06931641 3.83625 -14.9375 2.375 C-13 2.6875 -13 2.6875 -10.9375 3.375 C-10.6075 4.365 -10.2775 5.355 -9.9375 6.375 C-9.71384766 6.1584375 -9.71384766 6.1584375 -8.58203125 5.0625 C-3.58243997 0.45733276 -3.58243997 0.45733276 0 0 Z " fill="#CD9F36" transform="translate(63.9375,16.625)" />
<path d="M0 0 C4.95 0.33 9.9 0.66 15 1 C13.86118853 5.55524588 13.34352558 5.83418968 9.5625 8.1875 C9.16095703 8.44208984 9.16095703 8.44208984 7.12890625 9.73046875 C4.04638009 11.56867242 2.24276455 12.08269343 -1.3125 12.25 C-5.06328987 12.61843508 -5.91686993 12.93245682 -9 15.4375 C-11 18 -11 18 -12 20 C-11.34 20.33 -10.68 20.66 -10 21 C-12.31 20.67 -14.62 20.34 -17 20 C-16.67 18.02 -16.34 16.04 -16 14 C-15.236875 14 -14.47375 14 -13.6875 14 C-11 13 -11 13 -10.17578125 11.22265625 C-10.06427734 10.86623047 -10.06427734 10.86623047 -9.5 9.0625 C-8.27244987 5.15665867 -8.27244987 5.15665867 -5.5 3.5625 C-4.675 3.376875 -3.85 3.19125 -3 3 C-2.01 2.67 -1.02 2.34 0 2 C0 1.34 0 0.68 0 0 Z " fill="#A06F1C" transform="translate(50,32)" />
<path d="M0 0 C0.165 0.495 0.165 0.495 1 3 C-0.5625 4.171875 -2.125 5.34375 -3.6875 6.515625 C-5 8 -5 8 -5 12 C-6.75 14.0625 -6.75 14.0625 -9 16 C-9.58265625 16.52980469 -10.1653125 17.05960938 -10.765625 17.60546875 C-13.66888754 19.41747002 -15.60249377 19.33493766 -19 19.25 C-20.03125 19.23453125 -21.0625 19.2190625 -22.125 19.203125 C-24.57406164 19.03009347 -26.6484583 18.65087315 -29 18 C-29.66 18 -30.32 18 -31 18 C-31.33 18.66 -31.66 19.32 -32 20 C-31.125 16.125 -31.125 16.125 -30 15 C-26.50233588 15.04168397 -23.01491457 15.12702049 -19.52148438 15.30273438 C-14.05621794 15.43071546 -11.17694784 14.60403315 -7 11 C-7 10.34 -7 9.68 -7 9 C-9.97 8.67 -12.94 8.34 -16 8 C-13.42958141 5.42958141 -11.46010575 5.69310817 -7.96875 5.3515625 C-5.39755832 4.89242113 -3.9317381 3.70884525 -2 2 C-1.34 2 -0.68 2 0 2 C0 1.34 0 0.68 0 0 Z " fill="#735421" transform="translate(58,46)" />
<path d="M0 0 C0.66 0 1.32 0 2 0 C1.66829641 3.53817165 0.57251958 5.80423528 -1.375 8.6875 C-4.3323532 13.17067601 -5.69615884 17.8270367 -7 23 C-5.35 23 -3.7 23 -2 23 C-1.96261719 22.38511719 -1.92523438 21.77023438 -1.88671875 21.13671875 C-1.82097656 20.32847656 -1.75523438 19.52023438 -1.6875 18.6875 C-1.62949219 17.88699219 -1.57148438 17.08648437 -1.51171875 16.26171875 C-1 14 -1 14 2 11 C1.34 15.29 0.68 19.58 0 24 C-3.3 24 -6.6 24 -10 24 C-11.91384609 20.49128216 -12.04276246 19.18632214 -11.125 15.1875 C-10.75375 14.135625 -10.3825 13.08375 -10 12 C-9.39542969 11.92652344 -8.79085938 11.85304688 -8.16796875 11.77734375 C-5.20881756 10.71631476 -4.71385238 9.32541872 -3.3125 6.5625 C-2.89613281 5.75941406 -2.47976562 4.95632812 -2.05078125 4.12890625 C-1.70402344 3.42636719 -1.35726563 2.72382812 -1 2 C-0.67 1.34 -0.34 0.68 0 0 Z " fill="#6C562B" transform="translate(24,55)" />
<path d="M0 0 C1.83508773 5.96403511 -0.28260948 9.75182088 -3 15 C-2.01 15.33 -1.02 15.66 0 16 C-0.08451643 18.87355849 -0.54522068 20.54298589 -2.58984375 22.59765625 C-3.8447597 23.6421364 -5.11675301 24.66649466 -6.40625 25.66796875 C-8 27 -8 27 -9 29 C-10.65 28.67 -12.3 28.34 -14 28 C-12.09727429 26.55392846 -10.19240097 25.12980764 -8.2109375 23.79296875 C-7.58445312 23.36628906 -6.95796875 22.93960938 -6.3125 22.5 C-6.01150391 22.29890625 -6.01150391 22.29890625 -4.48828125 21.28125 C-3 20 -3 20 -2 17 C-4.97 17 -7.94 17 -11 17 C-7.25 14 -7.25 14 -5 14 C-3.14038586 9.7494534 -2.06795435 5.50066475 -1 1 C-6.68748885 2.25124755 -9.72847508 4.04102568 -14 8 C-14 6.35 -14 4.7 -14 3 C-13.38125 2.87625 -12.7625 2.7525 -12.125 2.625 C-10 2 -10 2 -8 0 C-4.98413546 -1.105817 -3.03916514 -0.97687451 0 0 Z " fill="#6B4B11" transform="translate(67,16)" />
<path d="M0 0 C1.32 0.33 2.64 0.66 4 1 C4.29341888 6.67276511 4.00559652 9.99067246 1 15 C-0.65 14.67 -2.3 14.34 -4 14 C-4.43177893 7.73920552 -3.92739438 4.90924297 0 0 Z " fill="#F8DB4C" transform="translate(28,36)" />
<path d="M0 0 C5.28 0 10.56 0 16 0 C16 0.66 16 1.32 16 2 C15.34 2 14.68 2 14 2 C14 2.66 14 3.32 14 4 C12.68 4 11.36 4 10 4 C10 4.66 10 5.32 10 6 C8.37509046 6.02698189 6.75005367 6.04638757 5.125 6.0625 C4.67253906 6.06830078 4.67253906 6.06830078 2.3828125 6.09765625 C0 6 0 6 -2 5 C-1.34 3.35 -0.68 1.7 0 0 Z " fill="#FBDE53" transform="translate(34,54)" />
<path d="M0 0 C1.32 0 2.64 0 4 0 C4 3.63 4 7.26 4 11 C2.845 11.495 2.845 11.495 -3 14 C-4.1981767 8.55374227 -3.94670359 5.76005965 -1 1 C-0.67 0.67 -0.34 0.34 0 0 Z " fill="#FDE958" transform="translate(37,27)" />
<path d="M0 0 C-0.2548029 1.96048352 -0.52936944 3.91840673 -0.8125 5.875 C-0.96332031 6.96554688 -1.11414062 8.05609375 -1.26953125 9.1796875 C-2 12 -2 12 -5 14 C-6.32 14 -7.64 14 -9 14 C-9.42039457 10.56677766 -9.60825977 8.0002494 -7.76953125 4.9765625 C-3.65625 0 -3.65625 0 0 0 Z " fill="#F5DA4F" transform="translate(52,19)" />
<path d="M0 0 C0.59748047 0.00580078 0.59748047 0.00580078 3.62109375 0.03515625 C4.21986328 0.03966797 4.21986328 0.03966797 7.25 0.0625 C8.17683594 0.07410156 9.10367188 0.08570313 10.05859375 0.09765625 C9.72859375 1.74765625 9.39859375 3.39765625 9.05859375 5.09765625 C4.3865817 6.30333678 -0.15636917 6.19148051 -4.94140625 6.09765625 C-3.87001683 0.12848661 -3.87001683 0.12848661 0 0 Z " fill="#FCE05C" transform="translate(46.94140625,43.90234375)" />
<path d="M0 0 C0.86625 0.144375 1.7325 0.28875 2.625 0.4375 C2.01222388 3.39925123 1.37127478 4.81808783 -0.375 7.4375 C-1.035 7.4375 -1.695 7.4375 -2.375 7.4375 C-2.705 8.4275 -3.035 9.4175 -3.375 10.4375 C-5.025 10.7675 -6.675 11.0975 -8.375 11.4375 C-9.03515625 9.671875 -9.03515625 9.671875 -9.375 7.4375 C-7.19346655 3.26117915 -4.70285865 0.60962982 0 0 Z " fill="#F4E16A" transform="translate(62.375,17.5625)" />
<path d="M0 0 C2 2 2 2 2 6 C3.98 5.34 5.96 4.68 8 4 C7.42655063 6.86724686 7.1385485 7.8614515 5 10 C3.68 10 2.36 10 1 10 C1 10.99 1 11.98 1 13 C0.34 13 -0.32 13 -1 13 C-1.33 14.32 -1.66 15.64 -2 17 C-3.65 17 -5.3 17 -7 17 C-6.8125 15.125 -6.8125 15.125 -6 13 C-4.35 12.34 -2.7 11.68 -1 11 C-0.67 7.37 -0.34 3.74 0 0 Z " fill="#CFA433" transform="translate(41,27)" />
<path d="M0 0 C0.4640625 0.1134375 0.4640625 0.1134375 2.8125 0.6875 C2.8125 2.3375 2.8125 3.9875 2.8125 5.6875 C1.1625 5.3575 -0.4875 5.0275 -2.1875 4.6875 C-4.98658742 8.67225984 -5.63084382 11.66570759 -5.875 16.5 C-5.90787109 17.08072266 -5.90787109 17.08072266 -6.07421875 20.01953125 C-6.11160156 20.89996094 -6.14898438 21.78039062 -6.1875 22.6875 C-6.8475 22.3575 -7.5075 22.0275 -8.1875 21.6875 C-8.77602811 6.02611297 -8.77602811 6.02611297 -4.8125 0.9140625 C-3.1875 -0.3125 -3.1875 -0.3125 0 0 Z " fill="#6F561E" transform="translate(30.1875,32.3125)" />
<path d="M0 0 C0 0.66 0 1.32 0 2 C-0.99 2.33 -1.98 2.66 -3 3 C-3.46019531 3.50144531 -3.92039062 4.00289062 -4.39453125 4.51953125 C-6.48490487 6.44715072 -7.88536595 6.48444681 -10.6875 6.6875 C-11.49574219 6.75324219 -12.30398437 6.81898437 -13.13671875 6.88671875 C-13.44416016 6.90541016 -13.44416016 6.90541016 -15 7 C-14.12070962 3.9624514 -13.61550355 2.38016396 -10.875 0.6875 C-7.13483134 -0.20688816 -3.84288702 -0.13026736 0 0 Z " fill="#F2DA61" transform="translate(64,33)" />
<path d="M0 0 C0.33 0.99 0.66 1.98 1 3 C0.67 3.66 0.34 4.32 0 5 C1.65 5 3.3 5 5 5 C4.7215625 5.1134375 4.7215625 5.1134375 3.3125 5.6875 C-0.19959577 7.68085165 -3.18059875 10.36119749 -5 14 C-4.34 14.33 -3.68 14.66 -3 15 C-5.31 14.67 -7.62 14.34 -10 14 C-9.67 12.02 -9.34 10.04 -9 8 C-8.21625 7.938125 -7.4325 7.87625 -6.625 7.8125 C-5.75875 7.544375 -4.8925 7.27625 -4 7 C-2.6875 4.4375 -2.6875 4.4375 -2 2 C-1.34 2 -0.68 2 0 2 C0 1.34 0 0.68 0 0 Z " fill="#986319" transform="translate(43,38)" />
<path d="M0 0 C-0.763125 0.7425 -1.52625 1.485 -2.3125 2.25 C-5.31757062 5.32495598 -7.62171781 8.43257671 -10 12 C-10 11.34 -10 10.68 -10 10 C-15.75 11.875 -15.75 11.875 -18 13 C-17.375 11.0625 -17.375 11.0625 -16 9 C-12.875 8.25 -12.875 8.25 -10 8 C-9.93941406 7.71705078 -9.93941406 7.71705078 -9.6328125 6.28515625 C-9.46523438 5.55167969 -9.29765625 4.81820313 -9.125 4.0625 C-8.96257813 3.33160156 -8.80015625 2.60070312 -8.6328125 1.84765625 C-7.18223785 -2.38766357 -3.55685168 -0.69590576 0 0 Z " fill="#695922" transform="translate(52,17)" />
<path d="M0 0 C0.66 0.33 1.32 0.66 2 1 C1.03441599 3.54563057 0.06131195 4.94635204 -2 6.75 C-7.42279605 9.00949835 -13.40057089 8.60353166 -19 7 C-19 5.35 -19 3.7 -19 2 C-18.34 1.67 -17.68 1.34 -17 1 C-17.33 2.32 -17.66 3.64 -18 5 C-14.04 5.33 -10.08 5.66 -6 6 C-6 5.34 -6 4.68 -6 4 C-4.68 4 -3.36 4 -2 4 C-2 3.34 -2 2.68 -2 2 C-1.34 2 -0.68 2 0 2 C0 1.34 0 0.68 0 0 Z " fill="#C59637" transform="translate(50,54)" />
<path d="M0 0 C0.33 0.99 0.66 1.98 1 3 C-3.27008506 7.0076776 -6.48315087 9.42642606 -12.5 9.375 C-14.00219722 9.2799815 -15.50393225 9.16554848 -17 9 C-16.625 6.5625 -16.625 6.5625 -16 4 C-15.34 3.67 -14.68 3.34 -14 3 C-14.33 4.32 -14.66 5.64 -15 7 C-11.37 6.34 -7.74 5.68 -4 5 C-3.67 4.01 -3.34 3.02 -3 2 C-2.01 2 -1.02 2 0 2 C0 1.34 0 0.68 0 0 Z " fill="#C09D39" transform="translate(64,33)" />
<path d="M0 0 C0.33 1.32 0.66 2.64 1 4 C3.145 3.835 3.145 3.835 14 3 C10.90782735 6.09217265 10.12270055 6.49290997 6.0625 7.25 C5.20785156 7.42015625 4.35320313 7.5903125 3.47265625 7.765625 C1.00466983 7.99955736 -0.66014099 7.76004701 -3 7 C-2.25 2.25 -2.25 2.25 0 0 Z " fill="#C29833" transform="translate(41,46)" />
<path d="M0 0 C0 3 0 3 -1.4375 5.0625 C-3.65688207 9.23493828 -3.73742932 13.33710684 -4 18 C-5.32 18 -6.64 18 -8 18 C-7.55851518 11.08340452 -4.95199853 4.95199853 0 0 Z " fill="#CBA34B" transform="translate(25,59)" />
<path d="M0 0 C0.66 0.99 1.32 1.98 2 3 C1.15633806 6.37464778 -0.1655062 9.37735413 -1.5625 12.5625 C-2.76975773 15.44942066 -3.53428229 17.92626312 -4 21 C-5.65 21 -7.3 21 -9 21 C-7.68 20.67 -6.36 20.34 -5 20 C-5.04640625 19.34773438 -5.0928125 18.69546875 -5.140625 18.0234375 C-5.39037356 11.97595452 -4.85230788 8.9029373 -1 4 C-0.25 1.625 -0.25 1.625 0 0 Z " fill="#AB7F32" transform="translate(26,57)" />
<path d="M0 0 C-0.33 1.32 -0.66 2.64 -1 4 C-1.66 4 -2.32 4 -3 4 C-3.33 4.99 -3.66 5.98 -4 7 C-6.9025144 9.03960471 -9.50841798 10.35341074 -13 11 C-11.625 9.5 -11.625 9.5 -10 8 C-9.34 8 -8.68 8 -8 8 C-7.26919734 6.02253397 -6.60578253 4.01927511 -6 2 C-6.33 1.34 -6.66 0.68 -7 0 C-3.98968256 -0.93423645 -3.13349732 -1.04449911 0 0 Z " fill="#756344" transform="translate(59,53)" />
<path d="M0 0 C0.99 0 1.98 0 3 0 C2.34 2.97 1.68 5.94 1 9 C-0.32 8.67 -1.64 8.34 -3 8 C-2.25 2.25 -2.25 2.25 0 0 Z " fill="#F5E471" transform="translate(28,36)" />
<path d="M0 0 C1 3 1 3 0 6 C-0.66 6.474375 -1.32 6.94875 -2 7.4375 C-4.29189635 9.22804402 -4.61121002 10.18127263 -5 13 C-6.32 13 -7.64 13 -9 13 C-8.875 10.25 -8.875 10.25 -8 7 C-5.0625 4.8125 -5.0625 4.8125 -2 3 C-1.34 2.01 -0.68 1.02 0 0 Z " fill="#7A6441" transform="translate(66,35)" />
<path d="M0 0 C0.33 0.99 0.66 1.98 1 3 C-6.13407433 9.04845432 -6.13407433 9.04845432 -9.1640625 8.87890625 C-9.57011719 8.82669922 -9.57011719 8.82669922 -11.625 8.5625 C-12.44226562 8.46066406 -13.25953125 8.35882813 -14.1015625 8.25390625 C-14.72804687 8.17011719 -15.35453125 8.08632813 -16 8 C-13.42958141 5.42958141 -11.46010575 5.69310817 -7.96875 5.3515625 C-5.39755832 4.89242113 -3.9317381 3.70884525 -2 2 C-1.34 2 -0.68 2 0 2 C0 1.34 0 0.68 0 0 Z " fill="#7D5714" transform="translate(58,46)" />
<path d="M0 0 C0.66 0.33 1.32 0.66 2 1 C1.67 1.495 1.67 1.495 0 4 C-0.66 4 -1.32 4 -2 4 C-2.33 4.99 -2.66 5.98 -3 7 C-4.65 7.33 -6.3 7.66 -8 8 C-8.33 6.68 -8.66 5.36 -9 4 C-7.68 4.33 -6.36 4.66 -5 5 C-4.67 4.01 -4.34 3.02 -4 2 C-2.0625 0.75 -2.0625 0.75 0 0 Z " fill="#F4D545" transform="translate(62,21)" />
<path d="M0 0 C0 0.99 0 1.98 0 3 C-0.99 3.33 -1.98 3.66 -3 4 C-3 4.99 -3 5.98 -3 7 C-4.65 7.66 -6.3 8.32 -8 9 C-7.64598897 5.81390075 -7.16972964 4.20933322 -5.125 1.6875 C-3 0 -3 0 0 0 Z " fill="#F9EA77" transform="translate(52,19)" />
<path d="M0 0 C0.66 0 1.32 0 2 0 C1.45480292 5.81543549 -1.93679121 10.93679121 -6 15 C-5.48272892 9.69797143 -3.74074287 6.45370717 -1 2 C-0.67 1.34 -0.34 0.68 0 0 Z " fill="#714F17" transform="translate(24,55)" />
<path d="M0 0 C4.29 0 8.58 0 13 0 C12.67 1.65 12.34 3.3 12 5 C10.68 4.67 9.36 4.34 8 4 C8.66 3.34 9.32 2.68 10 2 C6.37 2 2.74 2 -1 2 C-0.67 1.34 -0.34 0.68 0 0 Z " fill="#E2BE58" transform="translate(44,44)" />
<path d="M0 0 C0.33 0.165 0.33 0.165 2 1 C2 1.66 2 2.32 2 3 C4.4375 2.625 4.4375 2.625 7 2 C7.33 1.34 7.66 0.68 8 0 C7.67 1.65 7.34 3.3 7 5 C5.02 5.66 3.04 6.32 1 7 C0.67 4.69 0.34 2.38 0 0 Z " fill="#F6D44A" transform="translate(33,34)" />
<path d="M0 0 C0.33 0.66 0.66 1.32 1 2 C0.0625 4.125 0.0625 4.125 -1 6 C-2.65 6 -4.3 6 -6 6 C-5.8125 4.125 -5.8125 4.125 -5 2 C-2.4375 0.75 -2.4375 0.75 0 0 Z " fill="#E3B33D" transform="translate(40,38)" />
<path d="M0 0 C-0.51949219 0.24234375 -1.03898437 0.4846875 -1.57421875 0.734375 C-5.81271608 2.77136078 -9.43232946 4.87828828 -13 8 C-13 6.35 -13 4.7 -13 3 C-12.38125 2.87625 -11.7625 2.7525 -11.125 2.625 C-9 2 -9 2 -7 0 C-3.99340864 -1.066855 -3.14820941 -1.04940314 0 0 Z " fill="#614B09" transform="translate(66,16)" />
<path d="M0 0 C2.54055845 0.25552438 5.03852505 0.56707159 7.5625 0.9375 C8.27341797 1.03740234 8.98433594 1.13730469 9.71679688 1.24023438 C11.47856957 1.48853791 13.23938152 1.74364039 15 2 C15 2.33 15 2.66 15 3 C9.72 3 4.44 3 -1 3 C-1.33 3.66 -1.66 4.32 -2 5 C-1.125 1.125 -1.125 1.125 0 0 Z " fill="#684216" transform="translate(28,61)" />
<path d="M0 0 C1.32 0 2.64 0 4 0 C3.67 1.32 3.34 2.64 3 4 C2.195625 4.12375 1.39125 4.2475 0.5625 4.375 C0.1396875 4.478125 0.1396875 4.478125 -2 5 C-2.33 5.66 -2.66 6.32 -3 7 C-2.25 2.25 -2.25 2.25 0 0 Z " fill="#F2E279" transform="translate(37,27)" />
<path d="M0 0 C2 4 2 4 2 8 C2.66 8.66 3.32 9.32 4 10 C2.02 10 0.04 10 -2 10 C-1.34 6.7 -0.68 3.4 0 0 Z " fill="#D1A732" transform="translate(52,20)" />
<path d="M0 0 C0.66 0 1.32 0 2 0 C2.33 0.66 2.66 1.32 3 2 C4.32 2.66 5.64 3.32 7 4 C5.515 4.165 5.515 4.165 -2 5 C-1.34 3.35 -0.68 1.7 0 0 Z " fill="#F9D353" transform="translate(51,35)" />
<path d="M0 0 C0.33 0.99 0.66 1.98 1 3 C-0.75 5 -0.75 5 -3 7 C-4.32 7 -5.64 7 -7 7 C-7 5.02 -7 3.04 -7 1 C-6.67 1.99 -6.34 2.98 -6 4 C-4.35 4 -2.7 4 -1 4 C-0.67 2.68 -0.34 1.36 0 0 Z " fill="#C68F33" transform="translate(40,40)" />
<path d="M0 0 C1.65 0 3.3 0 5 0 C5.25 5.625 5.25 5.625 3 9 C1.68 8.67 0.36 8.34 -1 8 C-0.34 8 0.32 8 1 8 C2.20628008 5.66785852 3.1654738 3.50357861 4 1 C2.68 0.67 1.36 0.34 0 0 Z " fill="#CFAF48" transform="translate(61,17)" />
<path d="M0 0 C0 3.63306931 -1.07932067 4.97123644 -3 8 C-3.68096422 9.32608822 -4.35330586 10.65686601 -5 12 C-6 9 -6 9 -5.0390625 6.9921875 C-4.57242187 6.29351562 -4.10578125 5.59484375 -3.625 4.875 C-3.16351562 4.17117187 -2.70203125 3.46734375 -2.2265625 2.7421875 C-1 1 -1 1 0 0 Z " fill="#D9AD56" transform="translate(25,59)" />
<path d="M0 0 C2.31 0.33 4.62 0.66 7 1 C6.67 1.99 6.34 2.98 6 4 C5.01 3.835 5.01 3.835 0 3 C0 2.01 0 1.02 0 0 Z " fill="#FEED68" transform="translate(37,54)" />
<path d="M0 0 C0.66 0 1.32 0 2 0 C1.34 4.29 0.68 8.58 0 13 C-0.33 13 -0.66 13 -1 13 C-1.22151549 11.20991533 -1.42682213 9.41781838 -1.625 7.625 C-1.74101562 6.62726562 -1.85703125 5.62953125 -1.9765625 4.6015625 C-1.98429687 3.74304687 -1.99203125 2.88453125 -2 2 C-1.34 1.34 -0.68 0.68 0 0 Z " fill="#776344" transform="translate(22,38)" />
<path d="M0 0 C0.33 0.99 0.66 1.98 1 3 C-5.75 4.125 -5.75 4.125 -8 3 C-8.33 3.66 -8.66 4.32 -9 5 C-8.67 3.68 -8.34 2.36 -8 1 C-6.865625 1.020625 -5.73125 1.04125 -4.5625 1.0625 C-1 1 -1 1 0 0 Z " fill="#BD8C2F" transform="translate(58,29)" />
<path d="M0 0 C0.2578125 0.2371875 0.2578125 0.2371875 1.5625 1.4375 C4.66782675 3.42809407 7.36632504 3.65060818 11 4 C11 4.33 11 4.66 11 5 C9.37509046 5.02698189 7.75005367 5.04638757 6.125 5.0625 C5.67253906 5.06830078 5.67253906 5.06830078 3.3828125 5.09765625 C1 5 1 5 -1 4 C-0.67 2.68 -0.34 1.36 0 0 Z " fill="#F5C749" transform="translate(33,55)" />
<path d="M0 0 C0.66 0.33 1.32 0.66 2 1 C1.375 2.9375 1.375 2.9375 0 5 C-3.125 5.75 -3.125 5.75 -6 6 C-6 5.34 -6 4.68 -6 4 C-4.68 4 -3.36 4 -2 4 C-2 3.34 -2 2.68 -2 2 C-1.34 2 -0.68 2 0 2 C0 1.34 0 0.68 0 0 Z " fill="#D1AA47" transform="translate(50,54)" />
<path d="M0 0 C0.66 0 1.32 0 2 0 C2.625 1.8125 2.625 1.8125 3 4 C2.67 4.495 2.67 4.495 1 7 C0.01 6.34 -0.98 5.68 -2 5 C-1.34 3.35 -0.68 1.7 0 0 Z " fill="#76653A" transform="translate(32,27)" />
<path d="M0 0 C0.33 1.32 0.66 2.64 1 4 C2.98 4 4.96 4 7 4 C7 4.33 7 4.66 7 5 C4.03 5 1.06 5 -2 5 C-1 1 -1 1 0 0 Z " fill="#DEB442" transform="translate(41,46)" />
<path d="M0 0 C0.33 0 0.66 0 1 0 C1.0825 0.94875 1.165 1.8975 1.25 2.875 C2 6 2 6 4.0625 7.375 C4.701875 7.58125 5.34125 7.7875 6 8 C2.25 9.125 2.25 9.125 0 8 C0 5.36 0 2.72 0 0 Z " fill="#E4BB46" transform="translate(24,42)" />
<path d="M0 0 C0.33 0.66 0.66 1.32 1 2 C0.67 2.66 0.34 3.32 0 4 C1.65 4 3.3 4 5 4 C2 6 2 6 -2 6 C-1.125 1.125 -1.125 1.125 0 0 Z " fill="#D5A53D" transform="translate(49,36)" />
</svg>