<?xml version='1.0' encoding='utf-8'?>
<svg xmlns="http://www.w3.org/2000/svg" version="1.1" width="107" height="87">
<path d="M0 0 C1.99710729 0.26191571 3.99403078 0.52574674 5.98828125 0.80859375 C8.20582199 1.01958306 9.91278603 0.78270524 12 0 C12.185625 0.639375 12.37125 1.27875 12.5625 1.9375 C13.036875 2.618125 13.51125 3.29875 14 4 C16.32741989 4.37238718 18.66235715 4.69836866 21 5 C23.11088203 5.91196393 25.09482926 6.94866305 27.10546875 8.0625 C29 9 29 9 31.17578125 9.4921875 C31.77777344 9.65976562 32.37976563 9.82734375 33 10 C34 12.125 34 12.125 35 15 C35.33 15.5259375 35.33 15.5259375 37 18.1875 C40.20386643 23.63885482 41 29.76036487 41 36 C40.690625 36.0309375 40.690625 36.0309375 39.125 36.1875 C38.42375 36.455625 37.7225 36.72375 37 37 C36.7525 37.75539062 36.505 38.51078125 36.25 39.2890625 C34.54113612 42.99516103 32.34815321 44.10441391 28.875 46.1875 C27.77929688 46.86167969 26.68359375 47.53585938 25.5546875 48.23046875 C15.0006343 53.48429963 0.42937048 54.26903143 -10.82421875 50.83203125 C-16.16913508 48.22328288 -20.54829284 44.89524376 -25 41 C-27.375 40.1875 -27.375 40.1875 -29 40 C-29 39.34 -29 38.68 -29 38 C-28.34 38 -27.68 38 -27 38 C-27.33 37.34 -27.66 36.68 -28 36 C-29.28687011 32.13938967 -29.13757618 29.05849717 -29 25 C-29.66 25 -30.32 25 -31 25 C-31.33 23.02 -31.66 21.04 -32 19 C-30.35 19.33 -28.7 19.66 -27 20 C-26.9484375 19.71125 -26.9484375 19.71125 -26.6875 18.25 C-25.89103535 15.64338842 -24.80934723 14.0264689 -23 12 C-22.34 12 -21.68 12 -21 12 C-21.33 10.68 -21.66 9.36 -22 8 C-20.948125 7.773125 -19.89625 7.54625 -18.8125 7.3125 C-3.51584928 3.51584928 -3.51584928 3.51584928 0 0 Z " fill="#F7D84F" transform="translate(49,17)" />
<path d="M0 0 C0.66 0.33 1.32 0.66 2 1 C2 1.66 2 2.32 2 3 C2.495 3.04125 2.495 3.04125 5 3.25 C8.81630909 3.77638746 11.75852395 5.20838801 15.10546875 7.0625 C17.05545222 8.02744027 18.8777269 8.54825229 21 9 C21.18037017 12.96814382 21.15486284 15.62266689 19 19 C17.3359375 20.01953125 17.3359375 20.01953125 15.375 20.8125 C7.72174043 24.3682794 2.55342817 30.02756311 -2 37 C-3.81358154 36.52494322 -5.62584179 36.04483958 -7.4375 35.5625 C-8.44683594 35.29566406 -9.45617187 35.02882812 -10.49609375 34.75390625 C-13 34 -13 34 -14 33 C-13.5020163 36.73487777 -13.12508244 38.81237635 -11 42 C-11 42.99 -11 43.98 -11 45 C-11.66 45 -12.32 45 -13 45 C-13.83719383 42.70967689 -14.6698929 40.41789043 -15.5 38.125 C-15.73847656 37.47402344 -15.97695313 36.82304688 -16.22265625 36.15234375 C-18 31.2265625 -18 31.2265625 -18 29 C-22.04714784 29.95227008 -24.42817546 30.53456142 -27.6875 33.1875 C-30 35 -30 35 -32.3125 34.75 C-32.869375 34.5025 -33.42625 34.255 -34 34 C-34 33.34 -34 32.68 -34 32 C-34.32033957 29.99787771 -34.65259077 27.99760305 -35 26 C-35.99 26 -36.98 26 -38 26 C-37.34 24.68 -36.68 23.36 -36 22 C-33.69 22 -31.38 22 -29 22 C-29 21.38511719 -29 20.77023438 -29 20.13671875 C-29 16.7578125 -29 13.37890625 -29 10 C-27.68 10.33 -26.36 10.66 -25 11 C-25 10.67 -25 10.34 -25 10 C-23.845 9.835 -23.845 9.835 -18 9 C-18 8.34 -18 7.68 -18 7 C-16.35 6.34 -14.7 5.68 -13 5 C-13 5.66 -13 6.32 -13 7 C-12.01 7 -11.02 7 -10 7 C-9.34 5.68 -8.68 4.36 -8 3 C-8 3.66 -8 4.32 -8 5 C-6.68 5 -5.36 5 -4 5 C-4 4.34 -4 3.68 -4 3 C-3.34 3 -2.68 3 -2 3 C-1.67 2.34 -1.34 1.68 -1 1 C-0.67 0.67 -0.34 0.34 0 0 Z " fill="#E1BC48" transform="translate(61,18)" />
<path d="M0 0 C-0.3196875 0.144375 -0.3196875 0.144375 -1.9375 0.875 C-4 2 -4 2 -5 4 C-4.01 4.33 -3.02 4.66 -2 5 C-2.66 5 -3.32 5 -4 5 C-3.34 6.32 -2.68 7.64 -2 9 C-2.33 9.33 -2.66 9.66 -3 10 C-2.34 10.33 -1.68 10.66 -1 11 C-1 12.65 -1 14.3 -1 16 C-2.02738281 16.24234375 -3.05476563 16.4846875 -4.11328125 16.734375 C-11.44359566 18.49599219 -18.53265122 20.40834858 -25.58203125 23.1171875 C-29.00377124 24.36648191 -32.44972539 25.19616424 -36 26 C-36.33 24.35 -36.66 22.7 -37 21 C-32.25 19.875 -32.25 19.875 -30 21 C-30.30035156 20.39671875 -30.60070313 19.7934375 -30.91015625 19.171875 C-31.29042969 18.37265625 -31.67070313 17.5734375 -32.0625 16.75 C-32.44535156 15.96109375 -32.82820313 15.1721875 -33.22265625 14.359375 C-34.08564091 11.74006478 -33.93045933 10.55144824 -33 8 C-32.31292969 8.30035156 -31.62585937 8.60070313 -30.91796875 8.91015625 C-30.01691406 9.29042969 -29.11585937 9.67070313 -28.1875 10.0625 C-27.29417969 10.44535156 -26.40085937 10.82820313 -25.48046875 11.22265625 C-23 12 -23 12 -20 11 C-18.5 9.2578125 -18.5 9.2578125 -17 7.125 C-12.58468411 0.8929656 -7.94937151 -4.2084908 0 0 Z " fill="#F3BE30" transform="translate(80,42)" />
<path d="M0 0 C0.268125 0.639375 0.53625 1.27875 0.8125 1.9375 C2 4 2 4 5 5 C5 4.34 5 3.68 5 3 C5.66 3 6.32 3 7 3 C7 3.66 7 4.32 7 5 C8.32 5 9.64 5 11 5 C11 5.66 11 6.32 11 7 C13.64 6.67 16.28 6.34 19 6 C19 5.34 19 4.68 19 4 C19.66 4 20.32 4 21 4 C21 4.99 21 5.98 21 7 C20.34 7 19.68 7 19 7 C18.67 7.66 18.34 8.32 18 9 C17.34 8.67 16.68 8.34 16 8 C16 8.99 16 9.98 16 11 C17.98 10.67 19.96 10.34 22 10 C22 10.66 22 11.32 22 12 C25.36720387 10.60667426 26.9859524 9.0210714 29 6 C28.125 10.75 28.125 10.75 27 13 C25.824375 13.556875 24.64875 14.11375 23.4375 14.6875 C15.80434381 18.38096267 10.58345768 23.98158042 6 31 C4.18641846 30.52494322 2.37415821 30.04483958 0.5625 29.5625 C-0.44683594 29.29566406 -1.45617187 29.02882813 -2.49609375 28.75390625 C-5 28 -5 28 -6 27 C-5.5020163 30.73487777 -5.12508244 32.81237635 -3 36 C-3 36.99 -3 37.98 -3 39 C-3.66 39 -4.32 39 -5 39 C-5.83719383 36.70967689 -6.6698929 34.41789043 -7.5 32.125 C-7.73847656 31.47402344 -7.97695313 30.82304688 -8.22265625 30.15234375 C-10 25.2265625 -10 25.2265625 -10 23 C-14.04714784 23.95227008 -16.42817546 24.53456142 -19.6875 27.1875 C-22 29 -22 29 -24.3125 28.75 C-24.869375 28.5025 -25.42625 28.255 -26 28 C-25.29875 27.62875 -24.5975 27.2575 -23.875 26.875 C-21.44164644 25.28803029 -19.79739542 23.87542571 -17.8125 21.8125 C-16.884375 20.884375 -15.95625 19.95625 -15 19 C-14.34 19 -13.68 19 -13 19 C-13.33 17.35 -13.66 15.7 -14 14 C-13.34 14 -12.68 14 -12 14 C-11.566875 15.11375 -11.13375 16.2275 -10.6875 17.375 C-9 21 -9 21 -6 23 C-3.23344676 23.14245897 -0.57346694 23.18769445 2.1875 23.125 C2.56229492 23.12048828 2.56229492 23.12048828 4.45898438 23.09765625 C6.30612654 23.07412578 8.15310412 23.03825561 10 23 C12.40083162 18.7244154 12.38567358 15.85948709 12 11 C9.86170766 8.08538496 7.79096942 7.4678638 4.3125 6.8125 C3.50425781 6.65394531 2.69601563 6.49539062 1.86328125 6.33203125 C1.24839844 6.22246094 0.63351563 6.11289062 0 6 C0 4.02 0 2.04 0 0 Z " fill="#B99A61" transform="translate(53,24)" />
<path d="M0 0 C4.27741125 3.9922505 6.0258981 7.27769168 7.125 13 C7.29257813 13.845625 7.46015625 14.69125 7.6328125 15.5625 C8 18 8 18 8 22 C7.38125 22.061875 6.7625 22.12375 6.125 22.1875 C5.42375 22.455625 4.7225 22.72375 4 23 C3.835 23.4125 3.835 23.4125 3 25.5 C2.835 25.9125 2.835 25.9125 2 28 C-0.91254253 29.07609425 -3.67008086 29.10779293 -6.75 29.0625 C-7.54921875 29.05347656 -8.3484375 29.04445313 -9.171875 29.03515625 C-9.77515625 29.02355469 -10.3784375 29.01195313 -11 29 C-11 28.67 -11 28.34 -11 28 C-9.68 27.835 -9.68 27.835 -3 27 C-3 25.35 -3 23.7 -3 22 C-4.32 21.34 -5.64 20.68 -7 20 C-6.34 19.67 -5.68 19.34 -5 19 C-5.66 17.02 -6.32 15.04 -7 13 C-5.68 12.34 -4.36 11.68 -3 11 C-6.05263664 10.01879536 -7.94736336 10.01879536 -11 11 C-8.16569547 7.7457985 -6.31392226 6.4793247 -2 6 C-1.34 4.02 -0.68 2.04 0 0 Z " fill="#F5CB35" transform="translate(82,31)" />
<path d="M0 0 C5.9035002 0.42167859 11.14145571 1.40741444 16 5 C16.66 6.32 17.32 7.64 18 9 C21.96 8.01 25.92 7.02 30 6 C29.34 5.34 28.68 4.68 28 4 C32.29051381 3.46935694 36.58254031 2.95214569 40.875 2.4375 C42.09832031 2.28603516 43.32164063 2.13457031 44.58203125 1.97851562 C45.74863281 1.83994141 46.91523437 1.70136719 48.1171875 1.55859375 C49.19597168 1.42767334 50.27475586 1.29675293 51.38623047 1.16186523 C54 1 54 1 56 2 C54.34299885 3.13918829 52.67380397 4.26064681 51 5.375 C50.5359375 5.68824219 50.5359375 5.68824219 48.1875 7.2734375 C38.62464147 12.4533192 24.42136128 13.1008767 13.92724609 10.48291016 C7.80268137 8.29474484 3.83250724 5.19556985 0 0 Z " fill="#B0A271" transform="translate(26,58)" />
<path d="M0 0 C1.22332031 -0.02835938 2.44664063 -0.05671875 3.70703125 -0.0859375 C7.74669823 0.44905768 9.3607076 1.49546893 12.1875 4.375 C12.875 6.875 12.875 6.875 12.1875 9.375 C8.56129912 13.00120088 5.71843557 13.67539239 0.625 13.875 C-2.93884104 13.72427821 -4.79527689 13.38328034 -8.0625 11.8125 C-9.8125 9.375 -9.8125 9.375 -9.75 5.75 C-8.09227574 -0.21780733 -5.74675987 0.0601755 0 0 Z " fill="#9C0E03" transform="translate(52.8125,32.625)" />
<path d="M0 0 C1.52519276 0.08937803 3.04681929 0.24537146 4.5625 0.4375 C5.38878906 0.53933594 6.21507812 0.64117188 7.06640625 0.74609375 C7.70449219 0.82988281 8.34257813 0.91367187 9 1 C9 1.66 9 2.32 9 3 C8.39414062 3.01417969 7.78828125 3.02835938 7.1640625 3.04296875 C2.09906329 3.33128409 -1.60206465 4.08370233 -6.0625 6.5625 C-10.99256539 9.28145841 -14.42935076 9.44924591 -20 9 C-19.67 10.2375 -19.34 11.475 -19 12.75 C-18.20108841 15.74591845 -18 17.80107719 -18 21 C-21.96 21.33 -25.92 21.66 -30 22 C-27 27 -27 27 -25.375 28.5625 C-23.61026942 30.4074456 -23.15031405 31.44466123 -23 34 C-24.25 36.6875 -24.25 36.6875 -26 39 C-26.495 39.165 -26.495 39.165 -29 40 C-29 39.34 -29 38.68 -29 38 C-28.34 38 -27.68 38 -27 38 C-27.33 37.34 -27.66 36.68 -28 36 C-29.28687011 32.13938967 -29.13757618 29.05849717 -29 25 C-29.66 25 -30.32 25 -31 25 C-31.33 23.02 -31.66 21.04 -32 19 C-30.35 19.33 -28.7 19.66 -27 20 C-26.9484375 19.71125 -26.9484375 19.71125 -26.6875 18.25 C-25.89103535 15.64338842 -24.80934723 14.0264689 -23 12 C-22.34 12 -21.68 12 -21 12 C-21.33 10.68 -21.66 9.36 -22 8 C-20.948125 7.773125 -19.89625 7.54625 -18.8125 7.3125 C-3.51584928 3.51584928 -3.51584928 3.51584928 0 0 Z " fill="#E5D382" transform="translate(49,17)" />
<path d="M0 0 C1.9375 1.5625 1.9375 1.5625 3.9375 3.5625 C4.49862224 10.52041583 4.49862224 10.52041583 2.625 14 C-0.62356019 17.0079261 -4.21161726 16.78313298 -8.4375 16.875 C-9.55898438 16.91238281 -10.68046875 16.94976562 -11.8359375 16.98828125 C-15.76066264 16.47036958 -17.32446514 15.37932723 -20.0625 12.5625 C-21.80510559 8.87185971 -22.37093832 5.48781495 -21.0625 1.5625 C-14.50570617 -3.56890387 -7.49784055 -3.51939454 0 0 Z M-17.9609375 3.4375 C-19.36421911 6.1445397 -19.66345593 7.55772037 -19.0625 10.5625 C-16.83850397 13.40001217 -15.05845125 14.41265323 -11.4921875 14.94921875 C-7.12043321 15.12194474 -3.22875859 15.12302584 0.625 12.875 C2.9375 10.5625 2.9375 10.5625 3.625 8.0625 C2.6443398 4.49646293 1.01556158 3.55101892 -2.0625 1.5625 C-5.5078125 1.03125 -5.5078125 1.03125 -9.1875 1.0625 C-10.40695313 1.0521875 -11.62640625 1.041875 -12.8828125 1.03125 C-16.0625 1.5625 -16.0625 1.5625 -17.9609375 3.4375 Z " fill="#EEC08D" transform="translate(62.0625,31.4375)" />
<path d="M0 0 C0.94875 0.04125 1.8975 0.0825 2.875 0.125 C3.54760351 1.89358691 4.21288395 3.66496016 4.875 5.4375 C5.24625 6.42363281 5.6175 7.40976562 6 8.42578125 C6.875 11.125 6.875 11.125 6.875 14.125 C0.96971732 13.73667075 -3.88289181 12.96447527 -9.125 10.125 C-9.455 9.135 -9.785 8.145 -10.125 7.125 C-3.125 0.125 -3.125 0.125 0 0 Z " fill="#EEC22B" transform="translate(40.125,46.875)" />
<path d="M0 0 C0.268125 0.639375 0.53625 1.27875 0.8125 1.9375 C2 4 2 4 5 5 C5 4.34 5 3.68 5 3 C5.66 3 6.32 3 7 3 C7 3.66 7 4.32 7 5 C8.32 5 9.64 5 11 5 C11 5.66 11 6.32 11 7 C13.64 6.67 16.28 6.34 19 6 C19 5.34 19 4.68 19 4 C19.66 4 20.32 4 21 4 C21 4.99 21 5.98 21 7 C20.34 7 19.68 7 19 7 C18.67 7.66 18.34 8.32 18 9 C17.34 8.67 16.68 8.34 16 8 C16 8.99 16 9.98 16 11 C17.98 10.67 19.96 10.34 22 10 C22 10.66 22 11.32 22 12 C25.36720387 10.60667426 26.9859524 9.0210714 29 6 C28.125 10.75 28.125 10.75 27 13 C25.29296875 13.96484375 25.29296875 13.96484375 23.1875 14.9375 C20.17387246 16.37692496 17.65140281 17.96045938 15 20 C14.34 20 13.68 20 13 20 C12.96261719 19.38511719 12.92523438 18.77023438 12.88671875 18.13671875 C12.85384766 17.73259766 12.85384766 17.73259766 12.6875 15.6875 C12.62949219 14.88699219 12.57148437 14.08648437 12.51171875 13.26171875 C11.89526947 10.53710705 11.24257525 9.64188545 9 8 C6.73828125 7.26953125 6.73828125 7.26953125 4.3125 6.8125 C3.90837891 6.73322266 3.90837891 6.73322266 1.86328125 6.33203125 C1.24839844 6.22246094 0.63351563 6.11289062 0 6 C0 4.02 0 2.04 0 0 Z " fill="#B28019" transform="translate(53,24)" />
<path d="M0 0 C3.63 1.32 7.26 2.64 11 4 C10 9 10 9 9 12 C10.32 12.66 11.64 13.32 13 14 C10.89936424 14.69821417 8.79434263 15.38324472 6.6875 16.0625 C6.10162109 16.25392578 6.10162109 16.25392578 3.13671875 17.22265625 C0 18 0 18 -3 17 C-3 15.68 -3 14.36 -3 13 C1.75 11.875 1.75 11.875 4 13 C3.71125 12.39671875 3.4225 11.7934375 3.125 11.171875 C2.75375 10.37265625 2.3825 9.5734375 2 8.75 C1.814375 8.35554688 1.814375 8.35554688 0.875 6.359375 C0 4 0 4 0 0 Z " fill="#E6B522" transform="translate(46,50)" />
<path d="M0 0 C0.639375 0.165 1.27875 0.33 1.9375 0.5 C5.97586652 1.15932515 9.91807258 1.08003779 14 1 C14 1.33 14 1.66 14 2 C12.88625 2.103125 11.7725 2.20625 10.625 2.3125 C9.42875 2.539375 8.2325 2.76625 7 3 C6.67 3.495 6.67 3.495 5 6 C5.99 6 6.98 6 8 6 C8 6.66 8 7.32 8 8 C8.66 8.33 9.32 8.66 10 9 C10.12375 9.804375 10.2475 10.60875 10.375 11.4375 C11 14 11 14 13.0625 15.3125 C13.701875 15.539375 14.34125 15.76625 15 16 C14.34 16.33 13.68 16.66 13 17 C13 17.66 13 18.32 13 19 C13.70125 19.12375 14.4025 19.2475 15.125 19.375 C18 20 18 20 20.9375 21.0625 C24.12703241 22.03888747 26.68594925 22.15781194 30 22 C30 22.66 30 23.32 30 24 C27.6875 25.3125 27.6875 25.3125 24 26 C21.15293691 24.9762875 18.53824281 23.67496248 15.8359375 22.31640625 C11.94208553 20.50892951 8.21249799 19.75963079 4 19 C4.515625 18.13375 5.03125 17.2675 5.5625 16.375 C7.16782969 12.60596507 7.01911045 10.89114901 6 7 C5.01 6.67 4.02 6.34 3 6 C1.3125 2.9375 1.3125 2.9375 0 0 Z " fill="#EECC44" transform="translate(18,38)" />
<path d="M0 0 C0 3 0 3 -1.64453125 4.75390625 C-2.00224609 5.05232422 -2.00224609 5.05232422 -3.8125 6.5625 C-4.52019531 7.16191406 -5.22789063 7.76132812 -5.95703125 8.37890625 C-8 10 -8 10 -11 12 C-13.5654594 9.4345406 -13.54046087 7.52313332 -14 4 C-14.99 4 -15.98 4 -17 4 C-16.4375 2.0625 -16.4375 2.0625 -15 0 C-10.33537657 -1.07645156 -4.42645177 -2.21322588 0 0 Z " fill="#F3BF24" transform="translate(40,40)" />
<path d="M0 0 C4.64769913 0.46476991 8.03590251 1.85896683 12.0703125 4.0625 C14.03359691 5.01632239 15.87080096 5.54577087 18 6 C17.47557578 9.7758544 16.67345333 12.22372155 14 15 C13.01 15 12.02 15 11 15 C10.67 14.67 10.34 14.34 10 14 C9.67 14.165 9.67 14.165 8 15 C7.01 14.67 6.02 14.34 5 14 C5 13.01 5 12.02 5 11 C6.65 10.67 8.3 10.34 10 10 C7.62722182 4.97529326 4.78902145 3.43969017 0 1 C0 0.67 0 0.34 0 0 Z " fill="#ECC730" transform="translate(64,21)" />
<path d="M0 0 C1.27617188 0.02320313 2.55234375 0.04640625 3.8671875 0.0703125 C4.50785156 0.07933594 4.50785156 0.07933594 7.75 0.125 C8.24371094 0.13660156 8.24371094 0.13660156 10.7421875 0.1953125 C11.0721875 0.8553125 11.4021875 1.5153125 11.7421875 2.1953125 C7.4521875 1.8653125 3.1621875 1.5353125 -1.2578125 1.1953125 C-0.9278125 3.8353125 -0.5978125 6.4753125 -0.2578125 9.1953125 C1.0621875 9.1953125 2.3821875 9.1953125 3.7421875 9.1953125 C4.0721875 8.5353125 4.4021875 7.8753125 4.7421875 7.1953125 C5.4021875 7.5253125 6.0621875 7.8553125 6.7421875 8.1953125 C6.7421875 9.1853125 6.7421875 10.1753125 6.7421875 11.1953125 C8.0621875 10.8653125 9.3821875 10.5353125 10.7421875 10.1953125 C10.4121875 11.1853125 10.0821875 12.1753125 9.7421875 13.1953125 C0.01747083 13.80842949 0.01747083 13.80842949 -4.5078125 11.6328125 C-6.2578125 9.1953125 -6.2578125 9.1953125 -6.1953125 5.5703125 C-4.98911825 1.22801322 -4.56536023 0.27370265 0 0 Z " fill="#993D25" transform="translate(49.2578125,32.8046875)" />
<path d="M0 0 C-0.639375 0.28875 -1.27875 0.5775 -1.9375 0.875 C-4 2 -4 2 -5 4 C-4.01 4.33 -3.02 4.66 -2 5 C-2.66 5 -3.32 5 -4 5 C-3.34 6.32 -2.68 7.64 -2 9 C-3.93816735 8.8858134 -5.87555099 8.75826577 -7.8125 8.625 C-8.89144531 8.55539063 -9.97039062 8.48578125 -11.08203125 8.4140625 C-14 8 -14 8 -17 6 C-11.97404223 0.49537959 -7.5840997 -4.01511161 0 0 Z " fill="#DCAC26" transform="translate(80,42)" />
<path d="M0 0 C0.66 0 1.32 0 2 0 C2.53414112 1.89212702 3.05178329 3.78891636 3.5625 5.6875 C3.85253906 6.74324219 4.14257812 7.79898438 4.44140625 8.88671875 C5.0059543 12.03318584 4.99423686 13.97925851 4 17 C2.68352881 17.69937532 1.34977849 18.36729133 0 19 C-0.10441406 19.61230469 -0.20882812 20.22460938 -0.31640625 20.85546875 C-1.31448502 23.98658444 -3.13166624 24.65586776 -5.9375 26.25 C-6.83339844 26.77078125 -7.72929688 27.2915625 -8.65234375 27.828125 C-11 29 -11 29 -13 29 C-13 29.66 -13 30.32 -13 31 C-14.32 31.165 -14.32 31.165 -21 32 C-18.73106782 29.73106782 -16.50825355 28.52679489 -13.6875 27 C-12.74261719 26.484375 -11.79773438 25.96875 -10.82421875 25.4375 C-8 24 -8 24 -5.1953125 22.9765625 C-4.47085938 22.65429688 -3.74640625 22.33203125 -3 22 C-2.1875 19.375 -2.1875 19.375 -2 17 C-0.35 16.67 1.3 16.34 3 16 C2.8453125 15.608125 2.8453125 15.608125 2.0625 13.625 C0.73664193 9.10148422 0.35188915 4.68568186 0 0 Z " fill="#604F1F" transform="translate(87,37)" />
<path d="M0 0 C5.90510571 0.42179327 11.19278762 1.3083369 16 5 C17.5 8.25 17.5 8.25 18 11 C10.76074381 8.87648485 4.2732152 6.64722364 0 0 Z " fill="#D1C491" transform="translate(26,58)" />
<path d="M0 0 C4.29 1.32 8.58 2.64 13 4 C12.01 4.33 11.02 4.66 10 5 C10 6.65 10 8.3 10 10 C9.34 10 8.68 10 8 10 C7.67 10.66 7.34 11.32 7 12 C6.01 11.835 6.01 11.835 1 11 C1.03255208 9.01432292 1.06510417 7.02864583 1.09765625 5.04296875 C1 3 1 3 0 0 Z " fill="#E2AF24" transform="translate(31,28)" />
<path d="M0 0 C0 0.66 0 1.32 0 2 C1.65 2 3.3 2 5 2 C5 3.32 5 4.64 5 6 C2.67190457 6.68473395 0.33762223 7.34853151 -2 8 C-2.886875 8.2475 -3.77375 8.495 -4.6875 8.75 C-7.4772979 9.05159977 -8.69865139 8.56162942 -11 7 C-11.33 6.34 -11.66 5.68 -12 5 C-10.845 4.835 -10.845 4.835 -5 4 C-5 3.34 -5 2.68 -5 2 C-2 0 -2 0 0 0 Z " fill="#F3CA34" transform="translate(48,23)" />
<path d="M0 0 C0.94875 0.04125 1.8975 0.0825 2.875 0.125 C3.38059908 1.56054025 3.8792749 2.9985202 4.375 4.4375 C4.6534375 5.23800781 4.931875 6.03851563 5.21875 6.86328125 C5.875 9.125 5.875 9.125 5.875 12.125 C4.225 12.125 2.575 12.125 0.875 12.125 C0.545 11.465 0.215 10.805 -0.125 10.125 C-0.455 9.795 -0.785 9.465 -1.125 9.125 C-3.125 5.47794118 -3.125 5.47794118 -3.125 3.125 C-3.785 2.795 -4.445 2.465 -5.125 2.125 C-3.125 0.125 -3.125 0.125 0 0 Z " fill="#E5B01E" transform="translate(40.125,46.875)" />
<path d="M0 0 C0.556875 0.144375 1.11375 0.28875 1.6875 0.4375 C6.94136317 1.71546672 11.59708529 2.19646963 17 2 C16.6875 3.9375 16.6875 3.9375 16 6 C12.29218328 7.23593891 11.32489747 6.5678132 7.8125 5.0625 C6.91144531 4.68222656 6.01039062 4.30195312 5.08203125 3.91015625 C4.39496094 3.60980469 3.70789062 3.30945312 3 3 C3.4979837 6.73487777 3.87491756 8.81237635 6 12 C6 12.99 6 13.98 6 15 C5.34 15 4.68 15 4 15 C3.32532438 13.25307205 2.66055844 11.50231475 2 9.75 C1.62875 8.77546875 1.2575 7.8009375 0.875 6.796875 C0 4 0 4 0 0 Z " fill="#B48812" transform="translate(44,48)" />
<path d="M0 0 C3.63 1.32 7.26 2.64 11 4 C10.67 5.65 10.34 7.3 10 9 C8 10 8 10 5 9.3125 C2 8 2 8 0.625 6.125 C0 4 0 4 0 0 Z " fill="#EDB91A" transform="translate(46,50)" />
<path d="M0 0 C-7.75558112 4.95037093 -14.86190462 6.33229438 -24 6 C-23 4 -23 4 -20.33984375 2.96484375 C-3.96134574 -1.98067287 -3.96134574 -1.98067287 0 0 Z " fill="#DDCDA9" transform="translate(76,62)" />
<path d="M0 0 C3.5 0.9375 3.5 0.9375 5.4375 3 C5.788125 3.639375 6.13875 4.27875 6.5 4.9375 C5.84 5.2675 5.84 5.2675 2.5 6.9375 C2.5 6.2775 2.5 5.6175 2.5 4.9375 C2.17 5.1025 2.17 5.1025 0.5 5.9375 C-0.83333333 6.60416667 -2.16666667 7.27083333 -3.5 7.9375 C-4.49 6.2875 -5.48 4.6375 -6.5 2.9375 C-4.48884774 -0.02007686 -3.67399752 -0.0656071 0 0 Z " fill="#B71F0A" transform="translate(53.5,36.0625)" />
<path d="M0 0 C-3.57779971 2.38519981 -6.44152762 2.698627 -10.625 3.33984375 C-13.29428445 4.08179946 -14.32649607 4.82178854 -16 7 C-16.6875 9.6875 -16.6875 9.6875 -17 12 C-17.33 12 -17.66 12 -18 12 C-19.125 6.375 -19.125 6.375 -18 3 C-11.99472372 -1.69978143 -7.32500821 -1.21862704 0 0 Z " fill="#DDB96B" transform="translate(59,30)" />
<path d="M0 0 C3.36241563 0.45438049 6.04009971 1.35561095 9 3 C6 3 3 3 0 3 C-3.16212275 4.19917973 -6.24462811 5.50011442 -9.3359375 6.8671875 C-13.40175477 8.58860207 -16.58953082 9.32771288 -21 9 C-20.67 10.32 -20.34 11.64 -20 13 C-20.66 13 -21.32 13 -22 13 C-22.33 11.35 -22.66 9.7 -23 8 C-22.29875 7.87625 -21.5975 7.7525 -20.875 7.625 C-3.94444444 3.94444444 -3.94444444 3.94444444 0 0 Z " fill="#5C4E23" transform="translate(48,16)" />
<path d="M0 0 C2.31 0.33 4.62 0.66 7 1 C7 1.33 7 1.66 7 2 C7.99 2.165 7.99 2.165 13 3 C9.59791172 6.40208828 5.22821408 6.05433827 0.625 6.0625 C-0.57125 6.041875 -1.7675 6.02125 -3 6 C-2.67 4.68 -2.34 3.36 -2 2 C-1.34 2 -0.68 2 0 2 C0 1.34 0 0.68 0 0 Z " fill="#F7CA44" transform="translate(58,56)" />
<path d="M0 0 C0.66 0 1.32 0 2 0 C2.66 2.97 3.32 5.94 4 9 C2.948125 9.2475 1.89625 9.495 0.8125 9.75 C-2.09652337 10.55350041 -3.23834045 11.19399804 -5.6875 13.1875 C-8 15 -8 15 -10.3125 14.75 C-10.869375 14.5025 -11.42625 14.255 -12 14 C-11.29875 13.62875 -10.5975 13.2575 -9.875 12.875 C-7.44164644 11.28803029 -5.79739542 9.87542571 -3.8125 7.8125 C-3.3484375 7.3484375 -3.3484375 7.3484375 -1 5 C-0.34 5 0.32 5 1 5 C0.67 3.35 0.34 1.7 0 0 Z " fill="#B78A09" transform="translate(39,38)" />
<path d="M0 0 C0 0.66 0 1.32 0 2 C-0.66 2 -1.32 2 -2 2 C-2.33 2.99 -2.66 3.98 -3 5 C-5.0625 6.6875 -5.0625 6.6875 -7 8 C-7.66 7.67 -8.32 7.34 -9 7 C-9 6.34 -9 5.68 -9 5 C-9.99 5 -10.98 5 -12 5 C-11.4375 3.0625 -11.4375 3.0625 -10 1 C-6.5881679 0.25560027 -3.48605314 0 0 0 Z " fill="#F9CD28" transform="translate(35,39)" />
<path d="M0 0 C1.65 0 3.3 0 5 0 C4.67 2.31 4.34 4.62 4 7 C1.00519083 7.8723412 -1.63575911 8.10829766 -4.75 8.0625 C-5.54921875 8.05347656 -6.3484375 8.04445313 -7.171875 8.03515625 C-7.77515625 8.02355469 -8.3784375 8.01195312 -9 8 C-9 7.67 -9 7.34 -9 7 C-6.36 6.67 -3.72 6.34 -1 6 C-0.67 4.02 -0.34 2.04 0 0 Z " fill="#E6D272" transform="translate(80,52)" />
<path d="M0 0 C0.639375 0.165 1.27875 0.33 1.9375 0.5 C5.97586652 1.15932515 9.91807258 1.08003779 14 1 C14 1.33 14 1.66 14 2 C12.88625 2.103125 11.7725 2.20625 10.625 2.3125 C9.42875 2.539375 8.2325 2.76625 7 3 C6.67 3.495 6.67 3.495 5 6 C5.99 6 6.98 6 8 6 C8 6.66 8 7.32 8 8 C8.66 8.33 9.32 8.66 10 9 C10.625 11.5625 10.625 11.5625 11 14 C10.01 13.67 9.02 13.34 8 13 C7.33333333 11 6.66666667 9 6 7 C5.01 6.67 4.02 6.34 3 6 C1.3125 2.9375 1.3125 2.9375 0 0 Z " fill="#F7D946" transform="translate(18,38)" />
<path d="M0 0 C2.27734375 0.05859375 2.27734375 0.05859375 4.9375 0.4375 C8.24351437 0.90004987 9.77606332 1.07464556 13 0 C13 1.32 13 2.64 13 4 C11.35 4.33 9.7 4.66 8 5 C8 4.34 8 3.68 8 3 C6.35 3 4.7 3 3 3 C3.33 3.99 3.66 4.98 4 6 C3.34 6 2.68 6 2 6 C2 5.34 2 4.68 2 4 C0.68 3.34 -0.64 2.68 -2 2 C-1.34 1.34 -0.68 0.68 0 0 Z " fill="#D9C25C" transform="translate(77,49)" />
<path d="M0 0 C1.32 0.33 2.64 0.66 4 1 C4 2.65 4 4.3 4 6 C1.36 6.33 -1.28 6.66 -4 7 C-4.33 5.35 -4.66 3.7 -5 2 C-3.68 2 -2.36 2 -1 2 C-0.67 1.34 -0.34 0.68 0 0 Z " fill="#F7D04B" transform="translate(75,52)" />
<path d="M0 0 C1.98 0 3.96 0 6 0 C5.505 0.66 5.505 0.66 3 4 C3.33 4.33 3.66 4.66 4 5 C4.23529412 10.52941176 4.23529412 10.52941176 3 13 C0.71484375 13.4140625 0.71484375 13.4140625 -2.0625 13.625 C-2.98160156 13.69976562 -3.90070312 13.77453125 -4.84765625 13.8515625 C-5.20279297 13.87605469 -5.20279297 13.87605469 -7 14 C-7 13.34 -7 12.68 -7 12 C-4.03 12 -1.06 12 2 12 C1.34 8.04 0.68 4.08 0 0 Z " fill="#E9C953" transform="translate(29,26)" />
<path d="M0 0 C0.99 1.32 1.98 2.64 3 4 C3.99 3.67 4.98 3.34 6 3 C6.33 2.34 6.66 1.68 7 1 C7.66 1.33 8.32 1.66 9 2 C9 2.99 9 3.98 9 5 C10.32 4.67 11.64 4.34 13 4 C12.67 4.99 12.34 5.98 12 7 C8.37 7 4.74 7 1 7 C0.67 4.69 0.34 2.38 0 0 Z " fill="#C5432B" transform="translate(47,39)" />
<path d="M0 0 C0 1.32 0 2.64 0 4 C0.99 4.33 1.98 4.66 3 5 C3 5.33 3 5.66 3 6 C1.35 6 -0.3 6 -2 6 C-2 5.34 -2 4.68 -2 4 C-3.32 4 -4.64 4 -6 4 C-6 3.34 -6 2.68 -6 2 C-6.66 2 -7.32 2 -8 2 C-8 2.66 -8 3.32 -8 4 C-8.99 3.67 -9.98 3.34 -11 3 C-7.83370093 -0.83288835 -4.68080329 -1.56026776 0 0 Z " fill="#EAB525" transform="translate(66,25)" />
<path d="M0 0 C5.85365854 5.46341463 5.85365854 5.46341463 6.1171875 10.03125 C6.12419438 12.02120443 6.0662954 14.01113785 6 16 C3.54176828 12.31265242 2.98757384 9.30300029 2 5 C0.68 5.33 -0.64 5.66 -2 6 C-1.34 4.02 -0.68 2.04 0 0 Z " fill="#D3C16C" transform="translate(82,31)" />
<path d="M0 0 C3.63 0 7.26 0 11 0 C7.26002289 2.80498283 4.87325955 3.90592482 0.5 5.25 C-0.6240625 5.60578125 -1.748125 5.9615625 -2.90625 6.328125 C-6 7 -6 7 -10 6 C-6.04 4.68 -2.08 3.36 2 2 C1.34 1.34 0.68 0.68 0 0 Z " fill="#A98A20" transform="translate(54,62)" />
<path d="M0 0 C5.2605802 0.25661367 7.5636182 2.08093579 11.25390625 5.5 C13.60645521 7.52098165 16.17371487 8.75919189 19 10 C17.2734375 10.66796875 17.2734375 10.66796875 15 11 C12.8515625 9.92578125 12.8515625 9.92578125 10.625 8.3125 C10.23505859 8.03535156 10.23505859 8.03535156 8.26171875 6.6328125 C7.88853516 6.36339844 7.88853516 6.36339844 6 5 C4.81612559 4.22360986 3.62922317 3.45178802 2.4375 2.6875 C1.633125 2.130625 0.82875 1.57375 0 1 C0 0.67 0 0.34 0 0 Z " fill="#534C32" transform="translate(20,57)" />
<path d="M0 0 C0.33 0 0.66 0 1 0 C1 1.65 1 3.3 1 5 C1.66 5 2.32 5 3 5 C3 5.66 3 6.32 3 7 C2.6184375 7.0721875 2.6184375 7.0721875 0.6875 7.4375 C-2 8 -2 8 -5 9 C-7 6 -7 6 -6.625 3.8125 C-6.41875 3.214375 -6.2125 2.61625 -6 2 C-6 2.66 -6 3.32 -6 4 C-4.68 4 -3.36 4 -2 4 C-2 3.34 -2 2.68 -2 2 C-1.34 2 -0.68 2 0 2 C0 1.34 0 0.68 0 0 Z " fill="#E3BC32" transform="translate(59,19)" />
<path d="M0 0 C-0.639375 0.28875 -1.27875 0.5775 -1.9375 0.875 C-4 2 -4 2 -5 4 C-7.31 4 -9.62 4 -12 4 C-11.34 3.67 -10.68 3.34 -10 3 C-10.33 2.01 -10.66 1.02 -11 0 C-6.53464227 -1.86921951 -4.33629181 -2.2956839 0 0 Z " fill="#EAB91C" transform="translate(80,42)" />
<path d="M0 0 C0.33 2.31 0.66 4.62 1 7 C-1.31 7 -3.62 7 -6 7 C-5.37162381 3.35541809 -4.14650034 0 0 0 Z " fill="#E0DAB6" transform="translate(28,30)" />
<path d="M0 0 C1 3 1 3 0.4375 5 C-1.62247872 7.86605735 -3.71126055 8.8160538 -7 10 C-9.375 9.1875 -9.375 9.1875 -11 8 C-11 7.01 -11 6.02 -11 5 C-9.35 4.67 -7.7 4.34 -6 4 C-6 4.66 -6 5.32 -6 6 C-3.37812506 4.95125002 -2.20628639 4.35068687 -0.75 1.875 C-0.5025 1.25625 -0.255 0.6375 0 0 Z " fill="#CCA019" transform="translate(81,30)" />
<path d="M0 0 C1 3 1 3 0 6 C-0.66 6 -1.32 6 -2 6 C-2 6.66 -2 7.32 -2 8 C-3.32 8 -4.64 8 -6 8 C-6.33 7.01 -6.66 6.02 -7 5 C-4.63707344 2.47411298 -3.33537489 1.11179163 0 0 Z " fill="#E5BD28" transform="translate(37,49)" />
<path d="M0 0 C0.33 0 0.66 0 1 0 C1.226875 1.093125 1.45375 2.18625 1.6875 3.3125 C3 7 3 7 5.125 8.875 C8.80575201 10.31529427 12.06300538 10.66635639 16 11 C16 11.33 16 11.66 16 12 C6.2996139 12.61158301 6.2996139 12.61158301 1.8125 10.5 C-0.82478967 6.86235908 -0.36866926 4.42403112 0 0 Z " fill="#F2C8A1" transform="translate(42,36)" />
<path d="M0 0 C3 1 3 1 5 4 C4.875 6.5625 4.875 6.5625 4 9 C1.9375 10.3125 1.9375 10.3125 0 11 C0 10.34 0 9.68 0 9 C0.66 9 1.32 9 2 9 C1.67 8.2575 1.34 7.515 1 6.75 C0 4 0 4 0 0 Z " fill="#DBCE96" transform="translate(20,46)" />
<path d="M0 0 C1.72880982 -0.05449838 3.45812712 -0.09301688 5.1875 -0.125 C6.15042969 -0.14820313 7.11335938 -0.17140625 8.10546875 -0.1953125 C11.37755561 0.02547609 14.59681294 0.59681294 17 3 C17.04063832 4.66617115 17.042721 6.33388095 17 8 C16.67 6.68 16.34 5.36 16 4 C10.72 3.01 5.44 2.02 0 1 C0 0.67 0 0.34 0 0 Z " fill="#8A1B0F" transform="translate(48,34)" />
<path d="M0 0 C3.3125 0.1875 3.3125 0.1875 7 1 C8.92171842 3.41764576 10 4.88467214 10 8 C7.03 7.01 4.06 6.02 1 5 C5 4 5 4 7 5 C7 4.34 7 3.68 7 3 C6.608125 2.938125 6.608125 2.938125 4.625 2.625 C2 2 2 2 0 0 Z " fill="#CAB977" transform="translate(34,61)" />
<path d="M0 0 C5.28137429 0.51525603 8.57221156 2.25477117 13 5 C13 5.66 13 6.32 13 7 C7.92990529 6.52467862 4.02506742 3.95637706 0 1 C0 0.67 0 0.34 0 0 Z " fill="#E8D59D" transform="translate(64,21)" />
<path d="M0 0 C0.66 0 1.32 0 2 0 C2.66 4.29 3.32 8.58 4 13 C3.34 13 2.68 13 2 13 C1.67 13.66 1.34 14.32 1 15 C1.020625 14.236875 1.04125 13.47375 1.0625 12.6875 C1 10 1 10 0 7 C-0.03954234 4.66700175 -0.04401732 2.33291811 0 0 Z " fill="#60562F" transform="translate(18,42)" />
<path d="M0 0 C0.66 0 1.32 0 2 0 C2.50615298 1.26839526 3.00469099 2.53983102 3.5 3.8125 C3.7784375 4.52019531 4.056875 5.22789063 4.34375 5.95703125 C5 8 5 8 5 11 C5.66 11 6.32 11 7 11 C6.34 12.32 5.68 13.64 5 15 C4.67 13.35 4.34 11.7 4 10 C3.34 10 2.68 10 2 10 C1.34 6.7 0.68 3.4 0 0 Z " fill="#EFD652" transform="translate(82,36)" />
<path d="M0 0 C2.97 0.33 5.94 0.66 9 1 C4.5 5 4.5 5 0 5 C0 3.35 0 1.7 0 0 Z " fill="#D8A50F" transform="translate(35,31)" />
<path d="M0 0 C2.31 0 4.62 0 7 0 C9.14285714 7.42857143 9.14285714 7.42857143 10 11 C7.5 8.75 7.5 8.75 5 6 C5 4.68 5 3.36 5 2 C3.35 1.67 1.7 1.34 0 1 C0 0.67 0 0.34 0 0 Z " fill="#655321" transform="translate(77,25)" />
<path d="M0 0 C0.268125 0.639375 0.53625 1.27875 0.8125 1.9375 C2 4 2 4 5 5 C5 4.34 5 3.68 5 3 C5.66 3 6.32 3 7 3 C7 3.66 7 4.32 7 5 C8.32 5 9.64 5 11 5 C10.67 5.99 10.34 6.98 10 8 C6.7 7.34 3.4 6.68 0 6 C0 4.02 0 2.04 0 0 Z " fill="#B88C18" transform="translate(53,24)" />
<path d="M0 0 C0.66 0 1.32 0 2 0 C2 0.66 2 1.32 2 2 C2.66 2 3.32 2 4 2 C4.33 3.32 4.66 4.64 5 6 C4.01 5.835 4.01 5.835 -1 5 C-0.67 3.35 -0.34 1.7 0 0 Z " fill="#F9D532" transform="translate(82,44)" />
<path d="M0 0 C1.65 0.33 3.3 0.66 5 1 C4.625 3.4375 4.625 3.4375 4 6 C3.67 6.165 3.67 6.165 2 7 C2 6.01 2 5.02 2 4 C0.68 4 -0.64 4 -2 4 C-2 3.34 -2 2.68 -2 2 C-1.34 2 -0.68 2 0 2 C0 1.34 0 0.68 0 0 Z " fill="#E5CD5A" transform="translate(77,26)" />
<path d="M0 0 C3.375 -0.125 3.375 -0.125 7 0 C7.66 0.66 8.32 1.32 9 2 C6.36 2.66 3.72 3.32 1 4 C0.67 2.68 0.34 1.36 0 0 Z " fill="#EECF3A" transform="translate(43,64)" />
<path d="M0 0 C0.33 0 0.66 0 1 0 C0.67 2.31 0.34 4.62 0 7 C-1.65 7.33 -3.3 7.66 -5 8 C-5 7.34 -5 6.68 -5 6 C-5.66 5.67 -6.32 5.34 -7 5 C-6.21625 4.731875 -5.4325 4.46375 -4.625 4.1875 C-2 3 -2 3 0 0 Z " fill="#EFBD3C" transform="translate(62,50)" />
<path d="M0 0 C-0.3125 1.9375 -0.3125 1.9375 -1 4 C-1.99 4.33 -2.98 4.66 -4 5 C-4.66 4.67 -5.32 4.34 -6 4 C-6 3.34 -6 2.68 -6 2 C-6.66 1.67 -7.32 1.34 -8 1 C-5.10765685 0.17361624 -3.11257569 0 0 0 Z " fill="#937023" transform="translate(61,50)" />
<path d="M0 0 C0.33 0.99 0.66 1.98 1 3 C-0.32 3.33 -1.64 3.66 -3 4 C-3 4.66 -3 5.32 -3 6 C-5.64 6.33 -8.28 6.66 -11 7 C-8.90163884 4.90163884 -6.97389739 3.78583001 -4.375 2.375 C-3.55773437 1.92898437 -2.74046875 1.48296875 -1.8984375 1.0234375 C-1.58519531 0.85457031 -1.58519531 0.85457031 0 0 Z " fill="#595239" transform="translate(77,62)" />
<path d="M0 0 C0.38865234 0.06960937 0.38865234 0.06960937 2.35546875 0.421875 C3.14566406 0.55078125 3.93585937 0.6796875 4.75 0.8125 C5.34167969 0.93109375 5.93335938 1.0496875 6.54296875 1.171875 C6.54296875 1.831875 6.54296875 2.491875 6.54296875 3.171875 C1.92296875 3.501875 -2.69703125 3.831875 -7.45703125 4.171875 C-2.45703125 0.171875 -2.45703125 0.171875 0 0 Z " fill="#D0C06C" transform="translate(51.45703125,16.828125)" />
<path d="M0 0 C2.31 0 4.62 0 7 0 C7 0.99 7 1.98 7 3 C5.02 3.33 3.04 3.66 1 4 C0.67 2.68 0.34 1.36 0 0 Z " fill="#EAA810" transform="translate(47,54)" />
<path d="M0 0 C0.66 0 1.32 0 2 0 C1.67 0.99 1.34 1.98 1 3 C0.01 3.33 -0.98 3.66 -2 4 C-2 4.66 -2 5.32 -2 6 C-3.32 6 -4.64 6 -6 6 C-6 5.01 -6 4.02 -6 3 C-4.35 3 -2.7 3 -1 3 C-0.67 2.01 -0.34 1.02 0 0 Z " fill="#EED675" transform="translate(59,17)" />
<path d="M0 0 C0.99 0 1.98 0 3 0 C2.67 1.65 2.34 3.3 2 5 C-0.97 4.67 -3.94 4.34 -7 4 C-4 2 -4 2 -1.8125 2.375 C-1.214375 2.58125 -0.61625 2.7875 0 3 C0 2.01 0 1.02 0 0 Z " fill="#EBBC2B" transform="translate(50,60)" />
<path d="M0 0 C2.31 0 4.62 0 7 0 C7 0.99 7 1.98 7 3 C4.36 3 1.72 3 -1 3 C-0.67 2.01 -0.34 1.02 0 0 Z " fill="#F9CD32" transform="translate(64,56)" />
<path d="M0 0 C3.63 1.32 7.26 2.64 11 4 C8.00468461 4.99843846 6.82744268 5.00732761 3.8125 4.5625 C2.554375 4.376875 1.29625 4.19125 0 4 C0 2.68 0 1.36 0 0 Z " fill="#DEAE26" transform="translate(46,50)" />
<path d="M0 0 C0.66 0 1.32 0 2 0 C2.33 1.65 2.66 3.3 3 5 C-0.75 8 -0.75 8 -3 8 C-2.67 7.01 -2.34 6.02 -2 5 C-1.34 5 -0.68 5 0 5 C0 3.35 0 1.7 0 0 Z " fill="#916402" transform="translate(69,36)" />
<path d="M0 0 C0.66 0 1.32 0 2 0 C2.33 2.64 2.66 5.28 3 8 C1.68 8 0.36 8 -1 8 C-1 7.01 -1 6.02 -1 5 C-0.34 5 0.32 5 1 5 C0.67 3.35 0.34 1.7 0 0 Z " fill="#886A10" transform="translate(39,38)" />
<path d="M0 0 C0 0.66 0 1.32 0 2 C-1.65 2.66 -3.3 3.32 -5 4 C-4.34 4.66 -3.68 5.32 -3 6 C-3.99 5.835 -3.99 5.835 -9 5 C-6.6475912 1.47138681 -4.32053307 0 0 0 Z " fill="#FCDC5C" transform="translate(42,24)" />
<path d="M0 0 C5.53846154 0.49230769 5.53846154 0.49230769 7.875 3.0625 C8.060625 3.3821875 8.060625 3.3821875 9 5 C4.98525763 5 3.18024863 3.33218233 0 1 C0 0.67 0 0.34 0 0 Z " fill="#645A28" transform="translate(20,57)" />
<path d="M0 0 C0.0825 0.61875 0.165 1.2375 0.25 1.875 C1 4 1 4 3.0625 5.25 C3.701875 5.4975 4.34125 5.745 5 6 C2.125 6.125 2.125 6.125 -1 6 C-1.66 5.34 -2.32 4.68 -3 4 C-2.01 2.68 -1.02 1.36 0 0 Z " fill="#EEDA65" transform="translate(25,52)" />
<path d="M0 0 C0.66 0.66 1.32 1.32 2 2 C-1.61328125 6.6875 -1.61328125 6.6875 -3 8 C-3.99 8 -4.98 8 -6 8 C-6 6 -6 6 -3.5625 3.4375 C-2.716875 2.633125 -1.87125 1.82875 -1 1 C-0.67 0.67 -0.34 0.34 0 0 Z " fill="#AA8843" transform="translate(65,43)" />
<path d="M0 0 C0.66 0.99 1.32 1.98 2 3 C-2.61073111 4.29676812 -6.33840089 3.71109139 -11 3 C-11 2.67 -11 2.34 -11 2 C-10.68675781 1.96970703 -10.68675781 1.96970703 -9.1015625 1.81640625 C-8.69292969 1.77451172 -8.69292969 1.77451172 -6.625 1.5625 C-5.81289063 1.48128906 -5.00078125 1.40007813 -4.1640625 1.31640625 C-2 1 -2 1 0 0 Z " fill="#DEA17A" transform="translate(61,44)" />
<path d="M0 0 C0.598125 0.350625 1.19625 0.70125 1.8125 1.0625 C1.4825 1.5575 1.4825 1.5575 -0.1875 4.0625 C-1.8375 3.7325 -3.4875 3.4025 -5.1875 3.0625 C-5.1875 2.0725 -5.1875 1.0825 -5.1875 0.0625 C-2.1875 -0.9375 -2.1875 -0.9375 0 0 Z " fill="#F1B91F" transform="translate(74.1875,31.9375)" />
<path d="M0 0 C1.65 0 3.3 0 5 0 C5 0.66 5 1.32 5 2 C5.66 2 6.32 2 7 2 C7 2.66 7 3.32 7 4 C6.01 3.835 6.01 3.835 1 3 C0.67 2.01 0.34 1.02 0 0 Z " fill="#EFB93A" transform="translate(65,26)" />
<path d="M0 0 C2.12508244 3.18762365 2.5020163 5.26512223 3 9 C2.01 9 1.02 9 0 9 C-0.84454356 5.62182575 -1.10844919 3.32534757 0 0 Z " fill="#EAB327" transform="translate(43,49)" />
<path d="M0 0 C0.99 0.33 1.98 0.66 3 1 C3 2.32 3 3.64 3 5 C3.99 5.33 4.98 5.66 6 6 C6 6.33 6 6.66 6 7 C4.35 7 2.7 7 1 7 C0.67 4.69 0.34 2.38 0 0 Z " fill="#E4AD22" transform="translate(63,24)" />
<path d="M0 0 C1.98 0 3.96 0 6 0 C5.7628125 0.1959375 5.7628125 0.1959375 4.5625 1.1875 C2.64820367 3.40808374 2.38733012 5.13375709 2 8 C1.67 8 1.34 8 1 8 C0.67 5.36 0.34 2.72 0 0 Z " fill="#F0D25A" transform="translate(29,26)" />
<path d="M0 0 C0.37125 0.061875 0.37125 0.061875 2.25 0.375 C1.59 0.705 1.59 0.705 -1.75 2.375 C-1.75 3.695 -1.75 5.015 -1.75 6.375 C-3.4 6.375 -5.05 6.375 -6.75 6.375 C-3.42692308 0.46730769 -3.42692308 0.46730769 0 0 Z " fill="#766A48" transform="translate(27.75,21.625)" />
</svg>