<?xml version='1.0' encoding='utf-8'?>
<svg xmlns="http://www.w3.org/2000/svg" version="1.1" width="95" height="98">
<path d="M0 0 C0.99 0.66 1.98 1.32 3 2 C2.67 2.99 2.34 3.98 2 5 C1.030625 5.309375 0.06125 5.61875 -0.9375 5.9375 C-4 7 -4 7 -5.125 9 C-5.269375 9.33 -5.269375 9.33 -6 11 C-8.125 12.25 -8.125 12.25 -10 13 C-10 13.99 -10 14.98 -10 16 C-11.94140625 17.54296875 -11.94140625 17.54296875 -14.5625 19.1875 C-18.93050663 22.09744501 -22.17018357 25.10827082 -25.4296875 29.203125 C-27.13144059 31.15040465 -28.83923459 32.58281783 -31 34 C-31.66 34 -32.32 34 -33 34 C-31.46395304 37.14191424 -29.94268841 40.08596738 -28 43 C-27.7389212 46.02329256 -27.91184819 48.95876242 -28 52 C-31.3 52.66 -34.6 53.32 -38 54 C-37.67 54.66 -37.34 55.32 -37 56 C-28.66434449 56.49113519 -22.03437757 55.6437622 -14.140625 52.96484375 C-6.82091264 50.71612615 -0.18248018 50.2866186 7 53 C7 53.33 7 53.66 7 54 C6.39414063 53.97679687 5.78828125 53.95359375 5.1640625 53.9296875 C-3.97197783 53.73291125 -11.71423789 55.18854943 -20 59 C-25.76509359 60.78414475 -32.54124945 61.10392882 -38.0625 58.625 C-40.93071772 56.21939804 -41.90528428 55.36533208 -42.875 51.625 C-44.0502854 47.83796926 -45.13488712 46.58784389 -48 44 C-49.21509609 40.35471172 -49.39306796 37.83241261 -49 34 C-46.875 31.15625 -46.875 31.15625 -44 28.5 C-43.49307617 28.02425537 -42.98615234 27.54851074 -42.46386719 27.05834961 C-40.99280939 25.68721008 -39.4969358 24.34283947 -38 23 C-37.34515625 22.39285156 -36.6903125 21.78570312 -36.015625 21.16015625 C-31.66422178 17.22271396 -27.05970101 13.56701343 -22.5 9.875 C-21.88286133 9.37170166 -21.26572266 8.86840332 -20.62988281 8.34985352 C-7.47707803 -2.1991406 -7.47707803 -2.1991406 0 0 Z " fill="#E66B5B" transform="translate(69,20)" />
<path d="M0 0 C2.75 1.25 2.75 1.25 5 3 C5.763125 3.515625 6.52625 4.03125 7.3125 4.5625 C9.59346523 7.85722756 9.7965964 10.3086516 9.65625 14.2734375 C8.38742275 19.54511262 4.53666588 23.06050925 1 27 C0.649375 27.5465625 0.649375 27.5465625 -1.125 30.3125 C-2.95079612 32.92947444 -4.87451473 34.639187 -7.37109375 36.59765625 C-9.90219166 38.77670697 -11.96217444 41.32979751 -14.12890625 43.86328125 C-17.22976403 47.40434431 -20.43610977 50.91948799 -24 54 C-24.66 54 -25.32 54 -26 54 C-26 54.99 -26 55.98 -26 57 C-24.02 57 -22.04 57 -20 57 C-23.63195496 59.42130331 -25.38349348 59.21022785 -29.6875 59.125 C-30.86699219 59.10695312 -32.04648437 59.08890625 -33.26171875 59.0703125 C-33.71353516 59.05871094 -33.71353516 59.05871094 -36 59 C-36.66 57.68 -37.32 56.36 -38 55 C-36.185 54.835 -36.185 54.835 -27 54 C-27.38765428 47.60370446 -28.11979526 44.25705159 -32 39 C-32 38.01 -32 37.02 -32 36 C-30.49609375 34.67578125 -30.49609375 34.67578125 -28.4375 33.3125 C-25.29143295 31.08750373 -22.84013368 28.83646932 -20.375 25.875 C-17.51704621 22.46115131 -14.88835966 20.17024725 -11 18 C-10.34 18 -9.68 18 -9 18 C-9 17.01 -9 16.02 -9 15 C-6.6875 13 -6.6875 13 -4 11 C-3.484375 10.46375 -2.96875 9.9275 -2.4375 9.375 C-0.77453673 7.78433948 0.91031534 6.93675519 3 6 C3 5.34 3 4.68 3 4 C0.33580501 2.1883474 -1.02100593 2.00122099 -4.29296875 2.19140625 C-8.42634399 3.092996 -10.4600746 4.38260079 -13.75 7 C-14.26457764 7.40516846 -14.77915527 7.81033691 -15.30932617 8.2277832 C-16.88277133 9.47279429 -18.4415159 10.73631112 -20 12 C-20.88816406 12.69480469 -21.77632812 13.38960937 -22.69140625 14.10546875 C-31.21192553 20.87363086 -39.30388383 28.30388383 -47 36 C-47.38609317 41.01921124 -47.01858666 43.93651796 -44 48 C-43.34 48.66 -42.68 49.32 -42 50 C-42.33 50.99 -42.66 51.98 -43 53 C-46.93347424 48.46137587 -49.13577775 45.70667008 -49.1875 39.5 C-49.20167969 38.7265625 -49.21585938 37.953125 -49.23046875 37.15625 C-49 35 -49 35 -47 32 C-46.34 32 -45.68 32 -45 32 C-45 31.34 -45 30.68 -45 30 C-43.63671875 28.58984375 -43.63671875 28.58984375 -41.6875 26.9375 C-40.965625 26.32261719 -40.24375 25.70773438 -39.5 25.07421875 C-35.82791594 22.0275365 -32.13151904 19.01160633 -28.41796875 16.015625 C-25.80913995 13.84089857 -23.52231383 11.57827602 -21.25 9.0625 C-18.85803111 6.86986185 -16.49675982 5.4706506 -13.65234375 3.94921875 C-12 3 -12 3 -10.0625 1.25 C-6.84815832 -0.69808587 -3.60658058 -0.53270851 0 0 Z " fill="#682120" transform="translate(68,18)" />
<path d="M0 0 C0.66 0.33 1.32 0.66 2 1 C1.67532773 6.35709247 -1.47425486 9.29884465 -5 13 C-5.515625 13.55429687 -6.03125 14.10859375 -6.5625 14.6796875 C-8 16 -8 16 -10.125 16.5 C-10.434375 16.5825 -10.434375 16.5825 -12 17 C-12.33 17.99 -12.66 18.98 -13 20 C-14.5234375 21.53515625 -14.5234375 21.53515625 -16.375 23.0625 C-16.98085938 23.56910156 -17.58671875 24.07570313 -18.2109375 24.59765625 C-19.75210931 25.80569267 -21.37067587 26.91378391 -23 28 C-23.1134375 28.3815625 -23.1134375 28.3815625 -23.6875 30.3125 C-25.66837441 34.36857618 -29.13108506 35.885593 -33 38 C-36 34.375 -36 34.375 -36 31 C-34.49609375 29.67578125 -34.49609375 29.67578125 -32.4375 28.3125 C-29.29143295 26.08750373 -26.84013368 23.83646932 -24.375 20.875 C-21.51704621 17.46115131 -18.88835966 15.17024725 -15 13 C-14.34 13 -13.68 13 -13 13 C-13 12.01 -13 11.02 -13 10 C-10.6875 8 -10.6875 8 -8 6 C-7.505 5.484375 -7.01 4.96875 -6.5 4.4375 C-4.512867 2.53316421 -2.44406856 1.25336849 0 0 Z " fill="#A30E04" transform="translate(72,23)" />
<path d="M0 0 C0.33 0 0.66 0 1 0 C1.73057068 4.67565237 -0.13805037 7.38509871 -2.625 11.13671875 C-4.23066428 13.31257631 -6.02036115 15.16176392 -8 17 C-8.33 17.66 -8.66 18.32 -9 19 C-9.66 19 -10.32 19 -11 19 C-11 19.99 -11 20.98 -11 22 C-11.66 22 -12.32 22 -13 22 C-13 22.66 -13 23.32 -13 24 C-13.66 24 -14.32 24 -15 24 C-15.33 24.99 -15.66 25.98 -16 27 C-17.6459651 28.68711423 -19.31237149 30.3545622 -21 32 C-21.33 32.66 -21.66 33.32 -22 34 C-22.99 34 -23.98 34 -25 34 C-25.226875 34.556875 -25.45375 35.11375 -25.6875 35.6875 C-27.35896766 38.63246684 -29.55276352 40.68156544 -32 43 C-32.66 40.03 -33.32 37.06 -34 34 C-29.25 30 -29.25 30 -27 30 C-26.773125 29.05125 -26.54625 28.1025 -26.3125 27.125 C-25 24 -25 24 -22.5 22.875 C-21.675 22.58625 -20.85 22.2975 -20 22 C-19.31513275 20.67592331 -18.65129797 19.34090759 -18 18 C-12.85423729 13.18983051 -12.85423729 13.18983051 -9.75 12.5 C-9.1725 12.335 -8.595 12.17 -8 12 C-7.31867549 10.33927151 -6.65257873 8.672233 -6 7 C-4.66666667 6.33333333 -3.33333333 5.66666667 -2 5 C-0.75 2.375 -0.75 2.375 0 0 Z " fill="#840301" transform="translate(74,26)" />
<path d="M0 0 C-0.33 1.65 -0.66 3.3 -1 5 C-1.969375 5.01417969 -2.93875 5.02835938 -3.9375 5.04296875 C-11.51826712 5.27297818 -18.24135584 6.09218186 -25.4375 8.5625 C-32.62608727 11.012271 -38.51812146 12.5358153 -45.875 9.6875 C-48.45960486 8.29181338 -50.17472922 7.25474625 -52 5 C-51.67 4.01 -51.34 3.02 -51 2 C-50.7009375 2.4021875 -50.7009375 2.4021875 -49.1875 4.4375 C-46.7248505 7.32231799 -45.37848769 7.88072985 -41.65234375 8.203125 C-34.88488134 8.31997327 -29.35037293 7.28882699 -23 5 C-16.64236341 2.75612826 -10.75291929 1.83529465 -4 2 C-10.92120753 0.8836762 -16.21976031 1.39385185 -23 3 C-24.99810662 3.34450114 -26.99722415 3.68377223 -29 4 C-28.8125 2.125 -28.8125 2.125 -28 0 C-19.06439102 -5.14474456 -9.34920011 -2.15469846 0 0 Z " fill="#604719" transform="translate(78,71)" />
<path d="M0 0 C-0.57584432 2.38564077 -1.22227595 4.66682784 -2 7 C-0.35 7.33 1.3 7.66 3 8 C3 8.66 3 9.32 3 10 C2.34 10 1.68 10 1 10 C1 10.66 1 11.32 1 12 C-0.32 12.33 -1.64 12.66 -3 13 C-2.67 13.66 -2.34 14.32 -2 15 C6.33565551 15.49113519 12.96562243 14.6437622 20.859375 11.96484375 C28.17908736 9.71612615 34.81751982 9.2866186 42 12 C42 12.33 42 12.66 42 13 C41.39414063 12.97679688 40.78828125 12.95359375 40.1640625 12.9296875 C31.02802217 12.73291125 23.28576211 14.18854943 15 18 C9.23710915 19.78346306 2.49305533 20.06845228 -3.0625 17.6875 C-5 16 -5 16 -7 13 C-6.34 13 -5.68 13 -5 13 C-5 9.04 -5 5.08 -5 1 C-2 0 -2 0 0 0 Z " fill="#B28E58" transform="translate(34,61)" />
<path d="M0 0 C2.75 1.25 2.75 1.25 5 3 C5.763125 3.5775 6.52625 4.155 7.3125 4.75 C9 7 9 7 9.5 10.5 C8.9270114 14.51092018 8.06256211 15.49426736 5 18 C4.67 18.66 4.34 19.32 4 20 C3.34 19.67 2.68 19.34 2 19 C2.3403125 18.5771875 2.3403125 18.5771875 4.0625 16.4375 C6 13 6 13 6.125 9.375 C5 6 5 6 2.375 3.5 C-1.77191249 1.65692778 -3.61681969 1.98633089 -8 3 C-10.921875 4.75 -10.921875 4.75 -13.75 7 C-14.26457764 7.40516846 -14.77915527 7.81033691 -15.30932617 8.2277832 C-16.88277133 9.47279429 -18.4415159 10.73631112 -20 12 C-20.88816406 12.69480469 -21.77632812 13.38960937 -22.69140625 14.10546875 C-31.21192553 20.87363086 -39.30388383 28.30388383 -47 36 C-47.38609317 41.01921124 -47.01858666 43.93651796 -44 48 C-43.34 48.66 -42.68 49.32 -42 50 C-42.33 50.99 -42.66 51.98 -43 53 C-46.93347424 48.46137587 -49.13577775 45.70667008 -49.1875 39.5 C-49.20167969 38.7265625 -49.21585938 37.953125 -49.23046875 37.15625 C-49 35 -49 35 -47 32 C-46.34 32 -45.68 32 -45 32 C-45 31.34 -45 30.68 -45 30 C-43.63671875 28.58984375 -43.63671875 28.58984375 -41.6875 26.9375 C-40.965625 26.32261719 -40.24375 25.70773438 -39.5 25.07421875 C-35.82791594 22.0275365 -32.13151904 19.01160633 -28.41796875 16.015625 C-25.80913995 13.84089857 -23.52231383 11.57827602 -21.25 9.0625 C-18.85803111 6.86986185 -16.49675982 5.4706506 -13.65234375 3.94921875 C-12 3 -12 3 -10.0625 1.25 C-6.84815832 -0.69808587 -3.60658058 -0.53270851 0 0 Z " fill="#671C0E" transform="translate(68,18)" />
<path d="M0 0 C0.33 0.99 0.66 1.98 1 3 C-0.28062485 4.7074998 -1.61767557 6.37373596 -3 8 C-3.33 8.99 -3.66 9.98 -4 11 C-5.34765625 12.39453125 -5.34765625 12.39453125 -7.0625 13.8125 C-7.69027344 14.33199219 -8.31804688 14.85148437 -8.96484375 15.38671875 C-12.25693085 17.99637705 -15.62599302 20.49784777 -19 23 C-22.02846607 25.30426766 -23.8824094 26.8236141 -26 30 C-26.99 30 -27.98 30 -29 30 C-29.33 30.99 -29.66 31.98 -30 33 C-30.33 31.35 -30.66 29.7 -31 28 C-30.50371094 27.6596875 -30.00742187 27.319375 -29.49609375 26.96875 C-25.65887022 24.23099659 -22.40743806 21.49764412 -19.375 17.875 C-16.51704621 14.46115131 -13.88835966 12.17024725 -10 10 C-9.34 10 -8.68 10 -8 10 C-8 9.01 -8 8.02 -8 7 C-5.6875 5 -5.6875 5 -3 3 C-1.9826127 2.01769502 -0.97403883 1.02530403 0 0 Z " fill="#D13E2F" transform="translate(67,26)" />
<path d="M0 0 C2.6875 -0.3125 2.6875 -0.3125 6 0 C8.9271127 2.46143568 10.88082786 4.82124178 13 8 C13.125 10.6875 13.125 10.6875 13 13 C10.69 13 8.38 13 6 13 C5.67 11.68 5.34 10.36 5 9 C5.66 8.67 6.32 8.34 7 8 C7.33 7.01 7.66 6.02 8 5 C6.046875 5.6484375 6.046875 5.6484375 4 7 C3.390625 9.6015625 3.390625 9.6015625 3.25 12.625 C3.19328125 13.62789062 3.1365625 14.63078125 3.078125 15.6640625 C3.05234375 16.43492188 3.0265625 17.20578125 3 18 C2.34 18 1.68 18 1 18 C0.34 15.69 -0.32 13.38 -1 11 C-0.34 11 0.32 11 1 11 C0.84402344 10.37351562 0.68804688 9.74703125 0.52734375 9.1015625 C0.33269531 8.28429687 0.13804688 7.46703125 -0.0625 6.625 C-0.16111328 6.21894531 -0.16111328 6.21894531 -0.66015625 4.1640625 C-1 2 -1 2 0 0 Z " fill="#E4B598" transform="translate(26,56)" />
<path d="M0 0 C0.99 0.66 1.98 1.32 3 2 C2.67 2.99 2.34 3.98 2 5 C1.01 5.33 0.02 5.66 -1 6 C-1.66 5.01 -2.32 4.02 -3 3 C-6.125 2.8125 -6.125 2.8125 -9 3 C-9 3.66 -9 4.32 -9 5 C-10.98600337 6.3540932 -12.98817543 7.68457624 -15 9 C-15.70125 9.721875 -16.4025 10.44375 -17.125 11.1875 C-19.12290524 13.1188084 -20.28952231 13.6127889 -23 14 C-23 14.66 -23 15.32 -23 16 C-28.625 18 -28.625 18 -32 18 C-9.18768001 -1.77306106 -9.18768001 -1.77306106 0 0 Z " fill="#D44C42" transform="translate(69,20)" />
<path d="M0 0 C0.66 0.33 1.32 0.66 2 1 C1.33613281 1.44730469 0.67226563 1.89460938 -0.01171875 2.35546875 C-8.10891072 7.89938559 -8.10891072 7.89938559 -10.9375 10.9375 C-11.618125 11.618125 -12.29875 12.29875 -13 13 C-13.99 13 -14.98 13 -16 13 C-16.66 14.65 -17.32 16.3 -18 18 C-19.32 18.165 -19.32 18.165 -26 19 C-21.1363151 13.01525298 -16.05065286 7.43493345 -9 4 C-6.1875 3.8125 -6.1875 3.8125 -4 4 C-4 3.34 -4 2.68 -4 2 C-2.125 0.9375 -2.125 0.9375 0 0 Z " fill="#E0534A" transform="translate(50,32)" />
<path d="M0 0 C0.66 0.66 1.32 1.32 2 2 C1.625 4.125 1.625 4.125 1 6 C0.34 6 -0.32 6 -1 6 C-1.2475 6.61875 -1.495 7.2375 -1.75 7.875 C-3.20628639 10.35068687 -4.37812506 10.95125002 -7 12 C-7 12.99 -7 13.98 -7 15 C-9.31 16.32 -11.62 17.64 -14 19 C-14 18.34 -14 17.68 -14 17 C-13.01 16.34 -12.02 15.68 -11 15 C-10.67 14.01 -10.34 13.02 -10 12 C-7.9375 11.3125 -7.9375 11.3125 -6 11 C-5.855625 10.38125 -5.71125 9.7625 -5.5625 9.125 C-5 7 -5 7 -4 5 C-6.97 6.65 -9.94 8.3 -13 10 C-11 6 -11 6 -8.375 4.75 C-7.59125 4.5025 -6.8075 4.255 -6 4 C-6 3.34 -6 2.68 -6 2 C-4.02 1.34 -2.04 0.68 0 0 Z " fill="#DF5A4D" transform="translate(66,21)" />
<path d="M0 0 C1.91015625 0.23046875 1.91015625 0.23046875 3.91015625 2.23046875 C1.93015625 2.23046875 -0.04984375 2.23046875 -2.08984375 2.23046875 C-1.75984375 3.46796875 -1.42984375 4.70546875 -1.08984375 5.98046875 C-0.29093216 8.9763872 -0.08984375 11.03154594 -0.08984375 14.23046875 C-3.02736629 13.92658711 -3.93065268 13.42377219 -5.83984375 11.10546875 C-7.35810427 7.61346956 -7.37991898 5.00144676 -7.08984375 1.23046875 C-5.19495423 -0.66442077 -2.51845229 0.05027763 0 0 Z " fill="#CF665C" transform="translate(27.08984375,52.76953125)" />
<path d="M0 0 C6.75 0.75 6.75 0.75 9 3 C9 3.99 9 4.98 9 6 C9.61875 6.268125 10.2375 6.53625 10.875 6.8125 C13 8 13 8 15 11 C15.1953125 13.26171875 15.1953125 13.26171875 15.125 15.6875 C15.10695313 16.49574219 15.08890625 17.30398437 15.0703125 18.13671875 C15.04710938 18.75160156 15.02390625 19.36648437 15 20 C13.02 20.33 11.04 20.66 9 21 C9 20.34 9 19.68 9 19 C9.66 19 10.32 19 11 19 C11 18.34 11 17.68 11 17 C11.66 17 12.32 17 13 17 C10.20930233 7.13953488 10.20930233 7.13953488 8.3125 5.875 C5.56643135 4.835947 2.90312428 4.39588058 0 4 C-0.33 4.66 -0.66 5.32 -1 6 C-1 5.01 -1 4.02 -1 3 C0.32 2.67 1.64 2.34 3 2 C2.01 1.34 1.02 0.68 0 0 Z " fill="#D36D60" transform="translate(26,52)" />
<path d="M0 0 C0.33 1.32 0.66 2.64 1 4 C1.99 4 2.98 4 4 4 C3.67 4.99 3.34 5.98 3 7 C2.34 7 1.68 7 1 7 C1 7.99 1 8.98 1 10 C2.98 10 4.96 10 7 10 C3.36804504 12.42130331 1.61650652 12.21022785 -2.6875 12.125 C-3.27724609 12.11597656 -3.27724609 12.11597656 -6.26171875 12.0703125 C-7.16535156 12.04710938 -8.06898437 12.02390625 -9 12 C-9.66 10.68 -10.32 9.36 -11 8 C-9.185 7.835 -9.185 7.835 0 7 C0 4.69 0 2.38 0 0 Z " fill="#6F2311" transform="translate(41,65)" />
<path d="M0 0 C0.66 0.33 1.32 0.66 2 1 C-0.111492 4.85893365 -1.90118206 7.90118206 -5 11 C-6.1875 13.6875 -6.1875 13.6875 -7 16 C-7.66 16 -8.32 16 -9 16 C-9.33 16.66 -9.66 17.32 -10 18 C-12 15 -12 15 -11.875 13 C-10.74467946 10.4164102 -9.38824276 9.44741985 -7 8 C-6.34 8 -5.68 8 -5 8 C-4.8659375 7.525625 -4.8659375 7.525625 -4.1875 5.125 C-3 2 -3 2 0 0 Z " fill="#900702" transform="translate(52,48)" />
<path d="M0 0 C0.33 0.99 0.66 1.98 1 3 C-0.28062485 4.7074998 -1.61767557 6.37373596 -3 8 C-3.33 8.99 -3.66 9.98 -4 11 C-5.48828125 12.53515625 -5.48828125 12.53515625 -7.3125 14.0625 C-7.90675781 14.56910156 -8.50101563 15.07570313 -9.11328125 15.59765625 C-10.99978913 16.99984327 -12.86961516 18.01710721 -15 19 C-13.7580393 15.56072421 -12.44259716 12.74792181 -10 10 C-9.34 10 -8.68 10 -8 10 C-8 9.01 -8 8.02 -8 7 C-5.6875 5 -5.6875 5 -3 3 C-1.9826127 2.01769502 -0.97403883 1.02530403 0 0 Z " fill="#C22818" transform="translate(67,26)" />
<path d="M0 0 C0.33 1.32 0.66 2.64 1 4 C0.01 4.66 -0.98 5.32 -2 6 C-2.226875 6.763125 -2.45375 7.52625 -2.6875 8.3125 C-4.66837441 12.36857618 -8.13108506 13.885593 -12 16 C-12.33 14.35 -12.66 12.7 -13 11 C-12.01 10.67 -11.02 10.34 -10 10 C-8.28891311 8.37897032 -6.62746694 6.70496537 -5 5 C-3.33333333 3.33333333 -1.66666667 1.66666667 0 0 Z " fill="#BB2213" transform="translate(51,45)" />
<path d="M0 0 C-2.91553848 2.458726 -5.12617566 3.48267807 -8.875 4.125 C-9.31070313 4.20234375 -9.31070313 4.20234375 -11.515625 4.59375 C-11.92554688 4.66078125 -11.92554688 4.66078125 -14 5 C-15.19625 5.20625 -16.3925 5.4125 -17.625 5.625 C-18.40875 5.74875 -19.1925 5.8725 -20 6 C-19.8125 4.125 -19.8125 4.125 -19 2 C-13.21852924 -1.32872559 -6.34541997 -1.42771949 0 0 Z " fill="#6A542A" transform="translate(69,69)" />
<path d="M0 0 C0.66 0.33 1.32 0.66 2 1 C1.34 2.65 0.68 4.3 0 6 C-0.66 6 -1.32 6 -2 6 C-2 6.99 -2 7.98 -2 9 C-2.66 9 -3.32 9 -4 9 C-4 9.66 -4 10.32 -4 11 C-4.66 11 -5.32 11 -6 11 C-6.33 11.99 -6.66 12.98 -7 14 C-9.0625 15.1875 -9.0625 15.1875 -11 16 C-11 15.01 -11 14.02 -11 13 C-10.34 13 -9.68 13 -9 13 C-8.938125 12.278125 -8.87625 11.55625 -8.8125 10.8125 C-7.74416929 7.11443214 -5.82491139 5.55587221 -3 3 C-2.401875 2.401875 -1.80375 1.80375 -1.1875 1.1875 C-0.795625 0.795625 -0.40375 0.40375 0 0 Z " fill="#7A0709" transform="translate(65,39)" />
<path d="M0 0 C1.32 0.33 2.64 0.66 4 1 C6.78287462 11.83180428 6.78287462 11.83180428 4 17 C3.01 17.33 2.02 17.66 1 18 C-0.38671875 19.41015625 -0.38671875 19.41015625 -1.6875 21.0625 C-2.0690625 21.5471875 -2.0690625 21.5471875 -4 24 C-4 20.38307469 -3.33820072 20.0300883 -1 17.4375 C2.2217865 13.33428134 2.5993248 10.32374582 2.40625 5.19921875 C2 3 2 3 0 0 Z " fill="#7C5C4E" transform="translate(74,22)" />
<path d="M0 0 C-0.57584432 2.38564077 -1.22227595 4.66682784 -2 7 C-0.35 7.33 1.3 7.66 3 8 C3 8.66 3 9.32 3 10 C2.34 10 1.68 10 1 10 C1 10.66 1 11.32 1 12 C-0.98 12.33 -2.96 12.66 -5 13 C-5 9.04 -5 5.08 -5 1 C-2 0 -2 0 0 0 Z " fill="#8B6634" transform="translate(34,61)" />
<path d="M0 0 C0.99 0.66 1.98 1.32 3 2 C2.67 2.99 2.34 3.98 2 5 C1.01 5.33 0.02 5.66 -1 6 C-1.66 5.01 -2.32 4.02 -3 3 C-4.99956611 2.95834237 -7.00043389 2.95834237 -9 3 C-9.66 2.34 -10.32 1.68 -11 1 C-7.22301161 -1.56835211 -4.3286606 -0.94443504 0 0 Z " fill="#C64E42" transform="translate(69,20)" />
<path d="M0 0 C0.66 0.33 1.32 0.66 2 1 C1.66226563 1.22945312 1.66226563 1.22945312 -0.046875 2.390625 C-0.93890625 3.00421875 -1.8309375 3.6178125 -2.75 4.25 C-3.63171875 4.85328125 -4.5134375 5.4565625 -5.421875 6.078125 C-7.85433494 7.89141332 -9.91728069 9.80049269 -12 12 C-12.75 10.25 -12.75 10.25 -13 8 C-11.375 5.75 -11.375 5.75 -9 4 C-6.25 3.75 -6.25 3.75 -4 4 C-4 3.34 -4 2.68 -4 2 C-2.125 0.9375 -2.125 0.9375 0 0 Z " fill="#E5594E" transform="translate(50,32)" />
<path d="M0 0 C0.66 0.33 1.32 0.66 2 1 C0.56974806 2.65213589 -0.86945545 4.29652589 -2.3125 5.9375 C-3.11300781 6.85402344 -3.91351563 7.77054688 -4.73828125 8.71484375 C-7 11 -7 11 -10 12 C-8.36318926 7.22596867 -6.18592643 3.41442298 -1.875 0.625 C-1.25625 0.41875 -0.6375 0.2125 0 0 Z " fill="#DE5A4D" transform="translate(48,41)" />
<path d="M0 0 C0.66 0.66 1.32 1.32 2 2 C1.34773438 1.98839844 0.69546875 1.97679688 0.0234375 1.96484375 C-4.7761914 1.91529006 -9.27784685 2.00586249 -14 3 C-14 2.34 -14 1.68 -14 1 C-14.66 0.67 -15.32 0.34 -16 0 C-10.57209212 -1.03938662 -5.42832209 -1.27139927 0 0 Z " fill="#A28146" transform="translate(74,72)" />
<path d="M0 0 C0.99 0.33 1.98 0.66 3 1 C2.34 2.32 1.68 3.64 1 5 C0.01 5 -0.98 5 -2 5 C-2.226875 5.556875 -2.45375 6.11375 -2.6875 6.6875 C-4.35896766 9.63246684 -6.55276352 11.68156544 -9 14 C-8.625 11.5625 -8.625 11.5625 -8 9 C-7.34 8.67 -6.68 8.34 -6 8 C-5.67 7.01 -5.34 6.02 -5 5 C-3.37347684 3.29413425 -1.70993434 1.6222454 0 0 Z " fill="#740A0C" transform="translate(51,55)" />
<path d="M0 0 C6.75 0.75 6.75 0.75 9 3 C9 3.99 9 4.98 9 6 C9.99 6.33 10.98 6.66 12 7 C11.34 7.66 10.68 8.32 10 9 C10 8.34 10 7.68 10 7 C6.73454239 5.11608215 3.71888239 4.50712033 0 4 C-0.33 4.66 -0.66 5.32 -1 6 C-1 5.01 -1 4.02 -1 3 C0.32 2.67 1.64 2.34 3 2 C2.01 1.34 1.02 0.68 0 0 Z " fill="#D88771" transform="translate(26,52)" />
<path d="M0 0 C0 0.66 0 1.32 0 2 C-1.55966218 2.508783 -3.12289241 3.00663469 -4.6875 3.5 C-5.12255859 3.63921875 -5.12255859 3.63921875 -7.32421875 4.34375 C-9.99391677 4.99850805 -12.26396684 5.11831495 -15 5 C-15 4.34 -15 3.68 -15 3 C-13.44033782 2.491217 -11.87710759 1.99336531 -10.3125 1.5 C-9.44238281 1.2215625 -8.57226562 0.943125 -7.67578125 0.65625 C-5.00608323 0.00149195 -2.73603316 -0.11831495 0 0 Z " fill="#BD9E65" transform="translate(60,73)" />
<path d="M0 0 C0.33 0.66 0.66 1.32 1 2 C2.98 2 4.96 2 7 2 C3.36804504 4.42130331 1.61650652 4.21022785 -2.6875 4.125 C-3.27724609 4.11597656 -3.27724609 4.11597656 -6.26171875 4.0703125 C-7.16535156 4.04710938 -8.06898437 4.02390625 -9 4 C-9.33 3.34 -9.66 2.68 -10 2 C-6.7 1.34 -3.4 0.68 0 0 Z " fill="#6C4B25" transform="translate(41,73)" />
<path d="M0 0 C0.33 2.97 0.66 5.94 1 9 C-0.65 8.67 -2.3 8.34 -4 8 C-3.38722388 5.03824877 -2.74627478 3.61941217 -1 1 C-2.65 1.33 -4.3 1.66 -6 2 C-6 1.34 -6 0.68 -6 0 C-4 -1 -4 -1 0 0 Z " fill="#C3A683" transform="translate(35,60)" />
<path d="M0 0 C0.66 0 1.32 0 2 0 C1.39056837 3.64824138 -0.15450092 5.8159523 -2.4375 8.6875 C-3.05496094 9.47511719 -3.67242187 10.26273438 -4.30859375 11.07421875 C-6 13 -6 13 -8 14 C-7.34 12.35 -6.68 10.7 -6 9 C-5.34 9 -4.68 9 -4 9 C-3.855625 8.443125 -3.855625 8.443125 -3.125 5.625 C-2 2 -2 2 0 0 Z " fill="#5A1E1A" transform="translate(75,32)" />
<path d="M0 0 C0.66 0.165 0.66 0.165 4 1 C3.67 4.63 3.34 8.26 3 12 C2.34 12 1.68 12 1 12 C0.34 9.69 -0.32 7.38 -1 5 C-0.34 5 0.32 5 1 5 C0.67 3.35 0.34 1.7 0 0 Z " fill="#E3AA7B" transform="translate(26,62)" />
<path d="M0 0 C0.66 0.66 1.32 1.32 2 2 C1.01 2.33 0.02 2.66 -1 3 C-1.71247732 4.6476038 -2.37400383 6.31763529 -3 8 C-4.5 10.3125 -4.5 10.3125 -6 12 C-6.66 12 -7.32 12 -8 12 C-8.33 12.66 -8.66 13.32 -9 14 C-8.39368508 10.60463643 -7.10421197 8.69339132 -5 6 C-4.67 5.29875 -4.34 4.5975 -4 3.875 C-3 2 -3 2 0 0 Z " fill="#B42214" transform="translate(72,23)" />
<path d="M0 0 C0.66 0 1.32 0 2 0 C0.95125002 2.62187494 0.35068687 3.79371361 -2.125 5.25 C-2.74375 5.4975 -3.3625 5.745 -4 6 C-4 6.99 -4 7.98 -4 9 C-6.31 10.32 -8.62 11.64 -11 13 C-11 12.34 -11 11.68 -11 11 C-10.01 10.34 -9.02 9.68 -8 9 C-7.67 8.01 -7.34 7.02 -7 6 C-5.01924973 4.63823419 -3.01920337 3.30406884 -1 2 C-0.67 1.34 -0.34 0.68 0 0 Z " fill="#D44E40" transform="translate(63,27)" />
<path d="M0 0 C0.66 0 1.32 0 2 0 C3.27253436 3.64793184 4.32829194 7.1936543 5 11 C1.125 9.25 1.125 9.25 0 7 C-0.04022391 4.6670134 -0.04320247 2.33293334 0 0 Z " fill="#891E12" transform="translate(22,55)" />
<path d="M0 0 C0.66 0 1.32 0 2 0 C1.67 0.99 1.34 1.98 1 3 C0.34 3 -0.32 3 -1 3 C-1.33 3.99 -1.66 4.98 -2 6 C-4.4375 8.6875 -4.4375 8.6875 -7 11 C-7.66 11 -8.32 11 -9 11 C-8.8125 9.125 -8.8125 9.125 -8 7 C-6.33927151 6.31867549 -4.672233 5.65257873 -3 5 C-1.75 2.9375 -1.75 2.9375 -1 1 C-0.67 0.67 -0.34 0.34 0 0 Z " fill="#B41809" transform="translate(61,37)" />
<path d="M0 0 C0.33 0.66 0.66 1.32 1 2 C0.34 2 -0.32 2 -1 2 C-1.2475 2.556875 -1.495 3.11375 -1.75 3.6875 C-4.34204027 8.48277451 -6.69619518 11.37939297 -12 13 C-11.34 12.01 -10.68 11.02 -10 10 C-9.34 10 -8.68 10 -8 10 C-8 9.01 -8 8.02 -8 7 C-5.6875 5 -5.6875 5 -3 3 C-1.9826127 2.01769502 -0.97403883 1.02530403 0 0 Z " fill="#CD372B" transform="translate(67,26)" />
<path d="M0 0 C0.33 0.99 0.66 1.98 1 3 C0.360625 3.268125 -0.27875 3.53625 -0.9375 3.8125 C-3 5 -3 5 -4 8 C-6.0625 8.6875 -6.0625 8.6875 -8 9 C-6.4169423 4.7257442 -3.49431596 2.73468206 0 0 Z " fill="#A00A01" transform="translate(62,39)" />
<path d="M0 0 C2.31 0.33 4.62 0.66 7 1 C7 1.66 7 2.32 7 3 C6.34 3 5.68 3 5 3 C5 3.66 5 4.32 5 5 C3.35 4.67 1.7 4.34 0 4 C0 2.68 0 1.36 0 0 Z " fill="#B65A41" transform="translate(30,68)" />
<path d="M0 0 C1.65 0 3.3 0 5 0 C4.34 1.98 3.68 3.96 3 6 C1.68 5.67 0.36 5.34 -1 5 C-0.67 3.35 -0.34 1.7 0 0 Z " fill="#DCC9A8" transform="translate(26,56)" />
<path d="M0 0 C1.231394 2.46278801 1.07159196 4.2795055 1 7 C-1.64 7.33 -4.28 7.66 -7 8 C-6.02133662 6.85373678 -5.04205413 5.70800212 -4.0625 4.5625 C-3.51722656 3.92441406 -2.97195312 3.28632812 -2.41015625 2.62890625 C-1.63204305 1.73008851 -0.84063472 0.84063472 0 0 Z " fill="#D25245" transform="translate(31,43)" />
<path d="M0 0 C0 3 0 3 -1 6 C-4.17242648 7.31035007 -6.55881664 8 -10 8 C-6.7 5.36 -3.4 2.72 0 0 Z " fill="#C74840" transform="translate(47,30)" />
<path d="M0 0 C0.99 0.33 1.98 0.66 3 1 C-0.75 4 -0.75 4 -3 4 C-3.33 4.99 -3.66 5.98 -4 7 C-4.99 7.33 -5.98 7.66 -7 8 C-5.92598892 5.08482708 -5.22189824 3.22189824 -3 1 C-2.01 1.33 -1.02 1.66 0 2 C0 1.34 0 0.68 0 0 Z " fill="#7B5B46" transform="translate(46,26)" />
<path d="M0 0 C0.66 0.33 1.32 0.66 2 1 C0.12050295 4.57104439 -1.17053157 6.54744301 -5 8 C-3.375 2.25 -3.375 2.25 0 0 Z " fill="#A50E02" transform="translate(52,48)" />
<path d="M0 0 C0.66 0 1.32 0 2 0 C0.63842622 5.29500913 -2.60343955 7.23745533 -7 10 C-5.32598022 6.04322598 -2.86850715 3.15535787 0 0 Z " fill="#56211B" transform="translate(65,46)" />
<path d="M0 0 C2.4375 1.25 2.4375 1.25 3.4375 4.25 C0.7975 3.92 -1.8425 3.59 -4.5625 3.25 C-4.5625 2.26 -4.5625 1.27 -4.5625 0.25 C-2.5625 -0.75 -2.5625 -0.75 0 0 Z " fill="#736047" transform="translate(46.5625,71.75)" />
<path d="M0 0 C3.0625 0.1875 3.0625 0.1875 5.0625 2.1875 C3.0825 2.1875 1.1025 2.1875 -0.9375 2.1875 C-0.9375 3.8375 -0.9375 5.4875 -0.9375 7.1875 C-1.2675 7.1875 -1.5975 7.1875 -1.9375 7.1875 C-1.9375 5.5375 -1.9375 3.8875 -1.9375 2.1875 C-2.5975 1.8575 -3.2575 1.5275 -3.9375 1.1875 C-2.9375 0.1875 -2.9375 0.1875 0 0 Z " fill="#A85E4A" transform="translate(25.9375,52.8125)" />
<path d="M0 0 C1.32 0.33 2.64 0.66 4 1 C4 2.65 4 4.3 4 6 C3.01 6 2.02 6 1 6 C0.67 4.02 0.34 2.04 0 0 Z " fill="#E9BDAB" transform="translate(35,63)" />
<path d="M0 0 C-1.6875 2.0625 -1.6875 2.0625 -4 4 C-6.75 3.75 -6.75 3.75 -9 3 C-5.92807025 0.26939578 -4.09590633 -0.34132553 0 0 Z " fill="#C04438" transform="translate(67,19)" />
<path d="M0 0 C1.32 0 2.64 0 4 0 C4 0.99 4 1.98 4 3 C2.02 3.33 0.04 3.66 -2 4 C-2 3.34 -2 2.68 -2 2 C-1.34 2 -0.68 2 0 2 C0 1.34 0 0.68 0 0 Z " fill="#D96859" transform="translate(37,69)" />
<path d="M0 0 C0.495 0.33 0.495 0.33 3 2 C3.66 1.67 4.32 1.34 5 1 C5 2.32 5 3.64 5 5 C3.35 4.67 1.7 4.34 0 4 C0 2.68 0 1.36 0 0 Z " fill="#795A43" transform="translate(22,68)" />
</svg>