<?xml version='1.0' encoding='utf-8'?>
<svg xmlns="http://www.w3.org/2000/svg" version="1.1" width="104" height="100">
<path d="M0 0 C0.37125 0.0515625 0.37125 0.0515625 2.25 0.3125 C1.84007812 0.75980469 1.43015625 1.20710938 1.0078125 1.66796875 C-2.00640074 5.04994485 -4.41050545 7.892168 -5.75 12.3125 C-6.74 11.9825 -7.73 11.6525 -8.75 11.3125 C-8.75 11.9725 -8.75 12.6325 -8.75 13.3125 C-9.41 13.3125 -10.07 13.3125 -10.75 13.3125 C-10.7809375 13.704375 -10.7809375 13.704375 -10.9375 15.6875 C-11.205625 16.55375 -11.47375 17.42 -11.75 18.3125 C-14.3125 19.625 -14.3125 19.625 -16.75 20.3125 C-16.75 20.9725 -16.75 21.6325 -16.75 22.3125 C-16.09 22.6425 -15.43 22.9725 -14.75 23.3125 C-15.41 24.3025 -16.07 25.2925 -16.75 26.3125 C-15.595 26.1475 -15.595 26.1475 -9.75 25.3125 C-9.75 24.6525 -9.75 23.9925 -9.75 23.3125 C-9.440625 23.27125 -9.440625 23.27125 -7.875 23.0625 C-5.75 22.3125 -5.75 22.3125 -4.75 20.4375 C-4.42 19.73625 -4.09 19.035 -3.75 18.3125 C-2.44325696 17.27799509 -1.11176526 16.27342307 0.25 15.3125 C1.59173403 16.23793709 2.92320159 17.17827405 4.25 18.125 C4.9925 18.64707031 5.735 19.16914062 6.5 19.70703125 C7.0775 20.23683594 7.655 20.76664063 8.25 21.3125 C8.25 22.3025 8.25 23.2925 8.25 24.3125 C7.59 24.3125 6.93 24.3125 6.25 24.3125 C5.981875 24.910625 5.71375 25.50875 5.4375 26.125 C4.25101202 28.31063575 2.9916583 29.5708417 1.25 31.3125 C0.0625 33.5 0.0625 33.5 -0.75 35.3125 C-1.74 35.3125 -2.73 35.3125 -3.75 35.3125 C-3.9975 35.951875 -4.245 36.59125 -4.5 37.25 C-5.75 39.3125 -5.75 39.3125 -7.40625 39.921875 C-15.04495644 41.19499274 -23.46700248 41.64128482 -30.265625 37.515625 C-34.08058728 34.42349768 -34.90824245 30.93537818 -35.75 26.3125 C-35.92144531 25.48492187 -36.09289062 24.65734375 -36.26953125 23.8046875 C-36.68854686 20.06148136 -36.9418914 16.93813311 -34.61621094 13.76611328 C-30.50391332 9.3476997 -25.76290631 5.65443754 -20.75 2.3125 C-17.71113807 2.54625861 -16.12897507 3.00458275 -13.75 4.9375 C-11.75 6.3125 -11.75 6.3125 -9.25 6.3125 C-6.75 5.3125 -6.75 5.3125 -4.75 2.75 C-2.75 0.3125 -2.75 0.3125 0 0 Z " fill="#ABB5B7" transform="translate(53.75,41.6875)" />
<path d="M0 0 C5.41042843 -0.84537944 8.75649753 2.08518715 13 5 C14.12489551 5.72932786 15.24988376 6.45851271 16.375 7.1875 C19 9 19 9 21 11 C23.625 11.625 23.625 11.625 26 12 C26.58008442 15.31476814 26.45278624 17.33177514 24.546875 20.14453125 C19.73501892 25.75499369 19.73501892 25.75499369 16 27 C14.2300313 27.10002963 12.45896509 27.18139554 10.6875 27.25 C5.12884215 27.68438518 2.83986063 29.0590904 -1 33 C-1.33 33 -1.66 33 -2 33 C-2 31.02 -2 29.04 -2 27 C-1.34 27 -0.68 27 0 27 C0.22429688 26.34902344 0.44859375 25.69804688 0.6796875 25.02734375 C1.11539063 24.35832031 1.55109375 23.68929687 2 23 C4.3203125 22.56640625 4.3203125 22.56640625 7.125 22.5625 C12.24692935 22.30035401 15.22907772 21.15507895 19.34375 18.15625 C21 17 21 17 24 16 C24 15.34 24 14.68 24 14 C23.2575 13.9175 22.515 13.835 21.75 13.75 C18.40359428 12.8373439 17.39665719 11.46714711 15 9 C11.2377916 6.41968441 7.57717752 4.5548094 3 4 C3.33 4.99 3.66 5.98 4 7 C4.66 7.33 5.32 7.66 6 8 C6 8.66 6 9.32 6 10 C7.134375 10.268125 8.26875 10.53625 9.4375 10.8125 C10.0253125 11.0084375 10.0253125 11.0084375 13 12 C13.33 12.99 13.66 13.98 14 15 C14.99 15.33 15.98 15.66 17 16 C16.67 16.99 16.34 17.98 16 19 C10.61485605 19.58510618 6.2721034 19.84088155 1.8125 16.4375 C-0.83610933 13.80754285 -0.99457572 13.31460806 -1.0625 9.375 C-0.22357631 6.71018356 0.56771434 4.38714276 2 2 C-3.1246795 6.99327746 -3.84653748 10.94072393 -4 18 C-6 16 -6 16 -6.375 12.8125 C-5.91484377 8.13424503 -4.54430059 5.89596028 -2 2 C-1.34 2 -0.68 2 0 2 C0 1.34 0 0.68 0 0 Z " fill="#3B3A43" transform="translate(60,16)" />
<path d="M0 0 C0.66 0.33 1.32 0.66 2 1 C1.34 1.66 0.68 2.32 0 3 C-0.15647495 9.5197895 1.19979792 15.87668473 5.4375 20.875 C9.11329079 23.65206443 12.75837453 23.63087025 17.23828125 23.44140625 C21.40969736 22.77468769 24.36199698 21.1166563 28 19 C28.66 19 29.32 19 30 19 C30.33 17.68 30.66 16.36 31 15 C31.66 15.33 32.32 15.66 33 16 C32.34 18.31 31.68 20.62 31 23 C30.34 23 29.68 23 29 23 C28.7525 23.639375 28.505 24.27875 28.25 24.9375 C27 27 27 27 25.34375 27.609375 C17.70504356 28.88249274 9.28299752 29.32878482 2.484375 25.203125 C-1.30300964 22.13335008 -2.22903607 18.61907956 -3 14 C-3.13632835 12.12810683 -3.21898191 10.25159461 -3.25 8.375 C-3.27578125 7.43398438 -3.3015625 6.49296875 -3.328125 5.5234375 C-2.94993857 2.61500377 -2.26678633 1.7776377 0 0 Z " fill="#D3DBDD" transform="translate(21,54)" />
<path d="M0 0 C0.66 0.33 1.32 0.66 2 1 C1.67 1.4434375 1.67 1.4434375 0 3.6875 C-2 7 -2 7 -2.625 9.5625 C-1.85318245 12.57258846 -0.45092385 14.17717396 2 16.0625 C5.81822769 17.85229423 9.8875878 17.36572836 14 17 C14 15 14 15 12.375 13 C9.68682134 10.7362706 7.36558109 9.91788575 4 9 C4 8.34 4 7.68 4 7 C3.01 6.67 2.02 6.34 1 6 C1 5.01 1 4.02 1 3 C7.48463627 3.27594197 12.07074377 5.78610069 17 10 C17 10.66 17 11.32 17 12 C17.825 12.165 17.825 12.165 22 13 C22 15 22 15 19.4375 17.625 C14.54911853 21.09514734 9.10999909 20.19076375 3.42578125 19.78515625 C0 20 0 20 -2.26953125 21.99609375 C-2.84058594 22.65738281 -3.41164062 23.31867187 -4 24 C-4.99 24 -5.98 24 -7 24 C-6.67 22.35 -6.34 20.7 -6 19 C-5.34 19 -4.68 19 -4 19 C-4 15 -4 15 -5 13 C-5.68149325 7.09372518 -5.68149325 7.09372518 -3.8828125 4.20703125 C-2.65466073 2.74643267 -1.33262899 1.36594471 0 0 Z " fill="#93AEF2" transform="translate(62,17)" />
<path d="M0 0 C1.98 0.99 3.96 1.98 6 3 C3.44726677 7.1600097 1.16459298 10.38502301 -3 13 C-6.8125 13.75 -6.8125 13.75 -10 14 C-10 14.66 -10 15.32 -10 16 C-11.093125 15.95875 -12.18625 15.9175 -13.3125 15.875 C-17 16 -17 16 -20 18 C-20.66 17.34 -21.32 16.68 -22 16 C-20.90931332 12.22454612 -20.0916909 9.52956528 -17 7 C-16.01 7.33 -15.02 7.66 -14 8 C-14.33 8.495 -14.33 8.495 -16 11 C-14.845 10.835 -14.845 10.835 -9 10 C-9 9.34 -9 8.68 -9 8 C-8.38125 7.9175 -7.7625 7.835 -7.125 7.75 C-5 7 -5 7 -3.9375 5.125 C-3.628125 4.42375 -3.31875 3.7225 -3 3 C-1.375 1.25 -1.375 1.25 0 0 Z " fill="#9CA6AB" transform="translate(53,57)" />
<path d="M0 0 C0.99 0.66 1.98 1.32 3 2 C2.01 2 1.02 2 0 2 C0.33 2.99 0.66 3.98 1 5 C1.66 5.33 2.32 5.66 3 6 C3 6.66 3 7.32 3 8 C4.134375 8.268125 5.26875 8.53625 6.4375 8.8125 C7.0253125 9.0084375 7.0253125 9.0084375 10 10 C10.33 10.99 10.66 11.98 11 13 C11.99 13.33 12.98 13.66 14 14 C13.67 14.99 13.34 15.98 13 17 C7.61485605 17.58510618 3.2721034 17.84088155 -1.1875 14.4375 C-3.81927863 11.81810621 -3.99000819 11.28976261 -4.125 7.375 C-3.09742503 4.2922751 -2.18016729 2.36974706 0 0 Z " fill="#646368" transform="translate(63,18)" />
<path d="M0 0 C1.125 1.5625 1.125 1.5625 2 4 C1.21021111 8.09254242 0.52635601 11.50216449 -3 14 C-3.66 14 -4.32 14 -5 14 C-5 14.66 -5 15.32 -5 16 C-7.35438733 17.42944945 -8.48032433 18.08661261 -11.25 17.625 C-11.53875 17.521875 -11.53875 17.521875 -13 17 C-12.67 16.505 -12.67 16.505 -11 14 C-11.66 12.68 -12.32 11.36 -13 10 C-12.030625 9.7525 -11.06125 9.505 -10.0625 9.25 C-9.051875 8.8375 -8.04125 8.425 -7 8 C-6.125 5.875 -6.125 5.875 -6 4 C-5.34 4 -4.68 4 -4 4 C-4 3.34 -4 2.68 -4 2 C-3.01 2 -2.02 2 -1 2 C-0.67 1.34 -0.34 0.68 0 0 Z " fill="#515C64" transform="translate(49,51)" />
<path d="M0 0 C0.37125 0.0515625 0.37125 0.0515625 2.25 0.3125 C1.84007813 0.75980469 1.43015625 1.20710938 1.0078125 1.66796875 C-2.00640074 5.04994485 -4.41050545 7.892168 -5.75 12.3125 C-6.74 11.9825 -7.73 11.6525 -8.75 11.3125 C-8.75 11.9725 -8.75 12.6325 -8.75 13.3125 C-9.41 13.3125 -10.07 13.3125 -10.75 13.3125 C-11.08 14.9625 -11.41 16.6125 -11.75 18.3125 C-12.74 17.9825 -13.73 17.6525 -14.75 17.3125 C-14.09 17.3125 -13.43 17.3125 -12.75 17.3125 C-12.42 15.9925 -12.09 14.6725 -11.75 13.3125 C-13.07 13.6425 -14.39 13.9725 -15.75 14.3125 C-15.75 14.9725 -15.75 15.6325 -15.75 16.3125 C-16.41 16.3125 -17.07 16.3125 -17.75 16.3125 C-18.0625 13.5 -18.0625 13.5 -17.75 10.3125 C-15.16220375 8.18137367 -12.90309542 7.35624155 -9.6875 6.4375 C-6.75 5.3125 -6.75 5.3125 -4.6875 2.6875 C-2.75 0.3125 -2.75 0.3125 0 0 Z " fill="#BBC0C4" transform="translate(53.75,41.6875)" />
<path d="M0 0 C0.33 0.99 0.66 1.98 1 3 C0.67 3.66 0.34 4.32 0 5 C0.66 5 1.32 5 2 5 C2 4.34 2 3.68 2 3 C3.32 2.67 4.64 2.34 6 2 C5.67 3.32 5.34 4.64 5 6 C4.34 6 3.68 6 3 6 C3 6.66 3 7.32 3 8 C2.67 8.165 2.67 8.165 1 9 C0.71125 9.5775 0.4225 10.155 0.125 10.75 C-1.24405447 13.48810895 -3.04555897 15.65467076 -5 18 C-5.99 17.67 -6.98 17.34 -8 17 C-7.49202991 12.6822542 -6.80317221 8.96697886 -5 5 C-4.34 5 -3.68 5 -3 5 C-2.938125 4.6803125 -2.938125 4.6803125 -2.625 3.0625 C-2.41875 2.381875 -2.2125 1.70125 -2 1 C-1.34 0.67 -0.68 0.34 0 0 Z " fill="#BEC9C8" transform="translate(36,53)" />
<path d="M0 0 C0.1953125 6.0546875 0.1953125 6.0546875 0 8 C-0.66 8.66 -1.32 9.32 -2 10 C-2.625 12.625 -2.625 12.625 -3 15 C-2.5978125 15.144375 -2.5978125 15.144375 -0.5625 15.875 C2 17 2 17 3 19 C2.236875 18.67 1.47375 18.34 0.6875 18 C-2.78480146 16.70798085 -4.48619861 16.82873287 -8 18 C-10.0153417 8.63458856 -10.0153417 8.63458856 -7.578125 4.7109375 C-2.88657407 0 -2.88657407 0 0 0 Z " fill="#4B4531" transform="translate(58,42)" />
<path d="M0 0 C1.32 0.33 2.64 0.66 4 1 C4.33 2.32 4.66 3.64 5 5 C4.34 5 3.68 5 3 5 C2.731875 5.598125 2.46375 6.19625 2.1875 6.8125 C1.00101202 8.99813575 -0.2583417 10.2583417 -2 12 C-3.1875 14.1875 -3.1875 14.1875 -4 16 C-4.5534764 13.92446352 -5 12.15634036 -5 10 C-5.37125 10.45375 -5.7425 10.9075 -6.125 11.375 C-8.54264685 13.47029394 -10.95430602 14.12013285 -14 15 C-14 14.34 -14 13.68 -14 13 C-11 11 -11 11 -8 11 C-7.34 9.68 -6.68 8.36 -6 7 C-5.34 7 -4.68 7 -4 7 C-3.67 6.01 -3.34 5.02 -3 4 C-2.03126968 2.64377755 -1.03565785 1.30582947 0 0 Z " fill="#BAC3C4" transform="translate(57,61)" />
<path d="M0 0 C6.40522707 0.27256285 11.25103388 2.64847954 16 7 C16.7578125 9.19921875 16.7578125 9.19921875 17 11 C15.25 11.75 15.25 11.75 13 12 C11.64426252 10.68945377 10.31387169 9.35251497 9 8 C5.75 6.75 5.75 6.75 3 6 C3 5.34 3 4.68 3 4 C2.01 3.67 1.02 3.34 0 3 C0 2.01 0 1.02 0 0 Z " fill="#CEA75C" transform="translate(63,20)" />
<path d="M0 0 C0.99 0.66 1.98 1.32 3 2 C2.21625 2.763125 1.4325 3.52625 0.625 4.3125 C-2 7 -2 7 -4 10 C-6.42578125 11.16796875 -6.42578125 11.16796875 -9.3125 12.1875 C-10.25738281 12.53167969 -11.20226563 12.87585938 -12.17578125 13.23046875 C-14.93312004 13.98177683 -17.16015591 14.15000998 -20 14 C-19.25 9.25 -19.25 9.25 -17 7 C-16.01 7.33 -15.02 7.66 -14 8 C-14.33 8.495 -14.33 8.495 -16 11 C-14.845 10.835 -14.845 10.835 -9 10 C-9 9.34 -9 8.68 -9 8 C-8.38125 7.9175 -7.7625 7.835 -7.125 7.75 C-5 7 -5 7 -3.9375 5.125 C-3.628125 4.42375 -3.31875 3.7225 -3 3 C-1.375 1.25 -1.375 1.25 0 0 Z " fill="#77838A" transform="translate(53,57)" />
<path d="M0 0 C0.66 0 1.32 0 2 0 C1.76066439 3.2310308 0.72646062 4.30089331 -1.5 6.75 C-4.87546373 9.41440962 -7.76018371 9.46154615 -11.94921875 9.2734375 C-14 9 -14 9 -17 8 C-17.268125 8.639375 -17.53625 9.27875 -17.8125 9.9375 C-19 12 -19 12 -22 13 C-21.125 8.125 -21.125 8.125 -20 7 C-18.31381513 6.89331695 -16.62580464 6.81502411 -14.9375 6.75 C-8.93392609 6.28035928 -4.29365116 4.29365116 0 0 Z " fill="#193889" transform="translate(82,32)" />
<path d="M0 0 C0.66 0 1.32 0 2 0 C2.71660708 5.97172571 2.71660708 5.97172571 0.76953125 8.765625 C-3.36994774 12.97665054 -6.39679279 14.02089931 -12.3125 14.25 C-17.87115785 14.68438518 -20.16013937 16.0590904 -24 20 C-24.33 20 -24.66 20 -25 20 C-25 18.02 -25 16.04 -25 14 C-24.01 14.33 -23.02 14.66 -22 15 C-21.73058594 14.66935547 -21.73058594 14.66935547 -20.3671875 12.99609375 C-18 11 -18 11 -15.1953125 10.78515625 C-14.18210937 10.87667969 -13.16890625 10.96820313 -12.125 11.0625 C-5.42602886 11.28361518 -5.42602886 11.28361518 -2.25 8.875 C0 6 0 6 0.375 2.6875 C0.25125 1.800625 0.1275 0.91375 0 0 Z " fill="#1F315D" transform="translate(83,29)" />
<path d="M0 0 C0.66 0 1.32 0 2 0 C1.67 1.32 1.34 2.64 1 4 C0.34 4 -0.32 4 -1 4 C-1.33 5.32 -1.66 6.64 -2 8 C-2.66 8 -3.32 8 -4 8 C-4.04125 8.556875 -4.0825 9.11375 -4.125 9.6875 C-5.46930374 13.24030274 -8.00974189 14.70958953 -11 17 C-11.33 16.01 -11.66 15.02 -12 14 C-12.99 14 -13.98 14 -15 14 C-13 11 -13 11 -10 10 C-8.3125 7.4375 -8.3125 7.4375 -7 5 C-6.34 5.66 -5.68 6.32 -5 7 C-4.66226563 6.4946875 -4.32453125 5.989375 -3.9765625 5.46875 C-3.53054687 4.8190625 -3.08453125 4.169375 -2.625 3.5 C-2.18414062 2.8503125 -1.74328125 2.200625 -1.2890625 1.53125 C-0.86367188 1.0259375 -0.43828125 0.520625 0 0 Z " fill="#6A6657" transform="translate(63,66)" />
<path d="M0 0 C0.70511719 0.25652344 1.41023438 0.51304688 2.13671875 0.77734375 C-1.45154226 6.15973526 -7.27633974 9.63468915 -12.86328125 12.77734375 C-13.19328125 11.45734375 -13.52328125 10.13734375 -13.86328125 8.77734375 C-12.15027133 7.23833484 -10.41720637 5.72162506 -8.67578125 4.21484375 C-7.71285156 3.36792969 -6.74992187 2.52101562 -5.7578125 1.6484375 C-2.86328125 -0.22265625 -2.86328125 -0.22265625 0 0 Z " fill="#BBC0C2" transform="translate(35.86328125,44.22265625)" />
<path d="M0 0 C0 0.99 0 1.98 0 3 C-6.54877267 6.74215581 -13.58610991 6.95002109 -21 6 C-22.921875 4.4765625 -22.921875 4.4765625 -24 3 C-22.85402344 2.95101562 -21.70804688 2.90203125 -20.52734375 2.8515625 C-18.99737465 2.77647199 -17.46742782 2.70092694 -15.9375 2.625 C-15.18533203 2.5940625 -14.43316406 2.563125 -13.65820312 2.53125 C-8.81038719 2.27941541 -4.61691957 1.50831635 0 0 Z " fill="#484B40" transform="translate(51,79)" />
<path d="M0 0 C0.66 0.33 1.32 0.66 2 1 C1.34 1.433125 0.68 1.86625 0 2.3125 C-3.1794208 6.5848467 -2.5770905 10.85485575 -2 16 C-0.86943452 21.36815262 0.57530548 25.49075952 5 29 C4.01 29.33 3.02 29.66 2 30 C0.5 28.625 0.5 28.625 -1 27 C-1 26.34 -1 25.68 -1 25 C-1.66 25 -2.32 25 -3 25 C-5.6350314 9.35450105 -5.6350314 9.35450105 -5 5 C-2.5 2.0625 -2.5 2.0625 0 0 Z " fill="#494A41" transform="translate(21,52)" />
<path d="M0 0 C2.43189168 0.85116209 4.69691285 1.84845643 7 3 C9.55157655 3.0716735 12.07472971 3.09308442 14.625 3.0625 C15.33140625 3.05798828 16.0378125 3.05347656 16.765625 3.04882812 C18.51045275 3.03703875 20.255237 3.01910324 22 3 C20.921875 4.4765625 20.921875 4.4765625 19 6 C11.58610991 6.95002109 4.54877267 6.74215581 -2 3 C-2 2.34 -2 1.68 -2 1 C-1.34 0.67 -0.68 0.34 0 0 Z " fill="#D5DDE1" transform="translate(25,76)" />
<path d="M0 0 C0 3 0 3 -1.16015625 4.65234375 C-3.62249562 6.45596813 -5.40926464 6.43512511 -8.4375 6.5625 C-13.42552065 6.78645195 -16.41855983 7.41855983 -20 11 C-20.99 10.67 -21.98 10.34 -23 10 C-19.15671377 5.71073516 -16.22221667 3.66064281 -10.375 3.3125 C-9.90642578 3.29574219 -9.90642578 3.29574219 -7.53515625 3.2109375 C-4.41328984 2.95118282 -2.44251238 1.93716499 0 0 Z " fill="#65635C" transform="translate(81,39)" />
<path d="M0 0 C1.17949219 0.11085937 2.35898438 0.22171875 3.57421875 0.3359375 C4.47785156 0.43132813 5.38148437 0.52671875 6.3125 0.625 C3.27697899 3.66052101 -0.00534642 3.01428058 -4.15625 3.18359375 C-4.9915625 3.32925781 -5.826875 3.47492187 -6.6875 3.625 C-7.0175 4.12 -7.0175 4.12 -8.6875 6.625 C-11.3275 6.295 -13.9675 5.965 -16.6875 5.625 C-16.0275 4.305 -15.3675 2.985 -14.6875 1.625 C-14.3575 2.615 -14.0275 3.605 -13.6875 4.625 C-12.6975 4.625 -11.7075 4.625 -10.6875 4.625 C-10.3575 3.635 -10.0275 2.645 -9.6875 1.625 C-5.94784036 -0.86810643 -4.39679359 -0.4353261 0 0 Z " fill="#5D75BA" transform="translate(68.6875,36.375)" />
<path d="M0 0 C1.46184058 0.22860058 2.91955419 0.48370392 4.375 0.75 C4.78105469 0.81960937 4.78105469 0.81960937 6.8359375 1.171875 C9.61679409 2.23602951 9.80849059 3.36831834 11 6 C11.99 6.33 12.98 6.66 14 7 C14 7.66 14 8.32 14 9 C8.7024666 8.48316747 5.33237013 6.97319519 1 4 C0.30078125 1.86328125 0.30078125 1.86328125 0 0 Z " fill="#6A4617" transform="translate(63,25)" />
<path d="M0 0 C0.33 0.66 0.66 1.32 1 2 C-1.16167665 8.37125749 -1.16167665 8.37125749 -4 10.5 C-6 11 -6 11 -9 10 C-8.67 9.01 -8.34 8.02 -8 7 C-7.34 7 -6.68 7 -6 7 C-5.938125 6.21625 -5.87625 5.4325 -5.8125 4.625 C-5.544375 3.75875 -5.27625 2.8925 -5 2 C-2.4375 0.6875 -2.4375 0.6875 0 0 Z " fill="#334147" transform="translate(50,55)" />
<path d="M0 0 C0.66 0.33 1.32 0.66 2 1 C1.67 1.4434375 1.67 1.4434375 0 3.6875 C-2.85056113 8.40874188 -2.85056113 8.40874188 -2 12 C0.5 14.1875 0.5 14.1875 3 16 C3 16.66 3 17.32 3 18 C1.68 18 0.36 18 -1 18 C-1 17.34 -1 16.68 -1 16 C-1.99 15.67 -2.98 15.34 -4 15 C-5.57455739 11.85088521 -5.34799118 9.47991184 -5 6 C-3.54526197 3.66529806 -1.93980241 1.98829747 0 0 Z " fill="#9CB4E8" transform="translate(62,17)" />
<path d="M0 0 C0.99 0.33 1.98 0.66 3 1 C1.58399311 7.13602988 -2.0663375 11.26698362 -6 16 C-6.66 15.67 -7.32 15.34 -8 15 C-6.68 12.69 -5.36 10.38 -4 8 C-3.34 8 -2.68 8 -2 8 C-2.66 6.35 -3.32 4.7 -4 3 C-2.68 3 -1.36 3 0 3 C0 2.01 0 1.02 0 0 Z " fill="#555546" transform="translate(64,58)" />
<path d="M0 0 C2.6875 -0.25 2.6875 -0.25 5 0 C4.79503906 0.22365234 4.79503906 0.22365234 3.7578125 1.35546875 C0.74359926 4.73744485 -1.66050545 7.579668 -3 12 C-3.99 11.34 -4.98 10.68 -6 10 C-5.34 10 -4.68 10 -4 10 C-4 9.34 -4 8.68 -4 8 C-5.32 7.67 -6.64 7.34 -8 7 C-7.236875 6.5875 -6.47375 6.175 -5.6875 5.75 C-3 4 -3 4 -1.5 1.8125 C-1.005 1.214375 -0.51 0.61625 0 0 Z " fill="#CBAF82" transform="translate(51,42)" />
<path d="M0 0 C-0.49230769 7.50769231 -0.49230769 7.50769231 -3.0625 10 C-3.3821875 10.165 -3.3821875 10.165 -5 11 C-5 10.34 -5 9.68 -5 9 C-5.99 9 -6.98 9 -8 9 C-6.78641212 6.02119338 -3.58154637 0 0 0 Z " fill="#835918" transform="translate(57,42)" />
<path d="M0 0 C1.65 0 3.3 0 5 0 C6.48400777 2.35695352 7.01570001 3.68599981 6.875 6.5 C5.8281942 9.49087373 4.36678851 10.93860355 2 13 C1.34 12.67 0.68 12.34 0 12 C0.474375 11.46375 0.94875 10.9275 1.4375 10.375 C3.28186076 7.57157164 3.62456847 5.30379742 4 2 C2.35 2 0.7 2 -1 2 C-0.67 1.34 -0.34 0.68 0 0 Z " fill="#66665F" transform="translate(82,26)" />
<path d="M0 0 C1.37432457 3.81756824 0.67975039 7.07255329 0 11 C-1.32 11 -2.64 11 -4 11 C-3.56179109 6.44262737 -3.14958831 3.42346555 0 0 Z " fill="#CED6D7" transform="translate(32,59)" />
<path d="M0 0 C1.32 0.33 2.64 0.66 4 1 C4 1.66 4 2.32 4 3 C-1.39284889 7.93388302 -1.39284889 7.93388302 -5.46875 8.1015625 C-7.68460647 7.84211095 -9.82604389 7.49789018 -12 7 C-12 6.67 -12 6.34 -12 6 C-10.7625 5.938125 -9.525 5.87625 -8.25 5.8125 C-4.69449876 5.39643071 -4.15360875 5.15744896 -1.5 2.4375 C-1.005 1.633125 -0.51 0.82875 0 0 Z " fill="#909AB9" transform="translate(80,29)" />
<path d="M0 0 C3.01217112 0.64449607 5.51655836 1.65022182 8.25 3.0625 C8.95640625 3.42472656 9.6628125 3.78695312 10.390625 4.16015625 C10.92171875 4.43730469 11.4528125 4.71445312 12 5 C12 5.33 12 5.66 12 6 C8.7 6 5.4 6 2 6 C2 5.01 2 4.02 2 3 C1.34 3 0.68 3 0 3 C0 2.01 0 1.02 0 0 Z " fill="#6C6655" transform="translate(64,29)" />
<path d="M0 0 C1.08667969 0.01804688 2.17335938 0.03609375 3.29296875 0.0546875 C3.70869141 0.06628906 3.70869141 0.06628906 5.8125 0.125 C5.8125 0.455 5.8125 0.785 5.8125 1.125 C5.45027344 1.13208984 5.45027344 1.13208984 3.6171875 1.16796875 C-3.12392461 1.50053028 -6.45991414 2.27300399 -11.1875 7.125 C-11.5175 7.125 -11.8475 7.125 -12.1875 7.125 C-12.1875 5.145 -12.1875 3.165 -12.1875 1.125 C-11.1975 1.455 -10.2075 1.785 -9.1875 2.125 C-5.66070901 -0.22619399 -4.15870515 -0.08943452 0 0 Z " fill="#2C324C" transform="translate(70.1875,41.875)" />
<path d="M0 0 C0.99 0.309375 1.98 0.61875 3 0.9375 C6.97731122 2.08433207 10.88767379 2.56712356 15 3 C14.67 3.66 14.34 4.32 14 5 C12.22992286 5.08114106 10.45877902 5.13925505 8.6875 5.1875 C7.70136719 5.22230469 6.71523438 5.25710937 5.69921875 5.29296875 C3 5 3 5 1.14453125 3.61328125 C0 2 0 2 0 0 Z " fill="#B9C3C5" transform="translate(27,73)" />
<path d="M0 0 C3.7910119 1.44950455 7.3874638 3.15172566 11 5 C10.67 5.99 10.34 6.98 10 8 C7.31199188 7.84639954 5.54172723 7.51244468 3.5546875 5.6328125 C0 1.3875 0 1.3875 0 0 Z " fill="#D9AF64" transform="translate(69,24)" />
<path d="M0 0 C0.66 0.33 1.32 0.66 2 1 C1.34 3.31 0.68 5.62 0 8 C-0.33 7.34 -0.66 6.68 -1 6 C-1.99 6 -2.98 6 -4 6 C-4 6.66 -4 7.32 -4 8 C-6.31 8.33 -8.62 8.66 -11 9 C-10 7 -10 7 -7.96875 6.2890625 C-6.32421594 5.84670366 -4.67837026 5.40919219 -3.03125 4.9765625 C-1 4 -1 4 -0.21875 1.8984375 C-0.1465625 1.27195312 -0.074375 0.64546875 0 0 Z " fill="#C9D2D3" transform="translate(52,69)" />
<path d="M0 0 C2.64 1.98 5.28 3.96 8 6 C4 7 4 7 1 7 C0.01 6.34 -0.98 5.68 -2 5 C-1.34 3.35 -0.68 1.7 0 0 Z " fill="#C8D1D0" transform="translate(22,71)" />
<path d="M0 0 C1.32 0.66 2.64 1.32 4 2 C3 3 2 4 1 5 C0.5771875 5.433125 0.5771875 5.433125 -1.5625 7.625 C-4 10 -4 10 -6 11 C-4.54955729 6.89041233 -2.48889248 3.56741255 0 0 Z " fill="#A9B1B3" transform="translate(55,59)" />
<path d="M0 0 C0.33 0 0.66 0 1 0 C1 1.65 1 3.3 1 5 C-0.65 5.33 -2.3 5.66 -4 6 C-4.33 6.99 -4.66 7.98 -5 9 C-5.66 8.67 -6.32 8.34 -7 8 C-6.67 6.68 -6.34 5.36 -6 4 C-5.34 4 -4.68 4 -4 4 C-4 3.34 -4 2.68 -4 2 C-3.01 2 -2.02 2 -1 2 C-0.67 1.34 -0.34 0.68 0 0 Z " fill="#616B6D" transform="translate(49,51)" />
<path d="M0 0 C0.8125 1.6875 0.8125 1.6875 1 4 C-1.62685275 7.22727623 -3.74780225 9.52753358 -8 10 C-7.1875 8.0625 -7.1875 8.0625 -6 6 C-5.01 5.67 -4.02 5.34 -3 5 C-1.3125 2.4375 -1.3125 2.4375 0 0 Z " fill="#5E615F" transform="translate(56,71)" />
<path d="M0 0 C2.0625 0.4375 2.0625 0.4375 4 1 C4.33 2.32 4.66 3.64 5 5 C3.35 5 1.7 5 0 5 C-0.33 5.66 -0.66 6.32 -1 7 C-1.04254356 5.00045254 -1.04080783 2.99958364 -1 1 C-0.67 0.67 -0.34 0.34 0 0 Z " fill="#C0CCCC" transform="translate(57,61)" />
<path d="M0 0 C0.66 0.33 1.32 0.66 2 1 C0.35 2.98 -1.3 4.96 -3 7 C-5.375 6.6875 -5.375 6.6875 -8 6 C-8.66 5.01 -9.32 4.02 -10 3 C-9.175 3.33 -9.175 3.33 -5 5 C-3.35 3.35 -1.7 1.7 0 0 Z " fill="#51492D" transform="translate(49,42)" />
<path d="M0 0 C0.66 0.66 1.32 1.32 2 2 C1.875 3.9375 1.875 3.9375 1 6 C-1.0625 7.75 -1.0625 7.75 -3 9 C-2.25 2.25 -2.25 2.25 0 0 Z " fill="#B7C0C3" transform="translate(35,59)" />
<path d="M0 0 C0.680625 0.268125 1.36125 0.53625 2.0625 0.8125 C2.0625 1.1425 2.0625 1.4725 2.0625 1.8125 C1.175625 2.06 0.28875 2.3075 -0.625 2.5625 C-4.04739594 3.85397017 -6.1522439 5.49145325 -8.9375 7.8125 C-9.5975 7.8125 -10.2575 7.8125 -10.9375 7.8125 C-9.3247711 2.97431329 -5.18948068 -0.33124345 0 0 Z " fill="#49483B" transform="translate(35.9375,42.1875)" />
<path d="M0 0 C1.4835001 0.42257276 2.96176424 0.86356322 4.4375 1.3125 C4.84935547 1.43431641 4.84935547 1.43431641 6.93359375 2.05078125 C7.61550781 2.36402344 8.29742187 2.67726563 9 3 C9.33 3.99 9.66 4.98 10 6 C10.99 6.33 11.98 6.66 13 7 C12.01 7.33 11.02 7.66 10 8 C7.51953125 6.6015625 7.51953125 6.6015625 4.8125 4.625 C3.91144531 3.97789063 3.01039062 3.33078125 2.08203125 2.6640625 C1.39496094 2.11492188 0.70789063 1.56578125 0 1 C0 0.67 0 0.34 0 0 Z " fill="#A6732D" transform="translate(64,25)" />
<path d="M0 0 C0.66 0.33 1.32 0.66 2 1 C1.01 2.32 1.01 2.32 -4 9 C-4.66 7.68 -5.32 6.36 -6 5 C-4.02 3.35 -2.04 1.7 0 0 Z " fill="#C9CDCB" transform="translate(28,48)" />
<path d="M0 0 C0.33 1.32 0.66 2.64 1 4 C0.01 4.66 0.01 4.66 -5 8 C-5.66 7.67 -6.32 7.34 -7 7 C-4.69 4.69 -2.38 2.38 0 0 Z " fill="#AF8636" transform="translate(56,42)" />
<path d="M0 0 C-0.25 1.875 -0.25 1.875 -1 4 C-3.0625 5.25 -3.0625 5.25 -5 6 C-5.66 5.34 -6.32 4.68 -7 4 C-2.25 0 -2.25 0 0 0 Z " fill="#314C9F" transform="translate(84,32)" />
<path d="M0 0 C0.33 0 0.66 0 1 0 C1.48828125 2.01822917 1.9765625 4.03645833 2.46484375 6.0546875 C3 8 3 8 4 10 C3.34 10 2.68 10 2 10 C1.67 10.66 1.34 11.32 1 12 C-0.26237731 9.47524538 -0.09856404 7.68799534 -0.0625 4.875 C-0.05347656 3.96492188 -0.04445312 3.05484375 -0.03515625 2.1171875 C-0.02355469 1.41851563 -0.01195312 0.71984375 0 0 Z " fill="#5B74BB" transform="translate(56,24)" />
<path d="M0 0 C0.66 0.99 1.32 1.98 2 3 C0.68 4.65 -0.64 6.3 -2 8 C-2.66 7.67 -3.32 7.34 -4 7 C-2.68 4.69 -1.36 2.38 0 0 Z " fill="#4E524D" transform="translate(60,66)" />
<path d="M0 0 C2.31 0.33 4.62 0.66 7 1 C7 1.66 7 2.32 7 3 C4 4 4 4 1.8125 3.0625 C1.214375 2.711875 0.61625 2.36125 0 2 C0 1.34 0 0.68 0 0 Z " fill="#C8B07B" transform="translate(63,20)" />
<path d="M0 0 C-0.33 1.32 -0.66 2.64 -1 4 C-1.66 4 -2.32 4 -3 4 C-3 4.66 -3 5.32 -3 6 C-3.66 6 -4.32 6 -5 6 C-4.625 3.5625 -4.625 3.5625 -4 1 C-2 0 -2 0 0 0 Z " fill="#D2DEDE" transform="translate(42,55)" />
<path d="M0 0 C0.66 0 1.32 0 2 0 C1.67 1.65 1.34 3.3 1 5 C0.01 5.33 -0.98 5.66 -2 6 C-1.125 1.125 -1.125 1.125 0 0 Z " fill="#2F46A5" transform="translate(62,39)" />
<path d="M0 0 C3.37503669 1.1858237 5.64722731 2.27573689 8 5 C4.62537285 4.45276317 2.91765 3.9451 0 2 C0 1.34 0 0.68 0 0 Z " fill="#BEA272" transform="translate(71,23)" />
</svg>