<?xml version='1.0' encoding='utf-8'?>
<svg xmlns="http://www.w3.org/2000/svg" version="1.1" width="104" height="103">
<path d="M0 0 C2.83984375 0.3828125 2.83984375 0.3828125 4.83984375 1.3828125 C4.83984375 2.0428125 4.83984375 2.7028125 4.83984375 3.3828125 C5.49984375 3.3828125 6.15984375 3.3828125 6.83984375 3.3828125 C11.1025768 7.25802437 11.41091261 10.90968004 11.76171875 16.37109375 C11.7875 17.03496094 11.81328125 17.69882812 11.83984375 18.3828125 C9.83984375 17.3828125 7.83984375 16.3828125 5.83984375 15.3828125 C2.67422657 20.4965018 2.67422657 20.4965018 3.33984375 24.05859375 C5.39023575 28.60256144 8.32271383 32.10361403 11.46484375 35.9453125 C18.63700903 44.92863063 24.76965933 54.02799476 29.83984375 64.3828125 C31.29907068 64.26871657 32.75724973 64.14115706 34.21484375 64.0078125 C35.02695313 63.93820313 35.8390625 63.86859375 36.67578125 63.796875 C38.83984375 63.3828125 38.83984375 63.3828125 40.83984375 61.3828125 C41.77734375 59.1953125 41.77734375 59.1953125 41.83984375 56.3828125 C40.41733616 53.84337303 38.69994212 51.61621781 36.83984375 49.3828125 C37.00484375 49.0528125 37.00484375 49.0528125 37.83984375 47.3828125 C40.91356359 50.55992964 43.44261042 53.33746163 45.02734375 57.5078125 C44.83984375 60.3828125 44.83984375 60.3828125 42.71484375 63.1328125 C37.94960448 66.86213019 34.81057564 67.4731537 28.83984375 67.3828125 C28.36675781 66.43921875 27.89367187 65.495625 27.40625 64.5234375 C22.94709732 55.79940583 17.94846588 48.07626598 11.83984375 40.3828125 C10.4703045 38.61513397 9.10729278 36.8425799 7.74560547 35.06884766 C6.87070025 33.92997613 5.99353198 32.79283842 5.11376953 31.65771484 C3.26964996 29.27519887 1.51222912 26.89139055 -0.16015625 24.3828125 C-0.82015625 24.3828125 -1.48015625 24.3828125 -2.16015625 24.3828125 C-5.30472142 31.52955153 -6.23851203 38.66268682 -7.16015625 46.3828125 C-7.49015625 46.3828125 -7.82015625 46.3828125 -8.16015625 46.3828125 C-8.16273437 45.79113281 -8.1653125 45.19945312 -8.16796875 44.58984375 C-8.3950714 39.94937955 -8.49179088 38.02147274 -11.97265625 34.6953125 C-13.02453125 33.9321875 -14.07640625 33.1690625 -15.16015625 32.3828125 C-19.16015625 27.11965461 -19.16015625 27.11965461 -19.16015625 23.3828125 C-20.48015625 23.7128125 -21.80015625 24.0428125 -23.16015625 24.3828125 C-22.78503906 23.94710937 -22.40992187 23.51140625 -22.0234375 23.0625 C-19.61823246 20.26349565 -17.22285111 17.45736855 -14.84765625 14.6328125 C-14.64785156 14.39691406 -14.64785156 14.39691406 -13.63671875 13.203125 C-12.40620899 11.68614736 -11.22570789 10.12877585 -10.05859375 8.5625 C-9.67316406 8.05847656 -9.67316406 8.05847656 -7.72265625 5.5078125 C-7.00207031 4.54101562 -6.28148438 3.57421875 -5.5390625 2.578125 C-3.16015625 0.3828125 -3.16015625 0.3828125 0 0 Z " fill="#535556" transform="translate(42.16015625,17.6171875)" />
<path d="M0 0 C3.49942323 2.25817482 4.94744149 4.40324684 6.75 8.125 C11.24468912 16.7274936 17.99329604 23.43506404 25.125 29.9375 C27.36720854 32.40392939 28.51357632 35.02715264 30 38 C30.70125 38.66 31.4025 39.32 32.125 40 C34.56322053 42.60076857 34.8470659 44.48251568 35 48 C32.60236815 50.39763185 31.66726502 50.34280586 28.375 50.625 C27.55773437 50.69976562 26.74046875 50.77453125 25.8984375 50.8515625 C25.27195312 50.90054688 24.64546875 50.94953125 24 51 C22.46449758 48.4698587 20.96252061 45.93239792 19.52734375 43.34375 C15.67210988 36.44790171 11.30955018 30.30629121 6.44140625 24.12109375 C4.20872326 21.26683181 2.04524594 18.3848819 -0.0625 15.4375 C-0.61035156 14.67308594 -1.15820312 13.90867187 -1.72265625 13.12109375 C-3.01404267 10.97668144 -3.75160833 9.4888845 -4 7 C-2.96319255 4.43663687 -1.49091669 2.34932327 0 0 Z " fill="#BA9952" transform="translate(48,32)" />
<path d="M0 0 C0 3.20395416 -0.74335022 5.09399739 -2 8 C-1.34 8 -0.68 8 0 8 C1.08857866 9.55898938 2.09433668 11.17600644 3.0625 12.8125 C5.60738962 16.94662568 8.29137115 20.67911507 11.4375 24.375 C17.75619118 31.90342351 22.69550563 40.16654376 27 49 C28.45922693 48.88590407 29.91740598 48.75834456 31.375 48.625 C32.18710938 48.55539063 32.99921875 48.48578125 33.8359375 48.4140625 C36 48 36 48 38 46 C38.9375 43.8125 38.9375 43.8125 39 41 C37.57749241 38.46056053 35.86009837 36.23340531 34 34 C34.165 33.67 34.165 33.67 35 32 C38.07371984 35.17711714 40.60276667 37.95464913 42.1875 42.125 C42 45 42 45 39.875 47.75 C35.10976073 51.47931769 31.97073189 52.0903412 26 52 C25.52691406 51.05640625 25.05382812 50.1128125 24.56640625 49.140625 C20.10725357 40.41659333 15.10862213 32.69345348 9 25 C7.63046075 23.23232147 6.26744903 21.4597674 4.90576172 19.68603516 C4.0308565 18.54716363 3.15368823 17.41002592 2.27392578 16.27490234 C0.42980621 13.89238637 -1.32761463 11.50857805 -3 9 C-3.66 9 -4.32 9 -5 9 C-8.14456517 16.14673903 -9.07835578 23.27987432 -10 31 C-10.33 31 -10.66 31 -11 31 C-12.15144911 22.27395793 -11.95391219 15.32769595 -9 7 C-8.360625 6.87625 -7.72125 6.7525 -7.0625 6.625 C-6.381875 6.41875 -5.70125 6.2125 -5 6 C-4.67 5.34 -4.34 4.68 -4 4 C-3.34 4 -2.68 4 -2 4 C-1.34 2.68 -0.68 1.36 0 0 Z " fill="#544015" transform="translate(45,33)" />
<path d="M0 0 C3.59872468 0.55910165 5.15005967 1.75942564 7.4375 4.5625 C10.0632236 8.23719357 10.0632236 8.23719357 9.8203125 11.16796875 C8.48396581 14.83947797 6.57967543 18.05179951 4 21 C4.33 19.35 4.66 17.7 5 16 C4.67 16.33 4.34 16.66 4 17 C3.34 17 2.68 17 2 17 C2 17.66 2 18.32 2 19 C1.34 19 0.68 19 0 19 C-1.66666667 17 -3.33333333 15 -5 13 C-5.66 13 -6.32 13 -7 13 C-6.70876501 7.02968261 -3.97185616 4.105466 0 0 Z " fill="#6D7172" transform="translate(39,20)" />
<path d="M0 0 C0.391875 0.886875 0.78375 1.77375 1.1875 2.6875 C3.07748446 6.14160952 5.12182516 8.34322323 8 11 C10 13 10 13 10.1953125 15.6015625 C10.17210938 16.59929688 10.14890625 17.59703125 10.125 18.625 C10.10695313 19.62789062 10.08890625 20.63078125 10.0703125 21.6640625 C10.04710938 22.43492188 10.02390625 23.20578125 10 24 C3.10827236 19.6560121 -1.96776481 14.09930771 -6 7 C-6 5.68 -6 4.36 -6 3 C-2.78571429 0 -2.78571429 0 0 0 Z " fill="#D8D7DB" transform="translate(23,41)" />
<path d="M0 0 C0.66 0 1.32 0 2 0 C3.11756017 1.4808442 4.16622632 3.01368098 5.1875 4.5625 C9.42776412 10.60996156 14.40992764 15.581456 19.80737305 20.60766602 C23.90488644 24.52086766 26.07079398 27.67202499 28 33 C28.598125 33.886875 29.19625 34.77375 29.8125 35.6875 C30.204375 36.450625 30.59625 37.21375 31 38 C30.1875 40.3125 30.1875 40.3125 29 42 C26 36.25 26 36.25 26 34 C25.505 33.835 25.505 33.835 23 33 C20 27.77777778 20 27.77777778 20 25 C19.443125 24.773125 18.88625 24.54625 18.3125 24.3125 C15.34144815 22.62622733 13.35477875 20.469646 11 18 C10.195625 17.2575 9.39125 16.515 8.5625 15.75 C4.21390292 11.08321289 0 6.54263078 0 0 Z " fill="#735419" transform="translate(54,37)" />
<path d="M0 0 C0.33 0.66 0.66 1.32 1 2 C1.66 2 2.32 2 3 2 C3.33 3.32 3.66 4.64 4 6 C4.99 5.67 5.98 5.34 7 5 C7 5.66 7 6.32 7 7 C7.99 6.67 8.98 6.34 10 6 C11.00596297 6.9520721 12.00461563 7.91187346 13 8.875 C13.556875 9.40867187 14.11375 9.94234375 14.6875 10.4921875 C16 12 16 12 16 14 C16.66 14 17.32 14 18 14 C17.67 12.02 17.34 10.04 17 8 C20.98193642 12.2232659 20.98193642 12.2232659 21.0625 15.6875 C20 18 20 18 17.75 19.3125 C12.87878788 20.53030303 12.87878788 20.53030303 10 20 C8.58203125 17.85546875 8.58203125 17.85546875 7 15 C6.39800781 14.00742188 5.79601562 13.01484375 5.17578125 11.9921875 C4.56089844 10.96351562 3.94601563 9.93484375 3.3125 8.875 C2.68988281 7.84117188 2.06726563 6.80734375 1.42578125 5.7421875 C0 3 0 3 0 0 Z " fill="#AE8E41" transform="translate(62,63)" />
<path d="M0 0 C3.69703233 1.46592567 5.17064315 3.32275769 7.3125 6.625 C11.272392 12.5012423 15.6236831 17.7316975 20.75 22.625 C23.24853073 25.26233799 24.67802091 27.621609 26 31 C25.67 31.99 25.34 32.98 25 34 C25 33.34 25 32.68 25 32 C23.35 32 21.7 32 20 32 C19.835 31.175 19.835 31.175 19 27 C18.01 26.67 17.02 26.34 16 26 C16 25.34 16 24.68 16 24 C15.34 24 14.68 24 14 24 C13.54625 22.9275 13.0925 21.855 12.625 20.75 C11.49911463 18.11937683 10.32079794 15.53999604 9 13 C8.34 13.33 8.34 13.33 5 15 C4.9175 14.01 4.835 13.02 4.75 12 C4.13691993 7.52543052 2.18031955 3.90429315 0 0 Z " fill="#D1AE67" transform="translate(48,35)" />
<path d="M0 0 C0.66 0 1.32 0 2 0 C5.40027839 3.50331713 6.54961229 6.15833214 7 11 C7.66 11 8.32 11 9 11 C11.3283935 12.76957906 11.95288806 13.81583516 12.6875 16.6875 C12.790625 17.450625 12.89375 18.21375 13 19 C13.99 18.67 14.98 18.34 16 18 C16.66 18 17.32 18 18 18 C17.67 16.68 17.34 15.36 17 14 C17.66 14 18.32 14 19 14 C20.00732399 15.93370231 21.00563288 17.87210306 22 19.8125 C22.556875 20.89144531 23.11375 21.97039062 23.6875 23.08203125 C25 26 25 26 25 29 C24.34 29 23.68 29 23 29 C22.03885609 27.89121049 21.1292946 26.73725649 20.25 25.5625 C17.93526293 22.73464388 17.29092844 22.08081346 13.625 21.0625 C12.75875 21.041875 11.8925 21.02125 11 21 C10.67 19.68 10.34 18.36 10 17 C8.68 16.67 7.36 16.34 6 16 C5.67 13.03 5.34 10.06 5 7 C4.34 7 3.68 7 3 7 C1.61061923 5.03852126 0.2739589 3.03833424 -1 1 C-0.67 0.67 -0.34 0.34 0 0 Z " fill="#BF9E53" transform="translate(55,48)" />
<path d="M0 0 C2.8203125 0.40625 2.8203125 0.40625 4.8203125 1.40625 C4.8203125 2.06625 4.8203125 2.72625 4.8203125 3.40625 C5.4803125 3.40625 6.1403125 3.40625 6.8203125 3.40625 C11.08304555 7.28146187 11.39138136 10.93311754 11.7421875 16.39453125 C11.76796875 17.05839844 11.79375 17.72226562 11.8203125 18.40625 C8.9597234 17.04687915 6.96103551 15.76104531 4.8203125 13.40625 C5.1503125 12.74625 5.4803125 12.08625 5.8203125 11.40625 C4.89487541 10.06451597 3.95453845 8.73304841 3.0078125 7.40625 C2.48574219 6.66375 1.96367188 5.92125 1.42578125 5.15625 C0.89597656 4.57875 0.36617187 4.00125 -0.1796875 3.40625 C-1.1696875 3.40625 -2.1596875 3.40625 -3.1796875 3.40625 C-5.22265625 5.59375 -5.22265625 5.59375 -7.3671875 8.40625 C-8.08261719 9.334375 -8.79804687 10.2625 -9.53515625 11.21875 C-10.07785156 11.940625 -10.62054687 12.6625 -11.1796875 13.40625 C-11.5096875 12.74625 -11.8396875 12.08625 -12.1796875 11.40625 C-10.82786744 9.55575854 -9.44727239 7.72626193 -8.0546875 5.90625 C-7.28898437 4.8853125 -6.52328125 3.864375 -5.734375 2.8125 C-3.1796875 0.40625 -3.1796875 0.40625 0 0 Z " fill="#28261C" transform="translate(42.1796875,17.59375)" />
<path d="M0 0 C4.22271781 2.53363068 6.78310162 4.56620325 9 9 C6 10 6 10 4.0625 9.0625 C3.381875 8.711875 2.70125 8.36125 2 8 C-1.9158299 8 -2.90680692 8.25761985 -6.125 10.0625 C-8.1953125 11.22265625 -8.1953125 11.22265625 -10 12 C-10.66 11.67 -11.32 11.34 -12 11 C-11.278125 10.46375 -10.55625 9.9275 -9.8125 9.375 C-7.64864567 7.54774523 -6.0641178 5.97595651 -4.3125 3.8125 C-2 1 -2 1 0 0 Z " fill="#535554" transform="translate(31,30)" />
<path d="M0 0 C4.61165049 1.45631068 4.61165049 1.45631068 6.25 3.75 C7.15829245 6.47487736 7.61241231 9.15769026 8 12 C7.34 12 6.68 12 6 12 C6 12.66 6 13.32 6 14 C5.34 14 4.68 14 4 14 C2.33333333 12 0.66666667 10 -1 8 C-1.66 8 -2.32 8 -3 8 C-2.25 2.25 -2.25 2.25 0 0 Z " fill="#595B5C" transform="translate(35,25)" />
<path d="M0 0 C3.82283043 0.54611863 5.41079952 2.23818615 8 5 C8.66 5.33 9.32 5.66 10 6 C10 7.32 10 8.64 10 10 C11.32 10.33 12.64 10.66 14 11 C14 12.98 14 14.96 14 17 C8.28765727 13.1724404 3.41712257 9.07057001 0 3 C0 2.01 0 1.02 0 0 Z " fill="#DCDCDE" transform="translate(19,48)" />
<path d="M0 0 C0.33 0.66 0.66 1.32 1 2 C1.66 2 2.32 2 3 2 C3.33 3.32 3.66 4.64 4 6 C4.99 5.67 5.98 5.34 7 5 C7 5.66 7 6.32 7 7 C7.99 6.67 8.98 6.34 10 6 C12.39189062 7.8719144 13.00772029 9.02646956 13.875 12 C14 15 14 15 12.5625 16.875 C12.046875 17.24625 11.53125 17.6175 11 18 C10.7525 17.030625 10.505 16.06125 10.25 15.0625 C10.04375 14.5571875 10.04375 14.5571875 9 12 C8.38125 11.87625 7.7625 11.7525 7.125 11.625 C3.95430765 10.69244343 3.32188307 8.7597446 1.75 5.9375 C1.48960938 5.47794922 1.48960938 5.47794922 0.171875 3.15234375 C-0.21484375 2.44207031 -0.6015625 1.73179688 -1 1 C-0.67 0.67 -0.34 0.34 0 0 Z " fill="#AD8F4A" transform="translate(62,63)" />
<path d="M0 0 C0.66 0 1.32 0 2 0 C3.22606617 1.58066374 4.37978665 3.21763517 5.5 4.875 C9.77986353 10.94076247 14.60897704 15.90725085 20 21 C19.01 21 18.02 21 17 21 C15.33333333 19.33333333 13.66666667 17.66666667 12 16 C10.845 15.401875 9.69 14.80375 8.5 14.1875 C4.2577124 11.91318826 1.85982277 8.38815327 0 4 C0 2.68 0 1.36 0 0 Z " fill="#50390C" transform="translate(54,37)" />
<path d="M0 0 C0 3.16210871 -0.45363948 4.09946513 -1.875 6.8125 C-4.72688008 12.92078216 -5.28206312 19.35908385 -6 26 C-6.33 26 -6.66 26 -7 26 C-8.0617657 17.95360696 -9.06902724 9.39700648 -5 2 C-2.3828125 0.69921875 -2.3828125 0.69921875 0 0 Z " fill="#292B25" transform="translate(41,38)" />
<path d="M0 0 C6.70212766 1.93617021 6.70212766 1.93617021 9 5 C9 5.66 9 6.32 9 7 C9.66 7 10.32 7 11 7 C12.35439668 9.70879335 12.06501451 12.00933268 12 15 C7.47619711 10.75036698 3.61682339 6.04479113 0 1 C0 0.67 0 0.34 0 0 Z " fill="#AE914A" transform="translate(49,48)" />
<path d="M0 0 C0.33 0.165 0.33 0.165 2 1 C2 1.99 2 2.98 2 4 C5.875 6 5.875 6 7 6 C7.33 5.34 7.66 4.68 8 4 C10.72107452 6.3500189 11.96702492 8.55674975 13 12 C12.67 12.99 12.34 13.98 12 15 C12 14.34 12 13.68 12 13 C10.35 13 8.7 13 7 13 C6.67 11.35 6.34 9.7 6 8 C5.01 7.67 4.02 7.34 3 7 C3 6.34 3 5.68 3 5 C2.34 5 1.68 5 1 5 C0.67 3.35 0.34 1.7 0 0 Z " fill="#CEAC66" transform="translate(61,54)" />
<path d="M0 0 C1.14626322 0.97866338 2.29199788 1.95794587 3.4375 2.9375 C4.07558594 3.48277344 4.71367187 4.02804688 5.37109375 4.58984375 C6.26991149 5.36795695 7.15936528 6.15936528 8 7 C8.04063832 8.66617115 8.042721 10.33388095 8 12 C6.68 11.67 5.36 11.34 4 11 C4 9.68 4 8.36 4 7 C3.5978125 6.855625 3.5978125 6.855625 1.5625 6.125 C-1 5 -1 5 -2 3 C-1.34 2.01 -0.68 1.02 0 0 Z " fill="#BBBDC1" transform="translate(25,47)" />
<path d="M0 0 C3.59547535 2.62372526 6.19163556 4.88094768 8 9 C7.91518274 12.47750746 7.26539021 13.70244128 4.9375 16.3125 C4.298125 16.869375 3.65875 17.42625 3 18 C2.34 17.67 1.68 17.34 1 17 C1.474375 16.608125 1.94875 16.21625 2.4375 15.8125 C4.5192362 13.397686 5 12.21241032 5 9 C3.8505072 7.0361064 2.56466835 5.31516465 1.12890625 3.55078125 C0 2 0 2 0 0 Z " fill="#52390F" transform="translate(79,65)" />
<path d="M0 0 C2.7839183 1.39195915 2.97898997 3.15575779 4 6 C6.64 6 9.28 6 12 6 C11.67 6.66 11.34 7.32 11 8 C8.93359375 8.4140625 8.93359375 8.4140625 6.4375 8.625 C6.02435547 8.66238281 6.02435547 8.66238281 3.93359375 8.8515625 C3.61455078 8.87605469 3.61455078 8.87605469 2 9 C0.3372974 6.32521756 -0.99983813 4.0004856 -2 1 C-1.34 0.67 -0.68 0.34 0 0 Z " fill="#A18542" transform="translate(70,74)" />
<path d="M0 0 C2.98886835 1.73547195 3.88710616 2.63873972 4.9375 6 C5 9 5 9 3.5625 10.875 C3.046875 11.24625 2.53125 11.6175 2 12 C1.66376204 10.7090864 1.33110751 9.41723903 1 8.125 C0.814375 7.40570313 0.62875 6.68640625 0.4375 5.9453125 C0 4 0 4 0 2 C-0.66 1.67 -1.32 1.34 -2 1 C-1.34 0.67 -0.68 0.34 0 0 Z " fill="#B69446" transform="translate(71,69)" />
<path d="M0 0 C3.51855159 1.40742064 4.38612834 2.66466523 6 6 C6.99 6.33 7.98 6.66 9 7 C9.6875 9.0625 9.6875 9.0625 10 11 C2.23162964 5.80689762 2.23162964 5.80689762 0 2 C0 1.34 0 0.68 0 0 Z " fill="#927433" transform="translate(63,51)" />
<path d="M0 0 C4.43379675 2.21689838 6.46636932 4.77728219 9 9 C8.67 9.66 8.34 10.32 8 11 C4.38061905 8.35883012 2.01293477 6.02586954 0 2 C0 1.34 0 0.68 0 0 Z " fill="#DBB875" transform="translate(60,51)" />
<path d="M0 0 C0.33 0 0.66 0 1 0 C1.33 1.65 1.66 3.3 2 5 C2.66 3.68 3.32 2.36 4 1 C4 4.3 4 7.6 4 11 C2.68 10.67 1.36 10.34 0 10 C0 6.7 0 3.4 0 0 Z " fill="#68685C" transform="translate(33,55)" />
<path d="M0 0 C1.76462683 3.08809695 2 4.23312136 2 8 C1.34 8 0.68 8 0 8 C0 8.66 0 9.32 0 10 C-0.66 10 -1.32 10 -2 10 C-1.67 8.68 -1.34 7.36 -1 6 C-1.66 6 -2.32 6 -3 6 C-2.42655063 3.13275314 -2.1385485 2.1385485 0 0 Z " fill="#605F62" transform="translate(41,29)" />
<path d="M0 0 C3.9252025 3.70090521 6.94580156 7.54959656 10 12 C7.37812506 10.95125002 6.20628639 10.35068687 4.75 7.875 C4.5025 7.25625 4.255 6.6375 4 6 C3.34 6 2.68 6 2 6 C1.34 4.02 0.68 2.04 0 0 Z " fill="#565349" transform="translate(17,49)" />
<path d="M0 0 C0.33 0.66 0.66 1.32 1 2 C1.66 2 2.32 2 3 2 C4.35439668 4.70879335 4.06501451 7.00933268 4 10 C0.13892543 7.42595029 0.05680308 5.38979741 -1 1 C-0.67 0.67 -0.34 0.34 0 0 Z " fill="#B5984E" transform="translate(57,53)" />
<path d="M0 0 C3.26008643 3.16952847 6.22237877 6.39937989 9 10 C8.67 10.66 8.34 11.32 8 12 C4.72257902 8.89973691 2.06895163 6.02901106 0 2 C0 1.34 0 0.68 0 0 Z " fill="#8D6F31" transform="translate(54,39)" />
<path d="M0 0 C3.82946843 1.45255699 5.12050295 3.42895561 7 7 C6.01 7.33 5.02 7.66 4 8 C3.34 7.67 2.68 7.34 2 7 C2 6.01 2 5.02 2 4 C1.34 4 0.68 4 0 4 C-0.33 3.01 -0.66 2.02 -1 1 C-0.67 0.67 -0.34 0.34 0 0 Z " fill="#4B4E4B" transform="translate(33,32)" />
<path d="M0 0 C0 3.49889647 -0.54120332 4.0553603 -2.75 6.625 C-3.26046875 7.23601563 -3.7709375 7.84703125 -4.296875 8.4765625 C-6.19607419 10.17538747 -7.51275949 10.5998787 -10 11 C-6.79239749 7.19364503 -3.59253891 3.45436433 0 0 Z " fill="#2E2E23" transform="translate(29,31)" />
<path d="M0 0 C4.55015893 1.51671964 6.50057264 5.16891053 9 9 C8.67 9.165 8.67 9.165 7 10 C5.82739389 8.71372289 4.6620717 7.42080217 3.5 6.125 C3.17515625 5.76535156 3.17515625 5.76535156 1.53125 3.9453125 C0 2 0 2 0 0 Z " fill="#7F8385" transform="translate(40,20)" />
<path d="M0 0 C2.0625 0.4375 2.0625 0.4375 4 1 C1.25 7.75 1.25 7.75 -1 10 C-0.835 9.195625 -0.67 8.39125 -0.5 7.5625 C0.12307692 4.36923077 0.12307692 4.36923077 -1 1 C-0.67 0.67 -0.34 0.34 0 0 Z " fill="#756844" transform="translate(44,31)" />
<path d="M0 0 C0.99 1.32 1.98 2.64 3 4 C2.67 4.165 2.67 4.165 1 5 C1 5.66 1 6.32 1 7 C-0.32 6.67 -1.64 6.34 -3 6 C-1.125 1.125 -1.125 1.125 0 0 Z " fill="#696B69" transform="translate(39,20)" />
<path d="M0 0 C1.32 0.33 2.64 0.66 4 1 C4.33 3.31 4.66 5.62 5 8 C2.5 5.6875 2.5 5.6875 0 3 C0 2.01 0 1.02 0 0 Z " fill="#E5E3E4" transform="translate(19,48)" />
<path d="M0 0 C0.66 0 1.32 0 2 0 C2.33 1.98 2.66 3.96 3 6 C2.01 6 1.02 6 0 6 C-0.33 6.66 -0.66 7.32 -1 8 C-1.33 7.01 -1.66 6.02 -2 5 C-1.34 5 -0.68 5 0 5 C-0.0928125 4.6803125 -0.0928125 4.6803125 -0.5625 3.0625 C-0.6346875 2.7221875 -0.6346875 2.7221875 -1 1 C-0.67 0.67 -0.34 0.34 0 0 Z " fill="#70623D" transform="translate(54,31)" />
<path d="M0 0 C1.875 0.25 1.875 0.25 4 1 C5.125 2.9375 5.125 2.9375 6 5 C6.66 5.66 7.32 6.32 8 7 C6.68 7 5.36 7 4 7 C3.34 5.845 3.34 5.845 0 0 Z " fill="#373C3D" transform="translate(44,22)" />
<path d="M0 0 C0.66 0 1.32 0 2 0 C3.38938077 1.96147874 4.7260411 3.96166576 6 6 C5.01 6.33 4.02 6.66 3 7 C1.68 5.02 0.36 3.04 -1 1 C-0.67 0.67 -0.34 0.34 0 0 Z " fill="#C7A159" transform="translate(55,48)" />
<path d="M0 0 C0.66 0 1.32 0 2 0 C2.66 1.98 3.32 3.96 4 6 C3.01 6 2.02 6 1 6 C1 5.34 1 4.68 1 4 C0.01 3.67 -0.98 3.34 -2 3 C-1.34 2.01 -0.68 1.02 0 0 Z " fill="#BBBEBD" transform="translate(21,41)" />
<path d="M0 0 C0.495 0.33 0.495 0.33 3 2 C3.66 1.34 4.32 0.68 5 0 C5.33 1.98 5.66 3.96 6 6 C3.11562221 4.70700306 1.12780579 3.34058637 -1 1 C-0.67 0.67 -0.34 0.34 0 0 Z " fill="#54401B" transform="translate(48,30)" />
<path d="M0 0 C1.32 0 2.64 0 4 0 C4 1.65 4 3.3 4 5 C2.68 4.67 1.36 4.34 0 4 C0 2.68 0 1.36 0 0 Z " fill="#C4C5C8" transform="translate(29,54)" />
</svg>