<?xml version='1.0' encoding='utf-8'?>
<svg xmlns="http://www.w3.org/2000/svg" version="1.1" width="111" height="98">
<path d="M0 0 C0.63421875 0.34546875 1.2684375 0.6909375 1.921875 1.046875 C6.43944549 3.77530866 9.19811657 7.11557393 11.25 11.9375 C12.94809349 18.96143217 13.69404087 27.95627651 10 34.375 C9.34 35.24125 8.68 36.1075 8 37 C7.34 37 6.68 37 6 37 C5.67 37.99 5.34 38.98 5 40 C4.01 40 3.02 40 2 40 C1.67 40.99 1.34 41.98 1 43 C-8.78954694 49.32007149 -19.30240224 51.42101597 -30.7734375 49.546875 C-32.86173978 49.0857357 -34.93359959 48.55104011 -37 48 C-37 47.34 -37 46.68 -37 46 C-37.66386719 45.82984375 -38.32773437 45.6596875 -39.01171875 45.484375 C-45.27912962 43.76426808 -49.87734453 42.49648525 -53.40625 36.68359375 C-56.73887427 30.17571914 -58.41738612 24.27180706 -57 17 C-53.80024166 8.09841665 -48.28950349 2.38955278 -40.04296875 -2.0546875 C-27.57716154 -7.75799799 -11.72766299 -6.58262374 0 0 Z " fill="#C9500E" transform="translate(77,26)" />
<path d="M0 0 C2.63685559 2.00037321 3.55683726 4.36140943 4.8125 7.375 C4.8125 8.035 4.8125 8.695 4.8125 9.375 C2.8325 9.705 0.8525 10.035 -1.1875 10.375 C-1.5175 11.695 -1.8475 13.015 -2.1875 14.375 C1.4425 14.375 5.0725 14.375 8.8125 14.375 C9.25320796 23.04225664 9.25320796 23.04225664 5.8125 27.375 C2.8125 29.375 2.8125 29.375 -1.1875 29.375 C-1.8475 27.065 -2.5075 24.755 -3.1875 22.375 C-11.75892857 22.23214286 -11.75892857 22.23214286 -15.1875 23.375 C-15.1875 26.015 -15.1875 28.655 -15.1875 31.375 C-16.5075 32.035 -17.8275 32.695 -19.1875 33.375 C-20.1775 32.715 -21.1675 32.055 -22.1875 31.375 C-23.1775 31.375 -24.1675 31.375 -25.1875 31.375 C-25.105 30.446875 -25.0225 29.51875 -24.9375 28.5625 C-25.1875 25.375 -25.1875 25.375 -27.1875 23.5 C-27.8475 23.12875 -28.5075 22.7575 -29.1875 22.375 C-28.8575 21.385 -28.5275 20.395 -28.1875 19.375 C-26.2075 19.375 -24.2275 19.375 -22.1875 19.375 C-22.1875 18.385 -22.1875 17.395 -22.1875 16.375 C-25.8175 16.375 -29.4475 16.375 -33.1875 16.375 C-33.1875 17.365 -33.1875 18.355 -33.1875 19.375 C-33.8475 19.375 -34.5075 19.375 -35.1875 19.375 C-35.1875 20.695 -35.1875 22.015 -35.1875 23.375 C-34.1975 23.705 -33.2075 24.035 -32.1875 24.375 C-32.826875 24.478125 -33.46625 24.58125 -34.125 24.6875 C-34.805625 24.914375 -35.48625 25.14125 -36.1875 25.375 C-36.5175 26.365 -36.8475 27.355 -37.1875 28.375 C-43.08067507 22.67826409 -43.08067507 22.67826409 -43.5 17.5625 C-43.41904937 13.58120061 -42.24685586 10.80725977 -40.1875 7.375 C-39.5275 7.375 -38.8675 7.375 -38.1875 7.375 C-37.795625 7.87 -37.40375 8.365 -37 8.875 C-35.1875 10.375 -35.1875 10.375 -31.75 10.75 C-28.04800825 10.36031666 -26.88732874 9.77484777 -24.1875 7.375 C-23.5275 7.375 -22.8675 7.375 -22.1875 7.375 C-21.8575 8.365 -21.5275 9.355 -21.1875 10.375 C-20.5275 9.715 -19.8675 9.055 -19.1875 8.375 C-19.1875 9.035 -19.1875 9.695 -19.1875 10.375 C-16.2175 11.035 -13.2475 11.695 -10.1875 12.375 C-10.1875 11.715 -10.1875 11.055 -10.1875 10.375 C-9.5275 10.375 -8.8675 10.375 -8.1875 10.375 C-8.8475 8.725 -9.5075 7.075 -10.1875 5.375 C-14.9375 5.25 -14.9375 5.25 -17.1875 6.375 C-17.1875 5.715 -17.1875 5.055 -17.1875 4.375 C-17.8475 4.375 -18.5075 4.375 -19.1875 4.375 C-19.1875 3.715 -19.1875 3.055 -19.1875 2.375 C-17.20182292 1.88671875 -15.21614583 1.3984375 -13.23046875 0.91015625 C-4.66630299 -1.33322943 -4.66630299 -1.33322943 0 0 Z " fill="#FAFB68" transform="translate(73.1875,29.625)" />
<path d="M0 0 C0.63421875 0.34546875 1.2684375 0.6909375 1.921875 1.046875 C6.43944549 3.77530866 9.19811657 7.11557393 11.25 11.9375 C12.94809349 18.96143217 13.69404087 27.95627651 10 34.375 C9.34 35.24125 8.68 36.1075 8 37 C7.34 37 6.68 37 6 37 C5.67 37.99 5.34 38.98 5 40 C4.01 40 3.02 40 2 40 C1.67 40.99 1.34 41.98 1 43 C-8.78954694 49.32007149 -19.30240224 51.42101597 -30.7734375 49.546875 C-32.86173978 49.0857357 -34.93359959 48.55104011 -37 48 C-37 47.34 -37 46.68 -37 46 C-37.66386719 45.82984375 -38.32773437 45.6596875 -39.01171875 45.484375 C-45.27912962 43.76426808 -49.87734453 42.49648525 -53.40625 36.68359375 C-56.73887427 30.17571914 -58.41738612 24.27180706 -57 17 C-53.80024166 8.09841665 -48.28950349 2.38955278 -40.04296875 -2.0546875 C-27.57716154 -7.75799799 -11.72766299 -6.58262374 0 0 Z M-40 1 C-40.82371094 1.4125 -41.64742187 1.825 -42.49609375 2.25 C-46.96104766 4.76466204 -49.42561512 6.87889838 -51.0625 11.8125 C-51.42875558 13.53108385 -51.743351 15.26166606 -52 17 C-52.13535156 17.73347656 -52.27070312 18.46695313 -52.41015625 19.22265625 C-53.1290698 26.42486295 -49.32414702 32.48711146 -45 38 C-37.3131369 44.03663626 -26.83555228 46.76059937 -17.10546875 46.33203125 C-14.02747699 45.84663366 -11.68045722 44.54870862 -9 43 C-7.845 42.71125 -6.69 42.4225 -5.5 42.125 C-0.25077331 40.43774856 2.59729178 38.22218513 5.484375 33.6484375 C8.88358606 27.0218856 10.77612917 20.39365399 9 13 C5.46690835 7.38424379 -0.00917406 4.05019888 -5.82421875 1.10546875 C-8 0 -8 0 -10.2578125 -1.609375 C-13.88986683 -3.4512715 -17.20440809 -3.49291846 -21.1875 -3.4375 C-21.94417969 -3.42992676 -22.70085938 -3.42235352 -23.48046875 -3.41455078 C-29.6706264 -3.23303289 -34.57005951 -2.06451668 -40 1 Z " fill="#E28721" transform="translate(77,26)" />
<path d="M0 0 C0.80050781 0.44730469 1.60101563 0.89460938 2.42578125 1.35546875 C9.93695084 5.94084724 14.01629534 11.31595192 16.4921875 19.75390625 C18.47872298 28.54050548 15.56033557 35.62079335 11.80078125 43.51953125 C5.67817315 51.95305868 -6.21652968 55.60137922 -16.08691406 57.375 C-27.02937677 58.73286256 -36.77670793 55.8110627 -46 50 C-48.9873888 47.62478103 -50.9998476 45.23554065 -53 42 C-53.50015625 41.24976563 -54.0003125 40.49953125 -54.515625 39.7265625 C-58.4257788 33.08789478 -59.42288875 26.57961893 -58 19 C-54.48134098 10.78626283 -48.41397284 3.48997063 -40.22265625 -0.27734375 C-27.55177946 -5.05656036 -12.18487606 -6.9658672 0 0 Z M-45 5 C-45.825 5.515625 -46.65 6.03125 -47.5 6.5625 C-52.72122529 11.65319466 -56.31268183 18.07775522 -56.75 25.4375 C-56.34944186 32.39719768 -53.28810211 39.95165533 -48.125 44.73828125 C-45.7099544 46.17221458 -43.45469347 46.94015049 -40.75 47.6875 C-39.85796875 47.93886719 -38.9659375 48.19023438 -38.046875 48.44921875 C-37.37140625 48.63097656 -36.6959375 48.81273437 -36 49 C-36 49.66 -36 50.32 -36 51 C-23.11249264 54.43666863 -12.61939246 53.71752515 -0.9375 47.3125 C0.37947173 46.54933177 1.69370673 45.78130543 3 45 C3 44.34 3 43.68 3 43 C3.66 42.835 3.66 42.835 7 42 C7 41.34 7 40.68 7 40 C7.495 39.835 7.495 39.835 10 39 C14.29992329 32.19683498 14.06871873 24.2524626 12.49609375 16.5234375 C10.42883348 10.40434711 6.90813417 5.78498638 1.1875 2.8125 C-0.19063265 2.16897964 -1.59089202 1.57252314 -3 1 C-3.57169922 0.74702148 -4.14339844 0.49404297 -4.73242188 0.23339844 C-9.87518993 -1.91069329 -14.32992121 -2.47720248 -19.875 -2.375 C-20.66293945 -2.36629883 -21.45087891 -2.35759766 -22.26269531 -2.34863281 C-31.00583992 -2.1288834 -37.95688006 -0.40518507 -45 5 Z " fill="#643B08" transform="translate(76,23)" />
<path d="M0 0 C0.33 0 0.66 0 1 0 C1.061875 1.19625 1.12375 2.3925 1.1875 3.625 C1.74912287 8.40730383 3.68994551 10.60507231 7 14 C8.5625 12.8125 8.5625 12.8125 10 11 C9.6875 8.3125 9.6875 8.3125 9 6 C9.66 6 10.32 6 11 6 C10.67 4.68 10.34 3.36 10 2 C13.96 2 17.92 2 22 2 C22.33 3.32 22.66 4.64 23 6 C22 7 22 7 18.9375 7.0625 C17.968125 7.041875 16.99875 7.02125 16 7 C17 10 17 10 20 12 C20.1875 15.125 20.1875 15.125 20 18 C20.99 17.67 21.98 17.34 23 17 C23.99 17.66 24.98 18.32 26 19 C26.99 18.67 27.98 18.34 29 18 C29 15.36 29 12.72 29 10 C32.40424088 7.90508254 35.03414842 7.50426855 39 8 C41.375 9.75 41.375 9.75 43 12 C43 13.32 43 14.64 43 16 C44.98 15.34 46.96 14.68 49 14 C49 14.99 49 15.98 49 17 C47.35 17.33 45.7 17.66 44 18 C43.9175 18.61875 43.835 19.2375 43.75 19.875 C43 22 43 22 41.4375 23.25 C37.96787827 24.31757592 34.61477536 24 31 24 C29.6520257 24.63654342 28.31403276 25.29605388 27 26 C24.75 25.625 24.75 25.625 23 25 C23 24.34 23 23.68 23 23 C22.11957031 22.95101562 21.23914063 22.90203125 20.33203125 22.8515625 C19.75130859 22.81417969 19.75130859 22.81417969 16.8125 22.625 C15.66394531 22.55539063 14.51539062 22.48578125 13.33203125 22.4140625 C10.14753635 22.01833394 7.82066142 21.5145173 5 20 C4.2214735 18.31319258 3.45251099 16.61692032 2.828125 14.8671875 C1.91021412 12.79755826 0.79715479 11.51566415 -0.75 9.875 C-3 7 -3 7 -2.9375 4.25 C-2 2 -2 2 0 0 Z " fill="#FCD33F" transform="translate(29,43)" />
<path d="M0 0 C-5.1814184 2.68666139 -9.06057157 4.27625249 -15 4 C-15 4.66 -15 5.32 -15 6 C-12.79127362 6 -10.58122641 5.9800584 -8.375 5.875 C-6 6 -6 6 -4 8 C-4 9.32 -4 10.64 -4 12 C-4.66 12 -5.32 12 -6 12 C-6 12.66 -6 13.32 -6 14 C-10.03034912 14.18319769 -12.48257051 13.94065076 -16 12 C-16.99 12 -17.98 12 -19 12 C-18.67 11.01 -18.34 10.02 -18 9 C-18.845625 9.66 -19.69125 10.32 -20.5625 11 C-24.48265563 13.28081782 -26.54169018 13.50471432 -31 13 C-31.99 12.34 -32.98 11.68 -34 11 C-34 10.34 -34 9.68 -34 9 C-36.0245738 10.93254772 -37.42105792 12.63158688 -39 15 C-38.72249992 10.37499865 -38.08016683 6.88090331 -34.81640625 3.421875 C-25.08931033 -4.19245385 -10.80742955 -6.21344573 0 0 Z " fill="#F9D83E" transform="translate(69,28)" />
<path d="M0 0 C2.63685559 2.00037321 3.55683726 4.36140943 4.8125 7.375 C4.8125 8.035 4.8125 8.695 4.8125 9.375 C2.8325 9.705 0.8525 10.035 -1.1875 10.375 C-1.5175 11.695 -1.8475 13.015 -2.1875 14.375 C1.4425 14.375 5.0725 14.375 8.8125 14.375 C9.25320796 23.04225664 9.25320796 23.04225664 5.8125 27.375 C2.8125 29.375 2.8125 29.375 -1.1875 29.375 C-3.3125 22.625 -3.3125 22.625 -2.1875 20.375 C-4.1675 20.375 -6.1475 20.375 -8.1875 20.375 C-10.1875 13.75 -10.1875 13.75 -10.1875 10.375 C-9.5275 10.375 -8.8675 10.375 -8.1875 10.375 C-8.8475 8.725 -9.5075 7.075 -10.1875 5.375 C-14.9375 5.25 -14.9375 5.25 -17.1875 6.375 C-17.1875 5.715 -17.1875 5.055 -17.1875 4.375 C-17.8475 4.375 -18.5075 4.375 -19.1875 4.375 C-19.1875 3.715 -19.1875 3.055 -19.1875 2.375 C-17.20182292 1.88671875 -15.21614583 1.3984375 -13.23046875 0.91015625 C-4.66630299 -1.33322943 -4.66630299 -1.33322943 0 0 Z " fill="#FCDA46" transform="translate(73.1875,29.625)" />
<path d="M0 0 C2.83288439 2.58654662 3.87476318 4.50920014 4.203125 8.41796875 C4.36888816 18.21180884 2.47382873 24.1246759 -4.21484375 31.3671875 C-6.31255686 33.28588352 -8.23259276 34.3291134 -11 35 C-11 35.99 -11 36.98 -11 38 C-23.17414385 43.32618794 -34.89415897 45.70944349 -47.62158203 40.82714844 C-48.32395996 40.53356445 -49.02633789 40.23998047 -49.75 39.9375 C-50.41757324 39.66325195 -51.08514648 39.38900391 -51.77294922 39.10644531 C-56.92419647 36.68778307 -58.64880267 33.94582671 -61 29 C-60.72414063 29.14308594 -60.72414063 29.14308594 -59.328125 29.8671875 C-56.84094711 31.07739151 -54.32252247 32.1095306 -51.75 33.125 C-50.85796875 33.47820312 -49.9659375 33.83140625 -49.046875 34.1953125 C-48.37140625 34.46085937 -47.6959375 34.72640625 -47 35 C-47 35.66 -47 36.32 -47 37 C-33.14247123 38.8476705 -21.14063509 38.64983895 -9 31 C-8.67 30.34 -8.34 29.68 -8 29 C-7.01 28.67 -6.02 28.34 -5 28 C-0.01761346 22.54310046 1.14042239 19.41979199 1.125 12.125 C1.12757812 10.91070312 1.13015625 9.69640625 1.1328125 8.4453125 C1.01884298 5.48880905 0.68703101 2.86808185 0 0 Z " fill="#8D530A" transform="translate(87,37)" />
<path d="M0 0 C0.7520874 -0.01401855 1.5041748 -0.02803711 2.27905273 -0.04248047 C7.74571524 0.00422779 11.89033219 1.10273973 16.875 3.375 C18.375 5.5625 18.375 5.5625 18.875 7.375 C15.65970538 7.00112853 13.3732975 6.71902034 10.6796875 4.859375 C7.01889586 2.92190867 3.73185671 2.88166956 -0.3125 2.9375 C-1.06845459 2.94434814 -1.82440918 2.95119629 -2.60327148 2.95825195 C-8.79282399 3.13524783 -13.67366126 4.37180793 -19.125 7.375 C-19.50011719 7.54451172 -19.50011719 7.54451172 -21.3984375 8.40234375 C-25.67905141 10.57355767 -27.59591475 12.53063221 -29.125 17.125 C-29.50982362 18.86440274 -29.84498821 20.61568067 -30.125 22.375 C-30.26164062 23.10976563 -30.39828125 23.84453125 -30.5390625 24.6015625 C-31.2570462 31.91435941 -27.18406646 37.5862671 -23.125 43.375 C-21.39453125 45.2265625 -21.39453125 45.2265625 -20.125 46.375 C-22.75 46.9375 -22.75 46.9375 -26.125 46.375 C-28.67323024 43.68010903 -30.38739629 40.63556225 -32.125 37.375 C-32.48078125 36.71757813 -32.8365625 36.06015625 -33.203125 35.3828125 C-35.76186224 29.77685183 -35.6167707 24.2915143 -34.125 18.375 C-30.60864344 10.39124381 -24.65128843 6.00372098 -16.95703125 2.34375 C-11.40488807 0.27961416 -5.85937411 0.07528104 0 0 Z " fill="#E28B2B" transform="translate(56.125,20.625)" />
<path d="M0 0 C-2.98440561 1.54078615 -6.01007758 2.86973276 -9.125 4.125 C-9.99382813 4.47820313 -10.86265625 4.83140625 -11.7578125 5.1953125 C-14 6 -14 6 -16 6 C-16.268125 6.5775 -16.53625 7.155 -16.8125 7.75 C-18 10 -18 10 -19.5 11.875 C-21.31812571 14.4506781 -22.04526273 17.00848988 -23 20 C-23.66 20.99 -24.32 21.98 -25 23 C-25 27.65903506 -22.43136846 30.07263812 -19.375 33.25390625 C-18 35 -18 35 -17.765625 37.05078125 C-17 39 -17 39 -13.796875 40.4140625 C-12.45305693 40.83450459 -11.10368592 41.23750422 -9.75 41.625 C-5.43193974 42.93955399 -1.16377734 44.24088477 3 46 C3 46.33 3 46.66 3 47 C-5.30869231 46.32994417 -15.12907898 45.52324558 -21 39 C-25.44503015 32.48701817 -28.30608492 26.93274738 -27 19 C-26.88785156 18.16339844 -26.77570312 17.32679687 -26.66015625 16.46484375 C-25.54669258 11.07632976 -23.75330364 8.28796829 -19.3125 5 C-13.04471675 1.12255039 -7.43580969 -0.37179048 0 0 Z " fill="#9B1B00" transform="translate(52,24)" />
<path d="M0 0 C0.66 0 1.32 0 2 0 C2.391875 0.474375 2.78375 0.94875 3.1875 1.4375 C5.86612359 3.74665826 8.56076032 3.67554343 12 4 C9 6 9 6 6 6 C6.33 7.98 6.66 9.96 7 12 C6.34 12 5.68 12 5 12 C5 13.32 5 14.64 5 16 C5.99 16.33 6.98 16.66 8 17 C7.360625 17.103125 6.72125 17.20625 6.0625 17.3125 C5.381875 17.539375 4.70125 17.76625 4 18 C3.67 18.99 3.34 19.98 3 21 C-2.89317507 15.30326409 -2.89317507 15.30326409 -3.3125 10.1875 C-3.23154937 6.20620061 -2.05935586 3.43225977 0 0 Z " fill="#FBDE4A" transform="translate(33,37)" />
<path d="M0 0 C0.165 0.33 0.165 0.33 1 2 C1.99 2.33 2.98 2.66 4 3 C1.82597953 8.49899296 -0.90217363 11.2610149 -6 14 C-8.33913802 14.92263873 -10.67143716 15.70823957 -13.08203125 16.421875 C-15 17 -15 17 -17 18 C-18.70702735 18.06996014 -20.41668003 18.08440154 -22.125 18.0625 C-23.03507812 18.05347656 -23.94515625 18.04445313 -24.8828125 18.03515625 C-25.23214844 18.02935547 -25.23214844 18.02935547 -27 18 C-27 17.34 -27 16.68 -27 16 C-28.65 15.34 -28.65 15.34 -37 12 C-32.98750587 10.99687647 -30.94288658 11.03618328 -27 12 C-26.67 12.66 -26.34 13.32 -26 14 C-20.44043321 13.11552347 -20.44043321 13.11552347 -18.09375 12.5 C-15.81130533 11.95493859 -13.58348309 11.67771149 -11.25 11.4375 C-10.45078125 11.35371094 -9.6515625 11.26992187 -8.828125 11.18359375 C-8.22484375 11.12300781 -7.6215625 11.06242187 -7 11 C-6.67 9.68 -6.34 8.36 -6 7 C-4.35 6.67 -2.7 6.34 -1 6 C-0.67 4.02 -0.34 2.04 0 0 Z " fill="#D3520D" transform="translate(79,54)" />
<path d="M0 0 C2.63685559 2.00037321 3.55683726 4.36140943 4.8125 7.375 C4.8125 8.035 4.8125 8.695 4.8125 9.375 C2.5025 9.705 0.1925 10.035 -2.1875 10.375 C-1.8575 8.395 -1.5275 6.415 -1.1875 4.375 C-3.5625 4.625 -3.5625 4.625 -6.1875 5.375 C-7.5 7.4375 -7.5 7.4375 -8.1875 9.375 C-8.8475 8.055 -9.5075 6.735 -10.1875 5.375 C-14.9375 5.25 -14.9375 5.25 -17.1875 6.375 C-17.1875 5.715 -17.1875 5.055 -17.1875 4.375 C-17.8475 4.375 -18.5075 4.375 -19.1875 4.375 C-19.1875 3.715 -19.1875 3.055 -19.1875 2.375 C-17.20182292 1.88671875 -15.21614583 1.3984375 -13.23046875 0.91015625 C-4.66630299 -1.33322943 -4.66630299 -1.33322943 0 0 Z " fill="#F9CF37" transform="translate(73.1875,29.625)" />
<path d="M0 0 C4.29500117 0.47722235 6.24620428 2.83313492 9 6 C13.36728741 12.43837217 16.11734031 19.13823202 15 27 C13.00884805 33.98374477 10.71057531 41.52229995 4.5 45.8125 C4.20609375 46.02197266 4.20609375 46.02197266 2.71875 47.08203125 C1 48 1 48 -2 48 C-2 47.34 -2 46.68 -2 46 C-1.319375 45.62875 -0.63875 45.2575 0.0625 44.875 C5.2081388 41.5905497 9.00467744 37.29356938 11.4375 31.6875 C12.73175519 23.2029382 12.95078277 16.28244176 8 9 C5.59744415 5.75728658 2.93103922 2.77677399 0 0 Z " fill="#5E2F0A" transform="translate(78,26)" />
<path d="M0 0 C5.0509087 0.77706288 8.76052375 3.72609386 12.25 7.3125 C16.90888566 14.46721727 16.8370272 22.68812529 16 31 C14.96370837 33.83853794 13.84759212 35.57503534 12 38 C11.34 37.67 10.68 37.34 10 37 C12.875 31.125 12.875 31.125 14 30 C14.54849197 23.8083695 14.78757371 18.16487324 11 13 C8.10755872 10.19761642 5.07868683 7.59380826 2 5 C1.34 4.34 0.68 3.68 0 3 C0 2.01 0 1.02 0 0 Z " fill="#F29527" transform="translate(73,25)" />
<path d="M0 0 C1.875 1.1875 1.875 1.1875 3 3 C3.3125 5.5625 3.3125 5.5625 3 8 C1 10 1 10 -2.4375 10.25 C-6 10 -6 10 -9 8 C-9.375 5 -9.375 5 -9 2 C-5.53076119 -0.31282587 -4.07794425 -0.42478586 0 0 Z " fill="#D06313" transform="translate(68,51)" />
<path d="M0 0 C2.83288439 2.58654662 3.87476318 4.50920014 4.203125 8.41796875 C4.3689514 18.21554493 2.49592305 24.10529983 -4.2421875 31.30859375 C-8.91442074 35.8043204 -14.46103065 37.84940556 -20.9375 38.125 C-21.618125 38.08375 -22.29875 38.0425 -23 38 C-20.82815743 36.90648486 -18.64988423 35.83220258 -16.45703125 34.78125 C-16.02068359 34.56984375 -16.02068359 34.56984375 -13.8125 33.5 C-13.37228516 33.28859375 -13.37228516 33.28859375 -11.14453125 32.21875 C-9 31 -9 31 -8 29 C-7.01 28.67 -6.02 28.34 -5 28 C-0.01761346 22.54310046 1.14042239 19.41979199 1.125 12.125 C1.12757812 10.91070312 1.13015625 9.69640625 1.1328125 8.4453125 C1.01884298 5.48880905 0.68703101 2.86808185 0 0 Z " fill="#9B540A" transform="translate(87,37)" />
<path d="M0 0 C0.33 0 0.66 0 1 0 C1 1.98 1 3.96 1 6 C4.47325181 7.1577506 7.36067448 7.06866652 11 7 C11.66 5.35 12.32 3.7 13 2 C13.33 3.32 13.66 4.64 14 6 C15.98 5.34 17.96 4.68 20 4 C20 4.99 20 5.98 20 7 C18.35 7.33 16.7 7.66 15 8 C14.9175 8.61875 14.835 9.2375 14.75 9.875 C14 12 14 12 12.4375 13.25 C8.96787827 14.31757592 5.61477536 14 2 14 C0.6520257 14.63654342 -0.68596724 15.29605388 -2 16 C-4.25 15.625 -4.25 15.625 -6 15 C-6 14.34 -6 13.68 -6 13 C-0.72 12.34 4.56 11.68 10 11 C10 10.34 10 9.68 10 9 C7.36 9 4.72 9 2 9 C2 8.34 2 7.68 2 7 C1.34 7 0.68 7 0 7 C0 4.69 0 2.38 0 0 Z " fill="#FAAC3A" transform="translate(58,53)" />
<path d="M0 0 C1.28648438 -0.01675781 2.57296875 -0.03351562 3.8984375 -0.05078125 C7.81649454 0.33116771 10.25501614 1.33537324 13.625 3.3125 C8.4435816 5.99916139 4.56442843 7.58875249 -1.375 7.3125 C-1.705 5.3325 -2.035 3.3525 -2.375 1.3125 C-3.1175 1.663125 -3.86 2.01375 -4.625 2.375 C-7.5072726 3.35759293 -8.58676345 3.3451802 -11.375 2.3125 C-7.65999561 -0.05416524 -4.3335868 0.01297481 0 0 Z " fill="#F3A532" transform="translate(55.375,24.6875)" />
<path d="M0 0 C2.375 0.875 2.375 0.875 5 3 C6.5691039 7.61269237 7 12.14905646 7 17 C6.34 17 5.68 17 5 17 C5 14.36 5 11.72 5 9 C4.67 9.165 4.67 9.165 3 10 C-3.53333333 10.23333333 -3.53333333 10.23333333 -6 9 C-5.67 7.35 -5.34 5.7 -5 4 C-3.02 4 -1.04 4 1 4 C0.67 2.68 0.34 1.36 0 0 Z " fill="#F69336" transform="translate(77,35)" />
<path d="M0 0 C0.99 0 1.98 0 3 0 C3 0.66 3 1.32 3 2 C3.60328125 2.13277344 4.2065625 2.26554687 4.828125 2.40234375 C5.62734375 2.57894531 6.4265625 2.75554687 7.25 2.9375 C7.64445312 3.02451172 7.64445312 3.02451172 9.640625 3.46484375 C11.06535451 3.7880026 12.48433362 4.14138932 13.88671875 4.55078125 C22.22717181 6.32370565 30.80956337 5.25164654 38.79296875 2.55859375 C41 2 41 2 44 3 C32.9773566 7.82240649 21.61716053 10.89994827 9.875 6.64453125 C6.49253529 5.27291173 3.23225566 3.69693422 0 2 C0 1.34 0 0.68 0 0 Z " fill="#59310B" transform="translate(32,72)" />
<path d="M0 0 C1 1 1 1 1.1875 3.4375 C1 6 1 6 -1 8 C-2.875 8.23046875 -2.875 8.23046875 -5 8.1875 C-5.70125 8.18105469 -6.4025 8.17460938 -7.125 8.16796875 C-9 8 -9 8 -11 7 C-10.6875 4.625 -10.6875 4.625 -10 2 C-6.34346173 -0.43769218 -4.30999899 -0.23944439 0 0 Z " fill="#D44611" transform="translate(48,32)" />
<path d="M0 0 C0.80824219 0.19464844 1.61648437 0.38929687 2.44921875 0.58984375 C3.06410156 0.74582031 3.67898437 0.90179688 4.3125 1.0625 C4.3125 3.3725 4.3125 5.6825 4.3125 8.0625 C3.6525 8.3925 3.6525 8.3925 0.3125 10.0625 C-0.6775 9.4025 -1.6675 8.7425 -2.6875 8.0625 C-3.6775 8.0625 -4.6675 8.0625 -5.6875 8.0625 C-5.64625 7.11375 -5.605 6.165 -5.5625 5.1875 C-5.6875 2.0625 -5.6875 2.0625 -7.6875 0.0625 C-4.39053895 -1.03648702 -3.28255097 -0.80874444 0 0 Z " fill="#FCDD53" transform="translate(53.6875,52.9375)" />
<path d="M0 0 C3.96 0 7.92 0 12 0 C12.33 1.32 12.66 2.64 13 4 C12 5 12 5 8.9375 5.0625 C7.968125 5.041875 6.99875 5.02125 6 5 C6 5.99 6 6.98 6 8 C3.69 8 1.38 8 -1 8 C-1 6.68 -1 5.36 -1 4 C-0.34 4 0.32 4 1 4 C0.67 2.68 0.34 1.36 0 0 Z " fill="#F9F25F" transform="translate(39,45)" />
<path d="M0 0 C0.625 2.375 0.625 2.375 1 5 C-1 7 -1 7 -4.5 7.25 C-8 7 -8 7 -10 5 C-9.75 2.4375 -9.75 2.4375 -9 0 C-5.93109813 -1.53445094 -3.29905734 -0.54984289 0 0 Z " fill="#D55611" transform="translate(48,54)" />
<path d="M0 0 C-2.98440561 1.54078615 -6.01007758 2.86973276 -9.125 4.125 C-9.99382813 4.47820313 -10.86265625 4.83140625 -11.7578125 5.1953125 C-14 6 -14 6 -16 6 C-16.268125 6.5775 -16.53625 7.155 -16.8125 7.75 C-18.0388622 10.07363365 -19.24843434 12.03824646 -21 14 C-21.99 14 -22.98 14 -24 14 C-24.28125 11.73046875 -24.28125 11.73046875 -24 9 C-17.40227224 2.25355296 -9.29728743 -0.46486437 0 0 Z " fill="#A43306" transform="translate(52,24)" />
<path d="M0 0 C0.38897461 -0.0103125 0.38897461 -0.0103125 2.35742188 -0.0625 C8.00356939 -0.10017238 12.17129753 0.87669741 17.3125 3.25 C18.8125 5.4375 18.8125 5.4375 19.3125 7.25 C13.79533624 6.60846933 13.79533624 6.60846933 11.25 4.71875 C6.88324333 2.53537167 2.80618398 2.93003274 -2 3.0625 C-2.93134766 3.07603516 -3.86269531 3.08957031 -4.82226562 3.10351562 C-7.11127646 3.13873118 -9.39908458 3.18797901 -11.6875 3.25 C-11.6875 2.59 -11.6875 1.93 -11.6875 1.25 C-7.78875008 -0.04958331 -4.06417957 0.0262841 0 0 Z " fill="#ED9930" transform="translate(55.6875,20.75)" />
<path d="M0 0 C0.33 0 0.66 0 1 0 C1.04125 0.6084375 1.04125 0.6084375 1.25 3.6875 C1.75699597 7.87572755 3.26946879 9.77300857 6 13 C6.69730806 15.3243602 7.36912152 17.65673706 8 20 C8.66 20.33 9.32 20.66 10 21 C7.6875 20.9375 7.6875 20.9375 5 20 C3.5 16.8125 3.5 16.8125 2.828125 14.90234375 C1.91503349 12.8048175 0.81479425 11.53007085 -0.75 9.875 C-3 7 -3 7 -2.9375 4.25 C-2 2 -2 2 0 0 Z " fill="#D17C11" transform="translate(29,43)" />
<path d="M0 0 C2.5 0.25 2.5 0.25 4.5 2.25 C4.5 3.57 4.5 4.89 4.5 6.25 C3.84 6.25 3.18 6.25 2.5 6.25 C2.5 6.91 2.5 7.57 2.5 8.25 C0.50045254 8.29254356 -1.50041636 8.29080783 -3.5 8.25 C-4.5 7.25 -4.5 7.25 -4.6875 4.8125 C-4.42807033 1.26696114 -3.53871738 0.35387174 0 0 Z " fill="#CB5C11" transform="translate(60.5,33.75)" />
<path d="M0 0 C0.33 0.66 0.66 1.32 1 2 C0.01 2.33 -0.98 2.66 -2 3 C-2.94921875 4.84765625 -2.94921875 4.84765625 -3.6875 7.0625 C-3.93886719 7.79597656 -4.19023438 8.52945313 -4.44921875 9.28515625 C-4.63097656 9.85105469 -4.81273437 10.41695312 -5 11 C-2.36 11.33 0.28 11.66 3 12 C3 12.33 3 12.66 3 13 C-3.625 13.25 -3.625 13.25 -7 11 C-7 10.34 -7 9.68 -7 9 C-9.0245738 10.93254772 -10.42105792 12.63158688 -12 15 C-11.64606658 9.10110973 -10.28564461 6.09517152 -6 2 C-2.6875 0.625 -2.6875 0.625 0 0 Z " fill="#EC9F2E" transform="translate(42,28)" />
<path d="M0 0 C0.66 0.66 1.32 1.32 2 2 C1.731875 3.0725 1.46375 4.145 1.1875 5.25 C0.00644242 12.46904857 5.66725392 20.74256178 9.734375 26.421875 C10.15203125 26.94265625 10.5696875 27.4634375 11 28 C4.84673933 25.02946037 2.73425207 22.29880051 0.01171875 16.1015625 C-1.62086567 11.09665118 -2.43132633 4.86265265 0 0 Z " fill="#BE7812" transform="translate(21,41)" />
<path d="M0 0 C0.33 0.66 0.66 1.32 1 2 C1.99 2.33 2.98 2.66 4 3 C1.75300597 8.68357313 -1.00932638 10.79843579 -6 14 C-6.66 13.67 -7.32 13.34 -8 13 C-7.34 12.34 -6.68 11.68 -6 11 C-6.33 10.34 -6.66 9.68 -7 9 C-6.67 8.34 -6.34 7.68 -6 7 C-3.4375 6.375 -3.4375 6.375 -1 6 C-0.67 4.02 -0.34 2.04 0 0 Z " fill="#D75714" transform="translate(79,54)" />
<path d="M0 0 C0.33 0 0.66 0 1 0 C0.99097656 0.63164063 0.98195313 1.26328125 0.97265625 1.9140625 C1.2098289 9.07048933 3.17126181 14.15261318 6.56079102 20.31494141 C9 24.75388501 9 24.75388501 9 28 C3.56783819 22.10222432 -1.28052762 15.34907763 -1.375 7.0625 C-1.24859966 4.38378512 -0.86317972 2.58953916 0 0 Z " fill="#603605" transform="translate(19,43)" />
<path d="M0 0 C0.66 0 1.32 0 2 0 C2.33 2.64 2.66 5.28 3 8 C5.31 8.66 7.62 9.32 10 10 C9.67 10.495 9.67 10.495 8 13 C6.68 12.67 5.36 12.34 4 12 C4.33 11.34 4.66 10.68 5 10 C3.02 10 1.04 10 -1 10 C-1.66 7.69 -2.32 5.38 -3 3 C-2.01 2.67 -1.02 2.34 0 2 C0 1.34 0 0.68 0 0 Z " fill="#FBE949" transform="translate(66,40)" />
<path d="M0 0 C0.66 0.33 1.32 0.66 2 1 C2.55826767 12.80632739 2.55826767 12.80632739 -1 17 C-2.29579647 18.36984198 -3.61992749 19.7151049 -5 21 C-4.62882591 17.28825908 -4.20684499 14.40507145 -2.5 11.0625 C-0.63520764 7.2552156 -0.36260127 4.20617478 0 0 Z " fill="#F49A28" transform="translate(86,43)" />
<path d="M0 0 C0.33 0.66 0.66 1.32 1 2 C2.9609375 2.37890625 2.9609375 2.37890625 5.375 2.5625 C8.19477465 2.78753088 10.28663703 3.09554568 13 4 C12.67 4.165 12.67 4.165 11 5 C11.33 7.31 11.66 9.62 12 12 C13.98 12 15.96 12 18 12 C18 12.66 18 13.32 18 14 C16.37536158 14.05395478 14.75021459 14.09277195 13.125 14.125 C12.67253906 14.13660156 12.67253906 14.13660156 10.3828125 14.1953125 C8 14 8 14 6 12 C6.33 11.38125 6.66 10.7625 7 10.125 C8 8 8 8 8 6 C7.071875 5.731875 6.14375 5.46375 5.1875 5.1875 C2.23759634 4.08851629 0.94384814 3.37581439 -1 1 C-0.67 0.67 -0.34 0.34 0 0 Z " fill="#FDEB5E" transform="translate(53,38)" />
<path d="M0 0 C0.33 0.99 0.66 1.98 1 3 C4.63 3 8.26 3 12 3 C12.49230769 10.26153846 12.49230769 10.26153846 10 14 C9.34 14.66 8.68 15.32 8 16 C8 14.68 8 13.36 8 12 C7.34 11.67 6.68 11.34 6 11 C6.66 11 7.32 11 8 11 C8 9.02 8 7.04 8 5 C5.36 5 2.72 5 0 5 C0 3.35 0 1.7 0 0 Z " fill="#F8B931" transform="translate(70,41)" />
<path d="M0 0 C10.8793854 -0.68873014 18.79351625 -0.68116315 28 6 C28 6.66 28 7.32 28 8 C24.91682447 7.04568376 22.13726582 6.07661348 19.3125 4.5 C15.3707062 2.71503677 11.89210774 2.23303774 7.625 1.8125 C6.88894531 1.73064453 6.15289062 1.64878906 5.39453125 1.56445312 C3.59745375 1.36607444 1.79885107 1.18159423 0 1 C0 0.67 0 0.34 0 0 Z " fill="#C36E0E" transform="translate(47,23)" />
<path d="M0 0 C21.81378535 -1.03194763 21.81378535 -1.03194763 30 5 C29.01 5.66 28.02 6.32 27 7 C24.609375 6.13671875 24.609375 6.13671875 21.75 4.6875 C14.46526903 1.40222917 7.89901713 1.11870108 0 1 C0 0.67 0 0.34 0 0 Z " fill="#864E10" transform="translate(50,20)" />
<path d="M0 0 C0.20625 0.61875 0.4125 1.2375 0.625 1.875 C2.54775888 4.84653645 4.66594527 5.13024659 8 6 C7.67 6.66 7.34 7.32 7 8 C9.31 8.33 11.62 8.66 14 9 C14 9.66 14 10.32 14 11 C10.04 10.67 6.08 10.34 2 10 C2 9.34 2 8.68 2 8 C1.34 8 0.68 8 0 8 C-1.125 5.6875 -1.125 5.6875 -2 3 C-1.34 2.01 -0.68 1.02 0 0 Z " fill="#F49B2D" transform="translate(37,55)" />
<path d="M0 0 C-9.79967367 3.33605912 -17.66445167 4.56547073 -28 4 C-24.09094054 1.50862611 -19.93620292 1.37408298 -15.4375 0.9375 C-1.53147842 -0.47528641 -1.53147842 -0.47528641 0 0 Z " fill="#804404" transform="translate(76,74)" />
<path d="M0 0 C0 1.32 0 2.64 0 4 C-0.66 4.33 -0.66 4.33 -4 6 C-2.68 6.66 -1.36 7.32 0 8 C-1.62414378 8.19477739 -3.24936423 8.38059458 -4.875 8.5625 C-5.77992187 8.66691406 -6.68484375 8.77132812 -7.6171875 8.87890625 C-10 9 -10 9 -12 8 C-12 7.34 -12 6.68 -12 6 C-10.02 5.67 -8.04 5.34 -6 5 C-6 4.34 -6 3.68 -6 3 C-2.53846154 0 -2.53846154 0 0 0 Z " fill="#FDEC64" transform="translate(51,37)" />
<path d="M0 0 C0.66 0 1.32 0 2 0 C2 0.99 2 1.98 2 3 C-1.85413037 5.56942025 -5.50500683 5 -10 5 C-11.3479743 5.63654342 -12.68596724 6.29605388 -14 7 C-16.25 6.625 -16.25 6.625 -18 6 C-18 5.34 -18 4.68 -18 4 C-16.86820313 3.87882812 -15.73640625 3.75765625 -14.5703125 3.6328125 C-13.08848969 3.46399724 -11.60672158 3.29470145 -10.125 3.125 C-9.75181641 3.08568359 -9.75181641 3.08568359 -7.86328125 2.88671875 C-2.2265625 2.2265625 -2.2265625 2.2265625 0 0 Z " fill="#FCA42E" transform="translate(70,62)" />
<path d="M0 0 C3.0625 0.1875 3.0625 0.1875 5.0625 2.1875 C4.6875 4.3125 4.6875 4.3125 4.0625 6.1875 C2.7425 6.1875 1.4225 6.1875 0.0625 6.1875 C0.0625 5.5275 0.0625 4.8675 0.0625 4.1875 C-0.9275 4.1875 -1.9175 4.1875 -2.9375 4.1875 C-3.2675 3.1975 -3.5975 2.2075 -3.9375 1.1875 C-2.9375 0.1875 -2.9375 0.1875 0 0 Z " fill="#D62F12" transform="translate(63.9375,52.8125)" />
<path d="M0 0 C1.25433458 3.76300374 1.10695422 7.27210909 1.0625 11.1875 C1.05798828 11.93708984 1.05347656 12.68667969 1.04882812 13.45898438 C1.03706354 15.30602383 1.01912865 17.15302213 1 19 C-1 18 -1 18 -2.1875 15.5625 C-3.26135855 10.8540433 -2.69285153 6.73760642 -2 2 C-1.34 2 -0.68 2 0 2 C0 1.34 0 0.68 0 0 Z " fill="#FA9E33" transform="translate(24,38)" />
<path d="M0 0 C0 0.99 0 1.98 0 3 C-1.98 3 -3.96 3 -6 3 C-6.33 3.99 -6.66 4.98 -7 6 C-9.31 6.33 -11.62 6.66 -14 7 C-13.67 6.01 -13.34 5.02 -13 4 C-12.01 4 -11.02 4 -10 4 C-10 3.34 -10 2.68 -10 2 C-6.38026598 0.68373308 -3.90432869 0 0 0 Z " fill="#FEC433" transform="translate(53,26)" />
<path d="M0 0 C3 1 3 1 4.6875 3.9375 C6 7 6 7 6 9 C3.69 9.33 1.38 9.66 -1 10 C-0.67 6.7 -0.34 3.4 0 0 Z " fill="#F9B239" transform="translate(72,30)" />
<path d="M0 0 C0.66 0.66 1.32 1.32 2 2 C4.93172481 4.52734897 7.16555504 5.4674382 11 6 C11 6.33 11 6.66 11 7 C8.36 7 5.72 7 3 7 C3 6.34 3 5.68 3 5 C-0.63 5 -4.26 5 -8 5 C-6.68 4.34 -5.36 3.68 -4 3 C-2.64886795 2.02418241 -1.31053056 1.02970259 0 0 Z " fill="#FDC636" transform="translate(48,59)" />
<path d="M0 0 C2.64 0 5.28 0 8 0 C7.67 1.65 7.34 3.3 7 5 C4.69 4.67 2.38 4.34 0 4 C0 2.68 0 1.36 0 0 Z " fill="#BE3406" transform="translate(71,40)" />
<path d="M0 0 C1.98 0 3.96 0 6 0 C6.5625 1.9375 6.5625 1.9375 7 4 C6 5 6 5 2.4375 5.0625 C1.303125 5.041875 0.16875 5.02125 -1 5 C-0.67 3.35 -0.34 1.7 0 0 Z " fill="#C85310" transform="translate(56,26)" />
<path d="M0 0 C0.4846875 0.0103125 0.4846875 0.0103125 2.9375 0.0625 C3.5 2 3.5 2 3.9375 4.0625 C2.9375 5.0625 2.9375 5.0625 -0.125 5.125 C-1.094375 5.104375 -2.06375 5.08375 -3.0625 5.0625 C-3.625 3.125 -3.625 3.125 -4.0625 1.0625 C-3.0625 0.0625 -3.0625 0.0625 0 0 Z " fill="#D4671B" transform="translate(48.0625,44.9375)" />
<path d="M0 0 C0.66 1.32 1.32 2.64 2 4 C1.67 4.165 1.67 4.165 0 5 C0 5.99 0 6.98 0 8 C0.99 7.67 1.98 7.34 3 7 C3 8.65 3 10.3 3 12 C1.35 12.33 -0.3 12.66 -2 13 C-2.16682272 8.07872966 -2.24828052 4.49656104 0 0 Z " fill="#FAD03B" transform="translate(32,38)" />
<path d="M0 0 C0.825 0.165 0.825 0.165 5 1 C5 1.66 5 2.32 5 3 C6.485 3.33 6.485 3.33 14 5 C13.67 5.66 13.34 6.32 13 7 C7.71862571 6.48474397 4.42778844 4.74522883 0 2 C0 1.34 0 0.68 0 0 Z " fill="#F1A541" transform="translate(31,66)" />
<path d="M0 0 C4.29500117 0.47722235 6.24620428 2.83313492 9 6 C10.46252654 8.28608517 11.72802292 10.59737662 13 13 C12.67 13.165 12.67 13.165 11 14 C10.54109375 13.32453125 10.0821875 12.6490625 9.609375 11.953125 C8.99578125 11.06109375 8.3821875 10.1690625 7.75 9.25 C7.14671875 8.36828125 6.5434375 7.4865625 5.921875 6.578125 C4.10858668 4.14566506 2.19950731 2.08271931 0 0 Z " fill="#663507" transform="translate(78,26)" />
<path d="M0 0 C1.64666203 0.1135629 3.29236082 0.24117381 4.9375 0.375 C5.85402344 0.44460937 6.77054688 0.51421875 7.71484375 0.5859375 C8.09189453 0.65425781 8.09189453 0.65425781 10 1 C10.33 1.66 10.66 2.32 11 3 C13.5625 3.625 13.5625 3.625 16 4 C16 4.66 16 5.32 16 6 C14.02 6.33 12.04 6.66 10 7 C10 6.34 10 5.68 10 5 C8.35 4.34 8.35 4.34 0 1 C0 0.67 0 0.34 0 0 Z " fill="#C5450F" transform="translate(42,65)" />
<path d="M0 0 C0.99 0 1.98 0 3 0 C2.67 2.31 2.34 4.62 2 7 C-0.64 7.33 -3.28 7.66 -6 8 C-6.33 6.68 -6.66 5.36 -7 4 C-4.69 4 -2.38 4 0 4 C0 2.68 0 1.36 0 0 Z " fill="#FEEB72" transform="translate(51,45)" />
<path d="M0 0 C3.98021881 2.16069021 6.97250324 4.62650361 10 8 C10 8.66 10 9.32 10 10 C9.34 10 8.68 10 8 10 C8 9.34 8 8.68 8 8 C7.236875 7.71125 6.47375 7.4225 5.6875 7.125 C3 6 3 6 0 4 C0 2.68 0 1.36 0 0 Z " fill="#B74207" transform="translate(75,30)" />
<path d="M0 0 C-4.23000664 4.68322164 -8.60569379 4.60633357 -14.55078125 4.921875 C-14.95490234 4.93476562 -14.95490234 4.93476562 -17 5 C-13.86875441 3.36017707 -10.6857317 2.04844701 -7.375 0.8125 C-6.41335937 0.44769531 -5.45171875 0.08289063 -4.4609375 -0.29296875 C-2 -1 -2 -1 0 0 Z " fill="#735D40" transform="translate(73,77)" />
<path d="M0 0 C0.33 0 0.66 0 1 0 C1.738041 14.78132118 1.738041 14.78132118 -3 21 C-3.66 20.67 -4.32 20.34 -5 20 C-2.125 14.125 -2.125 14.125 -1 13 C-0.76518307 10.81707226 -0.58636677 8.62796826 -0.4375 6.4375 C-0.35371094 5.23996094 -0.26992187 4.04242188 -0.18359375 2.80859375 C-0.12300781 1.88175781 -0.06242187 0.95492187 0 0 Z " fill="#C57C0D" transform="translate(88,42)" />
<path d="M0 0 C5.22621555 0.80403316 8.99387017 3.83500756 12.375 7.75 C12.91125 8.4925 13.4475 9.235 14 10 C13.67 10.66 13.34 11.32 13 12 C11.99403703 11.0479279 10.99538437 10.08812654 10 9.125 C9.443125 8.59132813 8.88625 8.05765625 8.3125 7.5078125 C7 6 7 6 7 4 C6.401875 3.896875 5.80375 3.79375 5.1875 3.6875 C2.71756736 2.91123545 1.67748765 1.92911079 0 0 Z " fill="#C2791E" transform="translate(73,25)" />
<path d="M0 0 C0 0.66 0 1.32 0 2 C1.32 2 2.64 2 4 2 C4 2.66 4 3.32 4 4 C1.29120665 5.35439668 -1.00933268 5.06501451 -4 5 C-4 3.68 -4 2.36 -4 1 C-2 0 -2 0 0 0 Z " fill="#E33B2A" transform="translate(43,55)" />
<path d="M0 0 C4.29186838 3.72714886 5.63433385 6.53733539 7 12 C7.66 12.33 8.32 12.66 9 13 C6.64453125 12.80859375 6.64453125 12.80859375 4 12 C2.63671875 9.78515625 2.63671875 9.78515625 1.6875 7.0625 C1.36136719 6.16660156 1.03523438 5.27070312 0.69921875 4.34765625 C0 2 0 2 0 0 Z " fill="#DC8716" transform="translate(30,51)" />
<path d="M0 0 C2.1385485 2.1385485 2.42655063 3.13275314 3 6 C5.31 6.66 7.62 7.32 10 8 C9.67 8.495 9.67 8.495 8 11 C1.95057034 8.87452471 1.95057034 8.87452471 0 6 C-0.1875 2.8125 -0.1875 2.8125 0 0 Z " fill="#A72C02" transform="translate(32,57)" />
<path d="M0 0 C1.32 0 2.64 0 4 0 C4.33 2.31 4.66 4.62 5 7 C4.01 7 3.02 7 2 7 C0 5 0 5 -0.125 2.375 C-0.08375 1.59125 -0.0425 0.8075 0 0 Z " fill="#F6E746" transform="translate(51,55)" />
<path d="M0 0 C-1.33333333 0.66666667 -2.66666667 1.33333333 -4 2 C-4.495 2.28875 -4.495 2.28875 -7 3.75 C-10 5 -10 5 -12.375 4.1875 C-12.643125 3.9915625 -12.643125 3.9915625 -14 3 C-9.18448679 0.42026078 -5.47161276 -0.12435484 0 0 Z " fill="#B34F06" transform="translate(52,24)" />
<path d="M0 0 C2.0625 0.4375 2.0625 0.4375 4 1 C4.33 2.32 4.66 3.64 5 5 C3.35 5 1.7 5 0 5 C-0.5625 3.0625 -0.5625 3.0625 -1 1 C-0.67 0.67 -0.34 0.34 0 0 Z " fill="#CD2A0E" transform="translate(58,36)" />
<path d="M0 0 C0.33 1.65 0.66 3.3 1 5 C-0.32 4.67 -1.64 4.34 -3 4 C-2.67 3.67 -2.34 3.34 -2 3 C-4.31 2.67 -6.62 2.34 -9 2 C-5.5647952 -0.29013653 -4.014669 -0.17842973 0 0 Z " fill="#F8C42D" transform="translate(71,29)" />
<path d="M0 0 C5.4611399 0.35233161 5.4611399 0.35233161 8 1 C9.5 3.0625 9.5 3.0625 10 5 C5.2482602 4.56802365 3.07999946 3.67230705 0 0 Z " fill="#F3AE42" transform="translate(65,23)" />
<path d="M0 0 C-2.25 2.0625 -2.25 2.0625 -5 4 C-7.3125 3.75 -7.3125 3.75 -9 3 C-8.34 3 -7.68 3 -7 3 C-7 2.34 -7 1.68 -7 1 C-7.66 0.67 -8.32 0.34 -9 0 C-3.375 -1.125 -3.375 -1.125 0 0 Z " fill="#E88E2A" transform="translate(73,70)" />
<path d="M0 0 C0.66 0 1.32 0 2 0 C2 1.98 2 3.96 2 6 C0 6 -2 6 -4 6 C-1.125 1.125 -1.125 1.125 0 0 Z " fill="#F7DA4E" transform="translate(54,34)" />
<path d="M0 0 C0.33 0.99 0.66 1.98 1 3 C-1.31 3.66 -3.62 4.32 -6 5 C-6 4.34 -6 3.68 -6 3 C-6.66 3 -7.32 3 -8 3 C-8 2.34 -8 1.68 -8 1 C-2.25 0 -2.25 0 0 0 Z " fill="#FCCE47" transform="translate(62,31)" />
<path d="M0 0 C5.26053037 -0.31563182 8.44573816 0.33409063 13 3 C9.25 5 9.25 5 7 5 C6.67 4.01 6.34 3.02 6 2 C5.01 1.835 5.01 1.835 0 1 C0 0.67 0 0.34 0 0 Z " fill="#FAA33E" transform="translate(56,25)" />
<path d="M0 0 C0.598125 0.309375 1.19625 0.61875 1.8125 0.9375 C4 2 4 2 7 3 C7.33 3.99 7.66 4.98 8 6 C6.68 6.33 5.36 6.66 4 7 C3.34 5.845 3.34 5.845 0 0 Z " fill="#794209" transform="translate(26,66)" />
<path d="M0 0 C4.92307692 4.30769231 4.92307692 4.30769231 5.3125 7.8125 C5.209375 8.534375 5.10625 9.25625 5 10 C2.20294175 8.60147088 2.09085007 6.86348142 1 4 C0.34 3.01 -0.32 2.02 -1 1 C-0.67 0.67 -0.34 0.34 0 0 Z " fill="#E28925" transform="translate(83,34)" />
<path d="M0 0 C2.50037734 2.17424117 3.43628586 3.73045798 4 7 C2.68 7.33 1.36 7.66 0 8 C-1.09658936 4.71023192 -0.79953138 3.28696233 0 0 Z " fill="#E77F1F" transform="translate(25,52)" />
<path d="M0 0 C1.32 0.66 2.64 1.32 4 2 C3.67 3.98 3.34 5.96 3 8 C2.67 7.01 2.34 6.02 2 5 C-0.31 5 -2.62 5 -5 5 C-5 4.67 -5 4.34 -5 4 C-3.02 4 -1.04 4 1 4 C0.67 2.68 0.34 1.36 0 0 Z " fill="#E87921" transform="translate(77,35)" />
<path d="M0 0 C-0.33 1.65 -0.66 3.3 -1 5 C-1.99 5.33 -2.98 5.66 -4 6 C-4 4.35 -4 2.7 -4 1 C-2 0 -2 0 0 0 Z " fill="#F7D42C" transform="translate(78,53)" />
<path d="M0 0 C1.65 0 3.3 0 5 0 C5.66 1.32 6.32 2.64 7 4 C2.25 3.125 2.25 3.125 0 2 C0 1.34 0 0.68 0 0 Z " fill="#DD5320" transform="translate(59,57)" />
<path d="M0 0 C0.33 0.66 0.66 1.32 1 2 C1.99 2.33 2.98 2.66 4 3 C3.67 3.66 3.34 4.32 3 5 C2.01 5 1.02 5 0 5 C0 5.66 0 6.32 0 7 C-0.99 6.67 -1.98 6.34 -3 6 C-2.34 6 -1.68 6 -1 6 C-0.67 4.02 -0.34 2.04 0 0 Z " fill="#DB5A17" transform="translate(79,54)" />
<path d="M0 0 C3.99996286 1.33332095 4.83782337 3.4957827 7 7 C4.50638429 5.79618552 2.31856917 4.54571278 0 3 C0 2.01 0 1.02 0 0 Z " fill="#B06312" transform="translate(25,62)" />
<path d="M0 0 C0.66 0 1.32 0 2 0 C1.67 1.32 1.34 2.64 1 4 C-0.98 4 -2.96 4 -5 4 C-5 3.34 -5 2.68 -5 2 C-3.35 2 -1.7 2 0 2 C0 1.34 0 0.68 0 0 Z " fill="#CA4D0A" transform="translate(79,59)" />
<path d="M0 0 C2.31 0.33 4.62 0.66 7 1 C6.67 1.165 6.67 1.165 5 2 C4.67 2.99 4.34 3.98 4 5 C2.68 3.35 1.36 1.7 0 0 Z " fill="#FAD936" transform="translate(32,53)" />
<path d="M0 0 C0.66 0 1.32 0 2 0 C2 0.66 2 1.32 2 2 C3.32 2.33 4.64 2.66 6 3 C5.67 4.32 5.34 5.64 5 7 C2.47411298 4.63707344 1.11179163 3.33537489 0 0 Z " fill="#766046" transform="translate(84,28)" />
<path d="M0 0 C1.98 0 3.96 0 6 0 C5.67 0.99 5.34 1.98 5 3 C3.35 3 1.7 3 0 3 C0 2.01 0 1.02 0 0 Z " fill="#BA2402" transform="translate(55,27)" />
</svg>