<svg xmlns="http://www.w3.org/2000/svg" width="64" height="64" viewBox="0 0 64 64"><defs></defs><g fill="#123866"><path d="M3.3 17.5c-.5.5-1.1.5-1.5.1-.4-.4-.4-1.1.1-1.5L12 5.9c.5-.5 1.1-.5 1.5-.1.4.4.4 1.1-.1 1.5L3.3 17.5zM6.6 20.8c-.5.5-1.2.5-1.6 0-.5-.5-.5-1.2 0-1.6L15 9c.5-.5 1.2-.5 1.6 0 .5.5.5 1.2 0 1.6l-10 10.2zM9.6 23.8c-.5.5-1.2.5-1.6 0-.5-.5-.5-1.2 0-1.6l11-11c.5-.5 1.2-.5 1.6 0 .5.5.5 1.2 0 1.6l-11 11zM12.7 26.9c-.5.5-1.2.5-1.6 0-.5-.5-.5-1.2 0-1.6l11.8-11.8c.5-.5 1.2-.5 1.6 0 .5.5.5 1.2 0 1.6L12.7 26.9zM15.8 30c-.5.5-1.2.5-1.6 0-.5-.5-.5-1.2 0-1.6L26 16.6c.5-.5 1.2-.5 1.6 0 .5.5.5 1.2 0 1.6L15.8 30zM18.9 33.1c-.5.5-1.2.5-1.6 0-.5-.5-.5-1.2 0-1.6L29 19.7c.5-.5 1.2-.5 1.6 0 .5.5.5 1.2 0 1.6L18.9 33.1zM22 36.2c-.5.5-1.2.5-1.6 0-.5-.5-.5-1.2 0-1.6l11.8-11.8c.5-.5 1.2-.5 1.6 0 .5.5.5 1.2 0 1.6L22 36.2zM25 39.2c-.5.5-1.2.5-1.6 0-.5-.5-.5-1.2 0-1.6l11.8-11.8c.5-.5 1.2-.5 1.6 0 .5.5.5 1.2 0 1.6L25 39.2zM28.1 42.3c-.5.5-1.2.5-1.6 0-.5-.5-.5-1.2 0-1.6l11.8-11.8c.5-.5 1.2-.5 1.6 0 .5.5.5 1.2 0 1.6L28.1 42.3zM31.7 46c-.5.5-1.3.3-1.9-.3-.6-.6-.7-1.5-.3-1.9L41.3 32c.5-.5 1.3-.3 1.9.3.6.6.7 1.5.3 1.9L31.7 46zM45.8 41c.4-.9.5-2 .1-3-.7-2-2.9-3-4.9-2.2-1.4.5-2.3 1.9-2.4 3.3.4-.4.8-.7 1.4-.9 1.7-.7 3.6 0 4.6 1.6l1.2 1.2z"></path></g><path fill="#00233F" d="M34.2 27.8c23 24.1 22.2 36.2 27.4 28.7C63.3 54 65 52.2 40 27.2 26.1 13.1 13 3.5 10.8 5.6 9.7 6.8 12.5 5 34.2 27.8z"></path><path fill="#123866" d="M34.2 27.8c23 24.1 22.2 36.2 27.4 28.7"></path><circle fill="#DD7B19" cx="58.7" cy="53.6" r="1.6"></circle><path fill="#DB5B1B" d="M60.3 53.6c0 .9-.7 1.6-1.6 1.6-.9 0-1.6-.7-1.6-1.6"></path></svg>