<svg xmlns="http://www.w3.org/2000/svg" width="64" height="64" viewBox="0 0 64 64"><defs></defs><path fill="#BF7616" d="M21 30.6c0 .8-.6 1.4-1.4 1.4h-8.2c-.8 0-1.4-.6-1.4-1.4v-.2c0-.8.6-1.4 1.4-1.4h8.2c.8 0 1.4.6 1.4 1.4v.2zM12 31.4c-.6.5-1.5.4-2-.3l-4.9-6.5c-.5-.6-.4-1.5.3-2 .6-.5 1.5-.4 2 .3l4.9 6.5c.5.7.4 1.6-.3 2zM7.3 23.2c.4.7.5 1.4 0 1.7l-4.2 2.8c-.4.3-1.1 0-1.6-.7-.4-.6-.5-1.4 0-1.7l4.2-2.8c.4-.3 1.1 0 1.6.7z"></path><path fill="#BF720C" d="M23.3 48.9c1.8 1.9 4.5-2.6 9-6.8 4.6-4.2 4.9-2.5 3.2-4.4-1.8-1.9-2.5-4.1-7.1.1-4.6 4.2-6.8 9.2-5.1 11.1z"></path><path fill="#A05A07" d="M32.3 42c4.6-4.2 4.9-2.5 3.2-4.4-1.8-1.9-2.5-4.1-7.1.1"></path><path fill="#BF720C" d="M62.8 33.5c0 2.3-4.4 1-9.9 1s-4.6 1.3-4.6-1-.8-4.1 4.6-4.1c5.5 0 9.9 1.8 9.9 4.1z"></path><path fill="#A05A07" d="M52.9 34.4c-5.5 0-4.6 1.3-4.6-1s-.8-4.1 4.6-4.1"></path><path fill="#E29524" d="M49.5 20c5.8 9.2-1.9 14.2-10.5 18.3-8.7 4.1-18 2.5-20.8-3.5-2.8-6 5.5-6.6 14.1-10.7 8.6-4 13.6-9.7 17.2-4.1z"></path><path fill="#CE811B" d="M38.9 38.2l-8.6-5.7-4.5 6.8 2 1.3c3.4.3 7.3-.4 11-2.2l.1-.2zM32.2 24.2c8.7-4.1 13.7-9.8 17.2-4.1 5.8 9.2-1.9 14.2-10.5 18.3"></path><path fill="#512E04" d="M59 18.8c0 7.7-6.1 13.9-13.7 13.9-7.5 0-13.7-6.2-13.7-13.9 0-2.2 3.4-13.9 13.7-13.9C52.9 4.8 59 11.1 59 18.8z"></path><path fill="#2B1500" d="M45.3 4.8C52.8 4.8 59 11 59 18.7s-6.1 13.9-13.7 13.9"></path><path fill="#E29524" d="M57.6 20.4c0 3.5.9 6.7-4.7 6.6-2.8-.1-5.4-3-5.4-6.6 0-6.3-.5-6.4 5.1-6.4 5.5.1 5 2.9 5 6.4zM57.2 35.8c0 2.6-5 1.1-11.3 1.1-6.2 0-5.3 1.5-5.3-1.1s-.9-4.7 5.3-4.7c6.3 0 11.3 2.1 11.3 4.7zM8.6 50.4c1.4 2.2 4.8-1.9 10-5.3s5.2-1.7 3.8-3.8-1.8-4.4-7-1c-5.2 3.4-8.2 7.9-6.8 10.1z"></path><ellipse fill="#E29524" cx="24.3" cy="35.8" rx="8.3" ry="7.5"></ellipse><path fill="#E29524" d="M60 23.3c0 2-1.6 3.7-3.6 3.7H54c-2 0-4-1.8-4-3.7V21c0-2 2-4 4-4h4.4c2 0 1.6 2.1 1.6 4v2.3z"></path><path fill="#DDBA28" d="M30.7 27.1c.1.3 0 .7-.4.9l-7 2.8c-.4.1-.7 0-.9-.4-.1-.3 0-.7.4-.9l7-2.8c.4-.1.8.1.9.4z"></path><path fill="#E29524" d="M50.8 14.6c.8 1.7-.5 1-1.4 1.4-.9.5-1.1 1.9-2 .3-.8-1.7-.8-3.4.2-3.8s2.4.5 3.2 2.1z"></path><path fill="#BF7616" d="M50.2 15.2c.6 1.3-.4.7-1.1 1.1s-.9 1.5-1.5.2-.6-2.6.1-3c.7-.3 1.8.4 2.5 1.7z"></path><path fill="#E29524" d="M54.1 14.3c-.9 1.4.3.9 1.1 1.4.8.5.8 1.8 1.8.4.9-1.4 1-3 .2-3.5-.8-.4-2.2.3-3.1 1.7z"></path><path fill="#032B27" d="M52.6 16.8c-.1 0-.2 0-.3.1.1.1.2.3.2.4 0 .4-.3.7-.7.7.1.4.4.6.8.6.5 0 .9-.4.9-.9s-.4-.9-.9-.9z"></path><path fill="#1D4F49" d="M53.5 17.7c0-.5-.4-.9-.9-.9-.1 0-.2 0-.3.1.1.1.2.3.2.4 0 .4-.3.7-.7.7"></path><path fill="#032B27" d="M60.4 18.5c0 .9-.7 1.5-1.6 1.5h-.4c-.9 0-1.6-.6-1.6-1.5s.7-1.5 1.6-1.5h.4c.9 0 1.6.6 1.6 1.5z"></path><path fill="#1D4F49" d="M59 18.3c0 .5-.4.8-.8.8H58c-.5 0-.8-.4-.8-.8 0-.5.4-.8.8-.8h.2c.4 0 .8.4.8.8z"></path><circle fill="#DDBA28" cx="54.9" cy="21.9" r=".5"></circle><circle fill="#DDBA28" cx="53" cy="21.7" r=".3"></circle><circle fill="#DDBA28" cx="54.8" cy="20.3" r=".3"></circle><circle fill="#DDBA28" cx="53.9" cy="23.7" r=".3"></circle><path fill="#417F0B" d="M34.7 53c-5 1.6-12.2-7-16-19.2-3.8-12.2-2.9-23.3 2.1-24.9 2.4-.7 5.2.8 8 3.9-4.4-6.6-9.3-10.2-13.3-9-6.4 2-7.7 16.3-2.7 31.9 4.9 15.6 14.1 26.6 20.5 24.5 3.9-1.2 5.9-7.1 5.7-15-.5 4.1-2 7-4.3 7.8z"></path><path fill="#6DB52D" d="M16.7 35.7C11.9 20.4 13 6.3 19.1 3.9c-1.3-.4-2.5-.5-3.7-.1-6.4 2-7.7 16.3-2.7 31.9 4.9 15.6 14.1 26.6 20.5 24.5.1 0 .2-.1.3-.1-5.8-2-12.7-11.7-16.8-24.4z"></path><path fill="#DDBA28" d="M55.7 15.5c0 .2-.2.5-.4.5H52c-.2 0-.4-.3-.4-.5s.2-.5.4-.5h3.3c.2 0 .4.3.4.5z"></path><path fill="#7C4912" d="M36.4 10.6c-2.2 2.9-3.1 5.8-2.2 6.5.9.7 3.5-1.1 5.6-4C42 10.3 43 7.4 42 6.7c-.9-.7-3.4 1-5.6 3.9z"></path><ellipse fill="#DDBA28" cx="50.7" cy="19.6" rx="1.8" ry="1"></ellipse></svg>