<svg xmlns="http://www.w3.org/2000/svg" width="64" height="64" viewBox="0 0 64 64"><defs></defs><path fill="#2F423F" d="M31 29h2v29h-2z"></path><path fill="#4C5254" d="M45.1 23.8c0 7.2-5.9 13.1-13.1 13.1-7.2 0-13.1-5.9-13.1-13.1 0-7.2 5.9-13.1 13.1-13.1 7.2 0 13.1 5.9 13.1 13.1z"></path><path fill="#2F423F" d="M41.2 14.6c5.1 5.1 5.1 13.4 0 18.5s-13.4 5.1-18.5 0"></path><path fill="#FFC114" d="M42.7 10c-7 5.9-10.4 8-10.1 12.3.4 5.5-10.1-5.5-10.1-12.3S27 .5 32.6.5 47.9 5.6 42.7 10z"></path><path fill="#FCA12A" d="M32.7.5C38.3.5 48 5.7 42.8 10c-7 5.9-10.4 8-10.1 12.3"></path><path fill="#FFC114" d="M45.8 34.6c-5.9-7-8-10.4-12.3-10.1-5.5.4 5.5-10.1 12.3-10.1 6.8 0 9.5 4.5 9.5 10.1 0 5.5-5.1 15.3-9.5 10.1z"></path><path fill="#FCA12A" d="M55.3 24.5c0 5.6-5.2 15.3-9.5 10.1-5.9-7-8-10.4-12.3-10.1"></path><path fill="#FCA12A" d="M21.3 37.7c7-5.9 10.4-8 10.1-12.3-.4-5.6 10.1 5.5 10.1 12.3 0 6.8-4.5 9.5-10.1 9.5S16.1 42 21.3 37.7z"></path><path fill="#FFC114" d="M31.3 47.2c-5.6 0-15.3-5.2-10.1-9.5 7-5.9 10.4-8 10.1-12.3"></path><path fill="#FCA12A" d="M18.2 13.1c5.9 7 8 10.4 12.3 10.1 5.5-.5-5.5 10-12.3 10s-9.5-4.5-9.5-10.1c0-5.5 5.1-15.2 9.5-10z"></path><path fill="#FFC114" d="M8.7 23.2c0-5.6 5.2-15.3 9.5-10.1 5.9 7 8 10.4 12.3 10.1"></path><circle fill="#32BA7C" cx="32" cy="23.8" r="3.1"></circle><path fill="#0AA06E" d="M34.2 21.7c1.2 1.2 1.2 3.1 0 4.3-1.2 1.2-3.1 1.2-4.3 0"></path><g fill="#F2EAC4"><path d="M6 5.9c-3 2.9-4.6 6.7-4.6 10.8h2.5c0-3.4 1.5-6.6 3.9-9.1C10.2 5.3 13 3.9 17 3.9V1.4C13 1.4 9 3 6 5.9zM8.9 9.2C7 11.1 6 13.7 6 16.5h2.6c0-2.1.6-4 2.1-5.5C12.1 9.5 14 8.7 16 8.7V6.1c-2 0-5.1 1.1-7.1 3.1zM58 41.7c3-2.9 4.6-6.7 4.6-10.8h-2.5c0 3.4-1.5 6.6-3.9 9.1S51 43.7 47 43.7v2.5c4 0 8-1.6 11-4.5zM55.1 38.5C57 36.6 58 34 58 31.2h-2.6c0 2.1-.6 4-2.1 5.5C51.9 38.2 50 39 48 39v2.5c2 0 5.1-1.1 7.1-3z"></path></g><path fill="#2F423F" d="M49.9 61.4c0 2.7-8 2-17.9 2-9.9 0-17.9.7-17.9-2s8-4.8 17.9-4.8c9.9 0 17.9 2.2 17.9 4.8z"></path><path fill="#3AC2F2" d="M25 58.2c0 1-.8 1.8-1.8 1.8h-2.5c-1 0-1.8-.8-1.8-1.8v-.5c0-1 .8-1.8 1.8-1.8h2.5c1 0 1.8.8 1.8 1.8v.5z"></path><path fill="#009CC6" d="M25 58.2c0 1-.8 1.8-1.8 1.8h-2.5c-1 0-1.8-.8-1.8-1.8"></path><path fill="#F15249" d="M45 58.2c0 1-.8 1.8-1.8 1.8h-2.5c-1 0-1.8-.8-1.8-1.8v-.5c0-1 .8-1.8 1.8-1.8h2.5c1 0 1.8.8 1.8 1.8v.5z"></path><path fill="#A00000" d="M45 58c.1 1.2-.8 2-1.8 2h-2.5c-.8.1-1.8-.6-1.8-1.8V58"></path></svg>