<svg xmlns="http://www.w3.org/2000/svg" width="64" height="64" viewBox="0 0 64 64"><defs></defs><path fill="#42A818" d="M15 16h2v45h-2z"></path><path fill="#357503" d="M15 16h2v9h-2z"></path><path fill="#0F507C" d="M26.1 16c-.6-8-5-14.5-10.2-14.5S6.2 8 5.6 16h20.5z"></path><path fill="#00233F" d="M6 16h20.1c-.6-8-5-14.5-10.2-14.5"></path><path fill="#B6CEDB" d="M7.3 9h17.2c-.4-1-.4-1-1-2H8.2c-.5 1-.6 1.1-.9 2zM6.3 12h19.2c-.1-.4-.2-.6-.3-1H6.5c-.1.4-.2.7-.2 1z"></path><path fill="#357503" d="M13 1h6v1h-6zM13 59h6v2h-6z"></path><path fill="#285600" d="M10 61h12v2H10zM17 32h4v1h-4zM22 34.3c0 .5-.5.9-1 .9s-1-.4-1-.9v-3.6c0-.5.5-.9 1-.9s1 .4 1 .9v3.6z"></path><path fill="#512E04" d="M30 4h28v32H30z"></path><path fill="#8EE3E8" d="M33 7h22v26H33z"></path><path fill="#6CCBD8" d="M33 7h22v26"></path><path fill="#512E04" d="M43 5h2v30h-2zM31 19h26v2H31z"></path></svg>