<svg xmlns="http://www.w3.org/2000/svg" width="64" height="64" viewBox="0 0 64 64"><defs></defs><path fill="#7B8484" d="M20.6 26.8c0 .6-.5 1.1-1.1 1.1L8.1 26.2c-.6 0-1 1.2-1 .6s.5-1.1 1.1-1.1h11.2c.6-.1 1.2.5 1.2 1.1z"></path><path fill="#B1BCBC" d="M38.3 22.1c.1.2 0 .4-.2.5l-1.9.8c-.2.1-.4 0-.5-.2-.1-.2 0-.4.2-.5l1.9-.8c.1-.1.4 0 .5.2z"></path><path fill="#2A3738" d="M37.6 41.6H24c-.1 0-.2 0-.3-.1l-4.6-2.3c-.3-.2-.4-.5-.3-.8.2-.3.5-.4.8-.3l4.5 2.3H37v-6L35.6 33c-.2-.2-.2-.6 0-.9.2-.2.6-.2.9 0l1.5 1.5c.1.1.2.3.2.4v7c0 .3-.3.6-.6.6z"></path><path fill="#7B8484" d="M36.5 36.7c0 2.4-1.9 4.3-4.3 4.3s-4.3-1.9-4.3-4.3v-4.2c0-2.4 1.9-4.3 4.3-4.3s4.3 1.9 4.3 4.3v4.2z"></path><path fill="#5A6363" d="M34.8 34.9c0 2.4-1.9 4.3-4.3 4.3s-4.3-1.9-4.3-4.3v-4.2c0-2.4 1.9-4.3 4.3-4.3s4.3 1.9 4.3 4.3v4.2z"></path><path fill="#7B8484" d="M35.5 26.9c.3.5.1 1.3-.6 1.8l-14 9.7c-.7.5-1.5.4-1.9-.1-.3-.5-.1-1.3.6-1.8l14-9.7c.8-.4 1.6-.4 1.9.1zM31 30.9c-.2.6-.9.9-1.5.7l-13.8-4.3c-.7-.2-1.1-.9-.9-1.4.2-.6.9-.9 1.5-.7l13.8 4.3c.7.2 1.1.9.9 1.4z"></path><path fill="#962000" d="M33.4 29.4c0 .8-.7 1.5-1.5 1.5l-8.4 2.6c-.8 0-2.3-3.4-2.3-4.2l1.3.1c0-.8.7-1.5 1.5-1.5h7.9c.8 0 1.5.6 1.5 1.5z"></path><path fill="#701E08" d="M22.5 29.3l-1.3-.1c0 .8 1.4 4.2 2.3 4.2l.8-.3v-.4c0-1.4-.7-2.6-1.8-3.4z"></path><path fill="#3F4F51" d="M32.5 28.5c-.1.9-3.9 1.5-4.8 1.3l-14.3-3.5c-.9-.1-1.6-1-1.5-1.8.1-.9.4-1 1.4-.8L27 25l4.3-.2c.9.1.2 1.2.1 2.1l1.1 1.6z"></path><path fill="#2A3738" d="M32.5 28.5c-.1.9-3.9 1.5-4.8 1.3l-14.3-3.5c-.9-.1-1.6-1-1.5-1.8.1-.9.6-.4 1.5-.3L26.5 26l4.7-1.3c.9.1.2 1.2.1 2.1l1.2 1.7z"></path><path fill="#3F4F51" d="M10.6 48.9c-5.3 0-9.6-4.3-9.6-9.6s4.3-9.6 9.6-9.6 9.6 4.3 9.6 9.6c.1 5.3-4.3 9.6-9.6 9.6zm0-16.5c-3.8 0-6.9 3.1-6.9 6.9 0 3.8 3.1 6.9 6.9 6.9 3.8 0 6.9-3.1 6.9-6.9 0-3.8-3.1-6.9-6.9-6.9z"></path><path fill="#7A8687" d="M10.6 46.5c-4 0-7.2-3.2-7.2-7.2s3.2-7.2 7.2-7.2 7.2 3.3 7.2 7.2c.1 4-3.2 7.2-7.2 7.2zm0-13.7c-3.6 0-6.5 2.9-6.5 6.5s2.9 6.5 6.5 6.5 6.5-2.9 6.5-6.5-2.9-6.5-6.5-6.5z"></path><g fill="#98A3A3"><path d="M10.8 45.7c0 .1-.1.1-.1.1-.1 0-.1-.1-.1-.1V32.9c0-.1.1-.1.1-.1.1 0 .1.1.1.1v12.8zM6.2 43.9c0 .1-.1.1-.2 0v-.2l9.1-9.1c.1-.1.1-.1.2 0s.1.1 0 .2l-9.1 9.1zM4.2 39.4c-.1 0-.1-.1-.1-.1 0-.1.1-.1.1-.1H17c.1 0 .1.1.1.1 0 .1-.1.1-.1.1H4.2zM6 34.9v-.2c.1-.1.1-.1.2 0l9.1 9.1c.1.1.1.1 0 .2s-.1.1-.2 0L6 34.9zM8.2 45.2c0 .1-.1.1-.2.1s-.1-.1-.1-.2L13 33.4c0-.1.1-.1.2-.1s.1.1.1.2L8.2 45.2zM4.7 41.8c-.1 0-.2 0-.2-.1s0-.2.1-.2l11.9-4.7c.1 0 .2 0 .2.1s0 .2-.1.2L4.7 41.8zM4.7 36.9c-.1 0-.1-.1-.1-.2s.1-.1.2-.1l11.7 5.1c.1 0 .1.1.1.2s-.1.1-.2.1L4.7 36.9zM8.2 33.4c0-.1 0-.2.1-.2s.2 0 .2.1l4.7 11.9c0 .1 0 .2-.1.2s-.2 0-.2-.1L8.2 33.4z"></path></g><path fill="#3F4F51" d="M54.1 48.9c-4.9 0-8.9-4-8.9-8.9s4-8.9 8.9-8.9 8.9 4 8.9 8.9-4 8.9-8.9 8.9zm0-15.3c-3.5 0-6.4 2.9-6.4 6.4s2.9 6.4 6.4 6.4c3.5 0 6.4-2.9 6.4-6.4s-2.9-6.4-6.4-6.4z"></path><path fill="#7A8687" d="M54.1 46.7c-3.7 0-6.7-3-6.7-6.7s3-6.7 6.7-6.7 6.7 3 6.7 6.7-3 6.7-6.7 6.7zm0-12.7c-3.3 0-6 2.7-6 6s2.7 6 6 6 6-2.7 6-6-2.7-6-6-6z"></path><g fill="#98A3A3"><path d="M54.2 45.9c0 .1-.1.1-.1.1-.1 0-.1-.1-.1-.1V34.1c0-.1.1-.1.1-.1.1 0 .1.1.1.1v11.8zM50 44.3c-.1.1-.1.1-.2 0s0-.1 0-.2l8.4-8.4h.2c.1.1.1.1 0 .2L50 44.3zM48.1 40.1c-.1 0-.1-.1-.1-.1 0-.1.1-.1.1-.1H60c.1 0 .1.1.1.1 0 .1-.1.1-.1.1H48.1zM49.8 35.9c-.1-.1-.1-.1 0-.2h.2l8.4 8.4c.1.1.1.1 0 .2s-.1.1-.2 0l-8.4-8.4z"></path></g><path fill="#98A3A3" d="M51.8 45.5c0 .1-.1.1-.2.1s-.1-.1-.1-.2l4.7-10.9c0-.1.1-.1.2-.1s.1.1.1.2l-4.7 10.9zM48.6 42.3c-.1 0-.1 0-.2-.1 0-.1 0-.1.1-.2l11-4.3c.1 0 .1 0 .2.1 0 .1 0 .1-.1.2l-11 4.3zM48.6 37.8c-.1 0-.1-.1-.1-.2s.1-.1.2-.1l10.9 4.7c.1 0 .1.1.1.2s-.1.1-.2.1l-10.9-4.7zM51.8 34.5c0-.1 0-.1.1-.2.1 0 .1 0 .2.1l4.3 11c0 .1 0 .1-.1.2-.1 0-.1 0-.2-.1l-4.3-11z"></path><path fill="#CE3F00" d="M47.4 36.9c.5-1.5 3.5-.1 5.1-.7l4.4-5.2c-1.3-2.1-4.6-2-7-1.1-2.9 1.1-6.3 4.6-5.8 8.9l3.3-1.9z"></path><path fill="#B72F00" d="M47.4 36.9c.5-1.5 3.5-.1 5.1-.7l4.4-5.2c-3.7 1.1-4.6-2-7-1.1-2.9 1.1-6.3 4.6-5.8 8.9l3.3-1.9z"></path><path fill="#98A3A3" d="M28.6 38.3c0 .8-.7 1.5-1.5 1.5H8.8c-.8 0-1.5-.7-1.5-1.5s.7-1.5 1.5-1.5h18.3c.9 0 1.5.7 1.5 1.5z"></path><path fill="#B1BCBC" d="M28.6 38.3c0 .8-.7 1.5-1.5 1.5l-17.2-2c-.8 0-2.6 1.3-2.6.5s.7-1.5 1.5-1.5h18.3c.9 0 1.5.7 1.5 1.5z"></path><path fill="#CE3F00" d="M13.8 30.7c1.2.1.7 2.6 1.5 3.6l4.7 2.3c1.3-1.4.6-3.7-.6-5.4-1.4-1.9-4.6-3.7-7.6-2.5l2 2z"></path><path fill="#B72F00" d="M13.8 30.7c1.2.1.7 2.6 1.5 3.6l4.7 2.3c-1.6-2.5.6-3.7-.6-5.4-1.4-1.9-4.6-3.7-7.6-2.5l2 2z"></path><path fill="#B1BCBC" d="M31.8 38c0 2.2-1.8 3.9-3.9 3.9-2.2 0-3.9-1.8-3.9-3.9 0-2.2 1.8-3.9 3.9-3.9 2.1 0 3.9 1.8 3.9 3.9z"></path><path fill="#98A3A3" d="M30.7 35.3c1.5 1.5 1.5 4 0 5.6-1.5 1.5-4 1.5-5.6 0"></path><path fill="#962000" d="M43 27.3c0 2.9-2.4 5.3-5.3 5.3H36c-2.9 0-5.3-2.4-5.3-5.3s1.8-3.8 4.7-3.8l3.5-1.4c3 0 4.1 2.3 4.1 5.2z"></path><path fill="#B72F00" d="M42.7 25c-.5-1.7-1-2.8-3.1-2.8l-4.1 1.3c-2.9 0-4.7.9-4.7 3.8 0 .8.2 1.5.5 2.2h3.6c4 .1 7.3-1.9 7.8-4.5z"></path><path fill="#2A3738" d="M55.1 40.1c.3.5.2 1.1-.3 1.4-.5.3-1.1.2-1.4-.3l-6.5-10c-.3-.5-.2-1.1.3-1.4.5-.3 1.1-.2 1.4.3l6.5 10z"></path><path fill="#B1BCBC" d="M37.2 33.8c0 .3-.3.6-.6.6h-4.5c-.3 0-.6-.3-.6-.6s.3-.6.6-.6h4.5c.3 0 .6.3.6.6z"></path><path fill="#98A3A3" d="M37.2 34.9c0 .3-.3.6-.6.6h-4.5c-.3 0-.6-.3-.6-.6s.3-.6.6-.6h4.5c.3 0 .6.3.6.6z"></path><path fill="#B1BCBC" d="M37.2 36c0 .3-.3.6-.6.6h-4.5c-.3 0-.6-.3-.6-.6s.3-.6.6-.6h4.5c.3 0 .6.3.6.6z"></path><path fill="#98A3A3" d="M37.2 37.1c0 .3-.3.6-.6.6h-4.5c-.3 0-.6-.3-.6-.6s.3-.6.6-.6h4.5c.3.1.6.3.6.6z"></path><path fill="#B1BCBC" d="M37.2 38.2c0 .3-.3.6-.6.6h-4.5c-.3 0-.6-.3-.6-.6s.3-.6.6-.6h4.5c.3.1.6.3.6.6z"></path><circle fill="#3F4F51" cx="40.5" cy="20" r="1.2"></circle><path fill="#CE3F00" d="M23.4 28.2c-.3 1.3-1.6 2-2.9 1.7-1.3-.3-15.3-5-15-6.3.3-1.3 14.9 1.3 16.2 1.7 1.3.4 2.1 1.7 1.7 2.9z"></path><path fill="#B72F00" d="M23.4 28.2c-.3 1.3-1.6 2-2.9 1.7-1.3-.3-15.4-5-15-6.3"></path><path fill="#3F4F51" d="M32.3 41.1c0 .7-.5 1.2-1.2 1.2s-1.2-.5-1.2-1.2.5-1.2 1.2-1.2 1.2.5 1.2 1.2z"></path><g fill="#B1BCBC"><path d="M21.6 35c.2.2.2.4.1.5-.1.1-.3.1-.5-.1l-1.3-1.3c-.2-.2-.2-.4-.1-.5.1-.1.3-.1.5.1l1.3 1.3zM22.2 34.4c.2.2.2.4.1.5-.1.1-.3.1-.5-.1l-1.3-1.3c-.2-.2-.2-.4-.1-.5.1-.1.3-.1.5.1l1.3 1.3zM22.8 33.8c.2.2.2.4.1.5-.1.1-.3.1-.5-.1l-1.3-1.3c-.2-.2-.2-.4-.1-.5.1-.1.3-.1.5.1l1.3 1.3zM23.4 33.2c.2.2.2.4.1.5-.1.1-.3.1-.5-.1l-1.3-1.3c-.2-.2-.2-.4-.1-.5.1-.1.3-.1.5.1l1.3 1.3zM24 32.6c.2.2.2.4.1.5-.1.1-.3.1-.5-.1l-1.3-1.3c-.2-.2-.2-.4-.1-.5.1-.1.3-.1.5.1l1.3 1.3z"></path></g><path fill="#B72F00" d="M21.7 39.5c-.3.7-1.1 1-1.8.7l-8.2-3.8c-.7-.3-1-1.1-.7-1.8.3-.7 1.6-2.1 2.3-1.7l7.7 4.9c.7.2 1 1 .7 1.7z"></path><path fill="#CE3F00" d="M12.2 35l-.5-.5c.3-.7 1-2.1 1.7-1.8l7.7 4.9c.7.3 1 1.1.7 1.8-.3.7-1.1 1-1.8.7"></path><path fill="#B72F00" d="M21.9 40.1c-.1.7-.8 1.3-1.5 1.1l-9-1.4c-.7-.1-1.3-.8-1.1-1.6.1-.7 1-2.4 1.7-2.3l8.8 2.6c.7.2 1.2.9 1.1 1.6z"></path><path fill="#CE3F00" d="M11.5 38.6l-.7-.4c.1-.7.4-2.3 1.1-2.2l8.8 2.6c.7.1 1.3.8 1.1 1.5-.1.7-.8 1.3-1.5 1.1"></path><path fill="#B72F00" d="M51.4 26.8c-2.2 2.6-14.3 14.1-19.3 12.9-5-1.1 11.5-12.5 9.4-19.7-1-3.2-8.2-5.8-3.3-4.7 5 1.2 16.2 8 13.2 11.5z"></path><path fill="#CE3F00" d="M38.2 15.3c-5-1.1 2.3 1.5 3.3 4.7.4 1.4.1 3-.6 4.6l3.1 1.8c2.2 1.3 5 1.2 7.6-.1 1.8-3.6-8.6-9.9-13.4-11z"></path><path fill="#FFB000" d="M47.3 21.7c0 1.1 2.1 3.7 4.5 4.7.7-1.5-.6-3.4-2.8-5.2-1.1-.2-1.7-.2-1.7.5z"></path><path fill="#FF8500" d="M47.3 21.7c0 1.1 2.1 3.7 4.5 4.7.7-1.5-.6-2.9-2.7-4.7-1.1-.2-1.8-.7-1.8 0z"></path><path fill="#CE3F00" d="M16.2 24.8c-.2-1.8-1.6-3.3-3.5-3.6-1.9-.3-6 .7-6.8 2.4l10.3 1.2z"></path></svg>