<svg xmlns="http://www.w3.org/2000/svg" width="64" height="64" viewBox="0 0 64 64"><defs></defs><path fill="#AF894A" d="M2.045 30.42S3 3.63 30 2.21v3.076S8.194 3.314 2.553 30.773"></path><path fill="#876630" d="M30 5.286V2.89C7 4.463 3.316 25.04 2.742 29.98 8.644 3.37 30 5.286 30 5.286z"></path><path fill="#AF894A" d="M60.957 30.42S60 3.63 33 2.21v3.076s21.806-1.972 27.45 25.487"></path><path fill="#876630" d="M33 5.286V2.89c23 1.572 26.684 22.15 27.258 27.09C54.358 3.37 33 5.287 33 5.287z"></path><path fill="#CEB746" d="M4 35.688C4 36.412 3.412 37 2.688 37h-.376C1.588 37 1 36.412 1 35.688v-3.375C1 31.588 1.588 31 2.312 31h.375C3.412 31 4 31.588 4 32.312v3.376z"></path><path fill="#BAA035" d="M4 33v2.96c0 .726-.775 1.313-1.5 1.313-.724 0-1.5-.588-1.5-1.312V33"></path><path fill="#F4DF78" d="M4 37.148c0 .656-.345 1.188-1 1.188-.656 0-1-.53-1-1.188v-6.75c0-.656.344-1.188 1-1.188.655 0 1-.47 1 .188v7.75z"></path><path fill="#E5D265" d="M2 31.62v5.528c0 .656.344 1.188 1 1.188.655 0 1-.53 1-1.188v-4.746c0-.177-1-.443-2-.78z"></path><path fill="#CEB746" d="M2 32.914v4.234c0 .656.344 1.188 1 1.188.655 0 1 .47 1-.188V34.32c-1-.25-1-.732-2-1.406zM63 32.312c0-.724-.588-1.312-1.313-1.312h-.373c-.726 0-1.314.588-1.314 1.312v3.375c0 .725.588 1.313 1.313 1.313h.373c.726 0 1.314-.588 1.314-1.312v-3.376z"></path><path fill="#BAA035" d="M60 33v2.96c0 .726.775 1.313 1.5 1.313s1.5-.588 1.5-1.312V33"></path><path fill="#F4DF78" d="M60 37.148c0 .656.343 1.188 1 1.188.656 0 1-.53 1-1.188v-6.75c0-.656-.344-1.188-1-1.188-.657 0-1-.47-1 .188v7.75z"></path><path fill="#E5D265" d="M62 31.62v5.528c0 .656-.344 1.188-1 1.188-.657 0-1-.53-1-1.188v-4.746c0-.177 1-.443 2-.78z"></path><path fill="#CEB746" d="M62 32.914v4.234c0 .656-.344 1.188-1 1.188-.657 0-1 .47-1-.188V34.32c1-.25 1-.732 2-1.406z"></path><path fill="#876630" d="M60.5 37.404c0 12.734-12.76 24.432-28.5 24.432S3.5 50.14 3.5 37.404c0-12.733 7.42-10.247 28.5-10.247 21.073 0 28.5-2.486 28.5 10.247z"></path><path fill="#96753B" d="M60.5 37.404C60.5 50.138 47.74 58.46 32 58.46S3.5 50.14 3.5 37.405c0-12.733 7.42-10.247 28.5-10.247 21.073 0 28.5-2.486 28.5 10.247z"></path><path fill="#876630" d="M60.5 32.104c0 6.272-12.76 14.356-28.5 14.356S3.5 38.376 3.5 32.104c0-6.27 7.42-5.047 28.5-5.047 21.073 0 28.5-1.224 28.5 5.047z"></path><path fill="#CEA36A" d="M60.5 31.77c0 6.273-12.76 11.357-28.5 11.357S3.5 38.043 3.5 31.77c0-6.27 7.42-5.046 28.5-5.046 21.073 0 28.5-1.224 28.5 5.047z"></path><path fill="#AF894A" d="M60.5 31.77c0 6.273-12.76 11.357-28.5 11.357S3.5 38.043 3.5 31.77c0-6.27 7.42-2.046 28.5-2.046 21.073 0 28.5-4.224 28.5 2.047z"></path><path fill="#876630" d="M35.334 42.17c0 4.373-1.494 12.354-3.334 12.354-1.843 0-3.334-7.98-3.334-12.354s1.49-1.917 3.334-1.917c1.84 0 3.334-2.456 3.334 1.917z"></path><path fill="#F4DF78" d="M35.334 42.17c0 4.373-1.494 7.917-3.334 7.917-1.843 0-3.334-3.544-3.334-7.917s1.49-2.917 3.334-2.917c1.84 0 3.334-1.456 3.334 2.917z"></path><path fill="#E5D265" d="M35.334 42.17c0 4.373-1.494 7.917-3.334 7.917-1.843 0-3.334-3.544-3.334-7.917s1.49-1.917 3.334-1.917c1.84 0 3.334-2.456 3.334 1.917z"></path><path fill="#CEB746" d="M32 42.586c-1.19 0-2.31.862-3.302.623.214 3.88 1.61 6.877 3.302 6.877 1.69 0 3.087-2.997 3.302-6.878-.994.238-2.113-.624-3.302-.624z"></path><path fill="#BAA035" d="M32 48.4c-1.717 0-3.128-3.08-3.313-7.04-.014.247-.02.513-.02.81 0 4.373 1.49 7.917 3.333 7.917 1.84 0 3.334-3.544 3.334-7.917 0-.297-.01-.562-.02-.81-.186 3.96-1.6 7.04-3.314 7.04z"></path><circle fill="#F4DF78" cx="31.999" cy="43.379" r=".291"></circle><circle fill="#F4DF78" cx="31.999" cy="44.587" r=".291"></circle><circle fill="#F4DF78" cx="31.999" cy="45.795" r=".291"></circle><g fill="#BA9E6A"><path d="M19.918 53.25c.294.175.573.355.833.535l.144-.205c-.263-.185-.55-.367-.85-.544l-.126.215zM18.252 52.125l-.105.227.13.06c.274.124.533.246.77.367l.114-.224c-.24-.123-.504-.248-.78-.373l-.128-.058zM23.166 58.676l.24.066c.094-.335.142-.68.142-1.02h-.25c0 .32-.045.64-.132.954zM23.002 55.756l-.217.125c.166.29.293.59.38.89l.238-.068c-.01-.04-.027-.076-.04-.115h.76v-.25h-.85c-.076-.197-.163-.392-.27-.58zM21.526 54.393c.256.225.488.458.692.695l.188-.164c-.21-.245-.452-.486-.717-.72l-.164.19zM22.586 59.88l-.028.082h.127l.1.07c.072-.096.15-.213.225-.34l-.217-.125c-.07.117-.14.228-.207.314zM12.01 44.805c.07.332.154.66.252.98l.238-.073c-.095-.312-.178-.635-.247-.958l-.243.05zM12.007 42.788l-.25.012c.014.337.044.676.086 1.007l.248-.03c-.04-.326-.07-.658-.083-.99zM12.09 40.82l-.245-.043c-.004.016-.067.39-.092 1.013l.25.01c.023-.605.086-.976.088-.98zM13.545 48.523c.188.282.39.557.603.814l.193-.16c-.206-.25-.403-.517-.587-.793l-.208.14zM14.828 50.085c.232.23.485.46.75.678l.157-.193c-.257-.213-.504-.436-.73-.662l-.177.177zM12.602 46.736c.125.308.27.616.427.916l.22-.115c-.152-.294-.294-.595-.417-.895l-.23.094zM16.39 51.367c.272.185.562.362.86.528l.12-.22c-.29-.16-.573-.335-.84-.517l-.14.21zM41.208 59.567l-.217.125c.074.127.15.244.228.343l.1-.073h.126l-.03-.08c-.065-.087-.14-.198-.206-.315zM46.63 51.677l.12.22c.3-.167.587-.345.86-.53l-.14-.207c-.267.18-.55.355-.84.517zM40.452 57.723c0 .34.048.685.142 1.02l.24-.066c-.087-.314-.132-.635-.132-.953h-.25zM40.998 55.756c-.176.307-.312.625-.4.945l.238.07c.085-.302.213-.602.38-.89l-.218-.124zM43.106 53.58l.143.205c.257-.18.538-.36.832-.534l-.127-.214c-.3.177-.586.36-.85.544zM41.59 54.924l.19.164c.205-.237.438-.47.693-.695l-.164-.188c-.265.233-.507.474-.72.72zM50.75 47.537l.222.115c.158-.3.302-.608.427-.916l-.23-.094c-.125.3-.267.6-.42.895zM51.91 43.775l.247.03c.042-.33.07-.67.086-1.006l-.25-.013c-.014.332-.043.664-.084.988zM52.246 41.79c-.022-.623-.09-.997-.09-1.013l-.247.043c0 .004.063.375.086.98l.25-.01zM48.265 50.57l.156.192c.267-.218.52-.446.752-.678l-.176-.178c-.227.228-.475.45-.73.663zM51.5 45.712l.238.073c.098-.32.183-.648.252-.98l-.244-.05c-.068.322-.15.644-.246.957zM45.622 52.183c-.278.125-.542.25-.782.373l.112.223c.238-.122.497-.244.77-.368l.13-.06-.104-.227-.126.058zM49.66 49.178l.192.16c.212-.258.415-.532.603-.814l-.21-.14c-.182.277-.38.544-.586.794zM29.124 56.336h1v.25h-1zM31.124 56.336h1v.25h-1zM33.124 56.336h1v.25h-1zM35.124 56.336h1v.25h-1zM25.124 56.336h1v.25h-1zM39.124 56.336h1v.25h-1zM27.124 56.336h1v.25h-1zM37.124 56.336h1v.25h-1z"></path></g><path fill="#876630" d="M38.293 3.67c0 1.91-3.04 3.458-6.792 3.458s-6.792-1.55-6.792-3.46S27.75 2.212 31.5 2.212s6.793-.45 6.793 1.46z"></path><path fill="#AF894A" d="M38.293 3.67c0 1.91-3.04 1.458-6.792 1.458s-6.792.45-6.792-1.46S27.75 2.212 31.5 2.212s6.793-.45 6.793 1.46z"></path><g fill="#CEA36A"><circle cx="27.062" cy="33.805" r=".281"></circle><circle cx="29.531" cy="33.805" r=".281"></circle><circle cx="32" cy="33.805" r=".281"></circle><circle cx="34.468" cy="33.805" r=".282"></circle><circle cx="36.937" cy="33.805" r=".282"></circle></g></svg>