<svg xmlns="http://www.w3.org/2000/svg" width="64" height="64" viewBox="0 0 64 64"><defs></defs><path fill="#FFCE00" d="M41.6 36H22.4l4-7h11.2z"></path><path fill="#FFB600" d="M41.6 36H22.4l6-5.3 9.2-1.7z"></path><path fill="#E8961F" d="M41.6 36H22.4l12.1-2.6 3.1-4.4z"></path><path fill="#FFCE00" d="M41.6 55H22.4l4-7h11.2z"></path><path fill="#FFB600" d="M41.6 55H22.4l6-5.1 9.2-1.9z"></path><path fill="#E8961F" d="M41.6 55H22.4l12.1-2.4 3.1-4.6z"></path><path fill="#FFCE00" d="M20 55H.8l4-7H16z"></path><path fill="#FFB600" d="M20 55H.8l6-5.1L16 48z"></path><path fill="#E8961F" d="M20 55H.8l12.1-2.4L16 48z"></path><path fill="#FFCE00" d="M63.2 55H44l4-7h11.2z"></path><path fill="#FFB600" d="M63.2 55H44l6-5.1 9.2-1.9z"></path><path fill="#E8961F" d="M63.2 55H44l12.1-2.4 3.1-4.6z"></path><path fill="#FFCE00" d="M30.9 45H11.6l4-7h11.3z"></path><path fill="#FFB600" d="M30.9 45H11.6l6.1-5.1 9.2-1.9z"></path><path fill="#E8961F" d="M30.9 45H11.6l12.2-2.5 3.1-4.5z"></path><path fill="#FFCE00" d="M52.4 45H33.1l4-7h11.3z"></path><path fill="#FFB600" d="M52.4 45H33.1l6.1-5.1 9.2-1.9z"></path><path fill="#E8961F" d="M52.4 45H33.1l12.1-2.5 3.2-4.5z"></path><path fill="#24966A" d="M33 21c0 .6-.4 1-1 1s-1-.4-1-1V9c0-.6.4-1 1-1s1 .4 1 1v12z"></path><g fill="#24966A"><path d="M26.1 23c.2.5 0 1.1-.5 1.3-.5.2-1.1 0-1.3-.5l-4.9-11c-.2-.5 0-1.1.5-1.3.5-.2 1.1 0 1.3.5l4.9 11zM20.8 27.3c.4.3.5 1 .2 1.4-.3.4-1 .5-1.4.2L10 21.6c-.4-.3-.5-1-.2-1.4.3-.4 1-.5 1.4-.2l9.6 7.3zM17.3 33.3c.6 0 1 .5 1 1 0 .6-.5 1-1 1l-12-.5c-.6 0-1-.5-1-1 0-.6.5-1 1-1l12 .5zM37.9 23c-.2.5 0 1.1.5 1.3.5.2 1.1 0 1.3-.5l4.9-11c.2-.5 0-1.1-.5-1.3-.5-.2-1.1 0-1.3.5l-4.9 11zM43.2 27.3c-.4.3-.5 1-.2 1.4.3.4 1 .5 1.4.2l9.5-7.3c.4-.3.5-1 .2-1.4-.3-.4-1-.5-1.4-.2l-9.5 7.3zM46.7 33.3c-.6 0-1 .5-1 1 0 .6.5 1 1 1l12-.5c.6 0 1-.5 1-1 0-.6-.5-1-1-1l-12 .5z"></path></g></svg>