<svg xmlns="http://www.w3.org/2000/svg" width="64" height="64" viewBox="0 0 64 64"><defs></defs><path fill="#960909" d="M53.2 34H10.8l-.3-5h43z"></path><path fill="#FFFBC7" d="M39.7 37.4l5.8.8 4.2-35.5-4.6-.6z"></path><path fill="#F7D772" d="M39.7 37.4l5.8.8 2.7-33.8-3.1-2.3z"></path><path fill="#EFA348" d="M45.1 2.1l2.5 2.2-5.8 33.4-2.1-.3z"></path><path fill="#FFFBC7" d="M39.3 37.4l5.5 2L56.9 5.8l-4.3-1.6z"></path><path fill="#F7D772" d="M39.3 37.4l5.5 2L55.1 7.1l-2.5-2.9z"></path><path fill="#EFA348" d="M52.6 4.2l2 2.7-13.3 31.2-2-.7z"></path><path fill="#FFFBC7" d="M41.5 39.9l5.3 2.7 15.5-32.2-4.1-2z"></path><path fill="#F7D772" d="M41.5 39.9l5.3 2.7 13.6-31.1-2.2-3.1z"></path><path fill="#EFA348" d="M58.2 8.4l1.7 2.9-16.4 29.6-2-1z"></path><path fill="#FFFBC7" d="M38.1 37h5.8l-.6-36h-4.6z"></path><path fill="#F7D772" d="M38.1 37h5.8L42.1 3.1l-3.4-1.8z"></path><path fill="#EFA348" d="M38.7 1.3l2.8 1.8L40.2 37h-2.1z"></path><path fill="#FFFBC7" d="M31.7 37h5.8l-.6-36h-4.6z"></path><path fill="#F7D772" d="M31.7 37h5.8L35.7 3.1l-3.4-1.8z"></path><path fill="#EFA348" d="M32.3 1.3l2.8 1.8L33.8 37h-2.1z"></path><path fill="#FFFBC7" d="M37 45.2l5 3.2L60.7 18l-3.8-2.5z"></path><path fill="#F7D772" d="M37 45.2l5 3.2 16.7-29.5-1.8-3.4z"></path><path fill="#EFA348" d="M56.9 15.5l1.3 3.1-19.3 27.8-1.9-1.2z"></path><path fill="#FFFBC7" d="M33.6 44.5l5.9.4 2.2-35.6-4.6-.4z"></path><path fill="#F7D772" d="M33.6 44.5l5.9.4.8-33.8-3.2-2.2z"></path><path fill="#EFA348" d="M37.1 8.9l2.6 2.1-3.9 33.7-2.2-.2z"></path><path fill="#FFFBC7" d="M32 52.3l5.8.3 1-35.7-4.6-.2z"></path><path fill="#F7D772" d="M32 52.3l5.8.3-.3-33.9-3.3-2z"></path><path fill="#EFA348" d="M34.2 16.7l2.8 1.9-2.9 33.8-2.1-.1z"></path><path fill="#FFFBC7" d="M37.5 45l5.6 1.6 9-34.5-4.4-1.3z"></path><path fill="#F7D772" d="M37.5 45l5.6 1.6 7.3-33.1-2.7-2.7z"></path><path fill="#EFA348" d="M47.7 10.8l2.2 2.6-10.3 32.2-2.1-.6z"></path><path fill="#FFFBC7" d="M35.7 52l5.8 1 5.1-35.4-4.6-.7z"></path><path fill="#F7D772" d="M35.7 52l5.8 1 3.6-33.7-3.1-2.4z"></path><path fill="#EFA348" d="M42 16.9l2.5 2.3-6.7 33.2-2.1-.4z"></path><path fill="#FFFBC7" d="M24.3 37.4l-5.8.8-4.2-35.5 4.6-.6z"></path><path fill="#F7D772" d="M24.3 37.4l-5.8.8-2.7-33.8 3.1-2.3z"></path><path fill="#EFA348" d="M18.9 2.1l-2.5 2.2 5.8 33.4 2.1-.3z"></path><path fill="#FFFBC7" d="M24.7 37.4l-5.5 2L7.1 5.8l4.3-1.6z"></path><path fill="#F7D772" d="M24.7 37.4l-5.5 2L8.9 7.1l2.5-2.9z"></path><path fill="#EFA348" d="M11.4 4.2l-2 2.7 13.3 31.2 2-.7z"></path><path fill="#FFFBC7" d="M22.5 39.9l-5.3 2.7L1.7 10.4l4.1-2z"></path><path fill="#F7D772" d="M22.5 39.9l-5.3 2.7L3.6 11.5l2.2-3.1z"></path><path fill="#EFA348" d="M5.8 8.4l-1.7 2.9 16.4 29.6 2-1z"></path><path fill="#FFFBC7" d="M25.9 37h-5.8l.6-36h4.6z"></path><path fill="#F7D772" d="M25.9 37h-5.8l1.8-33.9 3.4-1.8z"></path><path fill="#EFA348" d="M25.3 1.3l-2.8 1.8L23.8 37h2.1z"></path><path fill="#FFFBC7" d="M32.3 37h-5.8l.6-36h4.6z"></path><path fill="#F7D772" d="M32.3 37h-5.8l1.8-33.9 3.4-1.8z"></path><path fill="#EFA348" d="M31.7 1.3l-2.8 1.8L30.2 37h2.1z"></path><path fill="#FFFBC7" d="M35 44h-5.9l.6-36h4.6z"></path><path fill="#F7D772" d="M35 44h-5.9l1.8-34.1 3.4-1.7z"></path><path fill="#EFA348" d="M34.3 8.1l-2.8 2L32.8 44H35z"></path><path fill="#FFFBC7" d="M27 45.2l-5 3.2L3.3 18l3.8-2.5z"></path><path fill="#F7D772" d="M27 45.2l-5 3.2L5.3 18.9l1.8-3.4z"></path><path fill="#EFA348" d="M7.1 15.5l-1.3 3.1 19.3 27.8 1.9-1.2z"></path><path fill="#FFFBC7" d="M30.4 44.5l-5.9.4-2.2-35.6 4.6-.4z"></path><path fill="#F7D772" d="M30.4 44.5l-5.9.4-.8-33.8 3.2-2.2z"></path><path fill="#EFA348" d="M26.9 8.9L24.3 11l3.9 33.7 2.2-.2z"></path><path fill="#FFFBC7" d="M32 52.3l-5.8.3-1-35.7 4.6-.2z"></path><path fill="#F7D772" d="M32 52.3l-5.8.3.3-33.9 3.3-2z"></path><path fill="#EFA348" d="M29.8 16.7L27 18.6l2.9 33.8 2.1-.1z"></path><path fill="#FFFBC7" d="M26.5 45l-5.6 1.6-9-34.5 4.4-1.3z"></path><path fill="#F7D772" d="M26.5 45l-5.6 1.6-7.3-33.1 2.7-2.7z"></path><path fill="#EFA348" d="M16.3 10.8l-2.2 2.6 10.3 32.2 2.1-.6z"></path><path fill="#FFFBC7" d="M28.3 52l-5.8 1-5.1-35.4 4.6-.7z"></path><path fill="#F7D772" d="M28.3 52l-5.8 1-3.6-33.7 3.1-2.4z"></path><path fill="#EFA348" d="M22 16.9l-2.5 2.3 6.7 33.2 2.1-.4z"></path><path fill="#BA1515" d="M48.6 63H15.4l-4-29h41.2z"></path><path fill="#D32020" d="M48.6 63H15.4l10-29h13.2z"></path><path fill="#BF1111" d="M48.6 63H15.4l10-11h13.2z"></path><path fill="#960909" d="M48.6 63H15.4l10-5h13.2z"></path><path fill="#fff" d="M32 39.2c-5 0-9.1 4.1-9.1 9.1s4.1 9.1 9.1 9.1 9.1-4.1 9.1-9.1-4.1-9.1-9.1-9.1zM32 54c-3.2 0-5.7-2.6-5.7-5.7s2.6-5.7 5.7-5.7 5.7 2.6 5.7 5.7S35.2 54 32 54z"></path><path fill="#ddd" d="M32 57.3c5 0 9.1-4.1 9.1-9.1s-4.1-9-9.1-9m0 3.3c3.2 0 5.7 2.6 5.7 5.7S35.2 54 32 54"></path><path fill="#960909" d="M11 31h42v3H11z" opacity=".2"></path></svg>