<svg xmlns="http://www.w3.org/2000/svg" width="64" height="64" viewBox="0 0 64 64"><defs></defs><path fill="#07A5A5" d="M63 47H1v10c1 2 14.7 4.1 31 4.1S61.6 59 62.6 57h.4V47z"></path><path fill="#028184" d="M31.6 61.1C47.9 61.1 62 59 63 57V47H1"></path><path fill="#F9A035" d="M63 37H1v10c1 2 14.7 4.1 31 4.1S61.6 49 62.6 47h.4V37z"></path><path fill="#ED5E0F" d="M31.5 51.1C47.8 51.1 62 49 63 47V37H1"></path><path fill="#D33CAC" d="M63 27l-62-.2V37c1 2 14.7 4.1 31 4.1S61.6 39 62.6 37h.4V27z"></path><path fill="#AD1591" d="M31.8 41.1C48 41.1 62 39 63 37V26.8L1 27"></path><path fill="#F77FC7" d="M62.7 26.8c0 2.4-13.7 4.4-30.7 4.4s-31-2-31-4.4 14.1-4.4 31-4.4 30.7 1.9 30.7 4.4z"></path><path fill="#E260BA" d="M32 22.4c16.9 0 31 2 31 4.4s-14.1 4.3-31 4.3"></path><ellipse fill="#BA4A9D" cx="32" cy="25.3" rx="20.4" ry="2.9"></ellipse><path fill="#A03589" d="M32 22.4c11.3 0 20.4 1.3 20.4 2.9 0 1.6-9.2 2.9-20.4 2.9"></path><path fill="#82C60A" d="M20.3 5.2c.1 6.1-4.9 9.6-1.9 15.7 1.7 3.5 5.8 4.2 10.5 4.7h.1c3-3.7 5.2-7.1 3.9-10.8-2.3-6.5-8.2-5.3-12.6-9.6z"></path><path fill="#5EA304" d="M28.9 25.5c3.1-3.7 5.3-7.2 4-10.8-2.3-6.4-8.3-5.2-12.6-9.5h-.1"></path><g fill="#74B208"><path d="M24.1 14.2l-4.1-.7 4.7 1.9 1.8-4.6zM27 21l-4.1-.7 4.6 1.9 1.9-4.6zM25.6 17.5l-4.7-.7 5.2 2.1 2.1-5.3z"></path></g><path fill="#82C60A" d="M7.2 18.3c3.7 3.4 3 8.3 8.2 9.9 3 .9 5.7-1.1 8.6-3.7-.6-3.8-1.3-7.1-4.2-8.3-5-2.2-7.6 2-12.6 2.1z"></path><path fill="#5EA304" d="M24.1 24.5c-.6-3.8-1.3-7.1-4.2-8.4-5-2.2-7.7 2-12.6 2.2"></path><g fill="#74B208"><path d="M14.7 21.1L12 23.2l3.7-1.8-1.7-3.6zM20.3 23.1l-2.7 2.1 3.7-1.7-1.7-3.7zM17.4 22.1l-3 2.3 4.2-1.9-2-4.2z"></path></g><path fill="#AF0547" d="M40.9 20.4c0 5.8-4 4.9-8.9 4.9s-8.9.9-8.9-4.9 4-13 8.9-13 8.9 7.2 8.9 13z"></path><path fill="#84003C" d="M32 7.4c4.9 0 8.9 7.2 8.9 13s-4 4.9-8.9 4.9"></path><ellipse fill="#5EA304" cx="32" cy="25.5" rx="4" ry=".6"></ellipse><path fill="#527C00" d="M32 24.9c2.2 0 4 .3 4 .6s-1.8.6-4 .6"></path><ellipse transform="matrix(.689 .725 -.725 .689 16.594 -17.56)" fill="#D12269" cx="28.8" cy="10.6" rx="1" ry="3.2"></ellipse><g fill="#680034"><circle cx="27.3" cy="20" r=".7"></circle><circle cx="26.1" cy="22.9" r=".7"></circle><circle cx="29.5" cy="17.4" r=".7"></circle><circle cx="27.1" cy="14.9" r=".6"></circle><circle cx="25.6" cy="17.5" r=".6"></circle><circle cx="30.4" cy="13.7" r=".5"></circle><circle cx="28.5" cy="11.8" r=".5"></circle><circle cx="30.7" cy="9.7" r=".4"></circle><circle cx="30.3" cy="22.6" r=".7"></circle></g><g fill="#C1145A"><circle cx="36.7" cy="20" r=".7"></circle><circle cx="37.9" cy="22.9" r=".7"></circle><circle cx="34.5" cy="17.4" r=".7"></circle><circle cx="36.9" cy="14.9" r=".6"></circle><circle cx="38.4" cy="17.5" r=".6"></circle><circle cx="33.6" cy="13.7" r=".5"></circle><circle cx="35.5" cy="11.8" r=".5"></circle><circle cx="33.3" cy="9.7" r=".4"></circle><circle cx="33.7" cy="22.6" r=".7"></circle></g><path fill="#C4B37E" d="M58 3.4c-1.7-.8-3.6-.5-4.3.9L43.4 24.9l-.1.1H51l8.9-17.8c.7-1.3-.2-2.9-1.9-3.8z"></path><path fill="#AA945E" d="M47 25h-3.7H51l8.9-17.8c.7-1.3-.2-2.9-1.9-3.8"></path><path fill="#823061" d="M50.8 10.1h7.7l1.5-3h-7.7z"></path><path fill="#680034" d="M58.5 10.1l1.5-3h-7.6"></path><path fill="#823061" d="M48.4 15l7.6.1 1.5-3.1h-7.6z"></path><path fill="#680034" d="M56.1 14.9l1.4-2.9H50"></path><path fill="#823061" d="M45.9 20h7.7l1.4-3h-7.6z"></path><path fill="#680034" d="M53.6 20l1.4-3h-7"></path><path fill="#823061" d="M51.1 25l1.5-3h-7.7l-1.6 3z"></path><path fill="#680034" d="M51.1 25l1.5-3H45"></path><ellipse transform="matrix(.996 -.095 .095 .996 -.137 5.346)" fill="#D8CAA4" cx="55.9" cy="4.1" rx="1.6" ry=".6"></ellipse><ellipse transform="matrix(.989 -.148 .148 .989 -3.786 1.277)" fill="#F2C0E3" cx="6.7" cy="26.1" rx="3.8" ry="1.1"></ellipse><path fill="#F2C0E3" d="M4 35.2c0 .5-.3.8-.8.8h-.4c-.5 0-.8-.3-.8-.8v-5.5c0-.4.3-.7.8-.7h.5c.4 0 .7.3.7.8v5.4z"></path><path fill="#F7C937" d="M4 45.2c0 .5-.3.8-.8.8h-.4c-.5 0-.8-.3-.8-.8v-5.5c0-.4.3-.7.8-.7h.5c.4 0 .7.3.7.8v5.4z"></path><path fill="#3EC6BF" d="M4 55.2c0 .5-.3.8-.8.8h-.4c-.5 0-.8-.3-.8-.8v-5.5c0-.4.3-.7.8-.7h.5c.4 0 .7.3.7.8v5.4z"></path></svg>