<svg xmlns="http://www.w3.org/2000/svg" width="64" height="64.9" viewBox="0 0 64 64.9"><defs></defs><path fill="#00233F" d="M1 22h62v3H1z"></path><g fill="#00233F"><path d="M3 24h2v38H3zM6 63c0 .6-.4 1-1 1H3c-.6 0-1-.4-1-1s.4-1 1-1h2c.6 0 1 .4 1 1zM59 24h2v38h-2zM62 63c0 .6-.4 1-1 1h-2c-.6 0-1-.4-1-1s.4-1 1-1h2c.6 0 1 .4 1 1z"></path></g><path fill="#00233F" d="M4 24h26v31H4z"></path><path fill="#B6CEDB" d="M7 26h21v12H7z"></path><path fill="#95B3C1" d="M7 26h21v12"></path><path fill="#B6CEDB" d="M7 40h21v12H7z"></path><path fill="#95B3C1" d="M7 40h21v12"></path><path fill="#00233F" d="M30 31h30v2H30zM21 32.6c0 .2-.2.4-.4.4h-5.2c-.2 0-.4-.2-.4-.4v-.2c0-.2.2-.4.4-.4h5.2c.2 0 .4.2.4.4v.2zM21 46.6c0 .2-.2.4-.4.4h-5.2c-.2 0-.4-.2-.4-.4v-.2c0-.2.2-.4.4-.4h5.2c.2 0 .4.2.4.4v.2z"></path><path fill="#54A012" d="M35 12.9c0 1.9-1.1 3.4-3 3.4s-3-1.5-3-3.4v-9C29 2 30.1.5 32 .5s3 1.5 3 3.4v9z"></path><path fill="#357503" d="M32 .5c1.9 0 3 1.5 3 3.4v9c0 1.9-1.1 3.4-3 3.4"></path><path fill="#54A012" d="M35 3.7V7l2.5-1.6z"></path><path fill="#357503" d="M29 5.7V9l-2.5-1.7z"></path><path fill="#AA610B" d="M36 21h-8l-2-9h12z"></path><path fill="#894400" d="M26 12h12l-2 9.2"></path><path fill="#C67812" d="M25 10h14v2H25z"></path><path fill="#AA610B" d="M25 10h14v2"></path><path fill="#894400" d="M26 20h12v2H26z"></path></svg>