<svg xmlns="http://www.w3.org/2000/svg" width="64" height="64" viewBox="0 0 64 64"><defs></defs><path fill="#788787" d="M32.6 55.9c0 .3-.3.6-.6.6s-.6-.3-.6-.6V3.8c0-.3.3-.6.6-.6s.6.3.6.6v52.1z"></path><path fill="#9E6226" d="M2 53.1c1.3 5.7 14.2 10.1 30 10.1s28.7-4.5 30-10.1H2z"></path><path fill="#AF7643" d="M3 55.1c.6.8 1.5 1.6 2.5 2.3h52.9c1.1-.7 1.9-1.5 2.5-2.3H3zM46.7 61.8c3-.6 5.6-1.4 7.9-2.3H9.4c2.2.9 4.9 1.7 7.9 2.3h29.4zM63 52.6c0 .3-.3.6-.6.6H1.6c-.4 0-.6-.3-.6-.6 0-.4.3-.6.6-.6h60.7c.4 0 .7.2.7.6z"></path><circle fill="#788787" cx="32" cy="3.1" r="2.3"></circle><path fill="#0C91C4" d="M57.6 47.2c0-.9.1-1.8.1-2.8C57.7 23.6 47.1 6.6 34 6.2v41h23.6z"></path><path fill="#22B3E0" d="M57.6 47.2c0-.9.1-1.8.1-2.8C57.7 23.6 47.1 6.6 34 6.2"></path><path fill="#FFAE0B" d="M29.9 6.2l-11 5.5 11 5.4z"></path><path fill="#FF860D" d="M29.9 10.9l-11 .8 11 5.4z"></path><path fill="#E00E0E" d="M29.7 18.9v27.3H12z"></path><path fill="#BF1111" d="M29.7 25.6v20.6H12z"></path></svg>