<svg xmlns="http://www.w3.org/2000/svg" width="64" height="64" viewBox="0 0 64 64"><defs></defs><g fill="#00233F"><path d="M9 50.2c0 1-.8 1.8-1.8 1.8h-.4c-1 0-1.8-.8-1.8-1.8v-3.4c0-1 .8-1.8 1.8-1.8h.4c1 0 1.8.8 1.8 1.8v3.4zM59 50.2c0 1-.8 1.8-1.8 1.8h-.4c-1 0-1.8-.8-1.8-1.8v-3.4c0-1 .8-1.8 1.8-1.8h.4c1 0 1.8.8 1.8 1.8v3.4z"></path></g><path fill="#00233F" d="M32 32.4c0 2.4-1.7 2.6-4 2.6H14.2c-2.4 0-4.2-2.3-4.2-4.6V15.5c0-2.4 1.8-4.5 4.2-4.5H28c2.4 0 4 2.2 4 4.5v16.9z"></path><path fill="#0F507C" d="M30.2 14.5c0 .9-.7 1.5-1.5 1.5H13.6c-.8 0-1.5-.6-1.5-1.5s.7-1.5 1.5-1.5h15.1c.8 0 1.5.6 1.5 1.5z"></path><circle fill="#0F507C" cx="21.1" cy="23" r="1.7"></circle><path fill="#00233F" d="M54 30.4c0 2.4-1.8 4.6-4.2 4.6H36c-2.4 0-4-.3-4-2.6V15.5c0-2.4 1.7-4.5 4-4.5h13.7c2.4 0 4.2 2.2 4.2 4.5v14.9z"></path><path fill="#0F507C" d="M52 14.5c0 .9-.7 1.5-1.5 1.5H35.4c-.8 0-1.5-.6-1.5-1.5s.7-1.5 1.5-1.5h15.1c.8 0 1.5.6 1.5 1.5z"></path><circle fill="#0F507C" cx="42.9" cy="23" r="1.7"></circle><path fill="#930700" d="M10.8 41H3V24h7.8zM61 41h-7.7l-.1-17H61z"></path><path fill="#CE1906" d="M61 45.1c0 1.6-1.5 2.9-3.1 2.9H6.1C4.5 48 3 46.8 3 45.1V34.8C3 33.2 4.5 32 6.1 32h51.7c1.6 0 3.1 1.2 3.1 2.8v10.3z"></path><path fill="#930700" d="M61 35v10.1c0 1.6-1.5 2.9-3.1 2.9H6.1C4.5 48 3 46.8 3 45.1V35"></path><path fill="#CE1906" d="M10.8 24c0 2.1-1.7 4-3.8 4H4.4C2.3 28 .6 26.1.6 24s1.7-4 3.8-4H7c2.1 0 3.8 1.9 3.8 4zM63.4 24c0 2.1-1.7 4-3.8 4H57c-2.1 0-3.8-1.9-3.8-4s1.7-4 3.8-4h2.6c2.1 0 3.8 1.9 3.8 4z"></path><g fill="#EF392B"><path d="M8.3 21.6c0 .8-1.2 1.5-2.7 1.5S3 22.4 3 21.6s1.2-.9 2.7-.9 2.6.1 2.6.9zM61 21.6c0 .8-1.2 1.5-2.7 1.5s-2.7-.7-2.7-1.5 1.2-.9 2.7-.9 2.7.1 2.7.9z"></path></g><g fill="#6D0F0C"><path d="M19 44.9c0 .4-.1.8-.5.8s-.5-.4-.5-.8v-8.4c0-.4.1-.8.5-.8s.5.4.5.8v8.4zM46 44.9c0 .4-.1.8-.5.8s-.5-.4-.5-.8v-8.4c0-.4.1-.8.5-.8s.5.4.5.8v8.4zM32.5 44.9c0 .4-.1.8-.5.8s-.5-.4-.5-.8v-8.4c0-.4.1-.8.5-.8s.5.4.5.8v8.4z"></path></g></svg>