<svg xmlns="http://www.w3.org/2000/svg" width="64" height="64" viewBox="0 0 64 64"><defs></defs><path fill="#8E8666" d="M19.688 19.03c0-7.915 2.78-16.507 12.31-16.507 9.532 0 12.313 8.592 12.313 16.506 0 .3-.02.596-.038.892.483-1.496.76-3.102.76-4.78C45.032 7.227 39.197.81 32 .81c-7.198 0-13.032 6.416-13.032 14.33 0 1.68.275 3.284.758 4.78-.016-.296-.038-.59-.038-.893z"></path><path fill="#A89F7B" d="M29.595 2.75c.06-.586.143-1.16.244-1.725C23.67 2.16 18.967 8.04 18.967 15.14c0 1.68.275 3.285.758 4.78-.016-.295-.037-.59-.037-.892-.002-7.197 2.317-14.934 9.905-16.278z"></path><path fill="#EAE3B0" d="M10 15.23V52.5c0 7.035 5.417 10.73 12.448 10.73h19.104C48.584 63.23 54 59.534 54 52.5V15.23H10z"></path><path fill="#DDD694" d="M15.222 15.23L9.714 52.53c0 7.035 5.703 10.697 12.734 10.697h19.104C48.584 63.23 54 59.534 54 52.5V15.23H15.222z"></path><path fill="#CCC27F" d="M22 63.23h19.552C48.584 63.23 54 59.534 54 52.5V15.23H19"></path><path fill="#C6B56F" d="M54 52.23v-37H19"></path><path fill="#3592AF" d="M10 20.23h44v7H10z"></path><path fill="#277BA0" d="M10 27.23h44v-7"></path><path fill="#3592AF" d="M10 32.23h44v7H10z"></path><path fill="#277BA0" d="M10 39.23h44v-7"></path><path fill="#3592AF" d="M10 44.23h44v7H10z"></path><path fill="#277BA0" d="M10 51.23h44v-7"></path><path fill="#C9552D" d="M10.32 56.23c1.442 4.418 6.313 7 12.128 7h19.104c5.813 0 10.553-2.6 11.86-7H10.32z"></path><path fill="#D86639" d="M10.32 56.23c1.524 4 6.313 4 12.128 4h19.104c5.813 0 10.334 0 11.86-4H10.32z"></path><path fill="#186689" d="M22 24.04c0 1.255-1.243 2.273-2.5 2.273-1.255 0-2.5-1.02-2.5-2.272v-6.817c0-1.255 1.245-1.363 2.5-1.363 1.257 0 2.5.108 2.5 1.363v6.818z"></path><path fill="#D86639" d="M22 21.956c0 1.256-1.113 2.653-2.368 2.653-1.726 0-2.632-1.398-2.632-2.654v-6.388c0-1.256 1.28-1.412 2.535-1.412 1.255 0 2.465 1.09 2.465 2.347v5.453z"></path><path fill="#C9552D" d="M19.535 14.156c1.256 0 2.465.107 2.465 1.363v6.815c0 1.257-1.112 2.273-2.368 2.273"></path><path fill="#B54523" d="M20.45 22.053c0 .61-.496 1.732-1.107 1.732-.612 0-1.11-1.12-1.11-1.732s.498-1.107 1.11-1.107c.61 0 1.107.495 1.107 1.107z"></path><circle fill="#DDDAD9" cx="19.342" cy="22.053" r="1.108"></circle><path fill="#C9C6C5" d="M18.558 21.27c.434-.434 1.136-.433 1.568 0 .432.432.432 1.133 0 1.566"></path><path fill="#DDD694" d="M21.354 20.595h-.702c-.055 0-.102-.048-.102-.104 0-.057.047-.103.102-.103h.702c.06 0 .104.047.104.104 0 .057-.045.105-.104.105zm-1.533 0h-.83c-.056 0-.103-.048-.103-.104 0-.057.047-.103.104-.103h.83c.06 0 .106.047.106.104 0 .057-.046.105-.105.105zm-1.66 0h-.83c-.058 0-.105-.048-.105-.104 0-.057.047-.103.104-.103h.83c.058 0 .104.047.104.104 0 .057-.046.105-.104.105zM21.354 19.988h-.702c-.055 0-.102-.046-.102-.104 0-.06.047-.104.102-.104h.702c.06 0 .104.045.104.104 0 .058-.045.104-.104.104zm-1.533 0h-.83c-.056 0-.103-.046-.103-.104 0-.06.047-.104.104-.104h.83c.06 0 .106.045.106.104 0 .058-.046.104-.105.104zm-1.66 0h-.83c-.058 0-.105-.046-.105-.104 0-.06.047-.104.104-.104h.83c.058 0 .104.045.104.104 0 .058-.046.104-.104.104z"></path><path fill="#186689" d="M47 24.04c0 1.255-1.244 2.273-2.5 2.273S42 25.293 42 24.04v-6.817c0-1.255 1.244-1.363 2.5-1.363s2.5.108 2.5 1.363v6.818z"></path><path fill="#D86639" d="M47 21.956c0 1.256-1.035 2.653-2.29 2.653-1.727 0-2.71-1.398-2.71-2.654V15.52c0-1.256 1.436-1.363 2.69-1.363 1.257 0 2.31 1.09 2.31 2.347v5.452z"></path><path fill="#C9552D" d="M44.69 14.156c1.257 0 2.31.107 2.31 1.363v6.815c0 1.257-1.035 2.273-2.29 2.273"></path><path fill="#B54523" d="M45.765 22.053c0 .61-.496 1.732-1.107 1.732s-1.108-1.12-1.108-1.732.497-1.107 1.108-1.107 1.107.495 1.107 1.107z"></path><circle fill="#DDDAD9" cx="44.657" cy="22.053" r="1.108"></circle><path fill="#C9C6C5" d="M43.874 21.27c.432-.434 1.135-.433 1.566 0 .432.432.432 1.133 0 1.566"></path><path fill="#DDD694" d="M46.67 20.595h-.702c-.057 0-.103-.048-.103-.104 0-.057.046-.103.103-.103h.7c.06 0 .106.047.106.104 0 .057-.046.105-.105.105zm-1.532 0h-.832c-.056 0-.104-.048-.104-.104 0-.057.048-.103.104-.103h.832c.06 0 .104.047.104.104 0 .057-.046.105-.104.105zm-1.662 0h-.83c-.06 0-.105-.048-.105-.104 0-.057.048-.103.106-.103h.83c.057 0 .104.047.104.104 0 .057-.048.105-.104.105zM46.67 19.988h-.702c-.057 0-.103-.046-.103-.104 0-.06.046-.104.103-.104h.7c.06 0 .106.045.106.104 0 .058-.046.104-.105.104zm-1.532 0h-.832c-.056 0-.104-.046-.104-.104 0-.06.048-.104.104-.104h.832c.06 0 .104.045.104.104 0 .058-.046.104-.104.104zm-1.662 0h-.83c-.06 0-.105-.046-.105-.104 0-.06.048-.104.106-.104h.83c.057 0 .104.045.104.104 0 .058-.048.104-.104.104z"></path><g fill="#DDD694"><path d="M27.26 57.168h-1.024c-.07 0-.127.058-.127.13 0 .07.056.127.126.127h1.025c.072 0 .13-.058.13-.128s-.058-.13-.13-.13zM23.162 57.168h-1.024c-.07 0-.13.058-.13.13 0 .07.06.127.13.127h1.024c.07 0 .128-.058.128-.128s-.057-.13-.128-.13zM33.41 57.168h-1.026c-.07 0-.128.058-.128.13 0 .07.058.127.128.127h1.025c.07 0 .126-.058.126-.128s-.057-.13-.127-.13zM29.31 57.168h-1.023c-.072 0-.13.058-.13.13 0 .07.058.127.13.127h1.023c.072 0 .13-.058.13-.128-.002-.07-.058-.13-.13-.13zM31.358 57.168h-1.023c-.07 0-.13.058-.13.13 0 .07.06.127.13.127h1.023c.072 0 .13-.058.13-.128s-.057-.13-.13-.13zM25.212 57.168h-1.025c-.07 0-.13.058-.13.13 0 .07.06.127.13.127h1.025c.07 0 .127-.058.127-.128s-.058-.13-.128-.13zM21.112 57.168H20.09c-.073 0-.13.058-.13.13 0 .07.057.127.13.127h1.022c.072 0 .13-.058.13-.128s-.057-.13-.13-.13zM12.916 57.168h-1.024c-.072 0-.13.058-.13.13 0 .07.058.127.13.127h1.024c.07 0 .128-.058.128-.128s-.057-.13-.128-.13zM14.966 57.168H13.94c-.07 0-.128.058-.128.13 0 .07.058.127.128.127h1.025c.07 0 .127-.058.127-.128s-.056-.13-.126-.13zM19.063 57.168H18.04c-.072 0-.13.058-.13.13 0 .07.058.127.13.127h.19v.447c0 .07.058.128.128.128.072 0 .13-.057.13-.128v-.447h.575c.07 0 .13-.058.13-.128s-.058-.13-.13-.13zM17.015 57.168H15.99c-.07 0-.127.058-.127.13 0 .07.057.127.127.127h1.025c.07 0 .127-.058.127-.128s-.057-.13-.127-.13zM37.507 57.168h-1.024c-.07 0-.128.058-.128.13 0 .07.057.127.128.127h1.024c.07 0 .13-.058.13-.128s-.06-.13-.13-.13zM45.704 57.168H44.68c-.07 0-.128.058-.128.13 0 .07.057.127.13.127h.83v.447c0 .07.058.128.128.128.072 0 .13-.057.13-.128v-.448c0-.008-.01-.014-.01-.02.04-.022.073-.058.073-.106 0-.072-.06-.13-.13-.13zM35.458 57.168h-1.025c-.07 0-.127.058-.127.13 0 .07.057.127.127.127h1.025c.07 0 .128-.058.128-.128s-.058-.13-.128-.13zM51.853 57.168h-1.025c-.07 0-.128.058-.128.13 0 .07.058.127.128.127h1.025c.07 0 .128-.058.128-.128s-.057-.13-.127-.13zM47.753 57.168H46.73c-.072 0-.13.058-.13.13 0 .07.058.127.13.127h1.023c.072 0 .13-.058.13-.128s-.058-.13-.13-.13zM41.606 57.168H40.58c-.07 0-.128.058-.128.13 0 .07.06.127.13.127h1.024c.07 0 .127-.058.127-.128s-.056-.13-.127-.13zM39.558 57.168h-1.025c-.07 0-.13.058-.13.13 0 .07.06.127.13.127h1.025c.07 0 .127-.058.127-.128s-.057-.13-.127-.13zM43.655 57.168H42.63c-.07 0-.127.058-.127.13 0 .07.057.127.127.127h1.025c.07 0 .128-.058.128-.128s-.057-.13-.128-.13zM49.803 57.168H48.78c-.072 0-.13.058-.13.13 0 .07.058.127.13.127h1.023c.07 0 .128-.058.128-.128s-.056-.13-.127-.13zM18.358 60.818c-.07 0-.127.057-.127.127v1.025c0 .07.058.128.128.128.072 0 .13-.058.13-.128v-1.025c0-.07-.057-.127-.13-.127zM18.358 58.77c-.07 0-.127.057-.127.127v1.025c0 .07.058.127.128.127.072 0 .13-.058.13-.128v-1.025c0-.07-.057-.128-.13-.128zM45.64 60.818c-.07 0-.127.057-.127.127v1.025c0 .07.057.128.127.128.072 0 .13-.058.13-.128v-1.025c0-.07-.058-.127-.13-.127zM45.64 58.77c-.07 0-.127.057-.127.127v1.025c0 .07.057.127.127.127.072 0 .13-.058.13-.128v-1.025c0-.07-.058-.128-.13-.128z"></path></g></svg>