<svg xmlns="http://www.w3.org/2000/svg" width="64" height="64" viewBox="0 0 64 64"><defs></defs><path fill="#00233F" d="M29.9 2.4h4.3v23h-4.3z"></path><path fill="#54A012" d="M62.8 38C60.3 30 47.5 24.9 32 24.9S3.7 30 1.2 38h61.6z"></path><path fill="#47840D" d="M1 38h61.8c-2.5-8-15.4-13.1-30.9-13.1"></path><ellipse fill="#37630D" cx="32" cy="37.8" rx="30.7" ry="2.3"></ellipse><path fill="#284905" d="M32 35.5c17 0 30.7 1 30.7 2.3S49 40.1 32 40.1"></path><path fill="#FCA12A" d="M22.5 53.6c0 4.4 4.3 8 9.5 8 5.3 0 9.5-3.6 9.5-8 0-1.2-.3-2.3-.8-3.3L37 45v-2.3c0-2.2-2.4-4-5-4s-5 1.8-5 4V45l-3.7 5.3c-.5 1-.8 2.1-.8 3.3z"></path><path fill="#F9BE2B" d="M32 38.7c-2.6 0-5 1.8-5 4V45l-3.7 5.3c-.5 1-.8 2.1-.8 3.3 0 4.4 4.3 8 9.5 8"></path><path fill="#6D6DB2" d="M35.4 40.3v-3.2c0-.7-.5-1.2-1.2-1.2h-4.3c-.7 0-1.2.5-1.2 1.2v3.2h6.7z"></path><path fill="#4C4C8C" d="M29.9 35.9c-.7 0-1.2.5-1.2 1.2v3.2h6.7"></path><path fill="#7777BF" d="M28.7 39.2c0-.1.1-.2.2-.2H35c.1 0 .2.1.2.2s-.1.2-.2.2h-6.1c-.1.1-.2 0-.2-.2zM28.7 38.1c0-.1.1-.2.2-.2H35c.1 0 .2.1.2.2s-.1.2-.2.2h-6.1c-.1 0-.2-.1-.2-.2zM28.7 36.9c0-.1.1-.2.2-.2H35c.1 0 .2.1.2.2s-.1.2-.2.2h-6.1c-.1 0-.2-.1-.2-.2z"></path><g fill="#54A012"><circle cx="21.6" cy="30.9" r="1"></circle><circle cx="28.5" cy="30.9" r="1"></circle><circle cx="35.5" cy="30.9" r="1"></circle><circle cx="42.4" cy="30.9" r="1"></circle></g></svg>