<svg xmlns="http://www.w3.org/2000/svg" width="64" height="64" viewBox="0 0 64 64"><defs></defs><path fill="#D63834" d="M43.3 61.8H20.6l3-7.8h16.8z"></path><path fill="#8E0404" d="M24 54h16.4l2.9 7.8-3.3.2"></path><path fill="#494949" d="M1.3 30C2.7 46 15.9 58 32 58s29.4-12 30.7-28H1.3z"></path><path fill="#fff" d="M62.2 27.6c0-1.9-1.5-3.4-3.4-3.4-.3 0-.6.1-.9.1.2-.4.4-.9.4-1.5 0-1.7-1.4-3.1-3.1-3.1-.5 0-.9.1-1.3.3l-1.8-1.5c.3-.5.5-1 .5-1.6 0-1.7-1.4-3.1-3.1-3.1-1.2 0-2.2.7-2.7 1.7-.5-.2-1-.4-1.6-.7-.2-1.1-.9-2-1.9-2.5-.3-2.8-2.6-5-5.5-5-1.8 0-3.5.9-4.5 2.3-.4-.3-1.1-.6-1.9-.6-1.5 0-2.7 1-3.1 2.3-.6-.7-1.4-1.1-2.4-1.1-1.5 0-2.7 1-3 2.4-.6-.6-1.4-1-2.4-1-1.8 0-3.3 1.5-3.3 3.3v.4c-.8-.9-1.9-1.4-3.2-1.4-2.3 0-4.2 1.9-4.2 4.2 0 .5.1.9.2 1.3-.5-.3-1.1-.5-1.7-.5-1.8 0-3.3 1.5-3.3 3.3 0 .5.1 1 .4 1.5h-.2c-2.1 0-3.8 1.7-3.8 3.8 0 1.6.9 3.1 2.3 3.7 0 .2-.1-.1-.1.9h56.8c0-1-.1-.8-.1-1.1 1.1-.7 1.9-2.1 1.9-3.4z"></path><path fill="#EFEEE8" d="M62.2 29.1c0-1.2-1.5-2.1-3.4-2.1-.3 0-.6 0-.9.1.2-.3.4-.6.4-.9 0-1.1-1.4-1.9-3.1-1.9-.5 0-.9.1-1.3.2l-1.8-.9c.3-.3.5-.6.5-1 0-1.1-1.4-1.9-3.1-1.9-1.2 0-2.2.4-2.7 1-.5-.1-1-.3-1.6-.4-.2-.7-.9-1.3-1.9-1.6-.3-1.8-2.6-3.1-5.5-3.1-1.8 0-3.5.6-4.5 1.4-.6-.3-1.3-.5-2.1-.5-1.5 0-2.7.6-3.1 1.4-.6-.4-1.4-.7-2.4-.7-1.5 0-2.7.6-3 1.5-.6-.4-1.4-.6-2.4-.6-1.8 0-3.3.9-3.3 2.1v.2c-.8-.6-1.9-.9-3.2-.9-2.3 0-4.2 1.2-4.2 2.7 0 .3.1.6.2.8-.5-.2-1.1-.3-1.7-.3-1.8 0-3.3.9-3.3 2.1 0 .3.1.6.4.9H5c-2.1 0-3.8 1.1-3.8 2.4 0 1 .9 2.1 2.3 2.4 0 .1-.1-.3-.1.7h56.8c0-1-.1-.6-.1-.8 1.3-.5 2.1-1.5 2.1-2.3z"></path><path fill="#D8D5CA" d="M39 32h21.4c0-1-.1-.6-.1-.8 1.1-.3 1.9-1.2 1.9-2 0-1.2-1.5-2.2-3.4-2.2-.3 0-.6 0-.9.1.2-.3.4-.6.4-1 0-1.1-1.4-1.9-3.1-1.9-.5 0-.9.1-1.3.2l-1.8-.9c.3-.3.5-.6.5-1 0-1.1-1.4-1.9-3.1-1.9-1.2 0-2.2.4-2.7 1-.5-.1-1-.3-1.6-.4-.2-.7-1.1-1.1-2-1.4"></path><path d="M32 58c16.1 0 29.3-12 30.7-28H1.3"></path><path fill="#F7D772" d="M60.9 38c.4-1 .7-3 1-4h-60c.3 1 .7 3 1.2 4h57.8z"></path><path fill="#EFA348" d="M10 38h50.9c.4-1 .9-2.9 1.2-4H6"></path><g fill="#F7D772"><ellipse cx="25.9" cy="59.5" rx="1.1" ry=".7"></ellipse><ellipse cx="30" cy="59.5" rx="1.1" ry=".7"></ellipse><ellipse cx="34" cy="59.5" rx="1.1" ry=".7"></ellipse><ellipse cx="38.1" cy="59.5" rx="1.1" ry=".7"></ellipse></g><g fill="#F7D772"><path d="M20.1 44.5c0-.5-1.1-.9-2.5-.9h-.2l.1-.1c1-1 1.5-2 1.1-2.4-.3-.3-1.4.2-2.4 1.1l-.1.1v-.2c0-1.4-.4-2.5-.9-2.5s-.9 1.1-.9 2.5v.2l-.1-.1c-1-1-2-1.5-2.4-1.1-.3.3.2 1.4 1.1 2.4l.1.1h-.2c-1.4 0-2.5.4-2.5.9s1.1.9 2.5.9h.2l-.1.1c-1 1-1.5 2-1.1 2.4.3.3 1.4-.2 2.4-1.1l.1-.1v.2c0 1.4.4 2.5.9 2.5s.9-1.1.9-2.5v-.2l.1.1c1 1 2 1.5 2.4 1.1.3-.3-.2-1.4-1.1-2.4l-.1-.1h.2c1.3 0 2.5-.4 2.5-.9zm-4.8.9c-.5 0-.9-.4-.9-.9s.4-.9.9-.9.9.4.9.9-.4.9-.9.9zM31.2 44.5c0-.5-1.1-.9-2.5-.9h-.2l.1-.1c1-1 1.5-2 1.1-2.4-.3-.3-1.4.2-2.4 1.1l-.1.1v-.2c0-1.4-.4-2.5-.9-2.5s-.9 1.1-.9 2.5v.2l-.1-.1c-1-1-2-1.5-2.4-1.1-.3.3.2 1.4 1.1 2.4l.1.1h-.2c-1.4 0-2.5.4-2.5.9s1.1.9 2.5.9h.2l-.1.1c-1 1-1.5 2-1.1 2.4.3.3 1.4-.2 2.4-1.1l.1-.1v.2c0 1.4.4 2.5.9 2.5s.9-1.1.9-2.5v-.2l.1.1c1 1 2 1.5 2.4 1.1s-.2-1.4-1.1-2.4l-.1-.1h.2c1.4 0 2.5-.4 2.5-.9zm-4.8.9c-.5 0-.9-.4-.9-.9s.4-.9.9-.9.9.4.9.9-.4.9-.9.9zM42.4 44.5c0-.5-1.1-.9-2.5-.9h-.2l.1-.1c1-1 1.5-2 1.1-2.4-.3-.3-1.4.2-2.4 1.1l-.1.1v-.2c0-1.4-.4-2.5-.9-2.5s-.9 1.1-.9 2.5v.2l-.1-.1c-1-1-2-1.5-2.4-1.1-.3.3.2 1.4 1.1 2.4l.1.1h-.2c-1.4 0-2.5.4-2.5.9s1.1.9 2.5.9h.2l-.1.1c-1 1-1.5 2-1.1 2.4.3.3 1.4-.2 2.4-1.1l.1-.1v.2c0 1.4.4 2.5.9 2.5s.9-1.1.9-2.5v-.2l.1.1c1 1 2 1.5 2.4 1.1.3-.3-.2-1.4-1.1-2.4l-.1-.1h.2c1.3 0 2.5-.4 2.5-.9zm-4.8.9c-.5 0-.9-.4-.9-.9s.4-.9.9-.9.9.4.9.9-.4.9-.9.9zM53.5 44.5c0-.5-1.1-.9-2.5-.9h-.2l.1-.1c1-1 1.5-2 1.1-2.4-.3-.3-1.4.2-2.4 1.1l-.1.1v-.2c0-1.4-.4-2.5-.9-2.5s-.9 1.1-.9 2.5v.2l-.1-.1c-1-1-2-1.5-2.4-1.1-.3.3.2 1.4 1.1 2.4l.1.1h-.2c-1.4 0-2.5.4-2.5.9s1.1.9 2.5.9h.2l-.1.1c-1 1-1.5 2-1.1 2.4.3.3 1.4-.2 2.4-1.1l.1-.1v.2c0 1.4.4 2.5.9 2.5s.9-1.1.9-2.5v-.2l.1.1c1 1 2 1.5 2.4 1.1.3-.3-.2-1.4-1.1-2.4l-.1-.1h.2c1.4 0 2.5-.4 2.5-.9zm-4.8.9c-.5 0-.9-.4-.9-.9s.4-.9.9-.9.9.4.9.9-.4.9-.9.9z"></path></g><path fill="#D63834" d="M44 24.3l-2.7-1.1 7.6-21.4 4.4 1.8z"></path><path fill="#8E0404" d="M44 24.3l-1.6-.6 8.7-19.1 2.2-1z"></path><path fill="#C1BBA8" d="M45.5 25.8c-.2.5-.7.7-1.2.5l-4.7-1.9c-.5-.2-.7-.7-.5-1.2.2-.5.7-.7 1.2-.5l4.7 1.9c.5.2.7.8.5 1.2z"></path><path fill="#ED7777" d="M49.1 2l2 2.6-1.8 4.1z"></path><path fill="#D63834" d="M48.8 27.2l-2.3-1.6L58.6 6.4l3.8 2.7z"></path><path fill="#8E0404" d="M48.8 27.2l-1.4-.9L60.1 9.6l2.3-.5z"></path><path fill="#C1BBA8" d="M50 29.1c-.3.4-.8.5-1.3.2l-4.1-2.8c-.4-.3-.5-.8-.2-1.3.3-.4.8-.5 1.3-.2l4.1 2.8c.3.3.4.9.2 1.3z"></path><path fill="#ED7777" d="M58.6 6.7l1.5 2.9-2.8 3.7z"></path><path fill="#8E0404" d="M43.3 61.8c0 .2-5 .4-11.3.4s-11.4-.2-11.4-.4 5.1-.4 11.4-.4 11.3.1 11.3.4z"></path></svg>