<svg xmlns="http://www.w3.org/2000/svg" width="64" height="64" viewBox="0 0 64 64"><defs></defs><path fill="#F79E00" d="M61 54.8V35H3v20.1c0 2.5 13 4.5 29 4.5s29.1-2 29.1-4.5c-.1-.1-.1-.2-.1-.3z"></path><path fill="#C67B02" d="M32 59.6c16 0 29-2 29-4.5V35H3"></path><path fill="#357503" d="M61 52.6V33l-58-.3v20.2c0 2.5 13 4.5 29 4.5s29.1-2 29.1-4.5c-.1-.1-.1-.2-.1-.3z"></path><path fill="#275400" d="M32 57.4c16 0 29-1.9 29-4.3V32.7L3 33"></path><ellipse fill="#F79E00" cx="32" cy="32.7" rx="29" ry="4.5"></ellipse><path fill="#C67B02" d="M32 28.2c16 0 29 2 29 4.5s-13 4.5-29 4.5"></path><ellipse fill="#FFF7D2" cx="32" cy="31.7" rx="24.6" ry="3.5"></ellipse><path fill="#EADFA0" d="M32 28.2c13.6 0 24.6 1.5 24.6 3.5 0 1.9-11 3.5-24.6 3.5"></path><ellipse fill="#08B2C4" cx="32" cy="31.2" rx="10.6" ry="1.6"></ellipse><path fill="#1491AF" d="M32 29.5c5.9 0 10.6.7 10.6 1.6 0 .9-4.8 1.6-10.6 1.6"></path><path fill="#F79E00" d="M33 55.1c0 .5-.4.9-.9.9H32c-.5 0-.9-.4-.9-.9V38.9c0-.5.4-.9.9-.9h.1c.5 0 .9.4.9.9v16.2z"></path><g fill="#F79E00"><path d="M17 54.1c0 .5-.4.9-.9.9H16c-.5 0-.9-.4-.9-.9V37.9c0-.5.4-.9.9-.9h.1c.5 0 .9.4.9.9v16.2zM3 51.1c0 .5-.4.9-.9.9h-.2c-.5 0-.9-.4-.9-.9V34.9c0-.5.4-.9.9-.9H2c.6 0 1 .4 1 .9v16.2z"></path></g><g fill="#C67B02"><path d="M49 37.9c0-.5-.4-.9-.9-.9H48c-.5 0-.9.4-.9.9V54c0 .5.4.9.9.9h.1c.5 0 .9-.4.9-.9V37.9zM63 34.9c0-.5-.4-.9-.9-.9H62c-.5 0-.9.4-.9.9V51c0 .5.4.9.9.9h.1c.5 0 .9-.4.9-.9V34.9z"></path></g><path fill="#E0A617" d="M34.9 24.9c-.6-.8-1.5-1.2-2.8-.6-1.7.8-2.6 2.5-2 3.8.6 1.3 2.5 1.7 4.2.9 1.4-.6 1.6-1.5 1.4-2.5.4-.1.8-.3 1.2-.5l20.3-8.2c1-.4 1.4-1.6.9-2.5s-1.6-1.4-2.5-.9L36 24.3c-.4.2-.9.3-1.1.6z"></path><path fill="#C67B02" d="M58 15.2c-.4-1-1.6-1.4-2.5-.9L36 24.3c-.5.2-.9.4-1.2.6-.6-.8-1.5-1.2-2.8-.6-1.7.8-2.6 2.5-2 3.8"></path><path fill="#E0A617" d="M31.3 15.2c.6-.8 1.5-1.2 2.8-.6 1.7.8 2.6 2.5 2 3.8-.6 1.3-2.5 1.7-4.2.9-1.4-.6-1.6-1.5-1.4-2.5-.4-.1-.8-.3-1.2-.5L9.1 8.1c-1-.4-1.4-1.6-.9-2.5.4-1 1.6-1.4 2.5-.9l19.4 10c.5.1.9.3 1.2.5z"></path><path fill="#C67B02" d="M8.2 5.5c.4-1 1.6-1.4 2.5-.9l19.4 10c.5.2.9.4 1.2.6.6-.8 1.5-1.2 2.8-.6 1.7.8 2.6 2.5 2 3.8"></path><ellipse transform="matrix(.994 -.109 .109 .994 -3.229 1.792)" fill="#fff" cx="14.8" cy="30.5" rx="4.7" ry=".9"></ellipse></svg>