<svg xmlns="http://www.w3.org/2000/svg" width="65" height="65" viewBox="0 0 65 65"><defs></defs><path fill="#99B5B5" d="M47.236 23.426c-.926.926-2.427.926-3.354 0l-2.307-2.307c-.927-.927-.927-2.43 0-3.356L43.2 16.14c.927-.927 2.43-.927 3.355 0l2.307 2.306c.926.926.926 2.43 0 3.355l-1.626 1.626z"></path><path fill="#88A3A2" d="M47.236 23.426l1.552-1.55c-.067-.088-.133-.178-.214-.26l-5.19-5.19c-.08-.08-.17-.144-.26-.21l-1.55 1.548c-.034.036-.06.077-.092.116l5.64 5.64c.038-.032.08-.058.114-.094z"></path><path fill="#205F72" d="M7.077 58.553c-.174.174-.456.174-.63 0-.173-.174-.173-.455 0-.63l14.12-14.12c.175-.173.457-.173.63 0 .174.175.174.456 0 .63l-14.12 14.12zM39.164 40.57c-.305.304-.797.304-1.102 0l-13.63-13.63c-.305-.306-.305-.798 0-1.103.303-.304.796-.304 1.1 0L39.165 39.47c.305.302.304.797 0 1.1z"></path><path fill="#1F3954" d="M45.43 28.118c-.928.927-2.43.927-3.357 0l-5.19-5.19c-.927-.927-.927-2.43 0-3.356l2.31-2.307c.926-.926 2.428-.926 3.355 0l5.188 5.19c.928.927.928 2.43 0 3.356L45.43 28.12z"></path><path fill="#0E253A" d="M39.19 17.265c.927-.926 2.43-.926 3.356 0l5.188 5.19c.928.927.928 2.43 0 3.356l-2.307 2.308c-.927.927-2.43.927-3.356 0"></path><path fill="#18456D" d="M39.19 17.265c.927-.926 2.43-.926 3.356 0l5.188 5.19c.928.927.928 2.43 0 3.356"></path><path fill="#738E8C" d="M28.513 46.87c-1.223 1.223-3.206 1.224-4.43 0l-5.95-5.95c-1.226-1.226-1.225-3.208-.002-4.43l11.95-11.95c1.223-1.224 3.207-1.224 6.947-2.517l5.95 5.95c-1.292 3.74-1.294 5.725-2.515 6.947l-11.95 11.95z"></path><path fill="#5E7A77" d="M30.08 24.54c1.223-1.223 3.207-1.223 6.947-2.516l5.95 5.95c-1.292 3.74-1.294 5.725-2.515 6.947l-11.95 11.95c-1.223 1.224-3.206 1.225-4.43 0"></path><path fill="#455B58" d="M30.08 24.54c1.223-1.223 3.207-1.223 6.947-2.516l5.95 5.95c-1.292 3.74-1.294 5.725-2.515 6.947"></path><path fill="#324441" d="M37.027 22.023l5.95 5.95c-1.292 3.74-1.294 5.725-2.515 6.947"></path><path fill="#205F72" d="M36.404 22.226c.114.252.27.494.48.702l5.188 5.19c.21.208.45.364.703.478.07-.208.127-.402.202-.622l-5.95-5.95c-.22.075-.413.134-.623.202z"></path><path fill="#99B5B5" d="M32.922 25.68V13.388c.202-.084.39-.206.554-.37.68-.678.68-1.784 0-2.463-.68-.68-1.785-.68-2.464 0-.174.172-.302.372-.388.585h-9.04c-.33 0-.594.266-.594.593 0 .328.264.593.593.593h3.33c.012.013.014.026.025.038l6.745 6.745c.016.015.037.02.053.034v6.535c0 .164.066.31.174.418.108.108.256.174.42.174.33 0 .592-.265.592-.592zM26.58 12.327h4.015c.082.253.216.492.417.692.21.21.46.345.725.426v4.04l-5.158-5.16z"></path><path fill="#738E8C" d="M33.03 11c-.604-.602-1.538-.667-2.217-.202-.075.108-.142.223-.19.342h-.17c-.113.14-.21.287-.273.446h-9.045c-.042 0-.08.017-.12.025-.01.042-.026.08-.024.123 0 .328.265.593.594.593h3.33c.012.013.014.026.025.038l6.744 6.745c.016.015.037.02.053.034v6.535c0 .164.066.31.174.418.11.108.257.174.42.174.045 0 .083-.016.124-.024.01-.042.024-.08.024-.123V13.833c.16-.067.308-.165.444-.28v-.165c.107-.045.21-.102.307-.17.468-.677.402-1.614-.2-2.218zm-1.294 6.485l.395.394-.838.05-5.16-5.158.052-.84.396.395h4.016c.082.253.216.492.417.692.21.21.46.345.725.426v4.04z"></path><path fill="#99B5B5" d="M21.478 25.488c-.772.772-.772 2.024 0 2.796.77.77 2.024.77 2.796 0l2.865-2.866c.772-.772.772-2.024 0-2.796-.77-.772-2.022-.772-2.796 0l-2.866 2.866z"></path><path fill="#88A3A2" d="M27.14 25.418c.772-.772.772-2.024 0-2.796-.77-.772-2.022-.772-2.796 0l-2.866 2.866c-.772.772-.772 2.024 0 2.796"></path><path fill="#B6CECD" d="M27.14 22.622c-.77-.772-2.022-.772-2.796 0l-1.188 1.19c-.772.77-.772 2.023 0 2.794.772.77 2.024.77 2.796 0l1.188-1.188c.772-.772.772-2.024 0-2.796z"></path><path fill="#99B5B5" d="M27.14 22.622c-.77-.772-2.022-.772-2.796 0l-1.188 1.19c-.772.77-.772 2.023 0 2.794"></path><path fill="#27D6FF" d="M20.12 28.54c-.61.61-1.603.61-2.213 0L1.587 12.22c-.61-.61-.61-1.602 0-2.213l8.3-8.298c.61-.61 1.602-.61 2.212 0l16.32 16.32c.608.61.61 1.6 0 2.21l-8.3 8.3z"></path><path fill="#349DD1" d="M19.49 29.168c-.61.61-1.602.61-2.212 0L.958 12.848c-.61-.61-.61-1.6 0-2.21l8.3-8.3c.61-.61 1.6-.61 2.212 0l16.318 16.32c.612.61.612 1.602 0 2.212l-8.297 8.298z"></path><path fill="#108EBF" d="M27.788 18.657c.612.61.612 1.602 0 2.212l-8.297 8.297c-.61.61-1.602.61-2.212 0L.958 12.847c-.61-.61-.61-1.6 0-2.21"></path><g fill="#27D6FF"><path d="M5.016 14.887c-.087.087-.228.087-.314 0-.087-.086-.087-.228 0-.314l8.493-8.493c.087-.087.228-.087.314 0 .087.087.087.227 0 .314l-8.494 8.493zM8.528 18.4c-.087.087-.228.087-.314 0-.087-.087-.087-.228 0-.314l8.493-8.493c.087-.087.23-.087.314 0 .09.087.09.227 0 .314L8.53 18.4zM12.04 21.913c-.087.087-.227.087-.313 0-.088-.086-.088-.228 0-.314l8.492-8.494c.087-.087.228-.087.313 0 .088.087.088.227 0 .314l-8.493 8.493zM15.555 25.426c-.09.087-.23.086-.316 0-.087-.087-.087-.228 0-.315l8.493-8.492c.087-.087.23-.087.315 0 .087.087.087.228 0 .314l-8.493 8.494z"></path></g><g fill="#27D6FF"><circle cx="9.519" cy="4.213" r=".222"></circle><circle cx="10.253" cy="4.947" r=".222"></circle><circle cx="10.987" cy="5.681" r=".223"></circle><circle cx="11.722" cy="6.415" r=".223"></circle><circle cx="13.067" cy="7.761" r=".222"></circle><circle cx="13.801" cy="8.495" r=".223"></circle><circle cx="14.535" cy="9.229" r=".223"></circle><circle cx="15.269" cy="9.963" r=".223"></circle><circle cx="16.616" cy="11.309" r=".223"></circle><circle cx="17.35" cy="12.043" r=".222"></circle><circle cx="18.083" cy="12.777" r=".223"></circle><circle cx="18.817" cy="13.511" r=".222"></circle><circle cx="20.163" cy="14.857" r=".222"></circle><circle cx="20.897" cy="15.591" r=".223"></circle><circle cx="21.631" cy="16.325" r=".222"></circle><circle cx="22.365" cy="17.059" r=".222"></circle><circle cx="23.711" cy="18.405" r=".223"></circle><circle cx="24.445" cy="19.139" r=".223"></circle><path d="M25.338 20.03c-.09.087-.23.088-.316 0s-.087-.228 0-.314c.087-.087.228-.087.316 0 .084.086.084.228 0 .315z"></path><circle cx="25.914" cy="20.607" r=".223"></circle><circle cx="8.182" cy="5.55" r=".222"></circle><circle cx="8.916" cy="6.284" r=".222"></circle><circle cx="9.65" cy="7.018" r=".223"></circle><circle cx="10.385" cy="7.752" r=".223"></circle><circle cx="11.729" cy="9.098" r=".222"></circle><circle cx="12.464" cy="9.832" r=".223"></circle><circle cx="13.198" cy="10.566" r=".223"></circle><circle cx="13.932" cy="11.3" r=".223"></circle><circle cx="15.278" cy="12.646" r=".223"></circle><circle cx="16.013" cy="13.38" r=".222"></circle><circle cx="16.746" cy="14.114" r=".223"></circle><circle cx="17.48" cy="14.848" r=".223"></circle><circle cx="18.826" cy="16.194" r=".223"></circle><circle cx="19.561" cy="16.928" r=".223"></circle><circle cx="20.294" cy="17.662" r=".222"></circle><circle cx="21.028" cy="18.396" r=".223"></circle><circle cx="22.374" cy="19.742" r=".223"></circle><circle cx="23.108" cy="20.476" r=".223"></circle><circle cx="23.842" cy="21.21" r=".223"></circle><circle cx="24.577" cy="21.944" r=".223"></circle><circle cx="6.845" cy="6.887" r=".223"></circle><circle cx="7.579" cy="7.621" r=".222"></circle><circle cx="8.313" cy="8.355" r=".223"></circle><circle cx="9.048" cy="9.089" r=".222"></circle><circle cx="10.394" cy="10.435" r=".222"></circle><circle cx="11.127" cy="11.169" r=".223"></circle><circle cx="11.861" cy="11.903" r=".223"></circle><circle cx="12.595" cy="12.637" r=".223"></circle><path d="M14.1 14.14c-.09.087-.23.088-.315 0s-.087-.227 0-.314.227-.087.315 0c.084.087.084.228 0 .315z"></path><circle cx="14.676" cy="14.717" r=".222"></circle><circle cx="15.409" cy="15.451" r=".222"></circle><circle cx="16.144" cy="16.185" r=".222"></circle><circle cx="17.489" cy="17.531" r=".223"></circle><circle cx="18.224" cy="18.265" r=".223"></circle><circle cx="18.958" cy="18.999" r=".222"></circle><circle cx="19.691" cy="19.733" r=".223"></circle><circle cx="21.037" cy="21.079" r=".223"></circle><circle cx="21.771" cy="21.813" r=".223"></circle><circle cx="22.505" cy="22.547" r=".223"></circle><circle cx="23.24" cy="23.281" r=".223"></circle><circle cx="5.508" cy="8.224" r=".222"></circle><circle cx="6.242" cy="8.958" r=".222"></circle><circle cx="6.977" cy="9.692" r=".223"></circle><path d="M7.87 10.583c-.09.087-.23.087-.316 0s-.087-.227 0-.314.227-.088.315 0c.083.086.083.227 0 .313z"></path><circle cx="9.057" cy="11.772" r=".222"></circle><circle cx="9.79" cy="12.506" r=".223"></circle><circle cx="10.524" cy="13.24" r=".223"></circle><circle cx="11.258" cy="13.974" r=".223"></circle><circle cx="12.605" cy="15.32" r=".223"></circle><circle cx="13.339" cy="16.054" r=".222"></circle><circle cx="14.072" cy="16.788" r=".222"></circle><circle cx="14.807" cy="17.522" r=".222"></circle><circle cx="16.152" cy="18.868" r=".223"></circle><circle cx="16.887" cy="19.602" r=".223"></circle><circle cx="17.621" cy="20.336" r=".222"></circle><circle cx="18.354" cy="21.07" r=".223"></circle><circle cx="19.7" cy="22.416" r=".223"></circle><circle cx="20.434" cy="23.15" r=".223"></circle><circle cx="21.168" cy="23.884" r=".223"></circle><circle cx="21.903" cy="24.618" r=".223"></circle><circle cx="4.171" cy="9.561" r=".222"></circle><circle cx="4.905" cy="10.295" r=".222"></circle><circle cx="5.64" cy="11.029" r=".223"></circle><circle cx="6.375" cy="11.763" r=".223"></circle><circle cx="7.72" cy="13.109" r=".222"></circle><circle cx="8.454" cy="13.843" r=".222"></circle><circle cx="9.187" cy="14.577" r=".223"></circle><circle cx="9.921" cy="15.311" r=".223"></circle><circle cx="11.268" cy="16.657" r=".223"></circle><circle cx="12.002" cy="17.391" r=".222"></circle><circle cx="12.735" cy="18.125" r=".222"></circle><circle cx="13.47" cy="18.859" r=".222"></circle><circle cx="14.815" cy="20.205" r=".223"></circle><circle cx="15.55" cy="20.939" r=".223"></circle><circle cx="16.284" cy="21.673" r=".222"></circle><circle cx="17.018" cy="22.407" r=".223"></circle><circle cx="18.362" cy="23.753" r=".223"></circle><circle cx="19.098" cy="24.487" r=".223"></circle><circle cx="19.831" cy="25.221" r=".223"></circle><circle cx="20.566" cy="25.955" r=".223"></circle><circle cx="2.834" cy="10.898" r=".222"></circle><circle cx="3.568" cy="11.632" r=".222"></circle><circle cx="4.303" cy="12.366" r=".223"></circle><circle cx="5.037" cy="13.1" r=".222"></circle><circle cx="6.383" cy="14.446" r=".222"></circle><circle cx="7.116" cy="15.18" r=".223"></circle><circle cx="7.85" cy="15.914" r=".223"></circle><circle cx="8.584" cy="16.648" r=".223"></circle><circle cx="9.931" cy="17.994" r=".223"></circle><circle cx="10.664" cy="18.728" r=".221"></circle><circle cx="11.398" cy="19.462" r=".222"></circle><circle cx="12.133" cy="20.196" r=".222"></circle><circle cx="13.478" cy="21.542" r=".222"></circle><circle cx="14.212" cy="22.276" r=".223"></circle><circle cx="14.947" cy="23.01" r=".222"></circle><circle cx="15.681" cy="23.744" r=".223"></circle><circle cx="17.026" cy="25.09" r=".223"></circle><circle cx="17.76" cy="25.824" r=".223"></circle><circle cx="18.495" cy="26.558" r=".223"></circle><circle cx="19.229" cy="27.292" r=".223"></circle></g><path fill="#99B5B5" d="M38.728 32.67c0 .163.066.312.173.42.11.107.258.173.42.173h6.536c.013.018.02.037.036.054l6.745 6.746c.01.01.025.015.037.024v3.33c0 .328.265.594.593.594s.593-.265.593-.592v-9.042c.213-.086.414-.214.587-.387.68-.68.68-1.786 0-2.465-.68-.68-1.784-.68-2.465 0-.163.163-.283.35-.368.552H39.32c-.327 0-.592.266-.592.593zm8.787.593h4.04c.082.267.217.518.427.727.2.2.44.334.692.416v4.018l-5.16-5.16z"></path><path fill="#738E8C" d="M51.78 31.77c-.066.097-.123.2-.167.307h-.163c-.117.138-.216.287-.283.445H38.875c-.044 0-.08.016-.122.025-.01.04-.025.078-.025.122 0 .162.066.31.173.418.11.108.258.174.42.174h6.536c.013.018.02.037.036.054l6.745 6.746c.01.01.025.015.037.024v3.33c0 .328.265.594.593.594.044 0 .08-.016.122-.023.01-.043.025-.08.025-.123V34.82c.157-.063.307-.16.444-.27v-.174c.12-.05.233-.113.343-.19.465-.677.4-1.612-.202-2.214-.603-.604-1.54-.67-2.22-.2zm-.225 1.493c.082.267.217.518.427.727.2.2.44.334.692.416v4.018l.394.393-.84.053-5.16-5.16.054-.838.394.393h4.04z"></path><path fill="#99B5B5" d="M39.513 43.523c-.77.77-2.024.77-2.797 0-.77-.772-.77-2.024 0-2.797l2.866-2.866c.772-.77 2.025-.77 2.797 0 .77.772.77 2.023 0 2.797l-2.867 2.866z"></path><path fill="#88A3A2" d="M39.582 37.86c.772-.77 2.025-.77 2.797 0 .77.772.77 2.023 0 2.797l-2.867 2.866c-.77.77-2.024.77-2.797 0"></path><path fill="#B6CECD" d="M42.38 37.86c.77.772.77 2.023 0 2.797l-1.19 1.188c-.77.77-2.023.77-2.796 0-.772-.772-.772-2.024 0-2.797l1.188-1.188c.772-.77 2.025-.77 2.797 0z"></path><path fill="#99B5B5" d="M42.38 37.86c.77.772.77 2.023 0 2.797l-1.19 1.188c-.77.77-2.023.77-2.796 0"></path><path fill="#27D6FF" d="M36.463 44.88c-.61.61-.61 1.603-.002 2.213l16.322 16.32c.61.61 1.602.61 2.212 0l8.298-8.3c.61-.61.61-1.6 0-2.21l-16.32-16.32c-.61-.61-1.6-.61-2.21 0l-8.3 8.298z"></path><path fill="#349DD1" d="M35.833 45.51c-.61.61-.61 1.603 0 2.212l16.32 16.32c.61.61 1.6.61 2.212 0l8.298-8.298c.61-.61.61-1.603 0-2.212l-16.32-16.32c-.61-.61-1.6-.61-2.212 0l-8.297 8.3z"></path><path fill="#108EBF" d="M46.343 37.212c-.61-.61-1.6-.61-2.212 0l-8.297 8.3c-.61.608-.61 1.6 0 2.21l16.32 16.32c.61.61 1.6.61 2.212 0"></path><g fill="#27D6FF"><path d="M50.113 59.985c-.086.087-.087.228 0 .314s.228.086.314 0l8.494-8.494c.087-.087.087-.228 0-.315-.087-.085-.228-.085-.313 0l-8.494 8.495zM46.6 56.472c-.086.088-.086.23 0 .315.088.087.228.087.316 0l8.492-8.493c.087-.088.087-.23 0-.314-.086-.088-.228-.088-.314 0L46.6 56.472zM43.088 52.96c-.087.086-.087.228 0 .314.087.087.227.087.315 0l8.493-8.494c.087-.086.087-.227 0-.314-.087-.086-.23-.086-.315 0L43.09 52.96zM39.575 49.446c-.087.088-.087.23 0 .315.087.088.227.088.315 0l8.493-8.492c.087-.088.087-.23 0-.314-.087-.088-.23-.088-.315 0l-8.493 8.492z"></path></g><g fill="#27D6FF"><circle cx="60.788" cy="55.48" r=".223"></circle><circle cx="60.053" cy="54.747" r=".223"></circle><circle cx="59.319" cy="54.013" r=".222"></circle><circle cx="58.586" cy="53.279" r=".222"></circle><circle cx="57.24" cy="51.933" r=".222"></circle><circle cx="56.506" cy="51.199" r=".222"></circle><circle cx="55.771" cy="50.465" r=".223"></circle><circle cx="55.038" cy="49.731" r=".222"></circle><circle cx="53.691" cy="48.385" r=".223"></circle><circle cx="52.958" cy="47.651" r=".223"></circle><circle cx="52.224" cy="46.917" r=".222"></circle><circle cx="51.489" cy="46.183" r=".223"></circle><circle cx="50.143" cy="44.838" r=".223"></circle><circle cx="49.409" cy="44.103" r=".222"></circle><circle cx="48.676" cy="43.369" r=".222"></circle><circle cx="47.942" cy="42.635" r=".223"></circle><circle cx="46.596" cy="41.29" r=".223"></circle><circle cx="45.861" cy="40.555" r=".223"></circle><circle cx="45.127" cy="39.821" r=".222"></circle><circle cx="44.394" cy="39.087" r=".223"></circle><circle cx="59.451" cy="56.818" r=".222"></circle><circle cx="58.716" cy="56.084" r=".223"></circle><circle cx="57.982" cy="55.35" r=".222"></circle><circle cx="57.249" cy="54.616" r=".223"></circle><circle cx="55.903" cy="53.27" r=".222"></circle><circle cx="55.169" cy="52.536" r=".222"></circle><circle cx="54.434" cy="51.802" r=".223"></circle><circle cx="53.701" cy="51.068" r=".222"></circle><circle cx="52.354" cy="49.723" r=".222"></circle><circle cx="51.621" cy="48.988" r=".222"></circle><circle cx="50.887" cy="48.254" r=".223"></circle><circle cx="50.152" cy="47.52" r=".223"></circle><circle cx="48.806" cy="46.174" r=".222"></circle><circle cx="48.072" cy="45.44" r=".222"></circle><circle cx="47.339" cy="44.706" r=".223"></circle><circle cx="46.605" cy="43.972" r=".222"></circle><circle cx="45.259" cy="42.626" r=".223"></circle><circle cx="44.524" cy="41.892" r=".223"></circle><circle cx="43.791" cy="41.158" r=".222"></circle><circle cx="43.057" cy="40.424" r=".222"></circle><circle cx="58.113" cy="58.155" r=".223"></circle><circle cx="57.379" cy="57.421" r=".223"></circle><circle cx="56.646" cy="56.687" r=".222"></circle><circle cx="55.912" cy="55.953" r=".222"></circle><circle cx="54.566" cy="54.607" r=".222"></circle><circle cx="53.832" cy="53.873" r=".222"></circle><circle cx="53.098" cy="53.139" r=".223"></circle><circle cx="52.362" cy="52.405" r=".222"></circle><circle cx="51.017" cy="51.059" r=".222"></circle><circle cx="50.284" cy="50.325" r=".223"></circle><circle cx="49.55" cy="49.591" r=".222"></circle><circle cx="48.815" cy="48.857" r=".223"></circle><circle cx="47.469" cy="47.512" r=".223"></circle><circle cx="46.735" cy="46.777" r=".222"></circle><circle cx="46.002" cy="46.043" r=".222"></circle><circle cx="45.268" cy="45.309" r=".222"></circle><circle cx="43.922" cy="43.963" r=".223"></circle><circle cx="43.188" cy="43.229" r=".223"></circle><circle cx="42.454" cy="42.495" r=".222"></circle><circle cx="41.72" cy="41.761" r=".222"></circle><circle cx="56.777" cy="59.492" r=".222"></circle><circle cx="56.042" cy="58.758" r=".223"></circle><circle cx="55.309" cy="58.023" r=".222"></circle><circle cx="54.575" cy="57.29" r=".223"></circle><circle cx="53.229" cy="55.944" r=".222"></circle><circle cx="52.495" cy="55.209" r=".222"></circle><circle cx="51.76" cy="54.476" r=".223"></circle><circle cx="51.026" cy="53.742" r=".222"></circle><circle cx="49.681" cy="52.396" r=".222"></circle><circle cx="48.947" cy="51.662" r=".222"></circle><path d="M48.055 50.77c-.086.09-.086.23 0 .315.088.087.228.087.316 0 .085-.086.085-.227 0-.314-.088-.085-.227-.085-.315 0z"></path><circle cx="47.478" cy="50.194" r=".223"></circle><circle cx="46.132" cy="48.848" r=".222"></circle><circle cx="45.398" cy="48.114" r=".222"></circle><circle cx="44.665" cy="47.38" r=".223"></circle><circle cx="43.931" cy="46.646" r=".222"></circle><circle cx="42.585" cy="45.3" r=".223"></circle><circle cx="41.851" cy="44.566" r=".223"></circle><circle cx="41.117" cy="43.832" r=".222"></circle><circle cx="40.383" cy="43.098" r=".222"></circle><circle cx="55.44" cy="60.829" r=".222"></circle><circle cx="54.706" cy="60.095" r=".223"></circle><circle cx="53.972" cy="59.361" r=".222"></circle><circle cx="53.238" cy="58.627" r=".222"></circle><circle cx="51.892" cy="57.281" r=".222"></circle><circle cx="51.158" cy="56.547" r=".222"></circle><circle cx="50.423" cy="55.812" r=".223"></circle><circle cx="49.689" cy="55.079" r=".222"></circle><circle cx="48.343" cy="53.733" r=".222"></circle><circle cx="47.61" cy="52.999" r=".222"></circle><circle cx="46.876" cy="52.265" r=".222"></circle><circle cx="46.142" cy="51.531" r=".222"></circle><circle cx="44.795" cy="50.186" r=".223"></circle><circle cx="44.062" cy="49.451" r=".222"></circle><circle cx="43.328" cy="48.717" r=".222"></circle><circle cx="42.594" cy="47.983" r=".223"></circle><circle cx="41.248" cy="46.637" r=".222"></circle><circle cx="40.514" cy="45.903" r=".223"></circle><circle cx="39.779" cy="45.168" r=".221"></circle><circle cx="39.046" cy="44.435" r=".223"></circle><circle cx="54.103" cy="62.166" r=".223"></circle><circle cx="53.369" cy="61.432" r=".223"></circle><circle cx="52.635" cy="60.698" r=".222"></circle><circle cx="51.901" cy="59.963" r=".223"></circle><circle cx="50.556" cy="58.618" r=".223"></circle><circle cx="49.821" cy="57.883" r=".222"></circle><circle cx="49.086" cy="57.15" r=".223"></circle><circle cx="48.353" cy="56.416" r=".222"></circle><circle cx="47.006" cy="55.07" r=".222"></circle><circle cx="46.273" cy="54.336" r=".222"></circle><circle cx="45.539" cy="53.602" r=".222"></circle><circle cx="44.805" cy="52.868" r=".223"></circle><circle cx="43.458" cy="51.522" r=".222"></circle><circle cx="42.725" cy="50.788" r=".222"></circle><circle cx="41.991" cy="50.054" r=".223"></circle><circle cx="41.257" cy="49.32" r=".223"></circle><circle cx="39.911" cy="47.975" r=".222"></circle><circle cx="39.177" cy="47.24" r=".223"></circle><circle cx="38.442" cy="46.506" r=".222"></circle><circle cx="37.709" cy="45.772" r=".222"></circle></g><path fill="#1F3954" d="M25.146 48.52c-.365.368-.96.368-1.327 0l-7.34-7.338c-.368-.367-.366-.96 0-1.327.367-.366.96-.367 1.327 0l7.34 7.34c.37.366.366.96 0 1.326z"></path><path fill="#99B5B5" d="M30.958 31.107c-.1.1-.264.1-.366 0l-2.15-2.15c-.102-.102-.1-.265 0-.367.103-.1.267-.102.367 0l2.148 2.15c.102.1.102.265 0 .367zM29.465 32.6c-.1.103-.266.103-.367 0l-2.15-2.148c-.1-.102-.1-.266 0-.367.102-.1.267-.102.368 0l2.15 2.15c.1.1.1.265 0 .366zM27.97 34.095c-.1.102-.265.103-.367 0l-2.15-2.15c-.1-.1-.1-.265 0-.365.103-.102.267-.102.368 0l2.15 2.148c.102.102.1.266 0 .367zM26.477 35.59c-.102.1-.267.1-.368 0l-2.15-2.15c-.102-.102-.1-.265 0-.366.102-.102.266-.102.368 0l2.148 2.15c.102.1.1.264 0 .366zM24.982 37.084c-.102.1-.267.1-.367 0l-2.15-2.15c-.1-.102-.1-.265 0-.367.1-.1.266-.1.367 0l2.15 2.15c.1.1.1.265 0 .367z"></path><circle fill="#349DD1" cx="6.017" cy="58.984" r="2.133"></circle><path fill="#108EBF" d="M3.884 58.984c0 1.178.954 2.133 2.134 2.134 1.178 0 2.134-.955 2.134-2.135"></path><path fill="#FF7F00" d="M14.18 56.685c.382-.383.38-1.004 0-1.387L9.7 50.823c-.38-.383-1-.384-1.385 0-.382.383-.382 1.002 0 1.385l4.48 4.477c.38.38 1.002.382 1.384 0z"></path><path fill="#FF5B00" d="M12.794 56.685c.382.382 1.003.383 1.385 0 .382-.383.38-1.004 0-1.387L9.7 50.823"></path><path fill="#FF7F00" d="M16.484 54.378c.384-.383.384-1.004 0-1.387l-4.476-4.474c-.382-.384-1.003-.384-1.385 0-.383.382-.383 1 0 1.384l4.477 4.478c.382.382 1.004.383 1.384 0z"></path><path fill="#FF5B00" d="M15.1 54.378c.383.382 1.004.383 1.385 0 .384-.383.384-1.004 0-1.387l-4.476-4.474"></path><path fill="#FF7F00" d="M18.792 52.07c.384-.382.383-1.003.002-1.386l-4.477-4.477c-.384-.382-1.004-.383-1.387 0s-.384 1.003 0 1.385l4.477 4.48c.383.38 1.003.38 1.385 0z"></path><path fill="#FF5B00" d="M17.407 52.07c.383.383 1.003.383 1.385 0 .384-.382.383-1.003.002-1.386l-4.477-4.477"></path><path fill="#FF7F00" d="M21.1 49.765c.382-.383.382-1.004 0-1.387L16.623 43.9c-.38-.38-1-.382-1.385 0-.382.384-.382 1.004 0 1.386l4.478 4.477c.38.383 1.002.383 1.384.002z"></path><path fill="#FF5B00" d="M19.714 49.763c.382.384 1.003.384 1.385.002.382-.383.382-1.004 0-1.387L16.623 43.9"></path><path fill="#27D6FF" d="M55.94 23.636c-.926.927-2.43.926-3.355 0l-11.22-11.22c-.926-.927-.926-2.43 0-3.355l7.865-7.864c.927-.926 2.428-.926 3.354 0l11.22 11.22c.927.927.927 2.43 0 3.356l-7.864 7.864z"></path><path fill="#349DD1" d="M55.627 23.95c-.928.927-2.43.927-3.356 0L41.05 12.73c-.926-.926-.926-2.43 0-3.355l7.865-7.864c.927-.926 2.43-.926 3.355 0l11.22 11.22c.927.926.927 2.43 0 3.356l-7.863 7.864z"></path><path fill="#108EBF" d="M48.915 1.51c.927-.926 2.43-.926 3.355 0l11.22 11.22c.927.926.927 2.43 0 3.356l-7.863 7.864c-.928.927-2.43.927-3.356 0"></path><g fill="#27D6FF"><circle cx="60.261" cy="14.037" r=".223"></circle><circle cx="59.527" cy="13.303" r=".222"></circle><circle cx="58.794" cy="12.569" r=".222"></circle><circle cx="58.061" cy="11.835" r=".223"></circle><circle cx="56.714" cy="10.489" r=".223"></circle><circle cx="55.98" cy="9.755" r=".223"></circle><circle cx="55.246" cy="9.021" r=".223"></circle><circle cx="54.513" cy="8.287" r=".222"></circle><circle cx="53.167" cy="6.941" r=".222"></circle><circle cx="52.432" cy="6.207" r=".223"></circle><path d="M51.54 5.316c-.085.086-.085.227 0 .314.088.087.228.087.315 0s.087-.227 0-.314-.227-.087-.316 0z"></path><circle cx="50.964" cy="4.74" r=".223"></circle><circle cx="58.925" cy="15.374" r=".222"></circle><circle cx="58.191" cy="14.64" r=".222"></circle><circle cx="57.458" cy="13.906" r=".222"></circle><circle cx="56.724" cy="13.172" r=".223"></circle><circle cx="55.377" cy="11.826" r=".223"></circle><circle cx="54.643" cy="11.092" r=".223"></circle><circle cx="53.909" cy="10.358" r=".223"></circle><circle cx="53.176" cy="9.624" r=".222"></circle><circle cx="51.83" cy="8.278" r=".223"></circle><circle cx="51.095" cy="7.544" r=".223"></circle><circle cx="50.361" cy="6.81" r=".223"></circle><circle cx="49.627" cy="6.076" r=".223"></circle><circle cx="57.588" cy="16.711" r=".222"></circle><circle cx="56.854" cy="15.977" r=".222"></circle><circle cx="56.121" cy="15.243" r=".222"></circle><circle cx="55.387" cy="14.509" r=".223"></circle><circle cx="54.041" cy="13.163" r=".223"></circle><circle cx="53.306" cy="12.429" r=".223"></circle><circle cx="52.572" cy="11.695" r=".223"></circle><circle cx="51.839" cy="10.961" r=".222"></circle><circle cx="50.493" cy="9.615" r=".222"></circle><circle cx="49.758" cy="8.881" r=".223"></circle><circle cx="49.024" cy="8.147" r=".223"></circle><circle cx="48.29" cy="7.413" r=".223"></circle><circle cx="56.251" cy="18.048" r=".222"></circle><circle cx="55.517" cy="17.314" r=".222"></circle><circle cx="54.784" cy="16.58" r=".222"></circle><circle cx="54.05" cy="15.846" r=".223"></circle><circle cx="52.704" cy="14.5" r=".223"></circle><circle cx="51.969" cy="13.766" r=".223"></circle><circle cx="51.235" cy="13.032" r=".222"></circle><circle cx="50.502" cy="12.298" r=".222"></circle><circle cx="49.156" cy="10.952" r=".222"></circle><circle cx="48.421" cy="10.218" r=".223"></circle><circle cx="47.687" cy="9.484" r=".223"></circle><circle cx="46.954" cy="8.75" r=".222"></circle><circle cx="54.914" cy="19.385" r=".222"></circle><circle cx="54.181" cy="18.651" r=".223"></circle><circle cx="53.446" cy="17.917" r=".222"></circle><circle cx="52.712" cy="17.183" r=".223"></circle><circle cx="51.367" cy="15.837" r=".223"></circle><circle cx="50.632" cy="15.103" r=".222"></circle><circle cx="49.898" cy="14.369" r=".222"></circle><circle cx="49.165" cy="13.635" r=".222"></circle><circle cx="47.819" cy="12.289" r=".222"></circle><circle cx="47.084" cy="11.555" r=".223"></circle><circle cx="46.35" cy="10.821" r=".223"></circle><circle cx="45.616" cy="10.087" r=".223"></circle><circle cx="53.577" cy="20.722" r=".222"></circle><circle cx="52.843" cy="19.988" r=".222"></circle><circle cx="52.11" cy="19.254" r=".222"></circle><circle cx="51.376" cy="18.52" r=".223"></circle><circle cx="50.029" cy="17.174" r=".223"></circle><circle cx="49.295" cy="16.44" r=".223"></circle><circle cx="48.561" cy="15.706" r=".222"></circle><circle cx="47.828" cy="14.972" r=".221"></circle><circle cx="46.482" cy="13.626" r=".222"></circle><circle cx="45.747" cy="12.892" r=".223"></circle><circle cx="45.014" cy="12.158" r=".223"></circle><circle cx="44.278" cy="11.424" r=".223"></circle></g></svg>