<?xml version='1.0' encoding='utf-8'?>
<svg xmlns="http://www.w3.org/2000/svg" version="1.1" width="100" height="88">
<path d="M0 0 C0.08507812 0.29583984 0.08507812 0.29583984 0.515625 1.79296875 C3.35232674 11.04242709 3.35232674 11.04242709 7 14 C9.87265476 14.10476092 12.15136325 13.61720463 15 13 C15 13.66 15 14.32 15 15 C15.886875 14.649375 16.77375 14.29875 17.6875 13.9375 C21.06203126 12.98244398 22.69686152 13.02848868 26 14 C29.62011357 9.33195882 31.70677932 5.7607103 33 0 C37.6138567 1.49271834 40.49459542 3.73360028 44 7 C45 10 45 10 43.875 12.875 C41.58524871 16.69125215 39.04301973 19.97849014 35 22 C34.34 21.67 33.68 21.34 33 21 C33.05124023 21.65073486 33.10248047 22.30146973 33.15527344 22.97192383 C33.37509084 25.91763474 33.5628861 28.86453882 33.75 31.8125 C33.83121094 32.83666016 33.91242188 33.86082031 33.99609375 34.91601562 C34.05410156 35.89892578 34.11210938 36.88183594 34.171875 37.89453125 C34.2032959 38.34751587 34.2032959 38.34751587 34.36230469 40.63989258 C34 43 34 43 32.18847656 44.8425293 C29.17597655 46.43582053 27.24712439 45.7215832 24 45 C23.67 45.33 23.34 45.66 23 46 C21.33391013 46.04384447 19.66619446 46.0396713 18 46 C15.37886292 46 13.49064888 46.31292445 11 47 C10.67 46.01 10.34 45.02 10 44 C9.4225 44.350625 8.845 44.70125 8.25 45.0625 C5.64198224 46.14917407 4.60582371 45.93065133 2 45 C2 44.01 2 43.02 2 42 C2.99 42 3.98 42 5 42 C5 41.01 5 40.02 5 39 C4.34 39 3.68 39 3 39 C3 38.34 3 37.68 3 37 C2.34 37 1.68 37 1 37 C-0.50156874 33.99686252 -0.09281204 31.20932478 -0.0625 27.875 C-0.05347656 26.59367187 -0.04445313 25.31234375 -0.03515625 23.9921875 C-0.02355469 23.00476563 -0.01195312 22.01734375 0 21 C-0.92167969 21.06445312 -1.84335937 21.12890625 -2.79296875 21.1953125 C-6 21 -6 21 -7.86328125 19.6796875 C-8.34152344 19.08414063 -8.81976563 18.48859375 -9.3125 17.875 C-9.80363281 17.29492188 -10.29476563 16.71484375 -10.80078125 16.1171875 C-12.30909019 13.45430983 -12.6367576 11.0170486 -13 8 C-11.2126038 6.66094733 -9.41995047 5.32890934 -7.625 4 C-6.62726562 3.2575 -5.62953125 2.515 -4.6015625 1.75 C-2 0 -2 0 0 0 Z " fill="#EFEFCC" transform="translate(34,21)" />
<path d="M0 0 C5.9939277 1.60165609 11.36410104 0.73275994 17.40234375 -0.3125 C23.31540063 -1.23252182 23.31540063 -1.23252182 26.125 0.5625 C27.30076645 4.57970205 25.73325253 7.58578405 23.875 11.125 C22.31336431 13.57110192 20.6502374 15.82198932 18.875 18.125 C17.8025 17.939375 16.73 17.75375 15.625 17.5625 C12.47108454 17.1945432 10.77681508 17.08034657 7.875 18.125 C7.875 17.465 7.875 16.805 7.875 16.125 C7.1325 16.475625 6.39 16.82625 5.625 17.1875 C2.61054338 18.21515567 1.76056688 18.29257041 -1.125 17.125 C-5.02691 12.7844678 -7.82164712 8.04038117 -8.125 2.125 C-5.4009962 -0.95430864 -3.74583471 -1.00772898 0 0 Z " fill="#758D98" transform="translate(41.125,17.875)" />
<path d="M0 0 C4.6138567 1.49271834 7.49459542 3.73360028 11 7 C12 10 12 10 10.875 12.875 C8.58524871 16.69125215 6.04301973 19.97849014 2 22 C1.34 21.67 0.68 21.34 0 21 C0.33 28.26 0.66 35.52 1 43 C-0.32 43.66 -1.64 44.32 -3 45 C-3.99 43.35 -4.98 41.7 -6 40 C-5.175 39.835 -5.175 39.835 -1 39 C-0.67 38.01 -0.34 37.02 0 36 C-0.825 36.165 -0.825 36.165 -5 37 C-4.67 35.68 -4.34 34.36 -4 33 C-4.825 33.165 -4.825 33.165 -9 34 C-9.33 31.69 -9.66 29.38 -10 27 C-10.99 26.67 -11.98 26.34 -13 26 C-13 25.01 -13 24.02 -13 23 C-11.68 22.835 -11.68 22.835 -5 22 C-5 21.01 -5 20.02 -5 19 C-4.01 19 -3.02 19 -2 19 C-2.33 18.01 -2.66 17.02 -3 16 C-3.99 16.33 -4.98 16.66 -6 17 C-6.33 17.99 -6.66 18.98 -7 20 C-7.66 19.67 -8.32 19.34 -9 19 C-9 18.01 -9 17.02 -9 16 C-9.825 15.67 -9.825 15.67 -14 14 C-11.3333581 12.66667905 -9.83319697 13.32897967 -7 14 C-3.37988643 9.33195882 -1.29322068 5.7607103 0 0 Z " fill="#E7E8CA" transform="translate(67,21)" />
<path d="M0 0 C0.15855469 0.58007812 0.31710938 1.16015625 0.48046875 1.7578125 C2.51330412 8.5638801 4.94204153 12.96136102 11 17 C10.67 18.98 10.34 20.96 10 23 C8.68 22.34 7.36 21.68 6 21 C6 21.66 6 22.32 6 23 C5.34 23 4.68 23 4 23 C4 22.34 4 21.68 4 21 C3.34 21 2.68 21 2 21 C0.375 19 0.375 19 -1 17 C-1.4125 17.515625 -1.825 18.03125 -2.25 18.5625 C-4 20 -4 20 -5.9375 20 C-8.92851115 18.54981277 -10.20795173 16.78076455 -12 14 C-12.38444849 12.00919351 -12.72493029 10.0088424 -13 8 C-11.2126038 6.66094733 -9.41995047 5.32890934 -7.625 4 C-6.62726562 3.2575 -5.62953125 2.515 -4.6015625 1.75 C-2 0 -2 0 0 0 Z " fill="#F5F3D1" transform="translate(34,21)" />
<path d="M0 0 C1.44858525 2.17287787 2.74168059 4.28671138 4 6.5625 C6 10 6 10 8 12 C8.99 12.165 8.99 12.165 14 13 C14.165 15.64 14.165 15.64 15 29 C15.66 29 16.32 29 17 29 C17 29.66 17 30.32 17 31 C17.66 31 18.32 31 19 31 C19 31.99 19 32.98 19 34 C18.01 34 17.02 34 16 34 C16.33 34.99 16.66 35.98 17 37 C18.155 36.835 18.155 36.835 24 36 C24.33 36.66 24.66 37.32 25 38 C25.2990625 37.9175 25.2990625 37.9175 26.8125 37.5 C29.40213011 36.90808455 31.79174438 36.99466011 34.4375 37.0625 C36.80763007 37.00469195 38.73747091 36.67037899 41 36 C40.75 37.875 40.75 37.875 40 40 C34.42895048 43.83009655 25.70279758 42.58179052 19.33984375 41.58203125 C14.38636364 40.38636364 14.38636364 40.38636364 13 39 C12.91262355 37.14630389 12.89301847 35.28932459 12.90234375 33.43359375 C12.90556641 32.30888672 12.90878906 31.18417969 12.91210938 30.02539062 C12.92048828 28.84138672 12.92886719 27.65738281 12.9375 26.4375 C12.94201172 25.24962891 12.94652344 24.06175781 12.95117188 22.83789062 C12.96300325 19.89187774 12.97948713 16.94596319 13 14 C12.22785156 14.15726563 11.45570312 14.31453125 10.66015625 14.4765625 C7.88414706 15.02279632 5.80585442 15.43166991 3 15 C0.04519368 12.04519368 -1.86437818 9.02629554 -3 5 C-2.75 2.75 -2.75 2.75 -2 1 C-1.34 0.67 -0.68 0.34 0 0 Z " fill="#749DC5" transform="translate(20,29)" />
<path d="M0 0 C0.94875 0.350625 1.8975 0.70125 2.875 1.0625 C8.43790944 2.65510714 13.92837853 1.53007951 19.53515625 0.5625 C25.43817113 -0.35894622 25.43817113 -0.35894622 28.25 1.4375 C29.42576645 5.45470205 27.85825253 8.46078405 26 12 C24.43836431 14.44610192 22.7752374 16.69698932 21 19 C19.68 18.67 18.36 18.34 17 18 C17.53768872 14.1286412 18.577473 12.02815875 21 9 C21.33 8.01 21.66 7.02 22 6 C21.41541016 6.01160156 21.41541016 6.01160156 18.45703125 6.0703125 C16.90886058 6.08907821 15.36068297 6.10727755 13.8125 6.125 C13.42803711 6.13337891 13.42803711 6.13337891 11.48242188 6.17578125 C7.1850566 6.21266851 3.92098169 5.9958504 0 4 C0 2.68 0 1.36 0 0 Z " fill="#557DA2" transform="translate(39,17)" />
<path d="M0 0 C0.66 0.33 1.32 0.66 2 1 C1.67 1.66 1.34 2.32 1 3 C2.32 3.66 3.64 4.32 5 5 C3.125 6.0625 3.125 6.0625 1 7 C0.34 6.67 -0.32 6.34 -1 6 C-0.67 13.26 -0.34 20.52 0 28 C-0.66 28.33 -0.66 28.33 -4 30 C-4.99 28.35 -5.98 26.7 -7 25 C-5.35 24.67 -3.7 24.34 -2 24 C-1.67 23.01 -1.34 22.02 -1 21 C-2.65 21.33 -4.3 21.66 -6 22 C-5.67 20.68 -5.34 19.36 -5 18 C-6.65 18.33 -8.3 18.66 -10 19 C-10.33 16.69 -10.66 14.38 -11 12 C-11.99 11.67 -12.98 11.34 -14 11 C-14 10.01 -14 9.02 -14 8 C-10.7 7.67 -7.4 7.34 -4 7 C-4 6.34 -4 5.68 -4 5 C-3.34 5 -2.68 5 -2 5 C-1.855625 4.360625 -1.71125 3.72125 -1.5625 3.0625 C-1 1 -1 1 0 0 Z " fill="#D3D3BB" transform="translate(68,36)" />
<path d="M0 0 C-0.57344937 2.86724686 -0.8614515 3.8614515 -3 6 C-3 5.01 -3 4.02 -3 3 C-3.66 3.66 -4.32 4.32 -5 5 C-4.34 6.65 -3.68 8.3 -3 10 C-3.969375 9.814375 -4.93875 9.62875 -5.9375 9.4375 C-6.948125 9.293125 -7.95875 9.14875 -9 9 C-9.33 9.33 -9.66 9.66 -10 10 C-11.66608987 10.04384447 -13.33380554 10.0396713 -15 10 C-17.62113708 10 -19.50935112 10.31292445 -22 11 C-22.33 10.01 -22.66 9.02 -23 8 C-23.5775 8.350625 -24.155 8.70125 -24.75 9.0625 C-27.35801776 10.14917407 -28.39417629 9.93065133 -31 9 C-31 8.01 -31 7.02 -31 6 C-30.01 6 -29.02 6 -28 6 C-27.67 5.34 -27.34 4.68 -27 4 C-27 4.66 -27 5.32 -27 6 C-25.68 6 -24.36 6 -23 6 C-22.67 4.68 -22.34 3.36 -22 2 C-15.125 2.875 -15.125 2.875 -14 4 C-12 3.6875 -12 3.6875 -10 3 C-9.67 2.34 -9.34 1.68 -9 1 C-5.8035914 -0.06546953 -3.34252724 -0.07427838 0 0 Z " fill="#D6DBC5" transform="translate(67,57)" />
<path d="M0 0 C0.66 0.99 1.32 1.98 2 3 C2.66 3 3.32 3 4 3 C3.9278125 3.9178125 3.855625 4.835625 3.78125 5.78125 C2.93193367 17.01109922 2.93193367 17.01109922 3.125 21.75 C3.08375 22.8225 3.0425 23.895 3 25 C-0.24684672 27.16456448 -1.14671281 27.24821443 -4.89453125 27.23046875 C-5.37245117 27.22950195 -5.37245117 27.22950195 -7.79101562 27.22460938 C-8.28956055 27.21848633 -8.28956055 27.21848633 -10.8125 27.1875 C-11.30524414 27.18717773 -11.30524414 27.18717773 -13.79882812 27.18554688 C-18.63681284 27.15630452 -23.24586128 27.00894285 -28 26 C-28 25.67 -28 25.34 -28 25 C-27.44570313 24.98710938 -27.44570313 24.98710938 -24.640625 24.921875 C-23.17704453 24.86558344 -21.71350438 24.80823633 -20.25 24.75 C-19.88519531 24.74291016 -19.88519531 24.74291016 -18.0390625 24.70703125 C-14.4456585 24.5436947 -12.42734026 24.36355813 -9.64453125 21.99609375 C-9.10183594 21.33738281 -8.55914062 20.67867187 -8 20 C-5.4375 19.3125 -5.4375 19.3125 -3 19 C-2.01 18.67 -1.02 18.34 0 18 C0 12.06 0 6.12 0 0 Z " fill="#495251" transform="translate(68,46)" />
<path d="M0 0 C1.98 0.66 3.96 1.32 6 2 C6 2.99 6 3.98 6 5 C6.66 5 7.32 5 8 5 C8.33 4.34 8.66 3.68 9 3 C9.66 3 10.32 3 11 3 C11.33 2.01 11.66 1.02 12 0 C12.33 1.65 12.66 3.3 13 5 C12.67 5.165 12.67 5.165 11 6 C10.67 6.99 10.34 7.98 10 9 C7.36 9 4.72 9 2 9 C2 9.66 2 10.32 2 11 C1.01 11 0.02 11 -1 11 C-1 10.01 -1 9.02 -1 8 C-1.33 8.165 -1.33 8.165 -3 9 C-3.33 9.99 -3.66 10.98 -4 12 C-3.34 12 -2.68 12 -2 12 C-2 12.99 -2 13.98 -2 15 C-1.01 15.33 -0.02 15.66 1 16 C0.01 16.99 -0.98 17.98 -2 19 C-3 17 -3 17 -4 14 C-4.66 14 -5.32 14 -6 14 C-6 13.34 -6 12.68 -6 12 C-6.66 12 -7.32 12 -8 12 C-8 10 -8 10 -6.6875 8.4375 C-5 7 -5 7 -2 6 C-1.67 5.34 -1.34 4.68 -1 4 C-1.66 4 -2.32 4 -3 4 C-3 3.34 -3 2.68 -3 2 C-2.01 2 -1.02 2 0 2 C0 1.34 0 0.68 0 0 Z " fill="#F4F3D5" transform="translate(52,35)" />
<path d="M0 0 C1.66611905 -0.042721 3.33382885 -0.04063832 5 0 C6 1 6 1 6.0625 4.5625 C6.041875 5.696875 6.02125 6.83125 6 8 C6.66 8.33 7.32 8.66 8 9 C7.34 9 6.68 9 6 9 C5.773125 9.53625 5.54625 10.0725 5.3125 10.625 C2.5933258 15.54541046 0.53766055 18.40057301 -4.6875 20.4375 C-8 21 -8 21 -10 20 C-10 19.34 -10 18.68 -10 18 C-10.66 18 -11.32 18 -12 18 C-12 17.34 -12 16.68 -12 16 C-5.72307692 11.93846154 -5.72307692 11.93846154 -2.0625 12.25 C-1.381875 12.4975 -0.70125 12.745 0 13 C0.66 10.69 1.32 8.38 2 6 C2.99 6.33 3.98 6.66 5 7 C4.75 4.625 4.75 4.625 4 2 C1.9375 0.6875 1.9375 0.6875 0 0 Z " fill="#63665D" transform="translate(80,27)" />
<path d="M0 0 C-1.28382453 3.85147359 -2.55687286 4.8755173 -6 7 C-11.07009346 7.88525441 -11.07009346 7.88525441 -14 7 C-16.42040261 4.93779651 -18.22846222 2.63046519 -20 0 C-17.41703983 -0.19522373 -14.83395921 -0.38144403 -12.25 -0.5625 C-11.52039062 -0.61857422 -10.79078125 -0.67464844 -10.0390625 -0.73242188 C-6.45046349 -0.97709908 -3.44972775 -0.99666259 0 0 Z " fill="#C8C19C" transform="translate(62,23)" />
<path d="M0 0 C0.66 0.33 1.32 0.66 2 1 C0.02 2.32 -1.96 3.64 -4 5 C-3.5252771 9.98459049 -2.54143538 13.37218815 1 17 C4.3 17 7.6 17 11 17 C11.33 25.25 11.66 33.5 12 42 C13.65 42.66 15.3 43.32 17 44 C13.98968256 44.93423645 13.13349732 45.04449911 10 44 C8.61510632 39.04515817 9.10879385 34.25410852 9.4375 29.1875 C9.48970703 28.30384766 9.54191406 27.42019531 9.59570312 26.50976562 C9.72474619 24.33949592 9.86159956 22.16969307 10 20 C9.34 20.33 8.68 20.66 8 21 C5.25 21.5 5.25 21.5 2 21 C-1.51291677 17.98419409 -4.21504674 14.27054238 -6 10 C-6.0777346 7.66796188 -6.08967728 5.33160941 -6 3 C-4.03533587 1.93224776 -2.03144641 0.93446535 0 0 Z " fill="#344244" transform="translate(22,26)" />
<path d="M0 0 C0.13535156 0.28294922 0.13535156 0.28294922 0.8203125 1.71484375 C2.05062178 4.09805875 3.40851187 6.3171775 4.875 8.5625 C5.12121094 8.94470703 5.12121094 8.94470703 6.3671875 10.87890625 C8.04559465 13.05922942 9.73175663 14.46328966 12 16 C11.67 17.98 11.34 19.96 11 22 C9.68 21.34 8.36 20.68 7 20 C7 20.66 7 21.32 7 22 C6.34 22 5.68 22 5 22 C5 21.34 5 20.68 5 20 C4.34 20 3.68 20 3 20 C2.95101562 19.25234375 2.90203125 18.5046875 2.8515625 17.734375 C2.77679688 16.74953125 2.70203125 15.7646875 2.625 14.75 C2.55539063 13.77546875 2.48578125 12.8009375 2.4140625 11.796875 C2.01139598 9.07697663 1.27911629 7.39318531 0 5 C-0.125 2.25 -0.125 2.25 0 0 Z " fill="#F3F8DE" transform="translate(33,22)" />
<path d="M0 0 C0.94875 0.350625 1.8975 0.70125 2.875 1.0625 C9.42088821 2.94792825 16.43808503 1.20877381 23 0 C22.6875 1.875 22.6875 1.875 22 4 C18.3440606 6.43729293 16.47299212 6.26838474 12.125 6.25 C10.91070312 6.25515625 9.69640625 6.2603125 8.4453125 6.265625 C5.17555789 6.01353508 2.93480445 5.40602799 0 4 C0 2.68 0 1.36 0 0 Z " fill="#5C7E9A" transform="translate(39,17)" />
<path d="M0 0 C2 3 2 3 3.9375 6.4375 C5.45342122 9.11733077 7.07237767 11.59047208 9 14 C8 15 8 15 5.6875 15.375 C3 15 3 15 0.8125 12.8125 C-3.17973856 6.61764706 -3.17973856 6.61764706 -2.75 2.75 C-2 1 -2 1 0 0 Z " fill="#678CB2" transform="translate(20,29)" />
<path d="M0 0 C1.5 1.375 1.5 1.375 3 3 C3 3.66 3 4.32 3 5 C3.66 5 4.32 5 5 5 C5 5.66 5 6.32 5 7 C6.32 7.33 7.64 7.66 9 8 C7.68 8.33 6.36 8.66 5 9 C5 9.66 5 10.32 5 11 C4.34 11 3.68 11 3 11 C3.20625 12.093125 3.4125 13.18625 3.625 14.3125 C4 18 4 18 2 21 C0.49843126 17.99686252 0.90718796 15.20932478 0.9375 11.875 C0.94652344 10.59367187 0.95554687 9.31234375 0.96484375 7.9921875 C0.97644531 7.00476562 0.98804688 6.01734375 1 5 C-0.98 5 -2.96 5 -5 5 C-3.35 3.35 -1.7 1.7 0 0 Z " fill="#DDDFBE" transform="translate(33,37)" />
<path d="M0 0 C0.50512244 1.60256108 1.00391627 3.20711792 1.5 4.8125 C1.7784375 5.70582031 2.056875 6.59914063 2.34375 7.51953125 C3 10 3 10 3 13 C2.38125 12.814375 1.7625 12.62875 1.125 12.4375 C-1 12 -1 12 -3 13 C-3.99 10.03 -4.98 7.06 -6 4 C-2.25 0 -2.25 0 0 0 Z " fill="#7399C0" transform="translate(39,17)" />
<path d="M0 0 C0.33 0.66 0.66 1.32 1 2 C1.763125 1.79375 2.52625 1.5875 3.3125 1.375 C6 1 6 1 9 3 C11.6875 2.625 11.6875 2.625 14 2 C14.33 2.99 14.66 3.98 15 5 C16.32 4.67 17.64 4.34 19 4 C18.67 4.66 18.34 5.32 18 6 C15.33333333 6 12.66666667 6 10 6 C8.66018514 6.3062434 7.32488113 6.63451555 6 7 C5.67 6.01 5.34 5.02 5 4 C4.4225 4.350625 3.845 4.70125 3.25 5.0625 C0.64198224 6.14917407 -0.39417629 5.93065133 -3 5 C-3 4.01 -3 3.02 -3 2 C-2.01 2 -1.02 2 0 2 C0 1.34 0 0.68 0 0 Z " fill="#D8E6DA" transform="translate(39,61)" />
<path d="M0 0 C0.66 0.33 1.32 0.66 2 1 C1.67 1.66 1.34 2.32 1 3 C2.32 3.66 3.64 4.32 5 5 C3.125 6.0625 3.125 6.0625 1 7 C0.34 6.67 -0.32 6.34 -1 6 C-1 6.66 -1 7.32 -1 8 C-1.66 8 -2.32 8 -3 8 C-3.33 8.99 -3.66 9.98 -4 11 C-7.3 11 -10.6 11 -14 11 C-14 10.01 -14 9.02 -14 8 C-10.7 7.67 -7.4 7.34 -4 7 C-4 6.34 -4 5.68 -4 5 C-3.34 5 -2.68 5 -2 5 C-1.855625 4.360625 -1.71125 3.72125 -1.5625 3.0625 C-1 1 -1 1 0 0 Z " fill="#AFB6A2" transform="translate(68,36)" />
<path d="M0 0 C0 0.33 0 0.66 0 1 C-2.64 1 -5.28 1 -8 1 C-8 1.66 -8 2.32 -8 3 C-8.99 3 -9.98 3 -11 3 C-11 2.01 -11 1.02 -11 0 C-11.33 0.165 -11.33 0.165 -13 1 C-13.33 1.99 -13.66 2.98 -14 4 C-13.34 4 -12.68 4 -12 4 C-12 4.99 -12 5.98 -12 7 C-11.01 7.33 -10.02 7.66 -9 8 C-9.99 8.99 -10.98 9.98 -12 11 C-13 9 -13 9 -14 6 C-14.66 6 -15.32 6 -16 6 C-16 5.34 -16 4.68 -16 4 C-16.66 4 -17.32 4 -18 4 C-18 2 -18 2 -16.6875 0.4375 C-11.71173781 -3.80111224 -5.5599193 -2.1180645 0 0 Z " fill="#E5EFDE" transform="translate(62,43)" />
<path d="M0 0 C1.65 0 3.3 0 5 0 C5.33 5.28 5.66 10.56 6 16 C6.66 16 7.32 16 8 16 C8 16.66 8 17.32 8 18 C8.66 18 9.32 18 10 18 C10 18.99 10 19.98 10 21 C9.01 21 8.02 21 7 21 C6.67 21.66 6.34 22.32 6 23 C5.34 22.67 4.68 22.34 4 22 C4 15.07 4 8.14 4 1 C3.01 1.33 2.02 1.66 1 2 C0.67 1.34 0.34 0.68 0 0 Z " fill="#9DA196" transform="translate(29,42)" />
<path d="M0 0 C3.03521394 1.01173798 5.19733079 1.16573514 8.375 1.1875 C9.31085937 1.20167969 10.24671875 1.21585938 11.2109375 1.23046875 C14 1 14 1 16.6640625 -0.07421875 C19 -1 19 -1 22 0 C13.40967776 3.80521879 7.26855009 4.53231224 -1.8125 2.3125 C-4.68833143 1.90166694 -6.42716712 2.75033832 -9 4 C-8 1 -8 1 -6.1875 -0.25 C-3.60398162 -1.13577773 -2.5379352 -0.90055765 0 0 Z " fill="#384852" transform="translate(41,16)" />
<path d="M0 0 C1.65 0.99 3.3 1.98 5 3 C4.01 5.97 3.02 8.94 2 12 C-0.31 12 -2.62 12 -5 12 C-4.360625 11.13375 -3.72125 10.2675 -3.0625 9.375 C-1.02451704 6.0401188 -0.36566907 3.83952522 0 0 Z " fill="#769AB7" transform="translate(78,28)" />
<path d="M0 0 C8.54545455 1.15034965 8.54545455 1.15034965 11 2 C11.33 2.66 11.66 3.32 12 4 C12.99 4.66 13.98 5.32 15 6 C13.02 6.33 11.04 6.66 9 7 C8.67 6.34 8.34 5.68 8 5 C5.9375 4.375 5.9375 4.375 4 4 C3.67 4.66 3.34 5.32 3 6 C1.68 5.01 0.36 4.02 -1 3 C-0.67 2.01 -0.34 1.02 0 0 Z " fill="#CFD4C0" transform="translate(45,59)" />
<path d="M0 0 C0.68505432 2.31205833 0.99640066 4.0719867 0.875 6.5 C1.02878313 9.57566256 2.07465205 10.6735379 4 13 C4 13.66 4 14.32 4 15 C0.78920572 13.96795898 -0.59940291 12.41251338 -2.3125 9.625 C-4 6 -4 6 -3.9375 3.6875 C-3 2 -3 2 0 0 Z " fill="#E1EEDF" transform="translate(25,26)" />
<path d="M0 0 C2.60018816 3.90028225 2.15085514 7.47434569 2 12 C1.34 12.33 1.34 12.33 -2 14 C-2.99 12.35 -3.98 10.7 -5 9 C-3.35 8.67 -1.7 8.34 0 8 C0.33 7.01 0.66 6.02 1 5 C-0.65 5.33 -2.3 5.66 -4 6 C-4 5.34 -4 4.68 -4 4 C-3.34 4 -2.68 4 -2 4 C-1.34 2.68 -0.68 1.36 0 0 Z " fill="#9FA9A3" transform="translate(66,52)" />
<path d="M0 0 C0.66 0.33 0.66 0.33 4 2 C4 2.66 4 3.32 4 4 C6.43794344 7.21808534 7.72149234 7.94429847 11.75 8.75 C12.8225 8.8325 13.895 8.915 15 9 C14.34 9.66 13.68 10.32 13 11 C9.0791609 10.85204381 6.52031306 10.30540115 3.125 8.3125 C0.5746277 5.53709485 0.25277813 3.70741251 0 0 Z " fill="#9EA595" transform="translate(40,21)" />
<path d="M0 0 C0 0.66 0 1.32 0 2 C0.99 1.67 1.98 1.34 3 1 C3 1.66 3 2.32 3 3 C2.01 3 1.02 3 0 3 C0 3.66 0 4.32 0 5 C0.66 5 1.32 5 2 5 C1.67 5.99 1.34 6.98 1 8 C0.01 8 -0.98 8 -2 8 C-2.33 8.66 -2.66 9.32 -3 10 C-3.33 7.69 -3.66 5.38 -4 3 C-4.99 2.67 -5.98 2.34 -7 2 C-4 0 -4 0 0 0 Z " fill="#C2CFBB" transform="translate(49,34)" />
<path d="M0 0 C1.32 0.33 2.64 0.66 4 1 C2.68 1.33 1.36 1.66 0 2 C0.31182069 3.41681634 0.62448737 4.83344651 0.9375 6.25 C1.02451172 6.64445312 1.02451172 6.64445312 1.46484375 8.640625 C1.947556 10.76878703 2.46163178 12.88532842 3 15 C-0.00571815 13.96354547 -1.07041499 12.90537985 -3 10.3125 C-4 7 -4 7 -3.29296875 5.05078125 C-2.1875 3.125 -2.1875 3.125 0 0 Z " fill="#65675C" transform="translate(16,27)" />
<path d="M0 0 C0.66 0 1.32 0 2 0 C1.67 1.65 1.34 3.3 1 5 C-2.82320557 6.42258812 -5.91281305 7.24042276 -10 7 C-6.66740576 2.18625277 -6.66740576 2.18625277 -3.3125 1.25 C-2.549375 1.1675 -1.78625 1.085 -1 1 C-0.67 0.67 -0.34 0.34 0 0 Z " fill="#4E728D" transform="translate(66,64)" />
<path d="M0 0 C0.33 0.99 0.66 1.98 1 3 C0.67 3.66 0.34 4.32 0 5 C-0.66 5 -1.32 5 -2 5 C-2 6.65 -2 8.3 -2 10 C-2.66 10 -3.32 10 -4 10 C-4.33 10.99 -4.66 11.98 -5 13 C-5.66 12.67 -6.32 12.34 -7 12 C-7 11.01 -7 10.02 -7 9 C-7.825 8.67 -7.825 8.67 -12 7 C-9.3333581 5.66667905 -7.83319697 6.32897967 -5 7 C-3.35 4.69 -1.7 2.38 0 0 Z " fill="#CED9C5" transform="translate(65,28)" />
<path d="M0 0 C2.31 0.33 4.62 0.66 7 1 C7.33 2.98 7.66 4.96 8 7 C6.68 7.33 5.36 7.66 4 8 C0 3.375 0 3.375 0 0 Z " fill="#527997" transform="translate(37,28)" />
<path d="M0 0 C1.65 0.33 3.3 0.66 5 1 C5 1.99 5 2.98 5 4 C5.99 3.67 6.98 3.34 8 3 C7.67 4.32 7.34 5.64 7 7 C7.66 7 8.32 7 9 7 C9 7.66 9 8.32 9 9 C6.97467576 7.98733788 4.95050869 6.97450448 2.9375 5.9375 C1 5 1 5 -2 4 C-1.34 4 -0.68 4 0 4 C0 2.68 0 1.36 0 0 Z " fill="#66665A" transform="translate(63,12)" />
<path d="M0 0 C0.99 0 1.98 0 3 0 C3 0.99 3 1.98 3 3 C14.52164009 4.14806378 14.52164009 4.14806378 20 4 C15.53444222 6.97703852 11.23947824 6.50281502 6 6 C3.41900574 5.23411319 1.38997723 4.27465452 -1 3 C-0.67 2.01 -0.34 1.02 0 0 Z " fill="#69675E" transform="translate(38,12)" />
<path d="M0 0 C-1.65 1.98 -3.3 3.96 -5 6 C-5.825 5.67 -5.825 5.67 -10 4 C-4.75 -1.425 -4.75 -1.425 0 0 Z " fill="#4F7295" transform="translate(79,40)" />
<path d="M0 0 C0.33 0.66 0.66 1.32 1 2 C-1.61192443 6.1597315 -4.16897047 9.83940064 -8 13 C-10.3125 12.8125 -10.3125 12.8125 -12 12 C-12 11.34 -12 10.68 -12 10 C-12.66 10 -13.32 10 -14 10 C-13.67 9.34 -13.34 8.68 -13 8 C-12.175 8.33 -12.175 8.33 -8 10 C-7.03958829 8.89764064 -6.08175593 7.79303376 -5.125 6.6875 C-4.59132813 6.07261719 -4.05765625 5.45773438 -3.5078125 4.82421875 C-2 3 -2 3 0 0 Z " fill="#2D434C" transform="translate(82,35)" />
<path d="M0 0 C1.65 0.33 3.3 0.66 5 1 C5.33 1.99 5.66 2.98 6 4 C4.68 4.825 4.68 4.825 -2 9 C-1.67 8.01 -1.34 7.02 -1 6 C-0.34 6 0.32 6 1 6 C0.67 4.02 0.34 2.04 0 0 Z " fill="#5A5A4B" transform="translate(27,17)" />
<path d="M0 0 C0.66 0 1.32 0 2 0 C3.125 2.25 3.125 2.25 4 5 C3.125 7.3125 3.125 7.3125 2 9 C1.01 9 0.02 9 -1 9 C-1.80967438 6.08517222 -2.21845993 4.53886783 -1.0625 1.6875 C-0.711875 1.130625 -0.36125 0.57375 0 0 Z " fill="#78A1C8" transform="translate(62,17)" />
<path d="M0 0 C3.3 0 6.6 0 10 0 C10 0.99 10 1.98 10 3 C6.7 3 3.4 3 0 3 C0 2.01 0 1.02 0 0 Z " fill="#7895A8" transform="translate(54,44)" />
<path d="M0 0 C0.33 0.165 0.33 0.165 2 1 C1.979375 2.051875 1.95875 3.10375 1.9375 4.1875 C2 8 2 8 2.625 10.75 C3 13 3 13 1 16 C-0.50156874 12.99686252 -0.09281204 10.20932478 -0.0625 6.875 C-0.05347656 5.59367187 -0.04445312 4.31234375 -0.03515625 2.9921875 C-0.02355469 2.00476562 -0.01195312 1.01734375 0 0 Z " fill="#CACBB0" transform="translate(34,42)" />
<path d="M0 0 C0.495 0.495 0.99 0.99 1.5 1.5 C5.11630158 3.66978095 7.82231616 3.20888419 12 3 C11.34 4.32 10.68 5.64 10 7 C6.20696275 5.99806563 3.28463659 5.18975773 0 3 C0 2.01 0 1.02 0 0 Z " fill="#656A60" transform="translate(20,43)" />
<path d="M0 0 C-0.33 0.99 -0.66 1.98 -1 3 C-2.65 3.33 -4.3 3.66 -6 4 C-6 3.67 -6 3.34 -6 3 C-8.31 2.67 -10.62 2.34 -13 2 C-13 1.67 -13 1.34 -13 1 C-11.58622218 0.63447197 -10.16879424 0.28304505 -8.75 -0.0625 C-7.96109375 -0.25972656 -7.1721875 -0.45695312 -6.359375 -0.66015625 C-3.89605178 -1.01497267 -2.34395868 -0.76877544 0 0 Z " fill="#D0DDD0" transform="translate(62,23)" />
<path d="M0 0 C0.33 0.99 0.66 1.98 1 3 C1.99 3 2.98 3 4 3 C4 3.99 4 4.98 4 6 C4.99 6.33 5.98 6.66 7 7 C6.01 7.99 5.02 8.98 4 10 C3 8 3 8 2 5 C1.34 5 0.68 5 0 5 C0 4.34 0 3.68 0 3 C-0.66 3 -1.32 3 -2 3 C-2 2.34 -2 1.68 -2 1 C-1.34 0.67 -0.68 0.34 0 0 Z " fill="#F1F5DB" transform="translate(46,44)" />
<path d="M0 0 C4.29 0 8.58 0 13 0 C13 0.33 13 0.66 13 1 C11.02 1 9.04 1 7 1 C7 1.66 7 2.32 7 3 C6.34 3 5.68 3 5 3 C4.67 3.66 4.34 4.32 4 5 C2.68 3.35 1.36 1.7 0 0 Z " fill="#ABB5A8" transform="translate(42,23)" />
<path d="M0 0 C0.33 0.165 0.33 0.165 2 1 C2 1.66 2 2.32 2 3 C3.65 3.33 5.3 3.66 7 4 C7 4.99 7 5.98 7 7 C6.38125 6.814375 5.7625 6.62875 5.125 6.4375 C3 6 3 6 1 7 C0.67 4.69 0.34 2.38 0 0 Z " fill="#648DB2" transform="translate(35,23)" />
<path d="M0 0 C0.99 0.33 1.98 0.66 3 1 C3 1.66 3 2.32 3 3 C4.815 3.33 4.815 3.33 14 5 C14 5.33 14 5.66 14 6 C4.58997722 6.3690205 4.58997722 6.3690205 0 4 C0 2.68 0 1.36 0 0 Z " fill="#4A697A" transform="translate(39,17)" />
<path d="M0 0 C0.33 0.66 0.66 1.32 1 2 C1.99 2.33 2.98 2.66 4 3 C2.75 4.5625 2.75 4.5625 1 6 C-1.1875 5.6875 -1.1875 5.6875 -3 5 C-3 4.01 -3 3.02 -3 2 C-2.01 2 -1.02 2 0 2 C0 1.34 0 0.68 0 0 Z " fill="#CEDCD7" transform="translate(39,61)" />
<path d="M0 0 C0.66 0 1.32 0 2 0 C2 0.99 2 1.98 2 3 C2.99 3 3.98 3 5 3 C5 3.99 5 4.98 5 6 C3.68 6.33 2.36 6.66 1 7 C1 6.01 1 5.02 1 4 C0.34 4 -0.32 4 -1 4 C-0.67 2.68 -0.34 1.36 0 0 Z " fill="#D8DFC2" transform="translate(49,43)" />
<path d="M0 0 C2.49361571 1.20381448 4.68143083 2.45428722 7 4 C7 4.66 7 5.32 7 6 C6.01 5.835 6.01 5.835 1 5 C0.67 3.35 0.34 1.7 0 0 Z " fill="#64869C" transform="translate(33,64)" />
<path d="M0 0 C1.98 0 3.96 0 6 0 C5.67 1.32 5.34 2.64 5 4 C4.34 4 3.68 4 3 4 C3 4.66 3 5.32 3 6 C2.34 6 1.68 6 1 6 C0.67 4.02 0.34 2.04 0 0 Z " fill="#D8DEC5" transform="translate(57,47)" />
<path d="M0 0 C1.9375 0.3125 1.9375 0.3125 4 1 C5.2077558 4.62326739 4.54311128 5.64146369 3 9 C0.87491756 5.81237635 0.4979837 3.73487777 0 0 Z " fill="#DADECD" transform="translate(74,27)" />
<path d="M0 0 C0.99 0.33 1.98 0.66 3 1 C2.67 1.99 2.34 2.98 2 4 C-1.0625 5.1875 -1.0625 5.1875 -4 6 C-4.33 5.01 -4.66 4.02 -5 3 C-3.68 3 -2.36 3 -1 3 C-0.67 2.01 -0.34 1.02 0 0 Z " fill="#658EB6" transform="translate(58,65)" />
<path d="M0 0 C1.875 0.1875 1.875 0.1875 4 1 C5.25 3.5625 5.25 3.5625 6 6 C5.401875 5.690625 4.80375 5.38125 4.1875 5.0625 C2 4 2 4 -1 3 C-0.67 2.01 -0.34 1.02 0 0 Z " fill="#D7E3D1" transform="translate(58,61)" />
<path d="M0 0 C0.33 0.66 0.66 1.32 1 2 C0.67 2.66 0.34 3.32 0 4 C-2.64 4 -5.28 4 -8 4 C-6 1 -6 1 -2.875 0.3125 C-1.92625 0.209375 -0.9775 0.10625 0 0 Z " fill="#6596BC" transform="translate(50,67)" />
<path d="M0 0 C0.33 0.66 0.66 1.32 1 2 C0.01 2 -0.98 2 -2 2 C-2 2.66 -2 3.32 -2 4 C-1.34 4 -0.68 4 0 4 C-0.33 4.99 -0.66 5.98 -1 7 C-1.99 7 -2.98 7 -4 7 C-4 5.35 -4 3.7 -4 2 C-2.68 1.34 -1.36 0.68 0 0 Z " fill="#CBCFC5" transform="translate(51,35)" />
<path d="M0 0 C1.98 0 3.96 0 6 0 C5.67 1.32 5.34 2.64 5 4 C3.35 4.33 1.7 4.66 0 5 C0.33 4.01 0.66 3.02 1 2 C0.67 1.34 0.34 0.68 0 0 Z " fill="#CBCDB6" transform="translate(52,25)" />
<path d="M0 0 C0.66 0.33 0.66 0.33 4 2 C4 3.32 4 4.64 4 6 C4.33 6.495 4.33 6.495 6 9 C3.5067466 8.00269864 2.22532561 7.34925469 0.75 5.0625 C0 3 0 3 0 0 Z " fill="#8DA19A" transform="translate(40,21)" />
<path d="M0 0 C0.99 0 1.98 0 3 0 C3.33 0.66 3.66 1.32 4 2 C4.99 2.66 5.98 3.32 7 4 C5.02 4.33 3.04 4.66 1 5 C0.67 3.35 0.34 1.7 0 0 Z " fill="#C1C6B5" transform="translate(53,61)" />
<path d="M0 0 C0.66 0.33 1.32 0.66 2 1 C1.67 1.66 1.34 2.32 1 3 C2.32 3.66 3.64 4.32 5 5 C4.34 5.33 4.34 5.33 1 7 C-1 4 -1 4 -1 1 C-0.67 0.67 -0.34 0.34 0 0 Z " fill="#C7CEB6" transform="translate(68,36)" />
<path d="M0 0 C1.32 1.32 2.64 2.64 4 4 C3.34 6.31 2.68 8.62 2 11 C1.67 11 1.34 11 1 11 C1.020625 9.9275 1.04125 8.855 1.0625 7.75 C1.0142016 4.85209576 0.86844115 2.71387859 0 0 Z " fill="#708EA9" transform="translate(64,17)" />
<path d="M0 0 C0.66 0 1.32 0 2 0 C2.66 2.97 3.32 5.94 4 9 C3.34 8.67 2.68 8.34 2 8 C2 7.34 2 6.68 2 6 C1.34 6 0.68 6 0 6 C0 4.02 0 2.04 0 0 Z " fill="#7DA2BF" transform="translate(37,17)" />
<path d="M0 0 C0.33 0 0.66 0 1 0 C1 1.65 1 3.3 1 5 C-0.65 5.33 -2.3 5.66 -4 6 C-4 5.34 -4 4.68 -4 4 C-3.34 4 -2.68 4 -2 4 C-1.34 2.68 -0.68 1.36 0 0 Z " fill="#BABBA3" transform="translate(66,52)" />
<path d="M0 0 C0 0.99 0 1.98 0 3 C-3 4 -3 4 -5.1875 3.0625 C-5.785625 2.711875 -6.38375 2.36125 -7 2 C-4 0 -4 0 0 0 Z " fill="#415562" transform="translate(32,43)" />
<path d="M0 0 C0.825 0.33 0.825 0.33 5 2 C3.60804085 4.7839183 1.84424221 4.97898997 -1 6 C-0.67 4.02 -0.34 2.04 0 0 Z " fill="#C2CABC" transform="translate(67,21)" />
</svg>