<?xml version='1.0' encoding='utf-8'?>
<svg xmlns="http://www.w3.org/2000/svg" version="1.1" width="98" height="96">
<path d="M0 0 C2.06183633 -0.08150744 4.12461349 -0.1394194 6.1875 -0.1875 C7.33605469 -0.22230469 8.48460938 -0.25710937 9.66796875 -0.29296875 C13.34110639 0.02999177 15.01920063 0.90538422 18 3 C19.268326 3.73351929 20.53884865 4.46326688 21.8125 5.1875 C22.864375 5.785625 23.91625 6.38375 25 7 C25.33 5.68 25.66 4.36 26 3 C26.66 3 27.32 3 28 3 C28.60050357 16.54469157 28.60050357 16.54469157 25 22 C19.2313127 26.80723942 14.37790689 29.13150816 6.875 29.1875 C6.44058594 29.19458984 6.44058594 29.19458984 4.2421875 29.23046875 C2 29 2 29 0 27 C-2.390625 26.69140625 -2.390625 26.69140625 -5.25 26.5625 C-9.95337337 26.22875209 -13.01561201 25.47678173 -17 23 C-16.67 22.01 -16.34 21.02 -16 20 C-15.01 20 -14.02 20 -13 20 C-13 19.34 -13 18.68 -13 18 C-12.360625 17.896875 -11.72125 17.79375 -11.0625 17.6875 C-10.7221875 17.5740625 -10.7221875 17.5740625 -9 17 C-8.67 16.01 -8.34 15.02 -8 14 C-5.93359375 12.83203125 -5.93359375 12.83203125 -3.4375 11.8125 C-2.61121094 11.46832031 -1.78492188 11.12414063 -0.93359375 10.76953125 C-0.29550781 10.51558594 0.34257813 10.26164062 1 10 C0.484375 9.4225 -0.03125 8.845 -0.5625 8.25 C-2 6 -2 6 -1.75 3.875 C-1 2 -1 2 0 0 Z " fill="#619A09" transform="translate(48,49)" />
<path d="M0 0 C3.43518804 1.60308775 6.0665408 1.53725755 9.8125 1.3125 C9.125 3.6875 9.125 3.6875 7.8125 6.3125 C5.5 7.4375 5.5 7.4375 2.8125 8.3125 C2.008125 8.8075 1.20375 9.3025 0.375 9.8125 C-4.05887713 12.40794027 -8.04586721 13.61494899 -13.1875 13.3125 C-13.3525 12.8175 -13.3525 12.8175 -14.1875 10.3125 C-14.8475 10.3125 -15.5075 10.3125 -16.1875 10.3125 C-16.5175 11.3025 -16.8475 12.2925 -17.1875 13.3125 C-40.13937372 14.37317709 -40.13937372 14.37317709 -48.1015625 7.7109375 C-49.5 6.0625 -49.5 6.0625 -51.1875 3.3125 C-49.970625 2.879375 -48.75375 2.44625 -47.5 2 C-45.0023863 1.07431101 -43.00507459 0.19556063 -40.75 -1.25 C-29.02584438 -7.82696535 -11.48926975 -6.08255457 0 0 Z " fill="#F7E6A6" transform="translate(69.1875,29.6875)" />
<path d="M0 0 C0.70511719 0.61488281 1.41023438 1.22976562 2.13671875 1.86328125 C11.19380347 8.62211527 23.13193964 8.72097406 34 9 C33.67 10.65 33.34 12.3 33 14 C31.68 14.33 30.36 14.66 29 15 C29 19.29965574 30.05276952 22.20844146 32 26 C31.65646484 26.12697266 31.65646484 26.12697266 29.91796875 26.76953125 C29.01691406 27.11371094 28.11585937 27.45789063 27.1875 27.8125 C26.29417969 28.14894531 25.40085937 28.48539063 24.48046875 28.83203125 C22.06069934 29.97141874 20.81582974 31.09692319 19 33 C18.34 33 17.68 33 17 33 C17 33.66 17 34.32 17 35 C16.505 35.165 16.505 35.165 14 36 C15.36983503 32.83884224 15.9890638 32.0072908 19 30 C16.36 28.68 13.72 27.36 11 26 C11 25.34 11 24.68 11 24 C10.01 24 9.02 24 8 24 C6.68 21.69 5.36 19.38 4 17 C4.99 17 5.98 17 7 17 C6.54625 15.989375 6.0925 14.97875 5.625 13.9375 C4.08137135 10.35276996 3.000197 6.76997331 2 3 C1.34 3 0.68 3 0 3 C0 2.01 0 1.02 0 0 Z " fill="#AC8232" transform="translate(18,34)" />
<path d="M0 0 C2.76309222 2.14525793 3.75071387 3.59440695 4.3125 7.0625 C-1.3827207 8.26149383 -3.87587064 8.38153872 -8.94140625 5.12109375 C-17.23428503 0.09342004 -30.60454529 1.06158162 -39.8125 2.8125 C-42.72208877 3.57702332 -44.15534276 4.37757778 -46.75 6.125 C-50.54495396 8.62805474 -53.19419547 8.75261693 -57.6875 9.0625 C-57.49750769 4.9776654 -56.99043818 3.38021565 -54.125 0.375 C-40.6888932 -9.64569356 -13.47326507 -9.35314534 0 0 Z " fill="#B58E38" transform="translate(74.6875,23.9375)" />
<path d="M0 0 C4.98931981 1.27633763 8.02760577 2.71625538 11 7 C11.51940882 10.71259262 11.31135939 14.27389585 11 18 C10.93167969 18.83789062 10.86335938 19.67578125 10.79296875 20.5390625 C10.41075158 24.41306028 9.82295744 28.19382183 9 32 C8.66055205 33.99897128 8.32578384 35.99875639 8 38 C7.67 38 7.34 38 7 38 C7 36.02 7 34.04 7 32 C6.34 32 5.68 32 5 32 C4.67 33.98 4.34 35.96 4 38 C3.67 37.34 3.34 36.68 3 36 C2.21625 35.690625 1.4325 35.38125 0.625 35.0625 C-2.01061242 33.9957045 -3.08095091 33.00627859 -5 31 C-8.61867559 29.7937748 -11.92506251 29.89183082 -15.6875 29.9375 C-16.38939453 29.94201172 -17.09128906 29.94652344 -17.81445312 29.95117188 C-19.54300538 29.96293073 -21.27151365 29.98086546 -23 30 C-22.67 29.34 -22.34 28.68 -22 28 C-20.68 28 -19.36 28 -18 28 C-17.34 25.36 -16.68 22.72 -16 20 C-15.34 20 -14.68 20 -14 20 C-13.67 20.66 -13.34 21.32 -13 22 C-8.03083364 21.48594831 -3.70973649 20.76615118 1 19 C1 18.34 1 17.68 1 17 C1.94875 16.896875 2.8975 16.79375 3.875 16.6875 C7 16 7 16 9 13 C9.125 10.1875 9.125 10.1875 8 7 C6.00983967 5.19000155 3.94921255 3.69534268 1.71484375 2.19921875 C1.14894531 1.80347656 0.58304688 1.40773438 0 1 C0 0.67 0 0.34 0 0 Z " fill="#795C1D" transform="translate(69,20)" />
<path d="M0 0 C2.06183633 -0.08150744 4.12461349 -0.1394194 6.1875 -0.1875 C7.33605469 -0.22230469 8.48460938 -0.25710937 9.66796875 -0.29296875 C15.19216776 0.19274629 18.92902772 3.3942817 23 7 C23 7.66 23 8.32 23 9 C21.3743193 8.69106068 19.74947252 8.3777305 18.125 8.0625 C17.22007813 7.88847656 16.31515625 7.71445312 15.3828125 7.53515625 C13 7 13 7 11 6 C10.773125 6.886875 10.54625 7.77375 10.3125 8.6875 C8.7922931 12.52421266 7.14980434 14.36295451 4 17 C2.33859237 17.67966676 0.67299959 18.34938905 -1 19 C-1.33 19.99 -1.66 20.98 -2 22 C-4.60919828 23.30459914 -6.58942615 23.1326594 -9.5 23.125 C-10.4796875 23.12757812 -11.459375 23.13015625 -12.46875 23.1328125 C-15 23 -15 23 -17 22 C-16.67 21.34 -16.34 20.68 -16 20 C-15.01 20 -14.02 20 -13 20 C-13 19.34 -13 18.68 -13 18 C-12.360625 17.896875 -11.72125 17.79375 -11.0625 17.6875 C-10.7221875 17.5740625 -10.7221875 17.5740625 -9 17 C-8.67 16.01 -8.34 15.02 -8 14 C-5.93359375 12.83203125 -5.93359375 12.83203125 -3.4375 11.8125 C-2.61121094 11.46832031 -1.78492188 11.12414063 -0.93359375 10.76953125 C-0.29550781 10.51558594 0.34257813 10.26164062 1 10 C0.484375 9.4225 -0.03125 8.845 -0.5625 8.25 C-2 6 -2 6 -1.75 3.875 C-1 2 -1 2 0 0 Z " fill="#7DBC0D" transform="translate(48,49)" />
<path d="M0 0 C0 0.33 0 0.66 0 1 C-0.71019287 1.08975098 -1.42038574 1.17950195 -2.15209961 1.27197266 C-5.41759159 1.69872667 -8.67702005 2.16156301 -11.9375 2.625 C-12.49598633 2.69525391 -12.49598633 2.69525391 -15.32226562 3.05078125 C-22.60187044 4.11817199 -28.55418006 5.82119666 -34 11 C-35.0625 14.125 -35.0625 14.125 -35 17 C-35 18.32 -35 19.64 -35 21 C-34.34 21 -33.68 21 -33 21 C-31.49211653 24.42700788 -30.08176035 27.74510009 -28.9375 31.3125 C-28 34 -28 34 -26 36 C-27.32 36 -28.64 36 -30 36 C-29.505 36.61875 -29.01 37.2375 -28.5 37.875 C-27 40 -27 40 -27 42 C-26.01 42 -25.02 42 -24 42 C-23.566875 42.45375 -23.13375 42.9075 -22.6875 43.375 C-20.40220764 45.5756519 -18.00910851 46.13070199 -15 47 C-16.33333333 48.33333333 -16.33333333 48.33333333 -23 55 C-23.26039062 54.27296875 -23.52078125 53.5459375 -23.7890625 52.796875 C-25.0326835 49.92451166 -26.50353157 47.75073947 -28.375 45.25 C-33.98425564 37.35029831 -36.60387541 30.68981688 -37 21 C-37.07476562 20.20078125 -37.14953125 19.4015625 -37.2265625 18.578125 C-37.48469974 14.5294462 -37.23938211 12.43601741 -35.25 8.8125 C-25.07014906 -1.19908894 -13.28656405 -0.70896686 0 0 Z " fill="#766035" transform="translate(53,16)" />
<path d="M0 0 C3 2 3 2 3.6875 5.125 C3.7390625 5.599375 3.7390625 5.599375 4 8 C4.804375 8.12375 5.60875 8.2475 6.4375 8.375 C7.283125 8.58125 8.12875 8.7875 9 9 C9.33 9.66 9.66 10.32 10 11 C10.99 11.33 11.98 11.66 13 12 C13 12.66 13 13.32 13 14 C15.97 14 18.94 14 22 14 C22 13.34 22 12.68 22 12 C20.68 11.67 19.36 11.34 18 11 C18 10.01 18 9.02 18 8 C21.3 6.68 24.6 5.36 28 4 C28.33 4.66 28.66 5.32 29 6 C27.68 6.33 26.36 6.66 25 7 C25 11.29965574 26.05276952 14.20844146 28 18 C27.65646484 18.12697266 27.65646484 18.12697266 25.91796875 18.76953125 C25.01691406 19.11371094 24.11585937 19.45789063 23.1875 19.8125 C22.29417969 20.14894531 21.40085937 20.48539063 20.48046875 20.83203125 C18.06069934 21.97141874 16.81582974 23.09692319 15 25 C14.34 25 13.68 25 13 25 C13 25.66 13 26.32 13 27 C12.01 27.33 11.02 27.66 10 28 C11.36983503 24.83884224 11.9890638 24.0072908 15 22 C12.36 20.68 9.72 19.36 7 18 C7 17.34 7 16.68 7 16 C6.01 16 5.02 16 4 16 C3.34 14.845 3.34 14.845 0 9 C0.99 9 1.98 9 3 9 C2.01 6.03 1.02 3.06 0 0 Z " fill="#9D7B3A" transform="translate(22,42)" />
<path d="M0 0 C2.38256836 -0.28051758 2.38256836 -0.28051758 5.33984375 -0.14453125 C6.40267578 -0.09876953 7.46550781 -0.05300781 8.56054688 -0.00585938 C9.67494141 0.05794922 10.78933594 0.12175781 11.9375 0.1875 C12.49276367 0.20973633 12.49276367 0.20973633 15.30273438 0.32226562 C23.59353292 0.72902194 23.59353292 0.72902194 27 3 C26.67 3.66 26.34 4.32 26 5 C25.01 5 24.02 5 23 5 C23 5.99 23 6.98 23 8 C22.030625 8.28875 21.06125 8.5775 20.0625 8.875 C17 10 17 10 16 12 C15.34 12 14.68 12 14 12 C14 11.34 14 10.68 14 10 C9.71 10 5.42 10 1 10 C1 9.34 1 8.68 1 8 C0.01 8 -0.98 8 -2 8 C-2.20086443 4.28400809 -2.1519437 3.22791555 0 0 Z " fill="#FCF8C6" transform="translate(37,30)" />
<path d="M0 0 C1.921875 1.5 1.921875 1.5 3.25 3 C3.25 3.99 3.25 4.98 3.25 6 C1.0625 6.3125 1.0625 6.3125 -1.75 6 C-3.43873879 4.35570171 -5.10305515 2.68615782 -6.75 1 C-14.1701539 -2.84748721 -21.57072181 -3.18063819 -29.75 -3.1875 C-30.13414063 -3.19362305 -30.13414063 -3.19362305 -32.078125 -3.22460938 C-37.01950405 -3.23721493 -41.06352151 -2.57670088 -45.75 -1 C-46.08 -1.99 -46.41 -2.98 -46.75 -4 C-32.39231679 -7.82871552 -12.64015635 -8.82177579 0 0 Z " fill="#DBB862" transform="translate(74.75,24)" />
<path d="M0 0 C0.598125 0.495 1.19625 0.99 1.8125 1.5 C4 3 4 3 7 3 C7 3.66 7 4.32 7 5 C6.63777344 5.08507812 6.63777344 5.08507812 4.8046875 5.515625 C-3.33333333 7.55555556 -3.33333333 7.55555556 -7.1875 10.125 C-10.89573369 12.59715579 -13.59119817 12.6959447 -18 13 C-17.80095656 8.72056594 -17.27797034 7.27797034 -14.1875 4.1875 C-9.82694414 1.19496166 -9.82694414 1.19496166 -7 1 C-6.01 1.33 -5.02 1.66 -4 2 C-2.68 2 -1.36 2 0 2 C0 1.34 0 0.68 0 0 Z " fill="#A88337" transform="translate(35,20)" />
<path d="M0 0 C4.98931981 1.27633763 8.02760577 2.71625538 11 7 C11.51940882 10.71259262 11.31135939 14.27389585 11 18 C10.93167969 18.83789062 10.86335938 19.67578125 10.79296875 20.5390625 C10.41075158 24.41306028 9.82295744 28.19382183 9 32 C8.66055205 33.99897128 8.32578384 35.99875639 8 38 C7.67 38 7.34 38 7 38 C7 36.02 7 34.04 7 32 C6.34 32 5.68 32 5 32 C4.67 33.98 4.34 35.96 4 38 C3.67 37.34 3.34 36.68 3 36 C2.01 35.67 1.02 35.34 0 35 C-0.33 33.02 -0.66 31.04 -1 29 C-0.01 28.67 0.98 28.34 2 28 C2.33 27.34 2.66 26.68 3 26 C3.99 26 4.98 26 6 26 C8.19975457 20.57393873 9.37624565 14.85868224 9 9 C6.8125 6.0625 6.8125 6.0625 4 4 C2.66666667 2.66666667 1.33333333 1.33333333 0 0 Z " fill="#4A4B29" transform="translate(69,20)" />
<path d="M0 0 C0.33 0.66 0.66 1.32 1 2 C9.07319788 5.68861627 17.2125557 6.71653405 26 7 C26.165 7.495 26.165 7.495 27 10 C4.04812628 11.06067709 4.04812628 11.06067709 -3.9140625 4.3984375 C-5.3125 2.75 -5.3125 2.75 -7 0 C-4.30234372 -1.34882814 -2.84835666 -0.80338265 0 0 Z " fill="#DDB961" transform="translate(25,33)" />
<path d="M0 0 C0.40863281 0.00451172 0.40863281 0.00451172 2.4765625 0.02734375 C2.78980469 0.03314453 2.78980469 0.03314453 4.375 0.0625 C3.6640625 3.84375 3.6640625 3.84375 1.0625 5.8125 C-1.625 7.0625 -1.625 7.0625 -5.625 7.0625 C-5.7075 7.68125 -5.79 8.3 -5.875 8.9375 C-6.625 11.0625 -6.625 11.0625 -8.4375 12.3125 C-10.625 13.0625 -10.625 13.0625 -14.625 13.0625 C-14.625 13.7225 -14.625 14.3825 -14.625 15.0625 C-15.285 15.0625 -15.945 15.0625 -16.625 15.0625 C-13.9879912 7.37122434 -8.56780455 -0.12239721 0 0 Z " fill="#6CB305" transform="translate(66.625,60.9375)" />
<path d="M0 0 C5.28 0 10.56 0 16 0 C15.67 1.32 15.34 2.64 15 4 C13.185 4.495 13.185 4.495 4 7 C4.33 7.99 4.66 8.98 5 10 C5.99 10.33 6.98 10.66 8 11 C8 11.66 8 12.32 8 13 C5.69 13 3.38 13 1 13 C-0.92572521 9.14854957 -0.04883218 4.19956748 0 0 Z " fill="#C29840" transform="translate(36,43)" />
<path d="M0 0 C2.31 0 4.62 0 7 0 C6.3125 2.375 6.3125 2.375 5 5 C2.6875 6.125 2.6875 6.125 0 7 C-0.804375 7.495 -1.60875 7.99 -2.4375 8.5 C-6.87137713 11.09544027 -10.85836721 12.30244899 -16 12 C-16.66 10.68 -17.32 9.36 -18 8 C-17.66226563 7.93361328 -17.66226563 7.93361328 -15.953125 7.59765625 C-15.50710937 7.50935547 -15.50710937 7.50935547 -13.25 7.0625 C-12.36828125 6.88847656 -11.4865625 6.71445312 -10.578125 6.53515625 C-8.36764947 6.07631512 -6.18487932 5.56663926 -4 5 C-4 4.34 -4 3.68 -4 3 C-3.01 3 -2.02 3 -1 3 C-0.67 2.01 -0.34 1.02 0 0 Z " fill="#D7B564" transform="translate(72,31)" />
<path d="M0 0 C0.33 0 0.66 0 1 0 C0.65677626 8.83801123 0.65677626 8.83801123 -1.625 12.875 C-7.17045693 17.83672462 -12.70264495 20.13210929 -20.125 20.1875 C-20.55941406 20.19458984 -20.55941406 20.19458984 -22.7578125 20.23046875 C-25 20 -25 20 -27 18 C-29.390625 17.69140625 -29.390625 17.69140625 -32.25 17.5625 C-36.95337337 17.22875209 -40.01561201 16.47678173 -44 14 C-43.34 13.67 -42.68 13.34 -42 13 C-41.01 13.33 -40.02 13.66 -39 14 C-36.42734182 14.07029121 -33.88358569 14.09370832 -31.3125 14.0625 C-30.61060547 14.05798828 -29.90871094 14.05347656 -29.18554688 14.04882812 C-27.45699462 14.03706927 -25.72848635 14.01913454 -24 14 C-24.33 15.32 -24.66 16.64 -25 18 C-17.21507697 17.83719743 -10.42858171 16.66732644 -4 12 C-1.77112974 8.52352311 -1.53524684 5.05258318 -1 1 C-0.67 0.67 -0.34 0.34 0 0 Z " fill="#425C0A" transform="translate(75,58)" />
<path d="M0 0 C0.309375 0.2475 0.309375 0.2475 1.875 1.5 C1.875 2.49 1.875 3.48 1.875 4.5 C0.225 4.5 -1.425 4.5 -3.125 4.5 C-3.125 3.51 -3.125 2.52 -3.125 1.5 C-3.8675 1.355625 -4.61 1.21125 -5.375 1.0625 C-6.93163101 0.7440982 -8.48498768 0.4011079 -10.01708984 -0.01977539 C-12.25504545 -0.52962699 -14.30880603 -0.67412708 -16.6015625 -0.74609375 C-17.436875 -0.77896484 -18.2721875 -0.81183594 -19.1328125 -0.84570312 C-20.8852752 -0.9071701 -22.63789042 -0.96442567 -24.390625 -1.01757812 C-25.22335938 -1.05173828 -26.05609375 -1.08589844 -26.9140625 -1.12109375 C-27.29409424 -1.13362183 -27.29409424 -1.13362183 -29.21728516 -1.19702148 C-31.125 -1.5 -31.125 -1.5 -33.125 -3.5 C-22.43574204 -6.89863587 -9.83547877 -4.72102981 0 0 Z " fill="#F2D991" transform="translate(69.125,29.5)" />
<path d="M0 0 C0 0.33 0 0.66 0 1 C-0.71019287 1.08975098 -1.42038574 1.17950195 -2.15209961 1.27197266 C-5.41759159 1.69872667 -8.67702005 2.16156301 -11.9375 2.625 C-12.49598633 2.69525391 -12.49598633 2.69525391 -15.32226562 3.05078125 C-22.56762736 4.11315101 -28.70301041 5.66617014 -34 11 C-35.61211289 15.28024398 -34.9005441 18.93829592 -34.0625 23.375 C-33.86785156 24.43460938 -33.67320313 25.49421875 -33.47265625 26.5859375 C-33.31667969 27.38257812 -33.16070312 28.17921875 -33 29 C-33.66 29 -34.32 29 -35 29 C-37.01676285 22.06737769 -38.88442997 15.43235458 -35.25 8.8125 C-25.07014906 -1.19908894 -13.28656405 -0.70896686 0 0 Z " fill="#523B0F" transform="translate(53,16)" />
<path d="M0 0 C2.79038627 1.09924308 5.52560187 2.24258548 8.25 3.5 C12.3594269 5.28710176 16.6148074 6.15478147 21 7 C18.875 9.5625 18.875 9.5625 16 12 C12.04679076 11.92093582 10.30354385 11.20236257 7 9 C7 8.34 7 7.68 7 7 C6.01 7 5.02 7 4 7 C3.34 5.845 3.34 5.845 0 0 Z " fill="#A6AFAD" transform="translate(22,51)" />
<path d="M0 0 C0.99 0 1.98 0 3 0 C2.63450574 2.64983336 2.23871836 3.77833295 0.25 5.625 C-2 7 -2 7 -4.6875 8 C-5.450625 8.33 -6.21375 8.66 -7 9 C-7.33 9.99 -7.66 10.98 -8 12 C-10.60919828 13.30459914 -12.58942615 13.1326594 -15.5 13.125 C-16.4796875 13.12757812 -17.459375 13.13015625 -18.46875 13.1328125 C-21 13 -21 13 -23 12 C-22.67 11.34 -22.34 10.68 -22 10 C-21.34 10 -20.68 10 -20 10 C-20 10.66 -20 11.32 -20 12 C-19.34 12 -18.68 12 -18 12 C-18 11.34 -18 10.68 -18 10 C-15.36 9.34 -12.72 8.68 -10 8 C-10.66 7.34 -11.32 6.68 -12 6 C-10.515 5.835 -10.515 5.835 -3 5 C-3 4.34 -3 3.68 -3 3 C-2.01 3 -1.02 3 0 3 C0 2.01 0 1.02 0 0 Z " fill="#63A30A" transform="translate(54,59)" />
<path d="M0 0 C6.15234375 -0.09765625 6.15234375 -0.09765625 8 0 C8.33 0.33 8.66 0.66 9 1 C10.34747084 1.23075082 11.70377565 1.41153063 13.0625 1.5625 C14.361875 1.706875 15.66125 1.85125 17 2 C17 2.66 17 3.32 17 4 C15.68 3.67 14.36 3.34 13 3 C12.67 3.99 12.34 4.98 12 6 C8.47078888 6.90282145 6.59289113 7.25033181 3.1875 5.8125 C0.83246285 3.86118351 0.30891997 2.98622637 0 0 Z " fill="#75AB0A" transform="translate(46,52)" />
<path d="M0 0 C6.46792871 0.94412031 9.36598111 2.24073736 14 7 C17.3125 7.3125 17.3125 7.3125 20 7 C20 7.66 20 8.32 20 9 C12.36607143 10.60714286 12.36607143 10.60714286 8.25 8.125 C7.1775 7.42375 6.105 6.7225 5 6 C2.5625 5.25 2.5625 5.25 1 5 C0.67 3.35 0.34 1.7 0 0 Z " fill="#A47D28" transform="translate(59,22)" />
<path d="M0 0 C0.33 0.66 0.66 1.32 1 2 C0.43079834 2.01981934 -0.13840332 2.03963867 -0.72485352 2.06005859 C-3.33781712 2.15611758 -5.95006802 2.26546407 -8.5625 2.375 C-9.45775391 2.4059375 -10.35300781 2.436875 -11.27539062 2.46875 C-16.50725745 2.69872217 -21.03344876 3.32404444 -26 5 C-26.33 4.01 -26.66 3.02 -27 2 C-18.04395567 -0.46456257 -9.19822505 -0.1920743 0 0 Z " fill="#DBB969" transform="translate(55,18)" />
<path d="M0 0 C3.93808228 0.1097257 7.87519589 0.24039131 11.8125 0.375 C12.93205078 0.4059375 14.05160156 0.436875 15.20507812 0.46875 C15.74165039 0.48808594 15.74165039 0.48808594 18.45703125 0.5859375 C19.44678955 0.6173584 20.43654785 0.6487793 21.45629883 0.68115234 C24 1 24 1 27 3 C24.69 3.66 22.38 4.32 20 5 C20 4.34 20 3.68 20 3 C17.60408962 2.97287649 15.20849043 2.9531018 12.8125 2.9375 C12.13896484 2.92912109 11.46542969 2.92074219 10.77148438 2.91210938 C7.05816886 2.89399564 3.57895441 2.95968236 0 4 C-0.66 4.66 -1.32 5.32 -2 6 C-1.49396008 3.83125748 -1.00016187 2.00032373 0 0 Z " fill="#F8EFB9" transform="translate(37,30)" />
<path d="M0 0 C0.40863281 0.00451172 0.40863281 0.00451172 2.4765625 0.02734375 C2.78980469 0.03314453 2.78980469 0.03314453 4.375 0.0625 C4.375 0.3925 4.375 0.7225 4.375 1.0625 C3.818125 1.10375 3.818125 1.10375 1 1.3125 C0.401875 1.43625 0.401875 1.43625 -2.625 2.0625 C-3.8125 4.0625 -3.8125 4.0625 -4.625 6.0625 C-6.75 6.8125 -6.75 6.8125 -8.625 7.0625 C-8.686875 7.68125 -8.74875 8.3 -8.8125 8.9375 C-9.625 11.0625 -9.625 11.0625 -12.1875 12.3125 C-12.991875 12.56 -13.79625 12.8075 -14.625 13.0625 C-14.625 13.7225 -14.625 14.3825 -14.625 15.0625 C-15.285 15.0625 -15.945 15.0625 -16.625 15.0625 C-13.9879912 7.37122434 -8.56780455 -0.12239721 0 0 Z " fill="#7FBF1D" transform="translate(66.625,60.9375)" />
<path d="M0 0 C0.66 0 1.32 0 2 0 C2.04254356 1.99954746 2.04080783 4.00041636 2 6 C1.67 6.33 1.34 6.66 1 7 C0.50722937 9.24882595 0.10127459 11.5074309 -0.3046875 13.7734375 C-1.08222809 16.26331468 -2.03232355 17.3333888 -4 19 C-4.33 18.01 -4.66 17.02 -5 16 C-4.34 16 -3.68 16 -3 16 C-3 15.34 -3 14.68 -3 14 C-3.66 13.67 -4.32 13.34 -5 13 C-4.34 11.35 -3.68 9.7 -3 8 C-3.99 7.67 -4.98 7.34 -6 7 C-5.01 6.67 -4.02 6.34 -3 6 C-2.67 5.34 -2.34 4.68 -2 4 C-1.33333333 2.66666667 -0.66666667 1.33333333 0 0 Z " fill="#5B8F0F" transform="translate(74,52)" />
<path d="M0 0 C11.77582837 -0.42266184 21.92946369 -0.52518272 33 4 C30.10089716 4.86688859 27.88547169 5.0458562 24.890625 4.66015625 C24.51357422 4.61342773 24.51357422 4.61342773 22.60546875 4.37695312 C22.21681641 4.32506836 22.21681641 4.32506836 20.25 4.0625 C19.45722656 3.96259766 18.66445313 3.86269531 17.84765625 3.75976562 C15.89759629 3.51307129 13.94867414 3.2574122 12 3 C12 2.67 12 2.34 12 2 C7.71 2 3.42 2 -1 2 C-0.67 1.34 -0.34 0.68 0 0 Z " fill="#6F5B30" transform="translate(35,15)" />
<path d="M0 0 C4.98931981 1.27633763 8.02760577 2.71625538 11 7 C11.519531 10.7134659 11.30508501 14.27287813 11 18 C10.94328125 18.87269531 10.8865625 19.74539062 10.828125 20.64453125 C10.32120811 26.67879189 10.32120811 26.67879189 8 29 C7.91718374 23.94820823 8.09299308 19.25260941 8.8125 14.25 C9.2993324 9.40196066 9.2993324 9.40196066 6.8125 6.0625 C5.884375 5.381875 4.95625 4.70125 4 4 C2.66666667 2.66666667 1.33333333 1.33333333 0 0 Z " fill="#483712" transform="translate(69,20)" />
<path d="M0 0 C0.66 0.66 1.32 1.32 2 2 C0.68 2.33 -0.64 2.66 -2 3 C-2 6.41987028 -1.52745657 8.94508687 0 12 C-1.65 11.67 -3.3 11.34 -5 11 C-5 10.01 -5 9.02 -5 8 C-6.32 7.67 -7.64 7.34 -9 7 C-9 6.01 -9 5.02 -9 4 C-6.03 2.68 -3.06 1.36 0 0 Z " fill="#A69829" transform="translate(49,46)" />
<path d="M0 0 C2.97 0 5.94 0 9 0 C9 1.98 9 3.96 9 6 C5.37 5.67 1.74 5.34 -2 5 C-1.34 3.35 -0.68 1.7 0 0 Z " fill="#9D7730" transform="translate(55,42)" />
<path d="M0 0 C3.74596154 3.21082417 5.46536141 7.39608423 7 12 C7.66 12 8.32 12 9 12 C9.268125 12.969375 9.53625 13.93875 9.8125 14.9375 C10.204375 15.948125 10.59625 16.95875 11 18 C11.99 18.33 12.98 18.66 14 19 C13.67 20.65 13.34 22.3 13 24 C12.72929687 23.41992188 12.45859375 22.83984375 12.1796875 22.2421875 C10.99909947 19.9982884 9.67650689 18.12668506 8.125 16.125 C7.59777344 15.42890625 7.07054687 14.7328125 6.52734375 14.015625 C6.02332031 13.35046875 5.51929688 12.6853125 5 12 C1.98377394 7.92401884 0.48339825 5.07568157 0 0 Z " fill="#453C19" transform="translate(18,47)" />
<path d="M0 0 C0.556875 0.2475 1.11375 0.495 1.6875 0.75 C1.6875 1.41 1.6875 2.07 1.6875 2.75 C1.048125 3.224375 0.40875 3.69875 -0.25 4.1875 C-2.3125 5.75 -2.3125 5.75 -3.3125 8.75 C-4.9625 8.75 -6.6125 8.75 -8.3125 8.75 C-8.0198985 5.23878203 -7.5025372 3.94517334 -5 1.375 C-2.3125 -0.25 -2.3125 -0.25 0 0 Z " fill="#D7B35D" transform="translate(26.3125,22.25)" />
<path d="M0 0 C0.53625 0.226875 1.0725 0.45375 1.625 0.6875 C0.965 1.3475 0.305 2.0075 -0.375 2.6875 C-1 5.3125 -1 5.3125 -1.375 7.6875 C-0.385 8.0175 0.605 8.3475 1.625 8.6875 C-2.09388239 8.18037967 -5.10954239 7.57141785 -8.375 5.6875 C-8.375 4.6975 -8.375 3.7075 -8.375 2.6875 C-2.95961538 -0.38942308 -2.95961538 -0.38942308 0 0 Z " fill="#F8E8A9" transform="translate(36.375,30.3125)" />
<path d="M0 0 C2.06183633 -0.08150744 4.12461349 -0.1394194 6.1875 -0.1875 C7.33605469 -0.22230469 8.48460937 -0.25710937 9.66796875 -0.29296875 C15.19216776 0.19274629 18.92902772 3.3942817 23 7 C23 7.66 23 8.32 23 9 C20.69 8.67 18.38 8.34 16 8 C16.33 6.68 16.66 5.36 17 4 C11.43930418 1.74566386 5.9214349 1.40038172 0 1 C0 0.67 0 0.34 0 0 Z " fill="#94B021" transform="translate(48,49)" />
<path d="M0 0 C0 0.66 0 1.32 0 2 C0.99 2.33 1.98 2.66 3 3 C-2.625 6 -2.625 6 -6 6 C-6 6.99 -6 7.98 -6 9 C-6.99 8.67 -7.98 8.34 -9 8 C-9.33 7.01 -9.66 6.02 -10 5 C-8.90241493 4.15801693 -7.79664683 3.32669329 -6.6875 2.5 C-6.07261719 2.0359375 -5.45773438 1.571875 -4.82421875 1.09375 C-3 0 -3 0 0 0 Z " fill="#EED590" transform="translate(34,27)" />
<path d="M0 0 C-0.33 0.99 -0.66 1.98 -1 3 C-1.33 3.165 -1.33 3.165 -3 4 C-3 4.66 -3 5.32 -3 6 C-7.62 6 -12.24 6 -17 6 C-17 5.67 -17 5.34 -17 5 C-13.7 4.67 -10.4 4.34 -7 4 C-6.67 2.68 -6.34 1.36 -6 0 C-3.50907189 -1.24546405 -2.58919267 -0.7767578 0 0 Z " fill="#5C960A" transform="translate(53,67)" />
<path d="M0 0 C0.3125 2.3125 0.3125 2.3125 0 5 C-3.89553693 8.40859481 -8.03459453 8.57920293 -13 9 C-12.67 7.68 -12.34 6.36 -12 5 C-12 5.66 -12 6.32 -12 7 C-10.35 7 -8.7 7 -7 7 C-6.9175 6.401875 -6.835 5.80375 -6.75 5.1875 C-5.6373204 1.94218449 -3.50829352 0 0 0 Z " fill="#9A7828" transform="translate(30,24)" />
<path d="M0 0 C0 0.66 0 1.32 0 2 C-0.391875 2.1546875 -0.391875 2.1546875 -2.375 2.9375 C-5 4 -5 4 -7 5 C-7.33 5.99 -7.66 6.98 -8 8 C-9.485 8.165 -9.485 8.165 -17 9 C-13.25 6 -13.25 6 -11 6 C-10.979375 5.401875 -10.95875 4.80375 -10.9375 4.1875 C-10 2 -10 2 -6.625 0.1875 C-3 -1 -3 -1 0 0 Z " fill="#60A203" transform="translate(71,66)" />
<path d="M0 0 C0.66 0 1.32 0 2 0 C1.125 4.75 1.125 4.75 0 7 C3.63 7.33 7.26 7.66 11 8 C10.67 8.66 10.34 9.32 10 10 C4.39 10 -1.22 10 -7 10 C-6.67 9.34 -6.34 8.68 -6 8 C-4.68 8 -3.36 8 -2 8 C-1.34 5.36 -0.68 2.72 0 0 Z " fill="#84731A" transform="translate(53,40)" />
<path d="M0 0 C0.6875 2.8125 0.6875 2.8125 1 6 C-0.4375 7.875 -0.4375 7.875 -2 9 C-2.99 8.67 -3.98 8.34 -5 8 C-5 5.69 -5 3.38 -5 1 C-2 0 -2 0 0 0 Z " fill="#7E6020" transform="translate(69,40)" />
<path d="M0 0 C0.88945313 0.00644531 1.77890625 0.01289063 2.6953125 0.01953125 C3.61570312 0.03628906 4.53609375 0.05304687 5.484375 0.0703125 C6.42023437 0.07933594 7.35609375 0.08835937 8.3203125 0.09765625 C10.62526157 0.12117614 12.9296866 0.15404397 15.234375 0.1953125 C15.234375 0.5253125 15.234375 0.8553125 15.234375 1.1953125 C7.644375 2.1853125 0.054375 3.1753125 -7.765625 4.1953125 C-8.095625 3.5353125 -8.425625 2.8753125 -8.765625 2.1953125 C-5.70405846 0.41862027 -3.52526285 -0.04519568 0 0 Z " fill="#5F4718" transform="translate(37.765625,15.8046875)" />
<path d="M0 0 C0.66 0 1.32 0 2 0 C2 1.32 2 2.64 2 4 C1.01 4 0.02 4 -1 4 C-1.33 4.99 -1.66 5.98 -2 7 C-2.99 7 -3.98 7 -5 7 C-4.67 8.65 -4.34 10.3 -4 12 C-7.16115776 10.63016497 -7.9927092 10.0109362 -10 7 C-7.92446352 6.4465236 -6.15634036 6 -4 6 C-3.67 4.68 -3.34 3.36 -3 2 C-2.01 2 -1.02 2 0 2 C0 1.34 0 0.68 0 0 Z " fill="#655A15" transform="translate(73,42)" />
<path d="M0 0 C0.74507812 0.00451172 1.49015625 0.00902344 2.2578125 0.01367188 C4.0885764 0.02540754 5.91929873 0.0433415 7.75 0.0625 C7.75 0.3925 7.75 0.7225 7.75 1.0625 C1.82943875 3.16758844 -3.97751327 3.7698451 -10.25 3.0625 C-10.91 2.4025 -11.57 1.7425 -12.25 1.0625 C-8.15996141 -0.08732602 -4.21822949 -0.04844256 0 0 Z " fill="#EAD388" transform="translate(48.25,24.9375)" />
<path d="M0 0 C3.63 1.32 7.26 2.64 11 4 C9.35 5.65 7.7 7.3 6 9 C1.125 4.5 1.125 4.5 0 0 Z " fill="#74652B" transform="translate(27,59)" />
<path d="M0 0 C-2.34421119 1.1721056 -4.68944361 2.32361639 -7.0625 3.4375 C-9.62357509 4.79977398 -11.04660955 5.94894003 -13 8 C-13.66 8 -14.32 8 -15 8 C-15 8.66 -15 9.32 -15 10 C-15.99 10.33 -16.98 10.66 -18 11 C-16.1852483 6.54560945 -13.32280162 3.18408442 -9 0.98046875 C-3.59106994 -1.19702331 -3.59106994 -1.19702331 0 0 Z " fill="#97BD4A" transform="translate(50,59)" />
<path d="M0 0 C1.93884889 0.28256092 3.87605961 0.5763793 5.8125 0.875 C6.89144531 1.03742187 7.97039063 1.19984375 9.08203125 1.3671875 C12 2 12 2 15 4 C14.01 4 13.02 4 12 4 C11.67 4.66 11.34 5.32 11 6 C10.319375 5.690625 9.63875 5.38125 8.9375 5.0625 C5.63034088 3.86629351 2.48454122 3.40994603 -1 3 C-0.67 2.01 -0.34 1.02 0 0 Z " fill="#D2B15D" transform="translate(55,18)" />
<path d="M0 0 C0.99 0 1.98 0 3 0 C2.6465342 2.56262706 2.22529498 3.77470502 0.375 5.625 C-2.63117342 7.36541619 -5.6424427 8.16061068 -9 9 C-9.99 8.01 -10.98 7.02 -12 6 C-10.515 5.835 -10.515 5.835 -3 5 C-3 4.34 -3 3.68 -3 3 C-2.01 3 -1.02 3 0 3 C0 2.01 0 1.02 0 0 Z " fill="#6EB00A" transform="translate(54,59)" />
<path d="M0 0 C1.67299959 0.65061095 3.33859237 1.32033324 5 2 C5.7425 2.2475 6.485 2.495 7.25 2.75 C9 4 9 4 9.75 7.125 C9.79125 7.599375 9.79125 7.599375 10 10 C9.01 9.67 8.02 9.34 7 9 C7 8.34 7 7.68 7 7 C6.01 7 5.02 7 4 7 C3.34 5.845 3.34 5.845 0 0 Z " fill="#8E9A9A" transform="translate(22,51)" />
<path d="M0 0 C1.134375 0.020625 2.26875 0.04125 3.4375 0.0625 C1.6875 4.9375 1.6875 4.9375 -0.5625 6.0625 C-1.5525 5.7325 -2.5425 5.4025 -3.5625 5.0625 C-4.3125 3.0625 -4.3125 3.0625 -4.5625 1.0625 C-3.5625 0.0625 -3.5625 0.0625 0 0 Z " fill="#D0AE55" transform="translate(75.5625,30.9375)" />
<path d="M0 0 C0.33 0 0.66 0 1 0 C1.48761453 5.38543155 1.79079255 9.61058882 -1.5 14.125 C-2.325 15.07375 -3.15 16.0225 -4 17 C-4.66 16.67 -5.32 16.34 -6 16 C-5.53980469 15.46890625 -5.07960938 14.9378125 -4.60546875 14.390625 C-2.69751645 11.54958653 -2.07212845 9.07789607 -1.3125 5.75 C-1.06113281 4.67234375 -0.80976562 3.5946875 -0.55078125 2.484375 C-0.36902344 1.66453125 -0.18726562 0.8446875 0 0 Z " fill="#65693E" transform="translate(77,56)" />
<path d="M0 0 C1.32 0 2.64 0 4 0 C4 1.32 4 2.64 4 4 C4.66 4.33 5.32 4.66 6 5 C4.02 5.99 2.04 6.98 0 8 C0 5.36 0 2.72 0 0 Z " fill="#C69B47" transform="translate(36,43)" />
<path d="M0 0 C0.40863281 0.00451172 0.40863281 0.00451172 2.4765625 0.02734375 C2.78980469 0.03314453 2.78980469 0.03314453 4.375 0.0625 C4.375 0.3925 4.375 0.7225 4.375 1.0625 C3.818125 1.10375 3.818125 1.10375 1 1.3125 C-2.625 2.0625 -2.625 2.0625 -4.0625 4.125 C-4.248125 4.764375 -4.43375 5.40375 -4.625 6.0625 C-5.615 6.0625 -6.605 6.0625 -7.625 6.0625 C-7.25 3.625 -7.25 3.625 -6.625 1.0625 C-4.21954362 -0.14022819 -2.67503047 -0.03821472 0 0 Z " fill="#77BB15" transform="translate(66.625,60.9375)" />
<path d="M0 0 C1.4800841 0.11362262 2.95910074 0.24122908 4.4375 0.375 C5.26121094 0.44460937 6.08492187 0.51421875 6.93359375 0.5859375 C7.27455078 0.65425781 7.27455078 0.65425781 9 1 C9.33 1.66 9.66 2.32 10 3 C7.36 3.33 4.72 3.66 2 4 C1.34 2.68 0.68 1.36 0 0 Z " fill="#DABD6C" transform="translate(54,39)" />
<path d="M0 0 C-1.31224548 3.93673644 -2.91910327 6.22719294 -6 9 C-6.66 8.01 -7.32 7.02 -8 6 C-7.01 5.67 -6.02 5.34 -5 5 C-5 3.68 -5 2.36 -5 1 C-3 0 -3 0 0 0 Z " fill="#528C04" transform="translate(57,64)" />
<path d="M0 0 C3.93552873 3.67316014 5.87480631 6.74909611 7 12 C7.99 12 8.98 12 10 12 C9.67 12.66 9.34 13.32 9 14 C4.89500604 12.63166868 4.13094546 10.71196951 2 7 C1.16803661 4.67607992 0.57761806 2.40674193 0 0 Z " fill="#78796F" transform="translate(19,46)" />
<path d="M0 0 C0.66 0 1.32 0 2 0 C2 1.98 2 3.96 2 6 C1.34 6.33 1.34 6.33 -2 8 C-2.99 7.34 -3.98 6.68 -5 6 C-4.34 6 -3.68 6 -3 6 C-2.67 5.34 -2.34 4.68 -2 4 C-1.33333333 2.66666667 -0.66666667 1.33333333 0 0 Z " fill="#658828" transform="translate(74,52)" />
<path d="M0 0 C1.60332791 -0.08121924 3.20784026 -0.13929134 4.8125 -0.1875 C5.25916016 -0.20490234 5.25916016 -0.20490234 7.51953125 -0.29296875 C10.41647515 0.04918998 11.22555028 0.75393573 13 3 C11.02 3.33 9.04 3.66 7 4 C6.67 3.34 6.34 2.68 6 2 C2.9375 1.375 2.9375 1.375 0 1 C0 0.67 0 0.34 0 0 Z " fill="#979570" transform="translate(34,56)" />
<path d="M0 0 C2.64 0 5.28 0 8 0 C8.33 0.99 8.66 1.98 9 3 C5.98968256 3.93423645 5.13349732 4.04449911 2 3 C2 2.34 2 1.68 2 1 C1.34 0.67 0.68 0.34 0 0 Z " fill="#6EB201" transform="translate(46,52)" />
<path d="M0 0 C2.76276177 0.52268466 5.3260876 1.10869587 8 2 C8 2.66 8 3.32 8 4 C5.69 4 3.38 4 1 4 C0.67 2.68 0.34 1.36 0 0 Z " fill="#B68E47" transform="translate(36,52)" />
<path d="M0 0 C1.32 0.33 2.64 0.66 4 1 C3.34 1 2.68 1 2 1 C2 3.31 2 5.62 2 8 C0.35 7.67 -1.3 7.34 -3 7 C-2.67 6.01 -2.34 5.02 -2 4 C-1.01 4 -0.02 4 1 4 C0.67 2.68 0.34 1.36 0 0 Z " fill="#BE9137" transform="translate(32,42)" />
<path d="M0 0 C0.825 0.33 0.825 0.33 5 2 C5 2.99 5 3.98 5 5 C2.69 5 0.38 5 -2 5 C-1.34 3.35 -0.68 1.7 0 0 Z " fill="#AA8438" transform="translate(55,42)" />
<path d="M0 0 C3.24208567 0.35049575 4.61527704 0.56221181 6.8125 3.0625 C7.204375 3.701875 7.59625 4.34125 8 5 C3.48279689 5.36625971 3.48279689 5.36625971 1.1875 3.625 C0 2 0 2 0 0 Z " fill="#D9B155" transform="translate(20,32)" />
<path d="M0 0 C2.64 0 5.28 0 8 0 C7.67 1.32 7.34 2.64 7 4 C4.97954558 3.39816251 2.97888961 2.72693904 1 2 C0.67 1.34 0.34 0.68 0 0 Z " fill="#B18A34" transform="translate(37,21)" />
<path d="M0 0 C1.65 0.33 3.3 0.66 5 1 C5 1.99 5 2.98 5 4 C3.35 4.33 1.7 4.66 0 5 C-0.33 4.01 -0.66 3.02 -1 2 C-0.67 1.34 -0.34 0.68 0 0 Z " fill="#65A204" transform="translate(59,55)" />
<path d="M0 0 C3.94727588 -0.17942163 6.5980513 -0.09350689 10 2 C10 2.66 10 3.32 10 4 C5.78087253 3.5205537 3.20336822 2.83374881 0 0 Z " fill="#877D56" transform="translate(25,52)" />
<path d="M0 0 C-0.75 6.75 -0.75 6.75 -3 9 C-3.33 6.69 -3.66 4.38 -4 2 C-1 0 -1 0 0 0 Z " fill="#6C5426" transform="translate(78,35)" />
<path d="M0 0 C5.66710699 1.31793186 7.66437233 3.48709197 11 8 C10.67 8.165 10.67 8.165 9 9 C6 6 3 3 0 0 Z " fill="#624F1C" transform="translate(69,20)" />
<path d="M0 0 C0.99 0.33 1.98 0.66 3 1 C2.34 1 1.68 1 1 1 C0.67 1.99 0.34 2.98 0 4 C-2.31 3.67 -4.62 3.34 -7 3 C-6.67 2.34 -6.34 1.68 -6 1 C-5.34 1 -4.68 1 -4 1 C-4 1.66 -4 2.32 -4 3 C-3.34 3 -2.68 3 -2 3 C-2 2.34 -2 1.68 -2 1 C-1.34 0.67 -0.68 0.34 0 0 Z " fill="#6CA712" transform="translate(38,68)" />
<path d="M0 0 C0.33 0.66 0.66 1.32 1 2 C1.66 2 2.32 2 3 2 C3 3.65 3 5.3 3 7 C2.67 7.165 2.67 7.165 1 8 C0.34 7.34 -0.32 6.68 -1 6 C-0.625 2.875 -0.625 2.875 0 0 Z " fill="#6E643F" transform="translate(79,38)" />
<path d="M0 0 C0.598125 0.495 1.19625 0.99 1.8125 1.5 C4 3 4 3 7 3 C7 3.66 7 4.32 7 5 C5.02 5.33 3.04 5.66 1 6 C0.67 4.02 0.34 2.04 0 0 Z " fill="#9F7C2C" transform="translate(35,20)" />
<path d="M0 0 C2.125 0.375 2.125 0.375 4 1 C4 1.66 4 2.32 4 3 C2.35 3.66 0.7 4.32 -1 5 C-1.33 4.01 -1.66 3.02 -2 2 C-1.34 1.34 -0.68 0.68 0 0 Z " fill="#DEB765" transform="translate(24,22)" />
<path d="M0 0 C0.66 0.33 1.32 0.66 2 1 C2 1.66 2 2.32 2 3 C-2.62 3 -7.24 3 -12 3 C-12 2.67 -12 2.34 -12 2 C-11.21753906 1.93941406 -10.43507812 1.87882812 -9.62890625 1.81640625 C-8.61699219 1.73261719 -7.60507812 1.64882812 -6.5625 1.5625 C-5.55316406 1.48128906 -4.54382812 1.40007812 -3.50390625 1.31640625 C-1 1 -1 1 0 0 Z " fill="#66961A" transform="translate(48,70)" />
<path d="M0 0 C1.65 0.33 3.3 0.66 5 1 C5.33 1.99 5.66 2.98 6 4 C3.69 3.67 1.38 3.34 -1 3 C-0.67 2.01 -0.34 1.02 0 0 Z " fill="#77AC18" transform="translate(65,54)" />
<path d="M0 0 C0.66 0.33 1.32 0.66 2 1 C2.5625 2.9375 2.5625 2.9375 3 5 C3.33 5.66 3.66 6.32 4 7 C2.35 6.67 0.7 6.34 -1 6 C-1.042721 4.33388095 -1.04063832 2.66617115 -1 1 C-0.67 0.67 -0.34 0.34 0 0 Z " fill="#8B9723" transform="translate(45,51)" />
<path d="M0 0 C1.65 0.33 3.3 0.66 5 1 C4.01 1.33 3.02 1.66 2 2 C2 2.99 2 3.98 2 5 C0.35 5.33 -1.3 5.66 -3 6 C-2.34 5.67 -1.68 5.34 -1 5 C-0.375 2.4375 -0.375 2.4375 0 0 Z " fill="#FEF5BE" transform="translate(58,33)" />
<path d="M0 0 C0.33 0.99 0.66 1.98 1 3 C-2 4 -2 4 -5 4 C-5 3.01 -5 2.02 -5 1 C-3.35 0.67 -1.7 0.34 0 0 Z " fill="#B48E40" transform="translate(51,43)" />
<path d="M0 0 C0.33 1.32 0.66 2.64 1 4 C0.01 4 -0.98 4 -2 4 C-2.33 4.99 -2.66 5.98 -3 7 C-3.33 5.02 -3.66 3.04 -4 1 C-2 0 -2 0 0 0 Z " fill="#957435" transform="translate(69,40)" />
<path d="M0 0 C0.33 0.66 0.66 1.32 1 2 C2.32 1.67 3.64 1.34 5 1 C5.33 1.66 5.66 2.32 6 3 C5.34 3.33 5.34 3.33 2 5 C0.68 4.01 -0.64 3.02 -2 2 C-1.34 2 -0.68 2 0 2 C0 1.34 0 0.68 0 0 Z " fill="#A78436" transform="translate(66,25)" />
</svg>