<?xml version='1.0' encoding='utf-8'?>
<svg xmlns="http://www.w3.org/2000/svg" version="1.1" width="94" height="103">
<path d="M0 0 C3.70740227 0.25277743 5.48899115 0.47396148 8.125 3.1875 C8.434375 3.6515625 8.434375 3.6515625 10 6 C10.3403125 6.5053125 10.3403125 6.5053125 12.0625 9.0625 C12.701875 10.031875 13.34125 11.00125 14 12 C14.53625 12.66 15.0725 13.32 15.625 14 C17 16 17 16 17.8125 18.8125 C19.18168431 22.48767894 21.04426963 24.52358579 23.7578125 27.2890625 C25 29 25 29 25 33 C25.969375 33.309375 26.93875 33.61875 27.9375 33.9375 C31 35 31 35 32 36 C32.45326714 43.55445229 30.54387247 49.3955104 27 56 C25.3584951 52.7169902 26.48111376 49.57454967 27 46 C26.11441406 46.2165625 25.22882813 46.433125 24.31640625 46.65625 C10.25894126 49.81588833 -9.29421438 52.30373561 -22.375 44.6015625 C-24 43 -24 43 -24.6875 39.6875 C-23.83413212 35.11034503 -22.26918071 33.85822266 -18.7265625 31.06640625 C-17 30 -17 30 -15 30 C-14.71125 29.360625 -14.4225 28.72125 -14.125 28.0625 C-13 26 -13 26 -11 25 C-10.95875 23.96875 -10.9175 22.9375 -10.875 21.875 C-9.76939077 16.97873055 -7.79053832 15.62656181 -3.91015625 12.67578125 C-1.85005553 10.86845363 -0.95023578 9.55529726 0 7 C0.0777346 4.66796188 0.08967728 2.33160941 0 0 Z " fill="#D5C9A8" transform="translate(45,18)" />
<path d="M0 0 C0.79664062 0.20496094 1.59328125 0.40992188 2.4140625 0.62109375 C3.47367188 0.89050781 4.53328125 1.15992188 5.625 1.4375 C6.66914063 1.70433594 7.71328125 1.97117188 8.7890625 2.24609375 C14.54776553 3.59819799 20.02567345 4.19293429 25.9375 4.1875 C26.67025146 4.18814453 27.40300293 4.18878906 28.15795898 4.18945312 C35.54498014 4.11959199 42.71460852 3.1877203 50 2 C50.58695652 14.2173913 50.58695652 14.2173913 47 19 C40.28855303 23.23112961 33.43966017 23.23161297 25.75 23.3125 C24.84636719 23.34150391 23.94273438 23.37050781 23.01171875 23.40039062 C16.67827264 23.45962429 11.39227623 22.49289189 6 19 C3.62400281 15.43600422 2.84268195 11.91618826 1.875 7.8125 C1.69324219 7.06291016 1.51148437 6.31332031 1.32421875 5.54101562 C0.87748314 3.69529219 0.4380306 1.84780868 0 0 Z " fill="#862644" transform="translate(22,62)" />
<path d="M0 0 C3.70740227 0.25277743 5.48899115 0.47396148 8.125 3.1875 C9.10416667 4.65625 9.10416667 4.65625 14 12 C14.66 12.66 15.32 13.32 16 14 C14.99983813 17.0004856 13.6627026 19.32521756 12 22 C9.31333861 16.8185816 7.72374751 12.93942843 8 7 C7.34 7 6.68 7 6 7 C6.01160156 7.74765625 6.02320312 8.4953125 6.03515625 9.265625 C6.04417969 10.25046875 6.05320312 11.2353125 6.0625 12.25 C6.07410156 13.22453125 6.08570312 14.1990625 6.09765625 15.203125 C5.89061593 21.13275982 5.89061593 21.13275982 3.51171875 23.44921875 C3.21072266 23.65353516 3.21072266 23.65353516 1.6875 24.6875 C1.09324219 25.10386719 0.49898437 25.52023438 -0.11328125 25.94921875 C-2.07036531 27.03918896 -3.81216376 27.56050089 -6 28 C-2.16774573 28.08912219 1.26562152 27.87867729 5 27 C5 27.99 5 28.98 5 30 C4.01 30.33 3.02 30.66 2 31 C3.98 31 5.96 31 8 31 C8 30.34 8 29.68 8 29 C10.8125 27.4375 10.8125 27.4375 14 26 C14.99 26.33 15.98 26.66 17 27 C16.835 27.495 16.835 27.495 16 30 C15.34 30 14.68 30 14 30 C14 30.99 14 31.98 14 33 C11.17976193 36.81561621 7.62615161 36.88313669 3.19140625 37.59765625 C-1.24723828 38.15724057 -5.687258 38.48806275 -10.15234375 38.75390625 C-13 39 -13 39 -17 40 C-9.41 41.32 -1.82 42.64 6 44 C6 44.66 6 45.32 6 46 C-0.67226212 46.38167601 -6.9525544 45.84186744 -13.5 44.625 C-14.19416016 44.49891357 -14.88832031 44.37282715 -15.60351562 44.24291992 C-18.96893428 43.58114783 -21.10689311 42.92873793 -24 41 C-24.625 38.75 -24.625 38.75 -24 36 C-21.90170319 33.67766629 -19.6143469 31.72121029 -17 30 C-16.34 30 -15.68 30 -15 30 C-14.71125 29.360625 -14.4225 28.72125 -14.125 28.0625 C-13 26 -13 26 -11 25 C-10.95875 23.96875 -10.9175 22.9375 -10.875 21.875 C-9.76939077 16.97873055 -7.79053832 15.62656181 -3.91015625 12.67578125 C-1.85005553 10.86845363 -0.95023578 9.55529726 0 7 C0.0777346 4.66796188 0.08967728 2.33160941 0 0 Z " fill="#DFD6BB" transform="translate(45,18)" />
<path d="M0 0 C0.556875 0.226875 1.11375 0.45375 1.6875 0.6875 C1.3575 1.6775 1.0275 2.6675 0.6875 3.6875 C0.0275 3.6875 -0.6325 3.6875 -1.3125 3.6875 C-1.3125 4.6775 -1.3125 5.6675 -1.3125 6.6875 C-4.13273807 10.50311621 -7.68634839 10.57063669 -12.12109375 11.28515625 C-16.55973828 11.84474057 -20.999758 12.17556275 -25.46484375 12.44140625 C-28.3125 12.6875 -28.3125 12.6875 -32.3125 13.6875 C-24.7225 15.0075 -17.1325 16.3275 -9.3125 17.6875 C-9.3125 18.3475 -9.3125 19.0075 -9.3125 19.6875 C-15.98476212 20.06917601 -22.2650544 19.52936744 -28.8125 18.3125 C-29.50666016 18.18641357 -30.20082031 18.06032715 -30.91601562 17.93041992 C-34.28143428 17.26864783 -36.41939311 16.61623793 -39.3125 14.6875 C-39.625 12.1875 -39.625 12.1875 -39.3125 9.6875 C-38.6525 9.0275 -37.9925 8.3675 -37.3125 7.6875 C-35.3125 7.6875 -33.3125 7.6875 -31.3125 7.6875 C-30.19875 7.378125 -29.085 7.06875 -27.9375 6.75 C-21.27751565 4.90871021 -14.17792325 5.00410932 -7.3125 4.6875 C-7.3125 4.0275 -7.3125 3.3675 -7.3125 2.6875 C-3.15982824 -0.42700382 -3.15982824 -0.42700382 0 0 Z " fill="#E1D4B8" transform="translate(60.3125,44.3125)" />
<path d="M0 0 C3.37462715 0.54723683 5.08235 1.0549 8 3 C8.72969757 10.44291518 6.47578518 16.52240035 3 23 C1.3584951 19.7169902 2.48111376 16.57454967 3 13 C2.11441406 13.2165625 1.22882813 13.433125 0.31640625 13.65625 C-14.46881118 16.97946224 -29.35909743 17.52063447 -44 13 C-46.41796875 11.39453125 -46.41796875 11.39453125 -48 10 C-47.67 9.34 -47.34 8.68 -47 8 C-46.3709375 8.20496094 -45.741875 8.40992188 -45.09375 8.62109375 C-44.2378125 8.89050781 -43.381875 9.15992188 -42.5 9.4375 C-41.6646875 9.70433594 -40.829375 9.97117187 -39.96875 10.24609375 C-27.41101346 13.4350979 -11.45097591 13.44938148 1 10 C3.35546875 8.42578125 3.35546875 8.42578125 5 7 C4.05125 7.309375 3.1025 7.61875 2.125 7.9375 C-6.39092026 10.34380212 -15.22305334 10.13572598 -24 10 C-16.76562004 6.20752769 -10.02261035 5.70408404 -2 6 C-2 5.34 -2 4.68 -2 4 C-1.34 3.67 -0.68 3.34 0 3 C0 2.01 0 1.02 0 0 Z " fill="#B38B90" transform="translate(69,51)" />
<path d="M0 0 C0.99 0.33 1.98 0.66 3 1 C5.6227997 1.52116106 8.24450896 2.02129803 10.875 2.5 C19.7203276 4.12728249 19.7203276 4.12728249 24 5 C22.79618552 7.49361571 21.54571278 9.68143083 20 12 C12.41063401 13.98769109 5.81573101 13.74196997 -1 10 C-4 6.80645161 -4 6.80645161 -4 4 C-4.66 3.67 -5.32 3.34 -6 3 C-4.02 2.67 -2.04 2.34 0 2 C0 1.34 0 0.68 0 0 Z " fill="#BE3D5E" transform="translate(31,65)" />
<path d="M0 0 C0.66 0 1.32 0 2 0 C2.165 0.495 2.165 0.495 3 3 C6.0625 4.6875 6.0625 4.6875 9 6 C9 8.97 9 11.94 9 15 C8.34 15 7.68 15 7 15 C6.896875 16.19625 6.79375 17.3925 6.6875 18.625 C6.19814748 22.59574619 4.91830608 25.47031682 3 29 C2.79375 30.03125 2.5875 31.0625 2.375 32.125 C0.52624803 35.99057231 -1.66028595 36.66290995 -5.515625 38.23828125 C-17.02720229 41.76777429 -32.09701855 41.61668741 -43 36 C-45.25017753 32.62473371 -46.13004999 29.36925005 -47.125 25.5 C-47.21587891 25.16162109 -47.21587891 25.16162109 -47.67578125 23.44921875 C-48.43682178 20.54810937 -49 18.0122546 -49 15 C-49.66 15 -50.32 15 -51 15 C-51 12.36 -51 9.72 -51 7 C-50.67 7 -50.34 7 -50 7 C-49.67386719 8.12277344 -49.34773438 9.24554688 -49.01171875 10.40234375 C-48.11581218 13.48400087 -47.20071765 16.55928735 -46.27734375 19.6328125 C-45.54505916 22.08421487 -44.88673206 24.49578994 -44.31640625 26.9921875 C-43.54479776 30.15312158 -42.98548812 32.32192554 -40.22729492 34.21972656 C-34.21024713 36.92864223 -29.12279358 37.58627037 -22.5625 37.4375 C-21.68529297 37.44458984 -20.80808594 37.45167969 -19.90429688 37.45898438 C-13.6526417 37.39909379 -7.73087063 36.6285575 -2 34 C0 31.8359375 0 31.8359375 1 29.375 C1.36609375 28.49714844 1.7321875 27.61929688 2.109375 26.71484375 C3.19292327 23.4119225 4.03898994 20.13814725 4.640625 16.71484375 C5 15 5 15 6 14 C6.04092937 11.66702567 6.04241723 9.33294775 6 7 C4.02 6.01 2.04 5.02 0 4 C0 2.68 0 1.36 0 0 Z " fill="#553734" transform="translate(70,47)" />
<path d="M0 0 C0.66 0.33 1.32 0.66 2 1 C2.40066311 7.41060973 1.80869495 12.17455862 -1 18 C-1.99 18.33 -2.98 18.66 -4 19 C-4 19.66 -4 20.32 -4 21 C-6 22.33333333 -8 23.66666667 -10 25 C-10 25.66 -10 26.32 -10 27 C-11.98 27.33 -13.96 27.66 -16 28 C-15.625 26.0625 -15.625 26.0625 -15 24 C-14.34 23.67 -13.68 23.34 -13 23 C-12.95875 21.96875 -12.9175 20.9375 -12.875 19.875 C-11.76939077 14.97873055 -9.79053832 13.62656181 -5.91015625 10.67578125 C-3.90085827 8.9130229 -3.01806079 7.446544 -2 5 C-1.34 5 -0.68 5 0 5 C0 3.35 0 1.7 0 0 Z " fill="#FAF4DF" transform="translate(47,20)" />
<path d="M0 0 C7.29031024 -0.2494783 13.90673679 0.27669093 21 2 C16.375 7.75 16.375 7.75 13 10 C11.68 10 10.36 10 9 10 C9 10.66 9 11.32 9 12 C2.43122908 14.18959031 -3.54283042 12.8449056 -10 11 C-10 10.34 -10 9.68 -10 9 C-10.639375 8.7525 -11.27875 8.505 -11.9375 8.25 C-14 7 -14 7 -14.75 4.875 C-14.8325 4.25625 -14.915 3.6375 -15 3 C-14.46375 3.61875 -13.9275 4.2375 -13.375 4.875 C-8.69274707 9.0643842 -3.70645048 9.23974435 2.375 9.125 C2.99761719 9.11597656 2.99761719 9.11597656 6.1484375 9.0703125 C7.08945312 9.04710938 8.03046875 9.02390625 9 9 C9.28875 8.401875 9.5775 7.80375 9.875 7.1875 C11 5 11 5 13 2 C8.71 1.67 4.42 1.34 0 1 C0 0.67 0 0.34 0 0 Z " fill="#A53150" transform="translate(42,68)" />
<path d="M0 0 C0.165 0.495 0.165 0.495 1 3 C-3.43126453 8.26212663 -7.84375719 9.63141358 -14.47216797 10.21923828 C-17.13048887 10.3391814 -19.77658642 10.37116307 -22.4375 10.375 C-23.32759766 10.39949219 -24.21769531 10.42398438 -25.13476562 10.44921875 C-31.29728868 10.47622762 -36.84434125 9.60186972 -42 6 C-43.24780273 3.86083984 -43.24780273 3.86083984 -44 2 C-43.46375 2.28875 -42.9275 2.5775 -42.375 2.875 C-35.2339107 6.25762125 -28.83484528 6.36634964 -21.0625 6.375 C-19.90814453 6.39949219 -18.75378906 6.42398438 -17.56445312 6.44921875 C-10.83802541 6.47237341 -6.41137122 6.14127698 -1 2 C-0.67 1.34 -0.34 0.68 0 0 Z " fill="#C4A9AF" transform="translate(70,75)" />
<path d="M0 0 C0.33 0 0.66 0 1 0 C1.14822362 8.89341721 1.14822362 8.89341721 0 12 C-1.48828125 13.44921875 -1.48828125 13.44921875 -3.3125 14.6875 C-3.90675781 15.10386719 -4.50101563 15.52023438 -5.11328125 15.94921875 C-7.07036531 17.03918896 -8.81216376 17.56050089 -11 18 C-7.16774573 18.08912219 -3.73437848 17.87867729 0 17 C0 17.99 0 18.98 0 20 C-3.01490557 21.00496852 -5.04181692 21.10335303 -8.1875 21.0625 C-9.08855469 21.05347656 -9.98960938 21.04445313 -10.91796875 21.03515625 C-11.60503906 21.02355469 -12.29210938 21.01195313 -13 21 C-13 21.66 -13 22.32 -13 23 C-14.62171239 23.38897161 -16.24754925 23.76078298 -17.875 24.125 C-18.77992187 24.33382812 -19.68484375 24.54265625 -20.6171875 24.7578125 C-21.40351563 24.83773437 -22.18984375 24.91765625 -23 25 C-23.66 24.34 -24.32 23.68 -25 23 C-23.625 21.5 -23.625 21.5 -22 20 C-21.34 20 -20.68 20 -20 20 C-19.67 19.34 -19.34 18.68 -19 18 C-18.67 18.33 -18.34 18.66 -18 19 C-17.46375 18.731875 -16.9275 18.46375 -16.375 18.1875 C-15.59125 17.795625 -14.8075 17.40375 -14 17 C-12.989375 16.46375 -11.97875 15.9275 -10.9375 15.375 C-8 14 -8 14 -5 14 C-4.34 12.68 -3.68 11.36 -3 10 C-2.34 10 -1.68 10 -1 10 C-0.67 6.7 -0.34 3.4 0 0 Z " fill="#E3D7BB" transform="translate(50,28)" />
<path d="M0 0 C3.37462715 0.54723683 5.08235 1.0549 8 3 C8.1875 6.125 8.1875 6.125 8 9 C7.01 8.34 6.02 7.68 5 7 C3.34731935 7.4384663 1.69679311 7.89055349 0.0703125 8.41796875 C-7.65948484 10.59106272 -16.05275681 10.12289551 -24 10 C-16.76562004 6.20752769 -10.02261035 5.70408404 -2 6 C-2 5.34 -2 4.68 -2 4 C-1.34 3.67 -0.68 3.34 0 3 C0 2.01 0 1.02 0 0 Z " fill="#B6AE96" transform="translate(69,51)" />
<path d="M0 0 C2.125 0.375 2.125 0.375 4 1 C3.01 1.33 2.02 1.66 1 2 C1.33 2.99 1.66 3.98 2 5 C4.88104946 5.86941139 7.62224337 6.54300146 10.5625 7.125 C11.34947266 7.29386719 12.13644531 7.46273437 12.94726562 7.63671875 C17.946763 8.68360443 22.92474491 9.43026919 28 10 C28 10.66 28 11.32 28 12 C21.32773788 12.38167601 15.0474456 11.84186744 8.5 10.625 C7.80583984 10.49891357 7.11167969 10.37282715 6.39648438 10.24291992 C3.03106572 9.58114783 0.89310689 8.92873793 -2 7 C-2.3125 4.5 -2.3125 4.5 -2 2 C-1.34 1.34 -0.68 0.68 0 0 Z " fill="#EDF0E9" transform="translate(23,52)" />
<path d="M0 0 C1.32 0.33 2.64 0.66 4 1 C4.62457273 4.43515002 5 7.49064814 5 11 C4.01 11 3.02 11 2 11 C2 11.66 2 12.32 2 13 C-0.145 13.165 -0.145 13.165 -11 14 C-8 11 -8 11 -4.9375 8.6875 C-1.80957025 5.82577704 -0.94517734 4.06426257 0 0 Z " fill="#E2D6BB" transform="translate(65,44)" />
<path d="M0 0 C5.28 0.33 10.56 0.66 16 1 C16 2.32 16 3.64 16 5 C11.35150485 7.3992233 7.08913926 7.19957409 2 7 C2 6.34 2 5.68 2 5 C1.34 5 0.68 5 0 5 C0 3.35 0 1.7 0 0 Z " fill="#D04467" transform="translate(34,69)" />
<path d="M0 0 C0 2.31 0 4.62 0 7 C-0.57322998 6.86215088 -1.14645996 6.72430176 -1.73706055 6.58227539 C-8.77903272 5.01747027 -15.6154182 4.61262187 -22.8125 4.4375 C-25.00661412 4.37736976 -27.20063477 4.31370023 -29.39453125 4.24609375 C-30.35206299 4.22216553 -31.30959473 4.1982373 -32.29614258 4.17358398 C-34.94556004 4.00349497 -37.41299777 3.58321402 -40 3 C-40 2.67 -40 2.34 -40 2 C-39.30551758 2.01047363 -38.61103516 2.02094727 -37.89550781 2.03173828 C-34.68037693 2.07388819 -31.4653045 2.09951061 -28.25 2.125 C-27.15816406 2.14175781 -26.06632812 2.15851563 -24.94140625 2.17578125 C-18.26535508 2.21528451 -12.01140409 1.69450079 -5.45214844 0.43310547 C-3 0 -3 0 0 0 Z " fill="#772238" transform="translate(72,64)" />
<path d="M0 0 C0.66 0 1.32 0 2 0 C4.82816847 10.56741328 4.82816847 10.56741328 2.5 14.9375 C-0.15516021 18.19007126 -2.24523324 20.12261662 -6 22 C-9.375 22.25 -9.375 22.25 -12 22 C-12.33 21.34 -12.66 20.68 -13 20 C-12.0925 19.731875 -11.185 19.46375 -10.25 19.1875 C-7.26502899 18.09683752 -5.45887276 16.93197145 -3 15 C-2.34 15 -1.68 15 -1 15 C-0.67 10.05 -0.34 5.1 0 0 Z " fill="#D2C5A5" transform="translate(51,25)" />
<path d="M0 0 C0.66 0.33 1.32 0.66 2 1 C-4.91236574 6.92488492 -14.2114417 7.15882937 -23 7 C-23 6.34 -23 5.68 -23 5 C-23.99283854 5.03255208 -23.99283854 5.03255208 -28.95703125 5.1953125 C-31 5 -31 5 -34 3 C-33.46761719 3.01160156 -33.46761719 3.01160156 -30.7734375 3.0703125 C-20.46207431 3.22430253 -9.89532652 3.29844217 0 0 Z " fill="#DADBCC" transform="translate(74,57)" />
<path d="M0 0 C0.33 0 0.66 0 1 0 C1.74512609 5.96100874 -0.52182192 9.42196561 -4 14 C-5.59497323 15.78895646 -7.22766654 17.37958084 -9 19 C-9.66 18.67 -10.32 18.34 -11 18 C-11 14.11770985 -10.94514524 12.00123079 -8.22265625 9.1171875 C-6.81127823 7.93806156 -5.37407894 6.78900013 -3.91015625 5.67578125 C-1.90085827 3.9130229 -1.01806079 2.446544 0 0 Z " fill="#DAD1B9" transform="translate(45,25)" />
<path d="M0 0 C0.57363281 0.19335938 1.14726562 0.38671875 1.73828125 0.5859375 C8.93005423 2.79039599 15.98242972 3.66262559 23.44848633 4.26513672 C24.23763428 4.33361816 25.02678223 4.40209961 25.83984375 4.47265625 C26.54488037 4.52687744 27.24991699 4.58109863 27.97631836 4.63696289 C30.26219753 5.04703676 31.97867412 5.8766 34 7 C30.68757688 7.0588996 27.37529149 7.09389398 24.0625 7.125 C23.5994043 7.13337891 23.5994043 7.13337891 21.25585938 7.17578125 C14.40150244 7.223882 7.47998479 7.03706427 1.4375 3.5 C0 2 0 2 0 0 Z " fill="#CEB7B7" transform="translate(21,59)" />
<path d="M0 0 C2.97 0.99 5.94 1.98 9 3 C9 3.66 9 4.32 9 5 C8.34 5.33 8.34 5.33 5 7 C6.625 12.75 6.625 12.75 10 15 C10 15.66 10 16.32 10 17 C12.64 17.33 15.28 17.66 18 18 C17.67 18.66 17.34 19.32 17 20 C15.58089348 19.74225629 14.16475101 19.46816835 12.75 19.1875 C11.96109375 19.03667969 11.1721875 18.88585937 10.359375 18.73046875 C7.57423105 17.86818081 6.07362752 17.06484096 4 15 C2.734375 11.93359375 2.734375 11.93359375 1.75 8.4375 C1.41484375 7.28121094 1.0796875 6.12492187 0.734375 4.93359375 C0 2 0 2 0 0 Z " fill="#9B334D" transform="translate(22,62)" />
<path d="M0 0 C-0.0625 1.75 -0.0625 1.75 -1 4 C-7.12605376 8.62857395 -12.45078898 8.49165672 -19.9375 8.25 C-20.47020508 8.24097656 -20.47020508 8.24097656 -23.16601562 8.1953125 C-25.77828929 8.14845557 -28.38866226 8.08286926 -31 8 C-31 7.67 -31 7.34 -31 7 C-29.79601563 6.95101562 -28.59203125 6.90203125 -27.3515625 6.8515625 C-25.77601802 6.77653657 -24.20049834 6.70098867 -22.625 6.625 C-21.8309375 6.5940625 -21.036875 6.563125 -20.21875 6.53125 C-14.2265625 6.2265625 -14.2265625 6.2265625 -12 4 C-10.35655093 3.23934959 -8.68577588 2.53656902 -7 1.875 C-6.113125 1.52179688 -5.22625 1.16859375 -4.3125 0.8046875 C-2 0 -2 0 0 0 Z " fill="#73283F" transform="translate(70,74)" />
<path d="M0 0 C0.79921875 0.00644531 1.5984375 0.01289062 2.421875 0.01953125 C3.246875 0.03628906 4.071875 0.05304687 4.921875 0.0703125 C5.76234375 0.07933594 6.6028125 0.08835938 7.46875 0.09765625 C9.53658104 0.12115433 11.60426495 0.15702342 13.671875 0.1953125 C10.84724301 3.01994449 7.65567283 3.15773514 3.859375 3.8203125 C3.14716797 3.954375 2.43496094 4.0884375 1.70117188 4.2265625 C-2.0146898 4.90029875 -5.55083375 5.3585746 -9.328125 5.1953125 C-8.328125 2.1953125 -8.328125 2.1953125 -6.53613281 1.02001953 C-4.18021146 0.14006571 -2.50432202 -0.03577603 0 0 Z " fill="#FDFAE9" transform="translate(35.328125,50.8046875)" />
<path d="M0 0 C8.25 0 16.5 0 25 0 C24.67 0.165 24.67 0.165 23 1 C23 1.66 23 2.32 23 3 C20.47886908 3.05447822 17.9589415 3.09389852 15.4375 3.125 C14.73302734 3.14175781 14.02855469 3.15851562 13.30273438 3.17578125 C8.48108178 3.22022044 4.57702562 2.52768004 0 1 C0 0.67 0 0.34 0 0 Z " fill="#C6BB97" transform="translate(26,57)" />
<path d="M0 0 C-0.33 0.66 -0.66 1.32 -1 2 C-4.01490557 3.00496852 -6.04181692 3.10335303 -9.1875 3.0625 C-10.08855469 3.05347656 -10.98960938 3.04445313 -11.91796875 3.03515625 C-12.60503906 3.02355469 -13.29210938 3.01195312 -14 3 C-14 3.66 -14 4.32 -14 5 C-15.62171239 5.38897161 -17.24754925 5.76078298 -18.875 6.125 C-19.77992187 6.33382812 -20.68484375 6.54265625 -21.6171875 6.7578125 C-22.40351563 6.83773437 -23.18984375 6.91765625 -24 7 C-24.66 6.34 -25.32 5.68 -26 5 C-21.87762612 3.15808827 -17.72900239 2.24712071 -13.3125 1.4375 C-2.13458897 -0.64037669 -2.13458897 -0.64037669 0 0 Z " fill="#DFD6B3" transform="translate(51,46)" />
<path d="M0 0 C0.33 0.99 0.66 1.98 1 3 C-1.75062961 6.35232984 -3.26876701 7.86011195 -7.59375 8.6875 C-12.2595753 9.13987569 -16.83366779 8.8930952 -21.5 8.5625 C-22.32242188 8.51029297 -23.14484375 8.45808594 -23.9921875 8.40429688 C-25.99522899 8.27619538 -27.99768871 8.13904939 -30 8 C-30 7.67 -30 7.34 -30 7 C-29.6851062 6.99532715 -29.6851062 6.99532715 -28.09155273 6.97167969 C-25.20610782 6.91761238 -22.32222136 6.83403875 -19.4375 6.75 C-18.94217773 6.74291016 -18.94217773 6.74291016 -16.43554688 6.70703125 C-10.13941815 6.49785754 -6.12835938 5.74250643 -1 2 C-0.67 1.34 -0.34 0.68 0 0 Z " fill="#A8828B" transform="translate(70,75)" />
<path d="M0 0 C5.4389165 -0.21755666 9.87080814 -0.10428384 15 2 C11.6378363 5.65882521 8.63949148 8.14420341 4 10 C3.34 9.67 2.68 9.34 2 9 C4.31 7.02 6.62 5.04 9 3 C7.50256881 1.50256881 6.01175761 1.66797307 3.9375 1.4375 C2.638125 1.293125 1.33875 1.14875 0 1 C0 0.67 0 0.34 0 0 Z " fill="#932C4C" transform="translate(53,68)" />
<path d="M0 0 C11.52164009 -0.3690205 11.52164009 -0.3690205 17 2 C15.71700242 4.86207152 14.469364 7.0245088 12 9 C11.01 9 10.02 9 9 9 C10.20381448 6.50638429 11.45428722 4.31856917 13 2 C8.71 1.67 4.42 1.34 0 1 C0 0.67 0 0.34 0 0 Z " fill="#AD3758" transform="translate(42,68)" />
<path d="M0 0 C-0.33 1.32 -0.66 2.64 -1 4 C-2.98 4 -4.96 4 -7 4 C-7 3.67 -7 3.34 -7 3 C-12.61 2.67 -18.22 2.34 -24 2 C-24 1.67 -24 1.34 -24 1 C-20.56352037 0.63542347 -17.12573135 0.28513592 -13.6875 -0.0625 C-12.71103516 -0.16626953 -11.73457031 -0.27003906 -10.72851562 -0.37695312 C-10.25961914 -0.42368164 -10.25961914 -0.42368164 -7.88671875 -0.66015625 C-7.02264404 -0.74918213 -6.15856934 -0.83820801 -5.26831055 -0.92993164 C-3 -1 -3 -1 0 0 Z " fill="#D8CAA8" transform="translate(56,55)" />
<path d="M0 0 C5 3 5 3 7 5 C5.99595321 8.01214037 4.72229255 10.34479898 3 13 C2.67 13 2.34 13 2 13 C1.34 8.71 0.68 4.42 0 0 Z " fill="#EEE7CC" transform="translate(54,27)" />
<path d="M0 0 C0.99 0.33 1.98 0.66 3 1 C2.3844197 3.14855454 1.75726569 5.29379625 1.125 7.4375 C0.95097656 8.03498047 0.95097656 8.03498047 0.0703125 11.05859375 C-1 14 -1 14 -3 15 C-3 11.37 -3 7.74 -3 4 C-2.34 4 -1.68 4 -1 4 C-0.67 2.68 -0.34 1.36 0 0 Z " fill="#966870" transform="translate(74,59)" />
<path d="M0 0 C4.69408875 0.46020478 8.35515259 0.87584508 12 4 C12.69356423 6.32548007 13.36149212 8.65880445 14 11 C16.0625 12.3125 16.0625 12.3125 18 13 C18.33 13.66 18.66 14.32 19 15 C17.203125 14.8046875 17.203125 14.8046875 15 14 C13.359375 11.8203125 13.359375 11.8203125 11.75 9.125 C8.36745761 3.98881849 5.91328753 2.45238641 0 1 C0 0.67 0 0.34 0 0 Z " fill="#61563C" transform="translate(43,16)" />
<path d="M0 0 C0.66 0.33 1.32 0.66 2 1 C-2.38512875 4.31558515 -5.37458159 5.54996653 -11 6 C-11 5.67 -11 5.34 -11 5 C-11.99 4.835 -11.99 4.835 -17 4 C-17 3.67 -17 3.34 -17 3 C-16.51208984 2.93361328 -16.51208984 2.93361328 -14.04296875 2.59765625 C-13.40681641 2.50935547 -13.40681641 2.50935547 -10.1875 2.0625 C-9.55521484 1.97548828 -9.55521484 1.97548828 -6.35546875 1.53515625 C-3 1 -3 1 0 0 Z " fill="#C4C1B0" transform="translate(74,57)" />
<path d="M0 0 C3.37462715 0.54723683 5.08235 1.0549 8 3 C8.1875 6.125 8.1875 6.125 8 9 C5.5 7.625 5.5 7.625 3 6 C3 5.34 3 4.68 3 4 C2.01 3.67 1.02 3.34 0 3 C0 2.01 0 1.02 0 0 Z " fill="#A49A8F" transform="translate(69,51)" />
<path d="M0 0 C0.33 0.99 0.66 1.98 1 3 C0.030625 3.680625 -0.93875 4.36125 -1.9375 5.0625 C-4.7813447 7.39110695 -4.98914562 7.95270592 -5.875 11.8125 C-5.91625 12.864375 -5.9575 13.91625 -6 15 C-6.66 15 -7.32 15 -8 15 C-8 14.34 -8 13.68 -8 13 C-8.66 12.67 -9.32 12.34 -10 12 C-9.34 12 -8.68 12 -8 12 C-7.9175 11.278125 -7.835 10.55625 -7.75 9.8125 C-6.51117218 5.16689566 -3.93611193 2.62407462 0 0 Z " fill="#645941" transform="translate(41,28)" />
<path d="M0 0 C0.33 0.99 0.66 1.98 1 3 C-2.82517513 5.39073445 -6.59665524 5.55966552 -11 6 C-10.67 5.01 -10.34 4.02 -10 3 C-7.71484375 2.05078125 -7.71484375 2.05078125 -4.9375 1.3125 C-4.01839844 1.06113281 -3.09929687 0.80976562 -2.15234375 0.55078125 C-1.44207031 0.36902344 -0.73179688 0.18726563 0 0 Z " fill="#A7938F" transform="translate(72,60)" />
<path d="M0 0 C4.95 0 9.9 0 15 0 C14.01 0.33 13.02 0.66 12 1 C12 1.66 12 2.32 12 3 C10.37419034 2.88601335 8.74932843 2.75844341 7.125 2.625 C6.22007813 2.55539063 5.31515625 2.48578125 4.3828125 2.4140625 C2 2 2 2 0 0 Z " fill="#C5C1A6" transform="translate(26,57)" />
<path d="M0 0 C-0.3125 1.875 -0.3125 1.875 -1 4 C-4 6 -4 6 -6.1875 5.625 C-6.785625 5.41875 -7.38375 5.2125 -8 5 C-7.67 4.01 -7.34 3.02 -7 2 C-4.56723614 0.81480735 -2.71982714 0 0 0 Z " fill="#69233B" transform="translate(70,74)" />
<path d="M0 0 C1.32 0 2.64 0 4 0 C4 0.66 4 1.32 4 2 C6.64 2.33 9.28 2.66 12 3 C11.67 3.66 11.34 4.32 11 5 C9.53890937 4.74445946 8.08111904 4.46999628 6.625 4.1875 C5.81289063 4.03667969 5.00078125 3.88585937 4.1640625 3.73046875 C2 3 2 3 0 0 Z " fill="#823045" transform="translate(28,77)" />
<path d="M0 0 C1.65 0 3.3 0 5 0 C5 0.66 5 1.32 5 2 C5.66 2.33 6.32 2.66 7 3 C5.515 3.165 5.515 3.165 -2 4 C-1.34 2.68 -0.68 1.36 0 0 Z " fill="#AFA890" transform="translate(67,55)" />
<path d="M0 0 C0.33 0.99 0.66 1.98 1 3 C-1.61514317 5.12038635 -4.19637616 7.13091744 -7 9 C-7.99 8.67 -8.98 8.34 -10 8 C-9.44570313 7.59007812 -8.89140625 7.18015625 -8.3203125 6.7578125 C-7.59585938 6.21898437 -6.87140625 5.68015625 -6.125 5.125 C-5.76535156 4.85816406 -5.76535156 4.85816406 -3.9453125 3.5078125 C-2 2 -2 2 0 0 Z " fill="#F1E8C9" transform="translate(64,49)" />
<path d="M0 0 C0 2.31 0 4.62 0 7 C-1.32 6.67 -2.64 6.34 -4 6 C-4 5.01 -4 4.02 -4 3 C-4.33 2.34 -4.66 1.68 -5 1 C-3 0 -3 0 0 0 Z " fill="#6D2135" transform="translate(72,64)" />
<path d="M0 0 C2.64 0.99 5.28 1.98 8 3 C8 3.66 8 4.32 8 5 C8.99 5.33 9.98 5.66 11 6 C3.25531915 5.25531915 3.25531915 5.25531915 0 2 C0 1.34 0 0.68 0 0 Z " fill="#AF9295" transform="translate(21,59)" />
<path d="M0 0 C2.125 0.375 2.125 0.375 4 1 C3.01 1.33 2.02 1.66 1 2 C1 3.65 1 5.3 1 7 C0.01 7 -0.98 7 -2 7 C-2.125 4.625 -2.125 4.625 -2 2 C-1.34 1.34 -0.68 0.68 0 0 Z " fill="#F5EEEF" transform="translate(23,52)" />
<path d="M0 0 C0 0.99 0 1.98 0 3 C-3.54950034 4.16306443 -6.55823948 3.92365049 -10.25 3.5625 C-11.32765625 3.46066406 -12.4053125 3.35882813 -13.515625 3.25390625 C-14.33546875 3.17011719 -15.1553125 3.08632813 -16 3 C-16 2.67 -16 2.34 -16 2 C-15.54818359 1.96970703 -15.54818359 1.96970703 -13.26171875 1.81640625 C-12.67197266 1.77451172 -12.67197266 1.77451172 -9.6875 1.5625 C-9.10162109 1.52189453 -9.10162109 1.52189453 -6.13671875 1.31640625 C-3 1 -3 1 0 0 Z " fill="#EBE5CC" transform="translate(53,48)" />
<path d="M0 0 C-0.226875 0.1959375 -0.226875 0.1959375 -1.375 1.1875 C-3.27642919 3.30832487 -4.06204028 5.33042235 -5 8 C-5.66 7.67 -6.32 7.34 -7 7 C-6.67 4.69 -6.34 2.38 -6 0 C-2.25 -1.125 -2.25 -1.125 0 0 Z " fill="#E1D7BF" transform="translate(41,36)" />
<path d="M0 0 C0.45503906 0.09732422 0.45503906 0.09732422 2.7578125 0.58984375 C3.45648438 0.74582031 4.15515625 0.90179688 4.875 1.0625 C4.875 1.3925 4.875 1.7225 4.875 2.0625 C2.73 2.2275 2.73 2.2275 -8.125 3.0625 C-7.795 2.0725 -7.465 1.0825 -7.125 0.0625 C-4.4030754 -1.2984623 -2.9418043 -0.64116248 0 0 Z " fill="#EFE8D9" transform="translate(34.125,52.9375)" />
<path d="M0 0 C0.33 0.99 0.66 1.98 1 3 C-1.31 4.65 -3.62 6.3 -6 8 C-6.66 7.67 -7.32 7.34 -8 7 C-7.01 6.34 -6.02 5.68 -5 5 C-5.33 4.34 -5.66 3.68 -6 3 C-5.34 2.34 -4.68 1.68 -4 1 C-1.875 1.375 -1.875 1.375 0 2 C0 1.34 0 0.68 0 0 Z " fill="#594D3E" transform="translate(29,45)" />
<path d="M0 0 C0.33 0 0.66 0 1 0 C1.49230769 7.38461538 1.49230769 7.38461538 -1 10.5 C-1.66 10.995 -2.32 11.49 -3 12 C-3.66 11.67 -4.32 11.34 -5 11 C-4.360625 10.29875 -3.72125 9.5975 -3.0625 8.875 C-0.83613898 5.77158767 -0.34919057 3.75379861 0 0 Z " fill="#CDBD97" transform="translate(52,32)" />
<path d="M0 0 C0.53625 0.28875 1.0725 0.5775 1.625 0.875 C4.35280484 2.16711808 7.12612718 3.08558592 10 4 C9.34 4.66 8.68 5.32 8 6 C5.5625 5.9375 5.5625 5.9375 3 5 C1.1875 2.4375 1.1875 2.4375 0 0 Z " fill="#B8959B" transform="translate(26,77)" />
<path d="M0 0 C0.33 0.66 0.66 1.32 1 2 C4.3 2 7.6 2 11 2 C11 2.33 11 2.66 11 3 C7.04 3.66 3.08 4.32 -1 5 C-1.33 3.68 -1.66 2.36 -2 1 C-1.34 0.67 -0.68 0.34 0 0 Z " fill="#D6D1C3" transform="translate(26,53)" />
<path d="M0 0 C0 0.66 0 1.32 0 2 C0.66 2 1.32 2 2 2 C2 2.66 2 3.32 2 4 C-0.97 4 -3.94 4 -7 4 C-2.25 0 -2.25 0 0 0 Z " fill="#DDD0B0" transform="translate(65,53)" />
<path d="M0 0 C-0.33 0.66 -0.66 1.32 -1 2 C-4.63 2 -8.26 2 -12 2 C-12 1.67 -12 1.34 -12 1 C-10.56496445 0.63597631 -9.12683494 0.28413409 -7.6875 -0.0625 C-6.88699219 -0.25972656 -6.08648437 -0.45695312 -5.26171875 -0.66015625 C-3 -1 -3 -1 0 0 Z " fill="#E5D9C3" transform="translate(54,52)" />
<path d="M0 0 C4 0 4 0 7 1 C6.34 2.32 5.68 3.64 5 5 C3.68 4.67 2.36 4.34 1 4 C0.67 2.68 0.34 1.36 0 0 Z " fill="#766B55" transform="translate(38,25)" />
<path d="M0 0 C0.639375 0.66 1.27875 1.32 1.9375 2 C4 4 4 4 5 4 C5 5.65 5 7.3 5 9 C4.01 9 3.02 9 2 9 C1.22678118 6.01758453 0.58803797 3.02419525 0 0 Z " fill="#685D48" transform="translate(41,16)" />
<path d="M0 0 C0.66 0.99 1.32 1.98 2 3 C0.75823305 3.70226141 -0.49385599 4.38629109 -1.75 5.0625 C-2.09804687 5.25392578 -2.09804687 5.25392578 -3.859375 6.22265625 C-6.36140628 7.1312406 -7.5332355 6.88336837 -10 6 C-9.36191406 5.73445313 -8.72382812 5.46890625 -8.06640625 5.1953125 C-7.24011719 4.84210938 -6.41382813 4.48890625 -5.5625 4.125 C-4.73878906 3.77695313 -3.91507812 3.42890625 -3.06640625 3.0703125 C-1 2 -1 2 0 0 Z " fill="#4F3A34" transform="translate(70,78)" />
<path d="M0 0 C2.97 0.99 5.94 1.98 9 3 C9 3.33 9 3.66 9 4 C6.69 4 4.38 4 2 4 C1.67 4.66 1.34 5.32 1 6 C0.67 4.02 0.34 2.04 0 0 Z " fill="#853043" transform="translate(22,62)" />
<path d="M0 0 C-2.57089417 2.11180592 -4.63060567 3.66306057 -8 4 C-8.66 3.34 -9.32 2.68 -10 2 C-6.49223216 0.39644899 -3.85645121 -0.22036864 0 0 Z " fill="#D5CDB4" transform="translate(35,49)" />
</svg>