<?xml version='1.0' encoding='utf-8'?>
<svg xmlns="http://www.w3.org/2000/svg" version="1.1" width="95" height="104">
<path d="M0 0 C2.75 2.375 2.75 2.375 5 5 C5.28875 5.2165625 5.28875 5.2165625 6.75 6.3125 C8.88963619 9.20100885 9.10992588 12.50985323 9 16 C7.17890735 20.24921618 3.94496762 23.46603885 1 27 C0.54109375 27.77601562 0.0821875 28.55203125 -0.390625 29.3515625 C-4.87750225 36.7353071 -12.05424864 47.02712432 -20 51 C-20.70511719 50.89300781 -21.41023438 50.78601563 -22.13671875 50.67578125 C-25.10766127 50.2526608 -27.09965896 50.16636904 -30 51 C-32.36073994 53.86786185 -33.9051428 56.74595705 -35.52734375 60.08203125 C-36.83256283 62.66823458 -37.73846154 64.24627435 -40 66 C-43.60040463 66.90010116 -45.45026831 67.1832439 -49 66 C-50.4783226 63.04335481 -50.06032783 60.25770263 -50 57 C-49.34 57 -48.68 57 -48 57 C-48.020625 57.969375 -48.04125 58.93875 -48.0625 59.9375 C-48 63 -48 63 -47 64 C-42.71743235 64.42825677 -42.71743235 64.42825677 -40 63 C-36.55685543 58.42495554 -33.81182862 53.43548587 -32 48 C-32.495 47.835 -32.495 47.835 -35 47 C-35 46.34 -35 45.68 -35 45 C-35.66 45 -36.32 45 -37 45 C-37.268125 45.61875 -37.53625 46.2375 -37.8125 46.875 C-39 49 -39 49 -42 51 C-41.649375 50.4225 -41.29875 49.845 -40.9375 49.25 C-39.79491145 46.50778748 -39.95151686 45.74218667 -41 43 C-41.53625 42.071875 -42.0725 41.14375 -42.625 40.1875 C-44.27471548 36.36315956 -44.23845624 33.87973737 -43 30 C-41.13593338 26.45907942 -38.93643665 23.18125432 -36.6875 19.875 C-36.10548828 18.99457031 -35.52347656 18.11414063 -34.92382812 17.20703125 C-33.31037326 14.78410809 -31.66392629 12.38843537 -30 10 C-29.65517578 9.49662109 -29.65517578 9.49662109 -27.91015625 6.94921875 C-25.52400979 4.51427584 -24.10532551 4.27782587 -20.75 3.9375 C-16.91927183 3.41790655 -14.1042211 2.73855665 -10.75 0.8125 C-6.84628422 -1.31099365 -4.32861322 -1.38842311 0 0 Z " fill="#6A2301" transform="translate(68,19)" />
<path d="M0 0 C2.00720923 0.28674418 4.0085944 0.61866701 6 1 C6.165 1.66 6.165 1.66 7 5 C1.64373122 7.49804292 -2.60119814 9.13957803 -8.5625 8.9375 C-12.48223615 9.16937172 -13.6546486 9.63900161 -16.4140625 12.5234375 C-18.37461783 15.3598423 -20.19861591 18.20017659 -21.93261719 21.17626953 C-23.63962293 24.09285985 -25.46934695 26.9172574 -27.3125 29.75 C-27.92738281 30.73484375 -28.54226562 31.7196875 -29.17578125 32.734375 C-31 35 -31 35 -33.23046875 35.828125 C-33.81441406 35.88484375 -34.39835937 35.9415625 -35 36 C-34.83712538 28.67064191 -31.00794653 23.9172439 -27 18 C-25.70260615 15.96196792 -24.41069887 13.92043002 -23.125 11.875 C-20.12307692 7.12307692 -20.12307692 7.12307692 -19 6 C-17.66930004 5.86633594 -16.33493397 5.76861578 -15 5.6875 C-9.97006124 5.19579124 -3.70392501 3.70392501 0 0 Z " fill="#C99058" transform="translate(61,20)" />
<path d="M0 0 C2.75 2.375 2.75 2.375 5 5 C5.28875 5.2165625 5.28875 5.2165625 6.75 6.3125 C8.88963619 9.20100885 9.10992588 12.50985323 9 16 C7.17890735 20.24921618 3.94496762 23.46603885 1 27 C0.54109375 27.77601562 0.0821875 28.55203125 -0.390625 29.3515625 C-4.87750225 36.7353071 -12.05424864 47.02712432 -20 51 C-21.875 51.1328125 -21.875 51.1328125 -24 51.125 C-24.350625 51.12628906 -24.350625 51.12628906 -26.125 51.1328125 C-28 51 -28 51 -30 50 C-30 49.34 -30 48.68 -30 48 C-27.69 48.33 -25.38 48.66 -23 49 C-23 48.01 -23 47.02 -23 46 C-22.4225 45.87625 -21.845 45.7525 -21.25 45.625 C-18.97664233 44.99351176 -17.0746471 44.11141809 -15 43 C-15 41.35 -15 39.7 -15 38 C-14.505 37.835 -14.505 37.835 -12 37 C-11.67 36.34 -11.34 35.68 -11 35 C-10.01 35 -9.02 35 -8 35 C-8 33.35 -8 31.7 -8 30 C-7.34 30 -6.68 30 -6 30 C-6 29.34 -6 28.68 -6 28 C-3.54302645 25.90567937 -0.96609775 24.00593649 1.6171875 22.0703125 C3.92280286 20.06707293 5.01977178 18.85519963 6 16 C5.80782148 10.71509072 4.74667267 7.74667267 1 4 C-1.2785697 2.38295053 -2.40004836 1.96571705 -5.1875 2.125 C-7.70773015 2.9090716 -9.87471096 3.86812314 -12.25 5 C-15.53339032 6.53480683 -18.19872928 7.26186025 -21.8125 7.5 C-25.15377977 7.72781453 -25.81725253 7.85291058 -28.5625 10.0625 C-29.036875 10.701875 -29.51125 11.34125 -30 12 C-28.92598892 9.08482708 -28.22189824 7.22189824 -26 5 C-23.6796875 4.5078125 -23.6796875 4.5078125 -20.875 4.125 C-17.05248843 3.51120245 -14.11165882 2.73062297 -10.75 0.8125 C-6.84628422 -1.31099365 -4.32861322 -1.38842311 0 0 Z " fill="#461A04" transform="translate(68,19)" />
<path d="M0 0 C2 0 2 0 3.6875 1.1875 C5 3 5 3 4.77734375 5.25390625 C3.30708151 10.44784773 0.46511717 14.89243508 -3 19 C-5.73894422 20.41063861 -6.84080725 20.30972478 -10 20 C-10.66 19.34 -11.32 18.68 -12 18 C-12 15.1875 -12 15.1875 -11 12 C-9.58147176 10.74266815 -8.15194479 9.49037285 -6.625 8.3671875 C-4.7804494 6.81528195 -3.595656 5.18195443 -2.25 3.1875 C-1.5075 2.135625 -0.765 1.08375 0 0 Z " fill="#BE8D3F" transform="translate(31,64)" />
<path d="M0 0 C0.33 0.99 0.66 1.98 1 3 C-0.1875 4.76171875 -0.1875 4.76171875 -2 6.6875 C-2.64839844 7.38875 -3.29679687 8.09 -3.96484375 8.8125 C-4.30064453 9.1734375 -4.30064453 9.1734375 -6 11 C-7.19075613 12.39305663 -8.3783752 13.78880225 -9.5625 15.1875 C-17.11417505 23.69572055 -17.11417505 23.69572055 -21.08203125 24.3359375 C-23.97540957 24.38807044 -26.38458668 24.30770666 -29 23 C-29 22.34 -29 21.68 -29 21 C-26.69 21.33 -24.38 21.66 -22 22 C-22 21.01 -22 20.02 -22 19 C-21.4225 18.87625 -20.845 18.7525 -20.25 18.625 C-17.97664233 17.99351176 -16.0746471 17.11141809 -14 16 C-14 14.35 -14 12.7 -14 11 C-13.01 10.67 -12.02 10.34 -11 10 C-10.67 9.34 -10.34 8.68 -10 8 C-9.2575 7.7525 -8.515 7.505 -7.75 7.25 C-3.99590624 5.54359374 -2.48358394 3.26413889 0 0 Z " fill="#431205" transform="translate(67,46)" />
<path d="M0 0 C0.39445312 0.02900391 0.39445312 0.02900391 2.390625 0.17578125 C3.18984375 0.22089844 3.9890625 0.26601563 4.8125 0.3125 C5.41578125 0.37050781 6.0190625 0.42851562 6.640625 0.48828125 C6.640625 0.81828125 6.640625 1.14828125 6.640625 1.48828125 C4.000625 1.81828125 1.360625 2.14828125 -1.359375 2.48828125 C-1.3903125 2.84921875 -1.3903125 2.84921875 -1.546875 4.67578125 C-2.60164517 8.32690875 -4.70131611 9.83022236 -7.359375 12.48828125 C-8.171875 15.30078125 -8.171875 15.30078125 -8.359375 17.48828125 C-9.679375 17.48828125 -10.999375 17.48828125 -12.359375 17.48828125 C-12.6275 18.45765625 -12.895625 19.42703125 -13.171875 20.42578125 C-13.56375 21.43640625 -13.955625 22.44703125 -14.359375 23.48828125 C-15.349375 23.81828125 -16.339375 24.14828125 -17.359375 24.48828125 C-17.50375 25.27203125 -17.648125 26.05578125 -17.796875 26.86328125 C-18.359375 29.48828125 -18.359375 29.48828125 -19.359375 31.48828125 C-20.679375 30.82828125 -21.999375 30.16828125 -23.359375 29.48828125 C-23.029375 28.49828125 -22.699375 27.50828125 -22.359375 26.48828125 C-21.369375 26.15828125 -20.379375 25.82828125 -19.359375 25.48828125 C-17.88891602 23.61816406 -17.88891602 23.61816406 -16.36328125 21.19140625 C-15.80447266 20.31484375 -15.24566406 19.43828125 -14.66992188 18.53515625 C-14.09306641 17.6121875 -13.51621094 16.68921875 -12.921875 15.73828125 C-3.43350117 0.71057557 -3.43350117 0.71057557 0 0 Z " fill="#9B541D" transform="translate(49.359375,28.51171875)" />
<path d="M0 0 C2.00720923 0.28674418 4.0085944 0.61866701 6 1 C6.33 2.32 6.66 3.64 7 5 C-0.8231062 7.58716898 -7.7763806 8.38750039 -16 8 C-16 7.34 -16 6.68 -16 6 C-14.824375 5.731875 -13.64875 5.46375 -12.4375 5.1875 C-2.78228673 2.78228673 -2.78228673 2.78228673 0 0 Z " fill="#F5E3C8" transform="translate(61,20)" />
<path d="M0 0 C1.32 0.33 2.64 0.66 4 1 C3.42365861 5.75481646 1.44931479 8.97048212 -1 13 C-3.31 13 -5.62 13 -8 13 C-7.48118887 8.8275894 -6.28848726 6.74583179 -3.4375 3.6875 C-2.79683594 2.99011719 -2.15617187 2.29273437 -1.49609375 1.57421875 C-1.00238281 1.05472656 -0.50867188 0.53523438 0 0 Z " fill="#B28332" transform="translate(32,66)" />
<path d="M0 0 C0.99 0 1.98 0 3 0 C3 0.66 3 1.32 3 2 C7.95 1.67 12.9 1.34 18 1 C17.34 1.66 16.68 2.32 16 3 C14.31164144 2.96825309 12.62387512 2.90025792 10.9375 2.8125 C6.70230848 3.09039971 5.37366345 3.6037587 2.4140625 6.7421875 C0.05261903 10.03043662 -1.96706388 13.50173963 -4 17 C-5.26337748 19.08143313 -6.56483532 21.02552501 -8 23 C-8.66 23 -9.32 23 -10 23 C-10 22.34 -10 21.68 -10 21 C-9.34 21 -8.68 21 -8 21 C-7.88785156 20.40832031 -7.77570312 19.81664063 -7.66015625 19.20703125 C-6.94418176 16.81338874 -6.02911798 15.58746563 -4.4375 13.6875 C-1.71967281 10.07667244 -1.73929592 7.51887071 -2 3 C-1.34 2.01 -0.68 1.02 0 0 Z " fill="#D19E6C" transform="translate(42,26)" />
<path d="M0 0 C0.66 0.33 1.32 0.66 2 1 C1.01 1.33 0.02 1.66 -1 2 C-1 2.66 -1 3.32 -1 4 C-4.90028225 6.60018816 -8.47434569 6.15085514 -13 6 C-13.268125 6.804375 -13.53625 7.60875 -13.8125 8.4375 C-14.204375 9.283125 -14.59625 10.12875 -15 11 C-15.99 11.33 -16.98 11.66 -18 12 C-18.70151152 13.3153341 -19.36525925 14.65117592 -20 16 C-21.625 17.75 -21.625 17.75 -23 19 C-23.33 18.01 -23.66 17.02 -24 16 C-22.1875 13.3125 -22.1875 13.3125 -20 11 C-19.34 11 -18.68 11 -18 11 C-17.67 9.35 -17.34 7.7 -17 6 C-16.67966797 5.90912109 -16.67966797 5.90912109 -15.05859375 5.44921875 C-10.92686722 4.24849345 -6.91584773 3.04648828 -3 1.25 C-2.01 0.8375 -1.02 0.425 0 0 Z " fill="#813806" transform="translate(65,25)" />
<path d="M0 0 C0.33 0.66 0.66 1.32 1 2 C0.10375977 3.76831055 0.10375977 3.76831055 -1.30859375 5.88671875 C-1.80810547 6.66080078 -2.30761719 7.43488281 -2.82226562 8.23242188 C-3.88894834 9.85372801 -4.9617618 11.47101916 -6.04101562 13.08398438 C-9.10522624 17.85973605 -10.90697285 21.12697911 -10 27 C-8.70055256 28.69321939 -7.37073786 30.36395804 -6 32 C-6 34.125 -6 34.125 -7 36 C-9.0625 37.75 -9.0625 37.75 -11 39 C-10.649375 38.4225 -10.29875 37.845 -9.9375 37.25 C-8.79491145 34.50778748 -8.95151686 33.74218667 -10 31 C-10.53625 30.071875 -11.0725 29.14375 -11.625 28.1875 C-13.26770682 24.37940692 -13.23260687 21.86577718 -12 18 C-10.21485026 14.68446525 -8.10557752 11.63745338 -5.9375 8.5625 C-5.36966797 7.73556641 -4.80183594 6.90863281 -4.21679688 6.05664062 C-2.82244694 4.02956047 -1.41685656 2.01138194 0 0 Z " fill="#4B250A" transform="translate(37,31)" />
<path d="M0 0 C0.66 0.33 1.32 0.66 2 1 C2 1.66 2 2.32 2 3 C1.37351562 2.90460937 0.74703125 2.80921875 0.1015625 2.7109375 C-0.71570313 2.60007812 -1.53296875 2.48921875 -2.375 2.375 C-2.78105469 2.31699219 -2.78105469 2.31699219 -4.8359375 2.0234375 C-5.55007812 2.01570313 -6.26421875 2.00796875 -7 2 C-7.66 2.66 -8.32 3.32 -9 4 C-13.37060412 5.91693163 -16.99114962 7.10713353 -21.75 7.4375 C-25.09091111 7.70292644 -25.82583958 7.8598221 -28.5625 10.0625 C-29.036875 10.701875 -29.51125 11.34125 -30 12 C-28.92598892 9.08482708 -28.22189824 7.22189824 -26 5 C-23.6796875 4.5078125 -23.6796875 4.5078125 -20.875 4.125 C-17.05248843 3.51120245 -14.11165882 2.73062297 -10.75 0.8125 C-6.90908722 -1.32134043 -4.29432092 -1.11652344 0 0 Z " fill="#512F17" transform="translate(68,19)" />
<path d="M0 0 C6.94230769 6.75961538 6.94230769 6.75961538 7.125 10.6875 C7.08375 11.450625 7.0425 12.21375 7 13 C6.67 13.165 6.67 13.165 5 14 C4.67 13.34 4.34 12.68 4 12 C3.67 12.495 3.67 12.495 2 15 C2 14.01 2 13.02 2 12 C1.34 11.67 0.68 11.34 0 11 C0 9.02 0 7.04 0 5 C-0.66 4.67 -1.32 4.34 -2 4 C-1.34 2.68 -0.68 1.36 0 0 Z " fill="#752F09" transform="translate(68,22)" />
<path d="M0 0 C0.33 0.66 0.66 1.32 1 2 C0.109375 4.05859375 0.109375 4.05859375 -1.25 6.4375 C-1.68828125 7.21996094 -2.1265625 8.00242187 -2.578125 8.80859375 C-4.77353623 12.19218084 -6.02641251 13.75660313 -10 14.75 C-13 15 -13 15 -16 14 C-17.4783226 11.04335481 -17.06032783 8.25770263 -17 5 C-16.34 5 -15.68 5 -15 5 C-15.020625 5.969375 -15.04125 6.93875 -15.0625 7.9375 C-15 11 -15 11 -14 12 C-9.70339098 12.34372872 -9.70339098 12.34372872 -7 11 C-4.24471907 7.56256054 -2.09624852 3.86754667 0 0 Z " fill="#462608" transform="translate(35,71)" />
<path d="M0 0 C1.33333333 0.66666667 2.66666667 1.33333333 4 2 C5.32 2 6.64 2 8 2 C7.67 2.165 7.67 2.165 6 3 C6 3.99 6 4.98 6 6 C3.69 5.67 1.38 5.34 -1 5 C-1.33 6.65 -1.66 8.3 -2 10 C-4 8 -4 8 -4.125 5.375 C-4.08375 4.59125 -4.0425 3.8075 -4 3 C-3.34 3 -2.68 3 -2 3 C-2 2.34 -2 1.68 -2 1 C-1.34 0.67 -0.68 0.34 0 0 Z " fill="#5C1D07" transform="translate(39,62)" />
<path d="M0 0 C2.4443896 2.4443896 2.91985673 3.55383944 3 7 C0.6875 9.8125 0.6875 9.8125 -2 12 C-2.66 12 -3.32 12 -4 12 C-3.5317879 7.22423661 -2.75668002 3.95523655 0 0 Z " fill="#BB8251" transform="translate(30,44)" />
<path d="M0 0 C1.39814132 0.09579435 2.7956797 0.21125644 4.1875 0.375 C4.1875 0.705 4.1875 1.035 4.1875 1.375 C1.5475 1.705 -1.0925 2.035 -3.8125 2.375 C-3.874375 3.1175 -3.93625 3.86 -4 4.625 C-5.06399912 8.22622777 -6.72620672 9.34256296 -9.8125 11.375 C-10.4725 11.375 -11.1325 11.375 -11.8125 11.375 C-9.78144778 5.09720224 -7.08063438 -0.01113307 0 0 Z " fill="#9D5B25" transform="translate(51.8125,28.625)" />
<path d="M0 0 C0.99 0.33 1.98 0.66 3 1 C2.75894531 1.40992188 2.75894531 1.40992188 1.5390625 3.484375 C0.90742187 4.56203125 0.27578125 5.6396875 -0.375 6.75 C-1.00148438 7.81734375 -1.62796875 8.8846875 -2.2734375 9.984375 C-3.59772663 12.29738678 -4.84636846 14.59951417 -6 17 C-6.66 16.01 -7.32 15.02 -8 14 C-5.70833333 7.35416667 -5.70833333 7.35416667 -3 6 C-1.95191959 4.02477154 -0.9479589 2.02518491 0 0 Z " fill="#7F3406" transform="translate(37,46)" />
<path d="M0 0 C0.66 0 1.32 0 2 0 C0.43636055 3.65415742 -1.82175042 6.2119688 -4.5 9.125 C-5.2940625 9.99382812 -6.088125 10.86265625 -6.90625 11.7578125 C-8.24743753 13.19408422 -9.61045683 14.61045683 -11 16 C-10.8125 13.75 -10.8125 13.75 -10 11 C-8.3603279 9.63360658 -6.68889872 8.3050581 -5 7 C-4.06966749 5.77545977 -3.1743845 4.52364535 -2.3125 3.25 C-1.549375 2.1775 -0.78625 1.105 0 0 Z " fill="#E2C58D" transform="translate(31,64)" />
<path d="M0 0 C0.66 0.33 1.32 0.66 2 1 C0.87970983 2.48273699 -0.24638618 3.96108886 -1.375 5.4375 C-2.00148438 6.26121094 -2.62796875 7.08492187 -3.2734375 7.93359375 C-5 10 -5 10 -7 11 C-7 9.35 -7 7.7 -7 6 C-6.34 6 -5.68 6 -5 6 C-5 5.34 -5 4.68 -5 4 C-3.37373596 2.61767557 -1.7074998 1.28062485 0 0 Z " fill="#591604" transform="translate(67,43)" />
<path d="M0 0 C0.33 0 0.66 0 1 0 C1.36181089 2.29047223 1.71423224 4.58242945 2.0625 6.875 C2.25972656 8.15117188 2.45695312 9.42734375 2.66015625 10.7421875 C3 14 3 14 2 16 C-0.32590854 12.36576791 -0.16265833 9.22911669 0 5 C-0.66 5 -1.32 5 -2 5 C-1.34 3.35 -0.68 1.7 0 0 Z " fill="#735D41" transform="translate(23,48)" />
<path d="M0 0 C0.99 0.33 1.98 0.66 3 1 C2.67 2.65 2.34 4.3 2 6 C0.68 6 -0.64 6 -2 6 C-2.33 6.66 -2.66 7.32 -3 8 C-2.45276317 4.62537285 -1.9451 2.91765 0 0 Z " fill="#924E16" transform="translate(39,40)" />
<path d="M0 0 C0 3.84947814 -1.31151243 5.46593267 -3.375 8.6875 C-4.00148438 9.68136719 -4.62796875 10.67523438 -5.2734375 11.69921875 C-5.55832031 12.07884766 -5.55832031 12.07884766 -7 14 C-7.66 14 -8.32 14 -9 14 C-9 13.34 -9 12.68 -9 12 C-8.34 12 -7.68 12 -7 12 C-6.94908203 11.71382812 -6.94908203 11.71382812 -6.69140625 10.265625 C-5.87708984 7.59724354 -4.65326878 5.94034312 -2.9375 3.75 C-2.38964844 3.04359375 -1.84179688 2.3371875 -1.27734375 1.609375 C-0.85582031 1.07828125 -0.43429688 0.5471875 0 0 Z " fill="#E6A666" transform="translate(41,35)" />
<path d="M0 0 C0.66 0.165 0.66 0.165 4 1 C3.25 5.75 3.25 5.75 1 8 C1 7.01 1 6.02 1 5 C0.34 5 -0.32 5 -1 5 C-0.67 3.35 -0.34 1.7 0 0 Z " fill="#A3722A" transform="translate(32,66)" />
<path d="M0 0 C3.96 0.33 7.92 0.66 12 1 C10 3 10 3 8.125 3.23046875 C7.42375 3.21628906 6.7225 3.20210938 6 3.1875 C5.29875 3.18105469 4.5975 3.17460938 3.875 3.16796875 C2 3 2 3 0 2 C0 1.34 0 0.68 0 0 Z " fill="#461B0D" transform="translate(38,67)" />
<path d="M0 0 C2.00720923 0.28674418 4.0085944 0.61866701 6 1 C6.33 2.32 6.66 3.64 7 5 C5.35 5.33 3.7 5.66 2 6 C1.87625 5.360625 1.7525 4.72125 1.625 4.0625 C1.521875 3.7221875 1.521875 3.7221875 1 2 C0.34 1.67 -0.32 1.34 -1 1 C-0.67 0.67 -0.34 0.34 0 0 Z " fill="#DEB494" transform="translate(61,20)" />
<path d="M0 0 C0.66 0.33 1.32 0.66 2 1 C1.01 1.33 0.02 1.66 -1 2 C-1 2.66 -1 3.32 -1 4 C-3.3125 5.125 -3.3125 5.125 -6 6 C-6.99 5.34 -7.98 4.68 -9 4 C-7.54618103 3.30300448 -6.08677047 2.61766134 -4.625 1.9375 C-4.21894531 1.74607422 -4.21894531 1.74607422 -2.1640625 0.77734375 C-1.44992188 0.52082031 -0.73578125 0.26429687 0 0 Z " fill="#854420" transform="translate(65,25)" />
<path d="M0 0 C3.68802044 1.22934015 4.72356973 2.93859378 7 6 C4.625 6.125 4.625 6.125 2 6 C1.34 5.34 0.68 4.68 0 4 C0 2.68 0 1.36 0 0 Z " fill="#B18B4F" transform="translate(19,78)" />
<path d="M0 0 C0.33 0.99 0.66 1.98 1 3 C1.66 3 2.32 3 3 3 C2.67 3.99 2.34 4.98 2 6 C1.01 6 0.02 6 -1 6 C-1.33 5.01 -1.66 4.02 -2 3 C-1.34 2.01 -0.68 1.02 0 0 Z " fill="#B38634" transform="translate(30,68)" />
<path d="M0 0 C0.66 1.32 1.32 2.64 2 4 C1.34 4.33 1.34 4.33 -2 6 C-2.33 5.01 -2.66 4.02 -3 3 C-2.01 2.01 -1.02 1.02 0 0 Z " fill="#CD8E52" transform="translate(31,47)" />
</svg>