<?xml version='1.0' encoding='utf-8'?>
<svg xmlns="http://www.w3.org/2000/svg" version="1.1" width="95" height="95">
<path d="M0 0 C1.32568023 0.27427867 2.64992633 0.5555792 3.97265625 0.84375 C4.65650391 0.98683594 5.34035156 1.12992188 6.04492188 1.27734375 C7.70965139 1.62658771 9.372605 1.98427946 11.03515625 2.34375 C11.03515625 1.35375 11.03515625 0.36375 11.03515625 -0.65625 C12.68515625 -0.65625 14.33515625 -0.65625 16.03515625 -0.65625 C16.20015625 -0.16125 16.20015625 -0.16125 17.03515625 2.34375 C17.999375 2.38113281 18.96359375 2.41851563 19.95703125 2.45703125 C20.58867188 2.48990234 20.58867188 2.48990234 23.78515625 2.65625 C24.41164063 2.68525391 24.41164063 2.68525391 27.58203125 2.83203125 C31.19990916 3.36816474 32.43832861 3.87990506 35.03515625 6.34375 C37.29070248 14.11579944 33.41899953 24.05166197 31.40966797 31.61230469 C30.78566153 33.96684346 30.18454887 36.32639244 29.5859375 38.6875 C29.19014796 40.21128771 28.79305612 41.73473788 28.39453125 43.2578125 C28.21831238 43.95073395 28.04209351 44.6436554 27.86053467 45.35757446 C26.51430302 50.35563468 24.78342839 56.59547786 21.03515625 60.34375 C14.6120616 61.02705794 9.84137003 58.96063508 4.03515625 56.34375 C4.10734375 55.64507812 4.17953125 54.94640625 4.25390625 54.2265625 C4.3003125 53.77152344 4.3003125 53.77152344 4.53515625 51.46875 C4.5815625 51.01628906 4.5815625 51.01628906 4.81640625 48.7265625 C5.03515625 46.34375 5.03515625 46.34375 5.03515625 44.34375 C4.53228691 46.3013485 4.03294635 48.25985377 3.53515625 50.21875 C3.25671875 51.30929688 2.97828125 52.39984375 2.69140625 53.5234375 C2.03515625 56.34375 2.03515625 56.34375 2.03515625 58.34375 C0.38515625 58.01375 -1.26484375 57.68375 -2.96484375 57.34375 C-3.29484375 56.35375 -3.62484375 55.36375 -3.96484375 54.34375 C-5.68310547 53.51586914 -5.68310547 53.51586914 -7.89453125 52.87890625 C-8.29220703 52.75741211 -8.29220703 52.75741211 -10.3046875 52.14257812 C-11.98654134 51.65408899 -13.66883006 51.16709454 -15.3515625 50.68164062 C-16.14949219 50.43736328 -16.94742187 50.19308594 -17.76953125 49.94140625 C-18.50155762 49.73008057 -19.23358398 49.51875488 -19.98779297 49.30102539 C-22.55245526 48.05923225 -23.56865066 46.81670581 -24.96484375 44.34375 C-25.62620779 36.95740204 -22.71937353 29.24622032 -20.58984375 22.28125 C-20.285625 21.25708984 -19.98140625 20.23292969 -19.66796875 19.17773438 C-18.78557817 16.22700519 -17.87736289 13.28527629 -16.96484375 10.34375 C-16.70413086 9.45961426 -16.44341797 8.57547852 -16.17480469 7.66455078 C-16.05121582 7.26163818 -16.05121582 7.26163818 -15.42578125 5.22265625 C-15.2148584 4.51826416 -15.00393555 3.81387207 -14.78662109 3.08813477 C-12.08023084 -2.65671324 -5.13270217 -0.94579565 0 0 Z " fill="#6C767A" transform="translate(41.96484375,17.65625)" />
<path d="M0 0 C1.32568023 0.27427867 2.64992633 0.5555792 3.97265625 0.84375 C4.65650391 0.98683594 5.34035156 1.12992188 6.04492188 1.27734375 C7.70965139 1.62658771 9.372605 1.98427946 11.03515625 2.34375 C11.03515625 1.35375 11.03515625 0.36375 11.03515625 -0.65625 C12.68515625 -0.65625 14.33515625 -0.65625 16.03515625 -0.65625 C16.20015625 -0.16125 16.20015625 -0.16125 17.03515625 2.34375 C16.37515625 2.34375 15.71515625 2.34375 15.03515625 2.34375 C14.93203125 3.4575 14.82890625 4.57125 14.72265625 5.71875 C14.32115522 8.98811556 13.60210845 11.95864162 12.59765625 15.09375 C11.0634414 19.90492862 10.25456974 24.68360308 9.5625 29.6796875 C9.05731702 32.23179708 8.31833296 34.09685967 7.03515625 36.34375 C6.04515625 36.34375 5.05515625 36.34375 4.03515625 36.34375 C3.88929301 31.05099818 4.39411107 26.17081014 5.34765625 20.96875 C5.48083252 20.2250415 5.61400879 19.48133301 5.7512207 18.71508789 C6.74298887 13.39718862 8.10217518 8.40631947 10.03515625 3.34375 C9.37515625 3.34375 8.71515625 3.34375 8.03515625 3.34375 C7.78765625 4.49875 7.54015625 5.65375 7.28515625 6.84375 C3.86621292 22.13402434 -0.00786867 37.47282475 -4.96484375 52.34375 C-11.56856316 51.92446623 -17.24918044 50.84806788 -22.96484375 47.34375 C-25.91472659 42.91892573 -24.85530813 39.43495848 -23.96484375 34.34375 C-22.99114558 30.27396402 -21.81314258 26.28224597 -20.58984375 22.28125 C-20.285625 21.25708984 -19.98140625 20.23292969 -19.66796875 19.17773438 C-18.78557817 16.22700519 -17.87736289 13.28527629 -16.96484375 10.34375 C-16.70413086 9.45961426 -16.44341797 8.57547852 -16.17480469 7.66455078 C-16.05121582 7.26163818 -16.05121582 7.26163818 -15.42578125 5.22265625 C-15.2148584 4.51826416 -15.00393555 3.81387207 -14.78662109 3.08813477 C-12.08023084 -2.65671324 -5.13270217 -0.94579565 0 0 Z " fill="#B2B7B8" transform="translate(41.96484375,17.65625)" />
<path d="M0 0 C1.32568023 0.27427867 2.64992633 0.5555792 3.97265625 0.84375 C4.65650391 0.98683594 5.34035156 1.12992188 6.04492188 1.27734375 C7.70965139 1.62658771 9.372605 1.98427946 11.03515625 2.34375 C11.03515625 1.35375 11.03515625 0.36375 11.03515625 -0.65625 C12.68515625 -0.65625 14.33515625 -0.65625 16.03515625 -0.65625 C16.20015625 -0.16125 16.20015625 -0.16125 17.03515625 2.34375 C16.37515625 2.34375 15.71515625 2.34375 15.03515625 2.34375 C14.93203125 3.4575 14.82890625 4.57125 14.72265625 5.71875 C14.32115522 8.98811556 13.60210845 11.95864162 12.59765625 15.09375 C11.0634414 19.90492862 10.25456974 24.68360308 9.5625 29.6796875 C9.05731702 32.23179708 8.31833296 34.09685967 7.03515625 36.34375 C6.04515625 36.34375 5.05515625 36.34375 4.03515625 36.34375 C3.88929301 31.05099818 4.39411107 26.17081014 5.34765625 20.96875 C5.48083252 20.2250415 5.61400879 19.48133301 5.7512207 18.71508789 C6.74298887 13.39718862 8.10217518 8.40631947 10.03515625 3.34375 C9.37515625 3.34375 8.71515625 3.34375 8.03515625 3.34375 C7.91398437 3.900625 7.7928125 4.4575 7.66796875 5.03125 C6.54185547 10.15939662 5.33030318 15.25567278 4.03515625 20.34375 C3.37515625 20.01375 2.71515625 19.68375 2.03515625 19.34375 C1.41015625 17.28125 1.41015625 17.28125 1.03515625 15.34375 C-1.27484375 15.67375 -3.58484375 16.00375 -5.96484375 16.34375 C-6.29484375 15.02375 -6.62484375 13.70375 -6.96484375 12.34375 C-6.96484375 13.00375 -6.96484375 13.66375 -6.96484375 14.34375 C-8.28484375 14.67375 -9.60484375 15.00375 -10.96484375 15.34375 C-10.96484375 13.34375 -10.96484375 13.34375 -9.71484375 11.78125 C-7.78791892 10.19841889 -6.39688524 9.7630675 -3.96484375 9.34375 C-3.96484375 8.02375 -3.96484375 6.70375 -3.96484375 5.34375 C-5.28484375 5.34375 -6.60484375 5.34375 -7.96484375 5.34375 C-8.29484375 6.66375 -8.62484375 7.98375 -8.96484375 9.34375 C-11.45549263 10.03082555 -13.34370667 10.34375 -15.96484375 10.34375 C-15.68058484 6.64838414 -15.41719235 4.0222729 -13.33984375 0.90625 C-9.24713904 -1.78631889 -4.64493456 -0.86095389 0 0 Z " fill="#BCC1C1" transform="translate(41.96484375,17.65625)" />
<path d="M0 0 C1.24394531 -0.02578125 2.48789063 -0.0515625 3.76953125 -0.078125 C7.45931599 0.27609433 8.5641679 0.74850319 11.1875 3.25 C13.46569873 11.04983032 9.5317949 21.044597 7.50708008 28.62841797 C6.87360502 31.005234 6.26067232 33.38666643 5.65039062 35.76953125 C5.25119372 37.29979107 4.85084294 38.82975044 4.44921875 40.359375 C4.26783859 41.06261902 4.08645844 41.76586304 3.89958191 42.49041748 C2.76556166 46.69980012 1.26375279 50.41909908 -0.8125 54.25 C-1.8025 54.25 -2.7925 54.25 -3.8125 54.25 C-3.4825 52.93 -3.1525 51.61 -2.8125 50.25 C-2.1525 50.25 -1.4925 50.25 -0.8125 50.25 C0.5075 44.31 1.8275 38.37 3.1875 32.25 C2.5275 32.25 1.8675 32.25 1.1875 32.25 C1.1978125 31.7859375 1.1978125 31.7859375 1.25 29.4375 C1.1875 26.25 1.1875 26.25 0.1875 23.25 C0.8475 23.25 1.5075 23.25 2.1875 23.25 C3.39022819 20.84454362 3.28821472 19.30003047 3.25 16.625 C3.24097656 15.80773438 3.23195313 14.99046875 3.22265625 14.1484375 C3.21105469 13.52195312 3.19945313 12.89546875 3.1875 12.25 C2.5275 11.92 1.8675 11.59 1.1875 11.25 C1.8475 9.27 2.5075 7.29 3.1875 5.25 C1.8675 5.58 0.5475 5.91 -0.8125 6.25 C-1.1425 7.9 -1.4725 9.55 -1.8125 11.25 C-2.4725 10.26 -3.1325 9.27 -3.8125 8.25 C-4.4725 7.59 -5.1325 6.93 -5.8125 6.25 C-6.4725 6.25 -7.1325 6.25 -7.8125 6.25 C-7.855221 4.58388095 -7.85313832 2.91617115 -7.8125 1.25 C-5.88867259 -0.67382741 -2.55588341 0.03158661 0 0 Z " fill="#8B9594" transform="translate(65.8125,20.75)" />
<path d="M0 0 C1.65 0.33 3.3 0.66 5 1 C4.67 2.65 4.34 4.3 4 6 C2.68 6 1.36 6 0 6 C-0.33 6.99 -0.66 7.98 -1 9 C-1.66 9 -2.32 9 -3 9 C-3 9.66 -3 10.32 -3 11 C-1.68 10.67 -0.36 10.34 1 10 C1 9.34 1 8.68 1 8 C1.66 8.33 2.32 8.66 3 9 C3 12.13221158 2.54401735 14.91723501 2 18 C1.896875 19.0725 1.79375 20.145 1.6875 21.25 C1 24 1 24 -0.6875 25.375 C-3.54290143 26.14673012 -6.05218369 26.12543899 -9 26 C-9.99 26 -10.98 26 -12 26 C-12.33 26 -12.66 26 -13 26 C-13.66268329 18.87615459 -11.25388064 12.69120815 -9 6 C-8.34 6 -7.68 6 -7 6 C-6.67 5.34 -6.34 4.68 -6 4 C-4.35 4.33 -2.7 4.66 -1 5 C-0.67 3.35 -0.34 1.7 0 0 Z " fill="#BEC1C0" transform="translate(34,22)" />
<path d="M0 0 C0.66 0.33 1.32 0.66 2 1 C1.75548096 1.63454102 1.51096191 2.26908203 1.2590332 2.92285156 C-1.55863471 10.42495134 -3.78296338 18.00086016 -5.8125 25.75 C-6.13669922 26.92949219 -6.46089844 28.10898437 -6.79492188 29.32421875 C-9.7767909 40.67703059 -9.7767909 40.67703059 -8 46 C-6.35546875 47.41796875 -6.35546875 47.41796875 -4.1875 48.1875 C-3.38828125 48.48527344 -2.5890625 48.78304687 -1.765625 49.08984375 C-0.85296875 49.39019531 0.0596875 49.69054687 1 50 C2.07765625 50.37253906 3.1553125 50.74507812 4.265625 51.12890625 C7.16838446 52.11598204 10.0783486 53.07060835 13 54 C12.67 54.99 12.34 55.98 12 57 C13.65 57.33 15.3 57.66 17 58 C16.67 57.01 16.34 56.02 16 55 C16.34545898 53.09887695 16.34545898 53.09887695 16.99609375 50.98828125 C17.22490234 50.23095703 17.45371094 49.47363281 17.68945312 48.69335938 C17.93630859 47.90767578 18.18316406 47.12199219 18.4375 46.3125 C18.68048828 45.51521484 18.92347656 44.71792969 19.17382812 43.89648438 C19.77479738 41.92860466 20.3863905 39.96397505 21 38 C21.33 38 21.66 38 22 38 C21.855625 39.11375 21.71125 40.2275 21.5625 41.375 C20.95203629 46.24126788 20.47014775 51.11846586 20 56 C25.52760359 58.10575375 30.06997733 59.37851209 36 59 C39.1835763 53.13409133 41.09576347 47.60413373 42.625 41.125 C43.02750023 39.438575 43.43607144 37.75358398 43.8515625 36.0703125 C43.93833252 35.70301025 43.93833252 35.70301025 44.37744141 33.84423828 C45 32 45 32 47 30 C46.88658509 32.48020497 46.75985314 34.95844969 46.625 37.4375 C46.5940625 38.14455078 46.563125 38.85160156 46.53125 39.58007812 C46.42719371 41.39239188 46.22080108 43.19817988 46 45 C45.67 45.165 45.67 45.165 44 46 C42.92970197 48.9725504 42.07484357 51.98551862 41.1953125 55.01953125 C39.89837995 58.25338594 38.77775395 59.91031354 36 62 C33.95703125 62.20703125 33.95703125 62.20703125 31.8125 61.8125 C31.41933594 61.74869141 31.41933594 61.74869141 29.4296875 61.42578125 C28.62789062 61.28527344 27.82609375 61.14476562 27 61 C25.48041795 60.82228617 23.95952962 60.65536289 22.4375 60.5 C18.28632609 60.0395705 14.14318373 59.52731429 10 59 C9.835 58.175 9.835 58.175 9 54 C7.72125 53.938125 6.4425 53.87625 5.125 53.8125 C-0.50013752 53.2053423 -5.2493489 51.02571231 -10 48 C-13.68797335 40.6240533 -9.68972439 30.45309202 -7.74682617 22.92382812 C-7.18601596 20.74423227 -6.64566118 18.56026626 -6.10742188 16.375 C-5.75380354 14.97365514 -5.39902604 13.57260216 -5.04296875 12.171875 C-4.88324585 11.5432959 -4.88324585 11.5432959 -4.07495117 8.36230469 C-3.06204122 5.1940567 -1.84163218 2.75343833 0 0 Z " fill="#49493F" transform="translate(27,18)" />
<path d="M0 0 C0.66 0 1.32 0 2 0 C1.85377197 0.75095947 1.70754395 1.50191895 1.55688477 2.27563477 C0.89030588 5.70424578 0.22638044 9.13336551 -0.4375 12.5625 C-0.66759766 13.74392578 -0.89769531 14.92535156 -1.13476562 16.14257812 C-2.21849778 21.74971408 -3.27618497 27.33427546 -4 33 C-3.34 32.835 -3.34 32.835 0 32 C0 32.66 0 33.32 0 34 C-0.33 34.165 -0.33 34.165 -2 35 C-2.59423828 36.73413086 -2.59423828 36.73413086 -3.0703125 38.96484375 C-3.24433594 39.76470703 -3.41835938 40.56457031 -3.59765625 41.38867188 C-3.68466797 41.80922852 -3.68466797 41.80922852 -4.125 43.9375 C-4.30675781 44.77474609 -4.48851562 45.61199219 -4.67578125 46.47460938 C-6 52.66259398 -6 52.66259398 -6 55 C-7.65 54.67 -9.3 54.34 -11 54 C-11.165 53.505 -11.165 53.505 -12 51 C-14.0625 49.8125 -14.0625 49.8125 -16 49 C-15.01 49 -14.02 49 -13 49 C-12.89550537 48.41589355 -12.79101074 47.83178711 -12.68334961 47.22998047 C-11.39453048 40.386277 -9.57181021 33.78857228 -7.5625 27.125 C-5.40983738 19.94945795 -3.39145312 12.77402913 -1.62866211 5.49169922 C-1 3 -1 3 0 0 Z " fill="#8D9088" transform="translate(50,21)" />
<path d="M0 0 C0.66 0 1.32 0 2 0 C2.33 1.32 2.66 2.64 3 4 C3.825 4.165 3.825 4.165 8 5 C7.41632611 11.30367803 5.95928381 16.98660063 4 23 C3.34 23 2.68 23 2 23 C2.185625 23.969375 2.37125 24.93875 2.5625 25.9375 C2.706875 26.948125 2.85125 27.95875 3 29 C2 30 2 30 -1.125 30.25 C-5.53855564 29.96525447 -8.07032123 28.92474062 -12 27 C-11.360625 26.7525 -10.72125 26.505 -10.0625 26.25 C-8 25 -8 25 -7.25 22.875 C-7.1675 22.25625 -7.085 21.6375 -7 21 C-7 21.66 -7 22.32 -7 23 C-5.68 23.33 -4.36 23.66 -3 24 C-2.67 21.36 -2.34 18.72 -2 16 C-1.68804687 15.96455078 -1.68804687 15.96455078 -0.109375 15.78515625 C2 15 2 15 3.046875 12.93359375 C3.16289063 12.52173828 3.16289063 12.52173828 3.75 10.4375 C3.99234375 9.61121094 4.2346875 8.78492188 4.484375 7.93359375 C4.65453125 7.29550781 4.8246875 6.65742187 5 6 C4.01 6 3.02 6 2 6 C1.34 6.66 0.68 7.32 0 8 C-0.38063221 5.6739143 -0.71269945 3.33944736 -1 1 C-0.67 0.67 -0.34 0.34 0 0 Z " fill="#7A8281" transform="translate(61,48)" />
<path d="M0 0 C1.65 0 3.3 0 5 0 C5.33 0.99 5.66 1.98 6 3 C5.34 3 4.68 3 4 3 C3.9484375 3.556875 3.9484375 3.556875 3.6875 6.375 C3.28599897 9.64436556 2.5669522 12.61489162 1.5625 15.75 C0.02828515 20.56117862 -0.78058651 25.33985308 -1.47265625 30.3359375 C-1.97783923 32.88804708 -2.71682329 34.75310967 -4 37 C-4.99 37 -5.98 37 -7 37 C-7.14586324 31.70724818 -6.64104518 26.82706014 -5.6875 21.625 C-5.62091187 21.25314575 -5.62091187 21.25314575 -5.28393555 19.37133789 C-4.29216738 14.05343862 -2.93298107 9.06256947 -1 4 C-1.66 3.67 -2.32 3.34 -3 3 C-2.01 3 -1.02 3 0 3 C0 2.01 0 1.02 0 0 Z " fill="#CACFCC" transform="translate(53,17)" />
<path d="M0 0 C1.24394531 -0.02578125 2.48789063 -0.0515625 3.76953125 -0.078125 C7.365091 0.26704874 8.81371549 0.55224986 11.1875 3.25 C12.20051183 8.31505914 11.62686482 13.67619096 9.1875 18.25 C8.8575 18.25 8.5275 18.25 8.1875 18.25 C7.5275 15.28 6.8675 12.31 6.1875 9.25 C5.5275 9.25 4.8675 9.25 4.1875 9.25 C3.8575 8.26 3.5275 7.27 3.1875 6.25 C1.8675 6.25 0.5475 6.25 -0.8125 6.25 C-1.1425 7.9 -1.4725 9.55 -1.8125 11.25 C-2.4725 10.26 -3.1325 9.27 -3.8125 8.25 C-4.4725 7.59 -5.1325 6.93 -5.8125 6.25 C-6.4725 6.25 -7.1325 6.25 -7.8125 6.25 C-7.855221 4.58388095 -7.85313832 2.91617115 -7.8125 1.25 C-5.88867259 -0.67382741 -2.55588341 0.03158661 0 0 Z " fill="#959E9D" transform="translate(65.8125,20.75)" />
<path d="M0 0 C3 1 3 1 4.75 3.4375 C4.95625 3.8603125 4.95625 3.8603125 6 6 C5.67 6.66 5.34 7.32 5 8 C5.66 8.66 6.32 9.32 7 10 C6.67 10.66 6.34 11.32 6 12 C6.66 12.33 7.32 12.66 8 13 C7.01 13.33 6.02 13.66 5 14 C5.33 16.31 5.66 18.62 6 21 C4.02 21.33 2.04 21.66 0 22 C-1.90487172 19.85394297 -2.96134861 18.61424366 -3.14453125 15.703125 C-3.03496094 14.89359375 -2.92539062 14.0840625 -2.8125 13.25 C-2.69648438 12.38117187 -2.58046875 11.51234375 -2.4609375 10.6171875 C-1.82587817 7.01134217 -0.97993896 3.52778024 0 0 Z " fill="#BABCB6" transform="translate(20,44)" />
<path d="M0 0 C2.3946395 0.54974214 4.65950316 1.23575613 7 2 C7 3.65 7 5.3 7 7 C5.68 6.34 4.36 5.68 3 5 C2.67 5.99 2.34 6.98 2 8 C2 7.34 2 6.68 2 6 C0.02 6 -1.96 6 -4 6 C-4.33 7.32 -4.66 8.64 -5 10 C-7.49064888 10.68707555 -9.37886292 11 -12 11 C-11.71574109 7.30463414 -11.4523486 4.6785229 -9.375 1.5625 C-6.04722382 -0.62682643 -3.92999972 -0.39966099 0 0 Z " fill="#C5C8C0" transform="translate(38,17)" />
<path d="M0 0 C0.99 0.33 1.98 0.66 3 1 C3.33 1.99 3.66 2.98 4 4 C4.66 3.01 5.32 2.02 6 1 C7.32 1 8.64 1 10 1 C9.67 3.64 9.34 6.28 9 9 C7.68 9 6.36 9 5 9 C4.67 9.99 4.34 10.98 4 12 C3.236875 11.979375 2.47375 11.95875 1.6875 11.9375 C-1 12 -1 12 -4 13 C-3 5.57142857 -3 5.57142857 -2 2 C-1.34 2 -0.68 2 0 2 C0 1.34 0 0.68 0 0 Z " fill="#7E898C" transform="translate(59,25)" />
<path d="M0 0 C0.90075444 3.28144407 0.99644083 5.78931834 0.625 9.1875 C0.53476562 10.06792969 0.44453125 10.94835938 0.3515625 11.85546875 C0 14 0 14 -1 15 C-4.3195154 27.86615093 -4.3195154 27.86615093 -2 33.375 C-1.67 33.91125 -1.34 34.4475 -1 35 C-2.65 34.67 -4.3 34.34 -6 34 C-6.165 33.505 -6.165 33.505 -7 31 C-9.0625 29.8125 -9.0625 29.8125 -11 29 C-10.01 29 -9.02 29 -8 29 C-7.79375 27.741875 -7.5875 26.48375 -7.375 25.1875 C-5.68465594 16.59906068 -2.71930933 8.30630046 0 0 Z " fill="#696C66" transform="translate(45,41)" />
<path d="M0 0 C2.31 0.33 4.62 0.66 7 1 C7.33 1.99 7.66 2.98 8 4 C8.79664063 3.96519531 9.59328125 3.93039063 10.4140625 3.89453125 C21.18894758 3.61926046 21.18894758 3.61926046 26 7 C27.45444715 9.9088943 26.92625656 12.27856826 26.6875 15.5 C26.60886719 16.6653125 26.53023437 17.830625 26.44921875 19.03125 C26 22 26 22 24 24 C24.03480469 22.94039062 24.06960937 21.88078125 24.10546875 20.7890625 C24.13360399 19.40105748 24.16090443 18.01303537 24.1875 16.625 C24.21263672 15.92632812 24.23777344 15.22765625 24.26367188 14.5078125 C24.29296875 12.4765625 24.29296875 12.4765625 24 9 C20.39821412 6.59880941 17.49133631 6.56228678 13.3125 6.375 C12.96155273 6.35566406 12.96155273 6.35566406 11.18554688 6.2578125 C9.45745345 6.1637666 7.72876325 6.0808032 6 6 C6 5.01 6 4.02 6 3 C4.35 2.67 2.7 2.34 1 2 C1 2.99 1 3.98 1 5 C0.01 4.835 0.01 4.835 -5 4 C-2 2 -2 2 0 2 C0 1.34 0 0.68 0 0 Z " fill="#4B4B40" transform="translate(52,15)" />
<path d="M0 0 C1.65 0.33 3.3 0.66 5 1 C4.67 2.65 4.34 4.3 4 6 C2.68 6 1.36 6 0 6 C-0.33 6.99 -0.66 7.98 -1 9 C-1.66 9 -2.32 9 -3 9 C-3 9.66 -3 10.32 -3 11 C-3.598125 10.814375 -4.19625 10.62875 -4.8125 10.4375 C-7 10 -7 10 -10 11 C-9.67 9.35 -9.34 7.7 -9 6 C-8.34 6 -7.68 6 -7 6 C-6.67 5.34 -6.34 4.68 -6 4 C-4.35 4.33 -2.7 4.66 -1 5 C-0.67 3.35 -0.34 1.7 0 0 Z " fill="#BEC2BD" transform="translate(34,22)" />
<path d="M0 0 C0.33 0 0.66 0 1 0 C0.51323044 7.39445378 -0.88674611 14.24638239 -2.875 21.375 C-3.00326172 21.86033203 -3.00326172 21.86033203 -3.65234375 24.31640625 C-3.90886719 25.25097656 -4.16539063 26.18554688 -4.4296875 27.1484375 C-4.5443335 27.56697998 -4.5443335 27.56697998 -5.12451172 29.68505859 C-6.06978886 32.18453374 -7.30498076 33.94838319 -9 36 C-9.66 35.67 -10.32 35.34 -11 35 C-10.67 33.68 -10.34 32.36 -10 31 C-9.34 31 -8.68 31 -8 31 C-5.76946744 22.17977226 -3.58594867 13.35907613 -1.61328125 4.4765625 C-1 2 -1 2 0 0 Z " fill="#A9AFAB" transform="translate(73,40)" />
<path d="M0 0 C1.65 0 3.3 0 5 0 C4.71653722 1.91789713 4.4228972 3.83429183 4.125 5.75 C3.96257813 6.81734375 3.80015625 7.8846875 3.6328125 8.984375 C3.06776118 11.67708871 2.36577086 13.63572439 1 16 C0.01 16 -0.98 16 -2 16 C-2.2396943 10.36718401 -1.38529821 5.45461169 0 0 Z " fill="#C2C5C0" transform="translate(48,38)" />
<path d="M0 0 C0.33 0.66 0.66 1.32 1 2 C3.5625 2.625 3.5625 2.625 6 3 C6 2.01 6 1.02 6 0 C6.99 0 7.98 0 9 0 C10.04005702 3.38018531 10.08004482 6.4780279 10 10 C7.69 10 5.38 10 3 10 C0 3.375 0 3.375 0 0 Z " fill="#C1C6BF" transform="translate(23,34)" />
<path d="M0 0 C0.99 0 1.98 0 3 0 C1.68 5.61 0.36 11.22 -1 17 C-1.99 16.67 -2.98 16.34 -4 16 C-3.6083965 10.04492601 -2.62875405 5.37180176 0 0 Z " fill="#B7B9B4" transform="translate(45,56)" />
<path d="M0 0 C0.99 0.66 1.98 1.32 3 2 C3.6875 5.625 3.6875 5.625 4 9 C3.608125 9.1134375 3.608125 9.1134375 1.625 9.6875 C-1 11 -1 11 -2.3125 13.625 C-2.539375 14.40875 -2.76625 15.1925 -3 16 C-3.33 16 -3.66 16 -4 16 C-3.67 12.7 -3.34 9.4 -3 6 C-2.34 6 -1.68 6 -1 6 C-0.67 4.02 -0.34 2.04 0 0 Z " fill="#615D4C" transform="translate(78,31)" />
<path d="M0 0 C1.258125 -0.020625 2.51625 -0.04125 3.8125 -0.0625 C4.52019531 -0.07410156 5.22789063 -0.08570312 5.95703125 -0.09765625 C8 0 8 0 11 1 C11 2.65 11 4.3 11 6 C9.68 5.34 8.36 4.68 7 4 C6.67 4.99 6.34 5.98 6 7 C6 6.34 6 5.68 6 5 C5.01 4.835 5.01 4.835 0 4 C0 2.68 0 1.36 0 0 Z " fill="#CFD1D1" transform="translate(34,18)" />
<path d="M0 0 C3.875 0.875 3.875 0.875 5 2 C5.42040613 7.27951886 5.54677703 12.22479306 3 17 C2.67 17 2.34 17 2 17 C2 14.36 2 11.72 2 9 C1.67 9 1.34 9 1 9 C1.020625 7.88625 1.04125 6.7725 1.0625 5.625 C1 2 1 2 0 0 Z " fill="#ADB3AF" transform="translate(72,22)" />
<path d="M0 0 C0.99 0.33 1.98 0.66 3 1 C2.67 1.99 2.34 2.98 2 4 C2.66 4 3.32 4 4 4 C3.67 4.66 3.34 5.32 3 6 C0.6875 6.5625 0.6875 6.5625 -2 7 C-3.33542939 7.32483418 -4.66961551 7.6550855 -6 8 C-6 8.66 -6 9.32 -6 10 C-7.32 10.33 -8.64 10.66 -10 11 C-10 9 -10 9 -8.75 7.4375 C-7 6 -7 6 -4.9375 5.5625 C-3 5 -3 5 -1.8125 3 C-1.544375 2.34 -1.27625 1.68 -1 1 C-0.67 0.67 -0.34 0.34 0 0 Z " fill="#C7CAC7" transform="translate(41,22)" />
<path d="M0 0 C0.66 0.33 1.32 0.66 2 1 C1.34 5.29 0.68 9.58 0 14 C-0.33 13.34 -0.66 12.68 -1 12 C-1.66 12 -2.32 12 -3 12 C-2.979375 11.071875 -2.95875 10.14375 -2.9375 9.1875 C-3 6 -3 6 -4 3 C-3.34 3 -2.68 3 -2 3 C-1.34 2.01 -0.68 1.02 0 0 Z " fill="#838E91" transform="translate(70,41)" />
<path d="M0 0 C0.66 0 1.32 0 2 0 C2.17835515 4.54805635 1.99785435 7.8794254 0 12 C-0.99 12 -1.98 12 -3 12 C-2.25749403 7.91621717 -1.17076699 3.98060777 0 0 Z " fill="#D4DAD6" transform="translate(53,24)" />
<path d="M0 0 C0.66 0 1.32 0 2 0 C1.57695502 2.60727722 1.13731695 5.20982778 0.6875 7.8125 C0.56955078 8.55048828 0.45160156 9.28847656 0.33007812 10.04882812 C-0.85639566 16.77217956 -0.85639566 16.77217956 -4 19 C-3.59060025 12.23784552 -2.43046191 6.32837252 0 0 Z " fill="#6D726E" transform="translate(50,21)" />
<path d="M0 0 C3.125 0.25 3.125 0.25 5 1.75 C5.37125 2.245 5.7425 2.74 6.125 3.25 C4.805 3.25 3.485 3.25 2.125 3.25 C1.795 4.24 1.465 5.23 1.125 6.25 C-0.525 6.25 -2.175 6.25 -3.875 6.25 C-3.917721 4.58388095 -3.91563832 2.91617115 -3.875 1.25 C-2.875 0.25 -2.875 0.25 0 0 Z " fill="#8C9593" transform="translate(61.875,20.75)" />
<path d="M0 0 C0.99 0 1.98 0 3 0 C2.88487847 1.72985242 2.75744323 3.45888751 2.625 5.1875 C2.55539063 6.15042969 2.48578125 7.11335938 2.4140625 8.10546875 C1.99784147 11.01508938 1.20125904 13.32890774 0 16 C0.99 16.33 1.98 16.66 3 17 C1.35 17.33 -0.3 17.66 -2 18 C-0.91103333 12.24237834 0.29336293 6.60752181 2 1 C1.34 0.67 0.68 0.34 0 0 Z " fill="#9CA19B" transform="translate(50,20)" />
<path d="M0 0 C1.04005702 3.38018531 1.08004482 6.4780279 1 10 C0.01 10.33 -0.98 10.66 -2 11 C-1.67 11.66 -1.34 12.32 -1 13 C-1.99 13 -2.98 13 -4 13 C-3 5.57142857 -3 5.57142857 -2 2 C-1.34 2 -0.68 2 0 2 C0 1.34 0 0.68 0 0 Z " fill="#768183" transform="translate(59,25)" />
<path d="M0 0 C2 3 2 3 1.625 5.1875 C1.41875 5.785625 1.2125 6.38375 1 7 C-1.49064888 7.68707555 -3.37886292 8 -6 8 C-6 7.01 -6 6.02 -6 5 C-5.01 5 -4.02 5 -3 5 C-2.87625 4.360625 -2.7525 3.72125 -2.625 3.0625 C-2.41875 2.381875 -2.2125 1.70125 -2 1 C-1.34 0.67 -0.68 0.34 0 0 Z " fill="#D0D5CF" transform="translate(32,20)" />
<path d="M0 0 C0.825 0.165 0.825 0.165 5 1 C4.625 3.9375 4.625 3.9375 4 7 C3.67 7.165 3.67 7.165 2 8 C2 7.01 2 6.02 2 5 C1.34 5 0.68 5 0 5 C0 3.35 0 1.7 0 0 Z " fill="#C6CBCB" transform="translate(45,19)" />
<path d="M0 0 C2.12438339 -0.08078641 4.2496323 -0.13909141 6.375 -0.1875 C7.55835938 -0.22230469 8.74171875 -0.25710938 9.9609375 -0.29296875 C10.46238281 -0.24462891 10.46238281 -0.24462891 13 0 C13.66 0.99 14.32 1.98 15 3 C9.72 2.67 4.44 2.34 -1 2 C-0.67 1.34 -0.34 0.68 0 0 Z " fill="#4C4B3E" transform="translate(31,15)" />
<path d="M0 0 C1.32 0.99 2.64 1.98 4 3 C3.67 4.32 3.34 5.64 3 7 C0.83125748 6.49396008 -0.99967627 6.00016187 -3 5 C-3 4.01 -3 3.02 -3 2 C-2.01 1.34 -1.02 0.68 0 0 Z " fill="#CACDC7" transform="translate(27,31)" />
<path d="M0 0 C1.65 0 3.3 0 5 0 C5.33 1.32 5.66 2.64 6 4 C4.35 4.33 2.7 4.66 1 5 C0.67 3.35 0.34 1.7 0 0 Z " fill="#535552" transform="translate(24,58)" />
<path d="M0 0 C0.825 0.165 0.825 0.165 5 1 C4.67 2.65 4.34 4.3 4 6 C2.68 5.67 1.36 5.34 0 5 C0 3.35 0 1.7 0 0 Z " fill="#4F514A" transform="translate(34,22)" />
<path d="M0 0 C1.65 0.33 3.3 0.66 5 1 C4.67 2.32 4.34 3.64 4 5 C2.35 4.67 0.7 4.34 -1 4 C-0.67 2.68 -0.34 1.36 0 0 Z " fill="#515450" transform="translate(26,39)" />
<path d="M0 0 C0.66 0.165 0.66 0.165 4 1 C3.67 2.65 3.34 4.3 3 6 C1.68 5.67 0.36 5.34 -1 5 C-0.67 3.35 -0.34 1.7 0 0 Z " fill="#454D4F" transform="translate(55,66)" />
<path d="M0 0 C2.0625 0.4375 2.0625 0.4375 4 1 C3.67 2.65 3.34 4.3 3 6 C2.01 6 1.02 6 0 6 C-0.38218767 4.34385343 -0.71395102 2.67542976 -1 1 C-0.67 0.67 -0.34 0.34 0 0 Z " fill="#434A4C" transform="translate(64,46)" />
<path d="M0 0 C0.99 0 1.98 0 3 0 C2.67 2.64 2.34 5.28 2 8 C1.01 8 0.02 8 -1 8 C-0.67 5.36 -0.34 2.72 0 0 Z " fill="#D6DBD5" transform="translate(50,38)" />
<path d="M0 0 C1.12377697 3.30435084 0.89554742 5.0506862 -0.4375 8.25 C-0.72496094 8.95640625 -1.01242188 9.6628125 -1.30859375 10.390625 C-1.53675781 10.92171875 -1.76492187 11.4528125 -2 12 C-2.89677959 8.84808349 -2.8410483 7.15393112 -2 4 C-2.33 3.34 -2.66 2.68 -3 2 C-2.01 1.34 -1.02 0.68 0 0 Z " fill="#BCBFBB" transform="translate(44,39)" />
<path d="M0 0 C1.32 0 2.64 0 4 0 C3.67 1.98 3.34 3.96 3 6 C2.01 6 1.02 6 0 6 C0 4.02 0 2.04 0 0 Z " fill="#474E4C" transform="translate(65,26)" />
<path d="M0 0 C0.33 0.66 0.66 1.32 1 2 C1.66 2.33 2.32 2.66 3 3 C2.01 5.31 1.02 7.62 0 10 C-0.33 10 -0.66 10 -1 10 C-1.125 3.375 -1.125 3.375 0 0 Z " fill="#6C6E67" transform="translate(41,53)" />
<path d="M0 0 C1.258125 -0.04125 2.51625 -0.0825 3.8125 -0.125 C4.52019531 -0.14820312 5.22789063 -0.17140625 5.95703125 -0.1953125 C8 0 8 0 11 2 C8.23735711 2.59732819 5.83967231 3 3 3 C2.01 3.33 1.02 3.66 0 4 C0 2.68 0 1.36 0 0 Z " fill="#D9DBD9" transform="translate(34,18)" />
<path d="M0 0 C0.99 0 1.98 0 3 0 C2.71848913 1.31471568 2.42446661 2.62675767 2.125 3.9375 C1.96257813 4.66839844 1.80015625 5.39929687 1.6328125 6.15234375 C1 8 1 8 -1 9 C-0.67 6.03 -0.34 3.06 0 0 Z " fill="#CED2CA" transform="translate(45,56)" />
<path d="M0 0 C0.33 0 0.66 0 1 0 C2 3 3 6 4 9 C2.35 8.67 0.7 8.34 -1 8 C-0.67 5.36 -0.34 2.72 0 0 Z " fill="#8D8F8B" transform="translate(40,67)" />
<path d="M0 0 C0.66 0.33 1.32 0.66 2 1 C1.34 2.65 0.68 4.3 0 6 C-0.99 6 -1.98 6 -3 6 C-2.67 4.68 -2.34 3.36 -2 2 C-1.34 2 -0.68 2 0 2 C0 1.34 0 0.68 0 0 Z " fill="#90968F" transform="translate(65,69)" />
<path d="M0 0 C1.84765625 0.33984375 1.84765625 0.33984375 4.0625 0.9375 C4.42923828 1.03482422 4.42923828 1.03482422 6.28515625 1.52734375 C6.56810547 1.60533203 6.56810547 1.60533203 8 2 C8 2.66 8 3.32 8 4 C4.26512223 3.5020163 2.18762365 3.12508244 -1 1 C-0.67 0.67 -0.34 0.34 0 0 Z " fill="#4D4B45" transform="translate(23,67)" />
<path d="M0 0 C0 0.99 0 1.98 0 3 C-1.98 3.66 -3.96 4.32 -6 5 C-5.25 3.0625 -5.25 3.0625 -4 1 C-1.875 0.25 -1.875 0.25 0 0 Z " fill="#788184" transform="translate(68,42)" />
<path d="M0 0 C0.33 0.66 0.66 1.32 1 2 C3.33317216 2.77772405 5.61435923 3.42415568 8 4 C7.67 4.66 7.34 5.32 7 6 C4.625 6.1875 4.625 6.1875 2 6 C0 3 0 3 0 0 Z " fill="#B4B5AF" transform="translate(23,34)" />
<path d="M0 0 C0.99 0.33 1.98 0.66 3 1 C2.34 2.65 1.68 4.3 1 6 C0.01 6 -0.98 6 -2 6 C-1.34 4.02 -0.68 2.04 0 0 Z " fill="#BEC1B7" transform="translate(28,19)" />
<path d="M0 0 C1.65 0 3.3 0 5 0 C5.33 0.99 5.66 1.98 6 3 C4.02 3 2.04 3 0 3 C0 2.01 0 1.02 0 0 Z " fill="#AAADA6" transform="translate(53,17)" />
</svg>