<?xml version='1.0' encoding='utf-8'?>
<svg xmlns="http://www.w3.org/2000/svg" version="1.1" width="88" height="91">
<path d="M0 0 C11.22884013 2.22884013 11.22884013 2.22884013 14 5 C13.63922032 8.3531288 12.07926176 10.64511594 10.1875 13.375 C8.32446182 16.07796906 6.4986559 18.78444666 4.75 21.5625 C4.1725 22.366875 3.595 23.17125 3 24 C2.34 24 1.68 24 1 24 C0.9071875 24.33 0.9071875 24.33 0.4375 26 C-0.96094174 28.91848711 -2.31410947 30.53914193 -4.5 32.875 C-7.81689546 36.50220793 -9.09970051 39.19840271 -10 44 C-13 43 -13 43 -14.33203125 41.05859375 C-16.52529008 38.35169117 -18.35874518 37.9873909 -21.6875 37.0625 C-27.160152 35.39344089 -31.30821836 33.24815652 -36 30 C-35.19928098 26.13673711 -33.6814791 23.92524993 -31 21 C-30.34 21 -29.68 21 -29 21 C-29 20.34 -29 19.68 -29 19 C-25.12587662 14.73846429 -20.727395 10.97307549 -16.41796875 7.16015625 C-15.01649301 5.90811088 -13.63270225 4.63439098 -12.30078125 3.30859375 C-8.4461885 -0.39815161 -5.07412746 -0.78968209 0 0 Z " fill="#DFB26F" transform="translate(54,18)" />
<path d="M0 0 C0.99 0.33 1.98 0.66 3 1 C1.71937515 2.7074998 0.38232443 4.37373596 -1 6 C-1.66 6 -2.32 6 -3 6 C-3 6.66 -3 7.32 -3 8 C-3.804375 8.78375 -4.60875 9.5675 -5.4375 10.375 C-7.94561869 12.94429231 -8.38627547 13.68447669 -9 17 C-2.43103223 20.3830184 4.04425901 23.50643247 11 26 C12 27 12 27 12.09765625 30.16015625 C12.08605469 31.44792969 12.07445313 32.73570313 12.0625 34.0625 C12.05347656 35.35285156 12.04445313 36.64320312 12.03515625 37.97265625 C12.02355469 38.97167969 12.01195313 39.97070312 12 41 C17.40700219 41.49015317 17.40700219 41.49015317 20.1171875 39.25 C20.69726562 38.5075 21.27734375 37.765 21.875 37 C22.47054687 36.2575 23.06609375 35.515 23.6796875 34.75 C24.11539063 34.1725 24.55109375 33.595 25 33 C25 37.05036667 23.36769138 39.8300974 21 43 C17.2733157 45.55544066 13.62237783 45.15186574 9.3125 44.53515625 C5.5043514 43.65387862 2.39846601 41.87887462 -1 40 C-3.12258816 38.95342753 -5.24772582 37.91201447 -7.375 36.875 C-12.75247525 34.24752475 -12.75247525 34.24752475 -15 32 C-16.05398475 25.64871526 -14.88548704 18.7084403 -12 13 C-9.79397133 10.4282873 -7.48892869 8.1640772 -4.9609375 5.91015625 C-3 4 -3 4 -2 1 C-1.34 0.67 -0.68 0.34 0 0 Z " fill="#854C0A" transform="translate(28,31)" />
<path d="M0 0 C11.22884013 2.22884013 11.22884013 2.22884013 14 5 C13.63922032 8.3531288 12.07926176 10.64511594 10.1875 13.375 C8.32446182 16.07796906 6.4986559 18.78444666 4.75 21.5625 C4.1725 22.366875 3.595 23.17125 3 24 C2.34 24 1.68 24 1 24 C0.9071875 24.33 0.9071875 24.33 0.4375 26 C-0.96094174 28.91848711 -2.31410947 30.53914193 -4.5 32.875 C-7.81689546 36.50220793 -9.09970051 39.19840271 -10 44 C-13 43 -13 43 -14.1875 41.125 C-16.54198449 38.3645699 -18.85427742 37.77064622 -22.2578125 36.7109375 C-24 36 -24 36 -25 34 C-24.21625 34.165 -23.4325 34.33 -22.625 34.5 C-18.06033858 35.12960847 -13.59927399 35.08180527 -9 35 C-9 34.34 -9 33.68 -9 33 C-7.86454675 31.86454675 -6.72472486 30.73321162 -5.56640625 29.62109375 C-1.5899632 25.50582227 1.90165779 20.8558196 4.8125 15.9375 C5.0084375 15.6178125 5.0084375 15.6178125 6 14 C6.66 14 7.32 14 8 14 C8 13.01 8 12.02 8 11 C6.68 10.67 5.36 10.34 4 10 C4.33 9.67 4.66 9.34 5 9 C1.7 8.01 -1.6 7.02 -5 6 C-4.34 6.33 -3.68 6.66 -3 7 C-3 7.66 -3 8.32 -3 9 C-3.99 9 -4.98 9 -6 9 C-6 9.99 -6 10.98 -6 12 C-6.99 12.66 -7.98 13.32 -9 14 C-8.67 14.495 -8.67 14.495 -7 17 C-7.62648438 17.12117188 -8.25296875 17.24234375 -8.8984375 17.3671875 C-9.71570313 17.53476562 -10.53296875 17.70234375 -11.375 17.875 C-11.78105469 17.95621094 -11.78105469 17.95621094 -13.8359375 18.3671875 C-16 19 -16 19 -18 21 C-20.63233792 21.8563027 -23.29546818 22.38929927 -26 23 C-26 23.66 -26 24.32 -26 25 C-26.391875 25.0721875 -26.391875 25.0721875 -28.375 25.4375 C-31 26 -31 26 -33 27 C-32.34 25.02 -31.68 23.04 -31 21 C-30.34 21 -29.68 21 -29 21 C-29 20.34 -29 19.68 -29 19 C-25.12587662 14.73846429 -20.727395 10.97307549 -16.41796875 7.16015625 C-15.01649301 5.90811088 -13.63270225 4.63439098 -12.30078125 3.30859375 C-8.4461885 -0.39815161 -5.07412746 -0.78968209 0 0 Z " fill="#EDC781" transform="translate(54,18)" />
<path d="M0 0 C0.51534485 5.33059826 -1.03661638 8.37840292 -4 12.625 C-4.40718262 13.23037598 -4.81436523 13.83575195 -5.23388672 14.45947266 C-6.07350906 15.70636234 -6.91842302 16.94970488 -7.76855469 18.18945312 C-8.91506898 19.87512917 -10.02549413 21.58519606 -11.1328125 23.296875 C-14.1284975 27.92550202 -17.20503694 32.48504674 -20.625 36.8125 C-20.87894531 37.13541016 -20.87894531 37.13541016 -22.1640625 38.76953125 C-24 40 -24 40 -30 39 C-30 34.71 -30 30.42 -30 26 C-28.68 26.99 -27.36 27.98 -26 29 C-25.9896875 28.505 -25.9896875 28.505 -25.9375 26 C-25.21300507 20.7367574 -21.53451915 17.68886496 -18 14 C-16.65407903 12.34348188 -15.3140151 10.68193932 -14 9 C-13.67 9.66 -13.34 10.32 -13 11 C-12.34 10.01 -11.68 9.02 -11 8 C-10.01 7.34 -9.02 6.68 -8 6 C-6.14984435 4.44069851 -4.33815382 2.84250696 -2.5234375 1.2421875 C-1 0 -1 0 0 0 Z " fill="#A7681D" transform="translate(70,33)" />
<path d="M0 0 C-1.59749949 5.11199836 -4.74813077 8.84903514 -8 13 C-8.680625 13.94875 -9.36125 14.8975 -10.0625 15.875 C-12.38328535 18.42037748 -13.62972984 19.25105108 -17 20 C-21.97616723 19.90935943 -26.4863084 19.18404432 -31 17 C-31 16.34 -31 15.68 -31 15 C-31.66 15 -32.32 15 -33 15 C-32.67 14.34 -32.34 13.68 -32 13 C-31.01 13.165 -31.01 13.165 -26 14 C-26.103125 13.608125 -26.103125 13.608125 -26.625 11.625 C-26.74875 10.75875 -26.8725 9.8925 -27 9 C-26.34 8.34 -25.68 7.68 -25 7 C-22.79296875 7.12890625 -22.79296875 7.12890625 -20.1875 7.5625 C-15.3260829 8.13974981 -15.3260829 8.13974981 -12.375 6.875 C-11.59125 6.25625 -10.8075 5.6375 -10 5 C-8.61377882 4.08936347 -7.2171298 3.19447685 -5.8125 2.3125 C-5.47541016 2.09400391 -5.47541016 2.09400391 -3.76953125 0.98828125 C-2 0 -2 0 0 0 Z " fill="#C8903B" transform="translate(59,33)" />
<path d="M0 0 C4.65811966 1.47098516 4.65811966 1.47098516 6.11328125 3.72265625 C8.1138131 8.86058607 8.08355045 13.63125255 7 19 C4.15303002 25.13689542 0.03224867 30.59916021 -4 36 C-4.28149902 36.37793701 -4.28149902 36.37793701 -5.70605469 38.29052734 C-7.13227315 40.19760195 -8.56341586 42.10072795 -10 44 C-10.33 43.34 -10.66 42.68 -11 42 C-10.33613281 41.01 -9.67226563 40.02 -8.98828125 39 C-6.72181868 35.61615852 -4.46813378 32.22399047 -2.21826172 28.82910156 C-1.22999851 27.34532041 -0.22832777 25.87047537 0.77734375 24.3984375 C3.1410239 20.84949165 4.67784627 18.33821615 4 14 C3.01 14.33 2.02 14.66 1 15 C0.67 15.99 0.34 16.98 0 18 C-2 20 -2 20 -4 20.375 C-6 21 -6 21 -7.25 23.0625 C-7.4975 23.701875 -7.745 24.34125 -8 25 C-8.33 24.01 -8.66 23.02 -9 22 C-7.63888646 19.70884142 -6.26167222 17.635193 -4.6875 15.5 C-4.27048828 14.91863281 -3.85347656 14.33726563 -3.42382812 13.73828125 C-2.28796502 12.15495692 -1.14430672 10.57723271 0 9 C2 6 2 6 1.6875 3.9375 C1 2 1 2 0 0 Z " fill="#9D6015" transform="translate(65,20)" />
<path d="M0 0 C1.4783226 2.95664519 1.06032783 5.74229737 1 9 C1.4640625 8.5875 1.4640625 8.5875 3.8125 6.5 C6.625 4 6.625 4 10 4 C8.55049595 8.35647645 6.32252888 11.31757289 3.375 14.8125 C2.55773438 15.78832031 1.74046875 16.76414062 0.8984375 17.76953125 C0.27195312 18.50558594 -0.35453125 19.24164063 -1 20 C-2.98 19.67 -4.96 19.34 -7 19 C-7 14.71 -7 10.42 -7 6 C-5.68 6.99 -4.36 7.98 -3 9 C-2.938125 8.443125 -2.938125 8.443125 -2.625 5.625 C-2 2 -2 2 0 0 Z " fill="#A46B24" transform="translate(47,53)" />
<path d="M0 0 C0.99 0.33 1.98 0.66 3 1 C1.71937515 2.7074998 0.38232443 4.37373596 -1 6 C-1.66 6 -2.32 6 -3 6 C-3 6.66 -3 7.32 -3 8 C-3.804375 8.78375 -4.60875 9.5675 -5.4375 10.375 C-7.81810326 12.81366675 -8.63635918 13.7272326 -9 17 C-7.02 18.32 -5.04 19.64 -3 21 C-7.5 25 -7.5 25 -12 25 C-12 27.64 -12 30.28 -12 33 C-11.40832031 33.18175781 -10.81664062 33.36351562 -10.20703125 33.55078125 C-5.787492 34.95667057 -1.87459875 36.37527181 2 39 C-1 40 -1 40 -3.84765625 38.85546875 C-4.90855469 38.30503906 -5.96945313 37.75460938 -7.0625 37.1875 C-7.59423828 36.91615234 -7.59423828 36.91615234 -10.28515625 35.54296875 C-13 34 -13 34 -15 32 C-16.05398475 25.64871526 -14.88548704 18.7084403 -12 13 C-9.79397133 10.4282873 -7.48892869 8.1640772 -4.9609375 5.91015625 C-3 4 -3 4 -2 1 C-1.34 0.67 -0.68 0.34 0 0 Z " fill="#5E3A0C" transform="translate(28,31)" />
<path d="M0 0 C0.99 0.33 1.98 0.66 3 1 C3 1.66 3 2.32 3 3 C2.01 3.66 1.02 4.32 0 5 C0.33 5.495 0.33 5.495 2 8 C1.68675781 8.06058594 1.68675781 8.06058594 0.1015625 8.3671875 C-0.71570313 8.53476562 -1.53296875 8.70234375 -2.375 8.875 C-2.78105469 8.95621094 -2.78105469 8.95621094 -4.8359375 9.3671875 C-7 10 -7 10 -9 12 C-11.63233792 12.8563027 -14.29546818 13.38929927 -17 14 C-17 14.66 -17 15.32 -17 16 C-17.391875 16.0721875 -17.391875 16.0721875 -19.375 16.4375 C-22 17 -22 17 -24 18 C-23.34 16.02 -22.68 14.04 -22 12 C-21.34 12 -20.68 12 -20 12 C-20 11.34 -20 10.68 -20 10 C-16.90992611 6.38019915 -14.82034262 4.41317222 -10 4 C-9.67 4.66 -9.34 5.32 -9 6 C-8.608125 5.525625 -8.21625 5.05125 -7.8125 4.5625 C-5.59091827 2.64734334 -3.83963065 2.52308986 -1 2 C-0.67 1.34 -0.34 0.68 0 0 Z " fill="#F0C680" transform="translate(45,27)" />
<path d="M0 0 C2.31 0.33 4.62 0.66 7 1 C6.67 1.66 6.34 2.32 6 3 C7.32 3 8.64 3 10 3 C9.67 4.32 9.34 5.64 9 7 C8.34 7 7.68 7 7 7 C6.67 7.66 6.34 8.32 6 9 C4.33333333 9.66666667 2.66666667 10.33333333 1 11 C-1.01254782 12.31431695 -3.01310269 13.64721885 -5 15 C-8.03909408 17.05874115 -8.92635634 17.00736437 -12.75 16.625 C-13.28625 16.521875 -13.28625 16.521875 -16 16 C-15 14 -15 14 -11.25 12.6875 C-7.17829353 11.25729486 -4.85960534 9.28013554 -2 6 C-1.34 5.34 -0.68 4.68 0 4 C1.32 4 2.64 4 4 4 C4 3.34 4 2.68 4 2 C2.35 2 0.7 2 -1 2 C-0.67 1.34 -0.34 0.68 0 0 Z " fill="#DEAE60" transform="translate(53,25)" />
<path d="M0 0 C0.33 0.99 0.66 1.98 1 3 C1.66 3 2.32 3 3 3 C2.1875 6.4375 2.1875 6.4375 1 10 C0.01 10.33 -0.98 10.66 -2 11 C-1.34 12.32 -0.68 13.64 0 15 C-1.49739583 16.23697917 -2.99479167 17.47395833 -4.4921875 18.7109375 C-5.71051161 19.75250992 -6.86660097 20.86660097 -8 22 C-8.53776474 15.41238196 -7.80164465 11.39422551 -4 6 C-3.24974192 4.85433563 -2.49972732 3.70851177 -1.75 2.5625 C-1.1725 1.716875 -0.595 0.87125 0 0 Z " fill="#AA6F23" transform="translate(55,42)" />
<path d="M0 0 C-2.25288357 7.20922743 -7.59864621 12.9163729 -13 18 C-12.34 15.69 -11.68 13.38 -11 11 C-12.98 11.66 -14.96 12.32 -17 13 C-16.09894314 9.96917239 -15.49706722 8.35087098 -12.875 6.5 C-12.400625 6.2525 -12.400625 6.2525 -10 5 C-7.91488606 3.6752923 -5.84247516 2.3319294 -3.76953125 0.98828125 C-2 0 -2 0 0 0 Z " fill="#CE9948" transform="translate(59,33)" />
<path d="M0 0 C2.64 0.33 5.28 0.66 8 1 C7.67 1.66 7.34 2.32 7 3 C8.32 3.33 9.64 3.66 11 4 C11 4.66 11 5.32 11 6 C10.2575 6.226875 9.515 6.45375 8.75 6.6875 C6 8 6 8 4.0625 10.4375 C1.06030941 14.16749437 -1.86782241 15.67123609 -6.609375 16.40234375 C-9.07277619 16.65633851 -11.52781209 16.85831334 -14 17 C-13.37867188 16.70222656 -12.75734375 16.40445313 -12.1171875 16.09765625 C-10 15 -10 15 -8.125 13.4375 C-5.46214766 11.63615871 -3.16164275 11.35927759 0 11 C-0.66 10.34 -1.32 9.68 -2 9 C-0.68 8.34 0.64 7.68 2 7 C2 6.01 2 5.02 2 4 C2.99 4 3.98 4 5 4 C5 3.34 5 2.68 5 2 C4.175 1.835 4.175 1.835 0 1 C0 0.67 0 0.34 0 0 Z " fill="#E4B973" transform="translate(46,23)" />
<path d="M0 0 C4.65811966 1.47098516 4.65811966 1.47098516 6.11328125 3.72265625 C8.1138131 8.86058607 8.08355045 13.63125255 7 19 C4.15303002 25.13689542 0.03224867 30.59916021 -4 36 C-4.28149902 36.37793701 -4.28149902 36.37793701 -5.70605469 38.29052734 C-7.13227315 40.19760195 -8.56341586 42.10072795 -10 44 C-10.33 43.34 -10.66 42.68 -11 42 C-10.34773438 41.03320312 -9.69546875 40.06640625 -9.0234375 39.0703125 C-6.75365568 35.69647683 -4.50409096 32.30972415 -2.265625 28.91503906 C-1.18468768 27.27945412 -0.09339687 25.65071956 1 24.0234375 C4.14007812 19.14725849 5.78884959 15.97271836 5 10 C4.9175 8.741875 4.835 7.48375 4.75 6.1875 C4 3 4 3 1.9375 1.5625 C1.298125 1.376875 0.65875 1.19125 0 1 C0 0.67 0 0.34 0 0 Z " fill="#5D3C0D" transform="translate(65,20)" />
<path d="M0 0 C0.4125 0.0825 0.4125 0.0825 2.5 0.5 C7.88858604 1.26979801 12.6672951 1.33317623 18 0 C17.01 3.3 16.02 6.6 15 10 C12 9 12 9 10.8125 7.125 C8.45801551 4.3645699 6.14572258 3.77064622 2.7421875 2.7109375 C1 2 1 2 0 0 Z " fill="#F4E2B9" transform="translate(29,52)" />
<path d="M0 0 C0.4640625 0.1134375 0.4640625 0.1134375 2.8125 0.6875 C2.4825 1.6775 2.1525 2.6675 1.8125 3.6875 C1.1525 3.6875 0.4925 3.6875 -0.1875 3.6875 C-0.1875 4.3475 -0.1875 5.0075 -0.1875 5.6875 C0.4725 6.0175 1.1325 6.3475 1.8125 6.6875 C-2.9375 7.6875 -2.9375 7.6875 -5.1875 7.6875 C-4.8575 8.6775 -4.5275 9.6675 -4.1875 10.6875 C-6.625 9.9375 -6.625 9.9375 -9.1875 8.6875 C-10 6.5625 -10 6.5625 -10.1875 4.6875 C-9.589375 4.419375 -8.99125 4.15125 -8.375 3.875 C-6.1875 2.6875 -6.1875 2.6875 -4.8125 1 C-3.1875 -0.3125 -3.1875 -0.3125 0 0 Z " fill="#D9A65A" transform="translate(33.1875,40.3125)" />
<path d="M0 0 C2.31426642 4.62853285 1.32755096 10.81262778 0 15.625 C-0.33 16.40875 -0.66 17.1925 -1 18 C-2.32 17.67 -3.64 17.34 -5 17 C-5.33 14.03 -5.66 11.06 -6 8 C-5.01 8.33 -4.02 8.66 -3 9 C-2.87625 7.88625 -2.7525 6.7725 -2.625 5.625 C-2 2 -2 2 0 0 Z " fill="#BA883D" transform="translate(47,53)" />
<path d="M0 0 C0.99 0 1.98 0 3 0 C4.4822335 7.1641286 4.4822335 7.1641286 2.125 11.25 C1.42375 12.1575 0.7225 13.065 0 14 C-0.34227417 15.33106622 -0.67751743 16.66400079 -1 18 C-2.5 19.625 -2.5 19.625 -4 21 C-4.33 21.66 -4.66 22.32 -5 23 C-5.66 23 -6.32 23 -7 23 C-5.94955148 20.0237292 -4.93312462 17.91691241 -2.9375 15.4375 C-0.14141456 10.47670325 -0.18158472 5.61096796 0 0 Z " fill="#776443" transform="translate(72,27)" />
<path d="M0 0 C0 4.05036667 -1.63230862 6.8300974 -4 10 C-7.7535436 12.57385847 -11.49220973 12.14650419 -15.83984375 11.55859375 C-18.89195905 10.76934874 -20.7974205 9.2025795 -23 7 C-17.25 7.875 -17.25 7.875 -15 9 C-11.875 9.625 -11.875 9.625 -8 9 C-4.96661663 6.27895454 -2.46991008 3.23333683 0 0 Z " fill="#613E10" transform="translate(53,64)" />
<path d="M0 0 C0.99 0.33 1.98 0.66 3 1 C1.71937515 2.7074998 0.38232443 4.37373596 -1 6 C-1.66 6 -2.32 6 -3 6 C-3 6.66 -3 7.32 -3 8 C-3.804375 8.78375 -4.60875 9.5675 -5.4375 10.375 C-8.7599707 13.77850657 -9 15.39668193 -9 20 C-9.66 20.33 -10.32 20.66 -11 21 C-11.95248971 16.80904527 -12.26551413 14.67169531 -10 11 C-8.85554266 9.77096383 -7.66530381 8.58327934 -6.4375 7.4375 C-4.00373705 5.1656506 -3.07740206 4.23220618 -2 1 C-1.34 0.67 -0.68 0.34 0 0 Z " fill="#684717" transform="translate(28,31)" />
<path d="M0 0 C0.99 0 1.98 0 3 0 C3.66 0.66 4.32 1.32 5 2 C5.99 2 6.98 2 8 2 C6.6875 3.5 6.6875 3.5 5 5 C4.01 5 3.02 5 2 5 C2 5.66 2 6.32 2 7 C-0.64 7.66 -3.28 8.32 -6 9 C-6 6 -6 6 -3.5625 3.375 C-2.716875 2.59125 -1.87125 1.8075 -1 1 C-0.67 0.67 -0.34 0.34 0 0 Z " fill="#F3CD8C" transform="translate(31,31)" />
<path d="M0 0 C8.57142857 -0.28571429 8.57142857 -0.28571429 12 2 C12 2.66 12 3.32 12 4 C11.69255859 3.98839844 11.69255859 3.98839844 10.13671875 3.9296875 C9.32847656 3.91164063 8.52023438 3.89359375 7.6875 3.875 C7.28724609 3.86339844 7.28724609 3.86339844 5.26171875 3.8046875 C3 4 3 4 0 6 C-0.99 6 -1.98 6 -3 6 C-2 4 -1 2 0 0 Z " fill="#F8E2A3" transform="translate(46,18)" />
<path d="M0 0 C0 0.33 0 0.66 0 1 C-0.825 1.185625 -1.65 1.37125 -2.5 1.5625 C-8.35198524 3.96599394 -12.52071725 8.44192784 -16.875 12.9375 C-19 15 -19 15 -21 15 C-20.814375 14.38125 -20.62875 13.7625 -20.4375 13.125 C-20 11 -20 11 -21 9 C-20.27683594 8.91878906 -19.55367187 8.83757813 -18.80859375 8.75390625 C-14.47589059 7.59088579 -11.87552582 4.67064055 -8.59765625 1.71484375 C-5.4854166 -0.33970242 -3.65685496 -0.33534478 0 0 Z " fill="#5D4417" transform="translate(52,16)" />
<path d="M0 0 C1.32 0.66 2.64 1.32 4 2 C4 5.3 4 8.6 4 12 C2.02 11.34 0.04 10.68 -2 10 C-2 9.34 -2 8.68 -2 8 C-1.01 8 -0.02 8 1 8 C1 7.01 1 6.02 1 5 C-0.32 4.67 -1.64 4.34 -3 4 C-1.68 3.67 -0.36 3.34 1 3 C0.67 2.01 0.34 1.02 0 0 Z " fill="#955D19" transform="translate(36,56)" />
<path d="M0 0 C0.33 0 0.66 0 1 0 C1.66 3.63 2.32 7.26 3 11 C3.99 11.33 4.98 11.66 6 12 C6 11.34 6 10.68 6 10 C6.66 10 7.32 10 8 10 C8.66 8.35 9.32 6.7 10 5 C10.33 5.99 10.66 6.98 11 8 C8.02274078 12.69143876 8.02274078 12.69143876 6 14 C5.01 13.835 5.01 13.835 0 13 C0 8.71 0 4.42 0 0 Z " fill="#AA752E" transform="translate(40,59)" />
<path d="M0 0 C0 0.66 0 1.32 0 2 C3.63 2.33 7.26 2.66 11 3 C11 3.99 11 4.98 11 6 C10.70867187 5.93941406 10.70867187 5.93941406 9.234375 5.6328125 C2.51427184 4.25920651 -4.22907805 3.09358533 -11 2 C-11 1.67 -11 1.34 -11 1 C-7.26562152 0.12132271 -3.83225427 -0.08912219 0 0 Z " fill="#6D562B" transform="translate(58,16)" />
<path d="M0 0 C0.99 0.33 1.98 0.66 3 1 C1.75590105 2.92050226 0.50446565 4.83625314 -0.75 6.75 C-1.44609375 7.81734375 -2.1421875 8.8846875 -2.859375 9.984375 C-4.73853132 12.63165361 -6.62795543 14.7989136 -9 17 C-8.49396008 14.83125748 -8.00016187 13.00032373 -7 11 C-6.34 11 -5.68 11 -5 11 C-5 9.68 -5 8.36 -5 7 C-4.34 7 -3.68 7 -3 7 C-2.690625 6.21625 -2.38125 5.4325 -2.0625 4.625 C-1 2 -1 2 0 0 Z " fill="#976525" transform="translate(66,40)" />
<path d="M0 0 C2.87137415 0 5.2303041 0.27113266 8 1 C8.33 1.66 8.66 2.32 9 3 C3.375 6 3.375 6 0 6 C-1.125 2.25 -1.125 2.25 0 0 Z " fill="#713A03" transform="translate(16,50)" />
<path d="M0 0 C0.99 0 1.98 0 3 0 C3.59732819 2.76264289 4 5.16032769 4 8 C3.34 8.66 2.68 9.32 2 10 C-0.125 9.625 -0.125 9.625 -2 9 C-1.9071875 8.608125 -1.9071875 8.608125 -1.4375 6.625 C-1 4 -1 4 -2 2 C-1.34 1.34 -0.68 0.68 0 0 Z " fill="#D09948" transform="translate(34,40)" />
<path d="M0 0 C2.33944736 0.28730055 4.6739143 0.61936779 7 1 C7 1.66 7 2.32 7 3 C0.375 6 0.375 6 -3 6 C-1.125 1.125 -1.125 1.125 0 0 Z " fill="#EFCE91" transform="translate(44,24)" />
<path d="M0 0 C1.72953968 0.62396703 3.458615 1.24922128 5.1875 1.875 C6.15042969 2.22304688 7.11335938 2.57109375 8.10546875 2.9296875 C10.75634859 3.90990488 13.3813098 4.93720434 16 6 C16 6.33 16 6.66 16 7 C11.02906176 6.58846263 6.55491614 6.20399168 2 4 C2 3.34 2 2.68 2 2 C1.34 2 0.68 2 0 2 C0 1.34 0 0.68 0 0 Z " fill="#C19146" transform="translate(26,46)" />
<path d="M0 0 C-0.66 1.65 -1.32 3.3 -2 5 C-4.31 5 -6.62 5 -9 5 C-9 4.34 -9 3.68 -9 3 C-3.375 0 -3.375 0 0 0 Z " fill="#BD8632" transform="translate(47,47)" />
<path d="M0 0 C0.33 0.66 0.66 1.32 1 2 C-1.64 5.63 -4.28 9.26 -7 13 C-7.99 12.34 -8.98 11.68 -10 11 C-9.278125 10.29875 -8.55625 9.5975 -7.8125 8.875 C-5.00176187 6.07229255 -2.50483774 3.07737208 0 0 Z " fill="#F3C786" transform="translate(55,40)" />
<path d="M0 0 C2.31 0 4.62 0 7 0 C7.66 1.32 8.32 2.64 9 4 C6.03 3.67 3.06 3.34 0 3 C0 2.01 0 1.02 0 0 Z " fill="#E8D290" transform="translate(49,21)" />
<path d="M0 0 C0.33 0 0.66 0 1 0 C1 2.64 1 5.28 1 8 C0.01 8 -0.98 8 -2 8 C-2.33 5.69 -2.66 3.38 -3 1 C-2.01 1.33 -1.02 1.66 0 2 C0 1.34 0 0.68 0 0 Z " fill="#D1A553" transform="translate(44,60)" />
<path d="M0 0 C0.33 0.66 0.66 1.32 1 2 C0.67 2.66 0.34 3.32 0 4 C-0.66 4 -1.32 4 -2 4 C-2.33 4.66 -2.66 5.32 -3 6 C-5.31 5.67 -7.62 5.34 -10 5 C-7 3 -7 3 -4.8125 3.375 C-4.214375 3.58125 -3.61625 3.7875 -3 4 C-3 3.01 -3 2.02 -3 1 C-2.01 0.67 -1.02 0.34 0 0 Z " fill="#D9A757" transform="translate(62,28)" />
<path d="M0 0 C4.62 0.66 9.24 1.32 14 2 C14 2.33 14 2.66 14 3 C5.99625838 4.44729968 5.99625838 4.44729968 1.9375 2.625 C1.298125 2.08875 0.65875 1.5525 0 1 C0 0.67 0 0.34 0 0 Z " fill="#F5E0A9" transform="translate(29,52)" />
<path d="M0 0 C0.99 0.33 1.98 0.66 3 1 C1.68 2.155 1.68 2.155 -5 8 C-5.33 6.68 -5.66 5.36 -6 4 C-5.01 4 -4.02 4 -3 4 C-3 3.34 -3 2.68 -3 2 C-2.01 1.34 -1.02 0.68 0 0 Z " fill="#74603C" transform="translate(43,16)" />
<path d="M0 0 C2.31 0 4.62 0 7 0 C6.67 1.32 6.34 2.64 6 4 C5.01 3.835 5.01 3.835 0 3 C0 2.01 0 1.02 0 0 Z " fill="#8F5308" transform="translate(31,60)" />
<path d="M0 0 C1.32 0.33 2.64 0.66 4 1 C3.43628586 4.26954202 2.50037734 5.82575883 0 8 C0 5.36 0 2.72 0 0 Z " fill="#F5C37B" transform="translate(64,22)" />
<path d="M0 0 C2.97 1.65 5.94 3.3 9 5 C5 6 5 6 2.25 4.75 C1.5075 4.1725 0.765 3.595 0 3 C0 2.01 0 1.02 0 0 Z " fill="#77643F" transform="translate(13,63)" />
<path d="M0 0 C3.68754757 0.49831724 5.60490662 1.10067643 8 4 C7.67 4.165 7.67 4.165 6 5 C3.96855359 4.06553465 1.96466413 3.06775224 0 2 C0 1.34 0 0.68 0 0 Z " fill="#E7BB7F" transform="translate(22,49)" />
<path d="M0 0 C2.31 0 4.62 0 7 0 C7.33 0.99 7.66 1.98 8 3 C5.03 2.67 2.06 2.34 -1 2 C-0.67 1.34 -0.34 0.68 0 0 Z " fill="#FBECAF" transform="translate(50,19)" />
<path d="M0 0 C0.99 0.33 1.98 0.66 3 1 C3 1.66 3 2.32 3 3 C0.36 3.33 -2.28 3.66 -5 4 C-2.6875 1.9375 -2.6875 1.9375 0 0 Z " fill="#7C4309" transform="translate(25,52)" />
</svg>