<?xml version='1.0' encoding='utf-8'?>
<svg xmlns="http://www.w3.org/2000/svg" version="1.1" width="110" height="95">
<path d="M0 0 C0.42216797 0.16628906 0.42216797 0.16628906 2.55859375 1.0078125 C3.47640625 1.36359375 4.39421875 1.719375 5.33984375 2.0859375 C5.778125 2.25867188 5.778125 2.25867188 7.99609375 3.1328125 C9.51645631 3.67579913 11.03723608 4.21762028 12.55859375 4.7578125 C15.99609375 6.1328125 15.99609375 6.1328125 17.99609375 8.1328125 C18.83492439 13.24967938 18.83492439 13.24967938 17.99609375 16.1328125 C16.10864658 17.81005674 14.20548571 18.8714225 11.96875 20.03515625 C9.62375866 21.33999302 8.4697674 22.92230202 6.99609375 25.1328125 C6.33609375 25.1328125 5.67609375 25.1328125 4.99609375 25.1328125 C4.89296875 25.7721875 4.78984375 26.4115625 4.68359375 27.0703125 C4.45671875 27.7509375 4.22984375 28.4315625 3.99609375 29.1328125 C3.00609375 29.4628125 2.01609375 29.7928125 0.99609375 30.1328125 C0.99609375 30.7928125 0.99609375 31.4528125 0.99609375 32.1328125 C-0.31640625 33.5703125 -0.31640625 33.5703125 -2.00390625 35.1328125 C-2.51953125 35.6896875 -3.03515625 36.2465625 -3.56640625 36.8203125 C-5.00390625 38.1328125 -5.00390625 38.1328125 -7.00390625 38.1328125 C-7.14828125 38.7515625 -7.29265625 39.3703125 -7.44140625 40.0078125 C-8.00390625 42.1328125 -8.00390625 42.1328125 -9.00390625 44.1328125 C-9.66390625 44.1328125 -10.32390625 44.1328125 -11.00390625 44.1328125 C-11.66390625 46.7728125 -12.32390625 49.4128125 -13.00390625 52.1328125 C-11.35390625 52.4628125 -9.70390625 52.7928125 -8.00390625 53.1328125 C-8.00390625 52.4728125 -8.00390625 51.8128125 -8.00390625 51.1328125 C-6.88861696 50.01752321 -5.76745962 48.90775281 -4.625 47.8203125 C-2.60006118 45.71242438 -0.85711174 43.44251325 0.93359375 41.1328125 C3.15306664 38.31483007 5.23519061 35.72727914 8.05859375 33.5078125 C10.70917832 31.36478668 12.36740981 29.42089403 14.43359375 26.7578125 C16.18359375 24.671875 16.18359375 24.671875 17.99609375 23.1328125 C21.93359375 23.1328125 21.93359375 23.1328125 24.99609375 24.1328125 C23.78764252 30.47015559 19.10151979 35.1699847 14.55859375 39.5078125 C11.0072915 42.92584292 8.38939916 46.76110857 5.625 50.82421875 C3.30958242 54.10578179 1.01194212 57.24386378 -2.7578125 58.90625 C-6.05842831 59.23918168 -8.25109928 58.03351996 -11.25390625 56.6953125 C-12.3315625 56.22222656 -13.40921875 55.74914062 -14.51953125 55.26171875 C-15.339375 54.88917969 -16.15921875 54.51664063 -17.00390625 54.1328125 C-16.67390625 53.1428125 -16.34390625 52.1528125 -16.00390625 51.1328125 C-17.32390625 51.7928125 -18.64390625 52.4528125 -20.00390625 53.1328125 C-19.67390625 51.8128125 -19.34390625 50.4928125 -19.00390625 49.1328125 C-19.33390625 49.1328125 -19.66390625 49.1328125 -20.00390625 49.1328125 C-20.25140625 48.2046875 -20.49890625 47.2765625 -20.75390625 46.3203125 C-22.55812595 41.71955226 -25.31132741 40.36892378 -29.68359375 38.44921875 C-31.77938607 37.5637564 -33.88135257 36.69430266 -35.984375 35.82617188 C-40.31928379 33.99342795 -44.28723054 32.0822845 -48.00390625 29.1328125 C-48.87890625 26.8828125 -48.87890625 26.8828125 -49.00390625 25.1328125 C-48.07449219 24.55273438 -47.14507812 23.97265625 -46.1875 23.375 C-44.93861641 22.58623141 -43.68992901 21.79715212 -42.44140625 21.0078125 C-41.83232422 20.62882812 -41.22324219 20.24984375 -40.59570312 19.859375 C-36.72330904 17.40071209 -33.2372522 14.72881913 -29.79223633 11.703125 C-26.64439254 8.93903883 -23.41052599 6.29830602 -20.12890625 3.6953125 C-19.80083984 3.41848633 -19.80083984 3.41848633 -18.140625 2.01757812 C-11.83274026 -2.91929463 -7.38560639 -2.13212564 0 0 Z " fill="#ECEFF4" transform="translate(68.00390625,18.8671875)" />
<path d="M0 0 C0.99 0 1.98 0 3 0 C2.9375 1.75 2.9375 1.75 2 4 C0.25947408 5.03142277 -1.4867355 6.05758148 -3.28515625 6.984375 C-5.46052118 8.27274603 -6.59497031 9.92942993 -8 12 C-8.66 12 -9.32 12 -10 12 C-10.103125 12.639375 -10.20625 13.27875 -10.3125 13.9375 C-10.539375 14.618125 -10.76625 15.29875 -11 16 C-11.99 16.33 -12.98 16.66 -14 17 C-14 17.66 -14 18.32 -14 19 C-15.3125 20.4375 -15.3125 20.4375 -17 22 C-17.515625 22.556875 -18.03125 23.11375 -18.5625 23.6875 C-20 25 -20 25 -22 25 C-22.144375 25.61875 -22.28875 26.2375 -22.4375 26.875 C-23 29 -23 29 -24 31 C-24.66 31 -25.32 31 -26 31 C-26.66 33.64 -27.32 36.28 -28 39 C-26.35 39.33 -24.7 39.66 -23 40 C-23 39.34 -23 38.68 -23 38 C-21.88471071 36.88471071 -20.76355337 35.77494031 -19.62109375 34.6875 C-17.59615493 32.57961188 -15.85320549 30.30970075 -14.0625 28 C-11.84302711 25.18201757 -9.76090314 22.59446664 -6.9375 20.375 C-4.28691543 18.23197418 -2.62868394 16.28808153 -0.5625 13.625 C1.1875 11.5390625 1.1875 11.5390625 3 10 C6.9375 10 6.9375 10 10 11 C8.79154877 17.33734309 4.10542604 22.0371722 -0.4375 26.375 C-3.98880225 29.79303042 -6.60669459 33.62829607 -9.37109375 37.69140625 C-11.68651133 40.97296929 -13.98415163 44.11105128 -17.75390625 45.7734375 C-21.05452206 46.10636918 -23.24719303 44.90070746 -26.25 43.5625 C-27.32765625 43.08941406 -28.4053125 42.61632812 -29.515625 42.12890625 C-30.33546875 41.75636719 -31.1553125 41.38382813 -32 41 C-31.67 40.01 -31.34 39.02 -31 38 C-32.32 38.66 -33.64 39.32 -35 40 C-34.67 38.68 -34.34 37.36 -34 36 C-34.33 36 -34.66 36 -35 36 C-35.2475 35.071875 -35.495 34.14375 -35.75 33.1875 C-37.5542197 28.58673976 -40.30742116 27.23611128 -44.6796875 25.31640625 C-46.77547982 24.4309439 -48.87744632 23.56149016 -50.98046875 22.69335938 C-55.31537754 20.86061545 -59.28332429 18.949472 -63 16 C-63.875 13.75 -63.875 13.75 -64 12 C-49.83731255 14.44664404 -49.83731255 14.44664404 -43.9453125 18.66796875 C-40.85633222 20.78311388 -37.47642256 22.28287658 -34.1015625 23.88671875 C-32 25 -32 25 -30 27 C-24.32640795 23.60356394 -19.95342625 20.12130592 -15.75390625 15.015625 C-13.35413239 12.2577557 -10.64584169 9.96659285 -7.86328125 7.60546875 C-5.44188723 5.51911038 -3.22533264 3.29276697 -1 1 C-0.67 0.67 -0.34 0.34 0 0 Z " fill="#B9BCC2" transform="translate(83,32)" />
<path d="M0 0 C0.66 0.33 1.32 0.66 2 1 C1.67 2.65 1.34 4.3 1 6 C2.65 6 4.3 6 6 6 C6.33 6.99 6.66 7.98 7 9 C8.70239258 10.01147461 8.70239258 10.01147461 10.89453125 10.90234375 C11.68537109 11.23556641 12.47621094 11.56878906 13.29101562 11.91210938 C14.12310547 12.25048828 14.95519531 12.58886719 15.8125 12.9375 C26.59344941 17.33287529 26.59344941 17.33287529 30.3125 23 C31.14549571 25.42326025 30.72268629 26.5910457 30 29 C30.165 29.33 30.165 29.33 31 31 C22.86326331 33.16847017 17.4080821 30.01654105 10.125 26.375 C8.98546875 25.84003906 7.8459375 25.30507812 6.671875 24.75390625 C-1.62708767 20.70298742 -1.62708767 20.70298742 -3.35595703 17.44384766 C-4.13643713 14.48228367 -3.74189955 12.9675982 -3 10 C-2.76480174 7.63179687 -2.56353406 5.26328883 -2.37890625 2.890625 C-2.25386719 2.26671875 -2.12882812 1.6428125 -2 1 C-1.34 0.67 -0.68 0.34 0 0 Z " fill="#906425" transform="translate(19,42)" />
<path d="M0 0 C1.010625 0.33 2.02125 0.66 3.0625 1 C1.85404877 7.33734309 -2.83207396 12.0371722 -7.375 16.375 C-10.92630225 19.79303042 -13.54419459 23.62829607 -16.30859375 27.69140625 C-18.63401055 30.98714085 -20.93423095 34.19530419 -24.78515625 35.7421875 C-27.61999179 36.08175038 -29.13744286 35.30002773 -31.6875 34.0625 C-32.08710937 33.87236328 -32.08710937 33.87236328 -34.109375 32.91015625 C-34.71265625 32.60980469 -35.3159375 32.30945313 -35.9375 32 C-32.1875 30 -32.1875 30 -29.9375 30 C-29.9375 29.34 -29.9375 28.68 -29.9375 28 C-28.82221071 26.88471071 -27.70105337 25.77494031 -26.55859375 24.6875 C-24.53365493 22.57961188 -22.79070549 20.30970075 -21 18 C-18.78052711 15.18201757 -16.69840314 12.59446664 -13.875 10.375 C-11.22441543 8.23197418 -9.56618394 6.28808153 -7.5 3.625 C-4.4588015 0 -4.4588015 0 0 0 Z " fill="#F3F5F7" transform="translate(89.9375,42)" />
<path d="M0 0 C0 0.66 0 1.32 0 2 C-1.578076 2.84324672 -3.1627042 3.67423918 -4.75 4.5 C-5.63171875 4.9640625 -6.5134375 5.428125 -7.421875 5.90625 C-10 7 -10 7 -14 7 C-14 7.66 -14 8.32 -14 9 C-16 10 -18 11 -20 12 C-21.0725 12.556875 -22.145 13.11375 -23.25 13.6875 C-26 15 -26 15 -28 15 C-28.103125 15.28875 -28.103125 15.28875 -28.625 16.75 C-30.98083572 20.60500391 -34.41468179 22.60367045 -38.75 23.6875 C-39.4925 23.790625 -40.235 23.89375 -41 24 C-41.66 24.33 -42.32 24.66 -43 25 C-44.9453125 24.66015625 -44.9453125 24.66015625 -47.125 24.0625 C-47.84945312 23.86785156 -48.57390625 23.67320313 -49.3203125 23.47265625 C-49.87460937 23.31667969 -50.42890625 23.16070312 -51 23 C-51 22.34 -51 21.68 -51 21 C-49.00218013 19.66611726 -47.0151114 18.44713353 -44.9375 17.25 C-39.843713 14.22267055 -35.37948246 10.97456681 -31 7 C-28.46408386 4.73851166 -26.01227851 2.59543605 -23 1 C-19.375 1.3125 -19.375 1.3125 -16 2 C-15.5359375 1.7525 -15.5359375 1.7525 -13.1875 0.5 C-8.64331237 -1.63844124 -4.84788736 -0.79520682 0 0 Z " fill="#E7EBF1" transform="translate(71,22)" />
<path d="M0 0 C0.66 0.33 1.32 0.66 2 1 C1.67 1.99 1.34 2.98 1 4 C1.825 4.165 1.825 4.165 6 5 C5.34 5.474375 4.68 5.94875 4 6.4375 C0.65191045 9.29732649 -2.09210663 12.43102877 -4.9375 15.78125 C-7 18 -7 18 -9.45703125 19.890625 C-12.93561289 22.77608442 -15.28152984 26.25143085 -17.86914062 29.9296875 C-18.86970945 31.31851124 -19.93044368 32.66357992 -21 34 C-21.66 34 -22.32 34 -23 34 C-23 34.66 -23 35.32 -23 36 C-24.98 36 -26.96 36 -29 36 C-28.01 33.03 -27.02 30.06 -26 27 C-25.34 27 -24.68 27 -24 27 C-23.7525 26.030625 -23.505 25.06125 -23.25 24.0625 C-22.8375 23.051875 -22.425 22.04125 -22 21 C-20.67696283 20.6278958 -19.34262065 20.29369827 -18 20 C-16.75 17.4375 -16.75 17.4375 -16 15 C-15.34 15 -14.68 15 -14 15 C-14 14.34 -14 13.68 -14 13 C-13.01 12.34 -12.02 11.68 -11 11 C-10.67 10.01 -10.34 9.02 -10 8 C-6.99399962 4.65999958 -4.05953119 1.97490707 0 0 Z " fill="#777B84" transform="translate(83,36)" />
<path d="M0 0 C0.66 0.33 1.32 0.66 2 1 C2 1.66 2 2.32 2 3 C3.65 3 5.3 3 7 3 C7.33 3.99 7.66 4.98 8 6 C9.70239258 7.01147461 9.70239258 7.01147461 11.89453125 7.90234375 C12.68537109 8.23556641 13.47621094 8.56878906 14.29101562 8.91210938 C15.12310547 9.25048828 15.95519531 9.58886719 16.8125 9.9375 C27.03085597 14.10350687 27.03085597 14.10350687 30 18 C30 18.66 30 19.32 30 20 C29.34 20.33 28.68 20.66 28 21 C26.875 23.0625 26.875 23.0625 26 25 C25.566875 24.54625 25.13375 24.0925 24.6875 23.625 C23 22 23 22 20 20 C20.33 19.34 20.66 18.68 21 18 C19.02 18.33 17.04 18.66 15 19 C14.67 18.34 14.34 17.68 14 17 C13.29875 16.87625 12.5975 16.7525 11.875 16.625 C8.03260466 15.78969666 5.38495614 14.00589993 2 12 C1.01 11.67 0.02 11.34 -1 11 C-0.67 7.37 -0.34 3.74 0 0 Z " fill="#B8873A" transform="translate(18,45)" />
<path d="M0 0 C5.93387194 0.35785412 11.34210337 1.81218016 17 3.5625 C17.77472656 3.79646484 18.54945312 4.03042969 19.34765625 4.27148438 C21.2335214 4.84190038 23.1170209 5.42012803 25 6 C25.02717692 8.06242617 25.0464758 10.12495703 25.0625 12.1875 C25.07410156 13.33605469 25.08570312 14.48460937 25.09765625 15.66796875 C25.01192832 18.59300586 24.67849023 21.16316291 24 24 C26 23 26 23 27 21 C30.0916909 23.52956528 30.90931332 26.22454612 32 30 C31.34 30.66 30.68 31.32 30 32 C30 30.68 30 29.36 30 28 C27.03 27.34 24.06 26.68 21 26 C21 22 21 22 22 20 C22.56066946 14.11297071 22.56066946 14.11297071 22 12 C18.49912036 9.31147917 14.77251186 8.19010936 10.5625 7 C6.08035774 5.7299715 2.11841142 4.18654724 -2 2 C-1.34 1.34 -0.68 0.68 0 0 Z " fill="#56462C" transform="translate(63,15)" />
<path d="M0 0 C0.33 0.99 0.66 1.98 1 3 C-1.62462673 7.10811141 -5.2399565 9.97919318 -8.91796875 13.09765625 C-11.0267726 15.02446202 -12.80532046 17.05105244 -14.625 19.25 C-17.41864031 22.56145464 -19.95762268 24.30784205 -24 26 C-24.66 26.66 -25.32 27.32 -26 28 C-27.32 26.35 -28.64 24.7 -30 23 C-29.01 23 -28.02 23 -27 23 C-27 22.01 -27 21.02 -27 20 C-26.01 19.484375 -25.02 18.96875 -24 18.4375 C-20.09743708 16.23585045 -16.96140996 13.44131854 -13.69921875 10.390625 C-12 9 -12 9 -10 9 C-9.8865625 8.7009375 -9.8865625 8.7009375 -9.3125 7.1875 C-7.64388216 4.40647027 -5.83047633 3.51879218 -3 2 C-2.01 1.34 -1.02 0.68 0 0 Z " fill="#F5F8FA" transform="translate(79,32)" />
<path d="M0 0 C4.18157084 0.53955753 7.61009323 2.07853556 11.39453125 3.828125 C15.27534558 5.5736187 19.24120914 7.10502369 23.203125 8.65625 C26.2663666 10.12797501 28.56624133 11.62345446 31 14 C31.64516342 16.82839644 31.24477546 19.06269443 31 22 C30.67 22 30.34 22 30 22 C29.835 21.175 29.835 21.175 29 17 C28.67 18.65 28.34 20.3 28 22 C27.67 22 27.34 22 27 22 C26.7525 21.071875 26.505 20.14375 26.25 19.1875 C24.43468067 14.5584357 21.64611332 13.21655418 17.25 11.28125 C15.83555671 10.68222271 14.41881334 10.08860191 13 9.5 C3.89775079 5.72388575 3.89775079 5.72388575 1 3 C0.67 2.01 0.34 1.02 0 0 Z " fill="#B8B5AD" transform="translate(21,46)" />
<path d="M0 0 C0.66 0.33 1.32 0.66 2 1 C1.67 1.99 1.34 2.98 1 4 C1.825 4.165 1.825 4.165 6 5 C5.34 5.474375 4.68 5.94875 4 6.4375 C1.37746229 8.67758429 -0.74494501 10.90754095 -3 13.5 C-5.79898383 16.71540515 -8.56637492 19.44930709 -12 22 C-13.0173873 22.98230498 -14.02596117 23.97469597 -15 25 C-15 23.68 -15 22.36 -15 21 C-15.66 21.33 -16.32 21.66 -17 22 C-16.3125 19.625 -16.3125 19.625 -15 17 C-13.35636866 16.27840576 -11.68949614 15.60648579 -10 15 C-9.67 14.01 -9.34 13.02 -9 12 C-7.68 12 -6.36 12 -5 12 C-4.67 10.35 -4.34 8.7 -4 7 C-5.65 8.32 -7.3 9.64 -9 11 C-9.33 10.01 -9.66 9.02 -10 8 C-6.91367389 4.7373124 -4.06516496 1.97764782 0 0 Z " fill="#7E8187" transform="translate(83,36)" />
<path d="M0 0 C0.12375 0.598125 0.2475 1.19625 0.375 1.8125 C1 4 1 4 3 7 C3.66 6.34 4.32 5.68 5 5 C5.75 6.6875 5.75 6.6875 6 9 C3.64056976 12.72063999 1.1899695 15.5426193 -3 17 C-6.49763249 16.41706125 -9.7692956 15.46578255 -13 14 C-13.33 13.34 -13.66 12.68 -14 12 C-12.02 11.67 -10.04 11.34 -8 11 C-8 10.34 -8 9.68 -8 9 C-6.35570171 7.31126121 -4.68615782 5.64694485 -3 4 C-1.97186389 2.68824014 -0.95915568 1.3630107 0 0 Z " fill="#E6E7EE" transform="translate(68,61)" />
<path d="M0 0 C2.77121851 0.99686888 5.50964767 2.05828347 8.25 3.13671875 C9.79135373 3.67927526 11.33298391 4.22104763 12.875 4.76171875 C16.25 6.13671875 16.25 6.13671875 17.25 8.13671875 C16.95416016 8.07033203 16.95416016 8.07033203 15.45703125 7.734375 C11.39553475 6.82666697 7.33625829 5.92760745 3.25 5.13671875 C3.25 4.47671875 3.25 3.81671875 3.25 3.13671875 C-6.28439341 2.61875372 -6.28439341 2.61875372 -10.625 4.69921875 C-13.75 6.13671875 -13.75 6.13671875 -16.1875 5.82421875 C-16.703125 5.59734375 -17.21875 5.37046875 -17.75 5.13671875 C-14.15543904 -3.55013691 -7.85665528 -2.4663648 0 0 Z " fill="#E9EDF5" transform="translate(67.75,18.86328125)" />
<path d="M0 0 C-1.07401108 2.91517292 -1.77810176 4.77810176 -4 7 C-5.155 7.28875 -6.31 7.5775 -7.5 7.875 C-11 9 -11 9 -12.1875 11 C-12.455625 11.66 -12.72375 12.32 -13 13 C-15.99288991 14.99525994 -17.23085596 15 -21 15 C-20.42655063 12.13275314 -20.1385485 11.1385485 -18 9 C-16.68 9 -15.36 9 -14 9 C-14 8.01 -14 7.02 -14 6 C-13.360625 5.71125 -12.72125 5.4225 -12.0625 5.125 C-10 4 -10 4 -9 2 C-3.56692913 -1.18897638 -3.56692913 -1.18897638 0 0 Z " fill="#CDD1DC" transform="translate(54,28)" />
<path d="M0 0 C0 0.66 0 1.32 0 2 C-1.578076 2.84324672 -3.1627042 3.67423918 -4.75 4.5 C-5.63171875 4.9640625 -6.5134375 5.428125 -7.421875 5.90625 C-10 7 -10 7 -14 7 C-14 7.66 -14 8.32 -14 9 C-15.32 9.33 -16.64 9.66 -18 10 C-18 8.68 -18 7.36 -18 6 C-19.32 6.33 -20.64 6.66 -22 7 C-22.33 6.34 -22.66 5.68 -23 5 C-21.00980253 3.98063057 -19.0072458 2.98537521 -17 2 C-15.9275 1.4225 -14.855 0.845 -13.75 0.25 C-8.8766212 -1.3744596 -4.99470377 -0.83412558 0 0 Z " fill="#DBDEE9" transform="translate(71,22)" />
<path d="M0 0 C14.18342243 2.45022607 14.18342243 2.45022607 20.05859375 6.67578125 C23.10301214 8.75235637 26.45173432 10.17197994 29.80078125 11.69140625 C32.31812731 13.18929422 33.55046474 14.45977208 35 17 C35.32841264 20.71963012 34.74232863 24.04981936 32.4375 27 C31.963125 27.33 31.48875 27.66 31 28 C30.34 27.67 29.68 27.34 29 27 C29.0825 26.731875 29.0825 26.731875 29.5 25.375 C30.09660212 22.54113991 30.0656368 19.8880194 30 17 C30.66 17.66 31.32 18.32 32 19 C31.7421875 17.140625 31.7421875 17.140625 31 15 C29.3828125 13.796875 29.3828125 13.796875 27.125 12.75 C26.24328125 12.33878906 25.3615625 11.92757812 24.453125 11.50390625 C17.00106776 8.25838358 9.51215862 5.10365285 2 2 C1.67 2.66 1.34 3.32 1 4 C0.67 2.68 0.34 1.36 0 0 Z " fill="#969A9F" transform="translate(19,44)" />
<path d="M0 0 C0.66 0.33 1.32 0.66 2 1 C1.34 1.66 0.68 2.32 0 3 C-0.4657363 5.55867474 -0.83484248 8.04687908 -1.125 10.625 C-1.21136719 11.33140625 -1.29773438 12.0378125 -1.38671875 12.765625 C-1.59881183 14.50950141 -1.80040991 16.2546484 -2 18 C-1.16855469 18.2475 -0.33710938 18.495 0.51953125 18.75 C3.76953763 19.91723013 6.62535053 21.30276942 9.66015625 22.91992188 C16.66290566 26.65067373 22.97868098 29.3202272 31 30 C28.47164121 31.65315767 27.24842216 32.02623629 24.19824219 31.70410156 C18.86062991 30.52901196 14.16490019 28.08839351 9.25 25.75 C8.19683594 25.27175781 7.14367187 24.79351562 6.05859375 24.30078125 C5.05441406 23.82511719 4.05023438 23.34945312 3.015625 22.859375 C2.10071289 22.43108398 1.18580078 22.00279297 0.24316406 21.56152344 C-2.50183852 19.65065747 -3.13532728 18.19156651 -4 15 C-3.6875 12.75 -3.6875 12.75 -3 10 C-2.76480174 7.63179687 -2.56353406 5.26328883 -2.37890625 2.890625 C-2.25386719 2.26671875 -2.12882812 1.6428125 -2 1 C-1.34 0.67 -0.68 0.34 0 0 Z " fill="#524129" transform="translate(19,42)" />
<path d="M0 0 C0.66 0.33 1.32 0.66 2 1 C2 1.66 2 2.32 2 3 C3.65 3 5.3 3 7 3 C7 3.99 7 4.98 7 6 C6.01 6 5.02 6 4 6 C4.33 6.99 4.66 7.98 5 9 C6.134375 9.268125 7.26875 9.53625 8.4375 9.8125 C9.0253125 10.0084375 9.0253125 10.0084375 12 11 C13.4375 14.125 13.4375 14.125 14 17 C9.22750294 16.42151551 6.07213985 14.41311991 2 12 C1.01 11.67 0.02 11.34 -1 11 C-0.67 7.37 -0.34 3.74 0 0 Z " fill="#C6924E" transform="translate(18,45)" />
<path d="M0 0 C1.91015625 0.30078125 1.91015625 0.30078125 4.91015625 1.36328125 C4.29560929 5.35783652 2.20368888 8.10794461 -0.08984375 11.36328125 C-0.41984375 10.70328125 -0.74984375 10.04328125 -1.08984375 9.36328125 C-1.74984375 9.36328125 -2.40984375 9.36328125 -3.08984375 9.36328125 C-3.08984375 8.70328125 -3.08984375 8.04328125 -3.08984375 7.36328125 C-3.74984375 7.36328125 -4.40984375 7.36328125 -5.08984375 7.36328125 C-5.41984375 8.02328125 -5.74984375 8.68328125 -6.08984375 9.36328125 C-7.39899654 10.39473496 -8.73066518 11.39870291 -10.08984375 12.36328125 C-10.08984375 7.73132641 -7.35058256 5.52163209 -4.3359375 2.1953125 C-2.08984375 0.36328125 -2.08984375 0.36328125 0 0 Z " fill="#E7EAEF" transform="translate(88.08984375,41.63671875)" />
<path d="M0 0 C0.33 0 0.66 0 1 0 C1.25 6.625 1.25 6.625 -1 10 C9.56644477 14.62401381 9.56644477 14.62401381 14.0625 13.5 C17.25988893 11.86729076 17.84379956 11.27590126 19 8 C19.97581759 6.64886795 20.97029741 5.31053056 22 4 C22.66 4.33 23.32 4.66 24 5 C23.525625 5.5775 23.05125 6.155 22.5625 6.75 C21.01235449 8.98220954 20.56964421 10.39591217 20 13 C19.36345658 14.3479743 18.70394612 15.68596724 18 17 C17.34 17 16.68 17 16 17 C16 16.34 16 15.68 16 15 C15.67 15.165 15.67 15.165 14 16 C8.67522416 16.40959814 5.6445485 15.53339009 1 13 C0.01 13 -0.98 13 -2 13 C-2.625 10.625 -2.625 10.625 -3 8 C-2.34 7.34 -1.68 6.68 -1 6 C-0.60235737 4.01178687 -0.26224651 2.01055661 0 0 Z " fill="#55544F" transform="translate(53,63)" />
<path d="M0 0 C5.18000557 0.60989077 9.46134997 2.23473635 14.1875 4.3125 C14.89841797 4.60833984 15.60933594 4.90417969 16.34179688 5.20898438 C20.21120456 6.89434257 22.82429514 8.1946166 25 12 C20.38667078 10.87020509 17.06176021 9.45274369 12.9765625 6.953125 C9.2197963 5.14156185 5.09456829 4.62613117 1 4 C0.67 2.68 0.34 1.36 0 0 Z " fill="#795726" transform="translate(22,51)" />
<path d="M0 0 C4.18157084 0.53955753 7.61009323 2.07853556 11.39453125 3.828125 C15.27534558 5.5736187 19.24120914 7.10502369 23.203125 8.65625 C26.2663666 10.12797501 28.56624133 11.62345446 31 14 C31.64516342 16.82839644 31.24477546 19.06269443 31 22 C30.67 22 30.34 22 30 22 C29.773125 20.9275 29.54625 19.855 29.3125 18.75 C27.6253156 13.92947314 25.43735368 12.20397036 20.87573242 9.95068359 C18.41338767 8.85782391 15.93360747 7.82577135 13.4375 6.8125 C12.58736328 6.45736328 11.73722656 6.10222656 10.86132812 5.73632812 C7.26330242 4.24914417 3.80359477 2.86633553 0 2 C0 1.34 0 0.68 0 0 Z " fill="#DADEE2" transform="translate(21,46)" />
<path d="M0 0 C8.02770189 0.55363461 15.33854067 2.65687944 23 5 C22.67 5.99 22.34 6.98 22 8 C19.26992066 7.2113773 16.54095166 6.41921814 13.8125 5.625 C13.04357422 5.40328125 12.27464844 5.1815625 11.48242188 4.953125 C7.56591221 3.8101093 3.75643949 2.61097806 0 1 C0 0.67 0 0.34 0 0 Z " fill="#AC8D5C" transform="translate(62,17)" />
<path d="M0 0 C0.66 0 1.32 0 2 0 C2.66 0.66 3.32 1.32 4 2 C3.625 4.125 3.625 4.125 3 6 C-1.00200378 7.60080151 -4.04556236 6.29279692 -8 5 C-8 3.68 -8 2.36 -8 1 C-3.125 1.875 -3.125 1.875 -2 3 C-1.34 2.01 -0.68 1.02 0 0 Z " fill="#916733" transform="translate(46,65)" />
<path d="M0 0 C0.66 0.33 1.32 0.66 2 1 C1.690625 1.309375 1.690625 1.309375 0.125 2.875 C-2.71043937 7.04476378 -3.27334545 11.07595927 -4 16 C-3.01 16.66 -2.02 17.32 -1 18 C-2.98 18.33 -4.96 18.66 -7 19 C-7 16 -7 16 -6 15 C-6.0321597 13.39493841 -6.10065925 11.79053326 -6.1875 10.1875 C-6.24980696 5.34140285 -6.24980696 5.34140285 -4.125 2.4375 C-2 1 -2 1 0 0 Z " fill="#CACCD3" transform="translate(59,55)" />
<path d="M0 0 C0.8125 1.625 0.8125 1.625 1 4 C-1.3125 7.25 -1.3125 7.25 -4 10 C-4.66 10 -5.32 10 -6 10 C-6 10.66 -6 11.32 -6 12 C-7.32 11.34 -8.64 10.68 -10 10 C-9.34 10 -8.68 10 -8 10 C-7.9690625 9.7215625 -7.9690625 9.7215625 -7.8125 8.3125 C-6.47882921 4.51666774 -3.57659173 1.78829587 0 0 Z " fill="#868A8F" transform="translate(66,60)" />
<path d="M0 0 C0.66 0.33 1.32 0.66 2 1 C1.67 1.66 1.34 2.32 1 3 C2.98 2.67 4.96 2.34 7 2 C7 3.98 7 5.96 7 8 C4 9 4 9 1.3125 7.6875 C0.549375 7.130625 -0.21375 6.57375 -1 6 C-1 5.34 -1 4.68 -1 4 C-1.66 3.67 -2.32 3.34 -3 3 C-3 2.34 -3 1.68 -3 1 C-2.01 0.67 -1.02 0.34 0 0 Z " fill="#8C6324" transform="translate(32,61)" />
<path d="M0 0 C0.33 0.99 0.66 1.98 1 3 C2.32 2.34 3.64 1.68 5 1 C5 1.99 5 2.98 5 4 C4.608125 4.12375 4.608125 4.12375 2.625 4.75 C-0.32317108 6.15389099 -0.9024777 7.00675737 -2 10 C-1.01 10.33 -0.02 10.66 1 11 C0 12 0 12 -1.84765625 12.09765625 C-3.8984375 12.06510417 -5.94921875 12.03255208 -8 12 C-6.19587357 8.73539027 -5.16605307 7.11070205 -2 5 C-1.375 2.9375 -1.375 2.9375 -1 1 C-0.67 0.67 -0.34 0.34 0 0 Z " fill="#E0E4EE" transform="translate(35,33)" />
<path d="M0 0 C2.37328878 0.71198663 4.746137 1.42510995 7.1171875 2.14453125 C9.01153251 2.70667428 10.91267142 3.24649713 12.8203125 3.76171875 C13.70460938 4.00535156 14.58890625 4.24898437 15.5 4.5 C15.90734375 4.60828125 15.90734375 4.60828125 17.96875 5.15625 C20 6 20 6 22 9 C21.40832031 8.86722656 20.81664063 8.73445313 20.20703125 8.59765625 C16.14553475 7.68994822 12.08625829 6.7908887 8 6 C8 5.34 8 4.68 8 4 C6.02 4 4.04 4 2 4 C1.34 2.68 0.68 1.36 0 0 Z " fill="#EFE0D3" transform="translate(63,18)" />
<path d="M0 0 C3.68903596 0.3689036 6.48055397 1.1588021 9.6875 2.9375 C14.54127931 5.5293239 19.59925162 6.24548368 25 7 C22.54501025 8.60518561 21.20515717 9.01133304 18.2421875 8.84765625 C14.27460852 7.81034946 10.79820471 6.23494998 7.125 4.4375 C6.78082031 4.27282227 6.78082031 4.27282227 5.0390625 3.43945312 C3.3561267 2.63304639 1.67759707 1.81745506 0 1 C0 0.67 0 0.34 0 0 Z " fill="#563D1B" transform="translate(25,65)" />
<path d="M0 0 C-3 3 -6 6 -9 9 C-9 7.68 -9 6.36 -9 5 C-9.33 5.165 -9.33 5.165 -11 6 C-10.375 3.625 -10.375 3.625 -9 1 C-5.37169613 -0.69835501 -3.84489875 -1.28163292 0 0 Z " fill="#8E9197" transform="translate(77,52)" />
<path d="M0 0 C5.27749285 0.53851968 9.25645564 1.77343836 14 4 C14 4.66 14 5.32 14 6 C15.32 6.66 16.64 7.32 18 8 C13.3110507 7.44380331 9.80075733 6.11817327 5.625 3.9375 C4.56539062 3.38964844 3.50578125 2.84179688 2.4140625 2.27734375 C1.61742188 1.85582031 0.82078125 1.43429688 0 1 C0 0.67 0 0.34 0 0 Z " fill="#C5BCB3" transform="translate(22,49)" />
<path d="M0 0 C-0.19140625 1.80078125 -0.19140625 1.80078125 -1 4 C-3.21484375 5.66796875 -3.21484375 5.66796875 -5.9375 7.1875 C-6.38544922 7.44208984 -6.38544922 7.44208984 -8.65234375 8.73046875 C-10.09034514 9.50809013 -11.5377981 10.26889905 -13 11 C-11.22092694 5.66278083 -5.83550927 0 0 0 Z " fill="#C4C5CE" transform="translate(86,32)" />
<path d="M0 0 C0.12375 0.598125 0.2475 1.19625 0.375 1.8125 C1 4 1 4 3 7 C3.66 6.34 4.32 5.68 5 5 C5.33 6.32 5.66 7.64 6 9 C2.37673261 10.2077558 1.35853631 9.54311128 -2 8 C-2 7.34 -2 6.68 -2 6 C-2.66 5.67 -3.32 5.34 -4 5 C-2.68 3.35 -1.36 1.7 0 0 Z " fill="#DEE1E7" transform="translate(68,61)" />
<path d="M0 0 C0.66 0.33 1.32 0.66 2 1 C1.01 1.33 0.02 1.66 -1 2 C-1.268125 2.5775 -1.53625 3.155 -1.8125 3.75 C-3.55133944 7.04464314 -6.07645336 8.71200698 -9 11 C-9.33 10.01 -9.66 9.02 -10 8 C-6.91367389 4.7373124 -4.06516496 1.97764782 0 0 Z " fill="#878A92" transform="translate(83,36)" />
<path d="M0 0 C0.66 0.33 1.32 0.66 2 1 C1.525625 1.5775 1.05125 2.155 0.5625 2.75 C-0.98764551 4.98220954 -1.43035579 6.39591217 -2 9 C-2.63654342 10.3479743 -3.29605388 11.68596724 -4 13 C-4.66 13 -5.32 13 -6 13 C-5.63118644 6.85310727 -4.09949571 4.30972626 0 0 Z " fill="#605A4F" transform="translate(75,67)" />
<path d="M0 0 C0.33 0.165 0.33 0.165 2 1 C2 1.66 2 2.32 2 3 C3.65 3 5.3 3 7 3 C7 3.99 7 4.98 7 6 C6.01 6 5.02 6 4 6 C4 6.66 4 7.32 4 8 C2.68 8.33 1.36 8.66 0 9 C0 6.03 0 3.06 0 0 Z " fill="#8C8174" transform="translate(18,45)" />
<path d="M0 0 C4.875 3.625 4.875 3.625 6 7 C5.67 7.165 5.67 7.165 4 8 C4 7.34 4 6.68 4 6 C3.34 6 2.68 6 2 6 C2 5.34 2 4.68 2 4 C1.34 4 0.68 4 0 4 C-0.33 4.66 -0.66 5.32 -1 6 C-2.30915279 7.03145371 -3.64082143 8.03542166 -5 9 C-5 4.61031544 -2.87194899 3.23094261 0 0 Z " fill="#D6D8E0" transform="translate(83,45)" />
<path d="M0 0 C0.66 0.33 1.32 0.66 2 1 C0.625 2.5 0.625 2.5 -1 4 C-1.66 4 -2.32 4 -3 4 C-3.144375 4.61875 -3.28875 5.2375 -3.4375 5.875 C-4 8 -4 8 -5 10 C-5.66 10 -6.32 10 -7 10 C-7.33 10.66 -7.66 11.32 -8 12 C-7.49572053 7.58755464 -5.98672249 5.25025683 -3 2 C-2.01 1.34 -1.02 0.68 0 0 Z " fill="#999DA7" transform="translate(64,53)" />
<path d="M0 0 C1.32 0 2.64 0 4 0 C4 0.66 4 1.32 4 2 C4.66 2 5.32 2 6 2 C5.67 3.32 5.34 4.64 5 6 C4.175 5.67 4.175 5.67 0 4 C0 4.66 0 5.32 0 6 C-0.66 6 -1.32 6 -2 6 C-1.49396008 3.83125748 -1.00016187 2.00032373 0 0 Z " fill="#E7E8F2" transform="translate(81,49)" />
<path d="M0 0 C0.66 0 1.32 0 2 0 C2 0.66 2 1.32 2 2 C3.65 1.67 5.3 1.34 7 1 C3.92000054 4.67230705 1.7517398 5.56802365 -3 6 C-2.42655063 3.13275314 -2.1385485 2.1385485 0 0 Z " fill="#D2D6DF" transform="translate(36,37)" />
<path d="M0 0 C0.66 0 1.32 0 2 0 C1.11223998 3.69900008 0.05418136 7.34550461 -1 11 C-2.32 10.67 -3.64 10.34 -5 10 C-4.01 7.36 -3.02 4.72 -2 2 C-1.34 2 -0.68 2 0 2 C0 1.34 0 0.68 0 0 Z " fill="#767A81" transform="translate(59,61)" />
<path d="M0 0 C-2.55570675 1.53342405 -5.11083127 3.06443678 -7.6875 4.5625 C-10 6 -10 6 -12 8 C-12.33 6.68 -12.66 5.36 -13 4 C-11.35 3.67 -9.7 3.34 -8 3 C-8 2.34 -8 1.68 -8 1 C-2.25 -1.125 -2.25 -1.125 0 0 Z " fill="#E0E3EB" transform="translate(55,43)" />
<path d="M0 0 C0 4.15560231 -2.2820452 5.84099329 -5 8.6875 C-5.47695312 9.19861328 -5.95390625 9.70972656 -6.4453125 10.23632812 C-7.62359915 11.49709484 -8.81095253 12.74937686 -10 14 C-10.33 13.34 -10.66 12.68 -11 12 C-3.70159453 3.55353075 -3.70159453 3.55353075 0 0 Z " fill="#524D41" transform="translate(88,52)" />
<path d="M0 0 C3 1 3 1 4.8125 3.8125 C6 7 6 7 5.1875 9.375 C4.795625 9.91125 4.40375 10.4475 4 11 C4 9.68 4 8.36 4 7 C2.68 6.67 1.36 6.34 0 6 C0 4.02 0 2.04 0 0 Z " fill="#5E5A4A" transform="translate(89,36)" />
<path d="M0 0 C-0.66 1.32 -1.32 2.64 -2 4 C-2.99 4 -3.98 4 -5 4 C-5 4.99 -5 5.98 -5 7 C-6.875 7.625 -6.875 7.625 -9 8 C-9.66 7.34 -10.32 6.68 -11 6 C-9.54550599 4.9944239 -8.08627557 3.99569565 -6.625 3 C-6.21894531 2.7215625 -6.21894531 2.7215625 -4.1640625 1.3125 C-2 0 -2 0 0 0 Z " fill="#E4E4EA" transform="translate(57,48)" />
<path d="M0 0 C0.66 0 1.32 0 2 0 C2.66 0.66 3.32 1.32 4 2 C3.75 4.0625 3.75 4.0625 3 6 C2.67 6.165 2.67 6.165 1 7 C0.34 6.67 -0.32 6.34 -1 6 C-1.042721 4.33388095 -1.04063832 2.66617115 -1 1 C-0.67 0.67 -0.34 0.34 0 0 Z " fill="#6C5437" transform="translate(46,65)" />
<path d="M0 0 C2.64 0.99 5.28 1.98 8 3 C7.67 3.66 7.34 4.32 7 5 C1.25 4.125 1.25 4.125 -1 3 C-0.67 2.01 -0.34 1.02 0 0 Z " fill="#766246" transform="translate(34,70)" />
<path d="M0 0 C0.515625 0.268125 1.03125 0.53625 1.5625 0.8125 C4.66401415 2.32349407 7.82262806 3.65572726 11 5 C7.30962722 6.37095624 5.29116165 5.60010967 1.75 4.0625 C0.85796875 3.68222656 -0.0340625 3.30195312 -0.953125 2.91015625 C-1.62859375 2.60980469 -2.3040625 2.30945312 -3 2 C-2.01 1.34 -1.02 0.68 0 0 Z " fill="#ABB2B5" transform="translate(33,48)" />
<path d="M0 0 C3 0 3 0 4.6875 1.3125 C6 3 6 3 6 6 C4.02 5.34 2.04 4.68 0 4 C0 2.68 0 1.36 0 0 Z " fill="#8C6734" transform="translate(17,56)" />
<path d="M0 0 C0.66 0.33 1.32 0.66 2 1 C1.67 2.65 1.34 4.3 1 6 C1.99 6.66 2.98 7.32 4 8 C2.02 8.33 0.04 8.66 -2 9 C-2 5.61976483 -1.12544378 3.16531063 0 0 Z " fill="#A4A8AB" transform="translate(54,65)" />
<path d="M0 0 C0.825 0.33 0.825 0.33 5 2 C3.6875 4 3.6875 4 2 6 C1.01 6 0.02 6 -1 6 C-0.67 4.02 -0.34 2.04 0 0 Z " fill="#5C584E" transform="translate(40,23)" />
<path d="M0 0 C4.875 1.875 4.875 1.875 6 3 C6.14115161 5.67058851 6.04247107 8.32432238 6 11 C5.67 11 5.34 11 5 11 C4.731875 9.9275 4.46375 8.855 4.1875 7.75 C3.13772173 4.43491072 2.25387672 2.56122354 0 0 Z " fill="#E1E8EB" transform="translate(46,57)" />
<path d="M0 0 C-1.0975223 2.99324263 -1.67682892 3.84610901 -4.625 5.25 C-5.40875 5.4975 -6.1925 5.745 -7 6 C-7 5.01 -7 4.02 -7 3 C-2.77777778 0 -2.77777778 0 0 0 Z " fill="#ECECF4" transform="translate(34,36)" />
<path d="M0 0 C1.67542976 0.28604898 3.34385343 0.61781233 5 1 C5 1.66 5 2.32 5 3 C3.02 3.33 1.04 3.66 -1 4 C-1 1 -1 1 0 0 Z " fill="#F1F8FB" transform="translate(55,18)" />
<path d="M0 0 C0.66 0 1.32 0 2 0 C2 1.98 2 3.96 2 6 C1.01 6.33 0.02 6.66 -1 7 C-1.66 6.67 -2.32 6.34 -3 6 C-3 5.34 -3 4.68 -3 4 C-2.34 4 -1.68 4 -1 4 C-0.67 2.68 -0.34 1.36 0 0 Z " fill="#845B23" transform="translate(37,63)" />
<path d="M0 0 C1.98 0 3.96 0 6 0 C6.66 1.32 7.32 2.64 8 4 C6.68 4 5.36 4 4 4 C4 3.34 4 2.68 4 2 C2.68 1.34 1.36 0.68 0 0 Z " fill="#EEE9E6" transform="translate(56,17)" />
<path d="M0 0 C1.98 0.66 3.96 1.32 6 2 C6 2.66 6 3.32 6 4 C3 5 3 5 0 4 C0 2.68 0 1.36 0 0 Z " fill="#A97D40" transform="translate(42,61)" />
<path d="M0 0 C0.33 0.66 0.66 1.32 1 2 C1.99 2.33 2.98 2.66 4 3 C3 4 3 4 1.15234375 4.09765625 C-0.8984375 4.06510417 -2.94921875 4.03255208 -5 4 C-3.35 2.68 -1.7 1.36 0 0 Z " fill="#DADFE6" transform="translate(32,41)" />
<path d="M0 0 C1.27875 0.103125 2.5575 0.20625 3.875 0.3125 C4.23464844 0.34150391 4.23464844 0.34150391 6.0546875 0.48828125 C8 1 8 1 10 4 C8.51882199 3.71872579 7.04006751 3.42466268 5.5625 3.125 C4.73878906 2.96257813 3.91507812 2.80015625 3.06640625 2.6328125 C2.38449219 2.42398437 1.70257813 2.21515625 1 2 C0.67 1.34 0.34 0.68 0 0 Z " fill="#FAF1D9" transform="translate(75,23)" />
<path d="M0 0 C2.00720923 0.28674418 4.0085944 0.61866701 6 1 C6 2.65 6 4.3 6 6 C5.401875 5.54625 4.80375 5.0925 4.1875 4.625 C2.49409348 3.36704087 0.75522914 2.17015276 -1 1 C-0.67 0.67 -0.34 0.34 0 0 Z " fill="#CE9954" transform="translate(39,64)" />
</svg>