<?xml version='1.0' encoding='utf-8'?>
<svg xmlns="http://www.w3.org/2000/svg" version="1.1" width="104" height="103">
<path d="M0 0 C1.52519276 0.08937803 3.04681929 0.24537146 4.5625 0.4375 C5.38878906 0.53933594 6.21507812 0.64117187 7.06640625 0.74609375 C7.70449219 0.82988281 8.34257813 0.91367187 9 1 C9.165 1.495 9.165 1.495 10 4 C10.99 4.33 11.98 4.66 13 5 C14.44870685 7.326711 15.75791683 9.57114911 17 12 C17.18111328 12.2990625 17.18111328 12.2990625 18.09765625 13.8125 C20.66878256 20.04553347 19.91903815 28.76028058 17.4375 34.9375 C12.40899977 44.34847785 4.63000197 48.40255252 -5.203125 51.75 C-14.95960218 54.51561558 -25.33132468 53.28891015 -34.1875 48.4375 C-40.93892966 44.07454781 -46.09286326 37.81410028 -48.56640625 30.1015625 C-49.9609216 23.34256018 -49.62712952 16.99101738 -46 11 C-43.74927533 7.60390656 -41.41149217 4.28359344 -39 1 C-37.68 1.33 -36.36 1.66 -35 2 C-35.886875 2.61875 -36.77375 3.2375 -37.6875 3.875 C-43.60238872 8.86481133 -46.11100788 15.56447385 -46.8125 23.125 C-46.89572798 24.7490703 -46.96599942 26.374154 -47 28 C-46.34 28 -45.68 28 -45 28 C-45 28.66 -45 29.32 -45 30 C-44.34 30 -43.68 30 -43 30 C-43 30.99 -43 31.98 -43 33 C-34.58481953 34.52016163 -26.5511272 35.27733386 -18 35 C-18.24492188 34.4328125 -18.48984375 33.865625 -18.7421875 33.28125 C-19 31 -19 31 -17.3828125 28.78125 C-16.63773438 28.0284375 -15.89265625 27.275625 -15.125 26.5 C-10.62716576 21.92380628 -10.62716576 21.92380628 -10 18 C-9.835 17.505 -9.835 17.505 -9 15 C-9.66 14.67 -10.32 14.34 -11 14 C-10.67 13.34 -10.34 12.68 -10 12 C-9.34 12 -8.68 12 -8 12 C-7.835 12.99 -7.835 12.99 -7 18 C-5.51988629 17.69201674 -4.04092675 17.378482 -2.5625 17.0625 C-2.15064453 16.97548828 -2.15064453 16.97548828 -0.06640625 16.53515625 C2 16 2 16 3 15 C2.01 14.34 1.02 13.68 0 13 C1.98 12.67 3.96 12.34 6 12 C5.25 9.625 5.25 9.625 4 7 C2.67479497 6.31731862 1.34187818 5.6492959 0 5 C-0.8125 2.9375 -0.8125 2.9375 -1 1 C-0.67 0.67 -0.34 0.34 0 0 Z " fill="#B81908" transform="translate(67,33)" />
<path d="M0 0 C-2.75 4.875 -2.75 4.875 -5 6 C-5.33 6.99 -5.66 7.98 -6 9 C-2.55585663 10.17152089 -1.27535753 10.12791926 2.0859375 8.56640625 C4.2736904 7.23348792 6.46119163 5.90015642 8.6484375 4.56640625 C12.48211665 2.77467509 14.81514094 2.54092193 19 3 C21.546875 4.0234375 21.546875 4.0234375 23.75 5.375 C24.48734375 5.81585938 25.2246875 6.25671875 25.984375 6.7109375 C27.66867495 7.78810608 29.33649059 8.89099373 31 10 C31 10.66 31 11.32 31 12 C32.32 12.33 33.64 12.66 35 13 C32.71046511 15.28953489 31.54484795 15.52413358 28.4375 16.1875 C27.63183594 16.36667969 26.82617188 16.54585937 25.99609375 16.73046875 C25.33738281 16.81941406 24.67867187 16.90835938 24 17 C23 16 23 16 22.9375 12.9375 C22.958125 11.968125 22.97875 10.99875 23 10 C22.34 10 21.68 10 21 10 C21.20625 10.886875 21.4125 11.77375 21.625 12.6875 C22.05544867 16.48979658 21.88514669 17.7009933 20 21 C17.76256662 23.7581264 15.4155224 26.39717774 13 29 C13.33 29.66 13.66 30.32 14 31 C13.67 31.66 13.34 32.32 13 33 C4.64188815 34.42363444 -4.22809515 34.88595242 -12 31 C-12 30.01 -12 29.02 -12 28 C-12.66 28 -13.32 28 -14 28 C-14 27.34 -14 26.68 -14 26 C-14.66 26 -15.32 26 -16 26 C-16.70099622 17.80613308 -15.70604449 11.84963544 -11 5 C-7.84860415 1.33712105 -5.01223272 -0.73709305 0 0 Z " fill="#E44227" transform="translate(36,35)" />
<path d="M0 0 C0.721875 0.00257812 1.44375 0.00515625 2.1875 0.0078125 C2.909375 0.00523438 3.63125 0.00265625 4.375 0 C6.1875 0.1328125 6.1875 0.1328125 7.1875 1.1328125 C7.22830783 3.13239614 7.23004356 5.13326504 7.1875 7.1328125 C8.21875 7.0296875 9.25 6.9265625 10.3125 6.8203125 C15.91050445 6.78025522 20.76437662 8.94701723 25.91796875 10.94140625 C28.70074743 11.95544149 31.27382409 12.65543057 34.1875 13.1328125 C33.8575 14.4528125 33.5275 15.7728125 33.1875 17.1328125 C32.1975 17.2978125 32.1975 17.2978125 27.1875 18.1328125 C27.0225 17.8028125 27.0225 17.8028125 26.1875 16.1328125 C24.12109375 15.71875 24.12109375 15.71875 21.625 15.5078125 C20.79871094 15.43304688 19.97242188 15.35828125 19.12109375 15.28125 C18.48300781 15.23226562 17.84492187 15.18328125 17.1875 15.1328125 C17.52734375 17.0390625 17.52734375 17.0390625 18.1875 19.1328125 C19.033125 19.6278125 19.87875 20.1228125 20.75 20.6328125 C21.554375 21.1278125 22.35875 21.6228125 23.1875 22.1328125 C23.1875 23.4528125 23.1875 24.7728125 23.1875 26.1328125 C20.75 27.0078125 20.75 27.0078125 17.1875 27.1328125 C14.70027524 25.79614069 12.50400608 24.26078766 10.23828125 22.578125 C6.32343748 19.81909225 2.85756438 19.77620717 -1.8125 20.1328125 C-5.234375 21.69921875 -5.234375 21.69921875 -8.5625 23.6953125 C-11.921875 25.69921875 -11.921875 25.69921875 -14.8125 27.1328125 C-17.8125 26.1328125 -17.8125 26.1328125 -19.8125 25.1328125 C-19.27023019 21.33692384 -17.61122437 19.66069257 -14.8125 17.1328125 C-15.58335938 17.03484375 -16.35421875 16.936875 -17.1484375 16.8359375 C-18.15132812 16.68640625 -19.15421875 16.536875 -20.1875 16.3828125 C-21.18523438 16.24359375 -22.18296875 16.104375 -23.2109375 15.9609375 C-25.8125 15.1328125 -25.8125 15.1328125 -27.1640625 13.0546875 C-27.27105469 12.73757812 -27.27105469 12.73757812 -27.8125 11.1328125 C-26.04842871 9.36874121 -23.45681508 9.50655924 -21.0625 9.1328125 C-15.09150288 8.19157157 -15.09150288 8.19157157 -12.16015625 7.57421875 C-9.02772293 6.98525874 -5.99099928 7.07048898 -2.8125 7.1328125 C-2.833125 6.1634375 -2.85375 5.1940625 -2.875 4.1953125 C-2.79355894 0.20470044 -2.79355894 0.20470044 0 0 Z " fill="#5A7122" transform="translate(49.8125,18.8671875)" />
<path d="M0 0 C2.97 0.33 5.94 0.66 9 1 C9.165 1.495 9.165 1.495 10 4 C10.99 4.33 11.98 4.66 13 5 C14.44870685 7.326711 15.75791683 9.57114911 17 12 C17.18111328 12.2990625 17.18111328 12.2990625 18.09765625 13.8125 C20.66878256 20.04553347 19.91903815 28.76028058 17.4375 34.9375 C12.40899977 44.34847785 4.63000197 48.40255252 -5.203125 51.75 C-14.95960218 54.51561558 -25.33132468 53.28891015 -34.1875 48.4375 C-40.93892966 44.07454781 -46.09286326 37.81410028 -48.56640625 30.1015625 C-49.9609216 23.34256018 -49.62712952 16.99101738 -46 11 C-43.74927533 7.60390656 -41.41149217 4.28359344 -39 1 C-37.68 1.33 -36.36 1.66 -35 2 C-35.886875 2.61875 -36.77375 3.2375 -37.6875 3.875 C-42.81282485 8.23335225 -45.5853525 13.66717293 -46.4140625 20.328125 C-46.59297195 27.45197395 -46.05785757 32.52454955 -41.2265625 38.015625 C-33.15012777 45.21357034 -20.22122165 45 -10 45 C-8.328451 44.69208308 -6.66194453 44.35613097 -5 44 C-4.5771875 43.9484375 -4.5771875 43.9484375 -2.4375 43.6875 C0.62602551 42.8234287 1.85112321 41.29213524 4 39 C4.99 38.67 5.98 38.34 7 38 C8.1875 34.9375 8.1875 34.9375 9 32 C9.66 32 10.32 32 11 32 C10.67 34.31 10.34 36.62 10 39 C13.88926201 35.66634685 15.7916286 32.13372309 16.29296875 27 C16.4661633 19.87428143 16.3073994 13.24794111 11.75 7.39453125 C9.40716504 5.52758464 7.20891487 5.02808485 4.3125 4.3125 C3.31863281 4.06113281 2.32476562 3.80976562 1.30078125 3.55078125 C0.54152344 3.36902344 -0.21773437 3.18726563 -1 3 C-0.67 2.01 -0.34 1.02 0 0 Z " fill="#6A1706" transform="translate(67,33)" />
<path d="M0 0 C0 1.32 0 2.64 0 4 C0.99 4.33 1.98 4.66 3 5 C3.17647059 15.58823529 3.17647059 15.58823529 0.125 19.25 C-4.51959296 21.85097206 -8.79703293 21.89059797 -14 21 C-17.84233813 18.46405683 -18.763456 16.94617598 -19.875 12.5 C-19.98545475 9.40726707 -19.80986267 6.96949647 -19 4 C-18.27941406 4.21527344 -17.55882812 4.43054687 -16.81640625 4.65234375 C-13.32143945 5.08376129 -11.96242384 4.2876884 -8.9375 2.5625 C-5.40937069 0.56739452 -4.19930741 0 0 0 Z " fill="#F07C5B" transform="translate(49,40)" />
<path d="M0 0 C1.67542976 0.28604898 3.34385343 0.61781233 5 1 C4.67 2.98 4.34 4.96 4 7 C5.65 7 7.3 7 9 7 C9 7.66 9 8.32 9 9 C7.02 9 5.04 9 3 9 C3 9.66 3 10.32 3 11 C4.98 11 6.96 11 9 11 C9 11.99 9 12.98 9 14 C9.99 14 10.98 14 12 14 C13.34919532 15.65385233 14.68133728 17.321702 16 19 C18.25 20.3125 18.25 20.3125 20 21 C20 21.66 20 22.32 20 23 C15.29298514 22.41162314 9.44104424 20.44104424 6 17 C-0.89552117 16.3432837 -4.62686599 17.55962879 -10.625 20.88671875 C-13.98616531 22.46226499 -16.35390434 22.39631475 -20 22 C-19.02133662 20.85373678 -18.04205413 19.70800212 -17.0625 18.5625 C-16.51722656 17.92441406 -15.97195312 17.28632812 -15.41015625 16.62890625 C-14.63204305 15.73008851 -13.84063472 14.84063472 -13 14 C-13.39123047 13.97550781 -13.39123047 13.97550781 -15.37109375 13.8515625 C-16.38300781 13.77679688 -17.39492188 13.70203125 -18.4375 13.625 C-19.44683594 13.55539063 -20.45617187 13.48578125 -21.49609375 13.4140625 C-22.32238281 13.27742188 -23.14867188 13.14078125 -24 13 C-24.33 12.34 -24.66 11.68 -25 11 C-24.43152344 10.87882812 -23.86304687 10.75765625 -23.27734375 10.6328125 C-19.60224135 9.83521098 -16.02777272 9.00877033 -12.4375 7.875 C-8.42407373 6.85340059 -5.1259184 6.85523093 -1 7 C-1.020625 6.030625 -1.04125 5.06125 -1.0625 4.0625 C-1 1 -1 1 0 0 Z " fill="#558321" transform="translate(50,20)" />
<path d="M0 0 C-2.75 4.875 -2.75 4.875 -5 6 C-6.48641824 11.58605563 -6.14889532 16.62776169 -4 22 C-2.23136177 24.39549735 -1.38991392 24.94010358 1.59375 25.3984375 C2.5528125 25.39070313 3.511875 25.38296875 4.5 25.375 C5.4590625 25.38273437 6.418125 25.39046875 7.40625 25.3984375 C10.38038806 24.94156689 11.08190002 24.21049327 13 22 C13.66 22 14.32 22 15 22 C15 18.04 15 14.08 15 10 C14.34 9.67 13.68 9.34 13 9 C13 7.68 13 6.36 13 5 C14.32 5.33 15.64 5.66 17 6 C17.98120464 9.05263664 17.98120464 10.94736336 17 14 C17.66 14 18.32 14 19 14 C18.93426543 17.28672834 18.7665989 19.95429066 16.77490234 22.67114258 C12.28441896 26.91155551 8.77924814 27.7107525 2.66210938 27.67382812 C1.68048828 27.63708984 0.69886719 27.60035156 -0.3125 27.5625 C-1.31345703 27.56056641 -2.31441406 27.55863281 -3.34570312 27.55664062 C-8.75560771 27.45801306 -8.75560771 27.45801306 -11 27 C-13.99370474 22.50944289 -14.4632642 17.47434577 -14.421875 12.09375 C-13.00331662 5.05349728 -7.07992769 -0.38269879 0 0 Z " fill="#E95233" transform="translate(36,35)" />
<path d="M0 0 C2.97 0.33 5.94 0.66 9 1 C9.165 1.495 9.165 1.495 10 4 C10.99 4.33 11.98 4.66 13 5 C14.44870685 7.326711 15.75791683 9.57114911 17 12 C17.18111328 12.2990625 17.18111328 12.2990625 18.09765625 13.8125 C20.66878256 20.04553347 19.91903815 28.76028058 17.4375 34.9375 C12.40899977 44.34847785 4.63000197 48.40255252 -5.203125 51.75 C-11.48052949 53.52942174 -17.66655665 53.58336084 -24 52 C-24 51.67 -24 51.34 -24 51 C-22.96101563 50.97421875 -21.92203125 50.9484375 -20.8515625 50.921875 C-13.25709343 50.64393967 -6.7986682 50.1634335 0.1796875 46.83984375 C2 46 2 46 4 46 C4 45.34 4 44.68 4 44 C4.99 44 5.98 44 7 44 C7.0825 43.38125 7.165 42.7625 7.25 42.125 C8 40 8 40 9.90625 39.07421875 C12.9720992 37.50125508 13.82712591 35.60512006 15.23828125 32.54296875 C17.61352697 24.61330227 16.65736089 16.31472179 13 9 C10.57472931 5.88504295 8.08209561 5.24381186 4.3125 4.3125 C3.31863281 4.06113281 2.32476562 3.80976562 1.30078125 3.55078125 C0.92115234 3.45990234 0.92115234 3.45990234 -1 3 C-0.67 2.01 -0.34 1.02 0 0 Z " fill="#59150B" transform="translate(67,33)" />
<path d="M0 0 C0.721875 0.00257812 1.44375 0.00515625 2.1875 0.0078125 C2.909375 0.00523438 3.63125 0.00265625 4.375 0 C6.1875 0.1328125 6.1875 0.1328125 7.1875 1.1328125 C7.22830783 3.13239614 7.23004356 5.13326504 7.1875 7.1328125 C8.30125 7.0503125 9.415 6.9678125 10.5625 6.8828125 C15.94257006 6.84424569 20.36970303 8.92136471 25.1875 11.1328125 C22.36338235 12.07418505 20.65831968 12.25006632 17.73828125 12.23046875 C16.89072266 12.22724609 16.04316406 12.22402344 15.16992188 12.22070312 C14.28884766 12.21232422 13.40777344 12.20394531 12.5 12.1953125 C11.60732422 12.19080078 10.71464844 12.18628906 9.79492188 12.18164062 C7.59238013 12.16986233 5.38997401 12.15341414 3.1875 12.1328125 C3.1875 11.4728125 3.1875 10.8128125 3.1875 10.1328125 C5.1675 10.1328125 7.1475 10.1328125 9.1875 10.1328125 C9.1875 9.4728125 9.1875 8.8128125 9.1875 8.1328125 C7.5375 8.1328125 5.8875 8.1328125 4.1875 8.1328125 C4.1875 6.1528125 4.1875 4.1728125 4.1875 2.1328125 C2.8675 2.1328125 1.5475 2.1328125 0.1875 2.1328125 C-0.1425 4.1128125 -0.4725 6.0928125 -0.8125 8.1328125 C-1.21662109 8.19339844 -1.21662109 8.19339844 -3.26171875 8.5 C-4.33035156 8.66757812 -5.39898437 8.83515625 -6.5 9.0078125 C-7.55574219 9.17023437 -8.61148438 9.33265625 -9.69921875 9.5 C-12.62008262 10.09370131 -15.07403227 10.98561656 -17.8125 12.1328125 C-19.8049325 12.50874316 -21.8043674 12.85260795 -23.8125 13.1328125 C-19.8525 13.4628125 -15.8925 13.7928125 -11.8125 14.1328125 C-12.1425 14.7928125 -12.4725 15.4528125 -12.8125 16.1328125 C-14.93829013 16.07293109 -17.06328413 15.98418506 -19.1875 15.8828125 C-19.77917969 15.85960937 -19.77917969 15.85960937 -22.7734375 15.7421875 C-25.8125 15.1328125 -25.8125 15.1328125 -27.2265625 13.0859375 C-27.41992188 12.44140625 -27.61328125 11.796875 -27.8125 11.1328125 C-26.04842871 9.36874121 -23.45681508 9.50655924 -21.0625 9.1328125 C-15.09150288 8.19157157 -15.09150288 8.19157157 -12.16015625 7.57421875 C-9.02772293 6.98525874 -5.99099928 7.07048898 -2.8125 7.1328125 C-2.833125 6.1634375 -2.85375 5.1940625 -2.875 4.1953125 C-2.79355894 0.20470044 -2.79355894 0.20470044 0 0 Z " fill="#3C4E13" transform="translate(49.8125,18.8671875)" />
<path d="M0 0 C0.7940625 0.01417969 1.588125 0.02835938 2.40625 0.04296875 C2.80328125 0.04619141 2.80328125 0.04619141 4.8125 0.0625 C6.90625 0.23046875 6.90625 0.23046875 8.90625 1.23046875 C9.3203125 3.296875 9.3203125 3.296875 9.53125 5.79296875 C9.60601562 6.61925781 9.68078125 7.44554687 9.7578125 8.296875 C9.80679688 8.93496094 9.85578125 9.57304688 9.90625 10.23046875 C6.13227907 12.89444823 3.53857775 13.93538819 -1.09375 13.23046875 C-2.96875 11.66796875 -2.96875 11.66796875 -4.09375 9.23046875 C-4.40625 5.60546875 -4.40625 5.60546875 -4.09375 2.23046875 C-2.09375 0.23046875 -2.09375 0.23046875 0 0 Z " fill="#F0967E" transform="translate(38.09375,43.76953125)" />
<path d="M0 0 C0.33 0 0.66 0 1 0 C1.13277344 0.84304687 1.26554687 1.68609375 1.40234375 2.5546875 C1.57894531 3.65039062 1.75554688 4.74609375 1.9375 5.875 C2.11152344 6.96554688 2.28554688 8.05609375 2.46484375 9.1796875 C3 12 3 12 4 14 C5.84765625 14.4140625 5.84765625 14.4140625 8.0625 14.625 C9.361875 14.74875 10.66125 14.8725 12 15 C12 15.99 12 16.98 12 18 C17.61 18 23.22 18 29 18 C28.67 18.99 28.34 19.98 28 21 C10.65217391 22.82608696 10.65217391 22.82608696 3 19 C3 18.01 3 17.02 3 16 C2.34 16 1.68 16 1 16 C1 15.34 1 14.68 1 14 C0.34 14 -0.32 14 -1 14 C-1.02705729 12.22925083 -1.04642195 10.45838289 -1.0625 8.6875 C-1.07410156 7.70136719 -1.08570312 6.71523438 -1.09765625 5.69921875 C-1 3 -1 3 0 0 Z " fill="#CF3410" transform="translate(21,47)" />
<path d="M0 0 C4.28379131 1.92032024 6.3670182 3.46751775 8.1875 7.875 C10.04943222 15.45113798 10.35845622 23.39351194 6.5 30.3125 C5.69390903 31.55970186 4.87048857 32.79686044 4 34 C3.01 34 2.02 34 1 34 C1.33 32.845 1.33 32.845 3 27 C2.01 27 1.02 27 0 27 C2 23 2 23 3.03125 21.28125 C4.31616344 18.25548609 4.42860417 15.52326386 4.625 12.25 C4.69976562 11.07953125 4.77453125 9.9090625 4.8515625 8.703125 C4.90054688 7.81109375 4.94953125 6.9190625 5 6 C4.35546875 5.71382812 3.7109375 5.42765625 3.046875 5.1328125 C1 4 1 4 0.25 1.875 C0.1675 1.25625 0.085 0.6375 0 0 Z " fill="#9E1913" transform="translate(75,38)" />
<path d="M0 0 C-2.75 4.875 -2.75 4.875 -5 6 C-5.33 6.495 -5.33 6.495 -7 9 C-7.33 8.01 -7.66 7.02 -8 6 C-8.66 6 -9.32 6 -10 6 C-10 9.63 -10 13.26 -10 17 C-9.34 17.33 -8.68 17.66 -8 18 C-7.32215008 20.33010909 -6.65583207 22.66359824 -6 25 C-5.34 25.66 -4.68 26.32 -4 27 C-7.375 27.1875 -7.375 27.1875 -11 27 C-13.99370474 22.50944289 -14.4632642 17.47434577 -14.421875 12.09375 C-13.00331662 5.05349728 -7.07992769 -0.38269879 0 0 Z " fill="#E44E1F" transform="translate(36,35)" />
<path d="M0 0 C3.5625 1.75 3.5625 1.75 5.2265625 2.84375 C7.22968716 4.14975198 9.29193094 5.19603625 11.4375 6.25 C12.613125 6.8275 13.78875 7.405 15 8 C14.67 8.66 14.34 9.32 14 10 C9.58594558 9.59872233 7.040988 7.79660605 3.6484375 5.15625 C-0.05034863 2.56184077 -3.63637705 2.66679448 -8 3 C-11.421875 4.56640625 -11.421875 4.56640625 -14.75 6.5625 C-18.109375 8.56640625 -18.109375 8.56640625 -21 10 C-24 9 -24 9 -26 8 C-26 7.34 -26 6.68 -26 6 C-25.7215625 5.95101562 -25.7215625 5.95101562 -24.3125 5.703125 C-20.16968446 4.89135709 -16.68404108 3.96955561 -13 1.875 C-8.66524657 -0.41733482 -4.82756878 -0.87455956 0 0 Z " fill="#755813" transform="translate(56,36)" />
<path d="M0 0 C7.78402571 -0.82808784 12.70411277 2.80274184 19 7 C19 7.66 19 8.32 19 9 C20.32 9.33 21.64 9.66 23 10 C20.71046511 12.28953489 19.54484795 12.52413358 16.4375 13.1875 C15.63183594 13.36667969 14.82617188 13.54585937 13.99609375 13.73046875 C13.66673828 13.77494141 13.66673828 13.77494141 12 14 C11 13 11 13 10.9375 9.9375 C10.9478125 9.4528125 10.9478125 9.4528125 11 7 C10.34 7 9.68 7 9 7 C8.67 7.66 8.34 8.32 8 9 C8.33 6.69 8.66 4.38 9 2 C6.03 1.67 3.06 1.34 0 1 C0 0.67 0 0.34 0 0 Z " fill="#D62B18" transform="translate(48,38)" />
<path d="M0 0 C0.66 0 1.32 0 2 0 C1.53898164 4.70238725 0.96823597 8.23262357 -2 12 C-2.99 12 -3.98 12 -5 12 C-5 12.66 -5 13.32 -5 14 C-8.4766338 16.14336161 -11.21229195 16.21277626 -15.25 16.125 C-16.32765625 16.10695313 -17.4053125 16.08890625 -18.515625 16.0703125 C-19.33546875 16.04710938 -20.1553125 16.02390625 -21 16 C-19.7421875 13.99609375 -19.7421875 13.99609375 -18 12 C-15.99798262 12.0322906 -13.99492897 12.0701372 -11.99609375 12.1875 C-8.61039143 11.86946925 -7.10720751 9.46844308 -5 7 C-4.01 6.67 -3.02 6.34 -2 6 C-0.8125 2.9375 -0.8125 2.9375 0 0 Z " fill="#870301" transform="translate(76,65)" />
<path d="M0 0 C0.66 0.33 1.32 0.66 2 1 C2.33 1.99 2.66 2.98 3 4 C4.32 3.34 5.64 2.68 7 2 C7 2.99 7 3.98 7 5 C1.18524285 8.27591952 -3.24520726 10.7342166 -10 10 C-3.84965831 2.51708428 -3.84965831 2.51708428 0 0 Z " fill="#7E9727" transform="translate(40,32)" />
<path d="M0 0 C0.66 0.99 1.32 1.98 2 3 C4.609375 3.625 4.609375 3.625 7.75 4 C12.47646023 4.67033931 15.94142453 5.51975943 20 8 C17.17588235 8.94137255 15.47081968 9.11725382 12.55078125 9.09765625 C11.70322266 9.09443359 10.85566406 9.09121094 9.98242188 9.08789062 C9.10134766 9.07951172 8.22027344 9.07113281 7.3125 9.0625 C6.41982422 9.05798828 5.52714844 9.05347656 4.60742188 9.04882812 C2.40488013 9.03704983 0.20247401 9.02060164 -2 9 C-2 8.34 -2 7.68 -2 7 C-0.02 7 1.96 7 4 7 C4 6.34 4 5.68 4 5 C2.35 5 0.7 5 -1 5 C-0.67 3.35 -0.34 1.7 0 0 Z " fill="#385010" transform="translate(55,22)" />
<path d="M0 0 C-2.75 4.875 -2.75 4.875 -5 6 C-5.33 6.495 -5.33 6.495 -7 9 C-7.33 8.01 -7.66 7.02 -8 6 C-8.66 6 -9.32 6 -10 6 C-10 8.64 -10 11.28 -10 14 C-11.32 14 -12.64 14 -14 14 C-13.71334273 8.123526 -11.08745753 4.93566865 -7 1 C-4.53721199 -0.231394 -2.7204945 -0.07159196 0 0 Z " fill="#CC5321" transform="translate(36,35)" />
<path d="M0 0 C0.99 0.33 1.98 0.66 3 1 C3.4485551 9.17367067 3.40744316 14.97563746 -1 22 C-1.66 22 -2.32 22 -3 22 C-2.93361328 21.70867187 -2.93361328 21.70867187 -2.59765625 20.234375 C-1.14906124 13.50951058 -0.44789343 6.85984142 0 0 Z " fill="#A23C39" transform="translate(81,49)" />
<path d="M0 0 C0.66 0 1.32 0 2 0 C4.68188857 4.02283286 4.37641079 7.34720991 4.55859375 12.08984375 C5.03873855 15.25540017 5.88023338 16.65412494 8 19 C6.125 18.6875 6.125 18.6875 4 18 C2 15 2 15 2 12 C1.01 11.67 0.02 11.34 -1 11 C-1.14285714 3.57142857 -1.14285714 3.57142857 0 0 Z " fill="#EF6333" transform="translate(26,41)" />
<path d="M0 0 C3 1 3 1 4.25 2.375 C6.83961486 4.77964237 9.72315134 5.701626 13 7 C13 7.66 13 8.32 13 9 C8.29298514 8.41162314 2.44104424 6.44104424 -1 3 C-2.51469448 2.76807135 -4.03754562 2.58784762 -5.5625 2.4375 C-6.38878906 2.35371094 -7.21507812 2.26992188 -8.06640625 2.18359375 C-8.70449219 2.12300781 -9.34257813 2.06242187 -10 2 C-10 1.34 -10 0.68 -10 0 C-6.78455056 -1.60772472 -3.42887101 -0.61108592 0 0 Z " fill="#667E1F" transform="translate(57,34)" />
<path d="M0 0 C0.66 0 1.32 0 2 0 C2 0.66 2 1.32 2 2 C2.66 2 3.32 2 4 2 C4 2.99 4 3.98 4 5 C4.66 5 5.32 5 6 5 C6.33 5.495 6.33 5.495 8 8 C8.825 8.474375 9.65 8.94875 10.5 9.4375 C13.22071581 11.13794738 13.73882925 12.15652705 15 15 C10.59847191 13.84318813 6.95226746 12.87901612 3.5625 9.75 C1.71561011 6.49947379 0.85480248 3.63291053 0 0 Z " fill="#9A1C07" transform="translate(20,61)" />
<path d="M0 0 C0.66 0 1.32 0 2 0 C1.67 1.65 1.34 3.3 1 5 C2.65 5 4.3 5 6 5 C6 5.66 6 6.32 6 7 C4.02 7 2.04 7 0 7 C0 7.66 0 8.32 0 9 C1.98 9 3.96 9 6 9 C6 9.99 6 10.98 6 12 C6.99 12 7.98 12 9 12 C10.6875 13.375 10.6875 13.375 12 15 C12 15.66 12 16.32 12 17 C11.175 16.67 11.175 16.67 7 15 C7 14.34 7 13.68 7 13 C6.05125 12.87625 5.1025 12.7525 4.125 12.625 C1 12 1 12 -1 10 C-1.23046875 7.87109375 -1.23046875 7.87109375 -1.1875 5.4375 C-1.18105469 4.63183594 -1.17460938 3.82617188 -1.16796875 2.99609375 C-1 1 -1 1 0 0 Z " fill="#588B18" transform="translate(53,22)" />
<path d="M0 0 C3 1 3 1 4 3 C3.01 3 2.02 3 1 3 C1.22860058 4.46184058 1.48370392 5.91955419 1.75 7.375 C1.88921875 8.18710937 2.0284375 8.99921875 2.171875 9.8359375 C3 12 3 12 4.79296875 13.28125 C7.19706725 14.06417765 9.04123533 14.20178979 11.5625 14.125 C12.32691406 14.10695313 13.09132813 14.08890625 13.87890625 14.0703125 C14.57886719 14.04710937 15.27882813 14.02390625 16 14 C16.99 14 17.98 14 19 14 C17.23488988 16.22711881 16.31533596 16.94142366 13.4765625 17.46875 C5.83707636 17.5524704 5.83707636 17.5524704 1.875 14.9375 C-0.87448389 10.62997523 -1.30970104 7.07942125 -0.5625 2.0625 C-0.376875 1.381875 -0.19125 0.70125 0 0 Z " fill="#EB6A43" transform="translate(30,44)" />
<path d="M0 0 C-0.66 0.33 -0.66 0.33 -4 2 C-3.01 2 -2.02 2 -1 2 C-1 2.66 -1 3.32 -1 4 C-4.99495266 5.92349572 -7.85538466 6.16131868 -12.25 5.75 C-13.30703125 5.66234375 -14.3640625 5.5746875 -15.453125 5.484375 C-16.29359375 5.32453125 -17.1340625 5.1646875 -18 5 C-18.33 4.34 -18.66 3.68 -19 3 C-18.38511719 2.86722656 -17.77023438 2.73445313 -17.13671875 2.59765625 C-16.32847656 2.42105469 -15.52023438 2.24445312 -14.6875 2.0625 C-13.88699219 1.88847656 -13.08648437 1.71445312 -12.26171875 1.53515625 C-7.92504194 0.5090341 -4.52413829 -0.0853611 0 0 Z " fill="#6B902E" transform="translate(44,28)" />
<path d="M0 0 C2.31 0.165 2.31 0.165 14 1 C14.33 2.32 14.66 3.64 15 5 C9.72 4.67 4.44 4.34 -1 4 C-0.67 2.68 -0.34 1.36 0 0 Z " fill="#8E0402" transform="translate(40,77)" />
<path d="M0 0 C0 1.32 0 2.64 0 4 C0.99 4.33 1.98 4.66 3 5 C3 7.64 3 10.28 3 13 C2.71125 12.401875 2.4225 11.80375 2.125 11.1875 C1 9 1 9 -1 6 C-3.3828125 5.26953125 -3.3828125 5.26953125 -6.125 4.8125 C-7.03507812 4.65394531 -7.94515625 4.49539062 -8.8828125 4.33203125 C-9.58148438 4.22246094 -10.28015625 4.11289062 -11 4 C-5 0 -5 0 0 0 Z " fill="#EA654B" transform="translate(49,40)" />
<path d="M0 0 C2.97 0.33 5.94 0.66 9 1 C9.33 1.99 9.66 2.98 10 4 C10.99 4.33 11.98 4.66 13 5 C15.24064723 7.32363416 15.96556146 8.49490144 16.1875 11.75 C16.1565625 12.12125 16.1565625 12.12125 16 14 C15.7525 13.4225 15.505 12.845 15.25 12.25 C13.22440394 8.60392709 11.14826952 6.42979921 7.203125 4.953125 C6.22859375 4.72109375 5.2540625 4.4890625 4.25 4.25 C3.26515625 4.00765625 2.2803125 3.7653125 1.265625 3.515625 C0.51796875 3.34546875 -0.2296875 3.1753125 -1 3 C-0.67 2.01 -0.34 1.02 0 0 Z " fill="#5E1D06" transform="translate(67,33)" />
<path d="M0 0 C0.33 0 0.66 0 1 0 C1.12117188 0.78503906 1.24234375 1.57007813 1.3671875 2.37890625 C2.27186083 8.05051213 3.2579299 13.52492254 5 19 C4.34 19 3.68 19 3 19 C3 18.01 3 17.02 3 16 C2.34 16 1.68 16 1 16 C1 15.34 1 14.68 1 14 C0.34 14 -0.32 14 -1 14 C-1.02705729 12.22925083 -1.04642195 10.45838289 -1.0625 8.6875 C-1.07410156 7.70136719 -1.08570312 6.71523438 -1.09765625 5.69921875 C-1 3 -1 3 0 0 Z " fill="#BB370E" transform="translate(21,47)" />
<path d="M0 0 C2 1.5 2 1.5 4 4 C4.35800135 6.75871627 4.18660165 9.20097524 4 12 C-0.64849515 14.3992233 -4.91086074 14.19957409 -10 14 C-10 13.67 -10 13.34 -10 13 C-8.01432292 12.77213542 -6.02864583 12.54427083 -4.04296875 12.31640625 C-2 12 -2 12 1 11 C0.67 7.37 0.34 3.74 0 0 Z " fill="#EC6D52" transform="translate(47,45)" />
<path d="M0 0 C0.27070313 0.22494141 0.27070313 0.22494141 1.640625 1.36328125 C4.26836455 3.1861668 6.73180147 4.14550289 9.75 5.1875 C10.24242187 5.35958984 10.24242187 5.35958984 12.734375 6.23046875 C13.48203125 6.48441406 14.2296875 6.73835938 15 7 C15 8.32 15 9.64 15 11 C14.01 10.835 14.01 10.835 9 10 C8.67 9.01 8.34 8.02 8 7 C7.4225 6.7628125 7.4225 6.7628125 4.5 5.5625 C1 4 1 4 0.0625 1.8125 C0.041875 1.214375 0.02125 0.61625 0 0 Z " fill="#780C02" transform="translate(24,70)" />
<path d="M0 0 C0.4846875 0.0103125 0.4846875 0.0103125 2.9375 0.0625 C3.31968767 1.71864657 3.65145102 3.38707024 3.9375 5.0625 C2.9375 6.0625 2.9375 6.0625 -0.125 6.125 C-1.094375 6.104375 -2.06375 6.08375 -3.0625 6.0625 C-3.44468767 4.40635343 -3.77645102 2.73792976 -4.0625 1.0625 C-3.0625 0.0625 -3.0625 0.0625 0 0 Z " fill="#FCE3D5" transform="translate(41.0625,46.9375)" />
<path d="M0 0 C3.5625 0.125 3.5625 0.125 5.5625 1.125 C5.6875 6.875 5.6875 6.875 4.5625 9.125 C1.125 9.875 1.125 9.875 -2.4375 10.125 C-4.4375 8.125 -4.4375 8.125 -4.625 4.5625 C-4.38483355 0.15944849 -4.38483355 0.15944849 0 0 Z M-2.4375 2.125 C-2.81968767 3.78114657 -3.15145102 5.44957024 -3.4375 7.125 C-2.4375 8.125 -2.4375 8.125 0.625 8.1875 C1.594375 8.166875 2.56375 8.14625 3.5625 8.125 C3.94468767 6.46885343 4.27645102 4.80042976 4.5625 3.125 C3.5625 2.125 3.5625 2.125 0.5 2.0625 C-0.469375 2.083125 -1.43875 2.10375 -2.4375 2.125 Z " fill="#F5B19C" transform="translate(40.4375,44.875)" />
<path d="M0 0 C2.05078125 0.03255208 4.1015625 0.06510417 6.15234375 0.09765625 C6.48234375 0.75765625 6.81234375 1.41765625 7.15234375 2.09765625 C5.17234375 2.42765625 3.19234375 2.75765625 1.15234375 3.09765625 C5.11234375 3.42765625 9.07234375 3.75765625 13.15234375 4.09765625 C12.82234375 4.75765625 12.49234375 5.41765625 12.15234375 6.09765625 C10.02655362 6.03777484 7.90155962 5.94902881 5.77734375 5.84765625 C5.18566406 5.82445312 5.18566406 5.82445312 2.19140625 5.70703125 C-0.84765625 5.09765625 -0.84765625 5.09765625 -2.26171875 3.05078125 C-2.45507812 2.40625 -2.6484375 1.76171875 -2.84765625 1.09765625 C-1.84765625 0.09765625 -1.84765625 0.09765625 0 0 Z " fill="#525514" transform="translate(24.84765625,28.90234375)" />
<path d="M0 0 C0.66 0.66 1.32 1.32 2 2 C0.75 4.9375 0.75 4.9375 -1 8 C-2.9375 8.625 -2.9375 8.625 -5 9 C-7.25 11.0625 -7.25 11.0625 -9 13 C-10.32 12.34 -11.64 11.68 -13 11 C-12.48050781 10.70867187 -11.96101563 10.41734375 -11.42578125 10.1171875 C-6.58707149 7.27299212 -3.35090767 4.50278218 0 0 Z " fill="#775744" transform="translate(82,70)" />
<path d="M0 0 C1.32 0.66 2.64 1.32 4 2 C3.67 5.96 3.34 9.92 3 14 C2.67 13.01 2.34 12.02 2 11 C1.01 11.33 0.02 11.66 -1 12 C-0.67 8.04 -0.34 4.08 0 0 Z " fill="#AE0E07" transform="translate(77,42)" />
<path d="M0 0 C8.43261861 -1.1805666 14.85310059 3.06519021 22 7 C21.67 7.66 21.34 8.32 21 9 C17.4807071 8.68006428 15.45458893 7.70599706 12.75 5.5625 C8.8113103 2.55414098 4.83174006 1.73407389 0 1 C0 0.67 0 0.34 0 0 Z " fill="#813104" transform="translate(49,37)" />
<path d="M0 0 C4.62 0 9.24 0 14 0 C11 3 11 3 8.30078125 3.29296875 C7.31464844 3.25816406 6.32851563 3.22335938 5.3125 3.1875 C4.31863281 3.16042969 3.32476562 3.13335937 2.30078125 3.10546875 C1.54152344 3.07066406 0.78226563 3.03585938 0 3 C0 2.01 0 1.02 0 0 Z " fill="#DE4C24" transform="translate(33,62)" />
<path d="M0 0 C1.79158489 -0.02696365 3.58328473 -0.04637917 5.375 -0.0625 C6.37273437 -0.07410156 7.37046875 -0.08570312 8.3984375 -0.09765625 C11 0 11 0 13 1 C13 2.98 13 4.96 13 7 C12.01 6.67 11.02 6.34 10 6 C10.33 5.01 10.66 4.02 11 3 C10.37351562 2.95101563 9.74703125 2.90203125 9.1015625 2.8515625 C8.28429687 2.77679687 7.46703125 2.70203125 6.625 2.625 C6.21894531 2.59019531 6.21894531 2.59019531 4.1640625 2.4140625 C2 2 2 2 0 0 Z " fill="#636A40" transform="translate(73,29)" />
<path d="M0 0 C3.125 -0.1875 3.125 -0.1875 6 0 C6 1.32 6 2.64 6 4 C4.845 4.495 4.845 4.495 -1 7 C-1.625 5.1875 -1.625 5.1875 -2 3 C-1.34 2.01 -0.68 1.02 0 0 Z " fill="#568F14" transform="translate(43,30)" />
<path d="M0 0 C0.33 0 0.66 0 1 0 C1.09038099 5.15171623 0.84681133 9.91913204 0 15 C-0.99 15 -1.98 15 -3 15 C-2.34 12.69 -1.68 10.38 -1 8 C-1.99 8 -2.98 8 -4 8 C-2.66666667 5.33333333 -1.33333333 2.66666667 0 0 Z " fill="#920E0A" transform="translate(79,57)" />
<path d="M0 0 C3.73487777 0.4979837 5.81237635 0.87491756 9 3 C9.6875 5.625 9.6875 5.625 10 8 C8.125 7.6875 8.125 7.6875 6 7 C5.34 6.01 4.68 5.02 4 4 C1.875 2.8125 1.875 2.8125 0 2 C0 1.34 0 0.68 0 0 Z " fill="#C92312" transform="translate(67,36)" />
<path d="M0 0 C2.31 0.66 4.62 1.32 7 2 C7 2.99 7 3.98 7 5 C7.56589844 5.12117188 8.13179687 5.24234375 8.71484375 5.3671875 C9.44832031 5.53476563 10.18179688 5.70234375 10.9375 5.875 C11.66839844 6.03742188 12.39929688 6.19984375 13.15234375 6.3671875 C15 7 15 7 16 9 C9.10285722 7.9857143 4.67891813 5.09176385 0 0 Z " fill="#632013" transform="translate(26,75)" />
<path d="M0 0 C2.68092691 2.68092691 2.38670257 4.39167363 2.625 8.125 C2.69976563 9.22070312 2.77453125 10.31640625 2.8515625 11.4453125 C2.90054687 12.28835937 2.94953125 13.13140625 3 14 C2.34 14 1.68 14 1 14 C-0.512545 8.83955235 -1.33500455 5.34001821 0 0 Z " fill="#DF4415" transform="translate(23,47)" />
<path d="M0 0 C0.66 0 1.32 0 2 0 C2.27714844 0.69867188 2.55429687 1.39734375 2.83984375 2.1171875 C3.20207031 3.02726562 3.56429688 3.93734375 3.9375 4.875 C4.29714844 5.77992187 4.65679688 6.68484375 5.02734375 7.6171875 C6 10 6 10 7 12 C6.01 12.33 5.02 12.66 4 13 C1.08410391 8.62615587 -0.30254716 5.29457529 0 0 Z " fill="#795E48" transform="translate(17,61)" />
<path d="M0 0 C1.815 0.33 1.815 0.33 11 2 C11 2.33 11 2.66 11 3 C8.195 3.165 8.195 3.165 -6 4 C-6 3.34 -6 2.68 -6 2 C-4.02 2 -2.04 2 0 2 C0 1.34 0 0.68 0 0 Z " fill="#3D6B0E" transform="translate(59,27)" />
<path d="M0 0 C0.1959375 0.2165625 0.1959375 0.2165625 1.1875 1.3125 C3 3 3 3 5.6875 4.4375 C6.450625 4.953125 7.21375 5.46875 8 6 C8 7.32 8 8.64 8 10 C6.68 9.34 5.36 8.68 4 8 C4.33 7.34 4.66 6.68 5 6 C4.175 5.67 4.175 5.67 0 4 C0 2.68 0 1.36 0 0 Z " fill="#9F5E19" transform="translate(65,35)" />
<path d="M0 0 C0.66 0 1.32 0 2 0 C3.36884358 4.51718381 2.47075246 7.58774263 1 12 C0.34 11.67 -0.32 11.34 -1 11 C-1.14285714 3.57142857 -1.14285714 3.57142857 0 0 Z " fill="#ED5A25" transform="translate(26,41)" />
<path d="M0 0 C0.99 0.33 1.98 0.66 3 1 C2.67 1.99 2.34 2.98 2 4 C1.01 4 0.02 4 -1 4 C-1 4.66 -1 5.32 -1 6 C-2.8125 7.0625 -2.8125 7.0625 -5 8 C-5.99 7.67 -6.98 7.34 -8 7 C-6.68 6.67 -5.36 6.34 -4 6 C-4 5.34 -4 4.68 -4 4 C-3.34 4 -2.68 4 -2 4 C-1.34 2.68 -0.68 1.36 0 0 Z " fill="#720501" transform="translate(72,73)" />
<path d="M0 0 C0.66 0 1.32 0 2 0 C1.67 1.65 1.34 3.3 1 5 C2.65 5 4.3 5 6 5 C6 5.66 6 6.32 6 7 C3.69 7 1.38 7 -1 7 C-1.04254356 5.00045254 -1.04080783 2.99958364 -1 1 C-0.67 0.67 -0.34 0.34 0 0 Z " fill="#51771A" transform="translate(53,22)" />
<path d="M0 0 C3.63 0 7.26 0 11 0 C9 1.33333333 7 2.66666667 5 4 C2 3 2 3 0 2 C0 1.34 0 0.68 0 0 Z " fill="#955D1D" transform="translate(30,42)" />
<path d="M0 0 C1.67542976 0.28604898 3.34385343 0.61781233 5 1 C4.34 1.66 3.68 2.32 3 3 C2.60235737 4.98821313 2.26224651 6.98944339 2 9 C1.34 8.67 0.68 8.34 0 8 C-0.6875 4.5 -0.6875 4.5 -1 1 C-0.67 0.67 -0.34 0.34 0 0 Z " fill="#759A36" transform="translate(50,20)" />
<path d="M0 0 C3.34089023 4.45452031 3.30946125 5.04814229 2.6875 10.25 C2.62755859 10.78882813 2.62755859 10.78882813 2.32421875 13.515625 C2.21722656 14.33546875 2.11023438 15.1553125 2 16 C1.67 16 1.34 16 1 16 C0.67 10.72 0.34 5.44 0 0 Z " fill="#621A11" transform="translate(83,45)" />
<path d="M0 0 C3.4375 0.8125 3.4375 0.8125 7 2 C7.33 2.99 7.66 3.98 8 5 C6.515 4.67 6.515 4.67 -1 3 C-0.67 2.01 -0.34 1.02 0 0 Z " fill="#892108" transform="translate(67,33)" />
<path d="M0 0 C0.66 0 1.32 0 2 0 C2 2.31 2 4.62 2 7 C0.68 7 -0.64 7 -2 7 C-1.125 1.125 -1.125 1.125 0 0 Z " fill="#D64F1E" transform="translate(24,42)" />
<path d="M0 0 C0.721875 0.00257812 1.44375 0.00515625 2.1875 0.0078125 C2.909375 0.00523438 3.63125 0.00265625 4.375 0 C6.1875 0.1328125 6.1875 0.1328125 7.1875 1.1328125 C7.22813832 2.79898365 7.230221 4.46669345 7.1875 6.1328125 C6.98125 5.8028125 6.98125 5.8028125 5.9375 4.1328125 C5.36 3.4728125 4.7825 2.8128125 4.1875 2.1328125 C2.8675 2.1328125 1.5475 2.1328125 0.1875 2.1328125 C-0.4725 2.7928125 -1.1325 3.4528125 -1.8125 4.1328125 C-2.1425 3.1428125 -2.4725 2.1528125 -2.8125 1.1328125 C-1.8125 0.1328125 -1.8125 0.1328125 0 0 Z " fill="#485418" transform="translate(49.8125,18.8671875)" />
<path d="M0 0 C2.97 0.99 5.94 1.98 9 3 C9 3.66 9 4.32 9 5 C4.68607774 4.5206753 2.83430453 3.2542015 0 0 Z " fill="#819234" transform="translate(61,38)" />
<path d="M0 0 C2.0625 0.4375 2.0625 0.4375 4 1 C4 2.32 4 3.64 4 5 C3.01 5 2.02 5 1 5 C0.34 3.68 -0.32 2.36 -1 1 C-0.67 0.67 -0.34 0.34 0 0 Z " fill="#766257" transform="translate(70,23)" />
<path d="M0 0 C0.33 1.32 0.66 2.64 1 4 C1.66 4.33 2.32 4.66 3 5 C1.625 7.5 1.625 7.5 0 10 C-0.66 10 -1.32 10 -2 10 C-1.34 6.7 -0.68 3.4 0 0 Z " fill="#922B27" transform="translate(80,61)" />
<path d="M0 0 C2.64 0 5.28 0 8 0 C8 0.99 8 1.98 8 3 C6.35 3 4.7 3 3 3 C3 2.34 3 1.68 3 1 C2.01 1.33 1.02 1.66 0 2 C0 1.34 0 0.68 0 0 Z " fill="#D54114" transform="translate(25,62)" />
<path d="M0 0 C0.495 0.33 0.495 0.33 3 2 C3.1875 5.625 3.1875 5.625 3 9 C2.34 9 1.68 9 1 9 C0.67 6.03 0.34 3.06 0 0 Z " fill="#F27864" transform="translate(47,45)" />
<path d="M0 0 C0.99 0.33 1.98 0.66 3 1 C3 1.99 3 2.98 3 4 C2.34 4 1.68 4 1 4 C1 6.31 1 8.62 1 11 C0.67 11 0.34 11 0 11 C0 7.37 0 3.74 0 0 Z " fill="#A72D2B" transform="translate(81,49)" />
<path d="M0 0 C0.33 0 0.66 0 1 0 C1.309375 1.093125 1.61875 2.18625 1.9375 3.3125 C2.58337897 5.55407994 3.2623117 7.7869351 4 10 C2.0625 9.375 2.0625 9.375 0 8 C-1.40540541 2.81081081 -1.40540541 2.81081081 0 0 Z " fill="#F08767" transform="translate(33,47)" />
<path d="M0 0 C0.99 0.165 0.99 0.165 6 1 C6 1.66 6 2.32 6 3 C4.02 3 2.04 3 0 3 C-0.33 3.66 -0.66 4.32 -1 5 C-0.67 3.35 -0.34 1.7 0 0 Z " fill="#E82E20" transform="translate(57,42)" />
<path d="M0 0 C6.0546875 -0.1953125 6.0546875 -0.1953125 8 0 C8.66 0.66 9.32 1.32 10 2 C6.66666667 2 3.33333333 2 0 2 C0 1.34 0 0.68 0 0 Z " fill="#645D0C" transform="translate(63,32)" />
<path d="M0 0 C0.99 0.33 1.98 0.66 3 1 C3.33 1.99 3.66 2.98 4 4 C0.37 3.67 -3.26 3.34 -7 3 C-7 2.67 -7 2.34 -7 2 C-4.69 2 -2.38 2 0 2 C0 1.34 0 0.68 0 0 Z " fill="#656543" transform="translate(64,23)" />
</svg>