<?xml version='1.0' encoding='utf-8'?>
<svg xmlns="http://www.w3.org/2000/svg" version="1.1" width="100" height="96">
<path d="M0 0 C0.41072754 0.0211084 0.41072754 0.0211084 2.48925781 0.12792969 C6.51266075 0.40948459 9.36337615 0.83009932 12.9375 2.8125 C12.9375 3.4725 12.9375 4.1325 12.9375 4.8125 C11.88949219 5.07804687 10.84148437 5.34359375 9.76171875 5.6171875 C8.3827352 5.97365944 7.00383316 6.33044679 5.625 6.6875 C4.93470703 6.86152344 4.24441406 7.03554688 3.53320312 7.21484375 C0.21874438 8.07948516 -2.18528553 8.89435702 -5.0625 10.8125 C-6.98849217 18.06069952 -6.16733722 26.38070581 -6.0625 33.8125 C-1.78037599 33.99485183 1.38432956 33.5464572 5.375 32 C6.32375 31.63648437 7.2725 31.27296875 8.25 30.8984375 C10.4717315 30.00070297 12.67810032 29.08140891 14.875 28.125 C17.2653583 27.10056073 19.40110036 26.31977993 21.9375 25.8125 C21.9375 29.8125 21.9375 29.8125 20.0625 31.875 C19.711875 32.1946875 19.711875 32.1946875 17.9375 33.8125 C15.70146047 37.1665593 15.70750669 38.19670202 15.77734375 42.1015625 C15.78830078 43.12507813 15.79925781 44.14859375 15.81054688 45.203125 C15.82118164 45.73679687 15.82118164 45.73679687 15.875 48.4375 C15.90926996 50.55462195 15.93944748 52.67181551 15.96484375 54.7890625 C15.9738269 55.25868408 15.9738269 55.25868408 16.01928711 57.63525391 C15.9375 59.8125 15.9375 59.8125 14.9375 60.8125 C4.37365958 61.34069202 -5.81502625 59.15584767 -16.0625 56.8125 C-16.31727428 53.3763936 -16.53689003 49.93892199 -16.75 46.5 C-16.82283203 45.52353516 -16.89566406 44.54707031 -16.97070312 43.54101562 C-17.02548828 42.60322266 -17.08027344 41.66542969 -17.13671875 40.69921875 C-17.16552124 40.2671814 -17.16552124 40.2671814 -17.3112793 38.08081055 C-17.0625 35.8125 -17.0625 35.8125 -15.55786133 34.00708008 C-15.06439209 33.61286865 -14.57092285 33.21865723 -14.0625 32.8125 C-15.3825 32.4825 -16.7025 32.1525 -18.0625 31.8125 C-20.49061925 37.63998619 -20.67977907 43.5882491 -21.0625 49.8125 C-20.0725 49.8125 -19.0825 49.8125 -18.0625 49.8125 C-18.0625 50.4725 -18.0625 51.1325 -18.0625 51.8125 C-23.93872208 53.17315193 -26.76722953 52.45846635 -31.9375 49.4375 C-33.06929687 48.79039063 -34.20109375 48.14328125 -35.3671875 47.4765625 C-38.0625 45.8125 -38.0625 45.8125 -39.0625 44.8125 C-39.44100908 41.66076437 -39.53198618 38.48223758 -39.6875 35.3125 C-39.7390625 34.41917969 -39.790625 33.52585938 -39.84375 32.60546875 C-39.88757813 31.75597656 -39.93140625 30.90648438 -39.9765625 30.03125 C-40.0173291 29.24685547 -40.0580957 28.46246094 -40.10009766 27.65429688 C-40.0625 25.8125 -40.0625 25.8125 -39.0625 24.8125 C-37.38066052 24.57962992 -35.6912584 24.39985834 -34 24.25 C-33.1853125 24.1778125 -33.1853125 24.1778125 -29.0625 23.8125 C-29.3925 17.8725 -29.7225 11.9325 -30.0625 5.8125 C-19.80104147 1.41473206 -11.11713713 -0.57173848 0 0 Z " fill="#E69733" transform="translate(57.0625,17.1875)" />
<path d="M0 0 C3.25734641 3.25734641 2.98724548 6.47910541 3.09765625 10.98828125 C3.09107434 12.42972011 3.07924498 13.87114338 3.0625 15.3125 C3.05798828 16.05306641 3.05347656 16.79363281 3.04882812 17.55664062 C3.03712175 19.37112899 3.01918898 21.18557534 3 23 C5.31 23.33 7.62 23.66 10 24 C10.165 27.795 10.165 27.795 11 47 C10.34 47 9.68 47 9 47 C8.773125 47.99 8.54625 48.98 8.3125 50 C7.04788156 54.51385707 4.61694246 58.15449295 2 62 C0.44323425 57.32970274 0.69169119 52.64270786 0.625 47.75 C0.60630859 47.23759766 0.60630859 47.23759766 0.51171875 44.64453125 C0.43193288 37.7563508 1.22427131 34.07690077 6 29 C6.66 29 7.32 29 8 29 C8 27.68 8 26.36 8 25 C7.113125 25.5775 6.22625 26.155 5.3125 26.75 C0.74738426 29.38950108 -4.16568919 30.71183888 -9.20703125 32.16796875 C-12 33 -12 33 -14 34 C-16.3329866 34.04022391 -18.66706666 34.04320247 -21 34 C-21.08509848 27.43796163 -21.16740657 20.86481238 -20.75 14.3125 C-20.72679687 13.92900391 -20.72679687 13.92900391 -20.609375 11.98828125 C-19.74467347 9.16691536 -18.54027211 8.45523126 -16 7 C-13.08984375 6.05078125 -13.08984375 6.05078125 -9.9375 5.3125 C-8.89464844 5.06113281 -7.85179687 4.80976563 -6.77734375 4.55078125 C-4 4 -4 4 -1 4 C-1.165 3.67 -1.165 3.67 -2 2 C-15.97799001 -2.65933 -30.41939756 0.8642844 -44 5 C-44 4.34 -44 3.68 -44 3 C-29.48210647 -2.86299546 -15.175015 -5.1595051 0 0 Z " fill="#B25714" transform="translate(71,18)" />
<path d="M0 0 C5.23519545 1.06840723 5.23519545 1.06840723 7.0625 2.625 C8.0144226 5.28494373 8.52230148 7.83397431 9.0625 10.625 C9.7225 10.625 10.3825 10.625 11.0625 10.625 C11.0625 7.655 11.0625 4.685 11.0625 1.625 C11.3925 1.625 11.7225 1.625 12.0625 1.625 C12.25840444 5.10374757 12.44281592 8.58300904 12.625 12.0625 C12.68107422 13.05572266 12.73714844 14.04894531 12.79492188 15.07226562 C12.84326172 16.01650391 12.89160156 16.96074219 12.94140625 17.93359375 C12.9885376 18.80814209 13.03566895 19.68269043 13.08422852 20.58374023 C13.0625 22.625 13.0625 22.625 12.0625 23.625 C1.52986595 24.1516317 -8.72926209 22.04729374 -18.9375 19.625 C-18.96471176 17.72924749 -18.98399136 15.83338021 -19 13.9375 C-19.01160156 12.88175781 -19.02320313 11.82601562 -19.03515625 10.73828125 C-18.82100419 3.9111137 -18.82100419 3.9111137 -16.703125 0.828125 C-12.29497903 -2.17565588 -5.05412433 -0.48134517 0 0 Z " fill="#E4922B" transform="translate(59.9375,54.375)" />
<path d="M0 0 C2.6875 0.3125 2.6875 0.3125 5 1 C5.33 1.99 5.66 2.98 6 4 C6.515625 4.515625 7.03125 5.03125 7.5625 5.5625 C8.036875 6.036875 8.51125 6.51125 9 7 C9 7.66 9 8.32 9 9 C7.68 9 6.36 9 5 9 C2.57188075 14.82748619 2.38272093 20.7757491 2 27 C2.99 27 3.98 27 5 27 C5 27.66 5 28.32 5 29 C-0.87622208 30.36065193 -3.70472953 29.64596635 -8.875 26.625 C-10.00679687 25.97789063 -11.13859375 25.33078125 -12.3046875 24.6640625 C-15 23 -15 23 -16 22 C-16.37850908 18.84826437 -16.46948618 15.66973758 -16.625 12.5 C-16.6765625 11.60667969 -16.728125 10.71335937 -16.78125 9.79296875 C-16.82507813 8.94347656 -16.86890625 8.09398437 -16.9140625 7.21875 C-16.9548291 6.43435547 -16.9955957 5.64996094 -17.03759766 4.84179688 C-17 3 -17 3 -16 2 C-14.19570877 1.71328277 -12.38033998 1.49452039 -10.5625 1.3125 C-10.06814453 1.25900391 -10.06814453 1.25900391 -7.56640625 0.98828125 C-5 1 -5 1 -3 3 C-2.608125 2.484375 -2.21625 1.96875 -1.8125 1.4375 C-1.214375 0.963125 -0.61625 0.48875 0 0 Z " fill="#DE8D2B" transform="translate(34,40)" />
<path d="M0 0 C3.25734641 3.25734641 2.98724548 6.47910541 3.09765625 10.98828125 C3.09107434 12.42972011 3.07924498 13.87114338 3.0625 15.3125 C3.05798828 16.05306641 3.05347656 16.79363281 3.04882812 17.55664062 C3.03712175 19.37112899 3.01918898 21.18557534 3 23 C5.31 23.33 7.62 23.66 10 24 C10.165 27.795 10.165 27.795 11 47 C10.34 47 9.68 47 9 47 C8.773125 47.99 8.54625 48.98 8.3125 50 C7.04788156 54.51385707 4.61694246 58.15449295 2 62 C0.44323425 57.32970274 0.69169119 52.64270786 0.625 47.75 C0.60630859 47.23759766 0.60630859 47.23759766 0.51171875 44.64453125 C0.43193288 37.7563508 1.22427131 34.07690077 6 29 C6.66 29 7.32 29 8 29 C8 27.68 8 26.36 8 25 C7.113125 25.5775 6.22625 26.155 5.3125 26.75 C-1.98137066 30.92429258 -10.65707044 33.22391353 -19 34 C-17.59289569 31.18579137 -15.90467686 31.095949 -13 30 C-10.4509097 28.70385239 -7.92578316 27.36875343 -5.40234375 26.0234375 C-3 25 -3 25 1 25 C0.67 17.41 0.34 9.82 0 2 C-1.2375 1.835 -1.2375 1.835 -7.5 1 C-7.88124023 0.94779297 -7.88124023 0.94779297 -9.81054688 0.68359375 C-18.70131495 -0.46301503 -25.87189348 0.17994229 -34.5 2.5 C-34.95890625 2.61923828 -34.95890625 2.61923828 -37.28125 3.22265625 C-39.52324531 3.80650919 -41.76253068 4.39907967 -44 5 C-44 4.34 -44 3.68 -44 3 C-29.48210647 -2.86299546 -15.175015 -5.1595051 0 0 Z " fill="#6E3E10" transform="translate(71,18)" />
<path d="M0 0 C0 0.66 0 1.32 0 2 C-1.04800781 2.26554687 -2.09601563 2.53109375 -3.17578125 2.8046875 C-4.5547648 3.16115944 -5.93366684 3.51794679 -7.3125 3.875 C-8.00279297 4.04902344 -8.69308594 4.22304688 -9.40429688 4.40234375 C-12.71875562 5.26698516 -15.12278553 6.08185702 -18 8 C-18.51171875 10.3828125 -18.51171875 10.3828125 -18.6875 13.125 C-18.75324219 14.03507812 -18.81898437 14.94515625 -18.88671875 15.8828125 C-18.92410156 16.58148438 -18.96148437 17.28015625 -19 18 C-19.33 18 -19.66 18 -20 18 C-20 14.37 -20 10.74 -20 7 C-21.03125 6.896875 -22.0625 6.79375 -23.125 6.6875 C-29.49717224 5.90535611 -35.74045136 4.39784864 -42 3 C-32.00770497 -3.66153002 -10.55194945 -6.86444024 0 0 Z " fill="#D78231" transform="translate(70,20)" />
<path d="M0 0 C4.48491571 0.74748595 8.14003823 1.60379095 12.375 3.0625 C13.303125 3.3821875 13.303125 3.3821875 18 5 C17.34 10.28 16.68 15.56 16 21 C15.34 21 14.68 21 14 21 C13.79375 20.360625 13.5875 19.72125 13.375 19.0625 C12 17 12 17 8.875 16.25 C7.92625 16.1675 6.9775 16.085 6 16 C6.33 14.35 6.66 12.7 7 11 C3.21503862 12.51398455 2.9927802 13.0144396 1 17 C0.67 11.39 0.34 5.78 0 0 Z " fill="#EE9C30" transform="translate(17,43)" />
<path d="M0 0 C2.31 0.66 4.62 1.32 7 2 C6.34805664 2.39421143 5.69611328 2.78842285 5.02441406 3.19458008 C3 5 3 5 2.54589844 7.26831055 C2.5668457 8.13238525 2.58779297 8.99645996 2.609375 9.88671875 C2.62226562 10.82451172 2.63515625 11.76230469 2.6484375 12.72851562 C2.66519531 13.21674805 2.66519531 13.21674805 2.75 15.6875 C2.75902344 16.1815332 2.75902344 16.1815332 2.8046875 18.68164062 C2.85184553 21.12206842 2.91763958 23.56054769 3 26 C3.62197266 26.05478516 3.62197266 26.05478516 6.76953125 26.33203125 C15.76432867 27.17232875 24.38703019 28.09675175 33 31 C33 31.33 33 31.66 33 32 C32.69578125 31.96970703 32.69578125 31.96970703 31.15625 31.81640625 C22.78144813 31.01587372 14.39713805 30.49518882 6 30 C6 29.34 6 28.68 6 28 C4.68 28 3.36 28 2 28 C1.835 27.175 1.835 27.175 1 23 C0.05125 23.28875 -0.8975 23.5775 -1.875 23.875 C-7.42201867 24.75204402 -11.6492777 21.0201191 -16 18 C-15.34 17.67 -14.68 17.34 -14 17 C-12.30078125 17.77734375 -12.30078125 17.77734375 -10.3125 18.9375 C-6.25681953 21.09509235 -3.54078618 21.37839885 1 21 C1 20.34 1 19.68 1 19 C0.01 19 -0.98 19 -2 19 C-2.19818283 12.29481414 -2.30844801 6.34823202 0 0 Z " fill="#6C4412" transform="translate(38,48)" />
<path d="M0 0 C0.66 0 1.32 0 2 0 C4.005376 10.77889601 4.40376715 20.65591159 -2 30 C-2.98753919 31.01230744 -3.98582393 32.01437994 -5 33 C-5.14599475 28.81287049 -5.23430718 24.62640105 -5.3125 20.4375 C-5.35439453 19.25607422 -5.39628906 18.07464844 -5.43945312 16.85742188 C-5.57761989 6.99231485 -5.57761989 6.99231485 -2.60546875 2.66015625 C-1.74566406 1.78230469 -0.88585937 0.90445313 0 0 Z " fill="#A35015" transform="translate(77,47)" />
<path d="M0 0 C5.5021816 -0.23136637 10.13853778 0.5649654 15.4375 2 C16.16904297 2.19078125 16.90058594 2.3815625 17.65429688 2.578125 C19.43819666 3.04450403 21.21939845 3.52118278 23 4 C23 7.63 23 11.26 23 15 C22.67 14.01 22.34 13.02 22 12 C21.34 12 20.68 12 20 12 C19.67 10.68 19.34 9.36 19 8 C18.01 8.33 17.02 8.66 16 9 C16 8.34 16 7.68 16 7 C15.34 7 14.68 7 14 7 C14 6.34 14 5.68 14 5 C12.72549553 5.59638333 11.45553123 6.20247416 10.1875 6.8125 C9.47980469 7.14894531 8.77210937 7.48539063 8.04296875 7.83203125 C5.98870965 9.00645471 4.58383722 10.25628016 3 12 C0.97649676 8.96474514 0.67875982 7.80573798 0.375 4.3125 C0.30023437 3.50425781 0.22546875 2.69601563 0.1484375 1.86328125 C0.09945313 1.24839844 0.05046875 0.63351563 0 0 Z " fill="#F2A63B" transform="translate(27,23)" />
<path d="M0 0 C0.4846875 0.0103125 0.4846875 0.0103125 2.9375 0.0625 C2.9375 0.7225 2.9375 1.3825 2.9375 2.0625 C1.9475 2.0625 0.9575 2.0625 -0.0625 2.0625 C-0.0625 2.7225 -0.0625 3.3825 -0.0625 4.0625 C0.9275 4.3925 1.9175 4.7225 2.9375 5.0625 C3.625 7.125 3.625 7.125 3.9375 9.0625 C5.2575 9.3925 6.5775 9.7225 7.9375 10.0625 C4.65531259 14.1169668 -0.26162991 15.46220997 -5.0625 17.0625 C-5.7225 16.7325 -6.3825 16.4025 -7.0625 16.0625 C-7.546875 14.28515625 -7.546875 14.28515625 -7.8125 12.125 C-7.91046875 11.41472656 -8.0084375 10.70445313 -8.109375 9.97265625 C-8.0625 8.0625 -8.0625 8.0625 -6.0625 6.0625 C-5.37496699 4.40433216 -4.70688717 2.73790664 -4.0625 1.0625 C-3.0625 0.0625 -3.0625 0.0625 0 0 Z " fill="#AB500F" transform="translate(60.0625,32.9375)" />
<path d="M0 0 C0.99 0 1.98 0 3 0 C2.67 1.65 2.34 3.3 2 5 C2.94875 4.95875 3.8975 4.9175 4.875 4.875 C8 5 8 5 10 7 C10 7.99 10 8.98 10 10 C10.66 10 11.32 10 12 10 C12 7.69 12 5.38 12 3 C12.33 3 12.66 3 13 3 C13.66 7.29 14.32 11.58 15 16 C9.96397946 15.16066324 7.46405724 14.47681397 3.1875 12.125 C2.23230469 11.61195312 1.27710938 11.09890625 0.29296875 10.5703125 C-2 9 -2 9 -3 6 C-1.5 1.5 -1.5 1.5 0 0 Z " fill="#DE8829" transform="translate(21,54)" />
<path d="M0 0 C0.64674683 0.02356567 0.64674683 0.02356567 3.91967773 0.14282227 C4.26300896 0.15462776 4.26300896 0.15462776 6.00047302 0.21437073 C8.20160776 0.29117032 10.40240492 0.37512354 12.60327148 0.45922852 C14.09218705 0.51243295 15.58111928 0.56517344 17.07006836 0.61743164 C20.72717821 0.74680703 24.3840182 0.8826009 28.04077148 1.02172852 C27.71077148 4.98172852 27.38077148 8.94172852 27.04077148 13.02172852 C26.38077148 13.02172852 25.72077148 13.02172852 25.04077148 13.02172852 C23.09567148 10.10407851 22.58800832 8.39635566 22.04077148 5.02172852 C20.39077148 5.02172852 18.74077148 5.02172852 17.04077148 5.02172852 C17.04077148 4.69172852 17.04077148 4.36172852 17.04077148 4.02172852 C11.76077148 3.36172852 6.48077148 2.70172852 1.04077148 2.02172852 C0.71077148 3.01172852 0.38077148 4.00172852 0.04077148 5.02172852 C-0.61922852 5.02172852 -1.27922852 5.02172852 -1.95922852 5.02172852 C-1.95922852 6.67172852 -1.95922852 8.32172852 -1.95922852 10.02172852 C-2.61922852 10.02172852 -3.27922852 10.02172852 -3.95922852 10.02172852 C-3.98612068 8.5426596 -4.00557473 7.06345369 -4.02172852 5.58422852 C-4.03333008 4.76051758 -4.04493164 3.93680664 -4.05688477 3.08813477 C-3.89997131 -0.23215386 -3.37688149 0.02479519 0 0 Z " fill="#F9BA49" transform="translate(43.959228515625,51.978271484375)" />
<path d="M0 0 C2.49118953 3.7367843 2.2065226 5.74451819 2.125 10.1875 C2.10695313 11.45980469 2.08890625 12.73210938 2.0703125 14.04296875 C2.04710938 15.01878906 2.02390625 15.99460937 2 17 C1.67 17 1.34 17 1 17 C1 13.37 1 9.74 1 6 C-0.95901454 6.11382653 -2.9172338 6.24141125 -4.875 6.375 C-5.42027344 6.40980469 -5.42027344 6.40980469 -8.1796875 6.5859375 C-11 7 -11 7 -13 9 C-13.99 9 -14.98 9 -16 9 C-15.773125 9.70125 -15.54625 10.4025 -15.3125 11.125 C-15 14 -15 14 -16.375 16.6875 C-18.52606681 21.07236696 -18.72350706 25.17567497 -19 30 C-19.33 30 -19.66 30 -20 30 C-20.09056893 24.14320905 -20.12143164 18.2853889 -19.75 12.4375 C-19.70359375 11.65246094 -19.6571875 10.86742187 -19.609375 10.05859375 C-18.75643455 7.17718594 -17.59094415 6.47557958 -15 5 C-12.08984375 4.05078125 -12.08984375 4.05078125 -8.9375 3.3125 C-7.89464844 3.06113281 -6.85179687 2.80976563 -5.77734375 2.55078125 C-3 2 -3 2 0 2 C0 1.34 0 0.68 0 0 Z " fill="#CA7C1C" transform="translate(70,20)" />
<path d="M0 0 C3.63 0 7.26 0 11 0 C11.165 0.495 11.165 0.495 12 3 C10.95199219 3.26554687 9.90398437 3.53109375 8.82421875 3.8046875 C7.4452352 4.16115944 6.06633316 4.51794679 4.6875 4.875 C3.99720703 5.04902344 3.30691406 5.22304688 2.59570312 5.40234375 C-0.71875562 6.26698516 -3.12278553 7.08185702 -6 9 C-6.51171875 11.3828125 -6.51171875 11.3828125 -6.6875 14.125 C-6.75324219 15.03507812 -6.81898437 15.94515625 -6.88671875 16.8828125 C-6.92410156 17.58148438 -6.96148437 18.28015625 -7 19 C-7.33 19 -7.66 19 -8 19 C-8 15.37 -8 11.74 -8 8 C-9.216875 7.855625 -10.43375 7.71125 -11.6875 7.5625 C-14.82670377 7.17219047 -17.9075134 6.67648144 -21 6 C-21 5.67 -21 5.34 -21 5 C-19.84242187 4.95101563 -18.68484375 4.90203125 -17.4921875 4.8515625 C-15.9531033 4.77648522 -14.4140419 4.70093957 -12.875 4.625 C-12.49472656 4.60953125 -12.49472656 4.60953125 -10.5703125 4.53125 C-6.05367842 4.297631 -2.25847653 3.67345883 2 2 C1.34 1.34 0.68 0.68 0 0 Z " fill="#E39431" transform="translate(58,19)" />
<path d="M0 0 C0 4 0 4 -1.8125 6.0625 C-2.1734375 6.3821875 -2.1734375 6.3821875 -4 8 C-4.20818359 8.26941406 -4.20818359 8.26941406 -5.26171875 9.6328125 C-7.86167266 11.67772007 -9.77606293 11.14832678 -13 10.8125 C-14.051875 10.71582031 -15.10375 10.61914062 -16.1875 10.51953125 C-19 10 -19 10 -22 8 C-21.28714844 7.74605469 -20.57429688 7.49210937 -19.83984375 7.23046875 C-14.16184757 5.19005828 -5.92450967 0 0 0 Z " fill="#DA812A" transform="translate(79,43)" />
<path d="M0 0 C-0.33 0.495 -0.33 0.495 -2 3 C-2.66 3 -3.32 3 -4 3 C-4 3.66 -4 4.32 -4 5 C-3.34 5.33 -2.68 5.66 -2 6 C-2.94875 6.309375 -3.8975 6.61875 -4.875 6.9375 C-8 8 -8 8 -10 9 C-10.70211894 10.65204456 -11.36971413 12.31923769 -12 14 C-12.33 14.33 -12.66 14.66 -13 15 C-13.07148199 16.35243917 -13.08399454 17.70834367 -13.0625 19.0625 C-13.041875 20.361875 -13.02125 21.66125 -13 23 C-12.34 23.33 -11.68 23.66 -11 24 C-12.65 24.66 -14.3 25.32 -16 26 C-15.68419437 19.27007318 -15.34936443 13.97060615 -12 8 C-12.04125 7.113125 -12.0825 6.22625 -12.125 5.3125 C-12.08375 4.549375 -12.0425 3.78625 -12 3 C-8.21669117 -0.32472595 -4.88424492 -0.28730852 0 0 Z " fill="#BA6114" transform="translate(66,26)" />
<path d="M0 0 C2.31 0.66 4.62 1.32 7 2 C6.34515625 2.33644531 5.6903125 2.67289063 5.015625 3.01953125 C3 5 3 5 2.609375 8.57421875 C2.6358801 9.94585748 2.6834691 11.31721938 2.75 12.6875 C2.76804687 13.38939453 2.78609375 14.09128906 2.8046875 14.81445312 C2.85173787 16.54355436 2.92348127 18.27195205 3 20 C1.35 19.67 -0.3 19.34 -2 19 C-2.19818283 12.29481414 -2.30844801 6.34823202 0 0 Z " fill="#924807" transform="translate(38,48)" />
<path d="M0 0 C0.33 0 0.66 0 1 0 C1.03738281 0.62648437 1.07476562 1.25296875 1.11328125 1.8984375 C1.14615234 2.30707031 1.14615234 2.30707031 1.3125 4.375 C1.37050781 5.18710937 1.42851563 5.99921875 1.48828125 6.8359375 C2 9 2 9 5 11 C-2.35459743 15.78458941 -11.29484979 18.19021858 -20 19 C-18.59289569 16.18579137 -16.90467686 16.095949 -14 15 C-11.4509097 13.70385239 -8.92578316 12.36875343 -6.40234375 11.0234375 C-4 10 -4 10 0 10 C0 6.7 0 3.4 0 0 Z " fill="#8E3A02" transform="translate(72,33)" />
<path d="M0 0 C0.47501953 0.00193359 0.47501953 0.00193359 2.87890625 0.01171875 C5.4375 0.3125 5.4375 0.3125 8.4375 2.3125 C2.48398507 5.4240078 -2.35134146 5.6866794 -9 5.5 C-9.92232422 5.48646484 -10.84464844 5.47292969 -11.79492188 5.45898438 C-14.05140383 5.42390953 -16.30663226 5.37476387 -18.5625 5.3125 C-18.5625 4.9825 -18.5625 4.6525 -18.5625 4.3125 C-17.95921875 4.27511719 -17.3559375 4.23773437 -16.734375 4.19921875 C-15.93515625 4.13347656 -15.1359375 4.06773438 -14.3125 4 C-13.52359375 3.94199219 -12.7346875 3.88398438 -11.921875 3.82421875 C-9.5625 3.3125 -9.5625 3.3125 -7.61328125 1.7890625 C-4.94717113 -0.13053679 -3.25229161 -0.05752353 0 0 Z " fill="#E78A27" transform="translate(52.5625,18.6875)" />
<path d="M0 0 C2.24138744 3.6319625 2.42138961 6.97772083 2.6875 11.1875 C2.77386719 12.43917969 2.86023437 13.69085938 2.94921875 14.98046875 C2.96597656 15.97691406 2.98273437 16.97335938 3 18 C1.33657163 19.66342837 -0.7825709 19.36048097 -3.0625 19.5625 C-3.8771875 19.6346875 -3.8771875 19.6346875 -8 20 C-8.33 25.61 -8.66 31.22 -9 37 C-9.33 37 -9.66 37 -10 37 C-10 31.06 -10 25.12 -10 19 C-3 17 -3 17 1 17 C0.91814453 16.73960938 0.91814453 16.73960938 0.50390625 15.421875 C-0.14058659 12.3243125 -0.09411589 9.41158906 -0.0625 6.25 C-0.05347656 5.07953125 -0.04445313 3.9090625 -0.03515625 2.703125 C-0.02355469 1.81109375 -0.01195312 0.9190625 0 0 Z " fill="#673B0B" transform="translate(26,23)" />
<path d="M0 0 C0.33 0 0.66 0 1 0 C1.66 4.29 2.32 8.58 3 13 C-2.03602054 12.16066324 -4.53594276 11.47681397 -8.8125 9.125 C-9.76769531 8.61195312 -10.72289062 8.09890625 -11.70703125 7.5703125 C-14 6 -14 6 -15 3 C-14.34 3 -13.68 3 -13 3 C-13 3.66 -13 4.32 -13 5 C-12.01 5.165 -12.01 5.165 -7 6 C-7 6.66 -7 7.32 -7 8 C-5.845 7.835 -5.845 7.835 0 7 C0 4.69 0 2.38 0 0 Z " fill="#DD9634" transform="translate(33,57)" />
<path d="M0 0 C2.62082499 3.93123748 1.92965781 5.63934838 1.25 10.25 C1.15976563 10.89195313 1.15976563 10.89195313 0.703125 14.140625 C0.02107797 17.88430537 -0.88946421 21.36723037 -2 25 C-2.33 25 -2.66 25 -3 25 C-3.0875127 21.77100574 -3.14056146 18.54231884 -3.1875 15.3125 C-3.21263672 14.40048828 -3.23777344 13.48847656 -3.26367188 12.54882812 C-3.31848438 7.52434845 -3.28571911 4.09636897 0 0 Z " fill="#B96A11" transform="translate(75,49)" />
<path d="M0 0 C7.52592433 0.6377902 14.67098882 2.19889833 22 4 C22 7.63 22 11.26 22 15 C21.67 15 21.34 15 21 15 C20.79375 13.741875 20.5875 12.48375 20.375 11.1875 C19.55478637 8.07178918 19.23663364 7.19826062 16.6875 5.0625 C11.19648804 3.48034401 5.69032844 3.24483609 0 3 C0 2.01 0 1.02 0 0 Z " fill="#FDCA54" transform="translate(28,23)" />
<path d="M0 0 C0.93423645 3.01031744 1.04449911 3.86650268 0 7 C-0.22325814 9.05893621 -0.40705759 11.12233653 -0.5625 13.1875 C-0.64628906 14.27417969 -0.73007812 15.36085938 -0.81640625 16.48046875 C-0.87699219 17.31191406 -0.93757813 18.14335938 -1 19 C-0.01 19 0.98 19 2 19 C2 19.66 2 20.32 2 21 C1.01 21.33 0.02 21.66 -1 22 C-3.20949832 17.58970217 -3.2370648 13.51059676 -3.125 8.6875 C-3.11597656 7.94693359 -3.10695312 7.20636719 -3.09765625 6.44335938 C-3.07424213 4.62876533 -3.03837615 2.81433929 -3 1 C-2.01 0.67 -1.02 0.34 0 0 Z " fill="#AC5E11" transform="translate(37,48)" />
<path d="M0 0 C0.40412109 0.01353516 0.40412109 0.01353516 2.44921875 0.08203125 C3.06410156 0.11683594 3.67898437 0.15164062 4.3125 0.1875 C3.49609375 2.14453125 3.49609375 2.14453125 2.3125 4.1875 C-0.625 4.875 -0.625 4.875 -3.6875 5.1875 C-4.6775 5.5175 -5.6675 5.8475 -6.6875 6.1875 C-6.6875 8.4975 -6.6875 10.8075 -6.6875 13.1875 C-8.6875 10.1875 -8.6875 10.1875 -8.5 6.6875 C-7.25397291 1.3199987 -5.49861885 -0.23907038 0 0 Z " fill="#F0A734" transform="translate(49.6875,53.8125)" />
<path d="M0 0 C2.49118953 3.7367843 2.2065226 5.74451819 2.125 10.1875 C2.10695313 11.45980469 2.08890625 12.73210938 2.0703125 14.04296875 C2.05871094 14.53087891 2.05871094 14.53087891 2 17 C1.67 17 1.34 17 1 17 C1 13.37 1 9.74 1 6 C-2.3 6 -5.6 6 -9 6 C-9 5.34 -9 4.68 -9 4 C-6.03 3.34 -3.06 2.68 0 2 C0 1.34 0 0.68 0 0 Z " fill="#C67017" transform="translate(70,20)" />
<path d="M0 0 C-0.33 1.65 -0.66 3.3 -1 5 C-4.63 5.33 -8.26 5.66 -12 6 C-12.66 5.01 -13.32 4.02 -14 3 C-11.69 3 -9.38 3 -7 3 C-7 2.01 -7 1.02 -7 0 C-3.98968256 -0.93423645 -3.13349732 -1.04449911 0 0 Z " fill="#D38632" transform="translate(62,70)" />
<path d="M0 0 C0.22171875 0.26296875 0.22171875 0.26296875 1.34375 1.59375 C4.03125 2.78125 4.03125 2.78125 6.34375 3.59375 C6.34375 3.92375 6.34375 4.25375 6.34375 4.59375 C-0.32125865 5.18619521 -5.52577975 3.07697845 -11.65625 0.59375 C-11.65625 0.26375 -11.65625 -0.06625 -11.65625 -0.40625 C-10.05509424 -0.6555857 -8.45004841 -0.88003648 -6.84375 -1.09375 C-5.95042969 -1.22136719 -5.05710937 -1.34898438 -4.13671875 -1.48046875 C-1.65625 -1.40625 -1.65625 -1.40625 0 0 Z " fill="#CC7F1C" transform="translate(29.65625,42.40625)" />
<path d="M0 0 C0.99 0.33 1.98 0.66 3 1 C3.144375 1.94875 3.28875 2.8975 3.4375 3.875 C4 7 4 7 5 9 C7.32156597 9.40729228 9.6568787 9.74438677 12 10 C12 10.33 12 10.66 12 11 C10.56260487 11.02712066 9.12506137 11.04645067 7.6875 11.0625 C7.28724609 11.06830078 7.28724609 11.06830078 5.26171875 11.09765625 C3 11 3 11 0 10 C0 6.7 0 3.4 0 0 Z " fill="#DE9B40" transform="translate(41,64)" />
<path d="M0 0 C0.99 0.165 0.99 0.165 6 1 C6.33 1.66 6.66 2.32 7 3 C6.01 3.33 5.02 3.66 4 4 C4 5.32 4 6.64 4 8 C3.34 8 2.68 8 2 8 C2.20625 9.11375 2.4125 10.2275 2.625 11.375 C2.74875 12.57125 2.8725 13.7675 3 15 C2.34 15.66 1.68 16.32 1 17 C0.67 11.39 0.34 5.78 0 0 Z " fill="#F4B34A" transform="translate(17,43)" />
<path d="M0 0 C0 0.99 0 1.98 0 3 C2.97 3.33 5.94 3.66 9 4 C9 4.66 9 5.32 9 6 C3.22192976 6.2358396 -1.51324804 5.86783046 -7 4 C-6.67 3.01 -6.34 2.02 -6 1 C-3.90006779 0.25486277 -2.22568901 0 0 0 Z " fill="#DD9746" transform="translate(63,72)" />
<path d="M0 0 C0.33 0 0.66 0 1 0 C1.02578125 1.04800781 1.0515625 2.09601562 1.078125 3.17578125 C1.13440858 4.55472902 1.19175588 5.93363365 1.25 7.3125 C1.26417969 8.00279297 1.27835938 8.69308594 1.29296875 9.40429688 C1.390625 11.42578125 1.390625 11.42578125 2 15 C4.046875 16.85546875 4.046875 16.85546875 6 18 C6 18.66 6 19.32 6 20 C4.68 20 3.36 20 2 20 C2 19.01 2 18.02 2 17 C1.34 17 0.68 17 0 17 C-2.29013653 13.5647952 -2.17842973 12.014669 -2 8 C-1.67 8 -1.34 8 -1 8 C-0.67 5.36 -0.34 2.72 0 0 Z " fill="#875C27" transform="translate(17,47)" />
<path d="M0 0 C7.75 0.75 7.75 0.75 10 3 C9.34 3 8.68 3 8 3 C8 4.98 8 6.96 8 9 C4.56977646 6.53727541 2.72527393 5.20658881 2 1 C1.34 0.67 0.68 0.34 0 0 Z " fill="#F8B942" transform="translate(25,46)" />
<path d="M0 0 C0.47501953 0.00193359 0.47501953 0.00193359 2.87890625 0.01171875 C5.4375 0.3125 5.4375 0.3125 8.4375 2.3125 C6.56278812 2.48237681 4.68771305 2.64824776 2.8125 2.8125 C1.76835938 2.9053125 0.72421875 2.998125 -0.3515625 3.09375 C-3.43396788 3.30374355 -6.47415229 3.34959727 -9.5625 3.3125 C-6.3533965 0.43720395 -4.27654172 -0.07563951 0 0 Z " fill="#E77F1F" transform="translate(52.5625,18.6875)" />
<path d="M0 0 C3.94637474 0.56376782 6.83196811 1.5359752 10 4 C10.8125 6.6875 10.8125 6.6875 11 9 C10.34 9 9.68 9 9 9 C8.67 7.68 8.34 6.36 8 5 C7.01 5.33 6.02 5.66 5 6 C5 5.34 5 4.68 5 4 C4.34 4 3.68 4 3 4 C3 3.34 3 2.68 3 2 C2.01 2 1.02 2 0 2 C0 1.34 0 0.68 0 0 Z " fill="#F4B643" transform="translate(38,26)" />
<path d="M0 0 C3.10502372 0.15923199 4.55992289 0.57509797 6.8125 2.75 C8.19608294 5.37152557 8.24360427 7.07674878 8 10 C7.34 10 6.68 10 6 10 C4.0549 7.08235 3.54723683 5.37462715 3 2 C1.35 2 -0.3 2 -2 2 C-1.34 1.34 -0.68 0.68 0 0 Z " fill="#F6B53F" transform="translate(63,55)" />
<path d="M0 0 C1.98 0 3.96 0 6 0 C6.66 1.32 7.32 2.64 8 4 C7.34 4 6.68 4 6 4 C5.67 4.99 5.34 5.98 5 7 C4.01 6.67 3.02 6.34 2 6 C2.66 6 3.32 6 4 6 C4 5.34 4 4.68 4 4 C2.68 4.33 1.36 4.66 0 5 C0 3.33333333 0 1.66666667 0 0 Z " fill="#D37D24" transform="translate(31,31)" />
<path d="M0 0 C1.65 1.65 3.3 3.3 5 5 C4.34 6.32 3.68 7.64 3 9 C3.66 9.33 4.32 9.66 5 10 C4.67 10.66 4.34 11.32 4 12 C3.01 11.67 2.02 11.34 1 11 C0.67 7.37 0.34 3.74 0 0 Z " fill="#E1963C" transform="translate(28,32)" />
<path d="M0 0 C0.66 0 1.32 0 2 0 C2 0.66 2 1.32 2 2 C2.99 2.165 2.99 2.165 8 3 C8 3.66 8 4.32 8 5 C9.65 5.33 11.3 5.66 13 6 C12.67 6.99 12.34 7.98 12 9 C10.18146744 8.07425608 8.37031117 7.13401005 6.5625 6.1875 C5.55316406 5.66542969 4.54382813 5.14335938 3.50390625 4.60546875 C1 3 1 3 0 0 Z " fill="#CA8F3A" transform="translate(18,60)" />
<path d="M0 0 C1.66666667 0 3.33333333 0 5 0 C4.34 1.98 3.68 3.96 3 6 C2.34 6 1.68 6 1 6 C0.67 6.66 0.34 7.32 0 8 C-0.66 8 -1.32 8 -2 8 C-2 6.35 -2 4.7 -2 3 C-1.34 3 -0.68 3 0 3 C0 2.01 0 1.02 0 0 Z " fill="#EC992D" transform="translate(45,57)" />
<path d="M0 0 C0.33 0 0.66 0 1 0 C1.2358396 5.77807024 0.86783046 10.51324804 -1 16 C-1.33 16 -1.66 16 -2 16 C-2.05449838 14.27119018 -2.09301688 12.54187288 -2.125 10.8125 C-2.14820312 9.84957031 -2.17140625 8.88664062 -2.1953125 7.89453125 C-1.9913544 4.87187222 -1.26874632 2.73230015 0 0 Z " fill="#AE5707" transform="translate(74,58)" />
<path d="M0 0 C0.33 0.66 0.66 1.32 1 2 C0.109375 4.27734375 0.109375 4.27734375 -1.25 6.9375 C-1.46914062 7.37513672 -1.46914062 7.37513672 -2.578125 9.58984375 C-3.87297665 11.78468845 -5.10963121 13.31534782 -7 15 C-6.42176904 10.93774452 -5.10882263 8.15237654 -2.9375 4.6875 C-2.38964844 3.80449219 -1.84179688 2.92148438 -1.27734375 2.01171875 C-1.06658203 1.67978516 -1.06658203 1.67978516 0 0 Z " fill="#683B0E" transform="translate(79,65)" />
<path d="M0 0 C0.33 0 0.66 0 1 0 C1.28571429 8.57142857 1.28571429 8.57142857 -1 12 C-1.33 10.35 -1.66 8.7 -2 7 C-2.66 7 -3.32 7 -4 7 C-3.67 5.68 -3.34 4.36 -3 3 C-2.34 3.66 -1.68 4.32 -1 5 C-0.67 3.35 -0.34 1.7 0 0 Z " fill="#ECA53A" transform="translate(33,49)" />
<path d="M0 0 C0.33 0 0.66 0 1 0 C1.03738281 0.62648437 1.07476562 1.25296875 1.11328125 1.8984375 C1.17902344 2.71570312 1.24476562 3.53296875 1.3125 4.375 C1.37050781 5.18710937 1.42851563 5.99921875 1.48828125 6.8359375 C2 9 2 9 5 11 C1.91190305 12.76462683 0.76687864 13 -3 13 C-3 12.34 -3 11.68 -3 11 C-2.34 10.67 -1.68 10.34 -1 10 C-0.5859375 7.71484375 -0.5859375 7.71484375 -0.375 4.9375 C-0.30023438 4.01839844 -0.22546875 3.09929688 -0.1484375 2.15234375 C-0.09945312 1.44207031 -0.05046875 0.73179688 0 0 Z " fill="#7F3604" transform="translate(72,33)" />
<path d="M0 0 C0.66 0 1.32 0 2 0 C2 3.3 2 6.6 2 10 C1.01 10 0.02 10 -1 10 C-1.02689216 8.52093108 -1.04634621 7.04172517 -1.0625 5.5625 C-1.07410156 4.73878906 -1.08570312 3.91507813 -1.09765625 3.06640625 C-1 1 -1 1 0 0 Z " fill="#B45817" transform="translate(77,47)" />
<path d="M0 0 C0.33 1.32 0.66 2.64 1 4 C-5.0546875 4.1953125 -5.0546875 4.1953125 -7 4 C-7.66 3.34 -8.32 2.68 -9 2 C-5.62902617 0.50178941 -3.79557881 0 0 0 Z " fill="#D28531" transform="translate(42,45)" />
<path d="M0 0 C0.33 0 0.66 0 1 0 C1.33 4.29 1.66 8.58 2 13 C2.99 13 3.98 13 5 13 C5 13.66 5 14.32 5 15 C4.01 15.33 3.02 15.66 2 16 C0.24836544 12.22777911 -0.22490027 9.333361 -0.125 5.1875 C-0.10695312 4.21167969 -0.08890625 3.23585937 -0.0703125 2.23046875 C-0.04710937 1.49441406 -0.02390625 0.75835937 0 0 Z " fill="#B9711F" transform="translate(34,54)" />
<path d="M0 0 C0 0.66 0 1.32 0 2 C-0.33 2.165 -0.33 2.165 -2 3 C-2.4140625 5.28515625 -2.4140625 5.28515625 -2.625 8.0625 C-2.69976562 8.98160156 -2.77453125 9.90070312 -2.8515625 10.84765625 C-2.90054688 11.55792969 -2.94953125 12.26820312 -3 13 C-3.33 13 -3.66 13 -4 13 C-4 9.37 -4 5.74 -4 2 C-5.65 2 -7.3 2 -9 2 C-9 1.67 -9 1.34 -9 1 C-5.94152152 0.45627049 -3.11227195 0 0 0 Z " fill="#EBAF3C" transform="translate(54,25)" />
<path d="M0 0 C2.97 0.33 5.94 0.66 9 1 C9 1.66 9 2.32 9 3 C6.03 3 3.06 3 0 3 C0 2.01 0 1.02 0 0 Z " fill="#FAC049" transform="translate(28,23)" />
<path d="M0 0 C2.49118953 3.7367843 2.2065226 5.74451819 2.125 10.1875 C2.10695313 11.45980469 2.08890625 12.73210938 2.0703125 14.04296875 C2.05871094 14.53087891 2.05871094 14.53087891 2 17 C1.67 17 1.34 17 1 17 C1 13.04 1 9.08 1 5 C0.34 5 -0.32 5 -1 5 C-0.67 3.35 -0.34 1.7 0 0 Z " fill="#C0762D" transform="translate(70,20)" />
<path d="M0 0 C0.66 0 1.32 0 2 0 C1.67 3.3 1.34 6.6 1 10 C0.34 10 -0.32 10 -1 10 C-1.02689216 8.52093108 -1.04634621 7.04172517 -1.0625 5.5625 C-1.07410156 4.73878906 -1.08570313 3.91507813 -1.09765625 3.06640625 C-1 1 -1 1 0 0 Z " fill="#EFB456" transform="translate(41,52)" />
<path d="M0 0 C0.33 0.99 0.66 1.98 1 3 C1.99 3 2.98 3 4 3 C3.67 5.31 3.34 7.62 3 10 C2.34 9.67 1.68 9.34 1 9 C0.5859375 6.93359375 0.5859375 6.93359375 0.375 4.4375 C0.30023437 3.61121094 0.22546875 2.78492188 0.1484375 1.93359375 C0.09945313 1.29550781 0.05046875 0.65742188 0 0 Z " fill="#EAAD4D" transform="translate(27,23)" />
<path d="M0 0 C-0.33 0.99 -0.66 1.98 -1 3 C-2.485 3.165 -2.485 3.165 -10 4 C-10 3.34 -10 2.68 -10 2 C-3.375 0 -3.375 0 0 0 Z " fill="#ED9B35" transform="translate(60,22)" />
<path d="M0 0 C2.31 0 4.62 0 7 0 C7 1.98 7 3.96 7 6 C6.401875 5.38125 5.80375 4.7625 5.1875 4.125 C3 2 3 2 0 0 Z " fill="#FECF54" transform="translate(64,54)" />
<path d="M0 0 C0.99 0.33 1.98 0.66 3 1 C2.67 1.99 2.34 2.98 2 4 C0.35 4 -1.3 4 -3 4 C-2.67 3.01 -2.34 2.02 -2 1 C-1.34 0.67 -0.68 0.34 0 0 Z " fill="#994606" transform="translate(59,69)" />
<path d="M0 0 C0 0.66 0 1.32 0 2 C-0.33 2.165 -0.33 2.165 -2 3 C-2.33 3.99 -2.66 4.98 -3 6 C-5.0625 6.6875 -5.0625 6.6875 -7 7 C-5.84933177 3.5479953 -4.01648928 0 0 0 Z " fill="#D17A1A" transform="translate(52,58)" />
<path d="M0 0 C0.825 0.33 0.825 0.33 5 2 C4.67 2.99 4.34 3.98 4 5 C3.175 4.67 3.175 4.67 -1 3 C-0.67 2.01 -0.34 1.02 0 0 Z " fill="#DB8E1E" transform="translate(22,59)" />
<path d="M0 0 C1.32 0 2.64 0 4 0 C3.67 1.32 3.34 2.64 3 4 C1.68 4 0.36 4 -1 4 C-0.67 2.68 -0.34 1.36 0 0 Z " fill="#F0933E" transform="translate(24,55)" />
</svg>