<?xml version='1.0' encoding='utf-8'?>
<svg xmlns="http://www.w3.org/2000/svg" version="1.1" width="100" height="108">
<path d="M0 0 C0.47739624 0.05458374 0.47739624 0.05458374 2.89331055 0.33081055 C3.77672119 0.45367432 4.66013184 0.57653809 5.5703125 0.703125 C6.35422363 0.80786133 7.13813477 0.91259766 7.94580078 1.02050781 C9.875 1.75 9.875 1.75 11.20654297 3.69042969 C11.875 5.75 11.875 5.75 10.875 7.75 C10.215 7.75 9.555 7.75 8.875 7.75 C7.36013285 12.29460146 7.96153366 16.69220677 8.1875 21.4375 C8.22294922 22.40623047 8.25839844 23.37496094 8.29492188 24.37304688 C8.55557846 30.12694363 9.38152975 35.19766304 10.875 40.75 C11.10546875 43.40234375 11.10546875 43.40234375 11.0625 45.6875 C11.05089844 46.52410156 11.03929687 47.36070313 11.02734375 48.22265625 C10.87609387 50.731853 10.52015817 53.14405849 10.125 55.625 C9.62187348 59.41521977 9.62187348 59.41521977 11.8125 62.3125 C12.493125 62.786875 13.17375 63.26125 13.875 63.75 C13.3671875 65.70703125 13.3671875 65.70703125 11.875 67.75 C9.13479194 68.19264899 6.74829798 68.40101817 4 68.4375 C-3.79552273 68.6676004 -3.79552273 68.6676004 -6.11743164 69.24829102 C-19.02442113 72.47386117 -32.99621374 69.38446873 -44.125 62.75 C-46.4446498 61.93103094 -48.73117696 61.33624238 -51.125 60.75 C-51.1920302 58.33691264 -51.24247033 56.19006192 -50.6171875 53.84765625 C-49.93614365 50.9451122 -50.15221304 48.22369352 -50.28515625 45.26171875 C-50.125 42.75 -50.125 42.75 -49.171875 39.78125 C-47.47416422 34.19423814 -47.53399466 28.35667178 -47.3125 22.5625 C-47.2805957 21.97500977 -47.2805957 21.97500977 -47.11914062 19.00195312 C-47.07337891 17.87337891 -47.02761719 16.74480469 -46.98046875 15.58203125 C-46.95803101 15.07015259 -46.95803101 15.07015259 -46.84448242 12.47973633 C-47.16964715 9.31553543 -48.15631969 8.16814175 -50.125 5.75 C-49.8125 3 -49.8125 3 -49.125 0.75 C-32.59441038 -1.64822026 -16.60420122 -2.04649802 0 0 Z " fill="#784B1A" transform="translate(69.125,20.25)" />
<path d="M0 0 C-0.33 0.99 -0.66 1.98 -1 3 C-1.66 3.33 -2.32 3.66 -3 4 C-3.33 4.99 -3.66 5.98 -4 7 C-4.66 7 -5.32 7 -6 7 C-6 8.32 -6 9.64 -6 11 C-5.01 11 -4.02 11 -3 11 C-3 13.64 -3 16.28 -3 19 C-3.33 19 -3.66 19 -4 19 C-4 17.02 -4 15.04 -4 13 C-5.32 13.33 -6.64 13.66 -8 14 C-8.33 17.3 -8.66 20.6 -9 24 C-9.99 24.33 -10.98 24.66 -12 25 C-14.72287689 22.35491959 -17.14310118 19.81978775 -19.375 16.75 C-22.59635144 13.37525088 -24.45859075 13.34274787 -29 13 C-29.66 12.34 -30.32 11.68 -31 11 C-34.125 10.875 -34.125 10.875 -37 11 C-37.21914063 11.71671875 -37.43828125 12.4334375 -37.6640625 13.171875 C-39.33142047 16.70160357 -41.50340881 18.61706653 -44.375 21.25 C-51.11211945 27.68851532 -54.2128041 33.75044813 -55 43 C-48.09372897 39.00657797 -43.52975173 34.55430315 -39 28 C-38.375 29.8125 -38.375 29.8125 -38 32 C-38.66 32.99 -39.32 33.98 -40 35 C-40.14473037 38.76298961 -39.76608349 41.0824814 -37.3203125 44.01171875 C-32.12926221 48.84037497 -32.12926221 48.84037497 -28.40234375 49.3671875 C-26 49 -26 49 -23.3125 46.1875 C-20.27301377 41.54224746 -19.65685068 36.42146905 -19 31 C-18.484375 31.680625 -17.96875 32.36125 -17.4375 33.0625 C-14.49928587 36.60342473 -11.29212981 39.79109819 -8 43 C-8.50402344 43.44730469 -9.00804687 43.89460938 -9.52734375 44.35546875 C-10.01332031 44.89816406 -10.49929687 45.44085938 -11 46 C-10.68404492 47.67004829 -10.34820041 49.33637583 -10 51 C-10.90996586 54.79152443 -11.8175748 57.6131811 -15 60 C-15.66 60 -16.32 60 -17 60 C-17 60.66 -17 61.32 -17 62 C-28.95749073 64.32295202 -40.52126448 64.68093953 -51 58 C-52.36204962 57.3671784 -53.73630178 56.75947867 -55.125 56.1875 C-56.07375 55.795625 -57.0225 55.40375 -58 55 C-58 54.01 -58 53.02 -58 52 C-57.34 52 -56.68 52 -56 52 C-56.165 51.505 -56.165 51.505 -57 49 C-57.12005171 47.06521317 -57.17530837 45.12596946 -57.1875 43.1875 C-57.20167969 42.17042969 -57.21585938 41.15335938 -57.23046875 40.10546875 C-57 37 -57 37 -56.00439453 34.18481445 C-54.32719308 28.86661003 -54.67215977 23.53475587 -54.6875 18 C-54.67138672 16.83726563 -54.65527344 15.67453125 -54.63867188 14.4765625 C-54.63266439 3.97548269 -54.63266439 3.97548269 -58 -1 C-38.25356339 -3.8985595 -19.64253878 -3.54451828 0 0 Z " fill="#AE7C34" transform="translate(78,24)" />
<path d="M0 0 C1.8125 1.5625 1.8125 1.5625 3 3 C0.36 2.67 -2.28 2.34 -5 2 C-5 5.96 -5 9.92 -5 14 C-3.35 14 -1.7 14 0 14 C0 13.34 0 12.68 0 12 C1.98 12 3.96 12 6 12 C6.66 10.68 7.32 9.36 8 8 C8.165 8.33 8.165 8.33 9 10 C9.75667969 10.42925781 10.51335938 10.85851563 11.29296875 11.30078125 C14.37941927 13.23816361 16.10320314 15.30418037 18.3125 18.1875 C19.00988281 19.08855469 19.70726562 19.98960938 20.42578125 20.91796875 C20.94527344 21.60503906 21.46476562 22.29210937 22 23 C21.67 23.66 21.34 24.32 21 25 C20.67 25 20.34 25 20 25 C20.165 25.825 20.165 25.825 21 30 C16.7257442 28.4169423 14.73468206 25.49431596 12 22 C11.92523438 22.556875 11.85046875 23.11375 11.7734375 23.6875 C10.67048691 30.0889387 8.22608534 34.12272541 4 39 C-0.79211926 38.90220165 -3.31537267 38.16931349 -6.875 34.875 C-10.02387543 31.43600347 -11.09160675 28.76355093 -11 24 C-10.34 23.01 -9.68 22.02 -9 21 C-9 20.01 -9 19.02 -9 18 C-9.50789063 18.67546875 -10.01578125 19.3509375 -10.5390625 20.046875 C-17.56687457 29.15407715 -17.56687457 29.15407715 -23 32 C-23.66 32 -24.32 32 -25 32 C-25.72729544 25.30888195 -23.76512046 20.52751727 -20 15 C-17.32021616 11.95747736 -14.39573981 9.20226997 -11.42578125 6.4453125 C-9.26819757 4.27035697 -8.24005257 2.72445048 -7 0 C-4.26634878 -1.36682561 -2.89333621 -0.84683011 0 0 Z " fill="#3A3730" transform="translate(48,35)" />
<path d="M0 0 C0.165 0.825 0.165 0.825 1 5 C2.65 5 4.3 5 6 5 C7 8 7 8 5.6875 10.6875 C5.130625 11.450625 4.57375 12.21375 4 13 C3.34 13 2.68 13 2 13 C1.31292445 15.49064888 1 17.37886292 1 20 C0.236875 19.21625 -0.52625 18.4325 -1.3125 17.625 C-6.04761905 13 -6.04761905 13 -9.5625 13 C-10.366875 13 -11.17125 13 -12 13 C-12.66 12.34 -13.32 11.68 -14 11 C-17.125 10.875 -17.125 10.875 -20 11 C-20.2475 11.7425 -20.495 12.485 -20.75 13.25 C-22.09147301 16.20124062 -23.60905526 17.84814974 -26 20 C-29.84478875 18.54163185 -31.1822915 16.63541701 -33 13 C-34.46347999 9.14173458 -34.0677989 5.06793382 -34 1 C-23.03869286 -1.95112115 -11.1629374 -1.86048957 0 0 Z " fill="#CA9A4D" transform="translate(61,24)" />
<path d="M0 0 C0.625 1.8125 0.625 1.8125 1 4 C0.67 4.495 0.67 4.495 -1 7 C-1.14473037 10.76298961 -0.76608349 13.0824814 1.6796875 16.01171875 C6.87073779 20.84037497 6.87073779 20.84037497 10.59765625 21.3671875 C13 21 13 21 15.6875 18.1875 C18.72698623 13.54224746 19.34314932 8.42146905 20 3 C24.78478261 8.55652174 24.78478261 8.55652174 25 12 C24.37943989 13.68437744 23.70710678 15.35008418 23 17 C22.95875 17.99 22.9175 18.98 22.875 20 C21.68988809 24.06324084 19.71637806 24.97836489 16.109375 26.9609375 C10.62549496 29.66225618 7.01903165 30.17065286 1.05078125 29.19140625 C-1 29 -1 29 -4 30 C-4 29.34 -4 28.68 -4 28 C-4.66 28 -5.32 28 -6 28 C-6.33 28.66 -6.66 29.32 -7 30 C-10.66695211 27.55536526 -10.76581659 26.11394469 -12 22 C-12.4125 21.319375 -12.825 20.63875 -13.25 19.9375 C-14 18 -14 18 -13.5 15.5625 C-11.9144465 12.85384611 -10.13145858 11.36487704 -7.6640625 9.46875 C-4.58996244 6.7554598 -2.3404986 3.34475509 0 0 Z " fill="#C89546" transform="translate(39,52)" />
<path d="M0 0 C0.47739624 0.05458374 0.47739624 0.05458374 2.89331055 0.33081055 C3.77672119 0.45367432 4.66013184 0.57653809 5.5703125 0.703125 C6.35422363 0.80786133 7.13813477 0.91259766 7.94580078 1.02050781 C9.875 1.75 9.875 1.75 11.20654297 3.69042969 C11.875 5.75 11.875 5.75 10.875 7.75 C10.215 7.75 9.555 7.75 8.875 7.75 C7.36013285 12.29460146 7.96153366 16.69220677 8.1875 21.4375 C8.22294922 22.40623047 8.25839844 23.37496094 8.29492188 24.37304688 C8.55555737 30.12647826 9.3758951 35.19909751 10.875 40.75 C11.53238854 47.31421788 10.58853361 53.41604542 8.875 59.75 C8.545 59.75 8.215 59.75 7.875 59.75 C7.88023682 59.13479492 7.88547363 58.51958984 7.89086914 57.88574219 C7.91169371 55.09050524 7.92467759 52.29528464 7.9375 49.5 C7.94168945 49.01595703 7.94168945 49.01595703 7.96289062 46.56640625 C7.96611328 45.63183594 7.96933594 44.69726562 7.97265625 43.734375 C7.97789307 42.87553711 7.98312988 42.01669922 7.98852539 41.13183594 C7.8799638 38.8541438 7.46347586 36.94299207 6.875 34.75 C6.80811409 32.83438746 6.78968281 30.91664408 6.8125 29 C6.82152344 28.01515625 6.83054688 27.0303125 6.83984375 26.015625 C6.85144531 25.26796875 6.86304688 24.5203125 6.875 23.75 C5.555 23.75 4.235 23.75 2.875 23.75 C2.875 21.44 2.875 19.13 2.875 16.75 C3.535 16.75 4.195 16.75 4.875 16.75 C5.205 16.09 5.535 15.43 5.875 14.75 C4.885 14.75 3.895 14.75 2.875 14.75 C2.875 13.43 2.875 12.11 2.875 10.75 C3.535 10.75 4.195 10.75 4.875 10.75 C4.978125 10.151875 5.08125 9.55375 5.1875 8.9375 C5.96923531 6.45016036 7.0014074 5.50303972 8.875 3.75 C-10.33042037 1.43957349 -28.96346435 0.7145092 -48.125 3.75 C-47.63749268 4.4519751 -47.14998535 5.1539502 -46.64770508 5.87719727 C-44.92354433 9.13007518 -44.75109025 11.06064982 -44.76171875 14.71484375 C-44.76236328 15.84470703 -44.76300781 16.97457031 -44.76367188 18.13867188 C-44.77978516 19.30978516 -44.79589844 20.48089844 -44.8125 21.6875 C-44.80927734 22.85474609 -44.80605469 24.02199219 -44.80273438 25.22460938 C-44.8384614 30.92469333 -45.24769468 35.34415424 -47.125 40.75 C-47.25974123 43.41787642 -47.31697861 45.96646441 -47.25 48.625 C-47.24097656 49.31335938 -47.23195313 50.00171875 -47.22265625 50.7109375 C-47.19932513 52.39077838 -47.16346326 54.07043746 -47.125 55.75 C-47.785 55.75 -48.445 55.75 -49.125 55.75 C-48.795 56.74 -48.465 57.73 -48.125 58.75 C-46.14078741 59.46228144 -44.13532877 60.11515933 -42.125 60.75 C-40.48994714 61.56343198 -38.86562071 62.39862514 -37.25 63.25 C-29.01331079 67.41737251 -21.28937518 68.16958957 -12.125 68.75 C-12.125 69.08 -12.125 69.41 -12.125 69.75 C-24.33974518 70.23145711 -33.62330955 69.01062315 -44.125 62.75 C-46.4446498 61.93103094 -48.73117696 61.33624238 -51.125 60.75 C-51.1920302 58.33691264 -51.24247033 56.19006192 -50.6171875 53.84765625 C-49.93614365 50.9451122 -50.15221304 48.22369352 -50.28515625 45.26171875 C-50.125 42.75 -50.125 42.75 -49.171875 39.78125 C-47.47416422 34.19423814 -47.53399466 28.35667178 -47.3125 22.5625 C-47.2805957 21.97500977 -47.2805957 21.97500977 -47.11914062 19.00195312 C-47.07337891 17.87337891 -47.02761719 16.74480469 -46.98046875 15.58203125 C-46.95803101 15.07015259 -46.95803101 15.07015259 -46.84448242 12.47973633 C-47.16964715 9.31553543 -48.15631969 8.16814175 -50.125 5.75 C-49.8125 3 -49.8125 3 -49.125 0.75 C-32.59441038 -1.64822026 -16.60420122 -2.04649802 0 0 Z " fill="#553A11" transform="translate(69.125,20.25)" />
<path d="M0 0 C-0.33 0.99 -0.66 1.98 -1 3 C-1.66 3.33 -2.32 3.66 -3 4 C-3.33 4.99 -3.66 5.98 -4 7 C-4.66 7 -5.32 7 -6 7 C-6 8.32 -6 9.64 -6 11 C-5.01 11 -4.02 11 -3 11 C-3 13.64 -3 16.28 -3 19 C-3.33 19 -3.66 19 -4 19 C-4 17.02 -4 15.04 -4 13 C-5.32 13.33 -6.64 13.66 -8 14 C-8.33 17.3 -8.66 20.6 -9 24 C-12 25 -12 25 -14.125 24 C-16.81510865 21.13055077 -16.93095356 18.8666008 -17 15 C-15.49597949 12.85139927 -14.32895015 12.16447508 -12 11 C-11.375 7.9375 -11.375 7.9375 -11 5 C-12.65 5 -14.3 5 -16 5 C-16.165 4.175 -16.165 4.175 -17 0 C-20.79164991 -0.02943124 -24.58326979 -0.0469419 -28.375 -0.0625 C-29.43589844 -0.07087891 -30.49679688 -0.07925781 -31.58984375 -0.08789062 C-38.12672204 -0.1079424 -44.51174824 0.1941922 -51 1 C-50.13063595 8.7853497 -48.83178785 14.72974096 -44 21 C-44.66 21.33 -44.66 21.33 -48 23 C-48.33 22.01 -48.66 21.02 -49 20 C-50.32 19.67 -51.64 19.34 -53 19 C-53 13.06 -53 7.12 -53 1 C-54.65 0.67 -56.3 0.34 -58 0 C-58 -0.33 -58 -0.66 -58 -1 C-38.25356339 -3.8985595 -19.64253878 -3.54451828 0 0 Z " fill="#AF864C" transform="translate(78,24)" />
<path d="M0 0 C2.79297711 0.44099639 5.31340243 1.10446748 8 2 C8 1.34 8 0.68 8 0 C10.86855713 0.08436933 12.55682315 0.58692181 14.66796875 2.5546875 C19 7.51440024 19 7.51440024 19 10 C19.53625 10.226875 20.0725 10.45375 20.625 10.6875 C23.78500863 12.43382056 26.2676983 14.6402849 29 17 C29 14.69 29 12.38 29 10 C29.66 10 30.32 10 31 10 C31.165 11.485 31.165 11.485 32 19 C31.01 19 30.02 19 29 19 C29 19.66 29 20.32 29 21 C29.99 21 30.98 21 32 21 C33.76462683 24.08809695 34 25.23312136 34 29 C32.35 29 30.7 29 29 29 C28.67 29.99 28.34 30.98 28 32 C25.2027092 29.93243723 24.97307727 28.85559629 24.3125 25.3125 C24.209375 24.219375 24.10625 23.12625 24 22 C24.66 22 25.32 22 26 22 C24.59230365 20.20127688 23.17348997 18.41125032 21.75 16.625 C21.35554688 16.12613281 21.35554688 16.12613281 19.359375 13.6015625 C17.24403035 11.26907982 15.89308764 10.10149667 13 9 C12.67 9.495 12.67 9.495 11 12 C10.01 11.835 10.01 11.835 5 11 C5 11.66 5 12.32 5 13 C3.35 13 1.7 13 0 13 C-1.25069801 10.49860398 -1.13302467 8.72607309 -1.125 5.9375 C-1.12757812 5.03902344 -1.13015625 4.14054687 -1.1328125 3.21484375 C-1 1 -1 1 0 0 Z " fill="#4C402E" transform="translate(43,36)" />
<path d="M0 0 C0.33 0.99 0.66 1.98 1 3 C3.64 3.33 6.28 3.66 9 4 C8.5875 4.886875 8.175 5.77375 7.75 6.6875 C7.5025 7.780625 7.255 8.87375 7 10 C8.875 12.875 8.875 12.875 11 15 C10.01 15 9.02 15 8 15 C7.4225 14.195625 6.845 13.39125 6.25 12.5625 C3.31873913 9.22411957 1.30869403 9.39895315 -3 9 C-3.66 8.34 -4.32 7.68 -5 7 C-8.125 6.875 -8.125 6.875 -11 7 C-11.66 8.65 -12.32 10.3 -13 12 C-17 12 -17 12 -20 11 C-21.38550197 8.22899606 -21.1877467 6.0665294 -21 3 C-19 0 -19 0 -15.8125 -0.6875 C-10.36024651 -1.13440602 -5.34201348 -1.29503357 0 0 Z " fill="#D9B069" transform="translate(52,28)" />
<path d="M0 0 C0.99 0 1.98 0 3 0 C4.60670684 3.21341369 3.82510855 6.62958968 3.5625 10.125 C3.51029297 10.87910156 3.45808594 11.63320313 3.40429688 12.41015625 C3.27454996 14.2737937 3.13792512 16.13694996 3 18 C4.65 18.33 6.3 18.66 8 19 C8.75 20.6875 8.75 20.6875 9 23 C7.7120272 24.70196405 6.37013339 26.36345179 5 28 C2.66354834 32.67290331 1.52976918 36.80826199 1 42 C1.495 41.835 1.495 41.835 4 41 C4.12375 42.093125 4.2475 43.18625 4.375 44.3125 C5 48 5 48 7 51 C6.625 53.6875 6.625 53.6875 6 56 C3.69 55.67 1.38 55.34 -1 55 C-1.33 53.68 -1.66 52.36 -2 51 C-1.34 51 -0.68 51 0 51 C-0.165 50.505 -0.165 50.505 -1 48 C-1.12005171 46.06521317 -1.17530837 44.12596946 -1.1875 42.1875 C-1.20167969 41.17042969 -1.21585938 40.15335938 -1.23046875 39.10546875 C-1 36 -1 36 0 33.18920898 C1.03574123 29.88601375 1.24419468 27.31589565 1.23046875 23.8671875 C1.22853516 22.73152344 1.22660156 21.59585938 1.22460938 20.42578125 C1.21236328 19.25402344 1.20011719 18.08226562 1.1875 16.875 C1.18717773 16.28525391 1.18717773 16.28525391 1.18554688 13.30078125 C1.13687407 3.79336037 1.13687407 3.79336037 0 0 Z " fill="#A97E42" transform="translate(22,25)" />
<path d="M0 0 C4.78478261 5.55652174 4.78478261 5.55652174 5 9 C4.37943989 10.68437744 3.70710678 12.35008418 3 14 C2.95875 14.99 2.9175 15.98 2.875 17 C1.69105685 21.05923364 -0.27957602 21.96670061 -3.87109375 23.96484375 C-8.09865072 26.02044485 -11.28212534 27 -16 27 C-16 26.34 -16 25.68 -16 25 C-14.02 25 -12.04 25 -10 25 C-10 24.01 -10 23.02 -10 22 C-10.66 21.67 -11.32 21.34 -12 21 C-11.67 20.34 -11.34 19.68 -11 19 C-10.37351562 18.85304688 -9.74703125 18.70609375 -9.1015625 18.5546875 C-6.06710637 17.75377157 -4.81434189 15.77252235 -3.10546875 13.25390625 C-1.06013307 9.08373421 -0.55405527 4.57302336 0 0 Z " fill="#C08D3F" transform="translate(59,55)" />
<path d="M0 0 C0 0.99 0 1.98 0 3 C-0.33 3.165 -0.33 3.165 -2 4 C-2.33 4.99 -2.66 5.98 -3 7 C-3.66 7 -4.32 7 -5 7 C-5 8.32 -5 9.64 -5 11 C-4.01 11 -3.02 11 -2 11 C-2 13.64 -2 16.28 -2 19 C-2.33 19 -2.66 19 -3 19 C-3 17.02 -3 15.04 -3 13 C-4.32 13.33 -5.64 13.66 -7 14 C-7.33 17.3 -7.66 20.6 -8 24 C-11 25 -11 25 -13.125 24 C-15.81510865 21.13055077 -15.93095356 18.8666008 -16 15 C-14.49597949 12.85139927 -13.32895015 12.16447508 -11 11 C-9.875 8.9375 -9.875 8.9375 -9 7 C-8.34 7 -7.68 7 -7 7 C-7.33 5.68 -7.66 4.36 -8 3 C-6.68 3 -5.36 3 -4 3 C-4 2.34 -4 1.68 -4 1 C-2.68 0.67 -1.36 0.34 0 0 Z " fill="#B57C35" transform="translate(77,24)" />
<path d="M0 0 C0.99 0.165 0.99 0.165 6 1 C6 2.32 6 3.64 6 5 C6.66 5 7.32 5 8 5 C8.33 4.34 8.66 3.68 9 3 C10.32 4.32 11.64 5.64 13 7 C12.34 8.32 11.68 9.64 11 11 C7.37 11.165 7.37 11.165 -11 12 C-9.68 11.67 -8.36 11.34 -7 11 C-6.67 10.01 -6.34 9.02 -6 8 C-4.37109375 6.39453125 -4.37109375 6.39453125 -2.4375 4.8125 C-1.79683594 4.28269531 -1.15617187 3.75289063 -0.49609375 3.20703125 C-0.00238281 2.80871094 0.49132812 2.41039063 1 2 C0.67 1.34 0.34 0.68 0 0 Z " fill="#693C11" transform="translate(70,77)" />
<path d="M0 0 C0.66 0 1.32 0 2 0 C2 2.31 2 4.62 2 7 C3.32 7 4.64 7 6 7 C8.24307445 19.67737613 8.21757058 32.15831479 8 45 C7.34 45 6.68 45 6 45 C6 43.68 6 42.36 6 41 C5.34 40.67 4.68 40.34 4 40 C4.309375 38.9275 4.61875 37.855 4.9375 36.75 C5.66812096 34.17133778 6.37482904 31.60487898 7 29 C5.68 29.33 4.36 29.66 3 30 C3 29.34 3 28.68 3 28 C4.32 28 5.64 28 7 28 C6.34 25.36 5.68 22.72 5 20 C4.01 20 3.02 20 2 20 C2 19.34 2 18.68 2 18 C2.66 17.67 3.32 17.34 4 17 C4 14.36 4 11.72 4 9 C3.34 9 2.68 9 2 9 C2 11.31 2 13.62 2 16 C0.0625 15.25 0.0625 15.25 -2 14 C-3.23843794 11.04680182 -3.04187157 10.12561472 -2 7 C-1.32811503 4.66816393 -0.66084583 2.33498858 0 0 Z " fill="#875F39" transform="translate(70,37)" />
<path d="M0 0 C0.66 0.33 1.32 0.66 2 1 C1.67 1.66 1.34 2.32 1 3 C0.34 3 -0.32 3 -1 3 C-2.51486715 7.54460146 -1.91346634 11.94220677 -1.6875 16.6875 C-1.65205078 17.65623047 -1.61660156 18.62496094 -1.58007812 19.62304688 C-1.31944263 25.37647826 -0.4991049 30.44909751 1 36 C1.65738854 42.56421788 0.71353361 48.66604542 -1 55 C-1.33 55 -1.66 55 -2 55 C-1.99476318 54.38479492 -1.98952637 53.76958984 -1.98413086 53.13574219 C-1.96330629 50.34050524 -1.95032241 47.54528464 -1.9375 44.75 C-1.92912109 43.78191406 -1.92074219 42.81382813 -1.91210938 41.81640625 C-1.91049805 41.34912109 -1.91049805 41.34912109 -1.90234375 38.984375 C-1.89972534 38.55495605 -1.89972534 38.55495605 -1.88647461 36.38183594 C-1.9950362 34.1041438 -2.41152414 32.19299207 -3 30 C-3.06688591 28.08438746 -3.08531719 26.16664408 -3.0625 24.25 C-3.05347656 23.26515625 -3.04445313 22.2803125 -3.03515625 21.265625 C-3.02355469 20.51796875 -3.01195313 19.7703125 -3 19 C-4.32 19 -5.64 19 -7 19 C-7 16.69 -7 14.38 -7 12 C-6.34 12 -5.68 12 -5 12 C-4.67 11.34 -4.34 10.68 -4 10 C-4.99 10 -5.98 10 -7 10 C-7 8.68 -7 7.36 -7 6 C-6.34 6 -5.68 6 -5 6 C-4.9175 5.38125 -4.835 4.7625 -4.75 4.125 C-4 2 -4 2 -2.0625 0.6875 C-1.381875 0.460625 -0.70125 0.23375 0 0 Z " fill="#503315" transform="translate(79,25)" />
<path d="M0 0 C0.625 1.8125 0.625 1.8125 1 4 C0.67 4.495 0.67 4.495 -1 7 C-1.1875 10.1875 -1.1875 10.1875 0 14 C3.5645341 17.91039979 7.60753687 21.07169125 12 24 C7.80682689 24.34943109 6.23004556 23.58403645 3 21 C2.01 21 1.02 21 0 21 C-0.33 20.34 -0.66 19.68 -1 19 C-3.48412207 18.17195931 -5.35220307 18 -8 18 C-7.87173082 9.91904181 -5.36992101 5.93074827 0 0 Z " fill="#C9A76B" transform="translate(39,52)" />
<path d="M0 0 C0.66 0.33 1.32 0.66 2 1 C0.06382979 7.70212766 0.06382979 7.70212766 -3 10 C-3.66 10 -4.32 10 -5 10 C-5 10.66 -5 11.32 -5 12 C-10.10014267 13.02659877 -15.00920922 13.18330025 -20.1875 13.1875 C-20.99380859 13.19974609 -21.80011719 13.21199219 -22.63085938 13.22460938 C-23.01854492 13.22557617 -23.01854492 13.22557617 -24.98046875 13.23046875 C-25.68067139 13.23457764 -26.38087402 13.23868652 -27.10229492 13.24291992 C-29 13 -29 13 -32 11 C-29.69812862 9.84906431 -28.52110127 9.92223145 -25.97265625 10.0078125 C-25.5765918 10.01619141 -25.5765918 10.01619141 -23.57226562 10.05859375 C-21.90276675 10.10276726 -20.23345719 10.15481702 -18.56445312 10.21484375 C-18.16774414 10.22193359 -18.16774414 10.22193359 -16.16015625 10.2578125 C-15.79732544 10.2688501 -15.79732544 10.2688501 -13.96118164 10.32470703 C-11.42115357 9.90416211 -10.68293665 8.89679366 -9 7 C-7 5.66666667 -5 4.33333333 -3 3 C-1.125 1.25 -1.125 1.25 0 0 Z " fill="#9C6A29" transform="translate(66,74)" />
<path d="M0 0 C0.95479248 0.11754639 1.90958496 0.23509277 2.89331055 0.35620117 C3.77672119 0.4822876 4.66013184 0.60837402 5.5703125 0.73828125 C6.35422363 0.84825439 7.13813477 0.95822754 7.94580078 1.0715332 C9.875 1.6875 9.875 1.6875 11.875 4.6875 C10.885 5.0175 9.895 5.3475 8.875 5.6875 C8.875 5.0275 8.875 4.3675 8.875 3.6875 C-7.75337196 1.68709435 -24.32176265 0.617304 -41.015625 2.53125 C-43.83025288 2.73974095 -46.39202737 2.35227713 -49.125 1.6875 C-49.125 1.3575 -49.125 1.0275 -49.125 0.6875 C-32.58269081 -1.7124205 -16.60883018 -2.12313745 0 0 Z " fill="#5D4119" transform="translate(69.125,20.3125)" />
<path d="M0 0 C6.39875653 3.99922283 10.50337438 8.98503326 15 15 C14.67 15.66 14.34 16.32 14 17 C13.67 17 13.34 17 13 17 C13.33 18.65 13.66 20.3 14 22 C9.7835599 20.43835552 7.58130177 17.58514135 5 14 C5 12.68 5 11.36 5 10 C4.34 10 3.68 10 3 10 C2.67 8.02 2.34 6.04 2 4 C1.34 4 0.68 4 0 4 C0 2.68 0 1.36 0 0 Z " fill="#302E26" transform="translate(55,43)" />
<path d="M0 0 C2.96404505 2.80804268 5.44499019 5.18315774 7 9 C7.433125 8.21625 7.86625 7.4325 8.3125 6.625 C10 4 10 4 13 2 C13.99 2 14.98 2 16 2 C15.7589852 8.14587738 15.7589852 8.14587738 13.59765625 10.578125 C12.11953029 11.78844931 10.56352047 12.90220903 9 14 C5.17377257 12.4411666 2.74852621 10.04566418 0 7 C-1.04449911 3.86650268 -0.93423645 3.01031744 0 0 Z " fill="#403D38" transform="translate(40,59)" />
<path d="M0 0 C-0.33 0.99 -0.66 1.98 -1 3 C-1.5053125 2.9896875 -1.5053125 2.9896875 -4.0625 2.9375 C-7.82554373 2.99723085 -11.31023261 3.26204652 -15 4 C-16.14352916 6.28705831 -16.10334439 7.59264762 -16.0625 10.125 C-16.041875 11.40375 -16.02125 12.6825 -16 14 C-14.68 14.33 -13.36 14.66 -12 15 C-12 15.99 -12 16.98 -12 18 C-13.32 18 -14.64 18 -16 18 C-19.07983417 14.304199 -21.30570347 10.89125545 -21 6 C-16.35236678 -1.82947442 -8.01757097 -0.60048382 0 0 Z " fill="#CFA558" transform="translate(48,25)" />
<path d="M0 0 C0.9075 0.309375 1.815 0.61875 2.75 0.9375 C5.16563338 1.7272263 7.52780285 2.42949297 10 3 C10.33 4.65 10.66 6.3 11 8 C6.25 9.125 6.25 9.125 4 8 C4 8.66 4 9.32 4 10 C2.35 10 0.7 10 -1 10 C-2.38125018 7.23749964 -2.19079306 5.05268901 -2 2 C-1.34 1.34 -0.68 0.68 0 0 Z " fill="#7F8081" transform="translate(44,39)" />
<path d="M0 0 C0.33 0.66 0.66 1.32 1 2 C2.32 1.67 3.64 1.34 5 1 C4.67 4.3 4.34 7.6 4 11 C0.846632 11.70074844 -1.72724974 12 -5 12 C-5.33 9.36 -5.66 6.72 -6 4 C-5.5978125 3.855625 -5.5978125 3.855625 -3.5625 3.125 C-1 2 -1 2 0 0 Z " fill="#9C682C" transform="translate(72,65)" />
<path d="M0 0 C1.98 0.66 3.96 1.32 6 2 C5.67 2.99 5.34 3.98 5 5 C4.01 5 3.02 5 2 5 C0.61328125 6.75 0.61328125 6.75 -0.6875 9 C-1.12449219 9.7425 -1.56148437 10.485 -2.01171875 11.25 C-2.33785156 11.8275 -2.66398437 12.405 -3 13 C-3.99 12.67 -4.98 12.34 -6 12 C-6 11.34 -6 10.68 -6 10 C-6.66 10 -7.32 10 -8 10 C-8 8.68 -8 7.36 -8 6 C-7.01 5.67 -6.02 5.34 -5 5 C-3.29413425 3.37347684 -1.6222454 1.70993434 0 0 Z " fill="#D5B16F" transform="translate(41,28)" />
<path d="M0 0 C0.99 0.33 1.98 0.66 3 1 C3.5625 3.5625 3.5625 3.5625 3 7 C0.2836861 9.74923891 -2.70271179 11.98829708 -6 14 C-6.66 14 -7.32 14 -8 14 C-8 11.69 -8 9.38 -8 7 C-7.71125 6.8865625 -7.71125 6.8865625 -6.25 6.3125 C-3.4336339 4.66961977 -1.91922886 2.60466773 0 0 Z " fill="#4C3C34" transform="translate(31,53)" />
<path d="M0 0 C1.33962146 4.06505823 0.4358271 6.77797025 -0.72265625 10.78125 C-1.06748813 13.53990507 -0.47009824 14.68007753 1 17 C3.560133 19.98682184 5.18770828 21.21042494 9 22 C14.0374148 17.34770866 15.68541235 13.80294377 15.9921875 6.94140625 C15.99476562 6.30074219 15.99734375 5.66007812 16 5 C16.33 5 16.66 5 17 5 C17.6060575 11.10546811 17.84926594 15.65453961 14 20.6875 C13.02495646 21.81376557 12.03319469 22.92683051 11 24 C6.20788074 23.90220165 3.68462733 23.16931349 0.125 19.875 C-3.05819734 16.33971086 -4.25267009 13.88495502 -4 9 C-2.9059408 5.86336239 -1.55077171 2.9351516 0 0 Z " fill="#3E3114" transform="translate(41,50)" />
<path d="M0 0 C0.33 0 0.66 0 1 0 C1.08636719 0.7734375 1.17273438 1.546875 1.26171875 2.34375 C2.20510572 9.33693047 3.67396511 14.38606159 8 20 C7.34 20.33 7.34 20.33 4 22 C3.67 21.01 3.34 20.02 3 19 C0.9375 18.3125 0.9375 18.3125 -1 18 C-1.02684312 15.18743719 -1.04676188 12.37512759 -1.0625 9.5625 C-1.07087891 8.76005859 -1.07925781 7.95761719 -1.08789062 7.13085938 C-1.0965143 5.08704779 -1.0522815 3.04316098 -1 1 C-0.67 0.67 -0.34 0.34 0 0 Z " fill="#B98940" transform="translate(26,25)" />
<path d="M0 0 C0.66 0.33 1.32 0.66 2 1 C-0.66408115 3.66408115 -2.15345563 3.32150866 -5.875 3.5 C-10.31736517 3.76819987 -14.56827895 4.22158666 -18.9375 5.0625 C-25.62728765 6.27149777 -32.22340387 6.18044191 -39 6 C-39 5.34 -39 4.68 -39 4 C-37.74703125 3.93941406 -36.4940625 3.87882812 -35.203125 3.81640625 C-33.55207276 3.73197744 -31.90103165 3.64733061 -30.25 3.5625 C-29.425 3.52318359 -28.6 3.48386719 -27.75 3.44335938 C-26.95078125 3.40146484 -26.1515625 3.35957031 -25.328125 3.31640625 C-24.5949707 3.27974854 -23.86181641 3.24309082 -23.10644531 3.20532227 C-20.98426221 2.99846599 -19.063952 2.52142215 -17 2 C-13.52654391 1.74661718 -10.05837169 1.55886008 -6.58007812 1.39453125 C-1.10224581 1.10224581 -1.10224581 1.10224581 0 0 Z " fill="#745F44" transform="translate(82,86)" />
<path d="M0 0 C0.33 0.66 0.66 1.32 1 2 C-1 5 -1 5 -4 6 C-4.33 6.66 -4.66 7.32 -5 8 C-11.6 8 -18.2 8 -25 8 C-25.33 7.01 -25.66 6.02 -26 5 C-25.01 5.33 -24.02 5.66 -23 6 C-22.236875 5.835 -21.47375 5.67 -20.6875 5.5 C-18 5 -18 5 -15.0625 5.5625 C-8.96838963 6.4330872 -4.81886267 3.44204477 0 0 Z " fill="#B98236" transform="translate(59,75)" />
<path d="M0 0 C0.99 0 1.98 0 3 0 C4.60670684 3.21341369 3.82510855 6.62958968 3.5625 10.125 C3.51029297 10.87910156 3.45808594 11.63320313 3.40429688 12.41015625 C3.27454996 14.2737937 3.13792512 16.13694996 3 18 C4.65 18.33 6.3 18.66 8 19 C8 19.99 8 20.98 8 22 C7.01 22.33 6.02 22.66 5 23 C5 23.66 5 24.32 5 25 C4.01 25 3.02 25 2 25 C1.98747192 24.69239746 1.98747192 24.69239746 1.92407227 23.13574219 C1.80781513 20.34029844 1.68522358 17.54516702 1.5625 14.75 C1.52318359 13.78191406 1.48386719 12.81382813 1.44335938 11.81640625 C1.40146484 10.88183594 1.35957031 9.94726562 1.31640625 8.984375 C1.27974854 8.12553711 1.24309082 7.26669922 1.20532227 6.38183594 C1.01296486 4.15039857 0.61153756 2.15017476 0 0 Z " fill="#977136" transform="translate(22,25)" />
<path d="M0 0 C5.28 0 10.56 0 16 0 C14.68 0.33 13.36 0.66 12 1 C12 1.66 12 2.32 12 3 C11.01 3.33 10.02 3.66 9 4 C9 4.99 9 5.98 9 7 C8.01 7 7.02 7 6 7 C6 6.34 6 5.68 6 5 C4.35 5 2.7 5 1 5 C0.67 3.35 0.34 1.7 0 0 Z " fill="#BA873C" transform="translate(61,24)" />
<path d="M0 0 C0 2.64 0 5.28 0 8 C-0.33 8 -0.66 8 -1 8 C-1 6.02 -1 4.04 -1 2 C-2.32 2.33 -3.64 2.66 -5 3 C-5.33 6.3 -5.66 9.6 -6 13 C-6.99 13.33 -7.98 13.66 -9 14 C-11.1875 12.75 -11.1875 12.75 -13 11 C-13 10.01 -13 9.02 -13 8 C-12.01 8 -11.02 8 -10 8 C-9.67 7.01 -9.34 6.02 -9 5 C-8.34 5 -7.68 5 -7 5 C-6.67 3.68 -6.34 2.36 -6 1 C-3.92446352 0.4465236 -2.15634036 0 0 0 Z " fill="#9A6B2F" transform="translate(75,35)" />
<path d="M0 0 C0.99 0.33 1.98 0.66 3 1 C3 1.99 3 2.98 3 4 C2.34 4 1.68 4 1 4 C0.67 4.99 0.34 5.98 0 7 C-0.495 7.45375 -0.99 7.9075 -1.5 8.375 C-3.43309736 10.46918881 -3.62452796 12.22150692 -4 15 C-6 12 -6 12 -6.9375 9.9375 C-8 8 -8 8 -11 6 C-10.67 5.01 -10.34 4.02 -10 3 C-9.01 3.99 -8.02 4.98 -7 6 C-2.32307692 4.52307692 -2.32307692 4.52307692 -0.6875 1.875 C-0.460625 1.25625 -0.23375 0.6375 0 0 Z " fill="#1D1E1F" transform="translate(52,56)" />
<path d="M0 0 C0 0.33 0 0.66 0 1 C-1.258125 1.2475 -2.51625 1.495 -3.8125 1.75 C-7.57042865 2.66301788 -8.90263247 3.68836705 -11 7 C-11.99 7 -12.98 7 -14 7 C-14 8.32 -14 9.64 -14 11 C-13.34 11.33 -12.68 11.66 -12 12 C-12.99 12 -13.98 12 -15 12 C-16.38550197 9.22899606 -16.1877467 7.0665294 -16 4 C-14 1 -14 1 -10.8125 0.3125 C-7.18514304 0.01517566 -3.63746198 -0.07423392 0 0 Z " fill="#D8AE62" transform="translate(47,27)" />
<path d="M0 0 C2.16874252 0.50603992 3.99967627 0.99983813 6 2 C7.59262066 2.15175549 9.19064856 2.24900325 10.7890625 2.31640625 C11.73007812 2.35830078 12.67109375 2.40019531 13.640625 2.44335938 C14.62546875 2.48267578 15.6103125 2.52199219 16.625 2.5625 C17.61757813 2.60568359 18.61015625 2.64886719 19.6328125 2.69335938 C22.08839838 2.79961069 24.54408703 2.90164964 27 3 C26.67 3.66 26.34 4.32 26 5 C22.62516587 5.08767555 19.25062785 5.14061628 15.875 5.1875 C15.39933594 5.20006836 15.39933594 5.20006836 12.9921875 5.26367188 C7.53078926 5.32056144 3.7468668 5.04470749 -1 2 C-0.67 1.34 -0.34 0.68 0 0 Z " fill="#AD752A" transform="translate(28,80)" />
<path d="M0 0 C0.66 0.66 1.32 1.32 2 2 C1.8185339 4.60491661 1.53723614 7.05681623 1.125 9.625 C1.02058594 10.33140625 0.91617188 11.0378125 0.80859375 11.765625 C0.54900874 13.51192414 0.27578567 15.25618599 0 17 C-0.99 16.67 -1.98 16.34 -3 16 C-3.33 16.825 -3.33 16.825 -5 21 C-6.98 20.67 -8.96 20.34 -11 20 C-10.443125 19.814375 -9.88625 19.62875 -9.3125 19.4375 C-4.8828561 16.68393758 -2.53473419 13.04021661 -1.23828125 8.09375 C-0.74877428 5.39972585 -0.32929605 2.7179211 0 0 Z " fill="#B59357" transform="translate(59,55)" />
<path d="M0 0 C1.65 0 3.3 0 5 0 C4.66226562 0.51949219 4.32453125 1.03898437 3.9765625 1.57421875 C-0.38667545 8.39650699 -2.27608926 12.85536697 -2 21 C-2.99 21 -3.98 21 -5 21 C-5.42765417 14.58518742 -3.85743168 9.11404596 -2 3 C-1.01 3 -0.02 3 1 3 C0.67 2.01 0.34 1.02 0 0 Z " fill="#967B4F" transform="translate(26,47)" />
<path d="M0 0 C0.99 0.33 1.98 0.66 3 1 C3 3 3 3 1.42578125 4.5859375 C0.72839844 5.17632812 0.03101563 5.76671875 -0.6875 6.375 C-1.05037109 6.68373047 -1.05037109 6.68373047 -2.88671875 8.24609375 C-5.23449112 10.19461463 -7.59564775 12.1215998 -10 14 C-10.33 13.34 -10.66 12.68 -11 12 C-3.70159453 3.55353075 -3.70159453 3.55353075 0 0 Z " fill="#4D402E" transform="translate(37,41)" />
<path d="M0 0 C0.825 0.33 0.825 0.33 5 2 C5 2.66 5 3.32 5 4 C6.32 4.33 7.64 4.66 9 5 C5.535 5.165 5.535 5.165 -12 6 C-8 4 -8 4 -4 4 C-4 3.34 -4 2.68 -4 2 C-2.68 2 -1.36 2 0 2 C0 1.34 0 0.68 0 0 Z " fill="#53300F" transform="translate(71,83)" />
<path d="M0 0 C-1.28519565 2.86697492 -2.57129254 4.97607712 -5 7 C-5.66 7 -6.32 7 -7 7 C-7 7.66 -7 8.32 -7 9 C-9.77972485 12.01136859 -12.64911741 14.64197151 -16 17 C-15.8125 14.1875 -15.8125 14.1875 -15 11 C-12.9375 9.625 -12.9375 9.625 -10 8 C-7.85436744 5.94068599 -5.80896461 3.8087483 -3.76953125 1.64453125 C-2 0 -2 0 0 0 Z " fill="#1D211F" transform="translate(40,44)" />
<path d="M0 0 C0.66 0 1.32 0 2 0 C2.33 3.63 2.66 7.26 3 11 C1.35 11.33 -0.3 11.66 -2 12 C-3.60170888 7.9957278 -2.34040384 4.94674464 -1 1 C-0.67 0.67 -0.34 0.34 0 0 Z " fill="#DEB870" transform="translate(34,59)" />
<path d="M0 0 C4.38332057 0.82187261 8.67940177 1.90154282 13 3 C11.24210025 5.22050495 10.42295963 5.94577441 7.5625 6.3125 C4.91122214 5.98917343 3.28688627 5.3405885 1 4 C0.34 3.67 -0.32 3.34 -1 3 C-0.67 2.01 -0.34 1.02 0 0 Z " fill="#53534F" transform="translate(43,36)" />
<path d="M0 0 C1.32 0 2.64 0 4 0 C5.76462683 3.08809695 6 4.23312136 6 8 C4.35 8 2.7 8 1 8 C0.67 8.99 0.34 9.98 0 11 C0 7.33333333 0 3.66666667 0 0 Z " fill="#502F15" transform="translate(71,57)" />
<path d="M0 0 C3 1 3 1 4 3 C4.99 3 5.98 3 7 3 C9.6875 5.5 9.6875 5.5 12 8 C9.36 8 6.72 8 4 8 C2 4.25 2 4.25 2 2 C1.34 2 0.68 2 0 2 C0 1.34 0 0.68 0 0 Z " fill="#CC9A4D" transform="translate(36,70)" />
<path d="M0 0 C0.66 0.33 1.32 0.66 2 1 C1.67 4.3 1.34 7.6 1 11 C0.34 11 -0.32 11 -1 11 C-3.04169485 8.09451118 -4 6.59857954 -4 3 C-2 1.3125 -2 1.3125 0 0 Z " fill="#CCA563" transform="translate(31,62)" />
<path d="M0 0 C0.66 0 1.32 0 2 0 C2.33 2.97 2.66 5.94 3 9 C0.8125 9.8125 0.8125 9.8125 -2 10 C-4.8125 7.6875 -4.8125 7.6875 -7 5 C-7 4.34 -7 3.68 -7 3 C-4.50638429 4.20381448 -2.31856917 5.45428722 0 7 C0 4.69 0 2.38 0 0 Z " fill="#4C2C0D" transform="translate(72,46)" />
<path d="M0 0 C0.103125 0.53625 0.20625 1.0725 0.3125 1.625 C1 4 1 4 2.625 6.9375 C4.1299591 10.28945437 4.10780209 11.57588445 3 15 C0.90250005 12.64031256 0.03094296 11.45383006 -0.1875 8.25 C-0.1565625 7.87875 -0.1565625 7.87875 0 6 C-0.66 6 -1.32 6 -2 6 C-2 5.01 -2 4.02 -2 3 C-2.66 2.67 -3.32 2.34 -4 2 C-2.68 1.34 -1.36 0.68 0 0 Z " fill="#B7853C" transform="translate(25,66)" />
<path d="M0 0 C0.33 0 0.66 0 1 0 C1.71748088 7.22795557 1.30861268 11.82429528 -3.19921875 17.63671875 C-5.55815503 19.4225512 -7.11329574 19.2606394 -10 19 C-10 18.34 -10 17.68 -10 17 C-9.443125 16.95875 -8.88625 16.9175 -8.3125 16.875 C-4.77199425 15.53534918 -2.73117981 13.27362197 -1 10 C-0.31428285 6.66582456 -0.07389646 3.39923718 0 0 Z " fill="#33240A" transform="translate(57,55)" />
<path d="M0 0 C3.1875 0.875 3.1875 0.875 6 2 C5.67 2.99 5.34 3.98 5 5 C4.01 5 3.02 5 2 5 C1.34 5.66 0.68 6.32 0 7 C-0.99 5.35 -1.98 3.7 -3 2 C-2.01 1.34 -1.02 0.68 0 0 Z " fill="#DBB975" transform="translate(41,28)" />
<path d="M0 0 C0.99 0.33 1.98 0.66 3 1 C2.34 2.32 1.68 3.64 1 5 C0.34 5 -0.32 5 -1 5 C-1 5.66 -1 6.32 -1 7 C-1.66 7 -2.32 7 -3 7 C-3.33 7.66 -3.66 8.32 -4 9 C-4.8125 7.3125 -4.8125 7.3125 -5 5 C-2.5625 2.25 -2.5625 2.25 0 0 Z " fill="#4D5052" transform="translate(53,61)" />
<path d="M0 0 C2.5625 1.375 2.5625 1.375 5 4 C5.15019141 7.42221863 4.64674116 10.64463 4 14 C3.896875 13.360625 3.79375 12.72125 3.6875 12.0625 C3.460625 11.381875 3.23375 10.70125 3 10 C2.01 9.67 1.02 9.34 0 9 C0.66 9 1.32 9 2 9 C2 8.01 2 7.02 2 6 C1.34 6 0.68 6 0 6 C0 4.02 0 2.04 0 0 Z " fill="#33352F" transform="translate(53,51)" />
<path d="M0 0 C0.66 0.33 1.32 0.66 2 1 C2.6328125 3.94140625 2.6328125 3.94140625 3.125 7.5625 C3.29257813 8.76003906 3.46015625 9.95757812 3.6328125 11.19140625 C3.75398438 12.11824219 3.87515625 13.04507813 4 14 C3.01 13.67 2.02 13.34 1 13 C1 12.34 1 11.68 1 11 C0.01 11 -0.98 11 -2 11 C-2 10.34 -2 9.68 -2 9 C-1.34 8.67 -0.68 8.34 0 8 C0 5.36 0 2.72 0 0 Z " fill="#735435" transform="translate(74,46)" />
<path d="M0 0 C0.66 0 1.32 0 2 0 C1.4409112 3.24271506 0.5867822 4.93057424 -2 7 C-2.66 7 -3.32 7 -4 7 C-4 7.66 -4 8.32 -4 9 C-5.98 9 -7.96 9 -10 9 C-7.46753247 6.08766234 -7.46753247 6.08766234 -5 5.625 C-2.03748985 4.69921558 -1.47438958 2.61369061 0 0 Z " fill="#926020" transform="translate(65,77)" />
<path d="M0 0 C0.625 1.8125 0.625 1.8125 1 4 C0.67 4.495 0.67 4.495 -1 7 C-0.9765625 9.48046875 -0.9765625 9.48046875 -0.625 12.1875 C-0.51414062 13.08855469 -0.40328125 13.98960938 -0.2890625 14.91796875 C-0.19367187 15.60503906 -0.09828125 16.29210937 0 17 C-1.48828125 15.73046875 -1.48828125 15.73046875 -3 14 C-3.1875 10.3125 -3.1875 10.3125 -3 7 C-3.66 6.67 -4.32 6.34 -5 6 C-3.35 4.02 -1.7 2.04 0 0 Z " fill="#CAB384" transform="translate(39,52)" />
<path d="M0 0 C0.33 0.99 0.66 1.98 1 3 C1.66 3 2.32 3 3 3 C3 5.31 3 7.62 3 10 C-0.74278215 8.5511811 -0.74278215 8.5511811 -1.875 6.125 C-2.02787435 3.52613603 -1.33454536 2.1980747 0 0 Z " fill="#80501A" transform="translate(69,43)" />
<path d="M0 0 C1.32 0.66 2.64 1.32 4 2 C3.67 2.66 3.34 3.32 3 4 C2.01 3.67 1.02 3.34 0 3 C0 4.98 0 6.96 0 9 C1.32 8.67 2.64 8.34 4 8 C4 8.66 4 9.32 4 10 C2.35 10 0.7 10 -1 10 C-2.38125018 7.23749964 -2.19079306 5.05268901 -2 2 C-1.34 1.34 -0.68 0.68 0 0 Z " fill="#CCCFCA" transform="translate(44,39)" />
<path d="M0 0 C0.33 0.99 0.66 1.98 1 3 C1.99 2.67 2.98 2.34 4 2 C4 2.66 4 3.32 4 4 C4.99 4.33 5.98 4.66 7 5 C6.38125 5.12375 5.7625 5.2475 5.125 5.375 C3 6 3 6 1 8 C0.01 7.67 -0.98 7.34 -2 7 C-1.34 4.69 -0.68 2.38 0 0 Z " fill="#32312F" transform="translate(42,52)" />
<path d="M0 0 C0.99 0 1.98 0 3 0 C3.33 1.98 3.66 3.96 4 6 C4.66 6 5.32 6 6 6 C5.67 8.97 5.34 11.94 5 15 C4.67 15 4.34 15 4 15 C4 12.36 4 9.72 4 7 C3.01 6.67 2.02 6.34 1 6 C0.67 4.02 0.34 2.04 0 0 Z " fill="#4A4433" transform="translate(54,47)" />
<path d="M0 0 C1.65 0.33 3.3 0.66 5 1 C5 1.99 5 2.98 5 4 C4.01 4.33 3.02 4.66 2 5 C2 5.66 2 6.32 2 7 C1.01 7 0.02 7 -1 7 C-0.67 4.69 -0.34 2.38 0 0 Z " fill="#AD7C2A" transform="translate(25,43)" />
<path d="M0 0 C0 0.99 0 1.98 0 3 C-0.33 3.165 -0.33 3.165 -2 4 C-2.33 4.99 -2.66 5.98 -3 7 C-3.66 7 -4.32 7 -5 7 C-5 8.32 -5 9.64 -5 11 C-5.99 11 -6.98 11 -8 11 C-8 10.34 -8 9.68 -8 9 C-7.34 9 -6.68 9 -6 9 C-6 7.68 -6 6.36 -6 5 C-5.34 5 -4.68 5 -4 5 C-4 3.68 -4 2.36 -4 1 C-2.68 0.67 -1.36 0.34 0 0 Z " fill="#9A6A2F" transform="translate(77,24)" />
<path d="M0 0 C4.28357759 -0.36716379 6.50348319 0.54298819 10 3 C10.66 3.66 11.32 4.32 12 5 C10.25 5.6875 10.25 5.6875 8 6 C6 4.625 6 4.625 4 3 C1.75 2.3125 1.75 2.3125 0 2 C0 1.34 0 0.68 0 0 Z " fill="#5F3D10" transform="translate(21,80)" />
<path d="M0 0 C0.66 0 1.32 0 2 0 C1.67 3.3 1.34 6.6 1 10 C0.01 10 -0.98 10 -2 10 C-1.85950482 8.52031676 -1.71245174 7.04125484 -1.5625 5.5625 C-1.48128906 4.73878906 -1.40007812 3.91507812 -1.31640625 3.06640625 C-1 1 -1 1 0 0 Z " fill="#5D380F" transform="translate(75,66)" />
<path d="M0 0 C0.66 0.66 1.32 1.32 2 2 C1.96712417 4.72869407 1.43602229 7.2966618 1 10 C0.01 10 -0.98 10 -2 10 C-1.835 9.236875 -1.67 8.47375 -1.5 7.6875 C-1 5 -1 5 -1 2 C-0.67 1.34 -0.34 0.68 0 0 Z " fill="#7C4F20" transform="translate(72,65)" />
<path d="M0 0 C2.12038635 2.61514317 4.13091744 5.19637616 6 8 C5.34 8.33 5.34 8.33 2 10 C0.68373308 6.38026598 0 3.90432869 0 0 Z " fill="#BD9246" transform="translate(28,37)" />
<path d="M0 0 C6.625 -0.25 6.625 -0.25 10 2 C9.67 2.99 9.34 3.98 9 5 C8.443125 4.67 7.88625 4.34 7.3125 4 C4.69715478 2.8690399 2.8193354 2.84337026 0 3 C0 2.01 0 1.02 0 0 Z " fill="#C7A873" transform="translate(42,32)" />
<path d="M0 0 C4.62 0 9.24 0 14 0 C6.8 3.6 6.8 3.6 2.1875 2.0625 C1.465625 1.711875 0.74375 1.36125 0 1 C0 0.67 0 0.34 0 0 Z " fill="#B7945A" transform="translate(20,23)" />
<path d="M0 0 C0.825 0.33 0.825 0.33 5 2 C5 2.66 5 3.32 5 4 C6.32 4.33 7.64 4.66 9 5 C5.7 4.67 2.4 4.34 -1 4 C-0.67 2.68 -0.34 1.36 0 0 Z " fill="#502703" transform="translate(71,83)" />
<path d="M0 0 C0.99 0.33 1.98 0.66 3 1 C3 2.98 3 4.96 3 7 C1.68 6.67 0.36 6.34 -1 6 C-1.042721 4.33388095 -1.04063832 2.66617115 -1 1 C-0.67 0.67 -0.34 0.34 0 0 Z " fill="#3F3530" transform="translate(31,53)" />
<path d="M0 0 C1.65 1.32 3.3 2.64 5 4 C4.34 5.32 3.68 6.64 3 8 C1.35 7.67 -0.3 7.34 -2 7 C-2 6.34 -2 5.68 -2 5 C-0.68 4.67 0.64 4.34 2 4 C1.34 2.68 0.68 1.36 0 0 Z " fill="#523713" transform="translate(78,80)" />
<path d="M0 0 C2.92879371 0.62759865 5.36095629 1.58622659 8 3 C8 3.66 8 4.32 8 5 C4.65626525 4.44271087 1.96687001 3.64826111 -1 2 C-0.67 1.34 -0.34 0.68 0 0 Z " fill="#9F6C2E" transform="translate(28,80)" />
<path d="M0 0 C0.33 0.99 0.66 1.98 1 3 C0.01 3.825 0.01 3.825 -5 8 C-4.75 5.125 -4.75 5.125 -4 2 C-1.9375 0.625 -1.9375 0.625 0 0 Z " fill="#33241C" transform="translate(29,53)" />
<path d="M0 0 C5.57142857 5.14285714 5.57142857 5.14285714 6 9 C0.24489796 5.57142857 0.24489796 5.57142857 -0.9375 2.8125 C-0.958125 2.214375 -0.97875 1.61625 -1 1 C-0.67 0.67 -0.34 0.34 0 0 Z " fill="#424449" transform="translate(40,59)" />
<path d="M0 0 C2.31 1.98 4.62 3.96 7 6 C4 7 4 7 1.8125 6.0625 C1.214375 5.711875 0.61625 5.36125 0 5 C0 3.35 0 1.7 0 0 Z " fill="#9E7945" transform="translate(63,61)" />
<path d="M0 0 C0.99 0.66 1.98 1.32 3 2 C3 2.99 3 3.98 3 5 C4.5 6.6875 4.5 6.6875 6 8 C5.01 8 4.02 8 3 8 C0.9375 5.625 0.9375 5.625 -1 3 C-1.66 2.34 -2.32 1.68 -3 1 C-2.01 0.67 -1.02 0.34 0 0 Z " fill="#C29E65" transform="translate(57,35)" />
<path d="M0 0 C3 1 3 1 4 3 C4.99 3 5.98 3 7 3 C7 3.99 7 4.98 7 6 C5.35 6 3.7 6 2 6 C2 4.68 2 3.36 2 2 C1.34 2 0.68 2 0 2 C0 1.34 0 0.68 0 0 Z " fill="#D1A458" transform="translate(36,70)" />
<path d="M0 0 C1.98 0.66 3.96 1.32 6 2 C4.875 3.5625 4.875 3.5625 3 5 C-0.1875 4.6875 -0.1875 4.6875 -3 4 C-2.01 2.68 -1.02 1.36 0 0 Z " fill="#2F2F2F" transform="translate(48,47)" />
<path d="M0 0 C1.65 0 3.3 0 5 0 C3.1875 3 3.1875 3 1 6 C0.01 6 -0.98 6 -2 6 C-2 5.01 -2 4.02 -2 3 C-1.01 3 -0.02 3 1 3 C0.67 2.01 0.34 1.02 0 0 Z " fill="#A27F40" transform="translate(26,47)" />
<path d="M0 0 C0.33 0.165 0.33 0.165 2 1 C2 1.99 2 2.98 2 4 C2.99 4.33 3.98 4.66 5 5 C3.35 5.66 1.7 6.32 0 7 C0 4.69 0 2.38 0 0 Z " fill="#523114" transform="translate(23,60)" />
<path d="M0 0 C0.99 0 1.98 0 3 0 C2.34 2.31 1.68 4.62 1 7 C0.01 6.34 -0.98 5.68 -2 5 C-1.34 3.35 -0.68 1.7 0 0 Z " fill="#C18D3D" transform="translate(63,36)" />
<path d="M0 0 C1.32 0.66 2.64 1.32 4 2 C3.67 2.99 3.34 3.98 3 5 C1.35 4.67 -0.3 4.34 -2 4 C-1.34 2.68 -0.68 1.36 0 0 Z " fill="#9C6B27" transform="translate(23,76)" />
<path d="M0 0 C0.66 1.32 1.32 2.64 2 4 C0.68 5.32 -0.64 6.64 -2 8 C-2.20086443 4.28400809 -2.1519437 3.22791555 0 0 Z " fill="#B78636" transform="translate(63,66)" />
<path d="M0 0 C0.99 0 1.98 0 3 0 C3 1.65 3 3.3 3 5 C2.01 5.33 1.02 5.66 0 6 C0 4.02 0 2.04 0 0 Z " fill="#0E110C" transform="translate(44,42)" />
<path d="M0 0 C0.99 0.165 0.99 0.165 6 1 C5.67 2.32 5.34 3.64 5 5 C4.34 5 3.68 5 3 5 C3 4.34 3 3.68 3 3 C1.35 3 -0.3 3 -2 3 C-1.34 2.01 -0.68 1.02 0 0 Z " fill="#D4A659" transform="translate(55,31)" />
</svg>