<?xml version='1.0' encoding='utf-8'?>
<svg xmlns="http://www.w3.org/2000/svg" version="1.1" width="111" height="86">
<path d="M0 0 C9.1407669 5.79414733 9.1407669 5.79414733 11 11 C10.92739457 13.77456484 10.51209367 16.25331579 10 19 C9.01 19.165 9.01 19.165 4 20 C4 20.99 4 21.98 4 23 C0.78548731 24.60725635 -2.43612536 24.05748185 -6 24 C-6 23.01 -6 22.02 -6 21 C-4.68 21 -3.36 21 -2 21 C-2 20.01 -2 19.02 -2 18 C-3.98 18 -5.96 18 -8 18 C-8.33 18.66 -8.66 19.32 -9 20 C-9.66 19.67 -10.32 19.34 -11 19 C-11.2475 19.639375 -11.495 20.27875 -11.75 20.9375 C-13 23 -13 23 -15.125 23.75 C-15.434375 23.79125 -15.434375 23.79125 -17 24 C-17 24.99 -17 25.98 -17 27 C-19.27837542 29.27837542 -20.50812237 29.96646289 -23.75 30.1875 C-24.12125 30.1565625 -24.12125 30.1565625 -26 30 C-26 29.34 -26 28.68 -26 28 C-27.58367747 28.14204741 -29.16693318 28.28880153 -30.75 28.4375 C-31.63171875 28.51871094 -32.5134375 28.59992187 -33.421875 28.68359375 C-36 29 -36 29 -38.203125 29.66015625 C-38.79609375 29.77230469 -39.3890625 29.88445313 -40 30 C-40.66 29.34 -41.32 28.68 -42 28 C-42 27.01 -42 26.02 -42 25 C-42.66 25 -43.32 25 -44 25 C-44 25.66 -44 26.32 -44 27 C-44.99 27 -45.98 27 -47 27 C-47.33 27.66 -47.66 28.32 -48 29 C-48.268125 28.195625 -48.53625 27.39125 -48.8125 26.5625 C-49.204375 25.716875 -49.59625 24.87125 -50 24 C-50.99 23.67 -51.98 23.34 -53 23 C-54.60896321 19.34326542 -54.5460141 14.91570115 -54 11 C-51.43312699 6.37962858 -47.92086566 4.51710483 -43 3 C-40.79345256 2.49142773 -38.58133327 2.04165854 -36.359375 1.60546875 C-33.85575238 0.96298281 -31.76635738 -0.01136854 -29.4375 -1.125 C-20.5073194 -4.85639002 -8.5278395 -4.56848545 0 0 Z " fill="#D2A150" transform="translate(76,20)" />
<path d="M0 0 C2 1 2 1 3.125 4.0625 C4.88293487 11.02335502 4.48595713 16.53328624 1.3203125 22.953125 C-1.72380358 27.67240555 -5.82576835 29.89985381 -11.1875 31.25 C-15.72933423 32.0870616 -20.30285396 32.40344878 -24.91015625 32.65625 C-28.01394809 33.00155175 -30.88526689 33.75339233 -33.90063477 34.54150391 C-41.5866076 36.22010107 -51.28928525 36.54160265 -58.3125 32.75 C-61.17086395 30.79456885 -63.83818421 28.72576773 -66 26 C-66 25.34 -66 24.68 -66 24 C-66.66 24 -67.32 24 -68 24 C-70.3992233 19.35150485 -70.19957409 15.08913926 -70 10 C-69.67 10 -69.34 10 -69 10 C-68.34 13.63 -67.68 17.26 -67 21 C-63.59894007 21.68021199 -61.12179771 22.12735601 -57.78515625 22.1328125 C-57.01623047 22.13410156 -56.24730469 22.13539062 -55.45507812 22.13671875 C-54.66552734 22.13285156 -53.87597656 22.12898438 -53.0625 22.125 C-52.6696582 22.12693359 -52.6696582 22.12693359 -50.68164062 22.13671875 C-46.32638579 22.12942962 -42.29817773 21.76200381 -38 21 C-35.93896317 20.91185503 -33.8754142 20.86977081 -31.8125 20.875 C-31.30009766 20.87371094 -31.30009766 20.87371094 -28.70703125 20.8671875 C-26 21 -26 21 -23 22 C-23 21.34 -23 20.68 -23 20 C-20 19 -20 19 -17 20 C-17 18.68 -17 17.36 -17 16 C-13.37 16 -9.74 16 -6 16 C-6 15.01 -6 14.02 -6 13 C-5.01 13 -4.02 13 -3 13 C-3 12.01 -3 11.02 -3 10 C-2.34 10 -1.68 10 -1 10 C-0.67 6.7 -0.34 3.4 0 0 Z " fill="#5C3D0C" transform="translate(89,33)" />
<path d="M0 0 C0.33 0.165 0.33 0.165 2 1 C2.125 8.75 2.125 8.75 1 11 C0.34 11 -0.32 11 -1 11 C-1 11.99 -1 12.98 -1 14 C-1.99 14 -2.98 14 -4 14 C-4 14.99 -4 15.98 -4 17 C-11.42857143 18.28571429 -11.42857143 18.28571429 -15 17 C-15 18.32 -15 19.64 -15 21 C-16.98 21 -18.96 21 -21 21 C-21 21.66 -21 22.32 -21 23 C-21.48339844 22.99419922 -21.48339844 22.99419922 -23.9296875 22.96484375 C-35.86700148 22.88210989 -35.86700148 22.88210989 -41.0625 23.5 C-58.94274472 25.57002833 -58.94274472 25.57002833 -65 22 C-67.09663567 18.36877858 -67.27092733 15.07587938 -67.25 10.9375 C-67.25515625 9.91527344 -67.2603125 8.89304687 -67.265625 7.83984375 C-67 5 -67 5 -65 1 C-64.67 4.3 -64.34 7.6 -64 11 C-62.68 11.33 -61.36 11.66 -60 12 C-59.67 12.495 -59.67 12.495 -58 15 C-57.01 15 -56.02 15 -55 15 C-55 14.34 -55 13.68 -55 13 C-54.34 13 -53.68 13 -53 13 C-52.34 14.32 -51.68 15.64 -51 17 C-50.40832031 16.9278125 -49.81664063 16.855625 -49.20703125 16.78125 C-45.11738278 16.30089977 -41.1261469 15.86689849 -37 16 C-37 16.66 -37 17.32 -37 18 C-33.59687262 16.94124926 -30.98646769 15.99097846 -28 14 C-28 13.01 -28 12.02 -28 11 C-27.195625 10.71125 -26.39125 10.4225 -25.5625 10.125 C-23 9 -23 9 -22 7 C-19.93359375 6.5859375 -19.93359375 6.5859375 -17.4375 6.375 C-16.61121094 6.30023438 -15.78492188 6.22546875 -14.93359375 6.1484375 C-14.61455078 6.12394531 -14.61455078 6.12394531 -13 6 C-13 6.99 -13 7.98 -13 9 C-14.32 9 -15.64 9 -17 9 C-17 9.99 -17 10.98 -17 12 C-13.7 11.67 -10.4 11.34 -7 11 C-7 10.01 -7 9.02 -7 8 C-5.02 7.67 -3.04 7.34 -1 7 C-0.67 4.69 -0.34 2.38 0 0 Z " fill="#8B601C" transform="translate(87,32)" />
<path d="M0 0 C0.33 0.165 0.33 0.165 2 1 C2 6.28 2 11.56 2 17 C1.34 17 0.68 17 0 17 C0.33 15.02 0.66 13.04 1 11 C0.34 11.33 -0.32 11.66 -1 12 C-1.73075648 14.3140622 -2.40138258 16.64828869 -3 19 C-3.99 19 -4.98 19 -6 19 C-6 19.66 -6 20.32 -6 21 C-9.9813783 22.3271261 -13.85045227 22.06915913 -18 22 C-18 22.66 -18 23.32 -18 24 C-19.26839526 24.50615298 -20.53983102 25.00469099 -21.8125 25.5 C-22.52019531 25.7784375 -23.22789063 26.056875 -23.95703125 26.34375 C-26 27 -26 27 -29 27 C-29 26.34 -29 25.68 -29 25 C-29.66 24.67 -30.32 24.34 -31 24 C-30.67 23.34 -30.34 22.68 -30 22 C-31.32 22 -32.64 22 -34 22 C-34 22.66 -34 23.32 -34 24 C-33.34 24.33 -32.68 24.66 -32 25 C-37.75 25.125 -37.75 25.125 -40 24 C-40 24.66 -40 25.32 -40 26 C-41.97746603 26.73080266 -43.98072489 27.39421747 -46 28 C-46.66 27.67 -47.32 27.34 -48 27 C-48.33 27.99 -48.66 28.98 -49 30 C-49.66 29.67 -50.32 29.34 -51 29 C-50.67 28.01 -50.34 27.02 -50 26 C-51.32 26 -52.64 26 -54 26 C-54.33 26.99 -54.66 27.98 -55 29 C-55.66 28.01 -56.32 27.02 -57 26 C-57.99 26.33 -58.98 26.66 -60 27 C-60 26.34 -60 25.68 -60 25 C-61.32 25 -62.64 25 -64 25 C-64.33 23.68 -64.66 22.36 -65 21 C-64.01 21.33 -63.02 21.66 -62 22 C-60.6625305 22.09119501 -59.32104195 22.13065302 -57.98046875 22.1328125 C-57.20509766 22.13410156 -56.42972656 22.13539062 -55.63085938 22.13671875 C-55.22770508 22.13478516 -55.22770508 22.13478516 -53.1875 22.125 C-52.39279297 22.12886719 -51.59808594 22.13273437 -50.77929688 22.13671875 C-46.39076569 22.12945898 -42.33058914 21.76988251 -38 21 C-35.93896317 20.91185503 -33.8754142 20.86977081 -31.8125 20.875 C-31.30009766 20.87371094 -31.30009766 20.87371094 -28.70703125 20.8671875 C-26 21 -26 21 -23 22 C-23 21.34 -23 20.68 -23 20 C-20 19 -20 19 -17 20 C-17 18.68 -17 17.36 -17 16 C-13.37 16 -9.74 16 -6 16 C-6 15.01 -6 14.02 -6 13 C-5.01 13 -4.02 13 -3 13 C-3 12.01 -3 11.02 -3 10 C-2.34 10 -1.68 10 -1 10 C-0.67 6.7 -0.34 3.4 0 0 Z " fill="#764F11" transform="translate(89,33)" />
<path d="M0 0 C0.66 0.33 1.32 0.66 2 1 C2.125 8.75 2.125 8.75 1 11 C0.34 11 -0.32 11 -1 11 C-1 11.99 -1 12.98 -1 14 C-1.99 14 -2.98 14 -4 14 C-4 14.99 -4 15.98 -4 17 C-9.80541069 17.92886571 -15.29154242 18.75644849 -21 17 C-21 17.66 -21 18.32 -21 19 C-21.886875 19.144375 -22.77375 19.28875 -23.6875 19.4375 C-26.47117646 19.91019978 -29.23483757 20.43070185 -32 21 C-32 17.09538875 -30.66236719 16.66236719 -28 14 C-28 13.01 -28 12.02 -28 11 C-27.195625 10.71125 -26.39125 10.4225 -25.5625 10.125 C-23 9 -23 9 -22 7 C-19.93359375 6.5859375 -19.93359375 6.5859375 -17.4375 6.375 C-16.61121094 6.30023438 -15.78492187 6.22546875 -14.93359375 6.1484375 C-14.61455078 6.12394531 -14.61455078 6.12394531 -13 6 C-13 6.99 -13 7.98 -13 9 C-14.32 9 -15.64 9 -17 9 C-17 9.99 -17 10.98 -17 12 C-13.7 11.67 -10.4 11.34 -7 11 C-7 10.01 -7 9.02 -7 8 C-5.02 7.67 -3.04 7.34 -1 7 C-0.67 4.69 -0.34 2.38 0 0 Z " fill="#AA792A" transform="translate(87,32)" />
<path d="M0 0 C2.78688811 2.78688811 2.97591162 4.72057478 3.3125 8.625 C3.20824795 14.28588627 1.39719305 19.44133799 -2.5078125 23.609375 C-9.27883264 28.96320488 -17.60263455 29.20041891 -25.91015625 29.65625 C-29.01394809 30.00155175 -31.88526689 30.75339233 -34.90063477 31.54150391 C-42.5866076 33.22010107 -52.28928525 33.54160265 -59.3125 29.75 C-62.17086395 27.79456885 -64.83818421 25.72576773 -67 23 C-67 22.34 -67 21.68 -67 21 C-67.66 21 -68.32 21 -69 21 C-71.3992233 16.35150485 -71.19957409 12.08913926 -71 7 C-70.67 7 -70.34 7 -70 7 C-69.34 10.63 -68.68 14.26 -68 18 C-67.01 18.33 -66.02 18.66 -65 19 C-64.34 19.66 -63.68 20.32 -63 21 C-62.34 21.33 -61.68 21.66 -61 22 C-61 22.66 -61 23.32 -61 24 C-59.68 23.34 -58.36 22.68 -57 22 C-56.67 23.32 -56.34 24.64 -56 26 C-55.01 25.67 -54.02 25.34 -53 25 C-53 26.65 -53 28.3 -53 30 C-47.39 30 -41.78 30 -36 30 C-35.67 29.34 -35.34 28.68 -35 28 C-32.35745638 27.5477526 -29.78695034 27.20369503 -27.125 26.9375 C-19.32419355 26.10806452 -19.32419355 26.10806452 -16 25 C-14.72125 24.9175 -13.4425 24.835 -12.125 24.75 C-7.68312079 24.22838483 -5.80631768 22.52794223 -3 19 C0.07421475 14.80990441 0.33192753 11.83874874 0.1875 6.6875 C0.16042969 5.43324219 0.13335937 4.17898437 0.10546875 2.88671875 C0.07066406 1.93410156 0.03585938 0.98148438 0 0 Z " fill="#48340F" transform="translate(90,36)" />
<path d="M0 0 C9.1407669 5.79414733 9.1407669 5.79414733 11 11 C10.92739457 13.77456484 10.51209367 16.25331579 10 19 C9.01 19 8.02 19 7 19 C6.23826608 14.6835078 5.83936396 11.25566547 7 7 C6.01 7.33 5.02 7.66 4 8 C3.34 6.35 2.68 4.7 2 3 C-0.97 2.67 -3.94 2.34 -7 2 C-7 1.34 -7 0.68 -7 0 C-10.5798452 -0.81862159 -13.89237101 -1.13520898 -17.5625 -1.125 C-18.49191406 -1.12757812 -19.42132813 -1.13015625 -20.37890625 -1.1328125 C-22.74147476 -1.01309964 -24.74030763 -0.66993233 -27 0 C-27 0.66 -27 1.32 -27 2 C-33.59874523 7.02761541 -39.95127124 6.40187827 -48 6 C-47.67 5.34 -47.34 4.68 -47 4 C-45.04092921 3.46221586 -43.05521614 3.02028792 -41.0625 2.625 C-36.80360379 1.72425731 -33.10185741 0.7028808 -29.1875 -1.1875 C-20.39006498 -4.93108937 -8.39172438 -4.49556663 0 0 Z " fill="#C59A52" transform="translate(76,20)" />
<path d="M0 0 C0 0.66 0 1.32 0 2 C1.32 2 2.64 2 4 2 C4 2.66 4 3.32 4 4 C4.556875 4.226875 5.11375 4.45375 5.6875 4.6875 C9.9230017 7.0914334 12.51510345 9.77621347 14.3125 14.3125 C14.539375 15.199375 14.76625 16.08625 15 17 C12.84776392 14.92462949 10.9220268 12.89603574 9.125 10.5 C4.04589533 4.52458274 -2.06516855 2.39183332 -9.7265625 1.62890625 C-18.10064279 1.4862616 -24.23395173 2.31934959 -32.0234375 5.76953125 C-34.89513258 6.9566493 -37.44301623 7.57103801 -40.5 8.0625 C-44.66394048 8.81160437 -47.13532227 9.70128019 -50 13 C-53.07913106 19.38634591 -54.01114935 26.01987774 -55 33 C-55.33 33 -55.66 33 -56 33 C-56.93639934 18.37136148 -56.93639934 18.37136148 -52.625 11.76953125 C-49.87710821 8.77723563 -46.76247627 7.37529909 -43 6 C-42.21625 5.66871094 -41.4325 5.33742188 -40.625 4.99609375 C-36.81424155 3.55004701 -32.89999675 2.71122373 -28.9375 1.78125 C-26 1 -26 1 -23.51953125 -0.08203125 C-16.40006621 -2.67594487 -7.37219336 -1.15642249 0 0 Z " fill="#725A2D" transform="translate(74,16)" />
<path d="M0 0 C0.33 0 0.66 0 1 0 C1.33 3.3 1.66 6.6 2 10 C3.32 10.33 4.64 10.66 6 11 C6.33 11.495 6.33 11.495 8 14 C8.99 14 9.98 14 11 14 C11 13.34 11 12.68 11 12 C11.66 12 12.32 12 13 12 C13.66 13.32 14.32 14.64 15 16 C15.59167969 15.9278125 16.18335937 15.855625 16.79296875 15.78125 C20.88261722 15.30089977 24.8738531 14.86689849 29 15 C28.67 15.99 28.34 16.98 28 18 C26.02 18 24.04 18 22 18 C21.67 18.99 21.34 19.98 21 21 C18.89521396 20.88590318 16.79115423 20.75834639 14.6875 20.625 C13.51574219 20.55539063 12.34398437 20.48578125 11.13671875 20.4140625 C8 20 8 20 5 18 C4.8125 15.375 4.8125 15.375 5 13 C3.02 13 1.04 13 -1 13 C-1.0272415 11.58344207 -1.04650467 10.16672955 -1.0625 8.75 C-1.07410156 7.96109375 -1.08570312 7.1721875 -1.09765625 6.359375 C-1.00385306 4.09308998 -0.63241063 2.1711105 0 0 Z " fill="#A5752A" transform="translate(21,33)" />
<path d="M0 0 C0.825 0.33 0.825 0.33 5 2 C4.34 3.65 3.68 5.3 3 7 C8.75 5.375 8.75 5.375 11 2 C11.66 2.33 12.32 2.66 13 3 C13.625 5.0625 13.625 5.0625 14 7 C13.195625 7.12375 12.39125 7.2475 11.5625 7.375 C11.1396875 7.478125 11.1396875 7.478125 9 8 C8.67 8.66 8.34 9.32 8 10 C5.68529088 10.72870472 3.3494053 11.39239518 1 12 C0.01 12.33 -0.98 12.66 -2 13 C-2.12375 12.195625 -2.2475 11.39125 -2.375 10.5625 C-2.478125 10.1396875 -2.478125 10.1396875 -3 8 C-3.66 7.67 -4.32 7.34 -5 7 C-5 5.35 -5 3.7 -5 2 C-4.01 2 -3.02 2 -2 2 C-1.34 1.34 -0.68 0.68 0 0 Z " fill="#E0B163" transform="translate(30,32)" />
<path d="M0 0 C0.33 0 0.66 0 1 0 C1.66 3.63 2.32 7.26 3 11 C3.99 11.33 4.98 11.66 6 12 C6.66 12.66 7.32 13.32 8 14 C8.66 14.33 9.32 14.66 10 15 C10 15.66 10 16.32 10 17 C11.32 16.34 12.64 15.68 14 15 C14.33 16.32 14.66 17.64 15 19 C15.99 18.67 16.98 18.34 18 18 C18 19.65 18 21.3 18 23 C15 24 15 24 12.5546875 22.92578125 C11.67039062 22.39339844 10.78609375 21.86101562 9.875 21.3125 C9.43027344 21.05275391 9.43027344 21.05275391 7.1796875 19.73828125 C5 18 5 18 4.1953125 15.79296875 C4.13085938 15.20128906 4.06640625 14.60960937 4 14 C3.34 14 2.68 14 2 14 C-0.3992233 9.35150485 -0.19957409 5.08913926 0 0 Z " fill="#51390F" transform="translate(19,43)" />
<path d="M0 0 C0 0.66 0 1.32 0 2 C1.98 2 3.96 2 6 2 C6 3.32 6 4.64 6 6 C5.44570312 5.84402344 4.89140625 5.68804688 4.3203125 5.52734375 C3.59585938 5.33269531 2.87140625 5.13804688 2.125 4.9375 C1.40570313 4.74027344 0.68640625 4.54304688 -0.0546875 4.33984375 C-2 4 -2 4 -4 5 C-4 4.34 -4 3.68 -4 3 C-4.66 3 -5.32 3 -6 3 C-6.0825 3.598125 -6.165 4.19625 -6.25 4.8125 C-7.20455872 7.5966296 -8.57132271 8.43311142 -11 10 C-11 8.02 -11 6.04 -11 4 C-11.99 4 -12.98 4 -14 4 C-13.67 2.68 -13.34 1.36 -13 0 C-7.85910687 -1.85072153 -5.04468729 -2.21474076 0 0 Z " fill="#DEAE5C" transform="translate(69,20)" />
<path d="M0 0 C0.66 0.33 1.32 0.66 2 1 C2.625 3.0625 2.625 3.0625 3 5 C1.02 5 -0.96 5 -3 5 C-3 5.66 -3 6.32 -3 7 C-4.93784265 6.85879286 -6.87526955 6.71187127 -8.8125 6.5625 C-9.89144531 6.48128906 -10.97039063 6.40007813 -12.08203125 6.31640625 C-15 6 -15 6 -18 5 C-18.99 5.33 -19.98 5.66 -21 6 C-23.6875 5.5625 -23.6875 5.5625 -26 5 C-26 4.34 -26 3.68 -26 3 C-23 2 -23 2 -20 3 C-19.67 2.34 -19.34 1.68 -19 1 C-16.69 1.33 -14.38 1.66 -12 2 C-12.33 2.66 -12.66 3.32 -13 4 C-12.01 4.33 -11.02 4.66 -10 5 C-9.67 4.34 -9.34 3.68 -9 3 C-7.0625 2.3125 -7.0625 2.3125 -5 2 C-4.34 2.33 -3.68 2.66 -3 3 C-3 2.34 -3 1.68 -3 1 C-2.01 0.67 -1.02 0.34 0 0 Z " fill="#91631A" transform="translate(69,48)" />
<path d="M0 0 C0.66 0.33 1.32 0.66 2 1 C2.125 8.75 2.125 8.75 1 11 C0.34 11 -0.32 11 -1 11 C-1 11.99 -1 12.98 -1 14 C-1.99 14 -2.98 14 -4 14 C-4 14.99 -4 15.98 -4 17 C-7.375 17.625 -7.375 17.625 -11 18 C-11.66 17.34 -12.32 16.68 -13 16 C-10.94909081 14.9745454 -8.96468629 13.98688348 -6.8125 13.1875 C-5 12 -5 12 -4.25 9.375 C-4.1675 8.59125 -4.085 7.8075 -4 7 C-3.01 7 -2.02 7 -1 7 C-0.67 4.69 -0.34 2.38 0 0 Z " fill="#916521" transform="translate(87,32)" />
<path d="M0 0 C2.31 0.33 4.62 0.66 7 1 C6.67 1.99 6.34 2.98 6 4 C3.56612247 5.21693876 1.58161154 5.31959896 -1.125 5.5625 C-2.03507812 5.64628906 -2.94515625 5.73007812 -3.8828125 5.81640625 C-4.23214844 5.84669922 -4.23214844 5.84669922 -6 6 C-6 5.34 -6 4.68 -6 4 C-3 3 -3 3 0 4 C0 2.68 0 1.36 0 0 Z M-6 7 C-7.9914056 7.38133299 -9.99279077 7.71325582 -12 8 C-12.33 7.67 -12.66 7.34 -13 7 C-15.35313555 6.92728259 -17.70833668 6.91629132 -20.0625 6.9375 C-21.35285156 6.94652344 -22.64320312 6.95554688 -23.97265625 6.96484375 C-24.97167969 6.97644531 -25.97070312 6.98804688 -27 7 C-27 6.67 -27 6.34 -27 6 C-20.44297782 4.54288396 -11.74984993 3.16676671 -6 7 Z " fill="#825613" transform="translate(72,49)" />
<path d="M0 0 C6.00735294 4.42647059 6.00735294 4.42647059 7 8 C6.85317936 10.72666896 6.45050267 13.29698398 6 16 C5.01 16 4.02 16 3 16 C1.98734177 9.5443038 1.98734177 9.5443038 2.0625 6.3125 C1.99207605 3.70681384 1.3164333 2.2214812 0 0 Z " fill="#AC7F32" transform="translate(80,23)" />
<path d="M0 0 C1.32 0 2.64 0 4 0 C3.8125 1.875 3.8125 1.875 3 4 C-0.29826907 5.78284814 -2.1774751 6 -6 6 C-6 6.66 -6 7.32 -6 8 C-6.99 8.33 -7.98 8.66 -9 9 C-9.33 7.68 -9.66 6.36 -10 5 C-8.68 4.67 -7.36 4.34 -6 4 C-6 3.34 -6 2.68 -6 2 C-4.02 2 -2.04 2 0 2 C0 1.34 0 0.68 0 0 Z " fill="#664207" transform="translate(55,55)" />
<path d="M0 0 C2.64 0.33 5.28 0.66 8 1 C7.01 2.32 6.02 3.64 5 5 C4.01 4.67 3.02 4.34 2 4 C1.01 4.33 0.02 4.66 -1 5 C-3.6875 4.5625 -3.6875 4.5625 -6 4 C-6 3.34 -6 2.68 -6 2 C-3 1 -3 1 0 2 C0 1.34 0 0.68 0 0 Z " fill="#9F6E23" transform="translate(49,49)" />
<path d="M0 0 C0.66 0.33 1.32 0.66 2 1 C1.505 1.78375 1.01 2.5675 0.5 3.375 C-1.43415935 8.04921842 -1.26602877 12.01442381 -1 17 C-1.66 17 -2.32 17 -3 17 C-4.2934734 13.1195798 -4.61519288 9.03470655 -4 5 C-2 2 -2 2 0 0 Z " fill="#BF9553" transform="translate(26,26)" />
<path d="M0 0 C0.33 0 0.66 0 1 0 C1.33 3.3 1.66 6.6 2 10 C3.32 10.33 4.64 10.66 6 11 C3 13 3 13 -1 13 C-1.0272415 11.58344207 -1.04650467 10.16672955 -1.0625 8.75 C-1.07410156 7.96109375 -1.08570312 7.1721875 -1.09765625 6.359375 C-1.00385306 4.09308998 -0.63241063 2.1711105 0 0 Z " fill="#A07C41" transform="translate(21,33)" />
<path d="M0 0 C0.66 0 1.32 0 2 0 C2.29162929 4.95769796 2.12940055 8.02806853 -1 12 C-1.66 12 -2.32 12 -3 12 C-3 11.01 -3 10.02 -3 9 C-3.66 8.67 -4.32 8.34 -5 8 C-4.01 7.67 -3.02 7.34 -2 7 C-0.8125 3.4375 -0.8125 3.4375 0 0 Z " fill="#634510" transform="translate(88,44)" />
<path d="M0 0 C0.66 0.33 1.32 0.66 2 1 C2.625 3.0625 2.625 3.0625 3 5 C2.195625 5.12375 1.39125 5.2475 0.5625 5.375 C0.1396875 5.478125 0.1396875 5.478125 -2 6 C-2.33 6.66 -2.66 7.32 -3 8 C-5.31 8 -7.62 8 -10 8 C-10 7.34 -10 6.68 -10 6 C-9.72285156 5.90912109 -9.72285156 5.90912109 -8.3203125 5.44921875 C-7.59585938 5.19785156 -6.87140625 4.94648437 -6.125 4.6875 C-5.40570313 4.44386719 -4.68640625 4.20023438 -3.9453125 3.94921875 C-2 3 -2 3 0 0 Z " fill="#DCAC5B" transform="translate(41,34)" />
<path d="M0 0 C1.32 0 2.64 0 4 0 C4 1.65 4 3.3 4 5 C5.485 5.33 5.485 5.33 13 7 C13 7.33 13 7.66 13 8 C8.08121703 8.28934017 4.84199691 8.27699736 1 5 C0.1875 2.3125 0.1875 2.3125 0 0 Z " fill="#906824" transform="translate(22,46)" />
<path d="M0 0 C0.66 0.33 1.32 0.66 2 1 C2 6.28 2 11.56 2 17 C1.34 17 0.68 17 0 17 C0.33 15.02 0.66 13.04 1 11 C0.01 11.33 -0.98 11.66 -2 12 C-1.34 8.04 -0.68 4.08 0 0 Z " fill="#6B4E1D" transform="translate(89,33)" />
<path d="M0 0 C-2.64738916 1.4606285 -3.89448334 2 -7 2 C-7 2.66 -7 3.32 -7 4 C-8.98 4.33 -10.96 4.66 -13 5 C-13.33 4.34 -13.66 3.68 -14 3 C-12.42274653 2.29866401 -10.83788667 1.614417 -9.25 0.9375 C-8.36828125 0.55464844 -7.4865625 0.17179687 -6.578125 -0.22265625 C-3.84743691 -1.04600008 -2.63098653 -0.9773992 0 0 Z " fill="#AB8547" transform="translate(56,18)" />
<path d="M0 0 C0.55107422 0.00580078 0.55107422 0.00580078 3.33984375 0.03515625 C3.89220703 0.03966797 3.89220703 0.03966797 6.6875 0.0625 C7.54214844 0.07410156 8.39679688 0.08570313 9.27734375 0.09765625 C6.96439555 2.41060445 5.798295 2.593466 2.65234375 3.22265625 C1.83507813 3.39023437 1.0178125 3.5578125 0.17578125 3.73046875 C-0.13746094 3.79105469 -0.13746094 3.79105469 -1.72265625 4.09765625 C-1.72265625 3.43765625 -1.72265625 2.77765625 -1.72265625 2.09765625 C-2.38265625 1.76765625 -3.04265625 1.43765625 -3.72265625 1.09765625 C-2.72265625 0.09765625 -2.72265625 0.09765625 0 0 Z " fill="#6F4811" transform="translate(61.72265625,55.90234375)" />
<path d="M0 0 C0.66 0 1.32 0 2 0 C2.20625 0.7425 2.4125 1.485 2.625 2.25 C4.39615589 5.79231177 6.63427951 7.02446841 10 9 C7 10 7 10 4.4375 9.375 C2 8 2 8 0.6875 5.5625 C0 3 0 3 0 0 Z " fill="#785820" transform="translate(20,46)" />
<path d="M0 0 C2.31 0 4.62 0 7 0 C7.33 0.99 7.66 1.98 8 3 C6.35 4.32 4.7 5.64 3 7 C3 5.02 3 3.04 3 1 C2.01 0.67 1.02 0.34 0 0 Z " fill="#E5B96B" transform="translate(55,23)" />
<path d="M0 0 C0.66 0 1.32 0 2 0 C2.33 1.32 2.66 2.64 3 4 C0.29120665 5.35439668 -2.00933268 5.06501451 -5 5 C-4.67 3.68 -4.34 2.36 -4 1 C-3.34 1.165 -3.34 1.165 0 2 C0 1.34 0 0.68 0 0 Z " fill="#B9873A" transform="translate(32,45)" />
<path d="M0 0 C0 0.66 0 1.32 0 2 C-1.98 2 -3.96 2 -6 2 C-6.33 2.66 -6.66 3.32 -7 4 C-7.66 3.67 -8.32 3.34 -9 3 C-9.33 3.99 -9.66 4.98 -10 6 C-10.33 5.01 -10.66 4.02 -11 3 C-9.73581754 2.30034557 -8.46334598 1.61565237 -7.1875 0.9375 C-6.47980469 0.55464844 -5.77210937 0.17179687 -5.04296875 -0.22265625 C-3 -1 -3 -1 0 0 Z " fill="#BE8D40" transform="translate(74,36)" />
<path d="M0 0 C4.8 3.32307692 4.8 3.32307692 5.8125 6.75 C5.874375 7.4925 5.93625 8.235 6 9 C5.34 9.33 5.34 9.33 2 11 C2.04125 9.9275 2.0825 8.855 2.125 7.75 C2.0114175 4.34252515 1.78726636 2.79260369 0 0 Z " fill="#B18A43" transform="translate(80,23)" />
<path d="M0 0 C0.33 0 0.66 0 1 0 C1.66666667 2.66666667 2.33333333 5.33333333 3 8 C3.22816406 8.70640625 3.45632812 9.4128125 3.69140625 10.140625 C3.79324219 10.75421875 3.89507813 11.3678125 4 12 C3.34 12.66 2.68 13.32 2 14 C-0.3992233 9.35150485 -0.19957409 5.08913926 0 0 Z " fill="#58441C" transform="translate(19,43)" />
<path d="M0 0 C0 3 0 3 0 3 Z M-3 1 C-2.34 2.32 -1.68 3.64 -1 5 C-2.98 5 -4.96 5 -7 5 C-7 4.01 -7 3.02 -7 2 C-5.68 1.67 -4.36 1.34 -3 1 Z " fill="#C09041" transform="translate(77,39)" />
<path d="M0 0 C2.64 0 5.28 0 8 0 C5.08596738 1.94268841 2.14191424 3.46395304 -1 5 C-0.67 3.35 -0.34 1.7 0 0 Z " fill="#D7A85B" transform="translate(28,26)" />
<path d="M0 0 C5.75 1.625 5.75 1.625 8 5 C7.01 5.33 6.02 5.66 5 6 C5 5.34 5 4.68 5 4 C3.68 4 2.36 4 1 4 C0.67 2.68 0.34 1.36 0 0 Z " fill="#674611" transform="translate(24,54)" />
<path d="M0 0 C-0.495 0.495 -0.495 0.495 -3 3 C-3.99 2.67 -4.98 2.34 -6 2 C-8.1875 2.4375 -8.1875 2.4375 -10 3 C-10 2.34 -10 1.68 -10 1 C-8.71073008 0.63720544 -7.41846728 0.28503302 -6.125 -0.0625 C-5.40570313 -0.25972656 -4.68640625 -0.45695312 -3.9453125 -0.66015625 C-2 -1 -2 -1 0 0 Z " fill="#98681F" transform="translate(57,51)" />
<path d="M0 0 C-0.33 0.165 -0.33 0.165 -2 1 C-2 1.66 -2 2.32 -2 3 C-2.99 3 -3.98 3 -5 3 C-5.33 3.66 -5.66 4.32 -6 5 C-6.33 3.35 -6.66 1.7 -7 0 C-3.98968256 -0.93423645 -3.13349732 -1.04449911 0 0 Z " fill="#C69547" transform="translate(34,44)" />
<path d="M0 0 C1.65 0 3.3 0 5 0 C4.67 1.32 4.34 2.64 4 4 C2.68 4 1.36 4 0 4 C0 2.68 0 1.36 0 0 Z " fill="#BF8B38" transform="translate(50,36)" />
<path d="M0 0 C-2 2 -2 2 -5.625 2.125 C-6.73875 2.08375 -7.8525 2.0425 -9 2 C-8 0 -8 0 -6.1875 -0.6875 C-3.81180233 -1.02688538 -2.26664171 -0.72856341 0 0 Z " fill="#BE9557" transform="translate(37,24)" />
<path d="M0 0 C0.33 0 0.66 0 1 0 C1 2.31 1 4.62 1 7 C0.34 7 -0.32 7 -1 7 C-1.66 7.66 -2.32 8.32 -3 9 C-3 7.35 -3 5.7 -3 4 C-2.01 4 -1.02 4 0 4 C0 2.68 0 1.36 0 0 Z " fill="#9B7127" transform="translate(86,35)" />
</svg>