<?xml version='1.0' encoding='utf-8'?>
<svg xmlns="http://www.w3.org/2000/svg" version="1.1" width="98" height="98">
<path d="M0 0 C0.165 0.66 0.165 0.66 1 4 C0.43410156 4.10957031 -0.13179687 4.21914063 -0.71484375 4.33203125 C-1.44832031 4.49058594 -2.18179688 4.64914063 -2.9375 4.8125 C-3.66839844 4.96332031 -4.39929688 5.11414063 -5.15234375 5.26953125 C-5.45720703 5.39005859 -5.45720703 5.39005859 -7 6 C-7.33 6.99 -7.66 7.98 -8 9 C-8.66 9 -9.32 9 -10 9 C-10.33 10.98 -10.66 12.96 -11 15 C-10.34 15 -9.68 15 -9 15 C-8.67 13.35 -8.34 11.7 -8 10 C-7.34 10 -6.68 10 -6 10 C-6 12.66666667 -6 15.33333333 -6 18 C-5.40832031 18.21914063 -4.81664062 18.43828125 -4.20703125 18.6640625 C1.3839626 20.90775661 4.91658245 22.72835065 8 28 C9.0868992 33.3180425 8.31147787 37.90944408 5.32421875 42.4375 C-2.28011409 51.41016412 -13.77464762 52.65456158 -24.75 54.125 C-27.16168339 54.45931801 -29.57315226 54.79518815 -31.984375 55.1328125 C-33.04366211 55.27605957 -34.10294922 55.41930664 -35.19433594 55.56689453 C-37.51919483 55.92577894 -39.73421672 56.37803363 -42 57 C-42.33 58.98 -42.66 60.96 -43 63 C-44.8679783 60.19803255 -45.33004413 59.02263049 -45.8984375 55.86328125 C-46.90187631 51.00612684 -48.6740217 46.72768745 -50.625 42.1875 C-53.8682945 34.20667007 -55.79001534 27.21301837 -53.328125 18.66796875 C-51.18590815 13.60369296 -47.79137808 10.59023455 -43 8 C-37.74888416 6.24962805 -32.29364558 6.21205041 -27.125 8.3125 C-22.35886214 10.88621444 -22.35886214 10.88621444 -21 13 C-20.3125 16.6875 -20.3125 16.6875 -20 20 C-18.68 19.34 -17.36 18.68 -16 18 C-16 17.34 -16 16.68 -16 16 C-15.01 16 -14.02 16 -13 16 C-13.66 14.35 -14.32 12.7 -15 11 C-15.66 11 -16.32 11 -17 11 C-17.33 11.99 -17.66 12.98 -18 14 C-18.165 13.34 -18.165 13.34 -19 10 C-18.113125 9.62875 -17.22625 9.2575 -16.3125 8.875 C-12.40800851 6.66491048 -10.74047451 4.50171743 -8 1 C-5.29120665 -0.35439668 -2.99066732 -0.06501451 0 0 Z " fill="#969FAB" transform="translate(72,17)" />
<path d="M0 0 C3.65116584 3.74021867 4.00095707 7.5517501 4.5625 12.625 C5.696875 12.13 6.83125 11.635 8 11.125 C13.19920122 9.20515361 18.32757987 8.37039219 23.6171875 10.421875 C26.79099365 12.13388661 28.55048082 13.60697124 30.5625 16.625 C30.609375 18.78125 30.609375 18.78125 30.3125 21.125 C30.22484375 21.8984375 30.1371875 22.671875 30.046875 23.46875 C29.5625 25.625 29.5625 25.625 27.5625 28.625 C26.9025 28.625 26.2425 28.625 25.5625 28.625 C25.5625 27.965 25.5625 27.305 25.5625 26.625 C24.551875 27.285 23.54125 27.945 22.5 28.625 C18.78187109 30.77999716 15.87334509 30.97690572 11.5625 30.625 C11.5625 29.965 11.5625 29.305 11.5625 28.625 C10.08554509 27.34069138 8.60443862 26.05919292 7.0703125 24.84375 C5.5625 23.625 5.5625 23.625 3.5625 21.625 C4.5525 22.945 5.5425 24.265 6.5625 25.625 C6.2325 26.285 5.9025 26.945 5.5625 27.625 C2.9225 27.295 0.2825 26.965 -2.4375 26.625 C-1.1175 26.295 0.2025 25.965 1.5625 25.625 C1.5625 24.965 1.5625 24.305 1.5625 23.625 C0.9025 23.625 0.2425 23.625 -0.4375 23.625 C-0.7675 22.965 -1.0975 22.305 -1.4375 21.625 C-4.5 21 -4.5 21 -7.4375 20.625 C-6.1175 19.635 -4.7975 18.645 -3.4375 17.625 C-4.4275 16.903125 -5.4175 16.18125 -6.4375 15.4375 C-9.38543497 13.0154877 -9.38543497 13.0154877 -9.8125 9.8125 C-9.68875 9.090625 -9.565 8.36875 -9.4375 7.625 C-8.1175 7.295 -6.7975 6.965 -5.4375 6.625 C-5.1075 7.615 -4.7775 8.605 -4.4375 9.625 C-5.0975 9.625 -5.7575 9.625 -6.4375 9.625 C-6.4375 10.285 -6.4375 10.945 -6.4375 11.625 C-5.1175 11.625 -3.7975 11.625 -2.4375 11.625 C-2.4375 9.975 -2.4375 8.325 -2.4375 6.625 C-10.86607143 5.19642857 -10.86607143 5.19642857 -15.4375 7.625 C-15.4375 6.635 -15.4375 5.645 -15.4375 4.625 C-12.4675 3.635 -9.4975 2.645 -6.4375 1.625 C-11.7233549 1.12158525 -14.30304151 2.35589329 -18.4375 5.625 C-19.65443876 8.05887753 -19.75709896 10.04338846 -20 12.75 C-20.04189453 13.20503906 -20.04189453 13.20503906 -20.25390625 15.5078125 C-20.31449219 16.20648438 -20.37507813 16.90515625 -20.4375 17.625 C-22.69095657 14.24481515 -22.65663312 12.63305693 -22.046875 8.69140625 C-20.83988487 4.59847175 -18.20747331 1.69063342 -14.54296875 -0.515625 C-9.62532586 -2.52282618 -4.83167583 -1.93267033 0 0 Z " fill="#8C94A1" transform="translate(44.4375,29.375)" />
<path d="M0 0 C1.41623216 -0.05447047 2.83308191 -0.09300508 4.25 -0.125 C5.03890625 -0.14820313 5.8278125 -0.17140625 6.640625 -0.1953125 C10.30077745 0.10768025 12.34818418 1.25506763 14.75 4 C16.56532034 8.35676881 16.70504374 12.3467113 16 17 C14.90494882 19.40342402 13.7204967 20.95691016 12 23 C12.309375 23.28875 12.309375 23.28875 13.875 24.75 C18.4966512 29.64351303 18.49249909 34.12130088 18.375 40.671875 C17.53128833 48.15981611 13.50793385 53.11961137 7.84375 57.80859375 C3.87867067 60.37077425 -0.02414247 61.28993683 -4.67578125 61.78125 C-5.75150391 61.90113281 -6.82722656 62.02101562 -7.93554688 62.14453125 C-9.04994141 62.26183594 -10.16433594 62.37914062 -11.3125 62.5 C-23.69201386 63.81681562 -23.69201386 63.81681562 -28.54296875 65.15625 C-31.87504215 65.96950181 -32.89823256 65.96105125 -36 65 C-35.34 62.69 -34.68 60.38 -34 58 C-26.45705481 56.193399 -18.96502307 55.15795721 -11.25976562 54.3203125 C-2.91887795 53.29158354 5.95606531 51.22708422 12 45 C15.21932461 40.22651868 16.02817658 35.61465053 15 30 C11.50952325 23.83349108 6.54749311 22.16130841 0 20 C0.66 17.36 1.32 14.72 2 12 C1.34 12.33 0.68 12.66 0 13 C-0.625 15.0625 -0.625 15.0625 -1 17 C-1.66 17 -2.32 17 -3 17 C-2.74424065 13.24886288 -2.43589349 11.46080169 0.1875 8.6875 C3.21636056 6.87018366 5.50692571 6.32493714 9 6 C8.835 5.505 8.835 5.505 8 3 C4.4780279 2.91995518 1.38018531 2.95994298 -2 4 C-1.34 2.68 -0.68 1.36 0 0 Z " fill="#5B6371" transform="translate(64,15)" />
<path d="M0 0 C0.66 0.66 1.32 1.32 2 2 C0.185 2.33 0.185 2.33 -9 4 C-8.67 4.66 -8.34 5.32 -8 6 C-7.443125 5.67 -6.88625 5.34 -6.3125 5 C-3.63215108 3.8409302 -1.89403967 3.70317542 1 4 C1.99 4.66 2.98 5.32 4 6 C4.1875 8.625 4.1875 8.625 4 11 C2.68 11 1.36 11 0 11 C0.33 9.35 0.66 7.7 1 6 C0.01 6.33 -0.98 6.66 -2 7 C-2.375 9.1875 -2.375 9.1875 -2 12 C-0.16038352 13.99022836 1.79186148 15.38989899 4 17 C3.34 17.66 2.68 18.32 2 19 C3.32 19.33 4.64 19.66 6 20 C6 20.99 6 21.98 6 23 C6.66 23 7.32 23 8 23 C8 23.66 8 24.32 8 25 C9.32 25.33 10.64 25.66 12 26 C11.484375 25.2575 10.96875 24.515 10.4375 23.75 C9 21 9 21 9.3125 18.6875 C9.539375 18.130625 9.76625 17.57375 10 17 C10.433125 17.94875 10.86625 18.8975 11.3125 19.875 C13 23 13 23 16 25 C16 25.66 16 26.32 16 27 C17.32 27.33 18.64 27.66 20 28 C19.34 28 18.68 28 18 28 C18 28.66 18 29.32 18 30 C22.83628305 29.00956295 27.47618873 28.04301154 32 26 C32.165 26.66 32.165 26.66 33 30 C25.7355197 33.44171655 20.08330939 35.67360912 12 35 C12 34.67 12 34.34 12 34 C12.99 33.835 12.99 33.835 18 33 C14.37 32.67 10.74 32.34 7 32 C7 31.01 7 30.02 7 29 C6.0925 29 5.185 29 4.25 29 C1 28 1 28 -0.21875 26.22265625 C-0.89676939 24.80241108 -1.53888458 23.36436226 -2.140625 21.91015625 C-3.27717544 19.38391458 -4.53290323 18.23354838 -7 17 C-7.33 17.99 -7.66 18.98 -8 20 C-9.32 19.34 -10.64 18.68 -12 18 C-11.74605469 18.61746094 -11.49210937 19.23492187 -11.23046875 19.87109375 C-8.935003 25.519487 -6.85206994 31.19123517 -5 37 C-5.66 37 -6.32 37 -7 37 C-8.14973839 34.418342 -9.29490359 31.83481693 -10.4375 29.25 C-10.76298828 28.52039063 -11.08847656 27.79078125 -11.42382812 27.0390625 C-11.73642578 26.33007812 -12.04902344 25.62109375 -12.37109375 24.890625 C-12.5151062 24.56594238 -12.5151062 24.56594238 -13.24389648 22.92285156 C-15.37406075 17.50561754 -15.19324458 12.66332236 -14 7 C-10.45663723 1.1351237 -6.77256183 -0.58891842 0 0 Z " fill="#A1A9B3" transform="translate(38,30)" />
<path d="M0 0 C3 2 3 2 3.73828125 4.36328125 C3.92777344 5.33652344 4.11726563 6.30976562 4.3125 7.3125 C5.68680767 13.43038576 8.00423501 18.68733304 10.79296875 24.28515625 C12 27 12 27 12 30 C15.63 30 19.26 30 23 30 C23 31.32 23 32.64 23 34 C19.04 34.99 15.08 35.98 11 37 C10.67 38.98 10.34 40.96 10 43 C8.1320217 40.19803255 7.66995587 39.02263049 7.1015625 35.86328125 C6.09825271 31.00675138 4.32836927 26.72629871 2.375 22.1875 C-0.54769641 15.09110454 -2.27692379 8.76311621 -1 1 C-0.67 0.67 -0.34 0.34 0 0 Z " fill="#D3DAE0" transform="translate(19,37)" />
<path d="M0 0 C4.99607126 0.10475633 7.76969445 1.48728175 11.8125 4.375 C13.99969033 7.65578549 14.03041927 8.18090051 13.5625 11.875 C13.47484375 12.6484375 13.3871875 13.421875 13.296875 14.21875 C12.8125 16.375 12.8125 16.375 10.8125 19.375 C10.1525 19.375 9.4925 19.375 8.8125 19.375 C8.8125 18.715 8.8125 18.055 8.8125 17.375 C8.3071875 17.705 8.3071875 17.705 5.75 19.375 C2.03187109 21.52999716 -0.87665491 21.72690572 -5.1875 21.375 C-5.1875 20.715 -5.1875 20.055 -5.1875 19.375 C-4.48882812 19.12105469 -3.79015625 18.86710937 -3.0703125 18.60546875 C-2.16023438 18.26128906 -1.25015625 17.91710937 -0.3125 17.5625 C0.59242187 17.22605469 1.49734375 16.88960937 2.4296875 16.54296875 C4.8125 15.375 4.8125 15.375 6.8125 12.375 C6.8125 10.725 6.8125 9.075 6.8125 7.375 C3.5125 7.045 0.2125 6.715 -3.1875 6.375 C-3.5175 8.025 -3.8475 9.675 -4.1875 11.375 C-2.8675 11.045 -1.5475 10.715 -0.1875 10.375 C-0.1875 9.715 -0.1875 9.055 -0.1875 8.375 C1.1325 8.705 2.4525 9.035 3.8125 9.375 C3.4825 10.695 3.1525 12.015 2.8125 13.375 C-0.5625 13.5 -0.5625 13.5 -4.1875 13.375 C-6.1875 11.375 -6.1875 11.375 -6.625 8.9375 C-6.1875 6.375 -6.1875 6.375 -4 4.5625 C-1.10151016 3.33869318 0.71417835 3.20287102 3.8125 3.375 C4.1425 3.045 4.4725 2.715 4.8125 2.375 C1.1825 2.375 -2.4475 2.375 -6.1875 2.375 C-3.82657851 0.01407851 -3.22499516 0.05550766 0 0 Z " fill="#5E6673" transform="translate(61.1875,38.625)" />
<path d="M0 0 C3.65116584 3.74021867 4.00095707 7.5517501 4.5625 12.625 C6.5425 12.295 8.5225 11.965 10.5625 11.625 C9.25 13.125 9.25 13.125 7.5625 14.625 C6.5725 14.625 5.5825 14.625 4.5625 14.625 C4.2325 15.285 3.9025 15.945 3.5625 16.625 C3.046875 16.295 2.53125 15.965 2 15.625 C-0.4375 14.625 -0.4375 14.625 -4.0625 14.625 C-5.17625 14.625 -6.29 14.625 -7.4375 14.625 C-9.4375 12.625 -9.4375 12.625 -9.5625 10 C-9.52125 9.21625 -9.48 8.4325 -9.4375 7.625 C-8.1175 7.295 -6.7975 6.965 -5.4375 6.625 C-5.1075 7.615 -4.7775 8.605 -4.4375 9.625 C-5.0975 9.625 -5.7575 9.625 -6.4375 9.625 C-6.4375 10.285 -6.4375 10.945 -6.4375 11.625 C-5.1175 11.625 -3.7975 11.625 -2.4375 11.625 C-2.4375 9.975 -2.4375 8.325 -2.4375 6.625 C-10.86607143 5.19642857 -10.86607143 5.19642857 -15.4375 7.625 C-15.4375 6.635 -15.4375 5.645 -15.4375 4.625 C-12.4675 3.635 -9.4975 2.645 -6.4375 1.625 C-11.7233549 1.12158525 -14.30304151 2.35589329 -18.4375 5.625 C-19.65443876 8.05887753 -19.75709896 10.04338846 -20 12.75 C-20.04189453 13.20503906 -20.04189453 13.20503906 -20.25390625 15.5078125 C-20.31449219 16.20648438 -20.37507813 16.90515625 -20.4375 17.625 C-22.69095657 14.24481515 -22.65663312 12.63305693 -22.046875 8.69140625 C-20.83988487 4.59847175 -18.20747331 1.69063342 -14.54296875 -0.515625 C-9.62532586 -2.52282618 -4.83167583 -1.93267033 0 0 Z " fill="#535B68" transform="translate(44.4375,29.375)" />
<path d="M0 0 C4.76613786 2.57371444 4.76613786 2.57371444 6.125 4.6875 C6.48641955 7.01664823 6.82199525 9.35003478 7.125 11.6875 C7.785 12.0175 8.445 12.3475 9.125 12.6875 C8.795 13.6775 8.465 14.6675 8.125 15.6875 C5.5625 16.875 5.5625 16.875 3.125 17.6875 C3.09921875 17.08421875 3.0734375 16.4809375 3.046875 15.859375 C2.57952463 9.27398339 2.57952463 9.27398339 0.1875 6.1875 C-4.02589086 3.12321574 -7.78338759 3.0789066 -12.875 3.6875 C-17.83975588 6.07793802 -19.8053826 8.62843524 -21.875 13.6875 C-22.535 13.6875 -23.195 13.6875 -23.875 13.6875 C-24.205 15.0075 -24.535 16.3275 -24.875 17.6875 C-26.33305207 10.64024831 -26.33305207 10.64024831 -24.3125 6.4375 C-17.85808588 -0.84440311 -9.21341828 -3.74417636 0 0 Z " fill="#9BA2A9" transform="translate(44.875,25.3125)" />
<path d="M0 0 C2.36046295 0.94418518 3.72278435 1.54340952 5.0625 3.75 C5.371875 4.4925 5.68125 5.235 6 6 C6.53625 7.03125 7.0725 8.0625 7.625 9.125 C9 12 9 12 9 14 C11.64 14 14.28 14 17 14 C17 14.33 17 14.66 17 15 C14.36 15.66 11.72 16.32 9 17 C9 17.33 9 17.66 9 18 C11.97 18.33 14.94 18.66 18 19 C14.47844036 21.34770643 12.49228157 21.37669614 8.3125 21.625 C7.13300781 21.69976562 5.95351563 21.77453125 4.73828125 21.8515625 C3.83464844 21.90054688 2.93101563 21.94953125 2 22 C1.73445313 21.32453125 1.46890625 20.6490625 1.1953125 19.953125 C0.84210937 19.06109375 0.48890625 18.1690625 0.125 17.25 C-0.04902344 16.80914062 -0.04902344 16.80914062 -0.9296875 14.578125 C-2 12 -2 12 -3.1328125 9.921875 C-4 8 -4 8 -4 4 C-2.68 4.33 -1.36 4.66 0 5 C0 3.35 0 1.7 0 0 Z " fill="#CDD2D8" transform="translate(30,44)" />
<path d="M0 0 C0.66 0 1.32 0 2 0 C2.79953138 3.28696233 3.09658936 4.71023192 2 8 C2.99 8 3.98 8 5 8 C4.7633636 12.10169759 4.56009401 14.35989257 1.8125 17.5 C-1 19 -1 19 -4.1875 18.875 C-7 18 -7 18 -9 16 C-8.34 13.69 -7.68 11.38 -7 9 C-7.33 9.165 -7.33 9.165 -9 10 C-9.625 12.0625 -9.625 12.0625 -10 14 C-10.66 14 -11.32 14 -12 14 C-11.74424065 10.24886288 -11.43589349 8.46080169 -8.8125 5.6875 C-5.78363944 3.87018366 -3.49307429 3.32493714 0 3 C0 2.01 0 1.02 0 0 Z " fill="#434950" transform="translate(73,18)" />
<path d="M0 0 C0 0.33 0 0.66 0 1 C4.29 1.33 8.58 1.66 13 2 C12.34 2.66 11.68 3.32 11 4 C12.258125 4.144375 13.51625 4.28875 14.8125 4.4375 C17.42667123 4.73748686 19.47439892 5.15813297 22 6 C14.66163618 10.61268583 5.49373556 11.16629302 -3 11 C-3 10.34 -3 9.68 -3 9 C-3.7425 9.061875 -4.485 9.12375 -5.25 9.1875 C-8 9 -8 9 -12 6 C-8.04 5.34 -4.08 4.68 0 4 C-2.31 3.67 -4.62 3.34 -7 3 C-7.33 2.01 -7.66 1.02 -8 0 C-4.71303767 -0.79953138 -3.28976808 -1.09658936 0 0 Z " fill="#B5BCC8" transform="translate(45,60)" />
<path d="M0 0 C1.41623216 -0.05447047 2.83308191 -0.09300508 4.25 -0.125 C5.03890625 -0.14820313 5.8278125 -0.17140625 6.640625 -0.1953125 C10.30077745 0.10768025 12.34818418 1.25506763 14.75 4 C16.56532034 8.35676881 16.70504374 12.3467113 16 17 C14.90494882 19.40342402 13.7204967 20.95691016 12 23 C12.309375 23.28875 12.309375 23.28875 13.875 24.75 C18.4966512 29.64351303 18.49249909 34.12130088 18.375 40.671875 C17.6185004 47.38580895 14.41574039 51.9627779 9.5 56.4375 C6.81368824 58.53527057 4.35569648 60.1837495 1 61 C-0.34317686 60.70885602 -1.67946005 60.38087152 -3 60 C-2.60167969 59.83564453 -2.60167969 59.83564453 -0.5859375 59.00390625 C6.9153444 55.63654248 11.39400873 52.48278821 15 45 C16.65318226 40.04045323 15.99895753 35.08194503 15 30 C13.30900888 26.83161663 11.26155011 24.63077505 8 23 C8 22.34 8 21.68 8 21 C8.804375 20.236875 9.60875 19.47375 10.4375 18.6875 C13.07298537 15.92345437 13.68186067 14.71162552 14 11 C13.01 11 12.02 11 11 11 C11 8.36 11 5.72 11 3 C9.58344207 2.9727585 8.16672955 2.95349533 6.75 2.9375 C5.96109375 2.92589844 5.1721875 2.91429687 4.359375 2.90234375 C2.09308998 2.99614694 0.1711105 3.36758937 -2 4 C-1.34 2.68 -0.68 1.36 0 0 Z " fill="#404445" transform="translate(64,15)" />
<path d="M0 0 C5.95887074 0.35052181 7.96618998 1.75388419 12 6 C14.8125 6.8125 14.8125 6.8125 17 7 C17.51799912 13.34548922 17.18892167 18.00551647 13 23 C10.16066728 25.90553478 7.64492803 27.79569365 3.546875 28.3046875 C1.33987749 28.31162774 -0.80532685 28.22394624 -3 28 C-3.33 27.34 -3.66 26.68 -4 26 C-2.3767313 25.3291288 -0.75132422 24.66342971 0.875 24 C1.77992187 23.62875 2.68484375 23.2575 3.6171875 22.875 C6 22 6 22 8 22 C10.13865399 17.58011508 11.35718361 12.92020426 11 8 C8.02281858 3.75977192 4.95454219 2.26744102 0 1 C0 0.67 0 0.34 0 0 Z " fill="#AEB7C3" transform="translate(63,38)" />
<path d="M0 0 C1.171875 1.6796875 1.171875 1.6796875 2 4 C0.953125 6.5078125 0.953125 6.5078125 -0.75 9.125 C-1.30171875 9.99382813 -1.8534375 10.86265625 -2.421875 11.7578125 C-5.09253417 15.5522639 -6.52696949 16.22208165 -11 17 C-13.01547736 17.55295403 -15.02741707 18.11485721 -17.03515625 18.6953125 C-19.35154647 19.05451417 -20.80307352 18.79473016 -23 18 C-23.66 17.34 -24.32 16.68 -25 16 C-24.72736328 15.91492188 -24.72736328 15.91492188 -23.34765625 15.484375 C-5.20986608 9.65547833 -5.20986608 9.65547833 -0.6875 1.6875 C-0.460625 1.130625 -0.23375 0.57375 0 0 Z " fill="#4D5562" transform="translate(79,54)" />
<path d="M0 0 C0.38800781 0.00257812 0.38800781 0.00257812 2.3515625 0.015625 C3.12242188 0.01046875 3.89328125 0.0053125 4.6875 0 C7.1757986 0.28874455 8.81890448 1.02423271 10.9765625 2.265625 C10.9559375 2.9875 10.9353125 3.709375 10.9140625 4.453125 C10.97476809 7.18487638 11.36914785 9.60818591 11.9765625 12.265625 C10.4765625 10.890625 10.4765625 10.890625 8.9765625 9.265625 C8.9765625 8.605625 8.9765625 7.945625 8.9765625 7.265625 C5.6765625 6.935625 2.3765625 6.605625 -1.0234375 6.265625 C-1.3534375 7.915625 -1.6834375 9.565625 -2.0234375 11.265625 C-0.7034375 10.935625 0.6165625 10.605625 1.9765625 10.265625 C1.9765625 9.605625 1.9765625 8.945625 1.9765625 8.265625 C3.2965625 8.595625 4.6165625 8.925625 5.9765625 9.265625 C5.6465625 10.585625 5.3165625 11.905625 4.9765625 13.265625 C1.6015625 13.390625 1.6015625 13.390625 -2.0234375 13.265625 C-4.0234375 11.265625 -4.0234375 11.265625 -4.4609375 8.828125 C-4.0234375 6.265625 -4.0234375 6.265625 -1.8359375 4.453125 C1.06255234 3.22931818 2.87824085 3.09349602 5.9765625 3.265625 C6.3065625 2.935625 6.6365625 2.605625 6.9765625 2.265625 C3.3465625 2.265625 -0.2834375 2.265625 -4.0234375 2.265625 C-2.0234375 0.265625 -2.0234375 0.265625 0 0 Z " fill="#596171" transform="translate(59.0234375,38.734375)" />
<path d="M0 0 C2.33203125 0.7734375 2.33203125 0.7734375 4.1875 1.625 C4.5175 2.285 4.8475 2.945 5.1875 3.625 C4.61773437 3.46644531 4.04796875 3.30789062 3.4609375 3.14453125 C-1.79057759 1.94444275 -6.30006213 1.89678917 -11.1875 4.25 C-14.0410309 6.83176605 -15.36429868 9.08495232 -16.8125 12.625 C-17.4725 12.625 -18.1325 12.625 -18.8125 12.625 C-19.1425 13.945 -19.4725 15.265 -19.8125 16.625 C-21.27055207 9.57774831 -21.27055207 9.57774831 -19.25 5.375 C-13.18374455 -1.4689805 -8.52654334 -2.63081638 0 0 Z " fill="#A9B0BD" transform="translate(39.8125,26.375)" />
<path d="M0 0 C5.28 0.33 10.56 0.66 16 1 C16 2.32 16 3.64 16 5 C12.04 5.99 8.08 6.98 4 8 C3.67 9.98 3.34 11.96 3 14 C0.01054405 9.51581607 0.37740622 5.34658811 0 0 Z " fill="#DDE1E5" transform="translate(26,66)" />
<path d="M0 0 C1.5 1.375 1.5 1.375 3 3 C3 3.66 3 4.32 3 5 C3.66 5 4.32 5 5 5 C5.66 3.68 6.32 2.36 7 1 C7.66 2.65 8.32 4.3 9 6 C8.01 5.67 7.02 5.34 6 5 C6.33 6.98 6.66 8.96 7 11 C6.175 10.67 6.175 10.67 2 9 C2.25394531 9.61746094 2.50789063 10.23492187 2.76953125 10.87109375 C5.064997 16.519487 7.14793006 22.19123517 9 28 C8.34 28 7.68 28 7 28 C5.85026161 25.418342 4.70509641 22.83481693 3.5625 20.25 C3.23701172 19.52039063 2.91152344 18.79078125 2.57617188 18.0390625 C2.26357422 17.33007812 1.95097656 16.62109375 1.62890625 15.890625 C1.34088135 15.24125977 1.05285645 14.59189453 0.75610352 13.92285156 C-1.23341182 8.86330271 -0.79690659 5.31271058 0 0 Z " fill="#A2AAB0" transform="translate(24,39)" />
<path d="M0 0 C0 0.33 0 0.66 0 1 C4.29 1.33 8.58 1.66 13 2 C12.34 2.66 11.68 3.32 11 4 C11.33 4.66 11.66 5.32 12 6 C4.08 6.33 -3.84 6.66 -12 7 C-7.60171741 4.8008587 -4.81449408 4.48144941 0 4 C-2.31 3.67 -4.62 3.34 -7 3 C-7.33 2.01 -7.66 1.02 -8 0 C-4.71303767 -0.79953138 -3.28976808 -1.09658936 0 0 Z " fill="#B2B9C0" transform="translate(45,60)" />
<path d="M0 0 C0.33 1.32 0.66 2.64 1 4 C0.71705078 4.05478516 0.71705078 4.05478516 -0.71484375 4.33203125 C-1.44832031 4.49058594 -2.18179688 4.64914063 -2.9375 4.8125 C-3.66839844 4.96332031 -4.39929688 5.11414063 -5.15234375 5.26953125 C-5.45720703 5.39005859 -5.45720703 5.39005859 -7 6 C-7.33 6.99 -7.66 7.98 -8 9 C-9.32303717 9.3721042 -10.65737935 9.70630173 -12 10 C-12.33 10.66 -12.66 11.32 -13 12 C-13 11.01 -13 10.02 -13 9 C-13.66 8.67 -14.32 8.34 -15 8 C-6.76728111 -0.46140553 -6.76728111 -0.46140553 0 0 Z " fill="#9EA4B0" transform="translate(72,17)" />
<path d="M0 0 C1.04027344 -0.01417969 2.08054687 -0.02835938 3.15234375 -0.04296875 C6.01296613 0.18357718 7.63920151 0.71016381 10.0625 2.1875 C10.0625 2.8475 10.0625 3.5075 10.0625 4.1875 C11.3825 4.8475 12.7025 5.5075 14.0625 6.1875 C14.0625 7.1775 14.0625 8.1675 14.0625 9.1875 C12.63020833 7.91796875 11.19791667 6.6484375 9.765625 5.37890625 C5.54313072 2.42509718 0.0064045 2.61830047 -4.9375 3.1875 C-11.38598089 5.09901398 -14.48194954 8.57223051 -17.9375 14.1875 C-18.2675 13.5275 -18.5975 12.8675 -18.9375 12.1875 C-14.24901728 4.43347088 -9.45445304 0.05843296 0 0 Z " fill="#494946" transform="translate(36.9375,21.8125)" />
<path d="M0 0 C0.33 1.32 0.66 2.64 1 4 C-6.2644803 7.44171655 -11.91669061 9.67360912 -20 9 C-20 8.67 -20 8.34 -20 8 C-17.36 7.34 -14.72 6.68 -12 6 C-14.31 5.67 -16.62 5.34 -19 5 C-19 4.34 -19 3.68 -19 3 C-17.35 2.67 -15.7 2.34 -14 2 C-14 2.66 -14 3.32 -14 4 C-12.5608866 3.71640113 -11.12374482 3.42278601 -9.6875 3.125 C-8.88699219 2.96257813 -8.08648437 2.80015625 -7.26171875 2.6328125 C-4.49539754 1.85881589 -2.89416566 0 0 0 Z " fill="#959CA7" transform="translate(70,56)" />
<path d="M0 0 C1.32 0.66 2.64 1.32 4 2 C3.44024086 5.27459098 2.66077275 6.75442044 0 8.75 C-4.21552544 11.61585617 -8.06223469 11.5038536 -13 11 C-13.33 10.34 -13.66 9.68 -14 9 C-12.3767313 8.3291288 -10.75132422 7.66342971 -9.125 7 C-8.22007813 6.62875 -7.31515625 6.2575 -6.3828125 5.875 C-4 5 -4 5 -2 5 C-1.34 3.35 -0.68 1.7 0 0 Z " fill="#A5ADB9" transform="translate(73,55)" />
<path d="M0 0 C3.72701087 2.48467392 3.6844112 3.67384196 4.625 7.9375 C5.32267916 11.02454271 5.99879147 13.99637442 7 17 C6.67 17.66 6.34 18.32 6 19 C5.01 18.67 4.02 18.34 3 18 C1.8125 15.4375 1.8125 15.4375 1 13 C0.34 13 -0.32 13 -1 13 C-1.02686553 11.02090602 -1.04633375 9.04171029 -1.0625 7.0625 C-1.07410156 5.96035156 -1.08570312 4.85820313 -1.09765625 3.72265625 C-1 1 -1 1 0 0 Z " fill="#BFC6CF" transform="translate(19,37)" />
<path d="M0 0 C0.66 0.66 1.32 1.32 2 2 C0.185 2.33 0.185 2.33 -9 4 C-8.67 5.65 -8.34 7.3 -8 9 C-8.4375 11.8125 -8.4375 11.8125 -9 14 C-9.66 14 -10.32 14 -11 14 C-12.75 11.8125 -12.75 11.8125 -14 9 C-13.36693585 5.29205285 -12.13542264 4.11387813 -9.25 1.6875 C-5.75516024 -0.12712834 -3.87188405 -0.52798419 0 0 Z " fill="#848B97" transform="translate(38,30)" />
<path d="M0 0 C0.33 0 0.66 0 1 0 C1.63055009 8.28122452 1.25989598 14.34273817 -4 21 C-7.41859091 24.62105871 -11.06604843 27.79984962 -16 29 C-17.34317686 28.70885602 -18.67946005 28.38087152 -20 28 C-19.20335937 27.67128906 -18.40671875 27.34257813 -17.5859375 27.00390625 C-10.17450294 23.67687541 -5.31782375 20.59118074 -2 13 C-1.1875 9.3125 -1.1875 9.3125 -1 6 C-0.6725678 3.99902542 -0.34123581 1.99866686 0 0 Z " fill="#3B3E3C" transform="translate(81,47)" />
<path d="M0 0 C-0.33 0.66 -0.66 1.32 -1 2 C-3.3260857 2.38063221 -5.66055264 2.71269945 -8 3 C-8.33 3.165 -8.33 3.165 -10 4 C-10 5.65 -10 7.3 -10 9 C-8.02 9.66 -6.04 10.32 -4 11 C-4 11.33 -4 11.66 -4 12 C-6.875 12.125 -6.875 12.125 -10 12 C-12.1385485 9.8614515 -12.42655063 8.86724686 -13 6 C-14.32 5.67 -15.64 5.34 -17 5 C-17 4.34 -17 3.68 -17 3 C-11.17542162 -0.18965007 -6.54020404 -1.73123048 0 0 Z " fill="#79828F" transform="translate(66,41)" />
<path d="M0 0 C6.39456368 1.52724531 10.79415459 2.81279066 15 8 C14.67 8.99 14.34 9.98 14 11 C11.47562314 9.9181242 10.0225394 9.02564829 8.1875 6.9375 C5.22843106 4.31661037 2.88285162 4.34060102 -1 4 C-2.66934283 3.68033861 -4.3373217 3.35268934 -6 3 C-6 2.67 -6 2.34 -6 2 C-4.02 1.67 -2.04 1.34 0 1 C0 0.67 0 0.34 0 0 Z " fill="#9DA4AD" transform="translate(64,35)" />
<path d="M0 0 C0.38800781 0.00257812 0.38800781 0.00257812 2.3515625 0.015625 C3.12242188 0.01046875 3.89328125 0.0053125 4.6875 0 C7.1757986 0.28874455 8.81890448 1.02423271 10.9765625 2.265625 C10.9559375 2.9875 10.9353125 3.709375 10.9140625 4.453125 C10.97476809 7.18487638 11.36914785 9.60818591 11.9765625 12.265625 C10.4765625 10.890625 10.4765625 10.890625 8.9765625 9.265625 C8.9765625 8.605625 8.9765625 7.945625 8.9765625 7.265625 C8.3165625 7.265625 7.6565625 7.265625 6.9765625 7.265625 C6.9765625 6.605625 6.9765625 5.945625 6.9765625 5.265625 C5.3265625 5.265625 3.6765625 5.265625 1.9765625 5.265625 C1.9765625 4.935625 1.9765625 4.605625 1.9765625 4.265625 C3.6265625 4.265625 5.2765625 4.265625 6.9765625 4.265625 C6.9765625 3.605625 6.9765625 2.945625 6.9765625 2.265625 C3.3465625 2.265625 -0.2834375 2.265625 -4.0234375 2.265625 C-2.0234375 0.265625 -2.0234375 0.265625 0 0 Z " fill="#535B69" transform="translate(59.0234375,38.734375)" />
<path d="M0 0 C3 6.625 3 6.625 3 10 C0.36 9.67 -2.28 9.34 -5 9 C-3.68 8.67 -2.36 8.34 -1 8 C-1 7.34 -1 6.68 -1 6 C-1.66 6 -2.32 6 -3 6 C-3.33 5.34 -3.66 4.68 -4 4 C-7.0625 3.375 -7.0625 3.375 -10 3 C-6.41600853 0.61067235 -4.26804999 0 0 0 Z " fill="#727A85" transform="translate(47,47)" />
<path d="M0 0 C1.76462683 3.08809695 2 4.23312136 2 8 C-0.64738916 9.4606285 -1.89448334 10 -5 10 C-5.625 7.125 -5.625 7.125 -6 4 C-5.34 3.34 -4.68 2.68 -4 2 C-3.67 2.33 -3.34 2.66 -3 3 C-2.01 2.01 -1.02 1.02 0 0 Z " fill="#585F6A" transform="translate(57,27)" />
<path d="M0 0 C1.41623216 -0.05447047 2.83308191 -0.09300508 4.25 -0.125 C5.03890625 -0.14820313 5.8278125 -0.17140625 6.640625 -0.1953125 C9.25266532 0.020916 10.81062688 0.57299788 13 2 C13.99367708 5.14664407 14 7.66598626 14 11 C13.01 11 12.02 11 11 11 C11 8.36 11 5.72 11 3 C9.58344207 2.9727585 8.16672955 2.95349533 6.75 2.9375 C5.96109375 2.92589844 5.1721875 2.91429687 4.359375 2.90234375 C2.09308998 2.99614694 0.1711105 3.36758937 -2 4 C-1.34 2.68 -0.68 1.36 0 0 Z " fill="#474C4E" transform="translate(64,15)" />
<path d="M0 0 C0.99 0.33 1.98 0.66 3 1 C3 1.66 3 2.32 3 3 C4.32 3.33 5.64 3.66 7 4 C7 4.99 7 5.98 7 7 C7.66 7.33 8.32 7.66 9 8 C8.67 8.99 8.34 9.98 8 11 C5.4375 12.1875 5.4375 12.1875 3 13 C2.97550781 12.69835937 2.97550781 12.69835937 2.8515625 11.171875 C2.77679688 10.37265625 2.70203125 9.5734375 2.625 8.75 C2.55539063 7.96109375 2.48578125 7.1721875 2.4140625 6.359375 C1.98492887 3.914123 1.21399362 2.15163097 0 0 Z " fill="#A6AFBB" transform="translate(45,30)" />
<path d="M0 0 C2.40534558 0.96213823 3.73918442 1.57979713 5.125 3.8125 C5.41375 4.534375 5.7025 5.25625 6 6 C6.37125 6.9075 6.7425 7.815 7.125 8.75 C7.41375 9.4925 7.7025 10.235 8 11 C7.01 10.67 6.02 10.34 5 10 C4.67 10 4.34 10 4 10 C3.67 10.99 3.34 11.98 3 13 C0.67527795 10.14693203 -0.7508258 7.45925163 -2 4 C-1.67 4.165 -1.67 4.165 0 5 C0 3.35 0 1.7 0 0 Z " fill="#BCC2CA" transform="translate(30,44)" />
<path d="M0 0 C1.32 0.33 2.64 0.66 4 1 C3.50769231 7.52307692 3.50769231 7.52307692 0.9375 9.9375 C0.298125 10.288125 -0.34125 10.63875 -1 11 C-2.25 3.375 -2.25 3.375 0 0 Z " fill="#AFB5C2" transform="translate(74,25)" />
<path d="M0 0 C0.66 0 1.32 0 2 0 C5.75903614 7.98795181 5.75903614 7.98795181 5 12 C3.66666667 13.33333333 2.33333333 14.66666667 1 16 C0.75 18.75 0.75 18.75 1 21 C-0.32 20.34 -1.64 19.68 -3 19 C-2.34 18.21625 -1.68 17.4325 -1 16.625 C1.85442177 12.39884197 1.51645809 7.91905166 1 3 C0.67 2.01 0.34 1.02 0 0 Z " fill="#67625A" transform="translate(78,19)" />
<path d="M0 0 C1.85546875 0.8515625 1.85546875 0.8515625 2.85546875 2.8515625 C2.28699219 2.69042969 1.71851562 2.52929688 1.1328125 2.36328125 C-4.41719557 1.11619539 -10.03430532 1.21402654 -15.14453125 3.8515625 C-15.14453125 2.2015625 -15.14453125 0.5515625 -15.14453125 -1.1484375 C-10.11131411 -3.66504607 -5.00393499 -1.65959653 0 0 Z " fill="#ADB4C0" transform="translate(42.14453125,27.1484375)" />
<path d="M0 0 C2.375 0.3125 2.375 0.3125 5 1 C7.23551759 4.35327639 7.17283528 4.90743657 6.625 8.6875 C6.51414062 9.49574219 6.40328125 10.30398437 6.2890625 11.13671875 C6.19367188 11.75160156 6.09828125 12.36648437 6 13 C5.01 12.67 4.02 12.34 3 12 C2.938125 11.4740625 2.938125 11.4740625 2.625 8.8125 C2.08859218 5.54041229 1.36119965 2.99463924 0 0 Z " fill="#7C8490" transform="translate(68,42)" />
<path d="M0 0 C3.3 0.33 6.6 0.66 10 1 C10.33 2.98 10.66 4.96 11 7 C10.67 7.165 10.67 7.165 9 8 C8.7525 7.195625 8.505 6.39125 8.25 5.5625 C7 3 7 3 4.875 2.1875 C4.25625 2.125625 3.6375 2.06375 3 2 C3.33 2.99 3.66 3.98 4 5 C2.35 5 0.7 5 -1 5 C-0.67 3.35 -0.34 1.7 0 0 Z " fill="#7E8696" transform="translate(58,45)" />
<path d="M0 0 C-0.5625 1.875 -0.5625 1.875 -2 4 C-5.625 5.25 -5.625 5.25 -9 6 C-9.66 5.34 -10.32 4.68 -11 4 C-10.34 3.67 -9.68 3.34 -9 3 C-9.33 2.34 -9.66 1.68 -10 1 C-6.52674819 -0.1577506 -3.63932552 -0.06866652 0 0 Z " fill="#52596B" transform="translate(76,65)" />
<path d="M0 0 C0.66 0 1.32 0 2 0 C4.68219822 5.36439644 5.3152595 9.01006953 5 15 C1.10815152 10.57744491 0 5.80705928 0 0 Z " fill="#4F4F4E" transform="translate(22,64)" />
<path d="M0 0 C0.99 0.66 1.98 1.32 3 2 C3.1875 4.625 3.1875 4.625 3 7 C1.68 7 0.36 7 -1 7 C-0.67 5.35 -0.34 3.7 0 2 C-1.485 2.165 -1.485 2.165 -9 3 C-5.95049269 0.28932684 -4.08318873 -0.52348573 0 0 Z " fill="#88909D" transform="translate(39,34)" />
<path d="M0 0 C2.0625 0.4375 2.0625 0.4375 4 1 C3.67 1.66 3.34 2.32 3 3 C2.34 3 1.68 3 1 3 C1 3.66 1 4.32 1 5 C0.34 5 -0.32 5 -1 5 C-1 5.99 -1 6.98 -1 8 C-1.66 8 -2.32 8 -3 8 C-3.33 8.66 -3.66 9.32 -4 10 C-4 9.01 -4 8.02 -4 7 C-4.66 6.67 -5.32 6.34 -6 6 C-4 4 -2 2 0 0 Z " fill="#D3D9E0" transform="translate(63,19)" />
<path d="M0 0 C3.1875 0.875 3.1875 0.875 6 2 C6 3.98 6 5.96 6 8 C5.01 8 4.02 8 3 8 C2.34 6.35 1.68 4.7 1 3 C0.34 3 -0.32 3 -1 3 C-1.33 3.99 -1.66 4.98 -2 6 C-2.33 4.68 -2.66 3.36 -3 2 C-2.01 1.34 -1.02 0.68 0 0 Z " fill="#8C929C" transform="translate(56,25)" />
<path d="M0 0 C6.0546875 -0.1953125 6.0546875 -0.1953125 8 0 C8.66 0.66 9.32 1.32 10 2 C6.48812804 4.40814077 4.27343092 5.36629408 0 5 C0.66 4.01 1.32 3.02 2 2 C1.34 1.34 0.68 0.68 0 0 Z " fill="#4F5969" transform="translate(45,71)" />
<path d="M0 0 C3.63 0 7.26 0 11 0 C11 1.32 11 2.64 11 4 C9.35 4.33 7.7 4.66 6 5 C5.67 4.01 5.34 3.02 5 2 C3.35 1.67 1.7 1.34 0 1 C0 0.67 0 0.34 0 0 Z " fill="#CED5DA" transform="translate(31,67)" />
<path d="M0 0 C0.99 0 1.98 0 3 0 C3.33 0.99 3.66 1.98 4 3 C3.34 3 2.68 3 2 3 C2 3.66 2 4.32 2 5 C2.99 5.33 3.98 5.66 5 6 C4.67 6.66 4.34 7.32 4 8 C0.125 7.125 0.125 7.125 -1 6 C-1.125 3.5 -1.125 3.5 -1 1 C-0.67 0.67 -0.34 0.34 0 0 Z " fill="#69717D" transform="translate(36,36)" />
<path d="M0 0 C0.66 0 1.32 0 2 0 C2.6875 2.3125 2.6875 2.3125 3 5 C1.5625 6.8125 1.5625 6.8125 0 8 C0 7.01 0 6.02 0 5 C-2.64 5.66 -5.28 6.32 -8 7 C-8 6.34 -8 5.68 -8 5 C-5.36 4.34 -2.72 3.68 0 3 C0 2.01 0 1.02 0 0 Z " fill="#69707C" transform="translate(73,18)" />
<path d="M0 0 C3.96 0.33 7.92 0.66 12 1 C8 4 8 4 4.25 3.6875 C3.1775 3.460625 2.105 3.23375 1 3 C0.67 3.66 0.34 4.32 0 5 C0 3.35 0 1.7 0 0 Z " fill="#464F60" transform="translate(29,74)" />
<path d="M0 0 C0.66 0 1.32 0 2 0 C2.67408308 1.26691507 3.33900497 2.53870749 4 3.8125 C4.185625 4.16634766 4.185625 4.16634766 5.125 5.95703125 C6 8 6 8 6 11 C3 10 3 10 1.3125 7.1875 C0 4 0 4 0 0 Z " fill="#D5DAE2" transform="translate(26,48)" />
<path d="M0 0 C2 3 2 3 1.625 5.6875 C1.41875 6.450625 1.2125 7.21375 1 8 C0.01 7.835 0.01 7.835 -5 7 C-3.70700306 4.11562221 -2.34058637 2.12780579 0 0 Z " fill="#6B727D" transform="translate(71,29)" />
<path d="M0 0 C2.25597827 2.25597827 2.96574192 4.04603867 4.125 7 C4.47820313 7.886875 4.83140625 8.77375 5.1953125 9.6875 C6 12 6 12 6 14 C5.01 14 4.02 14 3 14 C1.19769832 10.17010894 0.80377759 7.21878192 1 3 C0.34 2.67 -0.32 2.34 -1 2 C-0.67 1.34 -0.34 0.68 0 0 Z " fill="#68696B" transform="translate(18,50)" />
<path d="M0 0 C1.98 0 3.96 0 6 0 C6 0.66 6 1.32 6 2 C8.64 2 11.28 2 14 2 C14 2.33 14 2.66 14 3 C9.38 3 4.76 3 0 3 C0 2.01 0 1.02 0 0 Z " fill="#98A1AA" transform="translate(45,59)" />
<path d="M0 0 C-0.33 0.66 -0.66 1.32 -1 2 C-3.32249342 2.40197001 -5.65885633 2.72686657 -8 3 C-9.66934283 3.31966139 -11.3373217 3.64731066 -13 4 C-13 3.01 -13 2.02 -13 1 C-4.57142857 -1.42857143 -4.57142857 -1.42857143 0 0 Z " fill="#737B8A" transform="translate(66,41)" />
<path d="M0 0 C0.1875 2.375 0.1875 2.375 0 5 C-0.99 5.66 -1.98 6.32 -3 7 C-3.99 6.67 -4.98 6.34 -6 6 C-5.67 4.35 -5.34 2.7 -5 1 C-1.125 0 -1.125 0 0 0 Z " fill="#98A0AB" transform="translate(35,36)" />
<path d="M0 0 C0 0.66 0 1.32 0 2 C-4.29 1.34 -8.58 0.68 -13 0 C-13 0.66 -13 1.32 -13 2 C-13.99 1.67 -14.98 1.34 -16 1 C-15.67 0.34 -15.34 -0.32 -15 -1 C-9.33862697 -2.3864587 -5.43940666 -1.62227918 0 0 Z " fill="#6E685B" transform="translate(77,15)" />
<path d="M0 0 C0.28875 0.1134375 0.28875 0.1134375 1.75 0.6875 C1.42 1.0175 1.09 1.3475 0.75 1.6875 C2.4 2.0175 4.05 2.3475 5.75 2.6875 C5.42 3.3475 5.09 4.0075 4.75 4.6875 C2.77 4.6875 0.79 4.6875 -1.25 4.6875 C-1.25 4.0275 -1.25 3.3675 -1.25 2.6875 C-2.9 2.6875 -4.55 2.6875 -6.25 2.6875 C-2.80384615 -0.38942308 -2.80384615 -0.38942308 0 0 Z " fill="#BFC8CE" transform="translate(43.25,66.3125)" />
<path d="M0 0 C0.33 1.32 0.66 2.64 1 4 C-1.31 4.66 -3.62 5.32 -6 6 C-6.33 5.01 -6.66 4.02 -7 3 C-2.25 0 -2.25 0 0 0 Z " fill="#7F8793" transform="translate(70,56)" />
<path d="M0 0 C-0.66 1.98 -1.32 3.96 -2 6 C-2.99 6 -3.98 6 -5 6 C-5.66 5.34 -6.32 4.68 -7 4 C-2.25 0 -2.25 0 0 0 Z " fill="#A4A9B2" transform="translate(28,27)" />
<path d="M0 0 C-2.85021875 2.32240046 -5.46355091 3.93906527 -9 5 C-11.15625 4.546875 -11.15625 4.546875 -13 4 C-11.40233897 3.13372601 -9.79660056 2.28233535 -8.1875 1.4375 C-7.29417969 0.96183594 -6.40085937 0.48617187 -5.48046875 -0.00390625 C-3 -1 -3 -1 0 0 Z " fill="#464844" transform="translate(74,71)" />
<path d="M0 0 C1.32 0.66 2.64 1.32 4 2 C3.625 3.9375 3.625 3.9375 3 6 C2.67 6.165 2.67 6.165 1 7 C0.01 6.34 -0.98 5.68 -2 5 C-1.34 3.35 -0.68 1.7 0 0 Z " fill="#9EA5B3" transform="translate(73,55)" />
<path d="M0 0 C0.495 0.33 0.495 0.33 3 2 C3.1875 5.125 3.1875 5.125 3 8 C2.01 8 1.02 8 0 8 C-1.125 2.25 -1.125 2.25 0 0 Z " fill="#626774" transform="translate(52,29)" />
<path d="M0 0 C0.33 1.32 0.66 2.64 1 4 C-0.21484375 5.921875 -0.21484375 5.921875 -1.9375 7.75 C-2.50339844 8.36359375 -3.06929688 8.9771875 -3.65234375 9.609375 C-3.87470703 9.83882812 -3.87470703 9.83882812 -5 11 C-5.66 10.67 -6.32 10.34 -7 10 C-4.69 6.7 -2.38 3.4 0 0 Z " fill="#676656" transform="translate(81,60)" />
<path d="M0 0 C0.33 0.66 0.66 1.32 1 2 C2.64363134 2.72159424 4.31050386 3.39351421 6 4 C6 4.99 6 5.98 6 7 C3.36 6.67 0.72 6.34 -2 6 C-0.68 5.67 0.64 5.34 2 5 C2 4.34 2 3.68 2 3 C1.34 3 0.68 3 0 3 C0 2.01 0 1.02 0 0 Z " fill="#828B95" transform="translate(44,50)" />
<path d="M0 0 C2.31 0.66 4.62 1.32 7 2 C6.67 2.66 6.34 3.32 6 4 C-2.57142857 4.28571429 -2.57142857 4.28571429 -6 2 C-4.02 1.67 -2.04 1.34 0 1 C0 0.67 0 0.34 0 0 Z " fill="#A4ADB9" transform="translate(64,35)" />
<path d="M0 0 C0.66 0 1.32 0 2 0 C1.4375 2.3125 1.4375 2.3125 0 5 C-2.27962623 6.34776978 -4.48087772 7.11364216 -7 8 C-5.60746468 4.51866169 -4.36823784 3.52113967 -1 2 C-0.67 1.34 -0.34 0.68 0 0 Z " fill="#494A46" transform="translate(59,20)" />
<path d="M0 0 C0.33 0.66 0.66 1.32 1 2 C2.65 2 4.3 2 6 2 C5.67 3.65 5.34 5.3 5 7 C3 6 1 5 -1 4 C-0.67 2.68 -0.34 1.36 0 0 Z " fill="#62625A" transform="translate(48,22)" />
<path d="M0 0 C0.33 0.99 0.66 1.98 1 3 C1.66 3 2.32 3 3 3 C3 3.66 3 4.32 3 5 C1.02 5 -0.96 5 -3 5 C-3 3.68 -3 2.36 -3 1 C-2.01 0.67 -1.02 0.34 0 0 Z " fill="#AEB3BE" transform="translate(43,50)" />
<path d="M0 0 C3.6413205 -0.33102914 5.41472925 -0.42019439 8.4375 1.75 C10 4 10 4 9.75 6.25 C9.5025 6.8275 9.255 7.405 9 8 C8.34 6.35 7.68 4.7 7 3 C6.34 3 5.68 3 5 3 C5 2.34 5 1.68 5 1 C3.35 1 1.7 1 0 1 C0 0.67 0 0.34 0 0 Z " fill="#444C5C" transform="translate(61,43)" />
<path d="M0 0 C0.33 0 0.66 0 1 0 C1.0270043 1.45823212 1.04639787 2.91660675 1.0625 4.375 C1.07410156 5.18710937 1.08570312 5.99921875 1.09765625 6.8359375 C1 9 1 9 0 11 C-0.66 11 -1.32 11 -2 11 C-2.33 10.01 -2.66 9.02 -3 8 C-2.34 7.01 -1.68 6.02 -1 5 C-0.61500109 3.34450469 -0.27206865 1.6777567 0 0 Z " fill="#6B737F" transform="translate(72,47)" />
<path d="M0 0 C0.66 0.66 1.32 1.32 2 2 C1.525625 2.78375 1.05125 3.5675 0.5625 4.375 C-0.33898023 5.88948678 -1.21179485 7.4235897 -2 9 C-2.99 8.34 -3.98 7.68 -5 7 C-5 5 -5 5 -2.5 2.375 C-1.675 1.59125 -0.85 0.8075 0 0 Z " fill="#3E444C" transform="translate(77,31)" />
<path d="M0 0 C0.78375 0.2475 1.5675 0.495 2.375 0.75 C2.705 1.41 3.035 2.07 3.375 2.75 C2.715 3.08 2.715 3.08 -0.625 4.75 C-0.625 4.09 -0.625 3.43 -0.625 2.75 C-2.275 2.42 -3.925 2.09 -5.625 1.75 C-2.625 -0.25 -2.625 -0.25 0 0 Z " fill="#626A78" transform="translate(40.625,28.25)" />
<path d="M0 0 C-0.60183749 2.02045442 -1.27306096 4.02111039 -2 6 C-2.33 6.165 -2.33 6.165 -4 7 C-4.33 5.02 -4.66 3.04 -5 1 C-3 0 -3 0 0 0 Z " fill="#636662" transform="translate(72,24)" />
<path d="M0 0 C0.53625 0.226875 1.0725 0.45375 1.625 0.6875 C-1.375 2.6875 -1.375 2.6875 -4.375 2.6875 C-4.705 3.3475 -5.035 4.0075 -5.375 4.6875 C-6.365 4.0275 -7.355 3.3675 -8.375 2.6875 C-2.95961538 -0.38942308 -2.95961538 -0.38942308 0 0 Z " fill="#575F6B" transform="translate(53.375,41.3125)" />
<path d="M0 0 C2 2 2 2 2 6 C0.35 6.33 -1.3 6.66 -3 7 C-1.125 1.125 -1.125 1.125 0 0 Z " fill="#6B737F" transform="translate(46,37)" />
<path d="M0 0 C0.33 0 0.66 0 1 0 C1.33 2.64 1.66 5.28 2 8 C1.01 7.67 0.02 7.34 -1 7 C-1.33 5.35 -1.66 3.7 -2 2 C-1.34 2 -0.68 2 0 2 C0 1.34 0 0.68 0 0 Z " fill="#CED6DC" transform="translate(25,54)" />
<path d="M0 0 C2.0625 0.4375 2.0625 0.4375 4 1 C4 2.65 4 4.3 4 6 C3.01 6 2.02 6 1 6 C0.34 4.35 -0.32 2.7 -1 1 C-0.67 0.67 -0.34 0.34 0 0 Z " fill="#9298A8" transform="translate(74,25)" />
<path d="M0 0 C0.99 0.33 1.98 0.66 3 1 C2.67 1.99 2.34 2.98 2 4 C0.02 4.33 -1.96 4.66 -4 5 C-4 4.34 -4 3.68 -4 3 C-3.01 3 -2.02 3 -1 3 C-0.67 2.01 -0.34 1.02 0 0 Z " fill="#444D61" transform="translate(65,67)" />
<path d="M0 0 C0 0.66 0 1.32 0 2 C1.65 2 3.3 2 5 2 C5 2.33 5 2.66 5 3 C1.7 3 -1.6 3 -5 3 C-5 2.34 -5 1.68 -5 1 C-2 0 -2 0 0 0 Z " fill="#7A828D" transform="translate(56,58)" />
</svg>