<?xml version='1.0' encoding='utf-8'?>
<svg xmlns="http://www.w3.org/2000/svg" version="1.1" width="105" height="104">
<path d="M0 0 C1.29093872 4.32660067 0.69546656 6.44984809 -1.3125 10.4375 C-3.16488803 14.24518651 -4.78971918 17.92905543 -6 22 C-6.33 22 -6.66 22 -7 22 C-7.34035816 16.4904523 -6.31361461 12.48674732 -4 7.5625 C-3.85691406 7.24442383 -3.85691406 7.24442383 -3.1328125 5.63476562 C-2.43347155 4.08455985 -1.71836143 2.54148389 -1 1 C-1.66 1 -2.32 1 -3 1 C-3.268125 1.53625 -3.53625 2.0725 -3.8125 2.625 C-4.68774798 4.37549596 -5.61204143 6.10167457 -6.5625 7.8125 C-8.1156826 11.2565136 -8.62572052 14.25720519 -9 18 C-9.66 18 -10.32 18 -11 18 C-11.75 20.625 -11.75 20.625 -12 24 C-10.0625 27.1875 -10.0625 27.1875 -8 30 C-8 30.99 -8 31.98 -8 33 C-7.34 32.67 -6.68 32.34 -6 32 C-5.835 31.505 -5.835 31.505 -5 29 C-4.34 29 -3.68 29 -3 29 C-2.835 28.505 -2.835 28.505 -2 26 C0.31 26 2.62 26 5 26 C5.33692785 27.60341555 5.66941093 29.20776555 6 30.8125 C6.185625 31.70582031 6.37125 32.59914062 6.5625 33.51953125 C7 36 7 36 7 39 C7.825 39.0825 8.65 39.165 9.5 39.25 C13.76753921 40.16447269 17.19236894 41.92223178 21 44 C21 44.99 21 45.98 21 47 C19.54462432 47.83848804 18.08559627 48.67063934 16.625 49.5 C15.81289062 49.9640625 15.00078125 50.428125 14.1640625 50.90625 C12 52 12 52 10 52 C10.02320313 52.88042969 10.04640625 53.76085937 10.0703125 54.66796875 C10.08835938 55.82941406 10.10640625 56.99085937 10.125 58.1875 C10.14820313 59.33605469 10.17140625 60.48460937 10.1953125 61.66796875 C10.00484152 64.91740372 9.39360127 67.08660521 8 70 C3.78586039 69.07288929 1.08133979 68.31457513 -2.0625 65.3125 C-5 63 -5 63 -7.6875 63.1875 C-8.780625 63.455625 -9.87375 63.72375 -11 64 C-14.66793439 64.11161073 -18.33116051 64.05875366 -22 64 C-22.25026288 57.61829653 -22.25026288 57.61829653 -20.9375 54.375 C-19.74811256 51.36188515 -20.04720685 50.07825479 -21 47 C-21.53625 45.845 -22.0725 44.69 -22.625 43.5 C-24.08267198 39.78956223 -23.95015201 38.6992585 -23 35 C-23.31324219 35.32484375 -23.31324219 35.32484375 -24.8984375 36.96875 C-25.30707031 37.38640625 -25.30707031 37.38640625 -27.375 39.5 C-28.18710937 40.3353125 -28.99921875 41.170625 -29.8359375 42.03125 C-32 44 -32 44 -34 44 C-34.45375 42.7625 -34.9075 41.525 -35.375 40.25 C-37.27756263 36.3414746 -39.0763974 35.17939836 -43.125 33.6875 C-43.99382813 33.42324219 -44.86265625 33.15898438 -45.7578125 32.88671875 C-48 32 -48 32 -50 29 C-49.85021143 26.00422867 -49.44499619 24.49839573 -47.4375 22.25 C-43.97186635 20.47275198 -40.874969 20.32291408 -37 20 C-37.66 19.67 -38.32 19.34 -39 19 C-39.09765625 12.84765625 -39.09765625 12.84765625 -39 11 C-38.67 10.67 -38.34 10.34 -38 10 C-36.00390625 10.05078125 -36.00390625 10.05078125 -33.5625 10.3125 C-33.16095703 10.35181641 -33.16095703 10.35181641 -31.12890625 10.55078125 C-29 11 -29 11 -27 13 C-23.375 12.625 -23.375 12.625 -20 12 C-20 11.34 -20 10.68 -20 10 C-18.515 9.835 -18.515 9.835 -11 9 C-10.731875 8.071875 -10.46375 7.14375 -10.1875 6.1875 C-8.0099613 0.34252771 -6.19672687 -0.41311512 0 0 Z " fill="#C79F18" transform="translate(67,18)" />
<path d="M0 0 C4.875 0.875 4.875 0.875 6 2 C6.07226502 3.85287502 6.0838122 5.70833878 6.0625 7.5625 C6.05347656 8.57441406 6.04445312 9.58632813 6.03515625 10.62890625 C6.02355469 11.41136719 6.01195312 12.19382812 6 13 C6.99 13 7.98 13 9 13 C12.99824405 17.59798066 14.81688113 21.79582528 16.32421875 27.66796875 C17 30 17 30 18.08203125 32.05078125 C19 34 19 34 19 38 C14.125 37.125 14.125 37.125 13 36 C12.67 37.65 12.34 39.3 12 41 C13.19625 41.2475 14.3925 41.495 15.625 41.75 C19.71392649 42.7885728 22.74949447 44.2251782 26 47 C27.0625 49.5 27.0625 49.5 27 52 C25.6875 54.3125 25.6875 54.3125 24 56 C23.34 56 22.68 56 22 56 C22 56.66 22 57.32 22 58 C19 60 19 60 16 60 C16.02320313 60.59167969 16.04640625 61.18335938 16.0703125 61.79296875 C16.17371429 66.32049003 16.17952152 69.89737126 14 74 C13 75 13 75 10.4375 75.4375 C6.68473024 74.95987476 5.81733912 74.27356622 3 71.9375 C-0.66419911 68.98539996 -0.66419911 68.98539996 -3.875 69.125 C-4.90625 69.41375 -5.9375 69.7025 -7 70 C-8.74835224 70.08660568 -10.49950404 70.125 -12.25 70.125 C-13.10078125 70.12757812 -13.9515625 70.13015625 -14.828125 70.1328125 C-17 70 -17 70 -19 69 C-19.20413361 63.26157749 -19.27141454 58.39460953 -17 53 C-17.45375 52.566875 -17.9075 52.13375 -18.375 51.6875 C-20 50 -20 50 -22 47 C-23.32 47.66 -24.64 48.32 -26 49 C-26 49.66 -26 50.32 -26 51 C-28.25 51 -28.25 51 -31 50 C-31.8359375 48.36328125 -31.8359375 48.36328125 -32.625 46.3125 C-34.84908356 41.12917555 -38.71338572 39.56107008 -43.63671875 37.2265625 C-46 36 -46 36 -47 34 C-45.32598903 34.64800425 -43.66194738 35.32165413 -42 36 C-41.26394531 36.268125 -40.52789062 36.53625 -39.76953125 36.8125 C-35.60570544 38.44270913 -33.46182373 39.30026707 -30.9375 43.125 C-30 46 -30 46 -30 48 C-29.46890625 47.52949219 -28.9378125 47.05898438 -28.390625 46.57421875 C-27.68421875 45.95160156 -26.9778125 45.32898437 -26.25 44.6875 C-25.55390625 44.07261719 -24.8578125 43.45773438 -24.140625 42.82421875 C-22.14885494 41.12685266 -20.11101085 39.54522191 -18 38 C-18.1134375 38.4228125 -18.1134375 38.4228125 -18.6875 40.5625 C-19.07792415 44.85716567 -17.82406396 47.14140315 -16 51 C-14.70192121 55.19379301 -15.29902496 57.03105825 -17 61 C-17.3813074 63.32597511 -17.72460254 65.65912158 -18 68 C-16.29141784 67.85711146 -14.5831436 67.71053911 -12.875 67.5625 C-11.86566406 67.48 -10.85632812 67.3975 -9.81640625 67.3125 C-7 67 -7 67 -3.8125 66.0625 C0.22492502 65.97277944 2.09273459 67.98368649 5.0703125 70.5546875 C7.08252644 72.0618113 8.54622328 72.5746787 11 73 C13.20742943 69.45945632 13.10525118 66.6713637 13.0625 62.5625 C13.39788363 56.59267141 13.39788363 56.59267141 15.9921875 54.0390625 C18.95490438 52.4015225 21.57078663 51 25 51 C25 50.01 25 49.02 25 48 C20.41322912 46.07651544 15.72278816 44.55076626 11 43 C10.67 40.855 10.67 40.855 9 30 C6.6568787 30.25561323 4.32156597 30.59270772 2 31 C1.67 31.66 1.34 32.32 1 33 C0.34 33 -0.32 33 -1 33 C-1.061875 33.309375 -1.061875 33.309375 -1.375 34.875 C-2 37 -2 37 -4 39 C-4.99 38.67 -5.98 38.34 -7 38 C-6.01 37.67 -5.02 37.34 -4 37 C-4.45375 36.113125 -4.9075 35.22625 -5.375 34.3125 C-5.91125 33.219375 -6.4475 32.12625 -7 31 C-7.433125 30.13375 -7.86625 29.2675 -8.3125 28.375 C-9 26 -9 26 -8.125 23.6875 C-7.75375 23.130625 -7.3825 22.57375 -7 22 C-6.34 22 -5.68 22 -5 22 C-5 19.36 -5 16.72 -5 14 C-4.34 14 -3.68 14 -3 14 C-2.896875 13.2575 -2.79375 12.515 -2.6875 11.75 C-1.95066203 8.8026481 -1.05200858 7.21616926 1 5 C1.66 5 2.32 5 3 5 C0.24186704 13.43988685 0.24186704 13.43988685 -1.1875 16.75 C-2.10838903 19.30015424 -2.05792495 21.30871768 -2 24 C-1.73445313 23.33613281 -1.46890625 22.67226563 -1.1953125 21.98828125 C2 14 2 14 3.15625 11.34375 C4.17851703 8.50411935 3.81755889 6.86145611 3 4 C2.175 3.835 2.175 3.835 -2 3 C-1.34 2.01 -0.68 1.02 0 0 Z " fill="#6E5008" transform="translate(63,14)" />
<path d="M0 0 C0 0.66 0 1.32 0 2 C1.32 2.33 2.64 2.66 4 3 C4.33 4.32 4.66 5.64 5 7 C5.886875 6.690625 6.77375 6.38125 7.6875 6.0625 C10.46709155 5.1709329 13.13136375 4.50622993 16 4 C15.34 5.32 14.68 6.64 14 8 C13.34 8 12.68 8 12 8 C12 9.32 12 10.64 12 12 C12.99 12.165 12.99 12.165 18 13 C18.165 13.66 18.165 13.66 19 17 C17.02 17 15.04 17 13 17 C13 17.66 13 18.32 13 19 C16.3 19 19.6 19 23 19 C22.835 19.495 22.835 19.495 22 22 C18.37 22 14.74 22 11 22 C10.67 23.32 10.34 24.64 10 26 C8.44140625 27.921875 8.44140625 27.921875 6.5625 29.75 C5.94503906 30.36359375 5.32757813 30.9771875 4.69140625 31.609375 C3 33 3 33 1 33 C0.773125 32.38125 0.773125 32.38125 -0.375 29.25 C-2.27756263 25.3414746 -4.0763974 24.17939836 -8.125 22.6875 C-8.99382813 22.42324219 -9.86265625 22.15898438 -10.7578125 21.88671875 C-13 21 -13 21 -15 18 C-14.85021143 15.00422867 -14.44499619 13.49839573 -12.4375 11.25 C-8.97186635 9.47275198 -5.874969 9.32291408 -2 9 C-2.66 8.67 -3.32 8.34 -4 8 C-4 5.69 -4 3.38 -4 1 C-2 0 -2 0 0 0 Z " fill="#BBA640" transform="translate(32,29)" />
<path d="M0 0 C1.29093872 4.32660067 0.69546656 6.44984809 -1.3125 10.4375 C-3.16488803 14.24518651 -4.78971918 17.92905543 -6 22 C-6.33 22 -6.66 22 -7 22 C-7.34035816 16.4904523 -6.31361461 12.48674732 -4 7.5625 C-3.85691406 7.24442383 -3.85691406 7.24442383 -3.1328125 5.63476562 C-2.43347155 4.08455985 -1.71836143 2.54148389 -1 1 C-1.66 1 -2.32 1 -3 1 C-3.268125 1.53625 -3.53625 2.0725 -3.8125 2.625 C-4.68774798 4.37549596 -5.61204143 6.10167457 -6.5625 7.8125 C-8.1156826 11.2565136 -8.62572052 14.25720519 -9 18 C-9.66 18 -10.32 18 -11 18 C-11.75 20.625 -11.75 20.625 -12 24 C-10.0625 27.1875 -10.0625 27.1875 -8 30 C-8 30.99 -8 31.98 -8 33 C-8.33 33.165 -8.33 33.165 -10 34 C-9.525625 34.4125 -9.05125 34.825 -8.5625 35.25 C-6.83733482 37.182185 -6.43415125 38.48192275 -6 41 C-8.16874252 40.49396008 -9.99967627 40.00016187 -12 39 C-12 38.34 -12 37.68 -12 37 C-12.69867188 36.93941406 -13.39734375 36.87882812 -14.1171875 36.81640625 C-15.02726562 36.73261719 -15.93734375 36.64882813 -16.875 36.5625 C-17.77992187 36.48128906 -18.68484375 36.40007813 -19.6171875 36.31640625 C-22 36 -22 36 -24 35 C-24 34.34 -24 33.68 -24 33 C-23.21753906 32.95101562 -22.43507813 32.90203125 -21.62890625 32.8515625 C-20.61699219 32.77679688 -19.60507812 32.70203125 -18.5625 32.625 C-18.05783203 32.59019531 -18.05783203 32.59019531 -15.50390625 32.4140625 C-15.09076172 32.34574219 -15.09076172 32.34574219 -13 32 C-12.67 31.34 -12.34 30.68 -12 30 C-15.3 30 -18.6 30 -22 30 C-22 29.34 -22 28.68 -22 28 C-20.02 28 -18.04 28 -16 28 C-16.33 27.01 -16.66 26.02 -17 25 C-20.0625 23.8125 -20.0625 23.8125 -23 23 C-23 19 -23 19 -21 16.75 C-20.34 16.1725 -19.68 15.595 -19 15 C-23.875 16.875 -23.875 16.875 -25 18 C-26.66617115 18.04063832 -28.33388095 18.042721 -30 18 C-30.268125 17.360625 -30.53625 16.72125 -30.8125 16.0625 C-32 14 -32 14 -35 13 C-35 12.34 -35 11.68 -35 11 C-36.32 11.33 -37.64 11.66 -39 12 C-38.67 11.34 -38.34 10.68 -38 10 C-36.54077307 10.11409593 -35.08259402 10.24165544 -33.625 10.375 C-32.81289063 10.44460937 -32.00078125 10.51421875 -31.1640625 10.5859375 C-29 11 -29 11 -27 13 C-23.375 12.625 -23.375 12.625 -20 12 C-20 11.34 -20 10.68 -20 10 C-18.515 9.835 -18.515 9.835 -11 9 C-10.731875 8.071875 -10.46375 7.14375 -10.1875 6.1875 C-8.0099613 0.34252771 -6.19672687 -0.41311512 0 0 Z " fill="#B79D33" transform="translate(67,18)" />
<path d="M0 0 C2.31 0 4.62 0 7 0 C7.33 1.98 7.66 3.96 8 6 C6.68 6 5.36 6 4 6 C3.855625 7.11375 3.71125 8.2275 3.5625 9.375 C3 13 3 13 2 15 C2.66 15 3.32 15 4 15 C4 15.66 4 16.32 4 17 C4.66 16.67 5.32 16.34 6 16 C12.53333333 15.76666667 12.53333333 15.76666667 15 17 C15 17.99 15 18.98 15 20 C11.50615721 21.16461426 8.66344611 21.13568319 5 21 C4.67 20.67 4.34 20.34 4 20 C4.42546713 22.46770934 4.68695262 23.71199641 6.5625 25.4375 C8 27 8 27 8.1875 29.6875 C8.1565625 30.0690625 8.1565625 30.0690625 8 32 C7.34 32.165 7.34 32.165 4 33 C1.49701566 30.06171403 0.53069061 27.82097239 0 24 C-0.3815625 23.9690625 -0.3815625 23.9690625 -2.3125 23.8125 C-5 23 -5 23 -6.4375 20.5625 C-8.48111231 17.2109758 -10.37468484 17.18216799 -14 16 C-14.875 13.875 -14.875 13.875 -15 12 C-10.94393835 12.46800711 -7.53411321 12.87953208 -4 15 C-4.350625 14.4225 -4.70125 13.845 -5.0625 13.25 C-6.18284138 10.5611807 -6.0063441 9.68358428 -5 7 C-4.36345658 5.6520257 -3.70394612 4.31403276 -3 3 C-2.34 3 -1.68 3 -1 3 C-0.67 2.01 -0.34 1.02 0 0 Z " fill="#DAC357" transform="translate(65,44)" />
<path d="M0 0 C0.55107422 0.00580078 0.55107422 0.00580078 3.33984375 0.03515625 C3.89220703 0.03966797 3.89220703 0.03966797 6.6875 0.0625 C7.54214844 0.07410156 8.39679687 0.08570313 9.27734375 0.09765625 C8.94734375 0.59265625 8.94734375 0.59265625 7.27734375 3.09765625 C5.95734375 2.76765625 4.63734375 2.43765625 3.27734375 2.09765625 C3.60734375 3.41765625 3.93734375 4.73765625 4.27734375 6.09765625 C5.37046875 6.32453125 6.46359375 6.55140625 7.58984375 6.78515625 C11.84845953 8.30093475 12.25995796 9.25501665 14.27734375 13.09765625 C16.46484375 14.41015625 16.46484375 14.41015625 18.27734375 15.09765625 C17.81328125 15.24203125 17.81328125 15.24203125 15.46484375 15.97265625 C12.27734375 17.09765625 12.27734375 17.09765625 9.27734375 19.09765625 C10.59734375 19.42765625 11.91734375 19.75765625 13.27734375 20.09765625 C13.15234375 21.97265625 13.15234375 21.97265625 12.27734375 24.09765625 C7.59804279 26.38024209 3.3590894 26.27288886 -1.72265625 26.09765625 C-1.65046875 25.49953125 -1.65046875 25.49953125 -1.28515625 22.47265625 C-1.24197266 22.10785156 -1.24197266 22.10785156 -1.0234375 20.26171875 C-0.72265625 18.09765625 -0.72265625 18.09765625 0.02734375 14.84765625 C0.34492953 11.35421264 -0.6103457 10.77866579 -2.72265625 8.09765625 C-3.47265625 4.41015625 -3.47265625 4.41015625 -3.72265625 1.09765625 C-2.72265625 0.09765625 -2.72265625 0.09765625 0 0 Z " fill="#E9CA42" transform="translate(46.72265625,53.90234375)" />
<path d="M0 0 C0 0.66 0 1.32 0 2 C1.32 2.33 2.64 2.66 4 3 C4.33 4.32 4.66 5.64 5 7 C5.886875 6.690625 6.77375 6.38125 7.6875 6.0625 C10.46709155 5.1709329 13.13136375 4.50622993 16 4 C15.34 5.32 14.68 6.64 14 8 C13.34 8 12.68 8 12 8 C12 9.32 12 10.64 12 12 C12.99 12.165 12.99 12.165 18 13 C18.33 14.32 18.66 15.64 19 17 C12.6 18.23076923 12.6 18.23076923 9.5625 17.0625 C9.3046875 16.8871875 9.3046875 16.8871875 8 16 C7.67 17.98 7.34 19.96 7 22 C5.35 22.33 3.7 22.66 2 23 C2.185625 21.865625 2.37125 20.73125 2.5625 19.5625 C2.706875 18.386875 2.85125 17.21125 3 16 C1.33657163 14.33657163 -0.7825709 14.63951903 -3.0625 14.4375 C-3.98160156 14.35371094 -4.90070312 14.26992188 -5.84765625 14.18359375 C-6.55792969 14.12300781 -7.26820312 14.06242187 -8 14 C-7.67 13.01 -7.34 12.02 -7 11 C-4.4375 9.8125 -4.4375 9.8125 -2 9 C-2.66 8.67 -3.32 8.34 -4 8 C-4 5.69 -4 3.38 -4 1 C-2 0 -2 0 0 0 Z " fill="#D3C280" transform="translate(32,29)" />
<path d="M0 0 C1.32 0.33 2.64 0.66 4 1 C4 1.99 4 2.98 4 4 C-2.75 8 -2.75 8 -5 8 C-4.97679688 8.88042969 -4.95359375 9.76085937 -4.9296875 10.66796875 C-4.92066406 11.24869141 -4.92066406 11.24869141 -4.875 14.1875 C-4.85179688 15.33605469 -4.82859375 16.48460938 -4.8046875 17.66796875 C-4.99515848 20.91740372 -5.60639873 23.08660521 -7 26 C-12.71857168 24.83294456 -17.45929933 22.86432708 -21 18 C-21.0625 14.25 -21.0625 14.25 -20 11 C-19.34 10.34 -18.68 9.68 -18 9 C-16 12 -16 12 -16 15 C-13.36 15.33 -10.72 15.66 -8 16 C-8.33 12.7 -8.66 9.4 -9 6 C-9.66 6 -10.32 6 -11 6 C-11 5.34 -11 4.68 -11 4 C-10.37351562 3.96261719 -9.74703125 3.92523438 -9.1015625 3.88671875 C-8.28429687 3.82097656 -7.46703125 3.75523438 -6.625 3.6875 C-5.81289062 3.62949219 -5.00078125 3.57148437 -4.1640625 3.51171875 C-2 3 -2 3 0 0 Z " fill="#E2BA1C" transform="translate(82,62)" />
<path d="M0 0 C1.67401097 0.64800425 3.33805262 1.32165413 5 2 C5.73605469 2.268125 6.47210938 2.53625 7.23046875 2.8125 C11.39429456 4.44270913 13.53817627 5.30026707 16.0625 9.125 C17 12 17 12 17 14 C17.53109375 13.52949219 18.0621875 13.05898438 18.609375 12.57421875 C19.31578125 11.95160156 20.0221875 11.32898437 20.75 10.6875 C21.09804688 10.38005859 21.09804688 10.38005859 22.859375 8.82421875 C24.85114506 7.12685266 26.88898915 5.54522191 29 4 C28.773125 4.845625 28.54625 5.69125 28.3125 6.5625 C27.92207585 10.85716567 29.17593604 13.14140315 31 17 C32.29807879 21.19379301 31.70097504 23.03105825 30 27 C29.6186926 29.32597511 29.27539746 31.65912158 29 34 C30.70858216 33.85711146 32.4168564 33.71053911 34.125 33.5625 C35.13433594 33.48 36.14367188 33.3975 37.18359375 33.3125 C40 33 40 33 43.1875 32.0625 C47.22492502 31.97277944 49.09273459 33.98368649 52.0703125 36.5546875 C54.1165096 38.08726427 55.4688151 38.71354903 58 39 C60.25 37.5625 60.25 37.5625 62 36 C61.125 39.875 61.125 39.875 60 41 C56.78109247 41.54956958 54.75307676 41.52700402 52.03515625 39.625 C51.36355469 39.068125 50.69195312 38.51125 50 37.9375 C46.33580089 34.98539996 46.33580089 34.98539996 43.125 35.125 C42.609375 35.269375 42.609375 35.269375 40 36 C38.25164776 36.08660568 36.50049596 36.125 34.75 36.125 C33.89921875 36.12757812 33.0484375 36.13015625 32.171875 36.1328125 C30 36 30 36 28 35 C27.79586639 29.26157749 27.72858546 24.39460953 30 19 C29.773125 18.7834375 29.773125 18.7834375 28.625 17.6875 C27 16 27 16 25 13 C24.34 13.33 24.34 13.33 21 15 C21 15.66 21 16.32 21 17 C18.75 17 18.75 17 16 16 C15.1640625 14.36328125 15.1640625 14.36328125 14.375 12.3125 C12.15091644 7.12917555 8.28661428 5.56107008 3.36328125 3.2265625 C1 2 1 2 0 0 Z " fill="#6C4D0D" transform="translate(16,48)" />
<path d="M0 0 C4.875 0.875 4.875 0.875 6 2 C6.07226502 3.85287502 6.0838122 5.70833878 6.0625 7.5625 C6.05347656 8.57441406 6.04445313 9.58632813 6.03515625 10.62890625 C6.02355469 11.41136719 6.01195313 12.19382812 6 13 C6.99 13 7.98 13 9 13 C9.33 13.99 9.66 14.98 10 16 C8.02 16 6.04 16 4 16 C3.71125 17.0725 3.4225 18.145 3.125 19.25 C2.27179891 22.09400364 1.4363497 24.43508983 0 27 C-4 27 -4 27 -6 26 C-5.67 27.65 -5.34 29.3 -5 31 C-3.35 31 -1.7 31 0 31 C-1.75 36.75 -1.75 36.75 -4 39 C-4.99 38.67 -5.98 38.34 -7 38 C-6.505 37.835 -6.505 37.835 -4 37 C-4.45375 36.113125 -4.9075 35.22625 -5.375 34.3125 C-5.91125 33.219375 -6.4475 32.12625 -7 31 C-7.2165625 30.566875 -7.2165625 30.566875 -8.3125 28.375 C-9 26 -9 26 -8.125 23.6875 C-7.75375 23.130625 -7.3825 22.57375 -7 22 C-6.34 22 -5.68 22 -5 22 C-5 19.36 -5 16.72 -5 14 C-4.34 14 -3.68 14 -3 14 C-2.9484375 13.62875 -2.9484375 13.62875 -2.6875 11.75 C-1.95066203 8.8026481 -1.05200858 7.21616926 1 5 C1.66 5 2.32 5 3 5 C0.24186704 13.43988685 0.24186704 13.43988685 -1.1875 16.75 C-2.10838903 19.30015424 -2.05792495 21.30871768 -2 24 C-1.73445313 23.33613281 -1.46890625 22.67226563 -1.1953125 21.98828125 C2 14 2 14 3.15625 11.34375 C4.17851703 8.50411935 3.81755889 6.86145611 3 4 C1.35 3.67 -0.3 3.34 -2 3 C-1.34 2.01 -0.68 1.02 0 0 Z " fill="#6B4C09" transform="translate(63,14)" />
<path d="M0 0 C1.29093872 4.32660067 0.69546656 6.44984809 -1.3125 10.4375 C-3.16488803 14.24518651 -4.78971918 17.92905543 -6 22 C-6.33 22 -6.66 22 -7 22 C-7.34035816 16.4904523 -6.31361461 12.48674732 -4 7.5625 C-3.71382812 6.92634766 -3.42765625 6.29019531 -3.1328125 5.63476562 C-2.43347155 4.08455985 -1.71836143 2.54148389 -1 1 C-1.66 1 -2.32 1 -3 1 C-4.52299523 3.93720508 -5.80100302 6.9168649 -7 10 C-7.66 10 -8.32 10 -9 10 C-9.33 11.65 -9.66 13.3 -10 15 C-10.66 15 -11.32 15 -12 15 C-12 15.66 -12 16.32 -12 17 C-12.66 17 -13.32 17 -14 17 C-15.7143618 15.04072937 -17.38405168 13.04119788 -19 11 C-18.01 11 -17.02 11 -16 11 C-16 10.34 -16 9.68 -16 9 C-14.35 9 -12.7 9 -11 9 C-10.731875 8.071875 -10.46375 7.14375 -10.1875 6.1875 C-8.0099613 0.34252771 -6.19672687 -0.41311512 0 0 Z " fill="#D1B949" transform="translate(67,18)" />
<path d="M0 0 C4.29 0.66 8.58 1.32 13 2 C12.67 2.99 12.34 3.98 12 5 C8.37 5 4.74 5 1 5 C0.67 6.32 0.34 7.64 0 9 C-1.55859375 10.921875 -1.55859375 10.921875 -3.4375 12.75 C-4.05496094 13.36359375 -4.67242187 13.9771875 -5.30859375 14.609375 C-7 16 -7 16 -9 16 C-11.21854707 11.37802694 -12.38281159 8.23175837 -12 3 C-11.34 3 -10.68 3 -10 3 C-9.67 4.65 -9.34 6.3 -9 8 C-6.1875 7.375 -6.1875 7.375 -3 6 C-1.125 2.875 -1.125 2.875 0 0 Z " fill="#ECC835" transform="translate(42,46)" />
<path d="M0 0 C5.49152542 0.61016949 5.49152542 0.61016949 7.875 2.4375 C9 4 9 4 9 6 C11.31 6.33 13.62 6.66 16 7 C16.33 8.65 16.66 10.3 17 12 C17.61875 12.12375 18.2375 12.2475 18.875 12.375 C21 13 21 13 23 15 C23.125 17.625 23.125 17.625 23 20 C21.68 20.33 20.36 20.66 19 21 C16.49701566 18.06171403 15.53069061 15.82097239 15 12 C14.236875 11.938125 13.47375 11.87625 12.6875 11.8125 C10 11 10 11 8.5625 8.5625 C6.51888769 5.2109758 4.62531516 5.18216799 1 4 C0.125 1.875 0.125 1.875 0 0 Z " fill="#E0DAB3" transform="translate(50,56)" />
<path d="M0 0 C0.33 0.99 0.66 1.98 1 3 C1.886875 2.690625 2.77375 2.38125 3.6875 2.0625 C6.46709155 1.1709329 9.13136375 0.50622993 12 0 C11.34 1.32 10.68 2.64 10 4 C9.34 4 8.68 4 8 4 C8 5.32 8 6.64 8 8 C8.99 8.165 8.99 8.165 14 9 C14.33 10.32 14.66 11.64 15 13 C8.6 14.23076923 8.6 14.23076923 5.5625 13.0625 C5.046875 12.711875 4.53125 12.36125 4 12 C3.87625 12.969375 3.7525 13.93875 3.625 14.9375 C3.41875 15.948125 3.2125 16.95875 3 18 C2.34 18.33 1.68 18.66 1 19 C1 16.36 1 13.72 1 11 C1.99 11 2.98 11 4 11 C4 8.69 4 6.38 4 4 C2.35 4 0.7 4 -1 4 C-0.67 2.68 -0.34 1.36 0 0 Z " fill="#C0B98B" transform="translate(36,33)" />
<path d="M0 0 C0.70125 0.185625 1.4025 0.37125 2.125 0.5625 C5.33888698 1.05156976 7.83560336 0.66231558 11 0 C11 0.66 11 1.32 11 2 C11.66 2 12.32 2 13 2 C13 2.66 13 3.32 13 4 C13.66 3.67 14.32 3.34 15 3 C21.53333333 2.76666667 21.53333333 2.76666667 24 4 C24 4.99 24 5.98 24 7 C20.50615721 8.16461426 17.66344611 8.13568319 14 8 C13.67 7.67 13.34 7.34 13 7 C12.67 8.65 12.34 10.3 12 12 C11.34 11.67 10.68 11.34 10 11 C10 9.35 10 7.7 10 6 C7.69 5.67 5.38 5.34 3 5 C3 4.34 3 3.68 3 3 C2.01 2.67 1.02 2.34 0 2 C0 1.34 0 0.68 0 0 Z " fill="#C3C08F" transform="translate(56,57)" />
<path d="M0 0 C0.66 0 1.32 0 2 0 C3.60725635 3.21451269 3.05748185 6.43612536 3 10 C0.6875 10.625 0.6875 10.625 -2 11 C-5.32901247 8.78065836 -5.75023244 7.65316671 -7 4 C-9 7 -9 7 -9.3125 9.5625 C-9.539375 10.366875 -9.76625 11.17125 -10 12 C-13.67096765 13.92758695 -16.70927522 14.22387289 -20.8125 14.125 C-21.30041016 14.11597656 -21.30041016 14.11597656 -23.76953125 14.0703125 C-24.50558594 14.04710938 -25.24164063 14.02390625 -26 14 C-26 13.34 -26 12.68 -26 12 C-25.24074219 11.86722656 -24.48148438 11.73445313 -23.69921875 11.59765625 C-22.70535156 11.42105469 -21.71148437 11.24445313 -20.6875 11.0625 C-19.70136719 10.88847656 -18.71523438 10.71445313 -17.69921875 10.53515625 C-15 10 -15 10 -12 9 C-11.67 8.01 -11.34 7.02 -11 6 C-12.65 6 -14.3 6 -16 6 C-11.69230769 1.07692308 -11.69230769 1.07692308 -8.1875 0.6875 C-7.465625 0.790625 -6.74375 0.89375 -6 1 C-4.68 3.31 -3.36 5.62 -2 8 C-1.01 8 -0.02 8 1 8 C1.08226668 4.95613276 0.97608217 2.92824652 0 0 Z " fill="#BA9F23" transform="translate(71,68)" />
<path d="M0 0 C2.8125 0.125 2.8125 0.125 6 1 C9.93730688 6.68722105 11.36972482 14.32509975 13 21 C12.34 21 11.68 21 11 21 C8.37253305 16.08944283 6.35916794 11.43667175 5 6 C4.79375 5.195625 4.5875 4.39125 4.375 3.5625 C4.25125 3.046875 4.1275 2.53125 4 2 C3.34 2 2.68 2 2 2 C2.33 5.63 2.66 9.26 3 13 C2.01 13 1.02 13 0 13 C-0.39036513 11.39950296 -0.76178619 9.79437629 -1.125 8.1875 C-1.33382812 7.29417969 -1.54265625 6.40085937 -1.7578125 5.48046875 C-2 3 -2 3 0 0 Z " fill="#CCAC35" transform="translate(67,29)" />
<path d="M0 0 C3.96 0 7.92 0 12 0 C11.67 0.495 11.67 0.495 10 3 C8.68 2.67 7.36 2.34 6 2 C6.33 3.32 6.66 4.64 7 6 C8.093125 6.226875 9.18625 6.45375 10.3125 6.6875 C14.57111578 8.2032785 14.98261421 9.1573604 17 13 C19.1875 14.3125 19.1875 14.3125 21 15 C20.05125 15.309375 19.1025 15.61875 18.125 15.9375 C15 17 15 17 13 18 C13 16.35 13 14.7 13 13 C12.34 13 11.68 13 11 13 C11.33 11.68 11.66 10.36 12 9 C11.236875 8.87625 10.47375 8.7525 9.6875 8.625 C7 8 7 8 4 6 C3.8125 3.375 3.8125 3.375 4 1 C2.68 0.67 1.36 0.34 0 0 Z " fill="#D5B340" transform="translate(44,54)" />
<path d="M0 0 C1 2 1 2 0.5390625 3.91015625 C-0.45510321 6.25111909 -1.33942958 8.06266785 -3 10 C-6.02110536 10.99146241 -8.83672493 11.10814616 -12 11 C-12 11.66 -12 12.32 -12 13 C-14.17556199 14.32087692 -15.43100487 15.07112439 -18 14.75 C-20 14 -20 14 -21.875 12.9375 C-24.65689456 11.71019357 -26.99463406 11.86339246 -30 12 C-30.66 14.64 -31.32 17.28 -32 20 C-32.33 20 -32.66 20 -33 20 C-33.125 13.375 -33.125 13.375 -32 10 C-28.94306678 8.47153339 -26.37015453 8.76757555 -23 9 C-21.65724831 9.98731742 -20.32267727 10.98594743 -19 12 C-14.67416072 11.76617085 -10.91677123 9.74078721 -7 8 C-6.01 7.67 -5.02 7.34 -4 7 C-2.9349985 5.03384339 -1.93166826 3.03273074 -1 1 C-0.67 0.67 -0.34 0.34 0 0 Z " fill="#674E10" transform="translate(59,17)" />
<path d="M0 0 C0.33 0 0.66 0 1 0 C1 1.98 1 3.96 1 6 C2.32 6.66 3.64 7.32 5 8 C4.32453125 8.04898438 3.6490625 8.09796875 2.953125 8.1484375 C2.50710937 8.18582031 2.50710937 8.18582031 0.25 8.375 C-0.19085937 8.40980469 -0.19085937 8.40980469 -2.421875 8.5859375 C-4.99066382 8.99850055 -6.75841015 9.71160957 -9 11 C-9 11.94875 -9 12.8975 -9 13.875 C-9 15.58333333 -9 17.29166667 -9 19 C-7.5 20.625 -7.5 20.625 -6 22 C-8.375 21.6875 -8.375 21.6875 -11 21 C-13.00293347 17.99559979 -13.49271626 16.29006055 -14.125 12.8125 C-14.29257813 11.91144531 -14.46015625 11.01039062 -14.6328125 10.08203125 C-14.75398437 9.39496094 -14.87515625 8.70789062 -15 8 C-13.96875 8.04125 -12.9375 8.0825 -11.875 8.125 C-8.12141188 8.00391651 -5.50641733 7.22316884 -2 6 C-1.34 6.33 -0.68 6.66 0 7 C0 4.69 0 2.38 0 0 Z " fill="#7A6B2B" transform="translate(27,31)" />
<path d="M0 0 C0.99 0.33 1.98 0.66 3 1 C3 2.32 3 3.64 3 5 C4.65 5 6.3 5 8 5 C9.125 9.75 9.125 9.75 8 12 C7.01 12 6.02 12 5 12 C5.33 12.99 5.66 13.98 6 15 C5.5625 17.6875 5.5625 17.6875 5 20 C4.01 20 3.02 20 2 20 C2.185625 18.865625 2.37125 17.73125 2.5625 16.5625 C2.706875 15.386875 2.85125 14.21125 3 13 C2.67 12.67 2.34 12.34 2 12 C1.73843302 10.0055518 1.47998039 8.01050123 1.25390625 6.01171875 C0.99387939 3.95150594 0.58147676 1.99363462 0 0 Z " fill="#D7D6AE" transform="translate(32,32)" />
<path d="M0 0 C2 3 2 3 2 7 C2.99 7 3.98 7 5 7 C5.33 5.68 5.66 4.36 6 3 C6 4.98 6 6.96 6 9 C5.05125 9.12375 4.1025 9.2475 3.125 9.375 C0 10 0 10 -2 12 C-5.27360452 11.05237764 -6.67284007 10.55474945 -8.4375 7.5625 C-8.623125 6.716875 -8.80875 5.87125 -9 5 C-8.34 4.01 -7.68 3.02 -7 2 C-6.34 3.32 -5.68 4.64 -5 6 C-4.34 6 -3.68 6 -3 6 C-2.938125 5.5978125 -2.938125 5.5978125 -2.625 3.5625 C-2.41875 2.716875 -2.2125 1.87125 -2 1 C-1.34 0.67 -0.68 0.34 0 0 Z " fill="#82712D" transform="translate(65,35)" />
<path d="M0 0 C1.5 1.3125 1.5 1.3125 3 3 C3 3.99 3 4.98 3 6 C5.64 6.66 8.28 7.32 11 8 C11.33 9.98 11.66 11.96 12 14 C5.61479646 13.84036991 2.33991635 10.21875117 -2 6 C-1.34 4.02 -0.68 2.04 0 0 Z " fill="#FBE961" transform="translate(63,71)" />
<path d="M0 0 C-2.625 5.75 -2.625 5.75 -6 8 C-6.99 8 -7.98 8 -9 8 C-8.96519531 8.62648438 -8.93039063 9.25296875 -8.89453125 9.8984375 C-8.88099609 10.30707031 -8.88099609 10.30707031 -8.8125 12.375 C-8.79509766 12.78105469 -8.79509766 12.78105469 -8.70703125 14.8359375 C-8.80371094 15.55007812 -8.90039062 16.26421875 -9 17 C-9.495 17.33 -9.495 17.33 -12 19 C-12.42369256 5.52657659 -12.42369256 5.52657659 -9 1.85546875 C-2.98207511 -1.49103756 -2.98207511 -1.49103756 0 0 Z " fill="#9D6B0C" transform="translate(88,66)" />
<path d="M0 0 C1.32 0 2.64 0 4 0 C4 2.31 4 4.62 4 7 C3.67 6.01 3.34 5.02 3 4 C2.34 4 1.68 4 1 4 C1 5.65 1 7.3 1 9 C-0.81552978 8.38385645 -2.6273653 7.75681772 -4.4375 7.125 C-5.44683594 6.77695312 -6.45617187 6.42890625 -7.49609375 6.0703125 C-10 5 -10 5 -11 3 C-7.37 3 -3.74 3 0 3 C0 2.01 0 1.02 0 0 Z " fill="#E2BB2C" transform="translate(29,45)" />
<path d="M0 0 C12.68308438 -0.91562374 12.68308438 -0.91562374 15.8203125 1.265625 C17.25314669 3.45202384 18 5.37423285 18 8 C15.83125748 7.49396008 14.00032373 7.00016187 12 6 C12 5.34 12 4.68 12 4 C11.30132812 3.93941406 10.60265625 3.87882812 9.8828125 3.81640625 C8.97273438 3.73261719 8.06265625 3.64882813 7.125 3.5625 C6.22007813 3.48128906 5.31515625 3.40007813 4.3828125 3.31640625 C2 3 2 3 0 2 C0 1.34 0 0.68 0 0 Z " fill="#A86F09" transform="translate(43,51)" />
<path d="M0 0 C0.33 1.32 0.66 2.64 1 4 C2.65 4.33 4.3 4.66 6 5 C6 5.99 6 6.98 6 8 C2.37 8 -1.26 8 -5 8 C-5.33 6.68 -5.66 5.36 -6 4 C-2.77777778 0 -2.77777778 0 0 0 Z " fill="#F5DC5E" transform="translate(23,40)" />
<path d="M0 0 C1.32 0.33 2.64 0.66 4 1 C4 1.99 4 2.98 4 4 C-2.13480779 8.04897314 -2.13480779 8.04897314 -6.3125 7.8125 C-9 7 -9 7 -11 6 C-11 5.34 -11 4.68 -11 4 C-10.37351562 3.96261719 -9.74703125 3.92523438 -9.1015625 3.88671875 C-8.28429687 3.82097656 -7.46703125 3.75523438 -6.625 3.6875 C-5.81289062 3.62949219 -5.00078125 3.57148437 -4.1640625 3.51171875 C-2 3 -2 3 0 0 Z " fill="#E4BC26" transform="translate(82,62)" />
<path d="M0 0 C0.66 0.33 1.32 0.66 2 1 C1.57823203 6.0612157 0.38155564 9.60186165 -2.01171875 14.06640625 C-3.31692675 16.62007407 -4.17741244 19.25804145 -5 22 C-5.33 22 -5.66 22 -6 22 C-6.81270891 14.84816158 -3.86603336 9.4274322 -1 3 C-0.67 2.01 -0.34 1.02 0 0 Z " fill="#BD9A2C" transform="translate(66,18)" />
<path d="M0 0 C0.66 0 1.32 0 2 0 C2.33 1.65 2.66 3.3 3 5 C4.32 5.33 5.64 5.66 7 6 C7 7.65 7 9.3 7 11 C6.34 11.33 6.34 11.33 3 13 C0.78145293 8.37802694 -0.38281159 5.23175837 0 0 Z " fill="#F9E568" transform="translate(30,49)" />
<path d="M0 0 C0.66 0 1.32 0 2 0 C6 5.29411765 6 5.29411765 6 9 C4.35 9 2.7 9 1 9 C1.33 8.01 1.66 7.02 2 6 C-1.3 6 -4.6 6 -8 6 C-8 5.34 -8 4.68 -8 4 C-2.25 3.875 -2.25 3.875 0 5 C0 3.35 0 1.7 0 0 Z " fill="#C7A426" transform="translate(53,42)" />
<path d="M0 0 C0.33 0 0.66 0 1 0 C0.67 2.31 0.34 4.62 0 7 C-0.66 7 -1.32 7 -2 7 C-2.12375 7.515625 -2.2475 8.03125 -2.375 8.5625 C-3.18641628 11.72702351 -4.0945913 14.86124985 -5 18 C-5.66 18 -6.32 18 -7 18 C-7.12375 17.38125 -7.2475 16.7625 -7.375 16.125 C-8 14 -8 14 -10 12 C-8.68 12 -7.36 12 -6 12 C-5.938125 11.6184375 -5.938125 11.6184375 -5.625 9.6875 C-5 7 -5 7 -3 4 C-2.34 4 -1.68 4 -1 4 C-0.67 2.68 -0.34 1.36 0 0 Z " fill="#8A6D24" transform="translate(58,29)" />
<path d="M0 0 C1.67401097 0.64800425 3.33805262 1.32165413 5 2 C5.73605469 2.268125 6.47210938 2.53625 7.23046875 2.8125 C11.31016052 4.40976921 13.5385719 5.3485721 16.125 9 C17.0250469 12.0858751 16.90130758 13.05488226 16 16 C15.566875 14.80375 15.13375 13.6075 14.6875 12.375 C12.21382762 7.28320722 8.32669784 5.58007659 3.36328125 3.2265625 C1 2 1 2 0 0 Z " fill="#6B541A" transform="translate(16,48)" />
<path d="M0 0 C6.75 -0.125 6.75 -0.125 9 1 C9 1.99 9 2.98 9 4 C5.52674819 5.1577506 2.63932552 5.06866652 -1 5 C-0.67 3.35 -0.34 1.7 0 0 Z " fill="#D0CB93" transform="translate(71,60)" />
<path d="M0 0 C3.17434955 2.82164405 4.58501451 4.89017782 5.625 9 C6.28111224 11.53182136 6.8658247 13.74516346 8.0859375 16.0625 C9 18 9 18 9 22 C7.35 21.67 5.7 21.34 4 21 C4.33 20.34 4.66 19.68 5 19 C5.66 19.33 6.32 19.66 7 20 C6.74605469 19.47792969 6.49210937 18.95585938 6.23046875 18.41796875 C3.42890399 12.42660741 1.58258288 6.41425638 0 0 Z " fill="#664F0E" transform="translate(73,30)" />
<path d="M0 0 C0 0.99 0 1.98 0 3 C-3.77222089 4.75163456 -6.666639 5.22490027 -10.8125 5.125 C-11.30041016 5.11597656 -11.30041016 5.11597656 -13.76953125 5.0703125 C-14.50558594 5.04710938 -15.24164063 5.02390625 -16 5 C-16 4.34 -16 3.68 -16 3 C-15.24074219 2.86722656 -14.48148438 2.73445313 -13.69921875 2.59765625 C-12.70535156 2.42105469 -11.71148437 2.24445313 -10.6875 2.0625 C-9.70136719 1.88847656 -8.71523438 1.71445313 -7.69921875 1.53515625 C-5.05048625 1.01000957 -2.69980449 0 0 0 Z " fill="#BC9010" transform="translate(61,77)" />
<path d="M0 0 C3.02277375 1.96831779 5.88743166 3.90837461 8.6875 6.1875 C11 8 11 8 14 9 C13.67 9.66 13.34 10.32 13 11 C7.77747872 9.01544191 4.01862628 6.920611 0 3 C0 2.01 0 1.02 0 0 Z " fill="#CA9F28" transform="translate(61,77)" />
<path d="M0 0 C1.32 0 2.64 0 4 0 C4.0825 0.78375 4.165 1.5675 4.25 2.375 C5 5 5 5 7.0625 6.3125 C7.701875 6.539375 8.34125 6.76625 9 7 C9 7.66 9 8.32 9 9 C7.68 9.33 6.36 9.66 5 10 C4.67 9.01 4.34 8.02 4 7 C3.01 6.67 2.02 6.34 1 6 C0.67 4.02 0.34 2.04 0 0 Z " fill="#FADC59" transform="translate(44,55)" />
<path d="M0 0 C0.66 0.33 1.32 0.66 2 1 C2 1.66 2 2.32 2 3 C2.66 3 3.32 3 4 3 C3 5 2 7 1 9 C0.01 8.835 0.01 8.835 -5 8 C-5 6 -5 6 -3.0625 4 C-2.381875 3.34 -1.70125 2.68 -1 2 C-0.67 1.34 -0.34 0.68 0 0 Z " fill="#CDA41A" transform="translate(51,32)" />
<path d="M0 0 C1.32 0.33 2.64 0.66 4 1 C3.0625 3.5 3.0625 3.5 1 6 C-2.03816258 6.45787911 -4.94925785 6.28780586 -8 6 C-8.33 6.99 -8.66 7.98 -9 9 C-9.66 8.34 -10.32 7.68 -11 7 C-10.625 4.875 -10.625 4.875 -10 3 C-9.67 3.33 -9.34 3.66 -9 4 C-7.31391034 4.07205511 -5.62499341 4.08386068 -3.9375 4.0625 C-3.01839844 4.05347656 -2.09929687 4.04445313 -1.15234375 4.03515625 C-0.44207031 4.02355469 0.26820312 4.01195313 1 4 C0.67 2.68 0.34 1.36 0 0 Z " fill="#9E8B39" transform="translate(79,60)" />
<path d="M0 0 C0.66 0 1.32 0 2 0 C3.80230168 3.82989106 4.19622241 6.78121808 4 11 C3.01 11 2.02 11 1 11 C0.63890458 9.35567294 0.28629924 7.7094792 -0.0625 6.0625 C-0.25972656 5.14597656 -0.45695312 4.22945312 -0.66015625 3.28515625 C-0.77230469 2.53105469 -0.88445312 1.77695312 -1 1 C-0.67 0.67 -0.34 0.34 0 0 Z " fill="#EBCD41" transform="translate(66,31)" />
<path d="M0 0 C-0.33 0.33 -0.66 0.66 -1 1 C0.32 1.66 1.64 2.32 3 3 C-2.75 4 -2.75 4 -5 4 C-5.66 5.65 -6.32 7.3 -7 9 C-7.66 8.67 -8.32 8.34 -9 8 C-8.67 6.35 -8.34 4.7 -8 3 C-7.34 3 -6.68 3 -6 3 C-6 2.01 -6 1.02 -6 0 C-3 -1 -3 -1 0 0 Z " fill="#7B6B3A" transform="translate(63,15)" />
<path d="M0 0 C0.433125 0.66 0.86625 1.32 1.3125 2 C1.5909375 2.33 1.5909375 2.33 3 4 C3.99 4 4.98 4 6 4 C6 4.99 6 5.98 6 7 C6.66 7.33 7.32 7.66 8 8 C7.34 8.66 6.68 9.32 6 10 C2.73058318 9.05358987 1.33177722 8.58815053 -0.375 5.5625 C-1 3 -1 3 0 0 Z " fill="#76684A" transform="translate(57,37)" />
<path d="M0 0 C1.32 0 2.64 0 4 0 C4.042721 1.66611905 4.04063832 3.33382885 4 5 C3 6 3 6 0.4375 6.0625 C0.0353125 6.0521875 0.0353125 6.0521875 -2 6 C-1.125 1.125 -1.125 1.125 0 0 Z " fill="#E1D4A7" transform="translate(53,67)" />
<path d="M0 0 C2.90314917 0.62537189 4.95362348 1.57085659 7.23046875 3.48046875 C7.23046875 4.47046875 7.23046875 5.46046875 7.23046875 6.48046875 C6.57046875 6.48046875 5.91046875 6.48046875 5.23046875 6.48046875 C4.75609375 5.84109375 4.28171875 5.20171875 3.79296875 4.54296875 C-0.22558963 1.30851932 -4.74775284 1.65363352 -9.76953125 1.48046875 C-5.99204861 -1.03785301 -4.32371387 -0.59953618 0 0 Z " fill="#CEA735" transform="translate(80.76953125,58.51953125)" />
<path d="M0 0 C0 0.66 0 1.32 0 2 C0.66 2 1.32 2 2 2 C2 2.66 2 3.32 2 4 C2.66 4.33 3.32 4.66 4 5 C3.34 5.66 2.68 6.32 2 7 C1.34 7 0.68 7 0 7 C0 6.34 0 5.68 0 5 C-0.66 5 -1.32 5 -2 5 C-2 4.34 -2 3.68 -2 3 C-3.32 2.34 -4.64 1.68 -6 1 C-4 0 -4 0 0 0 Z " fill="#AAAB71" transform="translate(67,57)" />
<path d="M0 0 C2.31 0 4.62 0 7 0 C7.33 1.65 7.66 3.3 8 5 C6.515 4.67 6.515 4.67 -1 3 C-0.67 2.01 -0.34 1.02 0 0 Z " fill="#D4C07F" transform="translate(65,44)" />
<path d="M0 0 C-0.33 2.31 -0.66 4.62 -1 7 C-1.66 7 -2.32 7 -3 7 C-4.7143618 5.04072937 -6.38405168 3.04119788 -8 1 C-5.07175348 0.02391783 -3.04386724 -0.08226668 0 0 Z " fill="#E6D47A" transform="translate(56,28)" />
<path d="M0 0 C1.65 0 3.3 0 5 0 C4.67 1.32 4.34 2.64 4 4 C1.36 4.66 -1.28 5.32 -4 6 C-3.67 5.01 -3.34 4.02 -3 3 C-2.34 3 -1.68 3 -1 3 C-0.67 2.01 -0.34 1.02 0 0 Z " fill="#EDC114" transform="translate(55,74)" />
<path d="M0 0 C0.66 0.66 1.32 1.32 2 2 C4.625 2.125 4.625 2.125 7 2 C5.25 4.5 5.25 4.5 3 7 C1.68 7 0.36 7 -1 7 C-0.67 4.69 -0.34 2.38 0 0 Z " fill="#F6E161" transform="translate(46,73)" />
<path d="M0 0 C0.33 0.66 0.66 1.32 1 2 C0.01 2 -0.98 2 -2 2 C-1.67 2.99 -1.34 3.98 -1 5 C-1.4375 7.6875 -1.4375 7.6875 -2 10 C-2.99 10 -3.98 10 -5 10 C-4.814375 8.88625 -4.62875 7.7725 -4.4375 6.625 C-4 3 -4 3 -5 1 C-3.35 0.67 -1.7 0.34 0 0 Z " fill="#DBD4AA" transform="translate(39,42)" />
<path d="M0 0 C0.4125 0.61875 0.825 1.2375 1.25 1.875 C3.05573879 4.06768281 4.4090534 4.92788417 7 6 C6.05125 6.309375 5.1025 6.61875 4.125 6.9375 C1 8 1 8 -1 9 C-1 7.35 -1 5.7 -1 4 C-1.66 3.67 -2.32 3.34 -3 3 C-2.01 3 -1.02 3 0 3 C0 2.01 0 1.02 0 0 Z " fill="#B1AA6C" transform="translate(58,63)" />
<path d="M0 0 C-0.80847729 1.16945792 -1.62189112 2.33550461 -2.4375 3.5 C-2.88996094 4.1496875 -3.34242187 4.799375 -3.80859375 5.46875 C-4.20175781 5.9740625 -4.59492187 6.479375 -5 7 C-5.33 7 -5.66 7 -6 7 C-6 4.69 -6 2.38 -6 0 C-3 -1 -3 -1 0 0 Z " fill="#756344" transform="translate(85,74)" />
<path d="M0 0 C4.75 0.75 4.75 0.75 7 3 C6.875 6 6.875 6 6 9 C3.9375 10.375 3.9375 10.375 2 11 C2.99 8.36 3.98 5.72 5 3 C4.175 2.67 4.175 2.67 0 1 C0 0.67 0 0.34 0 0 Z " fill="#704E15" transform="translate(83,59)" />
<path d="M0 0 C0.33 0.165 0.33 0.165 2 1 C2.061875 1.3815625 2.061875 1.3815625 2.375 3.3125 C3.13843715 6.59527974 4.49857349 7.8213382 7 10 C6.34 11.32 5.68 12.64 5 14 C1.93757784 9.15939723 0.46588495 5.70709064 0 0 Z " fill="#C59D24" transform="translate(43,55)" />
<path d="M0 0 C0.99 0.33 1.98 0.66 3 1 C3 2.65 3 4.3 3 6 C2.34 6.33 2.34 6.33 -1 8 C-1.33 6.68 -1.66 5.36 -2 4 C-1.34 4 -0.68 4 0 4 C0 2.68 0 1.36 0 0 Z " fill="#F1D25D" transform="translate(34,54)" />
<path d="M0 0 C-0.8125 2.4375 -0.8125 2.4375 -2 5 C-2.99 5.33 -3.98 5.66 -5 6 C-5 6.66 -5 7.32 -5 8 C-4.34 8.33 -3.68 8.66 -3 9 C-4.32 9 -5.64 9 -7 9 C-7 5 -7 5 -4.625 2.25 C-2 0 -2 0 0 0 Z " fill="#8C772C" transform="translate(51,32)" />
<path d="M0 0 C0 0.66 0 1.32 0 2 C-3 4 -3 4 -6 4 C-6 6.64 -6 9.28 -6 12 C-6.33 12 -6.66 12 -7 12 C-7 8.7 -7 5.4 -7 2 C-2.25 0 -2.25 0 0 0 Z " fill="#6C430E" transform="translate(85,70)" />
<path d="M0 0 C0.33 1.65 0.66 3.3 1 5 C-1.97 4.01 -4.94 3.02 -8 2 C-4.77208445 -0.1519437 -3.71599191 -0.20086443 0 0 Z " fill="#BB8F13" transform="translate(29,49)" />
<path d="M0 0 C1.32 0 2.64 0 4 0 C4.33 1.65 4.66 3.3 5 5 C3.35 5 1.7 5 0 5 C0 3.35 0 1.7 0 0 Z " fill="#E8EDCD" transform="translate(34,38)" />
<path d="M0 0 C2 1.1875 2 1.1875 4 3 C4.25 5.6875 4.25 5.6875 4 8 C2.68 8.33 1.36 8.66 0 9 C0.66 8.67 1.32 8.34 2 8 C1.67 7.4225 1.34 6.845 1 6.25 C0 4 0 4 0 0 Z " fill="#CFBF84" transform="translate(69,68)" />
<path d="M0 0 C-0.33 1.32 -0.66 2.64 -1 4 C-2.98 4.33 -4.96 4.66 -7 5 C-5.22678182 1.07358831 -4.52021524 0 0 0 Z " fill="#E0BF1E" transform="translate(56,63)" />
<path d="M0 0 C0.66 0 1.32 0 2 0 C2 2.97 2 5.94 2 9 C1.34 9 0.68 9 0 9 C0 8.34 0 7.68 0 7 C-0.66 7 -1.32 7 -2 7 C-1.34 4.69 -0.68 2.38 0 0 Z " fill="#A5872C" transform="translate(69,52)" />
<path d="M0 0 C1.1875 1.5 1.1875 1.5 2 4 C1.27101296 6.78824238 0.1843275 9.37665092 -1 12 C-1.33 12 -1.66 12 -2 12 C-2.17835515 7.45194365 -1.99785435 4.1205746 0 0 Z " fill="#AC8520" transform="translate(62,28)" />
<path d="M0 0 C1.65 0.33 3.3 0.66 5 1 C5 2.32 5 3.64 5 5 C2.69 4.34 0.38 3.68 -2 3 C-1.34 2.01 -0.68 1.02 0 0 Z " fill="#6F5722" transform="translate(63,14)" />
<path d="M0 0 C2.97 0 5.94 0 9 0 C9 0.66 9 1.32 9 2 C6.1875 2.6875 6.1875 2.6875 3 3 C2.01 2.01 1.02 1.02 0 0 Z " fill="#FAD641" transform="translate(72,67)" />
<path d="M0 0 C0.825 0.165 0.825 0.165 5 1 C4.67 2.32 4.34 3.64 4 5 C2.68 4.67 1.36 4.34 0 4 C0 2.68 0 1.36 0 0 Z " fill="#F5F5E2" transform="translate(60,62)" />
<path d="M0 0 C0 0.99 0 1.98 0 3 C-2.31 3.66 -4.62 4.32 -7 5 C-6.1875 3.0625 -6.1875 3.0625 -5 1 C-2 0 -2 0 0 0 Z " fill="#A76804" transform="translate(61,77)" />
<path d="M0 0 C2.31 0.66 4.62 1.32 7 2 C7 3.32 7 4.64 7 6 C6.01 5.67 5.02 5.34 4 5 C4.33 4.34 4.66 3.68 5 3 C3.35 2.67 1.7 2.34 0 2 C0 1.34 0 0.68 0 0 Z " fill="#B4A140" transform="translate(51,60)" />
<path d="M0 0 C0 3 0 3 -1 6 C-2.32303717 6.3721042 -3.65737935 6.70630173 -5 7 C-5.33 7.66 -5.66 8.32 -6 9 C-6 6 -6 6 -4.6875 4.39453125 C-4.130625 3.87246094 -3.57375 3.35039063 -3 2.8125 C-2.443125 2.28269531 -1.88625 1.75289062 -1.3125 1.20703125 C-1.0959375 1.00787109 -1.0959375 1.00787109 0 0 Z " fill="#895101" transform="translate(44,52)" />
<path d="M0 0 C0.66 0.165 0.66 0.165 4 1 C4.33 2.32 4.66 3.64 5 5 C2.83125748 4.49396008 1.00032373 4.00016187 -1 3 C-0.67 2.01 -0.34 1.02 0 0 Z " fill="#A98D20" transform="translate(56,54)" />
<path d="M0 0 C1.32 0 2.64 0 4 0 C3.25 1.9375 3.25 1.9375 2 4 C-0.125 4.75 -0.125 4.75 -2 5 C-1.125 1.125 -1.125 1.125 0 0 Z " fill="#CAC494" transform="translate(44,33)" />
<path d="M0 0 C0.66 0 1.32 0 2 0 C2.33 1.98 2.66 3.96 3 6 C2.01 5.835 2.01 5.835 -3 5 C-2.34 4.67 -1.68 4.34 -1 4 C-0.375 1.9375 -0.375 1.9375 0 0 Z " fill="#FBD733" transform="translate(72,79)" />
<path d="M0 0 C1.32 0.33 2.64 0.66 4 1 C4 2.65 4 4.3 4 6 C3.01 6.33 2.02 6.66 1 7 C0.67 4.69 0.34 2.38 0 0 Z " fill="#D7AB12" transform="translate(73,69)" />
<path d="M0 0 C0.33 0.66 0.66 1.32 1 2 C3.64 2 6.28 2 9 2 C9 1.34 9 0.68 9 0 C9.99 0 10.98 0 12 0 C11.67 0.99 11.34 1.98 11 3 C7.37 3 3.74 3 0 3 C0 2.01 0 1.02 0 0 Z " fill="#F0BA2A" transform="translate(43,48)" />
<path d="M0 0 C0.99 0 1.98 0 3 0 C4.6875 2 4.6875 2 6 4 C5.34 4.66 4.68 5.32 4 6 C3.67 5.67 3.34 5.34 3 5 C2.34 5.66 1.68 6.32 1 7 C0.67 4.69 0.34 2.38 0 0 Z " fill="#795B1B" transform="translate(72,44)" />
<path d="M0 0 C1.125 1.75 1.125 1.75 2 4 C1.125 6.25 1.125 6.25 0 8 C-1.32 8 -2.64 8 -4 8 C-3.34 7.67 -2.68 7.34 -2 7 C-1.26924352 4.6859378 -0.59861742 2.35171131 0 0 Z " fill="#634913" transform="translate(63,33)" />
<path d="M0 0 C2.00720923 0.28674418 4.0085944 0.61866701 6 1 C6 2.65 6 4.3 6 6 C5.34 5.67 4.68 5.34 4 5 C4 4.01 4 3.02 4 2 C3.34 2 2.68 2 2 2 C1.67 2.99 1.34 3.98 1 5 C1 4.01 1 3.02 1 2 C0.34 1.67 -0.32 1.34 -1 1 C-0.67 0.67 -0.34 0.34 0 0 Z " fill="#C39A25" transform="translate(67,29)" />
<path d="M0 0 C1.5 1.375 1.5 1.375 3 3 C3 3.66 3 4.32 3 5 C2.01 5 1.02 5 0 5 C-0.33 5.66 -0.66 6.32 -1 7 C-2 4 -2 4 -1.0625 1.8125 C-0.8871875 1.5134375 -0.8871875 1.5134375 0 0 Z " fill="#F7D64C" transform="translate(63,71)" />
<path d="M0 0 C-0.33 1.65 -0.66 3.3 -1 5 C-2.32 5 -3.64 5 -5 5 C-5 4.01 -5 3.02 -5 2 C-2 0 -2 0 0 0 Z " fill="#75570D" transform="translate(38,60)" />
<path d="M0 0 C2.40921705 2.40921705 3.53812156 4.94334509 5 8 C3.35 7.67 1.7 7.34 0 7 C0 4.69 0 2.38 0 0 Z " fill="#EED147" transform="translate(28,30)" />
<path d="M0 0 C1.32 0.33 2.64 0.66 4 1 C3.67 1.165 3.67 1.165 2 2 C2.66 2.66 3.32 3.32 4 4 C3.34 4 2.68 4 2 4 C1.67 4.66 1.34 5.32 1 6 C1 5.34 1 4.68 1 4 C-0.32 3.67 -1.64 3.34 -3 3 C-2.01 2.67 -1.02 2.34 0 2 C0 1.34 0 0.68 0 0 Z " fill="#B09736" transform="translate(47,28)" />
<path d="M0 0 C1.32 0 2.64 0 4 0 C4 1.65 4 3.3 4 5 C3.01 5.33 2.02 5.66 1 6 C0.67 4.02 0.34 2.04 0 0 Z " fill="#F8CF37" transform="translate(44,55)" />
<path d="M0 0 C0.33 0 0.66 0 1 0 C1.25 3.3125 1.25 3.3125 1 7 C-1 8.9375 -1 8.9375 -3 10 C-2.21302675 6.58978257 -1.12880057 3.31114834 0 0 Z " fill="#D59E0C" transform="translate(42,47)" />
<path d="M0 0 C0.66 0 1.32 0 2 0 C3.625 2 3.625 2 5 4 C4.67 4.66 4.34 5.32 4 6 C2.68 5.67 1.36 5.34 0 5 C0 3.35 0 1.7 0 0 Z " fill="#C4A214" transform="translate(53,42)" />
<path d="M0 0 C1.98 0 3.96 0 6 0 C5.67 1.98 5.34 3.96 5 6 C4.34 6 3.68 6 3 6 C2.938125 5.690625 2.938125 5.690625 2.625 4.125 C2 2 2 2 0 0 Z " fill="#9B7F26" transform="translate(48,41)" />
<path d="M0 0 C0.6290625 0.0103125 0.6290625 0.0103125 3.8125 0.0625 C4.1425 0.7225 4.4725 1.3825 4.8125 2.0625 C2.06171116 2.97942961 0.45301087 3.17136083 -2.375 3.125 C-3.0040625 3.1146875 -3.0040625 3.1146875 -6.1875 3.0625 C-6.5175 2.4025 -6.8475 1.7425 -7.1875 1.0625 C-4.43671116 0.14557039 -2.82801087 -0.04636083 0 0 Z " fill="#73623E" transform="translate(34.1875,23.9375)" />
</svg>