<?xml version='1.0' encoding='utf-8'?>
<svg xmlns="http://www.w3.org/2000/svg" version="1.1" width="87" height="98">
<path d="M0 0 C2.9718821 1.31523973 5.43920404 3.01123988 8 5 C9.010625 5.78375 10.02125 6.5675 11.0625 7.375 C18.79375968 15.467335 22.12117993 27.75234881 22.25 38.5625 C22.27578125 39.86316406 22.3015625 41.16382813 22.328125 42.50390625 C21.99018075 46.10462173 21.46984781 47.4456574 19 50 C18.67 48.35 18.34 46.7 18 45 C14.96711734 47.46862542 12.19398084 49.78612369 9.5625 52.6875 C6.37365083 55.56524194 4.14873704 56.10517436 0 57 C0 57.66 0 58.32 0 59 C-3.06218072 59.27646774 -6.1216578 59.52190671 -9.1875 59.75 C-10.05181641 59.83121094 -10.91613281 59.91242188 -11.80664062 59.99609375 C-16.03593036 60.2877689 -18.27142936 60.4417318 -21.9765625 58.1953125 C-28.62401737 50.98320896 -30.37688506 44.5564863 -30.1875 34.95703125 C-29.44452293 23.23966376 -23.77995064 11.75902615 -15 4 C-10.37590096 0.52059215 -5.86536884 -1.28970825 0 0 Z " fill="#DBDDD8" transform="translate(47,17)" />
<path d="M0 0 C6.92598593 -0.6183916 10.54489697 0.76346905 16 5 C17.010625 5.78375 18.02125 6.5675 19.0625 7.375 C26.79375968 15.467335 30.12117993 27.75234881 30.25 38.5625 C30.27578125 39.86316406 30.3015625 41.16382813 30.328125 42.50390625 C29.99018075 46.10462173 29.46984781 47.4456574 27 50 C26.67 48.35 26.34 46.7 26 45 C22.96711734 47.46862542 20.19398084 49.78612369 17.5625 52.6875 C14.37365083 55.56524194 12.14873704 56.10517436 8 57 C8 57.66 8 58.32 8 59 C4.93781928 59.27646774 1.8783422 59.52190671 -1.1875 59.75 C-2.05181641 59.83121094 -2.91613281 59.91242188 -3.80664062 59.99609375 C-8.05830026 60.28931166 -10.29805853 60.41343544 -14.05078125 58.203125 C-16 56 -16 56 -17 53 C-11.72 53 -6.44 53 -1 53 C-1.33 53.66 -1.66 54.32 -2 55 C4.5754158 55.37219335 4.5754158 55.37219335 6.51953125 53.66796875 C7.00808594 53.11753906 7.49664062 52.56710938 8 52 C9.11644259 51.03171093 10.24179181 50.07361319 11.375 49.125 C14.39743659 46.53892368 17.34706684 43.97450082 20 41 C20 40.01 20 39.02 20 38 C18.68 38.66 17.36 39.32 16 40 C17.07401108 37.08482708 17.77810176 35.22189824 20 33 C20 32.01 20 31.02 20 30 C18.68 30.33 17.36 30.66 16 31 C16 29.68 16 28.36 16 27 C15.67 27.66 15.34 28.32 15 29 C14.34 29 13.68 29 13 29 C13.02320312 28.38253906 13.04640625 27.76507813 13.0703125 27.12890625 C13.19467734 21.29264215 13.04400841 15.53901046 11 10 C10.34 9.67 9.68 9.34 9 9 C8.8865625 8.608125 8.8865625 8.608125 8.3125 6.625 C6.38022594 2.76045188 4.00219421 2.40817944 0 1 C0 0.67 0 0.34 0 0 Z " fill="#979992" transform="translate(39,17)" />
<path d="M0 0 C2 1 2 1 3.0625 3.5625 C2.97827964 8.19461979 1.23547459 9.8956098 -1.88671875 13.16796875 C-8.44600499 18.85430007 -15.42190886 20.27559218 -23.90234375 20.234375 C-28.1043329 19.91644392 -31.19081471 18.75808552 -35 17 C-34.67 16.34 -34.34 15.68 -34 15 C-28.39 15 -22.78 15 -17 15 C-17 14.34 -17 13.68 -17 13 C-15.948125 12.608125 -14.89625 12.21625 -13.8125 11.8125 C-10.06550665 10.21529677 -7.73538851 8.03932057 -5 5 C-3.3125 3.1875 -3.3125 3.1875 -2 2 C-1.34 2 -0.68 2 0 2 C0 1.34 0 0.68 0 0 Z " fill="#7E817A" transform="translate(64,61)" />
<path d="M0 0 C6.9275499 -0.61853124 10.51219867 0.82054866 16 5 C16.845625 5.598125 17.69125 6.19625 18.5625 6.8125 C20.4499995 9.68478185 19.97291378 11.67261657 19.36328125 14.9609375 C18.88386037 17.65188051 18.93186558 20.27462312 19 23 C19.66 23 20.32 23 21 23 C21 24.98 21 26.96 21 29 C20.34 29.33 20.34 29.33 17 31 C16.67 29.68 16.34 28.36 16 27 C15.67 27.66 15.34 28.32 15 29 C14.34 29 13.68 29 13 29 C13.01160156 28.69126953 13.01160156 28.69126953 13.0703125 27.12890625 C13.19467734 21.29264215 13.04400841 15.53901046 11 10 C10.34 9.67 9.68 9.34 9 9 C8.8865625 8.608125 8.8865625 8.608125 8.3125 6.625 C6.38022594 2.76045188 4.00219421 2.40817944 0 1 C0 0.67 0 0.34 0 0 Z " fill="#B5B8B1" transform="translate(39,17)" />
<path d="M0 0 C3.25630898 1.62815449 4.10779979 5.06465645 5.5625 8.25 C5.87896484 8.91902344 6.19542969 9.58804688 6.52148438 10.27734375 C9.29548974 16.2729647 10.1296927 21.16042301 10.0625 27.8125 C10.05347656 28.97394531 10.04445313 30.13539062 10.03515625 31.33203125 C10.02355469 32.21246094 10.01195313 33.09289063 10 34 C9.34 34 8.68 34 8 34 C7.67 28.72 7.34 23.44 7 18 C6.01 18.33 5.02 18.66 4 19 C3.979375 20.0725 3.95875 21.145 3.9375 22.25 C3 26 3 26 1.375 27.35546875 C-0.36834009 28.32906795 -2.1821985 29.17372659 -4 30 C-2.92598892 27.08482708 -2.22189824 25.22189824 0 23 C0.4140625 20.6171875 0.4140625 20.6171875 0.625 17.875 C0.66238281 17.41996094 0.66238281 17.41996094 0.8515625 15.1171875 C0.90054688 14.41851562 0.94953125 13.71984375 1 13 C0.34 13 -0.32 13 -1 13 C-1.22245393 11.39773045 -1.42746669 9.79303233 -1.625 8.1875 C-1.74101563 7.29417969 -1.85703125 6.40085937 -1.9765625 5.48046875 C-2 3 -2 3 0 0 Z " fill="#9FA39C" transform="translate(59,27)" />
<path d="M0 0 C2 3 2 3 1.6875 6.625 C1 10 1 10 0 11 C-0.21083313 12.74522983 -0.36875841 14.49698733 -0.5 16.25 C-0.77707056 19.91128954 -1.21422463 23.41162583 -2 27 C-1.01 27.33 -0.02 27.66 1 28 C0.67 28.99 0.34 29.98 0 31 C0.66 31 1.32 31 2 31 C2 32.32 2 33.64 2 35 C5.3 35.33 8.6 35.66 12 36 C7.71062421 38.14468789 5.73236214 38.51113734 1.12890625 37.84375 C-1.59364986 36.76471859 -2.25038107 35.78352025 -3.5625 33.1875 C-7.55248516 21.74589871 -4.23643624 10.78365587 0 0 Z " fill="#BBBDB4" transform="translate(22,33)" />
<path d="M0 0 C0.99 0 1.98 0 3 0 C4.14077657 3.42232972 4.09815117 6.08673217 4.0625 9.6875 C4.05347656 10.86699219 4.04445313 12.04648437 4.03515625 13.26171875 C4.02355469 14.16535156 4.01195313 15.06898437 4 16 C4.66 16 5.32 16 6 16 C5.34 17.98 4.68 19.96 4 22 C3.67 22 3.34 22 3 22 C2.67 20.35 2.34 18.7 2 17 C-1.08427364 19.51045529 -3.93571654 21.93272661 -6.6875 24.8125 C-9 27 -9 27 -12 27 C-11.46890625 26.40832031 -10.9378125 25.81664063 -10.390625 25.20703125 C-8.93558484 23.57940421 -7.4865682 21.94637648 -6.04296875 20.30859375 C-4.57076736 18.64497803 -3.07411169 17.00288951 -1.5625 15.375 C0.51239322 12.2211623 0.86367908 9.74882538 1 6 C0 3.6875 0 3.6875 -1 2 C-0.67 1.34 -0.34 0.68 0 0 Z " fill="#8D9088" transform="translate(63,45)" />
<path d="M0 0 C0.33 0 0.66 0 1 0 C0.36298156 7.96273052 -3.0407965 12.83535697 -9 18 C-15.74590834 23.05249102 -21.69622424 23.99213944 -30 23 C-38.89382355 21.3128248 -38.89382355 21.3128248 -41.77734375 17.890625 C-42.18082031 17.26671875 -42.58429687 16.6428125 -43 16 C-42.649375 16.144375 -42.649375 16.144375 -40.875 16.875 C-39.92625 17.24625 -38.9775 17.6175 -38 18 C-37.154375 18.37125 -36.30875 18.7425 -35.4375 19.125 C-27.59677513 21.12082088 -20.12883619 20.87461821 -12.8984375 17.12890625 C-5.81314738 12.91563702 -2.79794411 7.69434629 0 0 Z " fill="#585648" transform="translate(69,60)" />
<path d="M0 0 C0.66 0.66 1.32 1.32 2 2 C1.34 2 0.68 2 0 2 C0 1.34 0 0.68 0 0 Z M0 2 C0 2.66 0 3.32 0 4 C0.66 4.33 1.32 4.66 2 5 C-5.7923775 10.56598393 -12.49854427 11.93232177 -22 11 C-22.99 10.34 -23.98 9.68 -25 9 C-21.905831 7.96861033 -19.55620026 7.86629143 -16.3125 7.75 C-11.01830645 7.37138495 -7.75704264 6.21146847 -3.5234375 3.05859375 C-2 2 -2 2 0 2 Z " fill="#707269" transform="translate(59,70)" />
<path d="M0 0 C2.64 0 5.28 0 8 0 C8.1134375 0.474375 8.1134375 0.474375 8.6875 2.875 C10 6 10 6 12.625 7.375 C13.40875 7.58125 14.1925 7.7875 15 8 C16.98984772 25.02030457 16.98984772 25.02030457 15 29 C14.34 29 13.68 29 13 29 C13.01160156 28.69126953 13.01160156 28.69126953 13.0703125 27.12890625 C13.19467734 21.29264215 13.04400841 15.53901046 11 10 C10.34 9.67 9.68 9.34 9 9 C8.8865625 8.608125 8.8865625 8.608125 8.3125 6.625 C6.38022594 2.76045188 4.00219421 2.40817944 0 1 C0 0.67 0 0.34 0 0 Z " fill="#BBBCB6" transform="translate(39,17)" />
<path d="M0 0 C1.32 0.33 2.64 0.66 4 1 C5.5056904 6.80766296 6.21824777 11.9981863 6 18 C5.34 18 4.68 18 4 18 C3.67 18.66 3.34 19.32 3 20 C2.25228011 15.08641212 1.71183589 10.18611269 1.28125 5.234375 C1 3 1 3 0 0 Z " fill="#D3D5CF" transform="translate(47,26)" />
<path d="M0 0 C5.28 0 10.56 0 16 0 C15.67 0.66 15.34 1.32 15 2 C17.31 2.33 19.62 2.66 22 3 C17.52465243 5.98356504 13.24931947 5.61337157 8 5 C5.0384942 3.93570885 2.71320688 2.63816264 0 1 C0 0.67 0 0.34 0 0 Z " fill="#A9ABA4" transform="translate(22,70)" />
<path d="M0 0 C2 3 2 3 1.6875 6.625 C1 10 1 10 0 11 C-0.28318854 13.84087552 -0.44850213 16.68165215 -0.62109375 19.53125 C-0.74613281 20.3459375 -0.87117188 21.160625 -1 22 C-1.66 22.33 -2.32 22.66 -3 23 C-5.35876683 14.44707313 -3.70261971 7.91765554 0 0 Z " fill="#C4C4B9" transform="translate(22,33)" />
<path d="M0 0 C4.78880604 1.14019192 7.53366681 3.05228251 10.99609375 6.3671875 C12 8 12 8 11.84765625 10.0703125 C11 12 11 12 8 14 C7.67 11.69 7.34 9.38 7 7 C6.21625 6.773125 5.4325 6.54625 4.625 6.3125 C2 5 2 5 0.6875 2.375 C0.460625 1.59125 0.23375 0.8075 0 0 Z " fill="#A9ACA5" transform="translate(47,18)" />
<path d="M0 0 C-4.77540506 3.73923226 -8.24501869 4.67703358 -14.25 4.875 C-14.96929687 4.92140625 -15.68859375 4.9678125 -16.4296875 5.015625 C-18.28426867 5.10592296 -20.1442711 5.06241241 -22 5 C-22.66 4.34 -23.32 3.68 -24 3 C-23 2 -23 2 -19.18359375 1.90234375 C-17.60153318 1.90901911 -16.01948841 1.92098125 -14.4375 1.9375 C-13.63119141 1.94201172 -12.82488281 1.94652344 -11.99414062 1.95117188 C-9.99606244 1.96299482 -7.99802217 1.98093086 -6 2 C-6 1.34 -6 0.68 -6 0 C-3.50907189 -1.24546405 -2.58919267 -0.7767578 0 0 Z " fill="#85877F" transform="translate(53,74)" />
<path d="M0 0 C0.928125 0.33 1.85625 0.66 2.8125 1 C10.32733039 3.14492122 18.38201348 2.14988476 26 1 C25.67 1.165 25.67 1.165 24 2 C24 2.66 24 3.32 24 4 C20.93758837 4.30353638 17.87975092 4.56864125 14.8125 4.8125 C14.3803418 4.85729492 14.3803418 4.85729492 12.19335938 5.08398438 C5.69679834 5.55691411 5.69679834 5.55691411 1.88671875 2.51171875 C1.26410156 1.68285156 0.64148438 0.85398437 0 0 Z " fill="#93968F" transform="translate(23,72)" />
<path d="M0 0 C3 2 3 2 3.6875 4.5625 C4.69230769 15.61538462 4.69230769 15.61538462 3 19 C2.34 19 1.68 19 1 19 C1.01160156 18.38253906 1.02320313 17.76507813 1.03515625 17.12890625 C1.09699663 11.32474456 0.74278956 5.75661912 0 0 Z " fill="#C4C7C1" transform="translate(51,27)" />
<path d="M0 0 C0.66 0 1.32 0 2 0 C2 0.99 2 1.98 2 3 C3.216875 2.979375 4.43375 2.95875 5.6875 2.9375 C8.91977322 2.93175884 11.84934741 3.21233685 15 4 C11.8250906 5.9078584 9.89414789 6.1609041 6.25 5.625 C5.45078125 5.51414062 4.6515625 5.40328125 3.828125 5.2890625 C3.22484375 5.19367188 2.6215625 5.09828125 2 5 C1.34 3.35 0.68 1.7 0 0 Z " fill="#B5B6AE" transform="translate(19,65)" />
<path d="M0 0 C0.33 0.66 0.66 1.32 1 2 C-3.62 2.33 -8.24 2.66 -13 3 C-8.25970575 -1.74029425 -6.33642495 -1.10635991 0 0 Z " fill="#CDCEC5" transform="translate(45,19)" />
<path d="M0 0 C0.66 0 1.32 0 2 0 C2 3.63 2 7.26 2 11 C1.67 11.165 1.67 11.165 0 12 C-0.19573608 10.56359829 -0.38127816 9.12580496 -0.5625 7.6875 C-0.66691406 6.88699219 -0.77132813 6.08648437 -0.87890625 5.26171875 C-1 3 -1 3 0 0 Z " fill="#CFD0C8" transform="translate(19,44)" />
<path d="M0 0 C0.66 0.99 1.32 1.98 2 3 C1.34 4.32 0.68 5.64 0 7 C-0.66 7 -1.32 7 -2 7 C-2.33 7.99 -2.66 8.98 -3 10 C-3.75 8.375 -3.75 8.375 -4 6 C-2.0625 2.75 -2.0625 2.75 0 0 Z " fill="#D2D2CB" transform="translate(27,26)" />
<path d="M0 0 C0.33 0 0.66 0 1 0 C1 4.29 1 8.58 1 13 C1.66 13 2.32 13 3 13 C2.34 14.98 1.68 16.96 1 19 C0.67 19 0.34 19 0 19 C0 12.73 0 6.46 0 0 Z " fill="#92968F" transform="translate(66,48)" />
<path d="M0 0 C2 4 2 4 1.875 6.125 C1 8 1 8 -3 10 C-2.01 6.7 -1.02 3.4 0 0 Z " fill="#868882" transform="translate(64,54)" />
<path d="M0 0 C3.28788824 3.11016455 5.83735988 6.01618925 8 10 C5.12470182 8.71107323 2.94991702 7.50703617 1 5 C0.3125 2.3125 0.3125 2.3125 0 0 Z " fill="#5B5848" transform="translate(18,66)" />
<path d="M0 0 C3.79303725 1.00193437 6.71536341 1.81024227 10 4 C7.8125 4.8125 7.8125 4.8125 5 5 C2.1875 2.5625 2.1875 2.5625 0 0 Z " fill="#8F9088" transform="translate(23,72)" />
<path d="M0 0 C1.32 0.33 2.64 0.66 4 1 C3.67 1.495 3.67 1.495 2 4 C0.68 3.67 -0.64 3.34 -2 3 C-1.34 2.01 -0.68 1.02 0 0 Z " fill="#A1A49D" transform="translate(46,69)" />
<path d="M0 0 C0.66 0 1.32 0 2 0 C2 1.98 2 3.96 2 6 C1.34 6.33 1.34 6.33 -2 8 C-2.33 7.34 -2.66 6.68 -3 6 C-2.34 6 -1.68 6 -1 6 C-0.67 4.02 -0.34 2.04 0 0 Z " fill="#ACAFA8" transform="translate(58,40)" />
<path d="M0 0 C1.98 0.66 3.96 1.32 6 2 C5.67 3.32 5.34 4.64 5 6 C4.01 5.67 3.02 5.34 2 5 C0.8125 2.4375 0.8125 2.4375 0 0 Z " fill="#B0B2AA" transform="translate(47,18)" />
<path d="M0 0 C0.66 0.66 1.32 1.32 2 2 C1.34 3.65 0.68 5.3 0 7 C-1.32 6.34 -2.64 5.68 -4 5 C-4 4.34 -4 3.68 -4 3 C-3.01 2.67 -2.02 2.34 -1 2 C-0.67 1.34 -0.34 0.68 0 0 Z " fill="#EDEFEA" transform="translate(29,31)" />
</svg>