<?xml version='1.0' encoding='utf-8'?>
<svg xmlns="http://www.w3.org/2000/svg" version="1.1" width="98" height="98">
<path d="M0 0 C1.08410156 0.00257812 2.16820312 0.00515625 3.28515625 0.0078125 C3.82591797 0.00652344 3.82591797 0.00652344 6.5625 0 C9.34765625 0.1328125 9.34765625 0.1328125 11.34765625 1.1328125 C11.34765625 1.7928125 11.34765625 2.4528125 11.34765625 3.1328125 C11.82203125 3.1121875 11.82203125 3.1121875 14.22265625 3.0078125 C17.34765625 3.1328125 17.34765625 3.1328125 19.34765625 5.1328125 C19.34765625 6.1228125 19.34765625 7.1128125 19.34765625 8.1328125 C20.50265625 7.9678125 20.50265625 7.9678125 26.34765625 7.1328125 C27.00765625 8.1228125 27.66765625 9.1128125 28.34765625 10.1328125 C28.96640625 9.1840625 29.58515625 8.2353125 30.22265625 7.2578125 C32.34765625 4.1328125 32.34765625 4.1328125 34.34765625 2.1328125 C37.97265625 2.0078125 37.97265625 2.0078125 41.34765625 2.1328125 C41.51265625 2.4628125 41.51265625 2.4628125 42.34765625 4.1328125 C40.36765625 4.7928125 38.38765625 5.4528125 36.34765625 6.1328125 C36.73180683 17.83019762 36.73180683 17.83019762 39.41015625 21.7578125 C42.16026799 26.54832972 42.2656607 31.6558933 40.85253906 37.00805664 C40.33237167 39.19713635 40.14351604 41.21561672 40.03125 43.4609375 C40.01030273 43.86054687 40.01030273 43.86054687 39.90429688 45.8828125 C39.86498047 46.7078125 39.82566406 47.5328125 39.78515625 48.3828125 C39.76356445 48.80304688 39.76356445 48.80304688 39.65429688 50.9296875 C39.54857082 52.99721921 39.4476433 55.06499531 39.34765625 57.1328125 C38.35765625 57.1328125 37.36765625 57.1328125 36.34765625 57.1328125 C36.34765625 56.1428125 36.34765625 55.1528125 36.34765625 54.1328125 C35.69410156 54.28621094 35.04054687 54.43960938 34.3671875 54.59765625 C30.59273466 55.26660844 26.85859629 55.48688547 23.03515625 55.6953125 C22.29458984 55.73849609 21.55402344 55.78167969 20.79101562 55.82617188 C18.97674161 55.93151682 17.16222075 56.03259566 15.34765625 56.1328125 C15.01765625 57.4528125 14.68765625 58.7728125 14.34765625 60.1328125 C13.35765625 60.1328125 12.36765625 60.1328125 11.34765625 60.1328125 C11.12812535 54.6445401 11.36548513 50.33601168 13.34765625 45.1328125 C13.34765625 44.1428125 13.34765625 43.1528125 13.34765625 42.1328125 C12.56390625 41.8440625 11.78015625 41.5553125 10.97265625 41.2578125 C8.34765625 40.1328125 8.34765625 40.1328125 6.34765625 38.1328125 C6.34765625 36.8128125 6.34765625 35.4928125 6.34765625 34.1328125 C5.70828125 33.8234375 5.06890625 33.5140625 4.41015625 33.1953125 C2.34765625 32.1328125 2.34765625 32.1328125 1.34765625 31.1328125 C1.30701793 29.46664135 1.30493525 27.79893155 1.34765625 26.1328125 C0.74953125 25.9471875 0.15140625 25.7615625 -0.46484375 25.5703125 C-3.69822781 23.44551726 -4.66205969 20.72977975 -5.65234375 17.1328125 C-6.59956396 12.07856113 -7.38401164 7.79569408 -5.27734375 3.0078125 C-2.79172587 0.13979187 -2.79172587 0.13979187 0 0 Z " fill="#C18A09" transform="translate(23.65234375,16.8671875)" />
<path d="M0 0 C1.08410156 0.00257812 2.16820312 0.00515625 3.28515625 0.0078125 C3.82591797 0.00652344 3.82591797 0.00652344 6.5625 0 C9.34765625 0.1328125 9.34765625 0.1328125 11.34765625 1.1328125 C11.34765625 1.7928125 11.34765625 2.4528125 11.34765625 3.1328125 C12.31703125 3.1121875 13.28640625 3.0915625 14.28515625 3.0703125 C17.34765625 3.1328125 17.34765625 3.1328125 18.34765625 4.1328125 C18.38829457 5.79898365 18.39037725 7.46669345 18.34765625 9.1328125 C19.99765625 9.1328125 21.64765625 9.1328125 23.34765625 9.1328125 C23.67765625 11.4428125 24.00765625 13.7528125 24.34765625 16.1328125 C21.97265625 17.1953125 21.97265625 17.1953125 19.34765625 18.1328125 C18.68765625 17.8028125 18.02765625 17.4728125 17.34765625 17.1328125 C17.67765625 18.7828125 18.00765625 20.4328125 18.34765625 22.1328125 C19.66765625 22.1328125 20.98765625 22.1328125 22.34765625 22.1328125 C22.61578125 21.4934375 22.88390625 20.8540625 23.16015625 20.1953125 C24.34765625 18.1328125 24.34765625 18.1328125 27.34765625 17.1328125 C27.67765625 16.4728125 28.00765625 15.8128125 28.34765625 15.1328125 C29.00765625 15.4628125 29.66765625 15.7928125 30.34765625 16.1328125 C30.01765625 19.1028125 29.68765625 22.0728125 29.34765625 25.1328125 C28.02765625 25.1328125 26.70765625 25.1328125 25.34765625 25.1328125 C25.22390625 26.0609375 25.10015625 26.9890625 24.97265625 27.9453125 C24.34765625 31.1328125 24.34765625 31.1328125 22.34765625 34.1328125 C18.9730291 33.58557567 17.26530625 33.0779125 14.34765625 31.1328125 C14.34765625 29.8128125 14.34765625 28.4928125 14.34765625 27.1328125 C13.02765625 27.1328125 11.70765625 27.1328125 10.34765625 27.1328125 C10.24453125 27.7721875 10.14140625 28.4115625 10.03515625 29.0703125 C9.80828125 29.7509375 9.58140625 30.4315625 9.34765625 31.1328125 C5.72438886 32.3405683 4.70619256 31.67592378 1.34765625 30.1328125 C1.34765625 28.8128125 1.34765625 27.4928125 1.34765625 26.1328125 C0.74953125 25.9471875 0.15140625 25.7615625 -0.46484375 25.5703125 C-3.69822781 23.44551726 -4.66205969 20.72977975 -5.65234375 17.1328125 C-6.59956396 12.07856113 -7.38401164 7.79569408 -5.27734375 3.0078125 C-2.79172587 0.13979187 -2.79172587 0.13979187 0 0 Z " fill="#D4A70A" transform="translate(23.65234375,16.8671875)" />
<path d="M0 0 C2.0625 2.25 2.0625 2.25 3 4 C1.68 4.33 0.36 4.66 -1 5 C-1.20625 4.360625 -1.4125 3.72125 -1.625 3.0625 C-3 1 -3 1 -6.125 0.25 C-7.07375 0.1675 -8.0225 0.085 -9 0 C-9 -0.66 -9 -1.32 -9 -2 C-11.26921536 -2.13489391 -13.5407067 -2.23193995 -15.8125 -2.3125 C-17.07707031 -2.37050781 -18.34164063 -2.42851562 -19.64453125 -2.48828125 C-23 -2 -23 -2 -24.95703125 0.18359375 C-27.0903222 5.94427829 -25.84494204 12.42998748 -23.625 18.0625 C-22 21 -22 21 -19 23 C-18.33333333 25 -17.66666667 27 -17 29 C-16.01 29.66 -15.02 30.32 -14 31 C-13.71125 31.804375 -13.4225 32.60875 -13.125 33.4375 C-12 36 -12 36 -9.4375 37.5 C-7 39 -7 39 -6.0625 41.4375 C-6 44 -6 44 -6.95703125 45.86328125 C-8.11938391 48.24458051 -8.39305221 50.1212584 -8.625 52.75 C-8.69976562 53.54921875 -8.77453125 54.3484375 -8.8515625 55.171875 C-8.90054688 55.77515625 -8.94953125 56.3784375 -9 57 C-8.01 57 -7.02 57 -6 57 C-5.87625 56.360625 -5.7525 55.72125 -5.625 55.0625 C-5.521875 54.7221875 -5.521875 54.7221875 -5 53 C-2.70691037 51.85345518 -1.20090344 51.80270883 1.3515625 51.68359375 C2.20234375 51.64169922 3.053125 51.59980469 3.9296875 51.55664062 C4.81914063 51.51732422 5.70859375 51.47800781 6.625 51.4375 C7.5221875 51.39431641 8.419375 51.35113281 9.34375 51.30664062 C11.56234283 51.20043139 13.7810488 51.09838806 16 51 C16 51.99 16 52.98 16 54 C16.99 54 17.98 54 19 54 C18.98839844 52.74703125 18.97679687 51.4940625 18.96484375 50.203125 C18.95546284 48.55208483 18.94636296 46.90104304 18.9375 45.25 C18.92912109 44.425 18.92074219 43.6 18.91210938 42.75 C18.90888672 41.95078125 18.90566406 41.1515625 18.90234375 40.328125 C18.89710693 39.5949707 18.89187012 38.86181641 18.88647461 38.10644531 C19.00280634 35.94792882 19.43535322 34.08111895 20 32 C20.62040711 25.9281468 20.36824348 22.17312106 16.91015625 16.9921875 C14.96837215 12.74193045 14.94201653 7.49478691 16 3 C18.53515625 1.140625 18.53515625 1.140625 21 0 C17.75 -0.3125 17.75 -0.3125 14 0 C11.75 2.3125 11.75 2.3125 10 5 C9.01769502 6.0173873 8.02530403 7.02596117 7 8 C7.07038087 4.97362266 7.31360915 2.7901476 9.34375 0.453125 C12.63937998 -2.21333926 15.03483278 -3.37463388 19.3125 -2.9375 C23 -2 23 -2 25 0 C25 0.99 25 1.98 25 3 C23.02 3.33 21.04 3.66 19 4 C19.47986031 9.56890517 20.29915181 14.67067568 22 20 C22.66 20 23.32 20 24 20 C27 25.75 27 25.75 27 28 C27.66 28 28.32 28 29 28 C30.47082175 33.29495829 31.28748533 38.21099315 31.55859375 43.703125 C32.08826484 46.45928962 33.32054725 47.79207946 35 50 C35 53.5625 35 53.5625 34 57 C31.6875 59.0625 31.6875 59.0625 29 60 C27.64471498 59.37917414 26.31260759 58.70659998 25 58 C16.02121628 55.24145801 6.30788873 55.38529387 -3 55 C-3.66 56.32 -4.32 57.64 -5 59 C-6.65 59 -8.3 59 -10 59 C-10.02717692 56.93757383 -10.0464758 54.87504297 -10.0625 52.8125 C-10.07410156 51.66394531 -10.08570312 50.51539063 -10.09765625 49.33203125 C-10.01192832 46.40699414 -9.67849023 43.83683709 -9 41 C-9.61875 40.731875 -10.2375 40.46375 -10.875 40.1875 C-13 39 -13 39 -15 36 C-15 34.68 -15 33.36 -15 32 C-15.804375 31.690625 -16.60875 31.38125 -17.4375 31.0625 C-20 30 -20 30 -21 29 C-21.04063832 27.33382885 -21.042721 25.66611905 -21 24 C-21.598125 23.835 -22.19625 23.67 -22.8125 23.5 C-26.27731881 21.12412424 -27.17405091 17.94888071 -28 14 C-28.96915444 1.49045266 -28.96915444 1.49045266 -26 -3 C-17.48732574 -7.25633713 -7.80041037 -4.31352173 0 0 Z " fill="#386102" transform="translate(44,20)" />
<path d="M0 0 C0.556875 0.020625 0.556875 0.020625 3.375 0.125 C3.705 0.785 4.035 1.445 4.375 2.125 C2.395 2.785 0.415 3.445 -1.625 4.125 C-1.24084942 15.82238512 -1.24084942 15.82238512 1.4375 19.75 C4.18761174 24.54051722 4.29300445 29.6480808 2.87988281 35.00024414 C2.35971542 37.18932385 2.17085979 39.20780422 2.05859375 41.453125 C2.01669922 42.25234375 1.97480469 43.0515625 1.93164062 43.875 C1.89232422 44.7 1.85300781 45.525 1.8125 46.375 C1.76931641 47.21546875 1.72613281 48.0559375 1.68164062 48.921875 C1.57591457 50.98940671 1.47498705 53.05718281 1.375 55.125 C0.385 55.125 -0.605 55.125 -1.625 55.125 C-1.625 54.135 -1.625 53.145 -1.625 52.125 C-2.27855469 52.27839844 -2.93210937 52.43179688 -3.60546875 52.58984375 C-7.37992159 53.25879594 -11.11405996 53.47907297 -14.9375 53.6875 C-15.67806641 53.73068359 -16.41863281 53.77386719 -17.18164062 53.81835938 C-18.99591464 53.92370432 -20.8104355 54.02478316 -22.625 54.125 C-22.955 55.445 -23.285 56.765 -23.625 58.125 C-24.615 58.125 -25.605 58.125 -26.625 58.125 C-26.67947047 56.70876784 -26.71800508 55.29191809 -26.75 53.875 C-26.77320313 53.08609375 -26.79640625 52.2971875 -26.8203125 51.484375 C-26.625 49.125 -26.625 49.125 -24.625 45.125 C-21.325 45.125 -18.025 45.125 -14.625 45.125 C-14.625 45.785 -14.625 46.445 -14.625 47.125 C-12.645 47.125 -10.665 47.125 -8.625 47.125 C-8.955 46.135 -9.285 45.145 -9.625 44.125 C-10.285 43.795 -10.945 43.465 -11.625 43.125 C-11.625 42.465 -11.625 41.805 -11.625 41.125 C-11.3465625 41.3003125 -11.3465625 41.3003125 -9.9375 42.1875 C-7.08613217 43.34345993 -5.53982778 42.93467438 -2.625 42.125 C-1.965 39.815 -1.305 37.505 -0.625 35.125 C-1.12 34.96 -1.12 34.96 -3.625 34.125 C-4.5 32.25 -4.5 32.25 -4.625 30.125 C-4.150625 29.67125 -3.67625 29.2175 -3.1875 28.75 C-1.625 27.125 -1.625 27.125 -1.4375 23.9375 C-1.4684375 23.4734375 -1.4684375 23.4734375 -1.625 21.125 C-2.945 21.455 -4.265 21.785 -5.625 22.125 C-5.79 20.475 -5.79 20.475 -6.625 12.125 C-8.275 12.125 -9.925 12.125 -11.625 12.125 C-12.615 9.815 -13.605 7.505 -14.625 5.125 C-13.635 5.125 -12.645 5.125 -11.625 5.125 C-11.295 5.62 -11.295 5.62 -9.625 8.125 C-9.00625 7.17625 -8.3875 6.2275 -7.75 5.25 C-4.28036723 0.14759887 -4.28036723 0.14759887 0 0 Z " fill="#AC7806" transform="translate(61.625,18.875)" />
<path d="M0 0 C0.99 0.33 1.98 0.66 3 1 C2.67 3.97 2.34 6.94 2 10 C0.68 10 -0.64 10 -2 10 C-2.12375 10.928125 -2.2475 11.85625 -2.375 12.8125 C-3 16 -3 16 -5 19 C-8.37462715 18.45276317 -10.08235 17.9451 -13 16 C-13 14.68 -13 13.36 -13 12 C-14.32 12 -15.64 12 -17 12 C-17.103125 12.639375 -17.20625 13.27875 -17.3125 13.9375 C-17.539375 14.618125 -17.76625 15.29875 -18 16 C-21.62326739 17.2077558 -22.64146369 16.54311128 -26 15 C-25.42655063 12.13275314 -25.1385485 11.1385485 -23 9 C-21.68 9 -20.36 9 -19 9 C-18.67 7.35 -18.34 5.7 -18 4 C-17.34 4 -16.68 4 -16 4 C-16 3.34 -16 2.68 -16 2 C-14.35 2 -12.7 2 -11 2 C-11 2.66 -11 3.32 -11 4 C-10.34 4 -9.68 4 -9 4 C-9 4.99 -9 5.98 -9 7 C-7.68 7 -6.36 7 -5 7 C-4.731875 6.360625 -4.46375 5.72125 -4.1875 5.0625 C-3 3 -3 3 0 2 C0 1.34 0 0.68 0 0 Z " fill="#DFAE0A" transform="translate(51,32)" />
<path d="M0 0 C1.32 0.33 2.64 0.66 4 1 C4.66843378 3.94110865 5.15993478 6.2802935 4.5 9.25 C2.20373889 11.9289713 -0.66081446 12.1500255 -4 13 C-4.33 13.66 -4.66 14.32 -5 15 C-5.99 14.835 -5.99 14.835 -11 14 C-11 12.35 -11 10.7 -11 9 C-11.928125 9.185625 -12.85625 9.37125 -13.8125 9.5625 C-17 10 -17 10 -20 9 C-20 7.35 -20 5.7 -20 4 C-19.34 4 -18.68 4 -18 4 C-18 3.34 -18 2.68 -18 2 C-16.1875 1.3125 -16.1875 1.3125 -14 1 C-12.25 2.3125 -12.25 2.3125 -11 4 C-11 4.66 -11 5.32 -11 6 C-10.34 6 -9.68 6 -9 6 C-9 6.66 -9 7.32 -9 8 C-8.01 8 -7.02 8 -6 8 C-5.731875 7.360625 -5.46375 6.72125 -5.1875 6.0625 C-4 4 -4 4 -1 3 C-0.67 2.01 -0.34 1.02 0 0 Z " fill="#D09B07" transform="translate(51,47)" />
<path d="M0 0 C2 2 2 2 2 5 C0.02 5.33 -1.96 5.66 -4 6 C-3.52013969 11.56890517 -2.70084819 16.67067568 -1 22 C-0.34 22 0.32 22 1 22 C4 27.75 4 27.75 4 30 C4.66 30 5.32 30 6 30 C8.04538889 36.95432222 8.58169634 43.77875787 9 51 C7.35 51 5.7 51 4 51 C4.16886719 50.45859375 4.33773437 49.9171875 4.51171875 49.359375 C5.9729785 42.29856789 4.55084027 34.8785068 1.1328125 28.62109375 C-0.09173858 26.86871893 -1.47264064 25.49165485 -3 24 C-7.01769966 18.60480331 -7.48509627 14.33789077 -7.62890625 7.671875 C-7 5 -7 5 -4.46484375 3.140625 C-4.05814453 2.95242187 -4.05814453 2.95242187 -2 2 C-5.25 1.6875 -5.25 1.6875 -9 2 C-11.25 4.3125 -11.25 4.3125 -13 7 C-13.98230498 8.0173873 -14.97469597 9.02596117 -16 10 C-15.92961913 6.97362266 -15.68639085 4.7901476 -13.65625 2.453125 C-8.9242488 -1.37549415 -5.82173098 -1.4801011 0 0 Z " fill="#324C07" transform="translate(67,18)" />
<path d="M0 0 C2.0625 2.25 2.0625 2.25 3 4 C1.68 4.33 0.36 4.66 -1 5 C-1.20625 4.360625 -1.4125 3.72125 -1.625 3.0625 C-3 1 -3 1 -6.125 0.25 C-7.07375 0.1675 -8.0225 0.085 -9 0 C-9 -0.66 -9 -1.32 -9 -2 C-11.26921536 -2.13489391 -13.5407067 -2.23193995 -15.8125 -2.3125 C-17.07707031 -2.37050781 -18.34164063 -2.42851562 -19.64453125 -2.48828125 C-23 -2 -23 -2 -24.95703125 0.18359375 C-27.0903222 5.94427829 -25.84494204 12.42998748 -23.625 18.0625 C-22 21 -22 21 -19 23 C-18.33333333 25 -17.66666667 27 -17 29 C-16.01 29.66 -15.02 30.32 -14 31 C-13.71125 31.804375 -13.4225 32.60875 -13.125 33.4375 C-11.70699622 36.66739749 -10.01947715 37.33134157 -7 39 C-7 39.66 -7 40.32 -7 41 C-12.75 39.375 -12.75 39.375 -15 36 C-15 34.68 -15 33.36 -15 32 C-15.804375 31.690625 -16.60875 31.38125 -17.4375 31.0625 C-20 30 -20 30 -21 29 C-21.04063832 27.33382885 -21.042721 25.66611905 -21 24 C-21.598125 23.835 -22.19625 23.67 -22.8125 23.5 C-26.27731881 21.12412424 -27.17405091 17.94888071 -28 14 C-28.96915444 1.49045266 -28.96915444 1.49045266 -26 -3 C-17.48732574 -7.25633713 -7.80041037 -4.31352173 0 0 Z " fill="#70520A" transform="translate(44,20)" />
<path d="M0 0 C3.3 0 6.6 0 10 0 C9.67 1.32 9.34 2.64 9 4 C10.216875 4.144375 11.43375 4.28875 12.6875 4.4375 C15.82670377 4.82780953 18.9075134 5.32351856 22 6 C22 5.01 22 4.02 22 3 C22.99 3 23.98 3 25 3 C24.67 4.65 24.34 6.3 24 8 C20.37 8.165 20.37 8.165 2 9 C1.67 10.32 1.34 11.64 1 13 C0.01 13 -0.98 13 -2 13 C-2.05447047 11.58376784 -2.09300508 10.16691809 -2.125 8.75 C-2.14820313 7.96109375 -2.17140625 7.1721875 -2.1953125 6.359375 C-2 4 -2 4 0 0 Z " fill="#5D8017" transform="translate(37,64)" />
<path d="M0 0 C0.66 0.33 1.32 0.66 2 1 C1.690625 1.804375 1.38125 2.60875 1.0625 3.4375 C-0.18565517 7.62249087 -0.6337696 11.66306101 -1 16 C-0.01 16 0.98 16 2 16 C2.061875 15.6803125 2.061875 15.6803125 2.375 14.0625 C2.58125 13.381875 2.7875 12.70125 3 12 C5.29308963 10.85345518 6.79909656 10.80270883 9.3515625 10.68359375 C9.77695312 10.66264648 9.77695312 10.66264648 11.9296875 10.55664062 C12.37441406 10.53698242 12.37441406 10.53698242 14.625 10.4375 C15.5221875 10.39431641 16.419375 10.35113281 17.34375 10.30664062 C19.56234283 10.20043139 21.7810488 10.09838806 24 10 C24 10.99 24 11.98 24 13 C26.97 12.34 29.94 11.68 33 11 C33.66 12.98 34.32 14.96 35 17 C37.375 16.375 37.375 16.375 40 15 C41.3125 11.875 41.3125 11.875 42 9 C42.33 9 42.66 9 43 9 C42.8125 12.3125 42.8125 12.3125 42 16 C39.6875 18.0625 39.6875 18.0625 37 19 C35.64471498 18.37917414 34.31260759 17.70659998 33 17 C24.02121628 14.24145801 14.30788873 14.38529387 5 14 C4.34 15.32 3.68 16.64 3 18 C1.35 18 -0.3 18 -2 18 C-2.054348 15.9377952 -2.09294961 13.87517184 -2.125 11.8125 C-2.14820313 10.66394531 -2.17140625 9.51539062 -2.1953125 8.33203125 C-2.00484152 5.08259628 -1.39360127 2.91339479 0 0 Z " fill="#3F4E0D" transform="translate(36,61)" />
<path d="M0 0 C1.32 0 2.64 0 4 0 C4.33 1.65 4.66 3.3 5 5 C3.02 5.33 1.04 5.66 -1 6 C-1.144375 6.763125 -1.28875 7.52625 -1.4375 8.3125 C-2 11 -2 11 -3 14 C-4.65 14 -6.3 14 -8 14 C-7.8865625 14.2990625 -7.8865625 14.2990625 -7.3125 15.8125 C-7 18 -7 18 -8.1875 19.8125 C-10 21 -10 21 -12.1875 20.6875 C-12.785625 20.460625 -13.38375 20.23375 -14 20 C-14.6875 18.25 -14.6875 18.25 -15 16 C-13.6875 13.75 -13.6875 13.75 -12 12 C-11.34 12 -10.68 12 -10 12 C-9.731875 11.401875 -9.46375 10.80375 -9.1875 10.1875 C-7.99012525 7.98180967 -6.95521016 6.56416813 -5 5 C-4.01 5 -3.02 5 -2 5 C-1.34 3.35 -0.68 1.7 0 0 Z " fill="#F1CC1C" transform="translate(35,21)" />
<path d="M0 0 C0.763125 0.103125 1.52625 0.20625 2.3125 0.3125 C1.9825 1.3025 1.6525 2.2925 1.3125 3.3125 C2.3025 3.6425 3.2925 3.9725 4.3125 4.3125 C5.5 6.375 5.5 6.375 6.3125 8.3125 C5.6525 8.9725 4.9925 9.6325 4.3125 10.3125 C2.9925 10.3125 1.6725 10.3125 0.3125 10.3125 C-0.0175 11.9625 -0.3475 13.6125 -0.6875 15.3125 C-2.02083333 15.3125 -3.35416667 15.3125 -4.6875 15.3125 C-6.11000373 6.48612146 -6.11000373 6.48612146 -4.5625 2.1875 C-2.6875 0.3125 -2.6875 0.3125 0 0 Z " fill="#DFBB12" transform="translate(22.6875,17.6875)" />
<path d="M0 0 C1.65 0 3.3 0 5 0 C5 0.66 5 1.32 5 2 C5.66 2 6.32 2 7 2 C6.6875 4.375 6.6875 4.375 6 7 C3 9 3 9 -0.1875 8.625 C-0.6515625 8.521875 -0.6515625 8.521875 -3 8 C-3.33 9.65 -3.66 11.3 -4 13 C-7.75 14.125 -7.75 14.125 -10 13 C-9.42655063 10.13275314 -9.1385485 9.1385485 -7 7 C-5.68 7 -4.36 7 -3 7 C-2.67 5.35 -2.34 3.7 -2 2 C-1.34 2 -0.68 2 0 2 C0 1.34 0 0.68 0 0 Z " fill="#E4B707" transform="translate(35,34)" />
<path d="M0 0 C3.66830611 3.66830611 3.16060039 7.87167184 3.1875 12.875 C3.20167969 14.06867187 3.21585937 15.26234375 3.23046875 16.4921875 C3.00004992 19.99924022 2.26279461 22.73570089 1 26 C0.01 26 -0.98 26 -2 26 C-2.19865739 17.10456358 -2.33447255 8.67089803 0 0 Z " fill="#4D7E06" transform="translate(65,46)" />
<path d="M0 0 C0.33 0.66 0.66 1.32 1 2 C-0.98 2.66 -2.96 3.32 -5 4 C-5 7.96 -5 11.92 -5 16 C-5.99 14.68 -6.98 13.36 -8 12 C-10.1875 10.75 -10.1875 10.75 -12 10 C-11.69393785 6.6333163 -11.2999963 4.43845613 -9.375 1.625 C-6.16391273 -0.57205971 -3.80341249 -0.29257019 0 0 Z " fill="#6B9516" transform="translate(65,19)" />
<path d="M0 0 C0.33 0.99 0.66 1.98 1 3 C1.61875 2.79375 2.2375 2.5875 2.875 2.375 C3.225625 2.313125 3.225625 2.313125 5 2 C7.1385485 4.1385485 7.42655063 5.13275314 8 8 C9.65 8.33 11.3 8.66 13 9 C13.66 11.64 14.32 14.28 15 17 C14.01 17.66 13.02 18.32 12 19 C10.90341064 15.71023192 11.20046862 14.28696233 12 11 C8.99408312 11.97489196 7.34009578 12.53746974 5.4375 15.125 C4.963125 15.74375 4.48875 16.3625 4 17 C2.68 17 1.36 17 0 17 C-0.33 15.35 -0.66 13.7 -1 12 C0.98 11.67 2.96 11.34 5 11 C5 8.69 5 6.38 5 4 C3.35 4 1.7 4 0 4 C0 2.68 0 1.36 0 0 Z " fill="#BC8A07" transform="translate(42,22)" />
<path d="M0 0 C1.32 0.33 2.64 0.66 4 1 C4.33 2.98 4.66 4.96 5 7 C0.69230769 10.07692308 0.69230769 10.07692308 -2.8125 9.6875 C-3.534375 9.460625 -4.25625 9.23375 -5 9 C-5 7.68 -5 6.36 -5 5 C-4.360625 4.731875 -3.72125 4.46375 -3.0625 4.1875 C-1 3 -1 3 0 0 Z " fill="#E3AE0E" transform="translate(51,47)" />
<path d="M0 0 C0 0.33 0 0.66 0 1 C-0.28294922 1.05478516 -0.28294922 1.05478516 -1.71484375 1.33203125 C-2.08158203 1.41130859 -2.08158203 1.41130859 -3.9375 1.8125 C-4.66839844 1.96332031 -5.39929688 2.11414063 -6.15234375 2.26953125 C-6.76207031 2.51058594 -7.37179688 2.75164063 -8 3 C-10.5990354 10.7971062 -9.65754521 19.10987121 -6.0703125 26.390625 C-5 28 -5 28 -3 29 C-3 29.99 -3 30.98 -3 32 C-4.65 31.67 -6.3 31.34 -8 31 C-11.08886284 22.1562915 -13.43086381 10.12697744 -10 1 C-6.78548731 -0.60725635 -3.56387464 -0.05748185 0 0 Z " fill="#77633F" transform="translate(26,15)" />
<path d="M0 0 C1.32 0.33 2.64 0.66 4 1 C4 1.99 4 2.98 4 4 C3.030625 4.804375 2.06125 5.60875 1.0625 6.4375 C-2.14956547 9.12514662 -2.12013291 9.35483636 -3 13 C-5.4375 14.1875 -5.4375 14.1875 -8 15 C-8.33 15.165 -8.33 15.165 -10 16 C-10.66 15.34 -11.32 14.68 -12 14 C-11.34 13.5875 -10.68 13.175 -10 12.75 C-9.34 12.1725 -8.68 11.595 -8 11 C-8 9.68 -8 8.36 -8 7 C-7.05125 6.773125 -6.1025 6.54625 -5.125 6.3125 C-2 5 -2 5 -0.625 2.375 C-0.41875 1.59125 -0.2125 0.8075 0 0 Z " fill="#C39603" transform="translate(35,28)" />
<path d="M0 0 C2.64 0 5.28 0 8 0 C7.67 1.32 7.34 2.64 7 4 C8.216875 4.144375 9.43375 4.28875 10.6875 4.4375 C13.82670377 4.82780953 16.9075134 5.32351856 20 6 C20 5.01 20 4.02 20 3 C20.99 3 21.98 3 23 3 C22.67 4.65 22.34 6.3 22 8 C6.07061503 6.44191344 6.07061503 6.44191344 0 2 C0 1.34 0 0.68 0 0 Z " fill="#6B6503" transform="translate(39,64)" />
<path d="M0 0 C1.5625 1.6875 1.5625 1.6875 3 4 C2.75925978 7.37036311 2.41201979 8.58798021 0 11 C-2.125 10.625 -2.125 10.625 -4 10 C-4.6875 8.25 -4.6875 8.25 -5 6 C-3.6875 3.75 -3.6875 3.75 -2 2 C-1.34 2 -0.68 2 0 2 C0 1.34 0 0.68 0 0 Z " fill="#DCB60F" transform="translate(25,31)" />
<path d="M0 0 C0.99 0 1.98 0 3 0 C4.34919532 1.65385233 5.68133728 3.321702 7 5 C7.70125 5.350625 8.4025 5.70125 9.125 6.0625 C11 7 11 7 12.3125 8.875 C13.1132654 11.35009306 12.86325845 12.58287634 12 15 C11.34 15 10.68 15 10 15 C8.23537317 11.91190305 8 10.76687864 8 7 C6.35 7 4.7 7 3 7 C2.01 4.69 1.02 2.38 0 0 Z " fill="#6F6406" transform="translate(47,24)" />
<path d="M0 0 C2.71435596 0.93305986 3.78043163 1.62673377 5.25 4.125 C5.4975 4.74375 5.745 5.3625 6 6 C2.52674819 7.1577506 -0.36067448 7.06866652 -4 7 C-4 5.68 -4 4.36 -4 3 C-3.34 3 -2.68 3 -2 3 C-2 2.34 -2 1.68 -2 1 C-1.34 0.67 -0.68 0.34 0 0 Z " fill="#F0C51C" transform="translate(35,48)" />
<path d="M0 0 C0.66 0.66 1.32 1.32 2 2 C1.67 2.99 1.34 3.98 1 5 C0.01 4.34 -0.98 3.68 -2 3 C-2 2.67 -2 2.34 -2 2 C-5.25 1.6875 -5.25 1.6875 -9 2 C-11.25 4.3125 -11.25 4.3125 -13 7 C-13.98230498 8.0173873 -14.97469597 9.02596117 -16 10 C-15.92961913 6.97362266 -15.68639085 4.7901476 -13.65625 2.453125 C-8.9242488 -1.37549415 -5.82173098 -1.4801011 0 0 Z " fill="#485410" transform="translate(67,18)" />
<path d="M0 0 C0.33 0 0.66 0 1 0 C0.8125 3.3125 0.8125 3.3125 0 7 C-2.3125 9.0625 -2.3125 9.0625 -5 10 C-7.1875 9.25 -7.1875 9.25 -9 8 C-9.66 7.67 -10.32 7.34 -11 7 C-11 6.34 -11 5.68 -11 5 C-12.98 5 -14.96 5 -17 5 C-14.36095629 3.58622659 -11.92879371 2.62759865 -9 2 C-8.34 3.98 -7.68 5.96 -7 8 C-4.625 7.375 -4.625 7.375 -2 6 C-0.6875 2.875 -0.6875 2.875 0 0 Z " fill="#374808" transform="translate(78,70)" />
<path d="M0 0 C0.99 0.33 1.98 0.66 3 1 C2.67 3.31 2.34 5.62 2 8 C1.01 8.33 0.02 8.66 -1 9 C-1.99 8.34 -2.98 7.68 -4 7 C-3.6875 5.0625 -3.6875 5.0625 -3 3 C-2.01 2.67 -1.02 2.34 0 2 C0 1.34 0 0.68 0 0 Z " fill="#EDB91E" transform="translate(51,32)" />
<path d="M0 0 C0.99 0.33 1.98 0.66 3 1 C2.34 2.98 1.68 4.96 1 7 C-0.65 7.33 -2.3 7.66 -4 8 C-4 4 -4 4 -2 1.75 C-1.67 1.46125 -1.67 1.46125 0 0 Z " fill="#C79115" transform="translate(58,55)" />
<path d="M0 0 C0.99 0 1.98 0 3 0 C2.67 2.31 2.34 4.62 2 7 C0.35 7.33 -1.3 7.66 -3 8 C-3.33 7.34 -3.66 6.68 -4 6 C-1.68421053 1.68421053 -1.68421053 1.68421053 0 0 Z " fill="#F3CE1D" transform="translate(43,40)" />
<path d="M0 0 C0.99 0.33 1.98 0.66 3 1 C3 1.66 3 2.32 3 3 C1.56712057 4.19961999 0.13026321 5.39501028 -1.33203125 6.55859375 C-3.90422526 8.7814031 -5.89439655 11.33703093 -8 14 C-8.99 12.68 -9.98 11.36 -11 10 C-9.68 9.67 -8.36 9.34 -7 9 C-6.938125 8.38125 -6.87625 7.7625 -6.8125 7.125 C-6.544375 6.42375 -6.27625 5.7225 -6 5 C-4.34795544 4.29788106 -2.68076231 3.63028587 -1 3 C-0.67 2.01 -0.34 1.02 0 0 Z " fill="#BC9605" transform="translate(29,23)" />
<path d="M0 0 C0.5775 0.37125 1.155 0.7425 1.75 1.125 C1.110625 1.3725 0.47125 1.62 -0.1875 1.875 C-2.25 3.125 -2.25 3.125 -3 5.25 C-3.0825 5.86875 -3.165 6.4875 -3.25 7.125 C-3.58 6.465 -3.91 5.805 -4.25 5.125 C-5.075 4.96 -5.9 4.795 -6.75 4.625 C-7.575 4.46 -8.4 4.295 -9.25 4.125 C-9.58 3.465 -9.91 2.805 -10.25 2.125 C-9.96125 2.063125 -9.96125 2.063125 -8.5 1.75 C-6.25 1.125 -6.25 1.125 -4.25 -0.0625 C-2.25 -0.875 -2.25 -0.875 0 0 Z " fill="#6D653F" transform="translate(54.25,18.875)" />
<path d="M0 0 C0.66 0 1.32 0 2 0 C3.125 5.75 3.125 5.75 2 8 C0.35 7.67 -1.3 7.34 -3 7 C-2.25 2.25 -2.25 2.25 0 0 Z " fill="#D19510" transform="translate(58,40)" />
<path d="M0 0 C0.33 0.66 0.66 1.32 1 2 C-2.63 3.32 -6.26 4.64 -10 6 C-10 3 -10 3 -8.9375 1.3125 C-6.02679298 -0.65926927 -3.41970529 -0.19356822 0 0 Z " fill="#8BAB2B" transform="translate(65,19)" />
<path d="M0 0 C0 1.98 0 3.96 0 6 C-1.98 6.33 -3.96 6.66 -6 7 C-6 5.68 -6 4.36 -6 3 C-2.78571429 0 -2.78571429 0 0 0 Z " fill="#F1C62A" transform="translate(52,49)" />
<path d="M0 0 C0.66 0.33 1.32 0.66 2 1 C-1.87564767 4.61139896 -1.87564767 4.61139896 -4 6 C-6.375 5.8125 -6.375 5.8125 -8 5 C-8.103125 5.639375 -8.20625 6.27875 -8.3125 6.9375 C-8.4259375 7.2778125 -8.4259375 7.2778125 -9 9 C-9.99 9.33 -10.98 9.66 -12 10 C-11.34 7.69 -10.68 5.38 -10 3 C-9.0925 3.061875 -8.185 3.12375 -7.25 3.1875 C-3.71017358 2.98327924 -2.55068845 2.35448165 0 0 Z " fill="#D3A50A" transform="translate(42,39)" />
<path d="M0 0 C3.46434582 4.24661746 5.14677086 6.38471252 5.1875 11.875 C5.20167969 12.73867188 5.21585937 13.60234375 5.23046875 14.4921875 C4.98859252 17.1241288 4.32983541 18.73980544 3 21 C2.34 19.35 1.68 17.7 1 16 C1.99 15.67 2.98 15.34 4 15 C3.71640113 13.5608866 3.42278601 12.12374482 3.125 10.6875 C2.96257813 9.88699219 2.80015625 9.08648437 2.6328125 8.26171875 C2 6 2 6 0 3 C0 2.01 0 1.02 0 0 Z " fill="#959122" transform="translate(60,35)" />
<path d="M0 0 C1.32 0 2.64 0 4 0 C4 1.65 4 3.3 4 5 C2.02 5.66 0.04 6.32 -2 7 C-2.33 5.68 -2.66 4.36 -3 3 C-2.01 2.67 -1.02 2.34 0 2 C0 1.34 0 0.68 0 0 Z " fill="#F7D725" transform="translate(35,34)" />
<path d="M0 0 C-0.75 4.75 -0.75 4.75 -3 7 C-4.32 7 -5.64 7 -7 7 C-7 3 -7 3 -5.75 1.25 C-4 0 -4 0 0 0 Z " fill="#718B27" transform="translate(78,71)" />
<path d="M0 0 C2.6875 -0.3125 2.6875 -0.3125 5 0 C5 1.98 5 3.96 5 6 C2.36 5.67 -0.28 5.34 -3 5 C-1.8125 2.5 -1.8125 2.5 0 0 Z " fill="#A3680D" transform="translate(54,64)" />
<path d="M0 0 C0.33 0.66 0.66 1.32 1 2 C3.0625 2.625 3.0625 2.625 5 3 C3.00568695 4.99431305 1.48698402 5.75650799 -1 7 C-2.35113205 7.97581759 -3.68946944 8.97029741 -5 10 C-5.66 9.67 -6.32 9.34 -7 9 C-7.33 9.66 -7.66 10.32 -8 11 C-8.33 9.68 -8.66 8.36 -9 7 C-7.88625 6.773125 -6.7725 6.54625 -5.625 6.3125 C-2 5 -2 5 -0.5625 2.375 C-0.376875 1.59125 -0.19125 0.8075 0 0 Z " fill="#B97706" transform="translate(57,51)" />
<path d="M0 0 C1.32 0.66 2.64 1.32 4 2 C3.34 3.65 2.68 5.3 2 7 C0.35 6.67 -1.3 6.34 -3 6 C-2.42655063 3.13275314 -2.1385485 2.1385485 0 0 Z " fill="#F3CD1C" transform="translate(28,41)" />
<path d="M0 0 C0.825 0.33 0.825 0.33 5 2 C4.9278125 2.309375 4.9278125 2.309375 4.5625 3.875 C3.77943337 8.22537017 3.40153341 12.60021907 3 17 C2.67 17 2.34 17 2 17 C1.80448662 15.39679026 1.61888017 13.79237014 1.4375 12.1875 C1.38529297 11.74083984 1.38529297 11.74083984 1.12109375 9.48046875 C1 7 1 7 2 4 C1.34 3.67 0.68 3.34 0 3 C0 2.01 0 1.02 0 0 Z " fill="#6D663E" transform="translate(31,59)" />
<path d="M0 0 C2.31 0.33 4.62 0.66 7 1 C7 2.32 7 3.64 7 5 C8.98 5 10.96 5 13 5 C12.34 6.32 11.68 7.64 11 9 C11 8.34 11 7.68 11 7 C10.4225 7.2475 9.845 7.495 9.25 7.75 C8.5075 7.8325 7.765 7.915 7 8 C4.75 6.1875 4.75 6.1875 3 4 C3 3.34 3 2.68 3 2 C2.01 1.34 1.02 0.68 0 0 Z " fill="#CCA20E" transform="translate(21,17)" />
<path d="M0 0 C1.32 0 2.64 0 4 0 C4 1.98 4 3.96 4 6 C2.35 6 0.7 6 -1 6 C-1.625 4.125 -1.625 4.125 -2 2 C-1.34 1.34 -0.68 0.68 0 0 Z " fill="#F1C61A" transform="translate(42,27)" />
<path d="M0 0 C0.33 0 0.66 0 1 0 C1 5.94 1 11.88 1 18 C0.01 18 -0.98 18 -2 18 C-1.34 15.36 -0.68 12.72 0 10 C-0.66 10 -1.32 10 -2 10 C-2 9.01 -2 8.02 -2 7 C-1.34 7 -0.68 7 0 7 C0 4.69 0 2.38 0 0 Z " fill="#8D9727" transform="translate(62,56)" />
<path d="M0 0 C2.31282587 3.46923881 2.42478586 4.92205575 2 9 C0.6875 10.875 0.6875 10.875 -1 12 C-1.99 12 -2.98 12 -4 12 C-4.33 11.01 -4.66 10.02 -5 9 C-3.68 8.67 -2.36 8.34 -1 8 C-0.67 5.36 -0.34 2.72 0 0 Z " fill="#976501" transform="translate(62,41)" />
<path d="M0 0 C1.32 0 2.64 0 4 0 C3.67 1.65 3.34 3.3 3 5 C1.35 5.33 -0.3 5.66 -2 6 C-1.125 1.125 -1.125 1.125 0 0 Z " fill="#F0CE20" transform="translate(22,34)" />
<path d="M0 0 C0.66 0 1.32 0 2 0 C3.33517241 7.40413793 3.33517241 7.40413793 1.875 10 C-0.53381842 11.28470316 -2.30972879 11.2181301 -5 11 C-4.5875 10.649375 -4.5875 10.649375 -2.5 8.875 C0 6 0 6 0.3125 2.6875 C0.209375 1.800625 0.10625 0.91375 0 0 Z " fill="#65663D" transform="translate(78,69)" />
<path d="M0 0 C0.66 0 1.32 0 2 0 C1.67 1.65 1.34 3.3 1 5 C1.66 5.33 2.32 5.66 3 6 C2.01 7.98 1.02 9.96 0 12 C-0.33 12 -0.66 12 -1 12 C-1.02698189 10.37509046 -1.04638757 8.75005367 -1.0625 7.125 C-1.07410156 6.22007813 -1.08570313 5.31515625 -1.09765625 4.3828125 C-1 2 -1 2 0 0 Z " fill="#83A22A" transform="translate(37,64)" />
<path d="M0 0 C0.66 0.33 1.32 0.66 2 1 C2 1.99 2 2.98 2 4 C0.68 4 -0.64 4 -2 4 C-2.33 4.99 -2.66 5.98 -3 7 C-3.66 6.67 -4.32 6.34 -5 6 C-5 5.01 -5 4.02 -5 3 C-4.34 3 -3.68 3 -3 3 C-3 2.34 -3 1.68 -3 1 C-2.01 0.67 -1.02 0.34 0 0 Z " fill="#476008" transform="translate(76,67)" />
<path d="M0 0 C0.99 0 1.98 0 3 0 C3 1.65 3 3.3 3 5 C2.01 5.33 1.02 5.66 0 6 C-0.66 5.67 -1.32 5.34 -2 5 C-1.125 1.125 -1.125 1.125 0 0 Z " fill="#EEC11B" transform="translate(42,56)" />
<path d="M0 0 C0.99 0 1.98 0 3 0 C3.33 1.65 3.66 3.3 4 5 C2.35 5 0.7 5 -1 5 C-1.33 4.01 -1.66 3.02 -2 2 C-1.34 1.34 -0.68 0.68 0 0 Z " fill="#EDC71E" transform="translate(29,17)" />
<path d="M0 0 C1.0625 1.8125 1.0625 1.8125 2 4 C0.75453595 7.73639216 -0.63404953 8.18756513 -4 10 C-4.33 9.34 -4.66 8.68 -5 8 C-4.34 8 -3.68 8 -3 8 C-1.92474806 5.34771188 -0.90543849 2.71631546 0 0 Z " fill="#C99509" transform="translate(49,43)" />
<path d="M0 0 C1.32 0 2.64 0 4 0 C3.67 1.65 3.34 3.3 3 5 C1.68 4.67 0.36 4.34 -1 4 C-0.67 2.68 -0.34 1.36 0 0 Z " fill="#F5CE21" transform="translate(23,22)" />
<path d="M0 0 C0.99 0 1.98 0 3 0 C2.67 1.65 2.34 3.3 2 5 C-0.64 4.67 -3.28 4.34 -6 4 C-5.67 3.34 -5.34 2.68 -5 2 C-3.35 2.33 -1.7 2.66 0 3 C0 2.01 0 1.02 0 0 Z " fill="#7F6907" transform="translate(59,67)" />
<path d="M0 0 C0.4846875 0.0103125 0.4846875 0.0103125 2.9375 0.0625 C2.9375 1.0525 2.9375 2.0425 2.9375 3.0625 C2.2775 3.0625 1.6175 3.0625 0.9375 3.0625 C0.6075 4.0525 0.2775 5.0425 -0.0625 6.0625 C-0.0625 5.0725 -0.0625 4.0825 -0.0625 3.0625 C-1.3825 2.4025 -2.7025 1.7425 -4.0625 1.0625 C-3.0625 0.0625 -3.0625 0.0625 0 0 Z " fill="#B48108" transform="translate(37.0625,55.9375)" />
<path d="M0 0 C0.66 0.33 1.32 0.66 2 1 C1.25 6.75 1.25 6.75 -1 9 C-1.09765625 2.84765625 -1.09765625 2.84765625 -1 1 C-0.67 0.67 -0.34 0.34 0 0 Z " fill="#666849" transform="translate(76,57)" />
<path d="M0 0 C0.33 0.99 0.66 1.98 1 3 C0.67 3.66 0.34 4.32 0 5 C-1.32 5 -2.64 5 -4 5 C-3.6875 3.0625 -3.6875 3.0625 -3 1 C-2.01 0.67 -1.02 0.34 0 0 Z " fill="#FBDD3D" transform="translate(44,41)" />
<path d="M0 0 C0.99 0 1.98 0 3 0 C2.67 1.65 2.34 3.3 2 5 C1.01 5 0.02 5 -1 5 C-0.67 3.35 -0.34 1.7 0 0 Z " fill="#EDB82B" transform="translate(56,42)" />
<path d="M0 0 C0.66 0 1.32 0 2 0 C2 1.32 2 2.64 2 4 C0.02 4.33 -1.96 4.66 -4 5 C-2.71937515 3.2925002 -1.38232443 1.62626404 0 0 Z " fill="#E6AD2B" transform="translate(57,56)" />
<path d="M0 0 C0.33 0.99 0.66 1.98 1 3 C0.21625 3.309375 -0.5675 3.61875 -1.375 3.9375 C-4 5 -4 5 -6 6 C-6.66 5.34 -7.32 4.68 -8 4 C-5.6875 2.4375 -5.6875 2.4375 -3 1 C-2.01 1.33 -1.02 1.66 0 2 C0 1.34 0 0.68 0 0 Z " fill="#C69D05" transform="translate(31,38)" />
<path d="M0 0 C0.66 0 1.32 0 2 0 C2.99 1.98 3.98 3.96 5 6 C4.01 6.33 3.02 6.66 2 7 C0.5393715 4.35261084 0 3.10551666 0 0 Z " fill="#8F6601" transform="translate(55,32)" />
<path d="M0 0 C0.99 1.32 1.98 2.64 3 4 C2.34 5.32 1.68 6.64 1 8 C0.34 7.67 -0.32 7.34 -1 7 C-0.67 4.69 -0.34 2.38 0 0 Z " fill="#D18D06" transform="translate(54,33)" />
<path d="M0 0 C0.825 0.165 0.825 0.165 5 1 C4.67 2.32 4.34 3.64 4 5 C3.01 5 2.02 5 1 5 C0.67 3.35 0.34 1.7 0 0 Z " fill="#B98B01" transform="translate(27,35)" />
<path d="M0 0 C0.4021875 0.0103125 0.4021875 0.0103125 2.4375 0.0625 C2.1075 0.2275 2.1075 0.2275 0.4375 1.0625 C0.1075 2.0525 -0.2225 3.0425 -0.5625 4.0625 C-1.5525 3.7325 -2.5425 3.4025 -3.5625 3.0625 C-3.8925 3.7225 -4.2225 4.3825 -4.5625 5.0625 C-3.43829114 0.08386076 -3.43829114 0.08386076 0 0 Z " fill="#EFCF3D" transform="translate(22.5625,17.9375)" />
</svg>