<?xml version='1.0' encoding='utf-8'?>
<svg xmlns="http://www.w3.org/2000/svg" version="1.1" width="102" height="96">
<path d="M0 0 C3.43292163 3.01427265 3.88794532 4.65699166 4.265625 9.18359375 C4.38163183 17.8551045 4.38163183 17.8551045 3 22 C3.886875 22.2475 4.77375 22.495 5.6875 22.75 C9.13156256 24.04964625 11.33024803 25.48729227 14 28 C14 28.66 14 29.32 14 30 C14.5775 30.2475 15.155 30.495 15.75 30.75 C18.29879381 32.16599656 19.94723215 33.94723215 22 36 C22.99 36.33 23.98 36.66 25 37 C23.52307692 41.67692308 23.52307692 41.67692308 20.875 43.3125 C20.25625 43.539375 19.6375 43.76625 19 44 C19 44.66 19 45.32 19 46 C18.01 46 17.02 46 16 46 C16.33 44.35 16.66 42.7 17 41 C16.278125 40.938125 15.55625 40.87625 14.8125 40.8125 C11.11443214 39.74416929 9.55587221 37.82491139 7 35 C6.401875 34.443125 5.80375 33.88625 5.1875 33.3125 C4 32 4 32 4 30 C-1.38692614 28.83811397 -3.43850355 29.07596382 -8 32 C-12.27883593 32.7283125 -13.63533034 32.25246361 -17.25 29.75 C-20.98515614 26.01484386 -21.84033987 24.56999128 -22.375 19.3125 C-22.19758721 12.97294957 -19.55122598 7.82269053 -15.5 3.0625 C-10.40172647 -1.14357566 -6.36326744 -1.91481809 0 0 Z " fill="#C6A44B" transform="translate(39,18)" />
<path d="M0 0 C3.45121898 1.84886731 7.20654226 3.86788657 8.63671875 7.7109375 C9 10 9 10 8.89453125 13.1015625 C8.68156958 22.24877339 8.68156958 22.24877339 11.18847656 25.57861328 C13.6614391 28.01966134 16.36904838 30.02869146 19.21484375 32.01171875 C22 34 22 34 24 37 C24.845625 37.33 25.69125 37.66 26.5625 38 C27.366875 38.33 28.17125 38.66 29 39 C29.33 39.99 29.66 40.98 30 42 C30.53625 41.175 31.0725 40.35 31.625 39.5 C34 37 34 37 37.25 36.6875 C38.1575 36.790625 39.065 36.89375 40 37 C39.34 37.99 38.68 38.98 38 40 C37.195625 40.144375 36.39125 40.28875 35.5625 40.4375 C32.29123409 41.15558276 31.91807448 42.36264759 30 45 C29.5771875 45.165 29.5771875 45.165 27.4375 46 C25 47 25 47 23.6875 49.125 C23.5740625 49.434375 23.5740625 49.434375 23 51 C26.38659794 55.76632302 26.38659794 55.76632302 29.625 57 C32 58 32 58 33.3125 60.625 C33.539375 61.40875 33.76625 62.1925 34 63 C35.98 62.34 37.96 61.68 40 61 C39.690625 60.195625 39.38125 59.39125 39.0625 58.5625 C38.96527048 53.02041737 42.43745159 49.99787228 46 46 C45.01 46 44.02 46 43 46 C41.68 46 40.36 46 39 46 C39.66 43.36 40.32 40.72 41 38 C41.66 38.33 42.32 38.66 43 39 C43 39.99 43 40.98 43 42 C44.65 42.33 46.3 42.66 48 43 C48.68359375 44.796875 48.68359375 44.796875 49 47 C47.78515625 48.640625 47.78515625 48.640625 46.0625 50.25 C43.07098333 53.43319279 43.07098333 53.43319279 42.73828125 56.08984375 C42.76083984 56.43595703 42.76083984 56.43595703 42.875 58.1875 C43 62 43 62 41.375 64.5625 C39 66 39 66 36.25 66.25 C30.73532402 64.12897078 27.35352435 59.58414608 23.4453125 55.29296875 C22 54 22 54 19.0625 53.1875 C15.0394197 51.62753009 14.31188144 49.60381519 12 46 C10.03273437 44.1449206 7.99526937 42.42223561 5.90234375 40.7109375 C4 39 4 39 2.74609375 36.7890625 C1 35 1 35 -2.6171875 34.75 C-4.75538641 34.8459192 -6.8849318 35.00072363 -9.01953125 35.15625 C-12.76905248 35.32382637 -14.72154181 35.17770763 -17.92578125 33.1328125 C-22.28852295 28.6468295 -22.22923012 24.29164572 -22.265625 18.3046875 C-22 16 -22 16 -20 13 C-20.04640625 13.79664063 -20.0928125 14.59328125 -20.140625 15.4140625 C-20.50492726 26.10893611 -20.50492726 26.10893611 -16 31 C-12.4913604 33.33909307 -11.12910567 33.41291057 -7 33 C-6.195625 32.46375 -5.39125 31.9275 -4.5625 31.375 C-2 30 -2 30 1.5625 30.5 C5.42332324 32.18472287 6.62343381 33.59358847 9 37 C14.05617978 42.56179775 14.05617978 42.56179775 18 43 C17.67 44.65 17.34 46.3 17 48 C17.99 48 18.98 48 20 48 C20 47.34 20 46.68 20 46 C21.6454378 44.31237149 23.31288577 42.6459651 25 41 C25.165 40.67 25.165 40.67 26 39 C25.41089844 38.89171875 24.82179687 38.7834375 24.21484375 38.671875 C21.73049439 37.91824521 20.48547726 36.97312974 18.5625 35.25 C17.95664062 34.71246094 17.35078125 34.17492188 16.7265625 33.62109375 C15.24920378 32.23398092 13.83593231 30.77914852 12.4375 29.3125 C9.80164027 26.81181256 7.2615024 25.55245725 4 24 C4.03480469 22.90300781 4.06960937 21.80601563 4.10546875 20.67578125 C4.13361865 19.22136955 4.16091752 17.7669412 4.1875 16.3125 C4.21263672 15.59126953 4.23777344 14.87003906 4.26367188 14.12695312 C4.32606059 9.57257712 4.02105919 6.50335689 1 3 C-1.9531616 1.84970485 -4.85074531 1.78414599 -8 2 C-10.9375 3.4375 -10.9375 3.4375 -13 5 C-13.66 5 -14.32 5 -15 5 C-15.144375 5.309375 -15.144375 5.309375 -15.875 6.875 C-17 9 -17 9 -19 11 C-18.52634425 6.73709821 -16.07761678 4.78451042 -13 2 C-8.75149426 -0.83233716 -4.98965584 -0.65183684 0 0 Z " fill="#5A3F0C" transform="translate(38,16)" />
<path d="M0 0 C3.6875 0.375 3.6875 0.375 6.125 2.375 C8.07848225 6.12568592 8.63307486 9.27750896 7.6875 13.375 C5.4375 16.5 5.4375 16.5 2.6875 19.375 C2.048125 20.48875 1.40875 21.6025 0.75 22.75 C-1.3125 25.375 -1.3125 25.375 -4.3125 26 C-7.883513 25.25603896 -9.07110692 24.19749498 -11.3125 21.375 C-12.75680855 18.48638291 -12.68938506 16.57852299 -12.3125 13.375 C-10.6902546 11.66506566 -9.01836575 10.00152316 -7.3125 8.375 C-6.10984013 6.09140696 -5.24178471 3.79114026 -4.3125 1.375 C-3.3125 0.375 -3.3125 0.375 0 0 Z " fill="#6D664E" transform="translate(32.3125,20.625)" />
<path d="M0 0 C3.6875 -0.25 3.6875 -0.25 7 0 C6.67 2.31 6.34 4.62 6 7 C7.98 6.34 9.96 5.68 12 5 C12.33 5.66 12.66 6.32 13 7 C12.48308594 7.58007812 11.96617188 8.16015625 11.43359375 8.7578125 C5.95909501 15.25007519 5.95909501 15.25007519 6.1875 19.4375 C6.455625 20.283125 6.72375 21.12875 7 22 C5 24 5 24 2.375 24.125 C1.59125 24.08375 0.8075 24.0425 0 24 C-0.20625 23.21625 -0.4125 22.4325 -0.625 21.625 C-2.48302586 18.07785972 -4.27953853 18.19054767 -8 17 C-10.375 14.375 -10.375 14.375 -12 12 C-10.84826645 9.53199953 -9.95216435 7.95216435 -8 6 C-7.195625 5.71125 -6.39125 5.4225 -5.5625 5.125 C-3 4 -3 4 -1.625 1.875 C-1.08875 1.25625 -0.5525 0.6375 0 0 Z " fill="#D5AC48" transform="translate(72,55)" />
<path d="M0 0 C3.45121898 1.84886731 7.20654226 3.86788657 8.63671875 7.7109375 C9 10 9 10 8.89453125 13.1015625 C8.68156958 22.24877339 8.68156958 22.24877339 11.18847656 25.57861328 C13.6614391 28.01966134 16.36904838 30.02869146 19.21484375 32.01171875 C22 34 22 34 24 37 C24.845625 37.33 25.69125 37.66 26.5625 38 C27.366875 38.33 28.17125 38.66 29 39 C29.33 39.99 29.66 40.98 30 42 C30.53625 41.175 31.0725 40.35 31.625 39.5 C34 37 34 37 37.25 36.6875 C38.1575 36.790625 39.065 36.89375 40 37 C39.34 37.99 38.68 38.98 38 40 C36.33333333 40.33333333 34.66666667 40.66666667 33 41 C32.34 41.99 31.68 42.98 31 44 C30.01 44 29.02 44 28 44 C27.773125 43.401875 27.54625 42.80375 27.3125 42.1875 C25.63067879 39.38446465 23.83299323 38.60965524 21 37 C17.96314333 34.5958218 15.17203133 32.1806329 12.5 29.375 C9.83344829 26.84177588 7.30117953 25.56896719 4 24 C4.03480469 22.90300781 4.06960937 21.80601563 4.10546875 20.67578125 C4.13361865 19.22136955 4.16091752 17.7669412 4.1875 16.3125 C4.21263672 15.59126953 4.23777344 14.87003906 4.26367188 14.12695312 C4.32606059 9.57257712 4.02105919 6.50335689 1 3 C-1.9531616 1.84970485 -4.85074531 1.78414599 -8 2 C-10.9375 3.4375 -10.9375 3.4375 -13 5 C-13.66 5 -14.32 5 -15 5 C-15.28875 5.61875 -15.5775 6.2375 -15.875 6.875 C-17 9 -17 9 -19 11 C-18.52634425 6.73709821 -16.07761678 4.78451042 -13 2 C-8.75149426 -0.83233716 -4.98965584 -0.65183684 0 0 Z " fill="#59410C" transform="translate(38,16)" />
<path d="M0 0 C3.48024674 3.0558264 3.90793711 4.68615332 4.23046875 9.2890625 C4.24816183 12.53751289 4.17323859 15.75658862 4 19 C3.34 19.33 2.68 19.66 2 20 C1.01 19.34 0.02 18.68 -1 18 C-0.67 17.34 -0.34 16.68 0 16 C0.44810544 9.05436573 0.44810544 9.05436573 -1.0625 5.5 C-3.96134638 3.25573183 -6.45385476 3.7323664 -10 4 C-10.24234375 4.53109375 -10.4846875 5.0621875 -10.734375 5.609375 C-13.56673114 11.57911025 -13.56673114 11.57911025 -16.1875 14.125 C-18.57964245 16.59963012 -18.69458207 18.64040275 -19 22 C-19.66 22 -20.32 22 -21 22 C-21.4596029 14.4931526 -20.68316015 9.09595401 -15.5625 3.1875 C-10.48260117 -1.148999 -6.42269616 -1.93270123 0 0 Z " fill="#DFBB66" transform="translate(39,18)" />
<path d="M0 0 C1.32 0.33 2.64 0.66 4 1 C4 1.66 4 2.32 4 3 C4.825 3.33 4.825 3.33 9 5 C9 5.66 9 6.32 9 7 C10.32 7 11.64 7 13 7 C15.5 9.25 15.5 9.25 18 12 C20.58800147 14.82327433 22.14514415 16.44930631 26 17 C24.71937515 18.7074998 23.38232443 20.37373596 22 22 C21.34 22 20.68 22 20 22 C20 22.66 20 23.32 20 24 C19.01 24 18.02 24 17 24 C17.33 22.35 17.66 20.7 18 19 C17.278125 18.938125 16.55625 18.87625 15.8125 18.8125 C12.11443214 17.74416929 10.55587221 15.82491139 8 13 C7.7009375 12.7215625 7.7009375 12.7215625 6.1875 11.3125 C5 10 5 10 5 8 C3.68 7.67 2.36 7.34 1 7 C0.67 4.69 0.34 2.38 0 0 Z " fill="#CFA944" transform="translate(38,40)" />
<path d="M0 0 C3.6875 0.375 3.6875 0.375 6.125 2.375 C8.07848225 6.12568592 8.63307486 9.27750896 7.6875 13.375 C5.4375 16.5 5.4375 16.5 2.6875 19.375 C2.048125 20.48875 1.40875 21.6025 0.75 22.75 C-1.3125 25.375 -1.3125 25.375 -4.3125 26 C-7.883513 25.25603896 -9.07110692 24.19749498 -11.3125 21.375 C-12.75680855 18.48638291 -12.68938506 16.57852299 -12.3125 13.375 C-10.6902546 11.66506566 -9.01836575 10.00152316 -7.3125 8.375 C-6.10984013 6.09140696 -5.24178471 3.79114026 -4.3125 1.375 C-3.3125 0.375 -3.3125 0.375 0 0 Z M-0.3125 2.375 C-2.72957693 5.09421154 -4.502931 8.22792348 -6.3125 11.375 C-6.51875 11.705 -6.51875 11.705 -7.5625 13.375 C-8.57426657 16.07304418 -8.15069753 17.65085802 -7.3125 20.375 C-6.6525 21.365 -5.9925 22.355 -5.3125 23.375 C-3.6625 23.045 -2.0125 22.715 -0.3125 22.375 C-0.23 21.42625 -0.1475 20.4775 -0.0625 19.5 C0.6875 16.375 0.6875 16.375 2.6875 15.0625 C3.0175 14.9490625 3.0175 14.9490625 4.6875 14.375 C5.6875 13.375 5.6875 13.375 5.9375 9.5 C5.88961632 5.68298678 5.88961632 5.68298678 4.375 3.375 C2.6875 2.375 2.6875 2.375 -0.3125 2.375 Z " fill="#7A5714" transform="translate(32.3125,20.625)" />
<path d="M0 0 C0.66 0.33 1.32 0.66 2 1 C2 1.99 2 2.98 2 4 C2.825 4.165 2.825 4.165 7 5 C7.68359375 6.796875 7.68359375 6.796875 8 9 C6.78515625 10.640625 6.78515625 10.640625 5.0625 12.25 C2.07098333 15.43319279 2.07098333 15.43319279 1.73828125 18.08984375 C1.78339844 18.78207031 1.82851562 19.47429687 1.875 20.1875 C2 24 2 24 0.375 26.5625 C-2 28 -2 28 -5 28.125 C-9.53325589 26.42502904 -10.91366493 23.17267015 -13 19 C-11.125 19.1875 -11.125 19.1875 -9 20 C-7.75 22.5625 -7.75 22.5625 -7 25 C-5.02 24.34 -3.04 23.68 -1 23 C-1.309375 22.195625 -1.61875 21.39125 -1.9375 20.5625 C-2.03472952 15.02041737 1.43745159 11.99787228 5 8 C4.01 8 3.02 8 2 8 C0.68 8 -0.64 8 -2 8 C-1.34 5.36 -0.68 2.72 0 0 Z " fill="#5E4914" transform="translate(79,54)" />
<path d="M0 0 C0.33 0 0.66 0 1 0 C1 2.31 1 4.62 1 7 C1.99 7 2.98 7 4 7 C4.33 8.32 4.66 9.64 5 11 C7.97 11.33 10.94 11.66 14 12 C14.66 11.01 15.32 10.02 16 9 C16.99 9.33 17.98 9.66 19 10 C18.75 12.375 18.75 12.375 18 15 C15.73576866 16.76106882 13.9607072 17.00597934 11.125 17.4375 C6.28899081 16.76045871 3.5208462 14.00475181 0.625 10.1875 C-0.35130408 6.77043572 -0.11814819 3.54444557 0 0 Z " fill="#C7A24D" transform="translate(17,33)" />
<path d="M0 0 C6.3782235 -0.48137536 6.3782235 -0.48137536 8.9375 1.5 C10.44545502 5.04812945 10.78912525 8.25708483 10 12 C7.6875 15.1875 7.6875 15.1875 5 18 C4.525625 18.94875 4.05125 19.8975 3.5625 20.875 C2 23 2 23 -1 23.5625 C-4 23 -4 23 -5.875 21.3125 C-7.16185671 18.66729453 -7.24213848 16.90566174 -7 14 C-6.71125 14.598125 -6.4225 15.19625 -6.125 15.8125 C-5 18 -5 18 -3 21 C-1.68 21 -0.36 21 1 21 C1.2475 20.071875 1.495 19.14375 1.75 18.1875 C3 15 3 15 5.125 13.625 C7 12 7 12 7.328125 10.11328125 C7.375 7.9375 7.375 7.9375 7 4 C6.34 3.34 5.68 2.68 5 2 C3 2.0625 3 2.0625 1 3 C-0.25 5.5625 -0.25 5.5625 -1 8 C-1.93065133 5.39417629 -2.14917407 4.35801776 -1.0625 1.75 C-0.711875 1.1725 -0.36125 0.595 0 0 Z " fill="#5B470F" transform="translate(30,22)" />
<path d="M0 0 C3.2138627 1.60693135 5.16978419 2.94336169 7.375 5.75 C8.33315962 9.19937462 8.11908512 12.42744626 8 16 C7.01 16.33 6.02 16.66 5 17 C4.96261719 16.40832031 4.92523438 15.81664062 4.88671875 15.20703125 C4.1316726 6.1316726 4.1316726 6.1316726 1 3 C-3.3780176 1.64771657 -6.79228191 1.40898902 -10.9375 3.4375 C-11.618125 3.953125 -12.29875 4.46875 -13 5 C-13.66 5 -14.32 5 -15 5 C-15.28875 5.61875 -15.5775 6.2375 -15.875 6.875 C-17 9 -17 9 -19 11 C-18.52634425 6.73709821 -16.07761678 4.78451042 -13 2 C-8.74347138 -0.83768574 -4.99717834 -0.63727624 0 0 Z " fill="#5A470D" transform="translate(38,16)" />
<path d="M0 0 C1.65 0.33 3.3 0.66 5 1 C3.24191613 6.27425162 1.92779235 9.07220765 -2 13 C-2.75 16.25 -2.75 16.25 -3 19 C-3.66 19 -4.32 19 -5 19 C-5.47191953 11.29198093 -4.33819529 6.50729293 0 0 Z " fill="#DAAE53" transform="translate(23,21)" />
<path d="M0 0 C1.32 0.33 2.64 0.66 4 1 C4 1.66 4 2.32 4 3 C4.825 3.33 4.825 3.33 9 5 C9 5.66 9 6.32 9 7 C9.66 7 10.32 7 11 7 C13 10 13 10 13 13 C8.40518596 12.02941007 4.49928734 10.1629714 1 7 C0 3.1875 0 3.1875 0 0 Z " fill="#F0CC6F" transform="translate(38,40)" />
<path d="M0 0 C2.31 0 4.62 0 7 0 C6.67 2.31 6.34 4.62 6 7 C7.98 6.34 9.96 5.68 12 5 C12.33 5.66 12.66 6.32 13 7 C11.71937515 8.7074998 10.38232443 10.37373596 9 12 C8.34 12 7.68 12 7 12 C5.63360658 10.3603279 4.3050581 8.68889872 3 7 C1.68505488 5.64852862 0.35735142 4.30887458 -1 3 C-0.67 2.01 -0.34 1.02 0 0 Z " fill="#D4B860" transform="translate(72,55)" />
<path d="M0 0 C7.26156584 3.97330961 7.26156584 3.97330961 10 7 C10.66 7.33 11.32 7.66 12 8 C12.33 8.99 12.66 9.98 13 11 C15.0625 11.6875 15.0625 11.6875 17 12 C16.67 10.02 16.34 8.04 16 6 C16.99 6.66 17.98 7.32 19 8 C18.125 12.875 18.125 12.875 17 14 C15.33382885 14.04063832 13.66611905 14.042721 12 14 C11.79375 13.21625 11.5875 12.4325 11.375 11.625 C9.51697414 8.07785972 7.72046147 8.19054767 4 7 C0 2.78947368 0 2.78947368 0 0 Z " fill="#AB8532" transform="translate(60,65)" />
<path d="M0 0 C0.9517033 2.8551099 0.96172069 4.79110571 0.8125 7.875 C0.74730272 12.24321802 2.18697909 14.62437491 5 18 C8.5086396 20.33909307 9.87089433 20.41291057 14 20 C16.75 18.5 16.75 18.5 19 17 C19.66 17 20.32 17 21 17 C21 17.99 21 18.98 21 20 C16.22878731 22.54464677 11.27178745 22.70232695 6 22 C2.90568392 20.2594472 1.53178544 18.86098594 -0.3125 15.875 C-1.56495294 10.63746953 -1.70798 5.12394 0 0 Z " fill="#55400C" transform="translate(17,29)" />
<path d="M0 0 C4.13937592 3.30015998 7.58662205 6.17324411 10 11 C9.01 11.99 8.02 12.98 7 14 C5.87278564 12.73113036 4.74831342 11.45982438 3.625 10.1875 C2.99851562 9.47980469 2.37203125 8.77210937 1.7265625 8.04296875 C0 6 0 6 -2 3 C-1.34 2.01 -0.68 1.02 0 0 Z " fill="#BC9630" transform="translate(70,57)" />
<path d="M0 0 C3.02515469 0.32412372 3.91241339 0.89828652 5.9375 3.25 C6.618125 4.1575 7.29875 5.065 8 6 C13.05617978 11.56179775 13.05617978 11.56179775 17 12 C17 13.98 17 15.96 17 18 C16.34 18 15.68 18 15 18 C15 17.01 15 16.02 15 15 C14.71382812 14.87560547 14.71382812 14.87560547 13.265625 14.24609375 C10.66499322 12.81574627 8.85253401 11.15335326 6.75 9.0625 C6.04359375 8.37285156 5.3371875 7.68320312 4.609375 6.97265625 C3 5 3 5 3 2 C2.01 1.67 1.02 1.34 0 1 C0 0.67 0 0.34 0 0 Z " fill="#A88229" transform="translate(39,47)" />
<path d="M0 0 C1.65 1.32 3.3 2.64 5 4 C4.67 4.66 4.34 5.32 4 6 C4.78375 6.103125 5.5675 6.20625 6.375 6.3125 C9 7 9 7 11 10 C11 10.99 11 11.98 11 13 C10.34 13 9.68 13 9 13 C9 12.34 9 11.68 9 11 C8.2575 10.7525 7.515 10.505 6.75 10.25 C3.78369755 8.9016807 2.20602206 7.35816151 0 5 C-0.66 4.67 -1.32 4.34 -2 4 C-1.34 2.68 -0.68 1.36 0 0 Z " fill="#E2B957" transform="translate(63,62)" />
<path d="M0 0 C0.99 0.33 1.98 0.66 3 1 C2.360625 1.20625 1.72125 1.4125 1.0625 1.625 C-1 3 -1 3 -1.75 6.125 C-1.8325 7.07375 -1.915 8.0225 -2 9 C-3.65 9.33 -5.3 9.66 -7 10 C-9.62386487 6.93882432 -10 6.26826873 -10 2 C-9.01 2 -8.02 2 -7 2 C-5 5.875 -5 5.875 -5 7 C-4.34 7 -3.68 7 -3 7 C-2.938125 6.5153125 -2.938125 6.5153125 -2.625 4.0625 C-2.41875 3.051875 -2.2125 2.04125 -2 1 C-1.34 0.67 -0.68 0.34 0 0 Z " fill="#706343" transform="translate(34,34)" />
<path d="M0 0 C0.66 0 1.32 0 2 0 C2.33 1.65 2.66 3.3 3 5 C3.99 5.33 4.98 5.66 6 6 C6.33 7.65 6.66 9.3 7 11 C5.66666667 10.33333333 4.33333333 9.66666667 3 9 C1.989375 8.54625 0.97875 8.0925 -0.0625 7.625 C-2.97426679 6.0142354 -4.27004132 4.78715566 -6 2 C-3.33333333 3.33333333 -0.66666667 4.66666667 2 6 C1.34 4.02 0.68 2.04 0 0 Z " fill="#E2B859" transform="translate(49,47)" />
<path d="M0 0 C0.28875 0.639375 0.5775 1.27875 0.875 1.9375 C2 4 2 4 4 5 C3.2575 5.2475 2.515 5.495 1.75 5.75 C-1 7 -1 7 -3 9.1875 C-3.33 9.4865625 -3.33 9.4865625 -5 11 C-7.75 10.75 -7.75 10.75 -10 10 C-8.68 9.34 -7.36 8.68 -6 8 C-6 7.34 -6 6.68 -6 6 C-4.37550757 4.29220027 -2.70779973 2.62449243 -1 1 C-0.67 0.67 -0.34 0.34 0 0 Z " fill="#855C0E" transform="translate(64,56)" />
<path d="M0 0 C2.5 1.375 2.5 1.375 5 3 C5 3.66 5 4.32 5 5 C5.5775 5.2475 6.155 5.495 6.75 5.75 C9.30958921 7.17199401 10.96987323 8.90438527 13 11 C13.99 11.66 14.98 12.32 16 13 C14.35 13.33 12.7 13.66 11 14 C11 13.01 11 12.02 11 11 C10.4225 10.731875 9.845 10.46375 9.25 10.1875 C6.94449957 8.97070811 4.97943808 7.69666121 3 6 C3 5.34 3 4.68 3 4 C2.34 4 1.68 4 1 4 C0.67 2.68 0.34 1.36 0 0 Z " fill="#AB8E2F" transform="translate(48,43)" />
<path d="M0 0 C1.32 0.33 2.64 0.66 4 1 C2.71937515 2.7074998 1.38232443 4.37373596 0 6 C-0.66 6 -1.32 6 -2 6 C-2 6.66 -2 7.32 -2 8 C-2.99 8 -3.98 8 -5 8 C-5 7.01 -5 6.02 -5 5 C-4.34 5 -3.68 5 -3 5 C-2.67 4.01 -2.34 3.02 -2 2 C-1.34 2 -0.68 2 0 2 C0 1.34 0 0.68 0 0 Z " fill="#D7AB4F" transform="translate(60,56)" />
<path d="M0 0 C0.680625 0.70125 1.36125 1.4025 2.0625 2.125 C5.20780513 5.27934337 8.5888386 8.13934304 12 11 C11.34 11.66 10.68 12.32 10 13 C9.46890625 12.52949219 8.9378125 12.05898438 8.390625 11.57421875 C7.68421875 10.95160156 6.9778125 10.32898437 6.25 9.6875 C5.55390625 9.07261719 4.8578125 8.45773438 4.140625 7.82421875 C2.14885494 6.12685266 0.11101085 4.54522191 -2 3 C-1.34 3 -0.68 3 0 3 C0 2.01 0 1.02 0 0 Z " fill="#614815" transform="translate(46,37)" />
<path d="M0 0 C3 0 3 0 5.5625 2.25 C7.57275078 4.51797524 8.87225206 6.23189141 10 9 C3.37446809 7.52765957 3.37446809 7.52765957 1.625 5.0625 C1.41875 4.381875 1.2125 3.70125 1 3 C0.67 2.01 0.34 1.02 0 0 Z " fill="#C8A238" transform="translate(64,61)" />
<path d="M0 0 C3 1 3 1 4.1875 3.25 C4.99938294 5.99791147 5.16260121 8.15447889 5 11 C4.01 11.33 3.02 11.66 2 12 C1.93941406 11.38511719 1.87882812 10.77023438 1.81640625 10.13671875 C1.73261719 9.32847656 1.64882813 8.52023438 1.5625 7.6875 C1.48128906 6.88699219 1.40007813 6.08648437 1.31640625 5.26171875 C1 3 1 3 0 0 Z " fill="#8C691D" transform="translate(41,21)" />
<path d="M0 0 C0.66 0 1.32 0 2 0 C3.41687119 4.25061356 2.19320039 6.71851625 1 11 C0.34 11 -0.32 11 -1 11 C-1.0270043 9.54176788 -1.04639787 8.08339325 -1.0625 6.625 C-1.07410156 5.81289063 -1.08570312 5.00078125 -1.09765625 4.1640625 C-1 2 -1 2 0 0 Z " fill="#DBB95C" transform="translate(19,29)" />
<path d="M0 0 C3.00617269 3.00617269 2.59585316 5.82381598 3 10 C2.01 9.67 1.02 9.34 0 9 C-1.3125 6.125 -1.3125 6.125 -2 3 C-1.34 2.01 -0.68 1.02 0 0 Z " fill="#A9862A" transform="translate(36,37)" />
<path d="M0 0 C1.32 0.66 2.64 1.32 4 2 C4 3.65 4 5.3 4 7 C2.0625 6.25 2.0625 6.25 0 5 C-0.8125 2.9375 -0.8125 2.9375 -1 1 C-0.67 0.67 -0.34 0.34 0 0 Z " fill="#DDBE59" transform="translate(72,55)" />
<path d="M0 0 C1.875 0.1875 1.875 0.1875 4 1 C5.25 3.5625 5.25 3.5625 6 6 C7.65 6 9.3 6 11 6 C9.1875 7.0625 9.1875 7.0625 7 8 C3.23558416 6.74519472 2.82680543 5.40450103 1 2 C0.67 1.34 0.34 0.68 0 0 Z " fill="#765912" transform="translate(66,73)" />
<path d="M0 0 C2.99324263 1.0975223 3.84610901 1.67682892 5.25 4.625 C5.4975 5.40875 5.745 6.1925 6 7 C5.01 7 4.02 7 3 7 C2.34 6.01 1.68 5.02 1 4 C-1.125 2.8125 -1.125 2.8125 -3 2 C-2.01 2 -1.02 2 0 2 C0 1.34 0 0.68 0 0 Z " fill="#684817" transform="translate(38,47)" />
<path d="M0 0 C0.66 0.99 1.32 1.98 2 3 C1.34 3 0.68 3 0 3 C-0.33 5.31 -0.66 7.62 -1 10 C-1.33 9.34 -1.66 8.68 -2 8 C-2.66 8 -3.32 8 -4 8 C-2.87548273 5.0280615 -1.77706209 2.66559313 0 0 Z " fill="#C4A350" transform="translate(23,21)" />
<path d="M0 0 C6.57142857 4 6.57142857 4 8 8 C1.42857143 4 1.42857143 4 0 0 Z " fill="#B48A23" transform="translate(71,59)" />
<path d="M0 0 C1.98 0 3.96 0 6 0 C6 1.98 6 3.96 6 6 C5.34 6 4.68 6 4 6 C4 5.01 4 4.02 4 3 C2.68 2.34 1.36 1.68 0 1 C0 0.67 0 0.34 0 0 Z " fill="#9B761D" transform="translate(50,59)" />
<path d="M0 0 C3.7952131 1.49097658 5.61042731 3.75700849 8 7 C5.05043472 5.63055898 2.47531189 4.12169591 0 2 C0 1.34 0 0.68 0 0 Z " fill="#E3BB4E" transform="translate(67,61)" />
<path d="M0 0 C3.70129644 0.38961015 5.61879622 1.11749016 8 4 C2.46153846 4.36923077 2.46153846 4.36923077 0.125 2.5 C-0.24625 2.005 -0.6175 1.51 -1 1 C-0.67 0.67 -0.34 0.34 0 0 Z " fill="#B09548" transform="translate(23,46)" />
<path d="M0 0 C1.98 0 3.96 0 6 0 C5.401875 0.20625 4.80375 0.4125 4.1875 0.625 C1.18981233 2.50926082 0.38638224 4.81132084 -1 8 C-1.93065133 5.39417629 -2.14917407 4.35801776 -1.0625 1.75 C-0.711875 1.1725 -0.36125 0.595 0 0 Z " fill="#4E3706" transform="translate(30,22)" />
</svg>