<?xml version='1.0' encoding='utf-8'?>
<svg xmlns="http://www.w3.org/2000/svg" version="1.1" width="91" height="91">
<path d="M0 0 C6.63508012 -0.48060943 11.61033026 -0.2778993 17 4 C18.32081748 5.19923596 19.63246459 6.4086085 20.9375 7.625 C29.16016374 15.18249128 39.32513757 20.52176621 49 26 C49 26.66 49 27.32 49 28 C49.66 28 50.32 28 51 28 C53.14875265 32.29750531 52.6705163 37.35667464 52 42 C48.95035095 48.75943554 43.97218189 54.2700094 37 57 C34.02067898 57.90599236 31.94587579 58.09106511 29 57 C25.89182315 54.33925744 23.49232947 51.23042299 21 48 C8.20351391 32.80234261 8.20351391 32.80234261 1 28 C1 27.34 1 26.68 1 26 C0.38125 25.731875 -0.2375 25.46375 -0.875 25.1875 C-3 24 -3 24 -5 21 C-5.70642727 15.70179545 -4.17334238 13.17067856 -1 9 C-0.4225 8.21625 0.155 7.4325 0.75 6.625 C1.1625 6.08875 1.575 5.5525 2 5 C1.34 5 0.68 5 0 5 C0 3.35 0 1.7 0 0 Z " fill="#BEABC1" transform="translate(22,17)" />
<path d="M0 0 C2 0.25 2 0.25 4 1 C4.33 1.99 4.66 2.98 5 4 C6.8125 5 6.8125 5 9 6 C11.25 7.5 11.25 7.5 13 9 C13 9.66 13 10.32 13 11 C13.556875 11.268125 14.11375 11.53625 14.6875 11.8125 C17.21225334 13.10899496 19.63714484 14.42476323 22 16 C22 16.66 22 17.32 22 18 C22.57621094 18.2784375 23.15242188 18.556875 23.74609375 18.84375 C25.93172454 19.96497481 27.98669735 21.18812472 30.0625 22.5 C30.73410156 22.9228125 31.40570313 23.345625 32.09765625 23.78125 C33.74368832 24.83579211 35.37345752 25.91563835 37 27 C36.54109375 27.4846875 36.0821875 27.969375 35.609375 28.46875 C31.40998532 33.05631856 28.53511826 37.32133509 26 43 C22.34924186 41.49867699 20.36723727 39.41104665 17.8125 36.4375 C6.73789382 23.82526254 6.73789382 23.82526254 1 20 C1 19.34 1 18.68 1 18 C0.38125 17.731875 -0.2375 17.46375 -0.875 17.1875 C-3 16 -3 16 -5 13 C-5.5417775 8.93666874 -5.15929155 7.27233717 -3.0625 3.6875 C-1 1 -1 1 0 0 Z " fill="#ECD6E8" transform="translate(22,25)" />
<path d="M0 0 C0.99 0.33 1.98 0.66 3 1 C3 1.66 3 2.32 3 3 C3.66 3 4.32 3 5 3 C7.14875265 7.29750531 6.6705163 12.35667464 6 17 C2.97458953 23.70571163 -2.02771037 29.35717022 -9 32 C-12.04535625 32.61572777 -13.82311004 32.47653349 -17 32 C-19.5 30 -19.5 30 -21 28 C-18.75200844 22.12063747 -16.36334691 16.62779218 -12 12 C-9.75 11.1875 -9.75 11.1875 -8 11 C-8 10.34 -8 9.68 -8 9 C-8 8.67 -8 8.34 -8 8 C-8.66 8 -9.32 8 -10 8 C-10 7.34 -10 6.68 -10 6 C-6.7 5.34 -3.4 4.68 0 4 C0 2.68 0 1.36 0 0 Z " fill="#807390" transform="translate(68,42)" />
<path d="M0 0 C0.185625 0.61875 0.37125 1.2375 0.5625 1.875 C2.69870324 5.03286566 5.40704277 5.05448494 9 6 C11.78890121 7.85926748 11.96517442 8.83853592 12.6875 12.1875 C12.790625 13.115625 12.89375 14.04375 13 15 C13.66 15 14.32 15 15 15 C15.33 16.32 15.66 17.64 16 19 C18.31 19 20.62 19 23 19 C23.33 20.32 23.66 21.64 24 23 C24.66 23 25.32 23 26 23 C26.33 24.98 26.66 26.96 27 29 C27.66 29 28.32 29 29 29 C29.33 29.66 29.66 30.32 30 31 C30.99 31 31.98 31 33 31 C32.34 32.65 31.68 34.3 31 36 C27.34924186 34.49867699 25.36723727 32.41104665 22.8125 29.4375 C11.73789382 16.82526254 11.73789382 16.82526254 6 13 C6 12.34 6 11.68 6 11 C5.38125 10.731875 4.7625 10.46375 4.125 10.1875 C2 9 2 9 0 6 C-0.125 2.8125 -0.125 2.8125 0 0 Z " fill="#B9A6B2" transform="translate(17,32)" />
<path d="M0 0 C6.01854033 -0.36111242 9.94053308 0.36149168 14.58984375 4.37109375 C15.17894531 4.90863281 15.76804687 5.44617188 16.375 6 C25.18251949 13.97917312 35.69782915 20.37802633 45.86328125 26.46484375 C49.00485117 28.72194974 50.71375378 30.61092921 51.50390625 34.4453125 C51.67088274 42.08170419 49.7693363 47.04093868 45 53 C41.3925511 56.74709208 37.24829569 60.70362266 31.859375 61.1953125 C31.51132812 61.18371094 31.51132812 61.18371094 29.75 61.125 C28.5125 61.08375 27.275 61.0425 26 61 C26 60.34 26 59.68 26 59 C26.67546875 58.89042969 27.3509375 58.78085938 28.046875 58.66796875 C28.93890625 58.50941406 29.8309375 58.35085937 30.75 58.1875 C31.63171875 58.03667969 32.5134375 57.88585937 33.421875 57.73046875 C36.20000356 56.94333232 37.76130354 55.77635698 40 54 C40.66 54 41.32 54 42 54 C42.2475 53.46375 42.495 52.9275 42.75 52.375 C44 50 44 50 46.125 47.625 C49.60366079 42.67757132 48.28289688 35.73652013 48 30 C47.34 30 46.68 30 46 30 C46 29.34 46 28.68 46 28 C45.3090625 27.74089844 44.618125 27.48179688 43.90625 27.21484375 C34.32446387 23.20955412 26.24601395 17.6767274 18.48999023 10.87963867 C12.78686792 5.88511014 7.7952422 1.58464317 0 1 C0 0.67 0 0.34 0 0 Z " fill="#493C3F" transform="translate(25,15)" />
<path d="M0 0 C5.75 1.75 5.75 1.75 8 4 C8.125 7.125 8.125 7.125 8 10 C7.34 10 6.68 10 6 10 C6 9.34 6 8.68 6 8 C-1.0710546 6.41510845 -1.0710546 6.41510845 -5.375 9.125 C-7.90632963 11.89740864 -9.22207633 13.36968955 -10 17 C-9.72083319 20.29416842 -9.48437887 23.03124226 -8 26 C-10.25 26.25 -10.25 26.25 -13 26 C-15.3125 24 -15.3125 24 -17 22 C-14.75200844 16.12063747 -12.36334691 10.62779218 -8 6 C-5.75 5.1875 -5.75 5.1875 -4 5 C-4 4.34 -4 3.68 -4 3 C-2.68 2.67 -1.36 2.34 0 2 C0 1.34 0 0.68 0 0 Z " fill="#9F91AF" transform="translate(64,48)" />
<path d="M0 0 C3.32310483 1.16757737 5.83361132 2.14948857 8 5 C8 5.99 8 6.98 8 8 C8.763125 8.268125 9.52625 8.53625 10.3125 8.8125 C12.92313504 9.96603641 14.07385089 10.98629865 16 13 C16.99 13.33 17.98 13.66 19 14 C20.11732883 15.15118728 21.23158004 16.30556078 22.328125 17.4765625 C25.23581871 20.12609649 28.65094448 22.09051162 31.98828125 24.15625 C34 26 34 26 34.29296875 28.71875 C34.19628906 29.4715625 34.09960938 30.224375 34 31 C33.34 31 32.68 31 32 31 C32 30.34 32 29.68 32 29 C31.443125 28.938125 30.88625 28.87625 30.3125 28.8125 C27.04903513 27.66587721 25.35945094 25.48044843 23 23 C22.01 22.34 21.02 21.68 20 21 C20 20.34 20 19.68 20 19 C19.690625 18.8453125 19.690625 18.8453125 18.125 18.0625 C16.75 17.375 15.375 16.6875 14 16 C14 15.34 14 14.68 14 14 C13.443125 13.7525 12.88625 13.505 12.3125 13.25 C9.58505942 11.77570779 7.38573599 9.97841521 5 8 C4.5359375 7.67 4.5359375 7.67 2.1875 6 C1.465625 5.34 0.74375 4.68 0 4 C0 2.68 0 1.36 0 0 Z " fill="#E2C8D6" transform="translate(23,18)" />
<path d="M0 0 C2.75 0.625 2.75 0.625 4.75 3.625 C2.51454254 9.14789491 -0.65493818 12.07484265 -5.25 15.625 C-6.57 14.965 -7.89 14.305 -9.25 13.625 C-9.69952902 10.55321835 -9.69394368 8.39727703 -8.125 5.66796875 C-5.56528193 2.3949959 -4.17066705 0.80205135 0 0 Z " fill="#B9ADCD" transform="translate(64.25,55.375)" />
<path d="M0 0 C2.97 0 5.94 0 9 0 C9 0.66 9 1.32 9 2 C9.2784375 2.1134375 9.2784375 2.1134375 10.6875 2.6875 C13.64176591 4.36424552 15.66847851 6.54576685 18 9 C18.66 9.66 19.32 10.32 20 11 C20 12.32 20 13.64 20 15 C18.68 14.67 17.36 14.34 16 14 C16 13.34 16 12.68 16 12 C15.21625 11.690625 14.4325 11.38125 13.625 11.0625 C11 10 11 10 9 9 C9 8.01 9 7.02 9 6 C8.01 5.67 7.02 5.34 6 5 C6 4.34 6 3.68 6 3 C4.68 2.67 3.36 2.34 2 2 C1.67 2.495 1.67 2.495 0 5 C0 3.35 0 1.7 0 0 Z " fill="#C7AFC0" transform="translate(22,17)" />
<path d="M0 0 C9.24645527 5.59835009 9.24645527 5.59835009 13 9 C13 9.66 13 10.32 13 11 C13.61875 11.309375 14.2375 11.61875 14.875 11.9375 C16.25 12.625 17.625 13.3125 19 14 C19 14.66 19 15.32 19 16 C19.5775 16.268125 20.155 16.53625 20.75 16.8125 C23.05550043 18.02929189 25.02056192 19.30333879 27 21 C27 21.66 27 22.32 27 23 C28.32 23.33 29.64 23.66 31 24 C30.67 24.99 30.34 25.98 30 27 C28.3278148 25.88321917 26.66237197 24.75633648 25 23.625 C24.071875 22.99851562 23.14375 22.37203125 22.1875 21.7265625 C21.465625 21.15679687 20.74375 20.58703125 20 20 C20 19.34 20 18.68 20 18 C19.27683594 17.75894531 18.55367187 17.51789062 17.80859375 17.26953125 C14.61518942 15.82605919 12.61127789 14.08327069 10.0625 11.6875 C6.45275234 8.34214343 2.81277068 5.11041819 -1 2 C-0.67 1.34 -0.34 0.68 0 0 Z " fill="#CDB3C1" transform="translate(24,23)" />
<path d="M0 0 C5.07487385 1.54579491 8.42841384 4.6788884 12.375 8.0625 C18.98099964 13.6045081 25.78516945 18.15340102 33.28125 22.390625 C34.1784375 22.92171875 35.075625 23.4528125 36 24 C36 24.33 36 24.66 36 25 C33.08049498 25.29689882 30.84751413 25.51480481 28 25 C25.625 22.375 25.625 22.375 24.49609375 20.7265625 C21.91685336 17.74999787 18.43758303 16.15734436 15.01171875 14.296875 C14.67978516 14.08289063 14.67978516 14.08289063 13 13 C13 12.34 13 11.68 13 11 C12.443125 10.938125 11.88625 10.87625 11.3125 10.8125 C8.04234294 9.6635259 6.36953631 7.48801312 4 5 C3.236875 4.443125 2.47375 3.88625 1.6875 3.3125 C1.130625 2.879375 0.57375 2.44625 0 2 C0 1.34 0 0.68 0 0 Z " fill="#A38E9D" transform="translate(31,17)" />
<path d="M0 0 C0.33 0.99 0.66 1.98 1 3 C0.67 3.66 0.34 4.32 0 5 C-0.48586 7.98456854 -0.57258561 10.07879216 1.05859375 12.703125 C4.25431294 16.54838061 7.93958259 19.75608206 11.73046875 22.99609375 C19.63450844 29.9750479 26.64080291 37.60002906 33 46 C30 46 30 46 28.421875 44.53125 C28.14601563 44.19609375 28.14601563 44.19609375 26.75 42.5 C26.13511719 41.7678125 25.52023438 41.035625 24.88671875 40.28125 C24.26410156 39.5284375 23.64148438 38.775625 23 38 C16.1916398 30.00824536 9.25947554 22.69566806 0.78515625 16.4453125 C-1 15 -1 15 -2 13 C-2.12114921 11.35744209 -2.17540767 9.70947522 -2.1875 8.0625 C-2.20167969 7.18722656 -2.21585938 6.31195313 -2.23046875 5.41015625 C-2 3 -2 3 0 0 Z " fill="#483939" transform="translate(18,27)" />
<path d="M0 0 C0.33 1.32 0.66 2.64 1 4 C1.66 4 2.32 4 3 4 C3.33 5.98 3.66 7.96 4 10 C4.66 10 5.32 10 6 10 C6.33 10.66 6.66 11.32 7 12 C7.99 12 8.98 12 10 12 C9.34 13.65 8.68 15.3 8 17 C3.02125998 14.79081882 -0.73799598 11.07167016 -2.828125 5.984375 C-3.2952452 4.34278114 -3.65871613 2.67229095 -4 1 C-2 0 -2 0 0 0 Z " fill="#DAC5D7" transform="translate(40,51)" />
<path d="M0 0 C0.99 0.33 1.98 0.66 3 1 C2.62671065 6.35048061 1.0042343 8.50912907 -3 12 C-3.99 11.67 -4.98 11.34 -6 11 C-5.75579333 6.76708435 -5.598306 4.62979579 -2.625 1.5 C-1.75875 1.005 -0.8925 0.51 0 0 Z " fill="#817495" transform="translate(63,57)" />
<path d="M0 0 C0.99 0.33 1.98 0.66 3 1 C2.79375 1.70125 2.5875 2.4025 2.375 3.125 C1.92149643 6.60186072 2.72459723 8.77398123 4 12 C1.75 12.25 1.75 12.25 -1 12 C-3.3125 10 -3.3125 10 -5 8 C-3.8141763 4.62496331 -2.72426311 2.35277269 0 0 Z " fill="#A598B3" transform="translate(52,62)" />
<path d="M0 0 C0.99 0.33 1.98 0.66 3 1 C3 1.66 3 2.32 3 3 C3.66 3 4.32 3 5 3 C5.33 4.98 5.66 6.96 6 9 C5.21625 8.649375 4.4325 8.29875 3.625 7.9375 C-1.13169713 6.70731971 -5.18890305 7.29640084 -10 8 C-10 7.34 -10 6.68 -10 6 C-6.7 5.34 -3.4 4.68 0 4 C0 2.68 0 1.36 0 0 Z " fill="#8D7F97" transform="translate(68,42)" />
<path d="M0 0 C4.94515667 2.62711448 8.87775489 6.26645294 13 10 C12.34 10.66 11.68 11.32 11 12 C7.04 9.03 3.08 6.06 -1 3 C-0.67 2.01 -0.34 1.02 0 0 Z " fill="#CBB3C3" transform="translate(43,31)" />
<path d="M0 0 C0 1.32 0 2.64 0 4 C0.66 4.33 1.32 4.66 2 5 C-1.3 5.33 -4.6 5.66 -8 6 C-8.33 4.68 -8.66 3.36 -9 2 C-5.86501708 0.14223235 -3.62528568 -0.20140476 0 0 Z " fill="#AC9BBC" transform="translate(68,42)" />
<path d="M0 0 C0.185625 0.61875 0.37125 1.2375 0.5625 1.875 C2.69870324 5.03286566 5.40704277 5.05448494 9 6 C11 7.375 11 7.375 12 9 C11.6875 11.1875 11.6875 11.1875 11 13 C10.34 12.34 9.68 11.68 9 11 C6.95211518 10.1624193 4.8763398 9.47965013 2.77734375 8.78125 C1 8 1 8 0 6 C-0.039992 4.00039988 -0.04346799 1.99952758 0 0 Z " fill="#D2BDCE" transform="translate(17,32)" />
<path d="M0 0 C0.66 0.33 0.66 0.33 4 2 C4 2.66 4 3.32 4 4 C4.5775 4.268125 5.155 4.53625 5.75 4.8125 C8.05550043 6.02929189 10.02056192 7.30333879 12 9 C12 9.66 12 10.32 12 11 C8.65750371 10.40312566 6.53563658 9.26396123 4 7 C4 6.34 4 5.68 4 5 C3.34 5 2.68 5 2 5 C2 4.34 2 3.68 2 3 C1.34 3 0.68 3 0 3 C0 2.01 0 1.02 0 0 Z " fill="#E1CAD8" transform="translate(23,25)" />
<path d="M0 0 C0.33 0 0.66 0 1 0 C1 1.98 1 3.96 1 6 C3.31 6.33 5.62 6.66 8 7 C7.67 7.99 7.34 8.98 7 10 C4.625 10.625 4.625 10.625 2 11 C-0.7865517 8.2134483 -0.65662895 5.84575573 -1 2 C-0.67 1.34 -0.34 0.68 0 0 Z " fill="#766A89" transform="translate(54,63)" />
<path d="M0 0 C2.97 0.99 5.94 1.98 9 3 C9 3.66 9 4.32 9 5 C9.66 5 10.32 5 11 5 C11.33 5.99 11.66 6.98 12 8 C8.5625 7.1875 8.5625 7.1875 5 6 C4.67 5.01 4.34 4.02 4 3 C1.9375 1.8125 1.9375 1.8125 0 1 C0 0.67 0 0.34 0 0 Z " fill="#BEACB8" transform="translate(19,40)" />
<path d="M0 0 C0.66 0 1.32 0 2 0 C2 0.66 2 1.32 2 2 C2.886875 2.2475 3.77375 2.495 4.6875 2.75 C8.10427135 4.03934768 10.2797748 5.59980129 13 8 C11 9 11 9 8.6875 8.25 C1.30281124 4.81526104 1.30281124 4.81526104 0.1875 1.8125 C0.125625 1.214375 0.06375 0.61625 0 0 Z " fill="#BBA5B7" transform="translate(42,28)" />
<path d="M0 0 C0.3815625 0.04125 0.3815625 0.04125 2.3125 0.25 C-2.50526765 7.91742597 -2.50526765 7.91742597 -7.6875 9.25 C-4.49832888 0.4184492 -4.49832888 0.4184492 0 0 Z " fill="#AC9EB9" transform="translate(57.6875,54.75)" />
<path d="M0 0 C4.37113496 0.50827151 7.38995662 1.45173408 11 4 C11 4.33 11 4.66 11 5 C5.62694301 5.44041451 5.62694301 5.44041451 3 5 C1 2.5 1 2.5 0 0 Z " fill="#A795A1" transform="translate(56,37)" />
<path d="M0 0 C1.43088528 2.86177057 0.59991697 4.93375773 0 8 C1.32 8 2.64 8 4 8 C4 8.66 4 9.32 4 10 C4.66 10.33 5.32 10.66 6 11 C3.125 11.125 3.125 11.125 0 11 C-2 9 -2 9 -2.25 6.0625 C-2 3 -2 3 0 0 Z " fill="#E4CFDF" transform="translate(20,27)" />
<path d="M0 0 C0.99 0.33 1.98 0.66 3 1 C2.34 1 1.68 1 1 1 C1 2.65 1 4.3 1 6 C1.66 6 2.32 6 3 6 C1.25 9.875 1.25 9.875 -1 11 C-1.02688151 9.35425434 -1.04634123 7.70838587 -1.0625 6.0625 C-1.07410156 5.14597656 -1.08570312 4.22945312 -1.09765625 3.28515625 C-1 1 -1 1 0 0 Z " fill="#544740" transform="translate(21,16)" />
<path d="M0 0 C4.875 1.875 4.875 1.875 6 3 C6.27314815 8.73611111 6.27314815 8.73611111 6 11 C5.34 11.66 4.68 12.32 4 13 C3.96261719 12.39671875 3.92523438 11.7934375 3.88671875 11.171875 C3.23374341 3.23374341 3.23374341 3.23374341 0 0 Z " fill="#756883" transform="translate(68,48)" />
<path d="M0 0 C0.61875 0.185625 1.2375 0.37125 1.875 0.5625 C4 1 4 1 6 0 C5.67 0.99 5.34 1.98 5 3 C2.93359375 3.73046875 2.93359375 3.73046875 0.4375 4.1875 C-0.38878906 4.34605469 -1.21507812 4.50460938 -2.06640625 4.66796875 C-2.38544922 4.72275391 -2.38544922 4.72275391 -4 5 C-4 4.34 -4 3.68 -4 3 C-2.68 2.67 -1.36 2.34 0 2 C0 1.34 0 0.68 0 0 Z " fill="#A193B1" transform="translate(60,51)" />
<path d="M0 0 C3.23490776 0.55774272 4.97855006 1.37211508 7 4 C7 4.99 7 5.98 7 7 C7.66 7 8.32 7 9 7 C8.67 7.99 8.34 8.98 8 10 C6.66370254 8.52351062 5.33103329 7.0437367 4 5.5625 C3.2575 4.73878906 2.515 3.91507813 1.75 3.06640625 C0 1 0 1 0 0 Z " fill="#BDAAB4" transform="translate(38,58)" />
<path d="M0 0 C3.63 1.65 7.26 3.3 11 5 C10.67 5.495 10.67 5.495 9 8 C9 7.34 9 6.68 9 6 C8.01 5.835 8.01 5.835 3 5 C3 4.34 3 3.68 3 3 C2.01 3 1.02 3 0 3 C0 2.01 0 1.02 0 0 Z " fill="#DCC6D6" transform="translate(48,46)" />
<path d="M0 0 C3.42054006 1.14018002 4.2426201 1.92458518 6 5 C5.6875 7.25 5.6875 7.25 5 9 C4.34 7.68 3.68 6.36 3 5 C2.34 5 1.68 5 1 5 C0.67 3.35 0.34 1.7 0 0 Z " fill="#E0CBDB" transform="translate(29,42)" />
<path d="M0 0 C1.98 0.99 3.96 1.98 6 3 C6 4.65 6 6.3 6 8 C5.34 8 4.68 8 4 8 C3.67 6.68 3.34 5.36 3 4 C2.34 4 1.68 4 1 4 C0.67 2.68 0.34 1.36 0 0 Z " fill="#E4CDDF" transform="translate(51,41)" />
<path d="M0 0 C0.66 0.33 1.32 0.66 2 1 C2 2.98 2 4.96 2 7 C1.34 7 0.68 7 0 7 C0 6.34 0 5.68 0 5 C-0.99 4.67 -1.98 4.34 -3 4 C-2.67 3.01 -2.34 2.02 -2 1 C-1.34 0.67 -0.68 0.34 0 0 Z " fill="#9486AE" transform="translate(70,51)" />
<path d="M0 0 C-0.33 0.99 -0.66 1.98 -1 3 C-7.625 3.25 -7.625 3.25 -11 1 C-6.8204355 -1.78637633 -4.85331323 -0.79562512 0 0 Z " fill="#6D605A" transform="translate(32,14)" />
<path d="M0 0 C0.99 0.99 1.98 1.98 3 3 C0.25 8.875 0.25 8.875 -2 10 C-1.34 6.7 -0.68 3.4 0 0 Z " fill="#AD9FC2" transform="translate(66,56)" />
<path d="M0 0 C0.66 0 1.32 0 2 0 C0.7508258 3.45925163 -0.67527795 6.14693203 -3 9 C-3.66 8.67 -4.32 8.34 -5 8 C-4.67 7.01 -4.34 6.02 -4 5 C-3.34 4.67 -2.68 4.34 -2 4 C-0.875 1.9375 -0.875 1.9375 0 0 Z " fill="#EEDDF4" transform="translate(53,54)" />
<path d="M0 0 C0.99 0 1.98 0 3 0 C3 0.99 3 1.98 3 3 C3.66 3.33 4.32 3.66 5 4 C4.505 4.33 4.505 4.33 2 6 C1.34 5.67 0.68 5.34 0 5 C0 3.35 0 1.7 0 0 Z " fill="#CEB5C8" transform="translate(31,21)" />
<path d="M0 0 C1 2 2 4 3 6 C1.35 6 -0.3 6 -2 6 C-2.33 5.34 -2.66 4.68 -3 4 C-2.34 4 -1.68 4 -1 4 C-0.67 2.68 -0.34 1.36 0 0 Z " fill="#8E809A" transform="translate(53,68)" />
<path d="M0 0 C0.66 0 1.32 0 2 0 C2 1.98 2 3.96 2 6 C0.68 5.67 -0.64 5.34 -2 5 C-1.34 3.35 -0.68 1.7 0 0 Z " fill="#9C8DA7" transform="translate(50,66)" />
</svg>