<?xml version='1.0' encoding='utf-8'?>
<svg xmlns="http://www.w3.org/2000/svg" version="1.1" width="99" height="88">
<path d="M0 0 C17.89151713 -0.30097879 17.89151713 -0.30097879 22.9375 2.8125 C24.86698235 4.85892067 25.76366441 6.52732882 27 9 C29.125 10.25 29.125 10.25 31 11 C31 11.99 31 12.98 31 14 C32.65 13.67 34.3 13.34 36 13 C35.34 14.65 34.68 16.3 34 18 C35.32 17.67 36.64 17.34 38 17 C37.98839844 17.61746094 37.97679687 18.23492187 37.96484375 18.87109375 C37.91833736 23.2360508 37.99881408 27.42563368 38.625 31.75 C39.10822851 35.65724764 38.72397919 38.37964371 37 42 C36.01904252 43.01868662 35.02297922 44.02351983 34 45 C34 45.99 34 46.98 34 48 C31.23547967 49.38226016 28.9538637 49.09525387 25.875 49.0625 C24.77929688 49.05347656 23.68359375 49.04445312 22.5546875 49.03515625 C21.71164063 49.02355469 20.86859375 49.01195312 20 49 C20 48.34 20 47.68 20 47 C19.64421875 47.0825 19.64421875 47.0825 17.84375 47.5 C14.9716894 48.00497769 12.41144906 48.06398789 9.5 48 C3.81330392 47.92944546 -1.73144471 48.36670267 -7.3828125 48.9765625 C-7.81464844 48.98042969 -7.81464844 48.98042969 -10 49 C-10.66 48.34 -11.32 47.68 -12 47 C-11.625 44.375 -11.625 44.375 -11 42 C-11.33773438 41.96841797 -11.33773438 41.96841797 -13.046875 41.80859375 C-20.09355107 40.84120325 -20.09355107 40.84120325 -22.51953125 38.58984375 C-25.12918874 34.29905858 -25.65303528 29.94424723 -26 25 C-25.34 25.33 -24.68 25.66 -24 26 C-24 26.66 -24 27.32 -24 28 C-23.34 27.67 -22.68 27.34 -22 27 C-21.39450913 24.49730442 -21.04237512 21.99096441 -20.66015625 19.4453125 C-19.92926686 16.73799439 -19.19709363 15.69725483 -17 14 C-16.319375 13.855625 -15.63875 13.71125 -14.9375 13.5625 C-13 13 -13 13 -11.75 10.9375 C-11.5025 10.298125 -11.255 9.65875 -11 9 C-10.01 9 -9.02 9 -8 9 C-7.9175 8.21625 -7.835 7.4325 -7.75 6.625 C-7 4 -7 4 -5.125 2.6875 C-3 2 -3 2 0 2 C0 1.34 0 0.68 0 0 Z " fill="#EDEFE1" transform="translate(43,18)" />
<path d="M0 0 C5.84847385 0.02488712 10.02628908 0.70483762 14.9375 4 C22.79132414 9.13329885 31.04208798 8.32165915 40 7 C40 4.69 40 2.38 40 0 C40.33 0 40.66 0 41 0 C41.39185886 2.70684045 41.76383568 5.41403816 42.125 8.125 C42.23714844 8.88554688 42.34929687 9.64609375 42.46484375 10.4296875 C43.07712247 15.16464295 43.02642824 18.52953499 41 23 C40.01904252 24.01868662 39.02297922 25.02351983 38 26 C38 26.99 38 27.98 38 29 C35.23547967 30.38226016 32.9538637 30.09525387 29.875 30.0625 C28.77929688 30.05347656 27.68359375 30.04445313 26.5546875 30.03515625 C25.71164063 30.02355469 24.86859375 30.01195313 24 30 C24 29.34 24 28.68 24 28 C23.64421875 28.0825 23.64421875 28.0825 21.84375 28.5 C18.9716894 29.00497769 16.41144906 29.06398789 13.5 29 C7.81330392 28.92944546 2.26855529 29.36670267 -3.3828125 29.9765625 C-4.24648438 29.98429687 -5.11015625 29.99203125 -6 30 C-6.66 29.34 -7.32 28.68 -8 28 C-7.625 25.375 -7.625 25.375 -7 23 C-7.68707031 22.92523438 -8.37414063 22.85046875 -9.08203125 22.7734375 C-11.84518161 22.37023101 -14.36012483 21.91821745 -17 21 C-19.125 17.875 -19.125 17.875 -20 15 C-18.02 15.33 -18.02 15.33 -8 17 C-8 16.34 -8 15.68 -8 15 C-7.34 15 -6.68 15 -6 15 C-6 14.34 -6 13.68 -6 13 C-5.13375 13.103125 -4.2675 13.20625 -3.375 13.3125 C1.23756587 12.88541057 2.69294459 11.14957658 6 8 C5.195625 7.236875 4.39125 6.47375 3.5625 5.6875 C1 3 1 3 0 0 Z " fill="#BFBE9A" transform="translate(39,37)" />
<path d="M0 0 C0 0.33 0 0.66 0 1 C-2.64 1.66 -5.28 2.32 -8 3 C-4.8066167 6.46710187 -2.41115521 8.42458742 2 10 C3.15413452 10.67347144 4.29946322 11.36216967 5.4375 12.0625 C8.60841713 13.9196532 11.31841167 14.59982736 15 15 C16.66804677 15.32635698 18.33524314 15.65725594 20 16 C20 15.34 20 14.68 20 14 C20.3196875 13.7834375 20.3196875 13.7834375 21.9375 12.6875 C24.49927596 10.59150148 24.65221564 9.21700528 25 6 C25.165 6.33 25.165 6.33 26 8 C27.32 7.67 28.64 7.34 30 7 C29.34 9.97 28.68 12.94 28 16 C20.42611973 18.11075352 12.69888027 19.44941631 5.4296875 15.66015625 C3.77725891 14.60084074 2.13505594 13.52539057 0.50390625 12.43359375 C-3.43573453 10.17798039 -7.53868488 9.55054527 -12 9 C-11.21625 9.7425 -10.4325 10.485 -9.625 11.25 C-7.43495469 13.54433318 -6.17268614 15.12158858 -5 18 C-6.65848177 19.01351664 -8.32665961 20.01120795 -10 21 C-10.680625 21.4125 -11.36125 21.825 -12.0625 22.25 C-14.44160663 23.1709445 -15.63665048 22.8440534 -18 22 C-18 22.66 -18 23.32 -18 24 C-18.66 24 -19.32 24 -20 24 C-20 24.66 -20 25.32 -20 26 C-24.0617644 26.20653039 -27.08246547 26.31235218 -30.9375 25 C-34.0732688 21.95925449 -33.78890544 19.29225612 -34 15 C-33.67 15.165 -33.67 15.165 -32 16 C-32 16.66 -32 17.32 -32 18 C-31.34 17.67 -30.68 17.34 -30 17 C-29.39450913 14.49730442 -29.04237512 11.99096441 -28.66015625 9.4453125 C-27.92549174 6.72401082 -27.21947821 5.69438215 -25 4 C-22.3125 3.3125 -22.3125 3.3125 -20 3 C-20 3.66 -20 4.32 -20 5 C-18.35 5 -16.7 5 -15 5 C-15 4.01 -15 3.02 -15 2 C-9.75614911 0.2520497 -5.52677733 -0.19392201 0 0 Z " fill="#E3E3CF" transform="translate(51,28)" />
<path d="M0 0 C0.33 0 0.66 0 1 0 C1.39185886 2.70684045 1.76383568 5.41403816 2.125 8.125 C2.23714844 8.88554688 2.34929687 9.64609375 2.46484375 10.4296875 C3.07712247 15.16464295 3.02642824 18.52953499 1 23 C0.01904252 24.01868662 -0.97702078 25.02351983 -2 26 C-2 26.99 -2 27.98 -2 29 C-4.76452033 30.38226016 -7.0461363 30.09525387 -10.125 30.0625 C-11.22070312 30.05347656 -12.31640625 30.04445313 -13.4453125 30.03515625 C-14.28835937 30.02355469 -15.13140625 30.01195313 -16 30 C-16 29.34 -16 28.68 -16 28 C-16.35578125 28.0825 -16.35578125 28.0825 -18.15625 28.5 C-21.0283106 29.00497769 -23.58855094 29.06398789 -26.5 29 C-32.18669608 28.92944546 -37.73144471 29.36670267 -43.3828125 29.9765625 C-44.24648438 29.98429687 -45.11015625 29.99203125 -46 30 C-46.66 29.34 -47.32 28.68 -48 28 C-47.625 25.875 -47.625 25.875 -47 24 C-47 24.99 -47 25.98 -47 27 C-45.845 26.649375 -44.69 26.29875 -43.5 25.9375 C-38.20524615 24.7253465 -33.11383403 25.12662438 -27.76171875 25.63061523 C-23.62044614 26.00058922 -20.07402809 25.75986177 -16 25 C-12.625 25.4375 -12.625 25.4375 -10 26 C-10 25.34 -10 24.68 -10 24 C-10.391875 24.0309375 -10.391875 24.0309375 -12.375 24.1875 C-13.24125 24.125625 -14.1075 24.06375 -15 24 C-15.66 23.01 -16.32 22.02 -17 21 C-21.75 21.875 -21.75 21.875 -24 23 C-23.125 19.125 -23.125 19.125 -22 18 C-20.88625 18.165 -19.7725 18.33 -18.625 18.5 C-15 19 -15 19 -12 18 C-12.165 17.01 -12.165 17.01 -13 12 C-9.38026598 10.68373308 -6.90432869 10 -3 10 C-3 9.01 -3 8.02 -3 7 C-2.01 7 -1.02 7 0 7 C0 4.69 0 2.38 0 0 Z " fill="#9D986B" transform="translate(79,37)" />
<path d="M0 0 C0 1.32 0 2.64 0 4 C0.825 4.165 0.825 4.165 5 5 C5 5.66 5 6.32 5 7 C6.65 7.66 8.3 8.32 10 9 C9 11 9 11 6.5 11.9375 C5.675 12.288125 4.85 12.63875 4 13 C3.67 13.99 3.34 14.98 3 16 C3.66 16 4.32 16 5 16 C5 15.01 5 14.02 5 13 C5.3815625 12.979375 5.3815625 12.979375 7.3125 12.875 C10 12 10 12 11.5625 9 C12.036875 8.01 12.51125 7.02 13 6 C15.1875 5.125 15.1875 5.125 17 5 C16.34 5.99 15.68 6.98 15 8 C14.71125 9.010625 14.4225 10.02125 14.125 11.0625 C13 14 13 14 10.875 15.375 C10.25625 15.58125 9.6375 15.7875 9 16 C9 16.66 9 17.32 9 18 C2.24490494 17.863408 -2.60165415 17.24278218 -8.14453125 13.265625 C-10.03004067 11.9795091 -11.81073818 11.18601668 -13.9375 10.375 C-14.948125 9.92125 -15.95875 9.4675 -17 9 C-17.33 8.01 -17.66 7.02 -18 6 C-18.99 5.67 -19.98 5.34 -21 5 C-18.08291076 3.01637931 -16.87619096 3.0123809 -13.25 3.375 C-12.1775 3.58125 -11.105 3.7875 -10 4 C-10 3.01 -10 2.02 -10 1 C-3.71428571 -1.42857143 -3.71428571 -1.42857143 0 0 Z " fill="#ECEDDF" transform="translate(62,26)" />
<path d="M0 0 C1.98 0 3.96 0 6 0 C6 0.66 6 1.32 6 2 C6.99 2.33 7.98 2.66 9 3 C9 4.32 9 5.64 9 7 C8.34 7 7.68 7 7 7 C6.67 7.66 6.34 8.32 6 9 C3.69 8.67 1.38 8.34 -1 8 C-1 8.66 -1 9.32 -1 10 C0.65 9.67 2.3 9.34 4 9 C4.66 10.32 5.32 11.64 6 13 C7.65 13 9.3 13 11 13 C11 13.66 11 14.32 11 15 C10.05125 14.979375 9.1025 14.95875 8.125 14.9375 C5.11835024 14.9254251 2.23232982 15.1908998 -0.75 15.5625 C-5.39934031 16.07752556 -9.67174253 15.71277755 -14.3046875 15.19140625 C-18.31780419 14.9064168 -22.0271063 15.41383536 -26 16 C-26 14.68 -26 13.36 -26 12 C-24.35 12 -22.7 12 -21 12 C-21 10.68 -21 9.36 -21 8 C-16.32790951 6.56976822 -11.86896303 5.59619955 -7 5 C-7 4.34 -7 3.68 -7 3 C-5.845 2.835 -5.845 2.835 0 2 C0 1.34 0 0.68 0 0 Z " fill="#C9C7AB" transform="translate(58,48)" />
<path d="M0 0 C0 0.33 0 0.66 0 1 C-2.64 1.66 -5.28 2.32 -8 3 C-4.8066167 6.46710187 -2.41115521 8.42458742 2 10 C3.15413452 10.67347144 4.29946322 11.36216967 5.4375 12.0625 C8.60841713 13.9196532 11.31841167 14.59982736 15 15 C16.66804677 15.32635698 18.33524314 15.65725594 20 16 C20 15.34 20 14.68 20 14 C20.3196875 13.7834375 20.3196875 13.7834375 21.9375 12.6875 C24.49927596 10.59150148 24.65221564 9.21700528 25 6 C25.165 6.33 25.165 6.33 26 8 C27.32 7.67 28.64 7.34 30 7 C29.34 9.97 28.68 12.94 28 16 C20.42611973 18.11075352 12.69888027 19.44941631 5.4296875 15.66015625 C3.77725891 14.60084074 2.13505594 13.52539057 0.50390625 12.43359375 C-3.43573453 10.17798039 -7.53868488 9.55054527 -12 9 C-11.608125 9.37125 -11.608125 9.37125 -9.625 11.25 C-7.43495469 13.54433318 -6.17268614 15.12158858 -5 18 C-6.65848177 19.01351664 -8.32665961 20.01120795 -10 21 C-10.680625 21.433125 -11.36125 21.86625 -12.0625 22.3125 C-14 23 -14 23 -16.25 22.125 C-16.8275 21.75375 -17.405 21.3825 -18 21 C-17.43410156 20.81824219 -16.86820313 20.63648437 -16.28515625 20.44921875 C-15.55167969 20.19785156 -14.81820312 19.94648437 -14.0625 19.6875 C-13.33160156 19.44386719 -12.60070312 19.20023438 -11.84765625 18.94921875 C-10 18 -10 18 -9 15 C-10.65 14.67 -12.3 14.34 -14 14 C-14 13.34 -14 12.68 -14 12 C-14.78375 11.7525 -15.5675 11.505 -16.375 11.25 C-19.32317108 9.84610901 -19.9024777 8.99324263 -21 6 C-22.65 6 -24.3 6 -26 6 C-25.67 5.34 -25.34 4.68 -25 4 C-22.4375 3.375 -22.4375 3.375 -20 3 C-20 3.66 -20 4.32 -20 5 C-18.35 5 -16.7 5 -15 5 C-15 4.01 -15 3.02 -15 2 C-9.75614911 0.2520497 -5.52677733 -0.19392201 0 0 Z " fill="#C8C9B0" transform="translate(51,28)" />
<path d="M0 0 C2.0625 0.4375 2.0625 0.4375 4 1 C3.6875 3.375 3.6875 3.375 3 6 C-0.4352048 8.29013653 -1.985331 8.17842973 -6 8 C-6 9.32 -6 10.64 -6 12 C-7.93784265 11.85879286 -9.87526955 11.71187127 -11.8125 11.5625 C-12.89144531 11.48128906 -13.97039063 11.40007813 -15.08203125 11.31640625 C-18 11 -18 11 -21 10 C-22.6875 6.9375 -22.6875 6.9375 -24 4 C-22.02 4.33 -22.02 4.33 -12 6 C-12 5.34 -12 4.68 -12 4 C-11.34 4 -10.68 4 -10 4 C-10 3.34 -10 2.68 -10 2 C-9.68095703 1.96970703 -9.68095703 1.96970703 -8.06640625 1.81640625 C-7.24011719 1.73261719 -6.41382812 1.64882813 -5.5625 1.5625 C-4.73878906 1.48128906 -3.91507813 1.40007813 -3.06640625 1.31640625 C-1 1 -1 1 0 0 Z " fill="#BBBA96" transform="translate(43,48)" />
<path d="M0 0 C16.86572586 -0.31689255 16.86572586 -0.31689255 21.9375 2.8125 C23.85730099 4.84865256 24.80216241 6.51876498 26 9 C26.99 9.33 27.98 9.66 29 10 C29 11.65 29 13.3 29 15 C27.125 14.6875 27.125 14.6875 25 14 C24.34 13.01 23.68 12.02 23 11 C20.875 10.3125 20.875 10.3125 19 10 C18.67 8.68 18.34 7.36 18 6 C13.71 5.34 9.42 4.68 5 4 C5 4.66 5 5.32 5 6 C4.01 6 3.02 6 2 6 C1.67 6.99 1.34 7.98 1 9 C-1.64 9 -4.28 9 -7 9 C-4.78065836 5.67098753 -3.65316671 5.24976756 0 4 C0 2.68 0 1.36 0 0 Z " fill="#EAEAE0" transform="translate(44,18)" />
<path d="M0 0 C1.65 0 3.3 0 5 0 C4.67 1.65 4.34 3.3 4 5 C2.58398286 5.48108275 1.16715563 5.95978141 -0.25 6.4375 C-1.03890625 6.70433594 -1.8278125 6.97117187 -2.640625 7.24609375 C-5 8 -5 8 -7.234375 8.41015625 C-7.81703125 8.60480469 -8.3996875 8.79945312 -9 9 C-9.33 9.99 -9.66 10.98 -10 12 C-14.95 12.66 -19.9 13.32 -25 14 C-25 13.34 -25 12.68 -25 12 C-23.68 12 -22.36 12 -21 12 C-21 10.68 -21 9.36 -21 8 C-16.32790951 6.56976822 -11.86896303 5.59619955 -7 5 C-7 4.34 -7 3.68 -7 3 C-5.845 2.835 -5.845 2.835 0 2 C0 1.34 0 0.68 0 0 Z " fill="#E4E2D0" transform="translate(58,48)" />
<path d="M0 0 C0.73798828 -0.00467285 1.47597656 -0.0093457 2.23632812 -0.01416016 C5.40334279 -0.0046386 7.91129861 0.1162662 10.9375 1.125 C12.93423484 1.47736497 14.93400739 1.81334559 16.9375 2.125 C16.9375 2.455 16.9375 2.785 16.9375 3.125 C9.80824574 5.57933343 3.357004 7.598168 -4.0625 5.125 C-7.32508449 5.09487059 -10.57472444 5.19144323 -13.8359375 5.28515625 C-17.04875994 5.12568201 -19.18143407 4.50078991 -22.0625 3.125 C-21.7325 2.465 -21.4025 1.805 -21.0625 1.125 C-14.20882681 -0.21045838 -6.96731176 0.03123688 0 0 Z " fill="#8F895A" transform="translate(55.0625,64.875)" />
<path d="M0 0 C1.69036558 0.95939668 3.35394174 1.96642853 5 3 C5.391875 3.1546875 5.391875 3.1546875 7.375 3.9375 C9.60129515 4.83861946 11.40219244 5.81894945 13.4375 7.0625 C16.60841713 8.9196532 19.31841167 9.59982736 23 10 C24.66804677 10.32635698 26.33524314 10.65725594 28 11 C28 10.34 28 9.68 28 9 C28.639375 8.566875 29.27875 8.13375 29.9375 7.6875 C32.49927596 5.59150148 32.65221564 4.21700528 33 1 C33.165 1.33 33.165 1.33 34 3 C35.32 2.67 36.64 2.34 38 2 C37.34 4.97 36.68 7.94 36 11 C28.34255142 13.13404305 20.67794382 14.4038485 13.32421875 10.625 C11.63748861 9.5602356 9.96355275 8.4748643 8.3046875 7.3671875 C5.12840265 5.48295072 2.65145205 5.15875878 -1 5 C-1.33 3.68 -1.66 2.36 -2 1 C-1.34 0.67 -0.68 0.34 0 0 Z " fill="#D3D2B5" transform="translate(43,33)" />
<path d="M0 0 C1.75 3.0625 1.75 3.0625 3 6 C2.195625 6.45375 1.39125 6.9075 0.5625 7.375 C-2 9 -2 9 -3 11 C-3.99 11.33 -4.98 11.66 -6 12 C-6.33 12.66 -6.66 13.32 -7 14 C-7.99 13.67 -8.98 13.34 -10 13 C-9.88557539 11.39504433 -9.75805306 9.79101881 -9.625 8.1875 C-9.55539063 7.29417969 -9.48578125 6.40085937 -9.4140625 5.48046875 C-9 3 -9 3 -7 0 C-2.90909091 -1.36363636 -2.90909091 -1.36363636 0 0 Z " fill="#EDEEDC" transform="translate(31,34)" />
<path d="M0 0 C-0.44708536 5.06696738 -2.45459029 7.53516778 -6 11 C-8.6875 11.5625 -8.6875 11.5625 -11 11 C-11.66 10.01 -12.32 9.02 -13 8 C-17.75 8.875 -17.75 8.875 -20 10 C-19.125 6.125 -19.125 6.125 -18 5 C-17.443125 5.0825 -17.443125 5.0825 -14.625 5.5 C-11 6 -11 6 -8 5 C-8.33 3.35 -8.66 1.7 -9 0 C-3.375 -1.125 -3.375 -1.125 0 0 Z " fill="#B8B58E" transform="translate(75,50)" />
<path d="M0 0 C0.33 0.99 0.66 1.98 1 3 C2.155 2.649375 3.31 2.29875 4.5 1.9375 C9.79475385 0.7253465 14.88616597 1.12662438 20.23828125 1.63061523 C24.37955386 2.00058922 27.92597191 1.75986177 32 1 C35.375 1.4375 35.375 1.4375 38 2 C34.48448193 5.51551807 28.97286699 4.98351365 24.1953125 5.0234375 C22.2004752 5.00756346 20.20567318 4.98657678 18.2109375 4.9609375 C13.65092709 5.01641208 9.14890987 5.48752771 4.6171875 5.9765625 C3.75351562 5.98429687 2.88984375 5.99203125 2 6 C1.34 5.34 0.68 4.68 0 4 C0 2.68 0 1.36 0 0 Z " fill="#A7A178" transform="translate(31,61)" />
<path d="M0 0 C0.99 0 1.98 0 3 0 C3 0.99 3 1.98 3 3 C4.32 3 5.64 3 7 3 C7.33 4.32 7.66 5.64 8 7 C9.32 7 10.64 7 12 7 C12 6.34 12 5.68 12 5 C12.72445312 5.01160156 13.44890625 5.02320313 14.1953125 5.03515625 C19.24783323 5.08231311 24.03378767 5.07377564 29 4 C29 4.99 29 5.98 29 7 C25.04 7.99 21.08 8.98 17 10 C17 9.34 17 8.68 17 8 C15.02 8.165 15.02 8.165 5 9 C4.67 7.68 4.34 6.36 4 5 C3.01 5 2.02 5 1 5 C0.67 3.35 0.34 1.7 0 0 Z " fill="#B0AE89" transform="translate(47,40)" />
<path d="M0 0 C0 1.32 0 2.64 0 4 C0.78375 4.103125 1.5675 4.20625 2.375 4.3125 C5 5 5 5 7 8 C7.99 8.33 8.98 8.66 10 9 C10.33 7.68 10.66 6.36 11 5 C12.46726798 8.81489674 11.43336419 11.29011622 10 15 C8.02 15 6.04 15 4 15 C4 15.99 4 16.98 4 18 C3.34 18 2.68 18 2 18 C2.1875 16.125 2.1875 16.125 3 14 C5.5625 12.75 5.5625 12.75 8 12 C7.34 11.67 6.68 11.34 6 11 C6 10.34 6 9.68 6 9 C5.34 9 4.68 9 4 9 C3.67 8.34 3.34 7.68 3 7 C0.9375 6.375 0.9375 6.375 -1 6 C-1.33 4.68 -1.66 3.36 -2 2 C-5.3 2.33 -8.6 2.66 -12 3 C-12 2.34 -12 1.68 -12 1 C-11.608125 0.9278125 -11.608125 0.9278125 -9.625 0.5625 C-3.325 -0.7875 -3.325 -0.7875 0 0 Z " fill="#C8CAB9" transform="translate(63,24)" />
<path d="M0 0 C0.33 0.66 0.66 1.32 1 2 C3.50390625 2.4140625 3.50390625 2.4140625 6.5625 2.625 C7.06845703 2.66238281 7.06845703 2.66238281 9.62890625 2.8515625 C10.02013672 2.87605469 10.02013672 2.87605469 12 3 C11.814375 3.94875 11.62875 4.8975 11.4375 5.875 C11 9 11 9 12 11 C8.63295715 11.2295711 6.58629732 11.33943529 3.625 9.625 C3.08875 9.08875 2.5525 8.5525 2 8 C2 7.34 2 6.68 2 6 C1.34 6 0.68 6 0 6 C-1.125 2.25 -1.125 2.25 0 0 Z " fill="#8C8457" transform="translate(21,56)" />
<path d="M0 0 C0.165 0.66 0.165 0.66 1 4 C-3.6255259 7.46914442 -7.35368131 8.77663095 -13 10 C-13.33 10.165 -13.33 10.165 -15 11 C-24.35448748 11.4492268 -33.6833015 10.79291051 -43 10 C-43 9.67 -43 9.34 -43 9 C-40.56288386 8.80515062 -38.12562602 8.61884822 -35.6875 8.4375 C-34.99720703 8.38142578 -34.30691406 8.32535156 -33.59570312 8.26757812 C-30.37487726 8.03418495 -28.09672655 7.96775782 -25 9 C-19.2913854 9.6586863 -14.56095195 8.48479571 -9.125 6.75 C-8.45823242 6.54552246 -7.79146484 6.34104492 -7.10449219 6.13037109 C-4.12935873 5.1236955 -2.32635856 4.49041989 -0.5546875 1.828125 C-0.37164062 1.22484375 -0.18859375 0.6215625 0 0 Z " fill="#5D5432" transform="translate(79,61)" />
<path d="M0 0 C0.33 0 0.66 0 1 0 C1.32616689 6.68038113 1.58464582 12.1904016 -2 18 C-4.6875 19.4375 -4.6875 19.4375 -7 20 C-6.34 19.01 -5.68 18.02 -5 17 C-5 15.68 -5 14.36 -5 13 C-7.64 13 -10.28 13 -13 13 C-9.73454239 11.11608215 -6.71888239 10.50712033 -3 10 C-3 9.01 -3 8.02 -3 7 C-2.01 7 -1.02 7 0 7 C0 4.69 0 2.38 0 0 Z " fill="#A19F75" transform="translate(79,37)" />
<path d="M0 0 C0.66 0.99 1.32 1.98 2 3 C3.32 3 4.64 3 6 3 C5.67 4.32 5.34 5.64 5 7 C6.65 7 8.3 7 10 7 C10.33 7.66 10.66 8.32 11 9 C11.99 9.33 12.98 9.66 14 10 C14 10.66 14 11.32 14 12 C10.30967915 11.29032291 7.323307 9.72556325 4 8 C3.29746094 7.67644531 2.59492187 7.35289063 1.87109375 7.01953125 C1.15050781 6.68308594 0.42992187 6.34664062 -0.3125 6 C-0.98925781 5.690625 -1.66601562 5.38125 -2.36328125 5.0625 C-4 4 -4 4 -5 1 C-5.99 0.67 -6.98 0.34 -8 0 C-5.06791253 -1.46604374 -3.11702298 -0.77925574 0 0 Z " fill="#E0E1CF" transform="translate(49,31)" />
<path d="M0 0 C3.04386724 -0.08226668 5.07175348 0.02391783 8 1 C9.99673484 1.35236497 11.99650739 1.68834559 14 2 C14 2.33 14 2.66 14 3 C7.83515789 5.12232269 2.54159413 6.57382405 -4 6 C-4.99 5.34 -5.98 4.68 -7 4 C-4.69 3.34 -2.38 2.68 0 2 C0 1.34 0 0.68 0 0 Z " fill="#888250" transform="translate(58,65)" />
<path d="M0 0 C0.33 0 0.66 0 1 0 C1.90039349 5.47536583 2.51876301 9.84253288 0 15 C-2.125 17.3125 -2.125 17.3125 -4 19 C-4 19.33 -4 19.66 -4 20 C-5.65 20 -7.3 20 -9 20 C-8.34 19.67 -7.68 19.34 -7 19 C-7 18.34 -7 17.68 -7 17 C-7.66 17 -8.32 17 -9 17 C-8.67 16.01 -8.34 15.02 -8 14 C-7.34 14.165 -7.34 14.165 -4 15 C-4 14.34 -4 13.68 -4 13 C-3.34 13 -2.68 13 -2 13 C-1.25073929 9.33694766 -0.7619986 6.57644848 -2 3 C-1.34 3 -0.68 3 0 3 C0 2.01 0 1.02 0 0 Z " fill="#969167" transform="translate(80,45)" />
<path d="M0 0 C0 1.32 0 2.64 0 4 C-0.99 4 -1.98 4 -3 4 C-3.33 4.99 -3.66 5.98 -4 7 C-5.41433206 7.2236337 -6.83167618 7.42826476 -8.25 7.625 C-9.03890625 7.74101563 -9.8278125 7.85703125 -10.640625 7.9765625 C-13.32152459 8.00319395 -14.72694089 7.36592084 -17 6 C-16.67 5.34 -16.34 4.68 -16 4 C-13.69 4.33 -11.38 4.66 -9 5 C-9 4.01 -9 3.02 -9 2 C-3.375 0 -3.375 0 0 0 Z " fill="#F8FAEE" transform="translate(61,25)" />
<path d="M0 0 C3.88723524 1.47446854 4.93901883 3.5052928 7 7 C7.99 7.33 8.98 7.66 10 8 C10 9.65 10 11.3 10 13 C8.125 12.6875 8.125 12.6875 6 12 C5.34 11.01 4.68 10.02 4 9 C1.875 8.3125 1.875 8.3125 0 8 C-1.125 2.25 -1.125 2.25 0 0 Z " fill="#DEDFC9" transform="translate(63,20)" />
<path d="M0 0 C1.65 0.33 3.3 0.66 5 1 C5.33 1.99 5.66 2.98 6 4 C7.65 4 9.3 4 11 4 C11 4.66 11 5.32 11 6 C5.72 6 0.44 6 -5 6 C-4.67 4.68 -4.34 3.36 -4 2 C-4 2.66 -4 3.32 -4 4 C-3.34 4 -2.68 4 -2 4 C-1.34 2.68 -0.68 1.36 0 0 Z " fill="#D2CEB3" transform="translate(58,57)" />
<path d="M0 0 C0.99 0 1.98 0 3 0 C3 2.31 3 4.62 3 7 C3.66 7 4.32 7 5 7 C5.268125 7.309375 5.268125 7.309375 6.625 8.875 C9.90856373 11.81292544 12.70793174 12.14158635 17 13 C17 13.66 17 14.32 17 15 C10.47371727 14.15094963 6.25578727 13.41645653 2 8 C1.38125 7.319375 0.7625 6.63875 0.125 5.9375 C-1 4 -1 4 -0.6875 1.75 C-0.460625 1.1725 -0.23375 0.595 0 0 Z " fill="#625735" transform="translate(18,55)" />
<path d="M0 0 C0.33 0.66 0.66 1.32 1 2 C1.99 2.33 2.98 2.66 4 3 C4 4.32 4 5.64 4 7 C3.34 7 2.68 7 2 7 C1.67 7.66 1.34 8.32 1 9 C-0.0725 8.835 -1.145 8.67 -2.25 8.5 C-6 8 -6 8 -10 8 C-7.64031256 5.90250005 -6.45383006 5.03094296 -3.25 4.8125 C-2.87875 4.8434375 -2.87875 4.8434375 -1 5 C-0.67 3.35 -0.34 1.7 0 0 Z " fill="#D4D3B9" transform="translate(63,48)" />
<path d="M0 0 C1.65 0 3.3 0 5 0 C4.67 1.65 4.34 3.3 4 5 C0.7 5.33 -2.6 5.66 -6 6 C-5.67 4.68 -5.34 3.36 -5 2 C-3.35 2 -1.7 2 0 2 C0 1.34 0 0.68 0 0 Z " fill="#F7F4EA" transform="translate(58,48)" />
<path d="M0 0 C4.43458973 1.3937282 6.87378374 3.60582235 10 7 C3.93684211 12.05263158 3.93684211 12.05263158 1 13 C-1.25 12.125 -1.25 12.125 -3 11 C-2.43410156 10.81824219 -1.86820313 10.63648438 -1.28515625 10.44921875 C-0.91841797 10.32353516 -0.91841797 10.32353516 0.9375 9.6875 C1.66839844 9.44386719 2.39929687 9.20023438 3.15234375 8.94921875 C5 8 5 8 6 5 C4.35 4.67 2.7 4.34 1 4 C1 3.34 1 2.68 1 2 C0.34 1.67 -0.32 1.34 -1 1 C-0.67 0.67 -0.34 0.34 0 0 Z " fill="#D1D2B6" transform="translate(36,38)" />
<path d="M0 0 C0 0.99 0 1.98 0 3 C-3.96 3.99 -7.92 4.98 -12 6 C-12 5.34 -12 4.68 -12 4 C-13.32 3.67 -14.64 3.34 -16 3 C-14 1 -14 1 -10.125 0.9375 C-9.4134375 0.95683594 -8.701875 0.97617187 -7.96875 0.99609375 C-5.1915308 1.00160411 -2.7473284 0 0 0 Z " fill="#BEBB9A" transform="translate(76,44)" />
<path d="M0 0 C2.625 0.9375 2.625 0.9375 5 2 C4.67 2.99 4.34 3.98 4 5 C1.67793475 5.70491267 -0.65593068 6.37212429 -3 7 C-3.33 7.66 -3.66 8.32 -4 9 C-4.66 7.35 -5.32 5.7 -6 4 C-4.68 4 -3.36 4 -2 4 C-2 3.01 -2 2.02 -2 1 C-1.34 0.67 -0.68 0.34 0 0 Z " fill="#F3F5EA" transform="translate(32,42)" />
<path d="M0 0 C0.2990625 0.103125 0.2990625 0.103125 1.8125 0.625 C1.4825 2.275 1.1525 3.925 0.8125 5.625 C-0.64385371 5.84674933 -2.10272956 6.05198698 -3.5625 6.25 C-4.37460937 6.36601563 -5.18671875 6.48203125 -6.0234375 6.6015625 C-6.73757812 6.60929687 -7.45171875 6.61703125 -8.1875 6.625 C-8.8475 5.965 -9.5075 5.305 -10.1875 4.625 C-9.3625 4.79 -9.3625 4.79 -5.1875 5.625 C-5.1875 4.305 -5.1875 2.985 -5.1875 1.625 C-2.1875 -0.375 -2.1875 -0.375 0 0 Z " fill="#ACAA7F" transform="translate(45.1875,48.375)" />
<path d="M0 0 C0.33 0.99 0.66 1.98 1 3 C2.65 2.67 4.3 2.34 6 2 C5.67 3.32 5.34 4.64 5 6 C4.01 6 3.02 6 2 6 C1.67 6.99 1.34 7.98 1 9 C-1.64 9 -4.28 9 -7 9 C-4.78065836 5.67098753 -3.65316671 5.24976756 0 4 C0 2.68 0 1.36 0 0 Z " fill="#FAFCF5" transform="translate(44,18)" />
<path d="M0 0 C0.66 1.32 1.32 2.64 2 4 C-5.90909091 9.27272727 -5.90909091 9.27272727 -11 10 C-10.01 9.67 -9.02 9.34 -8 9 C-7.9175 8.21625 -7.835 7.4325 -7.75 6.625 C-7 4 -7 4 -5.125 2.6875 C-3 2 -3 2 0 2 C0 1.34 0 0.68 0 0 Z " fill="#E6E5D9" transform="translate(43,18)" />
<path d="M0 0 C0 0.66 0 1.32 0 2 C-0.66 2 -1.32 2 -2 2 C-2.061875 2.4021875 -2.061875 2.4021875 -2.375 4.4375 C-2.58125 5.283125 -2.7875 6.12875 -3 7 C-3.33 7.165 -3.33 7.165 -5 8 C-5 7.01 -5 6.02 -5 5 C-5.99 4.67 -6.98 4.34 -8 4 C-7.6875 2.0625 -7.6875 2.0625 -7 0 C-3.86650268 -1.04449911 -3.01031744 -0.93423645 0 0 Z " fill="#F6F6EA" transform="translate(31,34)" />
<path d="M0 0 C1.65 0 3.3 0 5 0 C5 0.99 5 1.98 5 3 C3.35 2.67 1.7 2.34 0 2 C0 2.99 0 3.98 0 5 C-1.32 5 -2.64 5 -4 5 C-4 6.32 -4 7.64 -4 9 C-6.02045442 8.39816251 -8.02111039 7.72693904 -10 7 C-10.33 6.34 -10.66 5.68 -11 5 C-10.175 5.33 -10.175 5.33 -6 7 C-5.67 6.01 -5.34 5.02 -5 4 C-4.01 4 -3.02 4 -2 4 C-1.34 2.68 -0.68 1.36 0 0 Z " fill="#C1C4B1" transform="translate(30,41)" />
<path d="M0 0 C0 0.66 0 1.32 0 2 C-3.3 2.66 -6.6 3.32 -10 4 C-10.33 2.68 -10.66 1.36 -11 0 C-6.98195309 -0.84098656 -3.98196457 -1.05404945 0 0 Z " fill="#EEECDE" transform="translate(48,56)" />
<path d="M0 0 C2.97 0.99 5.94 1.98 9 3 C9 2.34 9 1.68 9 1 C10.32 1.33 11.64 1.66 13 2 C13.33 3.32 13.66 4.64 14 6 C12.03897046 5.77211278 10.08109495 5.51694943 8.125 5.25 C7.03445312 5.11078125 5.94390625 4.9715625 4.8203125 4.828125 C4.35496094 4.69148438 4.35496094 4.69148438 2 4 C1.34 2.68 0.68 1.36 0 0 Z " fill="#A9A77B" transform="translate(20,54)" />
<path d="M0 0 C0 1.32 0 2.64 0 4 C1.32 4.33 2.64 4.66 4 5 C2.35 5.33 0.7 5.66 -1 6 C-1.33 4.68 -1.66 3.36 -2 2 C-5.3 2.33 -8.6 2.66 -12 3 C-12 2.34 -12 1.68 -12 1 C-11.608125 0.9278125 -11.608125 0.9278125 -9.625 0.5625 C-3.325 -0.7875 -3.325 -0.7875 0 0 Z " fill="#CED1BD" transform="translate(63,24)" />
<path d="M0 0 C0.680625 0.309375 1.36125 0.61875 2.0625 0.9375 C5.36965912 2.13370649 8.51545878 2.59005397 12 3 C12 2.34 12 1.68 12 1 C12.99 1 13.98 1 15 1 C15 1.66 15 2.32 15 3 C14.34 3 13.68 3 13 3 C13 3.66 13 4.32 13 5 C4.2404908 5.44539877 4.2404908 5.44539877 0 2 C0 1.34 0 0.68 0 0 Z " fill="#D5D3BA" transform="translate(18,49)" />
<path d="M0 0 C0.33 0.66 0.66 1.32 1 2 C2.32 1.67 3.64 1.34 5 1 C4.34 3.31 3.68 5.62 3 8 C2.6184375 8.0721875 2.6184375 8.0721875 0.6875 8.4375 C-2 9 -2 9 -5 10 C-5 9.34 -5 8.68 -5 8 C-4.360625 7.566875 -3.72125 7.13375 -3.0625 6.6875 C-0.50072404 4.59150148 -0.34778436 3.21700528 0 0 Z " fill="#D8D6C1" transform="translate(76,34)" />
<path d="M0 0 C0.66 0 1.32 0 2 0 C1.42415568 2.38564077 0.77772405 4.66682784 0 7 C-1.65 7 -3.3 7 -5 7 C-4.34 6.67 -3.68 6.34 -3 6 C-3 5.34 -3 4.68 -3 4 C-3.66 4 -4.32 4 -5 4 C-4.67 3.01 -4.34 2.02 -4 1 C-3.34 1.165 -3.34 1.165 0 2 C0 1.34 0 0.68 0 0 Z " fill="#8E875A" transform="translate(76,58)" />
<path d="M0 0 C2.33944736 0.28730055 4.6739143 0.61936779 7 1 C7.33 2.32 7.66 3.64 8 5 C9.32 5.33 10.64 5.66 12 6 C9.625 6.1875 9.625 6.1875 7 6 C6.34 5.01 5.68 4.02 5 3 C0.25 3.875 0.25 3.875 -2 5 C-1.125 1.125 -1.125 1.125 0 0 Z " fill="#A9AA89" transform="translate(57,55)" />
<path d="M0 0 C-2 2 -2 2 -5.4765625 2.1953125 C-6.85950968 2.18201493 -8.24238654 2.15816232 -9.625 2.125 C-10.33140625 2.11597656 -11.0378125 2.10695313 -11.765625 2.09765625 C-13.51056098 2.07407603 -15.25532295 2.03820461 -17 2 C-17 1.67 -17 1.34 -17 1 C-10.97767819 -0.46619907 -6.09632423 -1.32528788 0 0 Z " fill="#B1AC87" transform="translate(69,63)" />
<path d="M0 0 C3.3 0.33 6.6 0.66 10 1 C10 1.66 10 2.32 10 3 C7.29120665 4.35439668 4.99066732 4.06501451 2 4 C1.34 2.68 0.68 1.36 0 0 Z " fill="#B7B893" transform="translate(39,37)" />
<path d="M0 0 C1.65 0 3.3 0 5 0 C4.64950425 3.24208567 4.43778819 4.61527704 1.9375 6.8125 C1.298125 7.204375 0.65875 7.59625 0 8 C-0.66 7.67 -1.32 7.34 -2 7 C-1.34 6.34 -0.68 5.68 0 5 C0.125 2.375 0.125 2.375 0 0 Z " fill="#AAA77B" transform="translate(74,49)" />
<path d="M0 0 C1.32 0.33 2.64 0.66 4 1 C3.85831863 2.43791516 3.71148957 3.8753237 3.5625 5.3125 C3.48128906 6.11300781 3.40007812 6.91351563 3.31640625 7.73828125 C3 10 3 10 2 13 C0.24252386 8.49646738 -0.19294408 4.82360189 0 0 Z " fill="#64603F" transform="translate(80,38)" />
<path d="M0 0 C0 0.66 0 1.32 0 2 C-1.8125 3.0625 -1.8125 3.0625 -4 4 C-4.99 3.67 -5.98 3.34 -7 3 C-6.67 4.65 -6.34 6.3 -6 8 C-6.66 7.67 -7.32 7.34 -8 7 C-8 6.01 -8 5.02 -8 4 C-8.66 3.67 -9.32 3.34 -10 3 C-9.34 3 -8.68 3 -8 3 C-8 2.34 -8 1.68 -8 1 C-5.10765685 0.17361624 -3.11257569 0 0 0 Z " fill="#E2E5D3" transform="translate(58,22)" />
<path d="M0 0 C-0.33 1.32 -0.66 2.64 -1 4 C-7.15234375 3.4140625 -7.15234375 3.4140625 -9 3 C-9.33 2.34 -9.66 1.68 -10 1 C-6.56484998 0.37542727 -3.50935186 0 0 0 Z " fill="#F2F3E8" transform="translate(63,19)" />
<path d="M0 0 C3.04386724 -0.08226668 5.07175348 0.02391783 8 1 C9.99673484 1.35236497 11.99650739 1.68834559 14 2 C14 2.33 14 2.66 14 3 C12.56359829 3.19573608 11.12580496 3.38127816 9.6875 3.5625 C8.88699219 3.66691406 8.08648437 3.77132812 7.26171875 3.87890625 C5 4 5 4 2 3 C2 2.34 2 1.68 2 1 C1.34 0.67 0.68 0.34 0 0 Z " fill="#8D8758" transform="translate(58,65)" />
<path d="M0 0 C2.64 0 5.28 0 8 0 C7.67 0.66 7.34 1.32 7 2 C5.02 2 3.04 2 1 2 C1 3.32 1 4.64 1 6 C0.01 6 -0.98 6 -2 6 C-2.66 4.35 -3.32 2.7 -4 1 C-2.68 1.33 -1.36 1.66 0 2 C0 1.34 0 0.68 0 0 Z " fill="#B5B392" transform="translate(36,54)" />
<path d="M0 0 C0.99 0.33 1.98 0.66 3 1 C3 1.66 3 2.32 3 3 C1.58461283 3.33872513 0.16762037 3.67074624 -1.25 4 C-2.03890625 4.185625 -2.8278125 4.37125 -3.640625 4.5625 C-6 5 -6 5 -10 5 C-10 4.34 -10 3.68 -10 3 C-8.99088542 2.75585938 -8.99088542 2.75585938 -3.9453125 1.53515625 C-2 1 -2 1 0 0 Z " fill="#CCCAAE" transform="translate(76,41)" />
<path d="M0 0 C6.625 -0.25 6.625 -0.25 10 2 C9.67 2.66 9.34 3.32 9 4 C7.35 4 5.7 4 4 4 C4 3.34 4 2.68 4 2 C3.34 2 2.68 2 2 2 C2 2.66 2 3.32 2 4 C1.34 3.67 0.68 3.34 0 3 C0 2.01 0 1.02 0 0 Z " fill="#F0F3E5" transform="translate(62,33)" />
<path d="M0 0 C0.99 0.33 1.98 0.66 3 1 C3.33 2.65 3.66 4.3 4 6 C3.34 6 2.68 6 2 6 C2 6.66 2 7.32 2 8 C1.34 8 0.68 8 0 8 C-1.125 2.25 -1.125 2.25 0 0 Z " fill="#E7E8D7" transform="translate(63,20)" />
<path d="M0 0 C0.804375 0.886875 1.60875 1.77375 2.4375 2.6875 C3.4275 3.3475 4.4175 4.0075 5.4375 4.6875 C3.4575 4.6875 1.4775 4.6875 -0.5625 4.6875 C-1.2225 3.3675 -1.8825 2.0475 -2.5625 0.6875 C-4.2125 0.6875 -5.8625 0.6875 -7.5625 0.6875 C-6.5625 -1.3125 -6.5625 -1.3125 -4.8125 -2.25 C-2.5625 -2.3125 -2.5625 -2.3125 0 0 Z " fill="#BEBCA5" transform="translate(32.5625,33.3125)" />
<path d="M0 0 C1.32 0.66 2.64 1.32 4 2 C4 3.98 4 5.96 4 8 C3.34 8 2.68 8 2 8 C0.93224776 6.03533587 -0.06553465 4.03144641 -1 2 C-0.67 1.34 -0.34 0.68 0 0 Z " fill="#666045" transform="translate(17,38)" />
<path d="M0 0 C6.75 0.75 6.75 0.75 9 3 C3.58461538 4.23076923 3.58461538 4.23076923 0.625 3.0625 C0.08875 2.711875 -0.4475 2.36125 -1 2 C-0.67 1.34 -0.34 0.68 0 0 Z " fill="#F2F4E7" transform="translate(45,29)" />
<path d="M0 0 C0.66 0.99 1.32 1.98 2 3 C3.32 3.66 4.64 4.32 6 5 C2.37 4.67 -1.26 4.34 -5 4 C-2 1 -2 1 0 0 Z " fill="#C0BD9C" transform="translate(51,59)" />
<path d="M0 0 C0.33 0.66 0.66 1.32 1 2 C3.06640625 2.4140625 3.06640625 2.4140625 5.5625 2.625 C6.38878906 2.69976562 7.21507812 2.77453125 8.06640625 2.8515625 C8.70449219 2.90054688 9.34257812 2.94953125 10 3 C8 5 8 5 6.0546875 5.1953125 C4.03645833 5.13020833 2.01822917 5.06510417 0 5 C-0.33 4.01 -0.66 3.02 -1 2 C-0.67 1.34 -0.34 0.68 0 0 Z " fill="#9A9467" transform="translate(21,56)" />
<path d="M0 0 C0.66 0 1.32 0 2 0 C2 2.31 2 4.62 2 7 C0.68 7.33 -0.64 7.66 -2 8 C-2.33 7.34 -2.66 6.68 -3 6 C-2.67 5.34 -2.34 4.68 -2 4 C-1.34 4 -0.68 4 0 4 C-0.33 3.01 -0.66 2.02 -1 1 C-0.67 0.67 -0.34 0.34 0 0 Z " fill="#C5C2A3" transform="translate(67,51)" />
<path d="M0 0 C1.65 0 3.3 0 5 0 C4.67 1.65 4.34 3.3 4 5 C2.35 5 0.7 5 -1 5 C-0.01 4.01 0.98 3.02 2 2 C1.34 1.34 0.68 0.68 0 0 Z " fill="#E5E3D4" transform="translate(58,48)" />
<path d="M0 0 C1.32 0.33 1.32 0.33 8 2 C8 2.33 8 2.66 8 3 C4.7 3.33 1.4 3.66 -2 4 C-1.34 2.68 -0.68 1.36 0 0 Z " fill="#C4C4A0" transform="translate(50,47)" />
<path d="M0 0 C1.65 0.33 3.3 0.66 5 1 C5 1.66 5 2.32 5 3 C3.02 3.33 1.04 3.66 -1 4 C-0.67 2.68 -0.34 1.36 0 0 Z " fill="#ECEDD3" transform="translate(58,57)" />
<path d="M0 0 C0.99 0 1.98 0 3 0 C3 1.98 3 3.96 3 6 C1.68 5.67 0.36 5.34 -1 5 C-0.67 3.35 -0.34 1.7 0 0 Z " fill="#67613F" transform="translate(18,55)" />
<path d="M0 0 C0.66 0.33 1.32 0.66 2 1 C2 3.97 2 6.94 2 10 C1.67 10 1.34 10 1 10 C0.63883954 8.5225254 0.28624952 7.04295325 -0.0625 5.5625 C-0.25972656 4.73878906 -0.45695312 3.91507813 -0.66015625 3.06640625 C-0.71623047 2.72544922 -0.71623047 2.72544922 -1 1 C-0.67 0.67 -0.34 0.34 0 0 Z " fill="#7A7560" transform="translate(20,35)" />
</svg>