<?xml version='1.0' encoding='utf-8'?>
<svg xmlns="http://www.w3.org/2000/svg" version="1.1" width="102" height="93">
<path d="M0 0 C0 0.66 0 1.32 0 2 C0.99 2 1.98 2 3 2 C3.18175781 2.62648438 3.36351562 3.25296875 3.55078125 3.8984375 C3.80214844 4.71570313 4.05351563 5.53296875 4.3125 6.375 C4.55613281 7.18710937 4.79976562 7.99921875 5.05078125 8.8359375 C6 11 6 11 9 13 C9.29296875 15.1640625 9.29296875 15.1640625 9.1875 17.625 C9.17396484 18.03363281 9.17396484 18.03363281 9.10546875 20.1015625 C9.07066406 20.72804688 9.03585938 21.35453125 9 22 C10.98 21.67 12.96 21.34 15 21 C15 20.34 15 19.68 15 19 C15.99 19.33 16.98 19.66 18 20 C18.56714817 30.81782628 18.56714817 30.81782628 15 35 C9.99787226 39.47558798 4.8267316 42.21288301 -1.5 44.375 C-6.32954583 46.03705081 -11.03891348 47.84210481 -15.75 49.8125 C-23.2643506 52.69421698 -29.29641632 53.30028393 -36.875 50.375 C-40.9295587 48.32615385 -43.16044352 46.26442639 -45 42 C-45 35.42772512 -42.51423366 26.85779353 -38.11328125 21.85546875 C-36 20 -36 20 -33.8125 18.58203125 C-31.35274399 16.43504594 -31.35408187 14.88751487 -31 11.6875 C-30.26245482 6.87438186 -29.3406537 3.71183745 -26 0 C-18.24269552 -5.67607645 -8.2658067 -3.42877908 0 0 Z " fill="#4EBCF6" transform="translate(64,20)" />
<path d="M0 0 C0 0.66 0 1.32 0 2 C0.99 2 1.98 2 3 2 C3.99 4.97 4.98 7.94 6 11 C5.34 11 4.68 11 4 11 C3.835 11.721875 3.67 12.44375 3.5 13.1875 C0.91122382 18.04145534 -3.760333 20.08099747 -8.72265625 22.1171875 C-12.77738545 23.20940299 -16.50679201 23.40503549 -20.6875 23.4375 C-21.06680664 23.45393555 -21.06680664 23.45393555 -22.98632812 23.53710938 C-25.19921875 23.55859375 -25.19921875 23.55859375 -29 23 C-31.5679765 20.3050893 -32.00107731 18.80043805 -31.99609375 15.09765625 C-30.68466434 7.9719174 -29.55972096 2.60467387 -23.4375 -1.875 C-15.31940047 -4.53183257 -7.74507303 -3.21277103 0 0 Z " fill="#0968B1" transform="translate(64,20)" />
<path d="M0 0 C0.825 0.165 0.825 0.165 5 1 C5 3.97 5 6.94 5 10 C2.69 10.33 0.38 10.66 -2 11 C-2 11.66 -2 12.32 -2 13 C-2.391875 13.0309375 -2.391875 13.0309375 -4.375 13.1875 C-5.24125 13.455625 -6.1075 13.72375 -7 14 C-8.0625 16.375 -8.0625 16.375 -9 19 C-12.31034483 22 -12.31034483 22 -15 22 C-15 21.34 -15 20.68 -15 20 C-15.825 20.33 -16.65 20.66 -17.5 21 C-22.98505256 22.56715787 -27.13157216 22.78134255 -32.4375 20.5625 C-35 19 -35 19 -36 18 C-36.07205511 16.31391034 -36.08386068 14.62499341 -36.0625 12.9375 C-36.05347656 12.01839844 -36.04445313 11.09929688 -36.03515625 10.15234375 C-36.02355469 9.44207031 -36.01195313 8.73179688 -36 8 C-35.505 8.33 -35.505 8.33 -33 10 C-30.24221163 10.25070803 -27.63306387 10.38033417 -24.875 10.375 C-24.11034424 10.37483887 -23.34568848 10.37467773 -22.55786133 10.37451172 C-16.60744361 10.25430126 -12.11944142 9.11025931 -7 6 C-6.30003906 5.67 -5.60007812 5.34 -4.87890625 5 C-2.53077684 3.75026792 -1.4597971 2.18969565 0 0 Z " fill="#B7EDFA" transform="translate(68,32)" />
<path d="M0 0 C0.73412109 -0.00322266 1.46824219 -0.00644531 2.22460938 -0.00976562 C7.05835695 0.03741381 11.10011874 0.79145285 15.6875 2.3125 C15.8525 2.9725 15.8525 2.9725 16.6875 6.3125 C16.0275 6.3125 15.3675 6.3125 14.6875 6.3125 C14.6875 5.6525 14.6875 4.9925 14.6875 4.3125 C6.84037464 2.25423761 -0.95914545 0.83546899 -8.8125 3.5 C-12.51453981 6.18397887 -13.98584766 8.38410506 -14.7578125 12.94140625 C-14.82871094 13.42544922 -14.82871094 13.42544922 -15.1875 15.875 C-15.81288297 19.80749293 -16.02205786 21.0002747 -18.8125 24 C-21.3125 25.3125 -21.3125 25.3125 -23.3125 25.3125 C-24.78101614 28.93395382 -26.18767741 32.56886407 -27.5 36.25 C-27.86480469 37.24902344 -28.22960937 38.24804688 -28.60546875 39.27734375 C-29.58490336 43.48187796 -28.93951242 46.56409999 -27.5 50.578125 C-25.15826754 53.99828688 -21.18011145 54.47223311 -17.3125 55.3125 C-8.63768101 56.83096918 -1.16178954 53.34721943 6.69775391 50.11181641 C9.66143914 48.92125132 12.67944369 47.88505898 15.6875 46.8125 C21.51331648 44.56178084 27.39338528 41.86202604 30.88671875 36.45703125 C31.85420658 33.86605163 31.88507411 31.8203161 31.8125 29.0625 C31.79445312 28.17046875 31.77640625 27.2784375 31.7578125 26.359375 C31.73460937 25.68390625 31.71140625 25.0084375 31.6875 24.3125 C31.0275 23.9825 30.3675 23.6525 29.6875 23.3125 C29.6875 23.9725 29.6875 24.6325 29.6875 25.3125 C28.6975 25.4775 28.6975 25.4775 23.6875 26.3125 C23.5225 24.4975 23.5225 24.4975 22.6875 15.3125 C32.23295455 19.60795455 32.23295455 19.60795455 34.6875 24.3125 C35.48949765 29.29992287 35.30625568 33.09790552 33 37.625 C27.25285113 44.30411896 21.95735633 48.18336517 13.6875 51.3125 C13.0275 51.663125 12.3675 52.01375 11.6875 52.375 C9.6875 53.3125 9.6875 53.3125 7.41796875 53.7109375 C4.35139977 54.38654783 1.84095501 55.54365793 -1 56.875 C-7.56594188 59.63494861 -13.05693975 60.96780215 -19.86328125 58.3203125 C-24.00086227 56.19543038 -26.50380261 54.72119988 -28.3125 50.3125 C-28.9725 50.3125 -29.6325 50.3125 -30.3125 50.3125 C-32.922003 45.09349401 -31.21704315 39.38709605 -29.5625 34.125 C-28.03912037 29.88091781 -26.65643973 26.45377671 -23.3125 23.3125 C-22.44625 22.94125 -21.58 22.57 -20.6875 22.1875 C-17.17656442 19.41570875 -17.43767604 16.32776415 -16.83203125 12.04296875 C-15.9898702 7.61687422 -13.7980203 4.81960171 -10.69921875 1.67578125 C-7.22988909 -0.30588168 -3.88145349 -0.08386892 0 0 Z " fill="#255976" transform="translate(49.3125,15.6875)" />
<path d="M0 0 C0.99 0.33 1.98 0.66 3 1 C3.56714817 11.81782628 3.56714817 11.81782628 0 16 C-2.375 18.125 -2.375 18.125 -5 20 C-5.4021875 20.2990625 -5.4021875 20.2990625 -7.4375 21.8125 C-10.72830958 23.33750932 -12.5653083 23.01479527 -16 22 C-16.33 21.34 -16.66 20.68 -17 20 C-16.34 20 -15.68 20 -15 20 C-14.67 19.34 -14.34 18.68 -14 18 C-15.32 18.33 -16.64 18.66 -18 19 C-18 18.34 -18 17.68 -18 17 C-19.98 16.67 -21.96 16.34 -24 16 C-22.87952194 12.63856582 -21.50292817 11.42471166 -19 9 C-18.67 8.34 -18.34 7.68 -18 7 C-15.4375 6.375 -15.4375 6.375 -13 6 C-13 5.34 -13 4.68 -13 4 C-8.71 3.34 -4.42 2.68 0 2 C0 1.34 0 0.68 0 0 Z " fill="#32A2E8" transform="translate(79,39)" />
<path d="M0 0 C-0.66 1.32 -1.32 2.64 -2 4 C-2.66 4 -3.32 4 -4 4 C-4.03738281 4.83144531 -4.07476562 5.66289062 -4.11328125 6.51953125 C-4.17902344 7.60621094 -4.24476562 8.69289063 -4.3125 9.8125 C-4.37050781 10.89144531 -4.42851563 11.97039063 -4.48828125 13.08203125 C-5 16 -5 16 -6.1015625 17.83984375 C-9.00660631 19.6151483 -11.69324729 19.56881992 -15.0625 19.75 C-16.31160156 19.82734375 -17.56070313 19.9046875 -18.84765625 19.984375 C-22 20 -22 20 -24 19 C-25.18681726 15.43954823 -25.09689832 12.56191663 -25.0625 8.8125 C-25.05347656 7.54019531 -25.04445312 6.26789062 -25.03515625 4.95703125 C-25.02355469 3.98121094 -25.01195312 3.00539063 -25 2 C-24.01 1.67 -23.02 1.34 -22 1 C-22 1.66 -22 2.32 -22 3 C-17.80009304 2.64534119 -13.88236645 2.30000459 -9.875 0.9375 C-6.47204228 -0.17216013 -3.55637666 -0.14225507 0 0 Z " fill="#3FB2F0" transform="translate(60,22)" />
<path d="M0 0 C0.825 0.165 0.825 0.165 5 1 C5 3.97 5 6.94 5 10 C2.69 10.33 0.38 10.66 -2 11 C-2 11.66 -2 12.32 -2 13 C-2.391875 13.0309375 -2.391875 13.0309375 -4.375 13.1875 C-5.24125 13.455625 -6.1075 13.72375 -7 14 C-8.0625 16.375 -8.0625 16.375 -9 19 C-12.31034483 22 -12.31034483 22 -15 22 C-14.67 20.845 -14.67 20.845 -13 15 C-15.84614024 12.15385976 -18.80369142 12.54420924 -22.625 12.375 C-23.33140625 12.33632813 -24.0378125 12.29765625 -24.765625 12.2578125 C-26.50998524 12.16352276 -28.25495691 12.08067109 -30 12 C-30 11.67 -30 11.34 -30 11 C-29.54689453 10.98710938 -29.54689453 10.98710938 -27.25390625 10.921875 C-19.61884455 10.56638006 -13.69359981 9.71088692 -7 6 C-6.29617187 5.67128906 -5.59234375 5.34257813 -4.8671875 5.00390625 C-2.53193322 3.74834066 -1.45535681 2.18303521 0 0 Z " fill="#8CB5C3" transform="translate(68,32)" />
<path d="M0 0 C0 4.33333333 0 8.66666667 0 13 C0.2475 13.598125 0.495 14.19625 0.75 14.8125 C1 17 1 17 -0.8125 19.6875 C-3 22 -3 22 -5 23 C-5.33 23.99 -5.66 24.98 -6 26 C-6.99 26.33 -7.98 26.66 -9 27 C-10.5625 25.4375 -10.5625 25.4375 -12 23 C-11.8604324 16.16118741 -9.54809205 7.87464365 -4.98828125 2.73046875 C-1.8510158 0 -1.8510158 0 0 0 Z " fill="#2C9DE7" transform="translate(31,39)" />
<path d="M0 0 C1.32 0 2.64 0 4 0 C3.67 0.99 3.34 1.98 3 3 C2.77820215 4.89212737 2.59385985 6.78884472 2.4375 8.6875 C2.35371094 9.68136719 2.26992188 10.67523438 2.18359375 11.69921875 C2.15330078 12.07884766 2.15330078 12.07884766 2 14 C2.66 14.33 3.32 14.66 4 15 C3.0929702 18.28798303 1.92497945 19.04286888 -1.0625 20.75 C-5.56643047 22.25131016 -10.10520435 22.39104629 -14.8125 22.5 C-15.1892688 22.51530762 -15.1892688 22.51530762 -17.09594727 22.59277344 C-19.26953125 22.59375 -19.26953125 22.59375 -23 22 C-25.0625 19.86328125 -25.0625 19.86328125 -26 17 C-25.85546875 13.88671875 -25.85546875 13.88671875 -25.1875 10.6875 C-24.97480469 9.61886719 -24.76210938 8.55023438 -24.54296875 7.44921875 C-24.36378906 6.64097656 -24.18460938 5.83273438 -24 5 C-23.67 5 -23.34 5 -23 5 C-22.67 9.95 -22.34 14.9 -22 20 C-16.72 19.67 -11.44 19.34 -6 19 C-5.67 17.68 -5.34 16.36 -5 15 C-4.34 15 -3.68 15 -3 15 C-3.04125 14.3915625 -3.04125 14.3915625 -3.25 11.3125 C-3.27471684 7.83360474 -3.04111557 7.06167336 -1 4 C-0.34 3.34 0.32 2.68 1 2 C0.67 1.34 0.34 0.68 0 0 Z " fill="#1F8DDB" transform="translate(58,21)" />
<path d="M0 0 C9.54545455 4.29545455 9.54545455 4.29545455 12 9 C12.80199765 13.98742287 12.61875568 17.78540552 10.3125 22.3125 C5.9410939 27.39278276 2.06708855 31.13192178 -4 34 C-6.21484375 33.6015625 -6.21484375 33.6015625 -8 33 C-7.09636719 32.45730469 -6.19273438 31.91460937 -5.26171875 31.35546875 C-4.07017612 30.63303739 -2.8787774 29.91036864 -1.6875 29.1875 C-1.09259766 28.83107422 -0.49769531 28.47464844 0.11523438 28.10742188 C7.45376387 23.63870838 7.45376387 23.63870838 9 19 C9.06802967 17.27204648 9.08495645 15.54164635 9.0625 13.8125 C9.05347656 12.91144531 9.04445313 12.01039062 9.03515625 11.08203125 C9.02355469 10.39496094 9.01195313 9.70789062 9 9 C8.34 8.67 7.68 8.34 7 8 C7 8.66 7 9.32 7 10 C5.02 10.33 3.04 10.66 1 11 C0.67 7.37 0.34 3.74 0 0 Z " fill="#1F4D6E" transform="translate(72,31)" />
<path d="M0 0 C0.99 0.33 1.98 0.66 3 1 C3.05416188 2.60379341 3.09286638 4.20811406 3.125 5.8125 C3.14820312 6.70582031 3.17140625 7.59914063 3.1953125 8.51953125 C3 11 3 11 1 14 C0.34 12.02 -0.32 10.04 -1 8 C-1.99 8.66 -2.98 9.32 -4 10 C-4.66 9.34 -5.32 8.68 -6 8 C-10.05605916 7.60348098 -13.72629307 8.16398509 -17.1484375 10.41015625 C-18.84828559 11.87757614 -20.45288645 13.37329218 -22 15 C-21.84337891 14.69255859 -21.84337891 14.69255859 -21.05078125 13.13671875 C-20 11 -20 11 -19.1875 8.8125 C-18 7 -18 7 -15.375 6.25 C-14.983125 6.20875 -14.983125 6.20875 -13 6 C-13 5.34 -13 4.68 -13 4 C-8.71 3.34 -4.42 2.68 0 2 C0 1.34 0 0.68 0 0 Z " fill="#2A90D8" transform="translate(79,39)" />
<path d="M0 0 C0.73412109 -0.00322266 1.46824219 -0.00644531 2.22460938 -0.00976562 C7.05835695 0.03741381 11.10011874 0.79145285 15.6875 2.3125 C15.8525 2.9725 15.8525 2.9725 16.6875 6.3125 C16.0275 6.3125 15.3675 6.3125 14.6875 6.3125 C14.6875 5.6525 14.6875 4.9925 14.6875 4.3125 C6.84037464 2.25423761 -0.95914545 0.83546899 -8.8125 3.5 C-12.51453981 6.18397887 -13.98584766 8.38410506 -14.7578125 12.94140625 C-14.82871094 13.42544922 -14.82871094 13.42544922 -15.1875 15.875 C-15.81288297 19.80749293 -16.02205786 21.0002747 -18.8125 24 C-21.3125 25.3125 -21.3125 25.3125 -23.3125 25.3125 C-24.78936984 28.92189041 -26.124676 32.556077 -27.375 36.25 C-27.54580078 36.74951172 -27.54580078 36.74951172 -28.41015625 39.27734375 C-29.30360781 42.28258991 -29.86435491 45.21244478 -30.3125 48.3125 C-30.6425 48.3125 -30.9725 48.3125 -31.3125 48.3125 C-31.95064024 40.01667685 -29.83342226 32.29718358 -25.375 25.25 C-23.3125 23.3125 -23.3125 23.3125 -20.6875 22.1875 C-17.17656442 19.41570875 -17.43767604 16.32776415 -16.83203125 12.04296875 C-15.9898702 7.61687422 -13.7980203 4.81960171 -10.69921875 1.67578125 C-7.22988909 -0.30588168 -3.88145349 -0.08386892 0 0 Z " fill="#1A4C6E" transform="translate(49.3125,15.6875)" />
<path d="M0 0 C0.94746094 -0.01417969 1.89492188 -0.02835938 2.87109375 -0.04296875 C5.60751644 0.19135482 7.22678123 0.79048617 9.5625 2.1875 C7.40216496 3.30767372 5.26922687 4.30194805 3 5.1875 C0.5625 6.1875 0.5625 6.1875 -2.4375 8.1875 C-4.91796875 8.6015625 -4.91796875 8.6015625 -7.625 8.8125 C-8.52605469 8.88726562 -9.42710938 8.96203125 -10.35546875 9.0390625 C-11.04253906 9.08804687 -11.72960938 9.13703125 -12.4375 9.1875 C-12.1075 8.1975 -11.7775 7.2075 -11.4375 6.1875 C-12.0975 5.8575 -12.7575 5.5275 -13.4375 5.1875 C-8.85075879 1.34455466 -5.96919601 0.04049658 0 0 Z " fill="#228CD3" transform="translate(49.4375,16.8125)" />
<path d="M0 0 C-5.35760334 4.82184301 -10.88653406 8.41922979 -18 10 C-18.33 8.02 -18.66 6.04 -19 4 C-15.7741218 1.17055502 -13.15005901 0.39728292 -8.9375 -0.25 C-7.89464844 -0.42015625 -6.85179687 -0.5903125 -5.77734375 -0.765625 C-3 -1 -3 -1 0 0 Z " fill="#57C5FC" transform="translate(57,24)" />
<path d="M0 0 C0.33 0 0.66 0 1 0 C1.1799928 5.21979128 0.97094808 9.07262981 -1 14 C-0.34 14 0.32 14 1 14 C1.33 12.02 1.66 10.04 2 8 C2.66 8 3.32 8 4 8 C4.66 6.68 5.32 5.36 6 4 C6.99 4 7.98 4 9 4 C9.75 5.6875 9.75 5.6875 10 8 C8.21482174 10.64698845 6.87978754 12.56010623 4 14 C3.67 14.99 3.34 15.98 3 17 C2.01 17.33 1.02 17.66 0 18 C-1.5625 16.4375 -1.5625 16.4375 -3 14 C-2.72414298 9.12652599 -1.42089482 4.64158973 0 0 Z " fill="#37A7EA" transform="translate(22,48)" />
<path d="M0 0 C1.65 0.33 3.3 0.66 5 1 C5 3.97 5 6.94 5 10 C3.865625 10.12375 2.73125 10.2475 1.5625 10.375 C0.9746875 10.478125 0.9746875 10.478125 -2 11 C-2.33 11.66 -2.66 12.32 -3 13 C-3.12375 11.865625 -3.2475 10.73125 -3.375 9.5625 C-3.58125 8.386875 -3.7875 7.21125 -4 6 C-4.66 5.67 -5.32 5.34 -6 5 C-5.01 4.67 -4.02 4.34 -3 4 C-1.3125 1.9375 -1.3125 1.9375 0 0 Z " fill="#83ADC0" transform="translate(68,32)" />
<path d="M0 0 C0.31324219 0.04189453 0.31324219 0.04189453 1.8984375 0.25390625 C2.30707031 0.30482422 2.30707031 0.30482422 4.375 0.5625 C4.78105469 0.61470703 4.78105469 0.61470703 6.8359375 0.87890625 C9 1 9 1 11 0 C11 0.99 11 1.98 11 3 C11.66 3 12.32 3 13 3 C12.67 3.99 12.34 4.98 12 6 C12.33 6.99 12.66 7.98 13 9 C6.375 12 6.375 12 3 12 C3 10 3 10 4.5 8.375 C4.995 7.92125 5.49 7.4675 6 7 C3 5 3 5 1 4 C0.375 1.9375 0.375 1.9375 0 0 Z " fill="#43B1F4" transform="translate(52,54)" />
<path d="M0 0 C0.33 1.32 0.66 2.64 1 4 C-0.98 4 -2.96 4 -5 4 C-5 3.34 -5 2.68 -5 2 C-6.32 2 -7.64 2 -9 2 C-9.33 2.99 -9.66 3.98 -10 5 C-11.6875 7.25 -11.6875 7.25 -14 9 C-17.25 8.75 -17.25 8.75 -20 8 C-19.67 7.01 -19.34 6.02 -19 5 C-18.01 5 -17.02 5 -16 5 C-15.236875 4.195625 -14.47375 3.39125 -13.6875 2.5625 C-9.41720853 -1.50917327 -5.52898608 -1.46355514 0 0 Z " fill="#2F9DE4" transform="translate(75,47)" />
<path d="M0 0 C3.3 0 6.6 0 10 0 C10 2.64 10 5.28 10 8 C3.25 8.125 3.25 8.125 1 7 C0.59270772 4.67843403 0.25561323 2.3431213 0 0 Z " fill="#E3FAF9" transform="translate(38,44)" />
<path d="M0 0 C0.66 0 1.32 0 2 0 C2 0.66 2 1.32 2 2 C2.99 2.66 3.98 3.32 5 4 C4.67 4.165 4.67 4.165 3 5 C3.33 6.65 3.66 8.3 4 10 C4.53625 9.71125 5.0725 9.4225 5.625 9.125 C8.35280484 7.83288192 11.12612718 6.91441408 14 6 C9.38823529 12.09411765 9.38823529 12.09411765 6 14 C3.75 13.6875 3.75 13.6875 2 13 C2 12.34 2 11.68 2 11 C1.01 11 0.02 11 -1 11 C-1.02688151 9.35425434 -1.04634123 7.70838587 -1.0625 6.0625 C-1.07410156 5.14597656 -1.08570313 4.22945312 -1.09765625 3.28515625 C-1 1 -1 1 0 0 Z " fill="#49B7F1" transform="translate(36,23)" />
<path d="M0 0 C0.33 0 0.66 0 1 0 C1.33 4.95 1.66 9.9 2 15 C3.134375 14.979375 3.134375 14.979375 8.875 14.875 C12.7421875 14.8046875 12.7421875 14.8046875 16 15 C16.66 15.66 17.32 16.32 18 17 C15.22754986 17.13487595 12.46162912 17.23400807 9.6875 17.3125 C8.90181641 17.35439453 8.11613281 17.39628906 7.30664062 17.43945312 C5.10582354 17.48627902 3.1547821 17.45320301 1 17 C-1.09375 14.875 -1.09375 14.875 -2 12 C-1.85546875 8.88671875 -1.85546875 8.88671875 -1.1875 5.6875 C-1.08115234 5.15318359 -1.08115234 5.15318359 -0.54296875 2.44921875 C-0.36378906 1.64097656 -0.18460938 0.83273438 0 0 Z " fill="#55A7D8" transform="translate(34,26)" />
<path d="M0 0 C5.94 0 11.88 0 18 0 C18.66 1.32 19.32 2.64 20 4 C18.68 4 17.36 4 16 4 C16 3.34 16 2.68 16 2 C15.34 2.33 15.34 2.33 12 4 C12 4.66 12 5.32 12 6 C10.68 6 9.36 6 8 6 C7.67 5.67 7.34 5.34 7 5 C4.67182036 4.63239269 2.3381615 4.29758419 0 4 C0 2.68 0 1.36 0 0 Z " fill="#52C1F9" transform="translate(34,54)" />
<path d="M0 0 C0.66 0 1.32 0 2 0 C2 3.96 2 7.92 2 12 C8.76985116 16.06191069 14.47311519 15.50537696 22 14 C22 14.66 22 15.32 22 16 C18.6866459 17.10445137 16.17304805 17.13304048 12.6875 17.125 C12.13255859 17.12628906 12.13255859 17.12628906 9.32421875 17.1328125 C6.0984034 17.00393151 3.13766321 16.76718851 0 16 C-1.375 13.4375 -1.375 13.4375 -2 11 C-1.67 11 -1.34 11 -1 11 C-0.67 7.37 -0.34 3.74 0 0 Z " fill="#59AEDC" transform="translate(31,38)" />
<path d="M0 0 C0.66 0 1.32 0 2 0 C3.45606519 4.52092968 2.27032841 7.51648796 1 12 C-0.98 12.33 -2.96 12.66 -5 13 C-5 11.68 -5 10.36 -5 9 C-4.34 9 -3.68 9 -3 9 C-2.87625 8.2575 -2.7525 7.515 -2.625 6.75 C-2.04513299 4.19858515 -1.26291261 2.2732427 0 0 Z " fill="#32A6EC" transform="translate(53,28)" />
<path d="M0 0 C4.55384615 -0.36923077 4.55384615 -0.36923077 6.8125 1.5 C7.204375 1.995 7.59625 2.49 8 3 C7.375 5.4375 7.375 5.4375 6 8 C2.875 8.8125 2.875 8.8125 0 9 C0 6.03 0 3.06 0 0 Z " fill="#C1E4E8" transform="translate(48,44)" />
<path d="M0 0 C4.4649937 1.40328373 7.19115873 3.22812744 10 7 C10.85698009 11.413047 10.5368957 14.90286532 8.5625 18.9375 C8.3046875 19.2778125 8.3046875 19.2778125 7 21 C6.67 21.66 6.34 22.32 6 23 C5.01 22.67 4.02 22.34 3 22 C3.495 21.38125 3.99 20.7625 4.5 20.125 C6.60416488 15.74132318 6.87298036 11.78173027 6 7 C3.5625 4 3.5625 4 1 2 C0.67 1.34 0.34 0.68 0 0 Z " fill="#5D6764" transform="translate(77,33)" />
<path d="M0 0 C-0.99 0.33 -1.98 0.66 -3 1 C-3.226875 1.639375 -3.45375 2.27875 -3.6875 2.9375 C-5.31593039 5.49646205 -6.12304199 5.50325053 -9 6.1875 C-9.70125 6.32542969 -10.4025 6.46335937 -11.125 6.60546875 C-13 7 -13 7 -15 8 C-16.99960012 8.039992 -19.00047242 8.04346799 -21 8 C-17.50665815 5.02618079 -13.5955782 3.41559216 -9.375 1.75 C-8.694375 1.46898438 -8.01375 1.18796875 -7.3125 0.8984375 C-2.24728709 -1.12364354 -2.24728709 -1.12364354 0 0 Z " fill="#28607F" transform="translate(67,63)" />
<path d="M0 0 C0 0.99 0 1.98 0 3 C1.32 2.67 2.64 2.34 4 2 C4 2.66 4 3.32 4 4 C3.67 4.165 3.67 4.165 2 5 C1.690625 5.99 1.38125 6.98 1.0625 8 C0.8871875 8.495 0.8871875 8.495 0 11 C-0.99 11.33 -1.98 11.66 -3 12 C-2.34 9.69 -1.68 7.38 -1 5 C-3.84614024 2.15385976 -6.80369142 2.54420924 -10.625 2.375 C-11.33140625 2.33632813 -12.0378125 2.29765625 -12.765625 2.2578125 C-14.50998524 2.16352276 -16.25495691 2.08067109 -18 2 C-18 1.67 -18 1.34 -18 1 C-15.75013201 0.83156069 -13.50009983 0.66531346 -11.25 0.5 C-10.62351562 0.45359375 -10.62351562 0.45359375 -7.453125 0.21875 C-4.97265229 0.06161598 -2.48544483 0 0 0 Z " fill="#A3D1E0" transform="translate(56,42)" />
<path d="M0 0 C0 2 0 2 -1.2109375 3.5546875 C-3.35626451 5.28781194 -4.92603964 5.6414729 -7.625 6.125 C-11.91666667 6.91666667 -11.91666667 6.91666667 -13 8 C-15.18639453 8.07258946 -17.37500389 8.08373783 -19.5625 8.0625 C-20.16126953 8.05798828 -20.16126953 8.05798828 -23.19140625 8.03515625 C-24.11824219 8.02355469 -25.04507813 8.01195313 -26 8 C-26 7.67 -26 7.34 -26 7 C-25.41734375 6.98582031 -24.8346875 6.97164063 -24.234375 6.95703125 C-15.68350885 6.4595752 -7.88166858 0 0 0 Z " fill="#616762" transform="translate(58,68)" />
<path d="M0 0 C1.890625 0.6796875 1.890625 0.6796875 4 2 C5.046875 4.3828125 5.046875 4.3828125 5.75 7.125 C5.99234375 8.03507812 6.2346875 8.94515625 6.484375 9.8828125 C6.56945312 10.23214844 6.56945312 10.23214844 7 12 C8.65 12.33 10.3 12.66 12 13 C12 13.66 12 14.32 12 15 C9.03 14.67 6.06 14.34 3 14 C3.33 13.34 3.66 12.68 4 12 C3.22265625 9.6875 3.22265625 9.6875 2.0625 7 C0 2.18983051 0 2.18983051 0 0 Z " fill="#5E6768" transform="translate(65,18)" />
<path d="M0 0 C0 3.63 0 7.26 0 11 C-0.66 10.67 -1.32 10.34 -2 10 C-2 9.34 -2 8.68 -2 8 C-2.66 8 -3.32 8 -4 8 C-4 7.34 -4 6.68 -4 6 C-4.66 6 -5.32 6 -6 6 C-6 6.66 -6 7.32 -6 8 C-6.66 7.67 -7.32 7.34 -8 7 C-4.31578947 0 -4.31578947 0 0 0 Z " fill="#2C8CC8" transform="translate(31,39)" />
<path d="M0 0 C5.75 1.625 5.75 1.625 8 5 C7.34 5 6.68 5 6 5 C6 5.66 6 6.32 6 7 C4.02 7.33 2.04 7.66 0 8 C0 5.36 0 2.72 0 0 Z " fill="#014996" transform="translate(73,34)" />
<path d="M0 0 C1.32 0.66 2.64 1.32 4 2 C3.690625 2.3815625 3.690625 2.3815625 2.125 4.3125 C-0.49178293 8.14553414 -0.90913508 12.18029688 -1.5078125 16.70703125 C-1.67023437 17.46371094 -1.83265625 18.22039063 -2 19 C-2.66 19.33 -3.32 19.66 -4 20 C-3.67 15.71 -3.34 11.42 -3 7 C-2.34 7 -1.68 7 -1 7 C-0.67 4.69 -0.34 2.38 0 0 Z " fill="#576568" transform="translate(34,17)" />
<path d="M0 0 C-0.65226562 0.37511719 -1.30453125 0.75023437 -1.9765625 1.13671875 C-7.0349819 4.09865459 -11.63040781 7.09036489 -16 11 C-15.33333333 9.66666667 -14.66666667 8.33333333 -14 7 C-13.731875 6.278125 -13.46375 5.55625 -13.1875 4.8125 C-12 3 -12 3 -9.375 2.25 C-8.59125 2.1675 -7.8075 2.085 -7 2 C-7 1.34 -7 0.68 -7 0 C-3.86650268 -1.04449911 -3.01031744 -0.93423645 0 0 Z " fill="#0E4F85" transform="translate(73,43)" />
<path d="M0 0 C0.66 0.33 1.32 0.66 2 1 C1.175 2.32 1.175 2.32 -3 9 C-3.99 8.835 -3.99 8.835 -9 8 C-8.67 7.01 -8.34 6.02 -8 5 C-7.01 5 -6.02 5 -5 5 C-2.3125 2.5 -2.3125 2.5 0 0 Z " fill="#389FDD" transform="translate(64,47)" />
<path d="M0 0 C2.41445371 3.02939501 3.46292236 5.13304097 4 9 C3.34 9 2.68 9 2 9 C1.8659375 9.4021875 1.8659375 9.4021875 1.1875 11.4375 C0.795625 12.283125 0.40375 13.12875 0 14 C-0.99 14.33 -1.98 14.66 -3 15 C-3 14.01 -3 13.02 -3 12 C-2.34 11.67 -1.68 11.34 -1 11 C-0.5859375 8.49609375 -0.5859375 8.49609375 -0.375 5.4375 C-0.30023438 4.42558594 -0.22546875 3.41367187 -0.1484375 2.37109375 C-0.09945312 1.58863281 -0.05046875 0.80617188 0 0 Z " fill="#184C82" transform="translate(66,22)" />
<path d="M0 0 C0 1.32 0 2.64 0 4 C-1.62324086 4.22162329 -3.248721 4.42689803 -4.875 4.625 C-5.32746094 4.68300781 -5.32746094 4.68300781 -7.6171875 4.9765625 C-8.40351562 4.98429687 -9.18984375 4.99203125 -10 5 C-10.66 4.34 -11.32 3.68 -12 3 C-8.06769671 0.37846447 -4.67664739 0 0 0 Z " fill="#3EB2F9" transform="translate(48,37)" />
<path d="M0 0 C0 1.32 0 2.64 0 4 C-3 6.25 -3 6.25 -6 8 C-6.6875 6.25 -6.6875 6.25 -7 4 C-4.96738407 0.1487277 -4.56536841 0 0 0 Z " fill="#ACD5DB" transform="translate(72,32)" />
<path d="M0 0 C0.99 0 1.98 0 3 0 C3.33 2.31 3.66 4.62 4 7 C2.68 7 1.36 7 0 7 C-0.66 5.35 -1.32 3.7 -2 2 C-1.34 1.34 -0.68 0.68 0 0 Z " fill="#B2E1E8" transform="translate(61,38)" />
<path d="M0 0 C1.32 0 2.64 0 4 0 C4.33 2.31 4.66 4.62 5 7 C2.5625 6.1875 2.5625 6.1875 0 5 C-0.33 4.01 -0.66 3.02 -1 2 C-0.67 1.34 -0.34 0.68 0 0 Z " fill="#CCEAE7" transform="translate(34,43)" />
<path d="M0 0 C-1.98 1.65 -3.96 3.3 -6 5 C-6.556875 4.690625 -7.11375 4.38125 -7.6875 4.0625 C-10.12540433 2.94238179 -12.36224186 2.43962636 -15 2 C-15 1.67 -15 1.34 -15 1 C-13.0641649 0.63684334 -11.12624752 0.28477269 -9.1875 -0.0625 C-8.10855469 -0.25972656 -7.02960937 -0.45695312 -5.91796875 -0.66015625 C-3 -1 -3 -1 0 0 Z " fill="#49BFF9" transform="translate(57,24)" />
<path d="M0 0 C0.33 0 0.66 0 1 0 C1.19392201 5.52677733 0.7479503 9.75614911 -1 15 C-0.34 15.33 0.32 15.66 1 16 C0.01 16 -0.98 16 -2 16 C-3.70701221 10.10304872 -1.95193635 5.58011183 0 0 Z " fill="#3B94CE" transform="translate(22,48)" />
<path d="M0 0 C2.375 0.25 2.375 0.25 5 1 C6.3125 3.0625 6.3125 3.0625 7 5 C6.34 5.66 5.68 6.32 5 7 C4.34 5.68 3.68 4.36 3 3 C2.67 3.99 2.34 4.98 2 6 C1.34 6 0.68 6 0 6 C0 4.02 0 2.04 0 0 Z " fill="#B7DADB" transform="translate(49,44)" />
<path d="M0 0 C0.99 0.33 1.98 0.66 3 1 C1.9802352 3.78117672 1.33608762 4.81833102 -1.3125 6.25 C-4.01833686 7.00511726 -6.20707882 7.1595955 -9 7 C-6.7613435 4.7613435 -4.93429467 4.1003605 -2 3 C-1.34 2.67 -0.68 2.34 0 2 C0 1.34 0 0.68 0 0 Z " fill="#308AC1" transform="translate(59,35)" />
<path d="M0 0 C0.33 0 0.66 0 1 0 C1.09764874 4.78478822 0.77112541 9.27685687 0 14 C-0.66 14 -1.32 14 -2 14 C-2.05410687 12.22950311 -2.09284119 10.45853151 -2.125 8.6875 C-2.14820313 7.70136719 -2.17140625 6.71523438 -2.1953125 5.69921875 C-2 3 -2 3 0 0 Z " fill="#097BCA" transform="translate(62,21)" />
<path d="M0 0 C0.33 0 0.66 0 1 0 C1.33 4.62 1.66 9.24 2 14 C1.01 14 0.02 14 -1 14 C-2.15837573 10.52487282 -1.77265943 8.86329714 -1.0625 5.3125 C-0.86785156 4.31863281 -0.67320313 3.32476563 -0.47265625 2.30078125 C-0.31667969 1.54152344 -0.16070312 0.78226563 0 0 Z " fill="#338CC8" transform="translate(34,26)" />
<path d="M0 0 C0.66 0 1.32 0 2 0 C3.15837626 4.05431692 2.83691257 6.21812119 1 10 C-1 8 -1 8 -1.1875 5 C-1 2 -1 2 0 0 Z " fill="#27A1F3" transform="translate(25,45)" />
<path d="M0 0 C1.27351308 2.54702616 0.80191925 3.4282945 0.0625 6.125 C-0.13214844 6.84945312 -0.32679687 7.57390625 -0.52734375 8.3203125 C-0.60533203 8.59746094 -0.60533203 8.59746094 -1 10 C-2.32 10.33 -3.64 10.66 -5 11 C-5 10.01 -5 9.02 -5 8 C-4.34 8 -3.68 8 -3 8 C-2.87625 7.05125 -2.7525 6.1025 -2.625 5.125 C-2 2 -2 2 0 0 Z " fill="#299DE7" transform="translate(55,30)" />
<path d="M0 0 C2.64 0 5.28 0 8 0 C7.34 1.32 6.68 2.64 6 4 C3.83125748 3.49396008 2.00032373 3.00016187 0 2 C0 1.34 0 0.68 0 0 Z " fill="#50ACDA" transform="translate(23,66)" />
<path d="M0 0 C0.99 0 1.98 0 3 0 C3.66 1.65 4.32 3.3 5 5 C3.68 5.33 2.36 5.66 1 6 C0.67 4.02 0.34 2.04 0 0 Z " fill="#2DACF4" transform="translate(35,34)" />
<path d="M0 0 C0.66 0.33 1.32 0.66 2 1 C1.236875 1.5775 0.47375 2.155 -0.3125 2.75 C-2.66200917 4.71703093 -4.29323505 6.48476744 -6 9 C-6 7.02 -6 5.04 -6 3 C-4.03533587 1.93224776 -2.03144641 0.93446535 0 0 Z " fill="#606B6A" transform="translate(27,37)" />
<path d="M0 0 C0.99 0 1.98 0 3 0 C3.28875 0.969375 3.5775 1.93875 3.875 2.9375 C5 6 5 6 7 7 C5.68 6.67 4.36 6.34 3 6 C3 5.34 3 4.68 3 4 C2.01 4 1.02 4 0 4 C0 2.68 0 1.36 0 0 Z " fill="#44B6FB" transform="translate(35,30)" />
<path d="M0 0 C1.32 0 2.64 0 4 0 C2.7580393 3.43927579 1.44259716 6.25207819 -1 9 C-1.66 9 -2.32 9 -3 9 C-2.43628586 5.73045798 -1.50037734 4.17424117 1 2 C0.67 1.34 0.34 0.68 0 0 Z " fill="#2297DE" transform="translate(58,21)" />
<path d="M0 0 C0.99 0 1.98 0 3 0 C3.33 1.98 3.66 3.96 4 6 C2.02 6 0.04 6 -2 6 C-1.34 4.02 -0.68 2.04 0 0 Z " fill="#38A4F0" transform="translate(63,52)" />
<path d="M0 0 C-0.99 0 -1.98 0 -3 0 C-3 0.66 -3 1.32 -3 2 C-3.66 2 -4.32 2 -5 2 C-5.33 2.66 -5.66 3.32 -6 4 C-7.65 4 -9.3 4 -11 4 C-4.45754717 -1.33726415 -4.45754717 -1.33726415 0 0 Z " fill="#197DC6" transform="translate(77,43)" />
<path d="M0 0 C1.65 0 3.3 0 5 0 C5.33 0.66 5.66 1.32 6 2 C4.845 2.495 4.845 2.495 -1 5 C-0.67 3.35 -0.34 1.7 0 0 Z " fill="#63D0FF" transform="translate(42,26)" />
<path d="M0 0 C2.02045442 0.60183749 4.02111039 1.27306096 6 2 C6.33 2.66 6.66 3.32 7 4 C5.35 3.67 3.7 3.34 2 3 C1.67 3.99 1.34 4.98 1 6 C0.67 6 0.34 6 0 6 C0 4.02 0 2.04 0 0 Z " fill="#0D4181" transform="translate(73,34)" />
<path d="M0 0 C-0.66 1.32 -1.32 2.64 -2 4 C-2.66 4 -3.32 4 -4 4 C-4 3.34 -4 2.68 -4 2 C-5.98 2 -7.96 2 -10 2 C-6.3558226 -0.4294516 -4.28758728 -0.16179575 0 0 Z " fill="#2DA4EE" transform="translate(60,22)" />
<path d="M0 0 C0.99 0.99 1.98 1.98 3 3 C2.34 5.31 1.68 7.62 1 10 C0.67 10 0.34 10 0 10 C0 6.7 0 3.4 0 0 Z " fill="#A8E0F3" transform="translate(32,40)" />
<path d="M0 0 C1.98 0.66 3.96 1.32 6 2 C6 2.66 6 3.32 6 4 C3.03 3.67 0.06 3.34 -3 3 C-2.01 2.01 -1.02 1.02 0 0 Z " fill="#596A72" transform="translate(71,29)" />
</svg>