<?xml version='1.0' encoding='utf-8'?>
<svg xmlns="http://www.w3.org/2000/svg" version="1.1" width="72" height="100">
<path d="M0 0 C0.99 0 1.98 0 3 0 C3 1.65 3 3.3 3 5 C3.64066406 4.96519531 4.28132813 4.93039063 4.94140625 4.89453125 C10.75383472 4.71262216 14.98822966 4.90763107 20 8 C20.9375 10.6875 20.9375 10.6875 21 13 C16.25 16 16.25 16 14 16 C13.87882812 16.82242188 13.75765625 17.64484375 13.6328125 18.4921875 C13.10656809 21.99778486 12.55326364 25.49857624 12 29 C11.86722656 29.95003906 11.73445313 30.90007812 11.59765625 31.87890625 C10.67396882 37.64095644 9.75484868 41.38631501 5 45 C0.85745882 45.77637229 -2.85580718 45.75829911 -7 45 C-11.29018851 41.93557963 -11.64208694 37.71992499 -12.58544922 32.80371094 C-13.26340298 28.21853953 -13.28957462 23.68943217 -13.25 19.0625 C-13.25773437 18.13115234 -13.26546875 17.19980469 -13.2734375 16.24023438 C-13.27085938 15.34755859 -13.26828125 14.45488281 -13.265625 13.53515625 C-13.26336914 12.734729 -13.26111328 11.93430176 -13.25878906 11.10961914 C-13 9 -13 9 -11 6 C-10.34 6.33 -9.68 6.66 -9 7 C-8.01 6.67 -7.02 6.34 -6 6 C-5.01 6 -4.02 6 -3 6 C-2.690625 5.38125 -2.38125 4.7625 -2.0625 4.125 C-1.375 2.75 -0.6875 1.375 0 0 Z " fill="#F8FAED" transform="translate(30,34)" />
<path d="M0 0 C0.40541016 -0.00386719 0.40541016 -0.00386719 2.45703125 -0.0234375 C3.23691406 -0.02085938 4.01679687 -0.01828125 4.8203125 -0.015625 C5.52687988 -0.01336914 6.23344727 -0.01111328 6.96142578 -0.00878906 C8.875 0.25 8.875 0.25 11.875 2.25 C10.875 5.25 10.875 5.25 9 6.4375 C6.875 7.25 6.875 7.25 3.875 7.25 C3.771875 7.86875 3.66875 8.4875 3.5625 9.125 C2.875 11.25 2.875 11.25 -0.125 13.25 C1.03 13.745 1.03 13.745 6.875 16.25 C6.875 14.93 6.875 13.61 6.875 12.25 C11.44853964 13.77451321 12.91857954 16.97888387 15.37792969 20.98779297 C17.92953026 26.5478854 17.73602593 31.79383885 17.5 37.8125 C17.49355469 38.96685547 17.48710938 40.12121094 17.48046875 41.31054688 C17.34927379 48.11339119 16.95168613 55.05507171 13.875 61.25 C8.3723267 66.16480191 1.79909268 66.57629816 -5.2265625 66.55078125 C-8.87827154 66.17183031 -10.71862762 65.00013986 -13.125 62.25 C-10.36773791 61.36767613 -8.58216378 61.28877402 -5.625 61.5 C-2.125 61.25 -2.125 61.25 0.1875 59.375 C2.92871856 54.29866933 3.48815059 48.95794585 4.296875 43.296875 C5.45321038 35.84050546 5.45321038 35.84050546 7.75 32.625 C9.84258155 31.27097664 11.41711844 30.60112594 13.875 30.25 C13.25 27.875 13.25 27.875 11.875 25.25 C6.92438761 22.7746938 1.32256194 22.65910544 -4.125 22.25 C-4.125 20.6 -4.125 18.95 -4.125 17.25 C-5.115 17.25 -6.105 17.25 -7.125 17.25 C-7.434375 17.86875 -7.74375 18.4875 -8.0625 19.125 C-10.33634415 23.6726883 -12.31395322 24.32558129 -17.125 26.25 C-17.875 24.5625 -17.875 24.5625 -18.125 22.25 C-16.80244688 20.57476605 -15.46794481 18.90893182 -14.125 17.25 C-13.3125 14 -13.3125 14 -13.125 11.25 C-13.455 10.92 -13.785 10.59 -14.125 10.25 C-14.26615161 7.57941149 -14.16747107 4.92567762 -14.125 2.25 C-9.4380516 -0.14091295 -5.13226258 -0.04942789 0 0 Z " fill="#ADAA8A" transform="translate(37.125,16.75)" />
<path d="M0 0 C0.66 0.33 1.32 0.66 2 1 C2.33 9.91 2.66 18.82 3 28 C3.99 27.67 4.98 27.34 6 27 C6 28.32 6 29.64 6 31 C7.65 31 9.3 31 11 31 C11 25.06 11 19.12 11 13 C12.98 12.34 14.96 11.68 17 11 C19.06356381 10.179634 21.11780235 9.34150632 23.16796875 8.48828125 C25 8 25 8 28 9 C27.01 9.33 26.02 9.66 25 10 C24.87882812 10.82242188 24.75765625 11.64484375 24.6328125 12.4921875 C24.10656809 15.99778486 23.55326364 19.49857624 23 23 C22.86722656 23.95003906 22.73445313 24.90007812 22.59765625 25.87890625 C21.67396882 31.64095644 20.75484868 35.38631501 16 39 C11.85745882 39.77637229 8.14419282 39.75829911 4 39 C-0.29018851 35.93557963 -0.64208694 31.71992499 -1.58544922 26.80371094 C-2.26340298 22.21853953 -2.28957462 17.68943217 -2.25 13.0625 C-2.25773437 12.13115234 -2.26546875 11.19980469 -2.2734375 10.24023438 C-2.27085938 9.34755859 -2.26828125 8.45488281 -2.265625 7.53515625 C-2.26336914 6.734729 -2.26111328 5.93430176 -2.25878906 5.10961914 C-2 3 -2 3 0 0 Z " fill="#E5E2C9" transform="translate(19,40)" />
<path d="M0 0 C0.40541016 -0.00386719 0.40541016 -0.00386719 2.45703125 -0.0234375 C3.23691406 -0.02085938 4.01679687 -0.01828125 4.8203125 -0.015625 C5.52687988 -0.01336914 6.23344727 -0.01111328 6.96142578 -0.00878906 C8.875 0.25 8.875 0.25 11.875 2.25 C10.875 5.25 10.875 5.25 9 6.4375 C6.875 7.25 6.875 7.25 3.875 7.25 C3.771875 7.86875 3.66875 8.4875 3.5625 9.125 C2.875 11.25 2.875 11.25 -0.125 13.25 C1.03 13.745 1.03 13.745 6.875 16.25 C6.875 14.93 6.875 13.61 6.875 12.25 C10.69553924 13.52351308 11.10521375 14.87637525 13.0625 18.3125 C13.59230469 19.23160156 14.12210938 20.15070312 14.66796875 21.09765625 C15.06628906 21.80792969 15.46460938 22.51820312 15.875 23.25 C15.215 23.25 14.555 23.25 13.875 23.25 C13.875 23.91 13.875 24.57 13.875 25.25 C12.76125 24.940625 11.6475 24.63125 10.5 24.3125 C5.66990988 23.09199336 0.83209931 22.63600363 -4.125 22.25 C-4.125 20.6 -4.125 18.95 -4.125 17.25 C-5.115 17.25 -6.105 17.25 -7.125 17.25 C-7.434375 17.86875 -7.74375 18.4875 -8.0625 19.125 C-10.33634415 23.6726883 -12.31395322 24.32558129 -17.125 26.25 C-17.875 24.5625 -17.875 24.5625 -18.125 22.25 C-16.80244688 20.57476605 -15.46794481 18.90893182 -14.125 17.25 C-13.3125 14 -13.3125 14 -13.125 11.25 C-13.455 10.92 -13.785 10.59 -14.125 10.25 C-14.26615161 7.57941149 -14.16747107 4.92567762 -14.125 2.25 C-9.4380516 -0.14091295 -5.13226258 -0.04942789 0 0 Z " fill="#617EA0" transform="translate(37.125,16.75)" />
<path d="M0 0 C0.78890625 -0.00322266 1.5778125 -0.00644531 2.390625 -0.00976562 C9.97636662 0.06071002 9.97636662 0.06071002 12.75 2.3125 C14.264836 5.62620376 13.5044185 8.40939001 12.75 11.875 C11.64071487 16.98464462 11.64071487 16.98464462 12.75 20.3125 C13.41 20.3125 14.07 20.3125 14.75 20.3125 C17.15929552 25.94683678 16.98079831 31.1814111 16.875 37.1875 C16.86597656 38.16203125 16.85695312 39.1365625 16.84765625 40.140625 C16.82421623 42.53150728 16.79140442 44.92187261 16.75 47.3125 C16.42 47.3125 16.09 47.3125 15.75 47.3125 C15.73130859 46.69761719 15.73130859 46.69761719 15.63671875 43.5859375 C15.57102972 41.95309599 15.50458341 40.32028482 15.4375 38.6875 C15.4262207 38.28337891 15.4262207 38.28337891 15.36914062 36.23828125 C15.14400698 31.2034742 14.40625348 27.72034092 11.75 23.3125 C11.31558594 22.55324219 10.88117187 21.79398438 10.43359375 21.01171875 C10.02238281 20.34785156 9.61117187 19.68398438 9.1875 19 C8.77371094 18.32324219 8.35992187 17.64648438 7.93359375 16.94921875 C6.75 15.3125 6.75 15.3125 4.75 14.3125 C4.75 15.6325 4.75 16.9525 4.75 18.3125 C0.53087253 17.8330537 -2.04663178 17.14624881 -5.25 14.3125 C-3.27 13.9825 -1.29 13.6525 0.75 13.3125 C0.770625 12.714375 0.79125 12.11625 0.8125 11.5 C1.75 9.3125 1.75 9.3125 5.25 7.6875 C5.8275 7.460625 5.8275 7.460625 8.75 6.3125 C9.08 5.6525 9.41 4.9925 9.75 4.3125 C7.04799651 3.41183217 5.46968573 3.18411637 2.6953125 3.1796875 C1.91542969 3.17839844 1.13554688 3.17710938 0.33203125 3.17578125 C-0.47878906 3.17964844 -1.28960937 3.18351562 -2.125 3.1875 C-2.92808594 3.18363281 -3.73117188 3.17976563 -4.55859375 3.17578125 C-8.58693286 3.18241772 -12.31941104 3.30996112 -16.25 4.3125 C-16.105625 5.529375 -15.96125 6.74625 -15.8125 8 C-15.72742188 8.73347656 -15.64234375 9.46695312 -15.5546875 10.22265625 C-15.25 12.3125 -15.25 12.3125 -14.4375 14.9375 C-14.14554532 18.63559267 -16.01535291 20.50322937 -18.25 23.3125 C-18.91 23.6425 -19.57 23.9725 -20.25 24.3125 C-19.96125 23.77625 -19.6725 23.24 -19.375 22.6875 C-18.08288192 19.95969516 -17.16441408 17.18637282 -16.25 14.3125 C-16.91 13.6525 -17.57 12.9925 -18.25 12.3125 C-18.2265625 10.1484375 -18.2265625 10.1484375 -17.875 7.6875 C-17.76414062 6.87023437 -17.65328125 6.05296875 -17.5390625 5.2109375 C-17.44367187 4.58445312 -17.34828125 3.95796875 -17.25 3.3125 C-11.26073769 0.72125523 -6.49524787 -0.13531766 0 0 Z " fill="#415862" transform="translate(39.25,14.6875)" />
<path d="M0 0 C0.81082031 -0.00773437 1.62164062 -0.01546875 2.45703125 -0.0234375 C3.23691406 -0.02085938 4.01679687 -0.01828125 4.8203125 -0.015625 C5.52687988 -0.01336914 6.23344727 -0.01111328 6.96142578 -0.00878906 C8.875 0.25 8.875 0.25 11.875 2.25 C10.875 5.25 10.875 5.25 9 6.4375 C6.875 7.25 6.875 7.25 3.875 7.25 C3.75125 7.889375 3.6275 8.52875 3.5 9.1875 C3.29375 9.868125 3.0875 10.54875 2.875 11.25 C-1.39773753 13.38636877 -6.6643637 12.53095666 -11.125 11.25 C-12.115 10.92 -13.105 10.59 -14.125 10.25 C-14.125 7.61 -14.125 4.97 -14.125 2.25 C-9.4380516 -0.14091295 -5.13226258 -0.04942789 0 0 Z " fill="#43B4F5" transform="translate(37.125,16.75)" />
<path d="M0 0 C0.33 0.66 0.66 1.32 1 2 C0.67 2.66 0.34 3.32 0 4 C-2.15097949 30.22239541 -2.15097949 30.22239541 4.55859375 39.05078125 C8.42613029 42.54844943 11.90249124 43.38791324 17.0625 43.5625 C22.08925724 43.30293193 25.57998394 42.34531465 30 40 C31.6642135 39.32723284 33.32986582 38.65793165 35 38 C29.62399579 43.67467111 25.88153234 45.49932275 18.15625 46.1015625 C9.73261488 45.83050493 1.95326037 42.95326037 -4 37 C-3.71395102 35.32457024 -3.38218767 33.65614657 -3 32 C-3.33 31.67 -3.66 31.34 -4 31 C-4.08767112 28.92737924 -4.10695873 26.85179706 -4.09765625 24.77734375 C-4.09443359 23.51728516 -4.09121094 22.25722656 -4.08789062 20.95898438 C-4.07953403 19.61848891 -4.07106907 18.27799412 -4.0625 16.9375 C-4.0574866 15.59310058 -4.05292342 14.2486994 -4.04882812 12.90429688 C-4.03699488 9.60282059 -4.02050971 6.30143197 -4 3 C-3.34 3 -2.68 3 -2 3 C-1.34 2.01 -0.68 1.02 0 0 Z " fill="#5D6259" transform="translate(18,39)" />
<path d="M0 0 C0.33 0 0.66 0 1 0 C1.25822164 3.95698666 1.47616526 7.91525437 1.6875 11.875 C1.76033203 12.98359375 1.83316406 14.0921875 1.90820312 15.234375 C2.25307684 22.13184935 2.20903403 28.71470348 -1 35 C-5.6264167 39.12637523 -11.05359741 40.15099391 -17.0625 40.1875 C-18.12597656 40.20167969 -19.18945312 40.21585938 -20.28515625 40.23046875 C-23 40 -23 40 -25 38 C-22.36 37.67 -22.36 37.67 -9 36 C-8.34 33.03 -7.68 30.06 -7 27 C-6.01 27 -5.02 27 -4 27 C0.26226334 22.73773666 -0.70230044 14.8898359 -0.4375 9.125 C-0.39431641 8.24585938 -0.35113281 7.36671875 -0.30664062 6.4609375 C-0.20130661 4.30744203 -0.10022351 2.15373936 0 0 Z " fill="#93A1A5" transform="translate(52,43)" />
<path d="M0 0 C0.66 0 1.32 0 2 0 C3.92265613 4.05248477 4.24607147 7.29597558 4.23046875 11.76171875 C4.22853516 13.04498047 4.22660156 14.32824219 4.22460938 15.65039062 C4.22150757 15.98155884 4.22150757 15.98155884 4.20581055 17.6574707 C4.18746216 19.69169543 4.18530175 21.72546645 4.18554688 23.75976562 C4.14039066 33.71921867 4.14039066 33.71921867 3 36 C2.34 36 1.68 36 1 36 C0.95875 36.721875 0.9175 37.44375 0.875 38.1875 C-0.32874482 42.05667976 -2.71232738 43.87039646 -6 46 C-11.53891208 48.76945604 -17.93556511 48.5550223 -24 48 C-26.87109375 46.984375 -26.87109375 46.984375 -29 46 C-26 45 -26 45 -22.5 45.5625 C-15.92370195 46.48634224 -9.35922417 45.57281611 -3.8125 41.875 C-3.5134375 41.565625 -3.5134375 41.565625 -2 40 C-2.33 39.34 -2.66 38.68 -3 38 C-2.50544743 36.16094952 -2.01086067 34.32190823 -1.51611328 32.48291016 C-0.50440564 27.61580197 -0.56055554 22.6427365 -0.4375 17.6875 C-0.37760953 15.54545998 -0.3139818 13.40352022 -0.24609375 11.26171875 C-0.22216553 10.32287842 -0.1982373 9.38403809 -0.17358398 8.41674805 C0 6 0 6 1 3 C0.67 2.01 0.34 1.02 0 0 Z " fill="#636863" transform="translate(54,38)" />
<path d="M0 0 C0.66 0.33 1.32 0.66 2 1 C2.01981934 1.80743652 2.03963867 2.61487305 2.06005859 3.44677734 C2.15505899 7.08985875 2.26483912 10.73234686 2.375 14.375 C2.4059375 15.64601563 2.436875 16.91703125 2.46875 18.2265625 C2.50742187 19.43828125 2.54609375 20.65 2.5859375 21.8984375 C2.6173584 23.01911621 2.6487793 24.13979492 2.68115234 25.29443359 C3 28 3 28 5 30 C5.26991906 32.68839385 5.08737357 35.29141936 5 38 C5.66 38.33 6.32 38.66 7 39 C4.35104467 38.63462685 3.23920924 38.2695026 1.43652344 36.23852539 C-2.80329667 29.63164052 -2.31487398 20.64734892 -2.25 13.0625 C-2.25773437 12.13115234 -2.26546875 11.19980469 -2.2734375 10.24023438 C-2.27085938 9.34755859 -2.26828125 8.45488281 -2.265625 7.53515625 C-2.26336914 6.734729 -2.26111328 5.93430176 -2.25878906 5.10961914 C-2 3 -2 3 0 0 Z " fill="#C0D2D9" transform="translate(19,40)" />
<path d="M0 0 C0.33 0.66 0.66 1.32 1 2 C0.67 2.66 0.34 3.32 0 4 C-0.18296339 5.38726349 -0.31964283 6.78083832 -0.4296875 8.17578125 C-0.50316406 9.00400391 -0.57664062 9.83222656 -0.65234375 10.68554688 C-0.79974047 12.42456952 -0.94046385 14.16417182 -1.07421875 15.90429688 C-1.60478994 21.70910536 -2.42357056 25.81393866 -7.0625 29.75 C-11.21032939 31.51503378 -15.48779206 32.16771038 -20 32 C-20.66 31.34 -21.32 30.68 -22 30 C-19.24273791 29.11767613 -17.45716378 29.03877402 -14.5 29.25 C-11 29 -11 29 -8.6875 27.125 C-5.93805334 22.03343212 -5.40971813 16.67892626 -4.54296875 11.01171875 C-4.46369141 10.52509766 -4.46369141 10.52509766 -4.0625 8.0625 C-3.92972656 7.16660156 -3.79695313 6.27070312 -3.66015625 5.34765625 C-2.92866331 2.74631154 -2.05827139 1.69933578 0 0 Z " fill="#BBB695" transform="translate(46,49)" />
<path d="M0 0 C-0.185625 1.175625 -0.37125 2.35125 -0.5625 3.5625 C-1.34951458 10.383293 -0.58346398 17.186936 0 24 C0.66 24 1.32 24 2 24 C2.33 23.01 2.66 22.02 3 21 C4.0625 22.875 4.0625 22.875 5 25 C4.67 25.66 4.34 26.32 4 27 C2.35 27 0.7 27 -1 27 C-1.33 26.01 -1.66 25.02 -2 24 C-2.99 24 -3.98 24 -5 24 C-5.08703823 20.56265937 -5.14040272 17.12560163 -5.1875 13.6875 C-5.21263672 12.71103516 -5.23777344 11.73457031 -5.26367188 10.72851562 C-5.27333984 9.79072266 -5.28300781 8.85292969 -5.29296875 7.88671875 C-5.3086792 7.02264404 -5.32438965 6.15856934 -5.34057617 5.26831055 C-4.84603352 1.97455014 -3.46431598 0 0 0 Z " fill="#F4F2DD" transform="translate(26,44)" />
<path d="M0 0 C3.41943506 0.42269769 6.72174346 0.91991217 10 2 C11.625 4.625 11.625 4.625 12 7 C11.34 7 10.68 7 10 7 C10 7.66 10 8.32 10 9 C11.65 9 13.3 9 15 9 C15 9.33 15 9.66 15 10 C12.36 10 9.72 10 7 10 C7 8.35 7 6.7 7 5 C6.01 5 5.02 5 4 5 C3.690625 5.61875 3.38125 6.2375 3.0625 6.875 C0.78865585 11.4226883 -1.18895322 12.07558129 -6 14 C-6.75 12.3125 -6.75 12.3125 -7 10 C-5.125 7.375 -5.125 7.375 -3 5 C-2.67 4.34 -2.34 3.68 -2 3 C-1.34 3 -0.68 3 0 3 C0 2.01 0 1.02 0 0 Z " fill="#96B1C9" transform="translate(26,29)" />
<path d="M0 0 C0.99 0.33 1.98 0.66 3 1 C3 9.25 3 17.5 3 26 C2.34 24.68 1.68 23.36 1 22 C0.67 23.65 0.34 25.3 0 27 C-0.33 27 -0.66 27 -1 27 C-1 21.06 -1 15.12 -1 9 C-1.99 8.67 -2.98 8.34 -4 8 C-2.68 7.67 -1.36 7.34 0 7 C-0.0928125 6.608125 -0.0928125 6.608125 -0.5625 4.625 C-1 2 -1 2 0 0 Z " fill="#BDC0B2" transform="translate(51,40)" />
<path d="M0 0 C0.125 2.375 0.125 2.375 0 5 C-0.66 5.66 -1.32 6.32 -2 7 C-2.33 7.66 -2.66 8.32 -3 9 C-3.66 8.67 -4.32 8.34 -5 8 C-5 9.32 -5 10.64 -5 12 C-9.21912747 11.5205537 -11.79663178 10.83374881 -15 8 C-13.02 7.67 -11.04 7.34 -9 7 C-8.979375 6.401875 -8.95875 5.80375 -8.9375 5.1875 C-8 3 -8 3 -4.5 1.25 C-1 0 -1 0 0 0 Z " fill="#2263A1" transform="translate(49,21)" />
<path d="M0 0 C1.28432364 3.85297092 0.58019149 5.31288651 -1 9 C-2.6875 11.375 -2.6875 11.375 -5 13 C-8.87209322 13.34572261 -12.28983366 13.18725323 -16 12 C-16 10.68 -16 9.36 -16 8 C-15.01 8 -14.02 8 -13 8 C-12.34 8.66 -11.68 9.32 -11 10 C-7.55571735 8.55218207 -5.63869038 6.72305391 -3.25 3.875 C-2.63640625 3.15054688 -2.0228125 2.42609375 -1.390625 1.6796875 C-1.16117188 1.40253906 -1.16117188 1.40253906 0 0 Z " fill="#D3D4B5" transform="translate(40,66)" />
<path d="M0 0 C0.33 0 0.66 0 1 0 C1.01981934 0.71655762 1.03963867 1.43311523 1.06005859 2.17138672 C1.15509519 5.4063063 1.26486019 8.64056094 1.375 11.875 C1.39046875 12.43896484 1.39046875 12.43896484 1.46875 15.29296875 C1.50742187 16.36933594 1.54609375 17.44570313 1.5859375 18.5546875 C1.6173584 19.54968262 1.6487793 20.54467773 1.68115234 21.56982422 C2 24 2 24 4 26 C4.26991906 28.68839385 4.08737357 31.29141936 4 34 C4.66 34.33 5.32 34.66 6 35 C3.44504997 34.6475931 2.22320264 34.22049816 0.36791992 32.38769531 C-1.50753273 29.11410492 -1.24907439 26.79832331 -1.07421875 23.046875 C-1.06099831 22.71676422 -1.06099831 22.71676422 -0.99409485 21.04620361 C-0.90662607 18.94651787 -0.79738421 16.84862018 -0.6875 14.75 C-0.62420997 13.32297985 -0.56234496 11.89589574 -0.50195312 10.46875 C-0.35113743 6.97827392 -0.18078559 3.48906682 0 0 Z " fill="#DAE3DE" transform="translate(20,44)" />
<path d="M0 0 C0.33 0.66 0.66 1.32 1 2 C0.67 2.66 0.34 3.32 0 4 C-0.11735229 5.69270693 -0.17881751 7.38947158 -0.2109375 9.0859375 C-0.23929688 10.09914063 -0.26765625 11.11234375 -0.296875 12.15625 C-0.34876455 14.2940995 -0.39309297 16.4321465 -0.4296875 18.5703125 C-0.460625 19.58609375 -0.4915625 20.601875 -0.5234375 21.6484375 C-0.54325684 22.57833496 -0.56307617 23.50823242 -0.58349609 24.46630859 C-1 27 -1 27 -4 31 C-4 21.76 -4 12.52 -4 3 C-3.34 3 -2.68 3 -2 3 C-1.34 2.01 -0.68 1.02 0 0 Z " fill="#4D544B" transform="translate(18,39)" />
<path d="M0 0 C0.99 0.66 1.98 1.32 3 2 C1.99103361 5.76069292 0.97816913 8.02641266 -1.53125 11.0625 C-4.84088236 15.58860053 -4.77717199 19.9852112 -4.8125 25.4375 C-4.83763672 26.35982422 -4.86277344 27.28214844 -4.88867188 28.23242188 C-4.94712496 30.48871096 -4.983708 32.74307932 -5 35 C-5.33 35 -5.66 35 -6 35 C-6.1174875 31.66696997 -6.18767324 28.33448163 -6.25 25 C-6.28351562 24.06542969 -6.31703125 23.13085938 -6.3515625 22.16796875 C-6.43627909 16.11073229 -5.88222454 10.89284575 -2 6 C-1.01 5.67 -0.02 5.34 1 5 C0.67 3.35 0.34 1.7 0 0 Z " fill="#63675F" transform="translate(21,27)" />
<path d="M0 0 C-0.99 0 -1.98 0 -3 0 C-3.12375 0.639375 -3.2475 1.27875 -3.375 1.9375 C-3.58125 2.618125 -3.7875 3.29875 -4 4 C-7.21451269 5.60725635 -10.43612536 5.05748185 -14 5 C-14.33 3.68 -14.66 2.36 -15 1 C-13.25215171 0.63536268 -11.50159498 0.2836922 -9.75 -0.0625 C-9.26273438 -0.16111328 -9.26273438 -0.16111328 -6.796875 -0.66015625 C-4.131881 -0.98397535 -2.51128277 -0.85503199 0 0 Z " fill="#299BE3" transform="translate(44,24)" />
<path d="M0 0 C0.66 0.33 1.32 0.66 2 1 C-0.59717392 4.17432368 -3.0270515 5.09388894 -7 6 C-11.01374344 6.25708945 -14.99488857 6.40770595 -19 6 C-19.66 5.34 -20.32 4.68 -21 4 C-20.64357422 3.96970703 -20.64357422 3.96970703 -18.83984375 3.81640625 C-3.7436096 2.49573974 -3.7436096 2.49573974 0 0 Z " fill="#90A3A4" transform="translate(48,77)" />
<path d="M0 0 C1.53760842 3.07521683 0.36599236 5.34675118 -0.4375 8.625 C-0.72496094 9.81351563 -1.01242188 11.00203125 -1.30859375 12.2265625 C-1.53675781 13.14179687 -1.76492187 14.05703125 -2 15 C-2.99 15 -3.98 15 -5 15 C-5.56540084 5.38818565 -5.56540084 5.38818565 -2 1 C-1.34 0.67 -0.68 0.34 0 0 Z " fill="#D3CFB2" transform="translate(43,50)" />
<path d="M0 0 C1.98 0 3.96 0 6 0 C6 0.66 6 1.32 6 2 C7.32 2.33 8.64 2.66 10 3 C8.68 3.33 7.36 3.66 6 4 C5.67 6.97 5.34 9.94 5 13 C4.34 13 3.68 13 3 13 C3 9.7 3 6.4 3 3 C2.01 2.67 1.02 2.34 0 2 C0 1.34 0 0.68 0 0 Z " fill="#6E6654" transform="translate(16,14)" />
<path d="M0 0 C0.66 0.33 1.32 0.66 2 1 C-3.02780916 6.16369589 -7.8260618 7.64178716 -15 8 C-23.8048048 7.1951952 -23.8048048 7.1951952 -27 4 C-26.29617187 4.15984375 -25.59234375 4.3196875 -24.8671875 4.484375 C-15.37492299 6.19143074 -8.01403257 5.34268838 0 0 Z " fill="#3F4F52" transform="translate(51,77)" />
<path d="M0 0 C0.66 0.33 1.32 0.66 2 1 C2 3.64 2 6.28 2 9 C-3.41538462 12.07692308 -3.41538462 12.07692308 -6.375 11.6875 C-6.91125 11.460625 -7.4475 11.23375 -8 11 C-6.35 10.67 -4.7 10.34 -3 10 C-2.86722656 9.36191406 -2.73445313 8.72382812 -2.59765625 8.06640625 C-2.42105469 7.24011719 -2.24445312 6.41382812 -2.0625 5.5625 C-1.88847656 4.73878906 -1.71445312 3.91507812 -1.53515625 3.06640625 C-1 1 -1 1 0 0 Z " fill="#969975" transform="translate(46,69)" />
<path d="M0 0 C0.1875 2.375 0.1875 2.375 0 5 C-3.4352048 7.29013653 -4.985331 7.17842973 -9 7 C-8.9375 5.1875 -8.9375 5.1875 -8 3 C-2 0 -2 0 0 0 Z " fill="#0254A0" transform="translate(49,21)" />
<path d="M0 0 C0.825 0.33 0.825 0.33 5 2 C5 4.64 5 7.28 5 10 C4.01 10.33 3.02 10.66 2 11 C2.66 13.31 3.32 15.62 4 18 C1.10067643 15.60490662 0.49831724 13.68754757 0 10 C0.99 9.67 1.98 9.34 3 9 C3 6.69 3 4.38 3 2 C2.01 1.67 1.02 1.34 0 1 C0 0.67 0 0.34 0 0 Z " fill="#2E4F67" transform="translate(46,17)" />
<path d="M0 0 C6.41923331 0.29112169 10.62100206 1.45215029 16 5 C15.67 5.99 15.34 6.98 15 8 C14.34 8 13.68 8 13 8 C12.7628125 7.36835937 12.525625 6.73671875 12.28125 6.0859375 C11 4 11 4 8.90625 3.1015625 C8.1121875 2.94429687 7.318125 2.78703125 6.5 2.625 C6.10296875 2.53863281 6.10296875 2.53863281 4.09375 2.1015625 C3.4028125 2.06804688 2.711875 2.03453125 2 2 C1.34 2.66 0.68 3.32 0 4 C0 2.68 0 1.36 0 0 Z " fill="#5386B3" transform="translate(25,28)" />
<path d="M0 0 C0.99 0.33 1.98 0.66 3 1 C3 9.25 3 17.5 3 26 C2.67 26 2.34 26 2 26 C2 18.41 2 10.82 2 3 C1.01 2.67 0.02 2.34 -1 2 C-0.67 1.34 -0.34 0.68 0 0 Z " fill="#A0B7C7" transform="translate(51,40)" />
<path d="M0 0 C0.33 0.66 0.66 1.32 1 2 C1.99 2.33 2.98 2.66 4 3 C2.37633534 6.24732932 -0.75387839 6.70155136 -4 8 C-4.33 6.68 -4.66 5.36 -5 4 C-3.35 2.68 -1.7 1.36 0 0 Z " fill="#9AB0C7" transform="translate(24,35)" />
<path d="M0 0 C0.33 0 0.66 0 1 0 C1.054138 2.24973447 1.09285491 4.49984383 1.125 6.75 C1.14820313 8.00296875 1.17140625 9.2559375 1.1953125 10.546875 C1.01537302 13.72820492 0.68998582 15.36521896 -1 18 C-1.66 18 -2.32 18 -3 18 C-2.86722656 17.3709375 -2.73445313 16.741875 -2.59765625 16.09375 C-1.49250818 10.73741189 -0.60395788 5.43562094 0 0 Z " fill="#C6C1A1" transform="translate(42,55)" />
<path d="M0 0 C2.93774463 -0.05390357 5.87450232 -0.0936255 8.8125 -0.125 C9.22918945 -0.13337891 9.22918945 -0.13337891 11.33789062 -0.17578125 C12.14033203 -0.18222656 12.94277344 -0.18867188 13.76953125 -0.1953125 C14.50792236 -0.20578613 15.24631348 -0.21625977 16.00708008 -0.22705078 C18 0 18 0 21 2 C20.67 2.99 20.34 3.98 20 5 C19.01 4.67 18.02 4.34 17 4 C16.67 3.34 16.34 2.68 16 2 C13.28553021 1.68758545 10.66090639 1.48663408 7.9375 1.375 C7.55819336 1.35566406 7.55819336 1.35566406 5.63867188 1.2578125 C3.75952805 1.16326438 1.87979664 1.08053244 0 1 C0 0.67 0 0.34 0 0 Z " fill="#429AD5" transform="translate(28,17)" />
<path d="M0 0 C0.66 0.33 1.32 0.66 2 1 C1.67 1.99 1.34 2.98 1 4 C-3.05363758 5.79114218 -6.58698079 6.40118356 -11 6 C-11.66 5.34 -12.32 4.68 -13 4 C-10.25252174 3.12080696 -8.32141686 3.02339942 -5.375 3.125 C-4.26125 3.08375 -3.1475 3.0425 -2 3 C-1.34 2.01 -0.68 1.02 0 0 Z " fill="#BAC0AF" transform="translate(37,75)" />
<path d="M0 0 C1.28432364 3.85297092 0.58019149 5.31288651 -1 9 C-3 11.375 -3 11.375 -5 13 C-5.66 13 -6.32 13 -7 13 C-6.85626953 12.71318359 -6.85626953 12.71318359 -6.12890625 11.26171875 C-5.4033435 9.80808264 -4.68165677 8.35250187 -3.96484375 6.89453125 C-3.62582031 6.20746094 -3.28679688 5.52039063 -2.9375 4.8125 C-2.76669922 4.46509766 -2.76669922 4.46509766 -1.90234375 2.70703125 C-1 1 -1 1 0 0 Z " fill="#CFCBA9" transform="translate(40,66)" />
<path d="M0 0 C2.375 0.3125 2.375 0.3125 5 1 C5.66 1.99 6.32 2.98 7 4 C6.34 4 5.68 4 5 4 C5 4.66 5 5.32 5 6 C2.36 5.34 -0.28 4.68 -3 4 C-2.01 2.68 -1.02 1.36 0 0 Z " fill="#809AB7" transform="translate(46,36)" />
<path d="M0 0 C0.66 0 1.32 0 2 0 C2 2.64 2 5.28 2 8 C2.66 8 3.32 8 4 8 C3.67 9.32 3.34 10.64 3 12 C1.68 11.67 0.36 11.34 -1 11 C-0.73958333 9.01432292 -0.47916667 7.02864583 -0.21875 5.04296875 C0 3 0 3 0 0 Z " fill="#746245" transform="translate(17,19)" />
<path d="M0 0 C5.28 0 10.56 0 16 0 C16.33 0.99 16.66 1.98 17 3 C11.06 2.67 5.12 2.34 -1 2 C-0.67 1.34 -0.34 0.68 0 0 Z " fill="#3CA7E6" transform="translate(29,20)" />
<path d="M0 0 C0.99 0 1.98 0 3 0 C3 0.99 3 1.98 3 3 C3.66 3 4.32 3 5 3 C5 4.32 5 5.64 5 7 C5.66 7.33 6.32 7.66 7 8 C4.24542282 7.62005832 3.17979426 7.1926367 1.25 5.125 C0 3 0 3 0 0 Z " fill="#C1CFD6" transform="translate(19,71)" />
<path d="M0 0 C2.375 0.25 2.375 0.25 5 1 C6.3125 3.0625 6.3125 3.0625 7 5 C5.68 5.33 4.36 5.66 3 6 C0 1.125 0 1.125 0 0 Z " fill="#F8F8DB" transform="translate(44,42)" />
<path d="M0 0 C2.64 0 5.28 0 8 0 C8 3 8 3 7 5 C4.11424181 4.60196439 3.17810487 4.20990931 1.25 1.9375 C0.8375 1.298125 0.425 0.65875 0 0 Z " fill="#F9F8DD" transform="translate(35,41)" />
<path d="M0 0 C0.99 0.165 0.99 0.165 6 1 C5.67773438 1.11730469 5.67773438 1.11730469 4.046875 1.7109375 C2 3 2 3 1.390625 5.1640625 C1.34421875 5.97617187 1.2978125 6.78828125 1.25 7.625 C1.19328125 8.44226562 1.1365625 9.25953125 1.078125 10.1015625 C1.05234375 10.72804688 1.0265625 11.35453125 1 12 C0.67 12 0.34 12 0 12 C0 8.04 0 4.08 0 0 Z " fill="#606961" transform="translate(20,15)" />
<path d="M0 0 C0.66 0.33 1.32 0.66 2 1 C-4.63358779 6.87977099 -4.63358779 6.87977099 -8 7 C-8.66 6.34 -9.32 5.68 -10 5 C-8.27473958 4.28385417 -6.54947917 3.56770833 -4.82421875 2.8515625 C-3 2 -3 2 0 0 Z " fill="#4A595C" transform="translate(51,77)" />
<path d="M0 0 C0.99 0.33 1.98 0.66 3 1 C2.67 1.66 2.34 2.32 2 3 C1.34 3 0.68 3 0 3 C-0.1875 5.375 -0.1875 5.375 0 8 C0.99 8.66 1.98 9.32 3 10 C1.35 9.67 -0.3 9.34 -2 9 C-2 6.36 -2 3.72 -2 1 C-1.34 0.67 -0.68 0.34 0 0 Z " fill="#45A0D6" transform="translate(25,18)" />
<path d="M0 0 C0.99 0.33 1.98 0.66 3 1 C3.6875 3.0625 3.6875 3.0625 4 5 C3.34 5 2.68 5 2 5 C2 5.66 2 6.32 2 7 C1.34 7 0.68 7 0 7 C0 4.69 0 2.38 0 0 Z " fill="#7796B8" transform="translate(34,31)" />
<path d="M0 0 C0.33 0 0.66 0 1 0 C1 1.65 1 3.3 1 5 C-1.31 5.33 -3.62 5.66 -6 6 C-4.625 4.5 -4.625 4.5 -3 3 C-2.34 3 -1.68 3 -1 3 C-0.67 2.01 -0.34 1.02 0 0 Z " fill="#AEAB87" transform="translate(42,74)" />
<path d="M0 0 C2.34058637 2.12780579 3.70700306 4.11562221 5 7 C3.35 7.33 1.7 7.66 0 8 C0.33 7.01 0.66 6.02 1 5 C0.5625 2.3125 0.5625 2.3125 0 0 Z " fill="#698BAB" transform="translate(45,29)" />
<path d="M0 0 C0 1.32 0 2.64 0 4 C-2.9375 3.625 -2.9375 3.625 -6 3 C-6.33 2.34 -6.66 1.68 -7 1 C-2.25 0 -2.25 0 0 0 Z " fill="#3A6290" transform="translate(44,29)" />
<path d="M0 0 C0.99 0 1.98 0 3 0 C2.67 1.32 2.34 2.64 2 4 C1.34 3.67 0.68 3.34 0 3 C0 3.66 0 4.32 0 5 C-0.99 5.33 -1.98 5.66 -3 6 C-2 4 -1 2 0 0 Z " fill="#D9E7F2" transform="translate(30,34)" />
<path d="M0 0 C1.32 0.33 2.64 0.66 4 1 C3.01 1 2.02 1 1 1 C0.67 2.32 0.34 3.64 0 5 C-1.65 5 -3.3 5 -5 5 C-3.625 3.5 -3.625 3.5 -2 2 C-1.34 2 -0.68 2 0 2 C0 1.34 0 0.68 0 0 Z " fill="#1281D2" transform="translate(40,23)" />
</svg>