<?xml version='1.0' encoding='utf-8'?>
<svg xmlns="http://www.w3.org/2000/svg" version="1.1" width="89" height="101">
<path d="M0 0 C5.1359465 0.51359465 11.2184323 2.2184323 15 6 C15.04080783 7.99958364 15.04254356 10.00045254 15 12 C14.34 12.33 14.34 12.33 11 14 C11.061875 15.093125 11.12375 16.18625 11.1875 17.3125 C11 21 11 21 9.875 22.875 C7.32615294 24.40430823 4.92761527 24.67470941 2 25 C1.34 27.64 0.68 30.28 0 33 C-0.66 33 -1.32 33 -2 33 C-2.144375 33.5775 -2.28875 34.155 -2.4375 34.75 C-2.623125 35.4925 -2.80875 36.235 -3 37 C-3.144375 37.721875 -3.28875 38.44375 -3.4375 39.1875 C-3.623125 39.785625 -3.80875 40.38375 -4 41 C-4.33 41.165 -4.33 41.165 -6 42 C-6 42.66 -6 43.32 -6 44 C-7.32 44 -8.64 44 -10 44 C-10 44.66 -10 45.32 -10 46 C-9.34 46.33 -8.68 46.66 -8 47 C-8.99 47 -9.98 47 -11 47 C-10.67 47.66 -10.34 48.32 -10 49 C-7.05859375 49.6328125 -7.05859375 49.6328125 -3.4375 50.125 C-2.23996094 50.29257813 -1.04242188 50.46015625 0.19140625 50.6328125 C0.65482422 50.69339844 0.65482422 50.69339844 3 51 C2.34 53.31 1.68 55.62 1 58 C-2.64207973 59.11714665 -6.14115765 59.23551974 -9.9375 59.3125 C-11.14277344 59.34988281 -12.34804688 59.38726562 -13.58984375 59.42578125 C-17.58473308 58.92699209 -19.21243503 57.85103893 -22 55 C-22 54.34 -22 53.68 -22 53 C-22.66 53 -23.32 53 -24 53 C-24.07476562 52.46375 -24.14953125 51.9275 -24.2265625 51.375 C-25.19525683 45.60082204 -26.88755953 40.37139174 -29 34.9375 C-32.70063807 25.33827586 -34.34892961 17.37096327 -34 7 C-30.73367237 7.59202188 -30.16092229 7.79381831 -28 10.5625 C-27.67 10.9646875 -27.67 10.9646875 -26 13 C-24.68 13 -23.36 13 -22 13 C-23.25756667 9.51750769 -24.7731892 6.93534151 -27 4 C-27 3.34 -27 2.68 -27 2 C-21.140625 1.609375 -21.140625 1.609375 -19 2 C-18.4225 2.6496875 -17.845 3.299375 -17.25 3.96875 C-14.04949622 6.85809369 -10.86288751 6.67006756 -6.75 6.75 C-6.00492188 6.77964844 -5.25984375 6.80929688 -4.4921875 6.83984375 C-2.66203328 6.9102343 -0.83101231 6.95741832 1 7 C0.835 5.845 0.835 5.845 0 0 Z " fill="#E3D6DD" transform="translate(56,24)" />
<path d="M0 0 C2.35119399 3.52679099 2.21443452 5.02879485 2.125 9.1875 C2.10695313 10.27417969 2.08890625 11.36085938 2.0703125 12.48046875 C2.05871094 12.89619141 2.05871094 12.89619141 2 15 C2.6290625 15.020625 2.6290625 15.020625 5.8125 15.125 C8.0234375 15.40625 8.0234375 15.40625 10 16 C12.96800557 20.02116883 13.5093535 24.09353504 14 29 C15.65 29 17.3 29 19 29 C18.979375 27.906875 18.95875 26.81375 18.9375 25.6875 C19 22 19 22 20 19 C25.28 18.34 30.56 17.68 36 17 C35.34 19.97 34.68 22.94 34 26 C33.34 26 32.68 26 32 26 C31.855625 26.5775 31.71125 27.155 31.5625 27.75 C31.376875 28.4925 31.19125 29.235 31 30 C30.855625 30.721875 30.71125 31.44375 30.5625 32.1875 C30.376875 32.785625 30.19125 33.38375 30 34 C29.67 34.165 29.67 34.165 28 35 C28 35.66 28 36.32 28 37 C26.68 37 25.36 37 24 37 C24 37.66 24 38.32 24 39 C24.66 39.33 25.32 39.66 26 40 C25.01 40 24.02 40 23 40 C23.33 40.66 23.66 41.32 24 42 C26.94140625 42.6328125 26.94140625 42.6328125 30.5625 43.125 C31.76003906 43.29257813 32.95757812 43.46015625 34.19140625 43.6328125 C34.65482422 43.69339844 34.65482422 43.69339844 37 44 C36.34 46.31 35.68 48.62 35 51 C31.35792027 52.11714665 27.85884235 52.23551974 24.0625 52.3125 C22.85722656 52.34988281 21.65195312 52.38726562 20.41015625 52.42578125 C16.41526692 51.92699209 14.78756497 50.85103893 12 48 C12 47.34 12 46.68 12 46 C11.34 46 10.68 46 10 46 C9.92523438 45.46375 9.85046875 44.9275 9.7734375 44.375 C8.80474317 38.60082204 7.11244047 33.37139174 5 27.9375 C1.29936193 18.33827586 -0.34892961 10.37096327 0 0 Z " fill="#D59B9F" transform="translate(22,31)" />
<path d="M0 0 C5.1359465 0.51359465 11.2184323 2.2184323 15 6 C15.04080783 7.99958364 15.04254356 10.00045254 15 12 C14.34 12.33 14.34 12.33 11 14 C11.061875 15.093125 11.12375 16.18625 11.1875 17.3125 C11 21 11 21 9.9765625 22.65625 C6.96560966 24.70322189 3.72250919 24.83816546 0.1875 25.1875 C-0.51181641 25.26935547 -1.21113281 25.35121094 -1.93164062 25.43554688 C-5.970644 25.88516465 -9.93809907 26.08289594 -14 26 C-14.33 29.3 -14.66 32.6 -15 36 C-16.65 36 -18.3 36 -20 36 C-20.33 34.02 -20.66 32.04 -21 30 C-20.21625 29.7525 -19.4325 29.505 -18.625 29.25 C-15.60938271 27.81399177 -15.21785344 26.99779308 -14 24 C-11.77077045 21.77077045 -9.90864722 21.11871047 -7 20 C-6.67 19.67 -6.34 19.34 -6 19 C-4.14712498 18.92773498 -2.29166122 18.9161878 -0.4375 18.9375 C0.57441406 18.94652344 1.58632813 18.95554687 2.62890625 18.96484375 C3.02013672 18.97064453 3.02013672 18.97064453 5 19 C5 18.34 5 17.68 5 17 C5.99 17 6.98 17 8 17 C8 16.34 8 15.68 8 15 C6.02 15.33 4.04 15.66 2 16 C1.34 14.02 0.68 12.04 0 10 C-3.10014208 9.54851867 -6.20468842 9.14492768 -9.3125 8.75 C-10.19357422 8.62109375 -11.07464844 8.4921875 -11.98242188 8.359375 C-14.3776379 8.06794187 -16.59221195 7.83078842 -19 8 C-21.10546875 9.953125 -21.10546875 9.953125 -22 12 C-25.875 5.375 -25.875 5.375 -27 2 C-21.140625 1.609375 -21.140625 1.609375 -19 2 C-18.4225 2.6496875 -17.845 3.299375 -17.25 3.96875 C-14.04949622 6.85809369 -10.86288751 6.67006756 -6.75 6.75 C-6.00492188 6.77964844 -5.25984375 6.80929688 -4.4921875 6.83984375 C-2.66203328 6.9102343 -0.83101231 6.95741832 1 7 C0.67 4.69 0.34 2.38 0 0 Z " fill="#FDD2D1" transform="translate(56,24)" />
<path d="M0 0 C0.33 0 0.66 0 1 0 C1.32352563 10.46066211 0.54571808 19.49531675 -4 29 C-4.99 29 -5.98 29 -7 29 C-8.60185089 31.66975149 -9.04181804 33.39727137 -9.375 36.5625 C-10 40 -10 40 -11.625 41.9375 C-15.8569657 43.83074782 -19.61604907 43.47113223 -23.9375 42 C-24.618125 41.67 -25.29875 41.34 -26 41 C-25.67 39.35 -25.34 37.7 -25 36 C-23.68 36 -22.36 36 -21 36 C-21.165 35.505 -21.165 35.505 -22 33 C-21.01 33 -20.02 33 -19 33 C-18.855625 32.236875 -18.71125 31.47375 -18.5625 30.6875 C-18 28 -18 28 -17 25 C-16.34 25 -15.68 25 -15 25 C-14.67 22.36 -14.34 19.72 -14 17 C-13.43410156 16.79503906 -12.86820313 16.59007813 -12.28515625 16.37890625 C-11.55167969 16.10949219 -10.81820312 15.84007812 -10.0625 15.5625 C-9.33160156 15.29566406 -8.60070312 15.02882813 -7.84765625 14.75390625 C-6 14 -6 14 -5 13 C-4.87625 11.865625 -4.7525 10.73125 -4.625 9.5625 C-4.521875 8.9746875 -4.521875 8.9746875 -4 6 C-3.01 5.34 -2.02 4.68 -1 4 C-0.3125 1.875 -0.3125 1.875 0 0 Z " fill="#A6484B" transform="translate(71,32)" />
<path d="M0 0 C-0.66 2.64 -1.32 5.28 -2 8 C-2.66 8 -3.32 8 -4 8 C-4.144375 8.5775 -4.28875 9.155 -4.4375 9.75 C-4.623125 10.4925 -4.80875 11.235 -5 12 C-5.144375 12.721875 -5.28875 13.44375 -5.4375 14.1875 C-5.623125 14.785625 -5.80875 15.38375 -6 16 C-6.66 16.33 -7.32 16.66 -8 17 C-8 17.66 -8 18.32 -8 19 C-9.32 19 -10.64 19 -12 19 C-12 19.66 -12 20.32 -12 21 C-11.34 21.33 -10.68 21.66 -10 22 C-10.99 22 -11.98 22 -13 22 C-11.74458443 24.51083114 -10.49936512 24.87125446 -8 26 C-13.15171623 26.09038099 -17.91913204 25.84681133 -23 25 C-23 24.01 -23 23.02 -23 22 C-22.67 22.33 -22.34 22.66 -22 23 C-21.67 21.35 -21.34 19.7 -21 18 C-21.66 18 -22.32 18 -23 18 C-23.33 15.69 -23.66 13.38 -24 11 C-25.32 10.67 -26.64 10.34 -28 10 C-27.67 9.34 -27.34 8.68 -27 8 C-25.35 8 -23.7 8 -22 8 C-22 8.99 -22 9.98 -22 11 C-20.35 11 -18.7 11 -17 11 C-17.020625 9.906875 -17.04125 8.81375 -17.0625 7.6875 C-17 4 -17 4 -16 1 C-14.0852312 0.63571223 -12.16807707 0.28394694 -10.25 -0.0625 C-9.18265625 -0.25972656 -8.1153125 -0.45695312 -7.015625 -0.66015625 C-4 -1 -4 -1 0 0 Z " fill="#EB908F" transform="translate(58,49)" />
<path d="M0 0 C0 0.66 0 1.32 0 2 C0.9075 2.0825 1.815 2.165 2.75 2.25 C6.43481784 3.10034258 7.7273505 4.02807373 10 7 C10 7.99 10 8.98 10 10 C10.66 10 11.32 10 12 10 C12 11.98 12 13.96 12 16 C9.41603321 16.08112454 6.83462432 16.14054748 4.25 16.1875 C3.52039063 16.21263672 2.79078125 16.23777344 2.0390625 16.26367188 C-1.2676931 16.308764 -3.58932057 16.22638385 -6.515625 14.61328125 C-8 13 -8 13 -8 11 C-8.33773437 11.02900391 -8.33773437 11.02900391 -10.046875 11.17578125 C-12.77510498 11.31376976 -15.28988734 11.36106517 -18 11 C-20.625 8.5 -20.625 8.5 -22 6 C-21.67 5.34 -21.34 4.68 -21 4 C-19.02 5.65 -17.04 7.3 -15 9 C-14.54625 8.505 -14.0925 8.01 -13.625 7.5 C-12 6 -12 6 -10 6 C-9.67 4.35 -9.34 2.7 -9 1 C-5.846632 0.29925156 -3.27275026 0 0 0 Z " fill="#45553F" transform="translate(45,15)" />
<path d="M0 0 C3.10841719 0.16192935 6.20901637 0.38747707 9.3125 0.625 C10.19357422 0.67011719 11.07464844 0.71523438 11.98242188 0.76171875 C14.46607507 0.96947681 16.63612098 1.20464432 19 2 C21.10546875 5.0859375 21.10546875 5.0859375 22 8 C18.23435432 10.51043046 15.2340048 10.30247861 10.875 10.25 C10.49412231 10.24806641 10.49412231 10.24806641 8.56665039 10.23828125 C3.13433799 10.15485873 -1.76412013 9.52316505 -7 8 C-6.7009375 7.8040625 -6.7009375 7.8040625 -5.1875 6.8125 C-2.74054779 4.78502531 -1.56498131 2.73983833 0 0 Z M21 5 C23 6 23 6 23 6 Z " fill="#FAEBEE" transform="translate(37,31)" />
<path d="M0 0 C4.51321852 0.3302355 8.07814361 1.42725829 11.6484375 4.1796875 C14.6041169 8.16045802 13.42671856 13.32209774 13 18 C12.9175 19.28519531 12.835 20.57039063 12.75 21.89453125 C12.53135822 25.26639747 12.27895014 28.63267337 12 32 C11.34 32 10.68 32 10 32 C9.67 33.65 9.34 35.3 9 37 C8.34 37 7.68 37 7 37 C5.93809022 39.94067324 5.03477505 42.82934891 4.41015625 45.89453125 C2.45745323 55.26519486 2.45745323 55.26519486 -0.875 58.1875 C-3.73630193 59.84705512 -5.72959166 60.71143456 -9 61 C-8.67 60.01 -8.34 59.02 -8 58 C-7.6803125 57.9484375 -7.6803125 57.9484375 -6.0625 57.6875 C-5.7221875 57.5740625 -5.7221875 57.5740625 -4 57 C-2.75 53.9375 -2.75 53.9375 -2 51 C-2.66 50.67 -3.32 50.34 -4 50 C-3.01 49.34 -2.02 48.68 -1 48 C-0.65458149 45.66842508 -0.32205743 43.33491639 0 41 C1.375 38.5625 1.375 38.5625 3 37 C3.99 37 4.98 37 6 37 C8.49038986 29.21557383 10.01511296 22.01046933 10.3125 13.8125 C10.34988281 12.80832031 10.38726562 11.80414063 10.42578125 10.76953125 C9.88499805 7.25195978 8.7421792 6.19276226 6 4 C4.03120677 2.93988057 2.03564133 1.92529151 0 1 C0 0.67 0 0.34 0 0 Z " fill="#44535C" transform="translate(61,24)" />
<path d="M0 0 C8.58 0.66 17.16 1.32 26 2 C25.34 4.31 24.68 6.62 24 9 C20.35792027 10.11714665 16.85884235 10.23551974 13.0625 10.3125 C11.85722656 10.34988281 10.65195312 10.38726562 9.41015625 10.42578125 C5.31971251 9.91506147 3.74806842 9.05172239 1 6 C0.67 4.02 0.34 2.04 0 0 Z " fill="#9ABAD0" transform="translate(33,73)" />
<path d="M0 0 C0.66 0 1.32 0 2 0 C2.36297665 6.41258741 2.36297665 6.41258741 0.9765625 8.65625 C-2.03439034 10.70322189 -5.27749081 10.83816546 -8.8125 11.1875 C-9.51181641 11.26935547 -10.21113281 11.35121094 -10.93164062 11.43554688 C-14.970644 11.88516465 -18.93809907 12.08289594 -23 12 C-23.33 15.3 -23.66 18.6 -24 22 C-25.65 22 -27.3 22 -29 22 C-29.33 20.02 -29.66 18.04 -30 16 C-29.21625 15.7525 -28.4325 15.505 -27.625 15.25 C-24.60938271 13.81399177 -24.21785344 12.99779308 -23 10 C-20.77077045 7.77077045 -18.90864722 7.11871047 -16 6 C-15.67 5.67 -15.34 5.34 -15 5 C-13.14712498 4.92773498 -11.29166122 4.9161878 -9.4375 4.9375 C-8.42558594 4.94652344 -7.41367187 4.95554687 -6.37109375 4.96484375 C-5.97986328 4.97064453 -5.97986328 4.97064453 -4 5 C-4 4.34 -4 3.68 -4 3 C-3.01 3 -2.02 3 -1 3 C-0.67 2.01 -0.34 1.02 0 0 Z " fill="#FAC5C5" transform="translate(65,38)" />
<path d="M0 0 C1.07349791 4.29399165 0.79682816 5.19495213 -1 9 C-1.66 9 -2.32 9 -3 9 C-3 8.34 -3 7.68 -3 7 C-5.61047801 8.305239 -5.68066423 9.35826574 -6.625 12.0625 C-6.88539062 12.79597656 -7.14578125 13.52945313 -7.4140625 14.28515625 C-7.60742188 14.85105469 -7.80078125 15.41695312 -8 16 C-8.66 16 -9.32 16 -10 16 C-10 17.32 -10 18.64 -10 20 C-10.66 20 -11.32 20 -12 20 C-12 21.98 -12 23.96 -12 26 C-8.28400809 26.20086443 -7.22791555 26.1519437 -4 24 C-5.75 27.875 -5.75 27.875 -8 29 C-12.55547083 29.25785684 -15.8780636 28.99851462 -20 27 C-19.67 25.35 -19.34 23.7 -19 22 C-17.68 22 -16.36 22 -15 22 C-15.33 21.01 -15.66 20.02 -16 19 C-15.01 19 -14.02 19 -13 19 C-12.9278125 18.6184375 -12.9278125 18.6184375 -12.5625 16.6875 C-12 14 -12 14 -11 11 C-10.34 11 -9.68 11 -9 11 C-8.67 8.36 -8.34 5.72 -8 3 C-5.36 2.01 -2.72 1.02 0 0 Z " fill="#D6797A" transform="translate(65,46)" />
<path d="M0 0 C0 3 0 3 -2.1875 5.375 C-3.115625 6.24125 -4.04375 7.1075 -5 8 C-5.928125 8.928125 -6.85625 9.85625 -7.8125 10.8125 C-8.534375 11.534375 -9.25625 12.25625 -10 13 C-11.32 12.34 -12.64 11.68 -14 11 C-14 12.32 -14 13.64 -14 15 C-15.98 15 -17.96 15 -20 15 C-20.33 12.69 -20.66 10.38 -21 8 C-20.67 8.99 -20.34 9.98 -20 11 C-18.35 11 -16.7 11 -15 11 C-15.020625 9.906875 -15.04125 8.81375 -15.0625 7.6875 C-15 4 -15 4 -14 1 C-12.04310963 0.63794536 -10.08442332 0.28558579 -8.125 -0.0625 C-7.03445312 -0.25972656 -5.94390625 -0.45695312 -4.8203125 -0.66015625 C-2 -1 -2 -1 0 0 Z " fill="#F09F9D" transform="translate(56,49)" />
<path d="M0 0 C1.155 0.495 1.155 0.495 7 3 C7.33 2.67 7.66 2.34 8 2 C9.52519276 2.08937803 11.04681929 2.24537146 12.5625 2.4375 C13.38878906 2.53933594 14.21507812 2.64117187 15.06640625 2.74609375 C15.70449219 2.82988281 16.34257813 2.91367187 17 3 C16.63076923 10.26153846 16.63076923 10.26153846 13.4375 14 C12.633125 14.66 11.82875 15.32 11 16 C8.125 11.25 8.125 11.25 7 9 C5.15234375 8.3671875 5.15234375 8.3671875 2.9375 7.875 C2.20402344 7.70742188 1.47054688 7.53984375 0.71484375 7.3671875 C0.14894531 7.24601562 -0.41695312 7.12484375 -1 7 C-1.04254356 5.00045254 -1.04080783 2.99958364 -1 1 C-0.67 0.67 -0.34 0.34 0 0 Z " fill="#F9CED1" transform="translate(25,39)" />
<path d="M0 0 C0.33 0.66 0.66 1.32 1 2 C3.31 2 5.62 2 8 2 C8.33 2.66 8.66 3.32 9 4 C8.67 4.165 8.67 4.165 7 5 C7 7.31 7 9.62 7 12 C9.64 12 12.28 12 15 12 C15 12.66 15 13.32 15 14 C12.37472811 14.05382106 9.75055287 14.09358313 7.125 14.125 C6.37863281 14.14175781 5.63226563 14.15851562 4.86328125 14.17578125 C2.90805539 14.1933959 0.95257979 14.10320189 -1 14 C-4.09423168 10.90576832 -4.93706005 7.4476188 -5.125 3.125 C-5.08375 2.42375 -5.0425 1.7225 -5 1 C-3.68 1 -2.36 1 -1 1 C-0.67 0.67 -0.34 0.34 0 0 Z " fill="#E56A5E" transform="translate(42,17)" />
<path d="M0 0 C2.25 -0.375 2.25 -0.375 5 0 C7.0625 2.75 7.0625 2.75 9 6 C10.31328657 7.35308313 11.64499081 8.68870078 13 10 C15.72866112 13.11846985 16 13.61743753 16 18 C14.68 18.33 13.36 18.66 12 19 C11.6184375 18.5359375 11.6184375 18.5359375 9.6875 16.1875 C7.06511129 13.0435718 4.35392548 10.30566291 1.25 7.625 C-1 5 -1 5 -0.8125 2.1875 C-0.544375 1.465625 -0.27625 0.74375 0 0 Z " fill="#D1628E" transform="translate(18,19)" />
<path d="M0 0 C0.4021875 0.0103125 0.4021875 0.0103125 2.4375 0.0625 C2.7675 1.3825 3.0975 2.7025 3.4375 4.0625 C1.7875 4.3925 0.1375 4.7225 -1.5625 5.0625 C-1.8925 6.3825 -2.2225 7.7025 -2.5625 9.0625 C-1.94375 9.289375 -1.325 9.51625 -0.6875 9.75 C2.12520242 11.48725738 2.4533918 12.94466628 3.4375 16.0625 C3.4921875 18.4296875 3.4921875 18.4296875 3.3125 20.9375 C3.13600529 29.05625664 5.41254609 37.39054752 8.6328125 44.8203125 C9.4375 47.0625 9.4375 47.0625 8.4375 50.0625 C7.76395501 48.62820999 7.09890299 47.18992943 6.4375 45.75 C6.251875 45.34974609 6.251875 45.34974609 5.3125 43.32421875 C4.4375 41.0625 4.4375 41.0625 4.4375 38.0625 C3.4475 38.0625 2.4575 38.0625 1.4375 38.0625 C0.57256916 35.05085765 0.2919973 32.3121577 0.2265625 29.18359375 C0.19820312 28.26255859 0.16984375 27.34152344 0.140625 26.39257812 C0.0884415 24.46048396 0.04420038 22.52815931 0.0078125 20.59570312 C-0.00765625 20.13583008 -0.00765625 20.13583008 -0.0859375 17.80859375 C-0.10575684 16.96997803 -0.12557617 16.1313623 -0.14599609 15.26733398 C-0.64852309 12.60712221 -1.59161541 11.83745813 -3.5625 10.0625 C-3.890625 7.8359375 -3.890625 7.8359375 -3.8125 5.4375 C-3.79703125 4.64085937 -3.7815625 3.84421875 -3.765625 3.0234375 C-3.45353514 0.01057005 -3.06358709 0.07472164 0 0 Z " fill="#4D5657" transform="translate(19.5625,14.9375)" />
<path d="M0 0 C5.61 0.33 11.22 0.66 17 1 C17 4 17 4 15.91796875 5.67578125 C13.06726818 7.64398388 10.72802353 7.28895119 7.3125 7.1875 C6.72275391 7.17396484 6.72275391 7.17396484 3.73828125 7.10546875 C3.28646484 7.08806641 3.28646484 7.08806641 1 7 C0.31292445 4.50935112 0 2.62113708 0 0 Z " fill="#B9CFE1" transform="translate(38,76)" />
<path d="M0 0 C0.33 0 0.66 0 1 0 C1.32352563 10.46066211 0.54571808 19.49531675 -4 29 C-5.43988109 24.7300078 -4.34392993 21.49590989 -3.27734375 17.2421875 C-3.18582031 16.50226562 -3.09429687 15.76234375 -3 15 C-3.66 14.34 -4.32 13.68 -5 13 C-4.8125 9.5 -4.8125 9.5 -4 6 C-3.01 5.34 -2.02 4.68 -1 4 C-0.3125 1.875 -0.3125 1.875 0 0 Z " fill="#B1979F" transform="translate(71,32)" />
<path d="M0 0 C3.375 0.3125 3.375 0.3125 7 1 C9 4 9 4 9 7 C9.66 7 10.32 7 11 7 C10.67 8.65 10.34 10.3 10 12 C7.69 11.67 5.38 11.34 3 11 C2.67 8.36 2.34 5.72 2 3 C2.66 2.67 3.32 2.34 4 2 C2.68 1.34 1.36 0.68 0 0 Z " fill="#902823" transform="translate(46,18)" />
<path d="M0 0 C0.33 0.99 0.66 1.98 1 3 C0.34 3 -0.32 3 -1 3 C-1 4.98 -1 6.96 -1 9 C2.71599191 9.20086443 3.77208445 9.1519437 7 7 C5.25 10.875 5.25 10.875 3 12 C-1.55547083 12.25785684 -4.8780636 11.99851462 -9 10 C-8.67 8.35 -8.34 6.7 -8 5 C-6.68 5 -5.36 5 -4 5 C-4.33 4.01 -4.66 3.02 -5 2 C-3.35 2 -1.7 2 0 2 C0 1.34 0 0.68 0 0 Z " fill="#BE6C71" transform="translate(54,63)" />
<path d="M0 0 C5.22000584 0.52200058 9.58713788 2.20904902 14 5 C14.33 5.66 14.66 6.32 15 7 C14.67 7.495 14.67 7.495 13 10 C11.35 9.67 9.7 9.34 8 9 C8 8.34 8 7.68 8 7 C6.68 6.34 5.36 5.68 4 5 C4 4.01 4 3.02 4 2 C3.34 2 2.68 2 2 2 C1.67 3.32 1.34 4.64 1 6 C0.67 4.02 0.34 2.04 0 0 Z " fill="#F2C3C7" transform="translate(56,24)" />
<path d="M0 0 C0.66 0 1.32 0 2 0 C2.35706695 6.30818278 2.35706695 6.30818278 1 8.9375 C-2.26642246 10.67278693 -5.34351452 10.17982715 -9 10 C-8.67 8.35 -8.34 6.7 -8 5 C-6.68 5 -5.36 5 -4 5 C-4 4.34 -4 3.68 -4 3 C-3.01 3 -2.02 3 -1 3 C-0.67 2.01 -0.34 1.02 0 0 Z " fill="#EFB0AF" transform="translate(65,38)" />
<path d="M0 0 C0.33 0.66 0.66 1.32 1 2 C3.31 2 5.62 2 8 2 C8.33 2.66 8.66 3.32 9 4 C8.67 4.165 8.67 4.165 7 5 C7 7.31 7 9.62 7 12 C7.66 12.33 8.32 12.66 9 13 C8.01 13 7.02 13 6 13 C6 12.34 6 11.68 6 11 C5.34 11 4.68 11 4 11 C4.33 8.36 4.66 5.72 5 3 C4.34 3 3.68 3 3 3 C3 3.66 3 4.32 3 5 C1.35 5 -0.3 5 -2 5 C-2.33 5.99 -2.66 6.98 -3 8 C-5 6 -5 6 -5.125 3.375 C-5.08375 2.59125 -5.0425 1.8075 -5 1 C-3.68 1 -2.36 1 -1 1 C-0.67 0.67 -0.34 0.34 0 0 Z " fill="#BD6952" transform="translate(42,17)" />
<path d="M0 0 C0.5534764 2.07553648 1 3.84365964 1 6 C-0.32 6 -1.64 6 -3 6 C-3 6.66 -3 7.32 -3 8 C-2.34 8.33 -1.68 8.66 -1 9 C-1.99 9 -2.98 9 -4 9 C-2.74458443 11.51083114 -1.49936512 11.87125446 1 13 C-1.64 13 -4.28 13 -7 13 C-7 10.03 -7 7.06 -7 4 C-7.66 3.67 -8.32 3.34 -9 3 C-7.515 2.835 -7.515 2.835 0 2 C0 1.34 0 0.68 0 0 Z " fill="#E18382" transform="translate(49,62)" />
<path d="M0 0 C2.97 0.33 5.94 0.66 9 1 C8.67 3.31 8.34 5.62 8 8 C1.125 7.125 1.125 7.125 0 6 C-0.04080783 4.00041636 -0.04254356 1.99954746 0 0 Z " fill="#FBF9F9" transform="translate(33,41)" />
<path d="M0 0 C1.32 0 2.64 0 4 0 C4 0.66 4 1.32 4 2 C4.99 2.165 4.99 2.165 10 3 C9.67 3.99 9.34 4.98 9 6 C3.36718401 6.2396943 -1.54538831 5.38529821 -7 4 C-7 3.67 -7 3.34 -7 3 C-6.5153125 2.8453125 -6.5153125 2.8453125 -4.0625 2.0625 C-1 1 -1 1 0 0 Z " fill="#FAF8F9" transform="translate(37,35)" />
<path d="M0 0 C1.32 0 2.64 0 4 0 C4.70226141 1.24176695 5.38629109 2.49385599 6.0625 3.75 C6.25392578 4.09804688 6.25392578 4.09804688 7.22265625 5.859375 C8.1312406 8.36140628 7.88336837 9.5332355 7 12 C6.34 12 5.68 12 5 12 C3.64721885 10.01310269 2.31431695 8.01254782 1 6 C0.34 5.67 -0.32 5.34 -1 5 C-0.67 3.35 -0.34 1.7 0 0 Z " fill="#D36898" transform="translate(18,19)" />
<path d="M0 0 C4.50866442 0.32990227 8.05199898 1.44324153 11.6484375 4.14453125 C14.53840884 8.11197746 13.54348059 13.35571133 13 18 C12.69115834 19.67137839 12.36612601 21.34022874 12 23 C11.67 23 11.34 23 11 23 C10.97421875 21.96359375 10.9484375 20.9271875 10.921875 19.859375 C10.86558049 18.48954199 10.80823345 17.11975195 10.75 15.75 C10.74291016 15.40904297 10.74291016 15.40904297 10.70703125 13.68359375 C10.54271857 10.29875255 10.25709196 8.3311693 8.15625 5.625 C5.58517374 3.68737731 2.92612834 2.33005834 0 1 C0 0.67 0 0.34 0 0 Z " fill="#465056" transform="translate(61,24)" />
<path d="M0 0 C1.96446905 1.6344795 2.92317791 2.46429394 3.29296875 5.04296875 C3.1953125 7.02864583 3.09765625 9.01432292 3 11 C3.66 11 4.32 11 5 11 C5.61875 11.78375 6.2375 12.5675 6.875 13.375 C10.74301936 17.52518491 16.65226869 17.42855184 22 18 C22 18.33 22 18.66 22 19 C15.01147209 19.51554714 9.89881722 18.96146059 4 15 C1.27893306 12.27893306 1.39344428 10.15223689 0.875 6.375 C0.70742188 5.18648438 0.53984375 3.99796875 0.3671875 2.7734375 C0.24601562 1.85820313 0.12484375 0.94296875 0 0 Z " fill="#445355" transform="translate(29,66)" />
<path d="M0 0 C2.64 0 5.28 0 8 0 C8.66 1.32 9.32 2.64 10 4 C9.34 4 8.68 4 8 4 C7.34 5.98 6.68 7.96 6 10 C3.25722422 6.80009492 1.3697164 3.99500618 0 0 Z " fill="#DCA2AB" transform="translate(29,26)" />
<path d="M0 0 C0.66 0 1.32 0 2 0 C1.43544653 2.60955832 0.8494963 5.21095449 0.25 7.8125 C0.09273438 8.55048828 -0.06453125 9.28847656 -0.2265625 10.04882812 C-1.01965384 13.41946633 -1.58011037 15.6053957 -4.140625 18.01171875 C-4.44742188 18.17478516 -4.44742188 18.17478516 -6 19 C-5.67 17.35 -5.34 15.7 -5 14 C-5.66 13.67 -6.32 13.34 -7 13 C-6.01 12.34 -5.02 11.68 -4 11 C-3.65458149 8.66842508 -3.32205743 6.33491639 -3 4 C-1.5625 1.5625 -1.5625 1.5625 0 0 Z " fill="#6D8A9E" transform="translate(64,61)" />
<path d="M0 0 C1.32 0.33 2.64 0.66 4 1 C4.33 3.31 4.66 5.62 5 8 C5.66 8 6.32 8 7 8 C7 9.98 7 11.96 7 14 C5.109375 13.3828125 5.109375 13.3828125 3 12 C1.953125 9.1796875 1.953125 9.1796875 1.25 5.875 C1.00765625 4.77929688 0.7653125 3.68359375 0.515625 2.5546875 C0.34546875 1.71164063 0.1753125 0.86859375 0 0 Z " fill="#CC6F75" transform="translate(30,59)" />
<path d="M0 0 C5.61 0 11.22 0 17 0 C16.34 2.31 15.68 4.62 15 7 C13.35 7.33 11.7 7.66 10 8 C10.33 7.01 10.66 6.02 11 5 C11.66 5 12.32 5 13 5 C13 4.01 13 3.02 13 2 C8.71 1.67 4.42 1.34 0 1 C0 0.67 0 0.34 0 0 Z " fill="#929CB0" transform="translate(42,75)" />
<path d="M0 0 C0.33 0 0.66 0 1 0 C1.25 2.8125 1.25 2.8125 1 6 C-0.9375 7.6875 -0.9375 7.6875 -3 9 C-3.33 9.99 -3.66 10.98 -4 12 C-5.32 11.67 -6.64 11.34 -8 11 C-7.01 8.36 -6.02 5.72 -5 3 C-4.34 3 -3.68 3 -3 3 C-3 3.66 -3 4.32 -3 5 C-2.34 5 -1.68 5 -1 5 C-0.67 3.35 -0.34 1.7 0 0 Z " fill="#C55B58" transform="translate(65,50)" />
<path d="M0 0 C0.391875 0.1753125 0.391875 0.1753125 2.375 1.0625 C2.808125 1.2171875 2.808125 1.2171875 5 2 C5.66 1.67 6.32 1.34 7 1 C7.33 1.66 7.66 2.32 8 3 C8.66 2.34 9.32 1.68 10 1 C10.125 3.375 10.125 3.375 10 6 C9.34 6.66 8.68 7.32 8 8 C5.73725212 7.64644564 4.04911148 7.02455574 2 6 C2 5.34 2 4.68 2 4 C1.34 4 0.68 4 0 4 C0 2.68 0 1.36 0 0 Z " fill="#E8CBD5" transform="translate(61,30)" />
<path d="M0 0 C0.4021875 0.0103125 0.4021875 0.0103125 2.4375 0.0625 C2.7675 1.3825 3.0975 2.7025 3.4375 4.0625 C1.7875 4.3925 0.1375 4.7225 -1.5625 5.0625 C-1.8925 6.3825 -2.2225 7.7025 -2.5625 9.0625 C-1.923125 9.35125 -1.28375 9.64 -0.625 9.9375 C1.4375 11.0625 1.4375 11.0625 2.4375 13.0625 C-0.42974686 12.48905063 -1.4239515 12.2010485 -3.5625 10.0625 C-3.79296875 7.93359375 -3.79296875 7.93359375 -3.75 5.5 C-3.74355469 4.69433594 -3.73710937 3.88867188 -3.73046875 3.05859375 C-3.47429525 0.01429939 -3.0834262 0.07520552 0 0 Z " fill="#665154" transform="translate(19.5625,14.9375)" />
<path d="M0 0 C1.815 0.33 1.815 0.33 11 2 C11 2.99 11 3.98 11 5 C7.37 5 3.74 5 0 5 C0 3.35 0 1.7 0 0 Z " fill="#D1E8F7" transform="translate(38,76)" />
<path d="M0 0 C3.32875183 1.80482958 4.00755317 3.02064974 5.3359375 6.65234375 C5.6983205 8.07674702 6.04422564 9.50542653 6.375 10.9375 C6.56449219 11.65357422 6.75398438 12.36964844 6.94921875 13.10742188 C7.71116769 16.24537188 8.2089174 18.4177563 7.1015625 21.50390625 C6.73804688 21.99761719 6.37453125 22.49132812 6 23 C5.90203125 22.39414063 5.8040625 21.78828125 5.703125 21.1640625 C4.68648589 15.46737784 3.13460387 10.42648982 0.8046875 5.12890625 C0 3 0 3 0 0 Z " fill="#978D9A" transform="translate(26,54)" />
<path d="M0 0 C2.95905548 2.87241647 5.64581851 5.86514384 8.25 9.0625 C8.95640625 9.91972656 9.6628125 10.77695312 10.390625 11.66015625 C12 14 12 14 12 17 C11.34 17 10.68 17 10 17 C9.67 15.68 9.34 14.36 9 13 C8.34 13 7.68 13 7 13 C6.34 11.35 5.68 9.7 5 8 C4.34 8 3.68 8 3 8 C0.95830515 5.09451118 0 3.59857954 0 0 Z " fill="#B45176" transform="translate(22,19)" />
<path d="M0 0 C3.3 0.33 6.6 0.66 10 1 C7.30800971 2.79466019 4.98674972 3.83443914 2 5 C1.29875 5.391875 0.5975 5.78375 -0.125 6.1875 C-2 7 -2 7 -5 6 C-4.34 5.67 -3.68 5.34 -3 5 C-1.9590934 3.35857037 -0.95495674 1.69287785 0 0 Z " fill="#F8E9E8" transform="translate(37,31)" />
<path d="M0 0 C2.13586678 3.20380017 2.23132175 4.01939967 2.125 7.6875 C2.10695313 8.49574219 2.08890625 9.30398437 2.0703125 10.13671875 C2.05871094 10.44416016 2.05871094 10.44416016 2 12 C1.34 12 0.68 12 0 12 C-0.33 13.65 -0.66 15.3 -1 17 C-1.66 16.67 -2.32 16.34 -3 16 C-2.01 10.72 -1.02 5.44 0 0 Z " fill="#525D61" transform="translate(71,44)" />
<path d="M0 0 C0.33 0 0.66 0 1 0 C1 3.63 1 7.26 1 11 C-0.98 11 -2.96 11 -5 11 C-5.33 8.69 -5.66 6.38 -6 4 C-5.67 4.99 -5.34 5.98 -5 7 C-3.35 7 -1.7 7 0 7 C0 4.69 0 2.38 0 0 Z " fill="#F4B1AD" transform="translate(41,53)" />
<path d="M0 0 C0.66 0 1.32 0 2 0 C1.05542371 6.76761128 0.06997835 12.8600433 -3 19 C-4.67641098 14.90913548 -3.2409319 11.28488982 -2.0625 7.25 C-1.86720703 6.55261719 -1.67191406 5.85523438 -1.47070312 5.13671875 C-0.9891754 3.42201027 -0.49574843 1.71065123 0 0 Z " fill="#7D758A" transform="translate(70,42)" />
<path d="M0 0 C0.33 0.66 0.66 1.32 1 2 C2.32 2 3.64 2 5 2 C5.33 2.99 5.66 3.98 6 5 C3.4345406 7.5654594 1.52313332 7.54046087 -2 8 C-2.6875 5.6875 -2.6875 5.6875 -3 3 C-1.5625 1.1875 -1.5625 1.1875 0 0 Z " fill="#F8DCDC" transform="translate(60,32)" />
<path d="M0 0 C2.09350689 3.4019487 2.17942163 6.05272412 2 10 C0.35 10.33 -1.3 10.66 -3 11 C-2.67 8.69 -2.34 6.38 -2 4 C-1.34 4 -0.68 4 0 4 C0 2.68 0 1.36 0 0 Z " fill="#C4544E" transform="translate(55,62)" />
<path d="M0 0 C0.825 0.165 0.825 0.165 5 1 C5 3.31 5 5.62 5 8 C4.67 8.165 4.67 8.165 3 9 C2.34 8.67 1.68 8.34 1 8 C0.40644386 5.35139573 0.25790731 2.70802678 0 0 Z " fill="#D8362D" transform="translate(48,21)" />
<path d="M0 0 C2.64 0.33 5.28 0.66 8 1 C5.75470565 4.36794152 4.68407814 4.71057265 1 6 C0.67 6.165 0.67 6.165 -1 7 C-0.67 4.69 -0.34 2.38 0 0 Z " fill="#F3D4DA" transform="translate(42,42)" />
<path d="M0 0 C0.66 0 1.32 0 2 0 C2 2.31 2 4.62 2 7 C-0.49092811 8.24546405 -1.41080733 7.7767578 -4 7 C-4 5.68 -4 4.36 -4 3 C-3.01 3 -2.02 3 -1 3 C-0.67 2.01 -0.34 1.02 0 0 Z " fill="#DCB0B2" transform="translate(65,38)" />
<path d="M0 0 C1.125 3.75 1.125 3.75 0 6 C-1.65 6 -3.3 6 -5 6 C-5.33 5.01 -5.66 4.02 -6 3 C-5.67 2.34 -5.34 1.68 -5 1 C-2.4375 0.375 -2.4375 0.375 0 0 Z " fill="#F7A190" transform="translate(45,21)" />
<path d="M0 0 C0.33 1.32 0.66 2.64 1 4 C1.66 2.68 2.32 1.36 3 0 C3.66 0 4.32 0 5 0 C5 1.98 5 3.96 5 6 C2.69 6 0.38 6 -2 6 C-2 5.01 -2 4.02 -2 3 C-1.67 3.33 -1.34 3.66 -1 4 C-0.67 2.68 -0.34 1.36 0 0 Z " fill="#DC9296" transform="translate(37,68)" />
<path d="M0 0 C0.33 1.32 0.66 2.64 1 4 C-0.32 3.67 -1.64 3.34 -3 3 C-3 3.66 -3 4.32 -3 5 C-5.31 5 -7.62 5 -10 5 C-9.34 4.67 -8.68 4.34 -8 4 C-8 3.34 -8 2.68 -8 2 C-5.36 1.34 -2.72 0.68 0 0 Z " fill="#E2C2CF" transform="translate(64,38)" />
<path d="M0 0 C0.825 0.165 0.825 0.165 5 1 C5 1.66 5 2.32 5 3 C4.34 3 3.68 3 3 3 C3.33 5.31 3.66 7.62 4 10 C1.2027092 7.93243723 0.97307727 6.85559629 0.3125 3.3125 C0.209375 2.219375 0.10625 1.12625 0 0 Z " fill="#D08D94" transform="translate(25,47)" />
<path d="M0 0 C-0.33 2.31 -0.66 4.62 -1 7 C-3.31 6.67 -5.62 6.34 -8 6 C-8.33 4.35 -8.66 2.7 -9 1 C-8.67 1.165 -8.67 1.165 -7 2 C-7 2.99 -7 3.98 -7 5 C-5.35 5 -3.7 5 -2 5 C-2.66 3.68 -3.32 2.36 -4 1 C-2 0 -2 0 0 0 Z " fill="#F8EFEF" transform="translate(42,42)" />
<path d="M0 0 C0.99 0.33 1.98 0.66 3 1 C2.71572583 2.58467728 2.42225182 4.1677057 2.125 5.75 C2.04378906 6.19085938 2.04378906 6.19085938 1.6328125 8.421875 C1 11 1 11 -1 15 C-0.67 10.05 -0.34 5.1 0 0 Z " fill="#9A575C" transform="translate(66,46)" />
<path d="M0 0 C0 0.66 0 1.32 0 2 C1.32 2.33 2.64 2.66 4 3 C2.0085944 3.38133299 0.00720923 3.71325582 -2 4 C-2.33 3.67 -2.66 3.34 -3 3 C-3.66 3.66 -4.32 4.32 -5 5 C-5.66 4.67 -6.32 4.34 -7 4 C-7 3.34 -7 2.68 -7 2 C-4 0 -4 0 0 0 Z " fill="#4B533A" transform="translate(45,15)" />
<path d="M0 0 C1.29585916 0.42492126 2.5866044 0.86545882 3.875 1.3125 C4.59429687 1.55613281 5.31359375 1.79976562 6.0546875 2.05078125 C8 3 8 3 10 6 C9.67 6.495 9.67 6.495 8 9 C7.896875 8.608125 7.896875 8.608125 7.375 6.625 C6 4 6 4 2.875 2.6875 C1.92625 2.460625 0.9775 2.23375 0 2 C0 1.34 0 0.68 0 0 Z " fill="#ADA3B3" transform="translate(61,25)" />
<path d="M0 0 C0.99 0.33 1.98 0.66 3 1 C4.1875 4.0625 4.1875 4.0625 5 7 C4.01 6.67 3.02 6.34 2 6 C2 5.34 2 4.68 2 4 C0.35 4 -1.3 4 -3 4 C-2.67 3.01 -2.34 2.02 -2 1 C-1.34 0.67 -0.68 0.34 0 0 Z " fill="#744E2D" transform="translate(35,22)" />
<path d="M0 0 C1.32 0 2.64 0 4 0 C4.66 3.3 5.32 6.6 6 10 C5.34 10 4.68 10 4 10 C3.67 7.69 3.34 5.38 3 3 C1.68 2.67 0.36 2.34 -1 2 C-0.67 1.34 -0.34 0.68 0 0 Z " fill="#EB8585" transform="translate(31,57)" />
<path d="M0 0 C1.27514492 3.82543475 0.52740413 5.33423008 -1 9 C-2.625 10.875 -2.625 10.875 -4 12 C-3.45660208 7.43545749 -2.20536179 4.0271824 0 0 Z " fill="#676A5C" transform="translate(68,61)" />
<path d="M0 0 C2.31 0 4.62 0 7 0 C6.34 1.32 5.68 2.64 5 4 C3.0625 3.6875 3.0625 3.6875 1 3 C0.67 2.01 0.34 1.02 0 0 Z " fill="#F8DDE1" transform="translate(29,26)" />
<path d="M0 0 C1.32 0 2.64 0 4 0 C4 0.66 4 1.32 4 2 C7.3 2 10.6 2 14 2 C14 2.33 14 2.66 14 3 C12.04174127 3.02694851 10.08337774 3.04637218 8.125 3.0625 C7.03445312 3.07410156 5.94390625 3.08570312 4.8203125 3.09765625 C2 3 2 3 0 2 C0 1.34 0 0.68 0 0 Z " fill="#CFBDC2" transform="translate(38,74)" />
<path d="M0 0 C2.31 0.33 4.62 0.66 7 1 C7.33 2.65 7.66 4.3 8 6 C4.63408134 4.55746343 2.48952921 2.66735273 0 0 Z " fill="#68685C" transform="translate(66,24)" />
<path d="M0 0 C0.66 0 1.32 0 2 0 C0.375 6.75 0.375 6.75 -3 9 C-3.25532751 5.93606987 -3.21861333 4.36766788 -1.625 1.6875 C-1.356875 1.4090625 -1.356875 1.4090625 0 0 Z " fill="#72697F" transform="translate(64,61)" />
<path d="M0 0 C3.37339774 1.12446591 4.60069275 2.44589873 7 5 C7.66 5.66 8.32 6.32 9 7 C6.75 7.3125 6.75 7.3125 4 7 C0 2.89189189 0 2.89189189 0 0 Z " fill="#5A4446" transform="translate(23,19)" />
<path d="M0 0 C0 0.99 0 1.98 0 3 C0.66 3.33 1.32 3.66 2 4 C0.02 4 -1.96 4 -4 4 C-4.33 3.01 -4.66 2.02 -5 1 C-2 0 -2 0 0 0 Z " fill="#E56873" transform="translate(50,70)" />
<path d="M0 0 C0.66 0.33 1.32 0.66 2 1 C1.34 2.65 0.68 4.3 0 6 C-0.66 6 -1.32 6 -2 6 C-2 5.34 -2 4.68 -2 4 C-2.99 4.33 -3.98 4.66 -5 5 C-4.67 4.01 -4.34 3.02 -4 2 C-2.68 2 -1.36 2 0 2 C0 1.34 0 0.68 0 0 Z " fill="#D76E6E" transform="translate(64,49)" />
<path d="M0 0 C0.928125 0.20625 1.85625 0.4125 2.8125 0.625 C2.8125 1.285 2.8125 1.945 2.8125 2.625 C-0.1575 2.295 -3.1275 1.965 -6.1875 1.625 C-3.1875 -0.375 -3.1875 -0.375 0 0 Z " fill="#FBF5F7" transform="translate(50.1875,32.375)" />
<path d="M0 0 C0.66 0 1.32 0 2 0 C1.34 2.64 0.68 5.28 0 8 C-0.66 8 -1.32 8 -2 8 C-1.47731534 5.23723823 -0.89130413 2.6739124 0 0 Z " fill="#DE7680" transform="translate(54,57)" />
</svg>