<?xml version='1.0' encoding='utf-8'?>
<svg xmlns="http://www.w3.org/2000/svg" version="1.1" width="103" height="91">
<path d="M0 0 C0.88494141 -0.00128906 1.76988281 -0.00257812 2.68164062 -0.00390625 C3.13958008 -0.00197266 3.13958008 -0.00197266 5.45703125 0.0078125 C6.38451172 0.00394531 7.31199219 0.00007813 8.26757812 -0.00390625 C9.14865234 -0.00261719 10.02972656 -0.00132813 10.9375 0 C11.74469482 0.00112793 12.55188965 0.00225586 13.38354492 0.00341797 C15.26953125 0.1328125 15.26953125 0.1328125 16.26953125 1.1328125 C19.29978927 1.67102251 22.34030113 2.09838071 25.38671875 2.53515625 C28.26953125 3.1328125 28.26953125 3.1328125 31.26953125 5.1328125 C31.45703125 8.2578125 31.45703125 8.2578125 31.26953125 11.1328125 C31.78515625 11.101875 31.78515625 11.101875 34.39453125 10.9453125 C38.59052246 11.14834433 40.82402228 11.7537706 44.26953125 14.1328125 C45.33540109 17.15192706 45.48608421 18.59864854 44.2734375 21.58984375 C44.03560547 21.97849609 44.03560547 21.97849609 42.83203125 23.9453125 C42.35894531 24.73550781 41.88585937 25.52570312 41.3984375 26.33984375 C41.02589844 26.93152344 40.65335938 27.52320312 40.26953125 28.1328125 C35.00581763 28.63411856 32.36043785 27.44449879 28.26953125 24.1328125 C28.26953125 23.4728125 28.26953125 22.8128125 28.26953125 22.1328125 C26.61953125 22.1328125 24.96953125 22.1328125 23.26953125 22.1328125 C23.26953125 22.7928125 23.26953125 23.4528125 23.26953125 24.1328125 C21.14822313 26.09698668 19.82778794 27.07243532 16.921875 27.38671875 C13.16565036 28.44332981 11.91182128 30.46663334 9.51953125 33.5078125 C9.09124023 34.04148438 8.66294922 34.57515625 8.22167969 35.125 C6.89173192 36.7847435 5.57888932 38.45679485 4.26953125 40.1328125 C-5.73403127 52.86170456 -5.73403127 52.86170456 -10.73046875 55.1328125 C-14.23304874 55.220377 -16.30223117 53.90466809 -19.04296875 51.8828125 C-21.73046875 49.1328125 -21.73046875 49.1328125 -22.10546875 46.3203125 C-22.04359375 45.959375 -22.04359375 45.959375 -21.73046875 44.1328125 C-19.73046875 47.1328125 -19.73046875 47.1328125 -19.73046875 49.1328125 C-18.98796875 49.4215625 -18.24546875 49.7103125 -17.48046875 50.0078125 C-15.16307078 50.95583894 -12.9512976 51.98127161 -10.73046875 53.1328125 C-10.85421875 52.4109375 -10.97796875 51.6890625 -11.10546875 50.9453125 C-10.73046875 48.1328125 -10.73046875 48.1328125 -7.91796875 45.6328125 C-7.37011719 45.22675781 -6.82226562 44.82070313 -6.2578125 44.40234375 C-4.15794212 42.65692719 -3.07258059 40.48150822 -1.73046875 38.1328125 C-1.07046875 38.1328125 -0.41046875 38.1328125 0.26953125 38.1328125 C0.54152344 37.54371094 0.81351563 36.95460937 1.09375 36.34765625 C3.96912654 30.93124928 8.77197314 26.2555741 13.26953125 22.1328125 C13.92953125 22.1328125 14.58953125 22.1328125 15.26953125 22.1328125 C15.49640625 21.5553125 15.72328125 20.9778125 15.95703125 20.3828125 C17.61801347 17.53541441 19.58477686 16.01214057 22.26953125 14.1328125 C22.92953125 14.1328125 23.58953125 14.1328125 24.26953125 14.1328125 C24.26953125 15.1228125 24.26953125 16.1128125 24.26953125 17.1328125 C26.24953125 17.1328125 28.22953125 17.1328125 30.26953125 17.1328125 C30.26953125 18.1228125 30.26953125 19.1128125 30.26953125 20.1328125 C31.03265625 20.2771875 31.79578125 20.4215625 32.58203125 20.5703125 C35.26953125 21.1328125 35.26953125 21.1328125 38.26953125 22.1328125 C38.26953125 21.4728125 38.26953125 20.8128125 38.26953125 20.1328125 C38.92953125 20.1328125 39.58953125 20.1328125 40.26953125 20.1328125 C40.26953125 18.4828125 40.26953125 16.8328125 40.26953125 15.1328125 C39.35429688 15.01164062 38.4390625 14.89046875 37.49609375 14.765625 C36.30757812 14.59804688 35.1190625 14.43046875 33.89453125 14.2578125 C32.71117187 14.09539063 31.5278125 13.93296875 30.30859375 13.765625 C26.67944163 13.00994037 25.83010696 11.69338821 23.26953125 9.1328125 C21.61961543 8.42570572 19.95390869 7.75337261 18.26953125 7.1328125 C18.26953125 6.4728125 18.26953125 5.8128125 18.26953125 5.1328125 C11.55790187 4.25259881 5.03547144 4.01899295 -1.73046875 4.1328125 C-1.1271875 4.25398438 -0.52390625 4.37515625 0.09765625 4.5 C0.896875 4.66757812 1.69609375 4.83515625 2.51953125 5.0078125 C3.3084375 5.17023437 4.09734375 5.33265625 4.91015625 5.5 C7.23784269 6.12431325 9.15985077 6.98119792 11.26953125 8.1328125 C10.48722451 12.04434622 9.02247745 15.55949909 7.26953125 19.1328125 C6.27953125 19.4628125 5.28953125 19.7928125 4.26953125 20.1328125 C4.92953125 18.8128125 5.58953125 17.4928125 6.26953125 16.1328125 C5.09390625 15.8440625 3.91828125 15.5553125 2.70703125 15.2578125 C-1.13236145 14.29967529 -4.93180055 13.24075739 -8.73046875 12.1328125 C-8.73046875 8.5028125 -8.73046875 4.8728125 -8.73046875 1.1328125 C-5.48885173 0.32240825 -3.25706617 0.00453225 0 0 Z " fill="#3A3525" transform="translate(40.73046875,17.8671875)" />
<path d="M0 0 C17.85649203 -0.3690205 17.85649203 -0.3690205 26 2 C26 2.66 26 3.32 26 4 C27.11375 4.268125 28.2275 4.53625 29.375 4.8125 C33 6 33 6 35 9 C37.27734375 9.6953125 37.27734375 9.6953125 39.9375 10.125 C42.76575729 10.59984732 45.2701481 11.09004937 48 12 C48 13.65 48 15.3 48 17 C47.34 17 46.68 17 46 17 C46 17.66 46 18.32 46 19 C43.23723823 18.47731534 40.6739124 17.89130413 38 17 C37.835 16.67 37.835 16.67 37 15 C34.4375 14.375 34.4375 14.375 32 14 C32 13.01 32 12.02 32 11 C28.6848477 13.6172255 25.69434298 16.28636971 22.75 19.3125 C20 22 20 22 17.0625 24.3125 C13.84244066 26.90851683 11.62915182 30.03394856 9.296875 33.42578125 C8.86890625 33.94527344 8.4409375 34.46476562 8 35 C7.34 35 6.68 35 6 35 C5.773125 35.721875 5.54625 36.44375 5.3125 37.1875 C3.73664872 40.56432417 1.79123384 42.55767039 -1 45 C-1.66 45 -2.32 45 -3 45 C-3 45.66 -3 46.32 -3 47 C-6.87132028 46.42647107 -9.08172796 44.51295648 -12 42 C-10.3229589 32.57175673 2.4273027 25.63300061 9.4140625 20.08203125 C13.55012955 16.67541603 15.79750461 14.41122927 17 9 C17.64240667 7.65481009 18.30524065 6.31891307 19 5 C16.95888458 4.51849058 14.91708068 4.03989917 12.875 3.5625 C11.73804687 3.29566406 10.60109375 3.02882813 9.4296875 2.75390625 C6.29538696 2.0649313 3.16982274 1.49618806 0 1 C0 0.67 0 0.34 0 0 Z " fill="#D3AD56" transform="translate(33,21)" />
<path d="M0 0 C17.85649203 -0.3690205 17.85649203 -0.3690205 26 2 C26 2.66 26 3.32 26 4 C26.556875 4.1340625 26.556875 4.1340625 29.375 4.8125 C33 6 33 6 35 9 C37.27734375 9.6953125 37.27734375 9.6953125 39.9375 10.125 C42.76575729 10.59984732 45.2701481 11.09004937 48 12 C48 13.65 48 15.3 48 17 C47.34 17 46.68 17 46 17 C46 17.66 46 18.32 46 19 C43.23723823 18.47731534 40.6739124 17.89130413 38 17 C37.835 16.67 37.835 16.67 37 15 C34.4375 14.375 34.4375 14.375 32 14 C32 13.01 32 12.02 32 11 C29.56070254 12.92576115 27.19909405 14.80090595 25 17 C24.34 17 23.68 17 23 17 C23 16.34 23 15.68 23 15 C22.21625 14.855625 21.4325 14.71125 20.625 14.5625 C18 14 18 14 16 13 C16.62936439 10.06296616 17.62420173 7.66211372 19 5 C16.95888458 4.51849058 14.91708068 4.03989917 12.875 3.5625 C11.73804688 3.29566406 10.60109375 3.02882813 9.4296875 2.75390625 C6.29538696 2.0649313 3.16982274 1.49618806 0 1 C0 0.67 0 0.34 0 0 Z " fill="#6E736D" transform="translate(33,21)" />
<path d="M0 0 C1.30015131 3.90045392 0.61514303 5.25268515 -1 9 C-2.63575094 11.1782051 -4.25184215 13.17068577 -6.0625 15.1875 C-7.05839096 16.32455896 -8.05316509 17.46259696 -9.046875 18.6015625 C-9.54380859 19.1677832 -10.04074219 19.73400391 -10.55273438 20.31738281 C-11.91390619 21.89990578 -13.22369404 23.50915753 -14.515625 25.1484375 C-22.10237847 34.77380839 -22.10237847 34.77380839 -27 37 C-30.50257999 37.0875645 -32.57176242 35.77185559 -35.3125 33.75 C-38 31 -38 31 -38.375 28.1875 C-38.25125 27.465625 -38.1275 26.74375 -38 26 C-36 29 -36 29 -36 31 C-35.2575 31.28875 -34.515 31.5775 -33.75 31.875 C-31.43260203 32.82302644 -29.22082885 33.84845911 -27 35 C-27.12375 34.278125 -27.2475 33.55625 -27.375 32.8125 C-27 30 -27 30 -24.1875 27.5 C-23.91357422 27.29697266 -23.91357422 27.29697266 -22.52734375 26.26953125 C-20.42747337 24.52411469 -19.34211184 22.34869572 -18 20 C-17.34 20 -16.68 20 -16 20 C-15.72800781 19.41089844 -15.45601562 18.82179688 -15.17578125 18.21484375 C-12.30040471 12.79843678 -7.49755811 8.1227616 -3 4 C-2.34 4 -1.68 4 -1 4 C-0.67 2.68 -0.34 1.36 0 0 Z " fill="#593B0B" transform="translate(57,36)" />
<path d="M0 0 C0 0.99 0 1.98 0 3 C1.98 3 3.96 3 6 3 C6 3.99 6 4.98 6 6 C6.763125 6.144375 7.52625 6.28875 8.3125 6.4375 C11 7 11 7 14 8 C14 7.34 14 6.68 14 6 C14.66 6 15.32 6 16 6 C16 4.35 16 2.7 16 1 C16.99 1 17.98 1 19 1 C20.02389272 5.26621965 20.27939211 7.38533736 18.4375 11.4375 C16 14 16 14 13.125 14.625 C9.30724963 13.86144993 7.01177111 12.43810042 4 10 C4 9.34 4 8.68 4 8 C2.35 8 0.7 8 -1 8 C-1 8.66 -1 9.32 -1 10 C-2.8125 11.6875 -2.8125 11.6875 -5 13 C-5.99 12.67 -6.98 12.34 -8 12 C-8.51385563 9.17379401 -8.34138082 7.50996394 -6.734375 5.109375 C-2.45579268 0 -2.45579268 0 0 0 Z " fill="#4B4E47" transform="translate(65,32)" />
<path d="M0 0 C2.31 0.66 4.62 1.32 7 2 C7 6 7 6 5.49609375 7.60546875 C4.81675781 8.12753906 4.13742188 8.64960937 3.4375 9.1875 C-0.58764735 12.47625272 -3.53173744 16.06630402 -6.5546875 20.27734375 C-7.03164063 20.84582031 -7.50859375 21.41429688 -8 22 C-8.66 22 -9.32 22 -10 22 C-10.20625 22.721875 -10.4125 23.44375 -10.625 24.1875 C-12.45248163 27.9255306 -14.70438806 29.49246917 -18 32 C-16.25 27.125 -16.25 27.125 -14 26 C-13.27840576 24.35636866 -12.60648579 22.68949614 -12 21 C-12.66 20.34 -13.32 19.68 -14 19 C-13.21625 18.5875 -12.4325 18.175 -11.625 17.75 C-8.77298956 15.84865971 -8.42680066 14.97295346 -7 12 C-5.49576344 9.95711109 -3.923127 7.98200739 -2.33984375 6 C-0.97763778 3.96661966 -0.43221427 2.39051844 0 0 Z " fill="#C9A247" transform="translate(49,34)" />
<path d="M0 0 C2.72977064 -0.08126109 5.4571017 -0.14061663 8.1875 -0.1875 C8.57196289 -0.20006836 8.57196289 -0.20006836 10.51757812 -0.26367188 C15.16305944 -0.32348494 18.29243806 -0.11960902 22 3 C24.74059604 7.19334752 26.65326421 11.93720238 26 17 C25.01 17 24.02 17 23 17 C23 16.34 23 15.68 23 15 C22.21625 14.855625 21.4325 14.71125 20.625 14.5625 C18 14 18 14 16 13 C16.62936439 10.06296616 17.62420173 7.66211372 19 5 C16.95888458 4.51849058 14.91708068 4.03989917 12.875 3.5625 C11.73804688 3.29566406 10.60109375 3.02882813 9.4296875 2.75390625 C6.29538696 2.0649313 3.16982274 1.49618806 0 1 C0 0.67 0 0.34 0 0 Z " fill="#949286" transform="translate(33,21)" />
<path d="M0 0 C6.94170563 0.33055741 12.79081025 0.75428718 19 4 C18.67 5.32 18.34 6.64 18 8 C12.82863361 9.55140992 5.88708355 9.44354178 1 7 C1 6.34 1 5.68 1 5 C2.485 4.835 2.485 4.835 10 4 C6.7 3.34 3.4 2.68 0 2 C0 1.34 0 0.68 0 0 Z " fill="#686A64" transform="translate(33,22)" />
<path d="M0 0 C25.63324798 -0.31908607 25.63324798 -0.31908607 33 3 C33.165 4.32 33.165 4.32 34 11 C33.175 10.835 33.175 10.835 29 10 C29 9.34 29 8.68 29 8 C26.69 7.01 24.38 6.02 22 5 C22 4.34 22 3.68 22 3 C14.74 2.34 7.48 1.68 0 1 C0 0.67 0 0.34 0 0 Z " fill="#5D5D53" transform="translate(37,20)" />
<path d="M0 0 C0 0.99 0 1.98 0 3 C-0.66 3.66 -1.32 4.32 -2 5 C-2.639375 5.70125 -3.27875 6.4025 -3.9375 7.125 C-6 9 -6 9 -9 9 C-9 9.99 -9 10.98 -9 12 C-9.99 12.33 -10.98 12.66 -12 13 C-11.54625 13.45375 -11.0925 13.9075 -10.625 14.375 C-10.02083333 14.97916667 -10.02083333 14.97916667 -7 18 C-7.66 18.66 -8.32 19.32 -9 20 C-9 20.66 -9 21.32 -9 22 C-12.35595828 21.40072174 -14.37801226 20.15377564 -17 18 C-15.58571087 9.88551615 -6.17466144 4.60649346 0 0 Z " fill="#D2B774" transform="translate(38,45)" />
<path d="M0 0 C0.28875 0.804375 0.5775 1.60875 0.875 2.4375 C2 5 2 5 4 6 C4 6.66 4 7.32 4 8 C2.35 8 0.7 8 -1 8 C-1 8.66 -1 9.32 -1 10 C-2.8125 11.6875 -2.8125 11.6875 -5 13 C-5.99 12.67 -6.98 12.34 -8 12 C-8.51385563 9.17379401 -8.34138082 7.50996394 -6.734375 5.109375 C-2.45579268 0 -2.45579268 0 0 0 Z " fill="#2C302C" transform="translate(65,32)" />
<path d="M0 0 C1.33767678 4.01303035 0.78374006 5.14712148 -1 9 C-3.52082188 12.14204275 -6.21787042 15.08846905 -9 18 C-9.66 17.67 -10.32 17.34 -11 17 C-9.44759763 12.03231242 -6.48945219 7.82132943 -3 4 C-2.34 4 -1.68 4 -1 4 C-0.67 2.68 -0.34 1.36 0 0 Z " fill="#553807" transform="translate(57,36)" />
<path d="M0 0 C1.65 0 3.3 0 5 0 C5 0.66 5 1.32 5 2 C5.556875 1.9896875 5.556875 1.9896875 8.375 1.9375 C12 2 12 2 14 3 C13.67 4.65 13.34 6.3 13 8 C10.23723823 7.47731534 7.6739124 6.89130413 5 6 C4.67 5.34 4.34 4.68 4 4 C1.9375 3.375 1.9375 3.375 0 3 C0 2.01 0 1.02 0 0 Z " fill="#B6BBB7" transform="translate(66,32)" />
<path d="M0 0 C0.66 0.33 1.32 0.66 2 1 C0.63055898 3.94956528 -0.87830409 6.52468811 -3 9 C-3.66 9 -4.32 9 -5 9 C-5.20625 9.721875 -5.4125 10.44375 -5.625 11.1875 C-7.45248163 14.9255306 -9.70438806 16.49246917 -13 19 C-11.25 14.125 -11.25 14.125 -9 13 C-8.27840576 11.35636866 -7.60648579 9.68949614 -7 8 C-7.66 7.34 -8.32 6.68 -9 6 C-8.2575 5.566875 -7.515 5.13375 -6.75 4.6875 C-4.38166074 3.23420091 -2.19075935 1.70392394 0 0 Z " fill="#C79B43" transform="translate(44,47)" />
<path d="M0 0 C2 3 2 3 2 5 C2.37125 5.144375 2.37125 5.144375 4.25 5.875 C6.56739797 6.82302644 8.77917115 7.84845911 11 9 C11 8.01 11 7.02 11 6 C11.66 6 12.32 6 13 6 C13.33 5.34 13.66 4.68 14 4 C14.66 4 15.32 4 16 4 C15.63088042 6.67611698 15.15144437 7.8431469 13.25 9.8125 C11 11 11 11 8.625 11 C4.87150408 9.57009679 2.82869503 7.89447863 0 5 C-0.375 2.1875 -0.375 2.1875 0 0 Z " fill="#593D10" transform="translate(19,62)" />
<path d="M0 0 C2.31 0.66 4.62 1.32 7 2 C7 3.32 7 4.64 7 6 C4 8 4 8 0 8 C-0.98120464 4.94736336 -0.98120464 3.05263664 0 0 Z " fill="#C8A251" transform="translate(49,34)" />
<path d="M0 0 C0.825 0.165 0.825 0.165 5 1 C3.68 1.33 2.36 1.66 1 2 C1 2.99 1 3.98 1 5 C1.68707031 5.04898437 2.37414063 5.09796875 3.08203125 5.1484375 C3.98308594 5.22320313 4.88414063 5.29796875 5.8125 5.375 C6.70582031 5.44460937 7.59914063 5.51421875 8.51953125 5.5859375 C11 6 11 6 14 8 C11.855 8.165 11.855 8.165 1 9 C0.67 6.03 0.34 3.06 0 0 Z " fill="#3A3B31" transform="translate(32,19)" />
<path d="M0 0 C0.33 0.66 0.66 1.32 1 2 C0.34 2.66 -0.32 3.32 -1 4 C-1 4.66 -1 5.32 -1 6 C-4.34249629 5.40312566 -6.46436342 4.26396123 -9 2 C-9 1.34 -9 0.68 -9 0 C-5.88173308 -1.55913346 -3.32926126 -0.66585225 0 0 Z " fill="#E6C473" transform="translate(30,61)" />
<path d="M0 0 C1 2 1 2 0.1875 5.5 C-1 9 -1 9 -3 11 C-3 10.01 -3 9.02 -3 8 C-3.66 8 -4.32 8 -5 8 C-5.33 8.99 -5.66 9.98 -6 11 C-6.66 10.67 -7.32 10.34 -8 10 C-8 9.34 -8 8.68 -8 8 C-6.52295788 6.74772516 -5.04172601 5.49833478 -3.5078125 4.31640625 C-2 3 -2 3 0 0 Z " fill="#785212" transform="translate(38,58)" />
<path d="M0 0 C5.75 0.875 5.75 0.875 8 2 C8.59355614 4.64860427 8.74209269 7.29197322 9 10 C8.34 9.67 7.68 9.34 7 9 C6.375 6.9375 6.375 6.9375 6 5 C3.69 4.34 1.38 3.68 -1 3 C-0.67 2.01 -0.34 1.02 0 0 Z " fill="#615844" transform="translate(62,21)" />
<path d="M0 0 C0.9075 0.61875 1.815 1.2375 2.75 1.875 C5.14948817 3.44389611 7.40961612 4.80443821 10 6 C10 6.99 10 7.98 10 9 C5.61633881 7.80445604 2.84621677 6.6125059 0 3 C0 2.01 0 1.02 0 0 Z " fill="#A27E36" transform="translate(20,62)" />
<path d="M0 0 C0.66 0.33 1.32 0.66 2 1 C-5.29840547 8.48291572 -5.29840547 8.48291572 -9 11 C-9.66 10.67 -10.32 10.34 -11 10 C-10.54625 9.608125 -10.0925 9.21625 -9.625 8.8125 C-7.72357081 6.69167513 -6.93795972 4.66957765 -6 2 C-5.67 2.66 -5.34 3.32 -5 4 C-3.35 2.68 -1.7 1.36 0 0 Z " fill="#58451E" transform="translate(43,38)" />
<path d="M0 0 C1.93816735 0.1141866 3.87555099 0.24173423 5.8125 0.375 C6.89144531 0.44460937 7.97039063 0.51421875 9.08203125 0.5859375 C12 1 12 1 15 3 C11.20431539 3.97798721 8.4994001 3.92653069 4.6875 3.0625 C4.24599609 2.96517578 4.24599609 2.96517578 2.01171875 2.47265625 C1.34785156 2.31667969 0.68398438 2.16070313 0 2 C0 1.34 0 0.68 0 0 Z " fill="#5B5E56" transform="translate(33,22)" />
<path d="M0 0 C2.79872437 2.52788007 4.45773019 4.20411134 5 8 C2.69 7.34 0.38 6.68 -2 6 C-2 3 -2 3 0 0 Z " fill="#AAAAA0" transform="translate(52,27)" />
<path d="M0 0 C0 3.10551666 -0.5393715 4.35261084 -2 7 C-2.66 7 -3.32 7 -4 7 C-4.33 7.99 -4.66 8.98 -5 10 C-5.66 10 -6.32 10 -7 10 C-7 10.99 -7 11.98 -7 13 C-7.99 13 -8.98 13 -10 13 C-10 12.34 -10 11.68 -10 11 C-9.34 11 -8.68 11 -8 11 C-7.73445313 10.41734375 -7.46890625 9.8346875 -7.1953125 9.234375 C-5.96697004 6.93825772 -4.59685061 5.19643982 -2.875 3.25 C-2.33617187 2.63640625 -1.79734375 2.0228125 -1.2421875 1.390625 C-1.03722656 1.16117188 -1.03722656 1.16117188 0 0 Z " fill="#896119" transform="translate(49,45)" />
<path d="M0 0 C0 3 0 3 -1.75 4.82421875 C-2.4925 5.43910156 -3.235 6.05398437 -4 6.6875 C-4.7425 7.31011719 -5.485 7.93273438 -6.25 8.57421875 C-6.8275 9.04472656 -7.405 9.51523437 -8 10 C-8.66 9.67 -9.32 9.34 -10 9 C-8.89902432 7.87187697 -7.79408444 6.74762189 -6.6875 5.625 C-6.07261719 4.99851562 -5.45773438 4.37203125 -4.82421875 3.7265625 C-3 2 -3 2 0 0 Z " fill="#CDB274" transform="translate(49,35)" />
<path d="M0 0 C6.75 0.75 6.75 0.75 9 3 C8.625 5.625 8.625 5.625 8 8 C7.67 8 7.34 8 7 8 C7 6.35 7 4.7 7 3 C6.608125 2.938125 6.608125 2.938125 4.625 2.625 C2 2 2 2 0 0 Z " fill="#2F2E24" transform="translate(77,30)" />
<path d="M0 0 C4.75 0.875 4.75 0.875 7 2 C7 2.99 7 3.98 7 5 C4.625 4.75 4.625 4.75 2 4 C0.6875 1.9375 0.6875 1.9375 0 0 Z " fill="#EFF3F0" transform="translate(72,35)" />
<path d="M0 0 C1.09658936 3.28976808 0.79953138 4.71303767 0 8 C-0.99 7.67 -1.98 7.34 -3 7 C-3.33 7.66 -3.66 8.32 -4 9 C-4.33 8.34 -4.66 7.68 -5 7 C-4.34 6.01 -3.68 5.02 -3 4 C-2.34 4 -1.68 4 -1 4 C-0.67 2.68 -0.34 1.36 0 0 Z " fill="#5E4411" transform="translate(57,36)" />
<path d="M0 0 C0.66 0 1.32 0 2 0 C0.5682479 5.01113235 -1.98445693 6.94469549 -6 10 C-4.25 5.125 -4.25 5.125 -2 4 C-0.875 1.9375 -0.875 1.9375 0 0 Z " fill="#B88B39" transform="translate(37,56)" />
<path d="M0 0 C1.65 0 3.3 0 5 0 C0.25 4.875 0.25 4.875 -2 6 C-1.49396008 3.83125748 -1.00016187 2.00032373 0 0 Z " fill="#C1953D" transform="translate(48,42)" />
</svg>