<?xml version='1.0' encoding='utf-8'?>
<svg xmlns="http://www.w3.org/2000/svg" version="1.1" width="94" height="98">
<path d="M0 0 C4.00166053 -0.38725747 6.73113921 -0.52055827 10.4375 1 C12.34935167 3.44717013 13.05618793 5.66163098 13.27734375 8.7578125 C12.42493853 15.64908854 6.82553059 20.38568455 1.75 24.5625 C-2.67251462 28 -2.67251462 28 -5 28 C-5.2475 29.2375 -5.495 30.475 -5.75 31.75 C-6.7308391 35.53899489 -7.56402078 37.82990786 -11 40 C-13.75756686 40.31696171 -16.20704029 40.18619731 -19 40 C-19 38.68 -19 37.36 -19 36 C-17.68 36 -16.36 36 -15 36 C-15.33 34.35 -15.66 32.7 -16 31 C-18.3125 30.3125 -18.3125 30.3125 -21 30 C-22.8125 31.4375 -22.8125 31.4375 -24 33 C-26 31 -26 31 -26.375 28.625 C-25.89262388 25.24836718 -24.55541504 24.15613144 -22 22 C-21.34 22.33 -20.68 22.66 -20 23 C-20.66 23.99 -21.32 24.98 -22 26 C-20.02 26.33 -18.04 26.66 -16 27 C-15.67 27.99 -15.34 28.98 -15 30 C-14.01 30.33 -13.02 30.66 -12 31 C-11.67 30.34 -11.34 29.68 -11 29 C-10.34 29 -9.68 29 -9 29 C-9 27.68 -9 26.36 -9 25 C-8.34 25 -7.68 25 -7 25 C-6.896875 24.360625 -6.79375 23.72125 -6.6875 23.0625 C-6.460625 22.381875 -6.23375 21.70125 -6 21 C-5.01 20.67 -4.02 20.34 -3 20 C-1.58615347 18.36217779 -0.23841767 16.66638311 1.0625 14.9375 C2.32895031 13.25597473 3.63217622 11.60015053 5 10 C5.66 10 6.32 10 7 10 C8.4606285 7.35261084 9 6.10551666 9 3 C1.57142857 1.71428571 1.57142857 1.71428571 -2 3 C-1.34 2.01 -0.68 1.02 0 0 Z " fill="#66180F" transform="translate(63,19)" />
<path d="M0 0 C0.6875 1.75 0.6875 1.75 1 4 C-0.3125 6.25 -0.3125 6.25 -2 8 C-2.66 8 -3.32 8 -4 8 C-4.26941406 8.58265625 -4.53882812 9.1653125 -4.81640625 9.765625 C-6.00587023 12.01108176 -7.30583491 13.80694844 -8.9375 15.75 C-9.44152344 16.36359375 -9.94554688 16.9771875 -10.46484375 17.609375 C-12 19 -12 19 -15 19 C-15.33 20.32 -15.66 21.64 -16 23 C-16.66 23 -17.32 23 -18 23 C-18 24.32 -18 25.64 -18 27 C-18.66 27 -19.32 27 -20 27 C-20.33 27.99 -20.66 28.98 -21 30 C-21.9075 29.195625 -22.815 28.39125 -23.75 27.5625 C-26.10309908 25.58857329 -27.86938046 24.36122533 -31 24 C-30.375 22.125 -30.375 22.125 -29 20 C-28.53078125 19.87753906 -28.53078125 19.87753906 -26.15625 19.2578125 C-21.98591854 17.59587348 -21.20798957 15.6656628 -19.125 11.75 C-14.54994114 3.71073091 -9.84629253 -2.87183532 0 0 Z " fill="#EA7674" transform="translate(72,21)" />
<path d="M0 0 C-1.2419607 3.43927579 -2.55740284 6.25207819 -5 9 C-5.66 9 -6.32 9 -7 9 C-7.26167969 9.721875 -7.52335937 10.44375 -7.79296875 11.1875 C-10.71402298 17.99383996 -15.54054664 24.03686058 -21 29 C-21.825 28.67 -21.825 28.67 -26 27 C-24.7372801 20.44001611 -20.44527471 17.19445632 -15.6875 12.9375 C-14.17006136 11.55134104 -12.65312198 10.16463532 -11.13671875 8.77734375 C-10.4204834 8.13007324 -9.70424805 7.48280273 -8.96630859 6.81591797 C-7.27876873 5.25744745 -5.67137536 3.66090684 -4.08203125 2.00390625 C-2 0 -2 0 0 0 Z " fill="#E9E9E9" transform="translate(43,52)" />
<path d="M0 0 C-0.61277612 2.96175123 -1.25372522 4.38058783 -3 7 C-3.66 7 -4.32 7 -5 7 C-5.26941406 7.58265625 -5.53882812 8.1653125 -5.81640625 8.765625 C-7.00587023 11.01108176 -8.30583491 12.80694844 -9.9375 14.75 C-10.44152344 15.36359375 -10.94554687 15.9771875 -11.46484375 16.609375 C-13 18 -13 18 -16 18 C-16.33 19.32 -16.66 20.64 -17 22 C-17.66 22 -18.32 22 -19 22 C-19 23.32 -19 24.64 -19 26 C-19.66 26 -20.32 26 -21 26 C-21.33 26.99 -21.66 27.98 -22 29 C-22.99 28.34 -23.98 27.68 -25 27 C-24.67 26.01 -24.34 25.02 -24 24 C-23.34 24 -22.68 24 -22 24 C-22.33 22.68 -22.66 21.36 -23 20 C-21.68 20 -20.36 20 -19 20 C-18.9175 19.29875 -18.835 18.5975 -18.75 17.875 C-17.81990995 14.3096548 -16.23313631 11.90984428 -14 9 C-13.34 9 -12.68 9 -12 9 C-12 8.34 -12 7.68 -12 7 C-11.34 7 -10.68 7 -10 7 C-9.71125 6.401875 -9.4225 5.80375 -9.125 5.1875 C-6.75938158 0.5876864 -5.39226195 -1.79742065 0 0 Z " fill="#D94C49" transform="translate(73,22)" />
<path d="M0 0 C1 3 1 3 0.0625 5.1875 C-0.288125 5.785625 -0.63875 6.38375 -1 7 C-1.66 7 -2.32 7 -3 7 C-3.33 7.99 -3.66 8.98 -4 10 C-5.9375 12.1875 -5.9375 12.1875 -8 14 C-8.66 14 -9.32 14 -10 14 C-10 14.66 -10 15.32 -10 16 C-11.32 16.33 -12.64 16.66 -14 17 C-14 17.66 -14 18.32 -14 19 C-14.66 19 -15.32 19 -16 19 C-16 19.99 -16 20.98 -16 22 C-16.66 22 -17.32 22 -18 22 C-18 23.32 -18 24.64 -18 26 C-18.66 26 -19.32 26 -20 26 C-20 27.65 -20 29.3 -20 31 C-21.65 31.33 -23.3 31.66 -25 32 C-24.9690625 31.608125 -24.9690625 31.608125 -24.8125 29.625 C-24.874375 28.75875 -24.93625 27.8925 -25 27 C-28 25 -28 25 -30.0625 25.25 C-32 26 -32 26 -34 28 C-36 26 -36 26 -36.375 23.625 C-35.89262388 20.24836718 -34.55541504 19.15613144 -32 17 C-31.34 17.33 -30.68 17.66 -30 18 C-30.66 18.99 -31.32 19.98 -32 21 C-30.02 21.33 -28.04 21.66 -26 22 C-25.67 22.99 -25.34 23.98 -25 25 C-24.01 25.33 -23.02 25.66 -22 26 C-21.67 25.34 -21.34 24.68 -21 24 C-20.34 24 -19.68 24 -19 24 C-19 22.68 -19 21.36 -19 20 C-18.34 20 -17.68 20 -17 20 C-16.896875 19.360625 -16.79375 18.72125 -16.6875 18.0625 C-16.460625 17.381875 -16.23375 16.70125 -16 16 C-15.01 15.67 -14.02 15.34 -13 15 C-11.58615347 13.36217779 -10.23841767 11.66638311 -8.9375 9.9375 C-7.67104969 8.25597473 -6.36782378 6.60015053 -5 5 C-4.34 5 -3.68 5 -3 5 C-2.690625 4.360625 -2.38125 3.72125 -2.0625 3.0625 C-1 1 -1 1 0 0 Z " fill="#881808" transform="translate(73,24)" />
<path d="M0 0 C4.00166053 -0.38725747 6.73113921 -0.52055827 10.4375 1 C12.83494833 4.06873386 13.30001812 7.2140571 13 11 C11.375 14.4375 11.375 14.4375 9 17 C6.375 17.625 6.375 17.625 4 18 C2.875 20 2.875 20 2 22 C1.01 22.33 0.02 22.66 -1 23 C-1.515625 23.515625 -2.03125 24.03125 -2.5625 24.5625 C-3.036875 25.036875 -3.51125 25.51125 -4 26 C-4.66 26 -5.32 26 -6 26 C-6 25.34 -6 24.68 -6 24 C-5.34 24 -4.68 24 -4 24 C-4 23.34 -4 22.68 -4 22 C-2.68 21.67 -1.36 21.34 0 21 C0 20.34 0 19.68 0 19 C1.98260426 17.31267723 3.9832342 15.64633943 6 14 C6.33 13.34 6.66 12.68 7 12 C7.66 12 8.32 12 9 12 C10.125 5.25 10.125 5.25 9 3 C5.08234111 2.18690098 1.82092412 1.62446732 -2 3 C-1.34 2.01 -0.68 1.02 0 0 Z " fill="#71130D" transform="translate(63,19)" />
<path d="M0 0 C1 3 1 3 0.0625 5.1875 C-0.288125 5.785625 -0.63875 6.38375 -1 7 C-1.66 7 -2.32 7 -3 7 C-3.33 7.99 -3.66 8.98 -4 10 C-5.9375 12.1875 -5.9375 12.1875 -8 14 C-8.66 14 -9.32 14 -10 14 C-10 14.66 -10 15.32 -10 16 C-11.32 16.33 -12.64 16.66 -14 17 C-14 17.66 -14 18.32 -14 19 C-14.66 19 -15.32 19 -16 19 C-16 19.99 -16 20.98 -16 22 C-16.66 22 -17.32 22 -18 22 C-18 23.32 -18 24.64 -18 26 C-18.99 26.33 -19.98 26.66 -21 27 C-21 26.01 -21 25.02 -21 24 C-20.34 24 -19.68 24 -19 24 C-19 22.68 -19 21.36 -19 20 C-18.34 20 -17.68 20 -17 20 C-16.896875 19.360625 -16.79375 18.72125 -16.6875 18.0625 C-16.460625 17.381875 -16.23375 16.70125 -16 16 C-15.01 15.67 -14.02 15.34 -13 15 C-11.58615347 13.36217779 -10.23841767 11.66638311 -8.9375 9.9375 C-7.67104969 8.25597473 -6.36782378 6.60015053 -5 5 C-4.34 5 -3.68 5 -3 5 C-2.690625 4.360625 -2.38125 3.72125 -2.0625 3.0625 C-1 1 -1 1 0 0 Z " fill="#B32423" transform="translate(73,24)" />
<path d="M0 0 C0.33 0 0.66 0 1 0 C1 1.65 1 3.3 1 5 C0.01 4.67 -0.98 4.34 -2 4 C-2.309375 4.61875 -2.61875 5.2375 -2.9375 5.875 C-5 10 -5 10 -6 11 C-5.67 11.66 -5.34 12.32 -5 13 C-8.625 16 -8.625 16 -12 16 C-12 16.66 -12 17.32 -12 18 C-12.66 17.67 -13.32 17.34 -14 17 C-12.88368586 15.16136495 -11.75670373 13.32920277 -10.625 11.5 C-9.99851562 10.4790625 -9.37203125 9.458125 -8.7265625 8.40625 C-8.15679687 7.6121875 -7.58703125 6.818125 -7 6 C-6.34 6 -5.68 6 -5 6 C-4.67 5.01 -4.34 4.02 -4 3 C-3.01 3 -2.02 3 -1 3 C-0.67 2.01 -0.34 1.02 0 0 Z " fill="#606164" transform="translate(43,55)" />
<path d="M0 0 C0.66 0 1.32 0 2 0 C1.38722388 2.96175123 0.74627478 4.38058783 -1 7 C-1.66 7 -2.32 7 -3 7 C-3.25523438 7.59296875 -3.51046875 8.1859375 -3.7734375 8.796875 C-5.11816498 11.21224538 -6.49214367 12.51211706 -8.625 14.25 C-9.25664063 14.77078125 -9.88828125 15.2915625 -10.5390625 15.828125 C-11.02117188 16.21484375 -11.50328125 16.6015625 -12 17 C-12.66 16.67 -13.32 16.34 -14 16 C-9.56923077 10.21538462 -9.56923077 10.21538462 -6.6875 9.125 C-6.4090625 9.104375 -6.4090625 9.104375 -5 9 C-4.9175 8.21625 -4.835 7.4325 -4.75 6.625 C-4 4 -4 4 -1.9375 2.6875 C-1.298125 2.460625 -0.65875 2.23375 0 2 C0 1.34 0 0.68 0 0 Z " fill="#EB5E5A" transform="translate(71,22)" />
<path d="M0 0 C3.25696479 0.41755959 4.63443291 0.63443291 7 3 C6.625 5.625 6.625 5.625 6 8 C4.35 8 2.7 8 1 8 C0.67 8.66 0.34 9.32 0 10 C-0.66 9.67 -1.32 9.34 -2 9 C-1.01 7.35 -0.02 5.7 1 4 C0.01 4.33 -0.98 4.66 -2 5 C-1.125 1.125 -1.125 1.125 0 0 Z " fill="#B07E45" transform="translate(42,48)" />
<path d="M0 0 C-1.2419607 3.43927579 -2.55740284 6.25207819 -5 9 C-5.66 9 -6.32 9 -7 9 C-7.66 10.65 -8.32 12.3 -9 14 C-9.66 13.34 -10.32 12.68 -11 12 C-11.99 12 -12.98 12 -14 12 C-12.04761147 9.99387601 -10.08862178 7.99507567 -8.125 6 C-7.84720703 5.71382812 -7.84720703 5.71382812 -6.44140625 4.265625 C-2.2265625 0 -2.2265625 0 0 0 Z " fill="#DFD8D5" transform="translate(43,52)" />
<path d="M0 0 C2.64 0.33 5.28 0.66 8 1 C6 4 6 4 3.4375 5.5 C1 7 1 7 0 10 C-0.66 10 -1.32 10 -2 10 C-2 9.01 -2 8.02 -2 7 C-2.99 7.33 -3.98 7.66 -5 8 C-5 7.34 -5 6.68 -5 6 C-4.34 6 -3.68 6 -3 6 C-2.690625 5.38125 -2.38125 4.7625 -2.0625 4.125 C-1.375 2.75 -0.6875 1.375 0 0 Z " fill="#5F5843" transform="translate(41,59)" />
<path d="M0 0 C0.66 0 1.32 0 2 0 C0.55893229 4.19219697 -1.60261377 7.58920281 -4.07421875 11.23046875 C-4.37972656 11.81441406 -4.68523438 12.39835937 -5 13 C-4.67 13.66 -4.34 14.32 -4 15 C-6.64 14.34 -9.28 13.68 -12 13 C-11.375 11.125 -11.375 11.125 -10 9 C-9.525625 8.8659375 -9.525625 8.8659375 -7.125 8.1875 C-2.67511546 6.49654387 -2.0270943 4.21011893 0 0 Z " fill="#E7807F" transform="translate(53,32)" />
<path d="M0 0 C0.66 0 1.32 0 2 0 C0.53836474 4.5177817 -1.64442824 7.64442824 -5 11 C-8.3125 11.875 -8.3125 11.875 -11 12 C-11 10 -11 10 -9.35546875 8.30859375 C-8.99775391 7.99986328 -8.99775391 7.99986328 -7.1875 6.4375 C-6.47980469 5.81746094 -5.77210937 5.19742188 -5.04296875 4.55859375 C-3 3 -3 3 0 2 C0 1.34 0 0.68 0 0 Z " fill="#46423B" transform="translate(31,71)" />
<path d="M0 0 C0.9435441 2.53899138 1.16906025 3.60909275 0.07421875 6.140625 C-0.15458984 6.48867187 -0.15458984 6.48867187 -1.3125 8.25 C-1.76238281 8.95640625 -2.21226563 9.6628125 -2.67578125 10.390625 C-3.11277344 10.92171875 -3.54976562 11.4528125 -4 12 C-4.66 12 -5.32 12 -6 12 C-6.33 10.68 -6.66 9.36 -7 8 C-6.34 7.67 -5.68 7.34 -5 7 C-4.87625 6.195625 -4.7525 5.39125 -4.625 4.5625 C-4 2 -4 2 -1.9375 0.6875 C-1.298125 0.460625 -0.65875 0.23375 0 0 Z " fill="#EDF0F2" transform="translate(32,63)" />
<path d="M0 0 C0.66 0.33 1.32 0.66 2 1 C1.63648437 1.47308594 1.27296875 1.94617188 0.8984375 2.43359375 C0.39570312 3.09488281 -0.10703125 3.75617187 -0.625 4.4375 C-1.17285156 5.15808594 -1.72070312 5.87867188 -2.28515625 6.62109375 C-4.52772257 9.73207983 -6.47981801 13.00015148 -8.41015625 16.3125 C-10 18 -10 18 -12.68359375 18.25 C-13.44800781 18.1675 -14.21242187 18.085 -15 18 C-13.68 17.67 -12.36 17.34 -11 17 C-10.67 15.68 -10.34 14.36 -10 13 C-9.34 13 -8.68 13 -8 13 C-7.731875 12.319375 -7.46375 11.63875 -7.1875 10.9375 C-6.795625 9.968125 -6.40375 8.99875 -6 8 C-5.77054688 7.38769531 -5.54109375 6.77539062 -5.3046875 6.14453125 C-4.61927936 4.39493678 -3.81418609 2.69350706 -3 1 C-2.01 0.67 -1.02 0.34 0 0 Z " fill="#5C2C21" transform="translate(58,23)" />
<path d="M0 0 C1.65 0 3.3 0 5 0 C4.67 0.66 4.34 1.32 4 2 C3.01 2 2.02 2 1 2 C0.67 3.32 0.34 4.64 0 6 C-0.66 6 -1.32 6 -2 6 C-2 7.32 -2 8.64 -2 10 C-2.66 10 -3.32 10 -4 10 C-4.33 10.99 -4.66 11.98 -5 13 C-5.99 12.34 -6.98 11.68 -8 11 C-7.67 10.34 -7.34 9.68 -7 9 C-5.68 9 -4.36 9 -3 9 C-3.33 7.68 -3.66 6.36 -4 5 C-3.01 5 -2.02 5 -1 5 C-0.67 3.35 -0.34 1.7 0 0 Z " fill="#C93635" transform="translate(56,38)" />
<path d="M0 0 C4.75 1.875 4.75 1.875 7 3 C6.67 4.65 6.34 6.3 6 8 C4.68 7.67 3.36 7.34 2 7 C1.9278125 6.608125 1.9278125 6.608125 1.5625 4.625 C1 2 1 2 0 0 Z " fill="#880608" transform="translate(46,48)" />
<path d="M0 0 C0.66 0.33 1.32 0.66 2 1 C-1.16952847 4.26008643 -4.39937989 7.22237877 -8 10 C-6.75587233 6.55472339 -5.45185936 3.74608248 -3 1 C-2.01 0.67 -1.02 0.34 0 0 Z " fill="#CF4041" transform="translate(70,21)" />
<path d="M0 0 C0.99 0.66 1.98 1.32 3 2 C1.34908222 6.29238623 -1.73754566 8.8793915 -5 12 C-5.66 11.67 -6.32 11.34 -7 11 C-5.38405168 8.95880212 -3.7143618 6.95927063 -2 5 C-1.34 5 -0.68 5 0 5 C0 3.35 0 1.7 0 0 Z " fill="#544539" transform="translate(37,50)" />
<path d="M0 0 C-0.33 1.32 -0.66 2.64 -1 4 C-1.66 4 -2.32 4 -3 4 C-2.67 5.32 -2.34 6.64 -2 8 C-2.66 7.67 -3.32 7.34 -4 7 C-4 6.34 -4 5.68 -4 5 C-4.99 4.67 -5.98 4.34 -7 4 C-3.375 0 -3.375 0 0 0 Z " fill="#E1E3E2" transform="translate(28,67)" />
<path d="M0 0 C-1.4258086 3.45195767 -3.09746334 5.1014256 -6.125 7.25 C-6.48722656 7.51039062 -6.48722656 7.51039062 -8.3203125 8.828125 C-8.87460937 9.21484375 -9.42890625 9.6015625 -10 10 C-5.2238806 0 -5.2238806 0 0 0 Z " fill="#4C483E" transform="translate(29,63)" />
<path d="M0 0 C-1.07401108 2.91517292 -1.77810176 4.77810176 -4 7 C-4.33 6.34 -4.66 5.68 -5 5 C-5.99 5 -6.98 5 -8 5 C-3.375 0 -3.375 0 0 0 Z " fill="#E1E4E6" transform="translate(37,59)" />
<path d="M0 0 C0.66 0.33 1.32 0.66 2 1 C1.34 2.32 0.68 3.64 0 5 C-0.66 5 -1.32 5 -2 5 C-1.67 6.98 -1.34 8.96 -1 11 C-1.99 10.34 -2.98 9.68 -4 9 C-4.4375 6.625 -4.4375 6.625 -4 4 C-2 1.6875 -2 1.6875 0 0 Z " fill="#63291A" transform="translate(41,41)" />
<path d="M0 0 C1.26467795 2.52935589 0.7249339 3.34190903 0 6 C0 6.99 0 7.98 0 9 C-0.99 8.67 -1.98 8.34 -3 8 C-2.25 2.25 -2.25 2.25 0 0 Z " fill="#48453C" transform="translate(18,73)" />
<path d="M0 0 C0.825 0.165 0.825 0.165 5 1 C5 1.66 5 2.32 5 3 C5.66 3.33 6.32 3.66 7 4 C4.69 4 2.38 4 0 4 C0 2.68 0 1.36 0 0 Z " fill="#422511" transform="translate(44,55)" />
<path d="M0 0 C0 0.66 0 1.32 0 2 C-0.99 2.33 -1.98 2.66 -3 3 C-3 3.99 -3 4.98 -3 6 C-4.65 5.67 -6.3 5.34 -8 5 C-5.72541886 1.64228499 -4.30291326 0 0 0 Z " fill="#EA625E" transform="translate(54,40)" />
<path d="M0 0 C0.66 0 1.32 0 2 0 C1.875 1.875 1.875 1.875 1 4 C-2.0625 5.25 -2.0625 5.25 -5 6 C-3.625 4 -3.625 4 -2 2 C-1.34 2 -0.68 2 0 2 C0 1.34 0 0.68 0 0 Z " fill="#E0514F" transform="translate(71,22)" />
</svg>