<?xml version='1.0' encoding='utf-8'?>
<svg xmlns="http://www.w3.org/2000/svg" version="1.1" width="96" height="100">
<path d="M0 0 C0.59683594 0.25394531 1.19367187 0.50789063 1.80859375 0.76953125 C10.34894225 4.15775272 18.9692657 5.60251239 28 7 C28.33 5.68 28.66 4.36 29 3 C29.99 3 30.98 3 32 3 C31.67 5.31 31.34 7.62 31 10 C33.375 9.75 33.375 9.75 36 9 C36.29390625 8.35933594 36.5878125 7.71867187 36.890625 7.05859375 C38 5 38 5 40.0234375 3.98828125 C40.79945312 3.76527344 41.57546875 3.54226562 42.375 3.3125 C43.14585938 3.08175781 43.91671875 2.85101563 44.7109375 2.61328125 C46.80232862 2.05295974 48.89888648 1.52237782 51 1 C50.27566618 5.2547905 49.51615266 9.50255721 48.75 13.75 C48.54503906 14.9565625 48.34007812 16.163125 48.12890625 17.40625 C47.91621094 18.56640625 47.70351562 19.7265625 47.484375 20.921875 C47.29584961 21.99018555 47.10732422 23.05849609 46.91308594 24.15917969 C45.8638804 27.42349936 44.62143195 28.83613393 42 31 C34.37290795 34.65141745 23.84767562 36.8904546 15.66796875 34.24609375 C11.33964378 32.41570757 7.25261135 30.45589956 4 27 C3.1875 23.75 3.1875 23.75 3 21 C2.01 20.67 1.02 20.34 0 20 C-2.91879341 15.62180989 -2.44570491 11.48211525 -1.546875 6.4765625 C-1.06767908 4.30648956 -0.55769585 2.15111255 0 0 Z " fill="#7D7366" transform="translate(23,43)" />
<path d="M0 0 C1.00289062 -0.01160156 2.00578125 -0.02320312 3.0390625 -0.03515625 C10.74910563 -0.00527236 20.16656603 0.41292291 26.25 5.75 C28 8.375 28 8.375 28.1875 10.9375 C26.5183138 14.36372431 24.28003253 15.53818178 21 17.375 C20.01 17.705 19.02 18.035 18 18.375 C18.99 19.035 19.98 19.695 21 20.375 C17.49223216 21.97855101 14.85645121 22.59536864 11 22.375 C11.165 23.365 11.165 23.365 12 28.375 C10.33333333 28.375 8.66666667 28.375 7 28.375 C7 27.715 7 27.055 7 26.375 C6.01 26.375 5.02 26.375 4 26.375 C3.67 27.695 3.34 29.015 3 30.375 C-6.07531475 30.07793569 -14.55938244 28.89192398 -23 25.375 C-23.33 24.715 -23.66 24.055 -24 23.375 C-23.67 23.045 -23.34 22.715 -23 22.375 C-24.75 15.625 -24.75 15.625 -27 13.375 C-27.375 10.5 -27.375 10.5 -27 7.375 C-20.57622265 -0.46222836 -9.36119839 -0.1082915 0 0 Z " fill="#D54240" transform="translate(48,19.625)" />
<path d="M0 0 C28.04861975 -0.76166005 28.04861975 -0.76166005 35.25 5.375 C37 8 37 8 37.1875 10.5625 C35.01317996 15.02557798 30.88909597 16.69157699 26.3515625 18.265625 C25.73667969 18.42804687 25.73667969 18.42804687 22.625 19.25 C21.37976563 19.58515625 20.13453125 19.9203125 18.8515625 20.265625 C17.91054688 20.50796875 16.96953125 20.7503125 16 21 C16 21.66 16 22.32 16 23 C10.37656133 25.58374209 4.9144408 25.50425084 -1 24 C-3.73947394 22.33742271 -5.94921597 20.46374055 -8 18 C-8 17.67 -8 17.34 -8 17 C-7.16863525 17.01571045 -6.33727051 17.0314209 -5.48071289 17.04760742 C-2.35524864 17.09915833 0.76999675 17.13655355 3.89575195 17.16479492 C5.89744576 17.18705458 7.89894275 17.22520146 9.90039062 17.26367188 C17.29844997 17.31957661 23.15303837 16.86354817 30 14 C22.93845235 8.82153173 13.45453864 8.68355844 5 8 C5 7.01 5 6.02 5 5 C4.01 4.67 3.02 4.34 2 4 C2 3.34 2 2.68 2 2 C1.34 1.34 0.68 0.68 0 0 Z " fill="#CC846F" transform="translate(39,20)" />
<path d="M0 0 C0 0.99 0 1.98 0 3 C0.66 3.33 1.32 3.66 2 4 C2 4.99 2 5.98 2 7 C-0.145 7.165 -0.145 7.165 -11 8 C-10 4 -10 4 -9 2 C-10.31371987 2.47581198 -11.62594546 2.95575149 -12.9375 3.4375 C-13.30294922 3.57091797 -13.30294922 3.57091797 -15.15234375 4.24609375 C-17 5 -17 5 -18 6 C-18.3125 8.375 -18.3125 8.375 -18 11 C-15.72285584 13.19862195 -14.02076303 13.99307899 -11 15 C-11 15.66 -11 16.32 -11 17 C-10.01 17.33 -9.02 17.66 -8 18 C-7.4121875 18.66386719 -6.824375 19.32773437 -6.21875 20.01171875 C-3.29544645 22.63136929 -1.37721941 22.62130684 2.5 22.8125 C3.6240625 22.88082031 4.748125 22.94914062 5.90625 23.01953125 C8.52657087 23.00298882 10.52613358 22.79430515 13 22 C13 21.34 13 20.68 13 20 C12.34 19.67 11.68 19.34 11 19 C12.91344374 18.60888729 14.83096553 18.23768833 16.75 17.875 C17.81734375 17.66617188 18.8846875 17.45734375 19.984375 17.2421875 C23.13688351 16.98900676 24.39959066 17.29584825 27 19 C23.49223216 20.60355101 20.85645121 21.22036864 17 21 C17.165 21.99 17.165 21.99 18 27 C16.33333333 27 14.66666667 27 13 27 C13 26.34 13 25.68 13 25 C12.01 25 11.02 25 10 25 C9.67 26.32 9.34 27.64 9 29 C-0.07531475 28.70293569 -8.55938244 27.51692398 -17 24 C-17.33 23.34 -17.66 22.68 -18 22 C-17.67 21.67 -17.34 21.34 -17 21 C-18.75 14.25 -18.75 14.25 -21 12 C-21.375 9.125 -21.375 9.125 -21 6 C-16.10436074 -0.04022159 -7.40584727 -2.20173838 0 0 Z " fill="#DB6A65" transform="translate(42,21)" />
<path d="M0 0 C5.28499735 0.38670712 9.30040776 2.21887405 13 6 C14.63021031 10.55717883 14.86187666 15.86126904 13.05078125 20.35546875 C11.8498227 23.3779555 11.42842581 26.15415599 11 29.375 C10.32558265 34.08011478 9.32812816 38.43455944 8 43 C7.90460938 43.96035156 7.80921875 44.92070313 7.7109375 45.91015625 C6.86149757 54.03909887 6.86149757 54.03909887 4.375 56.8125 C-4.11852128 62.38637334 -14.12814239 62.9567935 -24 62 C-27.24322835 61.01137453 -30.07572974 59.70126938 -33 58 C-33.66 57.67 -34.32 57.34 -35 57 C-35 56.34 -35 55.68 -35 55 C-30 57 -30 57 -27.68359375 58.05078125 C-20.01821001 60.76211786 -11.23719451 59.39679182 -4 56 C-2.80503906 55.45859375 -1.61007813 54.9171875 -0.37890625 54.359375 C2.67515951 52.5763726 2.98618467 52.03297854 4.453125 48.53125 C4.74766067 47.19353948 5.01221176 45.84895421 5.25 44.5 C5.55179519 43.0728557 5.8538817 41.64577298 6.15625 40.21875 C6.29546875 39.51105469 6.4346875 38.80335937 6.578125 38.07421875 C7.19874571 35.02283359 7.97465864 32.01521639 8.75 29 C8.99234375 28.030625 9.2346875 27.06125 9.484375 26.0625 C9.65453125 25.381875 9.8246875 24.70125 10 24 C9.49210937 24.26554687 8.98421875 24.53109375 8.4609375 24.8046875 C5.22132247 26.46696188 2.16483561 27.9471282 -1.3125 29.0625 C-4.06577786 30.02294577 -5.04253493 30.94932231 -7 33 C-7.99 33 -8.98 33 -10 33 C-9.67 31.35 -9.34 29.7 -9 28 C-8.01 28 -7.02 28 -6 28 C-5 25 -5 25 -5 22 C-2.36 21.34 0.28 20.68 3 20 C2.34 19.34 1.68 18.68 1 18 C4.3 16.02 7.6 14.04 11 12 C11.125 9.3125 11.125 9.3125 10 6 C6.84071189 3.91713033 3.49504479 2.43353924 0 1 C0 0.67 0 0.34 0 0 Z " fill="#5E281B" transform="translate(64,20)" />
<path d="M0 0 C0.59683594 0.25394531 1.19367187 0.50789063 1.80859375 0.76953125 C10.34894225 4.15775272 18.9692657 5.60251239 28 7 C28.33 5.68 28.66 4.36 29 3 C29.99 3 30.98 3 32 3 C31.33346324 8.19898672 29.45407596 9.98604299 25.51953125 13.21875 C19.16603978 17.71052072 12.9412221 21.48307137 5 21 C5.66 20.34 6.32 19.68 7 19 C6.566875 18.5875 6.13375 18.175 5.6875 17.75 C3.94161728 15.93945495 2.47380729 14.03525768 1 12 C0.34 13.32 -0.32 14.64 -1 16 C-1.09688221 10.55306686 -1.12862175 5.36095333 0 0 Z " fill="#D8CCB1" transform="translate(23,43)" />
<path d="M0 0 C0 4 0 8 0 12 C-1.98 12.33 -3.96 12.66 -6 13 C-6 13.66 -6 14.32 -6 15 C-12.56496861 15.47745226 -17.33396922 14.44405792 -23 11 C-25.625 8.4375 -25.625 8.4375 -27 6 C-26.67 5.01 -26.34 4.02 -26 3 C-23.36 3 -20.72 3 -18 3 C-18 2.34 -18 1.68 -18 1 C-17.46375 1.020625 -17.46375 1.020625 -14.75 1.125 C-11 1 -11 1 -9 -0.0625 C-5.90153598 -1.51490501 -3.26901537 -0.6286568 0 0 Z " fill="#E1DDD5" transform="translate(55,63)" />
<path d="M0 0 C1.32 0 2.64 0 4 0 C3.67 1.98 3.34 3.96 3 6 C2.34 6 1.68 6 1 6 C1.04125 7.093125 1.0825 8.18625 1.125 9.3125 C1 13 1 13 -1 16 C-0.625 18.6875 -0.625 18.6875 0 21 C-0.66 21 -1.32 21 -2 21 C-2.144375 21.61875 -2.28875 22.2375 -2.4375 22.875 C-3 25 -3 25 -4 27 C-7.56454416 28.37097852 -11.23355995 28.07243154 -15 28 C-12 26 -12 26 -9 26 C-9 24.68 -9 23.36 -9 22 C-9.66 21.67 -10.32 21.34 -11 21 C-10.67 19.845 -10.67 19.845 -9 14 C-10.65 13.67 -12.3 13.34 -14 13 C-9.46218487 9.09243697 -9.46218487 9.09243697 -6.8125 8.5625 C-6.214375 8.376875 -5.61625 8.19125 -5 8 C-4.29788106 6.34795544 -3.63028587 4.68076231 -3 3 C-2.01 2.67 -1.02 2.34 0 2 C0 1.34 0 0.68 0 0 Z " fill="#99988A" transform="translate(64,49)" />
<path d="M0 0 C0 0.99 0 1.98 0 3 C0.66 3.33 1.32 3.66 2 4 C2 4.99 2 5.98 2 7 C-0.145 7.165 -0.145 7.165 -11 8 C-10 4 -10 4 -9 2 C-10.31371987 2.47581198 -11.62594546 2.95575149 -12.9375 3.4375 C-13.30294922 3.57091797 -13.30294922 3.57091797 -15.15234375 4.24609375 C-17 5 -17 5 -18 6 C-18.3125 8.375 -18.3125 8.375 -18 11 C-15.72285584 13.19862195 -14.02076303 13.99307899 -11 15 C-11 15.66 -11 16.32 -11 17 C-10.01 17.33 -9.02 17.66 -8 18 C-7.67 18.99 -7.34 19.98 -7 21 C-8.4589426 20.52269162 -9.91713496 20.04308958 -11.375 19.5625 C-12.18710937 19.29566406 -12.99921875 19.02882813 -13.8359375 18.75390625 C-17.90002294 17.33807865 -19.09318164 15.90031028 -21 12 C-21.4375 8.9375 -21.4375 8.9375 -21 6 C-16.0760811 -0.02696771 -7.42627889 -2.20781264 0 0 Z " fill="#B08366" transform="translate(42,21)" />
<path d="M0 0 C3.45826342 -0.05789006 6.91640293 -0.09355821 10.375 -0.125 C11.35984375 -0.14175781 12.3446875 -0.15851562 13.359375 -0.17578125 C13.82988281 -0.17900391 13.82988281 -0.17900391 16.2109375 -0.1953125 C16.64559326 -0.20054932 16.64559326 -0.20054932 18.84521484 -0.22705078 C21 0 21 0 23 2 C22.625 4.5625 22.625 4.5625 22 7 C22 7.33 22 7.66 22 8 C16.39 8 10.78 8 5 8 C5 7.01 5 6.02 5 5 C4.01 4.67 3.02 4.34 2 4 C2 3.34 2 2.68 2 2 C1.34 1.34 0.68 0.68 0 0 Z " fill="#E8D6B9" transform="translate(39,20)" />
<path d="M0 0 C-0.66 1.98 -1.32 3.96 -2 6 C2.29 6 6.58 6 11 6 C11 6.99 11 7.98 11 9 C9.185 9.33 9.185 9.33 0 11 C0 11.66 0 12.32 0 13 C-6.38342541 12.39779006 -6.38342541 12.39779006 -8.9375 10.75 C-10.41474475 8.31689101 -10.41948576 6.79657176 -10 4 C-7.24170935 0.32227913 -4.52786136 0 0 0 Z " fill="#AD1812" transform="translate(33,23)" />
<path d="M0 0 C0.99 0 1.98 0 3 0 C3.144375 0.309375 3.144375 0.309375 3.875 1.875 C5 4 5 4 7 6 C7 6.99 7 7.98 7 9 C7.99 9.33 8.98 9.66 10 10 C9.67 10.33 9.34 10.66 9 11 C20.16247964 10.43307897 20.16247964 10.43307897 25 7 C25.66 7.33 26.32 7.66 27 8 C27 8.99 27 9.98 27 11 C24.08291076 12.98362069 22.87619096 12.9876191 19.25 12.625 C18.1775 12.41875 17.105 12.2125 16 12 C16 12.66 16 13.32 16 14 C13.36 14 10.72 14 8 14 C8 15.65 8 17.3 8 19 C6.5 17.75 6.5 17.75 5 16 C5 14.68 5 13.36 5 12 C4.01 11.67 3.02 11.34 2 11 C-0.67927341 6.98108988 -0.15601248 4.75838077 0 0 Z " fill="#917D64" transform="translate(21,52)" />
<path d="M0 0 C0 4 0 8 0 12 C-1.98 12.33 -3.96 12.66 -6 13 C-6 13.66 -6 14.32 -6 15 C-7.258125 15.04125 -8.51625 15.0825 -9.8125 15.125 C-10.52019531 15.14820312 -11.22789063 15.17140625 -11.95703125 15.1953125 C-14 15 -14 15 -17 13 C-15.515 12.835 -15.515 12.835 -8 12 C-7.94604522 10.37536158 -7.90722805 8.75021459 -7.875 7.125 C-7.86339844 6.67253906 -7.86339844 6.67253906 -7.8046875 4.3828125 C-8 2 -8 2 -10 0 C-6.30581799 -1.231394 -3.7943739 -0.64432764 0 0 Z " fill="#CFBFB4" transform="translate(55,63)" />
<path d="M0 0 C28.76658182 -0.78829166 28.76658182 -0.78829166 37 6 C36.67 6.33 36.34 6.66 36 7 C28.60550459 6.40366972 28.60550459 6.40366972 25 4 C16.52705683 3.71756856 8.1455501 5.91106054 0 8 C0 7.34 0 6.68 0 6 C2.97 5.01 5.94 4.02 9 3 C9 2.67 9 2.34 9 2 C6.03 1.67 3.06 1.34 0 1 C0 0.67 0 0.34 0 0 Z " fill="#C92F29" transform="translate(33,28)" />
<path d="M0 0 C0.33 0.66 0.66 1.32 1 2 C-1.46761195 7.42874629 -3.26502111 9.82070802 -9 12 C-10.051875 12.33 -11.10375 12.66 -12.1875 13 C-15.01399226 14.00497503 -15.99362597 14.89808435 -18 17 C-18.99 17 -19.98 17 -21 17 C-20.67 15.35 -20.34 13.7 -20 12 C-19.01 12 -18.02 12 -17 12 C-16 9 -16 9 -16 6 C-15.09636719 5.73445313 -14.19273438 5.46890625 -13.26171875 5.1953125 C-12.08222656 4.84210937 -10.90273437 4.48890625 -9.6875 4.125 C-8.51574219 3.77695312 -7.34398438 3.42890625 -6.13671875 3.0703125 C-3 2 -3 2 0 0 Z " fill="#910E0E" transform="translate(75,36)" />
<path d="M0 0 C0.66 0 1.32 0 2 0 C1.16909674 4.4868776 -0.26743602 7.7878517 -4.09375 10.46484375 C-6.37835571 11.80371171 -8.52360641 13.05789374 -11 14 C-11.99 13.67 -12.98 13.34 -14 13 C-17.20395416 13 -19.09399739 13.74335022 -22 15 C-22 14.34 -22 13.68 -22 13 C-19.734375 11.37890625 -19.734375 11.37890625 -16.75 9.5625 C-13.37970314 7.49841608 -10.11980613 5.42899191 -7 3 C-7 3.66 -7 4.32 -7 5 C-4.625 4.75 -4.625 4.75 -2 4 C-0.6875 1.9375 -0.6875 1.9375 0 0 Z " fill="#796F5A" transform="translate(61,48)" />
<path d="M0 0 C4.73807354 0.41115514 8.28994578 1.47455988 12.125 4.3125 C14 7 14 7 14.0625 9.6875 C13 12 13 12 10.9375 13.3125 C10.298125 13.539375 9.65875 13.76625 9 14 C9 13.34 9 12.68 9 12 C9.66 11.67 10.32 11.34 11 11 C10.67 9.35 10.34 7.7 10 6 C9.34 6.66 8.68 7.32 8 8 C8 8.66 8 9.32 8 10 C2.72 9.34 -2.56 8.68 -8 8 C-8 7.67 -8 7.34 -8 7 C-6.02 6.67 -4.04 6.34 -2 6 C-1.855625 5.195625 -1.71125 4.39125 -1.5625 3.5625 C-1 1 -1 1 0 0 Z " fill="#D59A7B" transform="translate(62,21)" />
<path d="M0 0 C0.09023088 5.16321166 0.07492001 9.93251998 -1 15 C-0.67 15.99 -0.34 16.98 0 18 C-3.67410785 19.17571451 -7.16929183 19.07366746 -11 19 C-8 17 -8 17 -5 17 C-5 15.68 -5 14.36 -5 13 C-5.66 12.67 -6.32 12.34 -7 12 C-6.34 9.69 -5.68 7.38 -5 5 C-6.65 4.67 -8.3 4.34 -10 4 C-6.48032569 0.78201206 -4.74013282 -0.25493151 0 0 Z " fill="#B1AFA2" transform="translate(60,58)" />
<path d="M0 0 C0.66 0.33 1.32 0.66 2 1 C1.505 1.37125 1.01 1.7425 0.5 2.125 C-1 4 -1 4 -1.375 6.875 C-0.95380277 10.38497693 0.09188937 12.06444518 2 15 C2.71143088 16.98451771 3.38991336 18.98202112 4 21 C2.68 20.67 1.36 20.34 0 20 C-0.06058594 20.556875 -0.12117188 21.11375 -0.18359375 21.6875 C-0.74470565 26.79793457 -1.35090852 31.89999553 -2 37 C-2.33 37 -2.66 37 -3 37 C-2.98839844 36.39091797 -2.98839844 36.39091797 -2.9296875 33.30859375 C-2.9109165 31.68490201 -2.89271773 30.06120358 -2.875 28.4375 C-2.85824219 27.63763672 -2.84148438 26.83777344 -2.82421875 26.01367188 C-2.78291429 20.95387566 -3.48769308 16.87298897 -5 12 C-5.21091611 7.8730748 -4.62596373 4.75874391 -1.9375 1.5 C-1.298125 1.005 -0.65875 0.51 0 0 Z " fill="#713525" transform="translate(23,23)" />
<path d="M0 0 C3.96 0.33 7.92 0.66 12 1 C11.67 2.32 11.34 3.64 11 5 C10.34 5 9.68 5 9 5 C8.67 5.99 8.34 6.98 8 8 C4.99208089 10.04108797 2.57804656 10.19878036 -1 10 C-1 9.01 -1 8.02 -1 7 C-1.99 7 -2.98 7 -4 7 C-4.33 6.01 -4.66 5.02 -5 4 C-3.35 4 -1.7 4 0 4 C0 2.68 0 1.36 0 0 Z " fill="#F1ECE1" transform="translate(34,49)" />
<path d="M0 0 C-3.00617269 3.00617269 -5.82381598 2.59585316 -10 3 C-9.67 4.98 -9.34 6.96 -9 9 C-10.66666667 9 -12.33333333 9 -14 9 C-14 8.34 -14 7.68 -14 7 C-14.99 7 -15.98 7 -17 7 C-17.33 8.32 -17.66 9.64 -18 11 C-19.32 10.67 -20.64 10.34 -22 10 C-22 9.01 -22 8.02 -22 7 C-20.68 7 -19.36 7 -18 7 C-17.67 6.01 -17.34 5.02 -17 4 C-16.01 4 -15.02 4 -14 4 C-14 3.34 -14 2.68 -14 2 C-14.66 1.67 -15.32 1.34 -16 1 C-5.62642369 -1.48063781 -5.62642369 -1.48063781 0 0 Z " fill="#B84C40" transform="translate(69,39)" />
<path d="M0 0 C-0.66 2.97 -1.32 5.94 -2 9 C-2.66 8.67 -3.32 8.34 -4 8 C-5.65 13.94 -7.3 19.88 -9 26 C-10 24 -11 22 -12 20 C-11.34 20 -10.68 20 -10 20 C-9.835 18.515 -9.835 18.515 -9 11 C-8.34 11 -7.68 11 -7 11 C-6.67 9.02 -6.34 7.04 -6 5 C-7.32 5 -8.64 5 -10 5 C-10.33 5.66 -10.66 6.32 -11 7 C-11 6.01 -11 5.02 -11 4 C-9.5437455 3.32880451 -8.08492133 2.66318193 -6.625 2 C-5.81289062 1.62875 -5.00078125 1.2575 -4.1640625 0.875 C-2 0 -2 0 0 0 Z " fill="#868274" transform="translate(74,44)" />
<path d="M0 0 C3.465 0.33 3.465 0.33 21 2 C20.01 2.33 19.02 2.66 18 3 C17.67 3.99 17.34 4.98 17 6 C15.10705765 6.16302853 13.21001605 6.27886529 11.3125 6.375 C10.78462891 6.40980469 10.78462891 6.40980469 8.11328125 6.5859375 C5 6 5 6 0 0 Z " fill="#EDC2AD" transform="translate(31,37)" />
<path d="M0 0 C0.86625 0.61875 1.7325 1.2375 2.625 1.875 C11.73255687 7.60938766 20.77251198 6.05282965 31 5 C27.0074642 8.9925358 21.59641603 9.19385513 16.1875 9.4375 C9.85257574 9.365603 5.3194144 7.29521246 0 4 C0 2.68 0 1.36 0 0 Z " fill="#BA5851" transform="translate(29,71)" />
<path d="M0 0 C-0.33 0.495 -0.33 0.495 -2 3 C-3.99937529 3.04998438 -6.0003188 3.03570859 -8 3 C-9.67206267 3.35015598 -11.33863417 3.72717294 -13 4.125 C-17.2662393 5.05300372 -19.9576876 4.91477956 -24 3 C-24 2.67 -24 2.34 -24 2 C-16.0873025 -0.19797153 -8.14356905 -1.92874004 0 0 Z " fill="#E53939" transform="translate(62,32)" />
<path d="M0 0 C-0.8125 2.9375 -0.8125 2.9375 -2 6 C-2.99 6.33 -3.98 6.66 -5 7 C-4.34 8.98 -3.68 10.96 -3 13 C-5.91517292 11.92598892 -7.77810176 11.22189824 -10 9 C-10.37130746 6.10380178 -10.46583421 4.62111229 -8.6875 2.25 C-5.73408199 0.06228296 -3.67800506 0 0 0 Z " fill="#7D5A3C" transform="translate(33,23)" />
<path d="M0 0 C3.63 1.32 7.26 2.64 11 4 C10.34 4.33 10.34 4.33 7 6 C6.67 6.66 6.34 7.32 6 8 C4.68 7.67 3.36 7.34 2 7 C2 7.99 2 8.98 2 10 C2.66 10 3.32 10 4 10 C4.33 11.32 4.66 12.64 5 14 C3.68 13.34 2.36 12.68 1 12 C0.34 13.32 -0.32 14.64 -1 16 C-1.09688221 10.55306686 -1.12862175 5.36095333 0 0 Z " fill="#C5B19D" transform="translate(23,43)" />
<path d="M0 0 C7.42857143 -0.14285714 7.42857143 -0.14285714 11 1 C11 2.98 11 4.96 11 7 C11.66 7.33 12.32 7.66 13 8 C10.36 8 7.72 8 5 8 C5 7.01 5 6.02 5 5 C4.01 4.67 3.02 4.34 2 4 C2 3.34 2 2.68 2 2 C1.34 1.34 0.68 0.68 0 0 Z " fill="#CBAE8F" transform="translate(39,20)" />
<path d="M0 0 C3.48746762 0.0827319 6.82471633 0.50244327 10.25 1.1875 C10.25 1.5175 10.25 1.8475 10.25 2.1875 C8.23177083 2.15494792 6.21354167 2.12239583 4.1953125 2.08984375 C2.25 2.1875 2.25 2.1875 0.25 3.1875 C0.25 3.8475 0.25 4.5075 0.25 5.1875 C0.91 5.5175 1.57 5.8475 2.25 6.1875 C0.27 6.1875 -1.71 6.1875 -3.75 6.1875 C-4.08 6.8475 -4.41 7.5075 -4.75 8.1875 C-5.08 7.1975 -5.41 6.2075 -5.75 5.1875 C-6.74 5.1875 -7.73 5.1875 -8.75 5.1875 C-9.08 3.8675 -9.41 2.5475 -9.75 1.1875 C-9.13125 1.39375 -8.5125 1.6 -7.875 1.8125 C-7.524375 1.874375 -7.524375 1.874375 -5.75 2.1875 C-3.75 0.1875 -3.75 0.1875 0 0 Z " fill="#E3D1C9" transform="translate(33.75,47.8125)" />
<path d="M0 0 C1.65 0 3.3 0 5 0 C5 1.32 5 2.64 5 4 C6.32 4.33 7.64 4.66 9 5 C8.45730469 5.18175781 7.91460937 5.36351562 7.35546875 5.55078125 C6.64003906 5.80214844 5.92460938 6.05351563 5.1875 6.3125 C4.47980469 6.55613281 3.77210937 6.79976562 3.04296875 7.05078125 C1 8 1 8 -0.57421875 9.60546875 C-2 11 -2 11 -5 11 C-4.67 9.35 -4.34 7.7 -4 6 C-3.01 6 -2.02 6 -1 6 C0 3 0 3 0 0 Z " fill="#831E17" transform="translate(59,42)" />
<path d="M0 0 C0.99 0 1.98 0 3 0 C3.144375 0.309375 3.144375 0.309375 3.875 1.875 C5 4 5 4 7 6 C7 6.99 7 7.98 7 9 C7.99 9.33 8.98 9.66 10 10 C7 12 7 12 4.4375 11.8125 C2 11 2 11 0 8 C-0.25760279 5.30547479 -0.08900053 2.71451625 0 0 Z " fill="#A0896C" transform="translate(21,52)" />
<path d="M0 0 C0.99 0.33 1.98 0.66 3 1 C2.67 2.175625 2.34 3.35125 2 4.5625 C1.24520206 7.50881472 1.00980948 9.57875932 1.0625 12.6875 C0.99258721 16.39287782 0.15029003 18.0433512 -2 21 C-3.1245717 17.62628491 -2.81641956 15.42896214 -2 12 C-1.66055205 10.00102872 -1.32578384 8.00124361 -1 6 C-1.99 5.67 -2.98 5.34 -4 5 C-3.34 5 -2.68 5 -2 5 C-1.34 3.35 -0.68 1.7 0 0 Z " fill="#A2A495" transform="translate(61,52)" />
<path d="M0 0 C0.53625 0.763125 1.0725 1.52625 1.625 2.3125 C4.20205814 5.22864474 6.45814404 6.4705622 10 8 C10 8.66 10 9.32 10 10 C10.99 10.33 11.98 10.66 13 11 C13.33 11.99 13.66 12.98 14 14 C12.5410574 13.52269162 11.08286504 13.04308958 9.625 12.5625 C8.81289063 12.29566406 8.00078125 12.02882813 7.1640625 11.75390625 C3.10465717 10.33970909 1.93555943 8.87111887 0 5 C-0.1875 2.1875 -0.1875 2.1875 0 0 Z " fill="#C4896F" transform="translate(21,28)" />
<path d="M0 0 C-0.185625 1.093125 -0.37125 2.18625 -0.5625 3.3125 C-1 7 -1 7 0 10 C-3.67410785 11.17571451 -7.16929183 11.07366746 -11 11 C-8 9 -8 9 -5 9 C-5 7.68 -5 6.36 -5 5 C-5.66 4.67 -6.32 4.34 -7 4 C-3.375 0 -3.375 0 0 0 Z " fill="#B5A99B" transform="translate(60,66)" />
<path d="M0 0 C0.33 0 0.66 0 1 0 C1.02708567 1.60407328 1.04643483 3.2082785 1.0625 4.8125 C1.07410156 5.70582031 1.08570312 6.59914063 1.09765625 7.51953125 C1 10 1 10 0 13 C-1.70703125 14.421875 -1.70703125 14.421875 -3.8125 15.75 C-4.49957031 16.19859375 -5.18664062 16.6471875 -5.89453125 17.109375 C-8.39934831 18.16892656 -9.49281235 17.92399724 -12 17 C-11.01 16.67 -10.02 16.34 -9 16 C-8.67 15.34 -8.34 14.68 -8 14 C-7.01 14 -6.02 14 -5 14 C-5 13.01 -5 12.02 -5 11 C-4.54625 10.608125 -4.0925 10.21625 -3.625 9.8125 C-1.05726102 6.94848345 -0.79445847 3.72784358 0 0 Z " fill="#512017" transform="translate(70,62)" />
<path d="M0 0 C0.99 0.66 1.98 1.32 3 2 C2.67 3.65 2.34 5.3 2 7 C1.34 7 0.68 7 0 7 C0 7.99 0 8.98 0 10 C-0.99 10.33 -1.98 10.66 -3 11 C-3 9.68 -3 8.36 -3 7 C-5.64 6.01 -8.28 5.02 -11 4 C-11 3.67 -11 3.34 -11 3 C-7.05272412 2.82057837 -4.4019487 2.90649311 -1 5 C-1.33 3.68 -1.66 2.36 -2 1 C-1.34 0.67 -0.68 0.34 0 0 Z " fill="#C17F63" transform="translate(71,26)" />
<path d="M0 0 C0.66 0.165 0.66 0.165 4 1 C4 1.66 4 2.32 4 3 C5.65 3.33 7.3 3.66 9 4 C9 5.65 9 7.3 9 9 C6.29068581 8.84518205 4.53415961 8.51827919 2.5546875 6.59765625 C1.32320358 5.10228292 0.1570163 3.5537076 -1 2 C-0.67 1.34 -0.34 0.68 0 0 Z " fill="#D6C0B4" transform="translate(29,67)" />
<path d="M0 0 C1.485 0.66 1.485 0.66 9 4 C9 4.66 9 5.32 9 6 C8.01 6 7.02 6 6 6 C6 6.66 6 7.32 6 8 C3.0625 7.625 3.0625 7.625 0 7 C-0.33 6.34 -0.66 5.68 -1 5 C-0.67 4.67 -0.34 4.34 0 4 C0 2.68 0 1.36 0 0 Z " fill="#C94C46" transform="translate(25,38)" />
<path d="M0 0 C-2.86299506 2.86299506 -4.65852284 2.99421225 -8.6875 3.0625 C-9.780625 3.041875 -10.87375 3.02125 -12 3 C-12.33 3.66 -12.66 4.32 -13 5 C-13.33 4.01 -13.66 3.02 -14 2 C-14.66 1.67 -15.32 1.34 -16 1 C-5.62642369 -1.48063781 -5.62642369 -1.48063781 0 0 Z " fill="#AB5D49" transform="translate(69,39)" />
<path d="M0 0 C3.125 0.375 3.125 0.375 6 1 C6 1.99 6 2.98 6 4 C3.64046906 6.35953094 2.22104383 6.49141413 -1 7 C-1.625 4.625 -1.625 4.625 -2 2 C-1.34 1.34 -0.68 0.68 0 0 Z " fill="#D2B594" transform="translate(62,21)" />
<path d="M0 0 C0.99 0 1.98 0 3 0 C2.50628759 4.21107642 1.46845029 6.0155272 -1.75 8.75 C-2.42546875 9.34296875 -3.1009375 9.9359375 -3.796875 10.546875 C-6.22712954 12.14980885 -8.13552681 12.61940566 -11 13 C-10.2575 12.4225 -9.515 11.845 -8.75 11.25 C-4.51808784 7.78752642 -1.75643416 5.26930248 0 0 Z " fill="#EADBBD" transform="translate(52,46)" />
<path d="M0 0 C0.66 0 1.32 0 2 0 C2 0.66 2 1.32 2 2 C2.639375 1.979375 2.639375 1.979375 5.875 1.875 C8.0546875 1.8046875 8.0546875 1.8046875 10 2 C10.66 2.66 11.32 3.32 12 4 C8.17010894 5.80230168 5.21878192 6.19622241 1 6 C1.66 5.34 2.32 4.68 3 4 C2.505 3.525625 2.01 3.05125 1.5 2.5625 C0 1 0 1 0 0 Z " fill="#CBB996" transform="translate(27,58)" />
<path d="M0 0 C0.99 0.165 0.99 0.165 6 1 C6 1.66 6 2.32 6 3 C0.2364368 5.64812363 -4.90932576 4.8019749 -11 4 C-11 3.67 -11 3.34 -11 3 C-10.28972656 2.95101562 -9.57945313 2.90203125 -8.84765625 2.8515625 C-8.38810547 2.81417969 -8.38810547 2.81417969 -6.0625 2.625 C-5.14597656 2.55539063 -4.22945312 2.48578125 -3.28515625 2.4140625 C-2.90810547 2.34574219 -2.90810547 2.34574219 -1 2 C-0.67 1.34 -0.34 0.68 0 0 Z " fill="#E27672" transform="translate(49,40)" />
<path d="M0 0 C0.33 1.32 0.66 2.64 1 4 C-1.71182212 6.60334924 -2.89133813 6.99456691 -6.75 7.1875 C-7.8225 7.125625 -8.895 7.06375 -10 7 C-8.72070154 4.44140308 -7.55728932 4.13851266 -5 2.9375 C-1.08474576 1.08474576 -1.08474576 1.08474576 0 0 Z " fill="#84422D" transform="translate(75,32)" />
<path d="M0 0 C0.66 0.66 1.32 1.32 2 2 C1.67 2.66 1.34 3.32 1 4 C1.60578253 6.01927511 2.26919734 8.02253397 3 10 C0.08482708 8.92598892 -1.77810176 8.22189824 -4 6 C-3.0022242 3.00667261 -2.2477975 2.05233685 0 0 Z " fill="#723E26" transform="translate(27,26)" />
<path d="M0 0 C1.32 0.33 2.64 0.66 4 1 C4 4.63 4 8.26 4 12 C3.34 12 2.68 12 2 12 C1.67 10.02 1.34 8.04 1 6 C0.67 6.165 0.67 6.165 -1 7 C-1.33 5.35 -1.66 3.7 -2 2 C-1.34 2 -0.68 2 0 2 C0 1.34 0 0.68 0 0 Z " fill="#D7DACF" transform="translate(44,64)" />
<path d="M0 0 C0.66 0.66 1.32 1.32 2 2 C4.125 2.625 4.125 2.625 6 3 C6 3.99 6 4.98 6 6 C8.31 5.34 10.62 4.68 13 4 C12.34 5.32 11.68 6.64 11 8 C9.54052295 7.93993922 8.08220728 7.8511311 6.625 7.75 C5.81289063 7.70359375 5.00078125 7.6571875 4.1640625 7.609375 C2 7 2 7 0.7109375 5.140625 C0 3 0 3 0 0 Z " fill="#DED1BC" transform="translate(27,53)" />
<path d="M0 0 C6.0546875 -0.1953125 6.0546875 -0.1953125 8 0 C10 2 10 2 10 5 C9.01 4.835 9.01 4.835 4 4 C4 3.34 4 2.68 4 2 C2.68 1.67 1.36 1.34 0 1 C0 0.67 0 0.34 0 0 Z " fill="#ECE7DA" transform="translate(29,66)" />
<path d="M0 0 C0.33 0.66 0.66 1.32 1 2 C-2.14754098 8.64480874 -2.14754098 8.64480874 -5.25 9.9375 C-5.8275 9.958125 -6.405 9.97875 -7 10 C-7 9.34 -7 8.68 -7 8 C-6.34 8 -5.68 8 -5 8 C-5.103125 7.236875 -5.20625 6.47375 -5.3125 5.6875 C-5.209375 4.800625 -5.10625 3.91375 -5 3 C-2.5 1.1875 -2.5 1.1875 0 0 Z " fill="#740807" transform="translate(75,36)" />
<path d="M0 0 C0.928125 0.20625 1.85625 0.4125 2.8125 0.625 C2.8125 1.615 2.8125 2.605 2.8125 3.625 C3.4725 3.955 4.1325 4.285 4.8125 4.625 C4.8125 5.285 4.8125 5.945 4.8125 6.625 C3.4925 6.625 2.1725 6.625 0.8125 6.625 C0.1525 4.975 -0.5075 3.325 -1.1875 1.625 C-2.8375 1.625 -4.4875 1.625 -6.1875 1.625 C-3.1875 -0.375 -3.1875 -0.375 0 0 Z " fill="#BE9474" transform="translate(39.1875,20.375)" />
<path d="M0 0 C4.49596251 3.03781251 6.34029182 5.83646342 8 11 C7.6875 13.4375 7.6875 13.4375 7 15 C5.41449987 12.47761344 4.03477777 10.0879673 2.9375 7.3125 C2 5 2 5 0 3 C0 2.01 0 1.02 0 0 Z " fill="#54271A" transform="translate(21,60)" />
<path d="M0 0 C-0.33 0.70125 -0.66 1.4025 -1 2.125 C-2 5 -2 5 -2 8.1875 C-2 9.115625 -2 10.04375 -2 11 C-2.66 11.66 -3.32 12.32 -4 13 C-3.95359375 12.38511719 -3.9071875 11.77023438 -3.859375 11.13671875 C-3.75067201 8.70254825 -3.70815027 6.42063598 -4 4 C-6 1.9375 -6 1.9375 -8 1 C-5.07175348 0.02391783 -3.04386724 -0.08226668 0 0 Z " fill="#C3C6B8" transform="translate(53,62)" />
<path d="M0 0 C0.53109375 0.40992187 1.0621875 0.81984375 1.609375 1.2421875 C2.31578125 1.78101562 3.0221875 2.31984375 3.75 2.875 C4.44609375 3.40867187 5.1421875 3.94234375 5.859375 4.4921875 C7.84722603 5.89238914 9.79843386 6.97855265 12 8 C11.67 8.165 11.67 8.165 10 9 C7.6171875 8.00390625 7.6171875 8.00390625 4.875 6.5625 C3.96492188 6.08941406 3.05484375 5.61632812 2.1171875 5.12890625 C1.41851563 4.75636719 0.71984375 4.38382812 0 4 C0 2.68 0 1.36 0 0 Z " fill="#AE4743" transform="translate(29,71)" />
<path d="M0 0 C-0.33 0.495 -0.33 0.495 -2 3 C-2.99 2.67 -3.98 2.34 -5 2 C-7.39490986 1.93029948 -9.79167691 1.91551997 -12.1875 1.9375 C-13.45980469 1.94652344 -14.73210938 1.95554688 -16.04296875 1.96484375 C-17.01878906 1.97644531 -17.99460938 1.98804688 -19 2 C-13.4628202 -1.6914532 -6.36275148 -1.50696746 0 0 Z " fill="#DB302E" transform="translate(62,32)" />
<path d="M0 0 C2.4375 0.625 2.4375 0.625 5 2 C5.8125 5.125 5.8125 5.125 6 8 C5.175 8.495 5.175 8.495 1 11 C1 10.34 1 9.68 1 9 C1.66 8.67 2.32 8.34 3 8 C2.67 6.35 2.34 4.7 2 3 C1.67 3.165 1.67 3.165 0 4 C0 2.68 0 1.36 0 0 Z " fill="#BB9D83" transform="translate(70,24)" />
<path d="M0 0 C3.3 0.33 6.6 0.66 10 1 C9.34 1.33 9.34 1.33 6 3 C5.67 3.66 5.34 4.32 5 5 C3.68 4.67 2.36 4.34 1 4 C0.67 2.68 0.34 1.36 0 0 Z " fill="#D0BFB4" transform="translate(24,46)" />
<path d="M0 0 C0.66 0 1.32 0 2 0 C2.33 1.65 2.66 3.3 3 5 C1.54176788 5.0270043 0.08339325 5.04639787 -1.375 5.0625 C-2.18710937 5.07410156 -2.99921875 5.08570313 -3.8359375 5.09765625 C-6 5 -6 5 -8 4 C-8 3.34 -8 2.68 -8 2 C-5.69 2.66 -3.38 3.32 -1 4 C-0.67 2.68 -0.34 1.36 0 0 Z " fill="#EDC3A0" transform="translate(58,23)" />
<path d="M0 0 C0.99 0 1.98 0 3 0 C3 0.66 3 1.32 3 2 C3.66 2 4.32 2 5 2 C5 2.66 5 3.32 5 4 C2.69 4.66 0.38 5.32 -2 6 C-1.49396008 3.83125748 -1.00016187 2.00032373 0 0 Z " fill="#AC6649" transform="translate(33,23)" />
<path d="M0 0 C1.98 0 3.96 0 6 0 C5.67 0.99 5.34 1.98 5 3 C1.4375 4.6875 1.4375 4.6875 -2 6 C-1.34 4.02 -0.68 2.04 0 0 Z " fill="#9F6D63" transform="translate(62,70)" />
<path d="M0 0 C0.66 0 1.32 0 2 0 C1.34 4.95 0.68 9.9 0 15 C-1 13 -2 11 -3 9 C-2.34 9 -1.68 9 -1 9 C-0.67 6.03 -0.34 3.06 0 0 Z " fill="#8A8B7C" transform="translate(65,55)" />
<path d="M0 0 C3.82097239 0.53069061 6.06171403 1.49701566 9 4 C8.67 4.33 8.34 4.66 8 5 C5.30917128 4.82364548 2.67148554 4.38164079 0 4 C0.66 3.67 1.32 3.34 2 3 C2 2.34 2 1.68 2 1 C1.34 0.67 0.68 0.34 0 0 Z " fill="#B72C23" transform="translate(61,30)" />
<path d="M0 0 C1.98 0.66 3.96 1.32 6 2 C6 2.66 6 3.32 6 4 C6.66 4.33 7.32 4.66 8 5 C5.36 5 2.72 5 0 5 C0 3.35 0 1.7 0 0 Z " fill="#E6AD8B" transform="translate(44,23)" />
<path d="M0 0 C1.65 0.33 3.3 0.66 5 1 C5.33 1.99 5.66 2.98 6 4 C4.58376784 4.05447047 3.16691809 4.09300508 1.75 4.125 C0.96109375 4.14820313 0.1721875 4.17140625 -0.640625 4.1953125 C-3.20731941 3.9828378 -4.7916067 3.28654105 -7 2 C-5.845 1.835 -5.845 1.835 0 1 C0 0.67 0 0.34 0 0 Z " fill="#5D4D36" transform="translate(63,17)" />
<path d="M0 0 C0.66 0.33 1.32 0.66 2 1 C2 1.99 2 2.98 2 4 C-0.64738916 5.4606285 -1.89448334 6 -5 6 C-5 5.01 -5 4.02 -5 3 C-2.625 1.25 -2.625 1.25 0 0 Z " fill="#908B79" transform="translate(46,59)" />
<path d="M0 0 C2 1 2 1 3 3 C1.68 3.66 1.68 3.66 -5 7 C-4 3 -4 3 -3 1 C-2.01 0.67 -1.02 0.34 0 0 Z " fill="#716E60" transform="translate(56,54)" />
<path d="M0 0 C0.53625 0.763125 1.0725 1.52625 1.625 2.3125 C4.20205814 5.22864474 6.45814404 6.4705622 10 8 C10 8.66 10 9.32 10 10 C2.75294118 7.85882353 2.75294118 7.85882353 0 5 C-0.25 2.3125 -0.25 2.3125 0 0 Z " fill="#CEA589" transform="translate(21,28)" />
<path d="M0 0 C0.99 0 1.98 0 3 0 C2.8125 1.8125 2.8125 1.8125 2 4 C-0.3125 5.8125 -0.3125 5.8125 -3 7 C-5.3125 6.6875 -5.3125 6.6875 -7 6 C-6.01 5.67 -5.02 5.34 -4 5 C-3.67 4.34 -3.34 3.68 -3 3 C-2.01 3 -1.02 3 0 3 C0 2.01 0 1.02 0 0 Z " fill="#5C150A" transform="translate(65,73)" />
<path d="M0 0 C2.31 0.33 4.62 0.66 7 1 C5.68 1.33 4.36 1.66 3 2 C3.33 3.32 3.66 4.64 4 6 C0.125 4.25 0.125 4.25 -1 2 C-0.67 1.34 -0.34 0.68 0 0 Z " fill="#CF5D57" transform="translate(44,44)" />
<path d="M0 0 C0.33 1.98 0.66 3.96 1 6 C0.01 6 -0.98 6 -2 6 C-2.33 5.01 -2.66 4.02 -3 3 C-3.99 2.67 -4.98 2.34 -6 2 C-2.25 0 -2.25 0 0 0 Z " fill="#AF3B34" transform="translate(59,42)" />
<path d="M0 0 C0.825 0.33 0.825 0.33 5 2 C4.67 3.98 4.34 5.96 4 8 C3.34 8 2.68 8 2 8 C1.01 5.69 0.02 3.38 -1 1 C-0.67 0.67 -0.34 0.34 0 0 Z " fill="#7A190B" transform="translate(28,28)" />
<path d="M0 0 C-1.815 0.33 -1.815 0.33 -11 2 C-10.67 1.01 -10.34 0.02 -10 -1 C-5.46625958 -2.03039555 -4.35532149 -2.17766075 0 0 Z " fill="#C61A16" transform="translate(44,32)" />
<path d="M0 0 C-0.33 2.31 -0.66 4.62 -1 7 C-1.20625 6.7628125 -1.20625 6.7628125 -2.25 5.5625 C-4.182185 3.83733482 -5.48192275 3.43415125 -8 3 C-2.25 0 -2.25 0 0 0 Z " fill="#897364" transform="translate(74,44)" />
<path d="M0 0 C3 1 3 1 6 3 C6 3.66 6 4.32 6 5 C1.25 4.125 1.25 4.125 -1 3 C-0.67 2.01 -0.34 1.02 0 0 Z " fill="#E7CEA9" transform="translate(51,22)" />
<path d="M0 0 C0.99 0 1.98 0 3 0 C2.67 0.99 2.34 1.98 2 3 C-1.96 3 -5.92 3 -10 3 C-10 2.67 -10 2.34 -10 2 C-6.7 2 -3.4 2 0 2 C0 1.34 0 0.68 0 0 Z " fill="#EAA098" transform="translate(46,40)" />
<path d="M0 0 C1.20508082 3.61524247 0.95808288 5.4071892 0 9 C-0.66 8.67 -1.32 8.34 -2 8 C-2.20086443 4.28400809 -2.1519437 3.22791555 0 0 Z " fill="#B7B7AC" transform="translate(54,66)" />
<path d="M0 0 C1.155 0.495 1.155 0.495 7 3 C6.34 4.32 5.68 5.64 5 7 C4.67 6.01 4.34 5.02 4 4 C3.01 4 2.02 4 1 4 C0.67 2.68 0.34 1.36 0 0 Z " fill="#E5DFD3" transform="translate(24,49)" />
<path d="M0 0 C0.66 0.99 1.32 1.98 2 3 C1.67 3.99 1.34 4.98 1 6 C0.01 6 -0.98 6 -2 6 C-1.125 1.125 -1.125 1.125 0 0 Z " fill="#5B291A" transform="translate(56,47)" />
<path d="M0 0 C1.32 0 2.64 0 4 0 C4 1.32 4 2.64 4 4 C2.02 3.34 0.04 2.68 -2 2 C-1.34 1.34 -0.68 0.68 0 0 Z " fill="#D5BE9B" transform="translate(46,21)" />
</svg>