<?xml version='1.0' encoding='utf-8'?>
<svg xmlns="http://www.w3.org/2000/svg" version="1.1" width="98" height="105">
<path d="M0 0 C4.02963399 1.34321133 4.47043597 3.09871497 6.5625 6.75 C9.52857217 11.78448937 12.73070396 16.50749595 16.3125 21.125 C16.73281494 21.66866211 17.15312988 22.21232422 17.58618164 22.77246094 C19.23415327 24.8725896 20.86313101 26.87053734 22.8046875 28.70703125 C23.19914062 29.13371094 23.59359375 29.56039062 24 30 C23.75546876 33.34192692 23.39456443 34.60543557 21 37 C18.1875 37.125 18.1875 37.125 15 36 C13.55262899 34.26130511 12.52760396 32.44872913 11.43359375 30.46875 C9.14034898 26.51962004 6.31930467 22.96351341 3.57421875 19.3203125 C2 17 2 17 2 15 C1.34 15 0.68 15 0 15 C-1.54296875 13.609375 -1.54296875 13.609375 -3.1875 11.75 C-3.46271484 11.44835937 -3.46271484 11.44835937 -4.85546875 9.921875 C-6 8 -6 8 -5.82421875 5.91015625 C-4.56175748 2.98435738 -2.63647704 1.6948781 0 0 Z " fill="#A4782C" transform="translate(55,47)" />
<path d="M0 0 C0.66 0.33 1.32 0.66 2 1 C1.154375 1.61875 0.30875 2.2375 -0.5625 2.875 C-3.33102513 6.42439119 -3.27160876 7.05366218 -2.8125 11.3125 C-2.56775915 12.87929892 -2.30518762 14.4438453 -2 16 C-1.34 16 -0.68 16 0 16 C0.27070312 16.71800781 0.54140625 17.43601562 0.8203125 18.17578125 C1.9967899 20.99231489 3.33643195 23.55280186 4.875 26.1875 C5.36742187 27.04730469 5.85984375 27.90710938 6.3671875 28.79296875 C8.0905982 31.12245929 9.33085389 31.96585032 12 33 C11.34 34.32 10.68 35.64 10 37 C5.48981359 31.27430236 1.64540306 25.30835707 -2 19 C-4.49361571 20.20381448 -6.68143083 21.45428722 -9 23 C-8.45275433 26.8307197 -6.71844729 28.36924456 -4 31 C-4 31.66 -4 32.32 -4 33 C-3.34 33 -2.68 33 -2 33 C-0.703125 34.6875 -0.703125 34.6875 0.75 37 C3.2484561 40.89808261 5.91213733 44.55929004 8.80078125 48.17578125 C10.07794528 50.11856823 10.57378317 51.72851501 11 54 C12.98 54 14.96 54 17 54 C17.99 52.02 18.98 50.04 20 48 C20.33 48 20.66 48 21 48 C21.35430394 51.18873549 21.25953249 52.61589191 19.4375 55.3125 C16.13692366 57.59751439 13.9296507 57.43662786 10 57 C9.34 56.34 8.68 55.68 8 55 C8 54.01 8 53.02 8 52 C7.34 52 6.68 52 6 52 C5.74347656 51.48953125 5.48695312 50.9790625 5.22265625 50.453125 C1.51855242 43.41906924 -3.10643619 37.24710273 -8 31 C-8.56203125 30.2575 -9.1240625 29.515 -9.703125 28.75 C-12.75106159 24.89997483 -15.01259306 23.06873006 -20 22 C-24.9612256 27.81256017 -28.47356389 33.58807666 -31.54296875 40.59375 C-33 43 -33 43 -34.96875 43.97265625 C-37 44 -37 44 -40.3125 41.9375 C-43 39 -43 39 -43.125 36.1875 C-39.53846154 26.02564103 -39.53846154 26.02564103 -35 23 C-36.46370164 26.90320438 -38.28649123 30.48853884 -40.29296875 34.1328125 C-41 36 -41 36 -40 39 C-36.9375 40.6875 -36.9375 40.6875 -34 42 C-33.90976562 41.30777344 -33.81953125 40.61554688 -33.7265625 39.90234375 C-31.61214599 31.45604555 -25.2354013 22.73083931 -18 18 C-15.796875 18.3671875 -15.796875 18.3671875 -14 19 C-14 19.66 -14 20.32 -14 21 C-7.25 18.375 -7.25 18.375 -5 15 C-5.2475 13.7625 -5.495 12.525 -5.75 11.25 C-6.22279382 8.44441031 -6.23650303 7.38953441 -4.73828125 4.921875 C-3.2267403 3.1883595 -1.68575834 1.56360194 0 0 Z " fill="#54380B" transform="translate(59,29)" />
<path d="M0 0 C2.34765625 0.89453125 2.34765625 0.89453125 4.34765625 2.89453125 C4.34765625 4.21453125 4.34765625 5.53453125 4.34765625 6.89453125 C2.71543468 8.22071128 1.08072275 9.54394376 -0.56640625 10.8515625 C-5.40879074 15.5941975 -10.50165067 23.15475749 -11.65234375 29.89453125 C-15.00830203 29.29525299 -17.03035601 28.04830689 -19.65234375 25.89453125 C-17.64603184 18.27054598 -9.01258448 -0.35837965 0 0 Z " fill="#B2BCC1" transform="translate(36.65234375,41.10546875)" />
<path d="M0 0 C-0.61875 0.268125 -1.2375 0.53625 -1.875 0.8125 C-4 2 -4 2 -6 5 C-6.99 5.66 -7.98 6.32 -9 7 C-9 7.99 -9 8.98 -9 10 C-9.66 10 -10.32 10 -11 10 C-11 10.66 -11 11.32 -11 12 C-11.66 12 -12.32 12 -13 12 C-13 11.34 -13 10.68 -13 10 C-14.65 10.33 -16.3 10.66 -18 11 C-17.67 13.97 -17.34 16.94 -17 20 C-17.721875 19.525625 -18.44375 19.05125 -19.1875 18.5625 C-21.89475226 17.05847097 -23.96194275 16.43400818 -27 16 C-26.34 15.34 -25.68 14.68 -25 14 C-25.99 13.835 -25.99 13.835 -31 13 C-30.13172876 10.32283036 -29.24615667 8.295388 -27.4375 6.125 C-24.60670252 4.81847808 -23.57674694 5.07681569 -20.5625 5.5625 C-16.31121262 6.20747508 -16.31121262 6.20747508 -13.375 4.25 C-12.59125 3.5075 -11.8075 2.765 -11 2 C-3.79068047 -1.66789941 -3.79068047 -1.66789941 0 0 Z " fill="#ACAEA7" transform="translate(64,22)" />
<path d="M0 0 C2.64 0 5.28 0 8 0 C8 0.66 8 1.32 8 2 C6.49705948 2.95938693 4.94499493 3.84229624 3.375 4.6875 C-0.92377446 7.15610316 -3.80932307 9.61081597 -6.74609375 13.58203125 C-8 15 -8 15 -11 16 C-11.09978121 19.49234244 -10.77842938 22.59437148 -10 26 C-12.76276177 25.47731534 -15.3260876 24.89130413 -18 24 C-18.33 22.68 -18.66 21.36 -19 20 C-21.97 19.67 -24.94 19.34 -28 19 C-28 18.01 -28 17.02 -28 16 C-27.67 16.33 -27.34 16.66 -27 17 C-25.34080104 17.36871088 -23.67225729 17.69595322 -22 18 C-17.11111111 18.88888889 -17.11111111 18.88888889 -16 20 C-16.33 17.69 -16.66 15.38 -17 13 C-15.125 11.9375 -15.125 11.9375 -13 11 C-12.34 11.33 -11.68 11.66 -11 12 C-11 12.66 -11 13.32 -11 14 C-10.34 14 -9.68 14 -9 14 C-9 13.34 -9 12.68 -9 12 C-8.34 12 -7.68 12 -7 12 C-7.33 10.68 -7.66 9.36 -8 8 C-7.71125 7.8865625 -7.71125 7.8865625 -6.25 7.3125 C-3.41941846 5.66132744 -1.89809894 3.64378067 0 1 C0 0.67 0 0.34 0 0 Z " fill="#808A8C" transform="translate(62,20)" />
<path d="M0 0 C0.59296875 0.20882812 1.1859375 0.41765625 1.796875 0.6328125 C1.796875 1.2928125 1.796875 1.9528125 1.796875 2.6328125 C2.456875 2.9628125 3.116875 3.2928125 3.796875 3.6328125 C3.136875 4.2928125 2.476875 4.9528125 1.796875 5.6328125 C-0.183125 4.9728125 -2.163125 4.3128125 -4.203125 3.6328125 C-9.1643506 9.44537267 -12.67668889 15.22088916 -15.74609375 22.2265625 C-17.203125 24.6328125 -17.203125 24.6328125 -19.171875 25.60546875 C-21.203125 25.6328125 -21.203125 25.6328125 -24.515625 23.5703125 C-27.203125 20.6328125 -27.203125 20.6328125 -27.328125 17.8203125 C-23.74158654 7.65845353 -23.74158654 7.65845353 -19.203125 4.6328125 C-20.66682664 8.53601688 -22.48961623 12.12135134 -24.49609375 15.765625 C-25.203125 17.6328125 -25.203125 17.6328125 -24.203125 20.6328125 C-21.140625 22.3203125 -21.140625 22.3203125 -18.203125 23.6328125 C-18.11289062 22.94058594 -18.02265625 22.24835938 -17.9296875 21.53515625 C-16.33615835 15.16960703 -8.01390199 -1.33565033 0 0 Z " fill="#4A4B43" transform="translate(43.203125,47.3671875)" />
<path d="M0 0 C6.67585926 2.28886603 12.25232388 7.00371821 16 13 C15.875 15.9375 15.875 15.9375 15 18 C13.02 17.67 11.04 17.34 9 17 C8.67 15.02 8.34 13.04 8 11 C6.68 10.67 5.36 10.34 4 10 C3.67 8.02 3.34 6.04 3 4 C2.34 4 1.68 4 1 4 C0.67 2.68 0.34 1.36 0 0 Z " fill="#C49749" transform="translate(63,64)" />
<path d="M0 0 C0.66 0.33 1.32 0.66 2 1 C1.5771875 1.309375 1.5771875 1.309375 -0.5625 2.875 C-3.33102513 6.42439119 -3.27160876 7.05366218 -2.8125 11.3125 C-2.56775915 12.87929892 -2.30518762 14.4438453 -2 16 C-1.34 16 -0.68 16 0 16 C0.27070312 16.71800781 0.54140625 17.43601562 0.8203125 18.17578125 C1.9967899 20.99231489 3.33643195 23.55280186 4.875 26.1875 C5.36742188 27.04730469 5.85984375 27.90710938 6.3671875 28.79296875 C8.0905982 31.12245929 9.33085389 31.96585032 12 33 C11.34 34.32 10.68 35.64 10 37 C5.48981359 31.27430236 1.64540306 25.30835707 -2 19 C-2.2990625 19.1546875 -2.2990625 19.1546875 -3.8125 19.9375 C-6 21 -6 21 -9 22 C-9.33 21.34 -9.66 20.68 -10 20 C-9.154375 19.34 -8.30875 18.68 -7.4375 18 C-6.633125 17.01 -5.82875 16.02 -5 15 C-5.28795379 13.01631831 -5.58255046 11.03083445 -6 9.0703125 C-6 5.52548128 -3.72118732 3.67219116 -1.34765625 1.25 C-0.90292969 0.8375 -0.45820312 0.425 0 0 Z " fill="#4E4224" transform="translate(59,29)" />
<path d="M0 0 C0.99 0.66 1.98 1.32 3 2 C3 3.32 3 4.64 3 6 C1.37109883 7.3234822 -0.26112631 8.64309025 -1.91015625 9.94140625 C-6.21230666 14.17922544 -9.02020608 19.78342571 -12 25 C-13.61252019 20.16243944 -10.88546911 16.74925783 -8.765625 12.31640625 C-6.37384473 7.82388093 -3.61360572 3.61360572 0 0 Z " fill="#8C9598" transform="translate(38,42)" />
<path d="M0 0 C-1.17487625 2.67017329 -2.51404682 4.66687155 -4.3125 7 C-7.87403794 11.84411559 -9.84941876 17.4267916 -12 23 C-12.9883378 19.58442084 -12.73118909 17.4731482 -12 14 C-12.33 13.34 -12.66 12.68 -13 12 C-7.11320755 0 -7.11320755 0 0 0 Z " fill="#C2CBCE" transform="translate(38,41)" />
<path d="M0 0 C0.33 0.99 0.66 1.98 1 3 C1.66 3.33 2.32 3.66 3 4 C3.8515625 6.21484375 3.8515625 6.21484375 4.625 8.9375 C4.88539062 9.83339844 5.14578125 10.72929688 5.4140625 11.65234375 C6 14 6 14 6 16 C6.66 16 7.32 16 8 16 C10.125 17.6875 10.125 17.6875 12 20 C12.25 22.75 12.25 22.75 12 25 C8.74451247 21.97704729 6.31022942 18.79537691 4 15 C4 14.34 4 13.68 4 13 C3.34 13 2.68 13 2 13 C0.45703125 11.609375 0.45703125 11.609375 -1.1875 9.75 C-1.46271484 9.44835937 -1.46271484 9.44835937 -2.85546875 7.921875 C-4 6 -4 6 -3.86328125 3.890625 C-3 2 -3 2 0 0 Z " fill="#9A6D21" transform="translate(53,49)" />
<path d="M0 0 C-0.61875 0.268125 -1.2375 0.53625 -1.875 0.8125 C-4 2 -4 2 -6 5 C-6.99 5.66 -7.98 6.32 -9 7 C-9 7.99 -9 8.98 -9 10 C-9.66 10 -10.32 10 -11 10 C-11 10.66 -11 11.32 -11 12 C-11.66 12 -12.32 12 -13 12 C-13 11.34 -13 10.68 -13 10 C-14.98 10.33 -16.96 10.66 -19 11 C-19 9.68 -19 8.36 -19 7 C-16.67699702 5.64491493 -14.34690798 4.31267735 -12 3 C-11.30519531 2.60683594 -10.61039063 2.21367187 -9.89453125 1.80859375 C-9.20746094 1.43863281 -8.52039062 1.06867187 -7.8125 0.6875 C-7.49603516 0.51412109 -7.49603516 0.51412109 -5.89453125 -0.36328125 C-3.56336424 -1.14674563 -2.29120089 -0.78744155 0 0 Z " fill="#99A3A4" transform="translate(64,22)" />
<path d="M0 0 C0.99 0.33 1.98 0.66 3 1 C4.45592417 8.15829384 4.45592417 8.15829384 2.375 12 C0 14 0 14 -2.44140625 14.375 C-5 14 -5 14 -6.80078125 12.25 C-7.29964844 11.5075 -7.79851563 10.765 -8.3125 10 C-8.56837891 9.62875 -8.56837891 9.62875 -9.86328125 7.75 C-10.23839844 7.1725 -10.61351562 6.595 -11 6 C-10.01 5.67 -9.02 5.34 -8 5 C-7.67 6.32 -7.34 7.64 -7 9 C-6.236875 9.144375 -5.47375 9.28875 -4.6875 9.4375 C-2 10 -2 10 1 11 C0.835 10.6390625 0.835 10.6390625 0 8.8125 C-1.01204501 5.9661234 -1.24919846 3.99038158 -1 1 C-0.67 0.67 -0.34 0.34 0 0 Z " fill="#61686B" transform="translate(51,35)" />
<path d="M0 0 C0.53625 0.268125 1.0725 0.53625 1.625 0.8125 C1.625 1.4725 1.625 2.1325 1.625 2.8125 C2.285 3.1425 2.945 3.4725 3.625 3.8125 C2.965 4.4725 2.305 5.1325 1.625 5.8125 C-0.355 5.1525 -2.335 4.4925 -4.375 3.8125 C-11.85791572 13.22252278 -11.85791572 13.22252278 -14.375 17.8125 C-14.705 16.8225 -15.035 15.8325 -15.375 14.8125 C-12.60927455 9.59915171 -6.75918455 -0.53361983 0 0 Z " fill="#3E433C" transform="translate(43.375,47.1875)" />
<path d="M0 0 C0.66 0 1.32 0 2 0 C2 0.66 2 1.32 2 2 C2.99 1.34 3.98 0.68 5 0 C7.04296875 -0.1953125 7.04296875 -0.1953125 9.1875 -0.125 C9.8165625 -0.104375 9.8165625 -0.104375 13 0 C13.33 0.66 13.66 1.32 14 2 C12.948125 1.896875 11.89625 1.79375 10.8125 1.6875 C7 2 7 2 4.125 4.375 C2 7 2 7 1 9 C3.31 9 5.62 9 8 9 C6.75 10.5 6.75 10.5 5 12 C3.33333333 12 1.66666667 12 0 12 C0 8.04 0 4.08 0 0 Z " fill="#654F26" transform="translate(32,26)" />
<path d="M0 0 C2.79872437 2.52788007 4.45773019 4.20411134 5 8 C6.98 8 8.96 8 11 8 C11.99 6.02 12.98 4.04 14 2 C14.33 2 14.66 2 15 2 C15.35430394 5.18873549 15.25953249 6.61589191 13.4375 9.3125 C10.13692366 11.59751439 7.9296507 11.43662786 4 11 C1.6870518 8.6870518 1.50419025 7.52095125 0.875 4.375 C0.70742187 3.55773437 0.53984375 2.74046875 0.3671875 1.8984375 C0.24601562 1.27195312 0.12484375 0.64546875 0 0 Z " fill="#5F4313" transform="translate(65,75)" />
<path d="M0 0 C2 3 2 3 1.625 5.1875 C1.41875 5.785625 1.2125 6.38375 1 7 C1.66 7 2.32 7 3 7 C2.979375 7.78375 2.95875 8.5675 2.9375 9.375 C3 12 3 12 4 14 C0.64404172 13.40072174 -1.37801226 12.15377564 -4 10 C-2.8905928 6.51329166 -1.73662334 3.22515763 0 0 Z " fill="#929B9C" transform="translate(21,57)" />
<path d="M0 0 C2.44053845 0.1816582 4.67329874 0.41955453 7.0390625 1.0546875 C9.10810304 3.49991723 10.0390625 4.84559869 10.0390625 8.0546875 C11.0290625 8.3846875 12.0190625 8.7146875 13.0390625 9.0546875 C13.0390625 9.7146875 13.0390625 10.3746875 13.0390625 11.0546875 C14.0290625 11.3846875 15.0190625 11.7146875 16.0390625 12.0546875 C14.7190625 12.0546875 13.3990625 12.0546875 12.0390625 12.0546875 C12.0390625 11.3946875 12.0390625 10.7346875 12.0390625 10.0546875 C11.4409375 9.9928125 10.8428125 9.9309375 10.2265625 9.8671875 C7.16762792 8.7310118 6.48865151 6.88138608 5.0390625 4.0546875 C3.0590625 4.3846875 1.0790625 4.7146875 -0.9609375 5.0546875 C-1.6209375 3.7346875 -2.2809375 2.4146875 -2.9609375 1.0546875 C-1.9609375 0.0546875 -1.9609375 0.0546875 0 0 Z " fill="#51565A" transform="translate(32.9609375,37.9453125)" />
<path d="M0 0 C0 1.32 0 2.64 0 4 C-6.625 8 -6.625 8 -10 8 C-8.14082741 2.26755117 -6.18031831 0 0 0 Z " fill="#DBB875" transform="translate(43,27)" />
<path d="M0 0 C4.43458973 1.3937282 6.87378374 3.60582235 10 7 C9.67 7.66 9.34 8.32 9 9 C8.34 9 7.68 9 7 9 C7 9.66 7 10.32 7 11 C6.01 10.67 5.02 10.34 4 10 C3.67 8.02 3.34 6.04 3 4 C2.34 4 1.68 4 1 4 C0.67 2.68 0.34 1.36 0 0 Z " fill="#B58A3B" transform="translate(63,64)" />
<path d="M0 0 C-0.33773437 0.16306641 -0.33773437 0.16306641 -2.046875 0.98828125 C-2.49289063 1.20677734 -2.49289063 1.20677734 -4.75 2.3125 C-5.63171875 2.74175781 -6.5134375 3.17101562 -7.421875 3.61328125 C-10 5 -10 5 -12.203125 6.66796875 C-14 8 -14 8 -16 8 C-15.6875 6.125 -15.6875 6.125 -15 4 C-14.01 3.34 -13.02 2.68 -12 2 C-11.67 1.34 -11.34 0.68 -11 0 C-3.82105263 -1.27368421 -3.82105263 -1.27368421 0 0 Z " fill="#575A4E" transform="translate(62,21)" />
<path d="M0 0 C2.01822917 0.06510417 4.03645833 0.13020833 6.0546875 0.1953125 C6.5546875 2.3828125 6.5546875 2.3828125 6.0546875 5.1953125 C3.21583584 7.5934292 -0.13327081 10.1953125 -3.9453125 10.1953125 C-3.9453125 9.5353125 -3.9453125 8.8753125 -3.9453125 8.1953125 C1.46645221 4.1953125 1.46645221 4.1953125 4.0546875 4.1953125 C4.0546875 3.5353125 4.0546875 2.8753125 4.0546875 2.1953125 C1.4146875 2.1953125 -1.2253125 2.1953125 -3.9453125 2.1953125 C-1.9453125 0.1953125 -1.9453125 0.1953125 0 0 Z " fill="#494941" transform="translate(65.9453125,17.8046875)" />
<path d="M0 0 C0.99 0.33 1.98 0.66 3 1 C0.63707344 3.52588702 -0.66462511 4.88820837 -4 6 C-4.33 6.495 -4.33 6.495 -6 9 C-7.5625 6.6875 -7.5625 6.6875 -9 4 C-8.67 3.01 -8.34 2.02 -8 1 C-7.34 1.165 -7.34 1.165 -4 2 C-4 2.66 -4 3.32 -4 4 C-3.34 4 -2.68 4 -2 4 C-2 3.34 -2 2.68 -2 2 C-1.34 2 -0.68 2 0 2 C0 1.34 0 0.68 0 0 Z " fill="#727C81" transform="translate(55,30)" />
<path d="M0 0 C0.99 0 1.98 0 3 0 C3.33 1.98 3.66 3.96 4 6 C5.65 6.33 7.3 6.66 9 7 C8.67 7.66 8.34 8.32 8 9 C5.125 8.75 5.125 8.75 2 8 C-0.16898181 5.14088761 0 3.71556422 0 0 Z " fill="#AB7F30" transform="translate(68,75)" />
<path d="M0 0 C-2.10260341 1.14878332 -4.20696539 2.29411192 -6.3125 3.4375 C-6.90740234 3.76298828 -7.50230469 4.08847656 -8.11523438 4.42382812 C-10.72373626 5.83737384 -13.17845899 7.05948633 -16 8 C-14.60526093 3.81578279 -11.6938791 2.92016623 -8 1 C-7.6390625 0.7834375 -7.6390625 0.7834375 -5.8125 -0.3125 C-3.50891848 -1.1862723 -2.32031248 -0.66775038 0 0 Z " fill="#C2CCCB" transform="translate(64,22)" />
<path d="M0 0 C0.66 0 1.32 0 2 0 C2 0.66 2 1.32 2 2 C2.66 2 3.32 2 4 2 C4.33 3.32 4.66 4.64 5 6 C5.66 6 6.32 6 7 6 C9.125 7.6875 9.125 7.6875 11 10 C11.25 12.75 11.25 12.75 11 15 C7.74451247 11.97704729 5.31022942 8.79537691 3 5 C3 4.34 3 3.68 3 3 C2.34 3 1.68 3 1 3 C0.67 2.01 0.34 1.02 0 0 Z " fill="#82591A" transform="translate(54,59)" />
<path d="M0 0 C0.99 0.66 1.98 1.32 3 2 C2.67 3.32 2.34 4.64 2 6 C1.34 6 0.68 6 0 6 C0 6.66 0 7.32 0 8 C-3 9 -3 9 -5.1875 8.0625 C-5.785625 7.711875 -6.38375 7.36125 -7 7 C-2.25 4 -2.25 4 0 4 C0 2.68 0 1.36 0 0 Z " fill="#AC915B" transform="translate(43,27)" />
<path d="M0 0 C0.721875 0.268125 1.44375 0.53625 2.1875 0.8125 C2.1875 1.8025 2.1875 2.7925 2.1875 3.8125 C1.445 3.93625 0.7025 4.06 -0.0625 4.1875 C-2.61391485 4.76736701 -4.5392573 5.54958739 -6.8125 6.8125 C-7.1425 6.1525 -7.4725 5.4925 -7.8125 4.8125 C-3.50480769 -0.23365385 -3.50480769 -0.23365385 0 0 Z " fill="#624E20" transform="translate(56.8125,44.1875)" />
<path d="M0 0 C1.98 0.99 3.96 1.98 6 3 C5.67 4.65 5.34 6.3 5 8 C4.67 7.34 4.34 6.68 4 6 C3.34 6 2.68 6 2 6 C1.34 4.02 0.68 2.04 0 0 Z " fill="#A8833F" transform="translate(73,74)" />
<path d="M0 0 C0.99 0 1.98 0 3 0 C3 1.98 3 3.96 3 6 C2.01 6 1.02 6 0 6 C-0.38218767 4.34385343 -0.71395102 2.67542976 -1 1 C-0.67 0.67 -0.34 0.34 0 0 Z " fill="#4B3410" transform="translate(47,50)" />
<path d="M0 0 C0.66 0.33 1.32 0.66 2 1 C2 2.32 2 3.64 2 5 C-1 7.25 -1 7.25 -4 9 C-2.80100302 5.9168649 -1.52299523 2.93720508 0 0 Z " fill="#7C8487" transform="translate(39,43)" />
<path d="M0 0 C2.00720923 0.28674418 4.0085944 0.61866701 6 1 C6 1.66 6 2.32 6 3 C4.35 3.66 2.7 4.32 1 5 C0.34 3.68 -0.32 2.36 -1 1 C-0.67 0.67 -0.34 0.34 0 0 Z " fill="#56594F" transform="translate(31,38)" />
<path d="M0 0 C0.825 0.33 0.825 0.33 5 2 C5 3.65 5 5.3 5 7 C2.5 5.1875 2.5 5.1875 0 3 C0 2.01 0 1.02 0 0 Z " fill="#7C5416" transform="translate(49,52)" />
<path d="M0 0 C1.32 0.33 2.64 0.66 4 1 C4 1.66 4 2.32 4 3 C4.66 3.33 5.32 3.66 6 4 C5.34 4.66 4.68 5.32 4 6 C2.62437146 4.71034824 1.29233607 3.37310707 0 2 C0 1.34 0 0.68 0 0 Z " fill="#343430" transform="translate(41,47)" />
<path d="M0 0 C0.66 0 1.32 0 2 0 C2 1.98 2 3.96 2 6 C1.01 5.67 0.02 5.34 -1 5 C-1.33 4.01 -1.66 3.02 -2 2 C-1.34 1.34 -0.68 0.68 0 0 Z " fill="#BB8D2F" transform="translate(68,69)" />
<path d="M0 0 C0.6875 1.75 0.6875 1.75 1 4 C-0.4375 6.25 -0.4375 6.25 -2 8 C-2.33 6.02 -2.66 4.04 -3 2 C-2.01 1.34 -1.02 0.68 0 0 Z " fill="#C6D1D6" transform="translate(31,46)" />
<path d="M0 0 C0.66 0.33 1.32 0.66 2 1 C2 2.32 2 3.64 2 5 C-0.4375 4.625 -0.4375 4.625 -3 4 C-3.33 3.34 -3.66 2.68 -4 2 C-2.68 2 -1.36 2 0 2 C0 1.34 0 0.68 0 0 Z " fill="#6E7C83" transform="translate(50,41)" />
</svg>