<?xml version='1.0' encoding='utf-8'?>
<svg xmlns="http://www.w3.org/2000/svg" version="1.1" width="94" height="89">
<path d="M0 0 C2.97 0.33 5.94 0.66 9 1 C9 1.99 9 2.98 9 4 C10.65 4 12.3 4 14 4 C14.33 4.99 14.66 5.98 15 7 C15.99 7.33 16.98 7.66 18 8 C18.33 8.99 18.66 9.98 19 11 C21.0625 12.1875 21.0625 12.1875 23 13 C23 13.99 23 14.98 23 16 C24.32 16.33 25.64 16.66 27 17 C27.33 18.32 27.66 19.64 28 21 C28.37962891 21.05478516 28.37962891 21.05478516 30.30078125 21.33203125 C31.29464844 21.49058594 32.28851563 21.64914063 33.3125 21.8125 C34.29863281 21.96332031 35.28476562 22.11414063 36.30078125 22.26953125 C39.17927308 23.04851529 40.28581885 23.59333507 42 26 C42.79828778 31.23321992 42.40834176 33.9878963 39.3125 38.3125 C36.85508768 41.27533754 34.52037534 43.33760053 31 45 C30.67 45.165 30.67 45.165 29 46 C21.53333333 46.35555556 21.53333333 46.35555556 18 44 C17.26953125 41.94140625 17.26953125 41.94140625 16.8125 39.5625 C16.65394531 38.78003906 16.49539062 37.99757812 16.33203125 37.19140625 C16 35 16 35 16 32 C15.75 29.9375 15.75 29.9375 15 28 C14.36707031 27.7215625 13.73414063 27.443125 13.08203125 27.15625 C10.40273256 25.66830927 10.0103421 24.39090189 8.9375 21.5625 C7.69281317 18.31990384 6.56502637 16.34025602 4 14 C-0.02168763 9.05906948 -0.42273372 6.12963887 0 0 Z " fill="#454941" transform="translate(17,25)" />
<path d="M0 0 C12.2173913 -0.39130435 12.2173913 -0.39130435 17 2 C17.33 2.99 17.66 3.98 18 5 C17.34 5 16.68 5 16 5 C16 4.34 16 3.68 16 3 C10.72 2.67 5.44 2.34 0 2 C3.77142857 8.28571429 3.77142857 8.28571429 6 10 C7.66194453 10.35613097 9.328451 10.69208308 11 11 C11.33 11.66 11.66 12.32 12 13 C13.64232772 13.72455635 15.31624835 14.37774395 17 15 C19.33333333 16 21.66666667 17 24 18 C24.4434375 18.1753125 24.4434375 18.1753125 26.6875 19.0625 C30.97867121 20.802164 33.93542686 22.42466467 37 26 C37.66 27.65 38.32 29.3 39 31 C40.65 26.38 42.3 21.76 44 17 C43.34 16.67 42.68 16.34 42 16 C42.639375 15.855625 43.27875 15.71125 43.9375 15.5625 C46 15 46 15 47 14 C46.61457031 14.00580078 46.61457031 14.00580078 44.6640625 14.03515625 C44.16261719 14.03966797 44.16261719 14.03966797 41.625 14.0625 C40.62726563 14.07410156 39.62953125 14.08570313 38.6015625 14.09765625 C36 14 36 14 34 13 C34 12.34 34 11.68 34 11 C31.69 11 29.38 11 27 11 C26.835 10.67 26.835 10.67 26 9 C25.01 8.67 24.02 8.34 23 8 C23 7.67 23 7.34 23 7 C26.375 6.875 26.375 6.875 30 7 C30.66 7.66 31.32 8.32 32 9 C33.32796291 9.35412344 34.66216607 9.68521554 36 10 C36.66 10.37125 37.32 10.7425 38 11.125 C40.52527369 12.22980724 41.37511964 11.67510412 44 11 C45.58211573 10.93451508 47.16670081 10.91421619 48.75 10.9375 C49.54921875 10.94652344 50.3484375 10.95554687 51.171875 10.96484375 C51.77515625 10.97644531 52.3784375 10.98804688 53 11 C55.16250962 15.32501924 53.60237665 21.124027 52.1796875 25.5546875 C48.97737744 33.24527466 48.97737744 33.24527466 45 35 C41.9375 35.5 41.9375 35.5 39 35 C36.95691589 32.39330648 36.04553582 30.13660747 35 27 C32.4375 25.8125 32.4375 25.8125 30 25 C30 24.34 30 23.68 30 23 C29.21625 23.04125 28.4325 23.0825 27.625 23.125 C25 23 25 23 23 21 C22.01 21 21.02 21 20 21 C19.34 22.32 18.68 23.64 18 25 C17.34 25 16.68 25 16 25 C16 24.34 16 23.68 16 23 C15.030625 22.731875 14.06125 22.46375 13.0625 22.1875 C12.051875 21.795625 11.04125 21.40375 10 21 C9.67 20.01 9.34 19.02 9 18 C6.70832354 15.0208206 4.66464055 14.4952217 1 14 C1 13.01 1 12.02 1 11 C-1.97 10.67 -4.94 10.34 -8 10 C-7.74279326 11.58560393 -7.46861201 13.16845924 -7.1875 14.75 C-7.03667969 15.63171875 -6.88585937 16.5134375 -6.73046875 17.421875 C-5.94333232 20.20000356 -4.77635698 21.76130354 -3 24 C-3 24.66 -3 25.32 -3 26 C-2.01 26.33 -1.02 26.66 0 27 C0.6875 29.0625 0.6875 29.0625 1 31 C0.01 30.34 -0.98 29.68 -2 29 C-2 28.34 -2 27.68 -2 27 C-2.99 26.67 -3.98 26.34 -5 26 C-5.33 25.01 -5.66 24.02 -6 23 C-6.66 22.67 -7.32 22.34 -8 22 C-9.92608479 16.93135582 -10.07986163 13.29132198 -9 8 C-5.7 8.33 -2.4 8.66 1 9 C0.46375 8.2575 -0.0725 7.515 -0.625 6.75 C-1.07875 5.8425 -1.5325 4.935 -2 4 C-1.0859375 1.828125 -1.0859375 1.828125 0 0 Z " fill="#5C594B" transform="translate(25,15)" />
<path d="M0 0 C1.58294782 -0.05437607 3.16644256 -0.09296271 4.75 -0.125 C5.63171875 -0.14820312 6.5134375 -0.17140625 7.421875 -0.1953125 C10.1135858 0.00860498 11.69904974 0.63448279 14 2 C14 2.66 14 3.32 14 4 C15.093125 3.95875 16.18625 3.9175 17.3125 3.875 C21 4 21 4 24 6 C24.99 6 25.98 6 27 6 C27 6.99 27 7.98 27 9 C29.31 9 31.62 9 34 9 C34 9.66 34 10.32 34 11 C38.62 11 43.24 11 48 11 C47.01 12.32 46.02 13.64 45 15 C44.67 15.99 44.34 16.98 44 18 C43.505 19.11375 43.01 20.2275 42.5 21.375 C41.27384074 24.33821821 40.47662481 26.85427624 40 30 C38 29 38 29 36.6875 25.5625 C35 22 35 22 32.4375 20.6875 C31.633125 20.460625 30.82875 20.23375 30 20 C29.34 19.34 28.68 18.68 28 18 C26.35148385 17.44306887 24.6809733 16.94956263 23 16.5 C18.22222222 15.22222222 18.22222222 15.22222222 16 13 C14.35008418 12.29289322 12.68437744 11.62056011 11 11 C11 10.34 11 9.68 11 9 C9.35 9 7.7 9 6 9 C5.67 8.01 5.34 7.02 5 6 C4.34 5.690625 3.68 5.38125 3 5.0625 C2.34 4.711875 1.68 4.36125 1 4 C0.375 1.93359375 0.375 1.93359375 0 0 Z " fill="#9C9F98" transform="translate(25,17)" />
<path d="M0 0 C2.97 0.33 5.94 0.66 9 1 C9 1.99 9 2.98 9 4 C10.32 4.33 11.64 4.66 13 5 C12.67 5.99 12.34 6.98 12 8 C12.99 8.33 13.98 8.66 15 9 C15.6875 11.0625 15.6875 11.0625 16 13 C16.99 13 17.98 13 19 13 C19.10957031 13.63808594 19.21914063 14.27617188 19.33203125 14.93359375 C19.49058594 15.75988281 19.64914063 16.58617188 19.8125 17.4375 C19.96332031 18.26121094 20.11414063 19.08492187 20.26953125 19.93359375 C20.51058594 20.61550781 20.75164063 21.29742187 21 22 C21.99 22.33 22.98 22.66 24 23 C25.66666667 24.66666667 27.33333333 26.33333333 29 28 C28.01 28.33 27.02 28.66 26 29 C24.68359375 30.70703125 24.68359375 30.70703125 23.4375 32.8125 C23.02371094 33.49957031 22.60992187 34.18664063 22.18359375 34.89453125 C21.0588686 36.89527994 20.02645039 38.94709923 19 41 C19 37.7 19 34.4 19 31 C18.01 30.67 17.02 30.34 16 30 C16 28.68 16 27.36 16 26 C15.360625 25.896875 14.72125 25.79375 14.0625 25.6875 C13.7221875 25.5740625 13.7221875 25.5740625 12 25 C11.67 24.01 11.34 23.02 11 22 C10.02351983 20.97702078 9.01868662 19.98095748 8 19 C6.62926214 17.36395804 5.29944744 15.69321939 4 14 C3.2575 13.071875 2.515 12.14375 1.75 11.1875 C-0.51436402 7.06312268 -0.3199901 4.6398565 0 0 Z " fill="#C9CDC5" transform="translate(17,25)" />
<path d="M0 0 C2.97 0.33 5.94 0.66 9 1 C9 1.99 9 2.98 9 4 C10.32 4.33 11.64 4.66 13 5 C12.67 5.99 12.34 6.98 12 8 C12.99 8.33 13.98 8.66 15 9 C15.6875 11.0625 15.6875 11.0625 16 13 C16.99 13 17.98 13 19 13 C19.10957031 13.63808594 19.21914063 14.27617188 19.33203125 14.93359375 C19.49058594 15.75988281 19.64914063 16.58617188 19.8125 17.4375 C19.96332031 18.26121094 20.11414063 19.08492187 20.26953125 19.93359375 C20.51058594 20.61550781 20.75164063 21.29742187 21 22 C21.99 22.33 22.98 22.66 24 23 C25.66666667 24.66666667 27.33333333 26.33333333 29 28 C28.01 28.33 27.02 28.66 26 29 C24.68359375 30.70703125 24.68359375 30.70703125 23.4375 32.8125 C23.02371094 33.49957031 22.60992187 34.18664063 22.18359375 34.89453125 C21.0588686 36.89527994 20.02645039 38.94709923 19 41 C19 37.7 19 34.4 19 31 C18.01 30.67 17.02 30.34 16 30 C16 28.68 16 27.36 16 26 C16.99 25.67 17.98 25.34 19 25 C19 25.99 19 26.98 19 28 C19.66 28 20.32 28 21 28 C21.33 26.35 21.66 24.7 22 23 C21.34 23 20.68 23 20 23 C19.835 22.175 19.835 22.175 19 18 C17.68 18.33 16.36 18.66 15 19 C15 16.69 15 14.38 15 12 C14.01 12 13.02 12 12 12 C12 11.34 12 10.68 12 10 C11.34 10 10.68 10 10 10 C10 9.34 10 8.68 10 8 C9.34 8 8.68 8 8 8 C8 7.34 8 6.68 8 6 C6.68 5.67 5.36 5.34 4 5 C4 4.34 4 3.68 4 3 C1.48916886 4.25541557 1.12874554 5.50063488 0 8 C0 5.36 0 2.72 0 0 Z " fill="#B2B8B4" transform="translate(17,25)" />
<path d="M0 0 C0.66 0.33 1.32 0.66 2 1 C2 1.99 2 2.98 2 4 C4.96178773 5.67110042 7.37071192 6.32682752 10.75 6.625 C11.14960937 6.66238281 11.14960937 6.66238281 13.171875 6.8515625 C13.77515625 6.90054688 14.3784375 6.94953125 15 7 C14.49400845 12.10952251 11.9693761 15.65361513 9.1875 19.8125 C8.74857422 20.50537109 8.30964844 21.19824219 7.85742188 21.91210938 C7.42365234 22.56630859 6.98988281 23.22050781 6.54296875 23.89453125 C6.15133545 24.49112549 5.75970215 25.08771973 5.35620117 25.70239258 C4 27 4 27 0 27 C-1.43740666 22.68778002 0.08861849 19.98592973 2 16 C5.24590164 11.37704918 5.24590164 11.37704918 8 10 C7.401875 9.731875 6.80375 9.46375 6.1875 9.1875 C3.93395607 7.96414758 2.57141964 7.02039668 1 5 C0.3125 2.3125 0.3125 2.3125 0 0 Z " fill="#5F6568" transform="translate(37,42)" />
<path d="M0 0 C2.31 0.33 4.62 0.66 7 1 C7 1.66 7 2.32 7 3 C7.99 2.67 8.98 2.34 10 2 C10.309375 2.2371875 10.309375 2.2371875 11.875 3.4375 C14.45273775 5.3328954 15.87472142 5.26043988 19 5 C19.33 5.99 19.66 6.98 20 8 C20.825 8.165 20.825 8.165 25 9 C25 10.32 25 11.64 25 13 C15.58997722 13.3690205 15.58997722 13.3690205 11 11 C11 10.34 11 9.68 11 9 C9.35 9 7.7 9 6 9 C5.67 8.01 5.34 7.02 5 6 C4.34 5.690625 3.68 5.38125 3 5.0625 C1 4 1 4 0.25 1.875 C0.1675 1.25625 0.085 0.6375 0 0 Z " fill="#AAAEA9" transform="translate(25,17)" />
<path d="M0 0 C2.375 -0.125 2.375 -0.125 5 0 C7 2 7 2 7.25 5.875 C7.18064077 9.05396475 6.80254921 11.29617618 5 14 C4.34 14 3.68 14 3 14 C2.67 11.36 2.34 8.72 2 6 C1.34 6 0.68 6 0 6 C0.144375 6.60328125 0.28875 7.2065625 0.4375 7.828125 C0.623125 8.62734375 0.80875 9.4265625 1 10.25 C1.0928125 10.64445312 1.0928125 10.64445312 1.5625 12.640625 C2 15 2 15 2 19 C-1 21 -1 21 -3.1875 20.625 C-3.4865625 20.521875 -3.4865625 20.521875 -5 20 C-4.50341703 14.33895411 -3.45489316 10.12325529 -1 5 C-1.66 4.67 -2.32 4.34 -3 4 C-2.360625 3.855625 -1.72125 3.71125 -1.0625 3.5625 C1 3 1 3 2 2 C1.34 1.34 0.68 0.68 0 0 Z " fill="#5B6267" transform="translate(70,27)" />
<path d="M0 0 C0.99 0.33 1.98 0.66 3 1 C3 1.99 3 2.98 3 4 C4.32 4.33 5.64 4.66 7 5 C7.12375 5.639375 7.2475 6.27875 7.375 6.9375 C7.478125 7.2778125 7.478125 7.2778125 8 9 C8.66 9.33 9.32 9.66 10 10 C10.4140625 12.94140625 10.4140625 12.94140625 10.625 16.5625 C10.69976562 17.76003906 10.77453125 18.95757812 10.8515625 20.19140625 C10.90054688 21.11824219 10.94953125 22.04507813 11 23 C13.48637776 22.6288546 14.68732586 22.36911496 16.34033203 20.41772461 C16.53296631 20.08518677 16.53296631 20.08518677 17.5078125 18.40234375 C17.93707031 17.68369141 18.36632812 16.96503906 18.80859375 16.22460938 C19.24300781 15.46986328 19.67742188 14.71511719 20.125 13.9375 C20.99614825 12.44283311 21.87343448 10.95172099 22.7578125 9.46484375 C23.1408252 8.800896 23.52383789 8.13694824 23.91845703 7.45288086 C24.27536621 6.97343018 24.63227539 6.49397949 25 6 C25.66 6 26.32 6 27 6 C27 5.01 27 4.02 27 3 C27.66 3 28.32 3 29 3 C27.70496796 7.38368346 26.01031194 10.87416598 23.5 14.6875 C23.19578125 15.15349609 23.19578125 15.15349609 21.65625 17.51171875 C20.43822515 19.34162872 19.21935103 21.17097346 18 23 C19.32 23.33 20.64 23.66 22 24 C18.87293041 25.5635348 15.42017557 25.39958487 12 25 C9 23 9 23 8.26953125 20.94140625 C8.11871094 20.15636719 7.96789063 19.37132813 7.8125 18.5625 C7.73322266 18.17126953 7.73322266 18.17126953 7.33203125 16.19140625 C7 14 7 14 7 11 C6.75 8.9375 6.75 8.9375 6 7 C5.6803125 6.8453125 5.6803125 6.8453125 4.0625 6.0625 C2 5 2 5 0.75 2.375 C0.5025 1.59125 0.255 0.8075 0 0 Z " fill="#4B4B3E" transform="translate(26,46)" />
<path d="M0 0 C2.05078125 0.03255208 4.1015625 0.06510417 6.15234375 0.09765625 C6.15234375 0.75765625 6.15234375 1.41765625 6.15234375 2.09765625 C6.81234375 2.09765625 7.47234375 2.09765625 8.15234375 2.09765625 C7.54243484 5.65545821 6.57397565 8.78051515 5.15234375 12.09765625 C3.83234375 11.43765625 2.51234375 10.77765625 1.15234375 10.09765625 C1.15234375 8.77765625 1.15234375 7.45765625 1.15234375 6.09765625 C-0.16765625 6.09765625 -1.48765625 6.09765625 -2.84765625 6.09765625 C-2.89037725 4.4315372 -2.88829457 2.7638274 -2.84765625 1.09765625 C-1.84765625 0.09765625 -1.84765625 0.09765625 0 0 Z " fill="#C8CAC4" transform="translate(60.84765625,29.90234375)" />
<path d="M0 0 C2.97 0.33 5.94 0.66 9 1 C9 1.99 9 2.98 9 4 C10.32 4.33 11.64 4.66 13 5 C12.67 5.99 12.34 6.98 12 8 C12.99 8.33 13.98 8.66 15 9 C15.6875 11.0625 15.6875 11.0625 16 13 C16.99 13 17.98 13 19 13 C19.33 14.32 19.66 15.64 20 17 C19.01 17 18.02 17 17 17 C17 16.01 17 15.02 17 14 C16.34 14 15.68 14 15 14 C15 13.34 15 12.68 15 12 C14.01 12 13.02 12 12 12 C12 11.34 12 10.68 12 10 C11.34 10 10.68 10 10 10 C10 9.34 10 8.68 10 8 C9.34 8 8.68 8 8 8 C8 7.34 8 6.68 8 6 C6.68 5.67 5.36 5.34 4 5 C4 4.34 4 3.68 4 3 C1.48916886 4.25541557 1.12874554 5.50063488 0 8 C0 5.36 0 2.72 0 0 Z " fill="#A3ADAD" transform="translate(17,25)" />
<path d="M0 0 C1.32 0.33 2.64 0.66 4 1 C4.125 6.75 4.125 6.75 3 9 C2.34 9 1.68 9 1 9 C1 8.34 1 7.68 1 7 C0.34 7 -0.32 7 -1 7 C-1 7.66 -1 8.32 -1 9 C-1.33 9.165 -1.33 9.165 -3 10 C-3.0825 10.598125 -3.165 11.19625 -3.25 11.8125 C-4.4141836 15.20803549 -7.01674218 16.22274002 -10 18 C-8.70126608 14.45970129 -7.15122134 11.52988067 -5 8.4375 C-3.09937057 5.69584204 -1.42409849 3.01936265 0 0 Z " fill="#626A6B" transform="translate(54,51)" />
<path d="M0 0 C2.31 0.33 4.62 0.66 7 1 C7 1.66 7 2.32 7 3 C7.99 2.67 8.98 2.34 10 2 C12 5 12 5 12 9 C10.02 9 8.04 9 6 9 C5.67 8.01 5.34 7.02 5 6 C4.34 5.690625 3.68 5.38125 3 5.0625 C1 4 1 4 0.25 1.875 C0.1675 1.25625 0.085 0.6375 0 0 Z " fill="#CAD0C9" transform="translate(25,17)" />
<path d="M0 0 C6.32110092 0.48623853 6.32110092 0.48623853 9.3125 2.75 C11 5 11 5 11.9375 7.6875 C12.288125 8.450625 12.63875 9.21375 13 10 C16.23055211 11.19020341 18.78716613 11.26218473 22 10 C22.33 9.34 22.66 8.68 23 8 C23 11 23 11 21.375 12.6875 C18.28636465 14.39437743 16.47520521 14.59152429 13 14 C10.95691589 11.39330648 10.04553582 9.13660747 9 6 C6.4375 4.8125 6.4375 4.8125 4 4 C4 3.34 4 2.68 4 2 C2.68 2 1.36 2 0 2 C0 1.34 0 0.68 0 0 Z " fill="#44463C" transform="translate(51,36)" />
<path d="M0 0 C1.45880109 0.14107747 2.91703551 0.28802415 4.375 0.4375 C4.78105469 0.47810547 4.78105469 0.47810547 6.8359375 0.68359375 C9 1 9 1 11 2 C11 2.99 11 3.98 11 5 C11.66 5.33 12.32 5.66 13 6 C12.01 6 11.02 6 10 6 C10 5.01 10 4.02 10 3 C7.03 2.67 4.06 2.34 1 2 C1.25720674 3.58560393 1.53138799 5.16845924 1.8125 6.75 C1.96332031 7.63171875 2.11414063 8.5134375 2.26953125 9.421875 C3.05666768 12.20000356 4.22364302 13.76130354 6 16 C6 16.66 6 17.32 6 18 C6.99 18.33 7.98 18.66 9 19 C9.6875 21.0625 9.6875 21.0625 10 23 C9.01 22.34 8.02 21.68 7 21 C7 20.34 7 19.68 7 19 C6.01 18.67 5.02 18.34 4 18 C3.67 17.01 3.34 16.02 3 15 C2.34 14.67 1.68 14.34 1 14 C-0.92608479 8.93135582 -1.07986163 5.29132198 0 0 Z " fill="#444339" transform="translate(16,23)" />
<path d="M0 0 C12.2173913 -0.39130435 12.2173913 -0.39130435 17 2 C17.33 2.99 17.66 3.98 18 5 C17.34 5 16.68 5 16 5 C16 4.34 16 3.68 16 3 C10.72 2.67 5.44 2.34 0 2 C5 10.33333333 5 10.33333333 10 12 C10 12.66 10 13.32 10 14 C5.72875444 13.52541716 3.79491392 11.08157175 1 8 C-0.02813611 6.68824014 -1.04084432 5.3630107 -2 4 C-1.34 2.68 -0.68 1.36 0 0 Z " fill="#434233" transform="translate(25,15)" />
<path d="M0 0 C0.66 0 1.32 0 2 0 C2 0.66 2 1.32 2 2 C3.32 2.33 4.64 2.66 6 3 C6.33 4.65 6.66 6.3 7 8 C7.66 8 8.32 8 9 8 C8.67 9.65 8.34 11.3 8 13 C7.34 13 6.68 13 6 13 C5.87625 12.6803125 5.87625 12.6803125 5.25 11.0625 C4 9 4 9 1.9375 8.3125 C1.6178125 8.2609375 1.6178125 8.2609375 0 8 C-1 7 -1 7 -1.125 4 C-1 1 -1 1 0 0 Z " fill="#D2D7D2" transform="translate(19,28)" />
<path d="M0 0 C0.66 0 1.32 0 2 0 C2.8125 2.6875 2.8125 2.6875 3 6 C0.9375 8.875 0.9375 8.875 -2 11 C-5.3125 11.3125 -5.3125 11.3125 -8 11 C-6.73046875 9.53515625 -5.4609375 8.0703125 -4.19140625 6.60546875 C-3 5 -3 5 -2 2 C-1.34 2 -0.68 2 0 2 C0 1.34 0 0.68 0 0 Z " fill="#585E5B" transform="translate(53,58)" />
<path d="M0 0 C0.66 0 1.32 0 2 0 C0.70336847 4.33922235 -0.95514051 7.92471993 -3.375 11.75 C-3.96023437 12.69359375 -4.54546875 13.6371875 -5.1484375 14.609375 C-6.99806645 16.99750352 -8.21392901 17.94448412 -11 19 C-9.56874399 15.08551482 -7.72488708 11.70866662 -5.5 8.1875 C-4.8915625 7.21167969 -4.283125 6.23585938 -3.65625 5.23046875 C-3.1096875 4.49441406 -2.563125 3.75835937 -2 3 C-1.34 3 -0.68 3 0 3 C0 2.01 0 1.02 0 0 Z " fill="#212A2C" transform="translate(53,49)" />
<path d="M0 0 C0.33 0.99 0.66 1.98 1 3 C1.66 3 2.32 3 3 3 C3 2.34 3 1.68 3 1 C3.99 1.33 4.98 1.66 6 2 C5.71125 2.639375 5.4225 3.27875 5.125 3.9375 C3.6752275 7.88410292 2.84221938 11.8874607 2 16 C1.67 16 1.34 16 1 16 C1 12.7 1 9.4 1 6 C0.01 5.67 -0.98 5.34 -2 5 C-2 3.68 -2 2.36 -2 1 C-1.34 0.67 -0.68 0.34 0 0 Z " fill="#9B9E95" transform="translate(35,50)" />
<path d="M0 0 C3.94727588 -0.17942163 6.5980513 -0.09350689 10 2 C10 2.66 10 3.32 10 4 C11.093125 3.938125 12.18625 3.87625 13.3125 3.8125 C17 4 17 4 18.9375 5.5 C19.288125 5.995 19.63875 6.49 20 7 C18.35 7.66 16.7 8.32 15 9 C15 7.68 15 6.36 15 5 C14.0925 5.226875 13.185 5.45375 12.25 5.6875 C9 6 9 6 6.75 4.5625 C6.46125 4.3046875 6.46125 4.3046875 5 3 C4.34 3 3.68 3 3 3 C3 2.34 3 1.68 3 1 C2.01 0.67 1.02 0.34 0 0 Z " fill="#9EA197" transform="translate(29,17)" />
<path d="M0 0 C0.66 0 1.32 0 2 0 C2 0.99 2 1.98 2 3 C3.32 3.33 4.64 3.66 6 4 C5.67 4.99 5.34 5.98 5 7 C5.99 7.33 6.98 7.66 8 8 C8.6875 10.0625 8.6875 10.0625 9 12 C9.99 12 10.98 12 12 12 C12.33 13.32 12.66 14.64 13 16 C12.01 16 11.02 16 10 16 C10 15.01 10 14.02 10 13 C9.34 13 8.68 13 8 13 C8 12.34 8 11.68 8 11 C7.34 11 6.68 11 6 11 C6 10.01 6 9.02 6 8 C5.34 8 4.68 8 4 8 C3.896875 7.360625 3.79375 6.72125 3.6875 6.0625 C3.460625 5.381875 3.23375 4.70125 3 4 C2.01 3.67 1.02 3.34 0 3 C0 2.01 0 1.02 0 0 Z " fill="#6D7675" transform="translate(24,26)" />
<path d="M0 0 C0.66 0.33 1.32 0.66 2 1 C2 2.32 2 3.64 2 5 C2.99 5 3.98 5 5 5 C5.33 6.98 5.66 8.96 6 11 C3 10 3 10 2 8.125 C1.67 7.42375 1.34 6.7225 1 6 C0.46375 5.46375 -0.0725 4.9275 -0.625 4.375 C-1.07875 3.92125 -1.5325 3.4675 -2 3 C-2 2.34 -2 1.68 -2 1 C-1.34 0.67 -0.68 0.34 0 0 Z " fill="#9E9F94" transform="translate(23,36)" />
<path d="M0 0 C0.33 0.165 0.33 0.165 2 1 C2 1.99 2 2.98 2 4 C5.82517513 6.39073445 9.59665524 6.55966552 14 7 C13.67 7.165 13.67 7.165 12 8 C12 8.66 12 9.32 12 10 C8.24568878 9.71120683 5.69615714 9.51295789 2.625 7.25 C0.84011331 4.77861843 0.33397849 3.00580638 0 0 Z " fill="#868E8B" transform="translate(37,42)" />
<path d="M0 0 C1.65 0.33 3.3 0.66 5 1 C5.33 3.31 5.66 5.62 6 8 C3.69 7.34 1.38 6.68 -1 6 C-0.67 4.02 -0.34 2.04 0 0 Z " fill="#D5DAD2" transform="translate(37,21)" />
<path d="M0 0 C0.66 0.165 0.66 0.165 4 1 C4.125 6.75 4.125 6.75 3 9 C2.34 9 1.68 9 1 9 C1 8.34 1 7.68 1 7 C0.34 7 -0.32 7 -1 7 C0 5 0 5 1 4 C0.34 3.34 -0.32 2.68 -1 2 C-0.67 1.34 -0.34 0.68 0 0 Z " fill="#596162" transform="translate(54,51)" />
<path d="M0 0 C0.33 0.99 0.66 1.98 1 3 C0.01 3.99 -0.98 4.98 -2 6 C-2 5.34 -2 4.68 -2 4 C-2.66 4 -3.32 4 -4 4 C-4 4.66 -4 5.32 -4 6 C-5.98 6.66 -7.96 7.32 -10 8 C-9.34 6.68 -8.68 5.36 -8 4 C-7.01 4 -6.02 4 -5 4 C-4.67 3.34 -4.34 2.68 -4 2 C-3.34 2.33 -2.68 2.66 -2 3 C-2 2.34 -2 1.68 -2 1 C-1.34 0.67 -0.68 0.34 0 0 Z " fill="#697273" transform="translate(51,49)" />
<path d="M0 0 C0.99 0.33 1.98 0.66 3 1 C3 1.66 3 2.32 3 3 C3.99 3.33 4.98 3.66 6 4 C6.33 4.99 6.66 5.98 7 7 C7.66 7.66 8.32 8.32 9 9 C7.35 9 5.7 9 4 9 C3.71125 8.360625 3.4225 7.72125 3.125 7.0625 C2 5 2 5 0 4 C0 2.68 0 1.36 0 0 Z " fill="#40423D" transform="translate(29,29)" />
<path d="M0 0 C3.375 -0.125 3.375 -0.125 7 0 C7.66 0.66 8.32 1.32 9 2 C11.125 2.625 11.125 2.625 13 3 C12.67 3.495 12.67 3.495 11 6 C11 5.34 11 4.68 11 4 C8.69 4 6.38 4 4 4 C3.67 3.34 3.34 2.68 3 2 C2.01 1.67 1.02 1.34 0 1 C0 0.67 0 0.34 0 0 Z " fill="#47483A" transform="translate(48,22)" />
<path d="M0 0 C0.99 0.33 1.98 0.66 3 1 C1.35 3.31 -0.3 5.62 -2 8 C-3.32 7.67 -4.64 7.34 -6 7 C-5.34 5.35 -4.68 3.7 -4 2 C-2.68 2 -1.36 2 0 2 C0 1.34 0 0.68 0 0 Z " fill="#596263" transform="translate(43,61)" />
<path d="M0 0 C0.99 0.33 1.98 0.66 3 1 C3 1.99 3 2.98 3 4 C4.32 4.33 5.64 4.66 7 5 C7.12375 5.639375 7.2475 6.27875 7.375 6.9375 C7.478125 7.2778125 7.478125 7.2778125 8 9 C8.66 9.33 9.32 9.66 10 10 C10 11.98 10 13.96 10 16 C9.71125 15.38125 9.4225 14.7625 9.125 14.125 C8 12 8 12 6 10 C6 9.01 6 8.02 6 7 C5.38125 6.773125 4.7625 6.54625 4.125 6.3125 C1.38589791 4.62070165 0.94975528 3.00755839 0 0 Z " fill="#403F30" transform="translate(26,46)" />
<path d="M0 0 C2.31 0 4.62 0 7 0 C7.309375 0.804375 7.61875 1.60875 7.9375 2.4375 C9 5 9 5 10 6 C10.04063832 7.66617115 10.042721 9.33388095 10 11 C8 10 8 10 6.6875 6.5625 C5 3 5 3 2.3125 1.5625 C1.9309375 1.4696875 1.9309375 1.4696875 0 1 C0 0.67 0 0.34 0 0 Z " fill="#90938D" transform="translate(55,36)" />
<path d="M0 0 C1.1875 1.6875 1.1875 1.6875 2 4 C0.625 6.625 0.625 6.625 -1 9 C-1 9.66 -1 10.32 -1 11 C-1.99 10.67 -2.98 10.34 -4 10 C-3.52449439 8.51965236 -3.04448784 7.04074979 -2.5625 5.5625 C-2.29566406 4.73878906 -2.02882812 3.91507813 -1.75390625 3.06640625 C-1 1 -1 1 0 0 Z " fill="#6F7572" transform="translate(40,57)" />
<path d="M0 0 C1.32 0 2.64 0 4 0 C4 0.66 4 1.32 4 2 C5.155 1.835 5.155 1.835 11 1 C11.33 1.99 11.66 2.98 12 4 C10.68 4.33 9.36 4.66 8 5 C8 4.67 8 4.34 8 4 C7.01 3.835 7.01 3.835 2 3 C2 2.34 2 1.68 2 1 C1.34 0.67 0.68 0.34 0 0 Z " fill="#56584A" transform="translate(37,18)" />
<path d="M0 0 C0.7425 0.185625 1.485 0.37125 2.25 0.5625 C5.09904885 1.01575777 6.27269324 0.70130745 9 0 C11.67302019 -0.0927059 14.32412069 -0.04459799 17 0 C17 0.33 17 0.66 17 1 C11.61972975 2.19088986 6.54708616 3.2919519 1 3 C0.67 2.01 0.34 1.02 0 0 Z " fill="#3F3D2F" transform="translate(60,26)" />
<path d="M0 0 C2.31 0.33 4.62 0.66 7 1 C6.34 2.65 5.68 4.3 5 6 C3.0625 5.25 3.0625 5.25 1 4 C0.25 1.875 0.25 1.875 0 0 Z " fill="#B6B9AF" transform="translate(25,17)" />
<path d="M0 0 C0.66 0 1.32 0 2 0 C0.85569823 3.87302138 -0.23320098 7.00263439 -3 10 C-3.66 10 -4.32 10 -5 10 C-3.125 5.25 -3.125 5.25 -2 3 C-1.34 3 -0.68 3 0 3 C0 2.01 0 1.02 0 0 Z " fill="#1A2427" transform="translate(53,49)" />
<path d="M0 0 C0.66 0 1.32 0 2 0 C2 0.66 2 1.32 2 2 C2.66 2 3.32 2 4 2 C4 2.66 4 3.32 4 4 C4.99 4 5.98 4 7 4 C7 5.32 7 6.64 7 8 C5.68 8 4.36 8 3 8 C2.67 7.01 2.34 6.02 2 5 C2.33 4.34 2.66 3.68 3 3 C2.34 3 1.68 3 1 3 C0.67 2.01 0.34 1.02 0 0 Z " fill="#BBC2C1" transform="translate(25,33)" />
<path d="M0 0 C0.99 0 1.98 0 3 0 C3.33 1.98 3.66 3.96 4 6 C2.68 5.67 1.36 5.34 0 5 C-0.5625 3.0625 -0.5625 3.0625 -1 1 C-0.67 0.67 -0.34 0.34 0 0 Z " fill="#E6E7E2" transform="translate(52,28)" />
<path d="M0 0 C0.825 0.165 0.825 0.165 5 1 C5 2.32 5 3.64 5 5 C3.35 5 1.7 5 0 5 C0 3.35 0 1.7 0 0 Z " fill="#E1E4E0" transform="translate(45,25)" />
<path d="M0 0 C4.08718695 -0.24042276 7.17679443 0.57741188 11 2 C11 2.66 11 3.32 11 4 C6.94393835 3.53199289 3.53411321 3.12046792 0 1 C0 0.67 0 0.34 0 0 Z " fill="#3F4136" transform="translate(37,30)" />
<path d="M0 0 C2.31 0.33 4.62 0.66 7 1 C7 1.99 7 2.98 7 4 C6.34 4 5.68 4 5 4 C5 3.34 5 2.68 5 2 C4.01 2 3.02 2 2 2 C1.67 3.98 1.34 5.96 1 8 C0.67 8 0.34 8 0 8 C0 5.36 0 2.72 0 0 Z " fill="#979B96" transform="translate(17,25)" />
<path d="M0 0 C0.66 0 1.32 0 2 0 C2.33 2.97 2.66 5.94 3 9 C2.34 9 1.68 9 1 9 C0.67 6.03 0.34 3.06 0 0 Z " fill="#1C252D" transform="translate(70,33)" />
<path d="M0 0 C1.093125 0.226875 2.18625 0.45375 3.3125 0.6875 C1.3125 2.6875 1.3125 2.6875 -0.6328125 2.8828125 C-2.65104167 2.81770833 -4.66927083 2.75260417 -6.6875 2.6875 C-4.58035839 -0.41123767 -3.86755884 -0.32775922 0 0 Z " fill="#424237" transform="translate(44.6875,68.3125)" />
<path d="M0 0 C0.66 0 1.32 0 2 0 C0.71700242 2.86207152 -0.530636 5.0245088 -3 7 C-3.99 7 -4.98 7 -6 7 C-6 6.34 -6 5.68 -6 5 C-5.38125 4.731875 -4.7625 4.46375 -4.125 4.1875 C-2 3 -2 3 0 0 Z " fill="#44443B" transform="translate(54,62)" />
<path d="M0 0 C-0.99 0.33 -1.98 0.66 -3 1 C-3.33 1.66 -3.66 2.32 -4 3 C-4.66 2.34 -5.32 1.68 -6 1 C-7.31747324 0.30251417 -8.64914193 -0.36959957 -10 -1 C-6.18510326 -2.46726798 -3.70988378 -1.43336419 0 0 Z " fill="#56574A" transform="translate(54,35)" />
</svg>