<svg xmlns="http://www.w3.org/2000/svg" width="64" height="64" viewBox="0 0 64 64"><defs></defs><path fill="#BC043D" d="M30.9 17c0 .5-1.4 1-1.9 1h-8.2c-.5 0-1.9-.4-1.9-1l.9-2.4c0-.5.4-.9.9-.9H29c.5 0 .9.4.9.9l1 2.4z"></path><path fill="#9B053B" d="M30.9 17l-.9-2.4v-.2H20v.2L18.9 17c0 .5 1.4 1 1.9 1H29c.5 0 1.9-.4 1.9-1z"></path><path fill="#D3DDDD" d="M26.4 16.4c0 .1-.1.3-.3.3h-2.6c-.1 0-.3-.1-.3-.3l.5-2.6c0-.1.1-.3.3-.3h1.5c.1 0 .3.1.3.3l.6 2.6z"></path><path fill="#DB0940" d="M3.4 41.4c0 .6-.5.5-1 .5-.6 0-1-.4-1-1v-4.5c0-.6.4-1 1-1s1 .4 1 1v5z"></path><path fill="#BC043D" d="M2.4 35.4c.6 0 1 .4 1 1v5c0 .6-.5.5-1 .5"></path><path fill="#E1EAEA" d="M60 34.5c0 1.1-.9 2-2 2h-5.4c-1.1 0-2-.9-2-2v-1.3c0-1.1.9-2 2-2H58c1.1 0 2 .9 2 2v1.3zM48.1 21.5c0 1.2-.9 2.1-2.1 2.1H5.8c-1.2 0-2.1-.9-2.1-2.1v-3.4c0-1.1.9-2.1 2.1-2.1H46c1.2 0 2.1.9 2.1 2.1v3.4z"></path><path fill="#D3DDDD" d="M61.5 33.6c0-.8-.7-1.5-1.5-1.5h-4.4l-5.3-12c0-1.1-.9-2-2-2H48c-.3-.8-1.1-1.5-2-1.5L6.7 17.7c-1.1 0-2.9-.3-3 .8-.5.4-.8.9-.8 1.6v12.1c-.6.2-1.1.7-1.1 1.4v9.8c0 .8.7 1.5 1.5 1.5H61c.8 0 1.5-.7 1.5-1.5l-1-9.8z"></path><path fill="#C9D3D3" d="M62.1 39.3l-.4-3.8H1.8v7.9c0 .8.7 1.5 1.5 1.5H61c.4 0 .8-.2 1.1-.5v-5.1z"></path><path fill="#ADC4C3" d="M63 45.4c0 .6-.4 1-1 1H2c-.6 0-1-.4-1-1v-.6c0-.6.4-1 1-1h60c.6 0 1 .4 1 1v.6z"></path><path d="M7.2 44.6c0-3.4 2.8-6.2 6.2-6.2 3.4 0 6.2 2.8 6.2 6.2"></path><path fill="#ADC4C3" d="M19.9 44.6h-.5c0-3.3-2.7-6-6-6s-6 2.7-6 6h-.5c0-3.6 2.9-6.5 6.5-6.5s6.5 3 6.5 6.5z"></path><circle fill="#203547" cx="13.4" cy="44.9" r="5.6"></circle><path fill="#122130" d="M17.4 40.9c2.2 2.2 2.2 5.7 0 7.9s-5.7 2.2-7.9 0"></path><circle fill="#6E7577" cx="13.4" cy="44.9" r="3.5"></circle><path fill="#4C5456" d="M15.9 42.4c1.4 1.4 1.4 3.6 0 5s-3.6 1.4-5 0"></path><circle fill="#CED8DD" cx="13.4" cy="44.9" r="3.1"></circle><path fill="#B2BBC1" d="M15.6 42.7c1.2 1.2 1.2 3.2 0 4.4s-3.2 1.2-4.4 0"></path><path opacity=".2" fill="#888F91" d="M14.8 44.9c0 .8-.6 1.7-1.4 1.7-.8 0-1.4-.9-1.4-1.7s.6-1.4 1.4-1.4c.8-.1 1.4.6 1.4 1.4z"></path><circle fill="#E7EFF2" cx="13.4" cy="44.9" r="1.4"></circle><path fill="#DAE6EA" d="M13.4 43.4c.8 0 1.4.6 1.4 1.4s-.6 1.4-1.4 1.4"></path><path fill="#666E70" d="M13.4 41.8H13c.1.4.2.8.4.8s.4-.3.4-.8h-.4z"></path><path fill="#535A5B" d="M13.4 42.6c.2 0 .4-.3.4-.8h-.4"></path><path fill="#666E70" d="M13 47.9h.8c-.1-.4-.2-.8-.4-.8-.2.1-.3.4-.4.8z"></path><path fill="#535A5B" d="M13.8 47.9c-.1-.4-.2-.8-.4-.8"></path><path fill="#666E70" d="M11 43c.4.3.7.4.8.2.1-.1 0-.5-.2-.8-.3.2-.5.4-.6.6z"></path><path fill="#535A5B" d="M11.8 43.3c.1-.1 0-.5-.2-.8"></path><path fill="#666E70" d="M15.9 46.7c-.4-.3-.7-.4-.8-.2-.1.1 0 .5.2.8l.3-.3c.1 0 .2-.1.3-.3z"></path><path fill="#535A5B" d="M15.6 47.1l.3-.3c-.4-.3-.7-.4-.8-.2"></path><path fill="#666E70" d="M10.4 45.3c.4-.1.8-.2.8-.4s-.3-.4-.8-.4v.4c-.1.1-.1.3 0 .4z"></path><path fill="#535A5B" d="M11.1 44.9c0-.2-.3-.4-.8-.4v.4"></path><path fill="#666E70" d="M15.7 44.9c0 .2.3.4.8.4v-.8c-.5 0-.8.2-.8.4z"></path><path fill="#535A5B" d="M16.5 44.5c-.4.1-.8.2-.8.4"></path><path fill="#666E70" d="M11 46.7l.6.6c.3-.4.4-.7.2-.8-.1-.1-.5 0-.8.2z"></path><path fill="#535A5B" d="M11.5 47.3c.3-.4.4-.7.2-.8"></path><path fill="#666E70" d="M15.3 42.4c-.3.4-.4.7-.2.8.1.1.5 0 .8-.2l-.6-.6z"></path><path fill="#535A5B" d="M15.3 42.4c-.3.4-.4.7-.2.8"></path><path d="M44 44.6c0-3.4 2.8-6.2 6.2-6.2 3.4 0 6.2 2.8 6.2 6.2"></path><path fill="#ADC4C3" d="M56.7 44.6h-.5c0-3.3-2.7-6-6-6s-6 2.7-6 6h-.5c0-3.6 2.9-6.5 6.5-6.5s6.5 3 6.5 6.5z"></path><circle fill="#203547" cx="50.3" cy="44.9" r="5.6"></circle><path fill="#122130" d="M54.2 40.9c2.2 2.2 2.2 5.7 0 7.9s-5.7 2.2-7.9 0"></path><circle fill="#6E7577" cx="50.3" cy="44.9" r="3.5"></circle><path fill="#4C5456" d="M52.7 42.4c1.4 1.4 1.4 3.6 0 5s-3.6 1.4-5 0"></path><circle fill="#CED8DD" cx="50.3" cy="44.9" r="3.1"></circle><path fill="#B2BBC1" d="M52.4 42.7c1.2 1.2 1.2 3.2 0 4.4-1.2 1.2-3.2 1.2-4.4 0"></path><path opacity=".2" fill="#888F91" d="M51.7 44.9c0 .8-.6 1.7-1.4 1.7s-1.4-.9-1.4-1.7.6-1.4 1.4-1.4 1.4.6 1.4 1.4z"></path><circle fill="#E7EFF2" cx="50.3" cy="44.9" r="1.4"></circle><path fill="#DAE6EA" d="M50.3 43.4c.8 0 1.4.6 1.4 1.4s-.6 1.4-1.4 1.4"></path><path fill="#666E70" d="M50.3 41.8h-.4c.1.4.2.8.4.8s.4-.3.4-.8h-.4z"></path><path fill="#535A5B" d="M50.3 42.6c.2 0 .4-.3.4-.8h-.4"></path><path fill="#666E70" d="M49.8 47.9h.8c-.1-.4-.2-.8-.4-.8-.1.1-.3.4-.4.8z"></path><path fill="#535A5B" d="M50.7 47.9c-.1-.4-.2-.8-.4-.8"></path><path fill="#666E70" d="M47.8 43c.4.3.7.4.8.2.1-.1 0-.5-.2-.8l-.6.6z"></path><path fill="#535A5B" d="M48.6 43.3c.1-.1 0-.5-.2-.8"></path><path fill="#666E70" d="M52.7 46.7c-.4-.3-.7-.4-.8-.2-.1.1 0 .5.2.8l.3-.3c.1 0 .2-.1.3-.3z"></path><path fill="#535A5B" d="M52.4 47.1l.3-.3c-.4-.3-.7-.4-.8-.2"></path><path fill="#666E70" d="M47.2 45.3c.4-.1.8-.2.8-.4s-.3-.4-.8-.4v.8z"></path><path fill="#535A5B" d="M48 44.9c0-.2-.3-.4-.8-.4v.4"></path><path fill="#666E70" d="M52.5 44.9c0 .2.3.4.8.4v-.8c-.4 0-.8.2-.8.4z"></path><path fill="#535A5B" d="M53.3 44.5c-.4.1-.8.2-.8.4"></path><path fill="#666E70" d="M47.8 46.7l.6.6c.3-.4.4-.7.2-.8-.1-.1-.4 0-.8.2z"></path><path fill="#535A5B" d="M48.4 47.3c.3-.4.4-.7.2-.8"></path><path fill="#666E70" d="M52.1 42.4c-.3.4-.4.7-.2.8.1.1.5 0 .8-.2l-.6-.6z"></path><path fill="#535A5B" d="M52.1 42.4c-.3.4-.4.7-.2.8"></path><path fill="#51859B" d="M55.2 31.1l-4.6-10.5H40c-.6 0-1.1.5-1.1 1.1v8.4c0 .6.5 1.1 1.1 1.1h14.9c.1 0 .2 0 .3-.1z"></path><g fill="#81B6C9"><path d="M43.7 20.6h-2.9l-2 2v2.9zM50.5 31.2h4.4c.1 0 .2 0 .3-.1l-1.4-3.2-3.3 3.3z"></path></g><path fill="#D3DDDD" d="M51 31.9c.1.3-.1.6-.4.7-.3.1-.6-.1-.7-.4L46.5 19c-.1-.3.1-.6.4-.7.3-.1.6.1.7.4L51 31.9z"></path><path fill="#8E8E8E" d="M41.7 33.7c0 .4-.3.7-.7.7h-1.6c-.4 0-.7-.3-.7-.7 0-.4.3-.7.7-.7H41c.4 0 .7.3.7.7z"></path><g fill="#DDEDED"><path d="M23.1 39.9c0 .1-.1.2-.2.2h-1.3c-.1 0-.2-.1-.2-.2s.1-.2.2-.2h1.3c.1 0 .2.1.2.2zM23.1 41c0 .1-.1.2-.2.2h-1.3c-.1 0-.2-.1-.2-.2s.1-.2.2-.2h1.3c.1 0 .2 0 .2.2zM23.1 42c0 .1-.1.2-.2.2h-1.3c-.1 0-.2-.1-.2-.2s.1-.2.2-.2h1.3c.1 0 .2.1.2.2z"></path></g><path fill="#FFA300" d="M62.1 40.3c0 .5-.4.8-.8.8-.5 0-.8-.4-.8-.8v-4.1c0-.5.4-.8.8-.8.5 0 .8.4.8.8v4.1z"></path><path fill="#FF7300" d="M61.2 41.2c-.5 0-.8-.4-.8-.8v-4.1c0-.5.4-.8.8-.8"></path><path fill="#BC043D" d="M19.9 26.2h-3.8v-3.8c0-.8-.7-1.5-1.5-1.5H13c-.8 0-1.5.7-1.5 1.5v3.8H7.9c-.8 0-1.5.7-1.5 1.5v1.6c0 .8.7 1.5 1.5 1.5h3.8v3.8c0 .8.7 1.5 1.5 1.5h1.6c.8 0 1.5-.7 1.5-1.5v-3.8h3.8c.8 0 1.5-.7 1.5-1.5v-1.6c-.2-.9-.9-1.5-1.7-1.5zM19.9 26.2h-3.8v-3.8c0-.8-.7-1.5-1.5-1.5H13c-.8 0-1.5.7-1.5 1.5v3.8H7.9c-.8 0-1.5.7-1.5 1.5v1.6c0 .8.7 1.5 1.5 1.5h3.8v3.8c0 .8.7 1.5 1.5 1.5h1.6c.8 0 1.5-.7 1.5-1.5v-3.8h3.8c.8 0 1.5-.7 1.5-1.5v-1.6c-.2-.9-.9-1.5-1.7-1.5z"></path></svg>