<svg xmlns="http://www.w3.org/2000/svg" width="65" height="65" viewBox="0 0 65 65"><defs></defs><path fill="#E09B00" d="M56.5 41.375c0 10.628-10.744 14.054-24 14.054s-24-3.427-24-14.055c0-10.63 10.744-19.242 24-19.242s24 8.614 24 19.242z"></path><path fill="#EFB600" d="M8.5 41.375c0-10.63 10.744-19.242 24-19.242"></path><path fill="#DB8C00" d="M32.5 22.133c13.256 0 24 8.613 24 19.242 0 10.628-10.744 14.054-24 14.054"></path><path fill="#E09B00" d="M32.5 22.133c13.256 0 24 8.613 24 19.242"></path><path fill="#F4C237" d="M50.33 16.993c0 7.895-7.983 10.44-17.83 10.44s-17.83-2.545-17.83-10.44c0-7.894 7.983-14.295 17.83-14.295s17.83 6.4 17.83 14.295z"></path><path fill="#EFB600" d="M50.33 16.993c0 7.895-7.983 10.44-17.83 10.44s-17.83-2.545-17.83-10.44c0-7.894 7.983-12.868 17.83-12.868S50.33 9.1 50.33 16.993z"></path><path fill="#EDA900" d="M50.33 16.993c0 7.895-7.983 10.44-17.83 10.44s-17.83-2.545-17.83-10.44"></path><circle fill="#2D2612" cx="24.572" cy="12.53" r="1.948"></circle><path fill="#443B23" d="M22.624 12.53c0 .197.038.384.094.563.18.055.366.093.564.093 1.075 0 1.947-.87 1.947-1.947 0-.2-.04-.386-.095-.566-.18-.055-.366-.092-.562-.092-1.076 0-1.95.872-1.95 1.948z"></path><circle fill="#2D2612" cx="40.427" cy="12.53" r="1.947"></circle><path fill="#443B23" d="M38.48 12.53c0 .197.038.384.09.563.182.055.37.093.565.093 1.075 0 1.947-.87 1.947-1.947 0-.2-.038-.386-.094-.566-.177-.055-.364-.092-.562-.092-1.076 0-1.947.872-1.947 1.948z"></path><path fill="#D15400" d="M36.657 15.642l-3.844-2.718c-.188-.134-.438-.134-.627 0l-3.844 2.718c-.152.105-.236.28-.23.463.007.184.106.352.264.448l3.844 2.31c.085.05.183.076.28.076.095 0 .193-.026.28-.078l3.844-2.31c.158-.095.255-.263.263-.447.006-.183-.08-.358-.23-.463z"></path><path fill="#FF6D00" d="M36.657 15.642l-3.844-2.718c-.188-.134-.438-.134-.627 0l-3.844 2.718c-.152.105-.236.28-.23.463.007.184.106.352.264.448l3.844.722c.085.053.183.08.28.08.095 0 .193-.026.28-.08l3.844-.722c.158-.096.255-.264.263-.448.006-.183-.08-.358-.23-.463z"></path><ellipse fill="#DB8C00" cx="27.512" cy="52.554" rx="3.024" ry=".95"></ellipse><path fill="#D15400" d="M29 58.06c0 .9-.6 1.63-1.5 1.63s-1.5-.73-1.5-1.63v-5.075c0-.9.6-.543 1.5-.543s1.5-.356 1.5.543v5.075zM21.79 62.302c-.6 0-1.086-.515-1.086-1.117 0-1.74 1.416-3.186 3.155-3.186h4.002c.602 0 1.088.398 1.088 1 0 .6-.487 1-1.088 1H23.86c-.543 0-.982.556-.982 1.097 0 .602-.485 1.205-1.087 1.205zM24.916 62.302c-.6 0-1.086-.515-1.086-1.117 0-1.74 1.416-3.186 3.156-3.186h2.905c.6 0 1.088.398 1.088 1 0 .6-.487 1-1.087 1h-2.904c-.542 0-.98.556-.98 1.097-.002.602-.488 1.205-1.09 1.205z"></path><ellipse fill="#E09B00" cx="37.488" cy="52.554" rx="3.024" ry=".95"></ellipse><path fill="#D15400" d="M36 58.06c0 .9.6 1.63 1.5 1.63s1.5-.73 1.5-1.63v-5.075c0-.9-.6-.543-1.5-.543s-1.5-.357-1.5.542v5.076zM43.21 62.302c.6 0 1.086-.515 1.086-1.117 0-1.74-1.416-3.186-3.157-3.186h-4.004c-.6 0-1.088.398-1.088 1 0 .6.487 1 1.088 1h4.003c.54 0 .982.556.982 1.097 0 .602.485 1.205 1.087 1.205zM40.084 62.302c.6 0 1.086-.515 1.086-1.117 0-1.74-1.416-3.186-3.158-3.186H35.11c-.6 0-1.088.398-1.088 1 0 .6.487 1 1.087 1h2.902c.542 0 .983.556.983 1.097 0 .602.487 1.205 1.09 1.205z"></path></svg>