<svg xmlns="http://www.w3.org/2000/svg" width="64" height="64" viewBox="0 0 64 64"><defs></defs><path fill="#890606" d="M20 10h3v7h-3zM41 10h3v7h-3z"></path><path fill="#ED5B3A" d="M44 10.4c0 .9-.9 1.6-2.3 1.6H22.3c-1.5 0-2.3-.7-2.3-1.6V7.6c0-1 .9-1.6 2.3-1.6h19.3c1.5 0 2.4.6 2.4 1.6v2.8z"></path><path fill="#F48B56" d="M41.7 6H22.3c-1.4 0-2.3.6-2.3 1.6v.1C23 8.5 27 9 32 9s9-.5 12-1.4c0-1-.9-1.6-2.3-1.6z"></path><path fill="#08476B" d="M63 54.9c0 1.7-1.4 3.1-3.1 3.1H4.1C2.4 58 1 56.6 1 54.9V19.1C1 17.4 2.4 16 4.1 16h55.8c1.7 0 3.1 1.4 3.1 3.1v35.8z"></path><path fill="#05365B" d="M1.2 19c0-1.7 1.4-3 3.1-3h55.4c1.7 0 3.3 1.4 3.3 3.1V55c0 1.7-1.6 3-3.3 3H35"></path><path fill="#002C47" d="M32 44.8c14 0 26-4.9 31-11.7v-9.3c0-1.7-1.6-2.8-3.3-2.8H4.3C2.6 21 1 22.1 1 23.8v9.3C6 40 18 44.8 32 44.8z"></path><path fill="#2072A0" d="M32 40.2c14 0 26-4.9 31-11.7v-9.3c0-1.7-1.6-3.1-3.3-3.1H4.1C2.4 16 1 17.4 1 19.1v9.3c5 6.9 17 11.8 31 11.8z"></path><path fill="#195F8E" d="M32 40.1c14 0 26-4.8 31-11.7v-9.3c0-1.7-1.4-3.1-3.1-3.1H4"></path><path fill="#002C47" d="M36 47.2c0 .8-.6 1.8-1.5 1.8h-4.7c-.9 0-1.7-1.1-1.7-1.8v-9.9c0-.8.6-.2 1.5-.2h4.9c.9 0 1.5-.5 1.5.2v9.9z"></path><path fill="#ED5B3A" d="M36 45c0 .8-.6 1-1.5 1h-4.9c-.9 0-1.5-.2-1.5-1v-9.9c0-.8.6-.1 1.5-.1h4.9c.9 0 1.5-.7 1.5.1V45z"></path><path fill="#DD4228" d="M28 35.1c0-.8.6-.1 1.5-.1h4.9c.9 0 1.5-.7 1.5.1V45c0 .8-.6 1-1.5 1"></path><path fill="#B53023" d="M34 43.6c0 .4-.1.4-.6.4h-2.8c-.5 0-.6 0-.6-.4v-6.7c0-.4.3.1.9.1h2.3c.5 0 .8-.5.8-.1v6.7z"></path><path fill="#9B1812" d="M30 36.9c0-.4.5.1 1 .1h2.1c.5 0 .9-.5.9-.1v6.7c0 .4-.2.4-.8.4"></path></svg>