<svg xmlns="http://www.w3.org/2000/svg" width="64" height="64" viewBox="0 0 64 64"><defs></defs><path fill="#89867C" d="M32.5 35.4c-1.5 0-2.8-1.3-2.8-2.8V16.4c0-1.5 1.3-2.8 2.8-2.8h6.2V17H33v15.6c0-.3-.3-.6-.6-.6v3.4z"></path><path fill="#6D6B64" d="M32.5 17c-1.5 0-2.8 1.3-2.8 2.8v12.8c0 1.5 1.3 2.8 2.8 2.8V32c.3 0 .6.3.6.6V17h-.6zM39.1 17.3c0 .3-.3.6-.6.6s-.6-.3-.6-.6v-3.8c0-.3.3-.6.6-.6s.6.3.6.6v3.8z"></path><path fill="#FFAE0B" d="M41.1 30.4c0 .4-.3.7-.7.7H23.9c-.4 0-.7-.3-.7-.7l1.5-6.2c0-.4.3-.7.7-.7h12.7c.4 0 .7.3.7.7l2.3 6.2z"></path><path fill="#FFD00D" d="M45.7 36.5c0 .6-.5 1.1-1.1 1.1h-25c-.6 0-1.1-.5-1.1-1.1l2.2-9.4c0-.6.5-1.1 1.1-1.1h19.4c.6 0 1.1.5 1.1 1.1l3.4 9.4z"></path><path fill="#FFAE0B" d="M45.7 37.1c0 .6-.5 1.1-1.1 1.1h-25c-.6 0-1.1-.5-1.1-1.1l2.2-9.4c0-.6.5-1.1 1.1-1.1h19.4c.6 0 1.1.5 1.1 1.1l3.4 9.4z"></path><g fill="#7A8487"><path d="M9.9 47.4c0 .7-.2 1.3-.5 1.3-.2 0-.9-1.2-.9-1.9s.7-.6.9-.6c.3 0 .5.5.5 1.2zM8.5 49.9c0-.7.2-1.3.5-1.3.2 0 .9 1.2.9 1.9s-.7.6-.9.6c-.3.1-.5-.5-.5-1.2z"></path></g><path fill="#596568" d="M18.9 48.7c0 .2-.2.4-.4.4H9.6c-.2 0-.4-.2-.4-.4s.2-.4.4-.4h8.9c.2 0 .4.1.4.4z"></path><path fill="#7A8487" d="M40.3 49.8c0 .6-.5 1.1-1.1 1.1H15.7c-.6 0-1.1-.5-1.1-1.1v-2.5c0-.6.5-1.1 1.1-1.1h23.5c.6 0 1.1.5 1.1 1.1v2.5z"></path><path fill="#596568" d="M41.7 49.8c0 .6-.5 1.1-1.1 1.1H17.1c-.6 0-1.1-.5-1.1-1.1v-2.5c0-.6.5-1.1 1.1-1.1h23.5c.6 0 1.1.5 1.1 1.1v2.5z"></path><path fill="#FFD00D" d="M9.8 36.7c0 2.5-4.8 4.6-6.2 4.6S1 39.2 1 36.7c0-2.5.3-5.4 1.7-5.4 1.5 0 7.1 2.9 7.1 5.4z"></path><path fill="#FFAE0B" d="M7.8 36.7c0 2.5-2.7 4.6-4.2 4.6S1 39.2 1 36.7c0-2.5.3-5.4 1.7-5.4 1.5 0 5.1 2.9 5.1 5.4z"></path><path fill="#FFD00D" d="M63 40.4C63 45.1 58.1 51 41 51 24 51 1.2 45.1 1.2 40.4s13.8-8.5 30.9-8.5c17.1 0 30.9 3.8 30.9 8.5z"></path><path fill="#FFAE0B" d="M63 40.4C63 45.1 58.1 51 41 51 24 51 1.2 45.1 1.2 40.4s16.2-6.8 33.2-6.8c17.1 0 28.6 2.1 28.6 6.8z"></path><path fill="#FF860D" d="M63 40.4C63 45.1 58.1 51 41 51 24 51 1.2 45.1 1.2 40.4"></path><path fill="#E56A0E" d="M21.3 45.3c-1.5 0-2.7-2.4-2.7-3.9s1.2-2.7 2.7-2.7c1.5 0 2.7 1.2 2.7 2.7s-1.2 3.9-2.7 3.9z"></path><path fill="#77ACBF" d="M21.3 44.2c-1.5 0-2.7-1.2-2.7-2.7s1.2-2.7 2.7-2.7c1.5 0 2.7 1.2 2.7 2.7s-1.2 2.7-2.7 2.7z"></path><path fill="#E8D918" d="M21.3 39c1.4 0 2.5 1.1 2.5 2.5S22.7 44 21.3 44s-2.5-1.1-2.5-2.5S20 39 21.3 39m0-.6c-1.7 0-3 1.4-3 3 0 1.7 1.4 3 3 3 1.7 0 3-1.4 3-3s-1.3-3-3-3z"></path><path fill="#539AAD" d="M18.8 41.4c0 1.4 1.1 2.5 2.5 2.5s2.5-1.1 2.5-2.5c0-.4-.1-.7-.2-1h-4.5c-.2.3-.3.7-.3 1z"></path><path fill="#E56A0E" d="M32.1 45.3c-1.5 0-2.7-2.4-2.7-3.9s1.2-2.7 2.7-2.7c1.5 0 2.7 1.2 2.7 2.7s-1.2 3.9-2.7 3.9z"></path><path fill="#77ACBF" d="M32.1 44.2c-1.5 0-2.7-1.2-2.7-2.7s1.2-2.7 2.7-2.7c1.5 0 2.7 1.2 2.7 2.7s-1.2 2.7-2.7 2.7z"></path><path fill="#E8D918" d="M32.1 39c1.4 0 2.5 1.1 2.5 2.5S33.5 44 32.1 44s-2.5-1.1-2.5-2.5 1.2-2.5 2.5-2.5m0-.6c-1.7 0-3 1.4-3 3 0 1.7 1.4 3 3 3 1.7 0 3-1.4 3-3s-1.3-3-3-3z"></path><path fill="#539AAD" d="M29.6 41.4c0 1.4 1.1 2.5 2.5 2.5s2.5-1.1 2.5-2.5c0-.4-.1-.7-.2-1h-4.5c-.2.3-.3.7-.3 1z"></path><path fill="#E56A0E" d="M42.9 45.3c-1.5 0-2.7-2.4-2.7-3.9s1.2-2.7 2.7-2.7c1.5 0 2.7 1.2 2.7 2.7s-1.2 3.9-2.7 3.9z"></path><path fill="#77ACBF" d="M42.9 44.2c-1.5 0-2.7-1.2-2.7-2.7s1.2-2.7 2.7-2.7c1.5 0 2.7 1.2 2.7 2.7s-1.2 2.7-2.7 2.7z"></path><path fill="#E8D918" d="M42.9 39c1.4 0 2.5 1.1 2.5 2.5S44.3 44 42.9 44s-2.5-1.1-2.5-2.5 1.2-2.5 2.5-2.5m0-.6c-1.7 0-3 1.4-3 3 0 1.7 1.4 3 3 3 1.7 0 3-1.4 3-3s-1.3-3-3-3z"></path><path fill="#539AAD" d="M40.4 41.4c0 1.4 1.1 2.5 2.5 2.5s2.5-1.1 2.5-2.5c0-.4-.1-.7-.2-1h-4.5c-.2.3-.3.7-.3 1z"></path><path fill="#7A8487" d="M9.8 48.7c0 .3-.3.6-.6.6s-.6-.3-.6-.6.3-.6.6-.6.6.2.6.6z"></path></svg>