<svg xmlns="http://www.w3.org/2000/svg" width="64" height="64" viewBox="0 0 64 64"><defs></defs><ellipse fill="#1E4784" cx="32" cy="19.8" rx="11.4" ry="11.2"></ellipse><path fill="#00233F" d="M32 8.6c6.3 0 11.4 5 11.4 11.2C43.4 26 38.3 31 32 31"></path><ellipse fill="#1E4784" cx="32" cy="41.3" rx="17.2" ry="21.7"></ellipse><path fill="#00233F" d="M32 19.6c9.5 0 17.2 9.7 17.2 21.7S41.5 63 32 63"></path><path fill="#EF256E" d="M31.7 19.8C20.7 18 10 25 7.3 36.1c-2.7 11 3.7 22.1 14.3 25.6l10.1-41.9z"></path><path fill="#D11550" d="M7.4 36.1c-2.7 11 3.7 22.1 14.3 25.6l10.1-41.8"></path><circle fill="#F9E0B4" cx="16" cy="48" r="3.2"></circle><circle fill="#F9E0B4" cx="12" cy="41.5" r="1.3"></circle><circle fill="#F9E0B4" cx="12.9" cy="33.8" r="2.5"></circle><circle fill="#F9E0B4" cx="17.1" cy="37.9" r=".3"></circle><circle fill="#F9E0B4" cx="21.5" cy="28.8" r="3.5"></circle><circle fill="#F9E0B4" cx="22.1" cy="38.7" r="1.4"></circle><circle fill="#F9E0B4" cx="16.9" cy="41.3" r=".4"></circle><circle fill="#F9E0B4" cx="14.6" cy="28.1" r=".8"></circle><circle fill="#F9E0B4" cx="27.2" cy="23" r="1.5"></circle><circle fill="#F9E0B4" cx="21" cy="22.5" r=".6"></circle><circle fill="#F9E0B4" cx="27.3" cy="27.3" r=".8"></circle><circle fill="#F9E0B4" cx="19" cy="54.5" r=".7"></circle><circle fill="#F9E0B4" cx="22.1" cy="44.1" r=".8"></circle><circle fill="#F9E0B4" cx="20" cy="35.1" r=".8"></circle><path fill="#EF256E" d="M32.3 19.8C43.3 18 54 25 56.7 36.1c2.7 11-3.7 22.1-14.3 25.6L32.3 19.8z"></path><path fill="#D11550" d="M56.6 36.1c2.7 11-3.7 22.1-14.3 25.6l-10-41.9"></path><circle fill="#F9E0B4" cx="48" cy="48" r="3.2"></circle><circle fill="#F9E0B4" cx="52" cy="41.5" r="1.3"></circle><circle fill="#F9E0B4" cx="51.1" cy="33.8" r="2.5"></circle><circle fill="#F9E0B4" cx="46.9" cy="37.9" r=".3"></circle><circle fill="#F9E0B4" cx="42.5" cy="28.8" r="3.5"></circle><circle fill="#F9E0B4" cx="41.9" cy="38.7" r="1.4"></circle><circle fill="#F9E0B4" cx="47.1" cy="41.3" r=".4"></circle><circle fill="#F9E0B4" cx="49.4" cy="28.1" r=".8"></circle><circle fill="#F9E0B4" cx="36.8" cy="23" r="1.5"></circle><circle fill="#F9E0B4" cx="43" cy="22.5" r=".6"></circle><circle fill="#F9E0B4" cx="36.7" cy="27.3" r=".8"></circle><circle fill="#F9E0B4" cx="45" cy="54.5" r=".7"></circle><circle fill="#F9E0B4" cx="41.9" cy="44.1" r=".8"></circle><circle fill="#F9E0B4" cx="44" cy="35.1" r=".8"></circle><g fill="#1E4784"><path d="M26.9 11.4c.3.6.2 1.3-.4 1.6-.6.3-1.3.2-1.6-.4l-3.7-6.2c-.3-.6-.2-1.3.4-1.6.6-.3 1.3-.2 1.6.4l3.7 6.2z"></path><circle cx="21" cy="3.8" r="2.8"></circle></g><g fill="#00233F"><path d="M37.1 11.4c-.3.6-.2 1.3.4 1.6.6.3 1.3.2 1.6-.4l3.7-6.2c.3-.6.2-1.3-.4-1.6-.6-.3-1.3-.2-1.6.4l-3.7 6.2z"></path><circle cx="43" cy="3.8" r="2.8"></circle></g></svg>