<svg xmlns="http://www.w3.org/2000/svg" width="64" height="64" viewBox="0 0 64 64"><defs></defs><path fill="#FF9906" d="M57 26.2l-5-9.4-5 9.4-5-9.4-4 9.4-6-16.4-6 16.4-4-9.4-5 9.4-5-9.4-5 9.4-6-11.3V52l61.9.2.1-37.3z"></path><path fill="#EF880C" d="M57 32.7l-5-15-5 15-5-15-4 15-6-22.2-6 22.2-4-15-5 15-5-15-5 15-6-17.5-.1 37 62-.2.1-36.8z"></path><path fill="#ED6E0F" d="M32 52l30.9.2.1-36.9-6 17.4-5-15-5 15-5-15-4 15-6.1-22.3"></path><path fill="#DD600B" d="M36.3 37.6l-6.2 6.2 8.3 8.2H51zM52.3 36.4l-4.2 4.2L59.6 52l3.3.2v-5z"></path><path fill="#ED690F" d="M31.9 52.1L16 36.4l-4.1 4.1L23.4 52h8.4z"></path><path fill="#EA1F0A" d="M37.9 40L32 45.9 26.1 40l5.9-8.6z"></path><path fill="#FF5512" d="M37.9 40L32 37.1 26.1 40l5.9-8.6z"></path><path fill="#C61109" d="M32 31.4l5.9 8.6-5.9 5.9"></path><path fill="#329908" d="M16.9 38.5c0 1.7-1.4 3-3 3-1.7 0-3-1.4-3-3 0-1.7 1.4-3 3-3 1.7 0 3 1.4 3 3z"></path><path fill="#236D00" d="M16 36.4c1.2 1.2 1.2 3.1 0 4.3-1.2 1.2-3.1 1.2-4.3 0"></path><path fill="#329908" d="M53.2 38.5c0 1.7-1.4 3-3 3-1.7 0-3-1.4-3-3 0-1.7 1.4-3 3-3s3 1.4 3 3z"></path><path fill="#236D00" d="M52.3 36.4c1.2 1.2 1.2 3.1 0 4.3-1.2 1.2-3.1 1.2-4.3 0"></path><path fill="#683C02" d="M62.9 52.2c0 1.1-13.9 1.9-30.9 1.9-17.1 0-31.1-.9-31.1-1.9 0-1.1 14-1.9 31.1-1.9s30.9.9 30.9 1.9z"></path><path fill="#4C2A02" d="M32 50.3c17.1 0 30.9.9 30.9 1.9 0 1.1-13.9 1.9-30.9 1.9"></path></svg>