<svg xmlns="http://www.w3.org/2000/svg" width="65" height="65" viewBox="0 0 65 65"><defs></defs><path fill="#C98909" d="M9.287 23.938l.553.03-.086 2.485-1.07-.057-.15.225-.044-.043-.187 1.232 1.45-.182.192 2.477-1.466.182.907 1.145-4.143 5.225-1.396-1.76 1.125-1.42-1.39 1.105L2.53 32.48l2.158-1.72-.57.07-.057-.744-1.47.184-.194-2.477 1.235-.154-1.222-.298.373-2.445 1.156.283.05-1.525.393.02-1.616-.765.695-2.33 1.104.524.3-.448-.61-.65 1.273-1.9L10 22.878z"></path><path fill="#EAA918" d="M10.943 29.663l.56-.024-.085-1.997-1.084.045-.154-.18-.043.035-.192-.99 1.47.146.196-1.99-1.485-.148.918-.917-4.195-4.196-1.412 1.412 1.138 1.14-1.406-.888-1.066 1.69 2.183 1.38-.576-.057-.06.598-1.49-.147-.197 1.988 1.252.124-1.238.24.378 1.963 1.17-.227.05 1.224.396-.017-1.632.615.705 1.87 1.117-.42.303.36-.62.522 1.292 1.527 4.53-3.833z"></path><path fill="#C98909" d="M55.713 23.938l-.553.03.086 2.485 1.07-.057.15.225.042-.043.19 1.232-1.45-.182-.193 2.477 1.466.182-.907 1.145 4.143 5.225 1.396-1.76-1.125-1.42 1.39 1.105 1.054-2.103-2.158-1.72.57.07.057-.744 1.47.184.194-2.477-1.235-.154 1.222-.298-.373-2.445-1.156.283-.05-1.525-.393.02 1.616-.765-.695-2.33-1.104.524-.3-.448.61-.65-1.27-1.9L55 22.878z"></path><path fill="#EAA918" d="M54.057 29.663l-.56-.024.085-1.997 1.084.045.154-.18.043.035.192-.99-1.47.146-.194-1.99 1.487-.148-.92-.917 4.195-4.196 1.412 1.412-1.138 1.14 1.406-.888 1.066 1.69-2.183 1.38.578-.057.06.598 1.487-.147.197 1.988-1.252.124 1.238.24-.378 1.963-1.168-.227-.05 1.224-.398-.017 1.632.615-.703 1.87-1.118-.42-.305.36.62.522-1.292 1.527-4.53-3.833z"></path><path fill="#6D4417" d="M35.326 63.047c0 .803-.652 1.453-1.453 1.453h-2.746c-.8 0-1.45-.65-1.45-1.453V42.224c0-.803.65-1.453 1.45-1.453h2.746c.8 0 1.453.65 1.453 1.454v20.823zM35.326 56.685c0 .803-.652 1.453-1.453 1.453h-2.746c-.8 0-1.45-.65-1.45-1.453V35.86c0-.802.65-1.452 1.45-1.452h2.746c.8 0 1.453.65 1.453 1.453v20.825z"></path><path fill="#49290A" d="M35.326 56.685c0 .803-.652 1.453-1.453 1.453h-2.746c-.8 0-1.45-.65-1.45-1.453V35.86c0-.802.65-1.452 1.45-1.452h2.746c.8 0 1.453.65 1.453 1.453v20.825z"></path><path fill="#F26403" d="M53.65 21.34H11.352c-2.277 0-2.064 1.582-2.064 3.525v4.987c0 1.943 1.852 3.524 4.127 3.524h7.777L18.41 52.14c-.045.296.043.598.24.825.195.227.48.357.78.357H45.59c.57 0 1.032-.46 1.032-1.03 0-.125-.02-.243-.062-.353l-2.75-18.563h7.777c2.275 0 4.127-1.58 4.127-3.524v-4.987c0-1.944.214-3.525-2.062-3.525z"></path><path fill="#C64200" d="M53.65 25.038H11.352c-1.803 0-2.043.998-2.064 2.374v2.44c0 1.943 1.852 3.524 4.127 3.524h7.777l-.547 3.697h.547L18.82 53.09c.177.136.384.23.612.23H45.59c.227 0 .426-.087.594-.21L43.81 37.073h.546l-.547-3.697h7.776c2.275 0 4.127-1.58 4.127-3.524v-2.44c-.022-1.376-.262-2.374-2.063-2.374z"></path><path fill="#49290A" d="M32.5 27.312l5.97-5.97H26.53z"></path><path fill="#C98909" d="M23.498 10.336s2.54.043 2.967-5.223c.24-2.938 2.645-6.578 6.19-3.354 3.546 3.224 2.708-.84 4.9.32 2.192 1.162 1.677 7.48 4 8.448 2.32.967-10.77 2.32-10.77 2.32l-6.515-2.19-.772-.322z"></path><path fill="#723E14" d="M42.543 11.13c0 1.105-.895 2-2 2H25.197c-1.104 0-2-.896-2-2 0-1.103.896-1.998 2-1.998h15.346c1.105 0 2 .894 2 2z"></path><path fill="#49290A" d="M37.87 11.13c0 1.105-.466 2-1.036 2h-7.928c-.57 0-1.033-.896-1.033-2 0-1.103.463-1.998 1.033-1.998h7.928c.57 0 1.035.894 1.035 2z"></path><path fill="#EAA918" d="M48.36 10.248c0 2.994-7.1 5.42-15.86 5.42-8.762 0-15.86-2.426-15.86-5.42 0-2.993 7.1.957 15.86.957s15.86-3.95 15.86-.957z"></path><path fill="#C98909" d="M32.5 11.205c-7.162 0-13.207-2.635-15.18-1.965 1.973 2.23 8.018 3.85 15.18 3.85 7.16 0 13.207-1.62 15.18-3.85-1.973-.67-8.02 1.965-15.18 1.965z"></path><g fill="#F26403"><circle cx="32.5" cy="31.313" r=".902"></circle><circle cx="32.5" cy="36.858" r=".902"></circle><circle cx="32.5" cy="42.404" r=".902"></circle><circle cx="32.5" cy="47.949" r=".902"></circle></g></svg>