<svg xmlns="http://www.w3.org/2000/svg" width="64" height="64" viewBox="0 0 64 64"><defs></defs><path fill="#CE351B" d="M26 1h8v8h-8z"></path><path fill="#A50C00" d="M26 1h8v7"></path><path fill="#CE351B" d="M35 1h8v8h-8z"></path><path fill="#A50C00" d="M35 1h8v8"></path><path fill="#CE351B" d="M44 1h8v8h-8z"></path><path fill="#A50C00" d="M44 1h8v8"></path><path fill="#049CBF" d="M44 17h8v8h-8z"></path><path fill="#047BA0" d="M52 17v8h-8"></path><path fill="#049CBF" d="M44 26h8v8h-8z"></path><path fill="#047BA0" d="M52 26v8h-8"></path><path fill="#049CBF" d="M35 26h8v8h-8z"></path><path fill="#047BA0" d="M43 26v8h-8"></path><path fill="#049CBF" d="M44 35h8v8h-8z"></path><path fill="#047BA0" d="M52 35v8h-8"></path><path fill="#34B515" d="M12 1h8v8h-8z"></path><path fill="#129B0B" d="M20 1v8h-8"></path><path fill="#34B515" d="M12 10h8v8h-8z"></path><path fill="#129B0B" d="M20 10v8h-8"></path><path fill="#34B515" d="M12 19h8v8h-8z"></path><path fill="#129B0B" d="M20 19v8h-8"></path><path fill="#34B515" d="M21 19h8v8h-8z"></path><path fill="#129B0B" d="M29 19v8h-8"></path><path fill="#D66203" d="M21 43h8v8h-8z"></path><path fill="#EF880C" d="M21 51v-8h8"></path><path fill="#D66203" d="M21 34h8v8h-8z"></path><path fill="#EF880C" d="M21 42v-8h8"></path><path fill="#D66203" d="M12 34h8v8h-8z"></path><path fill="#EF880C" d="M12 42v-8h8"></path><path fill="#835EA5" d="M35 55h8v8h-8z"></path><path fill="#683C96" d="M43 55v8h-8"></path><path fill="#835EA5" d="M44 55h8v8h-8z"></path><path fill="#683C96" d="M52 55v8h-8"></path><path fill="#835EA5" d="M35 46h8v8h-8z"></path><path fill="#683C96" d="M43 46v8h-8"></path><path fill="#835EA5" d="M44 46h8v8h-8z"></path><path fill="#683C96" d="M52 46v8h-8"></path><path fill="#353A3A" d="M33 14h8v8h-8z"></path><path fill="#1E2323" d="M41 14v8h-8"></path></svg>