<svg xmlns="http://www.w3.org/2000/svg" width="64" height="64" viewBox="0 0 64 64"><defs></defs><path fill="#CEAB4A" d="M62.5 50C59.7 29 47 14.4 31.8 14.4S3.8 29 1 50h61.5z"></path><path fill="#B28E32" d="M1 50h61.5C59.7 29 47 14.4 31.8 14.4"></path><path fill="#88C600" d="M13.5 30.2l-2.1 6.5-6.6-2.1-.2-11z"></path><path fill="#3AAD0B" d="M13.5 30.2l-2.1 6.5-2.1-4.4-4.7-8.7z"></path><path fill="#88C600" d="M9 35.8l.2 4.5-4.5.2-2.6-6.8z"></path><path fill="#3AAD0B" d="M9 35.8l.2 4.5L6.9 38l-4.8-4.3z"></path><path fill="#722F01" d="M35 35c0 6.1-5.1 11-11.2 11h-1.1C16.6 46 12 41.2 12 35v-4c0-6.1 4.6-11 10.7-11h1.1C29.9 20 35 24.9 35 31v4z"></path><path fill="#562300" d="M23 20h.8C29.9 20 35 24.9 35 31v4c0 6.1-5.1 11-11.2 11H23"></path><ellipse transform="matrix(-.756 -.655 .655 -.756 12.914 55.53)" fill="#994207" cx="16.8" cy="25.4" rx="1.7" ry="4"></ellipse><path fill="#722F01" d="M42.3 39.7C39 44.9 32.1 46.4 27 43.1l-1-.6c-5.2-3.3-6.7-10.1-3.4-15.3l2.2-3.4c3.3-5.2 10.1-6.7 15.3-3.4l.9.6c5.2 3.3 6.7 10.1 3.4 15.3l-2.1 3.4z"></path><path fill="#562300" d="M40.1 20.4l.9.6c5.2 3.3 6.7 10.1 3.4 15.3l-2.2 3.4C39 44.9 32.1 46.4 27 43.1l-1-.6"></path><ellipse transform="matrix(-.288 -.958 .958 -.288 20.516 58.927)" fill="#994207" cx="32.2" cy="21.8" rx="1.7" ry="4"></ellipse><path fill="#EF112C" d="M50.3 27.5c-1.9 5.6-4.7 9.6-6.3 9.1-1.6-.5-1.4-5.5.5-11 1.9-5.6 3.4-5.8 5-5.3s2.7 1.7.8 7.2z"></path><path fill="#B20026" d="M49.6 20.3c1.6.5 2.6 1.7.8 7.2-1.9 5.6-4.7 9.6-6.3 9.1"></path><ellipse transform="matrix(.948 .319 -.319 .948 10.081 -14.19)" fill="#B20026" cx="48.4" cy="23.7" rx="1.8" ry=".6"></ellipse><ellipse transform="matrix(.948 .319 -.319 .948 10.841 -13.803)" fill="#B20026" cx="47.6" cy="26.2" rx="1.8" ry=".6"></ellipse><ellipse transform="matrix(.948 .319 -.319 .948 11.58 -13.397)" fill="#B20026" cx="46.7" cy="28.7" rx="1.8" ry=".6"></ellipse><ellipse transform="matrix(.948 .319 -.319 .948 12.336 -13.006)" fill="#B20026" cx="45.9" cy="31.2" rx="1.8" ry=".6"></ellipse><ellipse transform="matrix(-.529 -.849 .849 -.529 55.125 72.997)" fill="#F97A90" cx="47.8" cy="21.2" rx=".6" ry="1.1"></ellipse><path fill="#EF112C" d="M11.8 42.8C6.5 45.2 1.6 46 .9 44.4c-.7-1.5 3.1-4.7 8.4-7.2 5.3-2.4 6.6-1.5 7.3 0 .7 1.6.5 3.2-4.8 5.6z"></path><path fill="#B20026" d="M16.6 37.3c.7 1.5.6 3.1-4.8 5.5C6.5 45.2 1.6 46 .9 44.4"></path><ellipse transform="matrix(.414 .91 -.91 .414 43.088 10.647)" fill="#B20026" cx="13.3" cy="38.8" rx="1.8" ry=".6"></ellipse><ellipse transform="matrix(.414 .91 -.91 .414 42.695 13.48)" fill="#B20026" cx="10.9" cy="39.9" rx="1.8" ry=".6"></ellipse><ellipse transform="matrix(.414 .91 -.91 .414 42.266 16.269)" fill="#B20026" cx="8.5" cy="41" rx="1.8" ry=".6"></ellipse><ellipse transform="matrix(.414 .91 -.91 .414 41.866 19.097)" fill="#B20026" cx="6.1" cy="42.1" rx="1.8" ry=".6"></ellipse><ellipse transform="matrix(.259 -.966 .966 .259 -24.504 41.389)" fill="#F97A90" cx="14.7" cy="36.7" rx=".6" ry="1.1"></ellipse><path fill="#82C60A" d="M62.3 24.5c-4.6 1.9-8.6-.7-12.2 3.4-2.1 2.4-1.1 5.7-.1 9.4h-.1c3.7 1 6.9 1.7 9.3-.4 4-3.7 1.2-7.8 3.1-12.4z"></path><path fill="#5EA304" d="M50 37v.3h-.1c3.7 1 6.9 1.7 9.3-.4 4.1-3.7 1.3-7.8 3.2-12.4l.1-.1"></path><g fill="#74B208"><path d="M56.7 30.2l-.7-3.3V31l4.1-.1zM52.5 34.5l-.7-3.3v4h4.1zM54.7 32.3l-.9-3.8v4.6h4.6z"></path></g><path fill="#F4F1E6" d="M32.2 24.2c5.5-.3 10.2 2.1 11.1 5.3.1-.4.1-.7.1-1.1-.2-3.8-5.2-6.7-11.3-6.4-6.1.3-10.9 3.6-10.7 7.4 0 .4.1.7.2 1.1.6-3.3 5.1-6.1 10.6-6.3z"></path><path fill="#82C60A" d="M63.2 36.2c-4.6 1.9-8.6-.7-12.2 3.4-2.1 2.4-1 5.7 0 9.4h-.2c3.7 1 6.9 1.7 9.2-.4 4.1-3.7 1.3-7.9 3.2-12.4z"></path><path fill="#5EA304" d="M51 49h-.2c3.7 1 6.9 1.7 9.2-.4 4.1-3.7 1.3-7.8 3.2-12.4h-.1l.2.1"></path><g fill="#74B208"><path d="M57.6 41.8l-.8-3.3.1 4.1 4-.1zM53.4 46.1l-.8-3.3.1 4.1 4-.1zM55.6 43.9l-.9-3.7v4.6l4.6-.1z"></path></g><path fill="#FFDC6C" d="M62.5 50C59.7 37 47 27.2 31.8 27.2S3.8 37 1 50h61.5z"></path><path fill="#EABB47" d="M19 50h43.5c-2.8-13-15.7-22.8-31-22.8"></path><circle fill="#F4CB56" cx="11.5" cy="39.7" r="1.2"></circle><circle fill="#FFDC6C" cx="32.8" cy="44.9" r="1.2"></circle><circle fill="#FFDC6C" cx="50.1" cy="43.8" r="1.2"></circle><circle fill="#FFDC6C" cx="37.4" cy="40.4" r="1.2"></circle><circle fill="#B28E32" cx="49.3" cy="38.9" r="1.2"></circle><circle fill="#FFDC6C" cx="40.5" cy="35.2" r="2"></circle><circle fill="#FFDC6C" cx="42.7" cy="40.9" r=".6"></circle><circle fill="#FFDC6C" cx="32.4" cy="36.7" r=".7"></circle><circle fill="#F4CB56" cx="21.4" cy="35.7" r="1.2"></circle><circle fill="#CEAB4A" cx="24.2" cy="31.7" r="1.2"></circle><circle fill="#B28E32" cx="56.1" cy="45.8" r="1.5"></circle><circle fill="#B28E32" cx="41.8" cy="45.7" r=".6"></circle><circle fill="#B28E32" cx="26.6" cy="45.6" r=".6"></circle><circle fill="#B28E32" cx="34.4" cy="32.6" r=".6"></circle><circle fill="#F4CB56" cx="14.3" cy="44.7" r=".6"></circle><circle fill="#CEAB4A" cx="17.3" cy="41.2" r=".6"></circle><circle fill="#CEAB4A" cx="7.2" cy="46.4" r="1.3"></circle><path fill="#F4F1E6" d="M36.4 19.9c4.7 1.8 7.6 5.7 7.1 9.1.2-.3.4-.6.5-.9 1.4-3.6-1.7-8.1-6.8-10.1-5.2-2-10.5-.8-11.9 2.8-.1.3-.2.7-.3 1 1.9-2.9 6.7-3.8 11.4-1.9z"></path></svg>