<svg xmlns="http://www.w3.org/2000/svg" width="64" height="64" viewBox="0 0 64 64"><defs></defs><path fill="#B74208" d="M28.908 48.206c0 5.588-4.683 12.173-10.458 12.173-5.776 0-10.46-6.586-10.46-12.174 0-5.585 4.77-19.802 10.546-19.802 5.774 0 10.372 14.217 10.372 19.802zM29.163 15.03c1.54 18.465-4.613 41.317-10.708 41.317-6.093 0-12.547-15.084-11.032-33.55C8.933 4.402 16.35.528 22.393 1.318c3.942.514 6 4.456 6.77 13.714zM29.593 16.188c1.54 18.466-5.043 40.16-11.137 40.16-6.093 0-12.752-15.137-11.237-33.603C8.727 4.35 16.35.528 22.39 1.315c3.943.516 6.428 5.616 7.2 14.873z"></path><path fill="#9B3305" d="M18.456 48.376c-5.017 0-10.275-10.23-11.13-24.15-1.08 17.81 5.194 32.122 11.13 32.122 5.87 0 11.794-21.208 10.844-39.27-.767 15.787-5.824 31.298-10.844 31.298z"></path><path fill="#662D14" d="M9.15 44.233c0-15.624 7.073-14.286 12.213-14.286 5.138 0 5.27 1.543 6.396 14.286C29.13 59.8 23.594 62.78 18.456 62.78c-5.14 0-9.307-2.92-9.307-18.547z"></path><path fill="#D6C5AA" d="M24.707 47.863c0 6.675-2.726 12.09-6.087 12.09-3.36 0-6.085-5.415-6.085-12.09 0-6.674.47-10.715 7.37-10.2 5.173.388 4.802 3.526 4.802 10.2z"></path><path fill="#C1B091" d="M19.905 43.664c3.768.283 4.59 2.033 4.76 5.542.025-.44.04-.89.04-1.343 0-6.674.373-9.812-4.8-10.2-6.9-.515-7.37 3.526-7.37 10.2 0 .782.04 1.545.11 2.284.35-4.403 1.76-6.892 7.26-6.483z"></path><g fill="#E0BA19"><path d="M9.943 33.72c-.176.464-.472.783-.657.712-.183-.07-.188-.504-.008-.97.175-.462.47-.782.656-.71.184.07.188.503.01.968zM11.464 31.007c-.16.42-.427.71-.594.646-.167-.065-.17-.46-.008-.88s.425-.708.593-.643c.17.063.17.456.01.877z"></path></g><g fill="#E0BA19"><ellipse transform="matrix(-.933 .36 -.36 -.933 64.211 52.732)" cx="27.193" cy="32.348" rx=".357" ry=".901"></ellipse><ellipse transform="matrix(-.932 .361 -.361 -.932 60.261 48.027)" cx="25.64" cy="29.648" rx=".324" ry=".816"></ellipse></g><path fill="#DD642F" d="M19.65 15.89c1.955 0 3.805.104 5.476.288-1.298-.91-3.27-1.49-5.477-1.49-2.21 0-4.18.582-5.48 1.49 1.67-.184 3.522-.29 5.48-.29zM21.177 5.444c2.144.512 4.11 1.254 5.833 2.143-.887-2.577-2.135-4.322-4.555-4.9-2.422-.58-5.495.136-7.45 2.03 1.935-.01 4.027.215 6.172.727zM19.39 18.113c1.958 0 3.81.044 5.478.122-1.298-.384-3.268-.632-5.477-.632-2.207 0-4.177.248-5.476.632 1.67-.077 3.522-.122 5.477-.122z"></path><ellipse fill="#E0BA19" cx="13.573" cy="21.128" rx=".482" ry=".739"></ellipse><path fill="#DDA61B" d="M13.572 20.39c.267 0 .483.33.483.738s-.216.74-.483.74"></path><ellipse fill="#E0BA19" cx="13.573" cy="24.086" rx=".482" ry=".739"></ellipse><path fill="#DDA61B" d="M13.572 23.346c.267 0 .483.332.483.74s-.216.74-.483.74"></path><ellipse fill="#E0BA19" cx="13.573" cy="27.043" rx=".482" ry=".74"></ellipse><path fill="#DDA61B" d="M13.572 26.303c.267 0 .483.333.483.74 0 .408-.216.74-.483.74"></path><ellipse fill="#E0BA19" cx="24.288" cy="21.128" rx=".482" ry=".739"></ellipse><path fill="#DDA61B" d="M24.29 20.39c.264 0 .48.33.48.738s-.216.74-.48.74"></path><ellipse fill="#E0BA19" cx="24.288" cy="24.086" rx=".482" ry=".739"></ellipse><path fill="#DDA61B" d="M24.29 23.346c.264 0 .48.332.48.74s-.216.74-.48.74"></path><ellipse fill="#E0BA19" cx="24.288" cy="27.043" rx=".482" ry=".74"></ellipse><path fill="#DDA61B" d="M24.29 26.303c.264 0 .48.333.48.74 0 .408-.216.74-.48.74"></path><path fill="#662D14" d="M23.505 57.636c0 1.515-2.265 2.743-5.058 2.743-2.793 0-5.057-1.23-5.057-2.744s2.264-.686 5.057-.686c2.793 0 5.058-.83 5.058.686z"></path><path fill="#9B4223" d="M23.7 57.518c0 .61-2.266 1.104-5.06 1.104-2.793 0-5.06-.494-5.06-1.104s2.267-.276 5.06-.276c2.794 0 5.06-.334 5.06.276zM10.97 41.768c.64-2.94 1.652-5.39 2.602-6.524-.06-.033-.124-.055-.19-.063-1.05-.15-2.344 2.815-2.89 6.624-.303 2.106-.312 4.03-.085 5.353-.06-1.453.12-3.35.563-5.39zM10.995 36.792c.714-1.892 1.63-3.423 2.375-4.085-.036-.028-.08-.048-.118-.06-.685-.206-1.84 1.642-2.58 4.123-.408 1.372-.604 2.65-.583 3.555.102-.974.408-2.22.905-3.533zM26.137 41.768c-.638-2.94-1.65-5.39-2.602-6.524.06-.033.125-.055.19-.063 1.05-.15 2.345 2.815 2.89 6.624.303 2.106.313 4.03.084 5.353.062-1.453-.12-3.35-.563-5.39z"></path><path fill="#DD642F" d="M24.348 35.31c.002.244-.494.447-1.105.45l-8.124.055c-.612.005-1.11-.19-1.11-.434l-.04-5.813c0-.242.495-.443 1.106-.448l8.122-.055c.612-.005 1.11.19 1.113.434l.038 5.81z"></path><path fill="#B74208" d="M24.348 34.28c.002.246-.494.447-1.105.45l-8.124.056c-.612.005-1.11-.19-1.11-.434l-.04-5.814c0-.243.495-.444 1.106-.448l8.122-.054c.612-.004 1.11.19 1.113.435l.038 5.81z"></path><path fill="#662D14" d="M23.25 21.162c0 .166-.135.3-.3.3h-8.06c-.165 0-.3-.134-.3-.3 0-.166.135-.302.3-.302h8.06c.165 0 .3.137.3.302zM23.25 23.99c0 .166-.135.3-.3.3h-8.06c-.165 0-.3-.134-.3-.3 0-.166.135-.3.3-.3h8.06c.165 0 .3.135.3.3zM23.25 26.818c0 .166-.135.3-.3.3h-8.06c-.165 0-.3-.135-.3-.3 0-.165.135-.3.3-.3h8.06c.165 0 .3.135.3.3z"></path><g fill="#662D14"><path d="M23.02 23.947c.053.158-.032.327-.188.38l-7.63 2.594c-.157.055-.327-.03-.38-.187-.055-.157.032-.326.19-.38l7.626-2.593c.157-.053.328.03.382.187zM14.82 23.947c-.054.158.03.327.188.38l7.63 2.594c.157.055.327-.03.38-.187.054-.157-.03-.326-.187-.38L15.2 23.76c-.157-.053-.325.03-.38.187z"></path></g><g fill="#662D14"><path d="M23.02 21.12c.053.156-.032.326-.188.38l-7.63 2.593c-.157.053-.327-.03-.38-.188-.055-.157.032-.327.19-.38l7.626-2.594c.157-.052.328.03.382.19zM14.82 21.12c-.054.156.03.326.188.38l7.63 2.593c.157.053.327-.03.38-.188.054-.157-.03-.327-.187-.38L15.2 20.93c-.157-.052-.325.03-.38.19z"></path></g><path fill="#DD642F" d="M13.957 34.782c0-1.244 2.312-2.255 5.162-2.255s5.158 1.01 5.158 2.255c0 1.247-2.31.563-5.16.563s-5.16.684-5.16-.563zM24.226 35.32c0 .55-2.29.992-5.113.992-2.825 0-5.114-.443-5.114-.99s2.288-.248 5.113-.248c2.823 0 5.113-.3 5.113.247z"></path><path fill="#E89258" d="M13.957 34.97c0-.896 2.312-1.627 5.162-1.627s5.158.73 5.158 1.627c0 .9-2.308.406-5.16.406-2.85 0-5.16.495-5.16-.406z"></path><path fill="#B74208" d="M35.092 48.206c0 5.588 4.684 12.173 10.46 12.173 5.775 0 10.457-6.586 10.457-12.174 0-5.585-4.77-19.802-10.546-19.802-5.773 0-10.372 14.217-10.372 19.802zM34.838 15.03c-1.54 18.465 4.613 41.317 10.707 41.317 6.093 0 12.547-15.084 11.033-33.55-1.51-18.396-8.928-22.27-14.97-21.48-3.943.514-6 4.456-6.77 13.714zM34.407 16.188c-1.54 18.466 5.044 40.16 11.137 40.16 6.093 0 12.753-15.137 11.237-33.603C55.273 4.35 47.65.528 41.61 1.315c-3.945.516-6.43 5.616-7.203 14.873z"></path><path fill="#9B3305" d="M45.544 48.376c5.017 0 10.275-10.23 11.13-24.15 1.08 17.81-5.194 32.122-11.13 32.122-5.87 0-11.793-21.208-10.843-39.27.768 15.787 5.824 31.298 10.844 31.298z"></path><path fill="#662D14" d="M54.85 44.233c0-15.624-7.072-14.286-12.213-14.286-5.137 0-5.27 1.543-6.395 14.286-1.373 15.568 4.164 18.547 9.3 18.547 5.14 0 9.308-2.92 9.308-18.547z"></path><path fill="#D6C5AA" d="M39.294 47.863c0 6.675 2.726 12.09 6.086 12.09 3.36 0 6.087-5.415 6.087-12.09 0-6.674-.472-10.715-7.372-10.2-5.173.388-4.8 3.526-4.8 10.2z"></path><path fill="#C1B091" d="M44.096 43.664c-3.768.283-4.59 2.033-4.76 5.542-.025-.44-.04-.89-.04-1.343 0-6.674-.374-9.812 4.8-10.2 6.9-.515 7.372 3.526 7.372 10.2 0 .782-.042 1.545-.112 2.284-.35-4.403-1.76-6.892-7.26-6.483z"></path><g fill="#E0BA19"><path d="M54.057 33.72c.177.464.472.783.658.712.183-.07.188-.504.008-.97-.176-.462-.47-.782-.657-.71-.183.07-.187.503-.01.968z"></path><ellipse transform="matrix(-.933 .361 -.361 -.933 113.261 40.643)" cx="52.838" cy="30.891" rx=".324" ry=".816"></ellipse></g><g fill="#E0BA19"><ellipse transform="matrix(.933 .36 -.36 .933 14.1 -11.075)" cx="36.808" cy="32.348" rx=".358" ry=".901"></ellipse><ellipse transform="matrix(.933 .361 -.361 .933 13.283 -11.845)" cx="38.36" cy="29.648" rx=".324" ry=".815"></ellipse></g><path fill="#DD642F" d="M44.35 15.89c-1.954 0-3.804.104-5.475.288 1.3-.91 3.27-1.49 5.476-1.49 2.21 0 4.182.582 5.48 1.49-1.67-.184-3.52-.29-5.48-.29zM42.823 5.444c-2.144.512-4.11 1.254-5.833 2.143.887-2.577 2.134-4.322 4.555-4.9 2.42-.58 5.495.136 7.45 2.03-1.934-.01-4.026.215-6.172.727zM44.61 18.113c-1.958 0-3.808.044-5.478.122 1.3-.384 3.27-.632 5.478-.632 2.208 0 4.178.248 5.477.632-1.67-.077-3.52-.122-5.477-.122z"></path><ellipse fill="#E0BA19" cx="50.428" cy="21.128" rx=".482" ry=".739"></ellipse><path fill="#DDA61B" d="M50.43 20.39c-.27 0-.484.33-.484.738s.215.74.483.74"></path><ellipse fill="#E0BA19" cx="50.428" cy="24.086" rx=".482" ry=".739"></ellipse><path fill="#DDA61B" d="M50.43 23.346c-.27 0-.484.332-.484.74s.215.74.483.74"></path><ellipse fill="#E0BA19" cx="50.428" cy="27.043" rx=".482" ry=".74"></ellipse><path fill="#DDA61B" d="M50.43 26.303c-.27 0-.484.333-.484.74 0 .408.215.74.483.74"></path><ellipse fill="#E0BA19" cx="39.713" cy="21.128" rx=".482" ry=".739"></ellipse><path fill="#DDA61B" d="M39.712 20.39c-.266 0-.48.33-.48.738s.215.74.48.74"></path><ellipse fill="#E0BA19" cx="39.713" cy="24.086" rx=".482" ry=".739"></ellipse><path fill="#DDA61B" d="M39.712 23.346c-.266 0-.48.332-.48.74s.215.74.48.74"></path><ellipse fill="#E0BA19" cx="39.713" cy="27.043" rx=".482" ry=".74"></ellipse><path fill="#DDA61B" d="M39.712 26.303c-.266 0-.48.333-.48.74 0 .408.215.74.48.74"></path><path fill="#662D14" d="M40.496 57.636c0 1.515 2.264 2.743 5.058 2.743 2.793 0 5.057-1.23 5.057-2.744s-2.263-.686-5.056-.686c-2.794 0-5.058-.83-5.058.686z"></path><path fill="#9B4223" d="M40.3 57.518c0 .61 2.267 1.104 5.062 1.104 2.792 0 5.057-.494 5.057-1.104s-2.265-.276-5.058-.276c-2.795 0-5.06-.334-5.06.276zM53.03 41.768c-.638-2.94-1.65-5.39-2.602-6.524.06-.033.124-.055.188-.063 1.05-.15 2.346 2.815 2.892 6.624.303 2.106.312 4.03.084 5.353.06-1.453-.118-3.35-.562-5.39zM53.006 36.792c-.714-1.892-1.63-3.423-2.375-4.085.036-.028.08-.048.12-.06.683-.206 1.84 1.642 2.578 4.123.408 1.372.604 2.65.584 3.555-.102-.974-.41-2.22-.906-3.533zM37.864 41.768c.638-2.94 1.65-5.39 2.602-6.524-.06-.033-.125-.055-.19-.063-1.05-.15-2.345 2.815-2.89 6.624-.303 2.106-.313 4.03-.084 5.353-.063-1.453.118-3.35.562-5.39z"></path><path fill="#DD642F" d="M39.652 35.31c-.002.244.495.447 1.105.45l8.125.055c.61.005 1.108-.19 1.11-.434l.04-5.813c0-.242-.496-.443-1.106-.448l-8.123-.055c-.61-.005-1.11.19-1.112.434l-.038 5.81z"></path><path fill="#B74208" d="M39.652 34.28c-.002.246.495.447 1.105.45l8.125.056c.61.005 1.108-.19 1.11-.434l.04-5.814c0-.243-.496-.444-1.106-.448l-8.123-.054c-.61-.004-1.11.19-1.112.435l-.038 5.81z"></path><path fill="#662D14" d="M40.752 21.162c0 .166.135.3.3.3h8.058c.165 0 .3-.134.3-.3 0-.166-.135-.302-.3-.302h-8.058c-.165 0-.3.137-.3.302zM40.752 23.99c0 .166.135.3.3.3h8.058c.165 0 .3-.134.3-.3 0-.166-.135-.3-.3-.3h-8.058c-.165 0-.3.135-.3.3zM40.752 26.818c0 .166.135.3.3.3h8.058c.165 0 .3-.135.3-.3 0-.165-.135-.3-.3-.3h-8.058c-.165 0-.3.135-.3.3z"></path><g fill="#662D14"><path d="M40.98 23.947c-.052.158.033.327.19.38l7.628 2.594c.157.055.328-.03.38-.187.057-.157-.03-.326-.188-.38l-7.627-2.593c-.157-.053-.328.03-.383.187zM49.18 23.947c.056.158-.03.327-.187.38l-7.63 2.594c-.157.055-.327-.03-.382-.187-.05-.157.034-.326.19-.38l7.63-2.593c.157-.053.326.03.38.187z"></path></g><g fill="#662D14"><path d="M40.98 21.12c-.052.156.033.326.19.38l7.628 2.593c.157.053.328-.03.38-.188.057-.157-.03-.327-.188-.38l-7.627-2.594c-.157-.052-.328.03-.383.19zM49.18 21.12c.056.156-.03.326-.187.38l-7.63 2.593c-.157.053-.327-.03-.382-.188-.05-.157.034-.327.19-.38l7.63-2.594c.157-.052.326.03.38.19z"></path></g><path fill="#DD642F" d="M50.045 34.782c0-1.244-2.312-2.255-5.163-2.255-2.85 0-5.16 1.01-5.16 2.255 0 1.247 2.31.563 5.16.563 2.852 0 5.163.684 5.163-.563zM39.776 35.32c0 .55 2.288.992 5.112.992 2.825 0 5.113-.443 5.113-.99s-2.287-.248-5.112-.248c-2.824 0-5.112-.3-5.112.247z"></path><path fill="#E89258" d="M50.045 34.97c0-.896-2.312-1.627-5.163-1.627-2.853 0-5.16.73-5.16 1.627 0 .9 2.308.406 5.16.406 2.852 0 5.163.495 5.163-.406z"></path></svg>