<svg xmlns="http://www.w3.org/2000/svg" width="64" height="64" viewBox="0 0 64 64"><defs></defs><path fill="#A31A1A" d="M37.5 17c3 10-1.3 25.8-11.3 28.7-10 3-22.1-8-25.1-18S4.8 10.2 14.9 7.3c10-3 19.6-.4 22.6 9.7z"></path><path fill="#8E1313" d="M14.9 7.2c10-3 19.7-.3 22.6 9.7 3 10-1.3 25.8-11.3 28.7"></path><path fill="#D89621" d="M33.8 55.3l-4.2 2-4.6.6-2.3-16.2 1.7-2 2.6.8z"></path><path fill="#BC7A0F" d="M24.4 39.7l2.6.8 6.8 14.8-4.2 2"></path><path fill="#D89621" d="M12.1 42.4c4.4 3.1 9.4 4.7 14.1 3.3 4.6-1.4 8-5.4 10-10.4l-24.1 7.1z"></path><path fill="#BC7A0F" d="M26.2 45.7c4.6-1.4 8-5.4 10-10.4"></path><path fill="#8E1313" d="M22.303 41.22l4.797-1.41.395 1.345-4.797 1.41z"></path><path fill="#038491" d="M26.5 17c-3 10 1.3 25.8 11.3 28.7 10 3 22.1-8 25.1-18S59.2 10.2 49.1 7.3c-10-3-19.6-.4-22.6 9.7z"></path><path fill="#0CA6BF" d="M49.1 7.2c-10-3-19.7-.3-22.6 9.7-3 10 1.3 25.8 11.3 28.7"></path><path fill="#BC7A0F" d="M30.2 55.3l4.2 2 4.6.6 2.3-16.2-1.7-2-2.6.8z"></path><path fill="#D89621" d="M39.6 39.7l-2.6.8-6.8 14.8 4.2 2"></path><path fill="#BC7A0F" d="M51.9 42.4c-4.4 3.1-9.4 4.7-14.1 3.3-4.6-1.4-8-5.4-10-10.4l24.1 7.1z"></path><path fill="#D89621" d="M37.8 45.7c-4.6-1.4-8-5.4-10-10.4"></path><path fill="#8E1313" d="M41.286 42.54l-4.797-1.408.394-1.343 4.797 1.408z"></path><circle fill="#E6E8E8" cx="32" cy="25.7" r="7.1"></circle><path fill="#C3C9C9" d="M37 20.7c2.8 2.8 2.8 7.3 0 10-2.8 2.8-7.2 2.8-10 0"></path></svg>