<svg xmlns="http://www.w3.org/2000/svg" width="64" height="64" viewBox="0 0 64 64"><defs></defs><path fill="#2D9EAA" d="M45.4 63H18.6L7.5 31h49z"></path><path fill="#18899B" d="M8 31h48.5L45.4 63"></path><path fill="#99CCCE" d="M41.2 63H22.8l-7.5-32h33.4z"></path><path fill="#88BCBC" d="M16 31h32.7l-7.5 32"></path><path fill="#18899B" d="M35.6 63h-7.2l-2.9-32h13z"></path><path fill="#2D9EAA" d="M35 63h-6.6l-2.9-32"></path><path fill="#0A6077" d="M56.5 31h-49l3.4-7.1 42.3.1z"></path><path fill="#02445B" d="M51 31H13l-2.2-7h42.4z"></path><path fill="#EFD27F" d="M39 54H25l-2.2-14h18.4z"></path><path fill="#E2B544" d="M23 40h18.2l-2 13.4"></path><g fill="#0A6077"><circle cx="26" cy="42.6" r=".8"></circle><circle cx="29" cy="42.6" r=".8"></circle><circle cx="32" cy="42.6" r=".8"></circle><circle cx="35" cy="42.6" r=".8"></circle><circle cx="38" cy="42.6" r=".8"></circle></g><g fill="#0A6077"><path d="M27.4 52.1c0 .4-.3.7-.7.7-.4 0-.7-.3-.7-.7 0-.4.3-.7.7-.7.4 0 .7.3.7.7z"></path><circle cx="29.4" cy="52.1" r=".7"></circle><circle cx="32" cy="52.1" r=".7"></circle><circle cx="34.6" cy="52.1" r=".7"></circle><circle cx="37.3" cy="52.1" r=".7"></circle></g><path fill="#EFD27F" d="M23.7 23.1c-.6-1.2-1.9-1.8-3.2-1.4-1.3.4-2.1 1.6-1.9 3-1.3.5-2.1 1.9-1.7 3.3.4 1.4 1.9 2.3 3.4 1.8 1.1-.3 1.8-1.2 1.9-2.3.7.8 1.8 1.2 2.9.9 1.4-.4 2.3-1.9 1.8-3.4-.4-1.5-1.8-2.3-3.2-1.9z"></path><path fill="#E2B544" d="M20.3 29.7c1.1-.3 1.8-1.2 1.9-2.3.7.8 1.8 1.2 2.9.9 1.4-.4 2.3-1.9 1.8-3.4-.4-1.4-1.8-2.2-3.2-1.9M22.2 27.4c.7.8 1.8 1.2 2.9.9 1.4-.4 2.3-1.9 1.8-3.4-.4-1.4-1.8-2.2-3.2-1.9-.6-1.2-1.9-1.8-3.2-1.4"></path><path fill="#FFF0B0" d="M18.9 25.3c.2.2.1.6-.2 1.1-.3.4-.8.7-1 .5-.2-.2-.1-.6.2-1.1.3-.5.8-.7 1-.5zM20.3 22.2c.2.1.1.5-.2.9-.3.4-.7.6-.8.4-.2-.1-.1-.5.2-.9.3-.3.6-.5.8-.4z"></path><path fill="#EFD27F" d="M47.6 3.7c.1-1.3-.7-2.6-2-2.9-1.3-.4-2.6.3-3.2 1.5-1.4-.3-2.8.6-3.2 1.9-.4 1.5.5 2.9 1.9 3.3 1.1.3 2.2-.1 2.8-.9.2 1 .9 1.9 2 2.2 1.5.4 3-.5 3.3-1.9.6-1.3-.2-2.7-1.6-3.2z"></path><path fill="#E2B544" d="M41.2 7.6c1.1.3 2.2-.1 2.8-.9.2 1 .9 1.9 2 2.2 1.5.4 3-.5 3.3-1.9.4-1.4-.4-2.8-1.7-3.3M44.1 6.7c.2 1 .9 1.9 2 2.2 1.5.4 3-.5 3.3-1.9.4-1.4-.4-2.8-1.7-3.3.1-1.3-.7-2.6-2-2.9"></path><path fill="#FFF0B0" d="M42.4 3c.1.2-.3.6-.8.8-.5.2-1 .2-1.1-.1-.1-.2.3-.6.8-.8.5-.1 1-.1 1.1.1zM45.2 1.2c.1.2-.2.5-.7.7-.4.2-.9.1-1-.1-.1-.2.2-.5.7-.7.5-.1.9-.1 1 .1z"></path><path fill="#EFD27F" d="M30.5 3.2c-.5-.8-1.5-1.1-2.4-.8-.9.4-1.3 1.3-1.1 2.2-.9.4-1.3 1.5-.9 2.5s1.5 1.4 2.5 1c.7-.3 1.2-1 1.2-1.8.5.5 1.4.7 2.1.4 1-.4 1.4-1.5 1-2.5-.4-.9-1.5-1.3-2.4-1z"></path><path fill="#E2B544" d="M28.6 8.1c.7-.3 1.2-1 1.2-1.8.5.5 1.4.7 2.1.4 1-.4 1.4-1.5 1-2.5-.4-.9-1.4-1.4-2.4-1.1M29.7 6.4c.5.5 1.4.7 2.1.4 1-.4 1.4-1.5 1-2.5-.4-.9-1.4-1.4-2.4-1.1-.4-.8-1.4-1.1-2.3-.8"></path><ellipse transform="matrix(.513 -.858 .858 .513 8.159 25.839)" fill="#FFF0B0" cx="26.9" cy="5.7" rx=".7" ry=".3"></ellipse><path fill="#FFF0B0" d="M28 2.9c.1.1.1.4-.1.7-.2.3-.4.5-.6.4-.1-.1-.1-.4.1-.7.2-.3.5-.5.6-.4z"></path><path fill="#EFD27F" d="M52.3 19.8c-.1-.8-.7-1.5-1.6-1.5-.8 0-1.6.5-1.7 1.3-.9 0-1.6.7-1.7 1.6-.1.9.7 1.7 1.6 1.8.7 0 1.3-.3 1.6-.9.2.6.8 1.1 1.5 1.1.9.1 1.7-.7 1.8-1.6 0-.9-.6-1.7-1.5-1.8z"></path><path fill="#E2B544" d="M48.9 22.9c.7 0 1.3-.3 1.6-.9.2.6.8 1.1 1.5 1.1.9.1 1.7-.7 1.8-1.6.1-.9-.6-1.6-1.5-1.8M50.5 22c.2.6.8 1.1 1.5 1.1.9.1 1.7-.7 1.8-1.6.1-.9-.6-1.6-1.5-1.8-.1-.8-.7-1.5-1.6-1.5"></path><path fill="#FFF0B0" d="M49 20.1c.1.1-.1.4-.4.6-.3.2-.6.2-.7.1-.1-.1.1-.4.4-.6.3-.2.6-.3.7-.1zM50.5 18.6c.1.1-.1.3-.3.5-.2.2-.5.2-.6.1-.1-.1.1-.3.3-.5.3-.2.5-.2.6-.1z"></path><path fill="#EFD27F" d="M34.2 26c-.1-.8-.7-1.5-1.6-1.5-.8 0-1.6.5-1.7 1.3-.9 0-1.6.7-1.7 1.6-.1.9.7 1.7 1.6 1.8.7 0 1.3-.3 1.6-.9.2.6.8 1.1 1.5 1.1.9.1 1.7-.7 1.8-1.6 0-.9-.6-1.7-1.5-1.8z"></path><path fill="#E2B544" d="M30.8 29.1c.7 0 1.3-.3 1.6-.9.2.6.8 1.1 1.5 1.1.9.1 1.7-.7 1.8-1.6.1-.9-.6-1.6-1.5-1.8M32.4 28.2c.2.6.8 1.1 1.5 1.1.9.1 1.7-.7 1.8-1.6.1-.9-.6-1.6-1.5-1.8-.1-.8-.7-1.5-1.6-1.5"></path><ellipse transform="matrix(.837 -.547 .547 .837 -9.593 20.976)" fill="#FFF0B0" cx="30.4" cy="26.6" rx=".6" ry=".3"></ellipse><path fill="#FFF0B0" d="M32.4 24.8c.1.1-.1.3-.3.5-.2.2-.5.2-.6.1-.1-.1.1-.3.3-.5.3-.2.6-.2.6-.1z"></path><path fill="#EFD27F" d="M48.8 13.4c-.1-.8-.7-1.5-1.6-1.5-.8 0-1.6.5-1.7 1.3-.9 0-1.6.7-1.7 1.6-.1.9.7 1.7 1.6 1.8.7 0 1.3-.3 1.6-.9.2.6.8 1.1 1.5 1.1.9.1 1.7-.7 1.8-1.6.1-.9-.6-1.7-1.5-1.8z"></path><path fill="#E2B544" d="M45.5 16.5c.7 0 1.3-.3 1.6-.9.2.6.8 1.1 1.5 1.1.9.1 1.7-.7 1.8-1.6.1-.9-.6-1.6-1.5-1.8M47.1 15.6c.2.6.8 1.1 1.5 1.1.9.1 1.7-.7 1.8-1.6.1-.9-.6-1.6-1.5-1.8-.1-.8-.7-1.5-1.6-1.5"></path><path fill="#FFF0B0" d="M45.6 13.7c.1.1-.1.4-.4.6-.3.2-.6.2-.7.1-.1-.1.1-.4.4-.6.3-.2.6-.3.7-.1zM47 12.2c.1.1-.1.3-.3.5-.2.2-.5.2-.6.1-.1-.1.1-.3.3-.5.3-.2.6-.2.6-.1z"></path><path fill="#EFD27F" d="M29.4 11.5c-.1-.5-.5-1-1-1-.6 0-1 .3-1.1.9-.6 0-1.1.5-1.1 1 0 .6.4 1.1 1 1.2.5 0 .9-.2 1.1-.6.1.4.5.7 1 .7.6 0 1.1-.4 1.2-1-.1-.6-.6-1.1-1.1-1.2z"></path><path fill="#E2B544" d="M27.1 13.6c.5 0 .9-.2 1.1-.6.1.4.5.7 1 .7.6 0 1.1-.4 1.2-1 0-.6-.4-1.1-1-1.2M28.2 13c.1.4.5.7 1 .7.6 0 1.1-.4 1.2-1 0-.6-.4-1.1-1-1.2-.1-.5-.5-1-1-1"></path><path fill="#FFF0B0" d="M27.2 11.7c.1.1-.1.3-.2.4-.2.1-.4.2-.4.1-.1-.1 0-.3.2-.4.1-.2.3-.2.4-.1zM28.2 10.7c.1.1 0 .2-.2.3-.2.1-.3.1-.4.1 0-.1 0-.2.2-.3.2-.1.3-.2.4-.1z"></path><path fill="#EFD27F" d="M42.2 18c-.1-.5-.5-1-1-1s-1 .3-1.1.9c-.6 0-1.1.5-1.1 1 0 .6.4 1.1 1 1.2.5 0 .9-.2 1.1-.6.1.4.5.7 1 .7.6 0 1.1-.4 1.2-1-.1-.7-.5-1.2-1.1-1.2z"></path><path fill="#E2B544" d="M40 20.1c.5 0 .9-.2 1.1-.6.1.4.5.7 1 .7.6 0 1.1-.4 1.2-1 0-.6-.4-1.1-1-1.2M41 19.4c.1.4.5.7 1 .7.6 0 1.1-.4 1.2-1 0-.6-.4-1.1-1-1.2-.1-.5-.5-1-1-1"></path><path fill="#FFF0B0" d="M40 18.1c.1.1-.1.3-.2.4-.2.1-.4.2-.4.1-.1-.1.1-.3.2-.4.2-.1.4-.1.4-.1zM41 17.2c.1.1 0 .2-.2.3-.2.1-.3.1-.4.1 0-.1 0-.2.2-.3.2-.2.4-.2.4-.1z"></path><path fill="#EFD27F" d="M16.5 18.8c-.5-.8-1.5-1.2-2.3-.8-.9.4-1.3 1.3-1.1 2.2-.9.4-1.3 1.5-.9 2.5s1.5 1.4 2.5 1c.7-.3 1.2-1 1.2-1.8.5.5 1.3.7 2.1.4 1-.4 1.4-1.5 1-2.5-.5-.9-1.5-1.3-2.5-1z"></path><path fill="#E2B544" d="M14.6 23.7c.7-.3 1.2-1 1.2-1.8.5.5 1.3.7 2.1.4 1-.4 1.4-1.5 1-2.5-.4-.9-1.4-1.4-2.4-1.1M15.8 22c.5.5 1.3.7 2.1.4 1-.4 1.4-1.5 1-2.5-.4-.9-1.4-1.4-2.4-1.1-.5-.8-1.5-1.2-2.3-.8"></path><path fill="#FFF0B0" d="M13.3 20.7c.2.1.1.4-.1.8-.2.3-.5.5-.6.4-.2-.1-.1-.4.1-.8.1-.3.4-.5.6-.4zM14.1 18.5c.1.1.1.4-.1.7-.2.3-.4.5-.6.4-.1-.1-.1-.4.1-.7.2-.3.5-.5.6-.4z"></path><path fill="#EFD27F" d="M33.2 17.2c-.3-1.3-1.5-2.2-2.9-2-1.3.1-2.4 1.2-2.5 2.5-1.4.2-2.4 1.5-2.3 2.9.1 1.5 1.5 2.6 3 2.5 1.1-.1 2-.9 2.3-1.8.5.9 1.5 1.5 2.6 1.4 1.5-.1 2.6-1.5 2.5-3-.1-1.5-1.3-2.5-2.7-2.5z"></path><path fill="#E2B544" d="M28.5 23.1c1.1-.1 2-.9 2.3-1.8.5.9 1.5 1.5 2.6 1.4 1.5-.1 2.6-1.5 2.5-3-.1-1.4-1.3-2.5-2.8-2.5M30.8 21.2c.5.9 1.5 1.5 2.6 1.4 1.5-.1 2.6-1.5 2.5-3-.1-1.4-1.3-2.5-2.8-2.5-.3-1.3-1.5-2.2-2.9-2"></path><path fill="#FFF0B0" d="M28 18.4c.2.2 0 .6-.4 1s-.9.5-1.1.3c-.2-.2 0-.6.5-1 .4-.4.8-.5 1-.3zM30 15.7c.2.2 0 .6-.4.9-.4.3-.8.4-.9.3-.1-.2 0-.6.4-.9.4-.3.8-.4.9-.3z"></path><path fill="#EFD27F" d="M40.3 10.1c0-1.3-1-2.4-2.4-2.6-1.3-.2-2.6.7-2.9 1.9-1.4-.1-2.7.9-2.9 2.4-.2 1.5.9 2.9 2.4 3.1 1.1.1 2.1-.4 2.7-1.3.3 1 1.2 1.8 2.3 1.9 1.5.2 2.9-.9 3.1-2.4 0-1.5-.9-2.8-2.3-3z"></path><path fill="#E2B544" d="M34.4 14.8c1.1.1 2.1-.4 2.7-1.3.3 1 1.2 1.8 2.3 1.9 1.5.2 2.9-.9 3.1-2.4.2-1.4-.8-2.7-2.2-3M37.1 13.5c.3 1 1.2 1.8 2.3 1.9 1.5.2 2.9-.9 3.1-2.4.2-1.4-.8-2.7-2.2-3 0-1.3-1-2.4-2.4-2.6"></path><path fill="#FFF0B0" d="M34.9 10.1c.1.2-.2.6-.7.9-.5.3-1 .3-1.1.1-.1-.2.2-.6.7-.9.5-.3 1-.3 1.1-.1zM37.5 8c.1.2-.1.5-.6.8-.4.2-.8.2-.9 0-.1-.2.1-.5.6-.8.4-.2.8-.2.9 0z"></path><path fill="#EFD27F" d="M45.8 23.7c0-1.3-1-2.4-2.4-2.6-1.3-.2-2.6.7-2.9 1.9-1.4-.1-2.7.9-2.9 2.4-.2 1.5.9 2.9 2.3 3.1 1.1.1 2.1-.4 2.7-1.3.3 1 1.2 1.8 2.3 1.9 1.5.2 2.9-.9 3.1-2.3.1-1.6-.8-2.9-2.2-3.1z"></path><path fill="#E2B544" d="M39.9 28.4c1.1.1 2.1-.4 2.7-1.3.3 1 1.2 1.8 2.3 1.9 1.5.2 2.9-.9 3.1-2.3.2-1.4-.8-2.7-2.2-3M42.6 27.1c.3 1 1.2 1.8 2.3 1.9 1.5.2 2.9-.9 3.1-2.3.2-1.4-.8-2.7-2.2-3 0-1.3-1-2.4-2.4-2.6"></path><path fill="#FFF0B0" d="M40.5 23.7c.1.2-.2.6-.7.9-.5.3-1 .3-1.1.1-.1-.2.2-.6.7-.9.4-.3.9-.3 1.1-.1zM43 21.5c.1.2-.1.5-.6.8-.4.2-.8.3-.9.1-.1-.2.1-.5.6-.8.4-.2.8-.3.9-.1z"></path><path fill="#EFD27F" d="M22.5 11.3c0-1.3-1-2.4-2.4-2.6-1.3-.2-2.6.7-2.9 1.9-1.4-.1-2.7.9-2.9 2.4-.2 1.5.9 2.9 2.4 3.1 1.1.1 2.1-.4 2.7-1.3.3 1 1.2 1.8 2.3 1.9 1.5.2 2.9-.9 3.1-2.3 0-1.5-.9-2.8-2.3-3.1z"></path><path fill="#E2B544" d="M16.6 16c1.1.1 2.1-.4 2.7-1.3.3 1 1.2 1.8 2.3 1.9 1.5.2 2.9-.9 3.1-2.3.2-1.4-.8-2.7-2.2-3M19.3 14.7c.3 1 1.2 1.8 2.3 1.9 1.5.2 2.9-.9 3.1-2.3.2-1.4-.8-2.7-2.2-3 0-1.3-1-2.4-2.4-2.6"></path><path fill="#FFF0B0" d="M17.1 11.4c.1.2-.2.6-.7.9-.5.3-1 .3-1.1.1-.1-.2.2-.6.7-.9.5-.3 1-.4 1.1-.1zM19.7 9.2c.1.2-.1.5-.6.8-.4.2-.8.3-1 .1-.1-.2.1-.5.6-.8.5-.3.9-.3 1-.1z"></path></svg>