<svg xmlns="http://www.w3.org/2000/svg" width="64" height="64" viewBox="0 0 64 64"><defs></defs><path fill="#FFC114" d="M30 46.9V58H14.3c-.5 2-.8 4-.8 5h32.9c.1-9-7.4-16.1-16.4-16.1z"></path><path fill="#F9A12C" d="M30 52.7v-8.4c7 0 12.1-5.4 12.1-12.1 0-6.7-5.1-12.1-12.1-12.1v-8.4c11 0 20.5 9.2 20.5 20.5 0 11.4-9.5 20.5-20.5 20.5z"></path><path fill="#E88610" d="M50.5 32.3c0 11.3-9.5 20.5-20.5 20.5v-8.4c7 0 12.1-5.4 12.1-12.1"></path><path fill="#E88610" d="M21 1h8v4h-8z"></path><path fill="#8989CC" d="M20 6h10v20H20z"></path><path fill="#6965A8" d="M20 6h10v20"></path><circle fill="#EAEAEA" cx="25.3" cy="19.1" r="3"></circle><circle fill="#50BB75" cx="25.3" cy="19.1" r="1.8"></circle><path fill="#0AA06E" d="M26.5 17.8c.7.7.7 1.8 0 2.5s-1.8.7-2.5 0"></path><path fill="#FFC114" d="M18 26h15v4H18z"></path><path fill="#FCA12A" d="M18 26h15v4"></path><path fill="#FFC114" d="M17 2h16v4H17z"></path><path fill="#FCA12A" d="M17 2h16v4"></path><path fill="#FCA12A" d="M20 30h11v4H20z"></path><path fill="#E88610" d="M20 30h11v4"></path><path fill="#E88610" d="M24 34h3v2h-3z"></path><path fill="#EAEAEA" d="M31.2 44H19.4l4.3-8h3.1z"></path><path fill="#E88610" d="M18 44h14v3H18z"></path><path fill="#8989CC" d="M23 49h4v2h-4z"></path></svg>