<svg xmlns="http://www.w3.org/2000/svg" width="64" height="64" viewBox="0 0 64 64"><defs></defs><path fill="#512E04" d="M9 1h46v57H9z"></path><path fill="#331B00" d="M9 1h46v57"></path><path fill="#AF8F6D" d="M13 6h38v48H13z"></path><path fill="#9B7A5D" d="M13 6h38v48"></path><g fill="#512E04"><path d="M16 26h11v1H16zM16 28h11v1H16zM16 30h11v1H16zM16 32h11v1H16zM37 26h11v1H37zM37 28h11v1H37zM37 30h11v1H37zM37 32h11v1H37z"></path></g><path fill="#9B7A5D" d="M43.6 53L28 37.4l-2.7 2.7 13 12.9zM50 48.8L38.8 37.4l-2.5 2.7 13 12.9H51z"></path><circle fill="#FFCD50" cx="26.6" cy="38.5" r="1.9"></circle><path fill="#F7AF48" d="M27.9 37.1c.8.8.8 2 0 2.7-.8.8-2 .8-2.7 0"></path><circle fill="#FFCD50" cx="37.4" cy="38.5" r="1.9"></circle><path fill="#F7AF48" d="M38.8 37.1c.8.8.8 2 0 2.7-.8.8-2 .8-2.7 0"></path><path fill="#512E04" d="M31 4h2v52h-2z"></path><path fill="#331B00" d="M10 58h4v3h-4z"></path><path fill="#512E04" d="M15.2 62c0 .4-.3 1-.7 1h-5c-.4 0-.7-.6-.7-1s.3-1 .7-1h5c.4 0 .7.6.7 1z"></path><path fill="#331B00" d="M50 58h4v3h-4z"></path><path fill="#512E04" d="M55.2 62c0 .4-.3 1-.7 1h-5c-.4 0-.7-.6-.7-1s.3-1 .7-1h5c.4 0 .7.6.7 1z"></path></svg>