<svg xmlns="http://www.w3.org/2000/svg" width="64" height="64" viewBox="0 0 64 64"><defs></defs><circle fill="#DD7B19" cx="20.7" cy="45.5" r="3"></circle><path fill="#C6630A" d="M22.9 43.3c1.2 1.2 1.2 3.1 0 4.3-1.2 1.2-3.1 1.2-4.3 0"></path><path fill="#003C6D" d="M21.2 45.5c0 .3-.2.5-.5.5s-.5-.2-.5-.5v-17c0-.3.2-.5.5-.5s.5.2.5.5v17z"></path><path fill="#0C5896" d="M30 32h4v26h-4z"></path><path fill="#003C6D" d="M30 32h4v11h-4z"></path><path fill="#C92396" d="M51.2 32H12.8l7.9-29h22.6z"></path><path fill="#A8047E" d="M21 3h22.3l7.9 29"></path><path fill="#E259B1" d="M43 32H21l4.5-29h13z"></path><path fill="#CC3EA1" d="M26 3h12.5L43 32"></path><path fill="#C92396" d="M35.6 32h-7.2l1.4-29h4.4z"></path><path fill="#A8047E" d="M30 3h4.2l1.4 29"></path><path fill="#E259B1" d="M44.6 2c0 .5-.4 1-.9 1H20.3c-.5 0-.9-.5-.9-1s.4-1 .9-1h23.5c.4 0 .8.5.8 1zM52.6 33c0 .5-.4 1-.9 1H12.3c-.5 0-.9-.5-.9-1s.4-1 .9-1h39.5c.4 0 .8.5.8 1z"></path><path fill="#1577AD" d="M47.9 63c-2.7-4-8.8-6.4-15.9-6.4S18.8 59 16.1 63h31.8z"></path><path fill="#0C5896" d="M17 63h30.9c-2.7-4-8.8-6.4-15.9-6.4"></path></svg>