<svg xmlns="http://www.w3.org/2000/svg" width="1440" height="900" viewBox="0 0 1440 900" preserveAspectRatio="xMidYMid slice">
  <defs>
    <linearGradient id="g" x1="0" y1="0" x2="1" y2="1">
      <stop offset="0" stop-color="#93c5fd" stop-opacity="0.35"/>
      <stop offset="0.45" stop-color="#a7f3d0" stop-opacity="0.25"/>
      <stop offset="1" stop-color="#fca5a5" stop-opacity="0.25"/>
    </linearGradient>
    <radialGradient id="r" cx="50%" cy="40%" r="70%">
      <stop offset="0" stop-color="#ffffff" stop-opacity="0.75"/>
      <stop offset="1" stop-color="#ffffff" stop-opacity="0"/>
    </radialGradient>
    <filter id="blur" x="-20%" y="-20%" width="140%" height="140%">
      <feGaussianBlur stdDeviation="18"/>
    </filter>
  </defs>

  <rect width="1440" height="900" fill="url(#g)"/>
  <rect width="1440" height="900" fill="url(#r)"/>

  <g fill="#111827" fill-opacity="0.05" filter="url(#blur)">
    <circle cx="220" cy="210" r="170"/>
    <circle cx="1220" cy="250" r="220"/>
    <circle cx="980" cy="760" r="260"/>
    <circle cx="420" cy="780" r="210"/>
  </g>

  <g stroke="#111827" stroke-opacity="0.05" stroke-width="2">
    <path d="M-50 640 C 180 520, 360 760, 600 640 S 980 520, 1240 650 S 1560 760, 1520 600" fill="none"/>
    <path d="M-80 360 C 140 240, 380 430, 640 320 S 980 200, 1240 330 S 1540 470, 1560 300" fill="none"/>
  </g>

  <g fill="#111827" fill-opacity="0.04">
    <circle cx="620" cy="210" r="6"/>
    <circle cx="680" cy="240" r="4"/>
    <circle cx="740" cy="210" r="5"/>
    <circle cx="800" cy="250" r="3"/>
    <circle cx="860" cy="220" r="4"/>

    <circle cx="320" cy="480" r="4"/>
    <circle cx="380" cy="520" r="3"/>
    <circle cx="440" cy="480" r="5"/>
    <circle cx="500" cy="520" r="4"/>
    <circle cx="560" cy="490" r="3"/>

    <circle cx="1080" cy="520" r="4"/>
    <circle cx="1140" cy="560" r="3"/>
    <circle cx="1200" cy="520" r="5"/>
    <circle cx="1260" cy="560" r="4"/>
    <circle cx="1320" cy="530" r="3"/>
  </g>
</svg>
