<svg xmlns="http://www.w3.org/2000/svg" width="64" height="64" viewBox="0 0 512 512"><defs></defs><path fill="#32BEA6" d="M504.1 256C504.1 119 393 7.9 256 7.9S7.9 119 7.9 256 119 504.1 256 504.1 504.1 393 504.1 256z"></path><path fill="#B65E28" d="M342.2 122l-4.3-2.1c-9.1-4.4-18.9-6.6-28.9-6.6-20.8 0-40.3 9.8-52.9 25.8-12.6-16-32.1-25.8-52.9-25.8-10.1 0-19.8 2.2-28.9 6.6L170 122c-16.2 7.7-28.4 21.3-34.3 38.2-6 16.9-5 35.1 2.8 51.3 5.3 11.1 13.4 20.3 23.5 27v150.3c0 5.4 4.4 9.8 9.8 9.8h168.8c5.4 0 9.8-4.4 9.8-9.8V238.5c10.1-6.7 18.2-15.9 23.5-27 15.8-33.4 1.7-73.5-31.7-89.5z"></path><path fill="#F19438" d="M337.9 130.9l-4.3-2.1c-28.5-13.7-62.8-1.6-76.4 26.9-.4.9-.8 1.7-1.2 2.6-.4-.9-.8-1.8-1.2-2.6-13.7-28.5-47.9-40.6-76.4-26.9l-4.3 2.1c-28.5 13.7-40.6 47.9-27 76.4 5.4 11.4 14.2 20.1 24.5 25.7v155.9h168.8v-156c10.3-5.6 19-14.3 24.5-25.7 13.6-28.5 1.6-62.7-27-76.3z"></path><path fill="#BC7030" d="M182.6 167.6c-3.8 1.4-6.6 5.1-6.6 9.4 0 5.5 4.5 10 10 10 1.9 0 3.8-.6 5.3-1.5l-8.9-7.8.2-10.1zM328 362c-1.2-3.9-4.7-6.8-9.1-7-5.5-.3-10.2 4-10.5 9.5-.1 1.9.4 3.8 1.3 5.4l8.2-8.5 10.1.6zM324.6 151.6c.6-4-1.4-8.2-5.2-10.2-4.9-2.6-10.9-.8-13.5 4.1-.9 1.7-1.3 3.6-1.2 5.4l11.1-4.1 8.8 4.8zM194.5 338.9c-5.4 2-9.2 7.1-9.2 13.1 0 7.7 6.3 14 14 14 2.7 0 5.3-.8 7.4-2.1L194.3 353l.2-14.1zM271.5 291c-1.7-4.7-6.3-8.1-11.6-8-6.8 0-12.3 5.5-12.2 12.3 0 2.4.7 4.6 1.9 6.5l9.5-10.9 12.4.1zM315.7 250.2c4.4-1.6 7.5-5.8 7.5-10.7 0-6.3-5.1-11.4-11.4-11.4-2.2 0-4.3.6-6 1.7l10.1 8.9-.2 11.5z"></path><path fill="#D0B998" d="M327.7 301.5c21.7-65.5 17.4-99.8-23-140.2-40.4-40.4-55.1-15.7-108.4-12.8-60.3 3.3-9.5 117.4-29.7 158.5-26.6 54.3 142.1 51.9 161.1-5.5z"></path><path fill="#E9E5D7" d="M325.5 299.4c21-63.8 16.7-97.2-22.8-136.7-39.5-39.5-53.8-15.5-105.7-12.8-58.8 3.1-.5 112.6-26.2 156.5-28.3 48.2 136.3 48.9 154.7-7z"></path><ellipse fill="#FDBF23" cx="221.2" cy="209.1" rx="35.4" ry="36"></ellipse><path fill="#FBC651" d="M224.6 176.4c-19.6 0-35.4 16.1-35.4 36s55-36 35.4-36z"></path></svg>