<svg xmlns="http://www.w3.org/2000/svg" width="64" height="64" viewBox="0 0 512 512"><defs></defs><path fill="#32BEA6" d="M504.1 256C504.1 119 393 7.9 256 7.9S7.9 119 7.9 256 119 504.1 256 504.1 504.1 393 504.1 256z"></path><path fill="#EAD7B0" d="M364.1 146.4H139c0 77.5 21.9 161.6 32.5 219.8 10.6 58.2 152.2 55.5 160.1 0 7.8-55.4 32.5-142.5 32.5-219.8zM139.2 147c0-38.3 224.9-35.8 224.9 0s-224.9 38.3-224.9 0z"></path><path fill="#E5C391" d="M151.1 147c0-31.1 201-29 201 0s-201 31.1-201 0z"></path><path fill="#EAD7B0" d="M440.2 204.9c-15.9-46.7-97.9-18.5-97.9-18.5l-17.6 132.2c35.3-9.7 59.2-10.5 92.6-30.9 31.7-19.4 31.3-58.1 22.9-82.8zm-36.1 66.9c-21.6 13.2-37.1 13.7-60 20l11.4-85.7s53.2-18.3 63.4 12c5.5 16 5.8 41.1-14.8 53.7z"></path><path fill="#494745" d="M298.2 235.4c-1.6 0-2.9-1.3-2.9-2.9v-66.1c0-1.6 1.3-1.9 2.9-2.1 1.7-.1 2.8-.1 2.8 1.5v66.6c0 1.8-1.2 3-2.8 3z"></path><path fill="#95C83D" d="M328.5 289.3c0 6.8-5.5 12.3-12.3 12.3h-36.9c-6.8 0-12.3-5.5-12.3-12.3v-40.2c0-5.6 18.1-23.4 21.5-23.4H307c3.4 0 21.5 17.8 21.5 23.4v40.2z"></path><path fill="#BDDA83" d="M319.2 255.9c0 2.4-1.9 4.3-4.2 4.3h-32.1c-2.3 0-4.2-1.9-4.2-4.3 0-2.3 1.9-4.2 4.2-4.2H315c2.3 0 4.2 1.9 4.2 4.2zM319.2 272c0 2.3-1.9 4.3-4.2 4.3h-32.1c-2.3 0-4.2-1.9-4.2-4.3s1.9-4.3 4.2-4.3H315c2.3 0 4.2 1.9 4.2 4.3zM319.2 289c0 2.3-1.9 4.2-4.2 4.2h-32.1c-2.3 0-4.2-1.9-4.2-4.2 0-2.3 1.9-4.2 4.2-4.2H315c2.3-.1 4.2 1.8 4.2 4.2z"></path><path fill="#494745" d="M302 232.9c0 1.5-1.7 2.8-3.7 2.8s-3.7-1.3-3.7-2.8c0-1.6 1.7-2.8 3.7-2.8s3.7 1.3 3.7 2.8z"></path></svg>