<svg xmlns="http://www.w3.org/2000/svg" width="64" height="64" viewBox="0 0 64 64"><defs></defs><path fill="#B7874E" d="M51.6 6.5c0 1.9-2.3 3.5-5.2 3.5H17.6c-2.9 0-5.2-1.6-5.2-3.5S14.7 3 17.6 3h28.8c2.9 0 5.2 1.6 5.2 3.5z"></path><path fill="#93591B" d="M34 3h12.4c2.9 0 5.2 1.6 5.2 3.5s-2.3 3.4-5.2 3.4"></path><path fill="#494949" d="M45.3 61H18.7L10.5 7h43z"></path><path fill="#282828" d="M10 7h43.5l-8.2 54"></path><path d="M10 7h43.5l-4.7 31.1"></path><path fill="#B7874E" d="M6 6h52v6H6z"></path><path fill="#93591B" d="M6 6h52v6"></path><path fill="#878787" d="M46.2 55H17.8l.2 2h28z"></path><path fill="#FCF170" d="M47.8 45l3.5-23H12.7l3.5 23z"></path><path fill="#F2B233" d="M47.8 45l3.5-23H13"></path><path d="M31 24.4c-4 .7-7.1 4.4-7.1 9 0 4.5 3.1 8.3 7.1 9v-18zM33 24.4v18c4-.7 7.1-4.4 7.1-9 0-4.5-3.1-8.3-7.1-9z"></path></svg>