<svg xmlns="http://www.w3.org/2000/svg" width="64" height="64" viewBox="0 0 512 512"><defs></defs><path fill="#B1C635" d="M7.9 256C7.9 119 119 7.9 256 7.9S504.1 119 504.1 256 393 504.1 256 504.1 7.9 393 7.9 256z"></path><path fill="#FDD300" d="M202.7 82.2c10.3 4.6 23.7 96.5 82.7 146.9 48.6 41.5 135.6 49.7 164 55.1 5.4 1 6.4 2.9 6.9 3.9 1.6 3.1 2.5 6.1-.7 10.1-10.1 12.7-43.3 28.9-60.6 29.5-64.3 2.3-199.8-32-223.1-149-7.9-38.7 10.2-105.8 30.8-96.5zM183.4 97.8s12.5-33.5 9-40.7c-3.5-7.2 14 1.7 14 1.7s-3 29.2-.5 36.3c2.5 6.9-22.5 2.7-22.5 2.7z"></path><path fill="#F1CF13" d="M203.3 90.3c9.9 4.5 22.7 92.5 79.2 140.8 55.4 47.3 162.8 49.5 165.9 55.7 6.2 12.4-34.8 36.5-56.7 37.3-61.6 2.2-192.9-31.6-215.2-143.7-7.4-37.3 7.1-99 26.8-90.1z"></path><path fill="#AD842D" d="M189.7 52.1s17 3.3 16.8 6.5c-.2 2.7-15.5-1.2-16.4-3.6-.4-.8-.4-1.9-.4-2.9zM448.9 284.1c5.2.9 7 2.9 7.6 4.7 1 2.7 2.7 3.3 1.2 6-.6 1-1.5 2.2-2.3 3.4 0 0-3.5-4.5-3.9-7.4-.2-2.3-2.6-6.7-2.6-6.7z"></path><path fill="#FDD300" d="M400.3 298.8c-64.3 0-114.6-17.4-149.9-52C186 183.9 195 84.6 195.1 83.6l3.9.4c-.1 1-8.9 98.5 54.2 160.1 43.1 42.2 109.3 58.2 196.8 47.7l.5 3.9c-17.7 2.1-34.3 3.1-50.2 3.1zM201.9 100.9c9.8 5.9 11.9 99.8 64.9 157.6 43.7 47.6 130 66.6 157.9 75.5 5.3 1.7 6 3.7 6.4 4.8 1.2 3.3 1.8 6.4-2 10.1-11.7 11.5-42.4 22.6-59.8 21-64.8-5.6-198-57.8-207-178.1-2.9-39.9 20.2-102.7 39.6-90.9zM180.7 114.1s16.7-32.1 14.1-39.8c-2.6-7.7 13.8 3.4 13.8 3.4s-6.6 29-5 36.3c1.6 7.5-22.9.1-22.9.1z"></path><path fill="#F8DA02" d="M201.6 109.1c9.3 5.7 11.4 95.6 62.2 151.1 49.8 54.3 157.4 69.7 159.7 76.3 4.7 13.2-39.4 32.3-61.5 30.4-62.1-5.4-189.7-55.4-198.3-170.7-2.9-38.2 19.2-98.4 37.9-87.1z"></path><path fill="#AD842D" d="M192.6 69.1s16.6 5.4 16 8.6c-.2 1.2-3.5.7-7.1-.5-4.1-1.4-8.6-3.7-8.9-5.1-.2-.9-.1-2.1 0-3zM424.4 333.9c5.1 1.5 6.6 3.8 7.1 5.7.6 2.8 2.3 3.6.4 6.2-.7 1-1.8 2-2.7 3.1 0 0-3-5-3-7.9 0-2.5-1.8-7.1-1.8-7.1z"></path><path fill="#FDD300" d="M424.4 345.6c-90.3-.2-155.9-24.9-194.8-73.5-56.9-71.1-35.7-169.7-35.4-170.7l3.8.8c-.2 1-21 97.8 34.7 167.4 38.1 47.6 102.6 71.9 191.7 72v4zM199.7 90c9.5 8.5-7 112.2 39.6 186.5 38.4 61.2 129.6 99.5 158.5 114.9 5.5 2.9 5.9 5.2 6.1 6.5.6 3.9.7 7.4-4.2 10.7-15.2 10.2-51.2 16.3-70.1 11.1-70.2-19.2-206.2-103.5-191.8-237.7 4.8-44.5 42.8-108.9 61.9-92zM173.6 100.3s24.9-32 23.5-40.9c-1.4-9 14.5 6.5 14.5 6.5s-13.1 30.5-12.8 39c.3 8.4-25.2-4.6-25.2-4.6z"></path><path fill="#F8DA02" d="M197.6 99c9.1 8.1-6.7 107.5 38 178.7 43.8 69.8 159.1 108.4 160.4 116.2 2.5 15.4-49.9 27.6-73.9 21.1-67.3-18.4-197.6-99.2-183.8-227.8 4.6-42.7 41.1-104.5 59.3-88.2z"></path><path fill="#AD842D" d="M195.8 53.1s17.2 9.3 15.9 12.7c-1.1 2.9-16.3-6.5-16.5-9.4-.1-1 .3-2.3.6-3.3zM397.4 391.2c5.3 2.7 6.5 5.5 6.6 7.7.1 3.2 1.8 4.4-.8 6.9-.9.9-2.4 1.8-3.6 2.9 0 0-2.3-6.1-1.7-9.3.6-2.7-.5-8.2-.5-8.2z"></path><path fill="#FDD300" d="M395.1 403.9c-99.3-18.4-166.3-58.8-199.3-120.1-48.2-89.6-5-193.7-4.6-194.7l3.6 1.5c-.4 1-42.9 103.4 4.4 191.4 32.4 60.2 98.5 99.9 196.5 118l-.6 3.9zM194.8 87.3c7.6 10.2-29.5 108.5 1.3 190.7 25.3 67.7 106.9 123.5 132.1 144.4 4.8 4 4.7 6.3 4.7 7.6-.2 3.9-.8 7.4-6.3 9.6-17 7-61 5.8-78.4-3.1-64.9-33-176.8-143.1-135.7-271.7 13.6-42.5 67.1-97.9 82.3-77.5zM167.3 92.2s30.8-26.3 31.3-35.4c.5-9 12.9 9.3 12.9 9.3s-19 27.3-20.4 35.6c-1.5 8.3-23.8-9.5-23.8-9.5z"></path><path fill="#FDE500" d="M191 95.7c7.3 9.8-28.2 103.9 1.2 182.7 28.8 77.2 134 138.2 133.7 146-.7 15.6-54.5 17-76.6 5.8-62.2-31.6-173.5-136.9-134.2-260.1 13.2-40.9 61.3-94 75.9-74.4z"></path><path fill="#AD842D" d="M198.5 50.4s15 12.6 13 15.7c-1.7 2.6-14.7-9.6-14.3-12.5.1-1.1.8-2.3 1.3-3.2zM327.8 422.2c4.7 3.8 5.3 6.7 5 8.8-.5 3.2.9 4.7-2.1 6.6-1.1.7-2.7 1.3-4.1 2.1 0 0-1-6.4.2-9.4 1-2.6 1-8.1 1-8.1z"></path><path fill="#FDD300" d="M323 434.1c-93.5-38-151.1-91.1-171-157.7-29.1-97.5 34.1-190.7 34.7-191.6l3.2 2.2c-.6.9-62.8 92.7-34.2 188.3C175.3 340.8 232 393 324.4 430.5l-1.4 3.6z"></path></svg>