<svg xmlns="http://www.w3.org/2000/svg" width="64" height="64" viewBox="0 0 64 64"><defs></defs><path fill="#EAE5D8" d="M56.8 23.7c0 12-11.1 15.8-24.8 15.8-13.7 0-24.8-3.7-24.8-15.8S18.3 1.9 32 1.9c13.7 0 24.8 9.7 24.8 21.8z"></path><path fill="#fff" d="M55.3 23c0 11.7-10.8 15.3-24.1 15.3-13.2 0-24-3.6-24-15.3S18 1.9 31.3 1.9c13.2 0 24 9.4 24 21.1z"></path><path fill="#F4F1E6" d="M31.3 1.9c13.3 0 24.1 9.5 24.1 21.1S44.5 38.3 31.3 38.3"></path><ellipse fill="#FFB000" cx="31.3" cy="16.9" rx="10" ry="7.8"></ellipse><path fill="#FF7900" d="M31.3 9c5.5 0 10 3.5 10 7.8s-4.5 7.8-10 7.8"></path><ellipse transform="matrix(.797 -.604 .604 .797 -2.689 18.582)" fill="#FFDA00" cx="26.3" cy="13.3" rx="4.2" ry="1.5"></ellipse><circle fill="#F4F1E6" cx="16.8" cy="21.9" r="1.3"></circle><circle fill="#fff" cx="46.5" cy="21.3" r="1.3"></circle><circle fill="#F4F1E6" cx="14.4" cy="29.1" r="1.5"></circle><circle fill="#fff" cx="43.6" cy="29.7" r="2.1"></circle><circle fill="#F4F1E6" cx="17.7" cy="11.9" r="1.1"></circle><circle fill="#fff" cx="39" cy="7.3" r="1.1"></circle><path fill="#C95039" d="M57 42.1c-2-.9-6.6-1.7-12.1-1.8-6.2 0-11.3.7-12.7 1.7-1.2 1-6.4 2-12.8 1.9-5.8-.1-10.4-.8-12.4-1.8v7.4c2 1 6.5 1.7 12.2 1.8 6.4.1 11.7-.7 12.9-1.8 1.3-1.1 6.5-1.8 12.7-1.7 5.7.1 10.2.8 12.2 1.8v-7.5z"></path><path fill="#AD361A" d="M57 42.1c-2-.9-6.6-1.7-12.1-1.7-5.5-.1-10.1.5-12.1 1.3l-.1 7.3c2-.9 6.6-1.4 12-1.3 5.7.1 10.2.8 12.2 1.8v-7.4z"></path><path fill="#ED8A72" d="M57 46.6c-2-1-6.6-1.7-12.2-1.8-6.2-.1-11.4.7-12.8 1.7-1.1 1.1-6.4 1.9-12.8 1.8-5.7 0-10.2-.8-12.2-1.7v1c2 1 6.6 1.7 12.3 1.8 6.4.1 11.7-.7 12.9-1.8 1.3-1.1 6.5-1.8 12.7-1.7 5.6.1 10.2.8 12.2 1.8v-1.1zM57 44c-2-.9-6.6-1.7-12.1-1.7-6.2-.1-11.4.7-12.8 1.7-1.1 1.1-6.4 1.9-12.8 1.8C13.5 45.7 9 45 7 44v1c2 1 6.5 1.8 12.3 1.8 6.4.1 11.7-.7 12.9-1.8 1.4-1.1 6.5-1.8 12.7-1.7 5.6 0 10.1.8 12.1 1.7v-1z"></path><path fill="#C95039" d="M7 60.4c2 .9 6.6 1.5 12.1 1.5 6.2.1 11.3-.9 12.7-1.9 1.2-1 6.4-1.7 12.8-1.6 5.8.1 10.3 1.1 12.3 2V53c-2-1-6.5-1.7-12.2-1.8-6.3 0-11.7.8-12.8 1.9-1.3 1.1-6.5 1.8-12.7 1.7C13.5 54.8 9 54 7 53v7.4z"></path><path fill="#AD361A" d="M7 60.4c2 .9 6.6 1.7 12.1 1.7 5.5.1 10.1-.9 12.1-1.8l.1-6.9c-2 .9-6.6 1.4-12 1.3C13.6 54.8 9 54 7 53v7.4z"></path><path fill="#ED8A72" d="M7 55.9c2 1 6.6 1.7 12.2 1.8 6.2.1 11.4-.7 12.8-1.7 1.1-1.1 6.4-1.9 12.8-1.8 5.7 0 10.2.8 12.2 1.8v-1c-2-1-6.6-1.7-12.3-1.8-6.4-.2-11.7.6-12.8 1.8-1.3 1.1-6.5 1.8-12.7 1.7-5.7-.1-10.2-.8-12.2-1.8v1zM7 58.5c2 .9 6.6 1.7 12.1 1.7 6.2.1 11.4-.7 12.8-1.7 1.2-1.1 6.4-1.9 12.8-1.8 5.8.1 10.3.8 12.3 1.8v-1c-2-1-6.5-1.8-12.3-1.8-6.4-.1-11.7.7-12.9 1.8-1.4 1.1-6.5 1.8-12.7 1.7-5.6 0-10.1-.8-12.1-1.7v1z"></path></svg>