<svg xmlns="http://www.w3.org/2000/svg" width="64" height="64" viewBox="0 0 512 512"><defs></defs><path fill="#25B7D3" d="M504.1 256C504.1 119 393 7.9 256 7.9S7.9 119 7.9 256 119 504.1 256 504.1 504.1 393 504.1 256z"></path><path fill="#141E15" d="M275.7 152.5c-1.1-7.8-1.8-17.1-1.8-17.1H238s-.7 9.3-1.8 17.1c-3.7 25.2-29.7 32-29.7 70.9v220.5c0 19.2 98.8 19.2 98.8 0V223.4c.1-39-25.9-45.8-29.6-70.9z"></path><path fill="#9E5358" d="M272 56.5s-3.5-2.8-16-2.8-16 2.8-16 2.8l-1.9 78.9h35.8L272 56.5z"></path><path fill="#BC6870" d="M256 85.7h-16.7l-1.2 49.7H256z"></path><path fill="#82454B" d="M273.6 68.1h-35.1c-1 0-1.9.9-1.9 2.1l-.8 13.5c0 4.1 10.1 3.9 20.2 3.9 10.2 0 20.4.2 20.4-3.9l-.8-13.5c-.1-1.1-1-2.1-2-2.1z"></path><path fill="#9E5358" d="M273.6 65.4h-35.1c-1 0-1.9.9-1.9 2.1l-.8 16.1c0 1.2.9 2.1 2 2.1h36.6c1.1 0 2-.9 2-2.1l-.8-16.1c-.1-1.1-1-2.1-2-2.1z"></path><path fill="#212D22" d="M238.1 135.4s-.7 9.3-1.8 17.1c-3.7 25.2-29.7 32-29.7 70.9v220.5c0 9.6 24.7 14.4 49.4 14.4V135.4h-17.9z"></path><path fill="#BC6870" d="M256 53.7c-12.4 0-16 2.8-16 2.8l-.2 8.9H256V53.7zM239.8 65.4h-1.3c-1 0-1.9.9-1.9 2.1l-.8 16.1c0 1.2.9 2.1 2 2.1H256V65.4h-16.2z"></path></svg>