<svg xmlns="http://www.w3.org/2000/svg" width="64" height="64" viewBox="0 0 512 512"><defs></defs><path fill="#25B7D3" d="M504.1 263.3c0 137-111.1 248.1-248.1 248.1C119 511.3 7.9 400.3 7.9 263.3S119 15.2 256 15.2s248.1 111.1 248.1 248.1"></path><path fill="#FDF6B5" d="M321.9 167.9c-2.8-34-31.2-60.7-65.9-60.7s-63.2 26.7-66 60.7c-.2-.1-.2-.2-.2-.2v239.4c0 6.8 5.5 12.3 12.2 12.3h107.9c6.8 0 12.3-5.5 12.3-12.3V167.7s-.1.1-.3.2"></path><path fill="#E3C19B" d="M294.1 199.3s4.5 8.9-4 14.4c-2.1 1.4-4.4 2.8-6.9 4.4-2.5 1.5-5 3.2-7.7 4.8-2.7 1.7-5.5 3.4-8.3 5.1-2.8 1.7-5.7 3.5-8.6 5.2-2.9 1.7-5.8 3.4-8.6 5.1-2.8 1.7-5.7 3.3-8.4 4.9-5.5 3.2-10.6 6.1-15 8.6-8.8 4.9-14.8 8.1-14.8 8.1s5.6-3.8 14.1-9.3c4.3-2.7 9.2-5.9 14.6-9.2 2.7-1.7 5.5-3.4 8.3-5.1 2.8-1.7 5.7-3.5 8.6-5.2 2.9-1.7 5.8-3.4 8.6-5.1 2.9-1.7 5.7-3.3 8.4-4.9 2.7-1.6 5.4-3.1 7.9-4.5s4.9-2.8 7.1-4c8.8-5.1 4.7-13.3 4.7-13.3M317 173.4c0 33.7-61 61-61 61s-61-27.3-61-61 27.3-61 61-61 61 27.3 61 61"></path><path fill="#BE1E2D" d="M315.1 183.7c-2.6-6.8-6.2 29.2-10.4-8.8-4.5-16-9.8-14-15.4-4.2-5.6-4.8-10.9-10.3-15.4 4.2-4.5-13-8.3 19-10.9 10.9-.4 2.2-.8 3.8-1.1 5.1 11.5 9.4 24.4 16.5 31.5 20.2 9.6-7.8 18.1-17.1 21.7-27.4"></path><path fill="#F9EC31" d="M290.6 185c-.4-2.3-.7-5-1.1-8.3-4.5-16-9.8-14-15.4-4.2-5.6-4.8-10.9-10.3-15.4 4.2-3.9-11.4-7.3 11.6-9.9 12.2.3 8.2 4.2 16.1 10 23.2 10.9-6.7 23.5-16.1 31.8-27.1"></path><path fill="#37B34A" d="M246.5 173.1c-2.6-14.5-6.4 29.7-10.9-10.9-4.5-16-9.8-14-15.4-4.2-5.6-4.8-10.8-10.3-15.4 4.2-3.9-11.4-7.3 11.7-9.9 12.2.7 19.3 21.2 36.4 38.2 47.3.8-1.8 1.6-4.1 2.4-7 4.5-18.4 8.3-.5 10.9-10.9 2.2-10.8 3.6-22.8 4-19.5-.3-6.6-1.7-12.7-3.9-11.2M250.6 184.3c.1 1.4.1 2.8.1 4.2 0-2.2-.1-3.5-.1-4.2M308.3 196c-.4-2.3-.7-5-1.1-8.3-4.5-16-9.8-14-15.4-4.2-5.6-4.8-10.9-10.3-15.4 4.2-3.9-11.4-7.3 11.7-9.9 12.2.3 8.2 4.2 16.1 10 23.2 10.9-6.7 23.6-16.1 31.8-27.1"></path><path fill="#BE1E2D" d="M276.7 217.6c.1 1.4.1 2.8.1 4.2 0-2.2 0-3.5-.1-4.2M256 234.4s8.4-3.8 19-10.2c.9-5.2 1.4-8.4 1.7-6.5-.4-6.6-1.8-12.7-4-11.2-2.6-14.5-6.4 29.7-10.9-10.9-4.5-16-9.8-14-15.4-4.2-5.6-4.8-10.8-10.3-15.4 4.2-4.5-13-8.3 19-10.9 10.9-.4 2.2-.8 3.8-1.1 5.1 17.1 13.9 37 22.8 37 22.8"></path><path fill="#F1F1F2" d="M234.1 194.3c6.7-10.2 18.1 8.7 26 14.1 5.1 4.4-1 12.7-7.1 14-10.8 1.7-17.1-9.9-19.6-19-.3-3-.1-6.2.7-9.1M276 159.3c12.2.9 1.1 20.1.1 29.6-1.4 6.6-11.6 5.3-15.7.6-6.7-8.7.5-19.7 7.3-26.4 2.5-1.8 5.5-3.1 8.3-3.8"></path><path fill="#A87C4F" d="M256 234.4s11-4.9 23.6-13.2c-.4-2.2-.9-4.8-1.3-7.8-4.6-2-10.2-21.1-15.5-3.8-5.8-8.5-11.2-12.8-15.3 4.5-3.9 17.9-8 2-10.4 10.2 10.6 6.4 18.9 10.1 18.9 10.1M299.5 196.1c-.1-1.4-.2-2.8-.2-4.2.1 2.1.1 3.5.2 4.2M315.4 159.6c-.6 1.5-1.1 3.4-1.6 5.6-4.1 18.5-8.3.7-10.7 11.2-1.9 10.8-3.1 22.8-3.6 19.6.3 3.2.8 6.2 1.5 8.3 9.1-9.1 16-19.7 16-31 0-4.6-.5-9.3-1.6-13.7"></path><path fill="#E3C19B" d="M304.2 250.8s-5.6 3.8-14.1 9.3c-2.1 1.4-4.4 2.8-6.9 4.4-2.5 1.5-5 3.2-7.7 4.8-2.7 1.7-5.5 3.4-8.3 5.1-2.8 1.7-5.7 3.5-8.6 5.2-2.9 1.7-5.8 3.4-8.6 5.1-2.8 1.7-5.7 3.3-8.4 4.9-5.5 3.2-10.6 6.1-15 8.6-8.8 4.9-14.8 8.1-14.8 8.1s5.6-3.8 14.1-9.3c4.2-2.7 9.2-5.9 14.6-9.2 2.7-1.6 5.5-3.4 8.3-5.1 2.8-1.7 5.7-3.5 8.6-5.2 2.9-1.7 5.8-3.4 8.6-5.1 2.9-1.7 5.7-3.3 8.4-4.9 2.7-1.6 5.4-3.1 7.9-4.5s4.9-2.8 7.1-4c8.8-5.1 14.8-8.2 14.8-8.2M304.2 291.6s-5.6 3.8-14.1 9.3c-2.1 1.4-4.4 2.8-6.9 4.4-2.5 1.5-5 3.2-7.7 4.8-2.7 1.7-5.5 3.4-8.3 5.1-2.8 1.7-5.7 3.5-8.6 5.2-2.9 1.7-5.8 3.4-8.6 5.1-2.8 1.7-5.7 3.3-8.4 4.9-5.5 3.2-10.6 6.1-15 8.6-8.8 4.9-14.8 8.1-14.8 8.1s5.6-3.8 14.1-9.3c4.2-2.7 9.2-5.9 14.6-9.2 2.7-1.7 5.5-3.4 8.3-5.1 2.8-1.7 5.7-3.5 8.6-5.2 2.9-1.7 5.8-3.4 8.6-5.1 2.9-1.7 5.7-3.3 8.4-4.9 2.7-1.6 5.4-3.1 7.9-4.5s4.9-2.8 7.1-4c8.8-5 14.8-8.2 14.8-8.2M304.2 340.7s-5.6 3.8-14.1 9.3c-2.1 1.4-4.4 2.8-6.9 4.4-2.5 1.5-5 3.2-7.7 4.8-2.7 1.7-5.5 3.4-8.3 5.1-2.8 1.7-5.7 3.5-8.6 5.2-2.9 1.7-5.8 3.4-8.6 5.1-2.8 1.7-5.7 3.3-8.4 4.9-5.5 3.2-10.6 6.1-15 8.6-8.8 5-14.8 8.1-14.8 8.1s5.6-3.8 14.1-9.3c4.2-2.7 9.2-5.9 14.6-9.2 2.7-1.6 5.5-3.4 8.3-5.1 2.8-1.7 5.7-3.5 8.6-5.2 2.9-1.7 5.8-3.4 8.6-5.1 2.9-1.7 5.7-3.3 8.4-4.9 2.7-1.6 5.4-3.1 7.9-4.5s4.9-2.8 7.1-4c8.8-5.1 14.8-8.2 14.8-8.2"></path></svg>