<svg xmlns="http://www.w3.org/2000/svg" width="64" height="64" viewBox="0 0 512 512"><defs></defs><path fill="#E79E2F" d="M504.1 256C504.1 119 393 7.9 256 7.9S7.9 119 7.9 256 119 504.1 256 504.1 504.1 393 504.1 256z"></path><path fill="#B4D85D" d="M224.4 351.6v50.7h66.8V362c0-18.2 21.3-59.2 59.1-96.9L334 246.9l-39 38.4 26.7-41.6h-38.4l-18.7 35-8.7-35h-44.2l22.2 53.6-61.2-52.3-11.7 22c-.1-.1 63.4 29.8 63.4 84.6z"></path><ellipse fill="#557F2D" cx="161.2" cy="225.9" rx="50.4" ry="44.2"></ellipse><circle fill="#557F2D" cx="193.4" cy="181" r="39.7"></circle><ellipse fill="#557F2D" cx="240.9" cy="163.5" rx="52" ry="46.2"></ellipse><ellipse fill="#557F2D" cx="305.7" cy="168" rx="42.6" ry="39.7"></ellipse><ellipse fill="#557F2D" cx="353.1" cy="201.9" rx="38.7" ry="34.5"></ellipse><ellipse fill="#557F2D" cx="364.9" cy="233.1" rx="40.7" ry="34.5"></ellipse><circle fill="#557F2D" cx="329.4" cy="218.8" r="34.5"></circle><circle fill="#557F2D" cx="231" cy="232.2" r="39.7"></circle><circle fill="#557F2D" cx="275.4" cy="227.2" r="37.7"></circle><ellipse transform="matrix(.993 -.117 .117 .993 -18.539 31.875)" fill="#466624" cx="263" cy="174.3" rx="47.5" ry="32.9"></ellipse><ellipse transform="matrix(.993 -.117 .117 .993 -19.194 31.991)" fill="#557F2D" cx="263.7" cy="180" rx="47.5" ry="32.9"></ellipse><ellipse transform="matrix(-.999 .045 -.045 -.999 509.582 438.324)" fill="#466624" cx="249.9" cy="224.9" rx="38.1" ry="26.3"></ellipse><ellipse transform="matrix(-.999 .045 -.045 -.999 510.196 447.413)" fill="#557F2D" cx="250.1" cy="229.5" rx="38.1" ry="26.3"></ellipse><ellipse transform="matrix(-1 .025 -.025 -1 689.911 402.701)" fill="#466624" cx="342.4" cy="205.7" rx="38.1" ry="26.3"></ellipse><ellipse transform="matrix(-1 .025 -.025 -1 690.255 411.806)" fill="#557F2D" cx="342.5" cy="210.2" rx="38.1" ry="26.3"></ellipse><ellipse transform="matrix(-.96 .279 -.279 -.96 399.961 365.047)" fill="#466624" cx="174" cy="211" rx="38.1" ry="26.3"></ellipse><ellipse transform="matrix(-.96 .279 -.279 -.96 403.673 373.261)" fill="#557F2D" cx="175.3" cy="215.4" rx="38.1" ry="26.3"></ellipse></svg>