<svg xmlns="http://www.w3.org/2000/svg" width="64" height="64" viewBox="0 0 512 512"><defs></defs><path fill="#32BEA6" d="M504.1 256C504.1 119 393 7.9 256 7.9S7.9 119 7.9 256 119 504.1 256 504.1 504.1 393 504.1 256z"></path><path fill="#E8E1D6" d="M238.1 369.9v133.5c5.9.4 11.9.6 17.9.6 6 0 12-.2 17.9-.6V369.9h-35.8z"></path><path fill="#fff" d="M238.1 369.9v133.5c5.9.4 11.9.6 17.9.6l17.9-134.2h-35.8z"></path><path fill="#EA4949" d="M406.6 256c0-83.2-67.4-150.6-150.6-150.6-83.2 0-150.6 67.4-150.6 150.6 0 83.2 67.4 150.6 150.6 150.6 83.2 0 150.6-67.4 150.6-150.6z"></path><path fill="#F46969" d="M351.7 155.4c-54.2-54.2-142-54.2-196.2 0-54.2 54.2-54.2 142 0 196.2 54.1 54.2 250.3-142 196.2-196.2z"></path></svg>