<svg xmlns="http://www.w3.org/2000/svg" width="64" height="64" viewBox="0 0 512 512"><defs></defs><path fill="#EB9682" d="M504.1 256c0 137-111.1 248.1-248.1 248.1S7.9 393 7.9 256 119 7.9 256 7.9 504.1 119 504.1 256"></path><path fill="#5C3A64" d="M334.3 324.6c-5.5-13.2-62.1-128.2-73.5-154-9-20.3-33.2-30.1-53.7-21.6-7.4 3.1-13.8 8.3-18.3 14.9 0 0 0 .1-.1.1l-1.5 2.4c-.1.1-.2.3-.2.4-.5.8-.9 1.6-1.3 2.5-5.3 11-4.5 22.1-1.6 33.6 7 27.4 35 152 38.8 165.6 3 16.3 9.9 30.9 23 41.5 12.2 9.9 27.9 14.7 43.6 13.4.8-.1 1.5-.1 2.3-.2.2 0 .3 0 .5-.1.6-.1 1.3-.2 1.9-.3.1 0 .2 0 .4-.1 18.3-3.1 34.6-14.6 43.6-30.9 5-9 7.6-19.3 7.6-29.6-.1-13.6-5.3-25.7-11.5-37.6M222.8 368.5c-.4-1.6.3 1.7 0 0"></path><path fill="#95BD3D" d="M256 175.7c.5 0 .9-.1 1.4-.1.2 0 .4 0 .6-.1.5-.1 1-.1 1.5-.2.2 0 .4-.1.5-.1.4-.1.7-.1 1.1-.2.2 0 .4-.1.6-.1.4-.1.9-.2 1.3-.3.2-.1.4-.1.6-.2l.8-.2c.3-.1.7-.2 1-.3.2-.1.5-.2.7-.2.3-.1.5-.2.8-.3.1-.1.3-.1.4-.2l1.5-.6c.1 0 .1-.1.2-.1 8.4-3.8 13-9.3 13-9.3s-19.6 3.3-39.7-19.7-36.8-17.4-36.8-17.4c-6.9-9.8-1.2-36.4-1.2-36.4H191c-3.5 20.7 2.3 39.9 2.3 39.9-1.7 2.3-20.7 5.5-13.8 33.8 6.9 28.3-13.2 51.6-13.2 51.6.8.1 1.7.1 2.5.2h2.2c27.1.4 27.6-29.1 27.6-29.1s1.4 2.5 4.5 5.5l.2.2c.2.2.5.4.7.7.2.2.4.4.7.6l.4.3c.3.2.6.4.8.6l.2.2c.4.3.8.5 1.2.8.1.1.2.2.4.2.4.2.8.5 1.2.7.1 0 .1.1.1.1.5.3.9.5 1.4.7.1.1.3.1.4.2.5.2 1 .5 1.6.7.4.2.8.4 1.3.6.1.1.2.1.3.2.4.2.8.4 1.3.6l.3.1c.3.2.7.4 1 .6.1.1.3.2.4.3.4.2.8.5 1.2.7.1.1.3.2.5.3.3.2.5.4.8.6.2.1.4.2.6.4.3.2.7.5 1.1.8.2.2.4.3.6.5l.6.4c.4.3.7.6 1.1.8l.5.4c.2.2.5.4.7.6.1.1.2.2.4.3.5.4.9.8 1.4 1.1l.2.2c.3.2.5.4.8.7l.1.1c.5.4.9.8 1.4 1.2l.1.1c.7.6 1.4 1.2 2 1.8l.1.1c.6.5 1.1 1 1.5 1.5l.2.2c1.3 1.2 2 2 2 2 5.8-10.9 5.2-40.9 5.2-40.9.7.2 1.4.4 2.2.6.2 0 .4.1.5.1.7.2 1.4.3 2 .5.1 0 .3 0 .4.1.6.1 1.1.2 1.7.3.2 0 .4.1.5.1.6.1 1.3.2 1.9.2h.6c.5 0 1 .1 1.5.1h2.7c.5 0 1 0 1.5-.1.1-.1.2-.1.4-.1"></path></svg>