<svg xmlns="http://www.w3.org/2000/svg" width="64" height="64" viewBox="0 0 512 512"><defs></defs><path fill="#25B7D3" d="M504.1 256C504.1 119 393 7.9 256 7.9S7.9 119 7.9 256 119 504.1 256 504.1 504.1 393 504.1 256z"></path><ellipse fill="#C1C9C9" cx="254.8" cy="345" rx="85.7" ry="42.8"></ellipse><path fill="#C1C9C9" d="M169.1 167h171.3v178.5H169.1zM359.5 199.6c-33.2 0-51.5 28.3-59.2 63.4-7.7 35 5.8 73.4 31.4 73.4 27.5 0 55.1-45 62.8-80 7.6-35.1-1.8-56.8-35-56.8zM334 318.1c-18.6 0-28.3-28.9-22.7-54.3 5.6-25.4 24.4-48.7 42.9-48.7 27 0 30.9 15.6 25.3 41-5.5 25.4-28.2 62-45.5 62z"></path><path fill="#53B2BC" d="M340.5 167.7c0-23.7-38.4-42.8-85.7-42.8-47.3 0-85.7 19.2-85.7 42.8v.1h7.4v158.5H333V167.8h7.5v-.1z"></path><path fill="#EAE2DA" d="M176.5 219.4H333v106.9H176.5z"></path><path fill="#EDE7E2" d="M176.5 219.4h78.3v106.9h-78.3z"></path><ellipse fill="#fff" cx="254.8" cy="220.7" rx="78.3" ry="39.1"></ellipse><path fill="#fff" d="M333.1 220.7c0 21.6-35.1 39.1-78.3 39.1v-78.3c43.2 0 78.3 17.6 78.3 39.2z"></path><path fill="#C1C9C9" d="M254.8 124.2c-47.3 0-85.7 19.2-85.7 42.8 0 23.7 38.4 42.8 85.7 42.8 47.3 0 85.7-19.2 85.7-42.8 0-23.6-38.4-42.8-85.7-42.8zm0 78.2c-43.3 0-78.4-15.8-78.4-35.4 0-19.5 35.1-35.4 78.4-35.4 43.3 0 78.4 15.8 78.4 35.4 0 19.6-35.1 35.4-78.4 35.4z"></path><ellipse fill="#EAE2DA" cx="254.8" cy="323.1" rx="78.3" ry="39.1"></ellipse><path fill="#EDE7E2" d="M254.8 362.2c-43.2 0-78.3-17.5-78.3-39.1s35.1-39.1 78.3-39.1v78.2z"></path></svg>