<svg xmlns="http://www.w3.org/2000/svg" width="64" height="64" viewBox="0 0 512 512"><defs></defs><path fill="#FABC3D" d="M504.1 256c0 137-111.1 248.1-248.1 248.1S7.9 393 7.9 256 119 7.9 256 7.9 504.1 119 504.1 256"></path><path fill="#fff" d="M149.7 409.3c-1.5 1.5-4 1.5-5.5 0l-43-43c-1-1-1.3-2.7-.8-4.1.5-1.4 1.7-2.6 3.1-2.8l53.6-8.5 248.1-248.1c1.5-1.5 4-1.6 5.5 0 1.5 1.5 1.5 4 0 5.5l-249 249c-.6.6-1.4 1.3-2.2 1.4l-47.2 7.6 37.5 37.5c1.4 1.5 1.5 4-.1 5.5"></path><path fill="#BE1E2D" d="M149.7 409.3c-1.5 1.5-4 1.5-5.5 0l-43-43c-1-1-1.3-2.7-.8-4.1.5-1.4 1.7-2.6 3.1-2.8l53.6-8.5 36.2-36.1c1.5-1.5 4-1.6 5.5 0 1.5 1.5 1.5 4 0 5.5l-37.1 37.1c-.6.6-1.4 1.3-2.2 1.4l-47.2 7.6 37.5 37.5c1.4 1.4 1.5 3.9-.1 5.4"></path><path fill="#F05A28" d="M262.6 291.9L247.5 307l-41.1-41.1 15.1-15.1z"></path><path fill="#009345" d="M215.306 244.647l18.526-18.528 53.465 53.456-18.526 18.528z"></path><path fill="#BE1E2D" d="M287.3 241.3c4.9 4.9 4.9 12.8 0 17.7l-1.5 1.5c-4.9 4.9-12.8 4.9-17.7 0L253.6 246c-4.9-4.9-4.9-12.8 0-17.7l1.5-1.5c4.9-4.9 12.8-4.9 17.7 0l14.5 14.5z"></path><path fill="#716558" d="M300.2 259.9l4.6-4.6c-11.7-19.9-27.4-35.6-47.3-47.3l-4.6 4.6c20.1 11.4 35.8 27.2 47.3 47.3"></path><path fill="#C1B49A" d="M304.6 255.4l4.6-4.6c-11.7-19.9-27.4-35.6-47.3-47.3l-4.6 4.6c20.1 11.5 35.8 27.3 47.3 47.3"></path><path fill="#716558" d="M309 251l4.6-4.6c-11.7-19.9-27.4-35.6-47.3-47.3l-4.6 4.6c20.1 11.5 35.9 27.2 47.3 47.3"></path><path fill="#C1B49A" d="M313.4 246.6l4.6-4.6c-11.7-19.9-27.4-35.6-47.3-47.3l-4.6 4.6c20.1 11.5 35.9 27.2 47.3 47.3"></path><path fill="#716558" d="M317.8 242.2l4.6-4.6c-11.7-19.9-27.4-35.6-47.3-47.3l-4.6 4.6c20.1 11.4 35.9 27.2 47.3 47.3"></path><path fill="#F05A28" d="M338 216.6l-15.1 15-41.1-41.1 15.1-15.1z"></path><path fill="#009345" d="M363.3 203.5l-19.2 19.2-53.4-53.4 19.2-19.2z"></path><path fill="#BE1E2D" d="M363.4 165.2c4.9 4.9 4.9 12.8 0 17.7l-1.5 1.5c-4.9 4.9-12.8 4.9-17.7 0l-14.5-14.5c-4.9-4.9-4.9-12.8 0-17.7l1.5-1.5c4.9-4.9 12.8-4.9 17.7 0l14.5 14.5z"></path><path fill="#716558" d="M375.8 184.3l4.6-4.6c-11.7-19.9-27.4-35.6-47.3-47.3l-4.6 4.6c20.1 11.4 35.8 27.2 47.3 47.3"></path><path fill="#C1B49A" d="M380.2 179.8l4.6-4.6c-11.7-19.9-27.4-35.6-47.3-47.3l-4.6 4.6c20.1 11.5 35.8 27.3 47.3 47.3"></path><path fill="#716558" d="M384.6 175.4l4.6-4.6c-11.7-19.9-27.4-35.6-47.3-47.3l-4.6 4.6c20.1 11.5 35.9 27.2 47.3 47.3"></path><path fill="#C1B49A" d="M389 171l4.6-4.6c-11.7-19.9-27.4-35.6-47.3-47.3l-4.6 4.6c20.1 11.5 35.9 27.2 47.3 47.3"></path><path fill="#716558" d="M393.5 166.6l4.6-4.6c-11.7-19.9-27.4-35.6-47.3-47.3l-4.6 4.6c20.1 11.4 35.8 27.2 47.3 47.3"></path></svg>