<svg xmlns="http://www.w3.org/2000/svg" width="64" height="64" viewBox="0 0 512 512"><defs></defs><path fill="#FABC3D" d="M504.1 256C504.1 119 393 7.9 256 7.9S7.9 119 7.9 256 119 504.1 256 504.1 504.1 393 504.1 256z"></path><path fill="#C69963" d="M359.7 210.4c0-1 0-20.2-.1-21.2 0 0-53.2-44.1-115.9-44.1-62 0-115.8 44.1-115.8 44.1-.1 1.6-.2 19.5-.2 21.2 0 28.3 51.9 44.5 116 44.5s116-16.2 116-44.5z"></path><path fill="#CEA36A" d="M359.7 190.2c0-28.3-51.9-54-116-54-64 0-116 25.6-116 54 0 28.3 51.9 44.5 116 44.5s116-16.2 116-44.5z"></path><path fill="#A07648" d="M171.5 180.5c-3-5.6-13.7-8.7-22.4-4.1s-12 15.3-9.1 20.9c3 5.6 11.2 4 19.8-.6 8.8-4.7 14.7-10.6 11.7-16.2zM258.2 152c-.8-6.7-10.3-14.1-20.8-12.8-10.5 1.2-18 10.6-17.2 17.3.8 6.7 9.6 8.3 20.1 7.1 10.5-1.3 18.7-4.9 17.9-11.6zM307.6 163.8c1-5.4-4.7-13.3-13.1-14.8-8.4-1.5-16.4 4-17.4 9.5-1 5.4 5.5 8.7 14 10.2 8.3 1.4 15.5.5 16.5-4.9zM266.8 212.4c0-6.9-7.9-15.3-17.5-15.3s-17.5 8.5-17.5 15.3c0 6.9 7.9 9.5 17.5 9.5s17.5-2.6 17.5-9.5zM200.4 154.1c-1.3-5.4-9.6-10.3-18-8.3-8.3 2-13.5 10.3-12.2 15.6s8.5 5.8 16.9 3.8c8.3-2.1 14.6-5.8 13.3-11.1zM211.6 192.5c-1.3-5.4-8.2-10.7-14.7-9.1-6.5 1.6-10.2 9.5-8.9 14.8s7.1 6.2 13.6 4.6c6.5-1.6 11.3-5 10-10.3zM344.4 192.6c.7-5.1-4.9-12.2-12.8-13.3-7.9-1.1-15.2 4.3-15.8 9.4-.7 5.1 5.4 7.9 13.4 9 7.8 1 14.5-.1 15.2-5.1zM301.4 200.9c.5-3.6-3.3-8.7-9-9.6-5.6-.8-10.8 2.9-11.4 6.6-.5 3.6 3.8 5.7 9.4 6.5 5.8.8 10.5.1 11-3.5zM255.9 177.2c-.2-3.6-5.1-7.9-10.8-7.5-5.7.4-10 5.1-9.7 8.8.2 3.6 4.9 4.8 10.6 4.4 5.6-.4 10.1-2.1 9.9-5.7z"></path><path fill="#C69963" d="M219.5 269.3c0-1 0-20.2.1-21.2 0 0 53.2-44.1 115.9-44.1 62 0 115.8 44.1 115.8 44.1.1 1.6.2 19.5.2 21.2 0 28.3-51.9 44.5-116 44.5-64.1.1-116-16.1-116-44.5z"></path><path fill="#C19765" d="M219.5 249.2c0-28.3 51.9-54 116-54 64 0 116 25.6 116 54 0 28.3-51.9 44.5-116 44.5-64.1-.1-116-16.2-116-44.5z"></path><path fill="#A07648" d="M407.7 239.5c3-5.6 13.7-8.7 22.4-4.1s12 15.3 9.1 20.9c-3 5.6-11.2 4-19.8-.6-8.8-4.7-14.7-10.6-11.7-16.2zM321 210.9c.8-6.7 10.3-14.1 20.8-12.8 10.5 1.2 18 10.6 17.2 17.3-.8 6.7-9.6 8.3-20.1 7.1-10.5-1.2-18.7-4.8-17.9-11.6zM271.7 222.8c-1-5.4 4.7-13.3 13.1-14.8 8.4-1.5 16.5 4 17.4 9.5 1 5.4-5.5 8.7-14 10.2s-15.6.5-16.5-4.9zM312.4 271.4c0-6.9 7.9-15.3 17.5-15.3 9.7 0 17.5 8.5 17.5 15.3 0 6.9-7.9 9.5-17.5 9.5-9.7 0-17.5-2.7-17.5-9.5zM378.9 213c1.3-5.4 9.6-10.3 18-8.3 8.3 2 13.5 10.3 12.2 15.6s-8.5 5.8-16.9 3.8-14.6-5.7-13.3-11.1zM367.7 251.4c1.3-5.4 8.2-10.7 14.7-9.1 6.5 1.6 10.2 9.5 8.9 14.8s-7.1 6.2-13.6 4.6c-6.6-1.6-11.3-4.9-10-10.3zM234.9 251.5c-.7-5.1 4.9-12.2 12.8-13.3 7.9-1.1 15.2 4.3 15.9 9.4.7 5.1-5.5 7.9-13.4 9-8 1.1-14.7 0-15.3-5.1zM277.8 259.8c-.5-3.6 3.3-8.7 9-9.6 5.6-.8 10.8 2.9 11.4 6.6s-3.8 5.7-9.4 6.5c-5.7.9-10.5.2-11-3.5zM323.4 236.2c.2-3.6 5.1-7.9 10.8-7.5 5.7.4 10 5.1 9.7 8.8-.2 3.6-4.9 4.8-10.6 4.4-5.7-.4-10.2-2.1-9.9-5.7z"></path><path fill="#C69963" d="M301.5 325.7c0-1 0-20.2-.1-21.2 0 0-53.2-44.1-115.9-44.1-62 0-115.8 44.1-115.8 44.1-.1 1.6-.2 19.5-.2 21.2 0 28.3 51.9 44.5 116 44.5 64 0 116-16.2 116-44.5z"></path><path fill="#CEA36A" d="M301.5 305.5c0-28.3-51.9-54-116-54-64 0-116 25.6-116 54 0 28.3 51.9 44.5 116 44.5 64 0 116-16.2 116-44.5z"></path><path fill="#A07648" d="M113.3 295.8c-3-5.6-13.7-8.7-22.4-4.1s-12 15.3-9.1 20.9c3 5.6 11.2 4 19.8-.6 8.8-4.7 14.7-10.6 11.7-16.2zM200 267.3c-.8-6.7-10.3-14.1-20.8-12.8-10.5 1.2-18 10.6-17.2 17.3.8 6.7 9.6 8.3 20.1 7.1 10.5-1.3 18.7-4.9 17.9-11.6zM249.3 279.1c1-5.4-4.7-13.3-13.1-14.8-8.4-1.5-16.5 4-17.4 9.5-1 5.4 5.5 8.7 14 10.2 8.4 1.4 15.6.5 16.5-4.9zM208.6 327.7c0-6.9-7.9-15.3-17.5-15.3-9.7 0-17.5 8.5-17.5 15.3 0 6.9 7.9 9.5 17.5 9.5 9.7 0 17.5-2.6 17.5-9.5zM142.1 269.4c-1.3-5.4-9.6-10.3-18-8.3-8.3 2-13.5 10.3-12.2 15.6 1.3 5.4 8.5 5.8 16.9 3.8 8.4-2.1 14.6-5.8 13.3-11.1zM153.3 307.8c-1.3-5.4-8.2-10.7-14.7-9.1-6.5 1.6-10.2 9.5-8.9 14.8 1.3 5.4 7.1 6.2 13.6 4.6 6.6-1.6 11.3-5 10-10.3zM286.1 307.9c.7-5.1-4.9-12.2-12.8-13.3-7.9-1.1-15.2 4.3-15.9 9.4-.7 5.1 5.5 7.9 13.4 9 8 1 14.6-.1 15.3-5.1zM243.2 316.2c.5-3.6-3.3-8.7-9-9.6-5.6-.8-10.8 2.9-11.4 6.6-.5 3.6 3.8 5.7 9.4 6.5 5.7.8 10.5.1 11-3.5zM197.6 292.5c-.2-3.6-5.1-7.9-10.8-7.5s-10 5.1-9.7 8.8c.2 3.6 4.9 4.8 10.6 4.4 5.7-.4 10.2-2.1 9.9-5.7z"></path></svg>