<svg xmlns="http://www.w3.org/2000/svg" width="64" height="64" viewBox="0 0 512 512"><defs></defs><path fill="#AEE849" d="M504.1 256C504.1 119 393 7.9 256 7.9S7.9 119 7.9 256 119 504.1 256 504.1 504.1 393 504.1 256z"></path><path fill="#659626" d="M256 381c98.7 0 178.9-79.5 180.1-178H75.9c1.2 98.5 81.3 178 180.1 178z"></path><path fill="#FFE8B2" d="M256 375.3c95.3 0 172.6-77.1 172.8-172.3H83.2c.2 95.2 77.5 172.3 172.8 172.3z"></path><path fill="#F63D3A" d="M256 362.9c88.6 0 160.6-71.5 161.4-159.9H94.6c.8 88.4 72.8 159.9 161.4 159.9z"></path><path fill="#604D36" d="M256 315.6c-2.4 0-6.5 9.1-6.5 11.1 0 3.6 2.9 6.5 6.5 6.5s6.5-2.9 6.5-6.5c0-2-4.1-11.1-6.5-11.1zM291.2 310.6c-2.4.6-4.2 10.3-3.7 12.3.8 3.5 4.3 5.6 7.8 4.8s5.6-4.3 4.8-7.8c-.5-1.9-6.6-9.8-8.9-9.3zM321 297.7c-2.1 1.3-.7 11.1.3 12.9 1.9 3 5.9 4 8.9 2.1s4-5.9 2.1-8.9c-1-1.7-9.2-7.3-11.3-6.1zM166.9 274.7c-1.4-2-11.2.2-12.8 1.4-2.9 2.1-3.5 6.2-1.4 9 2.1 2.9 6.2 3.5 9 1.4 1.7-1.2 6.6-9.9 5.2-11.8zM344.5 274.8c-1.4 2 3.7 10.5 5.4 11.7 2.9 2.1 7 1.3 9-1.6 2.1-2.9 1.3-7-1.6-9-1.7-1.1-11.4-3.1-12.8-1.1zM152.4 246.4c-.4-2.4-10-4.9-12-4.5-3.5.6-5.9 3.9-5.3 7.4.6 3.5 3.9 5.9 7.4 5.3 2-.4 10.3-5.8 9.9-8.2zM359 246.8c-.3 2.4 8.3 7.5 10.3 7.7 3.5.4 6.8-2.1 7.2-5.7.4-3.5-2.1-6.8-5.7-7.2-2-.2-11.5 2.8-11.8 5.2zM191.5 297.7c-2.1-1.2-10.2 4.6-11.2 6.3-1.8 3.1-.8 7 2.3 8.9s7 .8 8.9-2.3c1-1.8 2.1-11.7 0-12.9zM220.8 310.7c-2.4-.6-8.4 7.3-8.9 9.3-.8 3.5 1.3 7 4.8 7.8 3.5.8 7-1.3 7.8-4.8.5-2-1.3-11.8-3.7-12.3z"></path></svg>