<svg xmlns="http://www.w3.org/2000/svg" width="64" height="64" viewBox="0 0 512 512"><defs></defs><path fill="#32BEA6" d="M504.1 256C504.1 119 393 7.9 256 7.9S7.9 119 7.9 256 119 504.1 256 504.1 504.1 393 504.1 256z"></path><path fill="#F7D857" d="M349.5 221.6c0-25.8-62.7-46.6-140.1-46.6-77.4 0-140.1 20.9-140.1 46.6v65c0 25.8 62.7 46.6 140.1 46.6 36 0 68.9-4.5 93.7-12 .4-.1.7-.2 1-.4v-34.3s45.4-.4 45.4 0v-64.9z"></path><path fill="#F9E17A" d="M442.7 302.6v-65H302.6v65.3s94.5 34.1 94.6 34.1c27.9-8.5 45.5-20.8 45.5-34.4z"></path><path fill="#E5AA17" d="M442.7 302.6v-65L397 272.1l.1 65c28-8.6 45.6-20.9 45.6-34.5z"></path><path fill="#F2B225" d="M302.6 237.7l94.6 34.4c28-8.5 45.5-20.8 45.5-34.4H302.6z"></path><ellipse transform="matrix(.707 -.707 .707 .707 -111.961 310.527)" fill="#E8CF64" cx="318.9" cy="290.4" rx="9.8" ry="11.8"></ellipse><ellipse transform="matrix(.707 -.707 .707 .707 -110.606 313.177)" fill="#F9E17A" cx="322.7" cy="290.1" rx="8.1" ry="9.7"></ellipse><path fill="#E8CF64" d="M342.2 265.8c2.3 2.3 2.7 5.8.7 7.7-1.9 1.9-5.4 1.6-7.7-.7s-2.7-5.8-.7-7.7c1.9-2 5.3-1.7 7.7.7z"></path><ellipse transform="matrix(.707 -.707 .707 .707 -90.524 319.656)" fill="#F9E17A" cx="340.6" cy="269.1" rx="4.1" ry="4.9"></ellipse><ellipse transform="matrix(.707 -.707 .707 .707 -95.676 345.366)" fill="#E8CF64" cx="369.1" cy="288.2" rx="12.9" ry="15.6"></ellipse><ellipse transform="matrix(.707 -.707 .707 .707 -93.391 347.358)" fill="#F9E17A" cx="372.6" cy="286.4" rx="12.8" ry="13.8"></ellipse><path fill="#E5AA17" d="M349.5 221.6c0-25.8-62.7-46.6-140.1-46.6-77.4 0-140.1 20.9-140.1 46.6v65c0 25.8 62.7 46.6 140.1 46.6V221.6h140.1z"></path><path fill="#FCB72B" d="M349.5 221.6c0-25.8-62.7-46.6-140.1-46.6-77.4 0-140.1 20.9-140.1 46.6 0 25.8 62.7 46.6 140.1 46.6v-46.6h140.1z"></path><path fill="#E5AA17" d="M209.4 268.2v65c36.5 0 69.8-4.7 94.7-12.3L304 256c-24.9 7.6-58.1 12.2-94.6 12.2z"></path><path fill="#FCB72B" d="M209.4 229.8v38.4c36.5 0 69.7-4.6 94.6-12.2l-94.6-34.4v8.2z"></path></svg>