<svg xmlns="http://www.w3.org/2000/svg" width="64" height="64" viewBox="0 0 512 512"><defs></defs><path fill="#EA4949" d="M504.1 256c0 137-111.1 248.1-248.1 248.1S7.9 393 7.9 256 119 7.9 256 7.9 504.1 119 504.1 256"></path><path fill="#C3996B" d="M375.8 235.1c-3 0-5.9.5-8.6 1.5-4.6-4.2-10.8-6.7-17.5-6.7-6.9 0-13.2 2.7-17.8 7-4.1-9.1-13.2-15.4-23.8-15.4-10 0-18.7 5.6-23.1 13.8-4.8-6.1-12.2-10-20.5-10-8.1 0-15.4 3.7-20.2 9.5-4.8-5.8-12-9.5-20.2-9.5-6.8 0-13.1 2.6-17.7 6.9-3.8-9.7-13.3-16.6-24.4-16.6-8.3 0-15.6 3.8-20.4 9.8-7.6.6-14.4 4.4-18.8 10.2-1.7-.4-3.5-.6-5.4-.6-14.4 0-26.2 11.7-26.2 26.2s11.7 26.2 26.2 26.2c8.5 0 16-4 20.8-10.3 1.7.4 3.5.6 5.4.6 8.2 0 15.6-3.8 20.4-9.8 6.1-.5 11.5-3 15.7-6.8 3.8 9.7 13.3 16.6 24.4 16.6 8.1 0 15.4-3.7 20.2-9.5 4.8 5.8 12 9.5 20.2 9.5 10 0 18.7-5.6 23.1-13.8 4.8 6.1 12.2 10 20.5 10 6.9 0 13.2-2.7 17.8-7 4.1 9.1 13.2 15.3 23.8 15.3 3 0 5.9-.5 8.6-1.5 4.6 4.2 10.8 6.7 17.5 6.7 14.5 0 26.2-11.7 26.2-26.2s-11.8-26.1-26.2-26.1"></path><path fill="#fff" d="M375.8 254.5c-3 0-5.9.5-8.6 1.5-4.6-4.2-10.8-6.7-17.5-6.7-6.9 0-13.2 2.7-17.8 7-4.1-9.1-13.2-15.4-23.8-15.4-10 0-18.7 5.6-23.1 13.8-4.8-6.1-12.2-10-20.5-10-8.1 0-15.4 3.7-20.2 9.5-4.8-5.8-12-9.5-20.2-9.5-6.8 0-13.1 2.6-17.7 6.9-3.8-9.7-13.3-16.6-24.4-16.6-8.3 0-15.6 3.8-20.4 9.8-7.6.6-14.4 4.4-18.8 10.2-1.7-.4-3.5-.6-5.4-.6-11 0-20.4 6.8-24.3 16.5 3.9 9.6 13.3 16.5 24.3 16.5 8.5 0 16-4 20.8-10.3 1.7.4 3.5.6 5.4.6 8.2 0 15.6-3.8 20.4-9.8 6.1-.5 11.5-3 15.7-6.8 3.8 9.7 13.3 16.6 24.4 16.6 8.1 0 15.4-3.7 20.2-9.5 4.8 5.8 12 9.5 20.2 9.5 10 0 18.7-5.6 23.1-13.8 4.8 6.1 12.2 10 20.5 10 6.9 0 13.2-2.7 17.8-7 4.1 9.1 13.2 15.4 23.8 15.4 3 0 5.9-.5 8.6-1.5 4.6 4.2 10.8 6.7 17.5 6.7 11 0 20.4-6.8 24.3-16.5-3.9-9.7-13.3-16.5-24.3-16.5"></path><path fill="#C1B49A" d="M256 406.6c80 0 144.8-62.1 144.8-144.8H111.2c0 82.7 64.8 144.8 144.8 144.8"></path><path fill="#fff" d="M285.5 196.2c5-5.7 13.8-6.3 19.5-1.3 5.7 5 6.3 13.8 1.3 19.5-5 5.7-30 15.2-26 8.7 4.3-7 .2-21.1 5.2-26.9M248.3 205.1c-3.9-6.5-1.8-15 4.7-19 6.5-3.9 15-1.8 19 4.7 3.9 6.5 5.4 33.2.4 27.4-5.4-6.2-20.1-6.6-24.1-13.1"></path></svg>