<svg xmlns="http://www.w3.org/2000/svg" width="64" height="64" viewBox="0 0 64 64"><defs></defs><path fill="#FFD00B" d="M63 56H1V23L40.1 8 63 23z"></path><path fill="#F79E00" d="M1 23h62v33H1z"></path><path fill="#F47A00" d="M1 23h62v33"></path><circle fill="#FFD00B" cx="14.6" cy="36.8" r="4.6"></circle><circle fill="#FFED0D" cx="15.4" cy="37.6" r="3.5"></circle><circle fill="#FFD00B" cx="51.6" cy="46.6" r="4.6"></circle><circle fill="#FFED0D" cx="52.4" cy="47.5" r="3.5"></circle><circle fill="#FFD00B" cx="34.5" cy="43.9" r="3.1"></circle><circle fill="#FFED0D" cx="35" cy="44.5" r="2.4"></circle><circle fill="#FFD00B" cx="43.5" cy="35.8" r="2.2"></circle><circle fill="#FFED0D" cx="43.9" cy="36.2" r="1.7"></circle><circle fill="#FFD00B" cx="27.2" cy="30" r="2.8"></circle><circle fill="#FFED0D" cx="27.6" cy="30.5" r="2.1"></circle><circle fill="#FFD00B" cx="6.8" cy="28.1" r="1.9"></circle><circle fill="#FFED0D" cx="7.1" cy="28.5" r="1.5"></circle><circle fill="#FFD00B" cx="24.2" cy="40.2" r="1.9"></circle><circle fill="#FFED0D" cx="24.5" cy="40.5" r="1.5"></circle><ellipse fill="#F79E00" cx="43.8" cy="16.6" rx="2.8" ry="1.6"></ellipse><ellipse fill="#FFB40D" cx="44.3" cy="16.9" rx="2.1" ry="1.2"></ellipse><ellipse fill="#F79E00" cx="37" cy="14" rx="1.9" ry="1.1"></ellipse><ellipse fill="#FFB40D" cx="37.3" cy="14.2" rx="1.4" ry=".8"></ellipse><ellipse fill="#F79E00" cx="25" cy="18.3" rx="1.3" ry=".8"></ellipse><ellipse fill="#FFB40D" cx="25.3" cy="18.5" rx="1" ry=".6"></ellipse><ellipse fill="#F79E00" cx="32.2" cy="19.7" rx="1.6" ry=".9"></ellipse><ellipse fill="#FFB40D" cx="32.5" cy="19.9" rx="1.2" ry=".7"></ellipse><ellipse fill="#F79E00" cx="49.4" cy="20.4" rx="1.1" ry=".7"></ellipse><ellipse fill="#FFB40D" cx="49.6" cy="20.5" rx=".9" ry=".5"></ellipse><ellipse fill="#F79E00" cx="16.6" cy="20" rx="1.1" ry=".7"></ellipse><ellipse fill="#FFB40D" cx="16.8" cy="20.1" rx=".9" ry=".5"></ellipse><ellipse fill="#F79E00" cx="32.5" cy="16.6" rx=".8" ry=".5"></ellipse><ellipse fill="#FFB40D" cx="32.6" cy="16.7" rx=".6" ry=".4"></ellipse><ellipse fill="#F79E00" cx="55.6" cy="20.8" rx=".8" ry=".5"></ellipse><ellipse fill="#FFB40D" cx="55.7" cy="20.9" rx=".6" ry=".4"></ellipse><circle fill="#FFD00B" cx="28.6" cy="50.4" r="1.9"></circle><circle fill="#FFED0D" cx="28.9" cy="50.7" r="1.5"></circle><circle fill="#FFD00B" cx="58.3" cy="34" r="1.9"></circle><circle fill="#FFED0D" cx="58.6" cy="34.3" r="1.5"></circle><circle fill="#FFD00B" cx="6" cy="44.9" r="1.3"></circle><path fill="#FFED0D" d="M7.2 45.1c0 .5-.4 1-1 1s-1-.4-1-1c0-.5.4-1 1-1s1 .5 1 1z"></path><circle fill="#FFD00B" cx="49.1" cy="30.4" r="1.3"></circle><circle fill="#FFED0D" cx="49.3" cy="30.6" r="1"></circle><circle fill="#FFD00B" cx="38.6" cy="29.5" r="1.3"></circle><circle fill="#FFED0D" cx="38.8" cy="29.7" r="1"></circle><circle fill="#FFD00B" cx="15.2" cy="46.4" r=".8"></circle><circle fill="#FFED0D" cx="15.3" cy="46.5" r=".6"></circle><path fill="#FFD00B" d="M11.6 50.6c0 .5-.4.8-.8.8-.5 0-.8-.4-.8-.8 0-.5.4-.8.8-.8s.8.3.8.8z"></path><circle fill="#FFED0D" cx="10.9" cy="50.7" r=".6"></circle><path fill="#FFD00B" d="M44 47.5c0 .5-.4.8-.8.8-.5 0-.8-.4-.8-.8s.4-.8.8-.8.8.4.8.8z"></path><circle fill="#FFED0D" cx="43.3" cy="47.7" r=".6"></circle></svg>