<svg xmlns="http://www.w3.org/2000/svg" width="64" height="64" viewBox="0 0 512 512"><defs></defs><path fill="#32BEA6" d="M504.1 256C504.1 119 393 7.9 256 7.9S7.9 119 7.9 256 119 504.1 256 504.1 504.1 393 504.1 256z"></path><ellipse fill="#D3D1D0" cx="256" cy="308" rx="75.6" ry="101.6"></ellipse><path fill="#D3D1D0" d="M234.2 153.9l-1.5 29.4c0 16.8-10.5 29.4-29 51.2h56.7v-80.6h-26.2zM277.8 153.9l1.5 29.4c0 16.8 10.5 29.4 29 51.2h-56.7v-80.6h26.2zM231.1 136.4c-26.3 0-47.6 19.2-47.6 42.8 0 23.6 21.3 42.8 47.6 42.8s47.6-19.2 47.6-42.8c0-23.6-21.3-42.8-47.6-42.8zm0 72.3c-18.1 0-32.7-13.2-32.7-29.5s14.7-29.5 32.7-29.5c18.1 0 32.7 13.2 32.7 29.5s-14.6 29.5-32.7 29.5zM277.4 123.9h-42.8l-.4 30h43.6zM286.4 118.8l-30.5-19.6h38.8c4.3 0 3.1 3.4.7 6.8-2.5 3.4-9 12.8-9 12.8z"></path><ellipse fill="#D3D1D0" cx="256" cy="114.7" rx="31.5" ry="15.5"></ellipse><path fill="#D3D1D0" d="M256 115.9c12.2 0 22.7-3.4 27.9-8.4-5.2-5-15.8-8.4-27.9-8.4-12.2 0-22.7 3.4-27.9 8.4 5.2 5 15.7 8.4 27.9 8.4z"></path><path fill="#A4A3A3" d="M271.1 113.3c-1-1.7-2-3.6-2.6-5.4-1-3.1-.9-5.8 2.8-5.9 5.8-.1 11.1-.1 12.5.2 1.3.2 1.9.7 2.1 1.3.4 1.2-.9 2.9-2.6 4.6-2.4 2.5-10.8 7.6-12.2 5.2z"></path><ellipse fill="#D3D1D0" cx="255.9" cy="400.1" rx="43.7" ry="17.4"></ellipse><path fill="#C5AE2E" d="M299.7 230.4c-15.5-18.3-25.6-24.5-25.6-59.2l.1-16.2h-36.5l.1 16.2c0 34.7-10.1 40.9-25.6 59.2 0 0-6.4 8.4-9.7 13.3-11.4 17.1-18.3 39.6-18.3 64.3 0 53.3 32.1 96.4 71.7 96.4s71.7-43.2 71.7-96.4c0-24.5-6.8-46.9-18-63.9-3.3-5.1-9.9-13.7-9.9-13.7z"></path><path fill="#D4BE29" d="M299.7 230.4c-15.5-18.3-25.6-24.5-25.6-59.2l.1-16.2h-36.5l.1 16.2c0 34.7-10.1 40.9-25.6 59.2 0 0-6.4 8.4-9.7 13.3-11.4 17.1-18.3 39.6-18.3 64.3.1 53.2 115.5-77.6 115.5-77.6z"></path><ellipse fill="#B1AE36" cx="256" cy="155" rx="18.2" ry="4.2"></ellipse><path fill="#CBA159" d="M271.7 138V98h-31.4v40z"></path><path fill="#D3D1D0" d="M256 115.9c-12.2 0-22.7-3.4-27.9-8.4-2.2 2.1-3.5 4.6-3.5 7.1 0 8.6 14.1 15.5 31.5 15.5s31.5-7 31.5-15.5c0-2.6-1.3-5-3.5-7.1-5.4 5-15.9 8.4-28.1 8.4z"></path><ellipse fill="#AE8635" cx="256" cy="98.1" rx="15.7" ry="3.6"></ellipse><ellipse fill="#CBA159" cx="256" cy="137.6" rx="15.7" ry="3.6"></ellipse></svg>